G04 #@! TF.GenerationSoftware,KiCad,Pcbnew,(5.0.1)-3*
G04 #@! TF.CreationDate,2019-06-25T15:48:08+01:00*
G04 #@! TF.ProjectId,drumkid v3,6472756D6B69642076332E6B69636164,03*
G04 #@! TF.SameCoordinates,Original*
G04 #@! TF.FileFunction,Soldermask,Top*
G04 #@! TF.FilePolarity,Negative*
%FSLAX46Y46*%
G04 Gerber Fmt 4.6, Leading zero omitted, Abs format (unit mm)*
G04 Created by KiCad (PCBNEW (5.0.1)-3) date 25/06/2019 15:48:08*
%MOMM*%
%LPD*%
G01*
G04 APERTURE LIST*
%ADD10C,0.100000*%
G04 APERTURE END LIST*
D10*
G36*
X125896630Y-152832299D02*
X126056855Y-152880903D01*
X126204520Y-152959831D01*
X126333949Y-153066051D01*
X126440169Y-153195480D01*
X126519097Y-153343145D01*
X126567701Y-153503370D01*
X126584112Y-153670000D01*
X126567701Y-153836630D01*
X126519097Y-153996855D01*
X126440169Y-154144520D01*
X126333949Y-154273949D01*
X126204520Y-154380169D01*
X126056855Y-154459097D01*
X125896630Y-154507701D01*
X125771752Y-154520000D01*
X125688248Y-154520000D01*
X125563370Y-154507701D01*
X125403145Y-154459097D01*
X125255480Y-154380169D01*
X125126051Y-154273949D01*
X125019831Y-154144520D01*
X124940903Y-153996855D01*
X124892299Y-153836630D01*
X124875888Y-153670000D01*
X124892299Y-153503370D01*
X124940903Y-153343145D01*
X125019831Y-153195480D01*
X125126051Y-153066051D01*
X125255480Y-152959831D01*
X125403145Y-152880903D01*
X125563370Y-152832299D01*
X125688248Y-152820000D01*
X125771752Y-152820000D01*
X125896630Y-152832299D01*
X125896630Y-152832299D01*
G37*
G36*
X160820000Y-153200000D02*
X159220000Y-153200000D01*
X159220000Y-151600000D01*
X160820000Y-151600000D01*
X160820000Y-153200000D01*
X160820000Y-153200000D01*
G37*
G36*
X147593352Y-151630743D02*
X147738941Y-151691048D01*
X147869973Y-151778601D01*
X147981399Y-151890027D01*
X148068952Y-152021059D01*
X148129257Y-152166648D01*
X148160000Y-152321205D01*
X148160000Y-152478795D01*
X148129257Y-152633352D01*
X148068952Y-152778941D01*
X147981399Y-152909973D01*
X147869973Y-153021399D01*
X147738941Y-153108952D01*
X147593352Y-153169257D01*
X147438795Y-153200000D01*
X147281205Y-153200000D01*
X147126648Y-153169257D01*
X146981059Y-153108952D01*
X146850027Y-153021399D01*
X146738601Y-152909973D01*
X146651048Y-152778941D01*
X146590743Y-152633352D01*
X146560000Y-152478795D01*
X146560000Y-152321205D01*
X146590743Y-152166648D01*
X146651048Y-152021059D01*
X146738601Y-151890027D01*
X146850027Y-151778601D01*
X146981059Y-151691048D01*
X147126648Y-151630743D01*
X147281205Y-151600000D01*
X147438795Y-151600000D01*
X147593352Y-151630743D01*
X147593352Y-151630743D01*
G37*
G36*
X157753352Y-151630743D02*
X157898941Y-151691048D01*
X158029973Y-151778601D01*
X158141399Y-151890027D01*
X158228952Y-152021059D01*
X158289257Y-152166648D01*
X158320000Y-152321205D01*
X158320000Y-152478795D01*
X158289257Y-152633352D01*
X158228952Y-152778941D01*
X158141399Y-152909973D01*
X158029973Y-153021399D01*
X157898941Y-153108952D01*
X157753352Y-153169257D01*
X157598795Y-153200000D01*
X157441205Y-153200000D01*
X157286648Y-153169257D01*
X157141059Y-153108952D01*
X157010027Y-153021399D01*
X156898601Y-152909973D01*
X156811048Y-152778941D01*
X156750743Y-152633352D01*
X156720000Y-152478795D01*
X156720000Y-152321205D01*
X156750743Y-152166648D01*
X156811048Y-152021059D01*
X156898601Y-151890027D01*
X157010027Y-151778601D01*
X157141059Y-151691048D01*
X157286648Y-151630743D01*
X157441205Y-151600000D01*
X157598795Y-151600000D01*
X157753352Y-151630743D01*
X157753352Y-151630743D01*
G37*
G36*
X150660000Y-153200000D02*
X149060000Y-153200000D01*
X149060000Y-151600000D01*
X150660000Y-151600000D01*
X150660000Y-153200000D01*
X150660000Y-153200000D01*
G37*
G36*
X125896630Y-150292299D02*
X126056855Y-150340903D01*
X126204520Y-150419831D01*
X126333949Y-150526051D01*
X126440169Y-150655480D01*
X126519097Y-150803145D01*
X126567701Y-150963370D01*
X126584112Y-151130000D01*
X126567701Y-151296630D01*
X126519097Y-151456855D01*
X126440169Y-151604520D01*
X126333949Y-151733949D01*
X126204520Y-151840169D01*
X126056855Y-151919097D01*
X125896630Y-151967701D01*
X125771752Y-151980000D01*
X125688248Y-151980000D01*
X125563370Y-151967701D01*
X125403145Y-151919097D01*
X125255480Y-151840169D01*
X125126051Y-151733949D01*
X125019831Y-151604520D01*
X124940903Y-151456855D01*
X124892299Y-151296630D01*
X124875888Y-151130000D01*
X124892299Y-150963370D01*
X124940903Y-150803145D01*
X125019831Y-150655480D01*
X125126051Y-150526051D01*
X125255480Y-150419831D01*
X125403145Y-150340903D01*
X125563370Y-150292299D01*
X125688248Y-150280000D01*
X125771752Y-150280000D01*
X125896630Y-150292299D01*
X125896630Y-150292299D01*
G37*
G36*
X120460649Y-148452577D02*
X120751829Y-148573188D01*
X121013890Y-148748292D01*
X121236745Y-148971147D01*
X121411849Y-149233208D01*
X121532460Y-149524388D01*
X121593946Y-149833503D01*
X121593946Y-150148679D01*
X121532460Y-150457794D01*
X121411849Y-150748974D01*
X121236745Y-151011035D01*
X121013890Y-151233890D01*
X120751829Y-151408994D01*
X120460649Y-151529605D01*
X120151534Y-151591091D01*
X119836358Y-151591091D01*
X119527243Y-151529605D01*
X119236063Y-151408994D01*
X118974002Y-151233890D01*
X118751147Y-151011035D01*
X118576043Y-150748974D01*
X118455432Y-150457794D01*
X118393946Y-150148679D01*
X118393946Y-149833503D01*
X118455432Y-149524388D01*
X118576043Y-149233208D01*
X118751147Y-148971147D01*
X118974002Y-148748292D01*
X119236063Y-148573188D01*
X119527243Y-148452577D01*
X119836358Y-148391091D01*
X120151534Y-148391091D01*
X120460649Y-148452577D01*
X120460649Y-148452577D01*
G37*
G36*
X180460649Y-148452577D02*
X180751829Y-148573188D01*
X181013890Y-148748292D01*
X181236745Y-148971147D01*
X181411849Y-149233208D01*
X181532460Y-149524388D01*
X181593946Y-149833503D01*
X181593946Y-150148679D01*
X181532460Y-150457794D01*
X181411849Y-150748974D01*
X181236745Y-151011035D01*
X181013890Y-151233890D01*
X180751829Y-151408994D01*
X180460649Y-151529605D01*
X180151534Y-151591091D01*
X179836358Y-151591091D01*
X179527243Y-151529605D01*
X179236063Y-151408994D01*
X178974002Y-151233890D01*
X178751147Y-151011035D01*
X178576043Y-150748974D01*
X178455432Y-150457794D01*
X178393946Y-150148679D01*
X178393946Y-149833503D01*
X178455432Y-149524388D01*
X178576043Y-149233208D01*
X178751147Y-148971147D01*
X178974002Y-148748292D01*
X179236063Y-148573188D01*
X179527243Y-148452577D01*
X179836358Y-148391091D01*
X180151534Y-148391091D01*
X180460649Y-148452577D01*
X180460649Y-148452577D01*
G37*
G36*
X155173352Y-149090743D02*
X155318941Y-149151048D01*
X155449973Y-149238601D01*
X155561399Y-149350027D01*
X155648952Y-149481059D01*
X155709257Y-149626648D01*
X155740000Y-149781205D01*
X155740000Y-149938795D01*
X155709257Y-150093352D01*
X155648952Y-150238941D01*
X155561399Y-150369973D01*
X155449973Y-150481399D01*
X155318941Y-150568952D01*
X155173352Y-150629257D01*
X155018795Y-150660000D01*
X154861205Y-150660000D01*
X154706648Y-150629257D01*
X154561059Y-150568952D01*
X154430027Y-150481399D01*
X154318601Y-150369973D01*
X154231048Y-150238941D01*
X154170743Y-150093352D01*
X154140000Y-149938795D01*
X154140000Y-149781205D01*
X154170743Y-149626648D01*
X154231048Y-149481059D01*
X154318601Y-149350027D01*
X154430027Y-149238601D01*
X154561059Y-149151048D01*
X154706648Y-149090743D01*
X154861205Y-149060000D01*
X155018795Y-149060000D01*
X155173352Y-149090743D01*
X155173352Y-149090743D01*
G37*
G36*
X152673352Y-149090743D02*
X152818941Y-149151048D01*
X152949973Y-149238601D01*
X153061399Y-149350027D01*
X153148952Y-149481059D01*
X153209257Y-149626648D01*
X153240000Y-149781205D01*
X153240000Y-149938795D01*
X153209257Y-150093352D01*
X153148952Y-150238941D01*
X153061399Y-150369973D01*
X152949973Y-150481399D01*
X152818941Y-150568952D01*
X152673352Y-150629257D01*
X152518795Y-150660000D01*
X152361205Y-150660000D01*
X152206648Y-150629257D01*
X152061059Y-150568952D01*
X151930027Y-150481399D01*
X151818601Y-150369973D01*
X151731048Y-150238941D01*
X151670743Y-150093352D01*
X151640000Y-149938795D01*
X151640000Y-149781205D01*
X151670743Y-149626648D01*
X151731048Y-149481059D01*
X151818601Y-149350027D01*
X151930027Y-149238601D01*
X152061059Y-149151048D01*
X152206648Y-149090743D01*
X152361205Y-149060000D01*
X152518795Y-149060000D01*
X152673352Y-149090743D01*
X152673352Y-149090743D01*
G37*
G36*
X125896630Y-147752299D02*
X126056855Y-147800903D01*
X126204520Y-147879831D01*
X126333949Y-147986051D01*
X126440169Y-148115480D01*
X126519097Y-148263145D01*
X126567701Y-148423370D01*
X126584112Y-148590000D01*
X126567701Y-148756630D01*
X126519097Y-148916855D01*
X126440169Y-149064520D01*
X126333949Y-149193949D01*
X126204520Y-149300169D01*
X126056855Y-149379097D01*
X125896630Y-149427701D01*
X125771752Y-149440000D01*
X125688248Y-149440000D01*
X125563370Y-149427701D01*
X125403145Y-149379097D01*
X125255480Y-149300169D01*
X125126051Y-149193949D01*
X125019831Y-149064520D01*
X124940903Y-148916855D01*
X124892299Y-148756630D01*
X124875888Y-148590000D01*
X124892299Y-148423370D01*
X124940903Y-148263145D01*
X125019831Y-148115480D01*
X125126051Y-147986051D01*
X125255480Y-147879831D01*
X125403145Y-147800903D01*
X125563370Y-147752299D01*
X125688248Y-147740000D01*
X125771752Y-147740000D01*
X125896630Y-147752299D01*
X125896630Y-147752299D01*
G37*
G36*
X160137649Y-146527717D02*
X160176827Y-146531576D01*
X160252227Y-146554448D01*
X160327629Y-146577321D01*
X160466608Y-146651608D01*
X160588422Y-146751578D01*
X160688392Y-146873392D01*
X160762679Y-147012371D01*
X160808424Y-147163174D01*
X160823870Y-147320000D01*
X160808424Y-147476826D01*
X160762679Y-147627629D01*
X160688392Y-147766608D01*
X160588422Y-147888422D01*
X160466608Y-147988392D01*
X160327629Y-148062679D01*
X160252228Y-148085551D01*
X160176827Y-148108424D01*
X160137649Y-148112283D01*
X160059295Y-148120000D01*
X159980705Y-148120000D01*
X159902351Y-148112283D01*
X159863173Y-148108424D01*
X159787772Y-148085551D01*
X159712371Y-148062679D01*
X159573392Y-147988392D01*
X159451578Y-147888422D01*
X159351608Y-147766608D01*
X159277321Y-147627629D01*
X159231576Y-147476826D01*
X159216130Y-147320000D01*
X159231576Y-147163174D01*
X159277321Y-147012371D01*
X159351608Y-146873392D01*
X159451578Y-146751578D01*
X159573392Y-146651608D01*
X159712371Y-146577321D01*
X159787773Y-146554448D01*
X159863173Y-146531576D01*
X159902351Y-146527717D01*
X159980705Y-146520000D01*
X160059295Y-146520000D01*
X160137649Y-146527717D01*
X160137649Y-146527717D01*
G37*
G36*
X144897649Y-146527717D02*
X144936827Y-146531576D01*
X145012227Y-146554448D01*
X145087629Y-146577321D01*
X145226608Y-146651608D01*
X145348422Y-146751578D01*
X145448392Y-146873392D01*
X145522679Y-147012371D01*
X145568424Y-147163174D01*
X145583870Y-147320000D01*
X145568424Y-147476826D01*
X145522679Y-147627629D01*
X145448392Y-147766608D01*
X145348422Y-147888422D01*
X145226608Y-147988392D01*
X145087629Y-148062679D01*
X145012228Y-148085551D01*
X144936827Y-148108424D01*
X144897649Y-148112283D01*
X144819295Y-148120000D01*
X144740705Y-148120000D01*
X144662351Y-148112283D01*
X144623173Y-148108424D01*
X144547772Y-148085551D01*
X144472371Y-148062679D01*
X144333392Y-147988392D01*
X144211578Y-147888422D01*
X144111608Y-147766608D01*
X144037321Y-147627629D01*
X143991576Y-147476826D01*
X143976130Y-147320000D01*
X143991576Y-147163174D01*
X144037321Y-147012371D01*
X144111608Y-146873392D01*
X144211578Y-146751578D01*
X144333392Y-146651608D01*
X144472371Y-146577321D01*
X144547773Y-146554448D01*
X144623173Y-146531576D01*
X144662351Y-146527717D01*
X144740705Y-146520000D01*
X144819295Y-146520000D01*
X144897649Y-146527717D01*
X144897649Y-146527717D01*
G37*
G36*
X147437649Y-146527717D02*
X147476827Y-146531576D01*
X147552227Y-146554448D01*
X147627629Y-146577321D01*
X147766608Y-146651608D01*
X147888422Y-146751578D01*
X147988392Y-146873392D01*
X148062679Y-147012371D01*
X148108424Y-147163174D01*
X148123870Y-147320000D01*
X148108424Y-147476826D01*
X148062679Y-147627629D01*
X147988392Y-147766608D01*
X147888422Y-147888422D01*
X147766608Y-147988392D01*
X147627629Y-148062679D01*
X147552228Y-148085551D01*
X147476827Y-148108424D01*
X147437649Y-148112283D01*
X147359295Y-148120000D01*
X147280705Y-148120000D01*
X147202351Y-148112283D01*
X147163173Y-148108424D01*
X147087772Y-148085551D01*
X147012371Y-148062679D01*
X146873392Y-147988392D01*
X146751578Y-147888422D01*
X146651608Y-147766608D01*
X146577321Y-147627629D01*
X146531576Y-147476826D01*
X146516130Y-147320000D01*
X146531576Y-147163174D01*
X146577321Y-147012371D01*
X146651608Y-146873392D01*
X146751578Y-146751578D01*
X146873392Y-146651608D01*
X147012371Y-146577321D01*
X147087773Y-146554448D01*
X147163173Y-146531576D01*
X147202351Y-146527717D01*
X147280705Y-146520000D01*
X147359295Y-146520000D01*
X147437649Y-146527717D01*
X147437649Y-146527717D01*
G37*
G36*
X152517649Y-146527717D02*
X152556827Y-146531576D01*
X152632227Y-146554448D01*
X152707629Y-146577321D01*
X152846608Y-146651608D01*
X152968422Y-146751578D01*
X153068392Y-146873392D01*
X153142679Y-147012371D01*
X153188424Y-147163174D01*
X153203870Y-147320000D01*
X153188424Y-147476826D01*
X153142679Y-147627629D01*
X153068392Y-147766608D01*
X152968422Y-147888422D01*
X152846608Y-147988392D01*
X152707629Y-148062679D01*
X152632228Y-148085551D01*
X152556827Y-148108424D01*
X152517649Y-148112283D01*
X152439295Y-148120000D01*
X152360705Y-148120000D01*
X152282351Y-148112283D01*
X152243173Y-148108424D01*
X152167772Y-148085551D01*
X152092371Y-148062679D01*
X151953392Y-147988392D01*
X151831578Y-147888422D01*
X151731608Y-147766608D01*
X151657321Y-147627629D01*
X151611576Y-147476826D01*
X151596130Y-147320000D01*
X151611576Y-147163174D01*
X151657321Y-147012371D01*
X151731608Y-146873392D01*
X151831578Y-146751578D01*
X151953392Y-146651608D01*
X152092371Y-146577321D01*
X152167773Y-146554448D01*
X152243173Y-146531576D01*
X152282351Y-146527717D01*
X152360705Y-146520000D01*
X152439295Y-146520000D01*
X152517649Y-146527717D01*
X152517649Y-146527717D01*
G37*
G36*
X142357649Y-146527717D02*
X142396827Y-146531576D01*
X142472227Y-146554448D01*
X142547629Y-146577321D01*
X142686608Y-146651608D01*
X142808422Y-146751578D01*
X142908392Y-146873392D01*
X142982679Y-147012371D01*
X143028424Y-147163174D01*
X143043870Y-147320000D01*
X143028424Y-147476826D01*
X142982679Y-147627629D01*
X142908392Y-147766608D01*
X142808422Y-147888422D01*
X142686608Y-147988392D01*
X142547629Y-148062679D01*
X142472228Y-148085551D01*
X142396827Y-148108424D01*
X142357649Y-148112283D01*
X142279295Y-148120000D01*
X142200705Y-148120000D01*
X142122351Y-148112283D01*
X142083173Y-148108424D01*
X142007772Y-148085551D01*
X141932371Y-148062679D01*
X141793392Y-147988392D01*
X141671578Y-147888422D01*
X141571608Y-147766608D01*
X141497321Y-147627629D01*
X141451576Y-147476826D01*
X141436130Y-147320000D01*
X141451576Y-147163174D01*
X141497321Y-147012371D01*
X141571608Y-146873392D01*
X141671578Y-146751578D01*
X141793392Y-146651608D01*
X141932371Y-146577321D01*
X142007773Y-146554448D01*
X142083173Y-146531576D01*
X142122351Y-146527717D01*
X142200705Y-146520000D01*
X142279295Y-146520000D01*
X142357649Y-146527717D01*
X142357649Y-146527717D01*
G37*
G36*
X155057649Y-146527717D02*
X155096827Y-146531576D01*
X155172227Y-146554448D01*
X155247629Y-146577321D01*
X155386608Y-146651608D01*
X155508422Y-146751578D01*
X155608392Y-146873392D01*
X155682679Y-147012371D01*
X155728424Y-147163174D01*
X155743870Y-147320000D01*
X155728424Y-147476826D01*
X155682679Y-147627629D01*
X155608392Y-147766608D01*
X155508422Y-147888422D01*
X155386608Y-147988392D01*
X155247629Y-148062679D01*
X155172228Y-148085551D01*
X155096827Y-148108424D01*
X155057649Y-148112283D01*
X154979295Y-148120000D01*
X154900705Y-148120000D01*
X154822351Y-148112283D01*
X154783173Y-148108424D01*
X154707772Y-148085551D01*
X154632371Y-148062679D01*
X154493392Y-147988392D01*
X154371578Y-147888422D01*
X154271608Y-147766608D01*
X154197321Y-147627629D01*
X154151576Y-147476826D01*
X154136130Y-147320000D01*
X154151576Y-147163174D01*
X154197321Y-147012371D01*
X154271608Y-146873392D01*
X154371578Y-146751578D01*
X154493392Y-146651608D01*
X154632371Y-146577321D01*
X154707773Y-146554448D01*
X154783173Y-146531576D01*
X154822351Y-146527717D01*
X154900705Y-146520000D01*
X154979295Y-146520000D01*
X155057649Y-146527717D01*
X155057649Y-146527717D01*
G37*
G36*
X149977649Y-146527717D02*
X150016827Y-146531576D01*
X150092227Y-146554448D01*
X150167629Y-146577321D01*
X150306608Y-146651608D01*
X150428422Y-146751578D01*
X150528392Y-146873392D01*
X150602679Y-147012371D01*
X150648424Y-147163174D01*
X150663870Y-147320000D01*
X150648424Y-147476826D01*
X150602679Y-147627629D01*
X150528392Y-147766608D01*
X150428422Y-147888422D01*
X150306608Y-147988392D01*
X150167629Y-148062679D01*
X150092228Y-148085551D01*
X150016827Y-148108424D01*
X149977649Y-148112283D01*
X149899295Y-148120000D01*
X149820705Y-148120000D01*
X149742351Y-148112283D01*
X149703173Y-148108424D01*
X149627772Y-148085551D01*
X149552371Y-148062679D01*
X149413392Y-147988392D01*
X149291578Y-147888422D01*
X149191608Y-147766608D01*
X149117321Y-147627629D01*
X149071576Y-147476826D01*
X149056130Y-147320000D01*
X149071576Y-147163174D01*
X149117321Y-147012371D01*
X149191608Y-146873392D01*
X149291578Y-146751578D01*
X149413392Y-146651608D01*
X149552371Y-146577321D01*
X149627773Y-146554448D01*
X149703173Y-146531576D01*
X149742351Y-146527717D01*
X149820705Y-146520000D01*
X149899295Y-146520000D01*
X149977649Y-146527717D01*
X149977649Y-146527717D01*
G37*
G36*
X162677649Y-146527717D02*
X162716827Y-146531576D01*
X162792227Y-146554448D01*
X162867629Y-146577321D01*
X163006608Y-146651608D01*
X163128422Y-146751578D01*
X163228392Y-146873392D01*
X163302679Y-147012371D01*
X163348424Y-147163174D01*
X163363870Y-147320000D01*
X163348424Y-147476826D01*
X163302679Y-147627629D01*
X163228392Y-147766608D01*
X163128422Y-147888422D01*
X163006608Y-147988392D01*
X162867629Y-148062679D01*
X162792228Y-148085551D01*
X162716827Y-148108424D01*
X162677649Y-148112283D01*
X162599295Y-148120000D01*
X162520705Y-148120000D01*
X162442351Y-148112283D01*
X162403173Y-148108424D01*
X162327772Y-148085551D01*
X162252371Y-148062679D01*
X162113392Y-147988392D01*
X161991578Y-147888422D01*
X161891608Y-147766608D01*
X161817321Y-147627629D01*
X161771576Y-147476826D01*
X161756130Y-147320000D01*
X161771576Y-147163174D01*
X161817321Y-147012371D01*
X161891608Y-146873392D01*
X161991578Y-146751578D01*
X162113392Y-146651608D01*
X162252371Y-146577321D01*
X162327773Y-146554448D01*
X162403173Y-146531576D01*
X162442351Y-146527717D01*
X162520705Y-146520000D01*
X162599295Y-146520000D01*
X162677649Y-146527717D01*
X162677649Y-146527717D01*
G37*
G36*
X165217649Y-146527717D02*
X165256827Y-146531576D01*
X165332227Y-146554448D01*
X165407629Y-146577321D01*
X165546608Y-146651608D01*
X165668422Y-146751578D01*
X165768392Y-146873392D01*
X165842679Y-147012371D01*
X165888424Y-147163174D01*
X165903870Y-147320000D01*
X165888424Y-147476826D01*
X165842679Y-147627629D01*
X165768392Y-147766608D01*
X165668422Y-147888422D01*
X165546608Y-147988392D01*
X165407629Y-148062679D01*
X165332228Y-148085551D01*
X165256827Y-148108424D01*
X165217649Y-148112283D01*
X165139295Y-148120000D01*
X165060705Y-148120000D01*
X164982351Y-148112283D01*
X164943173Y-148108424D01*
X164867772Y-148085551D01*
X164792371Y-148062679D01*
X164653392Y-147988392D01*
X164531578Y-147888422D01*
X164431608Y-147766608D01*
X164357321Y-147627629D01*
X164311576Y-147476826D01*
X164296130Y-147320000D01*
X164311576Y-147163174D01*
X164357321Y-147012371D01*
X164431608Y-146873392D01*
X164531578Y-146751578D01*
X164653392Y-146651608D01*
X164792371Y-146577321D01*
X164867773Y-146554448D01*
X164943173Y-146531576D01*
X164982351Y-146527717D01*
X165060705Y-146520000D01*
X165139295Y-146520000D01*
X165217649Y-146527717D01*
X165217649Y-146527717D01*
G37*
G36*
X167757649Y-146527717D02*
X167796827Y-146531576D01*
X167872227Y-146554448D01*
X167947629Y-146577321D01*
X168086608Y-146651608D01*
X168208422Y-146751578D01*
X168308392Y-146873392D01*
X168382679Y-147012371D01*
X168428424Y-147163174D01*
X168443870Y-147320000D01*
X168428424Y-147476826D01*
X168382679Y-147627629D01*
X168308392Y-147766608D01*
X168208422Y-147888422D01*
X168086608Y-147988392D01*
X167947629Y-148062679D01*
X167872228Y-148085551D01*
X167796827Y-148108424D01*
X167757649Y-148112283D01*
X167679295Y-148120000D01*
X167600705Y-148120000D01*
X167522351Y-148112283D01*
X167483173Y-148108424D01*
X167407772Y-148085551D01*
X167332371Y-148062679D01*
X167193392Y-147988392D01*
X167071578Y-147888422D01*
X166971608Y-147766608D01*
X166897321Y-147627629D01*
X166851576Y-147476826D01*
X166836130Y-147320000D01*
X166851576Y-147163174D01*
X166897321Y-147012371D01*
X166971608Y-146873392D01*
X167071578Y-146751578D01*
X167193392Y-146651608D01*
X167332371Y-146577321D01*
X167407773Y-146554448D01*
X167483173Y-146531576D01*
X167522351Y-146527717D01*
X167600705Y-146520000D01*
X167679295Y-146520000D01*
X167757649Y-146527717D01*
X167757649Y-146527717D01*
G37*
G36*
X170297649Y-146527717D02*
X170336827Y-146531576D01*
X170412227Y-146554448D01*
X170487629Y-146577321D01*
X170626608Y-146651608D01*
X170748422Y-146751578D01*
X170848392Y-146873392D01*
X170922679Y-147012371D01*
X170968424Y-147163174D01*
X170983870Y-147320000D01*
X170968424Y-147476826D01*
X170922679Y-147627629D01*
X170848392Y-147766608D01*
X170748422Y-147888422D01*
X170626608Y-147988392D01*
X170487629Y-148062679D01*
X170412228Y-148085551D01*
X170336827Y-148108424D01*
X170297649Y-148112283D01*
X170219295Y-148120000D01*
X170140705Y-148120000D01*
X170062351Y-148112283D01*
X170023173Y-148108424D01*
X169947772Y-148085551D01*
X169872371Y-148062679D01*
X169733392Y-147988392D01*
X169611578Y-147888422D01*
X169511608Y-147766608D01*
X169437321Y-147627629D01*
X169391576Y-147476826D01*
X169376130Y-147320000D01*
X169391576Y-147163174D01*
X169437321Y-147012371D01*
X169511608Y-146873392D01*
X169611578Y-146751578D01*
X169733392Y-146651608D01*
X169872371Y-146577321D01*
X169947773Y-146554448D01*
X170023173Y-146531576D01*
X170062351Y-146527717D01*
X170140705Y-146520000D01*
X170219295Y-146520000D01*
X170297649Y-146527717D01*
X170297649Y-146527717D01*
G37*
G36*
X172837649Y-146527717D02*
X172876827Y-146531576D01*
X172952227Y-146554448D01*
X173027629Y-146577321D01*
X173166608Y-146651608D01*
X173288422Y-146751578D01*
X173388392Y-146873392D01*
X173462679Y-147012371D01*
X173508424Y-147163174D01*
X173523870Y-147320000D01*
X173508424Y-147476826D01*
X173462679Y-147627629D01*
X173388392Y-147766608D01*
X173288422Y-147888422D01*
X173166608Y-147988392D01*
X173027629Y-148062679D01*
X172952228Y-148085551D01*
X172876827Y-148108424D01*
X172837649Y-148112283D01*
X172759295Y-148120000D01*
X172680705Y-148120000D01*
X172602351Y-148112283D01*
X172563173Y-148108424D01*
X172487772Y-148085551D01*
X172412371Y-148062679D01*
X172273392Y-147988392D01*
X172151578Y-147888422D01*
X172051608Y-147766608D01*
X171977321Y-147627629D01*
X171931576Y-147476826D01*
X171916130Y-147320000D01*
X171931576Y-147163174D01*
X171977321Y-147012371D01*
X172051608Y-146873392D01*
X172151578Y-146751578D01*
X172273392Y-146651608D01*
X172412371Y-146577321D01*
X172487773Y-146554448D01*
X172563173Y-146531576D01*
X172602351Y-146527717D01*
X172680705Y-146520000D01*
X172759295Y-146520000D01*
X172837649Y-146527717D01*
X172837649Y-146527717D01*
G37*
G36*
X139817649Y-146527717D02*
X139856827Y-146531576D01*
X139932227Y-146554448D01*
X140007629Y-146577321D01*
X140146608Y-146651608D01*
X140268422Y-146751578D01*
X140368392Y-146873392D01*
X140442679Y-147012371D01*
X140488424Y-147163174D01*
X140503870Y-147320000D01*
X140488424Y-147476826D01*
X140442679Y-147627629D01*
X140368392Y-147766608D01*
X140268422Y-147888422D01*
X140146608Y-147988392D01*
X140007629Y-148062679D01*
X139932228Y-148085551D01*
X139856827Y-148108424D01*
X139817649Y-148112283D01*
X139739295Y-148120000D01*
X139660705Y-148120000D01*
X139582351Y-148112283D01*
X139543173Y-148108424D01*
X139467772Y-148085551D01*
X139392371Y-148062679D01*
X139253392Y-147988392D01*
X139131578Y-147888422D01*
X139031608Y-147766608D01*
X138957321Y-147627629D01*
X138911576Y-147476826D01*
X138896130Y-147320000D01*
X138911576Y-147163174D01*
X138957321Y-147012371D01*
X139031608Y-146873392D01*
X139131578Y-146751578D01*
X139253392Y-146651608D01*
X139392371Y-146577321D01*
X139467773Y-146554448D01*
X139543173Y-146531576D01*
X139582351Y-146527717D01*
X139660705Y-146520000D01*
X139739295Y-146520000D01*
X139817649Y-146527717D01*
X139817649Y-146527717D01*
G37*
G36*
X157597649Y-146527717D02*
X157636827Y-146531576D01*
X157712227Y-146554448D01*
X157787629Y-146577321D01*
X157926608Y-146651608D01*
X158048422Y-146751578D01*
X158148392Y-146873392D01*
X158222679Y-147012371D01*
X158268424Y-147163174D01*
X158283870Y-147320000D01*
X158268424Y-147476826D01*
X158222679Y-147627629D01*
X158148392Y-147766608D01*
X158048422Y-147888422D01*
X157926608Y-147988392D01*
X157787629Y-148062679D01*
X157712228Y-148085551D01*
X157636827Y-148108424D01*
X157597649Y-148112283D01*
X157519295Y-148120000D01*
X157440705Y-148120000D01*
X157362351Y-148112283D01*
X157323173Y-148108424D01*
X157247772Y-148085551D01*
X157172371Y-148062679D01*
X157033392Y-147988392D01*
X156911578Y-147888422D01*
X156811608Y-147766608D01*
X156737321Y-147627629D01*
X156691576Y-147476826D01*
X156676130Y-147320000D01*
X156691576Y-147163174D01*
X156737321Y-147012371D01*
X156811608Y-146873392D01*
X156911578Y-146751578D01*
X157033392Y-146651608D01*
X157172371Y-146577321D01*
X157247773Y-146554448D01*
X157323173Y-146531576D01*
X157362351Y-146527717D01*
X157440705Y-146520000D01*
X157519295Y-146520000D01*
X157597649Y-146527717D01*
X157597649Y-146527717D01*
G37*
G36*
X126580000Y-146900000D02*
X124880000Y-146900000D01*
X124880000Y-145200000D01*
X126580000Y-145200000D01*
X126580000Y-146900000D01*
X126580000Y-146900000D01*
G37*
G36*
X121500000Y-141820000D02*
X119800000Y-141820000D01*
X119800000Y-140120000D01*
X121500000Y-140120000D01*
X121500000Y-141820000D01*
X121500000Y-141820000D01*
G37*
G36*
X139817649Y-138907717D02*
X139856827Y-138911576D01*
X139932228Y-138934449D01*
X140007629Y-138957321D01*
X140146608Y-139031608D01*
X140268422Y-139131578D01*
X140368392Y-139253392D01*
X140442679Y-139392371D01*
X140488424Y-139543174D01*
X140503870Y-139700000D01*
X140488424Y-139856826D01*
X140442679Y-140007629D01*
X140368392Y-140146608D01*
X140268422Y-140268422D01*
X140146608Y-140368392D01*
X140007629Y-140442679D01*
X139932227Y-140465552D01*
X139856827Y-140488424D01*
X139817649Y-140492283D01*
X139739295Y-140500000D01*
X139660705Y-140500000D01*
X139582351Y-140492283D01*
X139543173Y-140488424D01*
X139467772Y-140465551D01*
X139392371Y-140442679D01*
X139253392Y-140368392D01*
X139131578Y-140268422D01*
X139031608Y-140146608D01*
X138957321Y-140007629D01*
X138911576Y-139856826D01*
X138896130Y-139700000D01*
X138911576Y-139543174D01*
X138957321Y-139392371D01*
X139031608Y-139253392D01*
X139131578Y-139131578D01*
X139253392Y-139031608D01*
X139392371Y-138957321D01*
X139467773Y-138934448D01*
X139543173Y-138911576D01*
X139582351Y-138907717D01*
X139660705Y-138900000D01*
X139739295Y-138900000D01*
X139817649Y-138907717D01*
X139817649Y-138907717D01*
G37*
G36*
X173520000Y-140500000D02*
X171920000Y-140500000D01*
X171920000Y-138900000D01*
X173520000Y-138900000D01*
X173520000Y-140500000D01*
X173520000Y-140500000D01*
G37*
G36*
X167757649Y-138907717D02*
X167796827Y-138911576D01*
X167872228Y-138934449D01*
X167947629Y-138957321D01*
X168086608Y-139031608D01*
X168208422Y-139131578D01*
X168308392Y-139253392D01*
X168382679Y-139392371D01*
X168428424Y-139543174D01*
X168443870Y-139700000D01*
X168428424Y-139856826D01*
X168382679Y-140007629D01*
X168308392Y-140146608D01*
X168208422Y-140268422D01*
X168086608Y-140368392D01*
X167947629Y-140442679D01*
X167872227Y-140465552D01*
X167796827Y-140488424D01*
X167757649Y-140492283D01*
X167679295Y-140500000D01*
X167600705Y-140500000D01*
X167522351Y-140492283D01*
X167483173Y-140488424D01*
X167407772Y-140465551D01*
X167332371Y-140442679D01*
X167193392Y-140368392D01*
X167071578Y-140268422D01*
X166971608Y-140146608D01*
X166897321Y-140007629D01*
X166851576Y-139856826D01*
X166836130Y-139700000D01*
X166851576Y-139543174D01*
X166897321Y-139392371D01*
X166971608Y-139253392D01*
X167071578Y-139131578D01*
X167193392Y-139031608D01*
X167332371Y-138957321D01*
X167407773Y-138934448D01*
X167483173Y-138911576D01*
X167522351Y-138907717D01*
X167600705Y-138900000D01*
X167679295Y-138900000D01*
X167757649Y-138907717D01*
X167757649Y-138907717D01*
G37*
G36*
X165217649Y-138907717D02*
X165256827Y-138911576D01*
X165332228Y-138934449D01*
X165407629Y-138957321D01*
X165546608Y-139031608D01*
X165668422Y-139131578D01*
X165768392Y-139253392D01*
X165842679Y-139392371D01*
X165888424Y-139543174D01*
X165903870Y-139700000D01*
X165888424Y-139856826D01*
X165842679Y-140007629D01*
X165768392Y-140146608D01*
X165668422Y-140268422D01*
X165546608Y-140368392D01*
X165407629Y-140442679D01*
X165332227Y-140465552D01*
X165256827Y-140488424D01*
X165217649Y-140492283D01*
X165139295Y-140500000D01*
X165060705Y-140500000D01*
X164982351Y-140492283D01*
X164943173Y-140488424D01*
X164867772Y-140465551D01*
X164792371Y-140442679D01*
X164653392Y-140368392D01*
X164531578Y-140268422D01*
X164431608Y-140146608D01*
X164357321Y-140007629D01*
X164311576Y-139856826D01*
X164296130Y-139700000D01*
X164311576Y-139543174D01*
X164357321Y-139392371D01*
X164431608Y-139253392D01*
X164531578Y-139131578D01*
X164653392Y-139031608D01*
X164792371Y-138957321D01*
X164867773Y-138934448D01*
X164943173Y-138911576D01*
X164982351Y-138907717D01*
X165060705Y-138900000D01*
X165139295Y-138900000D01*
X165217649Y-138907717D01*
X165217649Y-138907717D01*
G37*
G36*
X162677649Y-138907717D02*
X162716827Y-138911576D01*
X162792228Y-138934449D01*
X162867629Y-138957321D01*
X163006608Y-139031608D01*
X163128422Y-139131578D01*
X163228392Y-139253392D01*
X163302679Y-139392371D01*
X163348424Y-139543174D01*
X163363870Y-139700000D01*
X163348424Y-139856826D01*
X163302679Y-140007629D01*
X163228392Y-140146608D01*
X163128422Y-140268422D01*
X163006608Y-140368392D01*
X162867629Y-140442679D01*
X162792227Y-140465552D01*
X162716827Y-140488424D01*
X162677649Y-140492283D01*
X162599295Y-140500000D01*
X162520705Y-140500000D01*
X162442351Y-140492283D01*
X162403173Y-140488424D01*
X162327772Y-140465551D01*
X162252371Y-140442679D01*
X162113392Y-140368392D01*
X161991578Y-140268422D01*
X161891608Y-140146608D01*
X161817321Y-140007629D01*
X161771576Y-139856826D01*
X161756130Y-139700000D01*
X161771576Y-139543174D01*
X161817321Y-139392371D01*
X161891608Y-139253392D01*
X161991578Y-139131578D01*
X162113392Y-139031608D01*
X162252371Y-138957321D01*
X162327773Y-138934448D01*
X162403173Y-138911576D01*
X162442351Y-138907717D01*
X162520705Y-138900000D01*
X162599295Y-138900000D01*
X162677649Y-138907717D01*
X162677649Y-138907717D01*
G37*
G36*
X160137649Y-138907717D02*
X160176827Y-138911576D01*
X160252228Y-138934449D01*
X160327629Y-138957321D01*
X160466608Y-139031608D01*
X160588422Y-139131578D01*
X160688392Y-139253392D01*
X160762679Y-139392371D01*
X160808424Y-139543174D01*
X160823870Y-139700000D01*
X160808424Y-139856826D01*
X160762679Y-140007629D01*
X160688392Y-140146608D01*
X160588422Y-140268422D01*
X160466608Y-140368392D01*
X160327629Y-140442679D01*
X160252227Y-140465552D01*
X160176827Y-140488424D01*
X160137649Y-140492283D01*
X160059295Y-140500000D01*
X159980705Y-140500000D01*
X159902351Y-140492283D01*
X159863173Y-140488424D01*
X159787772Y-140465551D01*
X159712371Y-140442679D01*
X159573392Y-140368392D01*
X159451578Y-140268422D01*
X159351608Y-140146608D01*
X159277321Y-140007629D01*
X159231576Y-139856826D01*
X159216130Y-139700000D01*
X159231576Y-139543174D01*
X159277321Y-139392371D01*
X159351608Y-139253392D01*
X159451578Y-139131578D01*
X159573392Y-139031608D01*
X159712371Y-138957321D01*
X159787773Y-138934448D01*
X159863173Y-138911576D01*
X159902351Y-138907717D01*
X159980705Y-138900000D01*
X160059295Y-138900000D01*
X160137649Y-138907717D01*
X160137649Y-138907717D01*
G37*
G36*
X157597649Y-138907717D02*
X157636827Y-138911576D01*
X157712228Y-138934449D01*
X157787629Y-138957321D01*
X157926608Y-139031608D01*
X158048422Y-139131578D01*
X158148392Y-139253392D01*
X158222679Y-139392371D01*
X158268424Y-139543174D01*
X158283870Y-139700000D01*
X158268424Y-139856826D01*
X158222679Y-140007629D01*
X158148392Y-140146608D01*
X158048422Y-140268422D01*
X157926608Y-140368392D01*
X157787629Y-140442679D01*
X157712227Y-140465552D01*
X157636827Y-140488424D01*
X157597649Y-140492283D01*
X157519295Y-140500000D01*
X157440705Y-140500000D01*
X157362351Y-140492283D01*
X157323173Y-140488424D01*
X157247772Y-140465551D01*
X157172371Y-140442679D01*
X157033392Y-140368392D01*
X156911578Y-140268422D01*
X156811608Y-140146608D01*
X156737321Y-140007629D01*
X156691576Y-139856826D01*
X156676130Y-139700000D01*
X156691576Y-139543174D01*
X156737321Y-139392371D01*
X156811608Y-139253392D01*
X156911578Y-139131578D01*
X157033392Y-139031608D01*
X157172371Y-138957321D01*
X157247773Y-138934448D01*
X157323173Y-138911576D01*
X157362351Y-138907717D01*
X157440705Y-138900000D01*
X157519295Y-138900000D01*
X157597649Y-138907717D01*
X157597649Y-138907717D01*
G37*
G36*
X152517649Y-138907717D02*
X152556827Y-138911576D01*
X152632228Y-138934449D01*
X152707629Y-138957321D01*
X152846608Y-139031608D01*
X152968422Y-139131578D01*
X153068392Y-139253392D01*
X153142679Y-139392371D01*
X153188424Y-139543174D01*
X153203870Y-139700000D01*
X153188424Y-139856826D01*
X153142679Y-140007629D01*
X153068392Y-140146608D01*
X152968422Y-140268422D01*
X152846608Y-140368392D01*
X152707629Y-140442679D01*
X152632227Y-140465552D01*
X152556827Y-140488424D01*
X152517649Y-140492283D01*
X152439295Y-140500000D01*
X152360705Y-140500000D01*
X152282351Y-140492283D01*
X152243173Y-140488424D01*
X152167772Y-140465551D01*
X152092371Y-140442679D01*
X151953392Y-140368392D01*
X151831578Y-140268422D01*
X151731608Y-140146608D01*
X151657321Y-140007629D01*
X151611576Y-139856826D01*
X151596130Y-139700000D01*
X151611576Y-139543174D01*
X151657321Y-139392371D01*
X151731608Y-139253392D01*
X151831578Y-139131578D01*
X151953392Y-139031608D01*
X152092371Y-138957321D01*
X152167773Y-138934448D01*
X152243173Y-138911576D01*
X152282351Y-138907717D01*
X152360705Y-138900000D01*
X152439295Y-138900000D01*
X152517649Y-138907717D01*
X152517649Y-138907717D01*
G37*
G36*
X149977649Y-138907717D02*
X150016827Y-138911576D01*
X150092228Y-138934449D01*
X150167629Y-138957321D01*
X150306608Y-139031608D01*
X150428422Y-139131578D01*
X150528392Y-139253392D01*
X150602679Y-139392371D01*
X150648424Y-139543174D01*
X150663870Y-139700000D01*
X150648424Y-139856826D01*
X150602679Y-140007629D01*
X150528392Y-140146608D01*
X150428422Y-140268422D01*
X150306608Y-140368392D01*
X150167629Y-140442679D01*
X150092227Y-140465552D01*
X150016827Y-140488424D01*
X149977649Y-140492283D01*
X149899295Y-140500000D01*
X149820705Y-140500000D01*
X149742351Y-140492283D01*
X149703173Y-140488424D01*
X149627772Y-140465551D01*
X149552371Y-140442679D01*
X149413392Y-140368392D01*
X149291578Y-140268422D01*
X149191608Y-140146608D01*
X149117321Y-140007629D01*
X149071576Y-139856826D01*
X149056130Y-139700000D01*
X149071576Y-139543174D01*
X149117321Y-139392371D01*
X149191608Y-139253392D01*
X149291578Y-139131578D01*
X149413392Y-139031608D01*
X149552371Y-138957321D01*
X149627773Y-138934448D01*
X149703173Y-138911576D01*
X149742351Y-138907717D01*
X149820705Y-138900000D01*
X149899295Y-138900000D01*
X149977649Y-138907717D01*
X149977649Y-138907717D01*
G37*
G36*
X147437649Y-138907717D02*
X147476827Y-138911576D01*
X147552228Y-138934449D01*
X147627629Y-138957321D01*
X147766608Y-139031608D01*
X147888422Y-139131578D01*
X147988392Y-139253392D01*
X148062679Y-139392371D01*
X148108424Y-139543174D01*
X148123870Y-139700000D01*
X148108424Y-139856826D01*
X148062679Y-140007629D01*
X147988392Y-140146608D01*
X147888422Y-140268422D01*
X147766608Y-140368392D01*
X147627629Y-140442679D01*
X147552227Y-140465552D01*
X147476827Y-140488424D01*
X147437649Y-140492283D01*
X147359295Y-140500000D01*
X147280705Y-140500000D01*
X147202351Y-140492283D01*
X147163173Y-140488424D01*
X147087772Y-140465551D01*
X147012371Y-140442679D01*
X146873392Y-140368392D01*
X146751578Y-140268422D01*
X146651608Y-140146608D01*
X146577321Y-140007629D01*
X146531576Y-139856826D01*
X146516130Y-139700000D01*
X146531576Y-139543174D01*
X146577321Y-139392371D01*
X146651608Y-139253392D01*
X146751578Y-139131578D01*
X146873392Y-139031608D01*
X147012371Y-138957321D01*
X147087773Y-138934448D01*
X147163173Y-138911576D01*
X147202351Y-138907717D01*
X147280705Y-138900000D01*
X147359295Y-138900000D01*
X147437649Y-138907717D01*
X147437649Y-138907717D01*
G37*
G36*
X144897649Y-138907717D02*
X144936827Y-138911576D01*
X145012228Y-138934449D01*
X145087629Y-138957321D01*
X145226608Y-139031608D01*
X145348422Y-139131578D01*
X145448392Y-139253392D01*
X145522679Y-139392371D01*
X145568424Y-139543174D01*
X145583870Y-139700000D01*
X145568424Y-139856826D01*
X145522679Y-140007629D01*
X145448392Y-140146608D01*
X145348422Y-140268422D01*
X145226608Y-140368392D01*
X145087629Y-140442679D01*
X145012227Y-140465552D01*
X144936827Y-140488424D01*
X144897649Y-140492283D01*
X144819295Y-140500000D01*
X144740705Y-140500000D01*
X144662351Y-140492283D01*
X144623173Y-140488424D01*
X144547772Y-140465551D01*
X144472371Y-140442679D01*
X144333392Y-140368392D01*
X144211578Y-140268422D01*
X144111608Y-140146608D01*
X144037321Y-140007629D01*
X143991576Y-139856826D01*
X143976130Y-139700000D01*
X143991576Y-139543174D01*
X144037321Y-139392371D01*
X144111608Y-139253392D01*
X144211578Y-139131578D01*
X144333392Y-139031608D01*
X144472371Y-138957321D01*
X144547773Y-138934448D01*
X144623173Y-138911576D01*
X144662351Y-138907717D01*
X144740705Y-138900000D01*
X144819295Y-138900000D01*
X144897649Y-138907717D01*
X144897649Y-138907717D01*
G37*
G36*
X155057649Y-138907717D02*
X155096827Y-138911576D01*
X155172228Y-138934449D01*
X155247629Y-138957321D01*
X155386608Y-139031608D01*
X155508422Y-139131578D01*
X155608392Y-139253392D01*
X155682679Y-139392371D01*
X155728424Y-139543174D01*
X155743870Y-139700000D01*
X155728424Y-139856826D01*
X155682679Y-140007629D01*
X155608392Y-140146608D01*
X155508422Y-140268422D01*
X155386608Y-140368392D01*
X155247629Y-140442679D01*
X155172227Y-140465552D01*
X155096827Y-140488424D01*
X155057649Y-140492283D01*
X154979295Y-140500000D01*
X154900705Y-140500000D01*
X154822351Y-140492283D01*
X154783173Y-140488424D01*
X154707772Y-140465551D01*
X154632371Y-140442679D01*
X154493392Y-140368392D01*
X154371578Y-140268422D01*
X154271608Y-140146608D01*
X154197321Y-140007629D01*
X154151576Y-139856826D01*
X154136130Y-139700000D01*
X154151576Y-139543174D01*
X154197321Y-139392371D01*
X154271608Y-139253392D01*
X154371578Y-139131578D01*
X154493392Y-139031608D01*
X154632371Y-138957321D01*
X154707773Y-138934448D01*
X154783173Y-138911576D01*
X154822351Y-138907717D01*
X154900705Y-138900000D01*
X154979295Y-138900000D01*
X155057649Y-138907717D01*
X155057649Y-138907717D01*
G37*
G36*
X170297649Y-138907717D02*
X170336827Y-138911576D01*
X170412228Y-138934449D01*
X170487629Y-138957321D01*
X170626608Y-139031608D01*
X170748422Y-139131578D01*
X170848392Y-139253392D01*
X170922679Y-139392371D01*
X170968424Y-139543174D01*
X170983870Y-139700000D01*
X170968424Y-139856826D01*
X170922679Y-140007629D01*
X170848392Y-140146608D01*
X170748422Y-140268422D01*
X170626608Y-140368392D01*
X170487629Y-140442679D01*
X170412227Y-140465552D01*
X170336827Y-140488424D01*
X170297649Y-140492283D01*
X170219295Y-140500000D01*
X170140705Y-140500000D01*
X170062351Y-140492283D01*
X170023173Y-140488424D01*
X169947772Y-140465551D01*
X169872371Y-140442679D01*
X169733392Y-140368392D01*
X169611578Y-140268422D01*
X169511608Y-140146608D01*
X169437321Y-140007629D01*
X169391576Y-139856826D01*
X169376130Y-139700000D01*
X169391576Y-139543174D01*
X169437321Y-139392371D01*
X169511608Y-139253392D01*
X169611578Y-139131578D01*
X169733392Y-139031608D01*
X169872371Y-138957321D01*
X169947773Y-138934448D01*
X170023173Y-138911576D01*
X170062351Y-138907717D01*
X170140705Y-138900000D01*
X170219295Y-138900000D01*
X170297649Y-138907717D01*
X170297649Y-138907717D01*
G37*
G36*
X142357649Y-138907717D02*
X142396827Y-138911576D01*
X142472228Y-138934449D01*
X142547629Y-138957321D01*
X142686608Y-139031608D01*
X142808422Y-139131578D01*
X142908392Y-139253392D01*
X142982679Y-139392371D01*
X143028424Y-139543174D01*
X143043870Y-139700000D01*
X143028424Y-139856826D01*
X142982679Y-140007629D01*
X142908392Y-140146608D01*
X142808422Y-140268422D01*
X142686608Y-140368392D01*
X142547629Y-140442679D01*
X142472227Y-140465552D01*
X142396827Y-140488424D01*
X142357649Y-140492283D01*
X142279295Y-140500000D01*
X142200705Y-140500000D01*
X142122351Y-140492283D01*
X142083173Y-140488424D01*
X142007772Y-140465551D01*
X141932371Y-140442679D01*
X141793392Y-140368392D01*
X141671578Y-140268422D01*
X141571608Y-140146608D01*
X141497321Y-140007629D01*
X141451576Y-139856826D01*
X141436130Y-139700000D01*
X141451576Y-139543174D01*
X141497321Y-139392371D01*
X141571608Y-139253392D01*
X141671578Y-139131578D01*
X141793392Y-139031608D01*
X141932371Y-138957321D01*
X142007773Y-138934448D01*
X142083173Y-138911576D01*
X142122351Y-138907717D01*
X142200705Y-138900000D01*
X142279295Y-138900000D01*
X142357649Y-138907717D01*
X142357649Y-138907717D01*
G37*
G36*
X120816630Y-137592299D02*
X120976855Y-137640903D01*
X121124520Y-137719831D01*
X121253949Y-137826051D01*
X121360169Y-137955480D01*
X121439097Y-138103145D01*
X121487701Y-138263370D01*
X121504112Y-138430000D01*
X121487701Y-138596630D01*
X121439097Y-138756855D01*
X121360169Y-138904520D01*
X121253949Y-139033949D01*
X121124520Y-139140169D01*
X120976855Y-139219097D01*
X120816630Y-139267701D01*
X120691752Y-139280000D01*
X120608248Y-139280000D01*
X120483370Y-139267701D01*
X120323145Y-139219097D01*
X120175480Y-139140169D01*
X120046051Y-139033949D01*
X119939831Y-138904520D01*
X119860903Y-138756855D01*
X119812299Y-138596630D01*
X119795888Y-138430000D01*
X119812299Y-138263370D01*
X119860903Y-138103145D01*
X119939831Y-137955480D01*
X120046051Y-137826051D01*
X120175480Y-137719831D01*
X120323145Y-137640903D01*
X120483370Y-137592299D01*
X120608248Y-137580000D01*
X120691752Y-137580000D01*
X120816630Y-137592299D01*
X120816630Y-137592299D01*
G37*
G36*
X155173352Y-136390743D02*
X155318941Y-136451048D01*
X155449973Y-136538601D01*
X155561399Y-136650027D01*
X155648952Y-136781059D01*
X155709257Y-136926648D01*
X155740000Y-137081205D01*
X155740000Y-137238795D01*
X155709257Y-137393352D01*
X155648952Y-137538941D01*
X155561399Y-137669973D01*
X155449973Y-137781399D01*
X155318941Y-137868952D01*
X155173352Y-137929257D01*
X155018795Y-137960000D01*
X154861205Y-137960000D01*
X154706648Y-137929257D01*
X154561059Y-137868952D01*
X154430027Y-137781399D01*
X154318601Y-137669973D01*
X154231048Y-137538941D01*
X154170743Y-137393352D01*
X154140000Y-137238795D01*
X154140000Y-137081205D01*
X154170743Y-136926648D01*
X154231048Y-136781059D01*
X154318601Y-136650027D01*
X154430027Y-136538601D01*
X154561059Y-136451048D01*
X154706648Y-136390743D01*
X154861205Y-136360000D01*
X155018795Y-136360000D01*
X155173352Y-136390743D01*
X155173352Y-136390743D01*
G37*
G36*
X157673352Y-136390743D02*
X157818941Y-136451048D01*
X157949973Y-136538601D01*
X158061399Y-136650027D01*
X158148952Y-136781059D01*
X158209257Y-136926648D01*
X158240000Y-137081205D01*
X158240000Y-137238795D01*
X158209257Y-137393352D01*
X158148952Y-137538941D01*
X158061399Y-137669973D01*
X157949973Y-137781399D01*
X157818941Y-137868952D01*
X157673352Y-137929257D01*
X157518795Y-137960000D01*
X157361205Y-137960000D01*
X157206648Y-137929257D01*
X157061059Y-137868952D01*
X156930027Y-137781399D01*
X156818601Y-137669973D01*
X156731048Y-137538941D01*
X156670743Y-137393352D01*
X156640000Y-137238795D01*
X156640000Y-137081205D01*
X156670743Y-136926648D01*
X156731048Y-136781059D01*
X156818601Y-136650027D01*
X156930027Y-136538601D01*
X157061059Y-136451048D01*
X157206648Y-136390743D01*
X157361205Y-136360000D01*
X157518795Y-136360000D01*
X157673352Y-136390743D01*
X157673352Y-136390743D01*
G37*
G36*
X120816630Y-135052299D02*
X120976855Y-135100903D01*
X121124520Y-135179831D01*
X121253949Y-135286051D01*
X121360169Y-135415480D01*
X121439097Y-135563145D01*
X121487701Y-135723370D01*
X121504112Y-135890000D01*
X121487701Y-136056630D01*
X121439097Y-136216855D01*
X121360169Y-136364520D01*
X121253949Y-136493949D01*
X121124520Y-136600169D01*
X120976855Y-136679097D01*
X120816630Y-136727701D01*
X120691752Y-136740000D01*
X120608248Y-136740000D01*
X120483370Y-136727701D01*
X120323145Y-136679097D01*
X120175480Y-136600169D01*
X120046051Y-136493949D01*
X119939831Y-136364520D01*
X119860903Y-136216855D01*
X119812299Y-136056630D01*
X119795888Y-135890000D01*
X119812299Y-135723370D01*
X119860903Y-135563145D01*
X119939831Y-135415480D01*
X120046051Y-135286051D01*
X120175480Y-135179831D01*
X120323145Y-135100903D01*
X120483370Y-135052299D01*
X120608248Y-135040000D01*
X120691752Y-135040000D01*
X120816630Y-135052299D01*
X120816630Y-135052299D01*
G37*
G36*
X118276630Y-135052299D02*
X118436855Y-135100903D01*
X118584520Y-135179831D01*
X118713949Y-135286051D01*
X118820169Y-135415480D01*
X118899097Y-135563145D01*
X118947701Y-135723370D01*
X118964112Y-135890000D01*
X118947701Y-136056630D01*
X118899097Y-136216855D01*
X118820169Y-136364520D01*
X118713949Y-136493949D01*
X118584520Y-136600169D01*
X118436855Y-136679097D01*
X118276630Y-136727701D01*
X118151752Y-136740000D01*
X118068248Y-136740000D01*
X117943370Y-136727701D01*
X117783145Y-136679097D01*
X117635480Y-136600169D01*
X117506051Y-136493949D01*
X117399831Y-136364520D01*
X117320903Y-136216855D01*
X117272299Y-136056630D01*
X117255888Y-135890000D01*
X117272299Y-135723370D01*
X117320903Y-135563145D01*
X117399831Y-135415480D01*
X117506051Y-135286051D01*
X117635480Y-135179831D01*
X117783145Y-135100903D01*
X117943370Y-135052299D01*
X118068248Y-135040000D01*
X118151752Y-135040000D01*
X118276630Y-135052299D01*
X118276630Y-135052299D01*
G37*
G36*
X160293352Y-133850743D02*
X160438941Y-133911048D01*
X160569973Y-133998601D01*
X160681399Y-134110027D01*
X160768952Y-134241059D01*
X160829257Y-134386648D01*
X160860000Y-134541205D01*
X160860000Y-134698795D01*
X160829257Y-134853352D01*
X160768952Y-134998941D01*
X160681399Y-135129973D01*
X160569973Y-135241399D01*
X160438941Y-135328952D01*
X160293352Y-135389257D01*
X160138795Y-135420000D01*
X159981205Y-135420000D01*
X159826648Y-135389257D01*
X159681059Y-135328952D01*
X159550027Y-135241399D01*
X159438601Y-135129973D01*
X159351048Y-134998941D01*
X159290743Y-134853352D01*
X159260000Y-134698795D01*
X159260000Y-134541205D01*
X159290743Y-134386648D01*
X159351048Y-134241059D01*
X159438601Y-134110027D01*
X159550027Y-133998601D01*
X159681059Y-133911048D01*
X159826648Y-133850743D01*
X159981205Y-133820000D01*
X160138795Y-133820000D01*
X160293352Y-133850743D01*
X160293352Y-133850743D01*
G37*
G36*
X150133352Y-133850743D02*
X150278941Y-133911048D01*
X150409973Y-133998601D01*
X150521399Y-134110027D01*
X150608952Y-134241059D01*
X150669257Y-134386648D01*
X150700000Y-134541205D01*
X150700000Y-134698795D01*
X150669257Y-134853352D01*
X150608952Y-134998941D01*
X150521399Y-135129973D01*
X150409973Y-135241399D01*
X150278941Y-135328952D01*
X150133352Y-135389257D01*
X149978795Y-135420000D01*
X149821205Y-135420000D01*
X149666648Y-135389257D01*
X149521059Y-135328952D01*
X149390027Y-135241399D01*
X149278601Y-135129973D01*
X149191048Y-134998941D01*
X149130743Y-134853352D01*
X149100000Y-134698795D01*
X149100000Y-134541205D01*
X149130743Y-134386648D01*
X149191048Y-134241059D01*
X149278601Y-134110027D01*
X149390027Y-133998601D01*
X149521059Y-133911048D01*
X149666648Y-133850743D01*
X149821205Y-133820000D01*
X149978795Y-133820000D01*
X150133352Y-133850743D01*
X150133352Y-133850743D01*
G37*
G36*
X153200000Y-135420000D02*
X151600000Y-135420000D01*
X151600000Y-133820000D01*
X153200000Y-133820000D01*
X153200000Y-135420000D01*
X153200000Y-135420000D01*
G37*
G36*
X128503352Y-133850743D02*
X128648941Y-133911048D01*
X128779973Y-133998601D01*
X128891399Y-134110027D01*
X128978952Y-134241059D01*
X129039257Y-134386648D01*
X129070000Y-134541205D01*
X129070000Y-134698795D01*
X129039257Y-134853352D01*
X128978952Y-134998941D01*
X128891399Y-135129973D01*
X128779973Y-135241399D01*
X128648941Y-135328952D01*
X128503352Y-135389257D01*
X128348795Y-135420000D01*
X128191205Y-135420000D01*
X128036648Y-135389257D01*
X127891059Y-135328952D01*
X127760027Y-135241399D01*
X127648601Y-135129973D01*
X127561048Y-134998941D01*
X127500743Y-134853352D01*
X127470000Y-134698795D01*
X127470000Y-134541205D01*
X127500743Y-134386648D01*
X127561048Y-134241059D01*
X127648601Y-134110027D01*
X127760027Y-133998601D01*
X127891059Y-133911048D01*
X128036648Y-133850743D01*
X128191205Y-133820000D01*
X128348795Y-133820000D01*
X128503352Y-133850743D01*
X128503352Y-133850743D01*
G37*
G36*
X131003352Y-133850743D02*
X131148941Y-133911048D01*
X131279973Y-133998601D01*
X131391399Y-134110027D01*
X131478952Y-134241059D01*
X131539257Y-134386648D01*
X131570000Y-134541205D01*
X131570000Y-134698795D01*
X131539257Y-134853352D01*
X131478952Y-134998941D01*
X131391399Y-135129973D01*
X131279973Y-135241399D01*
X131148941Y-135328952D01*
X131003352Y-135389257D01*
X130848795Y-135420000D01*
X130691205Y-135420000D01*
X130536648Y-135389257D01*
X130391059Y-135328952D01*
X130260027Y-135241399D01*
X130148601Y-135129973D01*
X130061048Y-134998941D01*
X130000743Y-134853352D01*
X129970000Y-134698795D01*
X129970000Y-134541205D01*
X130000743Y-134386648D01*
X130061048Y-134241059D01*
X130148601Y-134110027D01*
X130260027Y-133998601D01*
X130391059Y-133911048D01*
X130536648Y-133850743D01*
X130691205Y-133820000D01*
X130848795Y-133820000D01*
X131003352Y-133850743D01*
X131003352Y-133850743D01*
G37*
G36*
X163360000Y-135420000D02*
X161760000Y-135420000D01*
X161760000Y-133820000D01*
X163360000Y-133820000D01*
X163360000Y-135420000D01*
X163360000Y-135420000D01*
G37*
G36*
X137306318Y-133884411D02*
X137378767Y-133898822D01*
X137408285Y-133911049D01*
X137515257Y-133955358D01*
X137638100Y-134037439D01*
X137742561Y-134141900D01*
X137824642Y-134264743D01*
X137857760Y-134344697D01*
X137881178Y-134401233D01*
X137910000Y-134546131D01*
X137910000Y-134693869D01*
X137881178Y-134838767D01*
X137857760Y-134895303D01*
X137824642Y-134975257D01*
X137742561Y-135098100D01*
X137638100Y-135202561D01*
X137515257Y-135284642D01*
X137435303Y-135317760D01*
X137378767Y-135341178D01*
X137306318Y-135355589D01*
X137233870Y-135370000D01*
X137086130Y-135370000D01*
X137013682Y-135355589D01*
X136941233Y-135341178D01*
X136884697Y-135317760D01*
X136804743Y-135284642D01*
X136681900Y-135202561D01*
X136577439Y-135098100D01*
X136495358Y-134975257D01*
X136462240Y-134895303D01*
X136438822Y-134838767D01*
X136410000Y-134693869D01*
X136410000Y-134546131D01*
X136438822Y-134401233D01*
X136462240Y-134344697D01*
X136495358Y-134264743D01*
X136577439Y-134141900D01*
X136681900Y-134037439D01*
X136804743Y-133955358D01*
X136911715Y-133911049D01*
X136941233Y-133898822D01*
X137013682Y-133884411D01*
X137086130Y-133870000D01*
X137233870Y-133870000D01*
X137306318Y-133884411D01*
X137306318Y-133884411D01*
G37*
G36*
X142186318Y-133884411D02*
X142258767Y-133898822D01*
X142288285Y-133911049D01*
X142395257Y-133955358D01*
X142518100Y-134037439D01*
X142622561Y-134141900D01*
X142704642Y-134264743D01*
X142737760Y-134344697D01*
X142761178Y-134401233D01*
X142790000Y-134546131D01*
X142790000Y-134693869D01*
X142761178Y-134838767D01*
X142737760Y-134895303D01*
X142704642Y-134975257D01*
X142622561Y-135098100D01*
X142518100Y-135202561D01*
X142395257Y-135284642D01*
X142315303Y-135317760D01*
X142258767Y-135341178D01*
X142186318Y-135355589D01*
X142113870Y-135370000D01*
X141966130Y-135370000D01*
X141893682Y-135355589D01*
X141821233Y-135341178D01*
X141764697Y-135317760D01*
X141684743Y-135284642D01*
X141561900Y-135202561D01*
X141457439Y-135098100D01*
X141375358Y-134975257D01*
X141342240Y-134895303D01*
X141318822Y-134838767D01*
X141290000Y-134693869D01*
X141290000Y-134546131D01*
X141318822Y-134401233D01*
X141342240Y-134344697D01*
X141375358Y-134264743D01*
X141457439Y-134141900D01*
X141561900Y-134037439D01*
X141684743Y-133955358D01*
X141791715Y-133911049D01*
X141821233Y-133898822D01*
X141893682Y-133884411D01*
X141966130Y-133870000D01*
X142113870Y-133870000D01*
X142186318Y-133884411D01*
X142186318Y-133884411D01*
G37*
G36*
X118276630Y-132512299D02*
X118436855Y-132560903D01*
X118584520Y-132639831D01*
X118713949Y-132746051D01*
X118820169Y-132875480D01*
X118899097Y-133023145D01*
X118947701Y-133183370D01*
X118964112Y-133350000D01*
X118947701Y-133516630D01*
X118899097Y-133676855D01*
X118820169Y-133824520D01*
X118713949Y-133953949D01*
X118584520Y-134060169D01*
X118436855Y-134139097D01*
X118276630Y-134187701D01*
X118151752Y-134200000D01*
X118068248Y-134200000D01*
X117943370Y-134187701D01*
X117783145Y-134139097D01*
X117635480Y-134060169D01*
X117506051Y-133953949D01*
X117399831Y-133824520D01*
X117320903Y-133676855D01*
X117272299Y-133516630D01*
X117255888Y-133350000D01*
X117272299Y-133183370D01*
X117320903Y-133023145D01*
X117399831Y-132875480D01*
X117506051Y-132746051D01*
X117635480Y-132639831D01*
X117783145Y-132560903D01*
X117943370Y-132512299D01*
X118068248Y-132500000D01*
X118151752Y-132500000D01*
X118276630Y-132512299D01*
X118276630Y-132512299D01*
G37*
G36*
X120816630Y-132512299D02*
X120976855Y-132560903D01*
X121124520Y-132639831D01*
X121253949Y-132746051D01*
X121360169Y-132875480D01*
X121439097Y-133023145D01*
X121487701Y-133183370D01*
X121504112Y-133350000D01*
X121487701Y-133516630D01*
X121439097Y-133676855D01*
X121360169Y-133824520D01*
X121253949Y-133953949D01*
X121124520Y-134060169D01*
X120976855Y-134139097D01*
X120816630Y-134187701D01*
X120691752Y-134200000D01*
X120608248Y-134200000D01*
X120483370Y-134187701D01*
X120323145Y-134139097D01*
X120175480Y-134060169D01*
X120046051Y-133953949D01*
X119939831Y-133824520D01*
X119860903Y-133676855D01*
X119812299Y-133516630D01*
X119795888Y-133350000D01*
X119812299Y-133183370D01*
X119860903Y-133023145D01*
X119939831Y-132875480D01*
X120046051Y-132746051D01*
X120175480Y-132639831D01*
X120323145Y-132560903D01*
X120483370Y-132512299D01*
X120608248Y-132500000D01*
X120691752Y-132500000D01*
X120816630Y-132512299D01*
X120816630Y-132512299D01*
G37*
G36*
X184267649Y-132557717D02*
X184306827Y-132561576D01*
X184370012Y-132580743D01*
X184457629Y-132607321D01*
X184596608Y-132681608D01*
X184718422Y-132781578D01*
X184818392Y-132903392D01*
X184892679Y-133042371D01*
X184892679Y-133042372D01*
X184938424Y-133193173D01*
X184953870Y-133350000D01*
X184938424Y-133506827D01*
X184935450Y-133516630D01*
X184892679Y-133657629D01*
X184818392Y-133796608D01*
X184718422Y-133918422D01*
X184596608Y-134018392D01*
X184457629Y-134092679D01*
X184382227Y-134115552D01*
X184306827Y-134138424D01*
X184271534Y-134141900D01*
X184189295Y-134150000D01*
X184110705Y-134150000D01*
X184028466Y-134141900D01*
X183993173Y-134138424D01*
X183917773Y-134115552D01*
X183842371Y-134092679D01*
X183703392Y-134018392D01*
X183581578Y-133918422D01*
X183481608Y-133796608D01*
X183407321Y-133657629D01*
X183364550Y-133516630D01*
X183361576Y-133506827D01*
X183346130Y-133350000D01*
X183361576Y-133193173D01*
X183407321Y-133042372D01*
X183407321Y-133042371D01*
X183481608Y-132903392D01*
X183581578Y-132781578D01*
X183703392Y-132681608D01*
X183842371Y-132607321D01*
X183929988Y-132580743D01*
X183993173Y-132561576D01*
X184032351Y-132557717D01*
X184110705Y-132550000D01*
X184189295Y-132550000D01*
X184267649Y-132557717D01*
X184267649Y-132557717D01*
G37*
G36*
X174223352Y-132580743D02*
X174368941Y-132641048D01*
X174499973Y-132728601D01*
X174611399Y-132840027D01*
X174698952Y-132971059D01*
X174759257Y-133116648D01*
X174790000Y-133271205D01*
X174790000Y-133428795D01*
X174759257Y-133583352D01*
X174698952Y-133728941D01*
X174611399Y-133859973D01*
X174499973Y-133971399D01*
X174368941Y-134058952D01*
X174223352Y-134119257D01*
X174068795Y-134150000D01*
X173911205Y-134150000D01*
X173756648Y-134119257D01*
X173611059Y-134058952D01*
X173480027Y-133971399D01*
X173368601Y-133859973D01*
X173281048Y-133728941D01*
X173220743Y-133583352D01*
X173190000Y-133428795D01*
X173190000Y-133271205D01*
X173220743Y-133116648D01*
X173281048Y-132971059D01*
X173368601Y-132840027D01*
X173480027Y-132728601D01*
X173611059Y-132641048D01*
X173756648Y-132580743D01*
X173911205Y-132550000D01*
X174068795Y-132550000D01*
X174223352Y-132580743D01*
X174223352Y-132580743D01*
G37*
G36*
X118276630Y-129972299D02*
X118436855Y-130020903D01*
X118584520Y-130099831D01*
X118713949Y-130206051D01*
X118820169Y-130335480D01*
X118899097Y-130483145D01*
X118947701Y-130643370D01*
X118964112Y-130810000D01*
X118947701Y-130976630D01*
X118899097Y-131136855D01*
X118820169Y-131284520D01*
X118713949Y-131413949D01*
X118584520Y-131520169D01*
X118436855Y-131599097D01*
X118276630Y-131647701D01*
X118151752Y-131660000D01*
X118068248Y-131660000D01*
X117943370Y-131647701D01*
X117783145Y-131599097D01*
X117635480Y-131520169D01*
X117506051Y-131413949D01*
X117399831Y-131284520D01*
X117320903Y-131136855D01*
X117272299Y-130976630D01*
X117255888Y-130810000D01*
X117272299Y-130643370D01*
X117320903Y-130483145D01*
X117399831Y-130335480D01*
X117506051Y-130206051D01*
X117635480Y-130099831D01*
X117783145Y-130020903D01*
X117943370Y-129972299D01*
X118068248Y-129960000D01*
X118151752Y-129960000D01*
X118276630Y-129972299D01*
X118276630Y-129972299D01*
G37*
G36*
X120816630Y-129972299D02*
X120976855Y-130020903D01*
X121124520Y-130099831D01*
X121253949Y-130206051D01*
X121360169Y-130335480D01*
X121439097Y-130483145D01*
X121487701Y-130643370D01*
X121504112Y-130810000D01*
X121487701Y-130976630D01*
X121439097Y-131136855D01*
X121360169Y-131284520D01*
X121253949Y-131413949D01*
X121124520Y-131520169D01*
X120976855Y-131599097D01*
X120816630Y-131647701D01*
X120691752Y-131660000D01*
X120608248Y-131660000D01*
X120483370Y-131647701D01*
X120323145Y-131599097D01*
X120175480Y-131520169D01*
X120046051Y-131413949D01*
X119939831Y-131284520D01*
X119860903Y-131136855D01*
X119812299Y-130976630D01*
X119795888Y-130810000D01*
X119812299Y-130643370D01*
X119860903Y-130483145D01*
X119939831Y-130335480D01*
X120046051Y-130206051D01*
X120175480Y-130099831D01*
X120323145Y-130020903D01*
X120483370Y-129972299D01*
X120608248Y-129960000D01*
X120691752Y-129960000D01*
X120816630Y-129972299D01*
X120816630Y-129972299D01*
G37*
G36*
X170413352Y-130040743D02*
X170558941Y-130101048D01*
X170689973Y-130188601D01*
X170801399Y-130300027D01*
X170888952Y-130431059D01*
X170949257Y-130576648D01*
X170980000Y-130731205D01*
X170980000Y-130888795D01*
X170949257Y-131043352D01*
X170888952Y-131188941D01*
X170801399Y-131319973D01*
X170689973Y-131431399D01*
X170558941Y-131518952D01*
X170413352Y-131579257D01*
X170258795Y-131610000D01*
X170101205Y-131610000D01*
X169946648Y-131579257D01*
X169801059Y-131518952D01*
X169670027Y-131431399D01*
X169558601Y-131319973D01*
X169471048Y-131188941D01*
X169410743Y-131043352D01*
X169380000Y-130888795D01*
X169380000Y-130731205D01*
X169410743Y-130576648D01*
X169471048Y-130431059D01*
X169558601Y-130300027D01*
X169670027Y-130188601D01*
X169801059Y-130101048D01*
X169946648Y-130040743D01*
X170101205Y-130010000D01*
X170258795Y-130010000D01*
X170413352Y-130040743D01*
X170413352Y-130040743D01*
G37*
G36*
X167913352Y-130040743D02*
X168058941Y-130101048D01*
X168189973Y-130188601D01*
X168301399Y-130300027D01*
X168388952Y-130431059D01*
X168449257Y-130576648D01*
X168480000Y-130731205D01*
X168480000Y-130888795D01*
X168449257Y-131043352D01*
X168388952Y-131188941D01*
X168301399Y-131319973D01*
X168189973Y-131431399D01*
X168058941Y-131518952D01*
X167913352Y-131579257D01*
X167758795Y-131610000D01*
X167601205Y-131610000D01*
X167446648Y-131579257D01*
X167301059Y-131518952D01*
X167170027Y-131431399D01*
X167058601Y-131319973D01*
X166971048Y-131188941D01*
X166910743Y-131043352D01*
X166880000Y-130888795D01*
X166880000Y-130731205D01*
X166910743Y-130576648D01*
X166971048Y-130431059D01*
X167058601Y-130300027D01*
X167170027Y-130188601D01*
X167301059Y-130101048D01*
X167446648Y-130040743D01*
X167601205Y-130010000D01*
X167758795Y-130010000D01*
X167913352Y-130040743D01*
X167913352Y-130040743D01*
G37*
G36*
X174223352Y-130040743D02*
X174368941Y-130101048D01*
X174499973Y-130188601D01*
X174611399Y-130300027D01*
X174698952Y-130431059D01*
X174759257Y-130576648D01*
X174790000Y-130731205D01*
X174790000Y-130888795D01*
X174759257Y-131043352D01*
X174698952Y-131188941D01*
X174611399Y-131319973D01*
X174499973Y-131431399D01*
X174368941Y-131518952D01*
X174223352Y-131579257D01*
X174068795Y-131610000D01*
X173911205Y-131610000D01*
X173756648Y-131579257D01*
X173611059Y-131518952D01*
X173480027Y-131431399D01*
X173368601Y-131319973D01*
X173281048Y-131188941D01*
X173220743Y-131043352D01*
X173190000Y-130888795D01*
X173190000Y-130731205D01*
X173220743Y-130576648D01*
X173281048Y-130431059D01*
X173368601Y-130300027D01*
X173480027Y-130188601D01*
X173611059Y-130101048D01*
X173756648Y-130040743D01*
X173911205Y-130010000D01*
X174068795Y-130010000D01*
X174223352Y-130040743D01*
X174223352Y-130040743D01*
G37*
G36*
X184267649Y-130017717D02*
X184306827Y-130021576D01*
X184370012Y-130040743D01*
X184457629Y-130067321D01*
X184596608Y-130141608D01*
X184718422Y-130241578D01*
X184818392Y-130363392D01*
X184892679Y-130502371D01*
X184892679Y-130502372D01*
X184938424Y-130653173D01*
X184953870Y-130810000D01*
X184938424Y-130966827D01*
X184935450Y-130976630D01*
X184892679Y-131117629D01*
X184818392Y-131256608D01*
X184718422Y-131378422D01*
X184596608Y-131478392D01*
X184457629Y-131552679D01*
X184382227Y-131575552D01*
X184306827Y-131598424D01*
X184267649Y-131602283D01*
X184189295Y-131610000D01*
X184110705Y-131610000D01*
X184032351Y-131602283D01*
X183993173Y-131598424D01*
X183917773Y-131575552D01*
X183842371Y-131552679D01*
X183703392Y-131478392D01*
X183581578Y-131378422D01*
X183481608Y-131256608D01*
X183407321Y-131117629D01*
X183364550Y-130976630D01*
X183361576Y-130966827D01*
X183346130Y-130810000D01*
X183361576Y-130653173D01*
X183407321Y-130502372D01*
X183407321Y-130502371D01*
X183481608Y-130363392D01*
X183581578Y-130241578D01*
X183703392Y-130141608D01*
X183842371Y-130067321D01*
X183929988Y-130040743D01*
X183993173Y-130021576D01*
X184032351Y-130017717D01*
X184110705Y-130010000D01*
X184189295Y-130010000D01*
X184267649Y-130017717D01*
X184267649Y-130017717D01*
G37*
G36*
X139893352Y-128770743D02*
X140038941Y-128831048D01*
X140169973Y-128918601D01*
X140281399Y-129030027D01*
X140368952Y-129161059D01*
X140429257Y-129306648D01*
X140460000Y-129461205D01*
X140460000Y-129618795D01*
X140429257Y-129773352D01*
X140368952Y-129918941D01*
X140281399Y-130049973D01*
X140169973Y-130161399D01*
X140038941Y-130248952D01*
X139893352Y-130309257D01*
X139738795Y-130340000D01*
X139581205Y-130340000D01*
X139426648Y-130309257D01*
X139281059Y-130248952D01*
X139150027Y-130161399D01*
X139038601Y-130049973D01*
X138951048Y-129918941D01*
X138890743Y-129773352D01*
X138860000Y-129618795D01*
X138860000Y-129461205D01*
X138890743Y-129306648D01*
X138951048Y-129161059D01*
X139038601Y-129030027D01*
X139150027Y-128918601D01*
X139281059Y-128831048D01*
X139426648Y-128770743D01*
X139581205Y-128740000D01*
X139738795Y-128740000D01*
X139893352Y-128770743D01*
X139893352Y-128770743D01*
G37*
G36*
X142473352Y-128770743D02*
X142618941Y-128831048D01*
X142749973Y-128918601D01*
X142861399Y-129030027D01*
X142948952Y-129161059D01*
X143009257Y-129306648D01*
X143040000Y-129461205D01*
X143040000Y-129618795D01*
X143009257Y-129773352D01*
X142948952Y-129918941D01*
X142861399Y-130049973D01*
X142749973Y-130161399D01*
X142618941Y-130248952D01*
X142473352Y-130309257D01*
X142318795Y-130340000D01*
X142161205Y-130340000D01*
X142006648Y-130309257D01*
X141861059Y-130248952D01*
X141730027Y-130161399D01*
X141618601Y-130049973D01*
X141531048Y-129918941D01*
X141470743Y-129773352D01*
X141440000Y-129618795D01*
X141440000Y-129461205D01*
X141470743Y-129306648D01*
X141531048Y-129161059D01*
X141618601Y-129030027D01*
X141730027Y-128918601D01*
X141861059Y-128831048D01*
X142006648Y-128770743D01*
X142161205Y-128740000D01*
X142318795Y-128740000D01*
X142473352Y-128770743D01*
X142473352Y-128770743D01*
G37*
G36*
X137393352Y-128770743D02*
X137538941Y-128831048D01*
X137669973Y-128918601D01*
X137781399Y-129030027D01*
X137868952Y-129161059D01*
X137929257Y-129306648D01*
X137960000Y-129461205D01*
X137960000Y-129618795D01*
X137929257Y-129773352D01*
X137868952Y-129918941D01*
X137781399Y-130049973D01*
X137669973Y-130161399D01*
X137538941Y-130248952D01*
X137393352Y-130309257D01*
X137238795Y-130340000D01*
X137081205Y-130340000D01*
X136926648Y-130309257D01*
X136781059Y-130248952D01*
X136650027Y-130161399D01*
X136538601Y-130049973D01*
X136451048Y-129918941D01*
X136390743Y-129773352D01*
X136360000Y-129618795D01*
X136360000Y-129461205D01*
X136390743Y-129306648D01*
X136451048Y-129161059D01*
X136538601Y-129030027D01*
X136650027Y-128918601D01*
X136781059Y-128831048D01*
X136926648Y-128770743D01*
X137081205Y-128740000D01*
X137238795Y-128740000D01*
X137393352Y-128770743D01*
X137393352Y-128770743D01*
G37*
G36*
X144973352Y-128770743D02*
X145118941Y-128831048D01*
X145249973Y-128918601D01*
X145361399Y-129030027D01*
X145448952Y-129161059D01*
X145509257Y-129306648D01*
X145540000Y-129461205D01*
X145540000Y-129618795D01*
X145509257Y-129773352D01*
X145448952Y-129918941D01*
X145361399Y-130049973D01*
X145249973Y-130161399D01*
X145118941Y-130248952D01*
X144973352Y-130309257D01*
X144818795Y-130340000D01*
X144661205Y-130340000D01*
X144506648Y-130309257D01*
X144361059Y-130248952D01*
X144230027Y-130161399D01*
X144118601Y-130049973D01*
X144031048Y-129918941D01*
X143970743Y-129773352D01*
X143940000Y-129618795D01*
X143940000Y-129461205D01*
X143970743Y-129306648D01*
X144031048Y-129161059D01*
X144118601Y-129030027D01*
X144230027Y-128918601D01*
X144361059Y-128831048D01*
X144506648Y-128770743D01*
X144661205Y-128740000D01*
X144818795Y-128740000D01*
X144973352Y-128770743D01*
X144973352Y-128770743D01*
G37*
G36*
X118276630Y-127432299D02*
X118436855Y-127480903D01*
X118584520Y-127559831D01*
X118713949Y-127666051D01*
X118820169Y-127795480D01*
X118899097Y-127943145D01*
X118947701Y-128103370D01*
X118964112Y-128270000D01*
X118947701Y-128436630D01*
X118899097Y-128596855D01*
X118820169Y-128744520D01*
X118713949Y-128873949D01*
X118584520Y-128980169D01*
X118436855Y-129059097D01*
X118276630Y-129107701D01*
X118151752Y-129120000D01*
X118068248Y-129120000D01*
X117943370Y-129107701D01*
X117783145Y-129059097D01*
X117635480Y-128980169D01*
X117506051Y-128873949D01*
X117399831Y-128744520D01*
X117320903Y-128596855D01*
X117272299Y-128436630D01*
X117255888Y-128270000D01*
X117272299Y-128103370D01*
X117320903Y-127943145D01*
X117399831Y-127795480D01*
X117506051Y-127666051D01*
X117635480Y-127559831D01*
X117783145Y-127480903D01*
X117943370Y-127432299D01*
X118068248Y-127420000D01*
X118151752Y-127420000D01*
X118276630Y-127432299D01*
X118276630Y-127432299D01*
G37*
G36*
X120816630Y-127432299D02*
X120976855Y-127480903D01*
X121124520Y-127559831D01*
X121253949Y-127666051D01*
X121360169Y-127795480D01*
X121439097Y-127943145D01*
X121487701Y-128103370D01*
X121504112Y-128270000D01*
X121487701Y-128436630D01*
X121439097Y-128596855D01*
X121360169Y-128744520D01*
X121253949Y-128873949D01*
X121124520Y-128980169D01*
X120976855Y-129059097D01*
X120816630Y-129107701D01*
X120691752Y-129120000D01*
X120608248Y-129120000D01*
X120483370Y-129107701D01*
X120323145Y-129059097D01*
X120175480Y-128980169D01*
X120046051Y-128873949D01*
X119939831Y-128744520D01*
X119860903Y-128596855D01*
X119812299Y-128436630D01*
X119795888Y-128270000D01*
X119812299Y-128103370D01*
X119860903Y-127943145D01*
X119939831Y-127795480D01*
X120046051Y-127666051D01*
X120175480Y-127559831D01*
X120323145Y-127480903D01*
X120483370Y-127432299D01*
X120608248Y-127420000D01*
X120691752Y-127420000D01*
X120816630Y-127432299D01*
X120816630Y-127432299D01*
G37*
G36*
X184267649Y-127477717D02*
X184306827Y-127481576D01*
X184370012Y-127500743D01*
X184457629Y-127527321D01*
X184596608Y-127601608D01*
X184718422Y-127701578D01*
X184818392Y-127823392D01*
X184892679Y-127962371D01*
X184892679Y-127962372D01*
X184938424Y-128113173D01*
X184953870Y-128270000D01*
X184938424Y-128426827D01*
X184935450Y-128436630D01*
X184892679Y-128577629D01*
X184818392Y-128716608D01*
X184718422Y-128838422D01*
X184596608Y-128938392D01*
X184457629Y-129012679D01*
X184382228Y-129035551D01*
X184306827Y-129058424D01*
X184267649Y-129062283D01*
X184189295Y-129070000D01*
X184110705Y-129070000D01*
X184032351Y-129062283D01*
X183993173Y-129058424D01*
X183917772Y-129035551D01*
X183842371Y-129012679D01*
X183703392Y-128938392D01*
X183581578Y-128838422D01*
X183481608Y-128716608D01*
X183407321Y-128577629D01*
X183364550Y-128436630D01*
X183361576Y-128426827D01*
X183346130Y-128270000D01*
X183361576Y-128113173D01*
X183407321Y-127962372D01*
X183407321Y-127962371D01*
X183481608Y-127823392D01*
X183581578Y-127701578D01*
X183703392Y-127601608D01*
X183842371Y-127527321D01*
X183929988Y-127500743D01*
X183993173Y-127481576D01*
X184032351Y-127477717D01*
X184110705Y-127470000D01*
X184189295Y-127470000D01*
X184267649Y-127477717D01*
X184267649Y-127477717D01*
G37*
G36*
X174223352Y-127500743D02*
X174368941Y-127561048D01*
X174499973Y-127648601D01*
X174611399Y-127760027D01*
X174698952Y-127891059D01*
X174759257Y-128036648D01*
X174790000Y-128191205D01*
X174790000Y-128348795D01*
X174759257Y-128503352D01*
X174698952Y-128648941D01*
X174611399Y-128779973D01*
X174499973Y-128891399D01*
X174368941Y-128978952D01*
X174223352Y-129039257D01*
X174068795Y-129070000D01*
X173911205Y-129070000D01*
X173756648Y-129039257D01*
X173611059Y-128978952D01*
X173480027Y-128891399D01*
X173368601Y-128779973D01*
X173281048Y-128648941D01*
X173220743Y-128503352D01*
X173190000Y-128348795D01*
X173190000Y-128191205D01*
X173220743Y-128036648D01*
X173281048Y-127891059D01*
X173368601Y-127760027D01*
X173480027Y-127648601D01*
X173611059Y-127561048D01*
X173756648Y-127500743D01*
X173911205Y-127470000D01*
X174068795Y-127470000D01*
X174223352Y-127500743D01*
X174223352Y-127500743D01*
G37*
G36*
X131003352Y-126230743D02*
X131148941Y-126291048D01*
X131279973Y-126378601D01*
X131391399Y-126490027D01*
X131478952Y-126621059D01*
X131539257Y-126766648D01*
X131570000Y-126921205D01*
X131570000Y-127078795D01*
X131539257Y-127233352D01*
X131478952Y-127378941D01*
X131391399Y-127509973D01*
X131279973Y-127621399D01*
X131148941Y-127708952D01*
X131003352Y-127769257D01*
X130848795Y-127800000D01*
X130691205Y-127800000D01*
X130536648Y-127769257D01*
X130391059Y-127708952D01*
X130260027Y-127621399D01*
X130148601Y-127509973D01*
X130061048Y-127378941D01*
X130000743Y-127233352D01*
X129970000Y-127078795D01*
X129970000Y-126921205D01*
X130000743Y-126766648D01*
X130061048Y-126621059D01*
X130148601Y-126490027D01*
X130260027Y-126378601D01*
X130391059Y-126291048D01*
X130536648Y-126230743D01*
X130691205Y-126200000D01*
X130848795Y-126200000D01*
X131003352Y-126230743D01*
X131003352Y-126230743D01*
G37*
G36*
X129070000Y-127800000D02*
X127470000Y-127800000D01*
X127470000Y-126200000D01*
X129070000Y-126200000D01*
X129070000Y-127800000D01*
X129070000Y-127800000D01*
G37*
G36*
X121500000Y-126580000D02*
X119800000Y-126580000D01*
X119800000Y-124880000D01*
X121500000Y-124880000D01*
X121500000Y-126580000D01*
X121500000Y-126580000D01*
G37*
G36*
X118960000Y-126580000D02*
X117260000Y-126580000D01*
X117260000Y-124880000D01*
X118960000Y-124880000D01*
X118960000Y-126580000D01*
X118960000Y-126580000D01*
G37*
G36*
X184267649Y-124937717D02*
X184306827Y-124941576D01*
X184370012Y-124960743D01*
X184457629Y-124987321D01*
X184596608Y-125061608D01*
X184718422Y-125161578D01*
X184818392Y-125283392D01*
X184892679Y-125422371D01*
X184938424Y-125573174D01*
X184953870Y-125730000D01*
X184938424Y-125886826D01*
X184892679Y-126037629D01*
X184818392Y-126176608D01*
X184718422Y-126298422D01*
X184596608Y-126398392D01*
X184457629Y-126472679D01*
X184382227Y-126495552D01*
X184306827Y-126518424D01*
X184267649Y-126522283D01*
X184189295Y-126530000D01*
X184110705Y-126530000D01*
X184032351Y-126522283D01*
X183993173Y-126518424D01*
X183917773Y-126495552D01*
X183842371Y-126472679D01*
X183703392Y-126398392D01*
X183581578Y-126298422D01*
X183481608Y-126176608D01*
X183407321Y-126037629D01*
X183361576Y-125886826D01*
X183346130Y-125730000D01*
X183361576Y-125573174D01*
X183407321Y-125422371D01*
X183481608Y-125283392D01*
X183581578Y-125161578D01*
X183703392Y-125061608D01*
X183842371Y-124987321D01*
X183929988Y-124960743D01*
X183993173Y-124941576D01*
X184032351Y-124937717D01*
X184110705Y-124930000D01*
X184189295Y-124930000D01*
X184267649Y-124937717D01*
X184267649Y-124937717D01*
G37*
G36*
X170373352Y-124960743D02*
X170518941Y-125021048D01*
X170649973Y-125108601D01*
X170761399Y-125220027D01*
X170848952Y-125351059D01*
X170909257Y-125496648D01*
X170940000Y-125651205D01*
X170940000Y-125808795D01*
X170909257Y-125963352D01*
X170848952Y-126108941D01*
X170761399Y-126239973D01*
X170649973Y-126351399D01*
X170518941Y-126438952D01*
X170373352Y-126499257D01*
X170218795Y-126530000D01*
X170061205Y-126530000D01*
X169906648Y-126499257D01*
X169761059Y-126438952D01*
X169630027Y-126351399D01*
X169518601Y-126239973D01*
X169431048Y-126108941D01*
X169370743Y-125963352D01*
X169340000Y-125808795D01*
X169340000Y-125651205D01*
X169370743Y-125496648D01*
X169431048Y-125351059D01*
X169518601Y-125220027D01*
X169630027Y-125108601D01*
X169761059Y-125021048D01*
X169906648Y-124960743D01*
X170061205Y-124930000D01*
X170218795Y-124930000D01*
X170373352Y-124960743D01*
X170373352Y-124960743D01*
G37*
G36*
X167873352Y-124960743D02*
X168018941Y-125021048D01*
X168149973Y-125108601D01*
X168261399Y-125220027D01*
X168348952Y-125351059D01*
X168409257Y-125496648D01*
X168440000Y-125651205D01*
X168440000Y-125808795D01*
X168409257Y-125963352D01*
X168348952Y-126108941D01*
X168261399Y-126239973D01*
X168149973Y-126351399D01*
X168018941Y-126438952D01*
X167873352Y-126499257D01*
X167718795Y-126530000D01*
X167561205Y-126530000D01*
X167406648Y-126499257D01*
X167261059Y-126438952D01*
X167130027Y-126351399D01*
X167018601Y-126239973D01*
X166931048Y-126108941D01*
X166870743Y-125963352D01*
X166840000Y-125808795D01*
X166840000Y-125651205D01*
X166870743Y-125496648D01*
X166931048Y-125351059D01*
X167018601Y-125220027D01*
X167130027Y-125108601D01*
X167261059Y-125021048D01*
X167406648Y-124960743D01*
X167561205Y-124930000D01*
X167718795Y-124930000D01*
X167873352Y-124960743D01*
X167873352Y-124960743D01*
G37*
G36*
X174223352Y-124960743D02*
X174368941Y-125021048D01*
X174499973Y-125108601D01*
X174611399Y-125220027D01*
X174698952Y-125351059D01*
X174759257Y-125496648D01*
X174790000Y-125651205D01*
X174790000Y-125808795D01*
X174759257Y-125963352D01*
X174698952Y-126108941D01*
X174611399Y-126239973D01*
X174499973Y-126351399D01*
X174368941Y-126438952D01*
X174223352Y-126499257D01*
X174068795Y-126530000D01*
X173911205Y-126530000D01*
X173756648Y-126499257D01*
X173611059Y-126438952D01*
X173480027Y-126351399D01*
X173368601Y-126239973D01*
X173281048Y-126108941D01*
X173220743Y-125963352D01*
X173190000Y-125808795D01*
X173190000Y-125651205D01*
X173220743Y-125496648D01*
X173281048Y-125351059D01*
X173368601Y-125220027D01*
X173480027Y-125108601D01*
X173611059Y-125021048D01*
X173756648Y-124960743D01*
X173911205Y-124930000D01*
X174068795Y-124930000D01*
X174223352Y-124960743D01*
X174223352Y-124960743D01*
G37*
G36*
X148120000Y-125260000D02*
X146520000Y-125260000D01*
X146520000Y-123660000D01*
X148120000Y-123660000D01*
X148120000Y-125260000D01*
X148120000Y-125260000D01*
G37*
G36*
X139933352Y-123690743D02*
X140078941Y-123751048D01*
X140209973Y-123838601D01*
X140321399Y-123950027D01*
X140408952Y-124081059D01*
X140469257Y-124226648D01*
X140500000Y-124381205D01*
X140500000Y-124538795D01*
X140469257Y-124693352D01*
X140408952Y-124838941D01*
X140321399Y-124969973D01*
X140209973Y-125081399D01*
X140078941Y-125168952D01*
X139933352Y-125229257D01*
X139778795Y-125260000D01*
X139621205Y-125260000D01*
X139466648Y-125229257D01*
X139321059Y-125168952D01*
X139190027Y-125081399D01*
X139078601Y-124969973D01*
X138991048Y-124838941D01*
X138930743Y-124693352D01*
X138900000Y-124538795D01*
X138900000Y-124381205D01*
X138930743Y-124226648D01*
X138991048Y-124081059D01*
X139078601Y-123950027D01*
X139190027Y-123838601D01*
X139321059Y-123751048D01*
X139466648Y-123690743D01*
X139621205Y-123660000D01*
X139778795Y-123660000D01*
X139933352Y-123690743D01*
X139933352Y-123690743D01*
G37*
G36*
X150053352Y-123690743D02*
X150198941Y-123751048D01*
X150329973Y-123838601D01*
X150441399Y-123950027D01*
X150528952Y-124081059D01*
X150589257Y-124226648D01*
X150620000Y-124381205D01*
X150620000Y-124538795D01*
X150589257Y-124693352D01*
X150528952Y-124838941D01*
X150441399Y-124969973D01*
X150329973Y-125081399D01*
X150198941Y-125168952D01*
X150053352Y-125229257D01*
X149898795Y-125260000D01*
X149741205Y-125260000D01*
X149586648Y-125229257D01*
X149441059Y-125168952D01*
X149310027Y-125081399D01*
X149198601Y-124969973D01*
X149111048Y-124838941D01*
X149050743Y-124693352D01*
X149020000Y-124538795D01*
X149020000Y-124381205D01*
X149050743Y-124226648D01*
X149111048Y-124081059D01*
X149198601Y-123950027D01*
X149310027Y-123838601D01*
X149441059Y-123751048D01*
X149586648Y-123690743D01*
X149741205Y-123660000D01*
X149898795Y-123660000D01*
X150053352Y-123690743D01*
X150053352Y-123690743D01*
G37*
G36*
X137393352Y-123690743D02*
X137538941Y-123751048D01*
X137669973Y-123838601D01*
X137781399Y-123950027D01*
X137868952Y-124081059D01*
X137929257Y-124226648D01*
X137960000Y-124381205D01*
X137960000Y-124538795D01*
X137929257Y-124693352D01*
X137868952Y-124838941D01*
X137781399Y-124969973D01*
X137669973Y-125081399D01*
X137538941Y-125168952D01*
X137393352Y-125229257D01*
X137238795Y-125260000D01*
X137081205Y-125260000D01*
X136926648Y-125229257D01*
X136781059Y-125168952D01*
X136650027Y-125081399D01*
X136538601Y-124969973D01*
X136451048Y-124838941D01*
X136390743Y-124693352D01*
X136360000Y-124538795D01*
X136360000Y-124381205D01*
X136390743Y-124226648D01*
X136451048Y-124081059D01*
X136538601Y-123950027D01*
X136650027Y-123838601D01*
X136781059Y-123751048D01*
X136926648Y-123690743D01*
X137081205Y-123660000D01*
X137238795Y-123660000D01*
X137393352Y-123690743D01*
X137393352Y-123690743D01*
G37*
G36*
X142473352Y-123690743D02*
X142618941Y-123751048D01*
X142749973Y-123838601D01*
X142861399Y-123950027D01*
X142948952Y-124081059D01*
X143009257Y-124226648D01*
X143040000Y-124381205D01*
X143040000Y-124538795D01*
X143009257Y-124693352D01*
X142948952Y-124838941D01*
X142861399Y-124969973D01*
X142749973Y-125081399D01*
X142618941Y-125168952D01*
X142473352Y-125229257D01*
X142318795Y-125260000D01*
X142161205Y-125260000D01*
X142006648Y-125229257D01*
X141861059Y-125168952D01*
X141730027Y-125081399D01*
X141618601Y-124969973D01*
X141531048Y-124838941D01*
X141470743Y-124693352D01*
X141440000Y-124538795D01*
X141440000Y-124381205D01*
X141470743Y-124226648D01*
X141531048Y-124081059D01*
X141618601Y-123950027D01*
X141730027Y-123838601D01*
X141861059Y-123751048D01*
X142006648Y-123690743D01*
X142161205Y-123660000D01*
X142318795Y-123660000D01*
X142473352Y-123690743D01*
X142473352Y-123690743D01*
G37*
G36*
X120816630Y-122352299D02*
X120976855Y-122400903D01*
X121124520Y-122479831D01*
X121253949Y-122586051D01*
X121360169Y-122715480D01*
X121439097Y-122863145D01*
X121487701Y-123023370D01*
X121504112Y-123190000D01*
X121487701Y-123356630D01*
X121439097Y-123516855D01*
X121360169Y-123664520D01*
X121253949Y-123793949D01*
X121124520Y-123900169D01*
X120976855Y-123979097D01*
X120816630Y-124027701D01*
X120691752Y-124040000D01*
X120608248Y-124040000D01*
X120483370Y-124027701D01*
X120323145Y-123979097D01*
X120175480Y-123900169D01*
X120046051Y-123793949D01*
X119939831Y-123664520D01*
X119860903Y-123516855D01*
X119812299Y-123356630D01*
X119795888Y-123190000D01*
X119812299Y-123023370D01*
X119860903Y-122863145D01*
X119939831Y-122715480D01*
X120046051Y-122586051D01*
X120175480Y-122479831D01*
X120323145Y-122400903D01*
X120483370Y-122352299D01*
X120608248Y-122340000D01*
X120691752Y-122340000D01*
X120816630Y-122352299D01*
X120816630Y-122352299D01*
G37*
G36*
X118276630Y-122352299D02*
X118436855Y-122400903D01*
X118584520Y-122479831D01*
X118713949Y-122586051D01*
X118820169Y-122715480D01*
X118899097Y-122863145D01*
X118947701Y-123023370D01*
X118964112Y-123190000D01*
X118947701Y-123356630D01*
X118899097Y-123516855D01*
X118820169Y-123664520D01*
X118713949Y-123793949D01*
X118584520Y-123900169D01*
X118436855Y-123979097D01*
X118276630Y-124027701D01*
X118151752Y-124040000D01*
X118068248Y-124040000D01*
X117943370Y-124027701D01*
X117783145Y-123979097D01*
X117635480Y-123900169D01*
X117506051Y-123793949D01*
X117399831Y-123664520D01*
X117320903Y-123516855D01*
X117272299Y-123356630D01*
X117255888Y-123190000D01*
X117272299Y-123023370D01*
X117320903Y-122863145D01*
X117399831Y-122715480D01*
X117506051Y-122586051D01*
X117635480Y-122479831D01*
X117783145Y-122400903D01*
X117943370Y-122352299D01*
X118068248Y-122340000D01*
X118151752Y-122340000D01*
X118276630Y-122352299D01*
X118276630Y-122352299D01*
G37*
G36*
X157651595Y-122397717D02*
X157690773Y-122401576D01*
X157753958Y-122420743D01*
X157841575Y-122447321D01*
X157980554Y-122521608D01*
X158102368Y-122621578D01*
X158202338Y-122743392D01*
X158276625Y-122882371D01*
X158276625Y-122882372D01*
X158322370Y-123033173D01*
X158337816Y-123190000D01*
X158322370Y-123346827D01*
X158319396Y-123356630D01*
X158276625Y-123497629D01*
X158202338Y-123636608D01*
X158102368Y-123758422D01*
X157980554Y-123858392D01*
X157841575Y-123932679D01*
X157766173Y-123955552D01*
X157690773Y-123978424D01*
X157651595Y-123982283D01*
X157573241Y-123990000D01*
X157494651Y-123990000D01*
X157416297Y-123982283D01*
X157377119Y-123978424D01*
X157301719Y-123955552D01*
X157226317Y-123932679D01*
X157087338Y-123858392D01*
X156965524Y-123758422D01*
X156865554Y-123636608D01*
X156791267Y-123497629D01*
X156748496Y-123356630D01*
X156745522Y-123346827D01*
X156730076Y-123190000D01*
X156745522Y-123033173D01*
X156791267Y-122882372D01*
X156791267Y-122882371D01*
X156865554Y-122743392D01*
X156965524Y-122621578D01*
X157087338Y-122521608D01*
X157226317Y-122447321D01*
X157313934Y-122420743D01*
X157377119Y-122401576D01*
X157416297Y-122397717D01*
X157494651Y-122390000D01*
X157573241Y-122390000D01*
X157651595Y-122397717D01*
X157651595Y-122397717D01*
G37*
G36*
X160191595Y-122397717D02*
X160230773Y-122401576D01*
X160293958Y-122420743D01*
X160381575Y-122447321D01*
X160520554Y-122521608D01*
X160642368Y-122621578D01*
X160742338Y-122743392D01*
X160816625Y-122882371D01*
X160816625Y-122882372D01*
X160862370Y-123033173D01*
X160877816Y-123190000D01*
X160862370Y-123346827D01*
X160859396Y-123356630D01*
X160816625Y-123497629D01*
X160742338Y-123636608D01*
X160642368Y-123758422D01*
X160520554Y-123858392D01*
X160381575Y-123932679D01*
X160306173Y-123955552D01*
X160230773Y-123978424D01*
X160191595Y-123982283D01*
X160113241Y-123990000D01*
X160034651Y-123990000D01*
X159956297Y-123982283D01*
X159917119Y-123978424D01*
X159841719Y-123955552D01*
X159766317Y-123932679D01*
X159627338Y-123858392D01*
X159505524Y-123758422D01*
X159405554Y-123636608D01*
X159331267Y-123497629D01*
X159288496Y-123356630D01*
X159285522Y-123346827D01*
X159270076Y-123190000D01*
X159285522Y-123033173D01*
X159331267Y-122882372D01*
X159331267Y-122882371D01*
X159405554Y-122743392D01*
X159505524Y-122621578D01*
X159627338Y-122521608D01*
X159766317Y-122447321D01*
X159853934Y-122420743D01*
X159917119Y-122401576D01*
X159956297Y-122397717D01*
X160034651Y-122390000D01*
X160113241Y-122390000D01*
X160191595Y-122397717D01*
X160191595Y-122397717D01*
G37*
G36*
X162731595Y-122397717D02*
X162770773Y-122401576D01*
X162833958Y-122420743D01*
X162921575Y-122447321D01*
X163060554Y-122521608D01*
X163182368Y-122621578D01*
X163282338Y-122743392D01*
X163356625Y-122882371D01*
X163356625Y-122882372D01*
X163402370Y-123033173D01*
X163417816Y-123190000D01*
X163402370Y-123346827D01*
X163399396Y-123356630D01*
X163356625Y-123497629D01*
X163282338Y-123636608D01*
X163182368Y-123758422D01*
X163060554Y-123858392D01*
X162921575Y-123932679D01*
X162846173Y-123955552D01*
X162770773Y-123978424D01*
X162731595Y-123982283D01*
X162653241Y-123990000D01*
X162574651Y-123990000D01*
X162496297Y-123982283D01*
X162457119Y-123978424D01*
X162381719Y-123955552D01*
X162306317Y-123932679D01*
X162167338Y-123858392D01*
X162045524Y-123758422D01*
X161945554Y-123636608D01*
X161871267Y-123497629D01*
X161828496Y-123356630D01*
X161825522Y-123346827D01*
X161810076Y-123190000D01*
X161825522Y-123033173D01*
X161871267Y-122882372D01*
X161871267Y-122882371D01*
X161945554Y-122743392D01*
X162045524Y-122621578D01*
X162167338Y-122521608D01*
X162306317Y-122447321D01*
X162393934Y-122420743D01*
X162457119Y-122401576D01*
X162496297Y-122397717D01*
X162574651Y-122390000D01*
X162653241Y-122390000D01*
X162731595Y-122397717D01*
X162731595Y-122397717D01*
G37*
G36*
X184267649Y-122397717D02*
X184306827Y-122401576D01*
X184370012Y-122420743D01*
X184457629Y-122447321D01*
X184596608Y-122521608D01*
X184718422Y-122621578D01*
X184818392Y-122743392D01*
X184892679Y-122882371D01*
X184892679Y-122882372D01*
X184938424Y-123033173D01*
X184953870Y-123190000D01*
X184938424Y-123346827D01*
X184935450Y-123356630D01*
X184892679Y-123497629D01*
X184818392Y-123636608D01*
X184718422Y-123758422D01*
X184596608Y-123858392D01*
X184457629Y-123932679D01*
X184382227Y-123955552D01*
X184306827Y-123978424D01*
X184267649Y-123982283D01*
X184189295Y-123990000D01*
X184110705Y-123990000D01*
X184032351Y-123982283D01*
X183993173Y-123978424D01*
X183917773Y-123955552D01*
X183842371Y-123932679D01*
X183703392Y-123858392D01*
X183581578Y-123758422D01*
X183481608Y-123636608D01*
X183407321Y-123497629D01*
X183364550Y-123356630D01*
X183361576Y-123346827D01*
X183346130Y-123190000D01*
X183361576Y-123033173D01*
X183407321Y-122882372D01*
X183407321Y-122882371D01*
X183481608Y-122743392D01*
X183581578Y-122621578D01*
X183703392Y-122521608D01*
X183842371Y-122447321D01*
X183929988Y-122420743D01*
X183993173Y-122401576D01*
X184032351Y-122397717D01*
X184110705Y-122390000D01*
X184189295Y-122390000D01*
X184267649Y-122397717D01*
X184267649Y-122397717D01*
G37*
G36*
X174223352Y-122420743D02*
X174368941Y-122481048D01*
X174499973Y-122568601D01*
X174611399Y-122680027D01*
X174698952Y-122811059D01*
X174759257Y-122956648D01*
X174790000Y-123111205D01*
X174790000Y-123268795D01*
X174759257Y-123423352D01*
X174698952Y-123568941D01*
X174611399Y-123699973D01*
X174499973Y-123811399D01*
X174368941Y-123898952D01*
X174223352Y-123959257D01*
X174068795Y-123990000D01*
X173911205Y-123990000D01*
X173756648Y-123959257D01*
X173611059Y-123898952D01*
X173480027Y-123811399D01*
X173368601Y-123699973D01*
X173281048Y-123568941D01*
X173220743Y-123423352D01*
X173190000Y-123268795D01*
X173190000Y-123111205D01*
X173220743Y-122956648D01*
X173281048Y-122811059D01*
X173368601Y-122680027D01*
X173480027Y-122568601D01*
X173611059Y-122481048D01*
X173756648Y-122420743D01*
X173911205Y-122390000D01*
X174068795Y-122390000D01*
X174223352Y-122420743D01*
X174223352Y-122420743D01*
G37*
G36*
X155793946Y-123990000D02*
X154193946Y-123990000D01*
X154193946Y-122390000D01*
X155793946Y-122390000D01*
X155793946Y-123990000D01*
X155793946Y-123990000D01*
G37*
G36*
X190460649Y-118452577D02*
X190751829Y-118573188D01*
X191013890Y-118748292D01*
X191236745Y-118971147D01*
X191411849Y-119233208D01*
X191532460Y-119524388D01*
X191593946Y-119833503D01*
X191593946Y-120148679D01*
X191532460Y-120457794D01*
X191411849Y-120748974D01*
X191236745Y-121011035D01*
X191013890Y-121233890D01*
X190751829Y-121408994D01*
X190460649Y-121529605D01*
X190151534Y-121591091D01*
X189836358Y-121591091D01*
X189527243Y-121529605D01*
X189236063Y-121408994D01*
X188974002Y-121233890D01*
X188751147Y-121011035D01*
X188576043Y-120748974D01*
X188455432Y-120457794D01*
X188393946Y-120148679D01*
X188393946Y-119833503D01*
X188455432Y-119524388D01*
X188576043Y-119233208D01*
X188751147Y-118971147D01*
X188974002Y-118748292D01*
X189236063Y-118573188D01*
X189527243Y-118452577D01*
X189836358Y-118391091D01*
X190151534Y-118391091D01*
X190460649Y-118452577D01*
X190460649Y-118452577D01*
G37*
G36*
X110460649Y-118452577D02*
X110751829Y-118573188D01*
X111013890Y-118748292D01*
X111236745Y-118971147D01*
X111411849Y-119233208D01*
X111532460Y-119524388D01*
X111593946Y-119833503D01*
X111593946Y-120148679D01*
X111532460Y-120457794D01*
X111411849Y-120748974D01*
X111236745Y-121011035D01*
X111013890Y-121233890D01*
X110751829Y-121408994D01*
X110460649Y-121529605D01*
X110151534Y-121591091D01*
X109836358Y-121591091D01*
X109527243Y-121529605D01*
X109236063Y-121408994D01*
X108974002Y-121233890D01*
X108751147Y-121011035D01*
X108576043Y-120748974D01*
X108455432Y-120457794D01*
X108393946Y-120148679D01*
X108393946Y-119833503D01*
X108455432Y-119524388D01*
X108576043Y-119233208D01*
X108751147Y-118971147D01*
X108974002Y-118748292D01*
X109236063Y-118573188D01*
X109527243Y-118452577D01*
X109836358Y-118391091D01*
X110151534Y-118391091D01*
X110460649Y-118452577D01*
X110460649Y-118452577D01*
G37*
G36*
X120816630Y-119812299D02*
X120976855Y-119860903D01*
X121124520Y-119939831D01*
X121253949Y-120046051D01*
X121360169Y-120175480D01*
X121439097Y-120323145D01*
X121487701Y-120483370D01*
X121504112Y-120650000D01*
X121487701Y-120816630D01*
X121439097Y-120976855D01*
X121360169Y-121124520D01*
X121253949Y-121253949D01*
X121124520Y-121360169D01*
X120976855Y-121439097D01*
X120816630Y-121487701D01*
X120691752Y-121500000D01*
X120608248Y-121500000D01*
X120483370Y-121487701D01*
X120323145Y-121439097D01*
X120175480Y-121360169D01*
X120046051Y-121253949D01*
X119939831Y-121124520D01*
X119860903Y-120976855D01*
X119812299Y-120816630D01*
X119795888Y-120650000D01*
X119812299Y-120483370D01*
X119860903Y-120323145D01*
X119939831Y-120175480D01*
X120046051Y-120046051D01*
X120175480Y-119939831D01*
X120323145Y-119860903D01*
X120483370Y-119812299D01*
X120608248Y-119800000D01*
X120691752Y-119800000D01*
X120816630Y-119812299D01*
X120816630Y-119812299D01*
G37*
G36*
X118276630Y-119812299D02*
X118436855Y-119860903D01*
X118584520Y-119939831D01*
X118713949Y-120046051D01*
X118820169Y-120175480D01*
X118899097Y-120323145D01*
X118947701Y-120483370D01*
X118964112Y-120650000D01*
X118947701Y-120816630D01*
X118899097Y-120976855D01*
X118820169Y-121124520D01*
X118713949Y-121253949D01*
X118584520Y-121360169D01*
X118436855Y-121439097D01*
X118276630Y-121487701D01*
X118151752Y-121500000D01*
X118068248Y-121500000D01*
X117943370Y-121487701D01*
X117783145Y-121439097D01*
X117635480Y-121360169D01*
X117506051Y-121253949D01*
X117399831Y-121124520D01*
X117320903Y-120976855D01*
X117272299Y-120816630D01*
X117255888Y-120650000D01*
X117272299Y-120483370D01*
X117320903Y-120323145D01*
X117399831Y-120175480D01*
X117506051Y-120046051D01*
X117635480Y-119939831D01*
X117783145Y-119860903D01*
X117943370Y-119812299D01*
X118068248Y-119800000D01*
X118151752Y-119800000D01*
X118276630Y-119812299D01*
X118276630Y-119812299D01*
G37*
G36*
X184267649Y-119857717D02*
X184306827Y-119861576D01*
X184370012Y-119880743D01*
X184457629Y-119907321D01*
X184596608Y-119981608D01*
X184718422Y-120081578D01*
X184818392Y-120203392D01*
X184892679Y-120342371D01*
X184892679Y-120342372D01*
X184938424Y-120493173D01*
X184953870Y-120650000D01*
X184938424Y-120806827D01*
X184935450Y-120816630D01*
X184892679Y-120957629D01*
X184818392Y-121096608D01*
X184718422Y-121218422D01*
X184596608Y-121318392D01*
X184457629Y-121392679D01*
X184403848Y-121408993D01*
X184306827Y-121438424D01*
X184267649Y-121442283D01*
X184189295Y-121450000D01*
X184110705Y-121450000D01*
X184032351Y-121442283D01*
X183993173Y-121438424D01*
X183896152Y-121408993D01*
X183842371Y-121392679D01*
X183703392Y-121318392D01*
X183581578Y-121218422D01*
X183481608Y-121096608D01*
X183407321Y-120957629D01*
X183364550Y-120816630D01*
X183361576Y-120806827D01*
X183346130Y-120650000D01*
X183361576Y-120493173D01*
X183407321Y-120342372D01*
X183407321Y-120342371D01*
X183481608Y-120203392D01*
X183581578Y-120081578D01*
X183703392Y-119981608D01*
X183842371Y-119907321D01*
X183929988Y-119880743D01*
X183993173Y-119861576D01*
X184032351Y-119857717D01*
X184110705Y-119850000D01*
X184189295Y-119850000D01*
X184267649Y-119857717D01*
X184267649Y-119857717D01*
G37*
G36*
X174223352Y-119880743D02*
X174368941Y-119941048D01*
X174499973Y-120028601D01*
X174611399Y-120140027D01*
X174698952Y-120271059D01*
X174759257Y-120416648D01*
X174790000Y-120571205D01*
X174790000Y-120728795D01*
X174759257Y-120883352D01*
X174698952Y-121028941D01*
X174611399Y-121159973D01*
X174499973Y-121271399D01*
X174368941Y-121358952D01*
X174223352Y-121419257D01*
X174068795Y-121450000D01*
X173911205Y-121450000D01*
X173756648Y-121419257D01*
X173611059Y-121358952D01*
X173480027Y-121271399D01*
X173368601Y-121159973D01*
X173281048Y-121028941D01*
X173220743Y-120883352D01*
X173190000Y-120728795D01*
X173190000Y-120571205D01*
X173220743Y-120416648D01*
X173281048Y-120271059D01*
X173368601Y-120140027D01*
X173480027Y-120028601D01*
X173611059Y-119941048D01*
X173756648Y-119880743D01*
X173911205Y-119850000D01*
X174068795Y-119850000D01*
X174223352Y-119880743D01*
X174223352Y-119880743D01*
G37*
G36*
X118276630Y-117272299D02*
X118436855Y-117320903D01*
X118584520Y-117399831D01*
X118713949Y-117506051D01*
X118820169Y-117635480D01*
X118899097Y-117783145D01*
X118947701Y-117943370D01*
X118964112Y-118110000D01*
X118947701Y-118276630D01*
X118899097Y-118436855D01*
X118820169Y-118584520D01*
X118713949Y-118713949D01*
X118584520Y-118820169D01*
X118436855Y-118899097D01*
X118276630Y-118947701D01*
X118151752Y-118960000D01*
X118068248Y-118960000D01*
X117943370Y-118947701D01*
X117783145Y-118899097D01*
X117635480Y-118820169D01*
X117506051Y-118713949D01*
X117399831Y-118584520D01*
X117320903Y-118436855D01*
X117272299Y-118276630D01*
X117255888Y-118110000D01*
X117272299Y-117943370D01*
X117320903Y-117783145D01*
X117399831Y-117635480D01*
X117506051Y-117506051D01*
X117635480Y-117399831D01*
X117783145Y-117320903D01*
X117943370Y-117272299D01*
X118068248Y-117260000D01*
X118151752Y-117260000D01*
X118276630Y-117272299D01*
X118276630Y-117272299D01*
G37*
G36*
X120816630Y-117272299D02*
X120976855Y-117320903D01*
X121124520Y-117399831D01*
X121253949Y-117506051D01*
X121360169Y-117635480D01*
X121439097Y-117783145D01*
X121487701Y-117943370D01*
X121504112Y-118110000D01*
X121487701Y-118276630D01*
X121439097Y-118436855D01*
X121360169Y-118584520D01*
X121253949Y-118713949D01*
X121124520Y-118820169D01*
X120976855Y-118899097D01*
X120816630Y-118947701D01*
X120691752Y-118960000D01*
X120608248Y-118960000D01*
X120483370Y-118947701D01*
X120323145Y-118899097D01*
X120175480Y-118820169D01*
X120046051Y-118713949D01*
X119939831Y-118584520D01*
X119860903Y-118436855D01*
X119812299Y-118276630D01*
X119795888Y-118110000D01*
X119812299Y-117943370D01*
X119860903Y-117783145D01*
X119939831Y-117635480D01*
X120046051Y-117506051D01*
X120175480Y-117399831D01*
X120323145Y-117320903D01*
X120483370Y-117272299D01*
X120608248Y-117260000D01*
X120691752Y-117260000D01*
X120816630Y-117272299D01*
X120816630Y-117272299D01*
G37*
G36*
X174223352Y-117340743D02*
X174368941Y-117401048D01*
X174499973Y-117488601D01*
X174611399Y-117600027D01*
X174698952Y-117731059D01*
X174759257Y-117876648D01*
X174790000Y-118031205D01*
X174790000Y-118188795D01*
X174759257Y-118343352D01*
X174698952Y-118488941D01*
X174611399Y-118619973D01*
X174499973Y-118731399D01*
X174368941Y-118818952D01*
X174223352Y-118879257D01*
X174068795Y-118910000D01*
X173911205Y-118910000D01*
X173756648Y-118879257D01*
X173611059Y-118818952D01*
X173480027Y-118731399D01*
X173368601Y-118619973D01*
X173281048Y-118488941D01*
X173220743Y-118343352D01*
X173190000Y-118188795D01*
X173190000Y-118031205D01*
X173220743Y-117876648D01*
X173281048Y-117731059D01*
X173368601Y-117600027D01*
X173480027Y-117488601D01*
X173611059Y-117401048D01*
X173756648Y-117340743D01*
X173911205Y-117310000D01*
X174068795Y-117310000D01*
X174223352Y-117340743D01*
X174223352Y-117340743D01*
G37*
G36*
X129070000Y-118910000D02*
X127470000Y-118910000D01*
X127470000Y-117310000D01*
X129070000Y-117310000D01*
X129070000Y-118910000D01*
X129070000Y-118910000D01*
G37*
G36*
X184267649Y-117317717D02*
X184306827Y-117321576D01*
X184370012Y-117340743D01*
X184457629Y-117367321D01*
X184596608Y-117441608D01*
X184718422Y-117541578D01*
X184818392Y-117663392D01*
X184892679Y-117802371D01*
X184892679Y-117802372D01*
X184938424Y-117953173D01*
X184953870Y-118110000D01*
X184938424Y-118266827D01*
X184935450Y-118276630D01*
X184892679Y-118417629D01*
X184818392Y-118556608D01*
X184718422Y-118678422D01*
X184596608Y-118778392D01*
X184457629Y-118852679D01*
X184382227Y-118875552D01*
X184306827Y-118898424D01*
X184267649Y-118902283D01*
X184189295Y-118910000D01*
X184110705Y-118910000D01*
X184032351Y-118902283D01*
X183993173Y-118898424D01*
X183917773Y-118875552D01*
X183842371Y-118852679D01*
X183703392Y-118778392D01*
X183581578Y-118678422D01*
X183481608Y-118556608D01*
X183407321Y-118417629D01*
X183364550Y-118276630D01*
X183361576Y-118266827D01*
X183346130Y-118110000D01*
X183361576Y-117953173D01*
X183407321Y-117802372D01*
X183407321Y-117802371D01*
X183481608Y-117663392D01*
X183581578Y-117541578D01*
X183703392Y-117441608D01*
X183842371Y-117367321D01*
X183929988Y-117340743D01*
X183993173Y-117321576D01*
X184032351Y-117317717D01*
X184110705Y-117310000D01*
X184189295Y-117310000D01*
X184267649Y-117317717D01*
X184267649Y-117317717D01*
G37*
G36*
X131003352Y-117340743D02*
X131148941Y-117401048D01*
X131279973Y-117488601D01*
X131391399Y-117600027D01*
X131478952Y-117731059D01*
X131539257Y-117876648D01*
X131570000Y-118031205D01*
X131570000Y-118188795D01*
X131539257Y-118343352D01*
X131478952Y-118488941D01*
X131391399Y-118619973D01*
X131279973Y-118731399D01*
X131148941Y-118818952D01*
X131003352Y-118879257D01*
X130848795Y-118910000D01*
X130691205Y-118910000D01*
X130536648Y-118879257D01*
X130391059Y-118818952D01*
X130260027Y-118731399D01*
X130148601Y-118619973D01*
X130061048Y-118488941D01*
X130000743Y-118343352D01*
X129970000Y-118188795D01*
X129970000Y-118031205D01*
X130000743Y-117876648D01*
X130061048Y-117731059D01*
X130148601Y-117600027D01*
X130260027Y-117488601D01*
X130391059Y-117401048D01*
X130536648Y-117340743D01*
X130691205Y-117310000D01*
X130848795Y-117310000D01*
X131003352Y-117340743D01*
X131003352Y-117340743D01*
G37*
G36*
X170373352Y-117340743D02*
X170518941Y-117401048D01*
X170649973Y-117488601D01*
X170761399Y-117600027D01*
X170848952Y-117731059D01*
X170909257Y-117876648D01*
X170940000Y-118031205D01*
X170940000Y-118188795D01*
X170909257Y-118343352D01*
X170848952Y-118488941D01*
X170761399Y-118619973D01*
X170649973Y-118731399D01*
X170518941Y-118818952D01*
X170373352Y-118879257D01*
X170218795Y-118910000D01*
X170061205Y-118910000D01*
X169906648Y-118879257D01*
X169761059Y-118818952D01*
X169630027Y-118731399D01*
X169518601Y-118619973D01*
X169431048Y-118488941D01*
X169370743Y-118343352D01*
X169340000Y-118188795D01*
X169340000Y-118031205D01*
X169370743Y-117876648D01*
X169431048Y-117731059D01*
X169518601Y-117600027D01*
X169630027Y-117488601D01*
X169761059Y-117401048D01*
X169906648Y-117340743D01*
X170061205Y-117310000D01*
X170218795Y-117310000D01*
X170373352Y-117340743D01*
X170373352Y-117340743D01*
G37*
G36*
X168440000Y-118910000D02*
X166840000Y-118910000D01*
X166840000Y-117310000D01*
X168440000Y-117310000D01*
X168440000Y-118910000D01*
X168440000Y-118910000D01*
G37*
G36*
X118960000Y-116420000D02*
X117260000Y-116420000D01*
X117260000Y-114720000D01*
X118960000Y-114720000D01*
X118960000Y-116420000D01*
X118960000Y-116420000D01*
G37*
G36*
X120816630Y-114732299D02*
X120976855Y-114780903D01*
X121124520Y-114859831D01*
X121253949Y-114966051D01*
X121360169Y-115095480D01*
X121439097Y-115243145D01*
X121487701Y-115403370D01*
X121504112Y-115570000D01*
X121487701Y-115736630D01*
X121439097Y-115896855D01*
X121360169Y-116044520D01*
X121253949Y-116173949D01*
X121124520Y-116280169D01*
X120976855Y-116359097D01*
X120816630Y-116407701D01*
X120691752Y-116420000D01*
X120608248Y-116420000D01*
X120483370Y-116407701D01*
X120323145Y-116359097D01*
X120175480Y-116280169D01*
X120046051Y-116173949D01*
X119939831Y-116044520D01*
X119860903Y-115896855D01*
X119812299Y-115736630D01*
X119795888Y-115570000D01*
X119812299Y-115403370D01*
X119860903Y-115243145D01*
X119939831Y-115095480D01*
X120046051Y-114966051D01*
X120175480Y-114859831D01*
X120323145Y-114780903D01*
X120483370Y-114732299D01*
X120608248Y-114720000D01*
X120691752Y-114720000D01*
X120816630Y-114732299D01*
X120816630Y-114732299D01*
G37*
G36*
X160191595Y-114777717D02*
X160230773Y-114781576D01*
X160293958Y-114800743D01*
X160381575Y-114827321D01*
X160520554Y-114901608D01*
X160642368Y-115001578D01*
X160742338Y-115123392D01*
X160816625Y-115262371D01*
X160816625Y-115262372D01*
X160862370Y-115413173D01*
X160877816Y-115570000D01*
X160862370Y-115726827D01*
X160859396Y-115736630D01*
X160816625Y-115877629D01*
X160742338Y-116016608D01*
X160642368Y-116138422D01*
X160520554Y-116238392D01*
X160381575Y-116312679D01*
X160306174Y-116335551D01*
X160230773Y-116358424D01*
X160191595Y-116362283D01*
X160113241Y-116370000D01*
X160034651Y-116370000D01*
X159956297Y-116362283D01*
X159917119Y-116358424D01*
X159841719Y-116335552D01*
X159766317Y-116312679D01*
X159627338Y-116238392D01*
X159505524Y-116138422D01*
X159405554Y-116016608D01*
X159331267Y-115877629D01*
X159288496Y-115736630D01*
X159285522Y-115726827D01*
X159270076Y-115570000D01*
X159285522Y-115413173D01*
X159331267Y-115262372D01*
X159331267Y-115262371D01*
X159405554Y-115123392D01*
X159505524Y-115001578D01*
X159627338Y-114901608D01*
X159766317Y-114827321D01*
X159853934Y-114800743D01*
X159917119Y-114781576D01*
X159956297Y-114777717D01*
X160034651Y-114770000D01*
X160113241Y-114770000D01*
X160191595Y-114777717D01*
X160191595Y-114777717D01*
G37*
G36*
X162731595Y-114777717D02*
X162770773Y-114781576D01*
X162833958Y-114800743D01*
X162921575Y-114827321D01*
X163060554Y-114901608D01*
X163182368Y-115001578D01*
X163282338Y-115123392D01*
X163356625Y-115262371D01*
X163356625Y-115262372D01*
X163402370Y-115413173D01*
X163417816Y-115570000D01*
X163402370Y-115726827D01*
X163399396Y-115736630D01*
X163356625Y-115877629D01*
X163282338Y-116016608D01*
X163182368Y-116138422D01*
X163060554Y-116238392D01*
X162921575Y-116312679D01*
X162846174Y-116335551D01*
X162770773Y-116358424D01*
X162731595Y-116362283D01*
X162653241Y-116370000D01*
X162574651Y-116370000D01*
X162496297Y-116362283D01*
X162457119Y-116358424D01*
X162381719Y-116335552D01*
X162306317Y-116312679D01*
X162167338Y-116238392D01*
X162045524Y-116138422D01*
X161945554Y-116016608D01*
X161871267Y-115877629D01*
X161828496Y-115736630D01*
X161825522Y-115726827D01*
X161810076Y-115570000D01*
X161825522Y-115413173D01*
X161871267Y-115262372D01*
X161871267Y-115262371D01*
X161945554Y-115123392D01*
X162045524Y-115001578D01*
X162167338Y-114901608D01*
X162306317Y-114827321D01*
X162393934Y-114800743D01*
X162457119Y-114781576D01*
X162496297Y-114777717D01*
X162574651Y-114770000D01*
X162653241Y-114770000D01*
X162731595Y-114777717D01*
X162731595Y-114777717D01*
G37*
G36*
X157651595Y-114777717D02*
X157690773Y-114781576D01*
X157753958Y-114800743D01*
X157841575Y-114827321D01*
X157980554Y-114901608D01*
X158102368Y-115001578D01*
X158202338Y-115123392D01*
X158276625Y-115262371D01*
X158276625Y-115262372D01*
X158322370Y-115413173D01*
X158337816Y-115570000D01*
X158322370Y-115726827D01*
X158319396Y-115736630D01*
X158276625Y-115877629D01*
X158202338Y-116016608D01*
X158102368Y-116138422D01*
X157980554Y-116238392D01*
X157841575Y-116312679D01*
X157766174Y-116335551D01*
X157690773Y-116358424D01*
X157651595Y-116362283D01*
X157573241Y-116370000D01*
X157494651Y-116370000D01*
X157416297Y-116362283D01*
X157377119Y-116358424D01*
X157301719Y-116335552D01*
X157226317Y-116312679D01*
X157087338Y-116238392D01*
X156965524Y-116138422D01*
X156865554Y-116016608D01*
X156791267Y-115877629D01*
X156748496Y-115736630D01*
X156745522Y-115726827D01*
X156730076Y-115570000D01*
X156745522Y-115413173D01*
X156791267Y-115262372D01*
X156791267Y-115262371D01*
X156865554Y-115123392D01*
X156965524Y-115001578D01*
X157087338Y-114901608D01*
X157226317Y-114827321D01*
X157313934Y-114800743D01*
X157377119Y-114781576D01*
X157416297Y-114777717D01*
X157494651Y-114770000D01*
X157573241Y-114770000D01*
X157651595Y-114777717D01*
X157651595Y-114777717D01*
G37*
G36*
X174223352Y-114800743D02*
X174368941Y-114861048D01*
X174499973Y-114948601D01*
X174611399Y-115060027D01*
X174698952Y-115191059D01*
X174759257Y-115336648D01*
X174790000Y-115491205D01*
X174790000Y-115648795D01*
X174759257Y-115803352D01*
X174698952Y-115948941D01*
X174611399Y-116079973D01*
X174499973Y-116191399D01*
X174368941Y-116278952D01*
X174223352Y-116339257D01*
X174068795Y-116370000D01*
X173911205Y-116370000D01*
X173756648Y-116339257D01*
X173611059Y-116278952D01*
X173480027Y-116191399D01*
X173368601Y-116079973D01*
X173281048Y-115948941D01*
X173220743Y-115803352D01*
X173190000Y-115648795D01*
X173190000Y-115491205D01*
X173220743Y-115336648D01*
X173281048Y-115191059D01*
X173368601Y-115060027D01*
X173480027Y-114948601D01*
X173611059Y-114861048D01*
X173756648Y-114800743D01*
X173911205Y-114770000D01*
X174068795Y-114770000D01*
X174223352Y-114800743D01*
X174223352Y-114800743D01*
G37*
G36*
X184267649Y-114777717D02*
X184306827Y-114781576D01*
X184370012Y-114800743D01*
X184457629Y-114827321D01*
X184596608Y-114901608D01*
X184718422Y-115001578D01*
X184818392Y-115123392D01*
X184892679Y-115262371D01*
X184892679Y-115262372D01*
X184938424Y-115413173D01*
X184953870Y-115570000D01*
X184938424Y-115726827D01*
X184935450Y-115736630D01*
X184892679Y-115877629D01*
X184818392Y-116016608D01*
X184718422Y-116138422D01*
X184596608Y-116238392D01*
X184457629Y-116312679D01*
X184382228Y-116335551D01*
X184306827Y-116358424D01*
X184267649Y-116362283D01*
X184189295Y-116370000D01*
X184110705Y-116370000D01*
X184032351Y-116362283D01*
X183993173Y-116358424D01*
X183917773Y-116335552D01*
X183842371Y-116312679D01*
X183703392Y-116238392D01*
X183581578Y-116138422D01*
X183481608Y-116016608D01*
X183407321Y-115877629D01*
X183364550Y-115736630D01*
X183361576Y-115726827D01*
X183346130Y-115570000D01*
X183361576Y-115413173D01*
X183407321Y-115262372D01*
X183407321Y-115262371D01*
X183481608Y-115123392D01*
X183581578Y-115001578D01*
X183703392Y-114901608D01*
X183842371Y-114827321D01*
X183929988Y-114800743D01*
X183993173Y-114781576D01*
X184032351Y-114777717D01*
X184110705Y-114770000D01*
X184189295Y-114770000D01*
X184267649Y-114777717D01*
X184267649Y-114777717D01*
G37*
G36*
X155111595Y-114777717D02*
X155150773Y-114781576D01*
X155213958Y-114800743D01*
X155301575Y-114827321D01*
X155440554Y-114901608D01*
X155562368Y-115001578D01*
X155662338Y-115123392D01*
X155736625Y-115262371D01*
X155736625Y-115262372D01*
X155782370Y-115413173D01*
X155797816Y-115570000D01*
X155782370Y-115726827D01*
X155779396Y-115736630D01*
X155736625Y-115877629D01*
X155662338Y-116016608D01*
X155562368Y-116138422D01*
X155440554Y-116238392D01*
X155301575Y-116312679D01*
X155226174Y-116335551D01*
X155150773Y-116358424D01*
X155111595Y-116362283D01*
X155033241Y-116370000D01*
X154954651Y-116370000D01*
X154876297Y-116362283D01*
X154837119Y-116358424D01*
X154761719Y-116335552D01*
X154686317Y-116312679D01*
X154547338Y-116238392D01*
X154425524Y-116138422D01*
X154325554Y-116016608D01*
X154251267Y-115877629D01*
X154208496Y-115736630D01*
X154205522Y-115726827D01*
X154190076Y-115570000D01*
X154205522Y-115413173D01*
X154251267Y-115262372D01*
X154251267Y-115262371D01*
X154325554Y-115123392D01*
X154425524Y-115001578D01*
X154547338Y-114901608D01*
X154686317Y-114827321D01*
X154773934Y-114800743D01*
X154837119Y-114781576D01*
X154876297Y-114777717D01*
X154954651Y-114770000D01*
X155033241Y-114770000D01*
X155111595Y-114777717D01*
X155111595Y-114777717D01*
G37*
G36*
X150026630Y-113462299D02*
X150186855Y-113510903D01*
X150334520Y-113589831D01*
X150463949Y-113696051D01*
X150570169Y-113825480D01*
X150649097Y-113973145D01*
X150697701Y-114133370D01*
X150714112Y-114300000D01*
X150697701Y-114466630D01*
X150649097Y-114626855D01*
X150570169Y-114774520D01*
X150463949Y-114903949D01*
X150334520Y-115010169D01*
X150186855Y-115089097D01*
X150026630Y-115137701D01*
X149901752Y-115150000D01*
X149818248Y-115150000D01*
X149693370Y-115137701D01*
X149533145Y-115089097D01*
X149385480Y-115010169D01*
X149256051Y-114903949D01*
X149149831Y-114774520D01*
X149070903Y-114626855D01*
X149022299Y-114466630D01*
X149005888Y-114300000D01*
X149022299Y-114133370D01*
X149070903Y-113973145D01*
X149149831Y-113825480D01*
X149256051Y-113696051D01*
X149385480Y-113589831D01*
X149533145Y-113510903D01*
X149693370Y-113462299D01*
X149818248Y-113450000D01*
X149901752Y-113450000D01*
X150026630Y-113462299D01*
X150026630Y-113462299D01*
G37*
G36*
X148170000Y-115150000D02*
X146470000Y-115150000D01*
X146470000Y-113450000D01*
X148170000Y-113450000D01*
X148170000Y-115150000D01*
X148170000Y-115150000D01*
G37*
G36*
X139817649Y-113507717D02*
X139856827Y-113511576D01*
X139932227Y-113534448D01*
X140007629Y-113557321D01*
X140146608Y-113631608D01*
X140268422Y-113731578D01*
X140368392Y-113853392D01*
X140442679Y-113992371D01*
X140442679Y-113992372D01*
X140488424Y-114143173D01*
X140503870Y-114300000D01*
X140488424Y-114456827D01*
X140485450Y-114466630D01*
X140442679Y-114607629D01*
X140368392Y-114746608D01*
X140268422Y-114868422D01*
X140146608Y-114968392D01*
X140007629Y-115042679D01*
X139932228Y-115065551D01*
X139856827Y-115088424D01*
X139817649Y-115092283D01*
X139739295Y-115100000D01*
X139660705Y-115100000D01*
X139582351Y-115092283D01*
X139543173Y-115088424D01*
X139467772Y-115065551D01*
X139392371Y-115042679D01*
X139253392Y-114968392D01*
X139131578Y-114868422D01*
X139031608Y-114746608D01*
X138957321Y-114607629D01*
X138914550Y-114466630D01*
X138911576Y-114456827D01*
X138896130Y-114300000D01*
X138911576Y-114143173D01*
X138957321Y-113992372D01*
X138957321Y-113992371D01*
X139031608Y-113853392D01*
X139131578Y-113731578D01*
X139253392Y-113631608D01*
X139392371Y-113557321D01*
X139467773Y-113534448D01*
X139543173Y-113511576D01*
X139582351Y-113507717D01*
X139660705Y-113500000D01*
X139739295Y-113500000D01*
X139817649Y-113507717D01*
X139817649Y-113507717D01*
G37*
G36*
X137277649Y-113507717D02*
X137316827Y-113511576D01*
X137392227Y-113534448D01*
X137467629Y-113557321D01*
X137606608Y-113631608D01*
X137728422Y-113731578D01*
X137828392Y-113853392D01*
X137902679Y-113992371D01*
X137902679Y-113992372D01*
X137948424Y-114143173D01*
X137963870Y-114300000D01*
X137948424Y-114456827D01*
X137945450Y-114466630D01*
X137902679Y-114607629D01*
X137828392Y-114746608D01*
X137728422Y-114868422D01*
X137606608Y-114968392D01*
X137467629Y-115042679D01*
X137392228Y-115065551D01*
X137316827Y-115088424D01*
X137277649Y-115092283D01*
X137199295Y-115100000D01*
X137120705Y-115100000D01*
X137042351Y-115092283D01*
X137003173Y-115088424D01*
X136927772Y-115065551D01*
X136852371Y-115042679D01*
X136713392Y-114968392D01*
X136591578Y-114868422D01*
X136491608Y-114746608D01*
X136417321Y-114607629D01*
X136374550Y-114466630D01*
X136371576Y-114456827D01*
X136356130Y-114300000D01*
X136371576Y-114143173D01*
X136417321Y-113992372D01*
X136417321Y-113992371D01*
X136491608Y-113853392D01*
X136591578Y-113731578D01*
X136713392Y-113631608D01*
X136852371Y-113557321D01*
X136927773Y-113534448D01*
X137003173Y-113511576D01*
X137042351Y-113507717D01*
X137120705Y-113500000D01*
X137199295Y-113500000D01*
X137277649Y-113507717D01*
X137277649Y-113507717D01*
G37*
G36*
X142357649Y-113507717D02*
X142396827Y-113511576D01*
X142472227Y-113534448D01*
X142547629Y-113557321D01*
X142686608Y-113631608D01*
X142808422Y-113731578D01*
X142908392Y-113853392D01*
X142982679Y-113992371D01*
X142982679Y-113992372D01*
X143028424Y-114143173D01*
X143043870Y-114300000D01*
X143028424Y-114456827D01*
X143025450Y-114466630D01*
X142982679Y-114607629D01*
X142908392Y-114746608D01*
X142808422Y-114868422D01*
X142686608Y-114968392D01*
X142547629Y-115042679D01*
X142472228Y-115065551D01*
X142396827Y-115088424D01*
X142357649Y-115092283D01*
X142279295Y-115100000D01*
X142200705Y-115100000D01*
X142122351Y-115092283D01*
X142083173Y-115088424D01*
X142007772Y-115065551D01*
X141932371Y-115042679D01*
X141793392Y-114968392D01*
X141671578Y-114868422D01*
X141571608Y-114746608D01*
X141497321Y-114607629D01*
X141454550Y-114466630D01*
X141451576Y-114456827D01*
X141436130Y-114300000D01*
X141451576Y-114143173D01*
X141497321Y-113992372D01*
X141497321Y-113992371D01*
X141571608Y-113853392D01*
X141671578Y-113731578D01*
X141793392Y-113631608D01*
X141932371Y-113557321D01*
X142007773Y-113534448D01*
X142083173Y-113511576D01*
X142122351Y-113507717D01*
X142200705Y-113500000D01*
X142279295Y-113500000D01*
X142357649Y-113507717D01*
X142357649Y-113507717D01*
G37*
G36*
X141334936Y-100535376D02*
X141334939Y-100535377D01*
X141334940Y-100535377D01*
X141570566Y-100606853D01*
X141787720Y-100722924D01*
X141978057Y-100879130D01*
X142134263Y-101069467D01*
X142250334Y-101286622D01*
X142321810Y-101522248D01*
X142321811Y-101522252D01*
X142339897Y-101705882D01*
X142339897Y-102328699D01*
X142321811Y-102512329D01*
X142321810Y-102512332D01*
X142321810Y-102512333D01*
X142250334Y-102747959D01*
X142134263Y-102965113D01*
X141978057Y-103155450D01*
X141787719Y-103311656D01*
X141570565Y-103427727D01*
X141334939Y-103499203D01*
X141334938Y-103499203D01*
X141334935Y-103499204D01*
X141089897Y-103523338D01*
X140844858Y-103499204D01*
X140844855Y-103499203D01*
X140844854Y-103499203D01*
X140609228Y-103427727D01*
X140392074Y-103311656D01*
X140201737Y-103155450D01*
X140045531Y-102965112D01*
X139929460Y-102747958D01*
X139857984Y-102512332D01*
X139857984Y-102512331D01*
X139857983Y-102512328D01*
X139839897Y-102328698D01*
X139839897Y-101705881D01*
X139857983Y-101522251D01*
X139929461Y-101286619D01*
X140045532Y-101069466D01*
X140201738Y-100879130D01*
X140392074Y-100722925D01*
X140392073Y-100722925D01*
X140392075Y-100722924D01*
X140609229Y-100606853D01*
X140844855Y-100535377D01*
X140844856Y-100535377D01*
X140844859Y-100535376D01*
X141089897Y-100511242D01*
X141334936Y-100535376D01*
X141334936Y-100535376D01*
G37*
G36*
X110334936Y-100535376D02*
X110334939Y-100535377D01*
X110334940Y-100535377D01*
X110570566Y-100606853D01*
X110787720Y-100722924D01*
X110978057Y-100879130D01*
X111134263Y-101069467D01*
X111250334Y-101286622D01*
X111321810Y-101522248D01*
X111321811Y-101522252D01*
X111339897Y-101705882D01*
X111339897Y-102328699D01*
X111321811Y-102512329D01*
X111321810Y-102512332D01*
X111321810Y-102512333D01*
X111250334Y-102747959D01*
X111134263Y-102965113D01*
X110978057Y-103155450D01*
X110787719Y-103311656D01*
X110570565Y-103427727D01*
X110334939Y-103499203D01*
X110334938Y-103499203D01*
X110334935Y-103499204D01*
X110089897Y-103523338D01*
X109844858Y-103499204D01*
X109844855Y-103499203D01*
X109844854Y-103499203D01*
X109609228Y-103427727D01*
X109392074Y-103311656D01*
X109201737Y-103155450D01*
X109045531Y-102965112D01*
X108929460Y-102747958D01*
X108857984Y-102512332D01*
X108857984Y-102512331D01*
X108857983Y-102512328D01*
X108839897Y-102328698D01*
X108839897Y-101705881D01*
X108857983Y-101522251D01*
X108929461Y-101286619D01*
X109045532Y-101069466D01*
X109201738Y-100879130D01*
X109392074Y-100722925D01*
X109392073Y-100722925D01*
X109392075Y-100722924D01*
X109609229Y-100606853D01*
X109844855Y-100535377D01*
X109844856Y-100535377D01*
X109844859Y-100535376D01*
X110089897Y-100511242D01*
X110334936Y-100535376D01*
X110334936Y-100535376D01*
G37*
G36*
X115334936Y-100535376D02*
X115334939Y-100535377D01*
X115334940Y-100535377D01*
X115570566Y-100606853D01*
X115787720Y-100722924D01*
X115978057Y-100879130D01*
X116134263Y-101069467D01*
X116250334Y-101286622D01*
X116321810Y-101522248D01*
X116321811Y-101522252D01*
X116339897Y-101705882D01*
X116339897Y-102328699D01*
X116321811Y-102512329D01*
X116321810Y-102512332D01*
X116321810Y-102512333D01*
X116250334Y-102747959D01*
X116134263Y-102965113D01*
X115978057Y-103155450D01*
X115787719Y-103311656D01*
X115570565Y-103427727D01*
X115334939Y-103499203D01*
X115334938Y-103499203D01*
X115334935Y-103499204D01*
X115089897Y-103523338D01*
X114844858Y-103499204D01*
X114844855Y-103499203D01*
X114844854Y-103499203D01*
X114609228Y-103427727D01*
X114392074Y-103311656D01*
X114201737Y-103155450D01*
X114045531Y-102965112D01*
X113929460Y-102747958D01*
X113857984Y-102512332D01*
X113857984Y-102512331D01*
X113857983Y-102512328D01*
X113839897Y-102328698D01*
X113839897Y-101705881D01*
X113857983Y-101522251D01*
X113929461Y-101286619D01*
X114045532Y-101069466D01*
X114201738Y-100879130D01*
X114392074Y-100722925D01*
X114392073Y-100722925D01*
X114392075Y-100722924D01*
X114609229Y-100606853D01*
X114844855Y-100535377D01*
X114844856Y-100535377D01*
X114844859Y-100535376D01*
X115089897Y-100511242D01*
X115334936Y-100535376D01*
X115334936Y-100535376D01*
G37*
G36*
X159334936Y-100535376D02*
X159334939Y-100535377D01*
X159334940Y-100535377D01*
X159570566Y-100606853D01*
X159787720Y-100722924D01*
X159978057Y-100879130D01*
X160134263Y-101069467D01*
X160250334Y-101286622D01*
X160321810Y-101522248D01*
X160321811Y-101522252D01*
X160339897Y-101705882D01*
X160339897Y-102328699D01*
X160321811Y-102512329D01*
X160321810Y-102512332D01*
X160321810Y-102512333D01*
X160250334Y-102747959D01*
X160134263Y-102965113D01*
X159978057Y-103155450D01*
X159787719Y-103311656D01*
X159570565Y-103427727D01*
X159334939Y-103499203D01*
X159334938Y-103499203D01*
X159334935Y-103499204D01*
X159089897Y-103523338D01*
X158844858Y-103499204D01*
X158844855Y-103499203D01*
X158844854Y-103499203D01*
X158609228Y-103427727D01*
X158392074Y-103311656D01*
X158201737Y-103155450D01*
X158045531Y-102965112D01*
X157929460Y-102747958D01*
X157857984Y-102512332D01*
X157857984Y-102512331D01*
X157857983Y-102512328D01*
X157839897Y-102328698D01*
X157839897Y-101705881D01*
X157857983Y-101522251D01*
X157929461Y-101286619D01*
X158045532Y-101069466D01*
X158201738Y-100879130D01*
X158392074Y-100722925D01*
X158392073Y-100722925D01*
X158392075Y-100722924D01*
X158609229Y-100606853D01*
X158844855Y-100535377D01*
X158844856Y-100535377D01*
X158844859Y-100535376D01*
X159089897Y-100511242D01*
X159334936Y-100535376D01*
X159334936Y-100535376D01*
G37*
G36*
X172334936Y-100535376D02*
X172334939Y-100535377D01*
X172334940Y-100535377D01*
X172570566Y-100606853D01*
X172787720Y-100722924D01*
X172978057Y-100879130D01*
X173134263Y-101069467D01*
X173250334Y-101286622D01*
X173321810Y-101522248D01*
X173321811Y-101522252D01*
X173339897Y-101705882D01*
X173339897Y-102328699D01*
X173321811Y-102512329D01*
X173321810Y-102512332D01*
X173321810Y-102512333D01*
X173250334Y-102747959D01*
X173134263Y-102965113D01*
X172978057Y-103155450D01*
X172787719Y-103311656D01*
X172570565Y-103427727D01*
X172334939Y-103499203D01*
X172334938Y-103499203D01*
X172334935Y-103499204D01*
X172089897Y-103523338D01*
X171844858Y-103499204D01*
X171844855Y-103499203D01*
X171844854Y-103499203D01*
X171609228Y-103427727D01*
X171392074Y-103311656D01*
X171201737Y-103155450D01*
X171045531Y-102965112D01*
X170929460Y-102747958D01*
X170857984Y-102512332D01*
X170857984Y-102512331D01*
X170857983Y-102512328D01*
X170839897Y-102328698D01*
X170839897Y-101705881D01*
X170857983Y-101522251D01*
X170929461Y-101286619D01*
X171045532Y-101069466D01*
X171201738Y-100879130D01*
X171392074Y-100722925D01*
X171392073Y-100722925D01*
X171392075Y-100722924D01*
X171609229Y-100606853D01*
X171844855Y-100535377D01*
X171844856Y-100535377D01*
X171844859Y-100535376D01*
X172089897Y-100511242D01*
X172334936Y-100535376D01*
X172334936Y-100535376D01*
G37*
G36*
X185334936Y-100535376D02*
X185334939Y-100535377D01*
X185334940Y-100535377D01*
X185570566Y-100606853D01*
X185787720Y-100722924D01*
X185978057Y-100879130D01*
X186134263Y-101069467D01*
X186250334Y-101286622D01*
X186321810Y-101522248D01*
X186321811Y-101522252D01*
X186339897Y-101705882D01*
X186339897Y-102328699D01*
X186321811Y-102512329D01*
X186321810Y-102512332D01*
X186321810Y-102512333D01*
X186250334Y-102747959D01*
X186134263Y-102965113D01*
X185978057Y-103155450D01*
X185787719Y-103311656D01*
X185570565Y-103427727D01*
X185334939Y-103499203D01*
X185334938Y-103499203D01*
X185334935Y-103499204D01*
X185089897Y-103523338D01*
X184844858Y-103499204D01*
X184844855Y-103499203D01*
X184844854Y-103499203D01*
X184609228Y-103427727D01*
X184392074Y-103311656D01*
X184201737Y-103155450D01*
X184045531Y-102965112D01*
X183929460Y-102747958D01*
X183857984Y-102512332D01*
X183857984Y-102512331D01*
X183857983Y-102512328D01*
X183839897Y-102328698D01*
X183839897Y-101705881D01*
X183857983Y-101522251D01*
X183929461Y-101286619D01*
X184045532Y-101069466D01*
X184201738Y-100879130D01*
X184392074Y-100722925D01*
X184392073Y-100722925D01*
X184392075Y-100722924D01*
X184609229Y-100606853D01*
X184844855Y-100535377D01*
X184844856Y-100535377D01*
X184844859Y-100535376D01*
X185089897Y-100511242D01*
X185334936Y-100535376D01*
X185334936Y-100535376D01*
G37*
G36*
X190334936Y-100535376D02*
X190334939Y-100535377D01*
X190334940Y-100535377D01*
X190570566Y-100606853D01*
X190787720Y-100722924D01*
X190978057Y-100879130D01*
X191134263Y-101069467D01*
X191250334Y-101286622D01*
X191321810Y-101522248D01*
X191321811Y-101522252D01*
X191339897Y-101705882D01*
X191339897Y-102328699D01*
X191321811Y-102512329D01*
X191321810Y-102512332D01*
X191321810Y-102512333D01*
X191250334Y-102747959D01*
X191134263Y-102965113D01*
X190978057Y-103155450D01*
X190787719Y-103311656D01*
X190570565Y-103427727D01*
X190334939Y-103499203D01*
X190334938Y-103499203D01*
X190334935Y-103499204D01*
X190089897Y-103523338D01*
X189844858Y-103499204D01*
X189844855Y-103499203D01*
X189844854Y-103499203D01*
X189609228Y-103427727D01*
X189392074Y-103311656D01*
X189201737Y-103155450D01*
X189045531Y-102965112D01*
X188929460Y-102747958D01*
X188857984Y-102512332D01*
X188857984Y-102512331D01*
X188857983Y-102512328D01*
X188839897Y-102328698D01*
X188839897Y-101705881D01*
X188857983Y-101522251D01*
X188929461Y-101286619D01*
X189045532Y-101069466D01*
X189201738Y-100879130D01*
X189392074Y-100722925D01*
X189392073Y-100722925D01*
X189392075Y-100722924D01*
X189609229Y-100606853D01*
X189844855Y-100535377D01*
X189844856Y-100535377D01*
X189844859Y-100535376D01*
X190089897Y-100511242D01*
X190334936Y-100535376D01*
X190334936Y-100535376D01*
G37*
G36*
X177334936Y-100535376D02*
X177334939Y-100535377D01*
X177334940Y-100535377D01*
X177570566Y-100606853D01*
X177787720Y-100722924D01*
X177978057Y-100879130D01*
X178134263Y-101069467D01*
X178250334Y-101286622D01*
X178321810Y-101522248D01*
X178321811Y-101522252D01*
X178339897Y-101705882D01*
X178339897Y-102328699D01*
X178321811Y-102512329D01*
X178321810Y-102512332D01*
X178321810Y-102512333D01*
X178250334Y-102747959D01*
X178134263Y-102965113D01*
X177978057Y-103155450D01*
X177787719Y-103311656D01*
X177570565Y-103427727D01*
X177334939Y-103499203D01*
X177334938Y-103499203D01*
X177334935Y-103499204D01*
X177089897Y-103523338D01*
X176844858Y-103499204D01*
X176844855Y-103499203D01*
X176844854Y-103499203D01*
X176609228Y-103427727D01*
X176392074Y-103311656D01*
X176201737Y-103155450D01*
X176045531Y-102965112D01*
X175929460Y-102747958D01*
X175857984Y-102512332D01*
X175857984Y-102512331D01*
X175857983Y-102512328D01*
X175839897Y-102328698D01*
X175839897Y-101705881D01*
X175857983Y-101522251D01*
X175929461Y-101286619D01*
X176045532Y-101069466D01*
X176201738Y-100879130D01*
X176392074Y-100722925D01*
X176392073Y-100722925D01*
X176392075Y-100722924D01*
X176609229Y-100606853D01*
X176844855Y-100535377D01*
X176844856Y-100535377D01*
X176844859Y-100535376D01*
X177089897Y-100511242D01*
X177334936Y-100535376D01*
X177334936Y-100535376D01*
G37*
G36*
X123334936Y-100535376D02*
X123334939Y-100535377D01*
X123334940Y-100535377D01*
X123570566Y-100606853D01*
X123787720Y-100722924D01*
X123978057Y-100879130D01*
X124134263Y-101069467D01*
X124250334Y-101286622D01*
X124321810Y-101522248D01*
X124321811Y-101522252D01*
X124339897Y-101705882D01*
X124339897Y-102328699D01*
X124321811Y-102512329D01*
X124321810Y-102512332D01*
X124321810Y-102512333D01*
X124250334Y-102747959D01*
X124134263Y-102965113D01*
X123978057Y-103155450D01*
X123787719Y-103311656D01*
X123570565Y-103427727D01*
X123334939Y-103499203D01*
X123334938Y-103499203D01*
X123334935Y-103499204D01*
X123089897Y-103523338D01*
X122844858Y-103499204D01*
X122844855Y-103499203D01*
X122844854Y-103499203D01*
X122609228Y-103427727D01*
X122392074Y-103311656D01*
X122201737Y-103155450D01*
X122045531Y-102965112D01*
X121929460Y-102747958D01*
X121857984Y-102512332D01*
X121857984Y-102512331D01*
X121857983Y-102512328D01*
X121839897Y-102328698D01*
X121839897Y-101705881D01*
X121857983Y-101522251D01*
X121929461Y-101286619D01*
X122045532Y-101069466D01*
X122201738Y-100879130D01*
X122392074Y-100722925D01*
X122392073Y-100722925D01*
X122392075Y-100722924D01*
X122609229Y-100606853D01*
X122844855Y-100535377D01*
X122844856Y-100535377D01*
X122844859Y-100535376D01*
X123089897Y-100511242D01*
X123334936Y-100535376D01*
X123334936Y-100535376D01*
G37*
G36*
X128334936Y-100535376D02*
X128334939Y-100535377D01*
X128334940Y-100535377D01*
X128570566Y-100606853D01*
X128787720Y-100722924D01*
X128978057Y-100879130D01*
X129134263Y-101069467D01*
X129250334Y-101286622D01*
X129321810Y-101522248D01*
X129321811Y-101522252D01*
X129339897Y-101705882D01*
X129339897Y-102328699D01*
X129321811Y-102512329D01*
X129321810Y-102512332D01*
X129321810Y-102512333D01*
X129250334Y-102747959D01*
X129134263Y-102965113D01*
X128978057Y-103155450D01*
X128787719Y-103311656D01*
X128570565Y-103427727D01*
X128334939Y-103499203D01*
X128334938Y-103499203D01*
X128334935Y-103499204D01*
X128089897Y-103523338D01*
X127844858Y-103499204D01*
X127844855Y-103499203D01*
X127844854Y-103499203D01*
X127609228Y-103427727D01*
X127392074Y-103311656D01*
X127201737Y-103155450D01*
X127045531Y-102965112D01*
X126929460Y-102747958D01*
X126857984Y-102512332D01*
X126857984Y-102512331D01*
X126857983Y-102512328D01*
X126839897Y-102328698D01*
X126839897Y-101705881D01*
X126857983Y-101522251D01*
X126929461Y-101286619D01*
X127045532Y-101069466D01*
X127201738Y-100879130D01*
X127392074Y-100722925D01*
X127392073Y-100722925D01*
X127392075Y-100722924D01*
X127609229Y-100606853D01*
X127844855Y-100535377D01*
X127844856Y-100535377D01*
X127844859Y-100535376D01*
X128089897Y-100511242D01*
X128334936Y-100535376D01*
X128334936Y-100535376D01*
G37*
G36*
X136334936Y-100535376D02*
X136334939Y-100535377D01*
X136334940Y-100535377D01*
X136570566Y-100606853D01*
X136787720Y-100722924D01*
X136978057Y-100879130D01*
X137134263Y-101069467D01*
X137250334Y-101286622D01*
X137321810Y-101522248D01*
X137321811Y-101522252D01*
X137339897Y-101705882D01*
X137339897Y-102328699D01*
X137321811Y-102512329D01*
X137321810Y-102512332D01*
X137321810Y-102512333D01*
X137250334Y-102747959D01*
X137134263Y-102965113D01*
X136978057Y-103155450D01*
X136787719Y-103311656D01*
X136570565Y-103427727D01*
X136334939Y-103499203D01*
X136334938Y-103499203D01*
X136334935Y-103499204D01*
X136089897Y-103523338D01*
X135844858Y-103499204D01*
X135844855Y-103499203D01*
X135844854Y-103499203D01*
X135609228Y-103427727D01*
X135392074Y-103311656D01*
X135201737Y-103155450D01*
X135045531Y-102965112D01*
X134929460Y-102747958D01*
X134857984Y-102512332D01*
X134857984Y-102512331D01*
X134857983Y-102512328D01*
X134839897Y-102328698D01*
X134839897Y-101705881D01*
X134857983Y-101522251D01*
X134929461Y-101286619D01*
X135045532Y-101069466D01*
X135201738Y-100879130D01*
X135392074Y-100722925D01*
X135392073Y-100722925D01*
X135392075Y-100722924D01*
X135609229Y-100606853D01*
X135844855Y-100535377D01*
X135844856Y-100535377D01*
X135844859Y-100535376D01*
X136089897Y-100511242D01*
X136334936Y-100535376D01*
X136334936Y-100535376D01*
G37*
G36*
X164334936Y-100535376D02*
X164334939Y-100535377D01*
X164334940Y-100535377D01*
X164570566Y-100606853D01*
X164787720Y-100722924D01*
X164978057Y-100879130D01*
X165134263Y-101069467D01*
X165250334Y-101286622D01*
X165321810Y-101522248D01*
X165321811Y-101522252D01*
X165339897Y-101705882D01*
X165339897Y-102328699D01*
X165321811Y-102512329D01*
X165321810Y-102512332D01*
X165321810Y-102512333D01*
X165250334Y-102747959D01*
X165134263Y-102965113D01*
X164978057Y-103155450D01*
X164787719Y-103311656D01*
X164570565Y-103427727D01*
X164334939Y-103499203D01*
X164334938Y-103499203D01*
X164334935Y-103499204D01*
X164089897Y-103523338D01*
X163844858Y-103499204D01*
X163844855Y-103499203D01*
X163844854Y-103499203D01*
X163609228Y-103427727D01*
X163392074Y-103311656D01*
X163201737Y-103155450D01*
X163045531Y-102965112D01*
X162929460Y-102747958D01*
X162857984Y-102512332D01*
X162857984Y-102512331D01*
X162857983Y-102512328D01*
X162839897Y-102328698D01*
X162839897Y-101705881D01*
X162857983Y-101522251D01*
X162929461Y-101286619D01*
X163045532Y-101069466D01*
X163201738Y-100879130D01*
X163392074Y-100722925D01*
X163392073Y-100722925D01*
X163392075Y-100722924D01*
X163609229Y-100606853D01*
X163844855Y-100535377D01*
X163844856Y-100535377D01*
X163844859Y-100535376D01*
X164089897Y-100511242D01*
X164334936Y-100535376D01*
X164334936Y-100535376D01*
G37*
G36*
X150466703Y-99252577D02*
X150757883Y-99373188D01*
X151019944Y-99548292D01*
X151242799Y-99771147D01*
X151417903Y-100033208D01*
X151538514Y-100324388D01*
X151600000Y-100633503D01*
X151600000Y-100948679D01*
X151538514Y-101257794D01*
X151417903Y-101548974D01*
X151242799Y-101811035D01*
X151019944Y-102033890D01*
X150757883Y-102208994D01*
X150466703Y-102329605D01*
X150157588Y-102391091D01*
X149842412Y-102391091D01*
X149533297Y-102329605D01*
X149242117Y-102208994D01*
X148980056Y-102033890D01*
X148757201Y-101811035D01*
X148582097Y-101548974D01*
X148461486Y-101257794D01*
X148400000Y-100948679D01*
X148400000Y-100633503D01*
X148461486Y-100324388D01*
X148582097Y-100033208D01*
X148757201Y-99771147D01*
X148980056Y-99548292D01*
X149242117Y-99373188D01*
X149533297Y-99252577D01*
X149842412Y-99191091D01*
X150157588Y-99191091D01*
X150466703Y-99252577D01*
X150466703Y-99252577D01*
G37*
G36*
X159334936Y-88035376D02*
X159334939Y-88035377D01*
X159334940Y-88035377D01*
X159570566Y-88106853D01*
X159787720Y-88222924D01*
X159978057Y-88379130D01*
X160134263Y-88569467D01*
X160250334Y-88786622D01*
X160321810Y-89022248D01*
X160321811Y-89022252D01*
X160339897Y-89205882D01*
X160339897Y-89828699D01*
X160321811Y-90012329D01*
X160321810Y-90012332D01*
X160321810Y-90012333D01*
X160250334Y-90247959D01*
X160134263Y-90465113D01*
X159978057Y-90655450D01*
X159787719Y-90811656D01*
X159570565Y-90927727D01*
X159334939Y-90999203D01*
X159334938Y-90999203D01*
X159334935Y-90999204D01*
X159089897Y-91023338D01*
X158844858Y-90999204D01*
X158844855Y-90999203D01*
X158844854Y-90999203D01*
X158609228Y-90927727D01*
X158392074Y-90811656D01*
X158201737Y-90655450D01*
X158045531Y-90465112D01*
X157929460Y-90247958D01*
X157857984Y-90012332D01*
X157857984Y-90012331D01*
X157857983Y-90012328D01*
X157839897Y-89828698D01*
X157839897Y-89205881D01*
X157857983Y-89022251D01*
X157929461Y-88786619D01*
X158045532Y-88569466D01*
X158201738Y-88379130D01*
X158392074Y-88222925D01*
X158392073Y-88222925D01*
X158392075Y-88222924D01*
X158609229Y-88106853D01*
X158844855Y-88035377D01*
X158844856Y-88035377D01*
X158844859Y-88035376D01*
X159089897Y-88011242D01*
X159334936Y-88035376D01*
X159334936Y-88035376D01*
G37*
G36*
X115334936Y-88035376D02*
X115334939Y-88035377D01*
X115334940Y-88035377D01*
X115570566Y-88106853D01*
X115787720Y-88222924D01*
X115978057Y-88379130D01*
X116134263Y-88569467D01*
X116250334Y-88786622D01*
X116321810Y-89022248D01*
X116321811Y-89022252D01*
X116339897Y-89205882D01*
X116339897Y-89828699D01*
X116321811Y-90012329D01*
X116321810Y-90012332D01*
X116321810Y-90012333D01*
X116250334Y-90247959D01*
X116134263Y-90465113D01*
X115978057Y-90655450D01*
X115787719Y-90811656D01*
X115570565Y-90927727D01*
X115334939Y-90999203D01*
X115334938Y-90999203D01*
X115334935Y-90999204D01*
X115089897Y-91023338D01*
X114844858Y-90999204D01*
X114844855Y-90999203D01*
X114844854Y-90999203D01*
X114609228Y-90927727D01*
X114392074Y-90811656D01*
X114201737Y-90655450D01*
X114045531Y-90465112D01*
X113929460Y-90247958D01*
X113857984Y-90012332D01*
X113857984Y-90012331D01*
X113857983Y-90012328D01*
X113839897Y-89828698D01*
X113839897Y-89205881D01*
X113857983Y-89022251D01*
X113929461Y-88786619D01*
X114045532Y-88569466D01*
X114201738Y-88379130D01*
X114392074Y-88222925D01*
X114392073Y-88222925D01*
X114392075Y-88222924D01*
X114609229Y-88106853D01*
X114844855Y-88035377D01*
X114844856Y-88035377D01*
X114844859Y-88035376D01*
X115089897Y-88011242D01*
X115334936Y-88035376D01*
X115334936Y-88035376D01*
G37*
G36*
X128334936Y-88035376D02*
X128334939Y-88035377D01*
X128334940Y-88035377D01*
X128570566Y-88106853D01*
X128787720Y-88222924D01*
X128978057Y-88379130D01*
X129134263Y-88569467D01*
X129250334Y-88786622D01*
X129321810Y-89022248D01*
X129321811Y-89022252D01*
X129339897Y-89205882D01*
X129339897Y-89828699D01*
X129321811Y-90012329D01*
X129321810Y-90012332D01*
X129321810Y-90012333D01*
X129250334Y-90247959D01*
X129134263Y-90465113D01*
X128978057Y-90655450D01*
X128787719Y-90811656D01*
X128570565Y-90927727D01*
X128334939Y-90999203D01*
X128334938Y-90999203D01*
X128334935Y-90999204D01*
X128089897Y-91023338D01*
X127844858Y-90999204D01*
X127844855Y-90999203D01*
X127844854Y-90999203D01*
X127609228Y-90927727D01*
X127392074Y-90811656D01*
X127201737Y-90655450D01*
X127045531Y-90465112D01*
X126929460Y-90247958D01*
X126857984Y-90012332D01*
X126857984Y-90012331D01*
X126857983Y-90012328D01*
X126839897Y-89828698D01*
X126839897Y-89205881D01*
X126857983Y-89022251D01*
X126929461Y-88786619D01*
X127045532Y-88569466D01*
X127201738Y-88379130D01*
X127392074Y-88222925D01*
X127392073Y-88222925D01*
X127392075Y-88222924D01*
X127609229Y-88106853D01*
X127844855Y-88035377D01*
X127844856Y-88035377D01*
X127844859Y-88035376D01*
X128089897Y-88011242D01*
X128334936Y-88035376D01*
X128334936Y-88035376D01*
G37*
G36*
X136334936Y-88035376D02*
X136334939Y-88035377D01*
X136334940Y-88035377D01*
X136570566Y-88106853D01*
X136787720Y-88222924D01*
X136978057Y-88379130D01*
X137134263Y-88569467D01*
X137250334Y-88786622D01*
X137321810Y-89022248D01*
X137321811Y-89022252D01*
X137339897Y-89205882D01*
X137339897Y-89828699D01*
X137321811Y-90012329D01*
X137321810Y-90012332D01*
X137321810Y-90012333D01*
X137250334Y-90247959D01*
X137134263Y-90465113D01*
X136978057Y-90655450D01*
X136787719Y-90811656D01*
X136570565Y-90927727D01*
X136334939Y-90999203D01*
X136334938Y-90999203D01*
X136334935Y-90999204D01*
X136089897Y-91023338D01*
X135844858Y-90999204D01*
X135844855Y-90999203D01*
X135844854Y-90999203D01*
X135609228Y-90927727D01*
X135392074Y-90811656D01*
X135201737Y-90655450D01*
X135045531Y-90465112D01*
X134929460Y-90247958D01*
X134857984Y-90012332D01*
X134857984Y-90012331D01*
X134857983Y-90012328D01*
X134839897Y-89828698D01*
X134839897Y-89205881D01*
X134857983Y-89022251D01*
X134929461Y-88786619D01*
X135045532Y-88569466D01*
X135201738Y-88379130D01*
X135392074Y-88222925D01*
X135392073Y-88222925D01*
X135392075Y-88222924D01*
X135609229Y-88106853D01*
X135844855Y-88035377D01*
X135844856Y-88035377D01*
X135844859Y-88035376D01*
X136089897Y-88011242D01*
X136334936Y-88035376D01*
X136334936Y-88035376D01*
G37*
G36*
X141334936Y-88035376D02*
X141334939Y-88035377D01*
X141334940Y-88035377D01*
X141570566Y-88106853D01*
X141787720Y-88222924D01*
X141978057Y-88379130D01*
X142134263Y-88569467D01*
X142250334Y-88786622D01*
X142321810Y-89022248D01*
X142321811Y-89022252D01*
X142339897Y-89205882D01*
X142339897Y-89828699D01*
X142321811Y-90012329D01*
X142321810Y-90012332D01*
X142321810Y-90012333D01*
X142250334Y-90247959D01*
X142134263Y-90465113D01*
X141978057Y-90655450D01*
X141787719Y-90811656D01*
X141570565Y-90927727D01*
X141334939Y-90999203D01*
X141334938Y-90999203D01*
X141334935Y-90999204D01*
X141089897Y-91023338D01*
X140844858Y-90999204D01*
X140844855Y-90999203D01*
X140844854Y-90999203D01*
X140609228Y-90927727D01*
X140392074Y-90811656D01*
X140201737Y-90655450D01*
X140045531Y-90465112D01*
X139929460Y-90247958D01*
X139857984Y-90012332D01*
X139857984Y-90012331D01*
X139857983Y-90012328D01*
X139839897Y-89828698D01*
X139839897Y-89205881D01*
X139857983Y-89022251D01*
X139929461Y-88786619D01*
X140045532Y-88569466D01*
X140201738Y-88379130D01*
X140392074Y-88222925D01*
X140392073Y-88222925D01*
X140392075Y-88222924D01*
X140609229Y-88106853D01*
X140844855Y-88035377D01*
X140844856Y-88035377D01*
X140844859Y-88035376D01*
X141089897Y-88011242D01*
X141334936Y-88035376D01*
X141334936Y-88035376D01*
G37*
G36*
X190334936Y-88035376D02*
X190334939Y-88035377D01*
X190334940Y-88035377D01*
X190570566Y-88106853D01*
X190787720Y-88222924D01*
X190978057Y-88379130D01*
X191134263Y-88569467D01*
X191250334Y-88786622D01*
X191321810Y-89022248D01*
X191321811Y-89022252D01*
X191339897Y-89205882D01*
X191339897Y-89828699D01*
X191321811Y-90012329D01*
X191321810Y-90012332D01*
X191321810Y-90012333D01*
X191250334Y-90247959D01*
X191134263Y-90465113D01*
X190978057Y-90655450D01*
X190787719Y-90811656D01*
X190570565Y-90927727D01*
X190334939Y-90999203D01*
X190334938Y-90999203D01*
X190334935Y-90999204D01*
X190089897Y-91023338D01*
X189844858Y-90999204D01*
X189844855Y-90999203D01*
X189844854Y-90999203D01*
X189609228Y-90927727D01*
X189392074Y-90811656D01*
X189201737Y-90655450D01*
X189045531Y-90465112D01*
X188929460Y-90247958D01*
X188857984Y-90012332D01*
X188857984Y-90012331D01*
X188857983Y-90012328D01*
X188839897Y-89828698D01*
X188839897Y-89205881D01*
X188857983Y-89022251D01*
X188929461Y-88786619D01*
X189045532Y-88569466D01*
X189201738Y-88379130D01*
X189392074Y-88222925D01*
X189392073Y-88222925D01*
X189392075Y-88222924D01*
X189609229Y-88106853D01*
X189844855Y-88035377D01*
X189844856Y-88035377D01*
X189844859Y-88035376D01*
X190089897Y-88011242D01*
X190334936Y-88035376D01*
X190334936Y-88035376D01*
G37*
G36*
X177334936Y-88035376D02*
X177334939Y-88035377D01*
X177334940Y-88035377D01*
X177570566Y-88106853D01*
X177787720Y-88222924D01*
X177978057Y-88379130D01*
X178134263Y-88569467D01*
X178250334Y-88786622D01*
X178321810Y-89022248D01*
X178321811Y-89022252D01*
X178339897Y-89205882D01*
X178339897Y-89828699D01*
X178321811Y-90012329D01*
X178321810Y-90012332D01*
X178321810Y-90012333D01*
X178250334Y-90247959D01*
X178134263Y-90465113D01*
X177978057Y-90655450D01*
X177787719Y-90811656D01*
X177570565Y-90927727D01*
X177334939Y-90999203D01*
X177334938Y-90999203D01*
X177334935Y-90999204D01*
X177089897Y-91023338D01*
X176844858Y-90999204D01*
X176844855Y-90999203D01*
X176844854Y-90999203D01*
X176609228Y-90927727D01*
X176392074Y-90811656D01*
X176201737Y-90655450D01*
X176045531Y-90465112D01*
X175929460Y-90247958D01*
X175857984Y-90012332D01*
X175857984Y-90012331D01*
X175857983Y-90012328D01*
X175839897Y-89828698D01*
X175839897Y-89205881D01*
X175857983Y-89022251D01*
X175929461Y-88786619D01*
X176045532Y-88569466D01*
X176201738Y-88379130D01*
X176392074Y-88222925D01*
X176392073Y-88222925D01*
X176392075Y-88222924D01*
X176609229Y-88106853D01*
X176844855Y-88035377D01*
X176844856Y-88035377D01*
X176844859Y-88035376D01*
X177089897Y-88011242D01*
X177334936Y-88035376D01*
X177334936Y-88035376D01*
G37*
G36*
X185334936Y-88035376D02*
X185334939Y-88035377D01*
X185334940Y-88035377D01*
X185570566Y-88106853D01*
X185787720Y-88222924D01*
X185978057Y-88379130D01*
X186134263Y-88569467D01*
X186250334Y-88786622D01*
X186321810Y-89022248D01*
X186321811Y-89022252D01*
X186339897Y-89205882D01*
X186339897Y-89828699D01*
X186321811Y-90012329D01*
X186321810Y-90012332D01*
X186321810Y-90012333D01*
X186250334Y-90247959D01*
X186134263Y-90465113D01*
X185978057Y-90655450D01*
X185787719Y-90811656D01*
X185570565Y-90927727D01*
X185334939Y-90999203D01*
X185334938Y-90999203D01*
X185334935Y-90999204D01*
X185089897Y-91023338D01*
X184844858Y-90999204D01*
X184844855Y-90999203D01*
X184844854Y-90999203D01*
X184609228Y-90927727D01*
X184392074Y-90811656D01*
X184201737Y-90655450D01*
X184045531Y-90465112D01*
X183929460Y-90247958D01*
X183857984Y-90012332D01*
X183857984Y-90012331D01*
X183857983Y-90012328D01*
X183839897Y-89828698D01*
X183839897Y-89205881D01*
X183857983Y-89022251D01*
X183929461Y-88786619D01*
X184045532Y-88569466D01*
X184201738Y-88379130D01*
X184392074Y-88222925D01*
X184392073Y-88222925D01*
X184392075Y-88222924D01*
X184609229Y-88106853D01*
X184844855Y-88035377D01*
X184844856Y-88035377D01*
X184844859Y-88035376D01*
X185089897Y-88011242D01*
X185334936Y-88035376D01*
X185334936Y-88035376D01*
G37*
G36*
X110334936Y-88035376D02*
X110334939Y-88035377D01*
X110334940Y-88035377D01*
X110570566Y-88106853D01*
X110787720Y-88222924D01*
X110978057Y-88379130D01*
X111134263Y-88569467D01*
X111250334Y-88786622D01*
X111321810Y-89022248D01*
X111321811Y-89022252D01*
X111339897Y-89205882D01*
X111339897Y-89828699D01*
X111321811Y-90012329D01*
X111321810Y-90012332D01*
X111321810Y-90012333D01*
X111250334Y-90247959D01*
X111134263Y-90465113D01*
X110978057Y-90655450D01*
X110787719Y-90811656D01*
X110570565Y-90927727D01*
X110334939Y-90999203D01*
X110334938Y-90999203D01*
X110334935Y-90999204D01*
X110089897Y-91023338D01*
X109844858Y-90999204D01*
X109844855Y-90999203D01*
X109844854Y-90999203D01*
X109609228Y-90927727D01*
X109392074Y-90811656D01*
X109201737Y-90655450D01*
X109045531Y-90465112D01*
X108929460Y-90247958D01*
X108857984Y-90012332D01*
X108857984Y-90012331D01*
X108857983Y-90012328D01*
X108839897Y-89828698D01*
X108839897Y-89205881D01*
X108857983Y-89022251D01*
X108929461Y-88786619D01*
X109045532Y-88569466D01*
X109201738Y-88379130D01*
X109392074Y-88222925D01*
X109392073Y-88222925D01*
X109392075Y-88222924D01*
X109609229Y-88106853D01*
X109844855Y-88035377D01*
X109844856Y-88035377D01*
X109844859Y-88035376D01*
X110089897Y-88011242D01*
X110334936Y-88035376D01*
X110334936Y-88035376D01*
G37*
G36*
X123334936Y-88035376D02*
X123334939Y-88035377D01*
X123334940Y-88035377D01*
X123570566Y-88106853D01*
X123787720Y-88222924D01*
X123978057Y-88379130D01*
X124134263Y-88569467D01*
X124250334Y-88786622D01*
X124321810Y-89022248D01*
X124321811Y-89022252D01*
X124339897Y-89205882D01*
X124339897Y-89828699D01*
X124321811Y-90012329D01*
X124321810Y-90012332D01*
X124321810Y-90012333D01*
X124250334Y-90247959D01*
X124134263Y-90465113D01*
X123978057Y-90655450D01*
X123787719Y-90811656D01*
X123570565Y-90927727D01*
X123334939Y-90999203D01*
X123334938Y-90999203D01*
X123334935Y-90999204D01*
X123089897Y-91023338D01*
X122844858Y-90999204D01*
X122844855Y-90999203D01*
X122844854Y-90999203D01*
X122609228Y-90927727D01*
X122392074Y-90811656D01*
X122201737Y-90655450D01*
X122045531Y-90465112D01*
X121929460Y-90247958D01*
X121857984Y-90012332D01*
X121857984Y-90012331D01*
X121857983Y-90012328D01*
X121839897Y-89828698D01*
X121839897Y-89205881D01*
X121857983Y-89022251D01*
X121929461Y-88786619D01*
X122045532Y-88569466D01*
X122201738Y-88379130D01*
X122392074Y-88222925D01*
X122392073Y-88222925D01*
X122392075Y-88222924D01*
X122609229Y-88106853D01*
X122844855Y-88035377D01*
X122844856Y-88035377D01*
X122844859Y-88035376D01*
X123089897Y-88011242D01*
X123334936Y-88035376D01*
X123334936Y-88035376D01*
G37*
G36*
X172334936Y-88035376D02*
X172334939Y-88035377D01*
X172334940Y-88035377D01*
X172570566Y-88106853D01*
X172787720Y-88222924D01*
X172978057Y-88379130D01*
X173134263Y-88569467D01*
X173250334Y-88786622D01*
X173321810Y-89022248D01*
X173321811Y-89022252D01*
X173339897Y-89205882D01*
X173339897Y-89828699D01*
X173321811Y-90012329D01*
X173321810Y-90012332D01*
X173321810Y-90012333D01*
X173250334Y-90247959D01*
X173134263Y-90465113D01*
X172978057Y-90655450D01*
X172787719Y-90811656D01*
X172570565Y-90927727D01*
X172334939Y-90999203D01*
X172334938Y-90999203D01*
X172334935Y-90999204D01*
X172089897Y-91023338D01*
X171844858Y-90999204D01*
X171844855Y-90999203D01*
X171844854Y-90999203D01*
X171609228Y-90927727D01*
X171392074Y-90811656D01*
X171201737Y-90655450D01*
X171045531Y-90465112D01*
X170929460Y-90247958D01*
X170857984Y-90012332D01*
X170857984Y-90012331D01*
X170857983Y-90012328D01*
X170839897Y-89828698D01*
X170839897Y-89205881D01*
X170857983Y-89022251D01*
X170929461Y-88786619D01*
X171045532Y-88569466D01*
X171201738Y-88379130D01*
X171392074Y-88222925D01*
X171392073Y-88222925D01*
X171392075Y-88222924D01*
X171609229Y-88106853D01*
X171844855Y-88035377D01*
X171844856Y-88035377D01*
X171844859Y-88035376D01*
X172089897Y-88011242D01*
X172334936Y-88035376D01*
X172334936Y-88035376D01*
G37*
G36*
X164334936Y-88035376D02*
X164334939Y-88035377D01*
X164334940Y-88035377D01*
X164570566Y-88106853D01*
X164787720Y-88222924D01*
X164978057Y-88379130D01*
X165134263Y-88569467D01*
X165250334Y-88786622D01*
X165321810Y-89022248D01*
X165321811Y-89022252D01*
X165339897Y-89205882D01*
X165339897Y-89828699D01*
X165321811Y-90012329D01*
X165321810Y-90012332D01*
X165321810Y-90012333D01*
X165250334Y-90247959D01*
X165134263Y-90465113D01*
X164978057Y-90655450D01*
X164787719Y-90811656D01*
X164570565Y-90927727D01*
X164334939Y-90999203D01*
X164334938Y-90999203D01*
X164334935Y-90999204D01*
X164089897Y-91023338D01*
X163844858Y-90999204D01*
X163844855Y-90999203D01*
X163844854Y-90999203D01*
X163609228Y-90927727D01*
X163392074Y-90811656D01*
X163201737Y-90655450D01*
X163045531Y-90465112D01*
X162929460Y-90247958D01*
X162857984Y-90012332D01*
X162857984Y-90012331D01*
X162857983Y-90012328D01*
X162839897Y-89828698D01*
X162839897Y-89205881D01*
X162857983Y-89022251D01*
X162929461Y-88786619D01*
X163045532Y-88569466D01*
X163201738Y-88379130D01*
X163392074Y-88222925D01*
X163392073Y-88222925D01*
X163392075Y-88222924D01*
X163609229Y-88106853D01*
X163844855Y-88035377D01*
X163844856Y-88035377D01*
X163844859Y-88035376D01*
X164089897Y-88011242D01*
X164334936Y-88035376D01*
X164334936Y-88035376D01*
G37*
G36*
X118852418Y-83651876D02*
X119016206Y-83719719D01*
X119163617Y-83818216D01*
X119288971Y-83943570D01*
X119387468Y-84090981D01*
X119455311Y-84254769D01*
X119489897Y-84428646D01*
X119489897Y-84605934D01*
X119455311Y-84779811D01*
X119387468Y-84943599D01*
X119288971Y-85091010D01*
X119163617Y-85216364D01*
X119016206Y-85314861D01*
X118852418Y-85382704D01*
X118678541Y-85417290D01*
X118501253Y-85417290D01*
X118327376Y-85382704D01*
X118163588Y-85314861D01*
X118016177Y-85216364D01*
X117890823Y-85091010D01*
X117792326Y-84943599D01*
X117724483Y-84779811D01*
X117689897Y-84605934D01*
X117689897Y-84428646D01*
X117724483Y-84254769D01*
X117792326Y-84090981D01*
X117890823Y-83943570D01*
X118016177Y-83818216D01*
X118163588Y-83719719D01*
X118327376Y-83651876D01*
X118501253Y-83617290D01*
X118678541Y-83617290D01*
X118852418Y-83651876D01*
X118852418Y-83651876D01*
G37*
G36*
X116352418Y-83651876D02*
X116516206Y-83719719D01*
X116663617Y-83818216D01*
X116788971Y-83943570D01*
X116887468Y-84090981D01*
X116955311Y-84254769D01*
X116989897Y-84428646D01*
X116989897Y-84605934D01*
X116955311Y-84779811D01*
X116887468Y-84943599D01*
X116788971Y-85091010D01*
X116663617Y-85216364D01*
X116516206Y-85314861D01*
X116352418Y-85382704D01*
X116178541Y-85417290D01*
X116001253Y-85417290D01*
X115827376Y-85382704D01*
X115663588Y-85314861D01*
X115516177Y-85216364D01*
X115390823Y-85091010D01*
X115292326Y-84943599D01*
X115224483Y-84779811D01*
X115189897Y-84605934D01*
X115189897Y-84428646D01*
X115224483Y-84254769D01*
X115292326Y-84090981D01*
X115390823Y-83943570D01*
X115516177Y-83818216D01*
X115663588Y-83719719D01*
X115827376Y-83651876D01*
X116001253Y-83617290D01*
X116178541Y-83617290D01*
X116352418Y-83651876D01*
X116352418Y-83651876D01*
G37*
G36*
X121352418Y-83651876D02*
X121516206Y-83719719D01*
X121663617Y-83818216D01*
X121788971Y-83943570D01*
X121887468Y-84090981D01*
X121955311Y-84254769D01*
X121989897Y-84428646D01*
X121989897Y-84605934D01*
X121955311Y-84779811D01*
X121887468Y-84943599D01*
X121788971Y-85091010D01*
X121663617Y-85216364D01*
X121516206Y-85314861D01*
X121352418Y-85382704D01*
X121178541Y-85417290D01*
X121001253Y-85417290D01*
X120827376Y-85382704D01*
X120663588Y-85314861D01*
X120516177Y-85216364D01*
X120390823Y-85091010D01*
X120292326Y-84943599D01*
X120224483Y-84779811D01*
X120189897Y-84605934D01*
X120189897Y-84428646D01*
X120224483Y-84254769D01*
X120292326Y-84090981D01*
X120390823Y-83943570D01*
X120516177Y-83818216D01*
X120663588Y-83719719D01*
X120827376Y-83651876D01*
X121001253Y-83617290D01*
X121178541Y-83617290D01*
X121352418Y-83651876D01*
X121352418Y-83651876D01*
G37*
G36*
X130352418Y-83651876D02*
X130516206Y-83719719D01*
X130663617Y-83818216D01*
X130788971Y-83943570D01*
X130887468Y-84090981D01*
X130955311Y-84254769D01*
X130989897Y-84428646D01*
X130989897Y-84605934D01*
X130955311Y-84779811D01*
X130887468Y-84943599D01*
X130788971Y-85091010D01*
X130663617Y-85216364D01*
X130516206Y-85314861D01*
X130352418Y-85382704D01*
X130178541Y-85417290D01*
X130001253Y-85417290D01*
X129827376Y-85382704D01*
X129663588Y-85314861D01*
X129516177Y-85216364D01*
X129390823Y-85091010D01*
X129292326Y-84943599D01*
X129224483Y-84779811D01*
X129189897Y-84605934D01*
X129189897Y-84428646D01*
X129224483Y-84254769D01*
X129292326Y-84090981D01*
X129390823Y-83943570D01*
X129516177Y-83818216D01*
X129663588Y-83719719D01*
X129827376Y-83651876D01*
X130001253Y-83617290D01*
X130178541Y-83617290D01*
X130352418Y-83651876D01*
X130352418Y-83651876D01*
G37*
G36*
X132852418Y-83651876D02*
X133016206Y-83719719D01*
X133163617Y-83818216D01*
X133288971Y-83943570D01*
X133387468Y-84090981D01*
X133455311Y-84254769D01*
X133489897Y-84428646D01*
X133489897Y-84605934D01*
X133455311Y-84779811D01*
X133387468Y-84943599D01*
X133288971Y-85091010D01*
X133163617Y-85216364D01*
X133016206Y-85314861D01*
X132852418Y-85382704D01*
X132678541Y-85417290D01*
X132501253Y-85417290D01*
X132327376Y-85382704D01*
X132163588Y-85314861D01*
X132016177Y-85216364D01*
X131890823Y-85091010D01*
X131792326Y-84943599D01*
X131724483Y-84779811D01*
X131689897Y-84605934D01*
X131689897Y-84428646D01*
X131724483Y-84254769D01*
X131792326Y-84090981D01*
X131890823Y-83943570D01*
X132016177Y-83818216D01*
X132163588Y-83719719D01*
X132327376Y-83651876D01*
X132501253Y-83617290D01*
X132678541Y-83617290D01*
X132852418Y-83651876D01*
X132852418Y-83651876D01*
G37*
G36*
X165352418Y-83651876D02*
X165516206Y-83719719D01*
X165663617Y-83818216D01*
X165788971Y-83943570D01*
X165887468Y-84090981D01*
X165955311Y-84254769D01*
X165989897Y-84428646D01*
X165989897Y-84605934D01*
X165955311Y-84779811D01*
X165887468Y-84943599D01*
X165788971Y-85091010D01*
X165663617Y-85216364D01*
X165516206Y-85314861D01*
X165352418Y-85382704D01*
X165178541Y-85417290D01*
X165001253Y-85417290D01*
X164827376Y-85382704D01*
X164663588Y-85314861D01*
X164516177Y-85216364D01*
X164390823Y-85091010D01*
X164292326Y-84943599D01*
X164224483Y-84779811D01*
X164189897Y-84605934D01*
X164189897Y-84428646D01*
X164224483Y-84254769D01*
X164292326Y-84090981D01*
X164390823Y-83943570D01*
X164516177Y-83818216D01*
X164663588Y-83719719D01*
X164827376Y-83651876D01*
X165001253Y-83617290D01*
X165178541Y-83617290D01*
X165352418Y-83651876D01*
X165352418Y-83651876D01*
G37*
G36*
X170352418Y-83651876D02*
X170516206Y-83719719D01*
X170663617Y-83818216D01*
X170788971Y-83943570D01*
X170887468Y-84090981D01*
X170955311Y-84254769D01*
X170989897Y-84428646D01*
X170989897Y-84605934D01*
X170955311Y-84779811D01*
X170887468Y-84943599D01*
X170788971Y-85091010D01*
X170663617Y-85216364D01*
X170516206Y-85314861D01*
X170352418Y-85382704D01*
X170178541Y-85417290D01*
X170001253Y-85417290D01*
X169827376Y-85382704D01*
X169663588Y-85314861D01*
X169516177Y-85216364D01*
X169390823Y-85091010D01*
X169292326Y-84943599D01*
X169224483Y-84779811D01*
X169189897Y-84605934D01*
X169189897Y-84428646D01*
X169224483Y-84254769D01*
X169292326Y-84090981D01*
X169390823Y-83943570D01*
X169516177Y-83818216D01*
X169663588Y-83719719D01*
X169827376Y-83651876D01*
X170001253Y-83617290D01*
X170178541Y-83617290D01*
X170352418Y-83651876D01*
X170352418Y-83651876D01*
G37*
G36*
X184352418Y-83651876D02*
X184516206Y-83719719D01*
X184663617Y-83818216D01*
X184788971Y-83943570D01*
X184887468Y-84090981D01*
X184955311Y-84254769D01*
X184989897Y-84428646D01*
X184989897Y-84605934D01*
X184955311Y-84779811D01*
X184887468Y-84943599D01*
X184788971Y-85091010D01*
X184663617Y-85216364D01*
X184516206Y-85314861D01*
X184352418Y-85382704D01*
X184178541Y-85417290D01*
X184001253Y-85417290D01*
X183827376Y-85382704D01*
X183663588Y-85314861D01*
X183516177Y-85216364D01*
X183390823Y-85091010D01*
X183292326Y-84943599D01*
X183224483Y-84779811D01*
X183189897Y-84605934D01*
X183189897Y-84428646D01*
X183224483Y-84254769D01*
X183292326Y-84090981D01*
X183390823Y-83943570D01*
X183516177Y-83818216D01*
X183663588Y-83719719D01*
X183827376Y-83651876D01*
X184001253Y-83617290D01*
X184178541Y-83617290D01*
X184352418Y-83651876D01*
X184352418Y-83651876D01*
G37*
G36*
X135352418Y-83651876D02*
X135516206Y-83719719D01*
X135663617Y-83818216D01*
X135788971Y-83943570D01*
X135887468Y-84090981D01*
X135955311Y-84254769D01*
X135989897Y-84428646D01*
X135989897Y-84605934D01*
X135955311Y-84779811D01*
X135887468Y-84943599D01*
X135788971Y-85091010D01*
X135663617Y-85216364D01*
X135516206Y-85314861D01*
X135352418Y-85382704D01*
X135178541Y-85417290D01*
X135001253Y-85417290D01*
X134827376Y-85382704D01*
X134663588Y-85314861D01*
X134516177Y-85216364D01*
X134390823Y-85091010D01*
X134292326Y-84943599D01*
X134224483Y-84779811D01*
X134189897Y-84605934D01*
X134189897Y-84428646D01*
X134224483Y-84254769D01*
X134292326Y-84090981D01*
X134390823Y-83943570D01*
X134516177Y-83818216D01*
X134663588Y-83719719D01*
X134827376Y-83651876D01*
X135001253Y-83617290D01*
X135178541Y-83617290D01*
X135352418Y-83651876D01*
X135352418Y-83651876D01*
G37*
G36*
X179352418Y-83651876D02*
X179516206Y-83719719D01*
X179663617Y-83818216D01*
X179788971Y-83943570D01*
X179887468Y-84090981D01*
X179955311Y-84254769D01*
X179989897Y-84428646D01*
X179989897Y-84605934D01*
X179955311Y-84779811D01*
X179887468Y-84943599D01*
X179788971Y-85091010D01*
X179663617Y-85216364D01*
X179516206Y-85314861D01*
X179352418Y-85382704D01*
X179178541Y-85417290D01*
X179001253Y-85417290D01*
X178827376Y-85382704D01*
X178663588Y-85314861D01*
X178516177Y-85216364D01*
X178390823Y-85091010D01*
X178292326Y-84943599D01*
X178224483Y-84779811D01*
X178189897Y-84605934D01*
X178189897Y-84428646D01*
X178224483Y-84254769D01*
X178292326Y-84090981D01*
X178390823Y-83943570D01*
X178516177Y-83818216D01*
X178663588Y-83719719D01*
X178827376Y-83651876D01*
X179001253Y-83617290D01*
X179178541Y-83617290D01*
X179352418Y-83651876D01*
X179352418Y-83651876D01*
G37*
G36*
X181852418Y-83651876D02*
X182016206Y-83719719D01*
X182163617Y-83818216D01*
X182288971Y-83943570D01*
X182387468Y-84090981D01*
X182455311Y-84254769D01*
X182489897Y-84428646D01*
X182489897Y-84605934D01*
X182455311Y-84779811D01*
X182387468Y-84943599D01*
X182288971Y-85091010D01*
X182163617Y-85216364D01*
X182016206Y-85314861D01*
X181852418Y-85382704D01*
X181678541Y-85417290D01*
X181501253Y-85417290D01*
X181327376Y-85382704D01*
X181163588Y-85314861D01*
X181016177Y-85216364D01*
X180890823Y-85091010D01*
X180792326Y-84943599D01*
X180724483Y-84779811D01*
X180689897Y-84605934D01*
X180689897Y-84428646D01*
X180724483Y-84254769D01*
X180792326Y-84090981D01*
X180890823Y-83943570D01*
X181016177Y-83818216D01*
X181163588Y-83719719D01*
X181327376Y-83651876D01*
X181501253Y-83617290D01*
X181678541Y-83617290D01*
X181852418Y-83651876D01*
X181852418Y-83651876D01*
G37*
G36*
X167852418Y-83651876D02*
X168016206Y-83719719D01*
X168163617Y-83818216D01*
X168288971Y-83943570D01*
X168387468Y-84090981D01*
X168455311Y-84254769D01*
X168489897Y-84428646D01*
X168489897Y-84605934D01*
X168455311Y-84779811D01*
X168387468Y-84943599D01*
X168288971Y-85091010D01*
X168163617Y-85216364D01*
X168016206Y-85314861D01*
X167852418Y-85382704D01*
X167678541Y-85417290D01*
X167501253Y-85417290D01*
X167327376Y-85382704D01*
X167163588Y-85314861D01*
X167016177Y-85216364D01*
X166890823Y-85091010D01*
X166792326Y-84943599D01*
X166724483Y-84779811D01*
X166689897Y-84605934D01*
X166689897Y-84428646D01*
X166724483Y-84254769D01*
X166792326Y-84090981D01*
X166890823Y-83943570D01*
X167016177Y-83818216D01*
X167163588Y-83719719D01*
X167327376Y-83651876D01*
X167501253Y-83617290D01*
X167678541Y-83617290D01*
X167852418Y-83651876D01*
X167852418Y-83651876D01*
G37*
G36*
X123573275Y-75594149D02*
X123937251Y-75744912D01*
X124264826Y-75963791D01*
X124543396Y-76242361D01*
X124762275Y-76569936D01*
X124913038Y-76933912D01*
X124989897Y-77320306D01*
X124989897Y-77714274D01*
X124913038Y-78100668D01*
X124762275Y-78464644D01*
X124543396Y-78792219D01*
X124264826Y-79070789D01*
X123937251Y-79289668D01*
X123573275Y-79440431D01*
X123186881Y-79517290D01*
X122792913Y-79517290D01*
X122406519Y-79440431D01*
X122042543Y-79289668D01*
X121714968Y-79070789D01*
X121436398Y-78792219D01*
X121217519Y-78464644D01*
X121066756Y-78100668D01*
X120989897Y-77714274D01*
X120989897Y-77320306D01*
X121066756Y-76933912D01*
X121217519Y-76569936D01*
X121436398Y-76242361D01*
X121714968Y-75963791D01*
X122042543Y-75744912D01*
X122406519Y-75594149D01*
X122792913Y-75517290D01*
X123186881Y-75517290D01*
X123573275Y-75594149D01*
X123573275Y-75594149D01*
G37*
G36*
X186573275Y-75594149D02*
X186937251Y-75744912D01*
X187264826Y-75963791D01*
X187543396Y-76242361D01*
X187762275Y-76569936D01*
X187913038Y-76933912D01*
X187989897Y-77320306D01*
X187989897Y-77714274D01*
X187913038Y-78100668D01*
X187762275Y-78464644D01*
X187543396Y-78792219D01*
X187264826Y-79070789D01*
X186937251Y-79289668D01*
X186573275Y-79440431D01*
X186186881Y-79517290D01*
X185792913Y-79517290D01*
X185406519Y-79440431D01*
X185042543Y-79289668D01*
X184714968Y-79070789D01*
X184436398Y-78792219D01*
X184217519Y-78464644D01*
X184066756Y-78100668D01*
X183989897Y-77714274D01*
X183989897Y-77320306D01*
X184066756Y-76933912D01*
X184217519Y-76569936D01*
X184436398Y-76242361D01*
X184714968Y-75963791D01*
X185042543Y-75744912D01*
X185406519Y-75594149D01*
X185792913Y-75517290D01*
X186186881Y-75517290D01*
X186573275Y-75594149D01*
X186573275Y-75594149D01*
G37*
G36*
X177773275Y-75594149D02*
X178137251Y-75744912D01*
X178464826Y-75963791D01*
X178743396Y-76242361D01*
X178962275Y-76569936D01*
X179113038Y-76933912D01*
X179189897Y-77320306D01*
X179189897Y-77714274D01*
X179113038Y-78100668D01*
X178962275Y-78464644D01*
X178743396Y-78792219D01*
X178464826Y-79070789D01*
X178137251Y-79289668D01*
X177773275Y-79440431D01*
X177386881Y-79517290D01*
X176992913Y-79517290D01*
X176606519Y-79440431D01*
X176242543Y-79289668D01*
X175914968Y-79070789D01*
X175636398Y-78792219D01*
X175417519Y-78464644D01*
X175266756Y-78100668D01*
X175189897Y-77714274D01*
X175189897Y-77320306D01*
X175266756Y-76933912D01*
X175417519Y-76569936D01*
X175636398Y-76242361D01*
X175914968Y-75963791D01*
X176242543Y-75744912D01*
X176606519Y-75594149D01*
X176992913Y-75517290D01*
X177386881Y-75517290D01*
X177773275Y-75594149D01*
X177773275Y-75594149D01*
G37*
G36*
X172573275Y-75594149D02*
X172937251Y-75744912D01*
X173264826Y-75963791D01*
X173543396Y-76242361D01*
X173762275Y-76569936D01*
X173913038Y-76933912D01*
X173989897Y-77320306D01*
X173989897Y-77714274D01*
X173913038Y-78100668D01*
X173762275Y-78464644D01*
X173543396Y-78792219D01*
X173264826Y-79070789D01*
X172937251Y-79289668D01*
X172573275Y-79440431D01*
X172186881Y-79517290D01*
X171792913Y-79517290D01*
X171406519Y-79440431D01*
X171042543Y-79289668D01*
X170714968Y-79070789D01*
X170436398Y-78792219D01*
X170217519Y-78464644D01*
X170066756Y-78100668D01*
X169989897Y-77714274D01*
X169989897Y-77320306D01*
X170066756Y-76933912D01*
X170217519Y-76569936D01*
X170436398Y-76242361D01*
X170714968Y-75963791D01*
X171042543Y-75744912D01*
X171406519Y-75594149D01*
X171792913Y-75517290D01*
X172186881Y-75517290D01*
X172573275Y-75594149D01*
X172573275Y-75594149D01*
G37*
G36*
X163773275Y-75594149D02*
X164137251Y-75744912D01*
X164464826Y-75963791D01*
X164743396Y-76242361D01*
X164962275Y-76569936D01*
X165113038Y-76933912D01*
X165189897Y-77320306D01*
X165189897Y-77714274D01*
X165113038Y-78100668D01*
X164962275Y-78464644D01*
X164743396Y-78792219D01*
X164464826Y-79070789D01*
X164137251Y-79289668D01*
X163773275Y-79440431D01*
X163386881Y-79517290D01*
X162992913Y-79517290D01*
X162606519Y-79440431D01*
X162242543Y-79289668D01*
X161914968Y-79070789D01*
X161636398Y-78792219D01*
X161417519Y-78464644D01*
X161266756Y-78100668D01*
X161189897Y-77714274D01*
X161189897Y-77320306D01*
X161266756Y-76933912D01*
X161417519Y-76569936D01*
X161636398Y-76242361D01*
X161914968Y-75963791D01*
X162242543Y-75744912D01*
X162606519Y-75594149D01*
X162992913Y-75517290D01*
X163386881Y-75517290D01*
X163773275Y-75594149D01*
X163773275Y-75594149D01*
G37*
G36*
X114773275Y-75594149D02*
X115137251Y-75744912D01*
X115464826Y-75963791D01*
X115743396Y-76242361D01*
X115962275Y-76569936D01*
X116113038Y-76933912D01*
X116189897Y-77320306D01*
X116189897Y-77714274D01*
X116113038Y-78100668D01*
X115962275Y-78464644D01*
X115743396Y-78792219D01*
X115464826Y-79070789D01*
X115137251Y-79289668D01*
X114773275Y-79440431D01*
X114386881Y-79517290D01*
X113992913Y-79517290D01*
X113606519Y-79440431D01*
X113242543Y-79289668D01*
X112914968Y-79070789D01*
X112636398Y-78792219D01*
X112417519Y-78464644D01*
X112266756Y-78100668D01*
X112189897Y-77714274D01*
X112189897Y-77320306D01*
X112266756Y-76933912D01*
X112417519Y-76569936D01*
X112636398Y-76242361D01*
X112914968Y-75963791D01*
X113242543Y-75744912D01*
X113606519Y-75594149D01*
X113992913Y-75517290D01*
X114386881Y-75517290D01*
X114773275Y-75594149D01*
X114773275Y-75594149D01*
G37*
G36*
X128773275Y-75594149D02*
X129137251Y-75744912D01*
X129464826Y-75963791D01*
X129743396Y-76242361D01*
X129962275Y-76569936D01*
X130113038Y-76933912D01*
X130189897Y-77320306D01*
X130189897Y-77714274D01*
X130113038Y-78100668D01*
X129962275Y-78464644D01*
X129743396Y-78792219D01*
X129464826Y-79070789D01*
X129137251Y-79289668D01*
X128773275Y-79440431D01*
X128386881Y-79517290D01*
X127992913Y-79517290D01*
X127606519Y-79440431D01*
X127242543Y-79289668D01*
X126914968Y-79070789D01*
X126636398Y-78792219D01*
X126417519Y-78464644D01*
X126266756Y-78100668D01*
X126189897Y-77714274D01*
X126189897Y-77320306D01*
X126266756Y-76933912D01*
X126417519Y-76569936D01*
X126636398Y-76242361D01*
X126914968Y-75963791D01*
X127242543Y-75744912D01*
X127606519Y-75594149D01*
X127992913Y-75517290D01*
X128386881Y-75517290D01*
X128773275Y-75594149D01*
X128773275Y-75594149D01*
G37*
G36*
X137573275Y-75594149D02*
X137937251Y-75744912D01*
X138264826Y-75963791D01*
X138543396Y-76242361D01*
X138762275Y-76569936D01*
X138913038Y-76933912D01*
X138989897Y-77320306D01*
X138989897Y-77714274D01*
X138913038Y-78100668D01*
X138762275Y-78464644D01*
X138543396Y-78792219D01*
X138264826Y-79070789D01*
X137937251Y-79289668D01*
X137573275Y-79440431D01*
X137186881Y-79517290D01*
X136792913Y-79517290D01*
X136406519Y-79440431D01*
X136042543Y-79289668D01*
X135714968Y-79070789D01*
X135436398Y-78792219D01*
X135217519Y-78464644D01*
X135066756Y-78100668D01*
X134989897Y-77714274D01*
X134989897Y-77320306D01*
X135066756Y-76933912D01*
X135217519Y-76569936D01*
X135436398Y-76242361D01*
X135714968Y-75963791D01*
X136042543Y-75744912D01*
X136406519Y-75594149D01*
X136792913Y-75517290D01*
X137186881Y-75517290D01*
X137573275Y-75594149D01*
X137573275Y-75594149D01*
G37*
G36*
X150466703Y-75752577D02*
X150757883Y-75873188D01*
X151019944Y-76048292D01*
X151242799Y-76271147D01*
X151417903Y-76533208D01*
X151538514Y-76824388D01*
X151600000Y-77133503D01*
X151600000Y-77448679D01*
X151538514Y-77757794D01*
X151417903Y-78048974D01*
X151242799Y-78311035D01*
X151019944Y-78533890D01*
X150757883Y-78708994D01*
X150466703Y-78829605D01*
X150157588Y-78891091D01*
X149842412Y-78891091D01*
X149533297Y-78829605D01*
X149242117Y-78708994D01*
X148980056Y-78533890D01*
X148757201Y-78311035D01*
X148582097Y-78048974D01*
X148461486Y-77757794D01*
X148400000Y-77448679D01*
X148400000Y-77133503D01*
X148461486Y-76824388D01*
X148582097Y-76533208D01*
X148757201Y-76271147D01*
X148980056Y-76048292D01*
X149242117Y-75873188D01*
X149533297Y-75752577D01*
X149842412Y-75691091D01*
X150157588Y-75691091D01*
X150466703Y-75752577D01*
X150466703Y-75752577D01*
G37*
G36*
X114526716Y-62484782D02*
X114859118Y-62622467D01*
X115158272Y-62822356D01*
X115412681Y-63076765D01*
X115612570Y-63375919D01*
X115750255Y-63708321D01*
X115820446Y-64061196D01*
X115820446Y-64420986D01*
X115750255Y-64773861D01*
X115612570Y-65106263D01*
X115412681Y-65405417D01*
X115158272Y-65659826D01*
X114859118Y-65859715D01*
X114526716Y-65997400D01*
X114173841Y-66067591D01*
X113814051Y-66067591D01*
X113461176Y-65997400D01*
X113128774Y-65859715D01*
X112829620Y-65659826D01*
X112575211Y-65405417D01*
X112375322Y-65106263D01*
X112237637Y-64773861D01*
X112167446Y-64420986D01*
X112167446Y-64061196D01*
X112237637Y-63708321D01*
X112375322Y-63375919D01*
X112575211Y-63076765D01*
X112829620Y-62822356D01*
X113128774Y-62622467D01*
X113461176Y-62484782D01*
X113814051Y-62414591D01*
X114173841Y-62414591D01*
X114526716Y-62484782D01*
X114526716Y-62484782D01*
G37*
G36*
X183677324Y-58067950D02*
X184041300Y-58218713D01*
X184368875Y-58437592D01*
X184647445Y-58716162D01*
X184866324Y-59043737D01*
X185017087Y-59407713D01*
X185093946Y-59794107D01*
X185093946Y-60188075D01*
X185017087Y-60574469D01*
X184866324Y-60938445D01*
X184647445Y-61266020D01*
X184368875Y-61544590D01*
X184041300Y-61763469D01*
X183677324Y-61914232D01*
X183290930Y-61991091D01*
X182896962Y-61991091D01*
X182510568Y-61914232D01*
X182146592Y-61763469D01*
X181819017Y-61544590D01*
X181540447Y-61266020D01*
X181321568Y-60938445D01*
X181170805Y-60574469D01*
X181093946Y-60188075D01*
X181093946Y-59794107D01*
X181170805Y-59407713D01*
X181321568Y-59043737D01*
X181540447Y-58716162D01*
X181819017Y-58437592D01*
X182146592Y-58218713D01*
X182510568Y-58067950D01*
X182896962Y-57991091D01*
X183290930Y-57991091D01*
X183677324Y-58067950D01*
X183677324Y-58067950D01*
G37*
G36*
X192477324Y-58067950D02*
X192841300Y-58218713D01*
X193168875Y-58437592D01*
X193447445Y-58716162D01*
X193666324Y-59043737D01*
X193817087Y-59407713D01*
X193893946Y-59794107D01*
X193893946Y-60188075D01*
X193817087Y-60574469D01*
X193666324Y-60938445D01*
X193447445Y-61266020D01*
X193168875Y-61544590D01*
X192841300Y-61763469D01*
X192477324Y-61914232D01*
X192090930Y-61991091D01*
X191696962Y-61991091D01*
X191310568Y-61914232D01*
X190946592Y-61763469D01*
X190619017Y-61544590D01*
X190340447Y-61266020D01*
X190121568Y-60938445D01*
X189970805Y-60574469D01*
X189893946Y-60188075D01*
X189893946Y-59794107D01*
X189970805Y-59407713D01*
X190121568Y-59043737D01*
X190340447Y-58716162D01*
X190619017Y-58437592D01*
X190946592Y-58218713D01*
X191310568Y-58067950D01*
X191696962Y-57991091D01*
X192090930Y-57991091D01*
X192477324Y-58067950D01*
X192477324Y-58067950D01*
G37*
G36*
X114198129Y-60317991D02*
X114325520Y-60370759D01*
X114440171Y-60447366D01*
X114537671Y-60544866D01*
X114614278Y-60659517D01*
X114667046Y-60786908D01*
X114693946Y-60922146D01*
X114693946Y-61060036D01*
X114667046Y-61195274D01*
X114614278Y-61322665D01*
X114537672Y-61437315D01*
X114440170Y-61534817D01*
X114325520Y-61611423D01*
X114198129Y-61664191D01*
X114062891Y-61691091D01*
X113925001Y-61691091D01*
X113789763Y-61664191D01*
X113662372Y-61611423D01*
X113547722Y-61534817D01*
X113450220Y-61437315D01*
X113373614Y-61322665D01*
X113320846Y-61195274D01*
X113293946Y-61060036D01*
X113293946Y-60922146D01*
X113320846Y-60786908D01*
X113373614Y-60659517D01*
X113450221Y-60544866D01*
X113547721Y-60447366D01*
X113662372Y-60370759D01*
X113789763Y-60317991D01*
X113925001Y-60291091D01*
X114062891Y-60291091D01*
X114198129Y-60317991D01*
X114198129Y-60317991D01*
G37*
G36*
X129650000Y-60417290D02*
X127850000Y-60417290D01*
X127850000Y-58617290D01*
X129650000Y-58617290D01*
X129650000Y-60417290D01*
X129650000Y-60417290D01*
G37*
G36*
X161552521Y-58651876D02*
X161716309Y-58719719D01*
X161863720Y-58818216D01*
X161989074Y-58943570D01*
X162087571Y-59090981D01*
X162155414Y-59254769D01*
X162190000Y-59428646D01*
X162190000Y-59605934D01*
X162155414Y-59779811D01*
X162087571Y-59943599D01*
X161989074Y-60091010D01*
X161863720Y-60216364D01*
X161716309Y-60314861D01*
X161552521Y-60382704D01*
X161378644Y-60417290D01*
X161201356Y-60417290D01*
X161027479Y-60382704D01*
X160863691Y-60314861D01*
X160716280Y-60216364D01*
X160590926Y-60091010D01*
X160492429Y-59943599D01*
X160424586Y-59779811D01*
X160390000Y-59605934D01*
X160390000Y-59428646D01*
X160424586Y-59254769D01*
X160492429Y-59090981D01*
X160590926Y-58943570D01*
X160716280Y-58818216D01*
X160863691Y-58719719D01*
X161027479Y-58651876D01*
X161201356Y-58617290D01*
X161378644Y-58617290D01*
X161552521Y-58651876D01*
X161552521Y-58651876D01*
G37*
G36*
X159650000Y-60417290D02*
X157850000Y-60417290D01*
X157850000Y-58617290D01*
X159650000Y-58617290D01*
X159650000Y-60417290D01*
X159650000Y-60417290D01*
G37*
G36*
X151552521Y-58651876D02*
X151716309Y-58719719D01*
X151863720Y-58818216D01*
X151989074Y-58943570D01*
X152087571Y-59090981D01*
X152155414Y-59254769D01*
X152190000Y-59428646D01*
X152190000Y-59605934D01*
X152155414Y-59779811D01*
X152087571Y-59943599D01*
X151989074Y-60091010D01*
X151863720Y-60216364D01*
X151716309Y-60314861D01*
X151552521Y-60382704D01*
X151378644Y-60417290D01*
X151201356Y-60417290D01*
X151027479Y-60382704D01*
X150863691Y-60314861D01*
X150716280Y-60216364D01*
X150590926Y-60091010D01*
X150492429Y-59943599D01*
X150424586Y-59779811D01*
X150390000Y-59605934D01*
X150390000Y-59428646D01*
X150424586Y-59254769D01*
X150492429Y-59090981D01*
X150590926Y-58943570D01*
X150716280Y-58818216D01*
X150863691Y-58719719D01*
X151027479Y-58651876D01*
X151201356Y-58617290D01*
X151378644Y-58617290D01*
X151552521Y-58651876D01*
X151552521Y-58651876D01*
G37*
G36*
X149650000Y-60417290D02*
X147850000Y-60417290D01*
X147850000Y-58617290D01*
X149650000Y-58617290D01*
X149650000Y-60417290D01*
X149650000Y-60417290D01*
G37*
G36*
X141552521Y-58651876D02*
X141716309Y-58719719D01*
X141863720Y-58818216D01*
X141989074Y-58943570D01*
X142087571Y-59090981D01*
X142155414Y-59254769D01*
X142190000Y-59428646D01*
X142190000Y-59605934D01*
X142155414Y-59779811D01*
X142087571Y-59943599D01*
X141989074Y-60091010D01*
X141863720Y-60216364D01*
X141716309Y-60314861D01*
X141552521Y-60382704D01*
X141378644Y-60417290D01*
X141201356Y-60417290D01*
X141027479Y-60382704D01*
X140863691Y-60314861D01*
X140716280Y-60216364D01*
X140590926Y-60091010D01*
X140492429Y-59943599D01*
X140424586Y-59779811D01*
X140390000Y-59605934D01*
X140390000Y-59428646D01*
X140424586Y-59254769D01*
X140492429Y-59090981D01*
X140590926Y-58943570D01*
X140716280Y-58818216D01*
X140863691Y-58719719D01*
X141027479Y-58651876D01*
X141201356Y-58617290D01*
X141378644Y-58617290D01*
X141552521Y-58651876D01*
X141552521Y-58651876D01*
G37*
G36*
X139650000Y-60417290D02*
X137850000Y-60417290D01*
X137850000Y-58617290D01*
X139650000Y-58617290D01*
X139650000Y-60417290D01*
X139650000Y-60417290D01*
G37*
G36*
X131552521Y-58651876D02*
X131716309Y-58719719D01*
X131863720Y-58818216D01*
X131989074Y-58943570D01*
X132087571Y-59090981D01*
X132155414Y-59254769D01*
X132190000Y-59428646D01*
X132190000Y-59605934D01*
X132155414Y-59779811D01*
X132087571Y-59943599D01*
X131989074Y-60091010D01*
X131863720Y-60216364D01*
X131716309Y-60314861D01*
X131552521Y-60382704D01*
X131378644Y-60417290D01*
X131201356Y-60417290D01*
X131027479Y-60382704D01*
X130863691Y-60314861D01*
X130716280Y-60216364D01*
X130590926Y-60091010D01*
X130492429Y-59943599D01*
X130424586Y-59779811D01*
X130390000Y-59605934D01*
X130390000Y-59428646D01*
X130424586Y-59254769D01*
X130492429Y-59090981D01*
X130590926Y-58943570D01*
X130716280Y-58818216D01*
X130863691Y-58719719D01*
X131027479Y-58651876D01*
X131201356Y-58617290D01*
X131378644Y-58617290D01*
X131552521Y-58651876D01*
X131552521Y-58651876D01*
G37*
G36*
X169650000Y-60417290D02*
X167850000Y-60417290D01*
X167850000Y-58617290D01*
X169650000Y-58617290D01*
X169650000Y-60417290D01*
X169650000Y-60417290D01*
G37*
G36*
X171552521Y-58651876D02*
X171716309Y-58719719D01*
X171863720Y-58818216D01*
X171989074Y-58943570D01*
X172087571Y-59090981D01*
X172155414Y-59254769D01*
X172190000Y-59428646D01*
X172190000Y-59605934D01*
X172155414Y-59779811D01*
X172087571Y-59943599D01*
X171989074Y-60091010D01*
X171863720Y-60216364D01*
X171716309Y-60314861D01*
X171552521Y-60382704D01*
X171378644Y-60417290D01*
X171201356Y-60417290D01*
X171027479Y-60382704D01*
X170863691Y-60314861D01*
X170716280Y-60216364D01*
X170590926Y-60091010D01*
X170492429Y-59943599D01*
X170424586Y-59779811D01*
X170390000Y-59605934D01*
X170390000Y-59428646D01*
X170424586Y-59254769D01*
X170492429Y-59090981D01*
X170590926Y-58943570D01*
X170716280Y-58818216D01*
X170863691Y-58719719D01*
X171027479Y-58651876D01*
X171201356Y-58617290D01*
X171378644Y-58617290D01*
X171552521Y-58651876D01*
X171552521Y-58651876D01*
G37*
G36*
X114198129Y-57317991D02*
X114325520Y-57370759D01*
X114440171Y-57447366D01*
X114537671Y-57544866D01*
X114614278Y-57659517D01*
X114667046Y-57786908D01*
X114693946Y-57922146D01*
X114693946Y-58060036D01*
X114667046Y-58195274D01*
X114614278Y-58322665D01*
X114537671Y-58437316D01*
X114440171Y-58534816D01*
X114325520Y-58611423D01*
X114198129Y-58664191D01*
X114062891Y-58691091D01*
X113925001Y-58691091D01*
X113789763Y-58664191D01*
X113662372Y-58611423D01*
X113547721Y-58534816D01*
X113450221Y-58437316D01*
X113373614Y-58322665D01*
X113320846Y-58195274D01*
X113293946Y-58060036D01*
X113293946Y-57922146D01*
X113320846Y-57786908D01*
X113373614Y-57659517D01*
X113450221Y-57544866D01*
X113547721Y-57447366D01*
X113662372Y-57370759D01*
X113789763Y-57317991D01*
X113925001Y-57291091D01*
X114062891Y-57291091D01*
X114198129Y-57317991D01*
X114198129Y-57317991D01*
G37*
G36*
X114198129Y-54317991D02*
X114325520Y-54370759D01*
X114440171Y-54447366D01*
X114537671Y-54544866D01*
X114614278Y-54659517D01*
X114667046Y-54786908D01*
X114693946Y-54922146D01*
X114693946Y-55060036D01*
X114667046Y-55195274D01*
X114614278Y-55322665D01*
X114537671Y-55437316D01*
X114440171Y-55534816D01*
X114325520Y-55611423D01*
X114198129Y-55664191D01*
X114062891Y-55691091D01*
X113925001Y-55691091D01*
X113789763Y-55664191D01*
X113662372Y-55611423D01*
X113547721Y-55534816D01*
X113450221Y-55437316D01*
X113373614Y-55322665D01*
X113320846Y-55195274D01*
X113293946Y-55060036D01*
X113293946Y-54922146D01*
X113320846Y-54786908D01*
X113373614Y-54659517D01*
X113450221Y-54544866D01*
X113547721Y-54447366D01*
X113662372Y-54370759D01*
X113789763Y-54317991D01*
X113925001Y-54291091D01*
X114062891Y-54291091D01*
X114198129Y-54317991D01*
X114198129Y-54317991D01*
G37*
G36*
X190256467Y-52125677D02*
X190420255Y-52193520D01*
X190567666Y-52292017D01*
X190693020Y-52417371D01*
X190791517Y-52564782D01*
X190859360Y-52728570D01*
X190893946Y-52902447D01*
X190893946Y-53079735D01*
X190859360Y-53253612D01*
X190791517Y-53417400D01*
X190693020Y-53564811D01*
X190567666Y-53690165D01*
X190420255Y-53788662D01*
X190256467Y-53856505D01*
X190082590Y-53891091D01*
X189905302Y-53891091D01*
X189731425Y-53856505D01*
X189567637Y-53788662D01*
X189420226Y-53690165D01*
X189294872Y-53564811D01*
X189196375Y-53417400D01*
X189128532Y-53253612D01*
X189093946Y-53079735D01*
X189093946Y-52902447D01*
X189128532Y-52728570D01*
X189196375Y-52564782D01*
X189294872Y-52417371D01*
X189420226Y-52292017D01*
X189567637Y-52193520D01*
X189731425Y-52125677D01*
X189905302Y-52091091D01*
X190082590Y-52091091D01*
X190256467Y-52125677D01*
X190256467Y-52125677D01*
G37*
G36*
X187756467Y-52125677D02*
X187920255Y-52193520D01*
X188067666Y-52292017D01*
X188193020Y-52417371D01*
X188291517Y-52564782D01*
X188359360Y-52728570D01*
X188393946Y-52902447D01*
X188393946Y-53079735D01*
X188359360Y-53253612D01*
X188291517Y-53417400D01*
X188193020Y-53564811D01*
X188067666Y-53690165D01*
X187920255Y-53788662D01*
X187756467Y-53856505D01*
X187582590Y-53891091D01*
X187405302Y-53891091D01*
X187231425Y-53856505D01*
X187067637Y-53788662D01*
X186920226Y-53690165D01*
X186794872Y-53564811D01*
X186696375Y-53417400D01*
X186628532Y-53253612D01*
X186593946Y-53079735D01*
X186593946Y-52902447D01*
X186628532Y-52728570D01*
X186696375Y-52564782D01*
X186794872Y-52417371D01*
X186920226Y-52292017D01*
X187067637Y-52193520D01*
X187231425Y-52125677D01*
X187405302Y-52091091D01*
X187582590Y-52091091D01*
X187756467Y-52125677D01*
X187756467Y-52125677D01*
G37*
G36*
X185256467Y-52125677D02*
X185420255Y-52193520D01*
X185567666Y-52292017D01*
X185693020Y-52417371D01*
X185791517Y-52564782D01*
X185859360Y-52728570D01*
X185893946Y-52902447D01*
X185893946Y-53079735D01*
X185859360Y-53253612D01*
X185791517Y-53417400D01*
X185693020Y-53564811D01*
X185567666Y-53690165D01*
X185420255Y-53788662D01*
X185256467Y-53856505D01*
X185082590Y-53891091D01*
X184905302Y-53891091D01*
X184731425Y-53856505D01*
X184567637Y-53788662D01*
X184420226Y-53690165D01*
X184294872Y-53564811D01*
X184196375Y-53417400D01*
X184128532Y-53253612D01*
X184093946Y-53079735D01*
X184093946Y-52902447D01*
X184128532Y-52728570D01*
X184196375Y-52564782D01*
X184294872Y-52417371D01*
X184420226Y-52292017D01*
X184567637Y-52193520D01*
X184731425Y-52125677D01*
X184905302Y-52091091D01*
X185082590Y-52091091D01*
X185256467Y-52125677D01*
X185256467Y-52125677D01*
G37*
G36*
X114526716Y-49984782D02*
X114859118Y-50122467D01*
X115158272Y-50322356D01*
X115412681Y-50576765D01*
X115612570Y-50875919D01*
X115750255Y-51208321D01*
X115820446Y-51561196D01*
X115820446Y-51920986D01*
X115750255Y-52273861D01*
X115612570Y-52606263D01*
X115412681Y-52905417D01*
X115158272Y-53159826D01*
X114859118Y-53359715D01*
X114526716Y-53497400D01*
X114173841Y-53567591D01*
X113814051Y-53567591D01*
X113461176Y-53497400D01*
X113128774Y-53359715D01*
X112829620Y-53159826D01*
X112575211Y-52905417D01*
X112375322Y-52606263D01*
X112237637Y-52273861D01*
X112167446Y-51920986D01*
X112167446Y-51561196D01*
X112237637Y-51208321D01*
X112375322Y-50875919D01*
X112575211Y-50576765D01*
X112829620Y-50322356D01*
X113128774Y-50122467D01*
X113461176Y-49984782D01*
X113814051Y-49914591D01*
X114173841Y-49914591D01*
X114526716Y-49984782D01*
X114526716Y-49984782D01*
G37*
G36*
X145171530Y-46672661D02*
X145281489Y-46706017D01*
X145336469Y-46722695D01*
X145387137Y-46749778D01*
X145488476Y-46803944D01*
X145621712Y-46913288D01*
X145731056Y-47046524D01*
X145785222Y-47147863D01*
X145812305Y-47198531D01*
X145812305Y-47198532D01*
X145862339Y-47363470D01*
X145875000Y-47492021D01*
X145875000Y-49327979D01*
X145862339Y-49456530D01*
X145828983Y-49566489D01*
X145812305Y-49621469D01*
X145785222Y-49672137D01*
X145731056Y-49773476D01*
X145621712Y-49906712D01*
X145488475Y-50016056D01*
X145488473Y-50016057D01*
X145488472Y-50016058D01*
X145336471Y-50097304D01*
X145293550Y-50110324D01*
X145171529Y-50147339D01*
X145000000Y-50164233D01*
X144828470Y-50147339D01*
X144718511Y-50113983D01*
X144663531Y-50097305D01*
X144612863Y-50070222D01*
X144511524Y-50016056D01*
X144378288Y-49906712D01*
X144268944Y-49773475D01*
X144268942Y-49773472D01*
X144187696Y-49621471D01*
X144174676Y-49578550D01*
X144137661Y-49456529D01*
X144125000Y-49327978D01*
X144125001Y-47492021D01*
X144137662Y-47363470D01*
X144187696Y-47198532D01*
X144187696Y-47198531D01*
X144214779Y-47147863D01*
X144268945Y-47046524D01*
X144378289Y-46913288D01*
X144511525Y-46803944D01*
X144612864Y-46749778D01*
X144663532Y-46722695D01*
X144718512Y-46706017D01*
X144828471Y-46672661D01*
X145000000Y-46655767D01*
X145171530Y-46672661D01*
X145171530Y-46672661D01*
G37*
G36*
X147671530Y-46672661D02*
X147781489Y-46706017D01*
X147836469Y-46722695D01*
X147887137Y-46749778D01*
X147988476Y-46803944D01*
X148121712Y-46913288D01*
X148231056Y-47046524D01*
X148285222Y-47147863D01*
X148312305Y-47198531D01*
X148312305Y-47198532D01*
X148362339Y-47363470D01*
X148375000Y-47492021D01*
X148375000Y-49327979D01*
X148362339Y-49456530D01*
X148328983Y-49566489D01*
X148312305Y-49621469D01*
X148285222Y-49672137D01*
X148231056Y-49773476D01*
X148121712Y-49906712D01*
X147988475Y-50016056D01*
X147988473Y-50016057D01*
X147988472Y-50016058D01*
X147836471Y-50097304D01*
X147793550Y-50110324D01*
X147671529Y-50147339D01*
X147500000Y-50164233D01*
X147328470Y-50147339D01*
X147218511Y-50113983D01*
X147163531Y-50097305D01*
X147112863Y-50070222D01*
X147011524Y-50016056D01*
X146878288Y-49906712D01*
X146768944Y-49773475D01*
X146768942Y-49773472D01*
X146687696Y-49621471D01*
X146674676Y-49578550D01*
X146637661Y-49456529D01*
X146625000Y-49327978D01*
X146625001Y-47492021D01*
X146637662Y-47363470D01*
X146687696Y-47198532D01*
X146687696Y-47198531D01*
X146714779Y-47147863D01*
X146768945Y-47046524D01*
X146878289Y-46913288D01*
X147011525Y-46803944D01*
X147112864Y-46749778D01*
X147163532Y-46722695D01*
X147218512Y-46706017D01*
X147328471Y-46672661D01*
X147500000Y-46655767D01*
X147671530Y-46672661D01*
X147671530Y-46672661D01*
G37*
G36*
X152671530Y-46672661D02*
X152781489Y-46706017D01*
X152836469Y-46722695D01*
X152887137Y-46749778D01*
X152988476Y-46803944D01*
X153121712Y-46913288D01*
X153231056Y-47046524D01*
X153285222Y-47147863D01*
X153312305Y-47198531D01*
X153312305Y-47198532D01*
X153362339Y-47363470D01*
X153375000Y-47492021D01*
X153375000Y-49327979D01*
X153362339Y-49456530D01*
X153328983Y-49566489D01*
X153312305Y-49621469D01*
X153285222Y-49672137D01*
X153231056Y-49773476D01*
X153121712Y-49906712D01*
X152988475Y-50016056D01*
X152988473Y-50016057D01*
X152988472Y-50016058D01*
X152836471Y-50097304D01*
X152793550Y-50110324D01*
X152671529Y-50147339D01*
X152500000Y-50164233D01*
X152328470Y-50147339D01*
X152218511Y-50113983D01*
X152163531Y-50097305D01*
X152112863Y-50070222D01*
X152011524Y-50016056D01*
X151878288Y-49906712D01*
X151768944Y-49773475D01*
X151768942Y-49773472D01*
X151687696Y-49621471D01*
X151674676Y-49578550D01*
X151637661Y-49456529D01*
X151625000Y-49327978D01*
X151625001Y-47492021D01*
X151637662Y-47363470D01*
X151687696Y-47198532D01*
X151687696Y-47198531D01*
X151714779Y-47147863D01*
X151768945Y-47046524D01*
X151878289Y-46913288D01*
X152011525Y-46803944D01*
X152112864Y-46749778D01*
X152163532Y-46722695D01*
X152218512Y-46706017D01*
X152328471Y-46672661D01*
X152500000Y-46655767D01*
X152671530Y-46672661D01*
X152671530Y-46672661D01*
G37*
G36*
X155171530Y-46672661D02*
X155281489Y-46706017D01*
X155336469Y-46722695D01*
X155387137Y-46749778D01*
X155488476Y-46803944D01*
X155621712Y-46913288D01*
X155731056Y-47046524D01*
X155785222Y-47147863D01*
X155812305Y-47198531D01*
X155812305Y-47198532D01*
X155862339Y-47363470D01*
X155875000Y-47492021D01*
X155875000Y-49327979D01*
X155862339Y-49456530D01*
X155828983Y-49566489D01*
X155812305Y-49621469D01*
X155785222Y-49672137D01*
X155731056Y-49773476D01*
X155621712Y-49906712D01*
X155488475Y-50016056D01*
X155488473Y-50016057D01*
X155488472Y-50016058D01*
X155336471Y-50097304D01*
X155293550Y-50110324D01*
X155171529Y-50147339D01*
X155000000Y-50164233D01*
X154828470Y-50147339D01*
X154718511Y-50113983D01*
X154663531Y-50097305D01*
X154612863Y-50070222D01*
X154511524Y-50016056D01*
X154378288Y-49906712D01*
X154268944Y-49773475D01*
X154268942Y-49773472D01*
X154187696Y-49621471D01*
X154174676Y-49578550D01*
X154137661Y-49456529D01*
X154125000Y-49327978D01*
X154125001Y-47492021D01*
X154137662Y-47363470D01*
X154187696Y-47198532D01*
X154187696Y-47198531D01*
X154214779Y-47147863D01*
X154268945Y-47046524D01*
X154378289Y-46913288D01*
X154511525Y-46803944D01*
X154612864Y-46749778D01*
X154663532Y-46722695D01*
X154718512Y-46706017D01*
X154828471Y-46672661D01*
X155000000Y-46655767D01*
X155171530Y-46672661D01*
X155171530Y-46672661D01*
G37*
G36*
X190460649Y-43452577D02*
X190751829Y-43573188D01*
X191013890Y-43748292D01*
X191236745Y-43971147D01*
X191411849Y-44233208D01*
X191532460Y-44524388D01*
X191593946Y-44833503D01*
X191593946Y-45148679D01*
X191532460Y-45457794D01*
X191411849Y-45748974D01*
X191236745Y-46011035D01*
X191013890Y-46233890D01*
X190751829Y-46408994D01*
X190460649Y-46529605D01*
X190151534Y-46591091D01*
X189836358Y-46591091D01*
X189527243Y-46529605D01*
X189236063Y-46408994D01*
X188974002Y-46233890D01*
X188751147Y-46011035D01*
X188576043Y-45748974D01*
X188455432Y-45457794D01*
X188393946Y-45148679D01*
X188393946Y-44833503D01*
X188455432Y-44524388D01*
X188576043Y-44233208D01*
X188751147Y-43971147D01*
X188974002Y-43748292D01*
X189236063Y-43573188D01*
X189527243Y-43452577D01*
X189836358Y-43391091D01*
X190151534Y-43391091D01*
X190460649Y-43452577D01*
X190460649Y-43452577D01*
G37*
G36*
X110460649Y-43452577D02*
X110751829Y-43573188D01*
X111013890Y-43748292D01*
X111236745Y-43971147D01*
X111411849Y-44233208D01*
X111532460Y-44524388D01*
X111593946Y-44833503D01*
X111593946Y-45148679D01*
X111532460Y-45457794D01*
X111411849Y-45748974D01*
X111236745Y-46011035D01*
X111013890Y-46233890D01*
X110751829Y-46408994D01*
X110460649Y-46529605D01*
X110151534Y-46591091D01*
X109836358Y-46591091D01*
X109527243Y-46529605D01*
X109236063Y-46408994D01*
X108974002Y-46233890D01*
X108751147Y-46011035D01*
X108576043Y-45748974D01*
X108455432Y-45457794D01*
X108393946Y-45148679D01*
X108393946Y-44833503D01*
X108455432Y-44524388D01*
X108576043Y-44233208D01*
X108751147Y-43971147D01*
X108974002Y-43748292D01*
X109236063Y-43573188D01*
X109527243Y-43452577D01*
X109836358Y-43391091D01*
X110151534Y-43391091D01*
X110460649Y-43452577D01*
X110460649Y-43452577D01*
G37*
G36*
X151750000Y-44654000D02*
X148250000Y-44654000D01*
X148250000Y-42154000D01*
X151750000Y-42154000D01*
X151750000Y-44654000D01*
X151750000Y-44654000D01*
G37*
M02*
