M48
;DRILL file {KiCad (5.0.1)-3} date 25/06/2019 15:47:57
;FORMAT={-:-/ absolute / metric / decimal}
FMAT,2
METRIC,TZ
T1C0.800
T2C0.900
T3C1.000
T4C1.200
T5C2.435
%
G90
G05
M71
T1
X173.99Y-128.27
X184.15Y-128.27
X173.99Y-118.11
X184.15Y-118.11
X173.99Y-130.81
X184.15Y-130.81
X173.99Y-123.19
X184.15Y-123.19
X128.27Y-118.11
X130.77Y-118.11
X173.99Y-125.73
X184.15Y-125.73
X167.68Y-130.81
X170.18Y-130.81
X149.9Y-134.62
X152.4Y-134.62
X157.52Y-152.4
X160.02Y-152.4
X154.994Y-115.57
X154.994Y-123.19
X157.534Y-115.57
X157.534Y-123.19
X160.074Y-115.57
X160.074Y-123.19
X162.614Y-115.57
X162.614Y-123.19
X173.99Y-115.57
X184.15Y-115.57
X128.27Y-127.
X130.77Y-127.
X139.7Y-139.7
X139.7Y-147.32
X142.24Y-139.7
X142.24Y-147.32
X144.78Y-139.7
X144.78Y-147.32
X147.32Y-139.7
X147.32Y-147.32
X149.86Y-139.7
X149.86Y-147.32
X152.4Y-139.7
X152.4Y-147.32
X154.94Y-139.7
X154.94Y-147.32
X157.48Y-139.7
X157.48Y-147.32
X160.02Y-139.7
X160.02Y-147.32
X162.56Y-139.7
X162.56Y-147.32
X165.1Y-139.7
X165.1Y-147.32
X167.64Y-139.7
X167.64Y-147.32
X170.18Y-139.7
X170.18Y-147.32
X172.72Y-139.7
X172.72Y-147.32
X173.99Y-133.35
X184.15Y-133.35
X137.16Y-129.54
X139.66Y-129.54
X167.64Y-118.11
X170.14Y-118.11
X137.16Y-134.62
X142.04Y-134.62
X147.32Y-124.46
X149.82Y-124.46
X139.7Y-114.3
X139.7Y-124.46
X173.99Y-120.65
X184.15Y-120.65
X147.36Y-152.4
X149.86Y-152.4
X160.06Y-134.62
X162.56Y-134.62
X167.64Y-125.73
X170.14Y-125.73
X154.94Y-137.16
X157.44Y-137.16
X142.24Y-129.54
X144.74Y-129.54
X142.24Y-114.3
X142.24Y-124.46
X137.16Y-114.3
X137.16Y-124.46
X128.27Y-134.62
X130.77Y-134.62
X152.44Y-149.86
X154.94Y-149.86
T2
X138.75Y-59.517
X141.29Y-59.517
X158.75Y-59.517
X161.29Y-59.517
X148.75Y-59.517
X151.29Y-59.517
X113.994Y-54.991
X113.994Y-57.991
X113.994Y-60.991
X168.75Y-59.517
X171.29Y-59.517
X128.75Y-59.517
X131.29Y-59.517
T3
X120.65Y-128.27
X120.65Y-130.81
X120.65Y-133.35
X120.65Y-135.89
X120.65Y-138.43
X120.65Y-140.97
X179.09Y-84.517
X181.59Y-84.517
X184.09Y-84.517
X184.994Y-52.991
X187.494Y-52.991
X189.994Y-52.991
X118.11Y-125.73
X118.11Y-128.27
X118.11Y-130.81
X118.11Y-133.35
X118.11Y-135.89
X118.11Y-115.57
X118.11Y-118.11
X118.11Y-120.65
X118.11Y-123.19
X125.73Y-146.05
X125.73Y-148.59
X125.73Y-151.13
X125.73Y-153.67
X116.09Y-84.517
X118.59Y-84.517
X121.09Y-84.517
X165.09Y-84.517
X167.59Y-84.517
X170.09Y-84.517
X120.65Y-115.57
X120.65Y-118.11
X120.65Y-120.65
X120.65Y-123.19
X120.65Y-125.73
X130.09Y-84.517
X132.59Y-84.517
X135.09Y-84.517
X147.32Y-114.3
X149.86Y-114.3
T4
X136.09Y-89.517
X136.09Y-102.017
X141.09Y-89.517
X141.09Y-102.017
X123.09Y-89.517
X123.09Y-102.017
X128.09Y-89.517
X128.09Y-102.017
X110.09Y-89.517
X110.09Y-102.017
X115.09Y-89.517
X115.09Y-102.017
X185.09Y-89.517
X185.09Y-102.017
X190.09Y-89.517
X190.09Y-102.017
X159.09Y-89.517
X159.09Y-102.017
X164.09Y-89.517
X164.09Y-102.017
X172.09Y-89.517
X172.09Y-102.017
X177.09Y-89.517
X177.09Y-102.017
X145.Y-48.41
X147.5Y-48.41
X150.Y-43.404
X152.5Y-48.41
X155.Y-48.41
T5
X113.994Y-51.741
X113.994Y-64.241
T0
M30
