G04 #@! TF.GenerationSoftware,KiCad,Pcbnew,(5.0.1)-3*
G04 #@! TF.CreationDate,2019-07-10T11:43:57+01:00*
G04 #@! TF.ProjectId,drumkid v3,6472756D6B69642076332E6B69636164,04*
G04 #@! TF.SameCoordinates,Original*
G04 #@! TF.FileFunction,Copper,L2,Bot,Signal*
G04 #@! TF.FilePolarity,Positive*
%FSLAX46Y46*%
G04 Gerber Fmt 4.6, Leading zero omitted, Abs format (unit mm)*
G04 Created by KiCad (PCBNEW (5.0.1)-3) date 10/07/2019 11:43:57*
%MOMM*%
%LPD*%
G01*
G04 APERTURE LIST*
G04 #@! TA.AperFunction,ComponentPad*
%ADD10O,1.600000X1.600000*%
G04 #@! TD*
G04 #@! TA.AperFunction,ComponentPad*
%ADD11C,1.600000*%
G04 #@! TD*
G04 #@! TA.AperFunction,ComponentPad*
%ADD12C,3.500120*%
G04 #@! TD*
G04 #@! TA.AperFunction,ComponentPad*
%ADD13R,3.500120X3.500120*%
G04 #@! TD*
G04 #@! TA.AperFunction,ComponentPad*
%ADD14C,3.653000*%
G04 #@! TD*
G04 #@! TA.AperFunction,ComponentPad*
%ADD15C,1.400000*%
G04 #@! TD*
G04 #@! TA.AperFunction,WasherPad*
%ADD16C,4.000000*%
G04 #@! TD*
G04 #@! TA.AperFunction,ComponentPad*
%ADD17C,1.800000*%
G04 #@! TD*
G04 #@! TA.AperFunction,ComponentPad*
%ADD18R,1.800000X1.800000*%
G04 #@! TD*
G04 #@! TA.AperFunction,ComponentPad*
%ADD19O,1.750000X3.500000*%
G04 #@! TD*
G04 #@! TA.AperFunction,ComponentPad*
%ADD20R,3.500000X2.500000*%
G04 #@! TD*
G04 #@! TA.AperFunction,ComponentPad*
%ADD21O,2.500000X3.000000*%
G04 #@! TD*
G04 #@! TA.AperFunction,ComponentPad*
%ADD22R,1.600000X1.600000*%
G04 #@! TD*
G04 #@! TA.AperFunction,ComponentPad*
%ADD23O,1.700000X1.700000*%
G04 #@! TD*
G04 #@! TA.AperFunction,ComponentPad*
%ADD24R,1.700000X1.700000*%
G04 #@! TD*
G04 #@! TA.AperFunction,ComponentPad*
%ADD25C,1.500000*%
G04 #@! TD*
G04 #@! TA.AperFunction,ViaPad*
%ADD26C,0.800000*%
G04 #@! TD*
G04 #@! TA.AperFunction,Conductor*
%ADD27C,0.625000*%
G04 #@! TD*
G04 #@! TA.AperFunction,Conductor*
%ADD28C,0.250000*%
G04 #@! TD*
G04 #@! TA.AperFunction,Conductor*
%ADD29C,0.254000*%
G04 #@! TD*
G04 APERTURE END LIST*
D10*
G04 #@! TO.P,R9,2*
G04 #@! TO.N,Net-(R9-Pad2)*
X134620000Y-132080000D03*
D11*
G04 #@! TO.P,R9,1*
G04 #@! TO.N,Net-(R10-Pad1)*
X144780000Y-132080000D03*
G04 #@! TD*
D12*
G04 #@! TO.P,BT1,2*
G04 #@! TO.N,GND*
X121920000Y-116840000D03*
D13*
G04 #@! TO.P,BT1,1*
G04 #@! TO.N,Net-(BT1-Pad1)*
X116840000Y-116840000D03*
G04 #@! TD*
D14*
G04 #@! TO.P,SW1,MH2*
G04 #@! TO.N,N/C*
X113993946Y-51741091D03*
G04 #@! TO.P,SW1,MH1*
X113993946Y-64241091D03*
D15*
G04 #@! TO.P,SW1,3*
G04 #@! TO.N,Net-(SW1-Pad3)*
X113993946Y-54991091D03*
G04 #@! TO.P,SW1,2*
G04 #@! TO.N,Net-(BT1-Pad1)*
X113993946Y-57991091D03*
G04 #@! TO.P,SW1,1*
G04 #@! TO.N,+5V*
X113993946Y-60991091D03*
G04 #@! TD*
D10*
G04 #@! TO.P,R1,2*
G04 #@! TO.N,/DIGITAL_9*
X134620000Y-137160000D03*
D11*
G04 #@! TO.P,R1,1*
G04 #@! TO.N,Net-(C13-Pad1)*
X144780000Y-137160000D03*
G04 #@! TD*
D10*
G04 #@! TO.P,R7,2*
G04 #@! TO.N,/DIGITAL_6*
X137160000Y-127000000D03*
D11*
G04 #@! TO.P,R7,1*
G04 #@! TO.N,Net-(D6-Pad2)*
X127000000Y-127000000D03*
G04 #@! TD*
D10*
G04 #@! TO.P,R11,2*
G04 #@! TO.N,GND*
X144780000Y-139700000D03*
D11*
G04 #@! TO.P,R11,1*
G04 #@! TO.N,Net-(C18-Pad2)*
X134620000Y-139700000D03*
G04 #@! TD*
D10*
G04 #@! TO.P,R10,2*
G04 #@! TO.N,GND*
X144780000Y-142240000D03*
D11*
G04 #@! TO.P,R10,1*
G04 #@! TO.N,Net-(R10-Pad1)*
X134620000Y-142240000D03*
G04 #@! TD*
D10*
G04 #@! TO.P,R8,2*
G04 #@! TO.N,Net-(C13-Pad1)*
X134620000Y-134620000D03*
D11*
G04 #@! TO.P,R8,1*
G04 #@! TO.N,Net-(C14-Pad1)*
X144780000Y-134620000D03*
G04 #@! TD*
D10*
G04 #@! TO.P,R6,2*
G04 #@! TO.N,/DIGITAL_5*
X137160000Y-124460000D03*
D11*
G04 #@! TO.P,R6,1*
G04 #@! TO.N,Net-(D5-Pad2)*
X127000000Y-124460000D03*
G04 #@! TD*
D10*
G04 #@! TO.P,R5,2*
G04 #@! TO.N,/DIGITAL_4*
X137160000Y-121920000D03*
D11*
G04 #@! TO.P,R5,1*
G04 #@! TO.N,Net-(D4-Pad2)*
X127000000Y-121920000D03*
G04 #@! TD*
D10*
G04 #@! TO.P,R4,2*
G04 #@! TO.N,/DIGITAL_3*
X137160000Y-119380000D03*
D11*
G04 #@! TO.P,R4,1*
G04 #@! TO.N,Net-(D3-Pad2)*
X127000000Y-119380000D03*
G04 #@! TD*
D10*
G04 #@! TO.P,R3,2*
G04 #@! TO.N,/DIGITAL_2*
X137160000Y-116840000D03*
D11*
G04 #@! TO.P,R3,1*
G04 #@! TO.N,Net-(D2-Pad2)*
X127000000Y-116840000D03*
G04 #@! TD*
D10*
G04 #@! TO.P,R2,2*
G04 #@! TO.N,+5V*
X187960000Y-142240000D03*
D11*
G04 #@! TO.P,R2,1*
G04 #@! TO.N,Net-(R2-Pad1)*
X187960000Y-132080000D03*
G04 #@! TD*
D16*
G04 #@! TO.P,RV1,*
G04 #@! TO.N,*
X182100000Y-58000000D03*
X190900000Y-58000000D03*
D17*
G04 #@! TO.P,RV1,1*
G04 #@! TO.N,GND*
X184000000Y-65000000D03*
G04 #@! TO.P,RV1,2*
G04 #@! TO.N,Net-(R9-Pad2)*
X186500000Y-65000000D03*
G04 #@! TO.P,RV1,3*
G04 #@! TO.N,Net-(C15-Pad2)*
X189000000Y-65000000D03*
G04 #@! TD*
G04 #@! TO.P,D6,2*
G04 #@! TO.N,Net-(D6-Pad2)*
X171290000Y-65867290D03*
D18*
G04 #@! TO.P,D6,1*
G04 #@! TO.N,GND*
X168750000Y-65867290D03*
G04 #@! TD*
D17*
G04 #@! TO.P,D5,2*
G04 #@! TO.N,Net-(D5-Pad2)*
X161290000Y-65867290D03*
D18*
G04 #@! TO.P,D5,1*
G04 #@! TO.N,GND*
X158750000Y-65867290D03*
G04 #@! TD*
D17*
G04 #@! TO.P,D4,2*
G04 #@! TO.N,Net-(D4-Pad2)*
X151290000Y-65867290D03*
D18*
G04 #@! TO.P,D4,1*
G04 #@! TO.N,GND*
X148750000Y-65867290D03*
G04 #@! TD*
D17*
G04 #@! TO.P,D3,2*
G04 #@! TO.N,Net-(D3-Pad2)*
X141290000Y-65867290D03*
D18*
G04 #@! TO.P,D3,1*
G04 #@! TO.N,GND*
X138750000Y-65867290D03*
G04 #@! TD*
D17*
G04 #@! TO.P,D2,2*
G04 #@! TO.N,Net-(D2-Pad2)*
X131290000Y-65867290D03*
D18*
G04 #@! TO.P,D2,1*
G04 #@! TO.N,GND*
X128750000Y-65867290D03*
G04 #@! TD*
D19*
G04 #@! TO.P,J9,TN*
G04 #@! TO.N,Net-(J9-PadTN)*
X152500000Y-48410000D03*
G04 #@! TO.P,J9,RN*
G04 #@! TO.N,Net-(J9-PadRN)*
X147500000Y-48410000D03*
G04 #@! TO.P,J9,T*
G04 #@! TO.N,Net-(C10-Pad2)*
X155000000Y-48410000D03*
G04 #@! TO.P,J9,R*
X145000000Y-48410000D03*
D20*
G04 #@! TO.P,J9,S*
G04 #@! TO.N,GND*
X150000000Y-43404000D03*
G04 #@! TD*
D16*
G04 #@! TO.P,RV2,*
G04 #@! TO.N,*
X114189897Y-77517290D03*
X122989897Y-77517290D03*
D17*
G04 #@! TO.P,RV2,1*
G04 #@! TO.N,GND*
X116089897Y-84517290D03*
G04 #@! TO.P,RV2,2*
G04 #@! TO.N,/ANALOG_0*
X118589897Y-84517290D03*
G04 #@! TO.P,RV2,3*
G04 #@! TO.N,+5V*
X121089897Y-84517290D03*
G04 #@! TD*
D16*
G04 #@! TO.P,RV4,*
G04 #@! TO.N,*
X163189897Y-77517290D03*
X171989897Y-77517290D03*
D17*
G04 #@! TO.P,RV4,1*
G04 #@! TO.N,GND*
X165089897Y-84517290D03*
G04 #@! TO.P,RV4,2*
G04 #@! TO.N,/ANALOG_2*
X167589897Y-84517290D03*
G04 #@! TO.P,RV4,3*
G04 #@! TO.N,+5V*
X170089897Y-84517290D03*
G04 #@! TD*
D16*
G04 #@! TO.P,RV3,*
G04 #@! TO.N,*
X128189897Y-77517290D03*
X136989897Y-77517290D03*
D17*
G04 #@! TO.P,RV3,1*
G04 #@! TO.N,GND*
X130089897Y-84517290D03*
G04 #@! TO.P,RV3,2*
G04 #@! TO.N,/ANALOG_1*
X132589897Y-84517290D03*
G04 #@! TO.P,RV3,3*
G04 #@! TO.N,+5V*
X135089897Y-84517290D03*
G04 #@! TD*
D16*
G04 #@! TO.P,RV5,*
G04 #@! TO.N,*
X177189897Y-77517290D03*
X185989897Y-77517290D03*
D17*
G04 #@! TO.P,RV5,1*
G04 #@! TO.N,GND*
X179089897Y-84517290D03*
G04 #@! TO.P,RV5,2*
G04 #@! TO.N,/ANALOG_3*
X181589897Y-84517290D03*
G04 #@! TO.P,RV5,3*
G04 #@! TO.N,+5V*
X184089897Y-84517290D03*
G04 #@! TD*
D21*
G04 #@! TO.P,SW2,1*
G04 #@! TO.N,/DIGITAL_7*
X110089897Y-102017290D03*
G04 #@! TO.P,SW2,2*
G04 #@! TO.N,GND*
X115089897Y-102017290D03*
G04 #@! TO.P,SW2,1*
G04 #@! TO.N,/DIGITAL_7*
X110089897Y-89517290D03*
G04 #@! TO.P,SW2,2*
G04 #@! TO.N,GND*
X115089897Y-89517290D03*
G04 #@! TD*
G04 #@! TO.P,SW7,1*
G04 #@! TO.N,/DIGITAL_13*
X185089897Y-102017290D03*
G04 #@! TO.P,SW7,2*
G04 #@! TO.N,GND*
X190089897Y-102017290D03*
G04 #@! TO.P,SW7,1*
G04 #@! TO.N,/DIGITAL_13*
X185089897Y-89517290D03*
G04 #@! TO.P,SW7,2*
G04 #@! TO.N,GND*
X190089897Y-89517290D03*
G04 #@! TD*
G04 #@! TO.P,SW6,1*
G04 #@! TO.N,/DIGITAL_12*
X172089897Y-102017290D03*
G04 #@! TO.P,SW6,2*
G04 #@! TO.N,GND*
X177089897Y-102017290D03*
G04 #@! TO.P,SW6,1*
G04 #@! TO.N,/DIGITAL_12*
X172089897Y-89517290D03*
G04 #@! TO.P,SW6,2*
G04 #@! TO.N,GND*
X177089897Y-89517290D03*
G04 #@! TD*
G04 #@! TO.P,SW5,1*
G04 #@! TO.N,/DIGITAL_11*
X159089897Y-102017290D03*
G04 #@! TO.P,SW5,2*
G04 #@! TO.N,GND*
X164089897Y-102017290D03*
G04 #@! TO.P,SW5,1*
G04 #@! TO.N,/DIGITAL_11*
X159089897Y-89517290D03*
G04 #@! TO.P,SW5,2*
G04 #@! TO.N,GND*
X164089897Y-89517290D03*
G04 #@! TD*
G04 #@! TO.P,SW4,1*
G04 #@! TO.N,/DIGITAL_10*
X136089897Y-102017290D03*
G04 #@! TO.P,SW4,2*
G04 #@! TO.N,GND*
X141089897Y-102017290D03*
G04 #@! TO.P,SW4,1*
G04 #@! TO.N,/DIGITAL_10*
X136089897Y-89517290D03*
G04 #@! TO.P,SW4,2*
G04 #@! TO.N,GND*
X141089897Y-89517290D03*
G04 #@! TD*
G04 #@! TO.P,SW3,1*
G04 #@! TO.N,/DIGITAL_8*
X123089897Y-102017290D03*
G04 #@! TO.P,SW3,2*
G04 #@! TO.N,GND*
X128089897Y-102017290D03*
G04 #@! TO.P,SW3,1*
G04 #@! TO.N,/DIGITAL_8*
X123089897Y-89517290D03*
G04 #@! TO.P,SW3,2*
G04 #@! TO.N,GND*
X128089897Y-89517290D03*
G04 #@! TD*
D11*
G04 #@! TO.P,C10,2*
G04 #@! TO.N,Net-(C10-Pad2)*
X121880000Y-124460000D03*
D22*
G04 #@! TO.P,C10,1*
G04 #@! TO.N,Net-(C10-Pad1)*
X119380000Y-124460000D03*
G04 #@! TD*
D11*
G04 #@! TO.P,C8,2*
G04 #@! TO.N,GND*
X152360000Y-152400000D03*
D22*
G04 #@! TO.P,C8,1*
G04 #@! TO.N,+5V*
X149860000Y-152400000D03*
G04 #@! TD*
G04 #@! TO.P,C17,1*
G04 #@! TO.N,Net-(C17-Pad1)*
X114300000Y-132080000D03*
D11*
G04 #@! TO.P,C17,2*
G04 #@! TO.N,GND*
X116800000Y-132080000D03*
G04 #@! TD*
G04 #@! TO.P,C13,2*
G04 #@! TO.N,GND*
X144740000Y-152400000D03*
D22*
G04 #@! TO.P,C13,1*
G04 #@! TO.N,Net-(C13-Pad1)*
X142240000Y-152400000D03*
G04 #@! TD*
G04 #@! TO.P,C12,1*
G04 #@! TO.N,+5V*
X160020000Y-119380000D03*
D11*
G04 #@! TO.P,C12,2*
G04 #@! TO.N,GND*
X157520000Y-119380000D03*
G04 #@! TD*
G04 #@! TO.P,C11,2*
G04 #@! TO.N,GND*
X159980000Y-152400000D03*
D22*
G04 #@! TO.P,C11,1*
G04 #@! TO.N,+5V*
X157480000Y-152400000D03*
G04 #@! TD*
G04 #@! TO.P,C7,1*
G04 #@! TO.N,+5V*
X167640000Y-119380000D03*
D11*
G04 #@! TO.P,C7,2*
G04 #@! TO.N,GND*
X165140000Y-119380000D03*
G04 #@! TD*
D22*
G04 #@! TO.P,C15,1*
G04 #@! TO.N,Net-(C14-Pad1)*
X134580000Y-152400000D03*
D11*
G04 #@! TO.P,C15,2*
G04 #@! TO.N,Net-(C15-Pad2)*
X137080000Y-152400000D03*
G04 #@! TD*
G04 #@! TO.P,C9,1*
G04 #@! TO.N,GND*
X167640000Y-142240000D03*
G04 #@! TO.P,C9,2*
G04 #@! TO.N,+5V*
X165140000Y-142240000D03*
G04 #@! TD*
G04 #@! TO.P,C6,2*
G04 #@! TO.N,GND*
X144740000Y-116840000D03*
G04 #@! TO.P,C6,1*
G04 #@! TO.N,Net-(C6-Pad1)*
X142240000Y-116840000D03*
G04 #@! TD*
G04 #@! TO.P,C14,1*
G04 #@! TO.N,Net-(C14-Pad1)*
X142240000Y-147320000D03*
G04 #@! TO.P,C14,2*
G04 #@! TO.N,GND*
X144740000Y-147320000D03*
G04 #@! TD*
G04 #@! TO.P,C5,2*
G04 #@! TO.N,GND*
X152360000Y-116840000D03*
G04 #@! TO.P,C5,1*
G04 #@! TO.N,Net-(C5-Pad1)*
X149860000Y-116840000D03*
G04 #@! TD*
G04 #@! TO.P,C16,1*
G04 #@! TO.N,+5V*
X137160000Y-147320000D03*
G04 #@! TO.P,C16,2*
G04 #@! TO.N,Net-(C16-Pad2)*
X139660000Y-147320000D03*
G04 #@! TD*
G04 #@! TO.P,C4,2*
G04 #@! TO.N,+5V*
X167600000Y-129540000D03*
G04 #@! TO.P,C4,1*
G04 #@! TO.N,GND*
X165100000Y-129540000D03*
G04 #@! TD*
G04 #@! TO.P,C18,1*
G04 #@! TO.N,Net-(C10-Pad1)*
X132040000Y-147320000D03*
G04 #@! TO.P,C18,2*
G04 #@! TO.N,Net-(C18-Pad2)*
X134540000Y-147320000D03*
G04 #@! TD*
D23*
G04 #@! TO.P,J1,4*
G04 #@! TO.N,GND*
X180340000Y-121430000D03*
G04 #@! TO.P,J1,3*
X177800000Y-121430000D03*
G04 #@! TO.P,J1,2*
G04 #@! TO.N,+5V*
X175260000Y-121430000D03*
D24*
G04 #@! TO.P,J1,1*
X172720000Y-121430000D03*
G04 #@! TD*
G04 #@! TO.P,J6,1*
G04 #@! TO.N,/DIGITAL_5*
X157480000Y-129540000D03*
D23*
G04 #@! TO.P,J6,2*
G04 #@! TO.N,/DIGITAL_6*
X154940000Y-129540000D03*
G04 #@! TO.P,J6,3*
G04 #@! TO.N,/DIGITAL_7*
X152400000Y-129540000D03*
G04 #@! TO.P,J6,4*
G04 #@! TO.N,/DIGITAL_8*
X149860000Y-129540000D03*
G04 #@! TD*
G04 #@! TO.P,J8,5*
G04 #@! TO.N,/DIGITAL_13*
X160020000Y-142240000D03*
G04 #@! TO.P,J8,4*
G04 #@! TO.N,/DIGITAL_12*
X157480000Y-142240000D03*
G04 #@! TO.P,J8,3*
G04 #@! TO.N,/DIGITAL_11*
X154940000Y-142240000D03*
G04 #@! TO.P,J8,2*
G04 #@! TO.N,/DIGITAL_10*
X152400000Y-142240000D03*
D24*
G04 #@! TO.P,J8,1*
G04 #@! TO.N,/DIGITAL_9*
X149860000Y-142240000D03*
G04 #@! TD*
G04 #@! TO.P,J5,1*
G04 #@! TO.N,/DIGITAL_0*
X180340000Y-129540000D03*
D23*
G04 #@! TO.P,J5,2*
G04 #@! TO.N,/DIGITAL_1*
X177800000Y-129540000D03*
G04 #@! TO.P,J5,3*
G04 #@! TO.N,/DIGITAL_2*
X175260000Y-129540000D03*
G04 #@! TO.P,J5,4*
G04 #@! TO.N,/DIGITAL_3*
X172720000Y-129540000D03*
G04 #@! TO.P,J5,5*
G04 #@! TO.N,/DIGITAL_4*
X170180000Y-129540000D03*
G04 #@! TD*
D24*
G04 #@! TO.P,J7,1*
G04 #@! TO.N,/ANALOG_0*
X170180000Y-142240000D03*
D23*
G04 #@! TO.P,J7,2*
G04 #@! TO.N,/ANALOG_1*
X172720000Y-142240000D03*
G04 #@! TO.P,J7,3*
G04 #@! TO.N,/ANALOG_2*
X175260000Y-142240000D03*
G04 #@! TO.P,J7,4*
G04 #@! TO.N,/ANALOG_3*
X177800000Y-142240000D03*
G04 #@! TO.P,J7,5*
G04 #@! TO.N,/ANALOG_4*
X180340000Y-142240000D03*
G04 #@! TO.P,J7,6*
G04 #@! TO.N,/ANALOG_5*
X182880000Y-142240000D03*
G04 #@! TD*
D25*
G04 #@! TO.P,Y1,1*
G04 #@! TO.N,Net-(C5-Pad1)*
X149860000Y-121920000D03*
G04 #@! TO.P,Y1,2*
G04 #@! TO.N,Net-(C6-Pad1)*
X144980000Y-121920000D03*
G04 #@! TD*
D22*
G04 #@! TO.P,U2,1*
G04 #@! TO.N,Net-(R2-Pad1)*
X182880000Y-132080000D03*
D10*
G04 #@! TO.P,U2,15*
G04 #@! TO.N,/DIGITAL_9*
X149860000Y-139700000D03*
G04 #@! TO.P,U2,2*
G04 #@! TO.N,/DIGITAL_0*
X180340000Y-132080000D03*
G04 #@! TO.P,U2,16*
G04 #@! TO.N,/DIGITAL_10*
X152400000Y-139700000D03*
G04 #@! TO.P,U2,3*
G04 #@! TO.N,/DIGITAL_1*
X177800000Y-132080000D03*
G04 #@! TO.P,U2,17*
G04 #@! TO.N,/DIGITAL_11*
X154940000Y-139700000D03*
G04 #@! TO.P,U2,4*
G04 #@! TO.N,/DIGITAL_2*
X175260000Y-132080000D03*
G04 #@! TO.P,U2,18*
G04 #@! TO.N,/DIGITAL_12*
X157480000Y-139700000D03*
G04 #@! TO.P,U2,5*
G04 #@! TO.N,/DIGITAL_3*
X172720000Y-132080000D03*
G04 #@! TO.P,U2,19*
G04 #@! TO.N,/DIGITAL_13*
X160020000Y-139700000D03*
G04 #@! TO.P,U2,6*
G04 #@! TO.N,/DIGITAL_4*
X170180000Y-132080000D03*
G04 #@! TO.P,U2,20*
G04 #@! TO.N,+5V*
X162560000Y-139700000D03*
G04 #@! TO.P,U2,7*
X167640000Y-132080000D03*
G04 #@! TO.P,U2,21*
G04 #@! TO.N,Net-(U2-Pad21)*
X165100000Y-139700000D03*
G04 #@! TO.P,U2,8*
G04 #@! TO.N,GND*
X165100000Y-132080000D03*
G04 #@! TO.P,U2,22*
X167640000Y-139700000D03*
G04 #@! TO.P,U2,9*
G04 #@! TO.N,Net-(C5-Pad1)*
X162560000Y-132080000D03*
G04 #@! TO.P,U2,23*
G04 #@! TO.N,/ANALOG_0*
X170180000Y-139700000D03*
G04 #@! TO.P,U2,10*
G04 #@! TO.N,Net-(C6-Pad1)*
X160020000Y-132080000D03*
G04 #@! TO.P,U2,24*
G04 #@! TO.N,/ANALOG_1*
X172720000Y-139700000D03*
G04 #@! TO.P,U2,11*
G04 #@! TO.N,/DIGITAL_5*
X157480000Y-132080000D03*
G04 #@! TO.P,U2,25*
G04 #@! TO.N,/ANALOG_2*
X175260000Y-139700000D03*
G04 #@! TO.P,U2,12*
G04 #@! TO.N,/DIGITAL_6*
X154940000Y-132080000D03*
G04 #@! TO.P,U2,26*
G04 #@! TO.N,/ANALOG_3*
X177800000Y-139700000D03*
G04 #@! TO.P,U2,13*
G04 #@! TO.N,/DIGITAL_7*
X152400000Y-132080000D03*
G04 #@! TO.P,U2,27*
G04 #@! TO.N,/ANALOG_4*
X180340000Y-139700000D03*
G04 #@! TO.P,U2,14*
G04 #@! TO.N,/DIGITAL_8*
X149860000Y-132080000D03*
G04 #@! TO.P,U2,28*
G04 #@! TO.N,/ANALOG_5*
X182880000Y-139700000D03*
G04 #@! TD*
D22*
G04 #@! TO.P,U3,1*
G04 #@! TO.N,Net-(U3-Pad1)*
X129540000Y-139700000D03*
D10*
G04 #@! TO.P,U3,5*
G04 #@! TO.N,Net-(C10-Pad1)*
X121920000Y-132080000D03*
G04 #@! TO.P,U3,2*
G04 #@! TO.N,GND*
X129540000Y-137160000D03*
G04 #@! TO.P,U3,6*
G04 #@! TO.N,+5V*
X121920000Y-134620000D03*
G04 #@! TO.P,U3,3*
G04 #@! TO.N,Net-(R10-Pad1)*
X129540000Y-134620000D03*
G04 #@! TO.P,U3,7*
G04 #@! TO.N,Net-(C17-Pad1)*
X121920000Y-137160000D03*
G04 #@! TO.P,U3,4*
G04 #@! TO.N,Net-(C16-Pad2)*
X129540000Y-132080000D03*
G04 #@! TO.P,U3,8*
G04 #@! TO.N,Net-(U3-Pad8)*
X121920000Y-139700000D03*
G04 #@! TD*
D26*
G04 #@! TO.N,GND*
X116840000Y-121920000D03*
X116840000Y-139700000D03*
X144780000Y-111760000D03*
X149860000Y-111760000D03*
X125000000Y-125000000D03*
G04 #@! TO.N,+5V*
X183189898Y-125367396D03*
G04 #@! TO.N,/DIGITAL_2*
X170180000Y-116840000D03*
G04 #@! TO.N,/DIGITAL_3*
X167640000Y-157480000D03*
X172720000Y-147320000D03*
G04 #@! TO.N,Net-(C14-Pad1)*
X137160000Y-134620000D03*
G04 #@! TO.N,/ANALOG_1*
X154940000Y-114300000D03*
G04 #@! TD*
D27*
G04 #@! TO.N,GND*
X165100000Y-137160000D02*
X167640000Y-139700000D01*
X165100000Y-132080000D02*
X165100000Y-137160000D01*
X167640000Y-144740000D02*
X159980000Y-152400000D01*
X167640000Y-142240000D02*
X167640000Y-144740000D01*
X121920000Y-116840000D02*
X116840000Y-121920000D01*
X116840000Y-132120000D02*
X116800000Y-132080000D01*
X116840000Y-139700000D02*
X116840000Y-132120000D01*
X144740000Y-116840000D02*
X144740000Y-111800000D01*
X144740000Y-111800000D02*
X144780000Y-111760000D01*
X152360000Y-114260000D02*
X149860000Y-111760000D01*
X152360000Y-116840000D02*
X152360000Y-114260000D01*
X127000000Y-111760000D02*
X144780000Y-111760000D01*
X121920000Y-116840000D02*
X127000000Y-111760000D01*
X125000000Y-119920000D02*
X121920000Y-116840000D01*
X125000000Y-125000000D02*
X125000000Y-119920000D01*
G04 #@! TO.N,+5V*
X169189898Y-83617291D02*
X170089897Y-84517290D01*
X168677396Y-83104789D02*
X169189898Y-83617291D01*
X136502398Y-83104789D02*
X168677396Y-83104789D01*
X135089897Y-84517290D02*
X136502398Y-83104789D01*
X175260000Y-121430000D02*
X179197396Y-125367396D01*
X179197396Y-125367396D02*
X183189898Y-125367396D01*
D28*
G04 #@! TO.N,/DIGITAL_2*
X170180000Y-124460000D02*
X175260000Y-129540000D01*
X170180000Y-116840000D02*
X170180000Y-124460000D01*
G04 #@! TO.N,Net-(D2-Pad2)*
X127799999Y-117639999D02*
X127000000Y-116840000D01*
X129475031Y-119315031D02*
X127799999Y-117639999D01*
X129475031Y-128099201D02*
X129475031Y-119315031D01*
X128099204Y-129475028D02*
X129475031Y-128099201D01*
X111058619Y-129475029D02*
X128099204Y-129475028D01*
X106680000Y-125096410D02*
X111058619Y-129475029D01*
X106680000Y-81586185D02*
X106680000Y-125096410D01*
X123623896Y-64642289D02*
X106680000Y-81586185D01*
X130064999Y-64642289D02*
X123623896Y-64642289D01*
X131290000Y-65867290D02*
X130064999Y-64642289D01*
G04 #@! TO.N,Net-(D3-Pad2)*
X107164858Y-88692109D02*
X107164858Y-124944858D01*
X128764676Y-67092291D02*
X107164858Y-88692109D01*
X141290000Y-65867290D02*
X140064999Y-67092291D01*
X140064999Y-67092291D02*
X128764676Y-67092291D01*
X127799999Y-120179999D02*
X127000000Y-119380000D01*
X129025021Y-121405021D02*
X127799999Y-120179999D01*
X129025021Y-127912801D02*
X129025021Y-121405021D01*
X127912803Y-129025019D02*
X129025021Y-127912801D01*
X111245019Y-129025019D02*
X127912803Y-129025019D01*
X107164858Y-124944858D02*
X111245019Y-129025019D01*
G04 #@! TO.N,/DIGITAL_3*
X171920001Y-132879999D02*
X172720000Y-132080000D01*
X171355001Y-133444999D02*
X171920001Y-132879999D01*
X135584989Y-120955011D02*
X135584989Y-124370009D01*
X135584989Y-124370009D02*
X127964989Y-131990009D01*
X127964989Y-131990009D02*
X127964989Y-147969991D01*
X127964989Y-147969991D02*
X137474998Y-157480000D01*
X137474998Y-157480000D02*
X167640000Y-157480000D01*
X137160000Y-119380000D02*
X135584989Y-120955011D01*
X171355001Y-145955001D02*
X171355001Y-142240000D01*
X172720000Y-147320000D02*
X171355001Y-145955001D01*
X171355001Y-143350001D02*
X171355001Y-142240000D01*
X171355001Y-142240000D02*
X171355001Y-133444999D01*
G04 #@! TO.N,/DIGITAL_4*
X146194999Y-136034999D02*
X146194999Y-137700001D01*
X144529997Y-136034999D02*
X146194999Y-136034999D01*
X146194999Y-137700001D02*
X149319999Y-140825001D01*
X136034999Y-127540001D02*
X144529997Y-136034999D01*
X136034999Y-123045001D02*
X136034999Y-127540001D01*
X137160000Y-121920000D02*
X136034999Y-123045001D01*
X168180001Y-140825001D02*
X162000000Y-140825001D01*
X169054999Y-139950003D02*
X168180001Y-140825001D01*
X169054999Y-133205001D02*
X169054999Y-139950003D01*
X170180000Y-132080000D02*
X169054999Y-133205001D01*
X149319999Y-140825001D02*
X162000000Y-140825001D01*
X162000000Y-140825001D02*
X163100001Y-140825001D01*
G04 #@! TO.N,Net-(D4-Pad2)*
X127799999Y-122719999D02*
X127000000Y-121920000D01*
X128575011Y-127726401D02*
X128575011Y-123495011D01*
X128575011Y-123495011D02*
X127799999Y-122719999D01*
X127726402Y-128575010D02*
X128575011Y-127726401D01*
X149027299Y-68129991D02*
X128363386Y-68129991D01*
X151290000Y-65867290D02*
X149027299Y-68129991D01*
X128363386Y-68129991D02*
X107614868Y-88878509D01*
X107614868Y-88878509D02*
X107614868Y-122854868D01*
X107614868Y-122854868D02*
X113335010Y-128575010D01*
X113335010Y-128575010D02*
X127726402Y-128575010D01*
G04 #@! TO.N,Net-(D5-Pad2)*
X127799999Y-125259999D02*
X127000000Y-124460000D01*
X128125001Y-125585001D02*
X127799999Y-125259999D01*
X128125001Y-127540001D02*
X128125001Y-125585001D01*
X127540001Y-128125001D02*
X128125001Y-127540001D01*
X115278854Y-128125001D02*
X127540001Y-128125001D01*
X108064878Y-89064909D02*
X108064878Y-120911025D01*
X128549787Y-68580000D02*
X108064878Y-89064909D01*
X108064878Y-120911025D02*
X115278854Y-128125001D01*
X158577290Y-68580000D02*
X128549787Y-68580000D01*
X161290000Y-65867290D02*
X158577290Y-68580000D01*
G04 #@! TO.N,Net-(C13-Pad1)*
X143980001Y-137959999D02*
X144780000Y-137160000D01*
X143365001Y-138574999D02*
X143980001Y-137959999D01*
X143365001Y-150360001D02*
X143365001Y-138574999D01*
X142240000Y-151485002D02*
X143365001Y-150360001D01*
X142240000Y-152400000D02*
X142240000Y-151485002D01*
G04 #@! TO.N,Net-(C14-Pad1)*
X142240000Y-146188630D02*
X142240000Y-147320000D01*
X135160001Y-130954999D02*
X142240000Y-138034998D01*
X132620001Y-130954999D02*
X135160001Y-130954999D01*
X130080001Y-133494999D02*
X132620001Y-130954999D01*
X128999999Y-133494999D02*
X130080001Y-133494999D01*
X128414999Y-134079999D02*
X128999999Y-133494999D01*
X128414999Y-147284999D02*
X128414999Y-134079999D01*
X133530000Y-152400000D02*
X128414999Y-147284999D01*
X134580000Y-152400000D02*
X133530000Y-152400000D01*
X137160000Y-137160000D02*
X142240000Y-142240000D01*
X137160000Y-134620000D02*
X137160000Y-137160000D01*
X142240000Y-138034998D02*
X142240000Y-142240000D01*
X142240000Y-142240000D02*
X142240000Y-146188630D01*
G04 #@! TO.N,Net-(R10-Pad1)*
X133820001Y-141440001D02*
X134620000Y-142240000D01*
X130665001Y-138285001D02*
X133820001Y-141440001D01*
X130665001Y-135745001D02*
X130665001Y-138285001D01*
X129540000Y-134620000D02*
X130665001Y-135745001D01*
G04 #@! TO.N,Net-(R9-Pad2)*
X188000000Y-63500000D02*
X186500000Y-65000000D01*
X189313002Y-63500000D02*
X188000000Y-63500000D01*
X190225001Y-64411999D02*
X189313002Y-63500000D01*
X190225001Y-86904786D02*
X190225001Y-64411999D01*
X187960000Y-89169787D02*
X190225001Y-86904786D01*
X187960000Y-130414998D02*
X187960000Y-89169787D01*
X189085001Y-131539999D02*
X187960000Y-130414998D01*
X189085001Y-137774001D02*
X189085001Y-131539999D01*
X171468993Y-155390009D02*
X189085001Y-137774001D01*
X134620000Y-132080000D02*
X136327499Y-133787499D01*
X136327499Y-146487499D02*
X135954999Y-146859999D01*
X136327499Y-133787499D02*
X136327499Y-146487499D01*
X135954999Y-146859999D02*
X135954999Y-152940001D01*
X135954999Y-152940001D02*
X138405007Y-155390009D01*
X138405007Y-155390009D02*
X171468993Y-155390009D01*
G04 #@! TO.N,Net-(C18-Pad2)*
X135419999Y-140499999D02*
X134620000Y-139700000D01*
X135745001Y-140825001D02*
X135419999Y-140499999D01*
X135745001Y-146114999D02*
X135745001Y-140825001D01*
X134540000Y-147320000D02*
X135745001Y-146114999D01*
G04 #@! TO.N,Net-(D6-Pad2)*
X125868630Y-127000000D02*
X127000000Y-127000000D01*
X108514887Y-115663030D02*
X119851857Y-127000000D01*
X119851857Y-127000000D02*
X125868630Y-127000000D01*
X116387496Y-85742291D02*
X108514887Y-93614900D01*
X116677898Y-85742291D02*
X116387496Y-85742291D01*
X117314898Y-85105291D02*
X116677898Y-85742291D01*
X108514887Y-93614900D02*
X108514887Y-115663030D01*
X117314898Y-83929289D02*
X117314898Y-85105291D01*
X121401896Y-79842291D02*
X117314898Y-83929289D01*
X157314999Y-79842291D02*
X121401896Y-79842291D01*
X171290000Y-65867290D02*
X157314999Y-79842291D01*
G04 #@! TO.N,Net-(C15-Pad2)*
X186664907Y-80283282D02*
X189000000Y-77948189D01*
X186664907Y-137844093D02*
X186664907Y-80283282D01*
X183444001Y-141064999D02*
X186664907Y-137844093D01*
X189000000Y-77948189D02*
X189000000Y-65000000D01*
X137080000Y-152400000D02*
X139620000Y-154940000D01*
X169379002Y-154940000D02*
X181704999Y-142614003D01*
X181704999Y-142614003D02*
X181704999Y-141675999D01*
X181704999Y-141675999D02*
X182315999Y-141064999D01*
X139620000Y-154940000D02*
X169379002Y-154940000D01*
X182315999Y-141064999D02*
X183444001Y-141064999D01*
G04 #@! TO.N,/ANALOG_1*
X154940000Y-112753583D02*
X154940000Y-114300000D01*
X132589897Y-84517290D02*
X132589897Y-90403480D01*
X132589897Y-90403480D02*
X154940000Y-112753583D01*
G04 #@! TO.N,/DIGITAL_10*
X137589897Y-102017290D02*
X136089897Y-102017290D01*
X152400000Y-139700000D02*
X152400000Y-136285002D01*
X152400000Y-136285002D02*
X143904999Y-127790001D01*
X143904999Y-127790001D02*
X143904999Y-121403999D01*
X143904999Y-121403999D02*
X147320000Y-117988998D01*
X147320000Y-117988998D02*
X147320000Y-111747393D01*
X147320000Y-111747393D02*
X137589897Y-102017290D01*
G04 #@! TO.N,/DIGITAL_11*
X155739999Y-138900001D02*
X154940000Y-139700000D01*
X156304999Y-138335001D02*
X155739999Y-138900001D01*
X156304999Y-106552188D02*
X156304999Y-138335001D01*
X159089897Y-103767290D02*
X156304999Y-106552188D01*
X159089897Y-102017290D02*
X159089897Y-103767290D01*
G04 #@! TO.N,/DIGITAL_12*
X158279999Y-138900001D02*
X157480000Y-139700000D01*
X158894999Y-138285001D02*
X158279999Y-138900001D01*
X158894999Y-116962188D02*
X158894999Y-138285001D01*
X172089897Y-103767290D02*
X158894999Y-116962188D01*
X172089897Y-102017290D02*
X172089897Y-103767290D01*
G04 #@! TO.N,/DIGITAL_13*
X160819999Y-138900001D02*
X160020000Y-139700000D01*
X161434999Y-138285001D02*
X160819999Y-138900001D01*
X161434999Y-120505001D02*
X161434999Y-138285001D01*
X179922710Y-102017290D02*
X161434999Y-120505001D01*
X185089897Y-102017290D02*
X179922710Y-102017290D01*
G04 #@! TO.N,/DIGITAL_7*
X153249999Y-128690001D02*
X152400000Y-129540000D01*
X153485001Y-128454999D02*
X153249999Y-128690001D01*
X153485001Y-111934994D02*
X153485001Y-128454999D01*
X141292278Y-99742271D02*
X153485001Y-111934994D01*
X110089897Y-101767290D02*
X112114916Y-99742271D01*
X112114916Y-99742271D02*
X141292278Y-99742271D01*
X110089897Y-102017290D02*
X110089897Y-101767290D01*
G04 #@! TO.N,/DIGITAL_8*
X149010001Y-128690001D02*
X149860000Y-129540000D01*
X148734999Y-128414999D02*
X149010001Y-128690001D01*
X148734999Y-112184992D02*
X148734999Y-128414999D01*
X136742287Y-100192280D02*
X148734999Y-112184992D01*
X123089897Y-100267290D02*
X123164907Y-100192280D01*
X123164907Y-100192280D02*
X136742287Y-100192280D01*
X123089897Y-102017290D02*
X123089897Y-100267290D01*
G04 #@! TD*
D29*
G04 #@! TO.N,GND*
G36*
X190757583Y-40746966D02*
X191497086Y-40949271D01*
X192189074Y-41279333D01*
X192811679Y-41726720D01*
X193345214Y-42277286D01*
X193772822Y-42913635D01*
X194080987Y-43615652D01*
X194261229Y-44366411D01*
X194308946Y-45016203D01*
X194308947Y-129978796D01*
X194233484Y-132087009D01*
X194008802Y-134172198D01*
X193635609Y-136235981D01*
X193115813Y-138267811D01*
X192452080Y-140257268D01*
X191647810Y-142194167D01*
X190707099Y-144068636D01*
X189634788Y-145871029D01*
X188436354Y-147592143D01*
X187117922Y-149223178D01*
X185686261Y-150755763D01*
X184148677Y-152182076D01*
X182513071Y-153494787D01*
X180787770Y-154687217D01*
X178981645Y-155753229D01*
X177103927Y-156687381D01*
X175164210Y-157484894D01*
X173172451Y-158141678D01*
X171138826Y-158654377D01*
X169073750Y-159020364D01*
X166987182Y-159237830D01*
X164982297Y-159306091D01*
X135006214Y-159306091D01*
X132898028Y-159230629D01*
X130812839Y-159005947D01*
X128749056Y-158632754D01*
X126717226Y-158112958D01*
X124727769Y-157449225D01*
X122790870Y-156644955D01*
X120916401Y-155704244D01*
X119114008Y-154631933D01*
X117392894Y-153433499D01*
X115761859Y-152115067D01*
X114229274Y-150683406D01*
X113174664Y-149546522D01*
X117758946Y-149546522D01*
X117758946Y-150435660D01*
X118099205Y-151257117D01*
X118727920Y-151885832D01*
X119549377Y-152226091D01*
X120438515Y-152226091D01*
X121259972Y-151885832D01*
X121888687Y-151257117D01*
X122228946Y-150435660D01*
X122228946Y-149546522D01*
X121888687Y-148725065D01*
X121259972Y-148096350D01*
X120438515Y-147756091D01*
X119549377Y-147756091D01*
X118727920Y-148096350D01*
X118099205Y-148725065D01*
X117758946Y-149546522D01*
X113174664Y-149546522D01*
X112802961Y-149145822D01*
X111490250Y-147510216D01*
X110297820Y-145784915D01*
X109231808Y-143978790D01*
X108297656Y-142101072D01*
X107500143Y-140161355D01*
X106843359Y-138169596D01*
X106330660Y-136135971D01*
X105964673Y-134070895D01*
X105747207Y-131984327D01*
X105723227Y-131280000D01*
X112852560Y-131280000D01*
X112852560Y-132880000D01*
X112901843Y-133127765D01*
X113042191Y-133337809D01*
X113252235Y-133478157D01*
X113500000Y-133527440D01*
X115100000Y-133527440D01*
X115347765Y-133478157D01*
X115557809Y-133337809D01*
X115698157Y-133127765D01*
X115706117Y-133087745D01*
X115971861Y-133087745D01*
X116045995Y-133333864D01*
X116583223Y-133526965D01*
X117153454Y-133499778D01*
X117554005Y-133333864D01*
X117628139Y-133087745D01*
X116800000Y-132259605D01*
X115971861Y-133087745D01*
X115706117Y-133087745D01*
X115744693Y-132893813D01*
X115792255Y-132908139D01*
X116620395Y-132080000D01*
X116979605Y-132080000D01*
X117807745Y-132908139D01*
X118053864Y-132834005D01*
X118246965Y-132296777D01*
X118236630Y-132080000D01*
X120456887Y-132080000D01*
X120568260Y-132639909D01*
X120885423Y-133114577D01*
X121237758Y-133350000D01*
X120885423Y-133585423D01*
X120568260Y-134060091D01*
X120456887Y-134620000D01*
X120568260Y-135179909D01*
X120885423Y-135654577D01*
X121237758Y-135890000D01*
X120885423Y-136125423D01*
X120568260Y-136600091D01*
X120456887Y-137160000D01*
X120568260Y-137719909D01*
X120885423Y-138194577D01*
X121237758Y-138430000D01*
X120885423Y-138665423D01*
X120568260Y-139140091D01*
X120456887Y-139700000D01*
X120568260Y-140259909D01*
X120885423Y-140734577D01*
X121360091Y-141051740D01*
X121778667Y-141135000D01*
X122061333Y-141135000D01*
X122479909Y-141051740D01*
X122954577Y-140734577D01*
X123271740Y-140259909D01*
X123383113Y-139700000D01*
X123271740Y-139140091D01*
X122954577Y-138665423D01*
X122602242Y-138430000D01*
X122954577Y-138194577D01*
X123271740Y-137719909D01*
X123383113Y-137160000D01*
X123271740Y-136600091D01*
X122954577Y-136125423D01*
X122602242Y-135890000D01*
X122954577Y-135654577D01*
X123271740Y-135179909D01*
X123383113Y-134620000D01*
X123271740Y-134060091D01*
X122954577Y-133585423D01*
X122602242Y-133350000D01*
X122954577Y-133114577D01*
X123271740Y-132639909D01*
X123383113Y-132080000D01*
X123271740Y-131520091D01*
X122954577Y-131045423D01*
X122479909Y-130728260D01*
X122061333Y-130645000D01*
X121778667Y-130645000D01*
X121360091Y-130728260D01*
X120885423Y-131045423D01*
X120568260Y-131520091D01*
X120456887Y-132080000D01*
X118236630Y-132080000D01*
X118219778Y-131726546D01*
X118053864Y-131325995D01*
X117807745Y-131251861D01*
X116979605Y-132080000D01*
X116620395Y-132080000D01*
X115792255Y-131251861D01*
X115744693Y-131266187D01*
X115706118Y-131072255D01*
X115971861Y-131072255D01*
X116800000Y-131900395D01*
X117628139Y-131072255D01*
X117554005Y-130826136D01*
X117016777Y-130633035D01*
X116446546Y-130660222D01*
X116045995Y-130826136D01*
X115971861Y-131072255D01*
X115706118Y-131072255D01*
X115698157Y-131032235D01*
X115557809Y-130822191D01*
X115347765Y-130681843D01*
X115100000Y-130632560D01*
X113500000Y-130632560D01*
X113252235Y-130681843D01*
X113042191Y-130822191D01*
X112901843Y-131032235D01*
X112852560Y-131280000D01*
X105723227Y-131280000D01*
X105678946Y-129979442D01*
X105678946Y-81586185D01*
X105905112Y-81586185D01*
X105920000Y-81661032D01*
X105920001Y-125021558D01*
X105905112Y-125096410D01*
X105920001Y-125171262D01*
X105964097Y-125392947D01*
X106132072Y-125644339D01*
X106195528Y-125686739D01*
X110468295Y-129959508D01*
X110510691Y-130022958D01*
X110574141Y-130065354D01*
X110574145Y-130065358D01*
X110762081Y-130190932D01*
X110762082Y-130190932D01*
X110762083Y-130190933D01*
X110983768Y-130235029D01*
X110983771Y-130235029D01*
X111058618Y-130249917D01*
X111133465Y-130235029D01*
X128024352Y-130235027D01*
X128099204Y-130249916D01*
X128395741Y-130190931D01*
X128583676Y-130065357D01*
X128583677Y-130065356D01*
X128647133Y-130022956D01*
X128689533Y-129959500D01*
X129959504Y-128689530D01*
X130022960Y-128647130D01*
X130190935Y-128395738D01*
X130235031Y-128174053D01*
X130235031Y-128174049D01*
X130249919Y-128099202D01*
X130235031Y-128024355D01*
X130235031Y-119389878D01*
X130249919Y-119315031D01*
X130235031Y-119240184D01*
X130235031Y-119240179D01*
X130190935Y-119018494D01*
X130022960Y-118767102D01*
X129959504Y-118724702D01*
X128413103Y-117178302D01*
X128435000Y-117125439D01*
X128435000Y-116554561D01*
X128216534Y-116027138D01*
X127812862Y-115623466D01*
X127285439Y-115405000D01*
X126714561Y-115405000D01*
X126187138Y-115623466D01*
X125783466Y-116027138D01*
X125565000Y-116554561D01*
X125565000Y-117125439D01*
X125783466Y-117652862D01*
X126187138Y-118056534D01*
X126316216Y-118110000D01*
X126187138Y-118163466D01*
X125783466Y-118567138D01*
X125565000Y-119094561D01*
X125565000Y-119665439D01*
X125783466Y-120192862D01*
X126187138Y-120596534D01*
X126316216Y-120650000D01*
X126187138Y-120703466D01*
X125783466Y-121107138D01*
X125565000Y-121634561D01*
X125565000Y-122205439D01*
X125783466Y-122732862D01*
X126187138Y-123136534D01*
X126316216Y-123190000D01*
X126187138Y-123243466D01*
X125783466Y-123647138D01*
X125565000Y-124174561D01*
X125565000Y-124745439D01*
X125783466Y-125272862D01*
X126187138Y-125676534D01*
X126316216Y-125730000D01*
X126187138Y-125783466D01*
X125783466Y-126187138D01*
X125761570Y-126240000D01*
X120166659Y-126240000D01*
X119834099Y-125907440D01*
X120180000Y-125907440D01*
X120427765Y-125858157D01*
X120637809Y-125717809D01*
X120778157Y-125507765D01*
X120798101Y-125407497D01*
X121067138Y-125676534D01*
X121594561Y-125895000D01*
X122165439Y-125895000D01*
X122692862Y-125676534D01*
X123096534Y-125272862D01*
X123315000Y-124745439D01*
X123315000Y-124174561D01*
X123096534Y-123647138D01*
X122692862Y-123243466D01*
X122165439Y-123025000D01*
X121594561Y-123025000D01*
X121067138Y-123243466D01*
X120798101Y-123512503D01*
X120778157Y-123412235D01*
X120637809Y-123202191D01*
X120427765Y-123061843D01*
X120180000Y-123012560D01*
X118580000Y-123012560D01*
X118332235Y-123061843D01*
X118122191Y-123202191D01*
X117981843Y-123412235D01*
X117932560Y-123660000D01*
X117932560Y-124005901D01*
X109274887Y-115348229D01*
X109274887Y-115089940D01*
X114442500Y-115089940D01*
X114442500Y-118590060D01*
X114491783Y-118837825D01*
X114632131Y-119047869D01*
X114842175Y-119188217D01*
X115089940Y-119237500D01*
X118590060Y-119237500D01*
X118837825Y-119188217D01*
X119047869Y-119047869D01*
X119188217Y-118837825D01*
X119237500Y-118590060D01*
X119237500Y-118534571D01*
X120405034Y-118534571D01*
X120595328Y-118879319D01*
X121476576Y-119231015D01*
X122425332Y-119218701D01*
X123244672Y-118879319D01*
X123434966Y-118534571D01*
X121920000Y-117019605D01*
X120405034Y-118534571D01*
X119237500Y-118534571D01*
X119237500Y-116396576D01*
X119528985Y-116396576D01*
X119541299Y-117345332D01*
X119880681Y-118164672D01*
X120225429Y-118354966D01*
X121740395Y-116840000D01*
X122099605Y-116840000D01*
X123614571Y-118354966D01*
X123959319Y-118164672D01*
X124311015Y-117283424D01*
X124298701Y-116334668D01*
X123959319Y-115515328D01*
X123614571Y-115325034D01*
X122099605Y-116840000D01*
X121740395Y-116840000D01*
X120225429Y-115325034D01*
X119880681Y-115515328D01*
X119528985Y-116396576D01*
X119237500Y-116396576D01*
X119237500Y-115145429D01*
X120405034Y-115145429D01*
X121920000Y-116660395D01*
X123434966Y-115145429D01*
X123244672Y-114800681D01*
X122363424Y-114448985D01*
X121414668Y-114461299D01*
X120595328Y-114800681D01*
X120405034Y-115145429D01*
X119237500Y-115145429D01*
X119237500Y-115089940D01*
X119188217Y-114842175D01*
X119047869Y-114632131D01*
X118837825Y-114491783D01*
X118590060Y-114442500D01*
X115089940Y-114442500D01*
X114842175Y-114491783D01*
X114632131Y-114632131D01*
X114491783Y-114842175D01*
X114442500Y-115089940D01*
X109274887Y-115089940D01*
X109274887Y-103989787D01*
X109354407Y-104042921D01*
X110089897Y-104189219D01*
X110825386Y-104042921D01*
X111448906Y-103626299D01*
X111865528Y-103002780D01*
X111974897Y-102452945D01*
X111974897Y-102441330D01*
X113204782Y-102441330D01*
X113414880Y-103149484D01*
X113879984Y-103723332D01*
X114529286Y-104075511D01*
X114670252Y-104104985D01*
X114962897Y-103988862D01*
X114962897Y-102144290D01*
X115216897Y-102144290D01*
X115216897Y-103988862D01*
X115509542Y-104104985D01*
X115650508Y-104075511D01*
X116299810Y-103723332D01*
X116764914Y-103149484D01*
X116975012Y-102441330D01*
X116820279Y-102144290D01*
X115216897Y-102144290D01*
X114962897Y-102144290D01*
X113359515Y-102144290D01*
X113204782Y-102441330D01*
X111974897Y-102441330D01*
X111974897Y-101581636D01*
X111871279Y-101060711D01*
X112429719Y-100502271D01*
X113725160Y-100502271D01*
X113414880Y-100885096D01*
X113204782Y-101593250D01*
X113359515Y-101890290D01*
X114962897Y-101890290D01*
X114962897Y-101870290D01*
X115216897Y-101870290D01*
X115216897Y-101890290D01*
X116820279Y-101890290D01*
X116975012Y-101593250D01*
X116764914Y-100885096D01*
X116454634Y-100502271D01*
X121668086Y-100502271D01*
X121314266Y-101031800D01*
X121204897Y-101581635D01*
X121204897Y-102452944D01*
X121314266Y-103002779D01*
X121730888Y-103626299D01*
X122354407Y-104042921D01*
X123089897Y-104189219D01*
X123825386Y-104042921D01*
X124448906Y-103626299D01*
X124865528Y-103002780D01*
X124974897Y-102452945D01*
X124974897Y-102441330D01*
X126204782Y-102441330D01*
X126414880Y-103149484D01*
X126879984Y-103723332D01*
X127529286Y-104075511D01*
X127670252Y-104104985D01*
X127962897Y-103988862D01*
X127962897Y-102144290D01*
X128216897Y-102144290D01*
X128216897Y-103988862D01*
X128509542Y-104104985D01*
X128650508Y-104075511D01*
X129299810Y-103723332D01*
X129764914Y-103149484D01*
X129975012Y-102441330D01*
X129820279Y-102144290D01*
X128216897Y-102144290D01*
X127962897Y-102144290D01*
X126359515Y-102144290D01*
X126204782Y-102441330D01*
X124974897Y-102441330D01*
X124974897Y-101581636D01*
X124865528Y-101031800D01*
X124812394Y-100952280D01*
X126394948Y-100952280D01*
X126204782Y-101593250D01*
X126359515Y-101890290D01*
X127962897Y-101890290D01*
X127962897Y-101870290D01*
X128216897Y-101870290D01*
X128216897Y-101890290D01*
X129820279Y-101890290D01*
X129975012Y-101593250D01*
X129784846Y-100952280D01*
X134367400Y-100952280D01*
X134314266Y-101031800D01*
X134204897Y-101581635D01*
X134204897Y-102452944D01*
X134314266Y-103002779D01*
X134730888Y-103626299D01*
X135354407Y-104042921D01*
X136089897Y-104189219D01*
X136825386Y-104042921D01*
X137448906Y-103626299D01*
X137719353Y-103221547D01*
X146560001Y-112062196D01*
X146560000Y-117674196D01*
X143420527Y-120813670D01*
X143357071Y-120856070D01*
X143314671Y-120919526D01*
X143314670Y-120919527D01*
X143189096Y-121107462D01*
X143130111Y-121403999D01*
X143145000Y-121478851D01*
X143144999Y-127715154D01*
X143130111Y-127790001D01*
X143144999Y-127864848D01*
X143144999Y-127864852D01*
X143189095Y-128086537D01*
X143357070Y-128337930D01*
X143420529Y-128380332D01*
X151640001Y-136599805D01*
X151640000Y-138481956D01*
X151365423Y-138665423D01*
X151130000Y-139017758D01*
X150894577Y-138665423D01*
X150419909Y-138348260D01*
X150001333Y-138265000D01*
X149718667Y-138265000D01*
X149300091Y-138348260D01*
X148825423Y-138665423D01*
X148589022Y-139019222D01*
X146954999Y-137385200D01*
X146954999Y-136109851D01*
X146969888Y-136034999D01*
X146910903Y-135738462D01*
X146742928Y-135487070D01*
X146491536Y-135319095D01*
X146269851Y-135274999D01*
X146194999Y-135260110D01*
X146120147Y-135274999D01*
X146061923Y-135274999D01*
X146215000Y-134905439D01*
X146215000Y-134334561D01*
X145996534Y-133807138D01*
X145592862Y-133403466D01*
X145463784Y-133350000D01*
X145592862Y-133296534D01*
X145996534Y-132892862D01*
X146215000Y-132365439D01*
X146215000Y-131794561D01*
X145996534Y-131267138D01*
X145592862Y-130863466D01*
X145065439Y-130645000D01*
X144494561Y-130645000D01*
X143967138Y-130863466D01*
X143563466Y-131267138D01*
X143345000Y-131794561D01*
X143345000Y-132365439D01*
X143563466Y-132892862D01*
X143967138Y-133296534D01*
X144096216Y-133350000D01*
X143967138Y-133403466D01*
X143563466Y-133807138D01*
X143508833Y-133939033D01*
X137840778Y-128270978D01*
X138194577Y-128034577D01*
X138511740Y-127559909D01*
X138623113Y-127000000D01*
X138511740Y-126440091D01*
X138194577Y-125965423D01*
X137842242Y-125730000D01*
X138194577Y-125494577D01*
X138511740Y-125019909D01*
X138623113Y-124460000D01*
X138511740Y-123900091D01*
X138194577Y-123425423D01*
X137842242Y-123190000D01*
X138194577Y-122954577D01*
X138511740Y-122479909D01*
X138623113Y-121920000D01*
X138511740Y-121360091D01*
X138194577Y-120885423D01*
X137842242Y-120650000D01*
X138194577Y-120414577D01*
X138511740Y-119939909D01*
X138623113Y-119380000D01*
X138511740Y-118820091D01*
X138194577Y-118345423D01*
X137842242Y-118110000D01*
X138194577Y-117874577D01*
X138511740Y-117399909D01*
X138623113Y-116840000D01*
X138566336Y-116554561D01*
X140805000Y-116554561D01*
X140805000Y-117125439D01*
X141023466Y-117652862D01*
X141427138Y-118056534D01*
X141954561Y-118275000D01*
X142525439Y-118275000D01*
X143052862Y-118056534D01*
X143261651Y-117847745D01*
X143911861Y-117847745D01*
X143985995Y-118093864D01*
X144523223Y-118286965D01*
X145093454Y-118259778D01*
X145494005Y-118093864D01*
X145568139Y-117847745D01*
X144740000Y-117019605D01*
X143911861Y-117847745D01*
X143261651Y-117847745D01*
X143456534Y-117652862D01*
X143483525Y-117587701D01*
X143486136Y-117594005D01*
X143732255Y-117668139D01*
X144560395Y-116840000D01*
X144919605Y-116840000D01*
X145747745Y-117668139D01*
X145993864Y-117594005D01*
X146186965Y-117056777D01*
X146159778Y-116486546D01*
X145993864Y-116085995D01*
X145747745Y-116011861D01*
X144919605Y-116840000D01*
X144560395Y-116840000D01*
X143732255Y-116011861D01*
X143486136Y-116085995D01*
X143483710Y-116092746D01*
X143456534Y-116027138D01*
X143261651Y-115832255D01*
X143911861Y-115832255D01*
X144740000Y-116660395D01*
X145568139Y-115832255D01*
X145494005Y-115586136D01*
X144956777Y-115393035D01*
X144386546Y-115420222D01*
X143985995Y-115586136D01*
X143911861Y-115832255D01*
X143261651Y-115832255D01*
X143052862Y-115623466D01*
X142525439Y-115405000D01*
X141954561Y-115405000D01*
X141427138Y-115623466D01*
X141023466Y-116027138D01*
X140805000Y-116554561D01*
X138566336Y-116554561D01*
X138511740Y-116280091D01*
X138194577Y-115805423D01*
X137719909Y-115488260D01*
X137301333Y-115405000D01*
X137018667Y-115405000D01*
X136600091Y-115488260D01*
X136125423Y-115805423D01*
X135808260Y-116280091D01*
X135696887Y-116840000D01*
X135808260Y-117399909D01*
X136125423Y-117874577D01*
X136477758Y-118110000D01*
X136125423Y-118345423D01*
X135808260Y-118820091D01*
X135696887Y-119380000D01*
X135761312Y-119703886D01*
X135100519Y-120364680D01*
X135037060Y-120407082D01*
X134869085Y-120658475D01*
X134824989Y-120880160D01*
X134824989Y-120880164D01*
X134810101Y-120955011D01*
X134824989Y-121029858D01*
X134824990Y-124055205D01*
X127480519Y-131399678D01*
X127417060Y-131442080D01*
X127249085Y-131693473D01*
X127204989Y-131915158D01*
X127204989Y-131915162D01*
X127190101Y-131990009D01*
X127204989Y-132064856D01*
X127204990Y-147895139D01*
X127190101Y-147969991D01*
X127249086Y-148266528D01*
X127358708Y-148430588D01*
X127417061Y-148517920D01*
X127480517Y-148560320D01*
X136884669Y-157964473D01*
X136927069Y-158027929D01*
X136990525Y-158070329D01*
X137178460Y-158195904D01*
X137204804Y-158201144D01*
X137400146Y-158240000D01*
X137400150Y-158240000D01*
X137474998Y-158254888D01*
X137549846Y-158240000D01*
X166936289Y-158240000D01*
X167053720Y-158357431D01*
X167434126Y-158515000D01*
X167845874Y-158515000D01*
X168226280Y-158357431D01*
X168517431Y-158066280D01*
X168675000Y-157685874D01*
X168675000Y-157274126D01*
X168517431Y-156893720D01*
X168226280Y-156602569D01*
X167845874Y-156445000D01*
X167434126Y-156445000D01*
X167053720Y-156602569D01*
X166936289Y-156720000D01*
X137789800Y-156720000D01*
X134917240Y-153847440D01*
X135380000Y-153847440D01*
X135627765Y-153798157D01*
X135694058Y-153753861D01*
X137814678Y-155874482D01*
X137857078Y-155937938D01*
X138108470Y-156105913D01*
X138330155Y-156150009D01*
X138330159Y-156150009D01*
X138405007Y-156164897D01*
X138479855Y-156150009D01*
X171394146Y-156150009D01*
X171468993Y-156164897D01*
X171543840Y-156150009D01*
X171543845Y-156150009D01*
X171765530Y-156105913D01*
X172016922Y-155937938D01*
X172059324Y-155874479D01*
X177758946Y-150174858D01*
X177758946Y-150435660D01*
X178099205Y-151257117D01*
X178727920Y-151885832D01*
X179549377Y-152226091D01*
X180438515Y-152226091D01*
X181259972Y-151885832D01*
X181888687Y-151257117D01*
X182228946Y-150435660D01*
X182228946Y-149546522D01*
X181888687Y-148725065D01*
X181259972Y-148096350D01*
X180438515Y-147756091D01*
X180177713Y-147756091D01*
X185693804Y-142240000D01*
X186496887Y-142240000D01*
X186608260Y-142799909D01*
X186925423Y-143274577D01*
X187400091Y-143591740D01*
X187818667Y-143675000D01*
X188101333Y-143675000D01*
X188519909Y-143591740D01*
X188994577Y-143274577D01*
X189311740Y-142799909D01*
X189423113Y-142240000D01*
X189311740Y-141680091D01*
X188994577Y-141205423D01*
X188519909Y-140888260D01*
X188101333Y-140805000D01*
X187818667Y-140805000D01*
X187400091Y-140888260D01*
X186925423Y-141205423D01*
X186608260Y-141680091D01*
X186496887Y-142240000D01*
X185693804Y-142240000D01*
X189569477Y-138364328D01*
X189632930Y-138321930D01*
X189675328Y-138258477D01*
X189675330Y-138258475D01*
X189800904Y-138070539D01*
X189800905Y-138070538D01*
X189845001Y-137848853D01*
X189845001Y-137848849D01*
X189859889Y-137774002D01*
X189845001Y-137699155D01*
X189845001Y-131614847D01*
X189859889Y-131539999D01*
X189845001Y-131465151D01*
X189845001Y-131465147D01*
X189807000Y-131274105D01*
X189800905Y-131243461D01*
X189675330Y-131055526D01*
X189632930Y-130992070D01*
X189569474Y-130949670D01*
X188720000Y-130100197D01*
X188720000Y-121877912D01*
X188727920Y-121885832D01*
X189549377Y-122226091D01*
X190438515Y-122226091D01*
X191259972Y-121885832D01*
X191888687Y-121257117D01*
X192228946Y-120435660D01*
X192228946Y-119546522D01*
X191888687Y-118725065D01*
X191259972Y-118096350D01*
X190438515Y-117756091D01*
X189549377Y-117756091D01*
X188727920Y-118096350D01*
X188720000Y-118104270D01*
X188720000Y-103525943D01*
X188879984Y-103723332D01*
X189529286Y-104075511D01*
X189670252Y-104104985D01*
X189962897Y-103988862D01*
X189962897Y-102144290D01*
X190216897Y-102144290D01*
X190216897Y-103988862D01*
X190509542Y-104104985D01*
X190650508Y-104075511D01*
X191299810Y-103723332D01*
X191764914Y-103149484D01*
X191975012Y-102441330D01*
X191820279Y-102144290D01*
X190216897Y-102144290D01*
X189962897Y-102144290D01*
X189942897Y-102144290D01*
X189942897Y-101890290D01*
X189962897Y-101890290D01*
X189962897Y-100045718D01*
X190216897Y-100045718D01*
X190216897Y-101890290D01*
X191820279Y-101890290D01*
X191975012Y-101593250D01*
X191764914Y-100885096D01*
X191299810Y-100311248D01*
X190650508Y-99959069D01*
X190509542Y-99929595D01*
X190216897Y-100045718D01*
X189962897Y-100045718D01*
X189670252Y-99929595D01*
X189529286Y-99959069D01*
X188879984Y-100311248D01*
X188720000Y-100508637D01*
X188720000Y-91025943D01*
X188879984Y-91223332D01*
X189529286Y-91575511D01*
X189670252Y-91604985D01*
X189962897Y-91488862D01*
X189962897Y-89644290D01*
X190216897Y-89644290D01*
X190216897Y-91488862D01*
X190509542Y-91604985D01*
X190650508Y-91575511D01*
X191299810Y-91223332D01*
X191764914Y-90649484D01*
X191975012Y-89941330D01*
X191820279Y-89644290D01*
X190216897Y-89644290D01*
X189962897Y-89644290D01*
X189942897Y-89644290D01*
X189942897Y-89390290D01*
X189962897Y-89390290D01*
X189962897Y-89370290D01*
X190216897Y-89370290D01*
X190216897Y-89390290D01*
X191820279Y-89390290D01*
X191975012Y-89093250D01*
X191764914Y-88385096D01*
X191299810Y-87811248D01*
X190712830Y-87492872D01*
X190772930Y-87452715D01*
X190940905Y-87201323D01*
X190985001Y-86979638D01*
X190985001Y-86979634D01*
X190999889Y-86904787D01*
X190985001Y-86829940D01*
X190985001Y-64486845D01*
X190999889Y-64411998D01*
X190985001Y-64337151D01*
X190985001Y-64337147D01*
X190940905Y-64115462D01*
X190895781Y-64047929D01*
X190815330Y-63927525D01*
X190815328Y-63927523D01*
X190772930Y-63864070D01*
X190709476Y-63821672D01*
X189903333Y-63015529D01*
X189860931Y-62952071D01*
X189609539Y-62784096D01*
X189387854Y-62740000D01*
X189387849Y-62740000D01*
X189313002Y-62725112D01*
X189238155Y-62740000D01*
X188074846Y-62740000D01*
X187999999Y-62725112D01*
X187925152Y-62740000D01*
X187925148Y-62740000D01*
X187703463Y-62784096D01*
X187703461Y-62784097D01*
X187703462Y-62784097D01*
X187515526Y-62909671D01*
X187515524Y-62909673D01*
X187452071Y-62952071D01*
X187409673Y-63015524D01*
X186914838Y-63510360D01*
X186805330Y-63465000D01*
X186194670Y-63465000D01*
X185630493Y-63698690D01*
X185198690Y-64130493D01*
X185195461Y-64138290D01*
X185080159Y-64099446D01*
X184179605Y-65000000D01*
X185080159Y-65900554D01*
X185195461Y-65861710D01*
X185198690Y-65869507D01*
X185630493Y-66301310D01*
X186194670Y-66535000D01*
X186805330Y-66535000D01*
X187369507Y-66301310D01*
X187750000Y-65920817D01*
X188130493Y-66301310D01*
X188240001Y-66346670D01*
X188240000Y-76063933D01*
X188223742Y-76024682D01*
X187482505Y-75283445D01*
X186514031Y-74882290D01*
X185465763Y-74882290D01*
X184497289Y-75283445D01*
X183756052Y-76024682D01*
X183354897Y-76993156D01*
X183354897Y-78041424D01*
X183756052Y-79009898D01*
X184497289Y-79751135D01*
X185465763Y-80152290D01*
X185916075Y-80152290D01*
X185890019Y-80283282D01*
X185904908Y-80358134D01*
X185904908Y-87544793D01*
X185825387Y-87491659D01*
X185089897Y-87345361D01*
X184354408Y-87491659D01*
X183730888Y-87908281D01*
X183314266Y-88531800D01*
X183204897Y-89081635D01*
X183204897Y-89952944D01*
X183314266Y-90502779D01*
X183730888Y-91126299D01*
X184354407Y-91542921D01*
X185089897Y-91689219D01*
X185825386Y-91542921D01*
X185904908Y-91489786D01*
X185904908Y-100044793D01*
X185825387Y-99991659D01*
X185089897Y-99845361D01*
X184354408Y-99991659D01*
X183730888Y-100408281D01*
X183314266Y-101031800D01*
X183269413Y-101257290D01*
X179997558Y-101257290D01*
X179922710Y-101242402D01*
X179847862Y-101257290D01*
X179847858Y-101257290D01*
X179626173Y-101301386D01*
X179374781Y-101469361D01*
X179332381Y-101532817D01*
X178974897Y-101890301D01*
X178974897Y-101890288D01*
X178820280Y-101890288D01*
X178975012Y-101593250D01*
X178764914Y-100885096D01*
X178299810Y-100311248D01*
X177650508Y-99959069D01*
X177509542Y-99929595D01*
X177216897Y-100045718D01*
X177216897Y-101890290D01*
X177236897Y-101890290D01*
X177236897Y-102144290D01*
X177216897Y-102144290D01*
X177216897Y-102164290D01*
X176962897Y-102164290D01*
X176962897Y-102144290D01*
X175359515Y-102144290D01*
X175204782Y-102441330D01*
X175414880Y-103149484D01*
X175879984Y-103723332D01*
X176529286Y-104075511D01*
X176670252Y-104104985D01*
X176819393Y-104045805D01*
X161467440Y-119397759D01*
X161467440Y-118580000D01*
X161418157Y-118332235D01*
X161277809Y-118122191D01*
X161067765Y-117981843D01*
X160820000Y-117932560D01*
X159654999Y-117932560D01*
X159654999Y-117276989D01*
X172574370Y-104357619D01*
X172637826Y-104315219D01*
X172722017Y-104189219D01*
X172805801Y-104063828D01*
X172809324Y-104046116D01*
X172825386Y-104042921D01*
X173448906Y-103626299D01*
X173865528Y-103002780D01*
X173974897Y-102452945D01*
X173974897Y-101593250D01*
X175204782Y-101593250D01*
X175359515Y-101890290D01*
X176962897Y-101890290D01*
X176962897Y-100045718D01*
X176670252Y-99929595D01*
X176529286Y-99959069D01*
X175879984Y-100311248D01*
X175414880Y-100885096D01*
X175204782Y-101593250D01*
X173974897Y-101593250D01*
X173974897Y-101581636D01*
X173865528Y-101031800D01*
X173448906Y-100408281D01*
X172825387Y-99991659D01*
X172089897Y-99845361D01*
X171354408Y-99991659D01*
X170730888Y-100408281D01*
X170314266Y-101031800D01*
X170204897Y-101581635D01*
X170204897Y-102452944D01*
X170314266Y-103002779D01*
X170730888Y-103626299D01*
X170985776Y-103796609D01*
X158410529Y-116371857D01*
X158347070Y-116414259D01*
X158179095Y-116665652D01*
X158134999Y-116887337D01*
X158134999Y-116887341D01*
X158120111Y-116962188D01*
X158134999Y-117037035D01*
X158134999Y-118076172D01*
X157736777Y-117933035D01*
X157166546Y-117960222D01*
X157064999Y-118002284D01*
X157064999Y-106866989D01*
X159574370Y-104357619D01*
X159637826Y-104315219D01*
X159805801Y-104063827D01*
X159809324Y-104046116D01*
X159825386Y-104042921D01*
X160448906Y-103626299D01*
X160865528Y-103002780D01*
X160974897Y-102452945D01*
X160974897Y-102441330D01*
X162204782Y-102441330D01*
X162414880Y-103149484D01*
X162879984Y-103723332D01*
X163529286Y-104075511D01*
X163670252Y-104104985D01*
X163962897Y-103988862D01*
X163962897Y-102144290D01*
X164216897Y-102144290D01*
X164216897Y-103988862D01*
X164509542Y-104104985D01*
X164650508Y-104075511D01*
X165299810Y-103723332D01*
X165764914Y-103149484D01*
X165975012Y-102441330D01*
X165820279Y-102144290D01*
X164216897Y-102144290D01*
X163962897Y-102144290D01*
X162359515Y-102144290D01*
X162204782Y-102441330D01*
X160974897Y-102441330D01*
X160974897Y-101593250D01*
X162204782Y-101593250D01*
X162359515Y-101890290D01*
X163962897Y-101890290D01*
X163962897Y-100045718D01*
X164216897Y-100045718D01*
X164216897Y-101890290D01*
X165820279Y-101890290D01*
X165975012Y-101593250D01*
X165764914Y-100885096D01*
X165299810Y-100311248D01*
X164650508Y-99959069D01*
X164509542Y-99929595D01*
X164216897Y-100045718D01*
X163962897Y-100045718D01*
X163670252Y-99929595D01*
X163529286Y-99959069D01*
X162879984Y-100311248D01*
X162414880Y-100885096D01*
X162204782Y-101593250D01*
X160974897Y-101593250D01*
X160974897Y-101581636D01*
X160865528Y-101031800D01*
X160448906Y-100408281D01*
X159825387Y-99991659D01*
X159089897Y-99845361D01*
X158354408Y-99991659D01*
X157730888Y-100408281D01*
X157314266Y-101031800D01*
X157204897Y-101581635D01*
X157204897Y-102452944D01*
X157314266Y-103002779D01*
X157730888Y-103626299D01*
X157985776Y-103796609D01*
X155820529Y-105961857D01*
X155757070Y-106004259D01*
X155589095Y-106255652D01*
X155544999Y-106477337D01*
X155544999Y-106477341D01*
X155530111Y-106552188D01*
X155544999Y-106627035D01*
X155544999Y-112291065D01*
X155530329Y-112269110D01*
X155487929Y-112205654D01*
X155424473Y-112163254D01*
X150481091Y-107219872D01*
X151266026Y-106894741D01*
X151894741Y-106266026D01*
X152235000Y-105444569D01*
X152235000Y-104555431D01*
X151894741Y-103733974D01*
X151266026Y-103105259D01*
X150444569Y-102765000D01*
X149555431Y-102765000D01*
X148733974Y-103105259D01*
X148105259Y-103733974D01*
X147780128Y-104518909D01*
X133349897Y-90088679D01*
X133349897Y-89081635D01*
X134204897Y-89081635D01*
X134204897Y-89952944D01*
X134314266Y-90502779D01*
X134730888Y-91126299D01*
X135354407Y-91542921D01*
X136089897Y-91689219D01*
X136825386Y-91542921D01*
X137448906Y-91126299D01*
X137865528Y-90502780D01*
X137974897Y-89952945D01*
X137974897Y-89941330D01*
X139204782Y-89941330D01*
X139414880Y-90649484D01*
X139879984Y-91223332D01*
X140529286Y-91575511D01*
X140670252Y-91604985D01*
X140962897Y-91488862D01*
X140962897Y-89644290D01*
X141216897Y-89644290D01*
X141216897Y-91488862D01*
X141509542Y-91604985D01*
X141650508Y-91575511D01*
X142299810Y-91223332D01*
X142764914Y-90649484D01*
X142975012Y-89941330D01*
X142820279Y-89644290D01*
X141216897Y-89644290D01*
X140962897Y-89644290D01*
X139359515Y-89644290D01*
X139204782Y-89941330D01*
X137974897Y-89941330D01*
X137974897Y-89093250D01*
X139204782Y-89093250D01*
X139359515Y-89390290D01*
X140962897Y-89390290D01*
X140962897Y-87545718D01*
X141216897Y-87545718D01*
X141216897Y-89390290D01*
X142820279Y-89390290D01*
X142975012Y-89093250D01*
X142971567Y-89081635D01*
X157204897Y-89081635D01*
X157204897Y-89952944D01*
X157314266Y-90502779D01*
X157730888Y-91126299D01*
X158354407Y-91542921D01*
X159089897Y-91689219D01*
X159825386Y-91542921D01*
X160448906Y-91126299D01*
X160865528Y-90502780D01*
X160974897Y-89952945D01*
X160974897Y-89941330D01*
X162204782Y-89941330D01*
X162414880Y-90649484D01*
X162879984Y-91223332D01*
X163529286Y-91575511D01*
X163670252Y-91604985D01*
X163962897Y-91488862D01*
X163962897Y-89644290D01*
X164216897Y-89644290D01*
X164216897Y-91488862D01*
X164509542Y-91604985D01*
X164650508Y-91575511D01*
X165299810Y-91223332D01*
X165764914Y-90649484D01*
X165975012Y-89941330D01*
X165820279Y-89644290D01*
X164216897Y-89644290D01*
X163962897Y-89644290D01*
X162359515Y-89644290D01*
X162204782Y-89941330D01*
X160974897Y-89941330D01*
X160974897Y-89093250D01*
X162204782Y-89093250D01*
X162359515Y-89390290D01*
X163962897Y-89390290D01*
X163962897Y-87545718D01*
X164216897Y-87545718D01*
X164216897Y-89390290D01*
X165820279Y-89390290D01*
X165975012Y-89093250D01*
X165971567Y-89081635D01*
X170204897Y-89081635D01*
X170204897Y-89952944D01*
X170314266Y-90502779D01*
X170730888Y-91126299D01*
X171354407Y-91542921D01*
X172089897Y-91689219D01*
X172825386Y-91542921D01*
X173448906Y-91126299D01*
X173865528Y-90502780D01*
X173974897Y-89952945D01*
X173974897Y-89941330D01*
X175204782Y-89941330D01*
X175414880Y-90649484D01*
X175879984Y-91223332D01*
X176529286Y-91575511D01*
X176670252Y-91604985D01*
X176962897Y-91488862D01*
X176962897Y-89644290D01*
X177216897Y-89644290D01*
X177216897Y-91488862D01*
X177509542Y-91604985D01*
X177650508Y-91575511D01*
X178299810Y-91223332D01*
X178764914Y-90649484D01*
X178975012Y-89941330D01*
X178820279Y-89644290D01*
X177216897Y-89644290D01*
X176962897Y-89644290D01*
X175359515Y-89644290D01*
X175204782Y-89941330D01*
X173974897Y-89941330D01*
X173974897Y-89093250D01*
X175204782Y-89093250D01*
X175359515Y-89390290D01*
X176962897Y-89390290D01*
X176962897Y-87545718D01*
X177216897Y-87545718D01*
X177216897Y-89390290D01*
X178820279Y-89390290D01*
X178975012Y-89093250D01*
X178764914Y-88385096D01*
X178299810Y-87811248D01*
X177650508Y-87459069D01*
X177509542Y-87429595D01*
X177216897Y-87545718D01*
X176962897Y-87545718D01*
X176670252Y-87429595D01*
X176529286Y-87459069D01*
X175879984Y-87811248D01*
X175414880Y-88385096D01*
X175204782Y-89093250D01*
X173974897Y-89093250D01*
X173974897Y-89081636D01*
X173865528Y-88531800D01*
X173448906Y-87908281D01*
X172825387Y-87491659D01*
X172089897Y-87345361D01*
X171354408Y-87491659D01*
X170730888Y-87908281D01*
X170314266Y-88531800D01*
X170204897Y-89081635D01*
X165971567Y-89081635D01*
X165764914Y-88385096D01*
X165299810Y-87811248D01*
X164650508Y-87459069D01*
X164509542Y-87429595D01*
X164216897Y-87545718D01*
X163962897Y-87545718D01*
X163670252Y-87429595D01*
X163529286Y-87459069D01*
X162879984Y-87811248D01*
X162414880Y-88385096D01*
X162204782Y-89093250D01*
X160974897Y-89093250D01*
X160974897Y-89081636D01*
X160865528Y-88531800D01*
X160448906Y-87908281D01*
X159825387Y-87491659D01*
X159089897Y-87345361D01*
X158354408Y-87491659D01*
X157730888Y-87908281D01*
X157314266Y-88531800D01*
X157204897Y-89081635D01*
X142971567Y-89081635D01*
X142764914Y-88385096D01*
X142299810Y-87811248D01*
X141650508Y-87459069D01*
X141509542Y-87429595D01*
X141216897Y-87545718D01*
X140962897Y-87545718D01*
X140670252Y-87429595D01*
X140529286Y-87459069D01*
X139879984Y-87811248D01*
X139414880Y-88385096D01*
X139204782Y-89093250D01*
X137974897Y-89093250D01*
X137974897Y-89081636D01*
X137865528Y-88531800D01*
X137448906Y-87908281D01*
X136825387Y-87491659D01*
X136089897Y-87345361D01*
X135354408Y-87491659D01*
X134730888Y-87908281D01*
X134314266Y-88531800D01*
X134204897Y-89081635D01*
X133349897Y-89081635D01*
X133349897Y-85863959D01*
X133459404Y-85818600D01*
X133839897Y-85438107D01*
X134220390Y-85818600D01*
X134784567Y-86052290D01*
X135395227Y-86052290D01*
X135959404Y-85818600D01*
X136180555Y-85597449D01*
X164189343Y-85597449D01*
X164275749Y-85853933D01*
X164849233Y-86063748D01*
X165459357Y-86038129D01*
X165904045Y-85853933D01*
X165990451Y-85597449D01*
X165089897Y-84696895D01*
X164189343Y-85597449D01*
X136180555Y-85597449D01*
X136391207Y-85386797D01*
X136624897Y-84822620D01*
X136624897Y-84322257D01*
X136894865Y-84052289D01*
X163625515Y-84052289D01*
X163543439Y-84276626D01*
X163569058Y-84886750D01*
X163753254Y-85331438D01*
X164009738Y-85417844D01*
X164910292Y-84517290D01*
X164896150Y-84503148D01*
X165075755Y-84323543D01*
X165089897Y-84337685D01*
X165104040Y-84323543D01*
X165283645Y-84503148D01*
X165269502Y-84517290D01*
X166170056Y-85417844D01*
X166285358Y-85379000D01*
X166288587Y-85386797D01*
X166720390Y-85818600D01*
X167284567Y-86052290D01*
X167895227Y-86052290D01*
X168459404Y-85818600D01*
X168839897Y-85438107D01*
X169220390Y-85818600D01*
X169784567Y-86052290D01*
X170395227Y-86052290D01*
X170959404Y-85818600D01*
X171180555Y-85597449D01*
X178189343Y-85597449D01*
X178275749Y-85853933D01*
X178849233Y-86063748D01*
X179459357Y-86038129D01*
X179904045Y-85853933D01*
X179990451Y-85597449D01*
X179089897Y-84696895D01*
X178189343Y-85597449D01*
X171180555Y-85597449D01*
X171391207Y-85386797D01*
X171624897Y-84822620D01*
X171624897Y-84276626D01*
X177543439Y-84276626D01*
X177569058Y-84886750D01*
X177753254Y-85331438D01*
X178009738Y-85417844D01*
X178910292Y-84517290D01*
X179269502Y-84517290D01*
X180170056Y-85417844D01*
X180285358Y-85379000D01*
X180288587Y-85386797D01*
X180720390Y-85818600D01*
X181284567Y-86052290D01*
X181895227Y-86052290D01*
X182459404Y-85818600D01*
X182839897Y-85438107D01*
X183220390Y-85818600D01*
X183784567Y-86052290D01*
X184395227Y-86052290D01*
X184959404Y-85818600D01*
X185391207Y-85386797D01*
X185624897Y-84822620D01*
X185624897Y-84211960D01*
X185391207Y-83647783D01*
X184959404Y-83215980D01*
X184395227Y-82982290D01*
X183784567Y-82982290D01*
X183220390Y-83215980D01*
X182839897Y-83596473D01*
X182459404Y-83215980D01*
X181895227Y-82982290D01*
X181284567Y-82982290D01*
X180720390Y-83215980D01*
X180288587Y-83647783D01*
X180285358Y-83655580D01*
X180170056Y-83616736D01*
X179269502Y-84517290D01*
X178910292Y-84517290D01*
X178009738Y-83616736D01*
X177753254Y-83703142D01*
X177543439Y-84276626D01*
X171624897Y-84276626D01*
X171624897Y-84211960D01*
X171391207Y-83647783D01*
X171180555Y-83437131D01*
X178189343Y-83437131D01*
X179089897Y-84337685D01*
X179990451Y-83437131D01*
X179904045Y-83180647D01*
X179330561Y-82970832D01*
X178720437Y-82996451D01*
X178275749Y-83180647D01*
X178189343Y-83437131D01*
X171180555Y-83437131D01*
X170959404Y-83215980D01*
X170395227Y-82982290D01*
X169894864Y-82982290D01*
X169413368Y-82500794D01*
X169360505Y-82421680D01*
X169047092Y-82212264D01*
X168770714Y-82157289D01*
X168770713Y-82157289D01*
X168677396Y-82138727D01*
X168584079Y-82157289D01*
X136595710Y-82157289D01*
X136502397Y-82138728D01*
X136409085Y-82157289D01*
X136409080Y-82157289D01*
X136132702Y-82212264D01*
X135819289Y-82421680D01*
X135766428Y-82500792D01*
X135284930Y-82982290D01*
X134784567Y-82982290D01*
X134220390Y-83215980D01*
X133839897Y-83596473D01*
X133459404Y-83215980D01*
X132895227Y-82982290D01*
X132284567Y-82982290D01*
X131720390Y-83215980D01*
X131288587Y-83647783D01*
X131285358Y-83655580D01*
X131170056Y-83616736D01*
X130269502Y-84517290D01*
X131170056Y-85417844D01*
X131285358Y-85379000D01*
X131288587Y-85386797D01*
X131720390Y-85818600D01*
X131829897Y-85863959D01*
X131829898Y-90328628D01*
X131815009Y-90403480D01*
X131829898Y-90478332D01*
X131873994Y-90700017D01*
X132041969Y-90951409D01*
X132105425Y-90993809D01*
X140093887Y-98982271D01*
X112189762Y-98982271D01*
X112114915Y-98967383D01*
X112040068Y-98982271D01*
X112040064Y-98982271D01*
X111818379Y-99026367D01*
X111818377Y-99026368D01*
X111818378Y-99026368D01*
X111630442Y-99151942D01*
X111630440Y-99151944D01*
X111566987Y-99194342D01*
X111524589Y-99257795D01*
X110796476Y-99985908D01*
X110089897Y-99845361D01*
X109354408Y-99991659D01*
X109274887Y-100044793D01*
X109274887Y-93929701D01*
X113218162Y-89986427D01*
X113414880Y-90649484D01*
X113879984Y-91223332D01*
X114529286Y-91575511D01*
X114670252Y-91604985D01*
X114962897Y-91488862D01*
X114962897Y-89644290D01*
X115216897Y-89644290D01*
X115216897Y-91488862D01*
X115509542Y-91604985D01*
X115650508Y-91575511D01*
X116299810Y-91223332D01*
X116764914Y-90649484D01*
X116975012Y-89941330D01*
X116820279Y-89644290D01*
X115216897Y-89644290D01*
X114962897Y-89644290D01*
X114942897Y-89644290D01*
X114942897Y-89390290D01*
X114962897Y-89390290D01*
X114962897Y-89370290D01*
X115216897Y-89370290D01*
X115216897Y-89390290D01*
X116820279Y-89390290D01*
X116975012Y-89093250D01*
X116971567Y-89081635D01*
X121204897Y-89081635D01*
X121204897Y-89952944D01*
X121314266Y-90502779D01*
X121730888Y-91126299D01*
X122354407Y-91542921D01*
X123089897Y-91689219D01*
X123825386Y-91542921D01*
X124448906Y-91126299D01*
X124865528Y-90502780D01*
X124974897Y-89952945D01*
X124974897Y-89941330D01*
X126204782Y-89941330D01*
X126414880Y-90649484D01*
X126879984Y-91223332D01*
X127529286Y-91575511D01*
X127670252Y-91604985D01*
X127962897Y-91488862D01*
X127962897Y-89644290D01*
X128216897Y-89644290D01*
X128216897Y-91488862D01*
X128509542Y-91604985D01*
X128650508Y-91575511D01*
X129299810Y-91223332D01*
X129764914Y-90649484D01*
X129975012Y-89941330D01*
X129820279Y-89644290D01*
X128216897Y-89644290D01*
X127962897Y-89644290D01*
X126359515Y-89644290D01*
X126204782Y-89941330D01*
X124974897Y-89941330D01*
X124974897Y-89093250D01*
X126204782Y-89093250D01*
X126359515Y-89390290D01*
X127962897Y-89390290D01*
X127962897Y-87545718D01*
X128216897Y-87545718D01*
X128216897Y-89390290D01*
X129820279Y-89390290D01*
X129975012Y-89093250D01*
X129764914Y-88385096D01*
X129299810Y-87811248D01*
X128650508Y-87459069D01*
X128509542Y-87429595D01*
X128216897Y-87545718D01*
X127962897Y-87545718D01*
X127670252Y-87429595D01*
X127529286Y-87459069D01*
X126879984Y-87811248D01*
X126414880Y-88385096D01*
X126204782Y-89093250D01*
X124974897Y-89093250D01*
X124974897Y-89081636D01*
X124865528Y-88531800D01*
X124448906Y-87908281D01*
X123825387Y-87491659D01*
X123089897Y-87345361D01*
X122354408Y-87491659D01*
X121730888Y-87908281D01*
X121314266Y-88531800D01*
X121204897Y-89081635D01*
X116971567Y-89081635D01*
X116764914Y-88385096D01*
X116299810Y-87811248D01*
X115712109Y-87492481D01*
X116689773Y-86514817D01*
X116752745Y-86502291D01*
X116752750Y-86502291D01*
X116974435Y-86458195D01*
X117225827Y-86290220D01*
X117268229Y-86226761D01*
X117698390Y-85796600D01*
X117720390Y-85818600D01*
X118284567Y-86052290D01*
X118895227Y-86052290D01*
X119459404Y-85818600D01*
X119839897Y-85438107D01*
X120220390Y-85818600D01*
X120784567Y-86052290D01*
X121395227Y-86052290D01*
X121959404Y-85818600D01*
X122180555Y-85597449D01*
X129189343Y-85597449D01*
X129275749Y-85853933D01*
X129849233Y-86063748D01*
X130459357Y-86038129D01*
X130904045Y-85853933D01*
X130990451Y-85597449D01*
X130089897Y-84696895D01*
X129189343Y-85597449D01*
X122180555Y-85597449D01*
X122391207Y-85386797D01*
X122624897Y-84822620D01*
X122624897Y-84276626D01*
X128543439Y-84276626D01*
X128569058Y-84886750D01*
X128753254Y-85331438D01*
X129009738Y-85417844D01*
X129910292Y-84517290D01*
X129009738Y-83616736D01*
X128753254Y-83703142D01*
X128543439Y-84276626D01*
X122624897Y-84276626D01*
X122624897Y-84211960D01*
X122391207Y-83647783D01*
X122180555Y-83437131D01*
X129189343Y-83437131D01*
X130089897Y-84337685D01*
X130990451Y-83437131D01*
X130904045Y-83180647D01*
X130330561Y-82970832D01*
X129720437Y-82996451D01*
X129275749Y-83180647D01*
X129189343Y-83437131D01*
X122180555Y-83437131D01*
X121959404Y-83215980D01*
X121395227Y-82982290D01*
X120784567Y-82982290D01*
X120220390Y-83215980D01*
X119839897Y-83596473D01*
X119459404Y-83215980D01*
X119207394Y-83111594D01*
X121716698Y-80602291D01*
X157240152Y-80602291D01*
X157314999Y-80617179D01*
X157389846Y-80602291D01*
X157389851Y-80602291D01*
X157611536Y-80558195D01*
X157862928Y-80390220D01*
X157905330Y-80326761D01*
X160554897Y-77677194D01*
X160554897Y-78041424D01*
X160956052Y-79009898D01*
X161697289Y-79751135D01*
X162665763Y-80152290D01*
X163714031Y-80152290D01*
X164682505Y-79751135D01*
X165423742Y-79009898D01*
X165824897Y-78041424D01*
X165824897Y-76993156D01*
X169354897Y-76993156D01*
X169354897Y-78041424D01*
X169756052Y-79009898D01*
X170497289Y-79751135D01*
X171465763Y-80152290D01*
X172514031Y-80152290D01*
X173482505Y-79751135D01*
X174223742Y-79009898D01*
X174589897Y-78125921D01*
X174956052Y-79009898D01*
X175697289Y-79751135D01*
X176665763Y-80152290D01*
X177714031Y-80152290D01*
X178682505Y-79751135D01*
X179423742Y-79009898D01*
X179824897Y-78041424D01*
X179824897Y-76993156D01*
X179423742Y-76024682D01*
X178682505Y-75283445D01*
X177714031Y-74882290D01*
X176665763Y-74882290D01*
X175697289Y-75283445D01*
X174956052Y-76024682D01*
X174589897Y-76908659D01*
X174223742Y-76024682D01*
X173482505Y-75283445D01*
X172514031Y-74882290D01*
X171465763Y-74882290D01*
X170497289Y-75283445D01*
X169756052Y-76024682D01*
X169354897Y-76993156D01*
X165824897Y-76993156D01*
X165423742Y-76024682D01*
X164682505Y-75283445D01*
X163714031Y-74882290D01*
X163349801Y-74882290D01*
X170875162Y-67356930D01*
X170984670Y-67402290D01*
X171595330Y-67402290D01*
X172159507Y-67168600D01*
X172591310Y-66736797D01*
X172825000Y-66172620D01*
X172825000Y-66080159D01*
X183099446Y-66080159D01*
X183185852Y-66336643D01*
X183759336Y-66546458D01*
X184369460Y-66520839D01*
X184814148Y-66336643D01*
X184900554Y-66080159D01*
X184000000Y-65179605D01*
X183099446Y-66080159D01*
X172825000Y-66080159D01*
X172825000Y-65561960D01*
X172591310Y-64997783D01*
X172352863Y-64759336D01*
X182453542Y-64759336D01*
X182479161Y-65369460D01*
X182663357Y-65814148D01*
X182919841Y-65900554D01*
X183820395Y-65000000D01*
X182919841Y-64099446D01*
X182663357Y-64185852D01*
X182453542Y-64759336D01*
X172352863Y-64759336D01*
X172159507Y-64565980D01*
X171595330Y-64332290D01*
X170984670Y-64332290D01*
X170420493Y-64565980D01*
X170244139Y-64742334D01*
X170188327Y-64607591D01*
X170009698Y-64428963D01*
X169776309Y-64332290D01*
X169035750Y-64332290D01*
X168877000Y-64491040D01*
X168877000Y-65740290D01*
X168897000Y-65740290D01*
X168897000Y-65994290D01*
X168877000Y-65994290D01*
X168877000Y-66014290D01*
X168623000Y-66014290D01*
X168623000Y-65994290D01*
X167373750Y-65994290D01*
X167215000Y-66153040D01*
X167215000Y-66893600D01*
X167311673Y-67126989D01*
X167490302Y-67305617D01*
X167723691Y-67402290D01*
X168464250Y-67402290D01*
X168622998Y-67243542D01*
X168622998Y-67402290D01*
X168680198Y-67402290D01*
X157000198Y-79082291D01*
X139151349Y-79082291D01*
X139223742Y-79009898D01*
X139624897Y-78041424D01*
X139624897Y-76993156D01*
X139223742Y-76024682D01*
X138482505Y-75283445D01*
X137514031Y-74882290D01*
X136465763Y-74882290D01*
X135497289Y-75283445D01*
X134756052Y-76024682D01*
X134354897Y-76993156D01*
X134354897Y-78041424D01*
X134756052Y-79009898D01*
X134828445Y-79082291D01*
X130351349Y-79082291D01*
X130423742Y-79009898D01*
X130824897Y-78041424D01*
X130824897Y-76993156D01*
X130423742Y-76024682D01*
X129682505Y-75283445D01*
X128714031Y-74882290D01*
X127665763Y-74882290D01*
X126697289Y-75283445D01*
X125956052Y-76024682D01*
X125589897Y-76908659D01*
X125223742Y-76024682D01*
X124482505Y-75283445D01*
X123514031Y-74882290D01*
X123322299Y-74882290D01*
X123649158Y-74555431D01*
X147765000Y-74555431D01*
X147765000Y-75444569D01*
X148105259Y-76266026D01*
X148733974Y-76894741D01*
X149555431Y-77235000D01*
X150444569Y-77235000D01*
X151266026Y-76894741D01*
X151894741Y-76266026D01*
X152235000Y-75444569D01*
X152235000Y-74555431D01*
X151894741Y-73733974D01*
X151266026Y-73105259D01*
X150444569Y-72765000D01*
X149555431Y-72765000D01*
X148733974Y-73105259D01*
X148105259Y-73733974D01*
X147765000Y-74555431D01*
X123649158Y-74555431D01*
X128864589Y-69340000D01*
X158502443Y-69340000D01*
X158577290Y-69354888D01*
X158652137Y-69340000D01*
X158652142Y-69340000D01*
X158873827Y-69295904D01*
X159125219Y-69127929D01*
X159167621Y-69064470D01*
X160875162Y-67356930D01*
X160984670Y-67402290D01*
X161595330Y-67402290D01*
X162159507Y-67168600D01*
X162591310Y-66736797D01*
X162825000Y-66172620D01*
X162825000Y-65561960D01*
X162591310Y-64997783D01*
X162434507Y-64840980D01*
X167215000Y-64840980D01*
X167215000Y-65581540D01*
X167373750Y-65740290D01*
X168623000Y-65740290D01*
X168623000Y-64491040D01*
X168464250Y-64332290D01*
X167723691Y-64332290D01*
X167490302Y-64428963D01*
X167311673Y-64607591D01*
X167215000Y-64840980D01*
X162434507Y-64840980D01*
X162159507Y-64565980D01*
X161595330Y-64332290D01*
X160984670Y-64332290D01*
X160420493Y-64565980D01*
X160244139Y-64742334D01*
X160188327Y-64607591D01*
X160009698Y-64428963D01*
X159776309Y-64332290D01*
X159035750Y-64332290D01*
X158877000Y-64491040D01*
X158877000Y-65740290D01*
X158897000Y-65740290D01*
X158897000Y-65994290D01*
X158877000Y-65994290D01*
X158877000Y-66014290D01*
X158623000Y-66014290D01*
X158623000Y-65994290D01*
X157373750Y-65994290D01*
X157215000Y-66153040D01*
X157215000Y-66893600D01*
X157311673Y-67126989D01*
X157490302Y-67305617D01*
X157723691Y-67402290D01*
X158464250Y-67402290D01*
X158622998Y-67243542D01*
X158622998Y-67402290D01*
X158680199Y-67402290D01*
X158262489Y-67820000D01*
X150412092Y-67820000D01*
X150875162Y-67356930D01*
X150984670Y-67402290D01*
X151595330Y-67402290D01*
X152159507Y-67168600D01*
X152591310Y-66736797D01*
X152825000Y-66172620D01*
X152825000Y-65561960D01*
X152591310Y-64997783D01*
X152434507Y-64840980D01*
X157215000Y-64840980D01*
X157215000Y-65581540D01*
X157373750Y-65740290D01*
X158623000Y-65740290D01*
X158623000Y-64491040D01*
X158464250Y-64332290D01*
X157723691Y-64332290D01*
X157490302Y-64428963D01*
X157311673Y-64607591D01*
X157215000Y-64840980D01*
X152434507Y-64840980D01*
X152159507Y-64565980D01*
X151595330Y-64332290D01*
X150984670Y-64332290D01*
X150420493Y-64565980D01*
X150244139Y-64742334D01*
X150188327Y-64607591D01*
X150009698Y-64428963D01*
X149776309Y-64332290D01*
X149035750Y-64332290D01*
X148877000Y-64491040D01*
X148877000Y-65740290D01*
X148897000Y-65740290D01*
X148897000Y-65994290D01*
X148877000Y-65994290D01*
X148877000Y-66014290D01*
X148623000Y-66014290D01*
X148623000Y-65994290D01*
X147373750Y-65994290D01*
X147215000Y-66153040D01*
X147215000Y-66893600D01*
X147311673Y-67126989D01*
X147490302Y-67305617D01*
X147645714Y-67369991D01*
X141673307Y-67369991D01*
X142159507Y-67168600D01*
X142591310Y-66736797D01*
X142825000Y-66172620D01*
X142825000Y-65561960D01*
X142591310Y-64997783D01*
X142434507Y-64840980D01*
X147215000Y-64840980D01*
X147215000Y-65581540D01*
X147373750Y-65740290D01*
X148623000Y-65740290D01*
X148623000Y-64491040D01*
X148464250Y-64332290D01*
X147723691Y-64332290D01*
X147490302Y-64428963D01*
X147311673Y-64607591D01*
X147215000Y-64840980D01*
X142434507Y-64840980D01*
X142159507Y-64565980D01*
X141595330Y-64332290D01*
X140984670Y-64332290D01*
X140420493Y-64565980D01*
X140244139Y-64742334D01*
X140188327Y-64607591D01*
X140009698Y-64428963D01*
X139776309Y-64332290D01*
X139035750Y-64332290D01*
X138877000Y-64491040D01*
X138877000Y-65740290D01*
X138897000Y-65740290D01*
X138897000Y-65994290D01*
X138877000Y-65994290D01*
X138877000Y-66014290D01*
X138623000Y-66014290D01*
X138623000Y-65994290D01*
X137373750Y-65994290D01*
X137215000Y-66153040D01*
X137215000Y-66332291D01*
X132758862Y-66332291D01*
X132825000Y-66172620D01*
X132825000Y-65561960D01*
X132591310Y-64997783D01*
X132434507Y-64840980D01*
X137215000Y-64840980D01*
X137215000Y-65581540D01*
X137373750Y-65740290D01*
X138623000Y-65740290D01*
X138623000Y-64491040D01*
X138464250Y-64332290D01*
X137723691Y-64332290D01*
X137490302Y-64428963D01*
X137311673Y-64607591D01*
X137215000Y-64840980D01*
X132434507Y-64840980D01*
X132159507Y-64565980D01*
X131595330Y-64332290D01*
X130984670Y-64332290D01*
X130875161Y-64377650D01*
X130655330Y-64157819D01*
X130612928Y-64094360D01*
X130361536Y-63926385D01*
X130328638Y-63919841D01*
X183099446Y-63919841D01*
X184000000Y-64820395D01*
X184900554Y-63919841D01*
X184814148Y-63663357D01*
X184240664Y-63453542D01*
X183630540Y-63479161D01*
X183185852Y-63663357D01*
X183099446Y-63919841D01*
X130328638Y-63919841D01*
X130139851Y-63882289D01*
X130139846Y-63882289D01*
X130064999Y-63867401D01*
X129990152Y-63882289D01*
X123698744Y-63882289D01*
X123623896Y-63867401D01*
X123549048Y-63882289D01*
X123549044Y-63882289D01*
X123327359Y-63926385D01*
X123075967Y-64094360D01*
X123033567Y-64157816D01*
X106195530Y-80995854D01*
X106132071Y-81038256D01*
X105964096Y-81289649D01*
X105920000Y-81511334D01*
X105920000Y-81511338D01*
X105905112Y-81586185D01*
X105678946Y-81586185D01*
X105678946Y-63751468D01*
X111532446Y-63751468D01*
X111532446Y-64730714D01*
X111907187Y-65635419D01*
X112599618Y-66327850D01*
X113504323Y-66702591D01*
X114483569Y-66702591D01*
X115388274Y-66327850D01*
X116080705Y-65635419D01*
X116455446Y-64730714D01*
X116455446Y-63751468D01*
X116080705Y-62846763D01*
X115388274Y-62154332D01*
X114914800Y-61958212D01*
X115125704Y-61747308D01*
X115328946Y-61256639D01*
X115328946Y-60725543D01*
X115125704Y-60234874D01*
X114750163Y-59859333D01*
X114259494Y-59656091D01*
X113728398Y-59656091D01*
X113237729Y-59859333D01*
X112862188Y-60234874D01*
X112658946Y-60725543D01*
X112658946Y-61256639D01*
X112862188Y-61747308D01*
X113073092Y-61958212D01*
X112599618Y-62154332D01*
X111907187Y-62846763D01*
X111532446Y-63751468D01*
X105678946Y-63751468D01*
X105678946Y-57725543D01*
X112658946Y-57725543D01*
X112658946Y-58256639D01*
X112862188Y-58747308D01*
X113237729Y-59122849D01*
X113728398Y-59326091D01*
X114259494Y-59326091D01*
X114750163Y-59122849D01*
X115125704Y-58747308D01*
X115328946Y-58256639D01*
X115328946Y-57725543D01*
X115225527Y-57475866D01*
X179465000Y-57475866D01*
X179465000Y-58524134D01*
X179866155Y-59492608D01*
X180607392Y-60233845D01*
X181575866Y-60635000D01*
X182624134Y-60635000D01*
X183592608Y-60233845D01*
X184333845Y-59492608D01*
X184735000Y-58524134D01*
X184735000Y-57475866D01*
X188265000Y-57475866D01*
X188265000Y-58524134D01*
X188666155Y-59492608D01*
X189407392Y-60233845D01*
X190375866Y-60635000D01*
X191424134Y-60635000D01*
X192392608Y-60233845D01*
X193133845Y-59492608D01*
X193535000Y-58524134D01*
X193535000Y-57475866D01*
X193133845Y-56507392D01*
X192392608Y-55766155D01*
X191424134Y-55365000D01*
X190375866Y-55365000D01*
X189407392Y-55766155D01*
X188666155Y-56507392D01*
X188265000Y-57475866D01*
X184735000Y-57475866D01*
X184333845Y-56507392D01*
X183592608Y-55766155D01*
X182624134Y-55365000D01*
X181575866Y-55365000D01*
X180607392Y-55766155D01*
X179866155Y-56507392D01*
X179465000Y-57475866D01*
X115225527Y-57475866D01*
X115125704Y-57234874D01*
X114750163Y-56859333D01*
X114259494Y-56656091D01*
X113728398Y-56656091D01*
X113237729Y-56859333D01*
X112862188Y-57234874D01*
X112658946Y-57725543D01*
X105678946Y-57725543D01*
X105678946Y-51251468D01*
X111532446Y-51251468D01*
X111532446Y-52230714D01*
X111907187Y-53135419D01*
X112599618Y-53827850D01*
X113073092Y-54023970D01*
X112862188Y-54234874D01*
X112658946Y-54725543D01*
X112658946Y-55256639D01*
X112862188Y-55747308D01*
X113237729Y-56122849D01*
X113728398Y-56326091D01*
X114259494Y-56326091D01*
X114750163Y-56122849D01*
X115125704Y-55747308D01*
X115328946Y-55256639D01*
X115328946Y-54725543D01*
X115125704Y-54234874D01*
X114914800Y-54023970D01*
X115388274Y-53827850D01*
X116080705Y-53135419D01*
X116455446Y-52230714D01*
X116455446Y-51251468D01*
X116080705Y-50346763D01*
X115388274Y-49654332D01*
X114483569Y-49279591D01*
X113504323Y-49279591D01*
X112599618Y-49654332D01*
X111907187Y-50346763D01*
X111532446Y-51251468D01*
X105678946Y-51251468D01*
X105678946Y-47386282D01*
X143490000Y-47386282D01*
X143490000Y-49433717D01*
X143577612Y-49874172D01*
X143911351Y-50373649D01*
X144410827Y-50707388D01*
X145000000Y-50824582D01*
X145589172Y-50707388D01*
X146088649Y-50373649D01*
X146250000Y-50132170D01*
X146411351Y-50373649D01*
X146910827Y-50707388D01*
X147500000Y-50824582D01*
X148089172Y-50707388D01*
X148588649Y-50373649D01*
X148922388Y-49874173D01*
X149010000Y-49433718D01*
X149010000Y-47386282D01*
X150990000Y-47386282D01*
X150990000Y-49433717D01*
X151077612Y-49874172D01*
X151411351Y-50373649D01*
X151910827Y-50707388D01*
X152500000Y-50824582D01*
X153089172Y-50707388D01*
X153588649Y-50373649D01*
X153750000Y-50132170D01*
X153911351Y-50373649D01*
X154410827Y-50707388D01*
X155000000Y-50824582D01*
X155589172Y-50707388D01*
X156088649Y-50373649D01*
X156422388Y-49874173D01*
X156510000Y-49433718D01*
X156510000Y-47386282D01*
X156422388Y-46945827D01*
X156088649Y-46446351D01*
X155589173Y-46112612D01*
X155000000Y-45995418D01*
X154410828Y-46112612D01*
X153911352Y-46446351D01*
X153750001Y-46687831D01*
X153588649Y-46446351D01*
X153089173Y-46112612D01*
X152500000Y-45995418D01*
X151910828Y-46112612D01*
X151411352Y-46446351D01*
X151077613Y-46945827D01*
X150990000Y-47386282D01*
X149010000Y-47386282D01*
X148922388Y-46945827D01*
X148588649Y-46446351D01*
X148089173Y-46112612D01*
X147500000Y-45995418D01*
X146910828Y-46112612D01*
X146411352Y-46446351D01*
X146250001Y-46687831D01*
X146088649Y-46446351D01*
X145589173Y-46112612D01*
X145000000Y-45995418D01*
X144410828Y-46112612D01*
X143911352Y-46446351D01*
X143577613Y-46945827D01*
X143490000Y-47386282D01*
X105678946Y-47386282D01*
X105678946Y-45021597D01*
X105721345Y-44546522D01*
X107758946Y-44546522D01*
X107758946Y-45435660D01*
X108099205Y-46257117D01*
X108727920Y-46885832D01*
X109549377Y-47226091D01*
X110438515Y-47226091D01*
X111259972Y-46885832D01*
X111888687Y-46257117D01*
X112228946Y-45435660D01*
X112228946Y-44546522D01*
X111888687Y-43725065D01*
X111853372Y-43689750D01*
X147615000Y-43689750D01*
X147615000Y-44780310D01*
X147711673Y-45013699D01*
X147890302Y-45192327D01*
X148123691Y-45289000D01*
X149714250Y-45289000D01*
X149873000Y-45130250D01*
X149873000Y-43531000D01*
X150127000Y-43531000D01*
X150127000Y-45130250D01*
X150285750Y-45289000D01*
X151876309Y-45289000D01*
X152109698Y-45192327D01*
X152288327Y-45013699D01*
X152385000Y-44780310D01*
X152385000Y-44546522D01*
X187758946Y-44546522D01*
X187758946Y-45435660D01*
X188099205Y-46257117D01*
X188727920Y-46885832D01*
X189549377Y-47226091D01*
X190438515Y-47226091D01*
X191259972Y-46885832D01*
X191888687Y-46257117D01*
X192228946Y-45435660D01*
X192228946Y-44546522D01*
X191888687Y-43725065D01*
X191259972Y-43096350D01*
X190438515Y-42756091D01*
X189549377Y-42756091D01*
X188727920Y-43096350D01*
X188099205Y-43725065D01*
X187758946Y-44546522D01*
X152385000Y-44546522D01*
X152385000Y-43689750D01*
X152226250Y-43531000D01*
X150127000Y-43531000D01*
X149873000Y-43531000D01*
X147773750Y-43531000D01*
X147615000Y-43689750D01*
X111853372Y-43689750D01*
X111259972Y-43096350D01*
X110438515Y-42756091D01*
X109549377Y-42756091D01*
X108727920Y-43096350D01*
X108099205Y-43725065D01*
X107758946Y-44546522D01*
X105721345Y-44546522D01*
X105749821Y-44227454D01*
X105952126Y-43487951D01*
X106282188Y-42795963D01*
X106729575Y-42173358D01*
X106879892Y-42027690D01*
X147615000Y-42027690D01*
X147615000Y-43118250D01*
X147773750Y-43277000D01*
X149873000Y-43277000D01*
X149873000Y-41677750D01*
X150127000Y-41677750D01*
X150127000Y-43277000D01*
X152226250Y-43277000D01*
X152385000Y-43118250D01*
X152385000Y-42027690D01*
X152288327Y-41794301D01*
X152109698Y-41615673D01*
X151876309Y-41519000D01*
X150285750Y-41519000D01*
X150127000Y-41677750D01*
X149873000Y-41677750D01*
X149714250Y-41519000D01*
X148123691Y-41519000D01*
X147890302Y-41615673D01*
X147711673Y-41794301D01*
X147615000Y-42027690D01*
X106879892Y-42027690D01*
X107280141Y-41639823D01*
X107916490Y-41212215D01*
X108618507Y-40904050D01*
X109369266Y-40723808D01*
X110019058Y-40676091D01*
X189963440Y-40676091D01*
X190757583Y-40746966D01*
X190757583Y-40746966D01*
G37*
X190757583Y-40746966D02*
X191497086Y-40949271D01*
X192189074Y-41279333D01*
X192811679Y-41726720D01*
X193345214Y-42277286D01*
X193772822Y-42913635D01*
X194080987Y-43615652D01*
X194261229Y-44366411D01*
X194308946Y-45016203D01*
X194308947Y-129978796D01*
X194233484Y-132087009D01*
X194008802Y-134172198D01*
X193635609Y-136235981D01*
X193115813Y-138267811D01*
X192452080Y-140257268D01*
X191647810Y-142194167D01*
X190707099Y-144068636D01*
X189634788Y-145871029D01*
X188436354Y-147592143D01*
X187117922Y-149223178D01*
X185686261Y-150755763D01*
X184148677Y-152182076D01*
X182513071Y-153494787D01*
X180787770Y-154687217D01*
X178981645Y-155753229D01*
X177103927Y-156687381D01*
X175164210Y-157484894D01*
X173172451Y-158141678D01*
X171138826Y-158654377D01*
X169073750Y-159020364D01*
X166987182Y-159237830D01*
X164982297Y-159306091D01*
X135006214Y-159306091D01*
X132898028Y-159230629D01*
X130812839Y-159005947D01*
X128749056Y-158632754D01*
X126717226Y-158112958D01*
X124727769Y-157449225D01*
X122790870Y-156644955D01*
X120916401Y-155704244D01*
X119114008Y-154631933D01*
X117392894Y-153433499D01*
X115761859Y-152115067D01*
X114229274Y-150683406D01*
X113174664Y-149546522D01*
X117758946Y-149546522D01*
X117758946Y-150435660D01*
X118099205Y-151257117D01*
X118727920Y-151885832D01*
X119549377Y-152226091D01*
X120438515Y-152226091D01*
X121259972Y-151885832D01*
X121888687Y-151257117D01*
X122228946Y-150435660D01*
X122228946Y-149546522D01*
X121888687Y-148725065D01*
X121259972Y-148096350D01*
X120438515Y-147756091D01*
X119549377Y-147756091D01*
X118727920Y-148096350D01*
X118099205Y-148725065D01*
X117758946Y-149546522D01*
X113174664Y-149546522D01*
X112802961Y-149145822D01*
X111490250Y-147510216D01*
X110297820Y-145784915D01*
X109231808Y-143978790D01*
X108297656Y-142101072D01*
X107500143Y-140161355D01*
X106843359Y-138169596D01*
X106330660Y-136135971D01*
X105964673Y-134070895D01*
X105747207Y-131984327D01*
X105723227Y-131280000D01*
X112852560Y-131280000D01*
X112852560Y-132880000D01*
X112901843Y-133127765D01*
X113042191Y-133337809D01*
X113252235Y-133478157D01*
X113500000Y-133527440D01*
X115100000Y-133527440D01*
X115347765Y-133478157D01*
X115557809Y-133337809D01*
X115698157Y-133127765D01*
X115706117Y-133087745D01*
X115971861Y-133087745D01*
X116045995Y-133333864D01*
X116583223Y-133526965D01*
X117153454Y-133499778D01*
X117554005Y-133333864D01*
X117628139Y-133087745D01*
X116800000Y-132259605D01*
X115971861Y-133087745D01*
X115706117Y-133087745D01*
X115744693Y-132893813D01*
X115792255Y-132908139D01*
X116620395Y-132080000D01*
X116979605Y-132080000D01*
X117807745Y-132908139D01*
X118053864Y-132834005D01*
X118246965Y-132296777D01*
X118236630Y-132080000D01*
X120456887Y-132080000D01*
X120568260Y-132639909D01*
X120885423Y-133114577D01*
X121237758Y-133350000D01*
X120885423Y-133585423D01*
X120568260Y-134060091D01*
X120456887Y-134620000D01*
X120568260Y-135179909D01*
X120885423Y-135654577D01*
X121237758Y-135890000D01*
X120885423Y-136125423D01*
X120568260Y-136600091D01*
X120456887Y-137160000D01*
X120568260Y-137719909D01*
X120885423Y-138194577D01*
X121237758Y-138430000D01*
X120885423Y-138665423D01*
X120568260Y-139140091D01*
X120456887Y-139700000D01*
X120568260Y-140259909D01*
X120885423Y-140734577D01*
X121360091Y-141051740D01*
X121778667Y-141135000D01*
X122061333Y-141135000D01*
X122479909Y-141051740D01*
X122954577Y-140734577D01*
X123271740Y-140259909D01*
X123383113Y-139700000D01*
X123271740Y-139140091D01*
X122954577Y-138665423D01*
X122602242Y-138430000D01*
X122954577Y-138194577D01*
X123271740Y-137719909D01*
X123383113Y-137160000D01*
X123271740Y-136600091D01*
X122954577Y-136125423D01*
X122602242Y-135890000D01*
X122954577Y-135654577D01*
X123271740Y-135179909D01*
X123383113Y-134620000D01*
X123271740Y-134060091D01*
X122954577Y-133585423D01*
X122602242Y-133350000D01*
X122954577Y-133114577D01*
X123271740Y-132639909D01*
X123383113Y-132080000D01*
X123271740Y-131520091D01*
X122954577Y-131045423D01*
X122479909Y-130728260D01*
X122061333Y-130645000D01*
X121778667Y-130645000D01*
X121360091Y-130728260D01*
X120885423Y-131045423D01*
X120568260Y-131520091D01*
X120456887Y-132080000D01*
X118236630Y-132080000D01*
X118219778Y-131726546D01*
X118053864Y-131325995D01*
X117807745Y-131251861D01*
X116979605Y-132080000D01*
X116620395Y-132080000D01*
X115792255Y-131251861D01*
X115744693Y-131266187D01*
X115706118Y-131072255D01*
X115971861Y-131072255D01*
X116800000Y-131900395D01*
X117628139Y-131072255D01*
X117554005Y-130826136D01*
X117016777Y-130633035D01*
X116446546Y-130660222D01*
X116045995Y-130826136D01*
X115971861Y-131072255D01*
X115706118Y-131072255D01*
X115698157Y-131032235D01*
X115557809Y-130822191D01*
X115347765Y-130681843D01*
X115100000Y-130632560D01*
X113500000Y-130632560D01*
X113252235Y-130681843D01*
X113042191Y-130822191D01*
X112901843Y-131032235D01*
X112852560Y-131280000D01*
X105723227Y-131280000D01*
X105678946Y-129979442D01*
X105678946Y-81586185D01*
X105905112Y-81586185D01*
X105920000Y-81661032D01*
X105920001Y-125021558D01*
X105905112Y-125096410D01*
X105920001Y-125171262D01*
X105964097Y-125392947D01*
X106132072Y-125644339D01*
X106195528Y-125686739D01*
X110468295Y-129959508D01*
X110510691Y-130022958D01*
X110574141Y-130065354D01*
X110574145Y-130065358D01*
X110762081Y-130190932D01*
X110762082Y-130190932D01*
X110762083Y-130190933D01*
X110983768Y-130235029D01*
X110983771Y-130235029D01*
X111058618Y-130249917D01*
X111133465Y-130235029D01*
X128024352Y-130235027D01*
X128099204Y-130249916D01*
X128395741Y-130190931D01*
X128583676Y-130065357D01*
X128583677Y-130065356D01*
X128647133Y-130022956D01*
X128689533Y-129959500D01*
X129959504Y-128689530D01*
X130022960Y-128647130D01*
X130190935Y-128395738D01*
X130235031Y-128174053D01*
X130235031Y-128174049D01*
X130249919Y-128099202D01*
X130235031Y-128024355D01*
X130235031Y-119389878D01*
X130249919Y-119315031D01*
X130235031Y-119240184D01*
X130235031Y-119240179D01*
X130190935Y-119018494D01*
X130022960Y-118767102D01*
X129959504Y-118724702D01*
X128413103Y-117178302D01*
X128435000Y-117125439D01*
X128435000Y-116554561D01*
X128216534Y-116027138D01*
X127812862Y-115623466D01*
X127285439Y-115405000D01*
X126714561Y-115405000D01*
X126187138Y-115623466D01*
X125783466Y-116027138D01*
X125565000Y-116554561D01*
X125565000Y-117125439D01*
X125783466Y-117652862D01*
X126187138Y-118056534D01*
X126316216Y-118110000D01*
X126187138Y-118163466D01*
X125783466Y-118567138D01*
X125565000Y-119094561D01*
X125565000Y-119665439D01*
X125783466Y-120192862D01*
X126187138Y-120596534D01*
X126316216Y-120650000D01*
X126187138Y-120703466D01*
X125783466Y-121107138D01*
X125565000Y-121634561D01*
X125565000Y-122205439D01*
X125783466Y-122732862D01*
X126187138Y-123136534D01*
X126316216Y-123190000D01*
X126187138Y-123243466D01*
X125783466Y-123647138D01*
X125565000Y-124174561D01*
X125565000Y-124745439D01*
X125783466Y-125272862D01*
X126187138Y-125676534D01*
X126316216Y-125730000D01*
X126187138Y-125783466D01*
X125783466Y-126187138D01*
X125761570Y-126240000D01*
X120166659Y-126240000D01*
X119834099Y-125907440D01*
X120180000Y-125907440D01*
X120427765Y-125858157D01*
X120637809Y-125717809D01*
X120778157Y-125507765D01*
X120798101Y-125407497D01*
X121067138Y-125676534D01*
X121594561Y-125895000D01*
X122165439Y-125895000D01*
X122692862Y-125676534D01*
X123096534Y-125272862D01*
X123315000Y-124745439D01*
X123315000Y-124174561D01*
X123096534Y-123647138D01*
X122692862Y-123243466D01*
X122165439Y-123025000D01*
X121594561Y-123025000D01*
X121067138Y-123243466D01*
X120798101Y-123512503D01*
X120778157Y-123412235D01*
X120637809Y-123202191D01*
X120427765Y-123061843D01*
X120180000Y-123012560D01*
X118580000Y-123012560D01*
X118332235Y-123061843D01*
X118122191Y-123202191D01*
X117981843Y-123412235D01*
X117932560Y-123660000D01*
X117932560Y-124005901D01*
X109274887Y-115348229D01*
X109274887Y-115089940D01*
X114442500Y-115089940D01*
X114442500Y-118590060D01*
X114491783Y-118837825D01*
X114632131Y-119047869D01*
X114842175Y-119188217D01*
X115089940Y-119237500D01*
X118590060Y-119237500D01*
X118837825Y-119188217D01*
X119047869Y-119047869D01*
X119188217Y-118837825D01*
X119237500Y-118590060D01*
X119237500Y-118534571D01*
X120405034Y-118534571D01*
X120595328Y-118879319D01*
X121476576Y-119231015D01*
X122425332Y-119218701D01*
X123244672Y-118879319D01*
X123434966Y-118534571D01*
X121920000Y-117019605D01*
X120405034Y-118534571D01*
X119237500Y-118534571D01*
X119237500Y-116396576D01*
X119528985Y-116396576D01*
X119541299Y-117345332D01*
X119880681Y-118164672D01*
X120225429Y-118354966D01*
X121740395Y-116840000D01*
X122099605Y-116840000D01*
X123614571Y-118354966D01*
X123959319Y-118164672D01*
X124311015Y-117283424D01*
X124298701Y-116334668D01*
X123959319Y-115515328D01*
X123614571Y-115325034D01*
X122099605Y-116840000D01*
X121740395Y-116840000D01*
X120225429Y-115325034D01*
X119880681Y-115515328D01*
X119528985Y-116396576D01*
X119237500Y-116396576D01*
X119237500Y-115145429D01*
X120405034Y-115145429D01*
X121920000Y-116660395D01*
X123434966Y-115145429D01*
X123244672Y-114800681D01*
X122363424Y-114448985D01*
X121414668Y-114461299D01*
X120595328Y-114800681D01*
X120405034Y-115145429D01*
X119237500Y-115145429D01*
X119237500Y-115089940D01*
X119188217Y-114842175D01*
X119047869Y-114632131D01*
X118837825Y-114491783D01*
X118590060Y-114442500D01*
X115089940Y-114442500D01*
X114842175Y-114491783D01*
X114632131Y-114632131D01*
X114491783Y-114842175D01*
X114442500Y-115089940D01*
X109274887Y-115089940D01*
X109274887Y-103989787D01*
X109354407Y-104042921D01*
X110089897Y-104189219D01*
X110825386Y-104042921D01*
X111448906Y-103626299D01*
X111865528Y-103002780D01*
X111974897Y-102452945D01*
X111974897Y-102441330D01*
X113204782Y-102441330D01*
X113414880Y-103149484D01*
X113879984Y-103723332D01*
X114529286Y-104075511D01*
X114670252Y-104104985D01*
X114962897Y-103988862D01*
X114962897Y-102144290D01*
X115216897Y-102144290D01*
X115216897Y-103988862D01*
X115509542Y-104104985D01*
X115650508Y-104075511D01*
X116299810Y-103723332D01*
X116764914Y-103149484D01*
X116975012Y-102441330D01*
X116820279Y-102144290D01*
X115216897Y-102144290D01*
X114962897Y-102144290D01*
X113359515Y-102144290D01*
X113204782Y-102441330D01*
X111974897Y-102441330D01*
X111974897Y-101581636D01*
X111871279Y-101060711D01*
X112429719Y-100502271D01*
X113725160Y-100502271D01*
X113414880Y-100885096D01*
X113204782Y-101593250D01*
X113359515Y-101890290D01*
X114962897Y-101890290D01*
X114962897Y-101870290D01*
X115216897Y-101870290D01*
X115216897Y-101890290D01*
X116820279Y-101890290D01*
X116975012Y-101593250D01*
X116764914Y-100885096D01*
X116454634Y-100502271D01*
X121668086Y-100502271D01*
X121314266Y-101031800D01*
X121204897Y-101581635D01*
X121204897Y-102452944D01*
X121314266Y-103002779D01*
X121730888Y-103626299D01*
X122354407Y-104042921D01*
X123089897Y-104189219D01*
X123825386Y-104042921D01*
X124448906Y-103626299D01*
X124865528Y-103002780D01*
X124974897Y-102452945D01*
X124974897Y-102441330D01*
X126204782Y-102441330D01*
X126414880Y-103149484D01*
X126879984Y-103723332D01*
X127529286Y-104075511D01*
X127670252Y-104104985D01*
X127962897Y-103988862D01*
X127962897Y-102144290D01*
X128216897Y-102144290D01*
X128216897Y-103988862D01*
X128509542Y-104104985D01*
X128650508Y-104075511D01*
X129299810Y-103723332D01*
X129764914Y-103149484D01*
X129975012Y-102441330D01*
X129820279Y-102144290D01*
X128216897Y-102144290D01*
X127962897Y-102144290D01*
X126359515Y-102144290D01*
X126204782Y-102441330D01*
X124974897Y-102441330D01*
X124974897Y-101581636D01*
X124865528Y-101031800D01*
X124812394Y-100952280D01*
X126394948Y-100952280D01*
X126204782Y-101593250D01*
X126359515Y-101890290D01*
X127962897Y-101890290D01*
X127962897Y-101870290D01*
X128216897Y-101870290D01*
X128216897Y-101890290D01*
X129820279Y-101890290D01*
X129975012Y-101593250D01*
X129784846Y-100952280D01*
X134367400Y-100952280D01*
X134314266Y-101031800D01*
X134204897Y-101581635D01*
X134204897Y-102452944D01*
X134314266Y-103002779D01*
X134730888Y-103626299D01*
X135354407Y-104042921D01*
X136089897Y-104189219D01*
X136825386Y-104042921D01*
X137448906Y-103626299D01*
X137719353Y-103221547D01*
X146560001Y-112062196D01*
X146560000Y-117674196D01*
X143420527Y-120813670D01*
X143357071Y-120856070D01*
X143314671Y-120919526D01*
X143314670Y-120919527D01*
X143189096Y-121107462D01*
X143130111Y-121403999D01*
X143145000Y-121478851D01*
X143144999Y-127715154D01*
X143130111Y-127790001D01*
X143144999Y-127864848D01*
X143144999Y-127864852D01*
X143189095Y-128086537D01*
X143357070Y-128337930D01*
X143420529Y-128380332D01*
X151640001Y-136599805D01*
X151640000Y-138481956D01*
X151365423Y-138665423D01*
X151130000Y-139017758D01*
X150894577Y-138665423D01*
X150419909Y-138348260D01*
X150001333Y-138265000D01*
X149718667Y-138265000D01*
X149300091Y-138348260D01*
X148825423Y-138665423D01*
X148589022Y-139019222D01*
X146954999Y-137385200D01*
X146954999Y-136109851D01*
X146969888Y-136034999D01*
X146910903Y-135738462D01*
X146742928Y-135487070D01*
X146491536Y-135319095D01*
X146269851Y-135274999D01*
X146194999Y-135260110D01*
X146120147Y-135274999D01*
X146061923Y-135274999D01*
X146215000Y-134905439D01*
X146215000Y-134334561D01*
X145996534Y-133807138D01*
X145592862Y-133403466D01*
X145463784Y-133350000D01*
X145592862Y-133296534D01*
X145996534Y-132892862D01*
X146215000Y-132365439D01*
X146215000Y-131794561D01*
X145996534Y-131267138D01*
X145592862Y-130863466D01*
X145065439Y-130645000D01*
X144494561Y-130645000D01*
X143967138Y-130863466D01*
X143563466Y-131267138D01*
X143345000Y-131794561D01*
X143345000Y-132365439D01*
X143563466Y-132892862D01*
X143967138Y-133296534D01*
X144096216Y-133350000D01*
X143967138Y-133403466D01*
X143563466Y-133807138D01*
X143508833Y-133939033D01*
X137840778Y-128270978D01*
X138194577Y-128034577D01*
X138511740Y-127559909D01*
X138623113Y-127000000D01*
X138511740Y-126440091D01*
X138194577Y-125965423D01*
X137842242Y-125730000D01*
X138194577Y-125494577D01*
X138511740Y-125019909D01*
X138623113Y-124460000D01*
X138511740Y-123900091D01*
X138194577Y-123425423D01*
X137842242Y-123190000D01*
X138194577Y-122954577D01*
X138511740Y-122479909D01*
X138623113Y-121920000D01*
X138511740Y-121360091D01*
X138194577Y-120885423D01*
X137842242Y-120650000D01*
X138194577Y-120414577D01*
X138511740Y-119939909D01*
X138623113Y-119380000D01*
X138511740Y-118820091D01*
X138194577Y-118345423D01*
X137842242Y-118110000D01*
X138194577Y-117874577D01*
X138511740Y-117399909D01*
X138623113Y-116840000D01*
X138566336Y-116554561D01*
X140805000Y-116554561D01*
X140805000Y-117125439D01*
X141023466Y-117652862D01*
X141427138Y-118056534D01*
X141954561Y-118275000D01*
X142525439Y-118275000D01*
X143052862Y-118056534D01*
X143261651Y-117847745D01*
X143911861Y-117847745D01*
X143985995Y-118093864D01*
X144523223Y-118286965D01*
X145093454Y-118259778D01*
X145494005Y-118093864D01*
X145568139Y-117847745D01*
X144740000Y-117019605D01*
X143911861Y-117847745D01*
X143261651Y-117847745D01*
X143456534Y-117652862D01*
X143483525Y-117587701D01*
X143486136Y-117594005D01*
X143732255Y-117668139D01*
X144560395Y-116840000D01*
X144919605Y-116840000D01*
X145747745Y-117668139D01*
X145993864Y-117594005D01*
X146186965Y-117056777D01*
X146159778Y-116486546D01*
X145993864Y-116085995D01*
X145747745Y-116011861D01*
X144919605Y-116840000D01*
X144560395Y-116840000D01*
X143732255Y-116011861D01*
X143486136Y-116085995D01*
X143483710Y-116092746D01*
X143456534Y-116027138D01*
X143261651Y-115832255D01*
X143911861Y-115832255D01*
X144740000Y-116660395D01*
X145568139Y-115832255D01*
X145494005Y-115586136D01*
X144956777Y-115393035D01*
X144386546Y-115420222D01*
X143985995Y-115586136D01*
X143911861Y-115832255D01*
X143261651Y-115832255D01*
X143052862Y-115623466D01*
X142525439Y-115405000D01*
X141954561Y-115405000D01*
X141427138Y-115623466D01*
X141023466Y-116027138D01*
X140805000Y-116554561D01*
X138566336Y-116554561D01*
X138511740Y-116280091D01*
X138194577Y-115805423D01*
X137719909Y-115488260D01*
X137301333Y-115405000D01*
X137018667Y-115405000D01*
X136600091Y-115488260D01*
X136125423Y-115805423D01*
X135808260Y-116280091D01*
X135696887Y-116840000D01*
X135808260Y-117399909D01*
X136125423Y-117874577D01*
X136477758Y-118110000D01*
X136125423Y-118345423D01*
X135808260Y-118820091D01*
X135696887Y-119380000D01*
X135761312Y-119703886D01*
X135100519Y-120364680D01*
X135037060Y-120407082D01*
X134869085Y-120658475D01*
X134824989Y-120880160D01*
X134824989Y-120880164D01*
X134810101Y-120955011D01*
X134824989Y-121029858D01*
X134824990Y-124055205D01*
X127480519Y-131399678D01*
X127417060Y-131442080D01*
X127249085Y-131693473D01*
X127204989Y-131915158D01*
X127204989Y-131915162D01*
X127190101Y-131990009D01*
X127204989Y-132064856D01*
X127204990Y-147895139D01*
X127190101Y-147969991D01*
X127249086Y-148266528D01*
X127358708Y-148430588D01*
X127417061Y-148517920D01*
X127480517Y-148560320D01*
X136884669Y-157964473D01*
X136927069Y-158027929D01*
X136990525Y-158070329D01*
X137178460Y-158195904D01*
X137204804Y-158201144D01*
X137400146Y-158240000D01*
X137400150Y-158240000D01*
X137474998Y-158254888D01*
X137549846Y-158240000D01*
X166936289Y-158240000D01*
X167053720Y-158357431D01*
X167434126Y-158515000D01*
X167845874Y-158515000D01*
X168226280Y-158357431D01*
X168517431Y-158066280D01*
X168675000Y-157685874D01*
X168675000Y-157274126D01*
X168517431Y-156893720D01*
X168226280Y-156602569D01*
X167845874Y-156445000D01*
X167434126Y-156445000D01*
X167053720Y-156602569D01*
X166936289Y-156720000D01*
X137789800Y-156720000D01*
X134917240Y-153847440D01*
X135380000Y-153847440D01*
X135627765Y-153798157D01*
X135694058Y-153753861D01*
X137814678Y-155874482D01*
X137857078Y-155937938D01*
X138108470Y-156105913D01*
X138330155Y-156150009D01*
X138330159Y-156150009D01*
X138405007Y-156164897D01*
X138479855Y-156150009D01*
X171394146Y-156150009D01*
X171468993Y-156164897D01*
X171543840Y-156150009D01*
X171543845Y-156150009D01*
X171765530Y-156105913D01*
X172016922Y-155937938D01*
X172059324Y-155874479D01*
X177758946Y-150174858D01*
X177758946Y-150435660D01*
X178099205Y-151257117D01*
X178727920Y-151885832D01*
X179549377Y-152226091D01*
X180438515Y-152226091D01*
X181259972Y-151885832D01*
X181888687Y-151257117D01*
X182228946Y-150435660D01*
X182228946Y-149546522D01*
X181888687Y-148725065D01*
X181259972Y-148096350D01*
X180438515Y-147756091D01*
X180177713Y-147756091D01*
X185693804Y-142240000D01*
X186496887Y-142240000D01*
X186608260Y-142799909D01*
X186925423Y-143274577D01*
X187400091Y-143591740D01*
X187818667Y-143675000D01*
X188101333Y-143675000D01*
X188519909Y-143591740D01*
X188994577Y-143274577D01*
X189311740Y-142799909D01*
X189423113Y-142240000D01*
X189311740Y-141680091D01*
X188994577Y-141205423D01*
X188519909Y-140888260D01*
X188101333Y-140805000D01*
X187818667Y-140805000D01*
X187400091Y-140888260D01*
X186925423Y-141205423D01*
X186608260Y-141680091D01*
X186496887Y-142240000D01*
X185693804Y-142240000D01*
X189569477Y-138364328D01*
X189632930Y-138321930D01*
X189675328Y-138258477D01*
X189675330Y-138258475D01*
X189800904Y-138070539D01*
X189800905Y-138070538D01*
X189845001Y-137848853D01*
X189845001Y-137848849D01*
X189859889Y-137774002D01*
X189845001Y-137699155D01*
X189845001Y-131614847D01*
X189859889Y-131539999D01*
X189845001Y-131465151D01*
X189845001Y-131465147D01*
X189807000Y-131274105D01*
X189800905Y-131243461D01*
X189675330Y-131055526D01*
X189632930Y-130992070D01*
X189569474Y-130949670D01*
X188720000Y-130100197D01*
X188720000Y-121877912D01*
X188727920Y-121885832D01*
X189549377Y-122226091D01*
X190438515Y-122226091D01*
X191259972Y-121885832D01*
X191888687Y-121257117D01*
X192228946Y-120435660D01*
X192228946Y-119546522D01*
X191888687Y-118725065D01*
X191259972Y-118096350D01*
X190438515Y-117756091D01*
X189549377Y-117756091D01*
X188727920Y-118096350D01*
X188720000Y-118104270D01*
X188720000Y-103525943D01*
X188879984Y-103723332D01*
X189529286Y-104075511D01*
X189670252Y-104104985D01*
X189962897Y-103988862D01*
X189962897Y-102144290D01*
X190216897Y-102144290D01*
X190216897Y-103988862D01*
X190509542Y-104104985D01*
X190650508Y-104075511D01*
X191299810Y-103723332D01*
X191764914Y-103149484D01*
X191975012Y-102441330D01*
X191820279Y-102144290D01*
X190216897Y-102144290D01*
X189962897Y-102144290D01*
X189942897Y-102144290D01*
X189942897Y-101890290D01*
X189962897Y-101890290D01*
X189962897Y-100045718D01*
X190216897Y-100045718D01*
X190216897Y-101890290D01*
X191820279Y-101890290D01*
X191975012Y-101593250D01*
X191764914Y-100885096D01*
X191299810Y-100311248D01*
X190650508Y-99959069D01*
X190509542Y-99929595D01*
X190216897Y-100045718D01*
X189962897Y-100045718D01*
X189670252Y-99929595D01*
X189529286Y-99959069D01*
X188879984Y-100311248D01*
X188720000Y-100508637D01*
X188720000Y-91025943D01*
X188879984Y-91223332D01*
X189529286Y-91575511D01*
X189670252Y-91604985D01*
X189962897Y-91488862D01*
X189962897Y-89644290D01*
X190216897Y-89644290D01*
X190216897Y-91488862D01*
X190509542Y-91604985D01*
X190650508Y-91575511D01*
X191299810Y-91223332D01*
X191764914Y-90649484D01*
X191975012Y-89941330D01*
X191820279Y-89644290D01*
X190216897Y-89644290D01*
X189962897Y-89644290D01*
X189942897Y-89644290D01*
X189942897Y-89390290D01*
X189962897Y-89390290D01*
X189962897Y-89370290D01*
X190216897Y-89370290D01*
X190216897Y-89390290D01*
X191820279Y-89390290D01*
X191975012Y-89093250D01*
X191764914Y-88385096D01*
X191299810Y-87811248D01*
X190712830Y-87492872D01*
X190772930Y-87452715D01*
X190940905Y-87201323D01*
X190985001Y-86979638D01*
X190985001Y-86979634D01*
X190999889Y-86904787D01*
X190985001Y-86829940D01*
X190985001Y-64486845D01*
X190999889Y-64411998D01*
X190985001Y-64337151D01*
X190985001Y-64337147D01*
X190940905Y-64115462D01*
X190895781Y-64047929D01*
X190815330Y-63927525D01*
X190815328Y-63927523D01*
X190772930Y-63864070D01*
X190709476Y-63821672D01*
X189903333Y-63015529D01*
X189860931Y-62952071D01*
X189609539Y-62784096D01*
X189387854Y-62740000D01*
X189387849Y-62740000D01*
X189313002Y-62725112D01*
X189238155Y-62740000D01*
X188074846Y-62740000D01*
X187999999Y-62725112D01*
X187925152Y-62740000D01*
X187925148Y-62740000D01*
X187703463Y-62784096D01*
X187703461Y-62784097D01*
X187703462Y-62784097D01*
X187515526Y-62909671D01*
X187515524Y-62909673D01*
X187452071Y-62952071D01*
X187409673Y-63015524D01*
X186914838Y-63510360D01*
X186805330Y-63465000D01*
X186194670Y-63465000D01*
X185630493Y-63698690D01*
X185198690Y-64130493D01*
X185195461Y-64138290D01*
X185080159Y-64099446D01*
X184179605Y-65000000D01*
X185080159Y-65900554D01*
X185195461Y-65861710D01*
X185198690Y-65869507D01*
X185630493Y-66301310D01*
X186194670Y-66535000D01*
X186805330Y-66535000D01*
X187369507Y-66301310D01*
X187750000Y-65920817D01*
X188130493Y-66301310D01*
X188240001Y-66346670D01*
X188240000Y-76063933D01*
X188223742Y-76024682D01*
X187482505Y-75283445D01*
X186514031Y-74882290D01*
X185465763Y-74882290D01*
X184497289Y-75283445D01*
X183756052Y-76024682D01*
X183354897Y-76993156D01*
X183354897Y-78041424D01*
X183756052Y-79009898D01*
X184497289Y-79751135D01*
X185465763Y-80152290D01*
X185916075Y-80152290D01*
X185890019Y-80283282D01*
X185904908Y-80358134D01*
X185904908Y-87544793D01*
X185825387Y-87491659D01*
X185089897Y-87345361D01*
X184354408Y-87491659D01*
X183730888Y-87908281D01*
X183314266Y-88531800D01*
X183204897Y-89081635D01*
X183204897Y-89952944D01*
X183314266Y-90502779D01*
X183730888Y-91126299D01*
X184354407Y-91542921D01*
X185089897Y-91689219D01*
X185825386Y-91542921D01*
X185904908Y-91489786D01*
X185904908Y-100044793D01*
X185825387Y-99991659D01*
X185089897Y-99845361D01*
X184354408Y-99991659D01*
X183730888Y-100408281D01*
X183314266Y-101031800D01*
X183269413Y-101257290D01*
X179997558Y-101257290D01*
X179922710Y-101242402D01*
X179847862Y-101257290D01*
X179847858Y-101257290D01*
X179626173Y-101301386D01*
X179374781Y-101469361D01*
X179332381Y-101532817D01*
X178974897Y-101890301D01*
X178974897Y-101890288D01*
X178820280Y-101890288D01*
X178975012Y-101593250D01*
X178764914Y-100885096D01*
X178299810Y-100311248D01*
X177650508Y-99959069D01*
X177509542Y-99929595D01*
X177216897Y-100045718D01*
X177216897Y-101890290D01*
X177236897Y-101890290D01*
X177236897Y-102144290D01*
X177216897Y-102144290D01*
X177216897Y-102164290D01*
X176962897Y-102164290D01*
X176962897Y-102144290D01*
X175359515Y-102144290D01*
X175204782Y-102441330D01*
X175414880Y-103149484D01*
X175879984Y-103723332D01*
X176529286Y-104075511D01*
X176670252Y-104104985D01*
X176819393Y-104045805D01*
X161467440Y-119397759D01*
X161467440Y-118580000D01*
X161418157Y-118332235D01*
X161277809Y-118122191D01*
X161067765Y-117981843D01*
X160820000Y-117932560D01*
X159654999Y-117932560D01*
X159654999Y-117276989D01*
X172574370Y-104357619D01*
X172637826Y-104315219D01*
X172722017Y-104189219D01*
X172805801Y-104063828D01*
X172809324Y-104046116D01*
X172825386Y-104042921D01*
X173448906Y-103626299D01*
X173865528Y-103002780D01*
X173974897Y-102452945D01*
X173974897Y-101593250D01*
X175204782Y-101593250D01*
X175359515Y-101890290D01*
X176962897Y-101890290D01*
X176962897Y-100045718D01*
X176670252Y-99929595D01*
X176529286Y-99959069D01*
X175879984Y-100311248D01*
X175414880Y-100885096D01*
X175204782Y-101593250D01*
X173974897Y-101593250D01*
X173974897Y-101581636D01*
X173865528Y-101031800D01*
X173448906Y-100408281D01*
X172825387Y-99991659D01*
X172089897Y-99845361D01*
X171354408Y-99991659D01*
X170730888Y-100408281D01*
X170314266Y-101031800D01*
X170204897Y-101581635D01*
X170204897Y-102452944D01*
X170314266Y-103002779D01*
X170730888Y-103626299D01*
X170985776Y-103796609D01*
X158410529Y-116371857D01*
X158347070Y-116414259D01*
X158179095Y-116665652D01*
X158134999Y-116887337D01*
X158134999Y-116887341D01*
X158120111Y-116962188D01*
X158134999Y-117037035D01*
X158134999Y-118076172D01*
X157736777Y-117933035D01*
X157166546Y-117960222D01*
X157064999Y-118002284D01*
X157064999Y-106866989D01*
X159574370Y-104357619D01*
X159637826Y-104315219D01*
X159805801Y-104063827D01*
X159809324Y-104046116D01*
X159825386Y-104042921D01*
X160448906Y-103626299D01*
X160865528Y-103002780D01*
X160974897Y-102452945D01*
X160974897Y-102441330D01*
X162204782Y-102441330D01*
X162414880Y-103149484D01*
X162879984Y-103723332D01*
X163529286Y-104075511D01*
X163670252Y-104104985D01*
X163962897Y-103988862D01*
X163962897Y-102144290D01*
X164216897Y-102144290D01*
X164216897Y-103988862D01*
X164509542Y-104104985D01*
X164650508Y-104075511D01*
X165299810Y-103723332D01*
X165764914Y-103149484D01*
X165975012Y-102441330D01*
X165820279Y-102144290D01*
X164216897Y-102144290D01*
X163962897Y-102144290D01*
X162359515Y-102144290D01*
X162204782Y-102441330D01*
X160974897Y-102441330D01*
X160974897Y-101593250D01*
X162204782Y-101593250D01*
X162359515Y-101890290D01*
X163962897Y-101890290D01*
X163962897Y-100045718D01*
X164216897Y-100045718D01*
X164216897Y-101890290D01*
X165820279Y-101890290D01*
X165975012Y-101593250D01*
X165764914Y-100885096D01*
X165299810Y-100311248D01*
X164650508Y-99959069D01*
X164509542Y-99929595D01*
X164216897Y-100045718D01*
X163962897Y-100045718D01*
X163670252Y-99929595D01*
X163529286Y-99959069D01*
X162879984Y-100311248D01*
X162414880Y-100885096D01*
X162204782Y-101593250D01*
X160974897Y-101593250D01*
X160974897Y-101581636D01*
X160865528Y-101031800D01*
X160448906Y-100408281D01*
X159825387Y-99991659D01*
X159089897Y-99845361D01*
X158354408Y-99991659D01*
X157730888Y-100408281D01*
X157314266Y-101031800D01*
X157204897Y-101581635D01*
X157204897Y-102452944D01*
X157314266Y-103002779D01*
X157730888Y-103626299D01*
X157985776Y-103796609D01*
X155820529Y-105961857D01*
X155757070Y-106004259D01*
X155589095Y-106255652D01*
X155544999Y-106477337D01*
X155544999Y-106477341D01*
X155530111Y-106552188D01*
X155544999Y-106627035D01*
X155544999Y-112291065D01*
X155530329Y-112269110D01*
X155487929Y-112205654D01*
X155424473Y-112163254D01*
X150481091Y-107219872D01*
X151266026Y-106894741D01*
X151894741Y-106266026D01*
X152235000Y-105444569D01*
X152235000Y-104555431D01*
X151894741Y-103733974D01*
X151266026Y-103105259D01*
X150444569Y-102765000D01*
X149555431Y-102765000D01*
X148733974Y-103105259D01*
X148105259Y-103733974D01*
X147780128Y-104518909D01*
X133349897Y-90088679D01*
X133349897Y-89081635D01*
X134204897Y-89081635D01*
X134204897Y-89952944D01*
X134314266Y-90502779D01*
X134730888Y-91126299D01*
X135354407Y-91542921D01*
X136089897Y-91689219D01*
X136825386Y-91542921D01*
X137448906Y-91126299D01*
X137865528Y-90502780D01*
X137974897Y-89952945D01*
X137974897Y-89941330D01*
X139204782Y-89941330D01*
X139414880Y-90649484D01*
X139879984Y-91223332D01*
X140529286Y-91575511D01*
X140670252Y-91604985D01*
X140962897Y-91488862D01*
X140962897Y-89644290D01*
X141216897Y-89644290D01*
X141216897Y-91488862D01*
X141509542Y-91604985D01*
X141650508Y-91575511D01*
X142299810Y-91223332D01*
X142764914Y-90649484D01*
X142975012Y-89941330D01*
X142820279Y-89644290D01*
X141216897Y-89644290D01*
X140962897Y-89644290D01*
X139359515Y-89644290D01*
X139204782Y-89941330D01*
X137974897Y-89941330D01*
X137974897Y-89093250D01*
X139204782Y-89093250D01*
X139359515Y-89390290D01*
X140962897Y-89390290D01*
X140962897Y-87545718D01*
X141216897Y-87545718D01*
X141216897Y-89390290D01*
X142820279Y-89390290D01*
X142975012Y-89093250D01*
X142971567Y-89081635D01*
X157204897Y-89081635D01*
X157204897Y-89952944D01*
X157314266Y-90502779D01*
X157730888Y-91126299D01*
X158354407Y-91542921D01*
X159089897Y-91689219D01*
X159825386Y-91542921D01*
X160448906Y-91126299D01*
X160865528Y-90502780D01*
X160974897Y-89952945D01*
X160974897Y-89941330D01*
X162204782Y-89941330D01*
X162414880Y-90649484D01*
X162879984Y-91223332D01*
X163529286Y-91575511D01*
X163670252Y-91604985D01*
X163962897Y-91488862D01*
X163962897Y-89644290D01*
X164216897Y-89644290D01*
X164216897Y-91488862D01*
X164509542Y-91604985D01*
X164650508Y-91575511D01*
X165299810Y-91223332D01*
X165764914Y-90649484D01*
X165975012Y-89941330D01*
X165820279Y-89644290D01*
X164216897Y-89644290D01*
X163962897Y-89644290D01*
X162359515Y-89644290D01*
X162204782Y-89941330D01*
X160974897Y-89941330D01*
X160974897Y-89093250D01*
X162204782Y-89093250D01*
X162359515Y-89390290D01*
X163962897Y-89390290D01*
X163962897Y-87545718D01*
X164216897Y-87545718D01*
X164216897Y-89390290D01*
X165820279Y-89390290D01*
X165975012Y-89093250D01*
X165971567Y-89081635D01*
X170204897Y-89081635D01*
X170204897Y-89952944D01*
X170314266Y-90502779D01*
X170730888Y-91126299D01*
X171354407Y-91542921D01*
X172089897Y-91689219D01*
X172825386Y-91542921D01*
X173448906Y-91126299D01*
X173865528Y-90502780D01*
X173974897Y-89952945D01*
X173974897Y-89941330D01*
X175204782Y-89941330D01*
X175414880Y-90649484D01*
X175879984Y-91223332D01*
X176529286Y-91575511D01*
X176670252Y-91604985D01*
X176962897Y-91488862D01*
X176962897Y-89644290D01*
X177216897Y-89644290D01*
X177216897Y-91488862D01*
X177509542Y-91604985D01*
X177650508Y-91575511D01*
X178299810Y-91223332D01*
X178764914Y-90649484D01*
X178975012Y-89941330D01*
X178820279Y-89644290D01*
X177216897Y-89644290D01*
X176962897Y-89644290D01*
X175359515Y-89644290D01*
X175204782Y-89941330D01*
X173974897Y-89941330D01*
X173974897Y-89093250D01*
X175204782Y-89093250D01*
X175359515Y-89390290D01*
X176962897Y-89390290D01*
X176962897Y-87545718D01*
X177216897Y-87545718D01*
X177216897Y-89390290D01*
X178820279Y-89390290D01*
X178975012Y-89093250D01*
X178764914Y-88385096D01*
X178299810Y-87811248D01*
X177650508Y-87459069D01*
X177509542Y-87429595D01*
X177216897Y-87545718D01*
X176962897Y-87545718D01*
X176670252Y-87429595D01*
X176529286Y-87459069D01*
X175879984Y-87811248D01*
X175414880Y-88385096D01*
X175204782Y-89093250D01*
X173974897Y-89093250D01*
X173974897Y-89081636D01*
X173865528Y-88531800D01*
X173448906Y-87908281D01*
X172825387Y-87491659D01*
X172089897Y-87345361D01*
X171354408Y-87491659D01*
X170730888Y-87908281D01*
X170314266Y-88531800D01*
X170204897Y-89081635D01*
X165971567Y-89081635D01*
X165764914Y-88385096D01*
X165299810Y-87811248D01*
X164650508Y-87459069D01*
X164509542Y-87429595D01*
X164216897Y-87545718D01*
X163962897Y-87545718D01*
X163670252Y-87429595D01*
X163529286Y-87459069D01*
X162879984Y-87811248D01*
X162414880Y-88385096D01*
X162204782Y-89093250D01*
X160974897Y-89093250D01*
X160974897Y-89081636D01*
X160865528Y-88531800D01*
X160448906Y-87908281D01*
X159825387Y-87491659D01*
X159089897Y-87345361D01*
X158354408Y-87491659D01*
X157730888Y-87908281D01*
X157314266Y-88531800D01*
X157204897Y-89081635D01*
X142971567Y-89081635D01*
X142764914Y-88385096D01*
X142299810Y-87811248D01*
X141650508Y-87459069D01*
X141509542Y-87429595D01*
X141216897Y-87545718D01*
X140962897Y-87545718D01*
X140670252Y-87429595D01*
X140529286Y-87459069D01*
X139879984Y-87811248D01*
X139414880Y-88385096D01*
X139204782Y-89093250D01*
X137974897Y-89093250D01*
X137974897Y-89081636D01*
X137865528Y-88531800D01*
X137448906Y-87908281D01*
X136825387Y-87491659D01*
X136089897Y-87345361D01*
X135354408Y-87491659D01*
X134730888Y-87908281D01*
X134314266Y-88531800D01*
X134204897Y-89081635D01*
X133349897Y-89081635D01*
X133349897Y-85863959D01*
X133459404Y-85818600D01*
X133839897Y-85438107D01*
X134220390Y-85818600D01*
X134784567Y-86052290D01*
X135395227Y-86052290D01*
X135959404Y-85818600D01*
X136180555Y-85597449D01*
X164189343Y-85597449D01*
X164275749Y-85853933D01*
X164849233Y-86063748D01*
X165459357Y-86038129D01*
X165904045Y-85853933D01*
X165990451Y-85597449D01*
X165089897Y-84696895D01*
X164189343Y-85597449D01*
X136180555Y-85597449D01*
X136391207Y-85386797D01*
X136624897Y-84822620D01*
X136624897Y-84322257D01*
X136894865Y-84052289D01*
X163625515Y-84052289D01*
X163543439Y-84276626D01*
X163569058Y-84886750D01*
X163753254Y-85331438D01*
X164009738Y-85417844D01*
X164910292Y-84517290D01*
X164896150Y-84503148D01*
X165075755Y-84323543D01*
X165089897Y-84337685D01*
X165104040Y-84323543D01*
X165283645Y-84503148D01*
X165269502Y-84517290D01*
X166170056Y-85417844D01*
X166285358Y-85379000D01*
X166288587Y-85386797D01*
X166720390Y-85818600D01*
X167284567Y-86052290D01*
X167895227Y-86052290D01*
X168459404Y-85818600D01*
X168839897Y-85438107D01*
X169220390Y-85818600D01*
X169784567Y-86052290D01*
X170395227Y-86052290D01*
X170959404Y-85818600D01*
X171180555Y-85597449D01*
X178189343Y-85597449D01*
X178275749Y-85853933D01*
X178849233Y-86063748D01*
X179459357Y-86038129D01*
X179904045Y-85853933D01*
X179990451Y-85597449D01*
X179089897Y-84696895D01*
X178189343Y-85597449D01*
X171180555Y-85597449D01*
X171391207Y-85386797D01*
X171624897Y-84822620D01*
X171624897Y-84276626D01*
X177543439Y-84276626D01*
X177569058Y-84886750D01*
X177753254Y-85331438D01*
X178009738Y-85417844D01*
X178910292Y-84517290D01*
X179269502Y-84517290D01*
X180170056Y-85417844D01*
X180285358Y-85379000D01*
X180288587Y-85386797D01*
X180720390Y-85818600D01*
X181284567Y-86052290D01*
X181895227Y-86052290D01*
X182459404Y-85818600D01*
X182839897Y-85438107D01*
X183220390Y-85818600D01*
X183784567Y-86052290D01*
X184395227Y-86052290D01*
X184959404Y-85818600D01*
X185391207Y-85386797D01*
X185624897Y-84822620D01*
X185624897Y-84211960D01*
X185391207Y-83647783D01*
X184959404Y-83215980D01*
X184395227Y-82982290D01*
X183784567Y-82982290D01*
X183220390Y-83215980D01*
X182839897Y-83596473D01*
X182459404Y-83215980D01*
X181895227Y-82982290D01*
X181284567Y-82982290D01*
X180720390Y-83215980D01*
X180288587Y-83647783D01*
X180285358Y-83655580D01*
X180170056Y-83616736D01*
X179269502Y-84517290D01*
X178910292Y-84517290D01*
X178009738Y-83616736D01*
X177753254Y-83703142D01*
X177543439Y-84276626D01*
X171624897Y-84276626D01*
X171624897Y-84211960D01*
X171391207Y-83647783D01*
X171180555Y-83437131D01*
X178189343Y-83437131D01*
X179089897Y-84337685D01*
X179990451Y-83437131D01*
X179904045Y-83180647D01*
X179330561Y-82970832D01*
X178720437Y-82996451D01*
X178275749Y-83180647D01*
X178189343Y-83437131D01*
X171180555Y-83437131D01*
X170959404Y-83215980D01*
X170395227Y-82982290D01*
X169894864Y-82982290D01*
X169413368Y-82500794D01*
X169360505Y-82421680D01*
X169047092Y-82212264D01*
X168770714Y-82157289D01*
X168770713Y-82157289D01*
X168677396Y-82138727D01*
X168584079Y-82157289D01*
X136595710Y-82157289D01*
X136502397Y-82138728D01*
X136409085Y-82157289D01*
X136409080Y-82157289D01*
X136132702Y-82212264D01*
X135819289Y-82421680D01*
X135766428Y-82500792D01*
X135284930Y-82982290D01*
X134784567Y-82982290D01*
X134220390Y-83215980D01*
X133839897Y-83596473D01*
X133459404Y-83215980D01*
X132895227Y-82982290D01*
X132284567Y-82982290D01*
X131720390Y-83215980D01*
X131288587Y-83647783D01*
X131285358Y-83655580D01*
X131170056Y-83616736D01*
X130269502Y-84517290D01*
X131170056Y-85417844D01*
X131285358Y-85379000D01*
X131288587Y-85386797D01*
X131720390Y-85818600D01*
X131829897Y-85863959D01*
X131829898Y-90328628D01*
X131815009Y-90403480D01*
X131829898Y-90478332D01*
X131873994Y-90700017D01*
X132041969Y-90951409D01*
X132105425Y-90993809D01*
X140093887Y-98982271D01*
X112189762Y-98982271D01*
X112114915Y-98967383D01*
X112040068Y-98982271D01*
X112040064Y-98982271D01*
X111818379Y-99026367D01*
X111818377Y-99026368D01*
X111818378Y-99026368D01*
X111630442Y-99151942D01*
X111630440Y-99151944D01*
X111566987Y-99194342D01*
X111524589Y-99257795D01*
X110796476Y-99985908D01*
X110089897Y-99845361D01*
X109354408Y-99991659D01*
X109274887Y-100044793D01*
X109274887Y-93929701D01*
X113218162Y-89986427D01*
X113414880Y-90649484D01*
X113879984Y-91223332D01*
X114529286Y-91575511D01*
X114670252Y-91604985D01*
X114962897Y-91488862D01*
X114962897Y-89644290D01*
X115216897Y-89644290D01*
X115216897Y-91488862D01*
X115509542Y-91604985D01*
X115650508Y-91575511D01*
X116299810Y-91223332D01*
X116764914Y-90649484D01*
X116975012Y-89941330D01*
X116820279Y-89644290D01*
X115216897Y-89644290D01*
X114962897Y-89644290D01*
X114942897Y-89644290D01*
X114942897Y-89390290D01*
X114962897Y-89390290D01*
X114962897Y-89370290D01*
X115216897Y-89370290D01*
X115216897Y-89390290D01*
X116820279Y-89390290D01*
X116975012Y-89093250D01*
X116971567Y-89081635D01*
X121204897Y-89081635D01*
X121204897Y-89952944D01*
X121314266Y-90502779D01*
X121730888Y-91126299D01*
X122354407Y-91542921D01*
X123089897Y-91689219D01*
X123825386Y-91542921D01*
X124448906Y-91126299D01*
X124865528Y-90502780D01*
X124974897Y-89952945D01*
X124974897Y-89941330D01*
X126204782Y-89941330D01*
X126414880Y-90649484D01*
X126879984Y-91223332D01*
X127529286Y-91575511D01*
X127670252Y-91604985D01*
X127962897Y-91488862D01*
X127962897Y-89644290D01*
X128216897Y-89644290D01*
X128216897Y-91488862D01*
X128509542Y-91604985D01*
X128650508Y-91575511D01*
X129299810Y-91223332D01*
X129764914Y-90649484D01*
X129975012Y-89941330D01*
X129820279Y-89644290D01*
X128216897Y-89644290D01*
X127962897Y-89644290D01*
X126359515Y-89644290D01*
X126204782Y-89941330D01*
X124974897Y-89941330D01*
X124974897Y-89093250D01*
X126204782Y-89093250D01*
X126359515Y-89390290D01*
X127962897Y-89390290D01*
X127962897Y-87545718D01*
X128216897Y-87545718D01*
X128216897Y-89390290D01*
X129820279Y-89390290D01*
X129975012Y-89093250D01*
X129764914Y-88385096D01*
X129299810Y-87811248D01*
X128650508Y-87459069D01*
X128509542Y-87429595D01*
X128216897Y-87545718D01*
X127962897Y-87545718D01*
X127670252Y-87429595D01*
X127529286Y-87459069D01*
X126879984Y-87811248D01*
X126414880Y-88385096D01*
X126204782Y-89093250D01*
X124974897Y-89093250D01*
X124974897Y-89081636D01*
X124865528Y-88531800D01*
X124448906Y-87908281D01*
X123825387Y-87491659D01*
X123089897Y-87345361D01*
X122354408Y-87491659D01*
X121730888Y-87908281D01*
X121314266Y-88531800D01*
X121204897Y-89081635D01*
X116971567Y-89081635D01*
X116764914Y-88385096D01*
X116299810Y-87811248D01*
X115712109Y-87492481D01*
X116689773Y-86514817D01*
X116752745Y-86502291D01*
X116752750Y-86502291D01*
X116974435Y-86458195D01*
X117225827Y-86290220D01*
X117268229Y-86226761D01*
X117698390Y-85796600D01*
X117720390Y-85818600D01*
X118284567Y-86052290D01*
X118895227Y-86052290D01*
X119459404Y-85818600D01*
X119839897Y-85438107D01*
X120220390Y-85818600D01*
X120784567Y-86052290D01*
X121395227Y-86052290D01*
X121959404Y-85818600D01*
X122180555Y-85597449D01*
X129189343Y-85597449D01*
X129275749Y-85853933D01*
X129849233Y-86063748D01*
X130459357Y-86038129D01*
X130904045Y-85853933D01*
X130990451Y-85597449D01*
X130089897Y-84696895D01*
X129189343Y-85597449D01*
X122180555Y-85597449D01*
X122391207Y-85386797D01*
X122624897Y-84822620D01*
X122624897Y-84276626D01*
X128543439Y-84276626D01*
X128569058Y-84886750D01*
X128753254Y-85331438D01*
X129009738Y-85417844D01*
X129910292Y-84517290D01*
X129009738Y-83616736D01*
X128753254Y-83703142D01*
X128543439Y-84276626D01*
X122624897Y-84276626D01*
X122624897Y-84211960D01*
X122391207Y-83647783D01*
X122180555Y-83437131D01*
X129189343Y-83437131D01*
X130089897Y-84337685D01*
X130990451Y-83437131D01*
X130904045Y-83180647D01*
X130330561Y-82970832D01*
X129720437Y-82996451D01*
X129275749Y-83180647D01*
X129189343Y-83437131D01*
X122180555Y-83437131D01*
X121959404Y-83215980D01*
X121395227Y-82982290D01*
X120784567Y-82982290D01*
X120220390Y-83215980D01*
X119839897Y-83596473D01*
X119459404Y-83215980D01*
X119207394Y-83111594D01*
X121716698Y-80602291D01*
X157240152Y-80602291D01*
X157314999Y-80617179D01*
X157389846Y-80602291D01*
X157389851Y-80602291D01*
X157611536Y-80558195D01*
X157862928Y-80390220D01*
X157905330Y-80326761D01*
X160554897Y-77677194D01*
X160554897Y-78041424D01*
X160956052Y-79009898D01*
X161697289Y-79751135D01*
X162665763Y-80152290D01*
X163714031Y-80152290D01*
X164682505Y-79751135D01*
X165423742Y-79009898D01*
X165824897Y-78041424D01*
X165824897Y-76993156D01*
X169354897Y-76993156D01*
X169354897Y-78041424D01*
X169756052Y-79009898D01*
X170497289Y-79751135D01*
X171465763Y-80152290D01*
X172514031Y-80152290D01*
X173482505Y-79751135D01*
X174223742Y-79009898D01*
X174589897Y-78125921D01*
X174956052Y-79009898D01*
X175697289Y-79751135D01*
X176665763Y-80152290D01*
X177714031Y-80152290D01*
X178682505Y-79751135D01*
X179423742Y-79009898D01*
X179824897Y-78041424D01*
X179824897Y-76993156D01*
X179423742Y-76024682D01*
X178682505Y-75283445D01*
X177714031Y-74882290D01*
X176665763Y-74882290D01*
X175697289Y-75283445D01*
X174956052Y-76024682D01*
X174589897Y-76908659D01*
X174223742Y-76024682D01*
X173482505Y-75283445D01*
X172514031Y-74882290D01*
X171465763Y-74882290D01*
X170497289Y-75283445D01*
X169756052Y-76024682D01*
X169354897Y-76993156D01*
X165824897Y-76993156D01*
X165423742Y-76024682D01*
X164682505Y-75283445D01*
X163714031Y-74882290D01*
X163349801Y-74882290D01*
X170875162Y-67356930D01*
X170984670Y-67402290D01*
X171595330Y-67402290D01*
X172159507Y-67168600D01*
X172591310Y-66736797D01*
X172825000Y-66172620D01*
X172825000Y-66080159D01*
X183099446Y-66080159D01*
X183185852Y-66336643D01*
X183759336Y-66546458D01*
X184369460Y-66520839D01*
X184814148Y-66336643D01*
X184900554Y-66080159D01*
X184000000Y-65179605D01*
X183099446Y-66080159D01*
X172825000Y-66080159D01*
X172825000Y-65561960D01*
X172591310Y-64997783D01*
X172352863Y-64759336D01*
X182453542Y-64759336D01*
X182479161Y-65369460D01*
X182663357Y-65814148D01*
X182919841Y-65900554D01*
X183820395Y-65000000D01*
X182919841Y-64099446D01*
X182663357Y-64185852D01*
X182453542Y-64759336D01*
X172352863Y-64759336D01*
X172159507Y-64565980D01*
X171595330Y-64332290D01*
X170984670Y-64332290D01*
X170420493Y-64565980D01*
X170244139Y-64742334D01*
X170188327Y-64607591D01*
X170009698Y-64428963D01*
X169776309Y-64332290D01*
X169035750Y-64332290D01*
X168877000Y-64491040D01*
X168877000Y-65740290D01*
X168897000Y-65740290D01*
X168897000Y-65994290D01*
X168877000Y-65994290D01*
X168877000Y-66014290D01*
X168623000Y-66014290D01*
X168623000Y-65994290D01*
X167373750Y-65994290D01*
X167215000Y-66153040D01*
X167215000Y-66893600D01*
X167311673Y-67126989D01*
X167490302Y-67305617D01*
X167723691Y-67402290D01*
X168464250Y-67402290D01*
X168622998Y-67243542D01*
X168622998Y-67402290D01*
X168680198Y-67402290D01*
X157000198Y-79082291D01*
X139151349Y-79082291D01*
X139223742Y-79009898D01*
X139624897Y-78041424D01*
X139624897Y-76993156D01*
X139223742Y-76024682D01*
X138482505Y-75283445D01*
X137514031Y-74882290D01*
X136465763Y-74882290D01*
X135497289Y-75283445D01*
X134756052Y-76024682D01*
X134354897Y-76993156D01*
X134354897Y-78041424D01*
X134756052Y-79009898D01*
X134828445Y-79082291D01*
X130351349Y-79082291D01*
X130423742Y-79009898D01*
X130824897Y-78041424D01*
X130824897Y-76993156D01*
X130423742Y-76024682D01*
X129682505Y-75283445D01*
X128714031Y-74882290D01*
X127665763Y-74882290D01*
X126697289Y-75283445D01*
X125956052Y-76024682D01*
X125589897Y-76908659D01*
X125223742Y-76024682D01*
X124482505Y-75283445D01*
X123514031Y-74882290D01*
X123322299Y-74882290D01*
X123649158Y-74555431D01*
X147765000Y-74555431D01*
X147765000Y-75444569D01*
X148105259Y-76266026D01*
X148733974Y-76894741D01*
X149555431Y-77235000D01*
X150444569Y-77235000D01*
X151266026Y-76894741D01*
X151894741Y-76266026D01*
X152235000Y-75444569D01*
X152235000Y-74555431D01*
X151894741Y-73733974D01*
X151266026Y-73105259D01*
X150444569Y-72765000D01*
X149555431Y-72765000D01*
X148733974Y-73105259D01*
X148105259Y-73733974D01*
X147765000Y-74555431D01*
X123649158Y-74555431D01*
X128864589Y-69340000D01*
X158502443Y-69340000D01*
X158577290Y-69354888D01*
X158652137Y-69340000D01*
X158652142Y-69340000D01*
X158873827Y-69295904D01*
X159125219Y-69127929D01*
X159167621Y-69064470D01*
X160875162Y-67356930D01*
X160984670Y-67402290D01*
X161595330Y-67402290D01*
X162159507Y-67168600D01*
X162591310Y-66736797D01*
X162825000Y-66172620D01*
X162825000Y-65561960D01*
X162591310Y-64997783D01*
X162434507Y-64840980D01*
X167215000Y-64840980D01*
X167215000Y-65581540D01*
X167373750Y-65740290D01*
X168623000Y-65740290D01*
X168623000Y-64491040D01*
X168464250Y-64332290D01*
X167723691Y-64332290D01*
X167490302Y-64428963D01*
X167311673Y-64607591D01*
X167215000Y-64840980D01*
X162434507Y-64840980D01*
X162159507Y-64565980D01*
X161595330Y-64332290D01*
X160984670Y-64332290D01*
X160420493Y-64565980D01*
X160244139Y-64742334D01*
X160188327Y-64607591D01*
X160009698Y-64428963D01*
X159776309Y-64332290D01*
X159035750Y-64332290D01*
X158877000Y-64491040D01*
X158877000Y-65740290D01*
X158897000Y-65740290D01*
X158897000Y-65994290D01*
X158877000Y-65994290D01*
X158877000Y-66014290D01*
X158623000Y-66014290D01*
X158623000Y-65994290D01*
X157373750Y-65994290D01*
X157215000Y-66153040D01*
X157215000Y-66893600D01*
X157311673Y-67126989D01*
X157490302Y-67305617D01*
X157723691Y-67402290D01*
X158464250Y-67402290D01*
X158622998Y-67243542D01*
X158622998Y-67402290D01*
X158680199Y-67402290D01*
X158262489Y-67820000D01*
X150412092Y-67820000D01*
X150875162Y-67356930D01*
X150984670Y-67402290D01*
X151595330Y-67402290D01*
X152159507Y-67168600D01*
X152591310Y-66736797D01*
X152825000Y-66172620D01*
X152825000Y-65561960D01*
X152591310Y-64997783D01*
X152434507Y-64840980D01*
X157215000Y-64840980D01*
X157215000Y-65581540D01*
X157373750Y-65740290D01*
X158623000Y-65740290D01*
X158623000Y-64491040D01*
X158464250Y-64332290D01*
X157723691Y-64332290D01*
X157490302Y-64428963D01*
X157311673Y-64607591D01*
X157215000Y-64840980D01*
X152434507Y-64840980D01*
X152159507Y-64565980D01*
X151595330Y-64332290D01*
X150984670Y-64332290D01*
X150420493Y-64565980D01*
X150244139Y-64742334D01*
X150188327Y-64607591D01*
X150009698Y-64428963D01*
X149776309Y-64332290D01*
X149035750Y-64332290D01*
X148877000Y-64491040D01*
X148877000Y-65740290D01*
X148897000Y-65740290D01*
X148897000Y-65994290D01*
X148877000Y-65994290D01*
X148877000Y-66014290D01*
X148623000Y-66014290D01*
X148623000Y-65994290D01*
X147373750Y-65994290D01*
X147215000Y-66153040D01*
X147215000Y-66893600D01*
X147311673Y-67126989D01*
X147490302Y-67305617D01*
X147645714Y-67369991D01*
X141673307Y-67369991D01*
X142159507Y-67168600D01*
X142591310Y-66736797D01*
X142825000Y-66172620D01*
X142825000Y-65561960D01*
X142591310Y-64997783D01*
X142434507Y-64840980D01*
X147215000Y-64840980D01*
X147215000Y-65581540D01*
X147373750Y-65740290D01*
X148623000Y-65740290D01*
X148623000Y-64491040D01*
X148464250Y-64332290D01*
X147723691Y-64332290D01*
X147490302Y-64428963D01*
X147311673Y-64607591D01*
X147215000Y-64840980D01*
X142434507Y-64840980D01*
X142159507Y-64565980D01*
X141595330Y-64332290D01*
X140984670Y-64332290D01*
X140420493Y-64565980D01*
X140244139Y-64742334D01*
X140188327Y-64607591D01*
X140009698Y-64428963D01*
X139776309Y-64332290D01*
X139035750Y-64332290D01*
X138877000Y-64491040D01*
X138877000Y-65740290D01*
X138897000Y-65740290D01*
X138897000Y-65994290D01*
X138877000Y-65994290D01*
X138877000Y-66014290D01*
X138623000Y-66014290D01*
X138623000Y-65994290D01*
X137373750Y-65994290D01*
X137215000Y-66153040D01*
X137215000Y-66332291D01*
X132758862Y-66332291D01*
X132825000Y-66172620D01*
X132825000Y-65561960D01*
X132591310Y-64997783D01*
X132434507Y-64840980D01*
X137215000Y-64840980D01*
X137215000Y-65581540D01*
X137373750Y-65740290D01*
X138623000Y-65740290D01*
X138623000Y-64491040D01*
X138464250Y-64332290D01*
X137723691Y-64332290D01*
X137490302Y-64428963D01*
X137311673Y-64607591D01*
X137215000Y-64840980D01*
X132434507Y-64840980D01*
X132159507Y-64565980D01*
X131595330Y-64332290D01*
X130984670Y-64332290D01*
X130875161Y-64377650D01*
X130655330Y-64157819D01*
X130612928Y-64094360D01*
X130361536Y-63926385D01*
X130328638Y-63919841D01*
X183099446Y-63919841D01*
X184000000Y-64820395D01*
X184900554Y-63919841D01*
X184814148Y-63663357D01*
X184240664Y-63453542D01*
X183630540Y-63479161D01*
X183185852Y-63663357D01*
X183099446Y-63919841D01*
X130328638Y-63919841D01*
X130139851Y-63882289D01*
X130139846Y-63882289D01*
X130064999Y-63867401D01*
X129990152Y-63882289D01*
X123698744Y-63882289D01*
X123623896Y-63867401D01*
X123549048Y-63882289D01*
X123549044Y-63882289D01*
X123327359Y-63926385D01*
X123075967Y-64094360D01*
X123033567Y-64157816D01*
X106195530Y-80995854D01*
X106132071Y-81038256D01*
X105964096Y-81289649D01*
X105920000Y-81511334D01*
X105920000Y-81511338D01*
X105905112Y-81586185D01*
X105678946Y-81586185D01*
X105678946Y-63751468D01*
X111532446Y-63751468D01*
X111532446Y-64730714D01*
X111907187Y-65635419D01*
X112599618Y-66327850D01*
X113504323Y-66702591D01*
X114483569Y-66702591D01*
X115388274Y-66327850D01*
X116080705Y-65635419D01*
X116455446Y-64730714D01*
X116455446Y-63751468D01*
X116080705Y-62846763D01*
X115388274Y-62154332D01*
X114914800Y-61958212D01*
X115125704Y-61747308D01*
X115328946Y-61256639D01*
X115328946Y-60725543D01*
X115125704Y-60234874D01*
X114750163Y-59859333D01*
X114259494Y-59656091D01*
X113728398Y-59656091D01*
X113237729Y-59859333D01*
X112862188Y-60234874D01*
X112658946Y-60725543D01*
X112658946Y-61256639D01*
X112862188Y-61747308D01*
X113073092Y-61958212D01*
X112599618Y-62154332D01*
X111907187Y-62846763D01*
X111532446Y-63751468D01*
X105678946Y-63751468D01*
X105678946Y-57725543D01*
X112658946Y-57725543D01*
X112658946Y-58256639D01*
X112862188Y-58747308D01*
X113237729Y-59122849D01*
X113728398Y-59326091D01*
X114259494Y-59326091D01*
X114750163Y-59122849D01*
X115125704Y-58747308D01*
X115328946Y-58256639D01*
X115328946Y-57725543D01*
X115225527Y-57475866D01*
X179465000Y-57475866D01*
X179465000Y-58524134D01*
X179866155Y-59492608D01*
X180607392Y-60233845D01*
X181575866Y-60635000D01*
X182624134Y-60635000D01*
X183592608Y-60233845D01*
X184333845Y-59492608D01*
X184735000Y-58524134D01*
X184735000Y-57475866D01*
X188265000Y-57475866D01*
X188265000Y-58524134D01*
X188666155Y-59492608D01*
X189407392Y-60233845D01*
X190375866Y-60635000D01*
X191424134Y-60635000D01*
X192392608Y-60233845D01*
X193133845Y-59492608D01*
X193535000Y-58524134D01*
X193535000Y-57475866D01*
X193133845Y-56507392D01*
X192392608Y-55766155D01*
X191424134Y-55365000D01*
X190375866Y-55365000D01*
X189407392Y-55766155D01*
X188666155Y-56507392D01*
X188265000Y-57475866D01*
X184735000Y-57475866D01*
X184333845Y-56507392D01*
X183592608Y-55766155D01*
X182624134Y-55365000D01*
X181575866Y-55365000D01*
X180607392Y-55766155D01*
X179866155Y-56507392D01*
X179465000Y-57475866D01*
X115225527Y-57475866D01*
X115125704Y-57234874D01*
X114750163Y-56859333D01*
X114259494Y-56656091D01*
X113728398Y-56656091D01*
X113237729Y-56859333D01*
X112862188Y-57234874D01*
X112658946Y-57725543D01*
X105678946Y-57725543D01*
X105678946Y-51251468D01*
X111532446Y-51251468D01*
X111532446Y-52230714D01*
X111907187Y-53135419D01*
X112599618Y-53827850D01*
X113073092Y-54023970D01*
X112862188Y-54234874D01*
X112658946Y-54725543D01*
X112658946Y-55256639D01*
X112862188Y-55747308D01*
X113237729Y-56122849D01*
X113728398Y-56326091D01*
X114259494Y-56326091D01*
X114750163Y-56122849D01*
X115125704Y-55747308D01*
X115328946Y-55256639D01*
X115328946Y-54725543D01*
X115125704Y-54234874D01*
X114914800Y-54023970D01*
X115388274Y-53827850D01*
X116080705Y-53135419D01*
X116455446Y-52230714D01*
X116455446Y-51251468D01*
X116080705Y-50346763D01*
X115388274Y-49654332D01*
X114483569Y-49279591D01*
X113504323Y-49279591D01*
X112599618Y-49654332D01*
X111907187Y-50346763D01*
X111532446Y-51251468D01*
X105678946Y-51251468D01*
X105678946Y-47386282D01*
X143490000Y-47386282D01*
X143490000Y-49433717D01*
X143577612Y-49874172D01*
X143911351Y-50373649D01*
X144410827Y-50707388D01*
X145000000Y-50824582D01*
X145589172Y-50707388D01*
X146088649Y-50373649D01*
X146250000Y-50132170D01*
X146411351Y-50373649D01*
X146910827Y-50707388D01*
X147500000Y-50824582D01*
X148089172Y-50707388D01*
X148588649Y-50373649D01*
X148922388Y-49874173D01*
X149010000Y-49433718D01*
X149010000Y-47386282D01*
X150990000Y-47386282D01*
X150990000Y-49433717D01*
X151077612Y-49874172D01*
X151411351Y-50373649D01*
X151910827Y-50707388D01*
X152500000Y-50824582D01*
X153089172Y-50707388D01*
X153588649Y-50373649D01*
X153750000Y-50132170D01*
X153911351Y-50373649D01*
X154410827Y-50707388D01*
X155000000Y-50824582D01*
X155589172Y-50707388D01*
X156088649Y-50373649D01*
X156422388Y-49874173D01*
X156510000Y-49433718D01*
X156510000Y-47386282D01*
X156422388Y-46945827D01*
X156088649Y-46446351D01*
X155589173Y-46112612D01*
X155000000Y-45995418D01*
X154410828Y-46112612D01*
X153911352Y-46446351D01*
X153750001Y-46687831D01*
X153588649Y-46446351D01*
X153089173Y-46112612D01*
X152500000Y-45995418D01*
X151910828Y-46112612D01*
X151411352Y-46446351D01*
X151077613Y-46945827D01*
X150990000Y-47386282D01*
X149010000Y-47386282D01*
X148922388Y-46945827D01*
X148588649Y-46446351D01*
X148089173Y-46112612D01*
X147500000Y-45995418D01*
X146910828Y-46112612D01*
X146411352Y-46446351D01*
X146250001Y-46687831D01*
X146088649Y-46446351D01*
X145589173Y-46112612D01*
X145000000Y-45995418D01*
X144410828Y-46112612D01*
X143911352Y-46446351D01*
X143577613Y-46945827D01*
X143490000Y-47386282D01*
X105678946Y-47386282D01*
X105678946Y-45021597D01*
X105721345Y-44546522D01*
X107758946Y-44546522D01*
X107758946Y-45435660D01*
X108099205Y-46257117D01*
X108727920Y-46885832D01*
X109549377Y-47226091D01*
X110438515Y-47226091D01*
X111259972Y-46885832D01*
X111888687Y-46257117D01*
X112228946Y-45435660D01*
X112228946Y-44546522D01*
X111888687Y-43725065D01*
X111853372Y-43689750D01*
X147615000Y-43689750D01*
X147615000Y-44780310D01*
X147711673Y-45013699D01*
X147890302Y-45192327D01*
X148123691Y-45289000D01*
X149714250Y-45289000D01*
X149873000Y-45130250D01*
X149873000Y-43531000D01*
X150127000Y-43531000D01*
X150127000Y-45130250D01*
X150285750Y-45289000D01*
X151876309Y-45289000D01*
X152109698Y-45192327D01*
X152288327Y-45013699D01*
X152385000Y-44780310D01*
X152385000Y-44546522D01*
X187758946Y-44546522D01*
X187758946Y-45435660D01*
X188099205Y-46257117D01*
X188727920Y-46885832D01*
X189549377Y-47226091D01*
X190438515Y-47226091D01*
X191259972Y-46885832D01*
X191888687Y-46257117D01*
X192228946Y-45435660D01*
X192228946Y-44546522D01*
X191888687Y-43725065D01*
X191259972Y-43096350D01*
X190438515Y-42756091D01*
X189549377Y-42756091D01*
X188727920Y-43096350D01*
X188099205Y-43725065D01*
X187758946Y-44546522D01*
X152385000Y-44546522D01*
X152385000Y-43689750D01*
X152226250Y-43531000D01*
X150127000Y-43531000D01*
X149873000Y-43531000D01*
X147773750Y-43531000D01*
X147615000Y-43689750D01*
X111853372Y-43689750D01*
X111259972Y-43096350D01*
X110438515Y-42756091D01*
X109549377Y-42756091D01*
X108727920Y-43096350D01*
X108099205Y-43725065D01*
X107758946Y-44546522D01*
X105721345Y-44546522D01*
X105749821Y-44227454D01*
X105952126Y-43487951D01*
X106282188Y-42795963D01*
X106729575Y-42173358D01*
X106879892Y-42027690D01*
X147615000Y-42027690D01*
X147615000Y-43118250D01*
X147773750Y-43277000D01*
X149873000Y-43277000D01*
X149873000Y-41677750D01*
X150127000Y-41677750D01*
X150127000Y-43277000D01*
X152226250Y-43277000D01*
X152385000Y-43118250D01*
X152385000Y-42027690D01*
X152288327Y-41794301D01*
X152109698Y-41615673D01*
X151876309Y-41519000D01*
X150285750Y-41519000D01*
X150127000Y-41677750D01*
X149873000Y-41677750D01*
X149714250Y-41519000D01*
X148123691Y-41519000D01*
X147890302Y-41615673D01*
X147711673Y-41794301D01*
X147615000Y-42027690D01*
X106879892Y-42027690D01*
X107280141Y-41639823D01*
X107916490Y-41212215D01*
X108618507Y-40904050D01*
X109369266Y-40723808D01*
X110019058Y-40676091D01*
X189963440Y-40676091D01*
X190757583Y-40746966D01*
G36*
X145710527Y-138290330D02*
X148472160Y-141051965D01*
X148411843Y-141142235D01*
X148362560Y-141390000D01*
X148362560Y-143090000D01*
X148411843Y-143337765D01*
X148552191Y-143547809D01*
X148762235Y-143688157D01*
X149010000Y-143737440D01*
X150710000Y-143737440D01*
X150957765Y-143688157D01*
X151167809Y-143547809D01*
X151308157Y-143337765D01*
X151317184Y-143292381D01*
X151329375Y-143310625D01*
X151820582Y-143638839D01*
X152253744Y-143725000D01*
X152546256Y-143725000D01*
X152979418Y-143638839D01*
X153470625Y-143310625D01*
X153670000Y-143012239D01*
X153869375Y-143310625D01*
X154360582Y-143638839D01*
X154793744Y-143725000D01*
X155086256Y-143725000D01*
X155519418Y-143638839D01*
X156010625Y-143310625D01*
X156210000Y-143012239D01*
X156409375Y-143310625D01*
X156900582Y-143638839D01*
X157333744Y-143725000D01*
X157626256Y-143725000D01*
X158059418Y-143638839D01*
X158550625Y-143310625D01*
X158750000Y-143012239D01*
X158949375Y-143310625D01*
X159440582Y-143638839D01*
X159873744Y-143725000D01*
X160166256Y-143725000D01*
X160599418Y-143638839D01*
X161090625Y-143310625D01*
X161418839Y-142819418D01*
X161534092Y-142240000D01*
X161418839Y-141660582D01*
X161368337Y-141585001D01*
X163858077Y-141585001D01*
X163705000Y-141954561D01*
X163705000Y-142525439D01*
X163923466Y-143052862D01*
X164327138Y-143456534D01*
X164854561Y-143675000D01*
X165425439Y-143675000D01*
X165952862Y-143456534D01*
X166161651Y-143247745D01*
X166811861Y-143247745D01*
X166885995Y-143493864D01*
X167423223Y-143686965D01*
X167993454Y-143659778D01*
X168394005Y-143493864D01*
X168468139Y-143247745D01*
X167640000Y-142419605D01*
X166811861Y-143247745D01*
X166161651Y-143247745D01*
X166356534Y-143052862D01*
X166383525Y-142987701D01*
X166386136Y-142994005D01*
X166632255Y-143068139D01*
X167460395Y-142240000D01*
X167446252Y-142225858D01*
X167625858Y-142046252D01*
X167640000Y-142060395D01*
X167654143Y-142046253D01*
X167833748Y-142225858D01*
X167819605Y-142240000D01*
X168647745Y-143068139D01*
X168682560Y-143057652D01*
X168682560Y-143090000D01*
X168731843Y-143337765D01*
X168872191Y-143547809D01*
X169082235Y-143688157D01*
X169330000Y-143737440D01*
X170595002Y-143737440D01*
X170595001Y-145880154D01*
X170580113Y-145955001D01*
X170595001Y-146029848D01*
X170595001Y-146029852D01*
X170639097Y-146251537D01*
X170807072Y-146502930D01*
X170870531Y-146545332D01*
X171685000Y-147359802D01*
X171685000Y-147525874D01*
X171842569Y-147906280D01*
X172133720Y-148197431D01*
X172514126Y-148355000D01*
X172925874Y-148355000D01*
X173306280Y-148197431D01*
X173597431Y-147906280D01*
X173755000Y-147525874D01*
X173755000Y-147114126D01*
X173597431Y-146733720D01*
X173306280Y-146442569D01*
X172925874Y-146285000D01*
X172759802Y-146285000D01*
X172115001Y-145640200D01*
X172115001Y-143621746D01*
X172140582Y-143638839D01*
X172573744Y-143725000D01*
X172866256Y-143725000D01*
X173299418Y-143638839D01*
X173790625Y-143310625D01*
X173990000Y-143012239D01*
X174189375Y-143310625D01*
X174680582Y-143638839D01*
X175113744Y-143725000D01*
X175406256Y-143725000D01*
X175839418Y-143638839D01*
X176330625Y-143310625D01*
X176530000Y-143012239D01*
X176729375Y-143310625D01*
X177220582Y-143638839D01*
X177653744Y-143725000D01*
X177946256Y-143725000D01*
X178379418Y-143638839D01*
X178870625Y-143310625D01*
X179070000Y-143012239D01*
X179269375Y-143310625D01*
X179667534Y-143576666D01*
X169064201Y-154180000D01*
X139934803Y-154180000D01*
X138493103Y-152738302D01*
X138515000Y-152685439D01*
X138515000Y-152114561D01*
X138296534Y-151587138D01*
X137892862Y-151183466D01*
X137365439Y-150965000D01*
X136794561Y-150965000D01*
X136714999Y-150997956D01*
X136714999Y-148688907D01*
X136874561Y-148755000D01*
X137445439Y-148755000D01*
X137972862Y-148536534D01*
X138376534Y-148132862D01*
X138410000Y-148052068D01*
X138443466Y-148132862D01*
X138847138Y-148536534D01*
X139374561Y-148755000D01*
X139945439Y-148755000D01*
X140472862Y-148536534D01*
X140876534Y-148132862D01*
X140950000Y-147955500D01*
X141023466Y-148132862D01*
X141427138Y-148536534D01*
X141954561Y-148755000D01*
X142525439Y-148755000D01*
X142605001Y-148722044D01*
X142605001Y-150045199D01*
X141755528Y-150894673D01*
X141692072Y-150937073D01*
X141681724Y-150952560D01*
X141440000Y-150952560D01*
X141192235Y-151001843D01*
X140982191Y-151142191D01*
X140841843Y-151352235D01*
X140792560Y-151600000D01*
X140792560Y-153200000D01*
X140841843Y-153447765D01*
X140982191Y-153657809D01*
X141192235Y-153798157D01*
X141440000Y-153847440D01*
X143040000Y-153847440D01*
X143287765Y-153798157D01*
X143497809Y-153657809D01*
X143638157Y-153447765D01*
X143646117Y-153407745D01*
X143911861Y-153407745D01*
X143985995Y-153653864D01*
X144523223Y-153846965D01*
X145093454Y-153819778D01*
X145494005Y-153653864D01*
X145568139Y-153407745D01*
X144740000Y-152579605D01*
X143911861Y-153407745D01*
X143646117Y-153407745D01*
X143684693Y-153213813D01*
X143732255Y-153228139D01*
X144560395Y-152400000D01*
X144919605Y-152400000D01*
X145747745Y-153228139D01*
X145993864Y-153154005D01*
X146186965Y-152616777D01*
X146159778Y-152046546D01*
X145993864Y-151645995D01*
X145841165Y-151600000D01*
X148412560Y-151600000D01*
X148412560Y-153200000D01*
X148461843Y-153447765D01*
X148602191Y-153657809D01*
X148812235Y-153798157D01*
X149060000Y-153847440D01*
X150660000Y-153847440D01*
X150907765Y-153798157D01*
X151117809Y-153657809D01*
X151258157Y-153447765D01*
X151266117Y-153407745D01*
X151531861Y-153407745D01*
X151605995Y-153653864D01*
X152143223Y-153846965D01*
X152713454Y-153819778D01*
X153114005Y-153653864D01*
X153188139Y-153407745D01*
X152360000Y-152579605D01*
X151531861Y-153407745D01*
X151266117Y-153407745D01*
X151304693Y-153213813D01*
X151352255Y-153228139D01*
X152180395Y-152400000D01*
X152539605Y-152400000D01*
X153367745Y-153228139D01*
X153613864Y-153154005D01*
X153806965Y-152616777D01*
X153779778Y-152046546D01*
X153613864Y-151645995D01*
X153461165Y-151600000D01*
X156032560Y-151600000D01*
X156032560Y-153200000D01*
X156081843Y-153447765D01*
X156222191Y-153657809D01*
X156432235Y-153798157D01*
X156680000Y-153847440D01*
X158280000Y-153847440D01*
X158527765Y-153798157D01*
X158737809Y-153657809D01*
X158878157Y-153447765D01*
X158886117Y-153407745D01*
X159151861Y-153407745D01*
X159225995Y-153653864D01*
X159763223Y-153846965D01*
X160333454Y-153819778D01*
X160734005Y-153653864D01*
X160808139Y-153407745D01*
X159980000Y-152579605D01*
X159151861Y-153407745D01*
X158886117Y-153407745D01*
X158924693Y-153213813D01*
X158972255Y-153228139D01*
X159800395Y-152400000D01*
X160159605Y-152400000D01*
X160987745Y-153228139D01*
X161233864Y-153154005D01*
X161426965Y-152616777D01*
X161399778Y-152046546D01*
X161233864Y-151645995D01*
X160987745Y-151571861D01*
X160159605Y-152400000D01*
X159800395Y-152400000D01*
X158972255Y-151571861D01*
X158924693Y-151586187D01*
X158886118Y-151392255D01*
X159151861Y-151392255D01*
X159980000Y-152220395D01*
X160808139Y-151392255D01*
X160734005Y-151146136D01*
X160196777Y-150953035D01*
X159626546Y-150980222D01*
X159225995Y-151146136D01*
X159151861Y-151392255D01*
X158886118Y-151392255D01*
X158878157Y-151352235D01*
X158737809Y-151142191D01*
X158527765Y-151001843D01*
X158280000Y-150952560D01*
X156680000Y-150952560D01*
X156432235Y-151001843D01*
X156222191Y-151142191D01*
X156081843Y-151352235D01*
X156032560Y-151600000D01*
X153461165Y-151600000D01*
X153367745Y-151571861D01*
X152539605Y-152400000D01*
X152180395Y-152400000D01*
X151352255Y-151571861D01*
X151304693Y-151586187D01*
X151266118Y-151392255D01*
X151531861Y-151392255D01*
X152360000Y-152220395D01*
X153188139Y-151392255D01*
X153114005Y-151146136D01*
X152576777Y-150953035D01*
X152006546Y-150980222D01*
X151605995Y-151146136D01*
X151531861Y-151392255D01*
X151266118Y-151392255D01*
X151258157Y-151352235D01*
X151117809Y-151142191D01*
X150907765Y-151001843D01*
X150660000Y-150952560D01*
X149060000Y-150952560D01*
X148812235Y-151001843D01*
X148602191Y-151142191D01*
X148461843Y-151352235D01*
X148412560Y-151600000D01*
X145841165Y-151600000D01*
X145747745Y-151571861D01*
X144919605Y-152400000D01*
X144560395Y-152400000D01*
X143732255Y-151571861D01*
X143684693Y-151586187D01*
X143646118Y-151392255D01*
X143911861Y-151392255D01*
X144740000Y-152220395D01*
X145568139Y-151392255D01*
X145494005Y-151146136D01*
X144956777Y-150953035D01*
X144386546Y-150980222D01*
X143985995Y-151146136D01*
X143911861Y-151392255D01*
X143646118Y-151392255D01*
X143638157Y-151352235D01*
X143561818Y-151237986D01*
X143849474Y-150950330D01*
X143912930Y-150907930D01*
X144028638Y-150734761D01*
X144080905Y-150656539D01*
X144091138Y-150605092D01*
X144125001Y-150434853D01*
X144125001Y-150434849D01*
X144139889Y-150360001D01*
X144125001Y-150285153D01*
X144125001Y-148623828D01*
X144523223Y-148766965D01*
X145093454Y-148739778D01*
X145494005Y-148573864D01*
X145568139Y-148327745D01*
X144740000Y-147499605D01*
X144725858Y-147513748D01*
X144546252Y-147334142D01*
X144560395Y-147320000D01*
X144919605Y-147320000D01*
X145747745Y-148148139D01*
X145993864Y-148074005D01*
X146186965Y-147536777D01*
X146159778Y-146966546D01*
X145993864Y-146565995D01*
X145747745Y-146491861D01*
X144919605Y-147320000D01*
X144560395Y-147320000D01*
X144546252Y-147305858D01*
X144725858Y-147126252D01*
X144740000Y-147140395D01*
X145568139Y-146312255D01*
X145494005Y-146066136D01*
X144956777Y-145873035D01*
X144386546Y-145900222D01*
X144125001Y-146008558D01*
X144125001Y-143487109D01*
X144430959Y-143631914D01*
X144653000Y-143510629D01*
X144653000Y-142367000D01*
X144907000Y-142367000D01*
X144907000Y-143510629D01*
X145129041Y-143631914D01*
X145635134Y-143392389D01*
X146011041Y-142977423D01*
X146171904Y-142589039D01*
X146049915Y-142367000D01*
X144907000Y-142367000D01*
X144653000Y-142367000D01*
X144633000Y-142367000D01*
X144633000Y-142113000D01*
X144653000Y-142113000D01*
X144653000Y-139827000D01*
X144907000Y-139827000D01*
X144907000Y-142113000D01*
X146049915Y-142113000D01*
X146171904Y-141890961D01*
X146011041Y-141502577D01*
X145635134Y-141087611D01*
X145386633Y-140970000D01*
X145635134Y-140852389D01*
X146011041Y-140437423D01*
X146171904Y-140049039D01*
X146049915Y-139827000D01*
X144907000Y-139827000D01*
X144653000Y-139827000D01*
X144633000Y-139827000D01*
X144633000Y-139573000D01*
X144653000Y-139573000D01*
X144653000Y-139553000D01*
X144907000Y-139553000D01*
X144907000Y-139573000D01*
X146049915Y-139573000D01*
X146171904Y-139350961D01*
X146011041Y-138962577D01*
X145635134Y-138547611D01*
X145422641Y-138447042D01*
X145592862Y-138376534D01*
X145691668Y-138277728D01*
X145710527Y-138290330D01*
X145710527Y-138290330D01*
G37*
X145710527Y-138290330D02*
X148472160Y-141051965D01*
X148411843Y-141142235D01*
X148362560Y-141390000D01*
X148362560Y-143090000D01*
X148411843Y-143337765D01*
X148552191Y-143547809D01*
X148762235Y-143688157D01*
X149010000Y-143737440D01*
X150710000Y-143737440D01*
X150957765Y-143688157D01*
X151167809Y-143547809D01*
X151308157Y-143337765D01*
X151317184Y-143292381D01*
X151329375Y-143310625D01*
X151820582Y-143638839D01*
X152253744Y-143725000D01*
X152546256Y-143725000D01*
X152979418Y-143638839D01*
X153470625Y-143310625D01*
X153670000Y-143012239D01*
X153869375Y-143310625D01*
X154360582Y-143638839D01*
X154793744Y-143725000D01*
X155086256Y-143725000D01*
X155519418Y-143638839D01*
X156010625Y-143310625D01*
X156210000Y-143012239D01*
X156409375Y-143310625D01*
X156900582Y-143638839D01*
X157333744Y-143725000D01*
X157626256Y-143725000D01*
X158059418Y-143638839D01*
X158550625Y-143310625D01*
X158750000Y-143012239D01*
X158949375Y-143310625D01*
X159440582Y-143638839D01*
X159873744Y-143725000D01*
X160166256Y-143725000D01*
X160599418Y-143638839D01*
X161090625Y-143310625D01*
X161418839Y-142819418D01*
X161534092Y-142240000D01*
X161418839Y-141660582D01*
X161368337Y-141585001D01*
X163858077Y-141585001D01*
X163705000Y-141954561D01*
X163705000Y-142525439D01*
X163923466Y-143052862D01*
X164327138Y-143456534D01*
X164854561Y-143675000D01*
X165425439Y-143675000D01*
X165952862Y-143456534D01*
X166161651Y-143247745D01*
X166811861Y-143247745D01*
X166885995Y-143493864D01*
X167423223Y-143686965D01*
X167993454Y-143659778D01*
X168394005Y-143493864D01*
X168468139Y-143247745D01*
X167640000Y-142419605D01*
X166811861Y-143247745D01*
X166161651Y-143247745D01*
X166356534Y-143052862D01*
X166383525Y-142987701D01*
X166386136Y-142994005D01*
X166632255Y-143068139D01*
X167460395Y-142240000D01*
X167446252Y-142225858D01*
X167625858Y-142046252D01*
X167640000Y-142060395D01*
X167654143Y-142046253D01*
X167833748Y-142225858D01*
X167819605Y-142240000D01*
X168647745Y-143068139D01*
X168682560Y-143057652D01*
X168682560Y-143090000D01*
X168731843Y-143337765D01*
X168872191Y-143547809D01*
X169082235Y-143688157D01*
X169330000Y-143737440D01*
X170595002Y-143737440D01*
X170595001Y-145880154D01*
X170580113Y-145955001D01*
X170595001Y-146029848D01*
X170595001Y-146029852D01*
X170639097Y-146251537D01*
X170807072Y-146502930D01*
X170870531Y-146545332D01*
X171685000Y-147359802D01*
X171685000Y-147525874D01*
X171842569Y-147906280D01*
X172133720Y-148197431D01*
X172514126Y-148355000D01*
X172925874Y-148355000D01*
X173306280Y-148197431D01*
X173597431Y-147906280D01*
X173755000Y-147525874D01*
X173755000Y-147114126D01*
X173597431Y-146733720D01*
X173306280Y-146442569D01*
X172925874Y-146285000D01*
X172759802Y-146285000D01*
X172115001Y-145640200D01*
X172115001Y-143621746D01*
X172140582Y-143638839D01*
X172573744Y-143725000D01*
X172866256Y-143725000D01*
X173299418Y-143638839D01*
X173790625Y-143310625D01*
X173990000Y-143012239D01*
X174189375Y-143310625D01*
X174680582Y-143638839D01*
X175113744Y-143725000D01*
X175406256Y-143725000D01*
X175839418Y-143638839D01*
X176330625Y-143310625D01*
X176530000Y-143012239D01*
X176729375Y-143310625D01*
X177220582Y-143638839D01*
X177653744Y-143725000D01*
X177946256Y-143725000D01*
X178379418Y-143638839D01*
X178870625Y-143310625D01*
X179070000Y-143012239D01*
X179269375Y-143310625D01*
X179667534Y-143576666D01*
X169064201Y-154180000D01*
X139934803Y-154180000D01*
X138493103Y-152738302D01*
X138515000Y-152685439D01*
X138515000Y-152114561D01*
X138296534Y-151587138D01*
X137892862Y-151183466D01*
X137365439Y-150965000D01*
X136794561Y-150965000D01*
X136714999Y-150997956D01*
X136714999Y-148688907D01*
X136874561Y-148755000D01*
X137445439Y-148755000D01*
X137972862Y-148536534D01*
X138376534Y-148132862D01*
X138410000Y-148052068D01*
X138443466Y-148132862D01*
X138847138Y-148536534D01*
X139374561Y-148755000D01*
X139945439Y-148755000D01*
X140472862Y-148536534D01*
X140876534Y-148132862D01*
X140950000Y-147955500D01*
X141023466Y-148132862D01*
X141427138Y-148536534D01*
X141954561Y-148755000D01*
X142525439Y-148755000D01*
X142605001Y-148722044D01*
X142605001Y-150045199D01*
X141755528Y-150894673D01*
X141692072Y-150937073D01*
X141681724Y-150952560D01*
X141440000Y-150952560D01*
X141192235Y-151001843D01*
X140982191Y-151142191D01*
X140841843Y-151352235D01*
X140792560Y-151600000D01*
X140792560Y-153200000D01*
X140841843Y-153447765D01*
X140982191Y-153657809D01*
X141192235Y-153798157D01*
X141440000Y-153847440D01*
X143040000Y-153847440D01*
X143287765Y-153798157D01*
X143497809Y-153657809D01*
X143638157Y-153447765D01*
X143646117Y-153407745D01*
X143911861Y-153407745D01*
X143985995Y-153653864D01*
X144523223Y-153846965D01*
X145093454Y-153819778D01*
X145494005Y-153653864D01*
X145568139Y-153407745D01*
X144740000Y-152579605D01*
X143911861Y-153407745D01*
X143646117Y-153407745D01*
X143684693Y-153213813D01*
X143732255Y-153228139D01*
X144560395Y-152400000D01*
X144919605Y-152400000D01*
X145747745Y-153228139D01*
X145993864Y-153154005D01*
X146186965Y-152616777D01*
X146159778Y-152046546D01*
X145993864Y-151645995D01*
X145841165Y-151600000D01*
X148412560Y-151600000D01*
X148412560Y-153200000D01*
X148461843Y-153447765D01*
X148602191Y-153657809D01*
X148812235Y-153798157D01*
X149060000Y-153847440D01*
X150660000Y-153847440D01*
X150907765Y-153798157D01*
X151117809Y-153657809D01*
X151258157Y-153447765D01*
X151266117Y-153407745D01*
X151531861Y-153407745D01*
X151605995Y-153653864D01*
X152143223Y-153846965D01*
X152713454Y-153819778D01*
X153114005Y-153653864D01*
X153188139Y-153407745D01*
X152360000Y-152579605D01*
X151531861Y-153407745D01*
X151266117Y-153407745D01*
X151304693Y-153213813D01*
X151352255Y-153228139D01*
X152180395Y-152400000D01*
X152539605Y-152400000D01*
X153367745Y-153228139D01*
X153613864Y-153154005D01*
X153806965Y-152616777D01*
X153779778Y-152046546D01*
X153613864Y-151645995D01*
X153461165Y-151600000D01*
X156032560Y-151600000D01*
X156032560Y-153200000D01*
X156081843Y-153447765D01*
X156222191Y-153657809D01*
X156432235Y-153798157D01*
X156680000Y-153847440D01*
X158280000Y-153847440D01*
X158527765Y-153798157D01*
X158737809Y-153657809D01*
X158878157Y-153447765D01*
X158886117Y-153407745D01*
X159151861Y-153407745D01*
X159225995Y-153653864D01*
X159763223Y-153846965D01*
X160333454Y-153819778D01*
X160734005Y-153653864D01*
X160808139Y-153407745D01*
X159980000Y-152579605D01*
X159151861Y-153407745D01*
X158886117Y-153407745D01*
X158924693Y-153213813D01*
X158972255Y-153228139D01*
X159800395Y-152400000D01*
X160159605Y-152400000D01*
X160987745Y-153228139D01*
X161233864Y-153154005D01*
X161426965Y-152616777D01*
X161399778Y-152046546D01*
X161233864Y-151645995D01*
X160987745Y-151571861D01*
X160159605Y-152400000D01*
X159800395Y-152400000D01*
X158972255Y-151571861D01*
X158924693Y-151586187D01*
X158886118Y-151392255D01*
X159151861Y-151392255D01*
X159980000Y-152220395D01*
X160808139Y-151392255D01*
X160734005Y-151146136D01*
X160196777Y-150953035D01*
X159626546Y-150980222D01*
X159225995Y-151146136D01*
X159151861Y-151392255D01*
X158886118Y-151392255D01*
X158878157Y-151352235D01*
X158737809Y-151142191D01*
X158527765Y-151001843D01*
X158280000Y-150952560D01*
X156680000Y-150952560D01*
X156432235Y-151001843D01*
X156222191Y-151142191D01*
X156081843Y-151352235D01*
X156032560Y-151600000D01*
X153461165Y-151600000D01*
X153367745Y-151571861D01*
X152539605Y-152400000D01*
X152180395Y-152400000D01*
X151352255Y-151571861D01*
X151304693Y-151586187D01*
X151266118Y-151392255D01*
X151531861Y-151392255D01*
X152360000Y-152220395D01*
X153188139Y-151392255D01*
X153114005Y-151146136D01*
X152576777Y-150953035D01*
X152006546Y-150980222D01*
X151605995Y-151146136D01*
X151531861Y-151392255D01*
X151266118Y-151392255D01*
X151258157Y-151352235D01*
X151117809Y-151142191D01*
X150907765Y-151001843D01*
X150660000Y-150952560D01*
X149060000Y-150952560D01*
X148812235Y-151001843D01*
X148602191Y-151142191D01*
X148461843Y-151352235D01*
X148412560Y-151600000D01*
X145841165Y-151600000D01*
X145747745Y-151571861D01*
X144919605Y-152400000D01*
X144560395Y-152400000D01*
X143732255Y-151571861D01*
X143684693Y-151586187D01*
X143646118Y-151392255D01*
X143911861Y-151392255D01*
X144740000Y-152220395D01*
X145568139Y-151392255D01*
X145494005Y-151146136D01*
X144956777Y-150953035D01*
X144386546Y-150980222D01*
X143985995Y-151146136D01*
X143911861Y-151392255D01*
X143646118Y-151392255D01*
X143638157Y-151352235D01*
X143561818Y-151237986D01*
X143849474Y-150950330D01*
X143912930Y-150907930D01*
X144028638Y-150734761D01*
X144080905Y-150656539D01*
X144091138Y-150605092D01*
X144125001Y-150434853D01*
X144125001Y-150434849D01*
X144139889Y-150360001D01*
X144125001Y-150285153D01*
X144125001Y-148623828D01*
X144523223Y-148766965D01*
X145093454Y-148739778D01*
X145494005Y-148573864D01*
X145568139Y-148327745D01*
X144740000Y-147499605D01*
X144725858Y-147513748D01*
X144546252Y-147334142D01*
X144560395Y-147320000D01*
X144919605Y-147320000D01*
X145747745Y-148148139D01*
X145993864Y-148074005D01*
X146186965Y-147536777D01*
X146159778Y-146966546D01*
X145993864Y-146565995D01*
X145747745Y-146491861D01*
X144919605Y-147320000D01*
X144560395Y-147320000D01*
X144546252Y-147305858D01*
X144725858Y-147126252D01*
X144740000Y-147140395D01*
X145568139Y-146312255D01*
X145494005Y-146066136D01*
X144956777Y-145873035D01*
X144386546Y-145900222D01*
X144125001Y-146008558D01*
X144125001Y-143487109D01*
X144430959Y-143631914D01*
X144653000Y-143510629D01*
X144653000Y-142367000D01*
X144907000Y-142367000D01*
X144907000Y-143510629D01*
X145129041Y-143631914D01*
X145635134Y-143392389D01*
X146011041Y-142977423D01*
X146171904Y-142589039D01*
X146049915Y-142367000D01*
X144907000Y-142367000D01*
X144653000Y-142367000D01*
X144633000Y-142367000D01*
X144633000Y-142113000D01*
X144653000Y-142113000D01*
X144653000Y-139827000D01*
X144907000Y-139827000D01*
X144907000Y-142113000D01*
X146049915Y-142113000D01*
X146171904Y-141890961D01*
X146011041Y-141502577D01*
X145635134Y-141087611D01*
X145386633Y-140970000D01*
X145635134Y-140852389D01*
X146011041Y-140437423D01*
X146171904Y-140049039D01*
X146049915Y-139827000D01*
X144907000Y-139827000D01*
X144653000Y-139827000D01*
X144633000Y-139827000D01*
X144633000Y-139573000D01*
X144653000Y-139573000D01*
X144653000Y-139553000D01*
X144907000Y-139553000D01*
X144907000Y-139573000D01*
X146049915Y-139573000D01*
X146171904Y-139350961D01*
X146011041Y-138962577D01*
X145635134Y-138547611D01*
X145422641Y-138447042D01*
X145592862Y-138376534D01*
X145691668Y-138277728D01*
X145710527Y-138290330D01*
G36*
X165227000Y-131953000D02*
X165247000Y-131953000D01*
X165247000Y-132207000D01*
X165227000Y-132207000D01*
X165227000Y-133349915D01*
X165449039Y-133471904D01*
X165837423Y-133311041D01*
X166252389Y-132935134D01*
X166349053Y-132730892D01*
X166605423Y-133114577D01*
X167080091Y-133431740D01*
X167498667Y-133515000D01*
X167781333Y-133515000D01*
X168199909Y-133431740D01*
X168294999Y-133368203D01*
X168295000Y-138434820D01*
X167989039Y-138308096D01*
X167767000Y-138430085D01*
X167767000Y-139573000D01*
X167787000Y-139573000D01*
X167787000Y-139827000D01*
X167767000Y-139827000D01*
X167767000Y-139847000D01*
X167513000Y-139847000D01*
X167513000Y-139827000D01*
X167493000Y-139827000D01*
X167493000Y-139573000D01*
X167513000Y-139573000D01*
X167513000Y-138430085D01*
X167290961Y-138308096D01*
X166902577Y-138468959D01*
X166487611Y-138844866D01*
X166390947Y-139049108D01*
X166134577Y-138665423D01*
X165659909Y-138348260D01*
X165241333Y-138265000D01*
X164958667Y-138265000D01*
X164540091Y-138348260D01*
X164065423Y-138665423D01*
X163830000Y-139017758D01*
X163594577Y-138665423D01*
X163119909Y-138348260D01*
X162701333Y-138265000D01*
X162418667Y-138265000D01*
X162205429Y-138307416D01*
X162209887Y-138285002D01*
X162194999Y-138210155D01*
X162194999Y-133470510D01*
X162418667Y-133515000D01*
X162701333Y-133515000D01*
X163119909Y-133431740D01*
X163594577Y-133114577D01*
X163850947Y-132730892D01*
X163947611Y-132935134D01*
X164362577Y-133311041D01*
X164750961Y-133471904D01*
X164973000Y-133349915D01*
X164973000Y-132207000D01*
X164953000Y-132207000D01*
X164953000Y-131953000D01*
X164973000Y-131953000D01*
X164973000Y-131933000D01*
X165227000Y-131933000D01*
X165227000Y-131953000D01*
X165227000Y-131953000D01*
G37*
X165227000Y-131953000D02*
X165247000Y-131953000D01*
X165247000Y-132207000D01*
X165227000Y-132207000D01*
X165227000Y-133349915D01*
X165449039Y-133471904D01*
X165837423Y-133311041D01*
X166252389Y-132935134D01*
X166349053Y-132730892D01*
X166605423Y-133114577D01*
X167080091Y-133431740D01*
X167498667Y-133515000D01*
X167781333Y-133515000D01*
X168199909Y-133431740D01*
X168294999Y-133368203D01*
X168295000Y-138434820D01*
X167989039Y-138308096D01*
X167767000Y-138430085D01*
X167767000Y-139573000D01*
X167787000Y-139573000D01*
X167787000Y-139827000D01*
X167767000Y-139827000D01*
X167767000Y-139847000D01*
X167513000Y-139847000D01*
X167513000Y-139827000D01*
X167493000Y-139827000D01*
X167493000Y-139573000D01*
X167513000Y-139573000D01*
X167513000Y-138430085D01*
X167290961Y-138308096D01*
X166902577Y-138468959D01*
X166487611Y-138844866D01*
X166390947Y-139049108D01*
X166134577Y-138665423D01*
X165659909Y-138348260D01*
X165241333Y-138265000D01*
X164958667Y-138265000D01*
X164540091Y-138348260D01*
X164065423Y-138665423D01*
X163830000Y-139017758D01*
X163594577Y-138665423D01*
X163119909Y-138348260D01*
X162701333Y-138265000D01*
X162418667Y-138265000D01*
X162205429Y-138307416D01*
X162209887Y-138285002D01*
X162194999Y-138210155D01*
X162194999Y-133470510D01*
X162418667Y-133515000D01*
X162701333Y-133515000D01*
X163119909Y-133431740D01*
X163594577Y-133114577D01*
X163850947Y-132730892D01*
X163947611Y-132935134D01*
X164362577Y-133311041D01*
X164750961Y-133471904D01*
X164973000Y-133349915D01*
X164973000Y-132207000D01*
X164953000Y-132207000D01*
X164953000Y-131953000D01*
X164973000Y-131953000D01*
X164973000Y-131933000D01*
X165227000Y-131933000D01*
X165227000Y-131953000D01*
G36*
X183314266Y-103002779D02*
X183730888Y-103626299D01*
X184354407Y-104042921D01*
X185089897Y-104189219D01*
X185825386Y-104042921D01*
X185904908Y-103989786D01*
X185904907Y-137529291D01*
X184242087Y-139192111D01*
X184231740Y-139140091D01*
X183914577Y-138665423D01*
X183439909Y-138348260D01*
X183021333Y-138265000D01*
X182738667Y-138265000D01*
X182320091Y-138348260D01*
X181845423Y-138665423D01*
X181610000Y-139017758D01*
X181374577Y-138665423D01*
X180899909Y-138348260D01*
X180481333Y-138265000D01*
X180198667Y-138265000D01*
X179780091Y-138348260D01*
X179305423Y-138665423D01*
X179070000Y-139017758D01*
X178834577Y-138665423D01*
X178359909Y-138348260D01*
X177941333Y-138265000D01*
X177658667Y-138265000D01*
X177240091Y-138348260D01*
X176765423Y-138665423D01*
X176530000Y-139017758D01*
X176294577Y-138665423D01*
X175819909Y-138348260D01*
X175401333Y-138265000D01*
X175118667Y-138265000D01*
X174700091Y-138348260D01*
X174225423Y-138665423D01*
X173990000Y-139017758D01*
X173754577Y-138665423D01*
X173279909Y-138348260D01*
X172861333Y-138265000D01*
X172578667Y-138265000D01*
X172160091Y-138348260D01*
X172115001Y-138378388D01*
X172115001Y-133759800D01*
X172396114Y-133478688D01*
X172578667Y-133515000D01*
X172861333Y-133515000D01*
X173279909Y-133431740D01*
X173754577Y-133114577D01*
X173990000Y-132762242D01*
X174225423Y-133114577D01*
X174700091Y-133431740D01*
X175118667Y-133515000D01*
X175401333Y-133515000D01*
X175819909Y-133431740D01*
X176294577Y-133114577D01*
X176530000Y-132762242D01*
X176765423Y-133114577D01*
X177240091Y-133431740D01*
X177658667Y-133515000D01*
X177941333Y-133515000D01*
X178359909Y-133431740D01*
X178834577Y-133114577D01*
X179070000Y-132762242D01*
X179305423Y-133114577D01*
X179780091Y-133431740D01*
X180198667Y-133515000D01*
X180481333Y-133515000D01*
X180899909Y-133431740D01*
X181374577Y-133114577D01*
X181455215Y-132993894D01*
X181481843Y-133127765D01*
X181622191Y-133337809D01*
X181832235Y-133478157D01*
X182080000Y-133527440D01*
X183680000Y-133527440D01*
X183927765Y-133478157D01*
X184137809Y-133337809D01*
X184278157Y-133127765D01*
X184327440Y-132880000D01*
X184327440Y-131280000D01*
X184278157Y-131032235D01*
X184137809Y-130822191D01*
X183927765Y-130681843D01*
X183680000Y-130632560D01*
X182080000Y-130632560D01*
X181832235Y-130681843D01*
X181699396Y-130770604D01*
X181788157Y-130637765D01*
X181837440Y-130390000D01*
X181837440Y-128690000D01*
X181788157Y-128442235D01*
X181647809Y-128232191D01*
X181437765Y-128091843D01*
X181190000Y-128042560D01*
X179490000Y-128042560D01*
X179242235Y-128091843D01*
X179032191Y-128232191D01*
X178891843Y-128442235D01*
X178882816Y-128487619D01*
X178870625Y-128469375D01*
X178379418Y-128141161D01*
X177946256Y-128055000D01*
X177653744Y-128055000D01*
X177220582Y-128141161D01*
X176729375Y-128469375D01*
X176530000Y-128767761D01*
X176330625Y-128469375D01*
X175839418Y-128141161D01*
X175406256Y-128055000D01*
X175113744Y-128055000D01*
X174893593Y-128098791D01*
X170940000Y-124145199D01*
X170940000Y-120580000D01*
X171222560Y-120580000D01*
X171222560Y-122280000D01*
X171271843Y-122527765D01*
X171412191Y-122737809D01*
X171622235Y-122878157D01*
X171870000Y-122927440D01*
X173570000Y-122927440D01*
X173817765Y-122878157D01*
X174027809Y-122737809D01*
X174168157Y-122527765D01*
X174177184Y-122482381D01*
X174189375Y-122500625D01*
X174680582Y-122828839D01*
X175113744Y-122915000D01*
X175405034Y-122915000D01*
X178461426Y-125971393D01*
X178514287Y-126050505D01*
X178827700Y-126259921D01*
X179033736Y-126300904D01*
X179197396Y-126333458D01*
X179290714Y-126314896D01*
X182772780Y-126314896D01*
X182984024Y-126402396D01*
X183395772Y-126402396D01*
X183776178Y-126244827D01*
X184067329Y-125953676D01*
X184224898Y-125573270D01*
X184224898Y-125161522D01*
X184067329Y-124781116D01*
X183776178Y-124489965D01*
X183395772Y-124332396D01*
X182984024Y-124332396D01*
X182772780Y-124419896D01*
X179589863Y-124419896D01*
X177927002Y-122757036D01*
X177927002Y-122750156D01*
X178156890Y-122871476D01*
X178566924Y-122701645D01*
X178995183Y-122311358D01*
X179070000Y-122152046D01*
X179144817Y-122311358D01*
X179573076Y-122701645D01*
X179983110Y-122871476D01*
X180213000Y-122750155D01*
X180213000Y-121557000D01*
X180467000Y-121557000D01*
X180467000Y-122750155D01*
X180696890Y-122871476D01*
X181106924Y-122701645D01*
X181535183Y-122311358D01*
X181781486Y-121786892D01*
X181660819Y-121557000D01*
X180467000Y-121557000D01*
X180213000Y-121557000D01*
X177927000Y-121557000D01*
X177927000Y-121577000D01*
X177673000Y-121577000D01*
X177673000Y-121557000D01*
X177653000Y-121557000D01*
X177653000Y-121303000D01*
X177673000Y-121303000D01*
X177673000Y-120109845D01*
X177927000Y-120109845D01*
X177927000Y-121303000D01*
X180213000Y-121303000D01*
X180213000Y-120109845D01*
X180467000Y-120109845D01*
X180467000Y-121303000D01*
X181660819Y-121303000D01*
X181781486Y-121073108D01*
X181535183Y-120548642D01*
X181106924Y-120158355D01*
X180696890Y-119988524D01*
X180467000Y-120109845D01*
X180213000Y-120109845D01*
X179983110Y-119988524D01*
X179573076Y-120158355D01*
X179144817Y-120548642D01*
X179070000Y-120707954D01*
X178995183Y-120548642D01*
X178566924Y-120158355D01*
X178156890Y-119988524D01*
X177927000Y-120109845D01*
X177673000Y-120109845D01*
X177443110Y-119988524D01*
X177033076Y-120158355D01*
X176604817Y-120548642D01*
X176543843Y-120678478D01*
X176330625Y-120359375D01*
X175839418Y-120031161D01*
X175406256Y-119945000D01*
X175113744Y-119945000D01*
X174680582Y-120031161D01*
X174189375Y-120359375D01*
X174177184Y-120377619D01*
X174168157Y-120332235D01*
X174027809Y-120122191D01*
X173817765Y-119981843D01*
X173570000Y-119932560D01*
X171870000Y-119932560D01*
X171622235Y-119981843D01*
X171412191Y-120122191D01*
X171271843Y-120332235D01*
X171222560Y-120580000D01*
X170940000Y-120580000D01*
X170940000Y-117543711D01*
X171057431Y-117426280D01*
X171215000Y-117045874D01*
X171215000Y-116634126D01*
X171057431Y-116253720D01*
X170766280Y-115962569D01*
X170385874Y-115805000D01*
X169974126Y-115805000D01*
X169593720Y-115962569D01*
X169302569Y-116253720D01*
X169145000Y-116634126D01*
X169145000Y-117045874D01*
X169302569Y-117426280D01*
X169420000Y-117543711D01*
X169420001Y-124385148D01*
X169405112Y-124460000D01*
X169464097Y-124756537D01*
X169529543Y-124854483D01*
X169632072Y-125007929D01*
X169695528Y-125050329D01*
X172700198Y-128055000D01*
X172573744Y-128055000D01*
X172140582Y-128141161D01*
X171649375Y-128469375D01*
X171450000Y-128767761D01*
X171250625Y-128469375D01*
X170759418Y-128141161D01*
X170326256Y-128055000D01*
X170033744Y-128055000D01*
X169600582Y-128141161D01*
X169109375Y-128469375D01*
X168862689Y-128838566D01*
X168816534Y-128727138D01*
X168412862Y-128323466D01*
X167885439Y-128105000D01*
X167314561Y-128105000D01*
X166787138Y-128323466D01*
X166383466Y-128727138D01*
X166356475Y-128792299D01*
X166353864Y-128785995D01*
X166107745Y-128711861D01*
X165279605Y-129540000D01*
X166107745Y-130368139D01*
X166353864Y-130294005D01*
X166356290Y-130287254D01*
X166383466Y-130352862D01*
X166787138Y-130756534D01*
X166941861Y-130820622D01*
X166605423Y-131045423D01*
X166349053Y-131429108D01*
X166252389Y-131224866D01*
X165837423Y-130848959D01*
X165779207Y-130824847D01*
X165854005Y-130793864D01*
X165928139Y-130547745D01*
X165100000Y-129719605D01*
X164271861Y-130547745D01*
X164345995Y-130793864D01*
X164426089Y-130822653D01*
X164362577Y-130848959D01*
X163947611Y-131224866D01*
X163850947Y-131429108D01*
X163594577Y-131045423D01*
X163119909Y-130728260D01*
X162701333Y-130645000D01*
X162418667Y-130645000D01*
X162194999Y-130689490D01*
X162194999Y-129323223D01*
X163653035Y-129323223D01*
X163680222Y-129893454D01*
X163846136Y-130294005D01*
X164092255Y-130368139D01*
X164920395Y-129540000D01*
X164092255Y-128711861D01*
X163846136Y-128785995D01*
X163653035Y-129323223D01*
X162194999Y-129323223D01*
X162194999Y-128532255D01*
X164271861Y-128532255D01*
X165100000Y-129360395D01*
X165928139Y-128532255D01*
X165854005Y-128286136D01*
X165316777Y-128093035D01*
X164746546Y-128120222D01*
X164345995Y-128286136D01*
X164271861Y-128532255D01*
X162194999Y-128532255D01*
X162194999Y-120819802D01*
X162627056Y-120387745D01*
X164311861Y-120387745D01*
X164385995Y-120633864D01*
X164923223Y-120826965D01*
X165493454Y-120799778D01*
X165894005Y-120633864D01*
X165968139Y-120387745D01*
X165140000Y-119559605D01*
X164311861Y-120387745D01*
X162627056Y-120387745D01*
X163700250Y-119314551D01*
X163720222Y-119733454D01*
X163886136Y-120134005D01*
X164132255Y-120208139D01*
X164960395Y-119380000D01*
X165319605Y-119380000D01*
X166147745Y-120208139D01*
X166195307Y-120193813D01*
X166241843Y-120427765D01*
X166382191Y-120637809D01*
X166592235Y-120778157D01*
X166840000Y-120827440D01*
X168440000Y-120827440D01*
X168687765Y-120778157D01*
X168897809Y-120637809D01*
X169038157Y-120427765D01*
X169087440Y-120180000D01*
X169087440Y-118580000D01*
X169038157Y-118332235D01*
X168897809Y-118122191D01*
X168687765Y-117981843D01*
X168440000Y-117932560D01*
X166840000Y-117932560D01*
X166592235Y-117981843D01*
X166382191Y-118122191D01*
X166241843Y-118332235D01*
X166195307Y-118566187D01*
X166147745Y-118551861D01*
X165319605Y-119380000D01*
X164960395Y-119380000D01*
X164946253Y-119365858D01*
X165125858Y-119186253D01*
X165140000Y-119200395D01*
X165968139Y-118372255D01*
X165894005Y-118126136D01*
X165356777Y-117933035D01*
X165067998Y-117946803D01*
X180237512Y-102777290D01*
X183269413Y-102777290D01*
X183314266Y-103002779D01*
X183314266Y-103002779D01*
G37*
X183314266Y-103002779D02*
X183730888Y-103626299D01*
X184354407Y-104042921D01*
X185089897Y-104189219D01*
X185825386Y-104042921D01*
X185904908Y-103989786D01*
X185904907Y-137529291D01*
X184242087Y-139192111D01*
X184231740Y-139140091D01*
X183914577Y-138665423D01*
X183439909Y-138348260D01*
X183021333Y-138265000D01*
X182738667Y-138265000D01*
X182320091Y-138348260D01*
X181845423Y-138665423D01*
X181610000Y-139017758D01*
X181374577Y-138665423D01*
X180899909Y-138348260D01*
X180481333Y-138265000D01*
X180198667Y-138265000D01*
X179780091Y-138348260D01*
X179305423Y-138665423D01*
X179070000Y-139017758D01*
X178834577Y-138665423D01*
X178359909Y-138348260D01*
X177941333Y-138265000D01*
X177658667Y-138265000D01*
X177240091Y-138348260D01*
X176765423Y-138665423D01*
X176530000Y-139017758D01*
X176294577Y-138665423D01*
X175819909Y-138348260D01*
X175401333Y-138265000D01*
X175118667Y-138265000D01*
X174700091Y-138348260D01*
X174225423Y-138665423D01*
X173990000Y-139017758D01*
X173754577Y-138665423D01*
X173279909Y-138348260D01*
X172861333Y-138265000D01*
X172578667Y-138265000D01*
X172160091Y-138348260D01*
X172115001Y-138378388D01*
X172115001Y-133759800D01*
X172396114Y-133478688D01*
X172578667Y-133515000D01*
X172861333Y-133515000D01*
X173279909Y-133431740D01*
X173754577Y-133114577D01*
X173990000Y-132762242D01*
X174225423Y-133114577D01*
X174700091Y-133431740D01*
X175118667Y-133515000D01*
X175401333Y-133515000D01*
X175819909Y-133431740D01*
X176294577Y-133114577D01*
X176530000Y-132762242D01*
X176765423Y-133114577D01*
X177240091Y-133431740D01*
X177658667Y-133515000D01*
X177941333Y-133515000D01*
X178359909Y-133431740D01*
X178834577Y-133114577D01*
X179070000Y-132762242D01*
X179305423Y-133114577D01*
X179780091Y-133431740D01*
X180198667Y-133515000D01*
X180481333Y-133515000D01*
X180899909Y-133431740D01*
X181374577Y-133114577D01*
X181455215Y-132993894D01*
X181481843Y-133127765D01*
X181622191Y-133337809D01*
X181832235Y-133478157D01*
X182080000Y-133527440D01*
X183680000Y-133527440D01*
X183927765Y-133478157D01*
X184137809Y-133337809D01*
X184278157Y-133127765D01*
X184327440Y-132880000D01*
X184327440Y-131280000D01*
X184278157Y-131032235D01*
X184137809Y-130822191D01*
X183927765Y-130681843D01*
X183680000Y-130632560D01*
X182080000Y-130632560D01*
X181832235Y-130681843D01*
X181699396Y-130770604D01*
X181788157Y-130637765D01*
X181837440Y-130390000D01*
X181837440Y-128690000D01*
X181788157Y-128442235D01*
X181647809Y-128232191D01*
X181437765Y-128091843D01*
X181190000Y-128042560D01*
X179490000Y-128042560D01*
X179242235Y-128091843D01*
X179032191Y-128232191D01*
X178891843Y-128442235D01*
X178882816Y-128487619D01*
X178870625Y-128469375D01*
X178379418Y-128141161D01*
X177946256Y-128055000D01*
X177653744Y-128055000D01*
X177220582Y-128141161D01*
X176729375Y-128469375D01*
X176530000Y-128767761D01*
X176330625Y-128469375D01*
X175839418Y-128141161D01*
X175406256Y-128055000D01*
X175113744Y-128055000D01*
X174893593Y-128098791D01*
X170940000Y-124145199D01*
X170940000Y-120580000D01*
X171222560Y-120580000D01*
X171222560Y-122280000D01*
X171271843Y-122527765D01*
X171412191Y-122737809D01*
X171622235Y-122878157D01*
X171870000Y-122927440D01*
X173570000Y-122927440D01*
X173817765Y-122878157D01*
X174027809Y-122737809D01*
X174168157Y-122527765D01*
X174177184Y-122482381D01*
X174189375Y-122500625D01*
X174680582Y-122828839D01*
X175113744Y-122915000D01*
X175405034Y-122915000D01*
X178461426Y-125971393D01*
X178514287Y-126050505D01*
X178827700Y-126259921D01*
X179033736Y-126300904D01*
X179197396Y-126333458D01*
X179290714Y-126314896D01*
X182772780Y-126314896D01*
X182984024Y-126402396D01*
X183395772Y-126402396D01*
X183776178Y-126244827D01*
X184067329Y-125953676D01*
X184224898Y-125573270D01*
X184224898Y-125161522D01*
X184067329Y-124781116D01*
X183776178Y-124489965D01*
X183395772Y-124332396D01*
X182984024Y-124332396D01*
X182772780Y-124419896D01*
X179589863Y-124419896D01*
X177927002Y-122757036D01*
X177927002Y-122750156D01*
X178156890Y-122871476D01*
X178566924Y-122701645D01*
X178995183Y-122311358D01*
X179070000Y-122152046D01*
X179144817Y-122311358D01*
X179573076Y-122701645D01*
X179983110Y-122871476D01*
X180213000Y-122750155D01*
X180213000Y-121557000D01*
X180467000Y-121557000D01*
X180467000Y-122750155D01*
X180696890Y-122871476D01*
X181106924Y-122701645D01*
X181535183Y-122311358D01*
X181781486Y-121786892D01*
X181660819Y-121557000D01*
X180467000Y-121557000D01*
X180213000Y-121557000D01*
X177927000Y-121557000D01*
X177927000Y-121577000D01*
X177673000Y-121577000D01*
X177673000Y-121557000D01*
X177653000Y-121557000D01*
X177653000Y-121303000D01*
X177673000Y-121303000D01*
X177673000Y-120109845D01*
X177927000Y-120109845D01*
X177927000Y-121303000D01*
X180213000Y-121303000D01*
X180213000Y-120109845D01*
X180467000Y-120109845D01*
X180467000Y-121303000D01*
X181660819Y-121303000D01*
X181781486Y-121073108D01*
X181535183Y-120548642D01*
X181106924Y-120158355D01*
X180696890Y-119988524D01*
X180467000Y-120109845D01*
X180213000Y-120109845D01*
X179983110Y-119988524D01*
X179573076Y-120158355D01*
X179144817Y-120548642D01*
X179070000Y-120707954D01*
X178995183Y-120548642D01*
X178566924Y-120158355D01*
X178156890Y-119988524D01*
X177927000Y-120109845D01*
X177673000Y-120109845D01*
X177443110Y-119988524D01*
X177033076Y-120158355D01*
X176604817Y-120548642D01*
X176543843Y-120678478D01*
X176330625Y-120359375D01*
X175839418Y-120031161D01*
X175406256Y-119945000D01*
X175113744Y-119945000D01*
X174680582Y-120031161D01*
X174189375Y-120359375D01*
X174177184Y-120377619D01*
X174168157Y-120332235D01*
X174027809Y-120122191D01*
X173817765Y-119981843D01*
X173570000Y-119932560D01*
X171870000Y-119932560D01*
X171622235Y-119981843D01*
X171412191Y-120122191D01*
X171271843Y-120332235D01*
X171222560Y-120580000D01*
X170940000Y-120580000D01*
X170940000Y-117543711D01*
X171057431Y-117426280D01*
X171215000Y-117045874D01*
X171215000Y-116634126D01*
X171057431Y-116253720D01*
X170766280Y-115962569D01*
X170385874Y-115805000D01*
X169974126Y-115805000D01*
X169593720Y-115962569D01*
X169302569Y-116253720D01*
X169145000Y-116634126D01*
X169145000Y-117045874D01*
X169302569Y-117426280D01*
X169420000Y-117543711D01*
X169420001Y-124385148D01*
X169405112Y-124460000D01*
X169464097Y-124756537D01*
X169529543Y-124854483D01*
X169632072Y-125007929D01*
X169695528Y-125050329D01*
X172700198Y-128055000D01*
X172573744Y-128055000D01*
X172140582Y-128141161D01*
X171649375Y-128469375D01*
X171450000Y-128767761D01*
X171250625Y-128469375D01*
X170759418Y-128141161D01*
X170326256Y-128055000D01*
X170033744Y-128055000D01*
X169600582Y-128141161D01*
X169109375Y-128469375D01*
X168862689Y-128838566D01*
X168816534Y-128727138D01*
X168412862Y-128323466D01*
X167885439Y-128105000D01*
X167314561Y-128105000D01*
X166787138Y-128323466D01*
X166383466Y-128727138D01*
X166356475Y-128792299D01*
X166353864Y-128785995D01*
X166107745Y-128711861D01*
X165279605Y-129540000D01*
X166107745Y-130368139D01*
X166353864Y-130294005D01*
X166356290Y-130287254D01*
X166383466Y-130352862D01*
X166787138Y-130756534D01*
X166941861Y-130820622D01*
X166605423Y-131045423D01*
X166349053Y-131429108D01*
X166252389Y-131224866D01*
X165837423Y-130848959D01*
X165779207Y-130824847D01*
X165854005Y-130793864D01*
X165928139Y-130547745D01*
X165100000Y-129719605D01*
X164271861Y-130547745D01*
X164345995Y-130793864D01*
X164426089Y-130822653D01*
X164362577Y-130848959D01*
X163947611Y-131224866D01*
X163850947Y-131429108D01*
X163594577Y-131045423D01*
X163119909Y-130728260D01*
X162701333Y-130645000D01*
X162418667Y-130645000D01*
X162194999Y-130689490D01*
X162194999Y-129323223D01*
X163653035Y-129323223D01*
X163680222Y-129893454D01*
X163846136Y-130294005D01*
X164092255Y-130368139D01*
X164920395Y-129540000D01*
X164092255Y-128711861D01*
X163846136Y-128785995D01*
X163653035Y-129323223D01*
X162194999Y-129323223D01*
X162194999Y-128532255D01*
X164271861Y-128532255D01*
X165100000Y-129360395D01*
X165928139Y-128532255D01*
X165854005Y-128286136D01*
X165316777Y-128093035D01*
X164746546Y-128120222D01*
X164345995Y-128286136D01*
X164271861Y-128532255D01*
X162194999Y-128532255D01*
X162194999Y-120819802D01*
X162627056Y-120387745D01*
X164311861Y-120387745D01*
X164385995Y-120633864D01*
X164923223Y-120826965D01*
X165493454Y-120799778D01*
X165894005Y-120633864D01*
X165968139Y-120387745D01*
X165140000Y-119559605D01*
X164311861Y-120387745D01*
X162627056Y-120387745D01*
X163700250Y-119314551D01*
X163720222Y-119733454D01*
X163886136Y-120134005D01*
X164132255Y-120208139D01*
X164960395Y-119380000D01*
X165319605Y-119380000D01*
X166147745Y-120208139D01*
X166195307Y-120193813D01*
X166241843Y-120427765D01*
X166382191Y-120637809D01*
X166592235Y-120778157D01*
X166840000Y-120827440D01*
X168440000Y-120827440D01*
X168687765Y-120778157D01*
X168897809Y-120637809D01*
X169038157Y-120427765D01*
X169087440Y-120180000D01*
X169087440Y-118580000D01*
X169038157Y-118332235D01*
X168897809Y-118122191D01*
X168687765Y-117981843D01*
X168440000Y-117932560D01*
X166840000Y-117932560D01*
X166592235Y-117981843D01*
X166382191Y-118122191D01*
X166241843Y-118332235D01*
X166195307Y-118566187D01*
X166147745Y-118551861D01*
X165319605Y-119380000D01*
X164960395Y-119380000D01*
X164946253Y-119365858D01*
X165125858Y-119186253D01*
X165140000Y-119200395D01*
X165968139Y-118372255D01*
X165894005Y-118126136D01*
X165356777Y-117933035D01*
X165067998Y-117946803D01*
X180237512Y-102777290D01*
X183269413Y-102777290D01*
X183314266Y-103002779D01*
G36*
X129667000Y-137033000D02*
X129687000Y-137033000D01*
X129687000Y-137287000D01*
X129667000Y-137287000D01*
X129667000Y-137307000D01*
X129413000Y-137307000D01*
X129413000Y-137287000D01*
X129393000Y-137287000D01*
X129393000Y-137033000D01*
X129413000Y-137033000D01*
X129413000Y-137013000D01*
X129667000Y-137013000D01*
X129667000Y-137033000D01*
X129667000Y-137033000D01*
G37*
X129667000Y-137033000D02*
X129687000Y-137033000D01*
X129687000Y-137287000D01*
X129667000Y-137287000D01*
X129667000Y-137307000D01*
X129413000Y-137307000D01*
X129413000Y-137287000D01*
X129393000Y-137287000D01*
X129393000Y-137033000D01*
X129413000Y-137033000D01*
X129413000Y-137013000D01*
X129667000Y-137013000D01*
X129667000Y-137033000D01*
G36*
X152725001Y-112249796D02*
X152725001Y-115446313D01*
X152576777Y-115393035D01*
X152006546Y-115420222D01*
X151605995Y-115586136D01*
X151531861Y-115832255D01*
X152360000Y-116660395D01*
X152374142Y-116646252D01*
X152553748Y-116825858D01*
X152539605Y-116840000D01*
X152553748Y-116854143D01*
X152374142Y-117033748D01*
X152360000Y-117019605D01*
X151531861Y-117847745D01*
X151605995Y-118093864D01*
X152143223Y-118286965D01*
X152713454Y-118259778D01*
X152725001Y-118254995D01*
X152725002Y-128090555D01*
X152546256Y-128055000D01*
X152253744Y-128055000D01*
X151820582Y-128141161D01*
X151329375Y-128469375D01*
X151130000Y-128767761D01*
X150930625Y-128469375D01*
X150439418Y-128141161D01*
X150006256Y-128055000D01*
X149713744Y-128055000D01*
X149494999Y-128098511D01*
X149494999Y-123267925D01*
X149584506Y-123305000D01*
X150135494Y-123305000D01*
X150644540Y-123094147D01*
X151034147Y-122704540D01*
X151245000Y-122195494D01*
X151245000Y-121644506D01*
X151034147Y-121135460D01*
X150644540Y-120745853D01*
X150135494Y-120535000D01*
X149584506Y-120535000D01*
X149494999Y-120572075D01*
X149494999Y-118242044D01*
X149574561Y-118275000D01*
X150145439Y-118275000D01*
X150672862Y-118056534D01*
X151076534Y-117652862D01*
X151103525Y-117587701D01*
X151106136Y-117594005D01*
X151352255Y-117668139D01*
X152180395Y-116840000D01*
X151352255Y-116011861D01*
X151106136Y-116085995D01*
X151103710Y-116092746D01*
X151076534Y-116027138D01*
X150672862Y-115623466D01*
X150145439Y-115405000D01*
X149574561Y-115405000D01*
X149494999Y-115437956D01*
X149494999Y-112259839D01*
X149509887Y-112184992D01*
X149494999Y-112110145D01*
X149494999Y-112110140D01*
X149450903Y-111888455D01*
X149282928Y-111637063D01*
X149219472Y-111594663D01*
X141682803Y-104057994D01*
X142299810Y-103723332D01*
X142764914Y-103149484D01*
X142961633Y-102486427D01*
X152725001Y-112249796D01*
X152725001Y-112249796D01*
G37*
X152725001Y-112249796D02*
X152725001Y-115446313D01*
X152576777Y-115393035D01*
X152006546Y-115420222D01*
X151605995Y-115586136D01*
X151531861Y-115832255D01*
X152360000Y-116660395D01*
X152374142Y-116646252D01*
X152553748Y-116825858D01*
X152539605Y-116840000D01*
X152553748Y-116854143D01*
X152374142Y-117033748D01*
X152360000Y-117019605D01*
X151531861Y-117847745D01*
X151605995Y-118093864D01*
X152143223Y-118286965D01*
X152713454Y-118259778D01*
X152725001Y-118254995D01*
X152725002Y-128090555D01*
X152546256Y-128055000D01*
X152253744Y-128055000D01*
X151820582Y-128141161D01*
X151329375Y-128469375D01*
X151130000Y-128767761D01*
X150930625Y-128469375D01*
X150439418Y-128141161D01*
X150006256Y-128055000D01*
X149713744Y-128055000D01*
X149494999Y-128098511D01*
X149494999Y-123267925D01*
X149584506Y-123305000D01*
X150135494Y-123305000D01*
X150644540Y-123094147D01*
X151034147Y-122704540D01*
X151245000Y-122195494D01*
X151245000Y-121644506D01*
X151034147Y-121135460D01*
X150644540Y-120745853D01*
X150135494Y-120535000D01*
X149584506Y-120535000D01*
X149494999Y-120572075D01*
X149494999Y-118242044D01*
X149574561Y-118275000D01*
X150145439Y-118275000D01*
X150672862Y-118056534D01*
X151076534Y-117652862D01*
X151103525Y-117587701D01*
X151106136Y-117594005D01*
X151352255Y-117668139D01*
X152180395Y-116840000D01*
X151352255Y-116011861D01*
X151106136Y-116085995D01*
X151103710Y-116092746D01*
X151076534Y-116027138D01*
X150672862Y-115623466D01*
X150145439Y-115405000D01*
X149574561Y-115405000D01*
X149494999Y-115437956D01*
X149494999Y-112259839D01*
X149509887Y-112184992D01*
X149494999Y-112110145D01*
X149494999Y-112110140D01*
X149450903Y-111888455D01*
X149282928Y-111637063D01*
X149219472Y-111594663D01*
X141682803Y-104057994D01*
X142299810Y-103723332D01*
X142764914Y-103149484D01*
X142961633Y-102486427D01*
X152725001Y-112249796D01*
G36*
X157713748Y-119365858D02*
X157699605Y-119380000D01*
X157713748Y-119394143D01*
X157534142Y-119573748D01*
X157520000Y-119559605D01*
X157505858Y-119573748D01*
X157326253Y-119394143D01*
X157340395Y-119380000D01*
X157326253Y-119365858D01*
X157505858Y-119186252D01*
X157520000Y-119200395D01*
X157534142Y-119186252D01*
X157713748Y-119365858D01*
X157713748Y-119365858D01*
G37*
X157713748Y-119365858D02*
X157699605Y-119380000D01*
X157713748Y-119394143D01*
X157534142Y-119573748D01*
X157520000Y-119559605D01*
X157505858Y-119573748D01*
X157326253Y-119394143D01*
X157340395Y-119380000D01*
X157326253Y-119365858D01*
X157505858Y-119186252D01*
X157520000Y-119200395D01*
X157534142Y-119186252D01*
X157713748Y-119365858D01*
G36*
X141216897Y-101890290D02*
X141236897Y-101890290D01*
X141236897Y-102144290D01*
X141216897Y-102144290D01*
X141216897Y-102164290D01*
X140962897Y-102164290D01*
X140962897Y-102144290D01*
X140942897Y-102144290D01*
X140942897Y-101890290D01*
X140962897Y-101890290D01*
X140962897Y-101870290D01*
X141216897Y-101870290D01*
X141216897Y-101890290D01*
X141216897Y-101890290D01*
G37*
X141216897Y-101890290D02*
X141236897Y-101890290D01*
X141236897Y-102144290D01*
X141216897Y-102144290D01*
X141216897Y-102164290D01*
X140962897Y-102164290D01*
X140962897Y-102144290D01*
X140942897Y-102144290D01*
X140942897Y-101890290D01*
X140962897Y-101890290D01*
X140962897Y-101870290D01*
X141216897Y-101870290D01*
X141216897Y-101890290D01*
G36*
X120354897Y-78041424D02*
X120756052Y-79009898D01*
X120965795Y-79219641D01*
X120853967Y-79294362D01*
X120811567Y-79357818D01*
X116925387Y-83243999D01*
X116904045Y-83180647D01*
X116330561Y-82970832D01*
X115720437Y-82996451D01*
X115275749Y-83180647D01*
X115189343Y-83437131D01*
X116089897Y-84337685D01*
X116104040Y-84323543D01*
X116283645Y-84503148D01*
X116269502Y-84517290D01*
X116283645Y-84531433D01*
X116104040Y-84711038D01*
X116089897Y-84696895D01*
X115189343Y-85597449D01*
X115256926Y-85798059D01*
X111974640Y-89080345D01*
X111865528Y-88531800D01*
X111448906Y-87908281D01*
X110825387Y-87491659D01*
X110731587Y-87473001D01*
X113927962Y-84276626D01*
X114543439Y-84276626D01*
X114569058Y-84886750D01*
X114753254Y-85331438D01*
X115009738Y-85417844D01*
X115910292Y-84517290D01*
X115009738Y-83616736D01*
X114753254Y-83703142D01*
X114543439Y-84276626D01*
X113927962Y-84276626D01*
X120354897Y-77849692D01*
X120354897Y-78041424D01*
X120354897Y-78041424D01*
G37*
X120354897Y-78041424D02*
X120756052Y-79009898D01*
X120965795Y-79219641D01*
X120853967Y-79294362D01*
X120811567Y-79357818D01*
X116925387Y-83243999D01*
X116904045Y-83180647D01*
X116330561Y-82970832D01*
X115720437Y-82996451D01*
X115275749Y-83180647D01*
X115189343Y-83437131D01*
X116089897Y-84337685D01*
X116104040Y-84323543D01*
X116283645Y-84503148D01*
X116269502Y-84517290D01*
X116283645Y-84531433D01*
X116104040Y-84711038D01*
X116089897Y-84696895D01*
X115189343Y-85597449D01*
X115256926Y-85798059D01*
X111974640Y-89080345D01*
X111865528Y-88531800D01*
X111448906Y-87908281D01*
X110825387Y-87491659D01*
X110731587Y-87473001D01*
X113927962Y-84276626D01*
X114543439Y-84276626D01*
X114569058Y-84886750D01*
X114753254Y-85331438D01*
X115009738Y-85417844D01*
X115910292Y-84517290D01*
X115009738Y-83616736D01*
X114753254Y-83703142D01*
X114543439Y-84276626D01*
X113927962Y-84276626D01*
X120354897Y-77849692D01*
X120354897Y-78041424D01*
G36*
X127215000Y-65581540D02*
X127373750Y-65740290D01*
X128623000Y-65740290D01*
X128623000Y-65720290D01*
X128877000Y-65720290D01*
X128877000Y-65740290D01*
X128897000Y-65740290D01*
X128897000Y-65994290D01*
X128877000Y-65994290D01*
X128877000Y-66014290D01*
X128623000Y-66014290D01*
X128623000Y-65994290D01*
X127373750Y-65994290D01*
X127215000Y-66153040D01*
X127215000Y-66893600D01*
X127311673Y-67126989D01*
X127483425Y-67298740D01*
X116824897Y-77957269D01*
X116824897Y-76993156D01*
X116423742Y-76024682D01*
X115682505Y-75283445D01*
X114714031Y-74882290D01*
X114458696Y-74882290D01*
X123938698Y-65402289D01*
X127215000Y-65402289D01*
X127215000Y-65581540D01*
X127215000Y-65581540D01*
G37*
X127215000Y-65581540D02*
X127373750Y-65740290D01*
X128623000Y-65740290D01*
X128623000Y-65720290D01*
X128877000Y-65720290D01*
X128877000Y-65740290D01*
X128897000Y-65740290D01*
X128897000Y-65994290D01*
X128877000Y-65994290D01*
X128877000Y-66014290D01*
X128623000Y-66014290D01*
X128623000Y-65994290D01*
X127373750Y-65994290D01*
X127215000Y-66153040D01*
X127215000Y-66893600D01*
X127311673Y-67126989D01*
X127483425Y-67298740D01*
X116824897Y-77957269D01*
X116824897Y-76993156D01*
X116423742Y-76024682D01*
X115682505Y-75283445D01*
X114714031Y-74882290D01*
X114458696Y-74882290D01*
X123938698Y-65402289D01*
X127215000Y-65402289D01*
X127215000Y-65581540D01*
G04 #@! TD*
M02*
