G04 #@! TF.GenerationSoftware,KiCad,Pcbnew,(5.0.1)-3*
G04 #@! TF.CreationDate,2019-07-10T11:43:57+01:00*
G04 #@! TF.ProjectId,drumkid v3,6472756D6B69642076332E6B69636164,04*
G04 #@! TF.SameCoordinates,Original*
G04 #@! TF.FileFunction,Legend,Top*
G04 #@! TF.FilePolarity,Positive*
%FSLAX46Y46*%
G04 Gerber Fmt 4.6, Leading zero omitted, Abs format (unit mm)*
G04 Created by KiCad (PCBNEW (5.0.1)-3) date 10/07/2019 11:43:57*
%MOMM*%
%LPD*%
G01*
G04 APERTURE LIST*
%ADD10C,0.300000*%
%ADD11C,0.120000*%
%ADD12C,0.150000*%
G04 APERTURE END LIST*
D10*
X142967142Y-55278571D02*
X142967142Y-53778571D01*
X143324285Y-53778571D01*
X143538571Y-53850000D01*
X143681428Y-53992857D01*
X143752857Y-54135714D01*
X143824285Y-54421428D01*
X143824285Y-54635714D01*
X143752857Y-54921428D01*
X143681428Y-55064285D01*
X143538571Y-55207142D01*
X143324285Y-55278571D01*
X142967142Y-55278571D01*
X144467142Y-55278571D02*
X144467142Y-54278571D01*
X144467142Y-54564285D02*
X144538571Y-54421428D01*
X144610000Y-54350000D01*
X144752857Y-54278571D01*
X144895714Y-54278571D01*
X146038571Y-54278571D02*
X146038571Y-55278571D01*
X145395714Y-54278571D02*
X145395714Y-55064285D01*
X145467142Y-55207142D01*
X145610000Y-55278571D01*
X145824285Y-55278571D01*
X145967142Y-55207142D01*
X146038571Y-55135714D01*
X146752857Y-55278571D02*
X146752857Y-54278571D01*
X146752857Y-54421428D02*
X146824285Y-54350000D01*
X146967142Y-54278571D01*
X147181428Y-54278571D01*
X147324285Y-54350000D01*
X147395714Y-54492857D01*
X147395714Y-55278571D01*
X147395714Y-54492857D02*
X147467142Y-54350000D01*
X147610000Y-54278571D01*
X147824285Y-54278571D01*
X147967142Y-54350000D01*
X148038571Y-54492857D01*
X148038571Y-55278571D01*
X148752857Y-55278571D02*
X148752857Y-53778571D01*
X149610000Y-55278571D02*
X148967142Y-54421428D01*
X149610000Y-53778571D02*
X148752857Y-54635714D01*
X150252857Y-55278571D02*
X150252857Y-54278571D01*
X150252857Y-53778571D02*
X150181428Y-53850000D01*
X150252857Y-53921428D01*
X150324285Y-53850000D01*
X150252857Y-53778571D01*
X150252857Y-53921428D01*
X151610000Y-55278571D02*
X151610000Y-53778571D01*
X151610000Y-55207142D02*
X151467142Y-55278571D01*
X151181428Y-55278571D01*
X151038571Y-55207142D01*
X150967142Y-55135714D01*
X150895714Y-54992857D01*
X150895714Y-54564285D01*
X150967142Y-54421428D01*
X151038571Y-54350000D01*
X151181428Y-54278571D01*
X151467142Y-54278571D01*
X151610000Y-54350000D01*
X153324285Y-54278571D02*
X153681428Y-55278571D01*
X154038571Y-54278571D01*
X154895714Y-53778571D02*
X155038571Y-53778571D01*
X155181428Y-53850000D01*
X155252857Y-53921428D01*
X155324285Y-54064285D01*
X155395714Y-54350000D01*
X155395714Y-54707142D01*
X155324285Y-54992857D01*
X155252857Y-55135714D01*
X155181428Y-55207142D01*
X155038571Y-55278571D01*
X154895714Y-55278571D01*
X154752857Y-55207142D01*
X154681428Y-55135714D01*
X154610000Y-54992857D01*
X154538571Y-54707142D01*
X154538571Y-54350000D01*
X154610000Y-54064285D01*
X154681428Y-53921428D01*
X154752857Y-53850000D01*
X154895714Y-53778571D01*
X156681428Y-54278571D02*
X156681428Y-55278571D01*
X156324285Y-53707142D02*
X155967142Y-54778571D01*
X156895714Y-54778571D01*
X140110000Y-57828571D02*
X140110000Y-56328571D01*
X140110000Y-56900000D02*
X140252857Y-56828571D01*
X140538571Y-56828571D01*
X140681428Y-56900000D01*
X140752857Y-56971428D01*
X140824285Y-57114285D01*
X140824285Y-57542857D01*
X140752857Y-57685714D01*
X140681428Y-57757142D01*
X140538571Y-57828571D01*
X140252857Y-57828571D01*
X140110000Y-57757142D01*
X141324285Y-56828571D02*
X141681428Y-57828571D01*
X142038571Y-56828571D02*
X141681428Y-57828571D01*
X141538571Y-58185714D01*
X141467142Y-58257142D01*
X141324285Y-58328571D01*
X143752857Y-57828571D02*
X143752857Y-56328571D01*
X144252857Y-57400000D01*
X144752857Y-56328571D01*
X144752857Y-57828571D01*
X146110000Y-57828571D02*
X146110000Y-57042857D01*
X146038571Y-56900000D01*
X145895714Y-56828571D01*
X145610000Y-56828571D01*
X145467142Y-56900000D01*
X146110000Y-57757142D02*
X145967142Y-57828571D01*
X145610000Y-57828571D01*
X145467142Y-57757142D01*
X145395714Y-57614285D01*
X145395714Y-57471428D01*
X145467142Y-57328571D01*
X145610000Y-57257142D01*
X145967142Y-57257142D01*
X146110000Y-57185714D01*
X146610000Y-56828571D02*
X147181428Y-56828571D01*
X146824285Y-56328571D02*
X146824285Y-57614285D01*
X146895714Y-57757142D01*
X147038571Y-57828571D01*
X147181428Y-57828571D01*
X147467142Y-56828571D02*
X148038571Y-56828571D01*
X147681428Y-56328571D02*
X147681428Y-57614285D01*
X147752857Y-57757142D01*
X147895714Y-57828571D01*
X148038571Y-57828571D01*
X150181428Y-57042857D02*
X150395714Y-57114285D01*
X150467142Y-57185714D01*
X150538571Y-57328571D01*
X150538571Y-57542857D01*
X150467142Y-57685714D01*
X150395714Y-57757142D01*
X150252857Y-57828571D01*
X149681428Y-57828571D01*
X149681428Y-56328571D01*
X150181428Y-56328571D01*
X150324285Y-56400000D01*
X150395714Y-56471428D01*
X150467142Y-56614285D01*
X150467142Y-56757142D01*
X150395714Y-56900000D01*
X150324285Y-56971428D01*
X150181428Y-57042857D01*
X149681428Y-57042857D01*
X151181428Y-57828571D02*
X151181428Y-56828571D01*
X151181428Y-57114285D02*
X151252857Y-56971428D01*
X151324285Y-56900000D01*
X151467142Y-56828571D01*
X151610000Y-56828571D01*
X152752857Y-57828571D02*
X152752857Y-57042857D01*
X152681428Y-56900000D01*
X152538571Y-56828571D01*
X152252857Y-56828571D01*
X152110000Y-56900000D01*
X152752857Y-57757142D02*
X152610000Y-57828571D01*
X152252857Y-57828571D01*
X152110000Y-57757142D01*
X152038571Y-57614285D01*
X152038571Y-57471428D01*
X152110000Y-57328571D01*
X152252857Y-57257142D01*
X152610000Y-57257142D01*
X152752857Y-57185714D01*
X154110000Y-57828571D02*
X154110000Y-56328571D01*
X154110000Y-57757142D02*
X153967142Y-57828571D01*
X153681428Y-57828571D01*
X153538571Y-57757142D01*
X153467142Y-57685714D01*
X153395714Y-57542857D01*
X153395714Y-57114285D01*
X153467142Y-56971428D01*
X153538571Y-56900000D01*
X153681428Y-56828571D01*
X153967142Y-56828571D01*
X154110000Y-56900000D01*
X154752857Y-57757142D02*
X154895714Y-57828571D01*
X155181428Y-57828571D01*
X155324285Y-57757142D01*
X155395714Y-57614285D01*
X155395714Y-57542857D01*
X155324285Y-57400000D01*
X155181428Y-57328571D01*
X154967142Y-57328571D01*
X154824285Y-57257142D01*
X154752857Y-57114285D01*
X154752857Y-57042857D01*
X154824285Y-56900000D01*
X154967142Y-56828571D01*
X155181428Y-56828571D01*
X155324285Y-56900000D01*
X156038571Y-57828571D02*
X156038571Y-56328571D01*
X156681428Y-57828571D02*
X156681428Y-57042857D01*
X156610000Y-56900000D01*
X156467142Y-56828571D01*
X156252857Y-56828571D01*
X156110000Y-56900000D01*
X156038571Y-56971428D01*
X158038571Y-57828571D02*
X158038571Y-57042857D01*
X157967142Y-56900000D01*
X157824285Y-56828571D01*
X157538571Y-56828571D01*
X157395714Y-56900000D01*
X158038571Y-57757142D02*
X157895714Y-57828571D01*
X157538571Y-57828571D01*
X157395714Y-57757142D01*
X157324285Y-57614285D01*
X157324285Y-57471428D01*
X157395714Y-57328571D01*
X157538571Y-57257142D01*
X157895714Y-57257142D01*
X158038571Y-57185714D01*
X158610000Y-56828571D02*
X158895714Y-57828571D01*
X159181428Y-57114285D01*
X159467142Y-57828571D01*
X159752857Y-56828571D01*
X136110000Y-60378571D02*
X136110000Y-59378571D01*
X136110000Y-59521428D02*
X136181428Y-59450000D01*
X136324285Y-59378571D01*
X136538571Y-59378571D01*
X136681428Y-59450000D01*
X136752857Y-59592857D01*
X136752857Y-60378571D01*
X136752857Y-59592857D02*
X136824285Y-59450000D01*
X136967142Y-59378571D01*
X137181428Y-59378571D01*
X137324285Y-59450000D01*
X137395714Y-59592857D01*
X137395714Y-60378571D01*
X138752857Y-60378571D02*
X138752857Y-59592857D01*
X138681428Y-59450000D01*
X138538571Y-59378571D01*
X138252857Y-59378571D01*
X138110000Y-59450000D01*
X138752857Y-60307142D02*
X138610000Y-60378571D01*
X138252857Y-60378571D01*
X138110000Y-60307142D01*
X138038571Y-60164285D01*
X138038571Y-60021428D01*
X138110000Y-59878571D01*
X138252857Y-59807142D01*
X138610000Y-59807142D01*
X138752857Y-59735714D01*
X139252857Y-59378571D02*
X139824285Y-59378571D01*
X139467142Y-58878571D02*
X139467142Y-60164285D01*
X139538571Y-60307142D01*
X139681428Y-60378571D01*
X139824285Y-60378571D01*
X140110000Y-59378571D02*
X140681428Y-59378571D01*
X140324285Y-58878571D02*
X140324285Y-60164285D01*
X140395714Y-60307142D01*
X140538571Y-60378571D01*
X140681428Y-60378571D01*
X141181428Y-60378571D02*
X141181428Y-58878571D01*
X141181428Y-59450000D02*
X141324285Y-59378571D01*
X141610000Y-59378571D01*
X141752857Y-59450000D01*
X141824285Y-59521428D01*
X141895714Y-59664285D01*
X141895714Y-60092857D01*
X141824285Y-60235714D01*
X141752857Y-60307142D01*
X141610000Y-60378571D01*
X141324285Y-60378571D01*
X141181428Y-60307142D01*
X142538571Y-60378571D02*
X142538571Y-59378571D01*
X142538571Y-59664285D02*
X142610000Y-59521428D01*
X142681428Y-59450000D01*
X142824285Y-59378571D01*
X142967142Y-59378571D01*
X144110000Y-60378571D02*
X144110000Y-59592857D01*
X144038571Y-59450000D01*
X143895714Y-59378571D01*
X143610000Y-59378571D01*
X143467142Y-59450000D01*
X144110000Y-60307142D02*
X143967142Y-60378571D01*
X143610000Y-60378571D01*
X143467142Y-60307142D01*
X143395714Y-60164285D01*
X143395714Y-60021428D01*
X143467142Y-59878571D01*
X143610000Y-59807142D01*
X143967142Y-59807142D01*
X144110000Y-59735714D01*
X145467142Y-60378571D02*
X145467142Y-58878571D01*
X145467142Y-60307142D02*
X145324285Y-60378571D01*
X145038571Y-60378571D01*
X144895714Y-60307142D01*
X144824285Y-60235714D01*
X144752857Y-60092857D01*
X144752857Y-59664285D01*
X144824285Y-59521428D01*
X144895714Y-59450000D01*
X145038571Y-59378571D01*
X145324285Y-59378571D01*
X145467142Y-59450000D01*
X146110000Y-60307142D02*
X146252857Y-60378571D01*
X146538571Y-60378571D01*
X146681428Y-60307142D01*
X146752857Y-60164285D01*
X146752857Y-60092857D01*
X146681428Y-59950000D01*
X146538571Y-59878571D01*
X146324285Y-59878571D01*
X146181428Y-59807142D01*
X146110000Y-59664285D01*
X146110000Y-59592857D01*
X146181428Y-59450000D01*
X146324285Y-59378571D01*
X146538571Y-59378571D01*
X146681428Y-59450000D01*
X147395714Y-60378571D02*
X147395714Y-58878571D01*
X148038571Y-60378571D02*
X148038571Y-59592857D01*
X147967142Y-59450000D01*
X147824285Y-59378571D01*
X147610000Y-59378571D01*
X147467142Y-59450000D01*
X147395714Y-59521428D01*
X149395714Y-60378571D02*
X149395714Y-59592857D01*
X149324285Y-59450000D01*
X149181428Y-59378571D01*
X148895714Y-59378571D01*
X148752857Y-59450000D01*
X149395714Y-60307142D02*
X149252857Y-60378571D01*
X148895714Y-60378571D01*
X148752857Y-60307142D01*
X148681428Y-60164285D01*
X148681428Y-60021428D01*
X148752857Y-59878571D01*
X148895714Y-59807142D01*
X149252857Y-59807142D01*
X149395714Y-59735714D01*
X149967142Y-59378571D02*
X150252857Y-60378571D01*
X150538571Y-59664285D01*
X150824285Y-60378571D01*
X151110000Y-59378571D01*
X152324285Y-60378571D02*
X152324285Y-58878571D01*
X152324285Y-60307142D02*
X152181428Y-60378571D01*
X151895714Y-60378571D01*
X151752857Y-60307142D01*
X151681428Y-60235714D01*
X151610000Y-60092857D01*
X151610000Y-59664285D01*
X151681428Y-59521428D01*
X151752857Y-59450000D01*
X151895714Y-59378571D01*
X152181428Y-59378571D01*
X152324285Y-59450000D01*
X153610000Y-60307142D02*
X153467142Y-60378571D01*
X153181428Y-60378571D01*
X153038571Y-60307142D01*
X152967142Y-60164285D01*
X152967142Y-59592857D01*
X153038571Y-59450000D01*
X153181428Y-59378571D01*
X153467142Y-59378571D01*
X153610000Y-59450000D01*
X153681428Y-59592857D01*
X153681428Y-59735714D01*
X152967142Y-59878571D01*
X154252857Y-60307142D02*
X154395714Y-60378571D01*
X154681428Y-60378571D01*
X154824285Y-60307142D01*
X154895714Y-60164285D01*
X154895714Y-60092857D01*
X154824285Y-59950000D01*
X154681428Y-59878571D01*
X154467142Y-59878571D01*
X154324285Y-59807142D01*
X154252857Y-59664285D01*
X154252857Y-59592857D01*
X154324285Y-59450000D01*
X154467142Y-59378571D01*
X154681428Y-59378571D01*
X154824285Y-59450000D01*
X155538571Y-60378571D02*
X155538571Y-59378571D01*
X155538571Y-58878571D02*
X155467142Y-58950000D01*
X155538571Y-59021428D01*
X155610000Y-58950000D01*
X155538571Y-58878571D01*
X155538571Y-59021428D01*
X156895714Y-59378571D02*
X156895714Y-60592857D01*
X156824285Y-60735714D01*
X156752857Y-60807142D01*
X156610000Y-60878571D01*
X156395714Y-60878571D01*
X156252857Y-60807142D01*
X156895714Y-60307142D02*
X156752857Y-60378571D01*
X156467142Y-60378571D01*
X156324285Y-60307142D01*
X156252857Y-60235714D01*
X156181428Y-60092857D01*
X156181428Y-59664285D01*
X156252857Y-59521428D01*
X156324285Y-59450000D01*
X156467142Y-59378571D01*
X156752857Y-59378571D01*
X156895714Y-59450000D01*
X157610000Y-59378571D02*
X157610000Y-60378571D01*
X157610000Y-59521428D02*
X157681428Y-59450000D01*
X157824285Y-59378571D01*
X158038571Y-59378571D01*
X158181428Y-59450000D01*
X158252857Y-59592857D01*
X158252857Y-60378571D01*
X158967142Y-60235714D02*
X159038571Y-60307142D01*
X158967142Y-60378571D01*
X158895714Y-60307142D01*
X158967142Y-60235714D01*
X158967142Y-60378571D01*
X160324285Y-60307142D02*
X160181428Y-60378571D01*
X159895714Y-60378571D01*
X159752857Y-60307142D01*
X159681428Y-60235714D01*
X159610000Y-60092857D01*
X159610000Y-59664285D01*
X159681428Y-59521428D01*
X159752857Y-59450000D01*
X159895714Y-59378571D01*
X160181428Y-59378571D01*
X160324285Y-59450000D01*
X161181428Y-60378571D02*
X161038571Y-60307142D01*
X160967142Y-60235714D01*
X160895714Y-60092857D01*
X160895714Y-59664285D01*
X160967142Y-59521428D01*
X161038571Y-59450000D01*
X161181428Y-59378571D01*
X161395714Y-59378571D01*
X161538571Y-59450000D01*
X161610000Y-59521428D01*
X161681428Y-59664285D01*
X161681428Y-60092857D01*
X161610000Y-60235714D01*
X161538571Y-60307142D01*
X161395714Y-60378571D01*
X161181428Y-60378571D01*
X162324285Y-60378571D02*
X162324285Y-59378571D01*
X162324285Y-59521428D02*
X162395714Y-59450000D01*
X162538571Y-59378571D01*
X162752857Y-59378571D01*
X162895714Y-59450000D01*
X162967142Y-59592857D01*
X162967142Y-60378571D01*
X162967142Y-59592857D02*
X163038571Y-59450000D01*
X163181428Y-59378571D01*
X163395714Y-59378571D01*
X163538571Y-59450000D01*
X163610000Y-59592857D01*
X163610000Y-60378571D01*
X116722857Y-113247857D02*
X116794285Y-113033571D01*
X116865714Y-112962142D01*
X117008571Y-112890714D01*
X117222857Y-112890714D01*
X117365714Y-112962142D01*
X117437142Y-113033571D01*
X117508571Y-113176428D01*
X117508571Y-113747857D01*
X116008571Y-113747857D01*
X116008571Y-113247857D01*
X116080000Y-113105000D01*
X116151428Y-113033571D01*
X116294285Y-112962142D01*
X116437142Y-112962142D01*
X116580000Y-113033571D01*
X116651428Y-113105000D01*
X116722857Y-113247857D01*
X116722857Y-113747857D01*
X116937142Y-112247857D02*
X116937142Y-111105000D01*
X117508571Y-111676428D02*
X116365714Y-111676428D01*
X121822857Y-113247857D02*
X121894285Y-113033571D01*
X121965714Y-112962142D01*
X122108571Y-112890714D01*
X122322857Y-112890714D01*
X122465714Y-112962142D01*
X122537142Y-113033571D01*
X122608571Y-113176428D01*
X122608571Y-113747857D01*
X121108571Y-113747857D01*
X121108571Y-113247857D01*
X121180000Y-113105000D01*
X121251428Y-113033571D01*
X121394285Y-112962142D01*
X121537142Y-112962142D01*
X121680000Y-113033571D01*
X121751428Y-113105000D01*
X121822857Y-113247857D01*
X121822857Y-113747857D01*
X122037142Y-112247857D02*
X122037142Y-111105000D01*
X171883571Y-118113571D02*
X171883571Y-118827857D01*
X172597857Y-118899285D01*
X172526428Y-118827857D01*
X172455000Y-118685000D01*
X172455000Y-118327857D01*
X172526428Y-118185000D01*
X172597857Y-118113571D01*
X172740714Y-118042142D01*
X173097857Y-118042142D01*
X173240714Y-118113571D01*
X173312142Y-118185000D01*
X173383571Y-118327857D01*
X173383571Y-118685000D01*
X173312142Y-118827857D01*
X173240714Y-118899285D01*
X171883571Y-117613571D02*
X173383571Y-117113571D01*
X171883571Y-116613571D01*
X174433571Y-118113571D02*
X174433571Y-118827857D01*
X175147857Y-118899285D01*
X175076428Y-118827857D01*
X175005000Y-118685000D01*
X175005000Y-118327857D01*
X175076428Y-118185000D01*
X175147857Y-118113571D01*
X175290714Y-118042142D01*
X175647857Y-118042142D01*
X175790714Y-118113571D01*
X175862142Y-118185000D01*
X175933571Y-118327857D01*
X175933571Y-118685000D01*
X175862142Y-118827857D01*
X175790714Y-118899285D01*
X174433571Y-117613571D02*
X175933571Y-117113571D01*
X174433571Y-116613571D01*
X177055000Y-118042142D02*
X176983571Y-118185000D01*
X176983571Y-118399285D01*
X177055000Y-118613571D01*
X177197857Y-118756428D01*
X177340714Y-118827857D01*
X177626428Y-118899285D01*
X177840714Y-118899285D01*
X178126428Y-118827857D01*
X178269285Y-118756428D01*
X178412142Y-118613571D01*
X178483571Y-118399285D01*
X178483571Y-118256428D01*
X178412142Y-118042142D01*
X178340714Y-117970714D01*
X177840714Y-117970714D01*
X177840714Y-118256428D01*
X178483571Y-117327857D02*
X176983571Y-117327857D01*
X178483571Y-116470714D01*
X176983571Y-116470714D01*
X178483571Y-115756428D02*
X176983571Y-115756428D01*
X176983571Y-115399285D01*
X177055000Y-115185000D01*
X177197857Y-115042142D01*
X177340714Y-114970714D01*
X177626428Y-114899285D01*
X177840714Y-114899285D01*
X178126428Y-114970714D01*
X178269285Y-115042142D01*
X178412142Y-115185000D01*
X178483571Y-115399285D01*
X178483571Y-115756428D01*
X179605000Y-118042142D02*
X179533571Y-118185000D01*
X179533571Y-118399285D01*
X179605000Y-118613571D01*
X179747857Y-118756428D01*
X179890714Y-118827857D01*
X180176428Y-118899285D01*
X180390714Y-118899285D01*
X180676428Y-118827857D01*
X180819285Y-118756428D01*
X180962142Y-118613571D01*
X181033571Y-118399285D01*
X181033571Y-118256428D01*
X180962142Y-118042142D01*
X180890714Y-117970714D01*
X180390714Y-117970714D01*
X180390714Y-118256428D01*
X181033571Y-117327857D02*
X179533571Y-117327857D01*
X181033571Y-116470714D01*
X179533571Y-116470714D01*
X181033571Y-115756428D02*
X179533571Y-115756428D01*
X179533571Y-115399285D01*
X179605000Y-115185000D01*
X179747857Y-115042142D01*
X179890714Y-114970714D01*
X180176428Y-114899285D01*
X180390714Y-114899285D01*
X180676428Y-114970714D01*
X180819285Y-115042142D01*
X180962142Y-115185000D01*
X181033571Y-115399285D01*
X181033571Y-115756428D01*
X150473571Y-146911428D02*
X148973571Y-146911428D01*
X148973571Y-146554285D01*
X149045000Y-146340000D01*
X149187857Y-146197142D01*
X149330714Y-146125714D01*
X149616428Y-146054285D01*
X149830714Y-146054285D01*
X150116428Y-146125714D01*
X150259285Y-146197142D01*
X150402142Y-146340000D01*
X150473571Y-146554285D01*
X150473571Y-146911428D01*
X150473571Y-145340000D02*
X150473571Y-145054285D01*
X150402142Y-144911428D01*
X150330714Y-144840000D01*
X150116428Y-144697142D01*
X149830714Y-144625714D01*
X149259285Y-144625714D01*
X149116428Y-144697142D01*
X149045000Y-144768571D01*
X148973571Y-144911428D01*
X148973571Y-145197142D01*
X149045000Y-145340000D01*
X149116428Y-145411428D01*
X149259285Y-145482857D01*
X149616428Y-145482857D01*
X149759285Y-145411428D01*
X149830714Y-145340000D01*
X149902142Y-145197142D01*
X149902142Y-144911428D01*
X149830714Y-144768571D01*
X149759285Y-144697142D01*
X149616428Y-144625714D01*
X153023571Y-148340000D02*
X151523571Y-148340000D01*
X151523571Y-147982857D01*
X151595000Y-147768571D01*
X151737857Y-147625714D01*
X151880714Y-147554285D01*
X152166428Y-147482857D01*
X152380714Y-147482857D01*
X152666428Y-147554285D01*
X152809285Y-147625714D01*
X152952142Y-147768571D01*
X153023571Y-147982857D01*
X153023571Y-148340000D01*
X153023571Y-146054285D02*
X153023571Y-146911428D01*
X153023571Y-146482857D02*
X151523571Y-146482857D01*
X151737857Y-146625714D01*
X151880714Y-146768571D01*
X151952142Y-146911428D01*
X151523571Y-145125714D02*
X151523571Y-144982857D01*
X151595000Y-144840000D01*
X151666428Y-144768571D01*
X151809285Y-144697142D01*
X152095000Y-144625714D01*
X152452142Y-144625714D01*
X152737857Y-144697142D01*
X152880714Y-144768571D01*
X152952142Y-144840000D01*
X153023571Y-144982857D01*
X153023571Y-145125714D01*
X152952142Y-145268571D01*
X152880714Y-145340000D01*
X152737857Y-145411428D01*
X152452142Y-145482857D01*
X152095000Y-145482857D01*
X151809285Y-145411428D01*
X151666428Y-145340000D01*
X151595000Y-145268571D01*
X151523571Y-145125714D01*
X155573571Y-148340000D02*
X154073571Y-148340000D01*
X154073571Y-147982857D01*
X154145000Y-147768571D01*
X154287857Y-147625714D01*
X154430714Y-147554285D01*
X154716428Y-147482857D01*
X154930714Y-147482857D01*
X155216428Y-147554285D01*
X155359285Y-147625714D01*
X155502142Y-147768571D01*
X155573571Y-147982857D01*
X155573571Y-148340000D01*
X155573571Y-146054285D02*
X155573571Y-146911428D01*
X155573571Y-146482857D02*
X154073571Y-146482857D01*
X154287857Y-146625714D01*
X154430714Y-146768571D01*
X154502142Y-146911428D01*
X155573571Y-144625714D02*
X155573571Y-145482857D01*
X155573571Y-145054285D02*
X154073571Y-145054285D01*
X154287857Y-145197142D01*
X154430714Y-145340000D01*
X154502142Y-145482857D01*
X158123571Y-148340000D02*
X156623571Y-148340000D01*
X156623571Y-147982857D01*
X156695000Y-147768571D01*
X156837857Y-147625714D01*
X156980714Y-147554285D01*
X157266428Y-147482857D01*
X157480714Y-147482857D01*
X157766428Y-147554285D01*
X157909285Y-147625714D01*
X158052142Y-147768571D01*
X158123571Y-147982857D01*
X158123571Y-148340000D01*
X158123571Y-146054285D02*
X158123571Y-146911428D01*
X158123571Y-146482857D02*
X156623571Y-146482857D01*
X156837857Y-146625714D01*
X156980714Y-146768571D01*
X157052142Y-146911428D01*
X156766428Y-145482857D02*
X156695000Y-145411428D01*
X156623571Y-145268571D01*
X156623571Y-144911428D01*
X156695000Y-144768571D01*
X156766428Y-144697142D01*
X156909285Y-144625714D01*
X157052142Y-144625714D01*
X157266428Y-144697142D01*
X158123571Y-145554285D01*
X158123571Y-144625714D01*
X160673571Y-148340000D02*
X159173571Y-148340000D01*
X159173571Y-147982857D01*
X159245000Y-147768571D01*
X159387857Y-147625714D01*
X159530714Y-147554285D01*
X159816428Y-147482857D01*
X160030714Y-147482857D01*
X160316428Y-147554285D01*
X160459285Y-147625714D01*
X160602142Y-147768571D01*
X160673571Y-147982857D01*
X160673571Y-148340000D01*
X160673571Y-146054285D02*
X160673571Y-146911428D01*
X160673571Y-146482857D02*
X159173571Y-146482857D01*
X159387857Y-146625714D01*
X159530714Y-146768571D01*
X159602142Y-146911428D01*
X159173571Y-145554285D02*
X159173571Y-144625714D01*
X159745000Y-145125714D01*
X159745000Y-144911428D01*
X159816428Y-144768571D01*
X159887857Y-144697142D01*
X160030714Y-144625714D01*
X160387857Y-144625714D01*
X160530714Y-144697142D01*
X160602142Y-144768571D01*
X160673571Y-144911428D01*
X160673571Y-145340000D01*
X160602142Y-145482857D01*
X160530714Y-145554285D01*
X170445000Y-146768571D02*
X170445000Y-146054285D01*
X170873571Y-146911428D02*
X169373571Y-146411428D01*
X170873571Y-145911428D01*
X169373571Y-145125714D02*
X169373571Y-144982857D01*
X169445000Y-144840000D01*
X169516428Y-144768571D01*
X169659285Y-144697142D01*
X169945000Y-144625714D01*
X170302142Y-144625714D01*
X170587857Y-144697142D01*
X170730714Y-144768571D01*
X170802142Y-144840000D01*
X170873571Y-144982857D01*
X170873571Y-145125714D01*
X170802142Y-145268571D01*
X170730714Y-145340000D01*
X170587857Y-145411428D01*
X170302142Y-145482857D01*
X169945000Y-145482857D01*
X169659285Y-145411428D01*
X169516428Y-145340000D01*
X169445000Y-145268571D01*
X169373571Y-145125714D01*
X172995000Y-146768571D02*
X172995000Y-146054285D01*
X173423571Y-146911428D02*
X171923571Y-146411428D01*
X173423571Y-145911428D01*
X173423571Y-144625714D02*
X173423571Y-145482857D01*
X173423571Y-145054285D02*
X171923571Y-145054285D01*
X172137857Y-145197142D01*
X172280714Y-145340000D01*
X172352142Y-145482857D01*
X175545000Y-146768571D02*
X175545000Y-146054285D01*
X175973571Y-146911428D02*
X174473571Y-146411428D01*
X175973571Y-145911428D01*
X174616428Y-145482857D02*
X174545000Y-145411428D01*
X174473571Y-145268571D01*
X174473571Y-144911428D01*
X174545000Y-144768571D01*
X174616428Y-144697142D01*
X174759285Y-144625714D01*
X174902142Y-144625714D01*
X175116428Y-144697142D01*
X175973571Y-145554285D01*
X175973571Y-144625714D01*
X178095000Y-146768571D02*
X178095000Y-146054285D01*
X178523571Y-146911428D02*
X177023571Y-146411428D01*
X178523571Y-145911428D01*
X177023571Y-145554285D02*
X177023571Y-144625714D01*
X177595000Y-145125714D01*
X177595000Y-144911428D01*
X177666428Y-144768571D01*
X177737857Y-144697142D01*
X177880714Y-144625714D01*
X178237857Y-144625714D01*
X178380714Y-144697142D01*
X178452142Y-144768571D01*
X178523571Y-144911428D01*
X178523571Y-145340000D01*
X178452142Y-145482857D01*
X178380714Y-145554285D01*
X180645000Y-146768571D02*
X180645000Y-146054285D01*
X181073571Y-146911428D02*
X179573571Y-146411428D01*
X181073571Y-145911428D01*
X180073571Y-144768571D02*
X181073571Y-144768571D01*
X179502142Y-145125714D02*
X180573571Y-145482857D01*
X180573571Y-144554285D01*
X183195000Y-146768571D02*
X183195000Y-146054285D01*
X183623571Y-146911428D02*
X182123571Y-146411428D01*
X183623571Y-145911428D01*
X182123571Y-144697142D02*
X182123571Y-145411428D01*
X182837857Y-145482857D01*
X182766428Y-145411428D01*
X182695000Y-145268571D01*
X182695000Y-144911428D01*
X182766428Y-144768571D01*
X182837857Y-144697142D01*
X182980714Y-144625714D01*
X183337857Y-144625714D01*
X183480714Y-144697142D01*
X183552142Y-144768571D01*
X183623571Y-144911428D01*
X183623571Y-145268571D01*
X183552142Y-145411428D01*
X183480714Y-145482857D01*
X150478571Y-127226428D02*
X148978571Y-127226428D01*
X148978571Y-126869285D01*
X149050000Y-126655000D01*
X149192857Y-126512142D01*
X149335714Y-126440714D01*
X149621428Y-126369285D01*
X149835714Y-126369285D01*
X150121428Y-126440714D01*
X150264285Y-126512142D01*
X150407142Y-126655000D01*
X150478571Y-126869285D01*
X150478571Y-127226428D01*
X149621428Y-125512142D02*
X149550000Y-125655000D01*
X149478571Y-125726428D01*
X149335714Y-125797857D01*
X149264285Y-125797857D01*
X149121428Y-125726428D01*
X149050000Y-125655000D01*
X148978571Y-125512142D01*
X148978571Y-125226428D01*
X149050000Y-125083571D01*
X149121428Y-125012142D01*
X149264285Y-124940714D01*
X149335714Y-124940714D01*
X149478571Y-125012142D01*
X149550000Y-125083571D01*
X149621428Y-125226428D01*
X149621428Y-125512142D01*
X149692857Y-125655000D01*
X149764285Y-125726428D01*
X149907142Y-125797857D01*
X150192857Y-125797857D01*
X150335714Y-125726428D01*
X150407142Y-125655000D01*
X150478571Y-125512142D01*
X150478571Y-125226428D01*
X150407142Y-125083571D01*
X150335714Y-125012142D01*
X150192857Y-124940714D01*
X149907142Y-124940714D01*
X149764285Y-125012142D01*
X149692857Y-125083571D01*
X149621428Y-125226428D01*
X153028571Y-127226428D02*
X151528571Y-127226428D01*
X151528571Y-126869285D01*
X151600000Y-126655000D01*
X151742857Y-126512142D01*
X151885714Y-126440714D01*
X152171428Y-126369285D01*
X152385714Y-126369285D01*
X152671428Y-126440714D01*
X152814285Y-126512142D01*
X152957142Y-126655000D01*
X153028571Y-126869285D01*
X153028571Y-127226428D01*
X151528571Y-125869285D02*
X151528571Y-124869285D01*
X153028571Y-125512142D01*
X155578571Y-127226428D02*
X154078571Y-127226428D01*
X154078571Y-126869285D01*
X154150000Y-126655000D01*
X154292857Y-126512142D01*
X154435714Y-126440714D01*
X154721428Y-126369285D01*
X154935714Y-126369285D01*
X155221428Y-126440714D01*
X155364285Y-126512142D01*
X155507142Y-126655000D01*
X155578571Y-126869285D01*
X155578571Y-127226428D01*
X154078571Y-125083571D02*
X154078571Y-125369285D01*
X154150000Y-125512142D01*
X154221428Y-125583571D01*
X154435714Y-125726428D01*
X154721428Y-125797857D01*
X155292857Y-125797857D01*
X155435714Y-125726428D01*
X155507142Y-125655000D01*
X155578571Y-125512142D01*
X155578571Y-125226428D01*
X155507142Y-125083571D01*
X155435714Y-125012142D01*
X155292857Y-124940714D01*
X154935714Y-124940714D01*
X154792857Y-125012142D01*
X154721428Y-125083571D01*
X154650000Y-125226428D01*
X154650000Y-125512142D01*
X154721428Y-125655000D01*
X154792857Y-125726428D01*
X154935714Y-125797857D01*
X158128571Y-127226428D02*
X156628571Y-127226428D01*
X156628571Y-126869285D01*
X156700000Y-126655000D01*
X156842857Y-126512142D01*
X156985714Y-126440714D01*
X157271428Y-126369285D01*
X157485714Y-126369285D01*
X157771428Y-126440714D01*
X157914285Y-126512142D01*
X158057142Y-126655000D01*
X158128571Y-126869285D01*
X158128571Y-127226428D01*
X156628571Y-125012142D02*
X156628571Y-125726428D01*
X157342857Y-125797857D01*
X157271428Y-125726428D01*
X157200000Y-125583571D01*
X157200000Y-125226428D01*
X157271428Y-125083571D01*
X157342857Y-125012142D01*
X157485714Y-124940714D01*
X157842857Y-124940714D01*
X157985714Y-125012142D01*
X158057142Y-125083571D01*
X158128571Y-125226428D01*
X158128571Y-125583571D01*
X158057142Y-125726428D01*
X157985714Y-125797857D01*
X170878571Y-127226428D02*
X169378571Y-127226428D01*
X169378571Y-126869285D01*
X169450000Y-126655000D01*
X169592857Y-126512142D01*
X169735714Y-126440714D01*
X170021428Y-126369285D01*
X170235714Y-126369285D01*
X170521428Y-126440714D01*
X170664285Y-126512142D01*
X170807142Y-126655000D01*
X170878571Y-126869285D01*
X170878571Y-127226428D01*
X169878571Y-125083571D02*
X170878571Y-125083571D01*
X169307142Y-125440714D02*
X170378571Y-125797857D01*
X170378571Y-124869285D01*
X173428571Y-127226428D02*
X171928571Y-127226428D01*
X171928571Y-126869285D01*
X172000000Y-126655000D01*
X172142857Y-126512142D01*
X172285714Y-126440714D01*
X172571428Y-126369285D01*
X172785714Y-126369285D01*
X173071428Y-126440714D01*
X173214285Y-126512142D01*
X173357142Y-126655000D01*
X173428571Y-126869285D01*
X173428571Y-127226428D01*
X171928571Y-125869285D02*
X171928571Y-124940714D01*
X172500000Y-125440714D01*
X172500000Y-125226428D01*
X172571428Y-125083571D01*
X172642857Y-125012142D01*
X172785714Y-124940714D01*
X173142857Y-124940714D01*
X173285714Y-125012142D01*
X173357142Y-125083571D01*
X173428571Y-125226428D01*
X173428571Y-125655000D01*
X173357142Y-125797857D01*
X173285714Y-125869285D01*
X175978571Y-127226428D02*
X174478571Y-127226428D01*
X174478571Y-126869285D01*
X174550000Y-126655000D01*
X174692857Y-126512142D01*
X174835714Y-126440714D01*
X175121428Y-126369285D01*
X175335714Y-126369285D01*
X175621428Y-126440714D01*
X175764285Y-126512142D01*
X175907142Y-126655000D01*
X175978571Y-126869285D01*
X175978571Y-127226428D01*
X174621428Y-125797857D02*
X174550000Y-125726428D01*
X174478571Y-125583571D01*
X174478571Y-125226428D01*
X174550000Y-125083571D01*
X174621428Y-125012142D01*
X174764285Y-124940714D01*
X174907142Y-124940714D01*
X175121428Y-125012142D01*
X175978571Y-125869285D01*
X175978571Y-124940714D01*
X178528571Y-127226428D02*
X177028571Y-127226428D01*
X177028571Y-126869285D01*
X177100000Y-126655000D01*
X177242857Y-126512142D01*
X177385714Y-126440714D01*
X177671428Y-126369285D01*
X177885714Y-126369285D01*
X178171428Y-126440714D01*
X178314285Y-126512142D01*
X178457142Y-126655000D01*
X178528571Y-126869285D01*
X178528571Y-127226428D01*
X178528571Y-124940714D02*
X178528571Y-125797857D01*
X178528571Y-125369285D02*
X177028571Y-125369285D01*
X177242857Y-125512142D01*
X177385714Y-125655000D01*
X177457142Y-125797857D01*
X181078571Y-127226428D02*
X179578571Y-127226428D01*
X179578571Y-126869285D01*
X179650000Y-126655000D01*
X179792857Y-126512142D01*
X179935714Y-126440714D01*
X180221428Y-126369285D01*
X180435714Y-126369285D01*
X180721428Y-126440714D01*
X180864285Y-126512142D01*
X181007142Y-126655000D01*
X181078571Y-126869285D01*
X181078571Y-127226428D01*
X179578571Y-125440714D02*
X179578571Y-125297857D01*
X179650000Y-125155000D01*
X179721428Y-125083571D01*
X179864285Y-125012142D01*
X180150000Y-124940714D01*
X180507142Y-124940714D01*
X180792857Y-125012142D01*
X180935714Y-125083571D01*
X181007142Y-125155000D01*
X181078571Y-125297857D01*
X181078571Y-125440714D01*
X181007142Y-125583571D01*
X180935714Y-125655000D01*
X180792857Y-125726428D01*
X180507142Y-125797857D01*
X180150000Y-125797857D01*
X179864285Y-125726428D01*
X179721428Y-125655000D01*
X179650000Y-125583571D01*
X179578571Y-125440714D01*
D11*
G04 #@! TO.C,R9*
X135660000Y-132080000D02*
X136430000Y-132080000D01*
X143740000Y-132080000D02*
X142970000Y-132080000D01*
X136430000Y-133450000D02*
X142970000Y-133450000D01*
X136430000Y-130710000D02*
X136430000Y-133450000D01*
X142970000Y-130710000D02*
X136430000Y-130710000D01*
X142970000Y-133450000D02*
X142970000Y-130710000D01*
G04 #@! TO.C,R1*
X135660000Y-137160000D02*
X136430000Y-137160000D01*
X143740000Y-137160000D02*
X142970000Y-137160000D01*
X136430000Y-138530000D02*
X142970000Y-138530000D01*
X136430000Y-135790000D02*
X136430000Y-138530000D01*
X142970000Y-135790000D02*
X136430000Y-135790000D01*
X142970000Y-138530000D02*
X142970000Y-135790000D01*
G04 #@! TO.C,R7*
X136120000Y-127000000D02*
X135350000Y-127000000D01*
X128040000Y-127000000D02*
X128810000Y-127000000D01*
X135350000Y-125630000D02*
X128810000Y-125630000D01*
X135350000Y-128370000D02*
X135350000Y-125630000D01*
X128810000Y-128370000D02*
X135350000Y-128370000D01*
X128810000Y-125630000D02*
X128810000Y-128370000D01*
G04 #@! TO.C,R11*
X143740000Y-139700000D02*
X142970000Y-139700000D01*
X135660000Y-139700000D02*
X136430000Y-139700000D01*
X142970000Y-138330000D02*
X136430000Y-138330000D01*
X142970000Y-141070000D02*
X142970000Y-138330000D01*
X136430000Y-141070000D02*
X142970000Y-141070000D01*
X136430000Y-138330000D02*
X136430000Y-141070000D01*
G04 #@! TO.C,R10*
X143740000Y-142240000D02*
X142970000Y-142240000D01*
X135660000Y-142240000D02*
X136430000Y-142240000D01*
X142970000Y-140870000D02*
X136430000Y-140870000D01*
X142970000Y-143610000D02*
X142970000Y-140870000D01*
X136430000Y-143610000D02*
X142970000Y-143610000D01*
X136430000Y-140870000D02*
X136430000Y-143610000D01*
G04 #@! TO.C,R8*
X135660000Y-134620000D02*
X136430000Y-134620000D01*
X143740000Y-134620000D02*
X142970000Y-134620000D01*
X136430000Y-135990000D02*
X142970000Y-135990000D01*
X136430000Y-133250000D02*
X136430000Y-135990000D01*
X142970000Y-133250000D02*
X136430000Y-133250000D01*
X142970000Y-135990000D02*
X142970000Y-133250000D01*
G04 #@! TO.C,R6*
X136120000Y-124460000D02*
X135350000Y-124460000D01*
X128040000Y-124460000D02*
X128810000Y-124460000D01*
X135350000Y-123090000D02*
X128810000Y-123090000D01*
X135350000Y-125830000D02*
X135350000Y-123090000D01*
X128810000Y-125830000D02*
X135350000Y-125830000D01*
X128810000Y-123090000D02*
X128810000Y-125830000D01*
G04 #@! TO.C,R5*
X136120000Y-121920000D02*
X135350000Y-121920000D01*
X128040000Y-121920000D02*
X128810000Y-121920000D01*
X135350000Y-120550000D02*
X128810000Y-120550000D01*
X135350000Y-123290000D02*
X135350000Y-120550000D01*
X128810000Y-123290000D02*
X135350000Y-123290000D01*
X128810000Y-120550000D02*
X128810000Y-123290000D01*
G04 #@! TO.C,R4*
X136120000Y-119380000D02*
X135350000Y-119380000D01*
X128040000Y-119380000D02*
X128810000Y-119380000D01*
X135350000Y-118010000D02*
X128810000Y-118010000D01*
X135350000Y-120750000D02*
X135350000Y-118010000D01*
X128810000Y-120750000D02*
X135350000Y-120750000D01*
X128810000Y-118010000D02*
X128810000Y-120750000D01*
G04 #@! TO.C,R3*
X136120000Y-116840000D02*
X135350000Y-116840000D01*
X128040000Y-116840000D02*
X128810000Y-116840000D01*
X135350000Y-115470000D02*
X128810000Y-115470000D01*
X135350000Y-118210000D02*
X135350000Y-115470000D01*
X128810000Y-118210000D02*
X135350000Y-118210000D01*
X128810000Y-115470000D02*
X128810000Y-118210000D01*
G04 #@! TO.C,R2*
X187960000Y-141200000D02*
X187960000Y-140430000D01*
X187960000Y-133120000D02*
X187960000Y-133890000D01*
X189330000Y-140430000D02*
X189330000Y-133890000D01*
X186590000Y-140430000D02*
X189330000Y-140430000D01*
X186590000Y-133890000D02*
X186590000Y-140430000D01*
X189330000Y-133890000D02*
X186590000Y-133890000D01*
G04 #@! TO.C,C10*
X117444759Y-122306000D02*
X117444759Y-122936000D01*
X117129759Y-122621000D02*
X117759759Y-122621000D01*
X123871000Y-124058000D02*
X123871000Y-124862000D01*
X123831000Y-123827000D02*
X123831000Y-125093000D01*
X123791000Y-123658000D02*
X123791000Y-125262000D01*
X123751000Y-123520000D02*
X123751000Y-125400000D01*
X123711000Y-123401000D02*
X123711000Y-125519000D01*
X123671000Y-123295000D02*
X123671000Y-125625000D01*
X123631000Y-123198000D02*
X123631000Y-125722000D01*
X123591000Y-123110000D02*
X123591000Y-125810000D01*
X123551000Y-123028000D02*
X123551000Y-125892000D01*
X123511000Y-122951000D02*
X123511000Y-125969000D01*
X123471000Y-122879000D02*
X123471000Y-126041000D01*
X123431000Y-122810000D02*
X123431000Y-126110000D01*
X123391000Y-122746000D02*
X123391000Y-126174000D01*
X123351000Y-122684000D02*
X123351000Y-126236000D01*
X123311000Y-122626000D02*
X123311000Y-126294000D01*
X123271000Y-122570000D02*
X123271000Y-126350000D01*
X123231000Y-122516000D02*
X123231000Y-126404000D01*
X123191000Y-122465000D02*
X123191000Y-126455000D01*
X123151000Y-122416000D02*
X123151000Y-126504000D01*
X123111000Y-122368000D02*
X123111000Y-126552000D01*
X123071000Y-122323000D02*
X123071000Y-126597000D01*
X123031000Y-122278000D02*
X123031000Y-126642000D01*
X122991000Y-122236000D02*
X122991000Y-126684000D01*
X122951000Y-122195000D02*
X122951000Y-126725000D01*
X122911000Y-125500000D02*
X122911000Y-126765000D01*
X122911000Y-122155000D02*
X122911000Y-123420000D01*
X122871000Y-125500000D02*
X122871000Y-126803000D01*
X122871000Y-122117000D02*
X122871000Y-123420000D01*
X122831000Y-125500000D02*
X122831000Y-126840000D01*
X122831000Y-122080000D02*
X122831000Y-123420000D01*
X122791000Y-125500000D02*
X122791000Y-126876000D01*
X122791000Y-122044000D02*
X122791000Y-123420000D01*
X122751000Y-125500000D02*
X122751000Y-126910000D01*
X122751000Y-122010000D02*
X122751000Y-123420000D01*
X122711000Y-125500000D02*
X122711000Y-126944000D01*
X122711000Y-121976000D02*
X122711000Y-123420000D01*
X122671000Y-125500000D02*
X122671000Y-126976000D01*
X122671000Y-121944000D02*
X122671000Y-123420000D01*
X122631000Y-125500000D02*
X122631000Y-127008000D01*
X122631000Y-121912000D02*
X122631000Y-123420000D01*
X122591000Y-125500000D02*
X122591000Y-127038000D01*
X122591000Y-121882000D02*
X122591000Y-123420000D01*
X122551000Y-125500000D02*
X122551000Y-127067000D01*
X122551000Y-121853000D02*
X122551000Y-123420000D01*
X122511000Y-125500000D02*
X122511000Y-127096000D01*
X122511000Y-121824000D02*
X122511000Y-123420000D01*
X122471000Y-125500000D02*
X122471000Y-127124000D01*
X122471000Y-121796000D02*
X122471000Y-123420000D01*
X122431000Y-125500000D02*
X122431000Y-127150000D01*
X122431000Y-121770000D02*
X122431000Y-123420000D01*
X122391000Y-125500000D02*
X122391000Y-127176000D01*
X122391000Y-121744000D02*
X122391000Y-123420000D01*
X122351000Y-125500000D02*
X122351000Y-127202000D01*
X122351000Y-121718000D02*
X122351000Y-123420000D01*
X122311000Y-125500000D02*
X122311000Y-127226000D01*
X122311000Y-121694000D02*
X122311000Y-123420000D01*
X122271000Y-125500000D02*
X122271000Y-127250000D01*
X122271000Y-121670000D02*
X122271000Y-123420000D01*
X122231000Y-125500000D02*
X122231000Y-127272000D01*
X122231000Y-121648000D02*
X122231000Y-123420000D01*
X122191000Y-125500000D02*
X122191000Y-127294000D01*
X122191000Y-121626000D02*
X122191000Y-123420000D01*
X122151000Y-125500000D02*
X122151000Y-127316000D01*
X122151000Y-121604000D02*
X122151000Y-123420000D01*
X122111000Y-125500000D02*
X122111000Y-127336000D01*
X122111000Y-121584000D02*
X122111000Y-123420000D01*
X122071000Y-125500000D02*
X122071000Y-127356000D01*
X122071000Y-121564000D02*
X122071000Y-123420000D01*
X122031000Y-125500000D02*
X122031000Y-127376000D01*
X122031000Y-121544000D02*
X122031000Y-123420000D01*
X121991000Y-125500000D02*
X121991000Y-127394000D01*
X121991000Y-121526000D02*
X121991000Y-123420000D01*
X121951000Y-125500000D02*
X121951000Y-127412000D01*
X121951000Y-121508000D02*
X121951000Y-123420000D01*
X121911000Y-125500000D02*
X121911000Y-127430000D01*
X121911000Y-121490000D02*
X121911000Y-123420000D01*
X121871000Y-125500000D02*
X121871000Y-127446000D01*
X121871000Y-121474000D02*
X121871000Y-123420000D01*
X121831000Y-125500000D02*
X121831000Y-127462000D01*
X121831000Y-121458000D02*
X121831000Y-123420000D01*
X121791000Y-125500000D02*
X121791000Y-127478000D01*
X121791000Y-121442000D02*
X121791000Y-123420000D01*
X121751000Y-125500000D02*
X121751000Y-127493000D01*
X121751000Y-121427000D02*
X121751000Y-123420000D01*
X121711000Y-125500000D02*
X121711000Y-127507000D01*
X121711000Y-121413000D02*
X121711000Y-123420000D01*
X121671000Y-125500000D02*
X121671000Y-127521000D01*
X121671000Y-121399000D02*
X121671000Y-123420000D01*
X121631000Y-125500000D02*
X121631000Y-127534000D01*
X121631000Y-121386000D02*
X121631000Y-123420000D01*
X121591000Y-125500000D02*
X121591000Y-127546000D01*
X121591000Y-121374000D02*
X121591000Y-123420000D01*
X121551000Y-125500000D02*
X121551000Y-127558000D01*
X121551000Y-121362000D02*
X121551000Y-123420000D01*
X121511000Y-125500000D02*
X121511000Y-127570000D01*
X121511000Y-121350000D02*
X121511000Y-123420000D01*
X121471000Y-125500000D02*
X121471000Y-127581000D01*
X121471000Y-121339000D02*
X121471000Y-123420000D01*
X121431000Y-125500000D02*
X121431000Y-127591000D01*
X121431000Y-121329000D02*
X121431000Y-123420000D01*
X121391000Y-125500000D02*
X121391000Y-127601000D01*
X121391000Y-121319000D02*
X121391000Y-123420000D01*
X121351000Y-125500000D02*
X121351000Y-127610000D01*
X121351000Y-121310000D02*
X121351000Y-123420000D01*
X121310000Y-125500000D02*
X121310000Y-127619000D01*
X121310000Y-121301000D02*
X121310000Y-123420000D01*
X121270000Y-125500000D02*
X121270000Y-127627000D01*
X121270000Y-121293000D02*
X121270000Y-123420000D01*
X121230000Y-125500000D02*
X121230000Y-127635000D01*
X121230000Y-121285000D02*
X121230000Y-123420000D01*
X121190000Y-125500000D02*
X121190000Y-127642000D01*
X121190000Y-121278000D02*
X121190000Y-123420000D01*
X121150000Y-125500000D02*
X121150000Y-127649000D01*
X121150000Y-121271000D02*
X121150000Y-123420000D01*
X121110000Y-125500000D02*
X121110000Y-127655000D01*
X121110000Y-121265000D02*
X121110000Y-123420000D01*
X121070000Y-125500000D02*
X121070000Y-127661000D01*
X121070000Y-121259000D02*
X121070000Y-123420000D01*
X121030000Y-125500000D02*
X121030000Y-127666000D01*
X121030000Y-121254000D02*
X121030000Y-123420000D01*
X120990000Y-125500000D02*
X120990000Y-127671000D01*
X120990000Y-121249000D02*
X120990000Y-123420000D01*
X120950000Y-125500000D02*
X120950000Y-127675000D01*
X120950000Y-121245000D02*
X120950000Y-123420000D01*
X120910000Y-125500000D02*
X120910000Y-127678000D01*
X120910000Y-121242000D02*
X120910000Y-123420000D01*
X120870000Y-125500000D02*
X120870000Y-127682000D01*
X120870000Y-121238000D02*
X120870000Y-123420000D01*
X120830000Y-121236000D02*
X120830000Y-127684000D01*
X120790000Y-121233000D02*
X120790000Y-127687000D01*
X120750000Y-121232000D02*
X120750000Y-127688000D01*
X120710000Y-121230000D02*
X120710000Y-127690000D01*
X120670000Y-121230000D02*
X120670000Y-127690000D01*
X120630000Y-121230000D02*
X120630000Y-127690000D01*
X123900000Y-124460000D02*
G75*
G03X123900000Y-124460000I-3270000J0D01*
G01*
G04 #@! TO.C,C8*
X147924759Y-150246000D02*
X147924759Y-150876000D01*
X147609759Y-150561000D02*
X148239759Y-150561000D01*
X154351000Y-151998000D02*
X154351000Y-152802000D01*
X154311000Y-151767000D02*
X154311000Y-153033000D01*
X154271000Y-151598000D02*
X154271000Y-153202000D01*
X154231000Y-151460000D02*
X154231000Y-153340000D01*
X154191000Y-151341000D02*
X154191000Y-153459000D01*
X154151000Y-151235000D02*
X154151000Y-153565000D01*
X154111000Y-151138000D02*
X154111000Y-153662000D01*
X154071000Y-151050000D02*
X154071000Y-153750000D01*
X154031000Y-150968000D02*
X154031000Y-153832000D01*
X153991000Y-150891000D02*
X153991000Y-153909000D01*
X153951000Y-150819000D02*
X153951000Y-153981000D01*
X153911000Y-150750000D02*
X153911000Y-154050000D01*
X153871000Y-150686000D02*
X153871000Y-154114000D01*
X153831000Y-150624000D02*
X153831000Y-154176000D01*
X153791000Y-150566000D02*
X153791000Y-154234000D01*
X153751000Y-150510000D02*
X153751000Y-154290000D01*
X153711000Y-150456000D02*
X153711000Y-154344000D01*
X153671000Y-150405000D02*
X153671000Y-154395000D01*
X153631000Y-150356000D02*
X153631000Y-154444000D01*
X153591000Y-150308000D02*
X153591000Y-154492000D01*
X153551000Y-150263000D02*
X153551000Y-154537000D01*
X153511000Y-150218000D02*
X153511000Y-154582000D01*
X153471000Y-150176000D02*
X153471000Y-154624000D01*
X153431000Y-150135000D02*
X153431000Y-154665000D01*
X153391000Y-153440000D02*
X153391000Y-154705000D01*
X153391000Y-150095000D02*
X153391000Y-151360000D01*
X153351000Y-153440000D02*
X153351000Y-154743000D01*
X153351000Y-150057000D02*
X153351000Y-151360000D01*
X153311000Y-153440000D02*
X153311000Y-154780000D01*
X153311000Y-150020000D02*
X153311000Y-151360000D01*
X153271000Y-153440000D02*
X153271000Y-154816000D01*
X153271000Y-149984000D02*
X153271000Y-151360000D01*
X153231000Y-153440000D02*
X153231000Y-154850000D01*
X153231000Y-149950000D02*
X153231000Y-151360000D01*
X153191000Y-153440000D02*
X153191000Y-154884000D01*
X153191000Y-149916000D02*
X153191000Y-151360000D01*
X153151000Y-153440000D02*
X153151000Y-154916000D01*
X153151000Y-149884000D02*
X153151000Y-151360000D01*
X153111000Y-153440000D02*
X153111000Y-154948000D01*
X153111000Y-149852000D02*
X153111000Y-151360000D01*
X153071000Y-153440000D02*
X153071000Y-154978000D01*
X153071000Y-149822000D02*
X153071000Y-151360000D01*
X153031000Y-153440000D02*
X153031000Y-155007000D01*
X153031000Y-149793000D02*
X153031000Y-151360000D01*
X152991000Y-153440000D02*
X152991000Y-155036000D01*
X152991000Y-149764000D02*
X152991000Y-151360000D01*
X152951000Y-153440000D02*
X152951000Y-155064000D01*
X152951000Y-149736000D02*
X152951000Y-151360000D01*
X152911000Y-153440000D02*
X152911000Y-155090000D01*
X152911000Y-149710000D02*
X152911000Y-151360000D01*
X152871000Y-153440000D02*
X152871000Y-155116000D01*
X152871000Y-149684000D02*
X152871000Y-151360000D01*
X152831000Y-153440000D02*
X152831000Y-155142000D01*
X152831000Y-149658000D02*
X152831000Y-151360000D01*
X152791000Y-153440000D02*
X152791000Y-155166000D01*
X152791000Y-149634000D02*
X152791000Y-151360000D01*
X152751000Y-153440000D02*
X152751000Y-155190000D01*
X152751000Y-149610000D02*
X152751000Y-151360000D01*
X152711000Y-153440000D02*
X152711000Y-155212000D01*
X152711000Y-149588000D02*
X152711000Y-151360000D01*
X152671000Y-153440000D02*
X152671000Y-155234000D01*
X152671000Y-149566000D02*
X152671000Y-151360000D01*
X152631000Y-153440000D02*
X152631000Y-155256000D01*
X152631000Y-149544000D02*
X152631000Y-151360000D01*
X152591000Y-153440000D02*
X152591000Y-155276000D01*
X152591000Y-149524000D02*
X152591000Y-151360000D01*
X152551000Y-153440000D02*
X152551000Y-155296000D01*
X152551000Y-149504000D02*
X152551000Y-151360000D01*
X152511000Y-153440000D02*
X152511000Y-155316000D01*
X152511000Y-149484000D02*
X152511000Y-151360000D01*
X152471000Y-153440000D02*
X152471000Y-155334000D01*
X152471000Y-149466000D02*
X152471000Y-151360000D01*
X152431000Y-153440000D02*
X152431000Y-155352000D01*
X152431000Y-149448000D02*
X152431000Y-151360000D01*
X152391000Y-153440000D02*
X152391000Y-155370000D01*
X152391000Y-149430000D02*
X152391000Y-151360000D01*
X152351000Y-153440000D02*
X152351000Y-155386000D01*
X152351000Y-149414000D02*
X152351000Y-151360000D01*
X152311000Y-153440000D02*
X152311000Y-155402000D01*
X152311000Y-149398000D02*
X152311000Y-151360000D01*
X152271000Y-153440000D02*
X152271000Y-155418000D01*
X152271000Y-149382000D02*
X152271000Y-151360000D01*
X152231000Y-153440000D02*
X152231000Y-155433000D01*
X152231000Y-149367000D02*
X152231000Y-151360000D01*
X152191000Y-153440000D02*
X152191000Y-155447000D01*
X152191000Y-149353000D02*
X152191000Y-151360000D01*
X152151000Y-153440000D02*
X152151000Y-155461000D01*
X152151000Y-149339000D02*
X152151000Y-151360000D01*
X152111000Y-153440000D02*
X152111000Y-155474000D01*
X152111000Y-149326000D02*
X152111000Y-151360000D01*
X152071000Y-153440000D02*
X152071000Y-155486000D01*
X152071000Y-149314000D02*
X152071000Y-151360000D01*
X152031000Y-153440000D02*
X152031000Y-155498000D01*
X152031000Y-149302000D02*
X152031000Y-151360000D01*
X151991000Y-153440000D02*
X151991000Y-155510000D01*
X151991000Y-149290000D02*
X151991000Y-151360000D01*
X151951000Y-153440000D02*
X151951000Y-155521000D01*
X151951000Y-149279000D02*
X151951000Y-151360000D01*
X151911000Y-153440000D02*
X151911000Y-155531000D01*
X151911000Y-149269000D02*
X151911000Y-151360000D01*
X151871000Y-153440000D02*
X151871000Y-155541000D01*
X151871000Y-149259000D02*
X151871000Y-151360000D01*
X151831000Y-153440000D02*
X151831000Y-155550000D01*
X151831000Y-149250000D02*
X151831000Y-151360000D01*
X151790000Y-153440000D02*
X151790000Y-155559000D01*
X151790000Y-149241000D02*
X151790000Y-151360000D01*
X151750000Y-153440000D02*
X151750000Y-155567000D01*
X151750000Y-149233000D02*
X151750000Y-151360000D01*
X151710000Y-153440000D02*
X151710000Y-155575000D01*
X151710000Y-149225000D02*
X151710000Y-151360000D01*
X151670000Y-153440000D02*
X151670000Y-155582000D01*
X151670000Y-149218000D02*
X151670000Y-151360000D01*
X151630000Y-153440000D02*
X151630000Y-155589000D01*
X151630000Y-149211000D02*
X151630000Y-151360000D01*
X151590000Y-153440000D02*
X151590000Y-155595000D01*
X151590000Y-149205000D02*
X151590000Y-151360000D01*
X151550000Y-153440000D02*
X151550000Y-155601000D01*
X151550000Y-149199000D02*
X151550000Y-151360000D01*
X151510000Y-153440000D02*
X151510000Y-155606000D01*
X151510000Y-149194000D02*
X151510000Y-151360000D01*
X151470000Y-153440000D02*
X151470000Y-155611000D01*
X151470000Y-149189000D02*
X151470000Y-151360000D01*
X151430000Y-153440000D02*
X151430000Y-155615000D01*
X151430000Y-149185000D02*
X151430000Y-151360000D01*
X151390000Y-153440000D02*
X151390000Y-155618000D01*
X151390000Y-149182000D02*
X151390000Y-151360000D01*
X151350000Y-153440000D02*
X151350000Y-155622000D01*
X151350000Y-149178000D02*
X151350000Y-151360000D01*
X151310000Y-149176000D02*
X151310000Y-155624000D01*
X151270000Y-149173000D02*
X151270000Y-155627000D01*
X151230000Y-149172000D02*
X151230000Y-155628000D01*
X151190000Y-149170000D02*
X151190000Y-155630000D01*
X151150000Y-149170000D02*
X151150000Y-155630000D01*
X151110000Y-149170000D02*
X151110000Y-155630000D01*
X154380000Y-152400000D02*
G75*
G03X154380000Y-152400000I-3270000J0D01*
G01*
G04 #@! TO.C,C17*
X118820000Y-132080000D02*
G75*
G03X118820000Y-132080000I-3270000J0D01*
G01*
X115550000Y-128850000D02*
X115550000Y-135310000D01*
X115590000Y-128850000D02*
X115590000Y-135310000D01*
X115630000Y-128850000D02*
X115630000Y-135310000D01*
X115670000Y-128852000D02*
X115670000Y-135308000D01*
X115710000Y-128853000D02*
X115710000Y-135307000D01*
X115750000Y-128856000D02*
X115750000Y-135304000D01*
X115790000Y-128858000D02*
X115790000Y-131040000D01*
X115790000Y-133120000D02*
X115790000Y-135302000D01*
X115830000Y-128862000D02*
X115830000Y-131040000D01*
X115830000Y-133120000D02*
X115830000Y-135298000D01*
X115870000Y-128865000D02*
X115870000Y-131040000D01*
X115870000Y-133120000D02*
X115870000Y-135295000D01*
X115910000Y-128869000D02*
X115910000Y-131040000D01*
X115910000Y-133120000D02*
X115910000Y-135291000D01*
X115950000Y-128874000D02*
X115950000Y-131040000D01*
X115950000Y-133120000D02*
X115950000Y-135286000D01*
X115990000Y-128879000D02*
X115990000Y-131040000D01*
X115990000Y-133120000D02*
X115990000Y-135281000D01*
X116030000Y-128885000D02*
X116030000Y-131040000D01*
X116030000Y-133120000D02*
X116030000Y-135275000D01*
X116070000Y-128891000D02*
X116070000Y-131040000D01*
X116070000Y-133120000D02*
X116070000Y-135269000D01*
X116110000Y-128898000D02*
X116110000Y-131040000D01*
X116110000Y-133120000D02*
X116110000Y-135262000D01*
X116150000Y-128905000D02*
X116150000Y-131040000D01*
X116150000Y-133120000D02*
X116150000Y-135255000D01*
X116190000Y-128913000D02*
X116190000Y-131040000D01*
X116190000Y-133120000D02*
X116190000Y-135247000D01*
X116230000Y-128921000D02*
X116230000Y-131040000D01*
X116230000Y-133120000D02*
X116230000Y-135239000D01*
X116271000Y-128930000D02*
X116271000Y-131040000D01*
X116271000Y-133120000D02*
X116271000Y-135230000D01*
X116311000Y-128939000D02*
X116311000Y-131040000D01*
X116311000Y-133120000D02*
X116311000Y-135221000D01*
X116351000Y-128949000D02*
X116351000Y-131040000D01*
X116351000Y-133120000D02*
X116351000Y-135211000D01*
X116391000Y-128959000D02*
X116391000Y-131040000D01*
X116391000Y-133120000D02*
X116391000Y-135201000D01*
X116431000Y-128970000D02*
X116431000Y-131040000D01*
X116431000Y-133120000D02*
X116431000Y-135190000D01*
X116471000Y-128982000D02*
X116471000Y-131040000D01*
X116471000Y-133120000D02*
X116471000Y-135178000D01*
X116511000Y-128994000D02*
X116511000Y-131040000D01*
X116511000Y-133120000D02*
X116511000Y-135166000D01*
X116551000Y-129006000D02*
X116551000Y-131040000D01*
X116551000Y-133120000D02*
X116551000Y-135154000D01*
X116591000Y-129019000D02*
X116591000Y-131040000D01*
X116591000Y-133120000D02*
X116591000Y-135141000D01*
X116631000Y-129033000D02*
X116631000Y-131040000D01*
X116631000Y-133120000D02*
X116631000Y-135127000D01*
X116671000Y-129047000D02*
X116671000Y-131040000D01*
X116671000Y-133120000D02*
X116671000Y-135113000D01*
X116711000Y-129062000D02*
X116711000Y-131040000D01*
X116711000Y-133120000D02*
X116711000Y-135098000D01*
X116751000Y-129078000D02*
X116751000Y-131040000D01*
X116751000Y-133120000D02*
X116751000Y-135082000D01*
X116791000Y-129094000D02*
X116791000Y-131040000D01*
X116791000Y-133120000D02*
X116791000Y-135066000D01*
X116831000Y-129110000D02*
X116831000Y-131040000D01*
X116831000Y-133120000D02*
X116831000Y-135050000D01*
X116871000Y-129128000D02*
X116871000Y-131040000D01*
X116871000Y-133120000D02*
X116871000Y-135032000D01*
X116911000Y-129146000D02*
X116911000Y-131040000D01*
X116911000Y-133120000D02*
X116911000Y-135014000D01*
X116951000Y-129164000D02*
X116951000Y-131040000D01*
X116951000Y-133120000D02*
X116951000Y-134996000D01*
X116991000Y-129184000D02*
X116991000Y-131040000D01*
X116991000Y-133120000D02*
X116991000Y-134976000D01*
X117031000Y-129204000D02*
X117031000Y-131040000D01*
X117031000Y-133120000D02*
X117031000Y-134956000D01*
X117071000Y-129224000D02*
X117071000Y-131040000D01*
X117071000Y-133120000D02*
X117071000Y-134936000D01*
X117111000Y-129246000D02*
X117111000Y-131040000D01*
X117111000Y-133120000D02*
X117111000Y-134914000D01*
X117151000Y-129268000D02*
X117151000Y-131040000D01*
X117151000Y-133120000D02*
X117151000Y-134892000D01*
X117191000Y-129290000D02*
X117191000Y-131040000D01*
X117191000Y-133120000D02*
X117191000Y-134870000D01*
X117231000Y-129314000D02*
X117231000Y-131040000D01*
X117231000Y-133120000D02*
X117231000Y-134846000D01*
X117271000Y-129338000D02*
X117271000Y-131040000D01*
X117271000Y-133120000D02*
X117271000Y-134822000D01*
X117311000Y-129364000D02*
X117311000Y-131040000D01*
X117311000Y-133120000D02*
X117311000Y-134796000D01*
X117351000Y-129390000D02*
X117351000Y-131040000D01*
X117351000Y-133120000D02*
X117351000Y-134770000D01*
X117391000Y-129416000D02*
X117391000Y-131040000D01*
X117391000Y-133120000D02*
X117391000Y-134744000D01*
X117431000Y-129444000D02*
X117431000Y-131040000D01*
X117431000Y-133120000D02*
X117431000Y-134716000D01*
X117471000Y-129473000D02*
X117471000Y-131040000D01*
X117471000Y-133120000D02*
X117471000Y-134687000D01*
X117511000Y-129502000D02*
X117511000Y-131040000D01*
X117511000Y-133120000D02*
X117511000Y-134658000D01*
X117551000Y-129532000D02*
X117551000Y-131040000D01*
X117551000Y-133120000D02*
X117551000Y-134628000D01*
X117591000Y-129564000D02*
X117591000Y-131040000D01*
X117591000Y-133120000D02*
X117591000Y-134596000D01*
X117631000Y-129596000D02*
X117631000Y-131040000D01*
X117631000Y-133120000D02*
X117631000Y-134564000D01*
X117671000Y-129630000D02*
X117671000Y-131040000D01*
X117671000Y-133120000D02*
X117671000Y-134530000D01*
X117711000Y-129664000D02*
X117711000Y-131040000D01*
X117711000Y-133120000D02*
X117711000Y-134496000D01*
X117751000Y-129700000D02*
X117751000Y-131040000D01*
X117751000Y-133120000D02*
X117751000Y-134460000D01*
X117791000Y-129737000D02*
X117791000Y-131040000D01*
X117791000Y-133120000D02*
X117791000Y-134423000D01*
X117831000Y-129775000D02*
X117831000Y-131040000D01*
X117831000Y-133120000D02*
X117831000Y-134385000D01*
X117871000Y-129815000D02*
X117871000Y-134345000D01*
X117911000Y-129856000D02*
X117911000Y-134304000D01*
X117951000Y-129898000D02*
X117951000Y-134262000D01*
X117991000Y-129943000D02*
X117991000Y-134217000D01*
X118031000Y-129988000D02*
X118031000Y-134172000D01*
X118071000Y-130036000D02*
X118071000Y-134124000D01*
X118111000Y-130085000D02*
X118111000Y-134075000D01*
X118151000Y-130136000D02*
X118151000Y-134024000D01*
X118191000Y-130190000D02*
X118191000Y-133970000D01*
X118231000Y-130246000D02*
X118231000Y-133914000D01*
X118271000Y-130304000D02*
X118271000Y-133856000D01*
X118311000Y-130366000D02*
X118311000Y-133794000D01*
X118351000Y-130430000D02*
X118351000Y-133730000D01*
X118391000Y-130499000D02*
X118391000Y-133661000D01*
X118431000Y-130571000D02*
X118431000Y-133589000D01*
X118471000Y-130648000D02*
X118471000Y-133512000D01*
X118511000Y-130730000D02*
X118511000Y-133430000D01*
X118551000Y-130818000D02*
X118551000Y-133342000D01*
X118591000Y-130915000D02*
X118591000Y-133245000D01*
X118631000Y-131021000D02*
X118631000Y-133139000D01*
X118671000Y-131140000D02*
X118671000Y-133020000D01*
X118711000Y-131278000D02*
X118711000Y-132882000D01*
X118751000Y-131447000D02*
X118751000Y-132713000D01*
X118791000Y-131678000D02*
X118791000Y-132482000D01*
X112049759Y-130241000D02*
X112679759Y-130241000D01*
X112364759Y-129926000D02*
X112364759Y-130556000D01*
G04 #@! TO.C,C13*
X140304759Y-150246000D02*
X140304759Y-150876000D01*
X139989759Y-150561000D02*
X140619759Y-150561000D01*
X146731000Y-151998000D02*
X146731000Y-152802000D01*
X146691000Y-151767000D02*
X146691000Y-153033000D01*
X146651000Y-151598000D02*
X146651000Y-153202000D01*
X146611000Y-151460000D02*
X146611000Y-153340000D01*
X146571000Y-151341000D02*
X146571000Y-153459000D01*
X146531000Y-151235000D02*
X146531000Y-153565000D01*
X146491000Y-151138000D02*
X146491000Y-153662000D01*
X146451000Y-151050000D02*
X146451000Y-153750000D01*
X146411000Y-150968000D02*
X146411000Y-153832000D01*
X146371000Y-150891000D02*
X146371000Y-153909000D01*
X146331000Y-150819000D02*
X146331000Y-153981000D01*
X146291000Y-150750000D02*
X146291000Y-154050000D01*
X146251000Y-150686000D02*
X146251000Y-154114000D01*
X146211000Y-150624000D02*
X146211000Y-154176000D01*
X146171000Y-150566000D02*
X146171000Y-154234000D01*
X146131000Y-150510000D02*
X146131000Y-154290000D01*
X146091000Y-150456000D02*
X146091000Y-154344000D01*
X146051000Y-150405000D02*
X146051000Y-154395000D01*
X146011000Y-150356000D02*
X146011000Y-154444000D01*
X145971000Y-150308000D02*
X145971000Y-154492000D01*
X145931000Y-150263000D02*
X145931000Y-154537000D01*
X145891000Y-150218000D02*
X145891000Y-154582000D01*
X145851000Y-150176000D02*
X145851000Y-154624000D01*
X145811000Y-150135000D02*
X145811000Y-154665000D01*
X145771000Y-153440000D02*
X145771000Y-154705000D01*
X145771000Y-150095000D02*
X145771000Y-151360000D01*
X145731000Y-153440000D02*
X145731000Y-154743000D01*
X145731000Y-150057000D02*
X145731000Y-151360000D01*
X145691000Y-153440000D02*
X145691000Y-154780000D01*
X145691000Y-150020000D02*
X145691000Y-151360000D01*
X145651000Y-153440000D02*
X145651000Y-154816000D01*
X145651000Y-149984000D02*
X145651000Y-151360000D01*
X145611000Y-153440000D02*
X145611000Y-154850000D01*
X145611000Y-149950000D02*
X145611000Y-151360000D01*
X145571000Y-153440000D02*
X145571000Y-154884000D01*
X145571000Y-149916000D02*
X145571000Y-151360000D01*
X145531000Y-153440000D02*
X145531000Y-154916000D01*
X145531000Y-149884000D02*
X145531000Y-151360000D01*
X145491000Y-153440000D02*
X145491000Y-154948000D01*
X145491000Y-149852000D02*
X145491000Y-151360000D01*
X145451000Y-153440000D02*
X145451000Y-154978000D01*
X145451000Y-149822000D02*
X145451000Y-151360000D01*
X145411000Y-153440000D02*
X145411000Y-155007000D01*
X145411000Y-149793000D02*
X145411000Y-151360000D01*
X145371000Y-153440000D02*
X145371000Y-155036000D01*
X145371000Y-149764000D02*
X145371000Y-151360000D01*
X145331000Y-153440000D02*
X145331000Y-155064000D01*
X145331000Y-149736000D02*
X145331000Y-151360000D01*
X145291000Y-153440000D02*
X145291000Y-155090000D01*
X145291000Y-149710000D02*
X145291000Y-151360000D01*
X145251000Y-153440000D02*
X145251000Y-155116000D01*
X145251000Y-149684000D02*
X145251000Y-151360000D01*
X145211000Y-153440000D02*
X145211000Y-155142000D01*
X145211000Y-149658000D02*
X145211000Y-151360000D01*
X145171000Y-153440000D02*
X145171000Y-155166000D01*
X145171000Y-149634000D02*
X145171000Y-151360000D01*
X145131000Y-153440000D02*
X145131000Y-155190000D01*
X145131000Y-149610000D02*
X145131000Y-151360000D01*
X145091000Y-153440000D02*
X145091000Y-155212000D01*
X145091000Y-149588000D02*
X145091000Y-151360000D01*
X145051000Y-153440000D02*
X145051000Y-155234000D01*
X145051000Y-149566000D02*
X145051000Y-151360000D01*
X145011000Y-153440000D02*
X145011000Y-155256000D01*
X145011000Y-149544000D02*
X145011000Y-151360000D01*
X144971000Y-153440000D02*
X144971000Y-155276000D01*
X144971000Y-149524000D02*
X144971000Y-151360000D01*
X144931000Y-153440000D02*
X144931000Y-155296000D01*
X144931000Y-149504000D02*
X144931000Y-151360000D01*
X144891000Y-153440000D02*
X144891000Y-155316000D01*
X144891000Y-149484000D02*
X144891000Y-151360000D01*
X144851000Y-153440000D02*
X144851000Y-155334000D01*
X144851000Y-149466000D02*
X144851000Y-151360000D01*
X144811000Y-153440000D02*
X144811000Y-155352000D01*
X144811000Y-149448000D02*
X144811000Y-151360000D01*
X144771000Y-153440000D02*
X144771000Y-155370000D01*
X144771000Y-149430000D02*
X144771000Y-151360000D01*
X144731000Y-153440000D02*
X144731000Y-155386000D01*
X144731000Y-149414000D02*
X144731000Y-151360000D01*
X144691000Y-153440000D02*
X144691000Y-155402000D01*
X144691000Y-149398000D02*
X144691000Y-151360000D01*
X144651000Y-153440000D02*
X144651000Y-155418000D01*
X144651000Y-149382000D02*
X144651000Y-151360000D01*
X144611000Y-153440000D02*
X144611000Y-155433000D01*
X144611000Y-149367000D02*
X144611000Y-151360000D01*
X144571000Y-153440000D02*
X144571000Y-155447000D01*
X144571000Y-149353000D02*
X144571000Y-151360000D01*
X144531000Y-153440000D02*
X144531000Y-155461000D01*
X144531000Y-149339000D02*
X144531000Y-151360000D01*
X144491000Y-153440000D02*
X144491000Y-155474000D01*
X144491000Y-149326000D02*
X144491000Y-151360000D01*
X144451000Y-153440000D02*
X144451000Y-155486000D01*
X144451000Y-149314000D02*
X144451000Y-151360000D01*
X144411000Y-153440000D02*
X144411000Y-155498000D01*
X144411000Y-149302000D02*
X144411000Y-151360000D01*
X144371000Y-153440000D02*
X144371000Y-155510000D01*
X144371000Y-149290000D02*
X144371000Y-151360000D01*
X144331000Y-153440000D02*
X144331000Y-155521000D01*
X144331000Y-149279000D02*
X144331000Y-151360000D01*
X144291000Y-153440000D02*
X144291000Y-155531000D01*
X144291000Y-149269000D02*
X144291000Y-151360000D01*
X144251000Y-153440000D02*
X144251000Y-155541000D01*
X144251000Y-149259000D02*
X144251000Y-151360000D01*
X144211000Y-153440000D02*
X144211000Y-155550000D01*
X144211000Y-149250000D02*
X144211000Y-151360000D01*
X144170000Y-153440000D02*
X144170000Y-155559000D01*
X144170000Y-149241000D02*
X144170000Y-151360000D01*
X144130000Y-153440000D02*
X144130000Y-155567000D01*
X144130000Y-149233000D02*
X144130000Y-151360000D01*
X144090000Y-153440000D02*
X144090000Y-155575000D01*
X144090000Y-149225000D02*
X144090000Y-151360000D01*
X144050000Y-153440000D02*
X144050000Y-155582000D01*
X144050000Y-149218000D02*
X144050000Y-151360000D01*
X144010000Y-153440000D02*
X144010000Y-155589000D01*
X144010000Y-149211000D02*
X144010000Y-151360000D01*
X143970000Y-153440000D02*
X143970000Y-155595000D01*
X143970000Y-149205000D02*
X143970000Y-151360000D01*
X143930000Y-153440000D02*
X143930000Y-155601000D01*
X143930000Y-149199000D02*
X143930000Y-151360000D01*
X143890000Y-153440000D02*
X143890000Y-155606000D01*
X143890000Y-149194000D02*
X143890000Y-151360000D01*
X143850000Y-153440000D02*
X143850000Y-155611000D01*
X143850000Y-149189000D02*
X143850000Y-151360000D01*
X143810000Y-153440000D02*
X143810000Y-155615000D01*
X143810000Y-149185000D02*
X143810000Y-151360000D01*
X143770000Y-153440000D02*
X143770000Y-155618000D01*
X143770000Y-149182000D02*
X143770000Y-151360000D01*
X143730000Y-153440000D02*
X143730000Y-155622000D01*
X143730000Y-149178000D02*
X143730000Y-151360000D01*
X143690000Y-149176000D02*
X143690000Y-155624000D01*
X143650000Y-149173000D02*
X143650000Y-155627000D01*
X143610000Y-149172000D02*
X143610000Y-155628000D01*
X143570000Y-149170000D02*
X143570000Y-155630000D01*
X143530000Y-149170000D02*
X143530000Y-155630000D01*
X143490000Y-149170000D02*
X143490000Y-155630000D01*
X146760000Y-152400000D02*
G75*
G03X146760000Y-152400000I-3270000J0D01*
G01*
G04 #@! TO.C,C12*
X162040000Y-119380000D02*
G75*
G03X162040000Y-119380000I-3270000J0D01*
G01*
X158770000Y-122610000D02*
X158770000Y-116150000D01*
X158730000Y-122610000D02*
X158730000Y-116150000D01*
X158690000Y-122610000D02*
X158690000Y-116150000D01*
X158650000Y-122608000D02*
X158650000Y-116152000D01*
X158610000Y-122607000D02*
X158610000Y-116153000D01*
X158570000Y-122604000D02*
X158570000Y-116156000D01*
X158530000Y-122602000D02*
X158530000Y-120420000D01*
X158530000Y-118340000D02*
X158530000Y-116158000D01*
X158490000Y-122598000D02*
X158490000Y-120420000D01*
X158490000Y-118340000D02*
X158490000Y-116162000D01*
X158450000Y-122595000D02*
X158450000Y-120420000D01*
X158450000Y-118340000D02*
X158450000Y-116165000D01*
X158410000Y-122591000D02*
X158410000Y-120420000D01*
X158410000Y-118340000D02*
X158410000Y-116169000D01*
X158370000Y-122586000D02*
X158370000Y-120420000D01*
X158370000Y-118340000D02*
X158370000Y-116174000D01*
X158330000Y-122581000D02*
X158330000Y-120420000D01*
X158330000Y-118340000D02*
X158330000Y-116179000D01*
X158290000Y-122575000D02*
X158290000Y-120420000D01*
X158290000Y-118340000D02*
X158290000Y-116185000D01*
X158250000Y-122569000D02*
X158250000Y-120420000D01*
X158250000Y-118340000D02*
X158250000Y-116191000D01*
X158210000Y-122562000D02*
X158210000Y-120420000D01*
X158210000Y-118340000D02*
X158210000Y-116198000D01*
X158170000Y-122555000D02*
X158170000Y-120420000D01*
X158170000Y-118340000D02*
X158170000Y-116205000D01*
X158130000Y-122547000D02*
X158130000Y-120420000D01*
X158130000Y-118340000D02*
X158130000Y-116213000D01*
X158090000Y-122539000D02*
X158090000Y-120420000D01*
X158090000Y-118340000D02*
X158090000Y-116221000D01*
X158049000Y-122530000D02*
X158049000Y-120420000D01*
X158049000Y-118340000D02*
X158049000Y-116230000D01*
X158009000Y-122521000D02*
X158009000Y-120420000D01*
X158009000Y-118340000D02*
X158009000Y-116239000D01*
X157969000Y-122511000D02*
X157969000Y-120420000D01*
X157969000Y-118340000D02*
X157969000Y-116249000D01*
X157929000Y-122501000D02*
X157929000Y-120420000D01*
X157929000Y-118340000D02*
X157929000Y-116259000D01*
X157889000Y-122490000D02*
X157889000Y-120420000D01*
X157889000Y-118340000D02*
X157889000Y-116270000D01*
X157849000Y-122478000D02*
X157849000Y-120420000D01*
X157849000Y-118340000D02*
X157849000Y-116282000D01*
X157809000Y-122466000D02*
X157809000Y-120420000D01*
X157809000Y-118340000D02*
X157809000Y-116294000D01*
X157769000Y-122454000D02*
X157769000Y-120420000D01*
X157769000Y-118340000D02*
X157769000Y-116306000D01*
X157729000Y-122441000D02*
X157729000Y-120420000D01*
X157729000Y-118340000D02*
X157729000Y-116319000D01*
X157689000Y-122427000D02*
X157689000Y-120420000D01*
X157689000Y-118340000D02*
X157689000Y-116333000D01*
X157649000Y-122413000D02*
X157649000Y-120420000D01*
X157649000Y-118340000D02*
X157649000Y-116347000D01*
X157609000Y-122398000D02*
X157609000Y-120420000D01*
X157609000Y-118340000D02*
X157609000Y-116362000D01*
X157569000Y-122382000D02*
X157569000Y-120420000D01*
X157569000Y-118340000D02*
X157569000Y-116378000D01*
X157529000Y-122366000D02*
X157529000Y-120420000D01*
X157529000Y-118340000D02*
X157529000Y-116394000D01*
X157489000Y-122350000D02*
X157489000Y-120420000D01*
X157489000Y-118340000D02*
X157489000Y-116410000D01*
X157449000Y-122332000D02*
X157449000Y-120420000D01*
X157449000Y-118340000D02*
X157449000Y-116428000D01*
X157409000Y-122314000D02*
X157409000Y-120420000D01*
X157409000Y-118340000D02*
X157409000Y-116446000D01*
X157369000Y-122296000D02*
X157369000Y-120420000D01*
X157369000Y-118340000D02*
X157369000Y-116464000D01*
X157329000Y-122276000D02*
X157329000Y-120420000D01*
X157329000Y-118340000D02*
X157329000Y-116484000D01*
X157289000Y-122256000D02*
X157289000Y-120420000D01*
X157289000Y-118340000D02*
X157289000Y-116504000D01*
X157249000Y-122236000D02*
X157249000Y-120420000D01*
X157249000Y-118340000D02*
X157249000Y-116524000D01*
X157209000Y-122214000D02*
X157209000Y-120420000D01*
X157209000Y-118340000D02*
X157209000Y-116546000D01*
X157169000Y-122192000D02*
X157169000Y-120420000D01*
X157169000Y-118340000D02*
X157169000Y-116568000D01*
X157129000Y-122170000D02*
X157129000Y-120420000D01*
X157129000Y-118340000D02*
X157129000Y-116590000D01*
X157089000Y-122146000D02*
X157089000Y-120420000D01*
X157089000Y-118340000D02*
X157089000Y-116614000D01*
X157049000Y-122122000D02*
X157049000Y-120420000D01*
X157049000Y-118340000D02*
X157049000Y-116638000D01*
X157009000Y-122096000D02*
X157009000Y-120420000D01*
X157009000Y-118340000D02*
X157009000Y-116664000D01*
X156969000Y-122070000D02*
X156969000Y-120420000D01*
X156969000Y-118340000D02*
X156969000Y-116690000D01*
X156929000Y-122044000D02*
X156929000Y-120420000D01*
X156929000Y-118340000D02*
X156929000Y-116716000D01*
X156889000Y-122016000D02*
X156889000Y-120420000D01*
X156889000Y-118340000D02*
X156889000Y-116744000D01*
X156849000Y-121987000D02*
X156849000Y-120420000D01*
X156849000Y-118340000D02*
X156849000Y-116773000D01*
X156809000Y-121958000D02*
X156809000Y-120420000D01*
X156809000Y-118340000D02*
X156809000Y-116802000D01*
X156769000Y-121928000D02*
X156769000Y-120420000D01*
X156769000Y-118340000D02*
X156769000Y-116832000D01*
X156729000Y-121896000D02*
X156729000Y-120420000D01*
X156729000Y-118340000D02*
X156729000Y-116864000D01*
X156689000Y-121864000D02*
X156689000Y-120420000D01*
X156689000Y-118340000D02*
X156689000Y-116896000D01*
X156649000Y-121830000D02*
X156649000Y-120420000D01*
X156649000Y-118340000D02*
X156649000Y-116930000D01*
X156609000Y-121796000D02*
X156609000Y-120420000D01*
X156609000Y-118340000D02*
X156609000Y-116964000D01*
X156569000Y-121760000D02*
X156569000Y-120420000D01*
X156569000Y-118340000D02*
X156569000Y-117000000D01*
X156529000Y-121723000D02*
X156529000Y-120420000D01*
X156529000Y-118340000D02*
X156529000Y-117037000D01*
X156489000Y-121685000D02*
X156489000Y-120420000D01*
X156489000Y-118340000D02*
X156489000Y-117075000D01*
X156449000Y-121645000D02*
X156449000Y-117115000D01*
X156409000Y-121604000D02*
X156409000Y-117156000D01*
X156369000Y-121562000D02*
X156369000Y-117198000D01*
X156329000Y-121517000D02*
X156329000Y-117243000D01*
X156289000Y-121472000D02*
X156289000Y-117288000D01*
X156249000Y-121424000D02*
X156249000Y-117336000D01*
X156209000Y-121375000D02*
X156209000Y-117385000D01*
X156169000Y-121324000D02*
X156169000Y-117436000D01*
X156129000Y-121270000D02*
X156129000Y-117490000D01*
X156089000Y-121214000D02*
X156089000Y-117546000D01*
X156049000Y-121156000D02*
X156049000Y-117604000D01*
X156009000Y-121094000D02*
X156009000Y-117666000D01*
X155969000Y-121030000D02*
X155969000Y-117730000D01*
X155929000Y-120961000D02*
X155929000Y-117799000D01*
X155889000Y-120889000D02*
X155889000Y-117871000D01*
X155849000Y-120812000D02*
X155849000Y-117948000D01*
X155809000Y-120730000D02*
X155809000Y-118030000D01*
X155769000Y-120642000D02*
X155769000Y-118118000D01*
X155729000Y-120545000D02*
X155729000Y-118215000D01*
X155689000Y-120439000D02*
X155689000Y-118321000D01*
X155649000Y-120320000D02*
X155649000Y-118440000D01*
X155609000Y-120182000D02*
X155609000Y-118578000D01*
X155569000Y-120013000D02*
X155569000Y-118747000D01*
X155529000Y-119782000D02*
X155529000Y-118978000D01*
X162270241Y-121219000D02*
X161640241Y-121219000D01*
X161955241Y-121534000D02*
X161955241Y-120904000D01*
G04 #@! TO.C,C11*
X155544759Y-150246000D02*
X155544759Y-150876000D01*
X155229759Y-150561000D02*
X155859759Y-150561000D01*
X161971000Y-151998000D02*
X161971000Y-152802000D01*
X161931000Y-151767000D02*
X161931000Y-153033000D01*
X161891000Y-151598000D02*
X161891000Y-153202000D01*
X161851000Y-151460000D02*
X161851000Y-153340000D01*
X161811000Y-151341000D02*
X161811000Y-153459000D01*
X161771000Y-151235000D02*
X161771000Y-153565000D01*
X161731000Y-151138000D02*
X161731000Y-153662000D01*
X161691000Y-151050000D02*
X161691000Y-153750000D01*
X161651000Y-150968000D02*
X161651000Y-153832000D01*
X161611000Y-150891000D02*
X161611000Y-153909000D01*
X161571000Y-150819000D02*
X161571000Y-153981000D01*
X161531000Y-150750000D02*
X161531000Y-154050000D01*
X161491000Y-150686000D02*
X161491000Y-154114000D01*
X161451000Y-150624000D02*
X161451000Y-154176000D01*
X161411000Y-150566000D02*
X161411000Y-154234000D01*
X161371000Y-150510000D02*
X161371000Y-154290000D01*
X161331000Y-150456000D02*
X161331000Y-154344000D01*
X161291000Y-150405000D02*
X161291000Y-154395000D01*
X161251000Y-150356000D02*
X161251000Y-154444000D01*
X161211000Y-150308000D02*
X161211000Y-154492000D01*
X161171000Y-150263000D02*
X161171000Y-154537000D01*
X161131000Y-150218000D02*
X161131000Y-154582000D01*
X161091000Y-150176000D02*
X161091000Y-154624000D01*
X161051000Y-150135000D02*
X161051000Y-154665000D01*
X161011000Y-153440000D02*
X161011000Y-154705000D01*
X161011000Y-150095000D02*
X161011000Y-151360000D01*
X160971000Y-153440000D02*
X160971000Y-154743000D01*
X160971000Y-150057000D02*
X160971000Y-151360000D01*
X160931000Y-153440000D02*
X160931000Y-154780000D01*
X160931000Y-150020000D02*
X160931000Y-151360000D01*
X160891000Y-153440000D02*
X160891000Y-154816000D01*
X160891000Y-149984000D02*
X160891000Y-151360000D01*
X160851000Y-153440000D02*
X160851000Y-154850000D01*
X160851000Y-149950000D02*
X160851000Y-151360000D01*
X160811000Y-153440000D02*
X160811000Y-154884000D01*
X160811000Y-149916000D02*
X160811000Y-151360000D01*
X160771000Y-153440000D02*
X160771000Y-154916000D01*
X160771000Y-149884000D02*
X160771000Y-151360000D01*
X160731000Y-153440000D02*
X160731000Y-154948000D01*
X160731000Y-149852000D02*
X160731000Y-151360000D01*
X160691000Y-153440000D02*
X160691000Y-154978000D01*
X160691000Y-149822000D02*
X160691000Y-151360000D01*
X160651000Y-153440000D02*
X160651000Y-155007000D01*
X160651000Y-149793000D02*
X160651000Y-151360000D01*
X160611000Y-153440000D02*
X160611000Y-155036000D01*
X160611000Y-149764000D02*
X160611000Y-151360000D01*
X160571000Y-153440000D02*
X160571000Y-155064000D01*
X160571000Y-149736000D02*
X160571000Y-151360000D01*
X160531000Y-153440000D02*
X160531000Y-155090000D01*
X160531000Y-149710000D02*
X160531000Y-151360000D01*
X160491000Y-153440000D02*
X160491000Y-155116000D01*
X160491000Y-149684000D02*
X160491000Y-151360000D01*
X160451000Y-153440000D02*
X160451000Y-155142000D01*
X160451000Y-149658000D02*
X160451000Y-151360000D01*
X160411000Y-153440000D02*
X160411000Y-155166000D01*
X160411000Y-149634000D02*
X160411000Y-151360000D01*
X160371000Y-153440000D02*
X160371000Y-155190000D01*
X160371000Y-149610000D02*
X160371000Y-151360000D01*
X160331000Y-153440000D02*
X160331000Y-155212000D01*
X160331000Y-149588000D02*
X160331000Y-151360000D01*
X160291000Y-153440000D02*
X160291000Y-155234000D01*
X160291000Y-149566000D02*
X160291000Y-151360000D01*
X160251000Y-153440000D02*
X160251000Y-155256000D01*
X160251000Y-149544000D02*
X160251000Y-151360000D01*
X160211000Y-153440000D02*
X160211000Y-155276000D01*
X160211000Y-149524000D02*
X160211000Y-151360000D01*
X160171000Y-153440000D02*
X160171000Y-155296000D01*
X160171000Y-149504000D02*
X160171000Y-151360000D01*
X160131000Y-153440000D02*
X160131000Y-155316000D01*
X160131000Y-149484000D02*
X160131000Y-151360000D01*
X160091000Y-153440000D02*
X160091000Y-155334000D01*
X160091000Y-149466000D02*
X160091000Y-151360000D01*
X160051000Y-153440000D02*
X160051000Y-155352000D01*
X160051000Y-149448000D02*
X160051000Y-151360000D01*
X160011000Y-153440000D02*
X160011000Y-155370000D01*
X160011000Y-149430000D02*
X160011000Y-151360000D01*
X159971000Y-153440000D02*
X159971000Y-155386000D01*
X159971000Y-149414000D02*
X159971000Y-151360000D01*
X159931000Y-153440000D02*
X159931000Y-155402000D01*
X159931000Y-149398000D02*
X159931000Y-151360000D01*
X159891000Y-153440000D02*
X159891000Y-155418000D01*
X159891000Y-149382000D02*
X159891000Y-151360000D01*
X159851000Y-153440000D02*
X159851000Y-155433000D01*
X159851000Y-149367000D02*
X159851000Y-151360000D01*
X159811000Y-153440000D02*
X159811000Y-155447000D01*
X159811000Y-149353000D02*
X159811000Y-151360000D01*
X159771000Y-153440000D02*
X159771000Y-155461000D01*
X159771000Y-149339000D02*
X159771000Y-151360000D01*
X159731000Y-153440000D02*
X159731000Y-155474000D01*
X159731000Y-149326000D02*
X159731000Y-151360000D01*
X159691000Y-153440000D02*
X159691000Y-155486000D01*
X159691000Y-149314000D02*
X159691000Y-151360000D01*
X159651000Y-153440000D02*
X159651000Y-155498000D01*
X159651000Y-149302000D02*
X159651000Y-151360000D01*
X159611000Y-153440000D02*
X159611000Y-155510000D01*
X159611000Y-149290000D02*
X159611000Y-151360000D01*
X159571000Y-153440000D02*
X159571000Y-155521000D01*
X159571000Y-149279000D02*
X159571000Y-151360000D01*
X159531000Y-153440000D02*
X159531000Y-155531000D01*
X159531000Y-149269000D02*
X159531000Y-151360000D01*
X159491000Y-153440000D02*
X159491000Y-155541000D01*
X159491000Y-149259000D02*
X159491000Y-151360000D01*
X159451000Y-153440000D02*
X159451000Y-155550000D01*
X159451000Y-149250000D02*
X159451000Y-151360000D01*
X159410000Y-153440000D02*
X159410000Y-155559000D01*
X159410000Y-149241000D02*
X159410000Y-151360000D01*
X159370000Y-153440000D02*
X159370000Y-155567000D01*
X159370000Y-149233000D02*
X159370000Y-151360000D01*
X159330000Y-153440000D02*
X159330000Y-155575000D01*
X159330000Y-149225000D02*
X159330000Y-151360000D01*
X159290000Y-153440000D02*
X159290000Y-155582000D01*
X159290000Y-149218000D02*
X159290000Y-151360000D01*
X159250000Y-153440000D02*
X159250000Y-155589000D01*
X159250000Y-149211000D02*
X159250000Y-151360000D01*
X159210000Y-153440000D02*
X159210000Y-155595000D01*
X159210000Y-149205000D02*
X159210000Y-151360000D01*
X159170000Y-153440000D02*
X159170000Y-155601000D01*
X159170000Y-149199000D02*
X159170000Y-151360000D01*
X159130000Y-153440000D02*
X159130000Y-155606000D01*
X159130000Y-149194000D02*
X159130000Y-151360000D01*
X159090000Y-153440000D02*
X159090000Y-155611000D01*
X159090000Y-149189000D02*
X159090000Y-151360000D01*
X159050000Y-153440000D02*
X159050000Y-155615000D01*
X159050000Y-149185000D02*
X159050000Y-151360000D01*
X159010000Y-153440000D02*
X159010000Y-155618000D01*
X159010000Y-149182000D02*
X159010000Y-151360000D01*
X158970000Y-153440000D02*
X158970000Y-155622000D01*
X158970000Y-149178000D02*
X158970000Y-151360000D01*
X158930000Y-149176000D02*
X158930000Y-155624000D01*
X158890000Y-149173000D02*
X158890000Y-155627000D01*
X158850000Y-149172000D02*
X158850000Y-155628000D01*
X158810000Y-149170000D02*
X158810000Y-155630000D01*
X158770000Y-149170000D02*
X158770000Y-155630000D01*
X158730000Y-149170000D02*
X158730000Y-155630000D01*
X162000000Y-152400000D02*
G75*
G03X162000000Y-152400000I-3270000J0D01*
G01*
G04 #@! TO.C,C7*
X169660000Y-119380000D02*
G75*
G03X169660000Y-119380000I-3270000J0D01*
G01*
X166390000Y-122610000D02*
X166390000Y-116150000D01*
X166350000Y-122610000D02*
X166350000Y-116150000D01*
X166310000Y-122610000D02*
X166310000Y-116150000D01*
X166270000Y-122608000D02*
X166270000Y-116152000D01*
X166230000Y-122607000D02*
X166230000Y-116153000D01*
X166190000Y-122604000D02*
X166190000Y-116156000D01*
X166150000Y-122602000D02*
X166150000Y-120420000D01*
X166150000Y-118340000D02*
X166150000Y-116158000D01*
X166110000Y-122598000D02*
X166110000Y-120420000D01*
X166110000Y-118340000D02*
X166110000Y-116162000D01*
X166070000Y-122595000D02*
X166070000Y-120420000D01*
X166070000Y-118340000D02*
X166070000Y-116165000D01*
X166030000Y-122591000D02*
X166030000Y-120420000D01*
X166030000Y-118340000D02*
X166030000Y-116169000D01*
X165990000Y-122586000D02*
X165990000Y-120420000D01*
X165990000Y-118340000D02*
X165990000Y-116174000D01*
X165950000Y-122581000D02*
X165950000Y-120420000D01*
X165950000Y-118340000D02*
X165950000Y-116179000D01*
X165910000Y-122575000D02*
X165910000Y-120420000D01*
X165910000Y-118340000D02*
X165910000Y-116185000D01*
X165870000Y-122569000D02*
X165870000Y-120420000D01*
X165870000Y-118340000D02*
X165870000Y-116191000D01*
X165830000Y-122562000D02*
X165830000Y-120420000D01*
X165830000Y-118340000D02*
X165830000Y-116198000D01*
X165790000Y-122555000D02*
X165790000Y-120420000D01*
X165790000Y-118340000D02*
X165790000Y-116205000D01*
X165750000Y-122547000D02*
X165750000Y-120420000D01*
X165750000Y-118340000D02*
X165750000Y-116213000D01*
X165710000Y-122539000D02*
X165710000Y-120420000D01*
X165710000Y-118340000D02*
X165710000Y-116221000D01*
X165669000Y-122530000D02*
X165669000Y-120420000D01*
X165669000Y-118340000D02*
X165669000Y-116230000D01*
X165629000Y-122521000D02*
X165629000Y-120420000D01*
X165629000Y-118340000D02*
X165629000Y-116239000D01*
X165589000Y-122511000D02*
X165589000Y-120420000D01*
X165589000Y-118340000D02*
X165589000Y-116249000D01*
X165549000Y-122501000D02*
X165549000Y-120420000D01*
X165549000Y-118340000D02*
X165549000Y-116259000D01*
X165509000Y-122490000D02*
X165509000Y-120420000D01*
X165509000Y-118340000D02*
X165509000Y-116270000D01*
X165469000Y-122478000D02*
X165469000Y-120420000D01*
X165469000Y-118340000D02*
X165469000Y-116282000D01*
X165429000Y-122466000D02*
X165429000Y-120420000D01*
X165429000Y-118340000D02*
X165429000Y-116294000D01*
X165389000Y-122454000D02*
X165389000Y-120420000D01*
X165389000Y-118340000D02*
X165389000Y-116306000D01*
X165349000Y-122441000D02*
X165349000Y-120420000D01*
X165349000Y-118340000D02*
X165349000Y-116319000D01*
X165309000Y-122427000D02*
X165309000Y-120420000D01*
X165309000Y-118340000D02*
X165309000Y-116333000D01*
X165269000Y-122413000D02*
X165269000Y-120420000D01*
X165269000Y-118340000D02*
X165269000Y-116347000D01*
X165229000Y-122398000D02*
X165229000Y-120420000D01*
X165229000Y-118340000D02*
X165229000Y-116362000D01*
X165189000Y-122382000D02*
X165189000Y-120420000D01*
X165189000Y-118340000D02*
X165189000Y-116378000D01*
X165149000Y-122366000D02*
X165149000Y-120420000D01*
X165149000Y-118340000D02*
X165149000Y-116394000D01*
X165109000Y-122350000D02*
X165109000Y-120420000D01*
X165109000Y-118340000D02*
X165109000Y-116410000D01*
X165069000Y-122332000D02*
X165069000Y-120420000D01*
X165069000Y-118340000D02*
X165069000Y-116428000D01*
X165029000Y-122314000D02*
X165029000Y-120420000D01*
X165029000Y-118340000D02*
X165029000Y-116446000D01*
X164989000Y-122296000D02*
X164989000Y-120420000D01*
X164989000Y-118340000D02*
X164989000Y-116464000D01*
X164949000Y-122276000D02*
X164949000Y-120420000D01*
X164949000Y-118340000D02*
X164949000Y-116484000D01*
X164909000Y-122256000D02*
X164909000Y-120420000D01*
X164909000Y-118340000D02*
X164909000Y-116504000D01*
X164869000Y-122236000D02*
X164869000Y-120420000D01*
X164869000Y-118340000D02*
X164869000Y-116524000D01*
X164829000Y-122214000D02*
X164829000Y-120420000D01*
X164829000Y-118340000D02*
X164829000Y-116546000D01*
X164789000Y-122192000D02*
X164789000Y-120420000D01*
X164789000Y-118340000D02*
X164789000Y-116568000D01*
X164749000Y-122170000D02*
X164749000Y-120420000D01*
X164749000Y-118340000D02*
X164749000Y-116590000D01*
X164709000Y-122146000D02*
X164709000Y-120420000D01*
X164709000Y-118340000D02*
X164709000Y-116614000D01*
X164669000Y-122122000D02*
X164669000Y-120420000D01*
X164669000Y-118340000D02*
X164669000Y-116638000D01*
X164629000Y-122096000D02*
X164629000Y-120420000D01*
X164629000Y-118340000D02*
X164629000Y-116664000D01*
X164589000Y-122070000D02*
X164589000Y-120420000D01*
X164589000Y-118340000D02*
X164589000Y-116690000D01*
X164549000Y-122044000D02*
X164549000Y-120420000D01*
X164549000Y-118340000D02*
X164549000Y-116716000D01*
X164509000Y-122016000D02*
X164509000Y-120420000D01*
X164509000Y-118340000D02*
X164509000Y-116744000D01*
X164469000Y-121987000D02*
X164469000Y-120420000D01*
X164469000Y-118340000D02*
X164469000Y-116773000D01*
X164429000Y-121958000D02*
X164429000Y-120420000D01*
X164429000Y-118340000D02*
X164429000Y-116802000D01*
X164389000Y-121928000D02*
X164389000Y-120420000D01*
X164389000Y-118340000D02*
X164389000Y-116832000D01*
X164349000Y-121896000D02*
X164349000Y-120420000D01*
X164349000Y-118340000D02*
X164349000Y-116864000D01*
X164309000Y-121864000D02*
X164309000Y-120420000D01*
X164309000Y-118340000D02*
X164309000Y-116896000D01*
X164269000Y-121830000D02*
X164269000Y-120420000D01*
X164269000Y-118340000D02*
X164269000Y-116930000D01*
X164229000Y-121796000D02*
X164229000Y-120420000D01*
X164229000Y-118340000D02*
X164229000Y-116964000D01*
X164189000Y-121760000D02*
X164189000Y-120420000D01*
X164189000Y-118340000D02*
X164189000Y-117000000D01*
X164149000Y-121723000D02*
X164149000Y-120420000D01*
X164149000Y-118340000D02*
X164149000Y-117037000D01*
X164109000Y-121685000D02*
X164109000Y-120420000D01*
X164109000Y-118340000D02*
X164109000Y-117075000D01*
X164069000Y-121645000D02*
X164069000Y-117115000D01*
X164029000Y-121604000D02*
X164029000Y-117156000D01*
X163989000Y-121562000D02*
X163989000Y-117198000D01*
X163949000Y-121517000D02*
X163949000Y-117243000D01*
X163909000Y-121472000D02*
X163909000Y-117288000D01*
X163869000Y-121424000D02*
X163869000Y-117336000D01*
X163829000Y-121375000D02*
X163829000Y-117385000D01*
X163789000Y-121324000D02*
X163789000Y-117436000D01*
X163749000Y-121270000D02*
X163749000Y-117490000D01*
X163709000Y-121214000D02*
X163709000Y-117546000D01*
X163669000Y-121156000D02*
X163669000Y-117604000D01*
X163629000Y-121094000D02*
X163629000Y-117666000D01*
X163589000Y-121030000D02*
X163589000Y-117730000D01*
X163549000Y-120961000D02*
X163549000Y-117799000D01*
X163509000Y-120889000D02*
X163509000Y-117871000D01*
X163469000Y-120812000D02*
X163469000Y-117948000D01*
X163429000Y-120730000D02*
X163429000Y-118030000D01*
X163389000Y-120642000D02*
X163389000Y-118118000D01*
X163349000Y-120545000D02*
X163349000Y-118215000D01*
X163309000Y-120439000D02*
X163309000Y-118321000D01*
X163269000Y-120320000D02*
X163269000Y-118440000D01*
X163229000Y-120182000D02*
X163229000Y-118578000D01*
X163189000Y-120013000D02*
X163189000Y-118747000D01*
X163149000Y-119782000D02*
X163149000Y-118978000D01*
X169890241Y-121219000D02*
X169260241Y-121219000D01*
X169575241Y-121534000D02*
X169575241Y-120904000D01*
G04 #@! TO.C,C15*
X139100000Y-152400000D02*
G75*
G03X139100000Y-152400000I-3270000J0D01*
G01*
X135830000Y-149170000D02*
X135830000Y-155630000D01*
X135870000Y-149170000D02*
X135870000Y-155630000D01*
X135910000Y-149170000D02*
X135910000Y-155630000D01*
X135950000Y-149172000D02*
X135950000Y-155628000D01*
X135990000Y-149173000D02*
X135990000Y-155627000D01*
X136030000Y-149176000D02*
X136030000Y-155624000D01*
X136070000Y-149178000D02*
X136070000Y-151360000D01*
X136070000Y-153440000D02*
X136070000Y-155622000D01*
X136110000Y-149182000D02*
X136110000Y-151360000D01*
X136110000Y-153440000D02*
X136110000Y-155618000D01*
X136150000Y-149185000D02*
X136150000Y-151360000D01*
X136150000Y-153440000D02*
X136150000Y-155615000D01*
X136190000Y-149189000D02*
X136190000Y-151360000D01*
X136190000Y-153440000D02*
X136190000Y-155611000D01*
X136230000Y-149194000D02*
X136230000Y-151360000D01*
X136230000Y-153440000D02*
X136230000Y-155606000D01*
X136270000Y-149199000D02*
X136270000Y-151360000D01*
X136270000Y-153440000D02*
X136270000Y-155601000D01*
X136310000Y-149205000D02*
X136310000Y-151360000D01*
X136310000Y-153440000D02*
X136310000Y-155595000D01*
X136350000Y-149211000D02*
X136350000Y-151360000D01*
X136350000Y-153440000D02*
X136350000Y-155589000D01*
X136390000Y-149218000D02*
X136390000Y-151360000D01*
X136390000Y-153440000D02*
X136390000Y-155582000D01*
X136430000Y-149225000D02*
X136430000Y-151360000D01*
X136430000Y-153440000D02*
X136430000Y-155575000D01*
X136470000Y-149233000D02*
X136470000Y-151360000D01*
X136470000Y-153440000D02*
X136470000Y-155567000D01*
X136510000Y-149241000D02*
X136510000Y-151360000D01*
X136510000Y-153440000D02*
X136510000Y-155559000D01*
X136551000Y-149250000D02*
X136551000Y-151360000D01*
X136551000Y-153440000D02*
X136551000Y-155550000D01*
X136591000Y-149259000D02*
X136591000Y-151360000D01*
X136591000Y-153440000D02*
X136591000Y-155541000D01*
X136631000Y-149269000D02*
X136631000Y-151360000D01*
X136631000Y-153440000D02*
X136631000Y-155531000D01*
X136671000Y-149279000D02*
X136671000Y-151360000D01*
X136671000Y-153440000D02*
X136671000Y-155521000D01*
X136711000Y-149290000D02*
X136711000Y-151360000D01*
X136711000Y-153440000D02*
X136711000Y-155510000D01*
X136751000Y-149302000D02*
X136751000Y-151360000D01*
X136751000Y-153440000D02*
X136751000Y-155498000D01*
X136791000Y-149314000D02*
X136791000Y-151360000D01*
X136791000Y-153440000D02*
X136791000Y-155486000D01*
X136831000Y-149326000D02*
X136831000Y-151360000D01*
X136831000Y-153440000D02*
X136831000Y-155474000D01*
X136871000Y-149339000D02*
X136871000Y-151360000D01*
X136871000Y-153440000D02*
X136871000Y-155461000D01*
X136911000Y-149353000D02*
X136911000Y-151360000D01*
X136911000Y-153440000D02*
X136911000Y-155447000D01*
X136951000Y-149367000D02*
X136951000Y-151360000D01*
X136951000Y-153440000D02*
X136951000Y-155433000D01*
X136991000Y-149382000D02*
X136991000Y-151360000D01*
X136991000Y-153440000D02*
X136991000Y-155418000D01*
X137031000Y-149398000D02*
X137031000Y-151360000D01*
X137031000Y-153440000D02*
X137031000Y-155402000D01*
X137071000Y-149414000D02*
X137071000Y-151360000D01*
X137071000Y-153440000D02*
X137071000Y-155386000D01*
X137111000Y-149430000D02*
X137111000Y-151360000D01*
X137111000Y-153440000D02*
X137111000Y-155370000D01*
X137151000Y-149448000D02*
X137151000Y-151360000D01*
X137151000Y-153440000D02*
X137151000Y-155352000D01*
X137191000Y-149466000D02*
X137191000Y-151360000D01*
X137191000Y-153440000D02*
X137191000Y-155334000D01*
X137231000Y-149484000D02*
X137231000Y-151360000D01*
X137231000Y-153440000D02*
X137231000Y-155316000D01*
X137271000Y-149504000D02*
X137271000Y-151360000D01*
X137271000Y-153440000D02*
X137271000Y-155296000D01*
X137311000Y-149524000D02*
X137311000Y-151360000D01*
X137311000Y-153440000D02*
X137311000Y-155276000D01*
X137351000Y-149544000D02*
X137351000Y-151360000D01*
X137351000Y-153440000D02*
X137351000Y-155256000D01*
X137391000Y-149566000D02*
X137391000Y-151360000D01*
X137391000Y-153440000D02*
X137391000Y-155234000D01*
X137431000Y-149588000D02*
X137431000Y-151360000D01*
X137431000Y-153440000D02*
X137431000Y-155212000D01*
X137471000Y-149610000D02*
X137471000Y-151360000D01*
X137471000Y-153440000D02*
X137471000Y-155190000D01*
X137511000Y-149634000D02*
X137511000Y-151360000D01*
X137511000Y-153440000D02*
X137511000Y-155166000D01*
X137551000Y-149658000D02*
X137551000Y-151360000D01*
X137551000Y-153440000D02*
X137551000Y-155142000D01*
X137591000Y-149684000D02*
X137591000Y-151360000D01*
X137591000Y-153440000D02*
X137591000Y-155116000D01*
X137631000Y-149710000D02*
X137631000Y-151360000D01*
X137631000Y-153440000D02*
X137631000Y-155090000D01*
X137671000Y-149736000D02*
X137671000Y-151360000D01*
X137671000Y-153440000D02*
X137671000Y-155064000D01*
X137711000Y-149764000D02*
X137711000Y-151360000D01*
X137711000Y-153440000D02*
X137711000Y-155036000D01*
X137751000Y-149793000D02*
X137751000Y-151360000D01*
X137751000Y-153440000D02*
X137751000Y-155007000D01*
X137791000Y-149822000D02*
X137791000Y-151360000D01*
X137791000Y-153440000D02*
X137791000Y-154978000D01*
X137831000Y-149852000D02*
X137831000Y-151360000D01*
X137831000Y-153440000D02*
X137831000Y-154948000D01*
X137871000Y-149884000D02*
X137871000Y-151360000D01*
X137871000Y-153440000D02*
X137871000Y-154916000D01*
X137911000Y-149916000D02*
X137911000Y-151360000D01*
X137911000Y-153440000D02*
X137911000Y-154884000D01*
X137951000Y-149950000D02*
X137951000Y-151360000D01*
X137951000Y-153440000D02*
X137951000Y-154850000D01*
X137991000Y-149984000D02*
X137991000Y-151360000D01*
X137991000Y-153440000D02*
X137991000Y-154816000D01*
X138031000Y-150020000D02*
X138031000Y-151360000D01*
X138031000Y-153440000D02*
X138031000Y-154780000D01*
X138071000Y-150057000D02*
X138071000Y-151360000D01*
X138071000Y-153440000D02*
X138071000Y-154743000D01*
X138111000Y-150095000D02*
X138111000Y-151360000D01*
X138111000Y-153440000D02*
X138111000Y-154705000D01*
X138151000Y-150135000D02*
X138151000Y-154665000D01*
X138191000Y-150176000D02*
X138191000Y-154624000D01*
X138231000Y-150218000D02*
X138231000Y-154582000D01*
X138271000Y-150263000D02*
X138271000Y-154537000D01*
X138311000Y-150308000D02*
X138311000Y-154492000D01*
X138351000Y-150356000D02*
X138351000Y-154444000D01*
X138391000Y-150405000D02*
X138391000Y-154395000D01*
X138431000Y-150456000D02*
X138431000Y-154344000D01*
X138471000Y-150510000D02*
X138471000Y-154290000D01*
X138511000Y-150566000D02*
X138511000Y-154234000D01*
X138551000Y-150624000D02*
X138551000Y-154176000D01*
X138591000Y-150686000D02*
X138591000Y-154114000D01*
X138631000Y-150750000D02*
X138631000Y-154050000D01*
X138671000Y-150819000D02*
X138671000Y-153981000D01*
X138711000Y-150891000D02*
X138711000Y-153909000D01*
X138751000Y-150968000D02*
X138751000Y-153832000D01*
X138791000Y-151050000D02*
X138791000Y-153750000D01*
X138831000Y-151138000D02*
X138831000Y-153662000D01*
X138871000Y-151235000D02*
X138871000Y-153565000D01*
X138911000Y-151341000D02*
X138911000Y-153459000D01*
X138951000Y-151460000D02*
X138951000Y-153340000D01*
X138991000Y-151598000D02*
X138991000Y-153202000D01*
X139031000Y-151767000D02*
X139031000Y-153033000D01*
X139071000Y-151998000D02*
X139071000Y-152802000D01*
X132329759Y-150561000D02*
X132959759Y-150561000D01*
X132644759Y-150246000D02*
X132644759Y-150876000D01*
G04 #@! TO.C,C9*
X168210000Y-143410000D02*
X164570000Y-143410000D01*
X168210000Y-141070000D02*
X164570000Y-141070000D01*
X168210000Y-143410000D02*
X168210000Y-143165000D01*
X168210000Y-141315000D02*
X168210000Y-141070000D01*
X164570000Y-143410000D02*
X164570000Y-143165000D01*
X164570000Y-141315000D02*
X164570000Y-141070000D01*
G04 #@! TO.C,C6*
X145310000Y-117765000D02*
X145310000Y-118010000D01*
X145310000Y-115670000D02*
X145310000Y-115915000D01*
X141670000Y-117765000D02*
X141670000Y-118010000D01*
X141670000Y-115670000D02*
X141670000Y-115915000D01*
X141670000Y-118010000D02*
X145310000Y-118010000D01*
X141670000Y-115670000D02*
X145310000Y-115670000D01*
G04 #@! TO.C,C14*
X141670000Y-146150000D02*
X145310000Y-146150000D01*
X141670000Y-148490000D02*
X145310000Y-148490000D01*
X141670000Y-146150000D02*
X141670000Y-146395000D01*
X141670000Y-148245000D02*
X141670000Y-148490000D01*
X145310000Y-146150000D02*
X145310000Y-146395000D01*
X145310000Y-148245000D02*
X145310000Y-148490000D01*
G04 #@! TO.C,C5*
X152930000Y-117765000D02*
X152930000Y-118010000D01*
X152930000Y-115670000D02*
X152930000Y-115915000D01*
X149290000Y-117765000D02*
X149290000Y-118010000D01*
X149290000Y-115670000D02*
X149290000Y-115915000D01*
X149290000Y-118010000D02*
X152930000Y-118010000D01*
X149290000Y-115670000D02*
X152930000Y-115670000D01*
G04 #@! TO.C,C16*
X136590000Y-146150000D02*
X140230000Y-146150000D01*
X136590000Y-148490000D02*
X140230000Y-148490000D01*
X136590000Y-146150000D02*
X136590000Y-146395000D01*
X136590000Y-148245000D02*
X136590000Y-148490000D01*
X140230000Y-146150000D02*
X140230000Y-146395000D01*
X140230000Y-148245000D02*
X140230000Y-148490000D01*
G04 #@! TO.C,C4*
X168170000Y-130465000D02*
X168170000Y-130710000D01*
X168170000Y-128370000D02*
X168170000Y-128615000D01*
X164530000Y-130465000D02*
X164530000Y-130710000D01*
X164530000Y-128370000D02*
X164530000Y-128615000D01*
X164530000Y-130710000D02*
X168170000Y-130710000D01*
X164530000Y-128370000D02*
X168170000Y-128370000D01*
G04 #@! TO.C,C18*
X131470000Y-146150000D02*
X135110000Y-146150000D01*
X131470000Y-148490000D02*
X135110000Y-148490000D01*
X131470000Y-146150000D02*
X131470000Y-146395000D01*
X131470000Y-148245000D02*
X131470000Y-148490000D01*
X135110000Y-146150000D02*
X135110000Y-146395000D01*
X135110000Y-148245000D02*
X135110000Y-148490000D01*
G04 #@! TO.C,J1*
X171390000Y-122760000D02*
X171390000Y-121430000D01*
X172720000Y-122760000D02*
X171390000Y-122760000D01*
X173990000Y-122760000D02*
X173990000Y-120100000D01*
X173990000Y-120100000D02*
X181670000Y-120100000D01*
X173990000Y-122760000D02*
X181670000Y-122760000D01*
X181670000Y-122760000D02*
X181670000Y-120100000D01*
G04 #@! TO.C,J6*
X148530000Y-128210000D02*
X148530000Y-130870000D01*
X156210000Y-128210000D02*
X148530000Y-128210000D01*
X156210000Y-130870000D02*
X148530000Y-130870000D01*
X156210000Y-128210000D02*
X156210000Y-130870000D01*
X157480000Y-128210000D02*
X158810000Y-128210000D01*
X158810000Y-128210000D02*
X158810000Y-129540000D01*
G04 #@! TO.C,J8*
X148530000Y-143570000D02*
X148530000Y-142240000D01*
X149860000Y-143570000D02*
X148530000Y-143570000D01*
X151130000Y-143570000D02*
X151130000Y-140910000D01*
X151130000Y-140910000D02*
X161350000Y-140910000D01*
X151130000Y-143570000D02*
X161350000Y-143570000D01*
X161350000Y-143570000D02*
X161350000Y-140910000D01*
G04 #@! TO.C,J5*
X168850000Y-128210000D02*
X168850000Y-130870000D01*
X179070000Y-128210000D02*
X168850000Y-128210000D01*
X179070000Y-130870000D02*
X168850000Y-130870000D01*
X179070000Y-128210000D02*
X179070000Y-130870000D01*
X180340000Y-128210000D02*
X181670000Y-128210000D01*
X181670000Y-128210000D02*
X181670000Y-129540000D01*
G04 #@! TO.C,J7*
X184210000Y-143570000D02*
X184210000Y-140910000D01*
X171450000Y-143570000D02*
X184210000Y-143570000D01*
X171450000Y-140910000D02*
X184210000Y-140910000D01*
X171450000Y-143570000D02*
X171450000Y-140910000D01*
X170180000Y-143570000D02*
X168850000Y-143570000D01*
X168850000Y-143570000D02*
X168850000Y-142240000D01*
G04 #@! TO.C,Y1*
X150620000Y-124445000D02*
X144220000Y-124445000D01*
X150620000Y-119395000D02*
X144220000Y-119395000D01*
X150620000Y-119395000D02*
G75*
G02X150620000Y-124445000I0J-2525000D01*
G01*
X144220000Y-119395000D02*
G75*
G03X144220000Y-124445000I0J-2525000D01*
G01*
G04 #@! TO.C,U2*
X184210000Y-136890000D02*
G75*
G02X184210000Y-134890000I0J1000000D01*
G01*
X184210000Y-134890000D02*
X184210000Y-133240000D01*
X184210000Y-133240000D02*
X148530000Y-133240000D01*
X148530000Y-133240000D02*
X148530000Y-138540000D01*
X148530000Y-138540000D02*
X184210000Y-138540000D01*
X184210000Y-138540000D02*
X184210000Y-136890000D01*
X184270000Y-130750000D02*
X148470000Y-130750000D01*
X148470000Y-130750000D02*
X148470000Y-141030000D01*
X148470000Y-141030000D02*
X184270000Y-141030000D01*
X184270000Y-141030000D02*
X184270000Y-130750000D01*
G04 #@! TO.C,U3*
X124730000Y-141030000D02*
G75*
G02X126730000Y-141030000I1000000J0D01*
G01*
X126730000Y-141030000D02*
X128380000Y-141030000D01*
X128380000Y-141030000D02*
X128380000Y-130750000D01*
X128380000Y-130750000D02*
X123080000Y-130750000D01*
X123080000Y-130750000D02*
X123080000Y-141030000D01*
X123080000Y-141030000D02*
X124730000Y-141030000D01*
X130870000Y-141090000D02*
X130870000Y-130690000D01*
X130870000Y-130690000D02*
X120590000Y-130690000D01*
X120590000Y-130690000D02*
X120590000Y-141090000D01*
X120590000Y-141090000D02*
X130870000Y-141090000D01*
G04 #@! TO.C,R9*
D12*
X139104761Y-132532380D02*
X138533333Y-132532380D01*
X138819047Y-132532380D02*
X138819047Y-131532380D01*
X138723809Y-131675238D01*
X138628571Y-131770476D01*
X138533333Y-131818095D01*
X139723809Y-131532380D02*
X139819047Y-131532380D01*
X139914285Y-131580000D01*
X139961904Y-131627619D01*
X140009523Y-131722857D01*
X140057142Y-131913333D01*
X140057142Y-132151428D01*
X140009523Y-132341904D01*
X139961904Y-132437142D01*
X139914285Y-132484761D01*
X139819047Y-132532380D01*
X139723809Y-132532380D01*
X139628571Y-132484761D01*
X139580952Y-132437142D01*
X139533333Y-132341904D01*
X139485714Y-132151428D01*
X139485714Y-131913333D01*
X139533333Y-131722857D01*
X139580952Y-131627619D01*
X139628571Y-131580000D01*
X139723809Y-131532380D01*
X140485714Y-132532380D02*
X140485714Y-131532380D01*
X140580952Y-132151428D02*
X140866666Y-132532380D01*
X140866666Y-131865714D02*
X140485714Y-132246666D01*
G04 #@! TO.C,BT1*
X118594285Y-112958571D02*
X118737142Y-113006190D01*
X118784761Y-113053809D01*
X118832380Y-113149047D01*
X118832380Y-113291904D01*
X118784761Y-113387142D01*
X118737142Y-113434761D01*
X118641904Y-113482380D01*
X118260952Y-113482380D01*
X118260952Y-112482380D01*
X118594285Y-112482380D01*
X118689523Y-112530000D01*
X118737142Y-112577619D01*
X118784761Y-112672857D01*
X118784761Y-112768095D01*
X118737142Y-112863333D01*
X118689523Y-112910952D01*
X118594285Y-112958571D01*
X118260952Y-112958571D01*
X119118095Y-112482380D02*
X119689523Y-112482380D01*
X119403809Y-113482380D02*
X119403809Y-112482380D01*
X120546666Y-113482380D02*
X119975238Y-113482380D01*
X120260952Y-113482380D02*
X120260952Y-112482380D01*
X120165714Y-112625238D01*
X120070476Y-112720476D01*
X119975238Y-112768095D01*
G04 #@! TO.C,R1*
X139414285Y-136945714D02*
X139414285Y-137612380D01*
X139176190Y-136564761D02*
X138938095Y-137279047D01*
X139557142Y-137279047D01*
X139842857Y-136612380D02*
X140509523Y-136612380D01*
X140080952Y-137612380D01*
G04 #@! TO.C,R7*
X130841904Y-126547619D02*
X130889523Y-126500000D01*
X130984761Y-126452380D01*
X131222857Y-126452380D01*
X131318095Y-126500000D01*
X131365714Y-126547619D01*
X131413333Y-126642857D01*
X131413333Y-126738095D01*
X131365714Y-126880952D01*
X130794285Y-127452380D01*
X131413333Y-127452380D01*
X131794285Y-126547619D02*
X131841904Y-126500000D01*
X131937142Y-126452380D01*
X132175238Y-126452380D01*
X132270476Y-126500000D01*
X132318095Y-126547619D01*
X132365714Y-126642857D01*
X132365714Y-126738095D01*
X132318095Y-126880952D01*
X131746666Y-127452380D01*
X132365714Y-127452380D01*
X132984761Y-126452380D02*
X133080000Y-126452380D01*
X133175238Y-126500000D01*
X133222857Y-126547619D01*
X133270476Y-126642857D01*
X133318095Y-126833333D01*
X133318095Y-127071428D01*
X133270476Y-127261904D01*
X133222857Y-127357142D01*
X133175238Y-127404761D01*
X133080000Y-127452380D01*
X132984761Y-127452380D01*
X132889523Y-127404761D01*
X132841904Y-127357142D01*
X132794285Y-127261904D01*
X132746666Y-127071428D01*
X132746666Y-126833333D01*
X132794285Y-126642857D01*
X132841904Y-126547619D01*
X132889523Y-126500000D01*
X132984761Y-126452380D01*
G04 #@! TO.C,R11*
X139509523Y-140152380D02*
X138938095Y-140152380D01*
X139223809Y-140152380D02*
X139223809Y-139152380D01*
X139128571Y-139295238D01*
X139033333Y-139390476D01*
X138938095Y-139438095D01*
X140128571Y-139152380D02*
X140223809Y-139152380D01*
X140319047Y-139200000D01*
X140366666Y-139247619D01*
X140414285Y-139342857D01*
X140461904Y-139533333D01*
X140461904Y-139771428D01*
X140414285Y-139961904D01*
X140366666Y-140057142D01*
X140319047Y-140104761D01*
X140223809Y-140152380D01*
X140128571Y-140152380D01*
X140033333Y-140104761D01*
X139985714Y-140057142D01*
X139938095Y-139961904D01*
X139890476Y-139771428D01*
X139890476Y-139533333D01*
X139938095Y-139342857D01*
X139985714Y-139247619D01*
X140033333Y-139200000D01*
X140128571Y-139152380D01*
G04 #@! TO.C,R10*
X139580952Y-142692380D02*
X139009523Y-142692380D01*
X139295238Y-142692380D02*
X139295238Y-141692380D01*
X139200000Y-141835238D01*
X139104761Y-141930476D01*
X139009523Y-141978095D01*
X140009523Y-142692380D02*
X140009523Y-141692380D01*
X140104761Y-142311428D02*
X140390476Y-142692380D01*
X140390476Y-142025714D02*
X140009523Y-142406666D01*
G04 #@! TO.C,R8*
X138938095Y-134405714D02*
X138938095Y-135072380D01*
X138700000Y-134024761D02*
X138461904Y-134739047D01*
X139080952Y-134739047D01*
X139366666Y-134072380D02*
X140033333Y-134072380D01*
X139604761Y-135072380D01*
X140604761Y-134072380D02*
X140700000Y-134072380D01*
X140795238Y-134120000D01*
X140842857Y-134167619D01*
X140890476Y-134262857D01*
X140938095Y-134453333D01*
X140938095Y-134691428D01*
X140890476Y-134881904D01*
X140842857Y-134977142D01*
X140795238Y-135024761D01*
X140700000Y-135072380D01*
X140604761Y-135072380D01*
X140509523Y-135024761D01*
X140461904Y-134977142D01*
X140414285Y-134881904D01*
X140366666Y-134691428D01*
X140366666Y-134453333D01*
X140414285Y-134262857D01*
X140461904Y-134167619D01*
X140509523Y-134120000D01*
X140604761Y-134072380D01*
G04 #@! TO.C,R6*
X130841904Y-124007619D02*
X130889523Y-123960000D01*
X130984761Y-123912380D01*
X131222857Y-123912380D01*
X131318095Y-123960000D01*
X131365714Y-124007619D01*
X131413333Y-124102857D01*
X131413333Y-124198095D01*
X131365714Y-124340952D01*
X130794285Y-124912380D01*
X131413333Y-124912380D01*
X131794285Y-124007619D02*
X131841904Y-123960000D01*
X131937142Y-123912380D01*
X132175238Y-123912380D01*
X132270476Y-123960000D01*
X132318095Y-124007619D01*
X132365714Y-124102857D01*
X132365714Y-124198095D01*
X132318095Y-124340952D01*
X131746666Y-124912380D01*
X132365714Y-124912380D01*
X132984761Y-123912380D02*
X133080000Y-123912380D01*
X133175238Y-123960000D01*
X133222857Y-124007619D01*
X133270476Y-124102857D01*
X133318095Y-124293333D01*
X133318095Y-124531428D01*
X133270476Y-124721904D01*
X133222857Y-124817142D01*
X133175238Y-124864761D01*
X133080000Y-124912380D01*
X132984761Y-124912380D01*
X132889523Y-124864761D01*
X132841904Y-124817142D01*
X132794285Y-124721904D01*
X132746666Y-124531428D01*
X132746666Y-124293333D01*
X132794285Y-124102857D01*
X132841904Y-124007619D01*
X132889523Y-123960000D01*
X132984761Y-123912380D01*
G04 #@! TO.C,R5*
X130841904Y-121467619D02*
X130889523Y-121420000D01*
X130984761Y-121372380D01*
X131222857Y-121372380D01*
X131318095Y-121420000D01*
X131365714Y-121467619D01*
X131413333Y-121562857D01*
X131413333Y-121658095D01*
X131365714Y-121800952D01*
X130794285Y-122372380D01*
X131413333Y-122372380D01*
X131794285Y-121467619D02*
X131841904Y-121420000D01*
X131937142Y-121372380D01*
X132175238Y-121372380D01*
X132270476Y-121420000D01*
X132318095Y-121467619D01*
X132365714Y-121562857D01*
X132365714Y-121658095D01*
X132318095Y-121800952D01*
X131746666Y-122372380D01*
X132365714Y-122372380D01*
X132984761Y-121372380D02*
X133080000Y-121372380D01*
X133175238Y-121420000D01*
X133222857Y-121467619D01*
X133270476Y-121562857D01*
X133318095Y-121753333D01*
X133318095Y-121991428D01*
X133270476Y-122181904D01*
X133222857Y-122277142D01*
X133175238Y-122324761D01*
X133080000Y-122372380D01*
X132984761Y-122372380D01*
X132889523Y-122324761D01*
X132841904Y-122277142D01*
X132794285Y-122181904D01*
X132746666Y-121991428D01*
X132746666Y-121753333D01*
X132794285Y-121562857D01*
X132841904Y-121467619D01*
X132889523Y-121420000D01*
X132984761Y-121372380D01*
G04 #@! TO.C,R4*
X130841904Y-118927619D02*
X130889523Y-118880000D01*
X130984761Y-118832380D01*
X131222857Y-118832380D01*
X131318095Y-118880000D01*
X131365714Y-118927619D01*
X131413333Y-119022857D01*
X131413333Y-119118095D01*
X131365714Y-119260952D01*
X130794285Y-119832380D01*
X131413333Y-119832380D01*
X131794285Y-118927619D02*
X131841904Y-118880000D01*
X131937142Y-118832380D01*
X132175238Y-118832380D01*
X132270476Y-118880000D01*
X132318095Y-118927619D01*
X132365714Y-119022857D01*
X132365714Y-119118095D01*
X132318095Y-119260952D01*
X131746666Y-119832380D01*
X132365714Y-119832380D01*
X132984761Y-118832380D02*
X133080000Y-118832380D01*
X133175238Y-118880000D01*
X133222857Y-118927619D01*
X133270476Y-119022857D01*
X133318095Y-119213333D01*
X133318095Y-119451428D01*
X133270476Y-119641904D01*
X133222857Y-119737142D01*
X133175238Y-119784761D01*
X133080000Y-119832380D01*
X132984761Y-119832380D01*
X132889523Y-119784761D01*
X132841904Y-119737142D01*
X132794285Y-119641904D01*
X132746666Y-119451428D01*
X132746666Y-119213333D01*
X132794285Y-119022857D01*
X132841904Y-118927619D01*
X132889523Y-118880000D01*
X132984761Y-118832380D01*
G04 #@! TO.C,R3*
X130841904Y-116387619D02*
X130889523Y-116340000D01*
X130984761Y-116292380D01*
X131222857Y-116292380D01*
X131318095Y-116340000D01*
X131365714Y-116387619D01*
X131413333Y-116482857D01*
X131413333Y-116578095D01*
X131365714Y-116720952D01*
X130794285Y-117292380D01*
X131413333Y-117292380D01*
X131794285Y-116387619D02*
X131841904Y-116340000D01*
X131937142Y-116292380D01*
X132175238Y-116292380D01*
X132270476Y-116340000D01*
X132318095Y-116387619D01*
X132365714Y-116482857D01*
X132365714Y-116578095D01*
X132318095Y-116720952D01*
X131746666Y-117292380D01*
X132365714Y-117292380D01*
X132984761Y-116292380D02*
X133080000Y-116292380D01*
X133175238Y-116340000D01*
X133222857Y-116387619D01*
X133270476Y-116482857D01*
X133318095Y-116673333D01*
X133318095Y-116911428D01*
X133270476Y-117101904D01*
X133222857Y-117197142D01*
X133175238Y-117244761D01*
X133080000Y-117292380D01*
X132984761Y-117292380D01*
X132889523Y-117244761D01*
X132841904Y-117197142D01*
X132794285Y-117101904D01*
X132746666Y-116911428D01*
X132746666Y-116673333D01*
X132794285Y-116482857D01*
X132841904Y-116387619D01*
X132889523Y-116340000D01*
X132984761Y-116292380D01*
G04 #@! TO.C,R2*
X188412380Y-137755238D02*
X188412380Y-138326666D01*
X188412380Y-138040952D02*
X187412380Y-138040952D01*
X187555238Y-138136190D01*
X187650476Y-138231428D01*
X187698095Y-138326666D01*
X187412380Y-137136190D02*
X187412380Y-137040952D01*
X187460000Y-136945714D01*
X187507619Y-136898095D01*
X187602857Y-136850476D01*
X187793333Y-136802857D01*
X188031428Y-136802857D01*
X188221904Y-136850476D01*
X188317142Y-136898095D01*
X188364761Y-136945714D01*
X188412380Y-137040952D01*
X188412380Y-137136190D01*
X188364761Y-137231428D01*
X188317142Y-137279047D01*
X188221904Y-137326666D01*
X188031428Y-137374285D01*
X187793333Y-137374285D01*
X187602857Y-137326666D01*
X187507619Y-137279047D01*
X187460000Y-137231428D01*
X187412380Y-137136190D01*
X188412380Y-136374285D02*
X187412380Y-136374285D01*
X188031428Y-136279047D02*
X188412380Y-135993333D01*
X187745714Y-135993333D02*
X188126666Y-136374285D01*
G04 #@! TO.C,C10*
X119987142Y-120417142D02*
X119939523Y-120464761D01*
X119796666Y-120512380D01*
X119701428Y-120512380D01*
X119558571Y-120464761D01*
X119463333Y-120369523D01*
X119415714Y-120274285D01*
X119368095Y-120083809D01*
X119368095Y-119940952D01*
X119415714Y-119750476D01*
X119463333Y-119655238D01*
X119558571Y-119560000D01*
X119701428Y-119512380D01*
X119796666Y-119512380D01*
X119939523Y-119560000D01*
X119987142Y-119607619D01*
X120939523Y-120512380D02*
X120368095Y-120512380D01*
X120653809Y-120512380D02*
X120653809Y-119512380D01*
X120558571Y-119655238D01*
X120463333Y-119750476D01*
X120368095Y-119798095D01*
X121558571Y-119512380D02*
X121653809Y-119512380D01*
X121749047Y-119560000D01*
X121796666Y-119607619D01*
X121844285Y-119702857D01*
X121891904Y-119893333D01*
X121891904Y-120131428D01*
X121844285Y-120321904D01*
X121796666Y-120417142D01*
X121749047Y-120464761D01*
X121653809Y-120512380D01*
X121558571Y-120512380D01*
X121463333Y-120464761D01*
X121415714Y-120417142D01*
X121368095Y-120321904D01*
X121320476Y-120131428D01*
X121320476Y-119893333D01*
X121368095Y-119702857D01*
X121415714Y-119607619D01*
X121463333Y-119560000D01*
X121558571Y-119512380D01*
G04 #@! TO.C,C8*
X150943333Y-148357142D02*
X150895714Y-148404761D01*
X150752857Y-148452380D01*
X150657619Y-148452380D01*
X150514761Y-148404761D01*
X150419523Y-148309523D01*
X150371904Y-148214285D01*
X150324285Y-148023809D01*
X150324285Y-147880952D01*
X150371904Y-147690476D01*
X150419523Y-147595238D01*
X150514761Y-147500000D01*
X150657619Y-147452380D01*
X150752857Y-147452380D01*
X150895714Y-147500000D01*
X150943333Y-147547619D01*
X151514761Y-147880952D02*
X151419523Y-147833333D01*
X151371904Y-147785714D01*
X151324285Y-147690476D01*
X151324285Y-147642857D01*
X151371904Y-147547619D01*
X151419523Y-147500000D01*
X151514761Y-147452380D01*
X151705238Y-147452380D01*
X151800476Y-147500000D01*
X151848095Y-147547619D01*
X151895714Y-147642857D01*
X151895714Y-147690476D01*
X151848095Y-147785714D01*
X151800476Y-147833333D01*
X151705238Y-147880952D01*
X151514761Y-147880952D01*
X151419523Y-147928571D01*
X151371904Y-147976190D01*
X151324285Y-148071428D01*
X151324285Y-148261904D01*
X151371904Y-148357142D01*
X151419523Y-148404761D01*
X151514761Y-148452380D01*
X151705238Y-148452380D01*
X151800476Y-148404761D01*
X151848095Y-148357142D01*
X151895714Y-148261904D01*
X151895714Y-148071428D01*
X151848095Y-147976190D01*
X151800476Y-147928571D01*
X151705238Y-147880952D01*
G04 #@! TO.C,C17*
X114907142Y-128037142D02*
X114859523Y-128084761D01*
X114716666Y-128132380D01*
X114621428Y-128132380D01*
X114478571Y-128084761D01*
X114383333Y-127989523D01*
X114335714Y-127894285D01*
X114288095Y-127703809D01*
X114288095Y-127560952D01*
X114335714Y-127370476D01*
X114383333Y-127275238D01*
X114478571Y-127180000D01*
X114621428Y-127132380D01*
X114716666Y-127132380D01*
X114859523Y-127180000D01*
X114907142Y-127227619D01*
X115859523Y-128132380D02*
X115288095Y-128132380D01*
X115573809Y-128132380D02*
X115573809Y-127132380D01*
X115478571Y-127275238D01*
X115383333Y-127370476D01*
X115288095Y-127418095D01*
X116192857Y-127132380D02*
X116859523Y-127132380D01*
X116430952Y-128132380D01*
G04 #@! TO.C,C13*
X142847142Y-148357142D02*
X142799523Y-148404761D01*
X142656666Y-148452380D01*
X142561428Y-148452380D01*
X142418571Y-148404761D01*
X142323333Y-148309523D01*
X142275714Y-148214285D01*
X142228095Y-148023809D01*
X142228095Y-147880952D01*
X142275714Y-147690476D01*
X142323333Y-147595238D01*
X142418571Y-147500000D01*
X142561428Y-147452380D01*
X142656666Y-147452380D01*
X142799523Y-147500000D01*
X142847142Y-147547619D01*
X143799523Y-148452380D02*
X143228095Y-148452380D01*
X143513809Y-148452380D02*
X143513809Y-147452380D01*
X143418571Y-147595238D01*
X143323333Y-147690476D01*
X143228095Y-147738095D01*
X144132857Y-147452380D02*
X144751904Y-147452380D01*
X144418571Y-147833333D01*
X144561428Y-147833333D01*
X144656666Y-147880952D01*
X144704285Y-147928571D01*
X144751904Y-148023809D01*
X144751904Y-148261904D01*
X144704285Y-148357142D01*
X144656666Y-148404761D01*
X144561428Y-148452380D01*
X144275714Y-148452380D01*
X144180476Y-148404761D01*
X144132857Y-148357142D01*
G04 #@! TO.C,C12*
X158127142Y-124137142D02*
X158079523Y-124184761D01*
X157936666Y-124232380D01*
X157841428Y-124232380D01*
X157698571Y-124184761D01*
X157603333Y-124089523D01*
X157555714Y-123994285D01*
X157508095Y-123803809D01*
X157508095Y-123660952D01*
X157555714Y-123470476D01*
X157603333Y-123375238D01*
X157698571Y-123280000D01*
X157841428Y-123232380D01*
X157936666Y-123232380D01*
X158079523Y-123280000D01*
X158127142Y-123327619D01*
X159079523Y-124232380D02*
X158508095Y-124232380D01*
X158793809Y-124232380D02*
X158793809Y-123232380D01*
X158698571Y-123375238D01*
X158603333Y-123470476D01*
X158508095Y-123518095D01*
X159460476Y-123327619D02*
X159508095Y-123280000D01*
X159603333Y-123232380D01*
X159841428Y-123232380D01*
X159936666Y-123280000D01*
X159984285Y-123327619D01*
X160031904Y-123422857D01*
X160031904Y-123518095D01*
X159984285Y-123660952D01*
X159412857Y-124232380D01*
X160031904Y-124232380D01*
G04 #@! TO.C,C11*
X158087142Y-148357142D02*
X158039523Y-148404761D01*
X157896666Y-148452380D01*
X157801428Y-148452380D01*
X157658571Y-148404761D01*
X157563333Y-148309523D01*
X157515714Y-148214285D01*
X157468095Y-148023809D01*
X157468095Y-147880952D01*
X157515714Y-147690476D01*
X157563333Y-147595238D01*
X157658571Y-147500000D01*
X157801428Y-147452380D01*
X157896666Y-147452380D01*
X158039523Y-147500000D01*
X158087142Y-147547619D01*
X159039523Y-148452380D02*
X158468095Y-148452380D01*
X158753809Y-148452380D02*
X158753809Y-147452380D01*
X158658571Y-147595238D01*
X158563333Y-147690476D01*
X158468095Y-147738095D01*
X159991904Y-148452380D02*
X159420476Y-148452380D01*
X159706190Y-148452380D02*
X159706190Y-147452380D01*
X159610952Y-147595238D01*
X159515714Y-147690476D01*
X159420476Y-147738095D01*
G04 #@! TO.C,C7*
X166223333Y-124137142D02*
X166175714Y-124184761D01*
X166032857Y-124232380D01*
X165937619Y-124232380D01*
X165794761Y-124184761D01*
X165699523Y-124089523D01*
X165651904Y-123994285D01*
X165604285Y-123803809D01*
X165604285Y-123660952D01*
X165651904Y-123470476D01*
X165699523Y-123375238D01*
X165794761Y-123280000D01*
X165937619Y-123232380D01*
X166032857Y-123232380D01*
X166175714Y-123280000D01*
X166223333Y-123327619D01*
X166556666Y-123232380D02*
X167223333Y-123232380D01*
X166794761Y-124232380D01*
G04 #@! TO.C,C15*
X135187142Y-148357142D02*
X135139523Y-148404761D01*
X134996666Y-148452380D01*
X134901428Y-148452380D01*
X134758571Y-148404761D01*
X134663333Y-148309523D01*
X134615714Y-148214285D01*
X134568095Y-148023809D01*
X134568095Y-147880952D01*
X134615714Y-147690476D01*
X134663333Y-147595238D01*
X134758571Y-147500000D01*
X134901428Y-147452380D01*
X134996666Y-147452380D01*
X135139523Y-147500000D01*
X135187142Y-147547619D01*
X136139523Y-148452380D02*
X135568095Y-148452380D01*
X135853809Y-148452380D02*
X135853809Y-147452380D01*
X135758571Y-147595238D01*
X135663333Y-147690476D01*
X135568095Y-147738095D01*
X137044285Y-147452380D02*
X136568095Y-147452380D01*
X136520476Y-147928571D01*
X136568095Y-147880952D01*
X136663333Y-147833333D01*
X136901428Y-147833333D01*
X136996666Y-147880952D01*
X137044285Y-147928571D01*
X137091904Y-148023809D01*
X137091904Y-148261904D01*
X137044285Y-148357142D01*
X136996666Y-148404761D01*
X136901428Y-148452380D01*
X136663333Y-148452380D01*
X136568095Y-148404761D01*
X136520476Y-148357142D01*
G04 #@! TO.C,C9*
X166223333Y-144897142D02*
X166175714Y-144944761D01*
X166032857Y-144992380D01*
X165937619Y-144992380D01*
X165794761Y-144944761D01*
X165699523Y-144849523D01*
X165651904Y-144754285D01*
X165604285Y-144563809D01*
X165604285Y-144420952D01*
X165651904Y-144230476D01*
X165699523Y-144135238D01*
X165794761Y-144040000D01*
X165937619Y-143992380D01*
X166032857Y-143992380D01*
X166175714Y-144040000D01*
X166223333Y-144087619D01*
X166699523Y-144992380D02*
X166890000Y-144992380D01*
X166985238Y-144944761D01*
X167032857Y-144897142D01*
X167128095Y-144754285D01*
X167175714Y-144563809D01*
X167175714Y-144182857D01*
X167128095Y-144087619D01*
X167080476Y-144040000D01*
X166985238Y-143992380D01*
X166794761Y-143992380D01*
X166699523Y-144040000D01*
X166651904Y-144087619D01*
X166604285Y-144182857D01*
X166604285Y-144420952D01*
X166651904Y-144516190D01*
X166699523Y-144563809D01*
X166794761Y-144611428D01*
X166985238Y-144611428D01*
X167080476Y-144563809D01*
X167128095Y-144516190D01*
X167175714Y-144420952D01*
G04 #@! TO.C,C6*
X143323333Y-114897142D02*
X143275714Y-114944761D01*
X143132857Y-114992380D01*
X143037619Y-114992380D01*
X142894761Y-114944761D01*
X142799523Y-114849523D01*
X142751904Y-114754285D01*
X142704285Y-114563809D01*
X142704285Y-114420952D01*
X142751904Y-114230476D01*
X142799523Y-114135238D01*
X142894761Y-114040000D01*
X143037619Y-113992380D01*
X143132857Y-113992380D01*
X143275714Y-114040000D01*
X143323333Y-114087619D01*
X144180476Y-113992380D02*
X143990000Y-113992380D01*
X143894761Y-114040000D01*
X143847142Y-114087619D01*
X143751904Y-114230476D01*
X143704285Y-114420952D01*
X143704285Y-114801904D01*
X143751904Y-114897142D01*
X143799523Y-114944761D01*
X143894761Y-114992380D01*
X144085238Y-114992380D01*
X144180476Y-114944761D01*
X144228095Y-114897142D01*
X144275714Y-114801904D01*
X144275714Y-114563809D01*
X144228095Y-114468571D01*
X144180476Y-114420952D01*
X144085238Y-114373333D01*
X143894761Y-114373333D01*
X143799523Y-114420952D01*
X143751904Y-114468571D01*
X143704285Y-114563809D01*
G04 #@! TO.C,C14*
X142847142Y-145377142D02*
X142799523Y-145424761D01*
X142656666Y-145472380D01*
X142561428Y-145472380D01*
X142418571Y-145424761D01*
X142323333Y-145329523D01*
X142275714Y-145234285D01*
X142228095Y-145043809D01*
X142228095Y-144900952D01*
X142275714Y-144710476D01*
X142323333Y-144615238D01*
X142418571Y-144520000D01*
X142561428Y-144472380D01*
X142656666Y-144472380D01*
X142799523Y-144520000D01*
X142847142Y-144567619D01*
X143799523Y-145472380D02*
X143228095Y-145472380D01*
X143513809Y-145472380D02*
X143513809Y-144472380D01*
X143418571Y-144615238D01*
X143323333Y-144710476D01*
X143228095Y-144758095D01*
X144656666Y-144805714D02*
X144656666Y-145472380D01*
X144418571Y-144424761D02*
X144180476Y-145139047D01*
X144799523Y-145139047D01*
G04 #@! TO.C,C5*
X150943333Y-114897142D02*
X150895714Y-114944761D01*
X150752857Y-114992380D01*
X150657619Y-114992380D01*
X150514761Y-114944761D01*
X150419523Y-114849523D01*
X150371904Y-114754285D01*
X150324285Y-114563809D01*
X150324285Y-114420952D01*
X150371904Y-114230476D01*
X150419523Y-114135238D01*
X150514761Y-114040000D01*
X150657619Y-113992380D01*
X150752857Y-113992380D01*
X150895714Y-114040000D01*
X150943333Y-114087619D01*
X151848095Y-113992380D02*
X151371904Y-113992380D01*
X151324285Y-114468571D01*
X151371904Y-114420952D01*
X151467142Y-114373333D01*
X151705238Y-114373333D01*
X151800476Y-114420952D01*
X151848095Y-114468571D01*
X151895714Y-114563809D01*
X151895714Y-114801904D01*
X151848095Y-114897142D01*
X151800476Y-114944761D01*
X151705238Y-114992380D01*
X151467142Y-114992380D01*
X151371904Y-114944761D01*
X151324285Y-114897142D01*
G04 #@! TO.C,C16*
X137767142Y-145377142D02*
X137719523Y-145424761D01*
X137576666Y-145472380D01*
X137481428Y-145472380D01*
X137338571Y-145424761D01*
X137243333Y-145329523D01*
X137195714Y-145234285D01*
X137148095Y-145043809D01*
X137148095Y-144900952D01*
X137195714Y-144710476D01*
X137243333Y-144615238D01*
X137338571Y-144520000D01*
X137481428Y-144472380D01*
X137576666Y-144472380D01*
X137719523Y-144520000D01*
X137767142Y-144567619D01*
X138719523Y-145472380D02*
X138148095Y-145472380D01*
X138433809Y-145472380D02*
X138433809Y-144472380D01*
X138338571Y-144615238D01*
X138243333Y-144710476D01*
X138148095Y-144758095D01*
X139576666Y-144472380D02*
X139386190Y-144472380D01*
X139290952Y-144520000D01*
X139243333Y-144567619D01*
X139148095Y-144710476D01*
X139100476Y-144900952D01*
X139100476Y-145281904D01*
X139148095Y-145377142D01*
X139195714Y-145424761D01*
X139290952Y-145472380D01*
X139481428Y-145472380D01*
X139576666Y-145424761D01*
X139624285Y-145377142D01*
X139671904Y-145281904D01*
X139671904Y-145043809D01*
X139624285Y-144948571D01*
X139576666Y-144900952D01*
X139481428Y-144853333D01*
X139290952Y-144853333D01*
X139195714Y-144900952D01*
X139148095Y-144948571D01*
X139100476Y-145043809D01*
G04 #@! TO.C,C4*
X166183333Y-127597142D02*
X166135714Y-127644761D01*
X165992857Y-127692380D01*
X165897619Y-127692380D01*
X165754761Y-127644761D01*
X165659523Y-127549523D01*
X165611904Y-127454285D01*
X165564285Y-127263809D01*
X165564285Y-127120952D01*
X165611904Y-126930476D01*
X165659523Y-126835238D01*
X165754761Y-126740000D01*
X165897619Y-126692380D01*
X165992857Y-126692380D01*
X166135714Y-126740000D01*
X166183333Y-126787619D01*
X167040476Y-127025714D02*
X167040476Y-127692380D01*
X166802380Y-126644761D02*
X166564285Y-127359047D01*
X167183333Y-127359047D01*
G04 #@! TO.C,C18*
X132647142Y-145377142D02*
X132599523Y-145424761D01*
X132456666Y-145472380D01*
X132361428Y-145472380D01*
X132218571Y-145424761D01*
X132123333Y-145329523D01*
X132075714Y-145234285D01*
X132028095Y-145043809D01*
X132028095Y-144900952D01*
X132075714Y-144710476D01*
X132123333Y-144615238D01*
X132218571Y-144520000D01*
X132361428Y-144472380D01*
X132456666Y-144472380D01*
X132599523Y-144520000D01*
X132647142Y-144567619D01*
X133599523Y-145472380D02*
X133028095Y-145472380D01*
X133313809Y-145472380D02*
X133313809Y-144472380D01*
X133218571Y-144615238D01*
X133123333Y-144710476D01*
X133028095Y-144758095D01*
X134170952Y-144900952D02*
X134075714Y-144853333D01*
X134028095Y-144805714D01*
X133980476Y-144710476D01*
X133980476Y-144662857D01*
X134028095Y-144567619D01*
X134075714Y-144520000D01*
X134170952Y-144472380D01*
X134361428Y-144472380D01*
X134456666Y-144520000D01*
X134504285Y-144567619D01*
X134551904Y-144662857D01*
X134551904Y-144710476D01*
X134504285Y-144805714D01*
X134456666Y-144853333D01*
X134361428Y-144900952D01*
X134170952Y-144900952D01*
X134075714Y-144948571D01*
X134028095Y-144996190D01*
X133980476Y-145091428D01*
X133980476Y-145281904D01*
X134028095Y-145377142D01*
X134075714Y-145424761D01*
X134170952Y-145472380D01*
X134361428Y-145472380D01*
X134456666Y-145424761D01*
X134504285Y-145377142D01*
X134551904Y-145281904D01*
X134551904Y-145091428D01*
X134504285Y-144996190D01*
X134456666Y-144948571D01*
X134361428Y-144900952D01*
G04 #@! TO.C,J1*
X169842380Y-121763333D02*
X170556666Y-121763333D01*
X170699523Y-121810952D01*
X170794761Y-121906190D01*
X170842380Y-122049047D01*
X170842380Y-122144285D01*
X170842380Y-120763333D02*
X170842380Y-121334761D01*
X170842380Y-121049047D02*
X169842380Y-121049047D01*
X169985238Y-121144285D01*
X170080476Y-121239523D01*
X170128095Y-121334761D01*
G04 #@! TO.C,J6*
X159262380Y-129873333D02*
X159976666Y-129873333D01*
X160119523Y-129920952D01*
X160214761Y-130016190D01*
X160262380Y-130159047D01*
X160262380Y-130254285D01*
X159262380Y-128968571D02*
X159262380Y-129159047D01*
X159310000Y-129254285D01*
X159357619Y-129301904D01*
X159500476Y-129397142D01*
X159690952Y-129444761D01*
X160071904Y-129444761D01*
X160167142Y-129397142D01*
X160214761Y-129349523D01*
X160262380Y-129254285D01*
X160262380Y-129063809D01*
X160214761Y-128968571D01*
X160167142Y-128920952D01*
X160071904Y-128873333D01*
X159833809Y-128873333D01*
X159738571Y-128920952D01*
X159690952Y-128968571D01*
X159643333Y-129063809D01*
X159643333Y-129254285D01*
X159690952Y-129349523D01*
X159738571Y-129397142D01*
X159833809Y-129444761D01*
G04 #@! TO.C,J8*
X146982380Y-142573333D02*
X147696666Y-142573333D01*
X147839523Y-142620952D01*
X147934761Y-142716190D01*
X147982380Y-142859047D01*
X147982380Y-142954285D01*
X147410952Y-141954285D02*
X147363333Y-142049523D01*
X147315714Y-142097142D01*
X147220476Y-142144761D01*
X147172857Y-142144761D01*
X147077619Y-142097142D01*
X147030000Y-142049523D01*
X146982380Y-141954285D01*
X146982380Y-141763809D01*
X147030000Y-141668571D01*
X147077619Y-141620952D01*
X147172857Y-141573333D01*
X147220476Y-141573333D01*
X147315714Y-141620952D01*
X147363333Y-141668571D01*
X147410952Y-141763809D01*
X147410952Y-141954285D01*
X147458571Y-142049523D01*
X147506190Y-142097142D01*
X147601428Y-142144761D01*
X147791904Y-142144761D01*
X147887142Y-142097142D01*
X147934761Y-142049523D01*
X147982380Y-141954285D01*
X147982380Y-141763809D01*
X147934761Y-141668571D01*
X147887142Y-141620952D01*
X147791904Y-141573333D01*
X147601428Y-141573333D01*
X147506190Y-141620952D01*
X147458571Y-141668571D01*
X147410952Y-141763809D01*
G04 #@! TO.C,J5*
X182122380Y-129873333D02*
X182836666Y-129873333D01*
X182979523Y-129920952D01*
X183074761Y-130016190D01*
X183122380Y-130159047D01*
X183122380Y-130254285D01*
X182122380Y-128920952D02*
X182122380Y-129397142D01*
X182598571Y-129444761D01*
X182550952Y-129397142D01*
X182503333Y-129301904D01*
X182503333Y-129063809D01*
X182550952Y-128968571D01*
X182598571Y-128920952D01*
X182693809Y-128873333D01*
X182931904Y-128873333D01*
X183027142Y-128920952D01*
X183074761Y-128968571D01*
X183122380Y-129063809D01*
X183122380Y-129301904D01*
X183074761Y-129397142D01*
X183027142Y-129444761D01*
G04 #@! TO.C,J7*
X167302380Y-142573333D02*
X168016666Y-142573333D01*
X168159523Y-142620952D01*
X168254761Y-142716190D01*
X168302380Y-142859047D01*
X168302380Y-142954285D01*
X167302380Y-142192380D02*
X167302380Y-141525714D01*
X168302380Y-141954285D01*
G04 #@! TO.C,Y1*
X146943809Y-125421190D02*
X146943809Y-125897380D01*
X146610476Y-124897380D02*
X146943809Y-125421190D01*
X147277142Y-124897380D01*
X148134285Y-125897380D02*
X147562857Y-125897380D01*
X147848571Y-125897380D02*
X147848571Y-124897380D01*
X147753333Y-125040238D01*
X147658095Y-125135476D01*
X147562857Y-125183095D01*
G04 #@! TO.C,U2*
X184662380Y-136651904D02*
X185471904Y-136651904D01*
X185567142Y-136604285D01*
X185614761Y-136556666D01*
X185662380Y-136461428D01*
X185662380Y-136270952D01*
X185614761Y-136175714D01*
X185567142Y-136128095D01*
X185471904Y-136080476D01*
X184662380Y-136080476D01*
X184757619Y-135651904D02*
X184710000Y-135604285D01*
X184662380Y-135509047D01*
X184662380Y-135270952D01*
X184710000Y-135175714D01*
X184757619Y-135128095D01*
X184852857Y-135080476D01*
X184948095Y-135080476D01*
X185090952Y-135128095D01*
X185662380Y-135699523D01*
X185662380Y-135080476D01*
G04 #@! TO.C,U3*
X124968095Y-141482380D02*
X124968095Y-142291904D01*
X125015714Y-142387142D01*
X125063333Y-142434761D01*
X125158571Y-142482380D01*
X125349047Y-142482380D01*
X125444285Y-142434761D01*
X125491904Y-142387142D01*
X125539523Y-142291904D01*
X125539523Y-141482380D01*
X125920476Y-141482380D02*
X126539523Y-141482380D01*
X126206190Y-141863333D01*
X126349047Y-141863333D01*
X126444285Y-141910952D01*
X126491904Y-141958571D01*
X126539523Y-142053809D01*
X126539523Y-142291904D01*
X126491904Y-142387142D01*
X126444285Y-142434761D01*
X126349047Y-142482380D01*
X126063333Y-142482380D01*
X125968095Y-142434761D01*
X125920476Y-142387142D01*
G04 #@! TD*
M02*
