M48
;DRILL file {KiCad (5.0.1)-3} date 10/07/2019 11:43:52
;FORMAT={-:-/ absolute / metric / decimal}
FMAT,2
METRIC,TZ
T1C0.400
T2C0.800
T3C0.900
T4C1.000
T5C1.200
T6C1.501
T7C2.435
%
G90
G05
M71
T1
X116.84Y-121.92
X116.84Y-139.7
X125.Y-125.
X137.16Y-134.62
X144.78Y-111.76
X149.86Y-111.76
X154.94Y-114.3
X167.64Y-157.48
X170.18Y-116.84
X172.72Y-147.32
X183.19Y-125.367
T2
X127.Y-116.84
X137.16Y-116.84
X127.Y-127.
X137.16Y-127.
X144.98Y-121.92
X149.86Y-121.92
X114.3Y-132.08
X116.8Y-132.08
X134.62Y-134.62
X144.78Y-134.62
X132.04Y-147.32
X134.54Y-147.32
X142.24Y-147.32
X144.74Y-147.32
X127.Y-119.38
X137.16Y-119.38
X165.14Y-142.24
X167.64Y-142.24
X157.48Y-152.4
X159.98Y-152.4
X134.62Y-142.24
X144.78Y-142.24
X134.62Y-132.08
X144.78Y-132.08
X121.92Y-132.08
X121.92Y-134.62
X121.92Y-137.16
X121.92Y-139.7
X129.54Y-132.08
X129.54Y-134.62
X129.54Y-137.16
X129.54Y-139.7
X119.38Y-124.46
X121.88Y-124.46
X157.52Y-119.38
X160.02Y-119.38
X127.Y-121.92
X137.16Y-121.92
X149.86Y-132.08
X149.86Y-139.7
X152.4Y-132.08
X152.4Y-139.7
X154.94Y-132.08
X154.94Y-139.7
X157.48Y-132.08
X157.48Y-139.7
X160.02Y-132.08
X160.02Y-139.7
X162.56Y-132.08
X162.56Y-139.7
X165.1Y-132.08
X165.1Y-139.7
X167.64Y-132.08
X167.64Y-139.7
X170.18Y-132.08
X170.18Y-139.7
X172.72Y-132.08
X172.72Y-139.7
X175.26Y-132.08
X175.26Y-139.7
X177.8Y-132.08
X177.8Y-139.7
X180.34Y-132.08
X180.34Y-139.7
X182.88Y-132.08
X182.88Y-139.7
X165.1Y-129.54
X167.6Y-129.54
X142.24Y-116.84
X144.74Y-116.84
X127.Y-124.46
X137.16Y-124.46
X134.62Y-137.16
X144.78Y-137.16
X137.16Y-147.32
X139.66Y-147.32
X134.58Y-152.4
X137.08Y-152.4
X187.96Y-132.08
X187.96Y-142.24
X134.62Y-139.7
X144.78Y-139.7
X149.86Y-152.4
X152.36Y-152.4
X165.14Y-119.38
X167.64Y-119.38
X149.86Y-116.84
X152.36Y-116.84
X142.24Y-152.4
X144.74Y-152.4
T3
X128.75Y-65.867
X131.29Y-65.867
X113.994Y-54.991
X113.994Y-57.991
X113.994Y-60.991
X138.75Y-65.867
X141.29Y-65.867
X158.75Y-65.867
X161.29Y-65.867
X168.75Y-65.867
X171.29Y-65.867
X148.75Y-65.867
X151.29Y-65.867
T4
X172.72Y-121.43
X175.26Y-121.43
X177.8Y-121.43
X180.34Y-121.43
X170.18Y-142.24
X172.72Y-142.24
X175.26Y-142.24
X177.8Y-142.24
X180.34Y-142.24
X182.88Y-142.24
X130.09Y-84.517
X132.59Y-84.517
X135.09Y-84.517
X179.09Y-84.517
X181.59Y-84.517
X184.09Y-84.517
X184.Y-65.
X186.5Y-65.
X189.Y-65.
X165.09Y-84.517
X167.59Y-84.517
X170.09Y-84.517
X149.86Y-129.54
X152.4Y-129.54
X154.94Y-129.54
X157.48Y-129.54
X170.18Y-129.54
X172.72Y-129.54
X175.26Y-129.54
X177.8Y-129.54
X180.34Y-129.54
X149.86Y-142.24
X152.4Y-142.24
X154.94Y-142.24
X157.48Y-142.24
X160.02Y-142.24
X116.09Y-84.517
X118.59Y-84.517
X121.09Y-84.517
T5
X159.09Y-89.517
X159.09Y-102.017
X164.09Y-89.517
X164.09Y-102.017
X145.Y-48.41
X147.5Y-48.41
X150.Y-43.404
X152.5Y-48.41
X155.Y-48.41
X172.09Y-89.517
X172.09Y-102.017
X177.09Y-89.517
X177.09Y-102.017
X123.09Y-89.517
X123.09Y-102.017
X128.09Y-89.517
X128.09Y-102.017
X185.09Y-89.517
X185.09Y-102.017
X190.09Y-89.517
X190.09Y-102.017
X110.09Y-89.517
X110.09Y-102.017
X115.09Y-89.517
X115.09Y-102.017
X136.09Y-89.517
X136.09Y-102.017
X141.09Y-89.517
X141.09Y-102.017
T6
X116.84Y-116.84
X121.92Y-116.84
T7
X113.994Y-51.741
X113.994Y-64.241
T0
M30
