G04 #@! TF.GenerationSoftware,KiCad,Pcbnew,(5.0.1)-3*
G04 #@! TF.CreationDate,2019-07-10T11:43:57+01:00*
G04 #@! TF.ProjectId,drumkid v3,6472756D6B69642076332E6B69636164,04*
G04 #@! TF.SameCoordinates,Original*
G04 #@! TF.FileFunction,Copper,L1,Top,Signal*
G04 #@! TF.FilePolarity,Positive*
%FSLAX46Y46*%
G04 Gerber Fmt 4.6, Leading zero omitted, Abs format (unit mm)*
G04 Created by KiCad (PCBNEW (5.0.1)-3) date 10/07/2019 11:43:57*
%MOMM*%
%LPD*%
G01*
G04 APERTURE LIST*
G04 #@! TA.AperFunction,ComponentPad*
%ADD10O,1.600000X1.600000*%
G04 #@! TD*
G04 #@! TA.AperFunction,ComponentPad*
%ADD11C,1.600000*%
G04 #@! TD*
G04 #@! TA.AperFunction,ComponentPad*
%ADD12C,3.500120*%
G04 #@! TD*
G04 #@! TA.AperFunction,ComponentPad*
%ADD13R,3.500120X3.500120*%
G04 #@! TD*
G04 #@! TA.AperFunction,ComponentPad*
%ADD14C,3.653000*%
G04 #@! TD*
G04 #@! TA.AperFunction,ComponentPad*
%ADD15C,1.400000*%
G04 #@! TD*
G04 #@! TA.AperFunction,WasherPad*
%ADD16C,4.000000*%
G04 #@! TD*
G04 #@! TA.AperFunction,ComponentPad*
%ADD17C,1.800000*%
G04 #@! TD*
G04 #@! TA.AperFunction,ComponentPad*
%ADD18R,1.800000X1.800000*%
G04 #@! TD*
G04 #@! TA.AperFunction,ComponentPad*
%ADD19O,1.750000X3.500000*%
G04 #@! TD*
G04 #@! TA.AperFunction,ComponentPad*
%ADD20R,3.500000X2.500000*%
G04 #@! TD*
G04 #@! TA.AperFunction,ComponentPad*
%ADD21O,2.500000X3.000000*%
G04 #@! TD*
G04 #@! TA.AperFunction,ComponentPad*
%ADD22R,1.600000X1.600000*%
G04 #@! TD*
G04 #@! TA.AperFunction,ComponentPad*
%ADD23O,1.700000X1.700000*%
G04 #@! TD*
G04 #@! TA.AperFunction,ComponentPad*
%ADD24R,1.700000X1.700000*%
G04 #@! TD*
G04 #@! TA.AperFunction,ComponentPad*
%ADD25C,1.500000*%
G04 #@! TD*
G04 #@! TA.AperFunction,ViaPad*
%ADD26C,0.800000*%
G04 #@! TD*
G04 #@! TA.AperFunction,Conductor*
%ADD27C,0.625000*%
G04 #@! TD*
G04 #@! TA.AperFunction,Conductor*
%ADD28C,0.250000*%
G04 #@! TD*
G04 #@! TA.AperFunction,Conductor*
%ADD29C,0.254000*%
G04 #@! TD*
G04 APERTURE END LIST*
D10*
G04 #@! TO.P,R9,2*
G04 #@! TO.N,Net-(R9-Pad2)*
X134620000Y-132080000D03*
D11*
G04 #@! TO.P,R9,1*
G04 #@! TO.N,Net-(R10-Pad1)*
X144780000Y-132080000D03*
G04 #@! TD*
D12*
G04 #@! TO.P,BT1,2*
G04 #@! TO.N,GND*
X121920000Y-116840000D03*
D13*
G04 #@! TO.P,BT1,1*
G04 #@! TO.N,Net-(BT1-Pad1)*
X116840000Y-116840000D03*
G04 #@! TD*
D14*
G04 #@! TO.P,SW1,MH2*
G04 #@! TO.N,N/C*
X113993946Y-51741091D03*
G04 #@! TO.P,SW1,MH1*
X113993946Y-64241091D03*
D15*
G04 #@! TO.P,SW1,3*
G04 #@! TO.N,Net-(SW1-Pad3)*
X113993946Y-54991091D03*
G04 #@! TO.P,SW1,2*
G04 #@! TO.N,Net-(BT1-Pad1)*
X113993946Y-57991091D03*
G04 #@! TO.P,SW1,1*
G04 #@! TO.N,+5V*
X113993946Y-60991091D03*
G04 #@! TD*
D10*
G04 #@! TO.P,R1,2*
G04 #@! TO.N,/DIGITAL_9*
X134620000Y-137160000D03*
D11*
G04 #@! TO.P,R1,1*
G04 #@! TO.N,Net-(C13-Pad1)*
X144780000Y-137160000D03*
G04 #@! TD*
D10*
G04 #@! TO.P,R7,2*
G04 #@! TO.N,/DIGITAL_6*
X137160000Y-127000000D03*
D11*
G04 #@! TO.P,R7,1*
G04 #@! TO.N,Net-(D6-Pad2)*
X127000000Y-127000000D03*
G04 #@! TD*
D10*
G04 #@! TO.P,R11,2*
G04 #@! TO.N,GND*
X144780000Y-139700000D03*
D11*
G04 #@! TO.P,R11,1*
G04 #@! TO.N,Net-(C18-Pad2)*
X134620000Y-139700000D03*
G04 #@! TD*
D10*
G04 #@! TO.P,R10,2*
G04 #@! TO.N,GND*
X144780000Y-142240000D03*
D11*
G04 #@! TO.P,R10,1*
G04 #@! TO.N,Net-(R10-Pad1)*
X134620000Y-142240000D03*
G04 #@! TD*
D10*
G04 #@! TO.P,R8,2*
G04 #@! TO.N,Net-(C13-Pad1)*
X134620000Y-134620000D03*
D11*
G04 #@! TO.P,R8,1*
G04 #@! TO.N,Net-(C14-Pad1)*
X144780000Y-134620000D03*
G04 #@! TD*
D10*
G04 #@! TO.P,R6,2*
G04 #@! TO.N,/DIGITAL_5*
X137160000Y-124460000D03*
D11*
G04 #@! TO.P,R6,1*
G04 #@! TO.N,Net-(D5-Pad2)*
X127000000Y-124460000D03*
G04 #@! TD*
D10*
G04 #@! TO.P,R5,2*
G04 #@! TO.N,/DIGITAL_4*
X137160000Y-121920000D03*
D11*
G04 #@! TO.P,R5,1*
G04 #@! TO.N,Net-(D4-Pad2)*
X127000000Y-121920000D03*
G04 #@! TD*
D10*
G04 #@! TO.P,R4,2*
G04 #@! TO.N,/DIGITAL_3*
X137160000Y-119380000D03*
D11*
G04 #@! TO.P,R4,1*
G04 #@! TO.N,Net-(D3-Pad2)*
X127000000Y-119380000D03*
G04 #@! TD*
D10*
G04 #@! TO.P,R3,2*
G04 #@! TO.N,/DIGITAL_2*
X137160000Y-116840000D03*
D11*
G04 #@! TO.P,R3,1*
G04 #@! TO.N,Net-(D2-Pad2)*
X127000000Y-116840000D03*
G04 #@! TD*
D10*
G04 #@! TO.P,R2,2*
G04 #@! TO.N,+5V*
X187960000Y-142240000D03*
D11*
G04 #@! TO.P,R2,1*
G04 #@! TO.N,Net-(R2-Pad1)*
X187960000Y-132080000D03*
G04 #@! TD*
D16*
G04 #@! TO.P,RV1,*
G04 #@! TO.N,*
X182100000Y-58000000D03*
X190900000Y-58000000D03*
D17*
G04 #@! TO.P,RV1,1*
G04 #@! TO.N,GND*
X184000000Y-65000000D03*
G04 #@! TO.P,RV1,2*
G04 #@! TO.N,Net-(R9-Pad2)*
X186500000Y-65000000D03*
G04 #@! TO.P,RV1,3*
G04 #@! TO.N,Net-(C15-Pad2)*
X189000000Y-65000000D03*
G04 #@! TD*
G04 #@! TO.P,D6,2*
G04 #@! TO.N,Net-(D6-Pad2)*
X171290000Y-65867290D03*
D18*
G04 #@! TO.P,D6,1*
G04 #@! TO.N,GND*
X168750000Y-65867290D03*
G04 #@! TD*
D17*
G04 #@! TO.P,D5,2*
G04 #@! TO.N,Net-(D5-Pad2)*
X161290000Y-65867290D03*
D18*
G04 #@! TO.P,D5,1*
G04 #@! TO.N,GND*
X158750000Y-65867290D03*
G04 #@! TD*
D17*
G04 #@! TO.P,D4,2*
G04 #@! TO.N,Net-(D4-Pad2)*
X151290000Y-65867290D03*
D18*
G04 #@! TO.P,D4,1*
G04 #@! TO.N,GND*
X148750000Y-65867290D03*
G04 #@! TD*
D17*
G04 #@! TO.P,D3,2*
G04 #@! TO.N,Net-(D3-Pad2)*
X141290000Y-65867290D03*
D18*
G04 #@! TO.P,D3,1*
G04 #@! TO.N,GND*
X138750000Y-65867290D03*
G04 #@! TD*
D17*
G04 #@! TO.P,D2,2*
G04 #@! TO.N,Net-(D2-Pad2)*
X131290000Y-65867290D03*
D18*
G04 #@! TO.P,D2,1*
G04 #@! TO.N,GND*
X128750000Y-65867290D03*
G04 #@! TD*
D19*
G04 #@! TO.P,J9,TN*
G04 #@! TO.N,Net-(J9-PadTN)*
X152500000Y-48410000D03*
G04 #@! TO.P,J9,RN*
G04 #@! TO.N,Net-(J9-PadRN)*
X147500000Y-48410000D03*
G04 #@! TO.P,J9,T*
G04 #@! TO.N,Net-(C10-Pad2)*
X155000000Y-48410000D03*
G04 #@! TO.P,J9,R*
X145000000Y-48410000D03*
D20*
G04 #@! TO.P,J9,S*
G04 #@! TO.N,GND*
X150000000Y-43404000D03*
G04 #@! TD*
D16*
G04 #@! TO.P,RV2,*
G04 #@! TO.N,*
X114189897Y-77517290D03*
X122989897Y-77517290D03*
D17*
G04 #@! TO.P,RV2,1*
G04 #@! TO.N,GND*
X116089897Y-84517290D03*
G04 #@! TO.P,RV2,2*
G04 #@! TO.N,/ANALOG_0*
X118589897Y-84517290D03*
G04 #@! TO.P,RV2,3*
G04 #@! TO.N,+5V*
X121089897Y-84517290D03*
G04 #@! TD*
D16*
G04 #@! TO.P,RV4,*
G04 #@! TO.N,*
X163189897Y-77517290D03*
X171989897Y-77517290D03*
D17*
G04 #@! TO.P,RV4,1*
G04 #@! TO.N,GND*
X165089897Y-84517290D03*
G04 #@! TO.P,RV4,2*
G04 #@! TO.N,/ANALOG_2*
X167589897Y-84517290D03*
G04 #@! TO.P,RV4,3*
G04 #@! TO.N,+5V*
X170089897Y-84517290D03*
G04 #@! TD*
D16*
G04 #@! TO.P,RV3,*
G04 #@! TO.N,*
X128189897Y-77517290D03*
X136989897Y-77517290D03*
D17*
G04 #@! TO.P,RV3,1*
G04 #@! TO.N,GND*
X130089897Y-84517290D03*
G04 #@! TO.P,RV3,2*
G04 #@! TO.N,/ANALOG_1*
X132589897Y-84517290D03*
G04 #@! TO.P,RV3,3*
G04 #@! TO.N,+5V*
X135089897Y-84517290D03*
G04 #@! TD*
D16*
G04 #@! TO.P,RV5,*
G04 #@! TO.N,*
X177189897Y-77517290D03*
X185989897Y-77517290D03*
D17*
G04 #@! TO.P,RV5,1*
G04 #@! TO.N,GND*
X179089897Y-84517290D03*
G04 #@! TO.P,RV5,2*
G04 #@! TO.N,/ANALOG_3*
X181589897Y-84517290D03*
G04 #@! TO.P,RV5,3*
G04 #@! TO.N,+5V*
X184089897Y-84517290D03*
G04 #@! TD*
D21*
G04 #@! TO.P,SW2,1*
G04 #@! TO.N,/DIGITAL_7*
X110089897Y-102017290D03*
G04 #@! TO.P,SW2,2*
G04 #@! TO.N,GND*
X115089897Y-102017290D03*
G04 #@! TO.P,SW2,1*
G04 #@! TO.N,/DIGITAL_7*
X110089897Y-89517290D03*
G04 #@! TO.P,SW2,2*
G04 #@! TO.N,GND*
X115089897Y-89517290D03*
G04 #@! TD*
G04 #@! TO.P,SW7,1*
G04 #@! TO.N,/DIGITAL_13*
X185089897Y-102017290D03*
G04 #@! TO.P,SW7,2*
G04 #@! TO.N,GND*
X190089897Y-102017290D03*
G04 #@! TO.P,SW7,1*
G04 #@! TO.N,/DIGITAL_13*
X185089897Y-89517290D03*
G04 #@! TO.P,SW7,2*
G04 #@! TO.N,GND*
X190089897Y-89517290D03*
G04 #@! TD*
G04 #@! TO.P,SW6,1*
G04 #@! TO.N,/DIGITAL_12*
X172089897Y-102017290D03*
G04 #@! TO.P,SW6,2*
G04 #@! TO.N,GND*
X177089897Y-102017290D03*
G04 #@! TO.P,SW6,1*
G04 #@! TO.N,/DIGITAL_12*
X172089897Y-89517290D03*
G04 #@! TO.P,SW6,2*
G04 #@! TO.N,GND*
X177089897Y-89517290D03*
G04 #@! TD*
G04 #@! TO.P,SW5,1*
G04 #@! TO.N,/DIGITAL_11*
X159089897Y-102017290D03*
G04 #@! TO.P,SW5,2*
G04 #@! TO.N,GND*
X164089897Y-102017290D03*
G04 #@! TO.P,SW5,1*
G04 #@! TO.N,/DIGITAL_11*
X159089897Y-89517290D03*
G04 #@! TO.P,SW5,2*
G04 #@! TO.N,GND*
X164089897Y-89517290D03*
G04 #@! TD*
G04 #@! TO.P,SW4,1*
G04 #@! TO.N,/DIGITAL_10*
X136089897Y-102017290D03*
G04 #@! TO.P,SW4,2*
G04 #@! TO.N,GND*
X141089897Y-102017290D03*
G04 #@! TO.P,SW4,1*
G04 #@! TO.N,/DIGITAL_10*
X136089897Y-89517290D03*
G04 #@! TO.P,SW4,2*
G04 #@! TO.N,GND*
X141089897Y-89517290D03*
G04 #@! TD*
G04 #@! TO.P,SW3,1*
G04 #@! TO.N,/DIGITAL_8*
X123089897Y-102017290D03*
G04 #@! TO.P,SW3,2*
G04 #@! TO.N,GND*
X128089897Y-102017290D03*
G04 #@! TO.P,SW3,1*
G04 #@! TO.N,/DIGITAL_8*
X123089897Y-89517290D03*
G04 #@! TO.P,SW3,2*
G04 #@! TO.N,GND*
X128089897Y-89517290D03*
G04 #@! TD*
D11*
G04 #@! TO.P,C10,2*
G04 #@! TO.N,Net-(C10-Pad2)*
X121880000Y-124460000D03*
D22*
G04 #@! TO.P,C10,1*
G04 #@! TO.N,Net-(C10-Pad1)*
X119380000Y-124460000D03*
G04 #@! TD*
D11*
G04 #@! TO.P,C8,2*
G04 #@! TO.N,GND*
X152360000Y-152400000D03*
D22*
G04 #@! TO.P,C8,1*
G04 #@! TO.N,+5V*
X149860000Y-152400000D03*
G04 #@! TD*
G04 #@! TO.P,C17,1*
G04 #@! TO.N,Net-(C17-Pad1)*
X114300000Y-132080000D03*
D11*
G04 #@! TO.P,C17,2*
G04 #@! TO.N,GND*
X116800000Y-132080000D03*
G04 #@! TD*
G04 #@! TO.P,C13,2*
G04 #@! TO.N,GND*
X144740000Y-152400000D03*
D22*
G04 #@! TO.P,C13,1*
G04 #@! TO.N,Net-(C13-Pad1)*
X142240000Y-152400000D03*
G04 #@! TD*
G04 #@! TO.P,C12,1*
G04 #@! TO.N,+5V*
X160020000Y-119380000D03*
D11*
G04 #@! TO.P,C12,2*
G04 #@! TO.N,GND*
X157520000Y-119380000D03*
G04 #@! TD*
G04 #@! TO.P,C11,2*
G04 #@! TO.N,GND*
X159980000Y-152400000D03*
D22*
G04 #@! TO.P,C11,1*
G04 #@! TO.N,+5V*
X157480000Y-152400000D03*
G04 #@! TD*
G04 #@! TO.P,C7,1*
G04 #@! TO.N,+5V*
X167640000Y-119380000D03*
D11*
G04 #@! TO.P,C7,2*
G04 #@! TO.N,GND*
X165140000Y-119380000D03*
G04 #@! TD*
D22*
G04 #@! TO.P,C15,1*
G04 #@! TO.N,Net-(C14-Pad1)*
X134580000Y-152400000D03*
D11*
G04 #@! TO.P,C15,2*
G04 #@! TO.N,Net-(C15-Pad2)*
X137080000Y-152400000D03*
G04 #@! TD*
G04 #@! TO.P,C9,1*
G04 #@! TO.N,GND*
X167640000Y-142240000D03*
G04 #@! TO.P,C9,2*
G04 #@! TO.N,+5V*
X165140000Y-142240000D03*
G04 #@! TD*
G04 #@! TO.P,C6,2*
G04 #@! TO.N,GND*
X144740000Y-116840000D03*
G04 #@! TO.P,C6,1*
G04 #@! TO.N,Net-(C6-Pad1)*
X142240000Y-116840000D03*
G04 #@! TD*
G04 #@! TO.P,C14,1*
G04 #@! TO.N,Net-(C14-Pad1)*
X142240000Y-147320000D03*
G04 #@! TO.P,C14,2*
G04 #@! TO.N,GND*
X144740000Y-147320000D03*
G04 #@! TD*
G04 #@! TO.P,C5,2*
G04 #@! TO.N,GND*
X152360000Y-116840000D03*
G04 #@! TO.P,C5,1*
G04 #@! TO.N,Net-(C5-Pad1)*
X149860000Y-116840000D03*
G04 #@! TD*
G04 #@! TO.P,C16,1*
G04 #@! TO.N,+5V*
X137160000Y-147320000D03*
G04 #@! TO.P,C16,2*
G04 #@! TO.N,Net-(C16-Pad2)*
X139660000Y-147320000D03*
G04 #@! TD*
G04 #@! TO.P,C4,2*
G04 #@! TO.N,+5V*
X167600000Y-129540000D03*
G04 #@! TO.P,C4,1*
G04 #@! TO.N,GND*
X165100000Y-129540000D03*
G04 #@! TD*
G04 #@! TO.P,C18,1*
G04 #@! TO.N,Net-(C10-Pad1)*
X132040000Y-147320000D03*
G04 #@! TO.P,C18,2*
G04 #@! TO.N,Net-(C18-Pad2)*
X134540000Y-147320000D03*
G04 #@! TD*
D23*
G04 #@! TO.P,J1,4*
G04 #@! TO.N,GND*
X180340000Y-121430000D03*
G04 #@! TO.P,J1,3*
X177800000Y-121430000D03*
G04 #@! TO.P,J1,2*
G04 #@! TO.N,+5V*
X175260000Y-121430000D03*
D24*
G04 #@! TO.P,J1,1*
X172720000Y-121430000D03*
G04 #@! TD*
G04 #@! TO.P,J6,1*
G04 #@! TO.N,/DIGITAL_5*
X157480000Y-129540000D03*
D23*
G04 #@! TO.P,J6,2*
G04 #@! TO.N,/DIGITAL_6*
X154940000Y-129540000D03*
G04 #@! TO.P,J6,3*
G04 #@! TO.N,/DIGITAL_7*
X152400000Y-129540000D03*
G04 #@! TO.P,J6,4*
G04 #@! TO.N,/DIGITAL_8*
X149860000Y-129540000D03*
G04 #@! TD*
G04 #@! TO.P,J8,5*
G04 #@! TO.N,/DIGITAL_13*
X160020000Y-142240000D03*
G04 #@! TO.P,J8,4*
G04 #@! TO.N,/DIGITAL_12*
X157480000Y-142240000D03*
G04 #@! TO.P,J8,3*
G04 #@! TO.N,/DIGITAL_11*
X154940000Y-142240000D03*
G04 #@! TO.P,J8,2*
G04 #@! TO.N,/DIGITAL_10*
X152400000Y-142240000D03*
D24*
G04 #@! TO.P,J8,1*
G04 #@! TO.N,/DIGITAL_9*
X149860000Y-142240000D03*
G04 #@! TD*
G04 #@! TO.P,J5,1*
G04 #@! TO.N,/DIGITAL_0*
X180340000Y-129540000D03*
D23*
G04 #@! TO.P,J5,2*
G04 #@! TO.N,/DIGITAL_1*
X177800000Y-129540000D03*
G04 #@! TO.P,J5,3*
G04 #@! TO.N,/DIGITAL_2*
X175260000Y-129540000D03*
G04 #@! TO.P,J5,4*
G04 #@! TO.N,/DIGITAL_3*
X172720000Y-129540000D03*
G04 #@! TO.P,J5,5*
G04 #@! TO.N,/DIGITAL_4*
X170180000Y-129540000D03*
G04 #@! TD*
D24*
G04 #@! TO.P,J7,1*
G04 #@! TO.N,/ANALOG_0*
X170180000Y-142240000D03*
D23*
G04 #@! TO.P,J7,2*
G04 #@! TO.N,/ANALOG_1*
X172720000Y-142240000D03*
G04 #@! TO.P,J7,3*
G04 #@! TO.N,/ANALOG_2*
X175260000Y-142240000D03*
G04 #@! TO.P,J7,4*
G04 #@! TO.N,/ANALOG_3*
X177800000Y-142240000D03*
G04 #@! TO.P,J7,5*
G04 #@! TO.N,/ANALOG_4*
X180340000Y-142240000D03*
G04 #@! TO.P,J7,6*
G04 #@! TO.N,/ANALOG_5*
X182880000Y-142240000D03*
G04 #@! TD*
D25*
G04 #@! TO.P,Y1,1*
G04 #@! TO.N,Net-(C5-Pad1)*
X149860000Y-121920000D03*
G04 #@! TO.P,Y1,2*
G04 #@! TO.N,Net-(C6-Pad1)*
X144980000Y-121920000D03*
G04 #@! TD*
D22*
G04 #@! TO.P,U2,1*
G04 #@! TO.N,Net-(R2-Pad1)*
X182880000Y-132080000D03*
D10*
G04 #@! TO.P,U2,15*
G04 #@! TO.N,/DIGITAL_9*
X149860000Y-139700000D03*
G04 #@! TO.P,U2,2*
G04 #@! TO.N,/DIGITAL_0*
X180340000Y-132080000D03*
G04 #@! TO.P,U2,16*
G04 #@! TO.N,/DIGITAL_10*
X152400000Y-139700000D03*
G04 #@! TO.P,U2,3*
G04 #@! TO.N,/DIGITAL_1*
X177800000Y-132080000D03*
G04 #@! TO.P,U2,17*
G04 #@! TO.N,/DIGITAL_11*
X154940000Y-139700000D03*
G04 #@! TO.P,U2,4*
G04 #@! TO.N,/DIGITAL_2*
X175260000Y-132080000D03*
G04 #@! TO.P,U2,18*
G04 #@! TO.N,/DIGITAL_12*
X157480000Y-139700000D03*
G04 #@! TO.P,U2,5*
G04 #@! TO.N,/DIGITAL_3*
X172720000Y-132080000D03*
G04 #@! TO.P,U2,19*
G04 #@! TO.N,/DIGITAL_13*
X160020000Y-139700000D03*
G04 #@! TO.P,U2,6*
G04 #@! TO.N,/DIGITAL_4*
X170180000Y-132080000D03*
G04 #@! TO.P,U2,20*
G04 #@! TO.N,+5V*
X162560000Y-139700000D03*
G04 #@! TO.P,U2,7*
X167640000Y-132080000D03*
G04 #@! TO.P,U2,21*
G04 #@! TO.N,Net-(U2-Pad21)*
X165100000Y-139700000D03*
G04 #@! TO.P,U2,8*
G04 #@! TO.N,GND*
X165100000Y-132080000D03*
G04 #@! TO.P,U2,22*
X167640000Y-139700000D03*
G04 #@! TO.P,U2,9*
G04 #@! TO.N,Net-(C5-Pad1)*
X162560000Y-132080000D03*
G04 #@! TO.P,U2,23*
G04 #@! TO.N,/ANALOG_0*
X170180000Y-139700000D03*
G04 #@! TO.P,U2,10*
G04 #@! TO.N,Net-(C6-Pad1)*
X160020000Y-132080000D03*
G04 #@! TO.P,U2,24*
G04 #@! TO.N,/ANALOG_1*
X172720000Y-139700000D03*
G04 #@! TO.P,U2,11*
G04 #@! TO.N,/DIGITAL_5*
X157480000Y-132080000D03*
G04 #@! TO.P,U2,25*
G04 #@! TO.N,/ANALOG_2*
X175260000Y-139700000D03*
G04 #@! TO.P,U2,12*
G04 #@! TO.N,/DIGITAL_6*
X154940000Y-132080000D03*
G04 #@! TO.P,U2,26*
G04 #@! TO.N,/ANALOG_3*
X177800000Y-139700000D03*
G04 #@! TO.P,U2,13*
G04 #@! TO.N,/DIGITAL_7*
X152400000Y-132080000D03*
G04 #@! TO.P,U2,27*
G04 #@! TO.N,/ANALOG_4*
X180340000Y-139700000D03*
G04 #@! TO.P,U2,14*
G04 #@! TO.N,/DIGITAL_8*
X149860000Y-132080000D03*
G04 #@! TO.P,U2,28*
G04 #@! TO.N,/ANALOG_5*
X182880000Y-139700000D03*
G04 #@! TD*
D22*
G04 #@! TO.P,U3,1*
G04 #@! TO.N,Net-(U3-Pad1)*
X129540000Y-139700000D03*
D10*
G04 #@! TO.P,U3,5*
G04 #@! TO.N,Net-(C10-Pad1)*
X121920000Y-132080000D03*
G04 #@! TO.P,U3,2*
G04 #@! TO.N,GND*
X129540000Y-137160000D03*
G04 #@! TO.P,U3,6*
G04 #@! TO.N,+5V*
X121920000Y-134620000D03*
G04 #@! TO.P,U3,3*
G04 #@! TO.N,Net-(R10-Pad1)*
X129540000Y-134620000D03*
G04 #@! TO.P,U3,7*
G04 #@! TO.N,Net-(C17-Pad1)*
X121920000Y-137160000D03*
G04 #@! TO.P,U3,4*
G04 #@! TO.N,Net-(C16-Pad2)*
X129540000Y-132080000D03*
G04 #@! TO.P,U3,8*
G04 #@! TO.N,Net-(U3-Pad8)*
X121920000Y-139700000D03*
G04 #@! TD*
D26*
G04 #@! TO.N,GND*
X116840000Y-121920000D03*
X116840000Y-139700000D03*
X144780000Y-111760000D03*
X149860000Y-111760000D03*
X125000000Y-125000000D03*
G04 #@! TO.N,+5V*
X183189898Y-125367396D03*
G04 #@! TO.N,/DIGITAL_2*
X170180000Y-116840000D03*
G04 #@! TO.N,/DIGITAL_3*
X167640000Y-157480000D03*
X172720000Y-147320000D03*
G04 #@! TO.N,Net-(C14-Pad1)*
X137160000Y-134620000D03*
G04 #@! TO.N,/ANALOG_1*
X154940000Y-114300000D03*
G04 #@! TD*
D27*
G04 #@! TO.N,GND*
X167640000Y-139700000D02*
X167640000Y-142240000D01*
X165100000Y-129540000D02*
X165100000Y-132080000D01*
X112537489Y-135397489D02*
X116840000Y-139700000D01*
X116840000Y-121920000D02*
X112537489Y-126222511D01*
X112537489Y-126222511D02*
X112537489Y-135397489D01*
X164089897Y-104142290D02*
X164089897Y-102017290D01*
X156472187Y-111760000D02*
X164089897Y-104142290D01*
X144780000Y-111760000D02*
X149860000Y-111760000D01*
X149860000Y-111760000D02*
X156472187Y-111760000D01*
X129540000Y-137160000D02*
X125000000Y-132620000D01*
X125000000Y-132620000D02*
X125000000Y-125000000D01*
D28*
G04 #@! TO.N,Net-(C10-Pad2)*
X155000000Y-49285000D02*
X155000000Y-48410000D01*
X153799990Y-50485010D02*
X155000000Y-49285000D01*
X146200010Y-50485010D02*
X153799990Y-50485010D01*
X145000000Y-49285000D02*
X146200010Y-50485010D01*
X145000000Y-48410000D02*
X145000000Y-49285000D01*
X121880000Y-124460000D02*
X121880000Y-119951091D01*
X126116092Y-115714999D02*
X129869588Y-115714999D01*
X145000000Y-78520000D02*
X145000000Y-48410000D01*
X129869588Y-115714999D02*
X137664907Y-107919680D01*
X137664907Y-107919680D02*
X137664907Y-85855093D01*
X121880000Y-119951091D02*
X126116092Y-115714999D01*
X137664907Y-85855093D02*
X145000000Y-78520000D01*
D27*
G04 #@! TO.N,+5V*
X162600000Y-139700000D02*
X165140000Y-142240000D01*
X162560000Y-139700000D02*
X162600000Y-139700000D01*
X167600000Y-132040000D02*
X167640000Y-132080000D01*
X167600000Y-129540000D02*
X167600000Y-132040000D01*
X157480000Y-149900000D02*
X165140000Y-142240000D01*
X157480000Y-152400000D02*
X157480000Y-149900000D01*
X150935000Y-149900000D02*
X157480000Y-149900000D01*
X149860000Y-150975000D02*
X150935000Y-149900000D01*
X149860000Y-152400000D02*
X149860000Y-150975000D01*
X148435000Y-152400000D02*
X149860000Y-152400000D01*
X145895000Y-149860000D02*
X148435000Y-152400000D01*
X139700000Y-149860000D02*
X145895000Y-149860000D01*
X137160000Y-147320000D02*
X139700000Y-149860000D01*
X171245000Y-121430000D02*
X172720000Y-121430000D01*
X167600000Y-125075000D02*
X171245000Y-121430000D01*
X167600000Y-129540000D02*
X167600000Y-125075000D01*
X172720000Y-121430000D02*
X175260000Y-121430000D01*
X167640000Y-129500000D02*
X167600000Y-129540000D01*
X167640000Y-119380000D02*
X167640000Y-129500000D01*
X160020000Y-121960000D02*
X167600000Y-129540000D01*
X160020000Y-119380000D02*
X160020000Y-121960000D01*
X187160001Y-143039999D02*
X187960000Y-142240000D01*
X185420000Y-144780000D02*
X187160001Y-143039999D01*
X167680000Y-144780000D02*
X185420000Y-144780000D01*
X165140000Y-142240000D02*
X167680000Y-144780000D01*
X120189898Y-83617291D02*
X121089897Y-84517290D01*
X119380000Y-82807393D02*
X120189898Y-83617291D01*
X119380000Y-66165423D02*
X119380000Y-82807393D01*
X114905667Y-61691090D02*
X119380000Y-66165423D01*
X114693945Y-61691090D02*
X114905667Y-61691090D01*
X113993946Y-60991091D02*
X114693945Y-61691090D01*
X134189898Y-83617291D02*
X135089897Y-84517290D01*
X133677396Y-83104789D02*
X134189898Y-83617291D01*
X122502398Y-83104789D02*
X133677396Y-83104789D01*
X121089897Y-84517290D02*
X122502398Y-83104789D01*
X183189898Y-83617291D02*
X184089897Y-84517290D01*
X182677396Y-83104789D02*
X183189898Y-83617291D01*
X171502398Y-83104789D02*
X182677396Y-83104789D01*
X170089897Y-84517290D02*
X171502398Y-83104789D01*
X188759999Y-141440001D02*
X187960000Y-142240000D01*
X189272501Y-140927499D02*
X188759999Y-141440001D01*
X189272501Y-131449999D02*
X189272501Y-140927499D01*
X183189898Y-125367396D02*
X189272501Y-131449999D01*
X183189898Y-85417289D02*
X183189898Y-125367396D01*
X184089897Y-84517290D02*
X183189898Y-85417289D01*
X128312501Y-141012501D02*
X121920000Y-134620000D01*
X132080000Y-144780000D02*
X128312501Y-141012501D01*
X137160000Y-147320000D02*
X134620000Y-144780000D01*
X134620000Y-144780000D02*
X132080000Y-144780000D01*
G04 #@! TO.N,Net-(BT1-Pad1)*
X113293947Y-58691090D02*
X113993946Y-57991091D01*
X108327387Y-63657650D02*
X113293947Y-58691090D01*
X108327387Y-105952327D02*
X108327387Y-63657650D01*
X116840000Y-114464940D02*
X108327387Y-105952327D01*
X116840000Y-116840000D02*
X116840000Y-114464940D01*
D28*
G04 #@! TO.N,Net-(R2-Pad1)*
X182880000Y-132080000D02*
X187960000Y-132080000D01*
G04 #@! TO.N,/DIGITAL_2*
X175260000Y-129540000D02*
X175260000Y-132080000D01*
X166914999Y-113574999D02*
X170180000Y-116840000D01*
X137160000Y-116840000D02*
X140425001Y-113574999D01*
X140425001Y-113574999D02*
X166914999Y-113574999D01*
G04 #@! TO.N,/DIGITAL_3*
X172720000Y-129540000D02*
X172720000Y-132080000D01*
X167640000Y-157480000D02*
X167640000Y-152400000D01*
X167640000Y-152400000D02*
X172720000Y-147320000D01*
G04 #@! TO.N,/DIGITAL_4*
X170180000Y-129540000D02*
X170180000Y-132080000D01*
G04 #@! TO.N,/DIGITAL_5*
X157480000Y-129540000D02*
X157480000Y-132080000D01*
X157480000Y-128440000D02*
X157480000Y-129540000D01*
X156490010Y-127450010D02*
X157480000Y-128440000D01*
X140150010Y-127450010D02*
X156490010Y-127450010D01*
X137160000Y-124460000D02*
X140150010Y-127450010D01*
G04 #@! TO.N,Net-(C13-Pad1)*
X133494999Y-135745001D02*
X133820001Y-135419999D01*
X137370003Y-143365001D02*
X134079999Y-143365001D01*
X141114999Y-147109997D02*
X137370003Y-143365001D01*
X142780001Y-148445001D02*
X141699999Y-148445001D01*
X133494999Y-142780001D02*
X133494999Y-135745001D01*
X141114999Y-147860001D02*
X141114999Y-147109997D01*
X143365001Y-147860001D02*
X142780001Y-148445001D01*
X143365001Y-143654999D02*
X143365001Y-147860001D01*
X143654999Y-143365001D02*
X143365001Y-143654999D01*
X133820001Y-135419999D02*
X134620000Y-134620000D01*
X141699999Y-148445001D02*
X141114999Y-147860001D01*
X143654999Y-138285001D02*
X143654999Y-143365001D01*
X134079999Y-143365001D02*
X133494999Y-142780001D01*
X144780000Y-137160000D02*
X143654999Y-138285001D01*
G04 #@! TO.N,Net-(C14-Pad1)*
X144780000Y-134620000D02*
X137160000Y-134620000D01*
G04 #@! TO.N,Net-(R10-Pad1)*
X128414999Y-133494999D02*
X128740001Y-133820001D01*
X128414999Y-131539999D02*
X128414999Y-133494999D01*
X134079999Y-125874999D02*
X128414999Y-131539999D01*
X137938589Y-125874999D02*
X134079999Y-125874999D01*
X143343591Y-131280001D02*
X137938589Y-125874999D01*
X143980001Y-131280001D02*
X143343591Y-131280001D01*
X128740001Y-133820001D02*
X129540000Y-134620000D01*
X144780000Y-132080000D02*
X143980001Y-131280001D01*
G04 #@! TO.N,/DIGITAL_6*
X154940000Y-129540000D02*
X154940000Y-132080000D01*
X154140001Y-132879999D02*
X154940000Y-132080000D01*
X153814999Y-133205001D02*
X154140001Y-132879999D01*
X143365001Y-133205001D02*
X153814999Y-133205001D01*
X137160000Y-127000000D02*
X143365001Y-133205001D01*
G04 #@! TO.N,/DIGITAL_9*
X149860000Y-139700000D02*
X149860000Y-142240000D01*
X149060001Y-138900001D02*
X149860000Y-139700000D01*
X146194999Y-136034999D02*
X149060001Y-138900001D01*
X135745001Y-136034999D02*
X146194999Y-136034999D01*
X134620000Y-137160000D02*
X135745001Y-136034999D01*
G04 #@! TO.N,/ANALOG_3*
X177800000Y-140831370D02*
X177800000Y-142240000D01*
X177800000Y-139700000D02*
X177800000Y-140831370D01*
X178599999Y-138900001D02*
X177800000Y-139700000D01*
X179164999Y-138335001D02*
X178599999Y-138900001D01*
X179164999Y-124344003D02*
X179164999Y-138335001D01*
X181589897Y-121919105D02*
X179164999Y-124344003D01*
X181589897Y-84517290D02*
X181589897Y-121919105D01*
G04 #@! TO.N,/ANALOG_1*
X172720000Y-139700000D02*
X172720000Y-142240000D01*
X171920001Y-138900001D02*
X172720000Y-139700000D01*
X166474999Y-129316574D02*
X166474999Y-133454999D01*
X166474999Y-133454999D02*
X171920001Y-138900001D01*
X158894999Y-121736574D02*
X166474999Y-129316574D01*
X157125002Y-114300000D02*
X158894999Y-116069997D01*
X158894999Y-116069997D02*
X158894999Y-121736574D01*
X154940000Y-114300000D02*
X157125002Y-114300000D01*
G04 #@! TO.N,/ANALOG_2*
X175260000Y-140831370D02*
X175260000Y-142240000D01*
X175260000Y-139700000D02*
X175260000Y-140831370D01*
X176059999Y-138900001D02*
X175260000Y-139700000D01*
X176624999Y-138335001D02*
X176059999Y-138900001D01*
X176624999Y-109029792D02*
X176624999Y-138335001D01*
X167589897Y-99994690D02*
X176624999Y-109029792D01*
X167589897Y-84517290D02*
X167589897Y-99994690D01*
G04 #@! TO.N,/ANALOG_0*
X170180000Y-140831370D02*
X170180000Y-142240000D01*
X170180000Y-139700000D02*
X170180000Y-140831370D01*
X167389997Y-138574999D02*
X169054999Y-138574999D01*
X161145001Y-132330003D02*
X167389997Y-138574999D01*
X152898988Y-126549990D02*
X157411403Y-126549991D01*
X146194999Y-119846001D02*
X152898988Y-126549990D01*
X146194999Y-115714999D02*
X146194999Y-119846001D01*
X141699999Y-115714999D02*
X146194999Y-115714999D01*
X126459999Y-117965001D02*
X139449997Y-117965001D01*
X157411403Y-126549991D02*
X161145001Y-130283589D01*
X125874999Y-118550001D02*
X126459999Y-117965001D01*
X169380001Y-138900001D02*
X170180000Y-139700000D01*
X122420001Y-125585001D02*
X125874999Y-122130003D01*
X121339999Y-125585001D02*
X122420001Y-125585001D01*
X120754999Y-125000001D02*
X121339999Y-125585001D01*
X139449997Y-117965001D02*
X141699999Y-115714999D01*
X120754999Y-118746090D02*
X120754999Y-125000001D01*
X161145001Y-130283589D02*
X161145001Y-132330003D01*
X119844939Y-117836030D02*
X120754999Y-118746090D01*
X125874999Y-122130003D02*
X125874999Y-118550001D01*
X119844939Y-115384828D02*
X119844939Y-117836030D01*
X135639887Y-99589880D02*
X119844939Y-115384828D01*
X123742287Y-87692280D02*
X135639887Y-99589880D01*
X169054999Y-138574999D02*
X169380001Y-138900001D01*
X121764887Y-87692280D02*
X123742287Y-87692280D01*
X118589897Y-84517290D02*
X121764887Y-87692280D01*
G04 #@! TO.N,Net-(C10-Pad1)*
X121920000Y-127000000D02*
X119380000Y-124460000D01*
X121920000Y-132080000D02*
X121920000Y-127000000D01*
X113174999Y-131019999D02*
X113174999Y-133494999D01*
X113239999Y-130954999D02*
X113174999Y-131019999D01*
X121920000Y-132080000D02*
X120794999Y-130954999D01*
X120794999Y-130954999D02*
X113239999Y-130954999D01*
X113174999Y-133494999D02*
X127000000Y-147320000D01*
X127000000Y-147320000D02*
X132040000Y-147320000D01*
G04 #@! TO.N,Net-(C17-Pad1)*
X114300000Y-133130000D02*
X114300000Y-132080000D01*
X118330000Y-137160000D02*
X114300000Y-133130000D01*
X121920000Y-137160000D02*
X118330000Y-137160000D01*
G04 #@! TO.N,Net-(C16-Pad2)*
X129540000Y-132080000D02*
X130665001Y-133205001D01*
X130665001Y-140825001D02*
X130665001Y-139700000D01*
X133982490Y-144142490D02*
X130665001Y-140825001D01*
X130665001Y-139700000D02*
X130665001Y-139923427D01*
X130665001Y-133205001D02*
X130665001Y-139700000D01*
X139660000Y-147320000D02*
X138534999Y-146194999D01*
X138534999Y-146194999D02*
X136936573Y-146194999D01*
X136936573Y-146194999D02*
X134884065Y-144142490D01*
X134884065Y-144142490D02*
X133982490Y-144142490D01*
G04 #@! TO.N,/DIGITAL_0*
X180340000Y-130640000D02*
X180340000Y-132080000D01*
X180340000Y-129540000D02*
X180340000Y-130640000D01*
G04 #@! TO.N,/DIGITAL_10*
X152400000Y-140831370D02*
X152400000Y-142240000D01*
X152400000Y-139700000D02*
X152400000Y-140831370D01*
X136089897Y-100267290D02*
X136089897Y-89517290D01*
X136089897Y-102017290D02*
X136089897Y-100267290D01*
G04 #@! TO.N,/DIGITAL_1*
X177800000Y-129540000D02*
X177800000Y-132080000D01*
G04 #@! TO.N,/DIGITAL_11*
X154940000Y-139700000D02*
X154940000Y-142240000D01*
X159089897Y-101767290D02*
X159089897Y-89517290D01*
X159089897Y-102017290D02*
X159089897Y-101767290D01*
G04 #@! TO.N,/DIGITAL_12*
X157480000Y-140831370D02*
X157480000Y-142240000D01*
X157480000Y-139700000D02*
X157480000Y-140831370D01*
X172089897Y-102017290D02*
X172089897Y-89517290D01*
G04 #@! TO.N,/DIGITAL_13*
X160020000Y-139700000D02*
X160020000Y-142240000D01*
X185089897Y-102017290D02*
X185089897Y-89517290D01*
G04 #@! TO.N,Net-(C5-Pad1)*
X149860000Y-121920000D02*
X149860000Y-116840000D01*
X162560000Y-130948630D02*
X162560000Y-132080000D01*
X153531370Y-121920000D02*
X162560000Y-130948630D01*
X149860000Y-121920000D02*
X153531370Y-121920000D01*
G04 #@! TO.N,Net-(C6-Pad1)*
X144980000Y-119580000D02*
X142240000Y-116840000D01*
X144980000Y-121920000D02*
X144980000Y-119580000D01*
X160020000Y-130948630D02*
X160020000Y-132080000D01*
X160020000Y-129794998D02*
X160020000Y-130948630D01*
X157225002Y-127000000D02*
X160020000Y-129794998D01*
X150060000Y-127000000D02*
X157225002Y-127000000D01*
X144980000Y-121920000D02*
X150060000Y-127000000D01*
G04 #@! TO.N,/DIGITAL_7*
X152400000Y-132080000D02*
X152400000Y-129540000D01*
X110089897Y-102017290D02*
X110089897Y-89517290D01*
G04 #@! TO.N,/ANALOG_4*
X180340000Y-140831370D02*
X180340000Y-142240000D01*
X180340000Y-139700000D02*
X180340000Y-140831370D01*
G04 #@! TO.N,/DIGITAL_8*
X149860000Y-130742081D02*
X149860000Y-132080000D01*
X149860000Y-129540000D02*
X149860000Y-130742081D01*
X123089897Y-100267290D02*
X123089897Y-89517290D01*
X123089897Y-102017290D02*
X123089897Y-100267290D01*
G04 #@! TO.N,/ANALOG_5*
X182880000Y-140831370D02*
X182880000Y-142240000D01*
X182880000Y-139700000D02*
X182880000Y-140831370D01*
G04 #@! TD*
D29*
G04 #@! TO.N,GND*
G36*
X190757583Y-40746966D02*
X191497086Y-40949271D01*
X192189074Y-41279333D01*
X192811679Y-41726720D01*
X193345214Y-42277286D01*
X193772822Y-42913635D01*
X194080987Y-43615652D01*
X194261229Y-44366411D01*
X194308946Y-45016203D01*
X194308947Y-129978796D01*
X194233484Y-132087009D01*
X194008802Y-134172198D01*
X193635609Y-136235981D01*
X193115813Y-138267811D01*
X192452080Y-140257268D01*
X191647810Y-142194167D01*
X190707099Y-144068636D01*
X189634788Y-145871029D01*
X188436354Y-147592143D01*
X187117922Y-149223178D01*
X185686261Y-150755763D01*
X184148677Y-152182076D01*
X182513071Y-153494787D01*
X180787770Y-154687217D01*
X178981645Y-155753229D01*
X177103927Y-156687381D01*
X175164210Y-157484894D01*
X173172451Y-158141678D01*
X171138826Y-158654377D01*
X169073750Y-159020364D01*
X166987182Y-159237830D01*
X164982297Y-159306091D01*
X135006214Y-159306091D01*
X132898028Y-159230629D01*
X130812839Y-159005947D01*
X128749056Y-158632754D01*
X126717226Y-158112958D01*
X124727769Y-157449225D01*
X124306084Y-157274126D01*
X166605000Y-157274126D01*
X166605000Y-157685874D01*
X166762569Y-158066280D01*
X167053720Y-158357431D01*
X167434126Y-158515000D01*
X167845874Y-158515000D01*
X168226280Y-158357431D01*
X168517431Y-158066280D01*
X168675000Y-157685874D01*
X168675000Y-157274126D01*
X168517431Y-156893720D01*
X168400000Y-156776289D01*
X168400000Y-152714801D01*
X171568279Y-149546522D01*
X177758946Y-149546522D01*
X177758946Y-150435660D01*
X178099205Y-151257117D01*
X178727920Y-151885832D01*
X179549377Y-152226091D01*
X180438515Y-152226091D01*
X181259972Y-151885832D01*
X181888687Y-151257117D01*
X182228946Y-150435660D01*
X182228946Y-149546522D01*
X181888687Y-148725065D01*
X181259972Y-148096350D01*
X180438515Y-147756091D01*
X179549377Y-147756091D01*
X178727920Y-148096350D01*
X178099205Y-148725065D01*
X177758946Y-149546522D01*
X171568279Y-149546522D01*
X172759802Y-148355000D01*
X172925874Y-148355000D01*
X173306280Y-148197431D01*
X173597431Y-147906280D01*
X173755000Y-147525874D01*
X173755000Y-147114126D01*
X173597431Y-146733720D01*
X173306280Y-146442569D01*
X172925874Y-146285000D01*
X172514126Y-146285000D01*
X172133720Y-146442569D01*
X171842569Y-146733720D01*
X171685000Y-147114126D01*
X171685000Y-147280198D01*
X167155528Y-151809671D01*
X167092072Y-151852071D01*
X167049672Y-151915527D01*
X167049671Y-151915528D01*
X166924097Y-152103463D01*
X166865112Y-152400000D01*
X166880001Y-152474852D01*
X166880000Y-156776289D01*
X166762569Y-156893720D01*
X166605000Y-157274126D01*
X124306084Y-157274126D01*
X122790870Y-156644955D01*
X120916401Y-155704244D01*
X119114008Y-154631933D01*
X117392894Y-153433499D01*
X115761859Y-152115067D01*
X114229274Y-150683406D01*
X113174664Y-149546522D01*
X117758946Y-149546522D01*
X117758946Y-150435660D01*
X118099205Y-151257117D01*
X118727920Y-151885832D01*
X119549377Y-152226091D01*
X120438515Y-152226091D01*
X121259972Y-151885832D01*
X121545804Y-151600000D01*
X133132560Y-151600000D01*
X133132560Y-153200000D01*
X133181843Y-153447765D01*
X133322191Y-153657809D01*
X133532235Y-153798157D01*
X133780000Y-153847440D01*
X135380000Y-153847440D01*
X135627765Y-153798157D01*
X135837809Y-153657809D01*
X135978157Y-153447765D01*
X135998101Y-153347497D01*
X136267138Y-153616534D01*
X136794561Y-153835000D01*
X137365439Y-153835000D01*
X137892862Y-153616534D01*
X138296534Y-153212862D01*
X138515000Y-152685439D01*
X138515000Y-152114561D01*
X138301862Y-151600000D01*
X140792560Y-151600000D01*
X140792560Y-153200000D01*
X140841843Y-153447765D01*
X140982191Y-153657809D01*
X141192235Y-153798157D01*
X141440000Y-153847440D01*
X143040000Y-153847440D01*
X143287765Y-153798157D01*
X143497809Y-153657809D01*
X143638157Y-153447765D01*
X143646117Y-153407745D01*
X143911861Y-153407745D01*
X143985995Y-153653864D01*
X144523223Y-153846965D01*
X145093454Y-153819778D01*
X145494005Y-153653864D01*
X145568139Y-153407745D01*
X144740000Y-152579605D01*
X143911861Y-153407745D01*
X143646117Y-153407745D01*
X143684693Y-153213813D01*
X143732255Y-153228139D01*
X144560395Y-152400000D01*
X144919605Y-152400000D01*
X145747745Y-153228139D01*
X145993864Y-153154005D01*
X146186965Y-152616777D01*
X146159778Y-152046546D01*
X145993864Y-151645995D01*
X145747745Y-151571861D01*
X144919605Y-152400000D01*
X144560395Y-152400000D01*
X143732255Y-151571861D01*
X143684693Y-151586187D01*
X143646118Y-151392255D01*
X143911861Y-151392255D01*
X144740000Y-152220395D01*
X145568139Y-151392255D01*
X145494005Y-151146136D01*
X144956777Y-150953035D01*
X144386546Y-150980222D01*
X143985995Y-151146136D01*
X143911861Y-151392255D01*
X143646118Y-151392255D01*
X143638157Y-151352235D01*
X143497809Y-151142191D01*
X143287765Y-151001843D01*
X143040000Y-150952560D01*
X141440000Y-150952560D01*
X141192235Y-151001843D01*
X140982191Y-151142191D01*
X140841843Y-151352235D01*
X140792560Y-151600000D01*
X138301862Y-151600000D01*
X138296534Y-151587138D01*
X137892862Y-151183466D01*
X137365439Y-150965000D01*
X136794561Y-150965000D01*
X136267138Y-151183466D01*
X135998101Y-151452503D01*
X135978157Y-151352235D01*
X135837809Y-151142191D01*
X135627765Y-151001843D01*
X135380000Y-150952560D01*
X133780000Y-150952560D01*
X133532235Y-151001843D01*
X133322191Y-151142191D01*
X133181843Y-151352235D01*
X133132560Y-151600000D01*
X121545804Y-151600000D01*
X121888687Y-151257117D01*
X122228946Y-150435660D01*
X122228946Y-149546522D01*
X121888687Y-148725065D01*
X121259972Y-148096350D01*
X120438515Y-147756091D01*
X119549377Y-147756091D01*
X118727920Y-148096350D01*
X118099205Y-148725065D01*
X117758946Y-149546522D01*
X113174664Y-149546522D01*
X112802961Y-149145822D01*
X111490250Y-147510216D01*
X110297820Y-145784915D01*
X109231808Y-143978790D01*
X108297656Y-142101072D01*
X107500143Y-140161355D01*
X106843359Y-138169596D01*
X106330660Y-136135971D01*
X105964673Y-134070895D01*
X105747207Y-131984327D01*
X105678946Y-129979442D01*
X105678946Y-119546522D01*
X107758946Y-119546522D01*
X107758946Y-120435660D01*
X108099205Y-121257117D01*
X108727920Y-121885832D01*
X109549377Y-122226091D01*
X110438515Y-122226091D01*
X111259972Y-121885832D01*
X111888687Y-121257117D01*
X112228946Y-120435660D01*
X112228946Y-119546522D01*
X111888687Y-118725065D01*
X111259972Y-118096350D01*
X110438515Y-117756091D01*
X109549377Y-117756091D01*
X108727920Y-118096350D01*
X108099205Y-118725065D01*
X107758946Y-119546522D01*
X105678946Y-119546522D01*
X105678946Y-63657650D01*
X107361325Y-63657650D01*
X107379888Y-63750972D01*
X107379887Y-105859010D01*
X107361325Y-105952327D01*
X107379887Y-106045644D01*
X107434862Y-106322022D01*
X107644278Y-106635436D01*
X107723393Y-106688299D01*
X115477593Y-114442500D01*
X115089940Y-114442500D01*
X114842175Y-114491783D01*
X114632131Y-114632131D01*
X114491783Y-114842175D01*
X114442500Y-115089940D01*
X114442500Y-118590060D01*
X114491783Y-118837825D01*
X114632131Y-119047869D01*
X114842175Y-119188217D01*
X115089940Y-119237500D01*
X118590060Y-119237500D01*
X118837825Y-119188217D01*
X119047869Y-119047869D01*
X119188217Y-118837825D01*
X119237500Y-118590060D01*
X119237500Y-118294895D01*
X119297011Y-118383959D01*
X119360467Y-118426359D01*
X119994999Y-119060892D01*
X119995000Y-123012560D01*
X118580000Y-123012560D01*
X118332235Y-123061843D01*
X118122191Y-123202191D01*
X117981843Y-123412235D01*
X117932560Y-123660000D01*
X117932560Y-125260000D01*
X117981843Y-125507765D01*
X118122191Y-125717809D01*
X118332235Y-125858157D01*
X118580000Y-125907440D01*
X119752638Y-125907440D01*
X121160001Y-127314804D01*
X121160000Y-130284841D01*
X121091536Y-130239095D01*
X120869851Y-130194999D01*
X120869846Y-130194999D01*
X120794999Y-130180111D01*
X120720152Y-130194999D01*
X113314846Y-130194999D01*
X113239999Y-130180111D01*
X113165152Y-130194999D01*
X113165147Y-130194999D01*
X112943462Y-130239095D01*
X112692070Y-130407070D01*
X112666035Y-130446035D01*
X112627070Y-130472070D01*
X112459095Y-130723463D01*
X112414999Y-130945148D01*
X112414999Y-130945152D01*
X112400111Y-131019999D01*
X112414999Y-131094846D01*
X112415000Y-133420147D01*
X112400111Y-133494999D01*
X112415000Y-133569851D01*
X112442715Y-133709184D01*
X112459096Y-133791536D01*
X112575002Y-133965001D01*
X112627071Y-134042928D01*
X112690527Y-134085328D01*
X126409671Y-147804473D01*
X126452071Y-147867929D01*
X126703463Y-148035904D01*
X126925148Y-148080000D01*
X126925153Y-148080000D01*
X127000000Y-148094888D01*
X127074847Y-148080000D01*
X130801570Y-148080000D01*
X130823466Y-148132862D01*
X131227138Y-148536534D01*
X131754561Y-148755000D01*
X132325439Y-148755000D01*
X132852862Y-148536534D01*
X133256534Y-148132862D01*
X133290000Y-148052068D01*
X133323466Y-148132862D01*
X133727138Y-148536534D01*
X134254561Y-148755000D01*
X134825439Y-148755000D01*
X135352862Y-148536534D01*
X135756534Y-148132862D01*
X135850000Y-147907215D01*
X135943466Y-148132862D01*
X136347138Y-148536534D01*
X136874561Y-148755000D01*
X137255033Y-148755000D01*
X138964032Y-150464000D01*
X139016891Y-150543109D01*
X139096000Y-150595968D01*
X139096001Y-150595969D01*
X139178919Y-150651373D01*
X139330304Y-150752525D01*
X139606682Y-150807500D01*
X139606686Y-150807500D01*
X139699999Y-150826061D01*
X139793312Y-150807500D01*
X145502534Y-150807500D01*
X147699032Y-153004000D01*
X147751891Y-153083109D01*
X147831000Y-153135968D01*
X147831001Y-153135969D01*
X147874599Y-153165100D01*
X148065304Y-153292525D01*
X148341682Y-153347500D01*
X148341686Y-153347500D01*
X148434999Y-153366061D01*
X148445188Y-153364034D01*
X148461843Y-153447765D01*
X148602191Y-153657809D01*
X148812235Y-153798157D01*
X149060000Y-153847440D01*
X150660000Y-153847440D01*
X150907765Y-153798157D01*
X151117809Y-153657809D01*
X151258157Y-153447765D01*
X151266117Y-153407745D01*
X151531861Y-153407745D01*
X151605995Y-153653864D01*
X152143223Y-153846965D01*
X152713454Y-153819778D01*
X153114005Y-153653864D01*
X153188139Y-153407745D01*
X152360000Y-152579605D01*
X151531861Y-153407745D01*
X151266117Y-153407745D01*
X151304693Y-153213813D01*
X151352255Y-153228139D01*
X152180395Y-152400000D01*
X152539605Y-152400000D01*
X153367745Y-153228139D01*
X153613864Y-153154005D01*
X153806965Y-152616777D01*
X153779778Y-152046546D01*
X153613864Y-151645995D01*
X153367745Y-151571861D01*
X152539605Y-152400000D01*
X152180395Y-152400000D01*
X151352255Y-151571861D01*
X151304693Y-151586187D01*
X151266118Y-151392255D01*
X151531861Y-151392255D01*
X152360000Y-152220395D01*
X153188139Y-151392255D01*
X153114005Y-151146136D01*
X152576777Y-150953035D01*
X152006546Y-150980222D01*
X151605995Y-151146136D01*
X151531861Y-151392255D01*
X151266118Y-151392255D01*
X151258157Y-151352235D01*
X151117809Y-151142191D01*
X151066835Y-151108131D01*
X151327467Y-150847500D01*
X156532501Y-150847500D01*
X156532501Y-150981899D01*
X156432235Y-151001843D01*
X156222191Y-151142191D01*
X156081843Y-151352235D01*
X156032560Y-151600000D01*
X156032560Y-153200000D01*
X156081843Y-153447765D01*
X156222191Y-153657809D01*
X156432235Y-153798157D01*
X156680000Y-153847440D01*
X158280000Y-153847440D01*
X158527765Y-153798157D01*
X158737809Y-153657809D01*
X158878157Y-153447765D01*
X158886117Y-153407745D01*
X159151861Y-153407745D01*
X159225995Y-153653864D01*
X159763223Y-153846965D01*
X160333454Y-153819778D01*
X160734005Y-153653864D01*
X160808139Y-153407745D01*
X159980000Y-152579605D01*
X159151861Y-153407745D01*
X158886117Y-153407745D01*
X158924693Y-153213813D01*
X158972255Y-153228139D01*
X159800395Y-152400000D01*
X160159605Y-152400000D01*
X160987745Y-153228139D01*
X161233864Y-153154005D01*
X161426965Y-152616777D01*
X161399778Y-152046546D01*
X161233864Y-151645995D01*
X160987745Y-151571861D01*
X160159605Y-152400000D01*
X159800395Y-152400000D01*
X158972255Y-151571861D01*
X158924693Y-151586187D01*
X158886118Y-151392255D01*
X159151861Y-151392255D01*
X159980000Y-152220395D01*
X160808139Y-151392255D01*
X160734005Y-151146136D01*
X160196777Y-150953035D01*
X159626546Y-150980222D01*
X159225995Y-151146136D01*
X159151861Y-151392255D01*
X158886118Y-151392255D01*
X158878157Y-151352235D01*
X158737809Y-151142191D01*
X158527765Y-151001843D01*
X158427500Y-150981899D01*
X158427500Y-150292466D01*
X165044967Y-143675000D01*
X165235033Y-143675000D01*
X166944032Y-145384000D01*
X166996891Y-145463109D01*
X167076000Y-145515968D01*
X167076001Y-145515969D01*
X167170792Y-145579306D01*
X167310304Y-145672525D01*
X167586682Y-145727500D01*
X167586686Y-145727500D01*
X167679999Y-145746061D01*
X167773312Y-145727500D01*
X185326683Y-145727500D01*
X185420000Y-145746062D01*
X185513317Y-145727500D01*
X185513318Y-145727500D01*
X185789696Y-145672525D01*
X186103109Y-145463109D01*
X186155972Y-145383994D01*
X187864967Y-143675000D01*
X188101333Y-143675000D01*
X188519909Y-143591740D01*
X188994577Y-143274577D01*
X189311740Y-142799909D01*
X189423113Y-142240000D01*
X189402682Y-142137286D01*
X189495968Y-142044000D01*
X189495972Y-142043995D01*
X189876497Y-141663469D01*
X189955610Y-141610608D01*
X190165026Y-141297195D01*
X190220001Y-141020817D01*
X190220001Y-141020813D01*
X190238562Y-140927500D01*
X190220001Y-140834187D01*
X190220001Y-131543317D01*
X190238563Y-131449999D01*
X190197481Y-131243463D01*
X190165026Y-131080303D01*
X189955610Y-130766890D01*
X189876499Y-130714030D01*
X184154830Y-124992362D01*
X184137398Y-124950278D01*
X184137398Y-119546522D01*
X187758946Y-119546522D01*
X187758946Y-120435660D01*
X188099205Y-121257117D01*
X188727920Y-121885832D01*
X189549377Y-122226091D01*
X190438515Y-122226091D01*
X191259972Y-121885832D01*
X191888687Y-121257117D01*
X192228946Y-120435660D01*
X192228946Y-119546522D01*
X191888687Y-118725065D01*
X191259972Y-118096350D01*
X190438515Y-117756091D01*
X189549377Y-117756091D01*
X188727920Y-118096350D01*
X188099205Y-118725065D01*
X187758946Y-119546522D01*
X184137398Y-119546522D01*
X184137398Y-103897920D01*
X184354407Y-104042921D01*
X185089897Y-104189219D01*
X185825386Y-104042921D01*
X186448906Y-103626299D01*
X186865528Y-103002780D01*
X186974897Y-102452945D01*
X186974897Y-102441330D01*
X188204782Y-102441330D01*
X188414880Y-103149484D01*
X188879984Y-103723332D01*
X189529286Y-104075511D01*
X189670252Y-104104985D01*
X189962897Y-103988862D01*
X189962897Y-102144290D01*
X190216897Y-102144290D01*
X190216897Y-103988862D01*
X190509542Y-104104985D01*
X190650508Y-104075511D01*
X191299810Y-103723332D01*
X191764914Y-103149484D01*
X191975012Y-102441330D01*
X191820279Y-102144290D01*
X190216897Y-102144290D01*
X189962897Y-102144290D01*
X188359515Y-102144290D01*
X188204782Y-102441330D01*
X186974897Y-102441330D01*
X186974897Y-101593250D01*
X188204782Y-101593250D01*
X188359515Y-101890290D01*
X189962897Y-101890290D01*
X189962897Y-100045718D01*
X190216897Y-100045718D01*
X190216897Y-101890290D01*
X191820279Y-101890290D01*
X191975012Y-101593250D01*
X191764914Y-100885096D01*
X191299810Y-100311248D01*
X190650508Y-99959069D01*
X190509542Y-99929595D01*
X190216897Y-100045718D01*
X189962897Y-100045718D01*
X189670252Y-99929595D01*
X189529286Y-99959069D01*
X188879984Y-100311248D01*
X188414880Y-100885096D01*
X188204782Y-101593250D01*
X186974897Y-101593250D01*
X186974897Y-101581636D01*
X186865528Y-101031800D01*
X186448906Y-100408281D01*
X185849897Y-100008036D01*
X185849897Y-91526543D01*
X186448906Y-91126299D01*
X186865528Y-90502780D01*
X186974897Y-89952945D01*
X186974897Y-89941330D01*
X188204782Y-89941330D01*
X188414880Y-90649484D01*
X188879984Y-91223332D01*
X189529286Y-91575511D01*
X189670252Y-91604985D01*
X189962897Y-91488862D01*
X189962897Y-89644290D01*
X190216897Y-89644290D01*
X190216897Y-91488862D01*
X190509542Y-91604985D01*
X190650508Y-91575511D01*
X191299810Y-91223332D01*
X191764914Y-90649484D01*
X191975012Y-89941330D01*
X191820279Y-89644290D01*
X190216897Y-89644290D01*
X189962897Y-89644290D01*
X188359515Y-89644290D01*
X188204782Y-89941330D01*
X186974897Y-89941330D01*
X186974897Y-89093250D01*
X188204782Y-89093250D01*
X188359515Y-89390290D01*
X189962897Y-89390290D01*
X189962897Y-87545718D01*
X190216897Y-87545718D01*
X190216897Y-89390290D01*
X191820279Y-89390290D01*
X191975012Y-89093250D01*
X191764914Y-88385096D01*
X191299810Y-87811248D01*
X190650508Y-87459069D01*
X190509542Y-87429595D01*
X190216897Y-87545718D01*
X189962897Y-87545718D01*
X189670252Y-87429595D01*
X189529286Y-87459069D01*
X188879984Y-87811248D01*
X188414880Y-88385096D01*
X188204782Y-89093250D01*
X186974897Y-89093250D01*
X186974897Y-89081636D01*
X186865528Y-88531800D01*
X186448906Y-87908281D01*
X185825387Y-87491659D01*
X185089897Y-87345361D01*
X184354408Y-87491659D01*
X184137398Y-87636660D01*
X184137398Y-86052290D01*
X184395227Y-86052290D01*
X184959404Y-85818600D01*
X185391207Y-85386797D01*
X185624897Y-84822620D01*
X185624897Y-84211960D01*
X185391207Y-83647783D01*
X184959404Y-83215980D01*
X184395227Y-82982290D01*
X183894864Y-82982290D01*
X183413368Y-82500794D01*
X183360505Y-82421680D01*
X183047092Y-82212264D01*
X182770714Y-82157289D01*
X182770713Y-82157289D01*
X182677396Y-82138727D01*
X182584079Y-82157289D01*
X171595710Y-82157289D01*
X171502397Y-82138728D01*
X171409085Y-82157289D01*
X171409080Y-82157289D01*
X171132702Y-82212264D01*
X170819289Y-82421680D01*
X170766428Y-82500792D01*
X170284930Y-82982290D01*
X169784567Y-82982290D01*
X169220390Y-83215980D01*
X168839897Y-83596473D01*
X168459404Y-83215980D01*
X167895227Y-82982290D01*
X167284567Y-82982290D01*
X166720390Y-83215980D01*
X166288587Y-83647783D01*
X166285358Y-83655580D01*
X166170056Y-83616736D01*
X165269502Y-84517290D01*
X166170056Y-85417844D01*
X166285358Y-85379000D01*
X166288587Y-85386797D01*
X166720390Y-85818600D01*
X166829897Y-85863959D01*
X166829898Y-99919838D01*
X166815009Y-99994690D01*
X166873994Y-100291227D01*
X166923133Y-100364768D01*
X167041969Y-100542619D01*
X167105425Y-100585019D01*
X175864999Y-109344594D01*
X175864999Y-120048254D01*
X175839418Y-120031161D01*
X175406256Y-119945000D01*
X175113744Y-119945000D01*
X174680582Y-120031161D01*
X174189375Y-120359375D01*
X174177184Y-120377619D01*
X174168157Y-120332235D01*
X174027809Y-120122191D01*
X173817765Y-119981843D01*
X173570000Y-119932560D01*
X171870000Y-119932560D01*
X171622235Y-119981843D01*
X171412191Y-120122191D01*
X171271843Y-120332235D01*
X171245621Y-120464063D01*
X171244999Y-120463939D01*
X171151686Y-120482500D01*
X171151682Y-120482500D01*
X170875304Y-120537475D01*
X170838742Y-120561905D01*
X170641001Y-120694031D01*
X170641000Y-120694032D01*
X170561891Y-120746891D01*
X170509032Y-120826000D01*
X168587500Y-122747533D01*
X168587500Y-120798101D01*
X168687765Y-120778157D01*
X168897809Y-120637809D01*
X169038157Y-120427765D01*
X169087440Y-120180000D01*
X169087440Y-118580000D01*
X169038157Y-118332235D01*
X168897809Y-118122191D01*
X168687765Y-117981843D01*
X168440000Y-117932560D01*
X166840000Y-117932560D01*
X166592235Y-117981843D01*
X166382191Y-118122191D01*
X166241843Y-118332235D01*
X166195307Y-118566187D01*
X166147745Y-118551861D01*
X165319605Y-119380000D01*
X166147745Y-120208139D01*
X166195307Y-120193813D01*
X166241843Y-120427765D01*
X166382191Y-120637809D01*
X166592235Y-120778157D01*
X166692500Y-120798101D01*
X166692501Y-124780587D01*
X166633938Y-125075000D01*
X166652501Y-125168322D01*
X166652501Y-127252534D01*
X160967500Y-121567534D01*
X160967500Y-120798101D01*
X161067765Y-120778157D01*
X161277809Y-120637809D01*
X161418157Y-120427765D01*
X161426117Y-120387745D01*
X164311861Y-120387745D01*
X164385995Y-120633864D01*
X164923223Y-120826965D01*
X165493454Y-120799778D01*
X165894005Y-120633864D01*
X165968139Y-120387745D01*
X165140000Y-119559605D01*
X164311861Y-120387745D01*
X161426117Y-120387745D01*
X161467440Y-120180000D01*
X161467440Y-119163223D01*
X163693035Y-119163223D01*
X163720222Y-119733454D01*
X163886136Y-120134005D01*
X164132255Y-120208139D01*
X164960395Y-119380000D01*
X164132255Y-118551861D01*
X163886136Y-118625995D01*
X163693035Y-119163223D01*
X161467440Y-119163223D01*
X161467440Y-118580000D01*
X161426118Y-118372255D01*
X164311861Y-118372255D01*
X165140000Y-119200395D01*
X165968139Y-118372255D01*
X165894005Y-118126136D01*
X165356777Y-117933035D01*
X164786546Y-117960222D01*
X164385995Y-118126136D01*
X164311861Y-118372255D01*
X161426118Y-118372255D01*
X161418157Y-118332235D01*
X161277809Y-118122191D01*
X161067765Y-117981843D01*
X160820000Y-117932560D01*
X159654999Y-117932560D01*
X159654999Y-116144845D01*
X159669887Y-116069997D01*
X159654999Y-115995149D01*
X159654999Y-115995145D01*
X159610903Y-115773460D01*
X159610903Y-115773459D01*
X159485328Y-115585524D01*
X159442928Y-115522068D01*
X159379472Y-115479668D01*
X158234802Y-114334999D01*
X166600198Y-114334999D01*
X169145000Y-116879802D01*
X169145000Y-117045874D01*
X169302569Y-117426280D01*
X169593720Y-117717431D01*
X169974126Y-117875000D01*
X170385874Y-117875000D01*
X170766280Y-117717431D01*
X171057431Y-117426280D01*
X171215000Y-117045874D01*
X171215000Y-116634126D01*
X171057431Y-116253720D01*
X170766280Y-115962569D01*
X170385874Y-115805000D01*
X170219802Y-115805000D01*
X167505330Y-113090529D01*
X167462928Y-113027070D01*
X167211536Y-112859095D01*
X166989851Y-112814999D01*
X166989846Y-112814999D01*
X166914999Y-112800111D01*
X166840152Y-112814999D01*
X140499849Y-112814999D01*
X140425001Y-112800111D01*
X140350153Y-112814999D01*
X140350149Y-112814999D01*
X140176606Y-112849519D01*
X140128463Y-112859095D01*
X139941419Y-112984075D01*
X139877072Y-113027070D01*
X139834672Y-113090526D01*
X137483887Y-115441312D01*
X137301333Y-115405000D01*
X137018667Y-115405000D01*
X136600091Y-115488260D01*
X136125423Y-115805423D01*
X135808260Y-116280091D01*
X135696887Y-116840000D01*
X135769490Y-117205001D01*
X128402044Y-117205001D01*
X128435000Y-117125439D01*
X128435000Y-116554561D01*
X128402044Y-116474999D01*
X129794741Y-116474999D01*
X129869588Y-116489887D01*
X129944435Y-116474999D01*
X129944440Y-116474999D01*
X130166125Y-116430903D01*
X130417517Y-116262928D01*
X130459919Y-116199469D01*
X138149380Y-108510009D01*
X138212836Y-108467609D01*
X138255831Y-108403262D01*
X138380811Y-108216218D01*
X138390387Y-108168075D01*
X138424907Y-107994532D01*
X138424907Y-107994528D01*
X138439795Y-107919680D01*
X138424907Y-107844832D01*
X138424907Y-104555431D01*
X147765000Y-104555431D01*
X147765000Y-105444569D01*
X148105259Y-106266026D01*
X148733974Y-106894741D01*
X149555431Y-107235000D01*
X150444569Y-107235000D01*
X151266026Y-106894741D01*
X151894741Y-106266026D01*
X152235000Y-105444569D01*
X152235000Y-104555431D01*
X151894741Y-103733974D01*
X151266026Y-103105259D01*
X150444569Y-102765000D01*
X149555431Y-102765000D01*
X148733974Y-103105259D01*
X148105259Y-103733974D01*
X147765000Y-104555431D01*
X138424907Y-104555431D01*
X138424907Y-102441330D01*
X139204782Y-102441330D01*
X139414880Y-103149484D01*
X139879984Y-103723332D01*
X140529286Y-104075511D01*
X140670252Y-104104985D01*
X140962897Y-103988862D01*
X140962897Y-102144290D01*
X141216897Y-102144290D01*
X141216897Y-103988862D01*
X141509542Y-104104985D01*
X141650508Y-104075511D01*
X142299810Y-103723332D01*
X142764914Y-103149484D01*
X142975012Y-102441330D01*
X142820279Y-102144290D01*
X141216897Y-102144290D01*
X140962897Y-102144290D01*
X139359515Y-102144290D01*
X139204782Y-102441330D01*
X138424907Y-102441330D01*
X138424907Y-101593250D01*
X139204782Y-101593250D01*
X139359515Y-101890290D01*
X140962897Y-101890290D01*
X140962897Y-100045718D01*
X141216897Y-100045718D01*
X141216897Y-101890290D01*
X142820279Y-101890290D01*
X142975012Y-101593250D01*
X142764914Y-100885096D01*
X142299810Y-100311248D01*
X141650508Y-99959069D01*
X141509542Y-99929595D01*
X141216897Y-100045718D01*
X140962897Y-100045718D01*
X140670252Y-99929595D01*
X140529286Y-99959069D01*
X139879984Y-100311248D01*
X139414880Y-100885096D01*
X139204782Y-101593250D01*
X138424907Y-101593250D01*
X138424907Y-89941330D01*
X139204782Y-89941330D01*
X139414880Y-90649484D01*
X139879984Y-91223332D01*
X140529286Y-91575511D01*
X140670252Y-91604985D01*
X140962897Y-91488862D01*
X140962897Y-89644290D01*
X141216897Y-89644290D01*
X141216897Y-91488862D01*
X141509542Y-91604985D01*
X141650508Y-91575511D01*
X142299810Y-91223332D01*
X142764914Y-90649484D01*
X142975012Y-89941330D01*
X142820279Y-89644290D01*
X141216897Y-89644290D01*
X140962897Y-89644290D01*
X139359515Y-89644290D01*
X139204782Y-89941330D01*
X138424907Y-89941330D01*
X138424907Y-89093250D01*
X139204782Y-89093250D01*
X139359515Y-89390290D01*
X140962897Y-89390290D01*
X140962897Y-87545718D01*
X141216897Y-87545718D01*
X141216897Y-89390290D01*
X142820279Y-89390290D01*
X142975012Y-89093250D01*
X142971567Y-89081635D01*
X157204897Y-89081635D01*
X157204897Y-89952944D01*
X157314266Y-90502779D01*
X157730888Y-91126299D01*
X158329898Y-91526545D01*
X158329897Y-100008037D01*
X157730888Y-100408281D01*
X157314266Y-101031800D01*
X157204897Y-101581635D01*
X157204897Y-102452944D01*
X157314266Y-103002779D01*
X157730888Y-103626299D01*
X158354407Y-104042921D01*
X159089897Y-104189219D01*
X159825386Y-104042921D01*
X160448906Y-103626299D01*
X160865528Y-103002780D01*
X160974897Y-102452945D01*
X160974897Y-102441330D01*
X162204782Y-102441330D01*
X162414880Y-103149484D01*
X162879984Y-103723332D01*
X163529286Y-104075511D01*
X163670252Y-104104985D01*
X163962897Y-103988862D01*
X163962897Y-102144290D01*
X164216897Y-102144290D01*
X164216897Y-103988862D01*
X164509542Y-104104985D01*
X164650508Y-104075511D01*
X165299810Y-103723332D01*
X165764914Y-103149484D01*
X165975012Y-102441330D01*
X165820279Y-102144290D01*
X164216897Y-102144290D01*
X163962897Y-102144290D01*
X162359515Y-102144290D01*
X162204782Y-102441330D01*
X160974897Y-102441330D01*
X160974897Y-101593250D01*
X162204782Y-101593250D01*
X162359515Y-101890290D01*
X163962897Y-101890290D01*
X163962897Y-100045718D01*
X164216897Y-100045718D01*
X164216897Y-101890290D01*
X165820279Y-101890290D01*
X165975012Y-101593250D01*
X165764914Y-100885096D01*
X165299810Y-100311248D01*
X164650508Y-99959069D01*
X164509542Y-99929595D01*
X164216897Y-100045718D01*
X163962897Y-100045718D01*
X163670252Y-99929595D01*
X163529286Y-99959069D01*
X162879984Y-100311248D01*
X162414880Y-100885096D01*
X162204782Y-101593250D01*
X160974897Y-101593250D01*
X160974897Y-101581636D01*
X160865528Y-101031800D01*
X160448906Y-100408281D01*
X159849897Y-100008036D01*
X159849897Y-91526543D01*
X160448906Y-91126299D01*
X160865528Y-90502780D01*
X160974897Y-89952945D01*
X160974897Y-89941330D01*
X162204782Y-89941330D01*
X162414880Y-90649484D01*
X162879984Y-91223332D01*
X163529286Y-91575511D01*
X163670252Y-91604985D01*
X163962897Y-91488862D01*
X163962897Y-89644290D01*
X164216897Y-89644290D01*
X164216897Y-91488862D01*
X164509542Y-91604985D01*
X164650508Y-91575511D01*
X165299810Y-91223332D01*
X165764914Y-90649484D01*
X165975012Y-89941330D01*
X165820279Y-89644290D01*
X164216897Y-89644290D01*
X163962897Y-89644290D01*
X162359515Y-89644290D01*
X162204782Y-89941330D01*
X160974897Y-89941330D01*
X160974897Y-89093250D01*
X162204782Y-89093250D01*
X162359515Y-89390290D01*
X163962897Y-89390290D01*
X163962897Y-87545718D01*
X164216897Y-87545718D01*
X164216897Y-89390290D01*
X165820279Y-89390290D01*
X165975012Y-89093250D01*
X165764914Y-88385096D01*
X165299810Y-87811248D01*
X164650508Y-87459069D01*
X164509542Y-87429595D01*
X164216897Y-87545718D01*
X163962897Y-87545718D01*
X163670252Y-87429595D01*
X163529286Y-87459069D01*
X162879984Y-87811248D01*
X162414880Y-88385096D01*
X162204782Y-89093250D01*
X160974897Y-89093250D01*
X160974897Y-89081636D01*
X160865528Y-88531800D01*
X160448906Y-87908281D01*
X159825387Y-87491659D01*
X159089897Y-87345361D01*
X158354408Y-87491659D01*
X157730888Y-87908281D01*
X157314266Y-88531800D01*
X157204897Y-89081635D01*
X142971567Y-89081635D01*
X142764914Y-88385096D01*
X142299810Y-87811248D01*
X141650508Y-87459069D01*
X141509542Y-87429595D01*
X141216897Y-87545718D01*
X140962897Y-87545718D01*
X140670252Y-87429595D01*
X140529286Y-87459069D01*
X139879984Y-87811248D01*
X139414880Y-88385096D01*
X139204782Y-89093250D01*
X138424907Y-89093250D01*
X138424907Y-86169894D01*
X138997352Y-85597449D01*
X164189343Y-85597449D01*
X164275749Y-85853933D01*
X164849233Y-86063748D01*
X165459357Y-86038129D01*
X165904045Y-85853933D01*
X165990451Y-85597449D01*
X165089897Y-84696895D01*
X164189343Y-85597449D01*
X138997352Y-85597449D01*
X140318175Y-84276626D01*
X163543439Y-84276626D01*
X163569058Y-84886750D01*
X163753254Y-85331438D01*
X164009738Y-85417844D01*
X164910292Y-84517290D01*
X164009738Y-83616736D01*
X163753254Y-83703142D01*
X163543439Y-84276626D01*
X140318175Y-84276626D01*
X141157670Y-83437131D01*
X164189343Y-83437131D01*
X165089897Y-84337685D01*
X165990451Y-83437131D01*
X165904045Y-83180647D01*
X165330561Y-82970832D01*
X164720437Y-82996451D01*
X164275749Y-83180647D01*
X164189343Y-83437131D01*
X141157670Y-83437131D01*
X145484473Y-79110329D01*
X145547929Y-79067929D01*
X145715904Y-78816537D01*
X145760000Y-78594852D01*
X145760000Y-78594848D01*
X145774888Y-78520001D01*
X145760000Y-78445154D01*
X145760000Y-74555431D01*
X147765000Y-74555431D01*
X147765000Y-75444569D01*
X148105259Y-76266026D01*
X148733974Y-76894741D01*
X149555431Y-77235000D01*
X150444569Y-77235000D01*
X151028431Y-76993156D01*
X160554897Y-76993156D01*
X160554897Y-78041424D01*
X160956052Y-79009898D01*
X161697289Y-79751135D01*
X162665763Y-80152290D01*
X163714031Y-80152290D01*
X164682505Y-79751135D01*
X165423742Y-79009898D01*
X165824897Y-78041424D01*
X165824897Y-76993156D01*
X169354897Y-76993156D01*
X169354897Y-78041424D01*
X169756052Y-79009898D01*
X170497289Y-79751135D01*
X171465763Y-80152290D01*
X172514031Y-80152290D01*
X173482505Y-79751135D01*
X174223742Y-79009898D01*
X174589897Y-78125921D01*
X174956052Y-79009898D01*
X175697289Y-79751135D01*
X176665763Y-80152290D01*
X177714031Y-80152290D01*
X178682505Y-79751135D01*
X179423742Y-79009898D01*
X179824897Y-78041424D01*
X179824897Y-76993156D01*
X183354897Y-76993156D01*
X183354897Y-78041424D01*
X183756052Y-79009898D01*
X184497289Y-79751135D01*
X185465763Y-80152290D01*
X186514031Y-80152290D01*
X187482505Y-79751135D01*
X188223742Y-79009898D01*
X188624897Y-78041424D01*
X188624897Y-76993156D01*
X188223742Y-76024682D01*
X187482505Y-75283445D01*
X186514031Y-74882290D01*
X185465763Y-74882290D01*
X184497289Y-75283445D01*
X183756052Y-76024682D01*
X183354897Y-76993156D01*
X179824897Y-76993156D01*
X179423742Y-76024682D01*
X178682505Y-75283445D01*
X177714031Y-74882290D01*
X176665763Y-74882290D01*
X175697289Y-75283445D01*
X174956052Y-76024682D01*
X174589897Y-76908659D01*
X174223742Y-76024682D01*
X173482505Y-75283445D01*
X172514031Y-74882290D01*
X171465763Y-74882290D01*
X170497289Y-75283445D01*
X169756052Y-76024682D01*
X169354897Y-76993156D01*
X165824897Y-76993156D01*
X165423742Y-76024682D01*
X164682505Y-75283445D01*
X163714031Y-74882290D01*
X162665763Y-74882290D01*
X161697289Y-75283445D01*
X160956052Y-76024682D01*
X160554897Y-76993156D01*
X151028431Y-76993156D01*
X151266026Y-76894741D01*
X151894741Y-76266026D01*
X152235000Y-75444569D01*
X152235000Y-74555431D01*
X151894741Y-73733974D01*
X151266026Y-73105259D01*
X150444569Y-72765000D01*
X149555431Y-72765000D01*
X148733974Y-73105259D01*
X148105259Y-73733974D01*
X147765000Y-74555431D01*
X145760000Y-74555431D01*
X145760000Y-66153040D01*
X147215000Y-66153040D01*
X147215000Y-66893600D01*
X147311673Y-67126989D01*
X147490302Y-67305617D01*
X147723691Y-67402290D01*
X148464250Y-67402290D01*
X148623000Y-67243540D01*
X148623000Y-65994290D01*
X147373750Y-65994290D01*
X147215000Y-66153040D01*
X145760000Y-66153040D01*
X145760000Y-64840980D01*
X147215000Y-64840980D01*
X147215000Y-65581540D01*
X147373750Y-65740290D01*
X148623000Y-65740290D01*
X148623000Y-64491040D01*
X148877000Y-64491040D01*
X148877000Y-65740290D01*
X148897000Y-65740290D01*
X148897000Y-65994290D01*
X148877000Y-65994290D01*
X148877000Y-67243540D01*
X149035750Y-67402290D01*
X149776309Y-67402290D01*
X150009698Y-67305617D01*
X150188327Y-67126989D01*
X150244139Y-66992246D01*
X150420493Y-67168600D01*
X150984670Y-67402290D01*
X151595330Y-67402290D01*
X152159507Y-67168600D01*
X152591310Y-66736797D01*
X152825000Y-66172620D01*
X152825000Y-66153040D01*
X157215000Y-66153040D01*
X157215000Y-66893600D01*
X157311673Y-67126989D01*
X157490302Y-67305617D01*
X157723691Y-67402290D01*
X158464250Y-67402290D01*
X158623000Y-67243540D01*
X158623000Y-65994290D01*
X157373750Y-65994290D01*
X157215000Y-66153040D01*
X152825000Y-66153040D01*
X152825000Y-65561960D01*
X152591310Y-64997783D01*
X152434507Y-64840980D01*
X157215000Y-64840980D01*
X157215000Y-65581540D01*
X157373750Y-65740290D01*
X158623000Y-65740290D01*
X158623000Y-64491040D01*
X158877000Y-64491040D01*
X158877000Y-65740290D01*
X158897000Y-65740290D01*
X158897000Y-65994290D01*
X158877000Y-65994290D01*
X158877000Y-67243540D01*
X159035750Y-67402290D01*
X159776309Y-67402290D01*
X160009698Y-67305617D01*
X160188327Y-67126989D01*
X160244139Y-66992246D01*
X160420493Y-67168600D01*
X160984670Y-67402290D01*
X161595330Y-67402290D01*
X162159507Y-67168600D01*
X162591310Y-66736797D01*
X162825000Y-66172620D01*
X162825000Y-66153040D01*
X167215000Y-66153040D01*
X167215000Y-66893600D01*
X167311673Y-67126989D01*
X167490302Y-67305617D01*
X167723691Y-67402290D01*
X168464250Y-67402290D01*
X168623000Y-67243540D01*
X168623000Y-65994290D01*
X167373750Y-65994290D01*
X167215000Y-66153040D01*
X162825000Y-66153040D01*
X162825000Y-65561960D01*
X162591310Y-64997783D01*
X162434507Y-64840980D01*
X167215000Y-64840980D01*
X167215000Y-65581540D01*
X167373750Y-65740290D01*
X168623000Y-65740290D01*
X168623000Y-64491040D01*
X168877000Y-64491040D01*
X168877000Y-65740290D01*
X168897000Y-65740290D01*
X168897000Y-65994290D01*
X168877000Y-65994290D01*
X168877000Y-67243540D01*
X169035750Y-67402290D01*
X169776309Y-67402290D01*
X170009698Y-67305617D01*
X170188327Y-67126989D01*
X170244139Y-66992246D01*
X170420493Y-67168600D01*
X170984670Y-67402290D01*
X171595330Y-67402290D01*
X172159507Y-67168600D01*
X172591310Y-66736797D01*
X172825000Y-66172620D01*
X172825000Y-66080159D01*
X183099446Y-66080159D01*
X183185852Y-66336643D01*
X183759336Y-66546458D01*
X184369460Y-66520839D01*
X184814148Y-66336643D01*
X184900554Y-66080159D01*
X184000000Y-65179605D01*
X183099446Y-66080159D01*
X172825000Y-66080159D01*
X172825000Y-65561960D01*
X172591310Y-64997783D01*
X172352863Y-64759336D01*
X182453542Y-64759336D01*
X182479161Y-65369460D01*
X182663357Y-65814148D01*
X182919841Y-65900554D01*
X183820395Y-65000000D01*
X184179605Y-65000000D01*
X185080159Y-65900554D01*
X185195461Y-65861710D01*
X185198690Y-65869507D01*
X185630493Y-66301310D01*
X186194670Y-66535000D01*
X186805330Y-66535000D01*
X187369507Y-66301310D01*
X187750000Y-65920817D01*
X188130493Y-66301310D01*
X188694670Y-66535000D01*
X189305330Y-66535000D01*
X189869507Y-66301310D01*
X190301310Y-65869507D01*
X190535000Y-65305330D01*
X190535000Y-64694670D01*
X190301310Y-64130493D01*
X189869507Y-63698690D01*
X189305330Y-63465000D01*
X188694670Y-63465000D01*
X188130493Y-63698690D01*
X187750000Y-64079183D01*
X187369507Y-63698690D01*
X186805330Y-63465000D01*
X186194670Y-63465000D01*
X185630493Y-63698690D01*
X185198690Y-64130493D01*
X185195461Y-64138290D01*
X185080159Y-64099446D01*
X184179605Y-65000000D01*
X183820395Y-65000000D01*
X182919841Y-64099446D01*
X182663357Y-64185852D01*
X182453542Y-64759336D01*
X172352863Y-64759336D01*
X172159507Y-64565980D01*
X171595330Y-64332290D01*
X170984670Y-64332290D01*
X170420493Y-64565980D01*
X170244139Y-64742334D01*
X170188327Y-64607591D01*
X170009698Y-64428963D01*
X169776309Y-64332290D01*
X169035750Y-64332290D01*
X168877000Y-64491040D01*
X168623000Y-64491040D01*
X168464250Y-64332290D01*
X167723691Y-64332290D01*
X167490302Y-64428963D01*
X167311673Y-64607591D01*
X167215000Y-64840980D01*
X162434507Y-64840980D01*
X162159507Y-64565980D01*
X161595330Y-64332290D01*
X160984670Y-64332290D01*
X160420493Y-64565980D01*
X160244139Y-64742334D01*
X160188327Y-64607591D01*
X160009698Y-64428963D01*
X159776309Y-64332290D01*
X159035750Y-64332290D01*
X158877000Y-64491040D01*
X158623000Y-64491040D01*
X158464250Y-64332290D01*
X157723691Y-64332290D01*
X157490302Y-64428963D01*
X157311673Y-64607591D01*
X157215000Y-64840980D01*
X152434507Y-64840980D01*
X152159507Y-64565980D01*
X151595330Y-64332290D01*
X150984670Y-64332290D01*
X150420493Y-64565980D01*
X150244139Y-64742334D01*
X150188327Y-64607591D01*
X150009698Y-64428963D01*
X149776309Y-64332290D01*
X149035750Y-64332290D01*
X148877000Y-64491040D01*
X148623000Y-64491040D01*
X148464250Y-64332290D01*
X147723691Y-64332290D01*
X147490302Y-64428963D01*
X147311673Y-64607591D01*
X147215000Y-64840980D01*
X145760000Y-64840980D01*
X145760000Y-63919841D01*
X183099446Y-63919841D01*
X184000000Y-64820395D01*
X184900554Y-63919841D01*
X184814148Y-63663357D01*
X184240664Y-63453542D01*
X183630540Y-63479161D01*
X183185852Y-63663357D01*
X183099446Y-63919841D01*
X145760000Y-63919841D01*
X145760000Y-57475866D01*
X179465000Y-57475866D01*
X179465000Y-58524134D01*
X179866155Y-59492608D01*
X180607392Y-60233845D01*
X181575866Y-60635000D01*
X182624134Y-60635000D01*
X183592608Y-60233845D01*
X184333845Y-59492608D01*
X184735000Y-58524134D01*
X184735000Y-57475866D01*
X188265000Y-57475866D01*
X188265000Y-58524134D01*
X188666155Y-59492608D01*
X189407392Y-60233845D01*
X190375866Y-60635000D01*
X191424134Y-60635000D01*
X192392608Y-60233845D01*
X193133845Y-59492608D01*
X193535000Y-58524134D01*
X193535000Y-57475866D01*
X193133845Y-56507392D01*
X192392608Y-55766155D01*
X191424134Y-55365000D01*
X190375866Y-55365000D01*
X189407392Y-55766155D01*
X188666155Y-56507392D01*
X188265000Y-57475866D01*
X184735000Y-57475866D01*
X184333845Y-56507392D01*
X183592608Y-55766155D01*
X182624134Y-55365000D01*
X181575866Y-55365000D01*
X180607392Y-55766155D01*
X179866155Y-56507392D01*
X179465000Y-57475866D01*
X145760000Y-57475866D01*
X145760000Y-51105049D01*
X145840912Y-51159112D01*
X145903473Y-51200914D01*
X146125158Y-51245010D01*
X146125162Y-51245010D01*
X146200009Y-51259898D01*
X146274856Y-51245010D01*
X153725143Y-51245010D01*
X153799990Y-51259898D01*
X153874837Y-51245010D01*
X153874842Y-51245010D01*
X154096527Y-51200914D01*
X154347919Y-51032939D01*
X154390321Y-50969480D01*
X154612332Y-50747470D01*
X155000000Y-50824582D01*
X155589172Y-50707388D01*
X156088649Y-50373649D01*
X156422388Y-49874173D01*
X156510000Y-49433718D01*
X156510000Y-47386282D01*
X156422388Y-46945827D01*
X156088649Y-46446351D01*
X155589173Y-46112612D01*
X155000000Y-45995418D01*
X154410828Y-46112612D01*
X153911352Y-46446351D01*
X153750001Y-46687831D01*
X153588649Y-46446351D01*
X153089173Y-46112612D01*
X152500000Y-45995418D01*
X151910828Y-46112612D01*
X151411352Y-46446351D01*
X151077613Y-46945827D01*
X150990000Y-47386282D01*
X150990000Y-49433717D01*
X151047942Y-49725010D01*
X148952058Y-49725010D01*
X149010000Y-49433718D01*
X149010000Y-47386282D01*
X148922388Y-46945827D01*
X148588649Y-46446351D01*
X148089173Y-46112612D01*
X147500000Y-45995418D01*
X146910828Y-46112612D01*
X146411352Y-46446351D01*
X146250001Y-46687831D01*
X146088649Y-46446351D01*
X145589173Y-46112612D01*
X145000000Y-45995418D01*
X144410828Y-46112612D01*
X143911352Y-46446351D01*
X143577613Y-46945827D01*
X143490000Y-47386282D01*
X143490000Y-49433717D01*
X143577612Y-49874172D01*
X143911351Y-50373649D01*
X144240001Y-50593246D01*
X144240000Y-78205198D01*
X137180435Y-85264764D01*
X137116979Y-85307164D01*
X137074579Y-85370620D01*
X137074578Y-85370621D01*
X136949004Y-85558556D01*
X136890019Y-85855093D01*
X136904908Y-85929945D01*
X136904908Y-87544793D01*
X136825387Y-87491659D01*
X136089897Y-87345361D01*
X135354408Y-87491659D01*
X134730888Y-87908281D01*
X134314266Y-88531800D01*
X134204897Y-89081635D01*
X134204897Y-89952944D01*
X134314266Y-90502779D01*
X134730888Y-91126299D01*
X135329898Y-91526544D01*
X135329897Y-98205088D01*
X128682803Y-91557994D01*
X129299810Y-91223332D01*
X129764914Y-90649484D01*
X129975012Y-89941330D01*
X129820279Y-89644290D01*
X128216897Y-89644290D01*
X128216897Y-89664290D01*
X127962897Y-89664290D01*
X127962897Y-89644290D01*
X127942897Y-89644290D01*
X127942897Y-89390290D01*
X127962897Y-89390290D01*
X127962897Y-87545718D01*
X128216897Y-87545718D01*
X128216897Y-89390290D01*
X129820279Y-89390290D01*
X129975012Y-89093250D01*
X129764914Y-88385096D01*
X129299810Y-87811248D01*
X128650508Y-87459069D01*
X128509542Y-87429595D01*
X128216897Y-87545718D01*
X127962897Y-87545718D01*
X127670252Y-87429595D01*
X127529286Y-87459069D01*
X126879984Y-87811248D01*
X126414880Y-88385096D01*
X126207820Y-89083011D01*
X124332618Y-87207810D01*
X124290216Y-87144351D01*
X124038824Y-86976376D01*
X123817139Y-86932280D01*
X123817134Y-86932280D01*
X123742287Y-86917392D01*
X123667440Y-86932280D01*
X122079689Y-86932280D01*
X121199699Y-86052290D01*
X121395227Y-86052290D01*
X121959404Y-85818600D01*
X122180555Y-85597449D01*
X129189343Y-85597449D01*
X129275749Y-85853933D01*
X129849233Y-86063748D01*
X130459357Y-86038129D01*
X130904045Y-85853933D01*
X130990451Y-85597449D01*
X130089897Y-84696895D01*
X129189343Y-85597449D01*
X122180555Y-85597449D01*
X122391207Y-85386797D01*
X122624897Y-84822620D01*
X122624897Y-84322257D01*
X122894865Y-84052289D01*
X128625515Y-84052289D01*
X128543439Y-84276626D01*
X128569058Y-84886750D01*
X128753254Y-85331438D01*
X129009738Y-85417844D01*
X129910292Y-84517290D01*
X129896150Y-84503148D01*
X130075755Y-84323543D01*
X130089897Y-84337685D01*
X130104040Y-84323543D01*
X130283645Y-84503148D01*
X130269502Y-84517290D01*
X131170056Y-85417844D01*
X131285358Y-85379000D01*
X131288587Y-85386797D01*
X131720390Y-85818600D01*
X132284567Y-86052290D01*
X132895227Y-86052290D01*
X133459404Y-85818600D01*
X133839897Y-85438107D01*
X134220390Y-85818600D01*
X134784567Y-86052290D01*
X135395227Y-86052290D01*
X135959404Y-85818600D01*
X136391207Y-85386797D01*
X136624897Y-84822620D01*
X136624897Y-84211960D01*
X136391207Y-83647783D01*
X135959404Y-83215980D01*
X135395227Y-82982290D01*
X134894864Y-82982290D01*
X134413368Y-82500794D01*
X134360505Y-82421680D01*
X134047092Y-82212264D01*
X133770714Y-82157289D01*
X133770713Y-82157289D01*
X133677396Y-82138727D01*
X133584079Y-82157289D01*
X122595710Y-82157289D01*
X122502397Y-82138728D01*
X122409085Y-82157289D01*
X122409080Y-82157289D01*
X122132702Y-82212264D01*
X121819289Y-82421680D01*
X121766428Y-82500792D01*
X121284930Y-82982290D01*
X120894864Y-82982290D01*
X120327500Y-82414927D01*
X120327500Y-76993156D01*
X120354897Y-76993156D01*
X120354897Y-78041424D01*
X120756052Y-79009898D01*
X121497289Y-79751135D01*
X122465763Y-80152290D01*
X123514031Y-80152290D01*
X124482505Y-79751135D01*
X125223742Y-79009898D01*
X125589897Y-78125921D01*
X125956052Y-79009898D01*
X126697289Y-79751135D01*
X127665763Y-80152290D01*
X128714031Y-80152290D01*
X129682505Y-79751135D01*
X130423742Y-79009898D01*
X130824897Y-78041424D01*
X130824897Y-76993156D01*
X134354897Y-76993156D01*
X134354897Y-78041424D01*
X134756052Y-79009898D01*
X135497289Y-79751135D01*
X136465763Y-80152290D01*
X137514031Y-80152290D01*
X138482505Y-79751135D01*
X139223742Y-79009898D01*
X139624897Y-78041424D01*
X139624897Y-76993156D01*
X139223742Y-76024682D01*
X138482505Y-75283445D01*
X137514031Y-74882290D01*
X136465763Y-74882290D01*
X135497289Y-75283445D01*
X134756052Y-76024682D01*
X134354897Y-76993156D01*
X130824897Y-76993156D01*
X130423742Y-76024682D01*
X129682505Y-75283445D01*
X128714031Y-74882290D01*
X127665763Y-74882290D01*
X126697289Y-75283445D01*
X125956052Y-76024682D01*
X125589897Y-76908659D01*
X125223742Y-76024682D01*
X124482505Y-75283445D01*
X123514031Y-74882290D01*
X122465763Y-74882290D01*
X121497289Y-75283445D01*
X120756052Y-76024682D01*
X120354897Y-76993156D01*
X120327500Y-76993156D01*
X120327500Y-66258735D01*
X120346061Y-66165422D01*
X120343599Y-66153040D01*
X127215000Y-66153040D01*
X127215000Y-66893600D01*
X127311673Y-67126989D01*
X127490302Y-67305617D01*
X127723691Y-67402290D01*
X128464250Y-67402290D01*
X128623000Y-67243540D01*
X128623000Y-65994290D01*
X127373750Y-65994290D01*
X127215000Y-66153040D01*
X120343599Y-66153040D01*
X120327500Y-66072109D01*
X120327500Y-66072105D01*
X120272525Y-65795727D01*
X120063109Y-65482314D01*
X119984000Y-65429455D01*
X119395525Y-64840980D01*
X127215000Y-64840980D01*
X127215000Y-65581540D01*
X127373750Y-65740290D01*
X128623000Y-65740290D01*
X128623000Y-64491040D01*
X128877000Y-64491040D01*
X128877000Y-65740290D01*
X128897000Y-65740290D01*
X128897000Y-65994290D01*
X128877000Y-65994290D01*
X128877000Y-67243540D01*
X129035750Y-67402290D01*
X129776309Y-67402290D01*
X130009698Y-67305617D01*
X130188327Y-67126989D01*
X130244139Y-66992246D01*
X130420493Y-67168600D01*
X130984670Y-67402290D01*
X131595330Y-67402290D01*
X132159507Y-67168600D01*
X132591310Y-66736797D01*
X132825000Y-66172620D01*
X132825000Y-66153040D01*
X137215000Y-66153040D01*
X137215000Y-66893600D01*
X137311673Y-67126989D01*
X137490302Y-67305617D01*
X137723691Y-67402290D01*
X138464250Y-67402290D01*
X138623000Y-67243540D01*
X138623000Y-65994290D01*
X137373750Y-65994290D01*
X137215000Y-66153040D01*
X132825000Y-66153040D01*
X132825000Y-65561960D01*
X132591310Y-64997783D01*
X132434507Y-64840980D01*
X137215000Y-64840980D01*
X137215000Y-65581540D01*
X137373750Y-65740290D01*
X138623000Y-65740290D01*
X138623000Y-64491040D01*
X138877000Y-64491040D01*
X138877000Y-65740290D01*
X138897000Y-65740290D01*
X138897000Y-65994290D01*
X138877000Y-65994290D01*
X138877000Y-67243540D01*
X139035750Y-67402290D01*
X139776309Y-67402290D01*
X140009698Y-67305617D01*
X140188327Y-67126989D01*
X140244139Y-66992246D01*
X140420493Y-67168600D01*
X140984670Y-67402290D01*
X141595330Y-67402290D01*
X142159507Y-67168600D01*
X142591310Y-66736797D01*
X142825000Y-66172620D01*
X142825000Y-65561960D01*
X142591310Y-64997783D01*
X142159507Y-64565980D01*
X141595330Y-64332290D01*
X140984670Y-64332290D01*
X140420493Y-64565980D01*
X140244139Y-64742334D01*
X140188327Y-64607591D01*
X140009698Y-64428963D01*
X139776309Y-64332290D01*
X139035750Y-64332290D01*
X138877000Y-64491040D01*
X138623000Y-64491040D01*
X138464250Y-64332290D01*
X137723691Y-64332290D01*
X137490302Y-64428963D01*
X137311673Y-64607591D01*
X137215000Y-64840980D01*
X132434507Y-64840980D01*
X132159507Y-64565980D01*
X131595330Y-64332290D01*
X130984670Y-64332290D01*
X130420493Y-64565980D01*
X130244139Y-64742334D01*
X130188327Y-64607591D01*
X130009698Y-64428963D01*
X129776309Y-64332290D01*
X129035750Y-64332290D01*
X128877000Y-64491040D01*
X128623000Y-64491040D01*
X128464250Y-64332290D01*
X127723691Y-64332290D01*
X127490302Y-64428963D01*
X127311673Y-64607591D01*
X127215000Y-64840980D01*
X119395525Y-64840980D01*
X115641639Y-61087096D01*
X115588776Y-61007981D01*
X115328946Y-60834368D01*
X115328946Y-60725543D01*
X115125704Y-60234874D01*
X114750163Y-59859333D01*
X114259494Y-59656091D01*
X113728398Y-59656091D01*
X113626851Y-59698153D01*
X113998913Y-59326091D01*
X114259494Y-59326091D01*
X114750163Y-59122849D01*
X115125704Y-58747308D01*
X115328946Y-58256639D01*
X115328946Y-57725543D01*
X115125704Y-57234874D01*
X114750163Y-56859333D01*
X114259494Y-56656091D01*
X113728398Y-56656091D01*
X113237729Y-56859333D01*
X112862188Y-57234874D01*
X112658946Y-57725543D01*
X112658946Y-57986124D01*
X107723391Y-62921680D01*
X107644279Y-62974541D01*
X107591418Y-63053653D01*
X107434862Y-63287955D01*
X107361325Y-63657650D01*
X105678946Y-63657650D01*
X105678946Y-51251468D01*
X111532446Y-51251468D01*
X111532446Y-52230714D01*
X111907187Y-53135419D01*
X112599618Y-53827850D01*
X113073092Y-54023970D01*
X112862188Y-54234874D01*
X112658946Y-54725543D01*
X112658946Y-55256639D01*
X112862188Y-55747308D01*
X113237729Y-56122849D01*
X113728398Y-56326091D01*
X114259494Y-56326091D01*
X114750163Y-56122849D01*
X115125704Y-55747308D01*
X115328946Y-55256639D01*
X115328946Y-54725543D01*
X115125704Y-54234874D01*
X114914800Y-54023970D01*
X115388274Y-53827850D01*
X116080705Y-53135419D01*
X116455446Y-52230714D01*
X116455446Y-51251468D01*
X116080705Y-50346763D01*
X115388274Y-49654332D01*
X114483569Y-49279591D01*
X113504323Y-49279591D01*
X112599618Y-49654332D01*
X111907187Y-50346763D01*
X111532446Y-51251468D01*
X105678946Y-51251468D01*
X105678946Y-45021597D01*
X105721345Y-44546522D01*
X107758946Y-44546522D01*
X107758946Y-45435660D01*
X108099205Y-46257117D01*
X108727920Y-46885832D01*
X109549377Y-47226091D01*
X110438515Y-47226091D01*
X111259972Y-46885832D01*
X111888687Y-46257117D01*
X112228946Y-45435660D01*
X112228946Y-44546522D01*
X111888687Y-43725065D01*
X111853372Y-43689750D01*
X147615000Y-43689750D01*
X147615000Y-44780310D01*
X147711673Y-45013699D01*
X147890302Y-45192327D01*
X148123691Y-45289000D01*
X149714250Y-45289000D01*
X149873000Y-45130250D01*
X149873000Y-43531000D01*
X150127000Y-43531000D01*
X150127000Y-45130250D01*
X150285750Y-45289000D01*
X151876309Y-45289000D01*
X152109698Y-45192327D01*
X152288327Y-45013699D01*
X152385000Y-44780310D01*
X152385000Y-44546522D01*
X187758946Y-44546522D01*
X187758946Y-45435660D01*
X188099205Y-46257117D01*
X188727920Y-46885832D01*
X189549377Y-47226091D01*
X190438515Y-47226091D01*
X191259972Y-46885832D01*
X191888687Y-46257117D01*
X192228946Y-45435660D01*
X192228946Y-44546522D01*
X191888687Y-43725065D01*
X191259972Y-43096350D01*
X190438515Y-42756091D01*
X189549377Y-42756091D01*
X188727920Y-43096350D01*
X188099205Y-43725065D01*
X187758946Y-44546522D01*
X152385000Y-44546522D01*
X152385000Y-43689750D01*
X152226250Y-43531000D01*
X150127000Y-43531000D01*
X149873000Y-43531000D01*
X147773750Y-43531000D01*
X147615000Y-43689750D01*
X111853372Y-43689750D01*
X111259972Y-43096350D01*
X110438515Y-42756091D01*
X109549377Y-42756091D01*
X108727920Y-43096350D01*
X108099205Y-43725065D01*
X107758946Y-44546522D01*
X105721345Y-44546522D01*
X105749821Y-44227454D01*
X105952126Y-43487951D01*
X106282188Y-42795963D01*
X106729575Y-42173358D01*
X106879892Y-42027690D01*
X147615000Y-42027690D01*
X147615000Y-43118250D01*
X147773750Y-43277000D01*
X149873000Y-43277000D01*
X149873000Y-41677750D01*
X150127000Y-41677750D01*
X150127000Y-43277000D01*
X152226250Y-43277000D01*
X152385000Y-43118250D01*
X152385000Y-42027690D01*
X152288327Y-41794301D01*
X152109698Y-41615673D01*
X151876309Y-41519000D01*
X150285750Y-41519000D01*
X150127000Y-41677750D01*
X149873000Y-41677750D01*
X149714250Y-41519000D01*
X148123691Y-41519000D01*
X147890302Y-41615673D01*
X147711673Y-41794301D01*
X147615000Y-42027690D01*
X106879892Y-42027690D01*
X107280141Y-41639823D01*
X107916490Y-41212215D01*
X108618507Y-40904050D01*
X109369266Y-40723808D01*
X110019058Y-40676091D01*
X189963440Y-40676091D01*
X190757583Y-40746966D01*
X190757583Y-40746966D01*
G37*
X190757583Y-40746966D02*
X191497086Y-40949271D01*
X192189074Y-41279333D01*
X192811679Y-41726720D01*
X193345214Y-42277286D01*
X193772822Y-42913635D01*
X194080987Y-43615652D01*
X194261229Y-44366411D01*
X194308946Y-45016203D01*
X194308947Y-129978796D01*
X194233484Y-132087009D01*
X194008802Y-134172198D01*
X193635609Y-136235981D01*
X193115813Y-138267811D01*
X192452080Y-140257268D01*
X191647810Y-142194167D01*
X190707099Y-144068636D01*
X189634788Y-145871029D01*
X188436354Y-147592143D01*
X187117922Y-149223178D01*
X185686261Y-150755763D01*
X184148677Y-152182076D01*
X182513071Y-153494787D01*
X180787770Y-154687217D01*
X178981645Y-155753229D01*
X177103927Y-156687381D01*
X175164210Y-157484894D01*
X173172451Y-158141678D01*
X171138826Y-158654377D01*
X169073750Y-159020364D01*
X166987182Y-159237830D01*
X164982297Y-159306091D01*
X135006214Y-159306091D01*
X132898028Y-159230629D01*
X130812839Y-159005947D01*
X128749056Y-158632754D01*
X126717226Y-158112958D01*
X124727769Y-157449225D01*
X124306084Y-157274126D01*
X166605000Y-157274126D01*
X166605000Y-157685874D01*
X166762569Y-158066280D01*
X167053720Y-158357431D01*
X167434126Y-158515000D01*
X167845874Y-158515000D01*
X168226280Y-158357431D01*
X168517431Y-158066280D01*
X168675000Y-157685874D01*
X168675000Y-157274126D01*
X168517431Y-156893720D01*
X168400000Y-156776289D01*
X168400000Y-152714801D01*
X171568279Y-149546522D01*
X177758946Y-149546522D01*
X177758946Y-150435660D01*
X178099205Y-151257117D01*
X178727920Y-151885832D01*
X179549377Y-152226091D01*
X180438515Y-152226091D01*
X181259972Y-151885832D01*
X181888687Y-151257117D01*
X182228946Y-150435660D01*
X182228946Y-149546522D01*
X181888687Y-148725065D01*
X181259972Y-148096350D01*
X180438515Y-147756091D01*
X179549377Y-147756091D01*
X178727920Y-148096350D01*
X178099205Y-148725065D01*
X177758946Y-149546522D01*
X171568279Y-149546522D01*
X172759802Y-148355000D01*
X172925874Y-148355000D01*
X173306280Y-148197431D01*
X173597431Y-147906280D01*
X173755000Y-147525874D01*
X173755000Y-147114126D01*
X173597431Y-146733720D01*
X173306280Y-146442569D01*
X172925874Y-146285000D01*
X172514126Y-146285000D01*
X172133720Y-146442569D01*
X171842569Y-146733720D01*
X171685000Y-147114126D01*
X171685000Y-147280198D01*
X167155528Y-151809671D01*
X167092072Y-151852071D01*
X167049672Y-151915527D01*
X167049671Y-151915528D01*
X166924097Y-152103463D01*
X166865112Y-152400000D01*
X166880001Y-152474852D01*
X166880000Y-156776289D01*
X166762569Y-156893720D01*
X166605000Y-157274126D01*
X124306084Y-157274126D01*
X122790870Y-156644955D01*
X120916401Y-155704244D01*
X119114008Y-154631933D01*
X117392894Y-153433499D01*
X115761859Y-152115067D01*
X114229274Y-150683406D01*
X113174664Y-149546522D01*
X117758946Y-149546522D01*
X117758946Y-150435660D01*
X118099205Y-151257117D01*
X118727920Y-151885832D01*
X119549377Y-152226091D01*
X120438515Y-152226091D01*
X121259972Y-151885832D01*
X121545804Y-151600000D01*
X133132560Y-151600000D01*
X133132560Y-153200000D01*
X133181843Y-153447765D01*
X133322191Y-153657809D01*
X133532235Y-153798157D01*
X133780000Y-153847440D01*
X135380000Y-153847440D01*
X135627765Y-153798157D01*
X135837809Y-153657809D01*
X135978157Y-153447765D01*
X135998101Y-153347497D01*
X136267138Y-153616534D01*
X136794561Y-153835000D01*
X137365439Y-153835000D01*
X137892862Y-153616534D01*
X138296534Y-153212862D01*
X138515000Y-152685439D01*
X138515000Y-152114561D01*
X138301862Y-151600000D01*
X140792560Y-151600000D01*
X140792560Y-153200000D01*
X140841843Y-153447765D01*
X140982191Y-153657809D01*
X141192235Y-153798157D01*
X141440000Y-153847440D01*
X143040000Y-153847440D01*
X143287765Y-153798157D01*
X143497809Y-153657809D01*
X143638157Y-153447765D01*
X143646117Y-153407745D01*
X143911861Y-153407745D01*
X143985995Y-153653864D01*
X144523223Y-153846965D01*
X145093454Y-153819778D01*
X145494005Y-153653864D01*
X145568139Y-153407745D01*
X144740000Y-152579605D01*
X143911861Y-153407745D01*
X143646117Y-153407745D01*
X143684693Y-153213813D01*
X143732255Y-153228139D01*
X144560395Y-152400000D01*
X144919605Y-152400000D01*
X145747745Y-153228139D01*
X145993864Y-153154005D01*
X146186965Y-152616777D01*
X146159778Y-152046546D01*
X145993864Y-151645995D01*
X145747745Y-151571861D01*
X144919605Y-152400000D01*
X144560395Y-152400000D01*
X143732255Y-151571861D01*
X143684693Y-151586187D01*
X143646118Y-151392255D01*
X143911861Y-151392255D01*
X144740000Y-152220395D01*
X145568139Y-151392255D01*
X145494005Y-151146136D01*
X144956777Y-150953035D01*
X144386546Y-150980222D01*
X143985995Y-151146136D01*
X143911861Y-151392255D01*
X143646118Y-151392255D01*
X143638157Y-151352235D01*
X143497809Y-151142191D01*
X143287765Y-151001843D01*
X143040000Y-150952560D01*
X141440000Y-150952560D01*
X141192235Y-151001843D01*
X140982191Y-151142191D01*
X140841843Y-151352235D01*
X140792560Y-151600000D01*
X138301862Y-151600000D01*
X138296534Y-151587138D01*
X137892862Y-151183466D01*
X137365439Y-150965000D01*
X136794561Y-150965000D01*
X136267138Y-151183466D01*
X135998101Y-151452503D01*
X135978157Y-151352235D01*
X135837809Y-151142191D01*
X135627765Y-151001843D01*
X135380000Y-150952560D01*
X133780000Y-150952560D01*
X133532235Y-151001843D01*
X133322191Y-151142191D01*
X133181843Y-151352235D01*
X133132560Y-151600000D01*
X121545804Y-151600000D01*
X121888687Y-151257117D01*
X122228946Y-150435660D01*
X122228946Y-149546522D01*
X121888687Y-148725065D01*
X121259972Y-148096350D01*
X120438515Y-147756091D01*
X119549377Y-147756091D01*
X118727920Y-148096350D01*
X118099205Y-148725065D01*
X117758946Y-149546522D01*
X113174664Y-149546522D01*
X112802961Y-149145822D01*
X111490250Y-147510216D01*
X110297820Y-145784915D01*
X109231808Y-143978790D01*
X108297656Y-142101072D01*
X107500143Y-140161355D01*
X106843359Y-138169596D01*
X106330660Y-136135971D01*
X105964673Y-134070895D01*
X105747207Y-131984327D01*
X105678946Y-129979442D01*
X105678946Y-119546522D01*
X107758946Y-119546522D01*
X107758946Y-120435660D01*
X108099205Y-121257117D01*
X108727920Y-121885832D01*
X109549377Y-122226091D01*
X110438515Y-122226091D01*
X111259972Y-121885832D01*
X111888687Y-121257117D01*
X112228946Y-120435660D01*
X112228946Y-119546522D01*
X111888687Y-118725065D01*
X111259972Y-118096350D01*
X110438515Y-117756091D01*
X109549377Y-117756091D01*
X108727920Y-118096350D01*
X108099205Y-118725065D01*
X107758946Y-119546522D01*
X105678946Y-119546522D01*
X105678946Y-63657650D01*
X107361325Y-63657650D01*
X107379888Y-63750972D01*
X107379887Y-105859010D01*
X107361325Y-105952327D01*
X107379887Y-106045644D01*
X107434862Y-106322022D01*
X107644278Y-106635436D01*
X107723393Y-106688299D01*
X115477593Y-114442500D01*
X115089940Y-114442500D01*
X114842175Y-114491783D01*
X114632131Y-114632131D01*
X114491783Y-114842175D01*
X114442500Y-115089940D01*
X114442500Y-118590060D01*
X114491783Y-118837825D01*
X114632131Y-119047869D01*
X114842175Y-119188217D01*
X115089940Y-119237500D01*
X118590060Y-119237500D01*
X118837825Y-119188217D01*
X119047869Y-119047869D01*
X119188217Y-118837825D01*
X119237500Y-118590060D01*
X119237500Y-118294895D01*
X119297011Y-118383959D01*
X119360467Y-118426359D01*
X119994999Y-119060892D01*
X119995000Y-123012560D01*
X118580000Y-123012560D01*
X118332235Y-123061843D01*
X118122191Y-123202191D01*
X117981843Y-123412235D01*
X117932560Y-123660000D01*
X117932560Y-125260000D01*
X117981843Y-125507765D01*
X118122191Y-125717809D01*
X118332235Y-125858157D01*
X118580000Y-125907440D01*
X119752638Y-125907440D01*
X121160001Y-127314804D01*
X121160000Y-130284841D01*
X121091536Y-130239095D01*
X120869851Y-130194999D01*
X120869846Y-130194999D01*
X120794999Y-130180111D01*
X120720152Y-130194999D01*
X113314846Y-130194999D01*
X113239999Y-130180111D01*
X113165152Y-130194999D01*
X113165147Y-130194999D01*
X112943462Y-130239095D01*
X112692070Y-130407070D01*
X112666035Y-130446035D01*
X112627070Y-130472070D01*
X112459095Y-130723463D01*
X112414999Y-130945148D01*
X112414999Y-130945152D01*
X112400111Y-131019999D01*
X112414999Y-131094846D01*
X112415000Y-133420147D01*
X112400111Y-133494999D01*
X112415000Y-133569851D01*
X112442715Y-133709184D01*
X112459096Y-133791536D01*
X112575002Y-133965001D01*
X112627071Y-134042928D01*
X112690527Y-134085328D01*
X126409671Y-147804473D01*
X126452071Y-147867929D01*
X126703463Y-148035904D01*
X126925148Y-148080000D01*
X126925153Y-148080000D01*
X127000000Y-148094888D01*
X127074847Y-148080000D01*
X130801570Y-148080000D01*
X130823466Y-148132862D01*
X131227138Y-148536534D01*
X131754561Y-148755000D01*
X132325439Y-148755000D01*
X132852862Y-148536534D01*
X133256534Y-148132862D01*
X133290000Y-148052068D01*
X133323466Y-148132862D01*
X133727138Y-148536534D01*
X134254561Y-148755000D01*
X134825439Y-148755000D01*
X135352862Y-148536534D01*
X135756534Y-148132862D01*
X135850000Y-147907215D01*
X135943466Y-148132862D01*
X136347138Y-148536534D01*
X136874561Y-148755000D01*
X137255033Y-148755000D01*
X138964032Y-150464000D01*
X139016891Y-150543109D01*
X139096000Y-150595968D01*
X139096001Y-150595969D01*
X139178919Y-150651373D01*
X139330304Y-150752525D01*
X139606682Y-150807500D01*
X139606686Y-150807500D01*
X139699999Y-150826061D01*
X139793312Y-150807500D01*
X145502534Y-150807500D01*
X147699032Y-153004000D01*
X147751891Y-153083109D01*
X147831000Y-153135968D01*
X147831001Y-153135969D01*
X147874599Y-153165100D01*
X148065304Y-153292525D01*
X148341682Y-153347500D01*
X148341686Y-153347500D01*
X148434999Y-153366061D01*
X148445188Y-153364034D01*
X148461843Y-153447765D01*
X148602191Y-153657809D01*
X148812235Y-153798157D01*
X149060000Y-153847440D01*
X150660000Y-153847440D01*
X150907765Y-153798157D01*
X151117809Y-153657809D01*
X151258157Y-153447765D01*
X151266117Y-153407745D01*
X151531861Y-153407745D01*
X151605995Y-153653864D01*
X152143223Y-153846965D01*
X152713454Y-153819778D01*
X153114005Y-153653864D01*
X153188139Y-153407745D01*
X152360000Y-152579605D01*
X151531861Y-153407745D01*
X151266117Y-153407745D01*
X151304693Y-153213813D01*
X151352255Y-153228139D01*
X152180395Y-152400000D01*
X152539605Y-152400000D01*
X153367745Y-153228139D01*
X153613864Y-153154005D01*
X153806965Y-152616777D01*
X153779778Y-152046546D01*
X153613864Y-151645995D01*
X153367745Y-151571861D01*
X152539605Y-152400000D01*
X152180395Y-152400000D01*
X151352255Y-151571861D01*
X151304693Y-151586187D01*
X151266118Y-151392255D01*
X151531861Y-151392255D01*
X152360000Y-152220395D01*
X153188139Y-151392255D01*
X153114005Y-151146136D01*
X152576777Y-150953035D01*
X152006546Y-150980222D01*
X151605995Y-151146136D01*
X151531861Y-151392255D01*
X151266118Y-151392255D01*
X151258157Y-151352235D01*
X151117809Y-151142191D01*
X151066835Y-151108131D01*
X151327467Y-150847500D01*
X156532501Y-150847500D01*
X156532501Y-150981899D01*
X156432235Y-151001843D01*
X156222191Y-151142191D01*
X156081843Y-151352235D01*
X156032560Y-151600000D01*
X156032560Y-153200000D01*
X156081843Y-153447765D01*
X156222191Y-153657809D01*
X156432235Y-153798157D01*
X156680000Y-153847440D01*
X158280000Y-153847440D01*
X158527765Y-153798157D01*
X158737809Y-153657809D01*
X158878157Y-153447765D01*
X158886117Y-153407745D01*
X159151861Y-153407745D01*
X159225995Y-153653864D01*
X159763223Y-153846965D01*
X160333454Y-153819778D01*
X160734005Y-153653864D01*
X160808139Y-153407745D01*
X159980000Y-152579605D01*
X159151861Y-153407745D01*
X158886117Y-153407745D01*
X158924693Y-153213813D01*
X158972255Y-153228139D01*
X159800395Y-152400000D01*
X160159605Y-152400000D01*
X160987745Y-153228139D01*
X161233864Y-153154005D01*
X161426965Y-152616777D01*
X161399778Y-152046546D01*
X161233864Y-151645995D01*
X160987745Y-151571861D01*
X160159605Y-152400000D01*
X159800395Y-152400000D01*
X158972255Y-151571861D01*
X158924693Y-151586187D01*
X158886118Y-151392255D01*
X159151861Y-151392255D01*
X159980000Y-152220395D01*
X160808139Y-151392255D01*
X160734005Y-151146136D01*
X160196777Y-150953035D01*
X159626546Y-150980222D01*
X159225995Y-151146136D01*
X159151861Y-151392255D01*
X158886118Y-151392255D01*
X158878157Y-151352235D01*
X158737809Y-151142191D01*
X158527765Y-151001843D01*
X158427500Y-150981899D01*
X158427500Y-150292466D01*
X165044967Y-143675000D01*
X165235033Y-143675000D01*
X166944032Y-145384000D01*
X166996891Y-145463109D01*
X167076000Y-145515968D01*
X167076001Y-145515969D01*
X167170792Y-145579306D01*
X167310304Y-145672525D01*
X167586682Y-145727500D01*
X167586686Y-145727500D01*
X167679999Y-145746061D01*
X167773312Y-145727500D01*
X185326683Y-145727500D01*
X185420000Y-145746062D01*
X185513317Y-145727500D01*
X185513318Y-145727500D01*
X185789696Y-145672525D01*
X186103109Y-145463109D01*
X186155972Y-145383994D01*
X187864967Y-143675000D01*
X188101333Y-143675000D01*
X188519909Y-143591740D01*
X188994577Y-143274577D01*
X189311740Y-142799909D01*
X189423113Y-142240000D01*
X189402682Y-142137286D01*
X189495968Y-142044000D01*
X189495972Y-142043995D01*
X189876497Y-141663469D01*
X189955610Y-141610608D01*
X190165026Y-141297195D01*
X190220001Y-141020817D01*
X190220001Y-141020813D01*
X190238562Y-140927500D01*
X190220001Y-140834187D01*
X190220001Y-131543317D01*
X190238563Y-131449999D01*
X190197481Y-131243463D01*
X190165026Y-131080303D01*
X189955610Y-130766890D01*
X189876499Y-130714030D01*
X184154830Y-124992362D01*
X184137398Y-124950278D01*
X184137398Y-119546522D01*
X187758946Y-119546522D01*
X187758946Y-120435660D01*
X188099205Y-121257117D01*
X188727920Y-121885832D01*
X189549377Y-122226091D01*
X190438515Y-122226091D01*
X191259972Y-121885832D01*
X191888687Y-121257117D01*
X192228946Y-120435660D01*
X192228946Y-119546522D01*
X191888687Y-118725065D01*
X191259972Y-118096350D01*
X190438515Y-117756091D01*
X189549377Y-117756091D01*
X188727920Y-118096350D01*
X188099205Y-118725065D01*
X187758946Y-119546522D01*
X184137398Y-119546522D01*
X184137398Y-103897920D01*
X184354407Y-104042921D01*
X185089897Y-104189219D01*
X185825386Y-104042921D01*
X186448906Y-103626299D01*
X186865528Y-103002780D01*
X186974897Y-102452945D01*
X186974897Y-102441330D01*
X188204782Y-102441330D01*
X188414880Y-103149484D01*
X188879984Y-103723332D01*
X189529286Y-104075511D01*
X189670252Y-104104985D01*
X189962897Y-103988862D01*
X189962897Y-102144290D01*
X190216897Y-102144290D01*
X190216897Y-103988862D01*
X190509542Y-104104985D01*
X190650508Y-104075511D01*
X191299810Y-103723332D01*
X191764914Y-103149484D01*
X191975012Y-102441330D01*
X191820279Y-102144290D01*
X190216897Y-102144290D01*
X189962897Y-102144290D01*
X188359515Y-102144290D01*
X188204782Y-102441330D01*
X186974897Y-102441330D01*
X186974897Y-101593250D01*
X188204782Y-101593250D01*
X188359515Y-101890290D01*
X189962897Y-101890290D01*
X189962897Y-100045718D01*
X190216897Y-100045718D01*
X190216897Y-101890290D01*
X191820279Y-101890290D01*
X191975012Y-101593250D01*
X191764914Y-100885096D01*
X191299810Y-100311248D01*
X190650508Y-99959069D01*
X190509542Y-99929595D01*
X190216897Y-100045718D01*
X189962897Y-100045718D01*
X189670252Y-99929595D01*
X189529286Y-99959069D01*
X188879984Y-100311248D01*
X188414880Y-100885096D01*
X188204782Y-101593250D01*
X186974897Y-101593250D01*
X186974897Y-101581636D01*
X186865528Y-101031800D01*
X186448906Y-100408281D01*
X185849897Y-100008036D01*
X185849897Y-91526543D01*
X186448906Y-91126299D01*
X186865528Y-90502780D01*
X186974897Y-89952945D01*
X186974897Y-89941330D01*
X188204782Y-89941330D01*
X188414880Y-90649484D01*
X188879984Y-91223332D01*
X189529286Y-91575511D01*
X189670252Y-91604985D01*
X189962897Y-91488862D01*
X189962897Y-89644290D01*
X190216897Y-89644290D01*
X190216897Y-91488862D01*
X190509542Y-91604985D01*
X190650508Y-91575511D01*
X191299810Y-91223332D01*
X191764914Y-90649484D01*
X191975012Y-89941330D01*
X191820279Y-89644290D01*
X190216897Y-89644290D01*
X189962897Y-89644290D01*
X188359515Y-89644290D01*
X188204782Y-89941330D01*
X186974897Y-89941330D01*
X186974897Y-89093250D01*
X188204782Y-89093250D01*
X188359515Y-89390290D01*
X189962897Y-89390290D01*
X189962897Y-87545718D01*
X190216897Y-87545718D01*
X190216897Y-89390290D01*
X191820279Y-89390290D01*
X191975012Y-89093250D01*
X191764914Y-88385096D01*
X191299810Y-87811248D01*
X190650508Y-87459069D01*
X190509542Y-87429595D01*
X190216897Y-87545718D01*
X189962897Y-87545718D01*
X189670252Y-87429595D01*
X189529286Y-87459069D01*
X188879984Y-87811248D01*
X188414880Y-88385096D01*
X188204782Y-89093250D01*
X186974897Y-89093250D01*
X186974897Y-89081636D01*
X186865528Y-88531800D01*
X186448906Y-87908281D01*
X185825387Y-87491659D01*
X185089897Y-87345361D01*
X184354408Y-87491659D01*
X184137398Y-87636660D01*
X184137398Y-86052290D01*
X184395227Y-86052290D01*
X184959404Y-85818600D01*
X185391207Y-85386797D01*
X185624897Y-84822620D01*
X185624897Y-84211960D01*
X185391207Y-83647783D01*
X184959404Y-83215980D01*
X184395227Y-82982290D01*
X183894864Y-82982290D01*
X183413368Y-82500794D01*
X183360505Y-82421680D01*
X183047092Y-82212264D01*
X182770714Y-82157289D01*
X182770713Y-82157289D01*
X182677396Y-82138727D01*
X182584079Y-82157289D01*
X171595710Y-82157289D01*
X171502397Y-82138728D01*
X171409085Y-82157289D01*
X171409080Y-82157289D01*
X171132702Y-82212264D01*
X170819289Y-82421680D01*
X170766428Y-82500792D01*
X170284930Y-82982290D01*
X169784567Y-82982290D01*
X169220390Y-83215980D01*
X168839897Y-83596473D01*
X168459404Y-83215980D01*
X167895227Y-82982290D01*
X167284567Y-82982290D01*
X166720390Y-83215980D01*
X166288587Y-83647783D01*
X166285358Y-83655580D01*
X166170056Y-83616736D01*
X165269502Y-84517290D01*
X166170056Y-85417844D01*
X166285358Y-85379000D01*
X166288587Y-85386797D01*
X166720390Y-85818600D01*
X166829897Y-85863959D01*
X166829898Y-99919838D01*
X166815009Y-99994690D01*
X166873994Y-100291227D01*
X166923133Y-100364768D01*
X167041969Y-100542619D01*
X167105425Y-100585019D01*
X175864999Y-109344594D01*
X175864999Y-120048254D01*
X175839418Y-120031161D01*
X175406256Y-119945000D01*
X175113744Y-119945000D01*
X174680582Y-120031161D01*
X174189375Y-120359375D01*
X174177184Y-120377619D01*
X174168157Y-120332235D01*
X174027809Y-120122191D01*
X173817765Y-119981843D01*
X173570000Y-119932560D01*
X171870000Y-119932560D01*
X171622235Y-119981843D01*
X171412191Y-120122191D01*
X171271843Y-120332235D01*
X171245621Y-120464063D01*
X171244999Y-120463939D01*
X171151686Y-120482500D01*
X171151682Y-120482500D01*
X170875304Y-120537475D01*
X170838742Y-120561905D01*
X170641001Y-120694031D01*
X170641000Y-120694032D01*
X170561891Y-120746891D01*
X170509032Y-120826000D01*
X168587500Y-122747533D01*
X168587500Y-120798101D01*
X168687765Y-120778157D01*
X168897809Y-120637809D01*
X169038157Y-120427765D01*
X169087440Y-120180000D01*
X169087440Y-118580000D01*
X169038157Y-118332235D01*
X168897809Y-118122191D01*
X168687765Y-117981843D01*
X168440000Y-117932560D01*
X166840000Y-117932560D01*
X166592235Y-117981843D01*
X166382191Y-118122191D01*
X166241843Y-118332235D01*
X166195307Y-118566187D01*
X166147745Y-118551861D01*
X165319605Y-119380000D01*
X166147745Y-120208139D01*
X166195307Y-120193813D01*
X166241843Y-120427765D01*
X166382191Y-120637809D01*
X166592235Y-120778157D01*
X166692500Y-120798101D01*
X166692501Y-124780587D01*
X166633938Y-125075000D01*
X166652501Y-125168322D01*
X166652501Y-127252534D01*
X160967500Y-121567534D01*
X160967500Y-120798101D01*
X161067765Y-120778157D01*
X161277809Y-120637809D01*
X161418157Y-120427765D01*
X161426117Y-120387745D01*
X164311861Y-120387745D01*
X164385995Y-120633864D01*
X164923223Y-120826965D01*
X165493454Y-120799778D01*
X165894005Y-120633864D01*
X165968139Y-120387745D01*
X165140000Y-119559605D01*
X164311861Y-120387745D01*
X161426117Y-120387745D01*
X161467440Y-120180000D01*
X161467440Y-119163223D01*
X163693035Y-119163223D01*
X163720222Y-119733454D01*
X163886136Y-120134005D01*
X164132255Y-120208139D01*
X164960395Y-119380000D01*
X164132255Y-118551861D01*
X163886136Y-118625995D01*
X163693035Y-119163223D01*
X161467440Y-119163223D01*
X161467440Y-118580000D01*
X161426118Y-118372255D01*
X164311861Y-118372255D01*
X165140000Y-119200395D01*
X165968139Y-118372255D01*
X165894005Y-118126136D01*
X165356777Y-117933035D01*
X164786546Y-117960222D01*
X164385995Y-118126136D01*
X164311861Y-118372255D01*
X161426118Y-118372255D01*
X161418157Y-118332235D01*
X161277809Y-118122191D01*
X161067765Y-117981843D01*
X160820000Y-117932560D01*
X159654999Y-117932560D01*
X159654999Y-116144845D01*
X159669887Y-116069997D01*
X159654999Y-115995149D01*
X159654999Y-115995145D01*
X159610903Y-115773460D01*
X159610903Y-115773459D01*
X159485328Y-115585524D01*
X159442928Y-115522068D01*
X159379472Y-115479668D01*
X158234802Y-114334999D01*
X166600198Y-114334999D01*
X169145000Y-116879802D01*
X169145000Y-117045874D01*
X169302569Y-117426280D01*
X169593720Y-117717431D01*
X169974126Y-117875000D01*
X170385874Y-117875000D01*
X170766280Y-117717431D01*
X171057431Y-117426280D01*
X171215000Y-117045874D01*
X171215000Y-116634126D01*
X171057431Y-116253720D01*
X170766280Y-115962569D01*
X170385874Y-115805000D01*
X170219802Y-115805000D01*
X167505330Y-113090529D01*
X167462928Y-113027070D01*
X167211536Y-112859095D01*
X166989851Y-112814999D01*
X166989846Y-112814999D01*
X166914999Y-112800111D01*
X166840152Y-112814999D01*
X140499849Y-112814999D01*
X140425001Y-112800111D01*
X140350153Y-112814999D01*
X140350149Y-112814999D01*
X140176606Y-112849519D01*
X140128463Y-112859095D01*
X139941419Y-112984075D01*
X139877072Y-113027070D01*
X139834672Y-113090526D01*
X137483887Y-115441312D01*
X137301333Y-115405000D01*
X137018667Y-115405000D01*
X136600091Y-115488260D01*
X136125423Y-115805423D01*
X135808260Y-116280091D01*
X135696887Y-116840000D01*
X135769490Y-117205001D01*
X128402044Y-117205001D01*
X128435000Y-117125439D01*
X128435000Y-116554561D01*
X128402044Y-116474999D01*
X129794741Y-116474999D01*
X129869588Y-116489887D01*
X129944435Y-116474999D01*
X129944440Y-116474999D01*
X130166125Y-116430903D01*
X130417517Y-116262928D01*
X130459919Y-116199469D01*
X138149380Y-108510009D01*
X138212836Y-108467609D01*
X138255831Y-108403262D01*
X138380811Y-108216218D01*
X138390387Y-108168075D01*
X138424907Y-107994532D01*
X138424907Y-107994528D01*
X138439795Y-107919680D01*
X138424907Y-107844832D01*
X138424907Y-104555431D01*
X147765000Y-104555431D01*
X147765000Y-105444569D01*
X148105259Y-106266026D01*
X148733974Y-106894741D01*
X149555431Y-107235000D01*
X150444569Y-107235000D01*
X151266026Y-106894741D01*
X151894741Y-106266026D01*
X152235000Y-105444569D01*
X152235000Y-104555431D01*
X151894741Y-103733974D01*
X151266026Y-103105259D01*
X150444569Y-102765000D01*
X149555431Y-102765000D01*
X148733974Y-103105259D01*
X148105259Y-103733974D01*
X147765000Y-104555431D01*
X138424907Y-104555431D01*
X138424907Y-102441330D01*
X139204782Y-102441330D01*
X139414880Y-103149484D01*
X139879984Y-103723332D01*
X140529286Y-104075511D01*
X140670252Y-104104985D01*
X140962897Y-103988862D01*
X140962897Y-102144290D01*
X141216897Y-102144290D01*
X141216897Y-103988862D01*
X141509542Y-104104985D01*
X141650508Y-104075511D01*
X142299810Y-103723332D01*
X142764914Y-103149484D01*
X142975012Y-102441330D01*
X142820279Y-102144290D01*
X141216897Y-102144290D01*
X140962897Y-102144290D01*
X139359515Y-102144290D01*
X139204782Y-102441330D01*
X138424907Y-102441330D01*
X138424907Y-101593250D01*
X139204782Y-101593250D01*
X139359515Y-101890290D01*
X140962897Y-101890290D01*
X140962897Y-100045718D01*
X141216897Y-100045718D01*
X141216897Y-101890290D01*
X142820279Y-101890290D01*
X142975012Y-101593250D01*
X142764914Y-100885096D01*
X142299810Y-100311248D01*
X141650508Y-99959069D01*
X141509542Y-99929595D01*
X141216897Y-100045718D01*
X140962897Y-100045718D01*
X140670252Y-99929595D01*
X140529286Y-99959069D01*
X139879984Y-100311248D01*
X139414880Y-100885096D01*
X139204782Y-101593250D01*
X138424907Y-101593250D01*
X138424907Y-89941330D01*
X139204782Y-89941330D01*
X139414880Y-90649484D01*
X139879984Y-91223332D01*
X140529286Y-91575511D01*
X140670252Y-91604985D01*
X140962897Y-91488862D01*
X140962897Y-89644290D01*
X141216897Y-89644290D01*
X141216897Y-91488862D01*
X141509542Y-91604985D01*
X141650508Y-91575511D01*
X142299810Y-91223332D01*
X142764914Y-90649484D01*
X142975012Y-89941330D01*
X142820279Y-89644290D01*
X141216897Y-89644290D01*
X140962897Y-89644290D01*
X139359515Y-89644290D01*
X139204782Y-89941330D01*
X138424907Y-89941330D01*
X138424907Y-89093250D01*
X139204782Y-89093250D01*
X139359515Y-89390290D01*
X140962897Y-89390290D01*
X140962897Y-87545718D01*
X141216897Y-87545718D01*
X141216897Y-89390290D01*
X142820279Y-89390290D01*
X142975012Y-89093250D01*
X142971567Y-89081635D01*
X157204897Y-89081635D01*
X157204897Y-89952944D01*
X157314266Y-90502779D01*
X157730888Y-91126299D01*
X158329898Y-91526545D01*
X158329897Y-100008037D01*
X157730888Y-100408281D01*
X157314266Y-101031800D01*
X157204897Y-101581635D01*
X157204897Y-102452944D01*
X157314266Y-103002779D01*
X157730888Y-103626299D01*
X158354407Y-104042921D01*
X159089897Y-104189219D01*
X159825386Y-104042921D01*
X160448906Y-103626299D01*
X160865528Y-103002780D01*
X160974897Y-102452945D01*
X160974897Y-102441330D01*
X162204782Y-102441330D01*
X162414880Y-103149484D01*
X162879984Y-103723332D01*
X163529286Y-104075511D01*
X163670252Y-104104985D01*
X163962897Y-103988862D01*
X163962897Y-102144290D01*
X164216897Y-102144290D01*
X164216897Y-103988862D01*
X164509542Y-104104985D01*
X164650508Y-104075511D01*
X165299810Y-103723332D01*
X165764914Y-103149484D01*
X165975012Y-102441330D01*
X165820279Y-102144290D01*
X164216897Y-102144290D01*
X163962897Y-102144290D01*
X162359515Y-102144290D01*
X162204782Y-102441330D01*
X160974897Y-102441330D01*
X160974897Y-101593250D01*
X162204782Y-101593250D01*
X162359515Y-101890290D01*
X163962897Y-101890290D01*
X163962897Y-100045718D01*
X164216897Y-100045718D01*
X164216897Y-101890290D01*
X165820279Y-101890290D01*
X165975012Y-101593250D01*
X165764914Y-100885096D01*
X165299810Y-100311248D01*
X164650508Y-99959069D01*
X164509542Y-99929595D01*
X164216897Y-100045718D01*
X163962897Y-100045718D01*
X163670252Y-99929595D01*
X163529286Y-99959069D01*
X162879984Y-100311248D01*
X162414880Y-100885096D01*
X162204782Y-101593250D01*
X160974897Y-101593250D01*
X160974897Y-101581636D01*
X160865528Y-101031800D01*
X160448906Y-100408281D01*
X159849897Y-100008036D01*
X159849897Y-91526543D01*
X160448906Y-91126299D01*
X160865528Y-90502780D01*
X160974897Y-89952945D01*
X160974897Y-89941330D01*
X162204782Y-89941330D01*
X162414880Y-90649484D01*
X162879984Y-91223332D01*
X163529286Y-91575511D01*
X163670252Y-91604985D01*
X163962897Y-91488862D01*
X163962897Y-89644290D01*
X164216897Y-89644290D01*
X164216897Y-91488862D01*
X164509542Y-91604985D01*
X164650508Y-91575511D01*
X165299810Y-91223332D01*
X165764914Y-90649484D01*
X165975012Y-89941330D01*
X165820279Y-89644290D01*
X164216897Y-89644290D01*
X163962897Y-89644290D01*
X162359515Y-89644290D01*
X162204782Y-89941330D01*
X160974897Y-89941330D01*
X160974897Y-89093250D01*
X162204782Y-89093250D01*
X162359515Y-89390290D01*
X163962897Y-89390290D01*
X163962897Y-87545718D01*
X164216897Y-87545718D01*
X164216897Y-89390290D01*
X165820279Y-89390290D01*
X165975012Y-89093250D01*
X165764914Y-88385096D01*
X165299810Y-87811248D01*
X164650508Y-87459069D01*
X164509542Y-87429595D01*
X164216897Y-87545718D01*
X163962897Y-87545718D01*
X163670252Y-87429595D01*
X163529286Y-87459069D01*
X162879984Y-87811248D01*
X162414880Y-88385096D01*
X162204782Y-89093250D01*
X160974897Y-89093250D01*
X160974897Y-89081636D01*
X160865528Y-88531800D01*
X160448906Y-87908281D01*
X159825387Y-87491659D01*
X159089897Y-87345361D01*
X158354408Y-87491659D01*
X157730888Y-87908281D01*
X157314266Y-88531800D01*
X157204897Y-89081635D01*
X142971567Y-89081635D01*
X142764914Y-88385096D01*
X142299810Y-87811248D01*
X141650508Y-87459069D01*
X141509542Y-87429595D01*
X141216897Y-87545718D01*
X140962897Y-87545718D01*
X140670252Y-87429595D01*
X140529286Y-87459069D01*
X139879984Y-87811248D01*
X139414880Y-88385096D01*
X139204782Y-89093250D01*
X138424907Y-89093250D01*
X138424907Y-86169894D01*
X138997352Y-85597449D01*
X164189343Y-85597449D01*
X164275749Y-85853933D01*
X164849233Y-86063748D01*
X165459357Y-86038129D01*
X165904045Y-85853933D01*
X165990451Y-85597449D01*
X165089897Y-84696895D01*
X164189343Y-85597449D01*
X138997352Y-85597449D01*
X140318175Y-84276626D01*
X163543439Y-84276626D01*
X163569058Y-84886750D01*
X163753254Y-85331438D01*
X164009738Y-85417844D01*
X164910292Y-84517290D01*
X164009738Y-83616736D01*
X163753254Y-83703142D01*
X163543439Y-84276626D01*
X140318175Y-84276626D01*
X141157670Y-83437131D01*
X164189343Y-83437131D01*
X165089897Y-84337685D01*
X165990451Y-83437131D01*
X165904045Y-83180647D01*
X165330561Y-82970832D01*
X164720437Y-82996451D01*
X164275749Y-83180647D01*
X164189343Y-83437131D01*
X141157670Y-83437131D01*
X145484473Y-79110329D01*
X145547929Y-79067929D01*
X145715904Y-78816537D01*
X145760000Y-78594852D01*
X145760000Y-78594848D01*
X145774888Y-78520001D01*
X145760000Y-78445154D01*
X145760000Y-74555431D01*
X147765000Y-74555431D01*
X147765000Y-75444569D01*
X148105259Y-76266026D01*
X148733974Y-76894741D01*
X149555431Y-77235000D01*
X150444569Y-77235000D01*
X151028431Y-76993156D01*
X160554897Y-76993156D01*
X160554897Y-78041424D01*
X160956052Y-79009898D01*
X161697289Y-79751135D01*
X162665763Y-80152290D01*
X163714031Y-80152290D01*
X164682505Y-79751135D01*
X165423742Y-79009898D01*
X165824897Y-78041424D01*
X165824897Y-76993156D01*
X169354897Y-76993156D01*
X169354897Y-78041424D01*
X169756052Y-79009898D01*
X170497289Y-79751135D01*
X171465763Y-80152290D01*
X172514031Y-80152290D01*
X173482505Y-79751135D01*
X174223742Y-79009898D01*
X174589897Y-78125921D01*
X174956052Y-79009898D01*
X175697289Y-79751135D01*
X176665763Y-80152290D01*
X177714031Y-80152290D01*
X178682505Y-79751135D01*
X179423742Y-79009898D01*
X179824897Y-78041424D01*
X179824897Y-76993156D01*
X183354897Y-76993156D01*
X183354897Y-78041424D01*
X183756052Y-79009898D01*
X184497289Y-79751135D01*
X185465763Y-80152290D01*
X186514031Y-80152290D01*
X187482505Y-79751135D01*
X188223742Y-79009898D01*
X188624897Y-78041424D01*
X188624897Y-76993156D01*
X188223742Y-76024682D01*
X187482505Y-75283445D01*
X186514031Y-74882290D01*
X185465763Y-74882290D01*
X184497289Y-75283445D01*
X183756052Y-76024682D01*
X183354897Y-76993156D01*
X179824897Y-76993156D01*
X179423742Y-76024682D01*
X178682505Y-75283445D01*
X177714031Y-74882290D01*
X176665763Y-74882290D01*
X175697289Y-75283445D01*
X174956052Y-76024682D01*
X174589897Y-76908659D01*
X174223742Y-76024682D01*
X173482505Y-75283445D01*
X172514031Y-74882290D01*
X171465763Y-74882290D01*
X170497289Y-75283445D01*
X169756052Y-76024682D01*
X169354897Y-76993156D01*
X165824897Y-76993156D01*
X165423742Y-76024682D01*
X164682505Y-75283445D01*
X163714031Y-74882290D01*
X162665763Y-74882290D01*
X161697289Y-75283445D01*
X160956052Y-76024682D01*
X160554897Y-76993156D01*
X151028431Y-76993156D01*
X151266026Y-76894741D01*
X151894741Y-76266026D01*
X152235000Y-75444569D01*
X152235000Y-74555431D01*
X151894741Y-73733974D01*
X151266026Y-73105259D01*
X150444569Y-72765000D01*
X149555431Y-72765000D01*
X148733974Y-73105259D01*
X148105259Y-73733974D01*
X147765000Y-74555431D01*
X145760000Y-74555431D01*
X145760000Y-66153040D01*
X147215000Y-66153040D01*
X147215000Y-66893600D01*
X147311673Y-67126989D01*
X147490302Y-67305617D01*
X147723691Y-67402290D01*
X148464250Y-67402290D01*
X148623000Y-67243540D01*
X148623000Y-65994290D01*
X147373750Y-65994290D01*
X147215000Y-66153040D01*
X145760000Y-66153040D01*
X145760000Y-64840980D01*
X147215000Y-64840980D01*
X147215000Y-65581540D01*
X147373750Y-65740290D01*
X148623000Y-65740290D01*
X148623000Y-64491040D01*
X148877000Y-64491040D01*
X148877000Y-65740290D01*
X148897000Y-65740290D01*
X148897000Y-65994290D01*
X148877000Y-65994290D01*
X148877000Y-67243540D01*
X149035750Y-67402290D01*
X149776309Y-67402290D01*
X150009698Y-67305617D01*
X150188327Y-67126989D01*
X150244139Y-66992246D01*
X150420493Y-67168600D01*
X150984670Y-67402290D01*
X151595330Y-67402290D01*
X152159507Y-67168600D01*
X152591310Y-66736797D01*
X152825000Y-66172620D01*
X152825000Y-66153040D01*
X157215000Y-66153040D01*
X157215000Y-66893600D01*
X157311673Y-67126989D01*
X157490302Y-67305617D01*
X157723691Y-67402290D01*
X158464250Y-67402290D01*
X158623000Y-67243540D01*
X158623000Y-65994290D01*
X157373750Y-65994290D01*
X157215000Y-66153040D01*
X152825000Y-66153040D01*
X152825000Y-65561960D01*
X152591310Y-64997783D01*
X152434507Y-64840980D01*
X157215000Y-64840980D01*
X157215000Y-65581540D01*
X157373750Y-65740290D01*
X158623000Y-65740290D01*
X158623000Y-64491040D01*
X158877000Y-64491040D01*
X158877000Y-65740290D01*
X158897000Y-65740290D01*
X158897000Y-65994290D01*
X158877000Y-65994290D01*
X158877000Y-67243540D01*
X159035750Y-67402290D01*
X159776309Y-67402290D01*
X160009698Y-67305617D01*
X160188327Y-67126989D01*
X160244139Y-66992246D01*
X160420493Y-67168600D01*
X160984670Y-67402290D01*
X161595330Y-67402290D01*
X162159507Y-67168600D01*
X162591310Y-66736797D01*
X162825000Y-66172620D01*
X162825000Y-66153040D01*
X167215000Y-66153040D01*
X167215000Y-66893600D01*
X167311673Y-67126989D01*
X167490302Y-67305617D01*
X167723691Y-67402290D01*
X168464250Y-67402290D01*
X168623000Y-67243540D01*
X168623000Y-65994290D01*
X167373750Y-65994290D01*
X167215000Y-66153040D01*
X162825000Y-66153040D01*
X162825000Y-65561960D01*
X162591310Y-64997783D01*
X162434507Y-64840980D01*
X167215000Y-64840980D01*
X167215000Y-65581540D01*
X167373750Y-65740290D01*
X168623000Y-65740290D01*
X168623000Y-64491040D01*
X168877000Y-64491040D01*
X168877000Y-65740290D01*
X168897000Y-65740290D01*
X168897000Y-65994290D01*
X168877000Y-65994290D01*
X168877000Y-67243540D01*
X169035750Y-67402290D01*
X169776309Y-67402290D01*
X170009698Y-67305617D01*
X170188327Y-67126989D01*
X170244139Y-66992246D01*
X170420493Y-67168600D01*
X170984670Y-67402290D01*
X171595330Y-67402290D01*
X172159507Y-67168600D01*
X172591310Y-66736797D01*
X172825000Y-66172620D01*
X172825000Y-66080159D01*
X183099446Y-66080159D01*
X183185852Y-66336643D01*
X183759336Y-66546458D01*
X184369460Y-66520839D01*
X184814148Y-66336643D01*
X184900554Y-66080159D01*
X184000000Y-65179605D01*
X183099446Y-66080159D01*
X172825000Y-66080159D01*
X172825000Y-65561960D01*
X172591310Y-64997783D01*
X172352863Y-64759336D01*
X182453542Y-64759336D01*
X182479161Y-65369460D01*
X182663357Y-65814148D01*
X182919841Y-65900554D01*
X183820395Y-65000000D01*
X184179605Y-65000000D01*
X185080159Y-65900554D01*
X185195461Y-65861710D01*
X185198690Y-65869507D01*
X185630493Y-66301310D01*
X186194670Y-66535000D01*
X186805330Y-66535000D01*
X187369507Y-66301310D01*
X187750000Y-65920817D01*
X188130493Y-66301310D01*
X188694670Y-66535000D01*
X189305330Y-66535000D01*
X189869507Y-66301310D01*
X190301310Y-65869507D01*
X190535000Y-65305330D01*
X190535000Y-64694670D01*
X190301310Y-64130493D01*
X189869507Y-63698690D01*
X189305330Y-63465000D01*
X188694670Y-63465000D01*
X188130493Y-63698690D01*
X187750000Y-64079183D01*
X187369507Y-63698690D01*
X186805330Y-63465000D01*
X186194670Y-63465000D01*
X185630493Y-63698690D01*
X185198690Y-64130493D01*
X185195461Y-64138290D01*
X185080159Y-64099446D01*
X184179605Y-65000000D01*
X183820395Y-65000000D01*
X182919841Y-64099446D01*
X182663357Y-64185852D01*
X182453542Y-64759336D01*
X172352863Y-64759336D01*
X172159507Y-64565980D01*
X171595330Y-64332290D01*
X170984670Y-64332290D01*
X170420493Y-64565980D01*
X170244139Y-64742334D01*
X170188327Y-64607591D01*
X170009698Y-64428963D01*
X169776309Y-64332290D01*
X169035750Y-64332290D01*
X168877000Y-64491040D01*
X168623000Y-64491040D01*
X168464250Y-64332290D01*
X167723691Y-64332290D01*
X167490302Y-64428963D01*
X167311673Y-64607591D01*
X167215000Y-64840980D01*
X162434507Y-64840980D01*
X162159507Y-64565980D01*
X161595330Y-64332290D01*
X160984670Y-64332290D01*
X160420493Y-64565980D01*
X160244139Y-64742334D01*
X160188327Y-64607591D01*
X160009698Y-64428963D01*
X159776309Y-64332290D01*
X159035750Y-64332290D01*
X158877000Y-64491040D01*
X158623000Y-64491040D01*
X158464250Y-64332290D01*
X157723691Y-64332290D01*
X157490302Y-64428963D01*
X157311673Y-64607591D01*
X157215000Y-64840980D01*
X152434507Y-64840980D01*
X152159507Y-64565980D01*
X151595330Y-64332290D01*
X150984670Y-64332290D01*
X150420493Y-64565980D01*
X150244139Y-64742334D01*
X150188327Y-64607591D01*
X150009698Y-64428963D01*
X149776309Y-64332290D01*
X149035750Y-64332290D01*
X148877000Y-64491040D01*
X148623000Y-64491040D01*
X148464250Y-64332290D01*
X147723691Y-64332290D01*
X147490302Y-64428963D01*
X147311673Y-64607591D01*
X147215000Y-64840980D01*
X145760000Y-64840980D01*
X145760000Y-63919841D01*
X183099446Y-63919841D01*
X184000000Y-64820395D01*
X184900554Y-63919841D01*
X184814148Y-63663357D01*
X184240664Y-63453542D01*
X183630540Y-63479161D01*
X183185852Y-63663357D01*
X183099446Y-63919841D01*
X145760000Y-63919841D01*
X145760000Y-57475866D01*
X179465000Y-57475866D01*
X179465000Y-58524134D01*
X179866155Y-59492608D01*
X180607392Y-60233845D01*
X181575866Y-60635000D01*
X182624134Y-60635000D01*
X183592608Y-60233845D01*
X184333845Y-59492608D01*
X184735000Y-58524134D01*
X184735000Y-57475866D01*
X188265000Y-57475866D01*
X188265000Y-58524134D01*
X188666155Y-59492608D01*
X189407392Y-60233845D01*
X190375866Y-60635000D01*
X191424134Y-60635000D01*
X192392608Y-60233845D01*
X193133845Y-59492608D01*
X193535000Y-58524134D01*
X193535000Y-57475866D01*
X193133845Y-56507392D01*
X192392608Y-55766155D01*
X191424134Y-55365000D01*
X190375866Y-55365000D01*
X189407392Y-55766155D01*
X188666155Y-56507392D01*
X188265000Y-57475866D01*
X184735000Y-57475866D01*
X184333845Y-56507392D01*
X183592608Y-55766155D01*
X182624134Y-55365000D01*
X181575866Y-55365000D01*
X180607392Y-55766155D01*
X179866155Y-56507392D01*
X179465000Y-57475866D01*
X145760000Y-57475866D01*
X145760000Y-51105049D01*
X145840912Y-51159112D01*
X145903473Y-51200914D01*
X146125158Y-51245010D01*
X146125162Y-51245010D01*
X146200009Y-51259898D01*
X146274856Y-51245010D01*
X153725143Y-51245010D01*
X153799990Y-51259898D01*
X153874837Y-51245010D01*
X153874842Y-51245010D01*
X154096527Y-51200914D01*
X154347919Y-51032939D01*
X154390321Y-50969480D01*
X154612332Y-50747470D01*
X155000000Y-50824582D01*
X155589172Y-50707388D01*
X156088649Y-50373649D01*
X156422388Y-49874173D01*
X156510000Y-49433718D01*
X156510000Y-47386282D01*
X156422388Y-46945827D01*
X156088649Y-46446351D01*
X155589173Y-46112612D01*
X155000000Y-45995418D01*
X154410828Y-46112612D01*
X153911352Y-46446351D01*
X153750001Y-46687831D01*
X153588649Y-46446351D01*
X153089173Y-46112612D01*
X152500000Y-45995418D01*
X151910828Y-46112612D01*
X151411352Y-46446351D01*
X151077613Y-46945827D01*
X150990000Y-47386282D01*
X150990000Y-49433717D01*
X151047942Y-49725010D01*
X148952058Y-49725010D01*
X149010000Y-49433718D01*
X149010000Y-47386282D01*
X148922388Y-46945827D01*
X148588649Y-46446351D01*
X148089173Y-46112612D01*
X147500000Y-45995418D01*
X146910828Y-46112612D01*
X146411352Y-46446351D01*
X146250001Y-46687831D01*
X146088649Y-46446351D01*
X145589173Y-46112612D01*
X145000000Y-45995418D01*
X144410828Y-46112612D01*
X143911352Y-46446351D01*
X143577613Y-46945827D01*
X143490000Y-47386282D01*
X143490000Y-49433717D01*
X143577612Y-49874172D01*
X143911351Y-50373649D01*
X144240001Y-50593246D01*
X144240000Y-78205198D01*
X137180435Y-85264764D01*
X137116979Y-85307164D01*
X137074579Y-85370620D01*
X137074578Y-85370621D01*
X136949004Y-85558556D01*
X136890019Y-85855093D01*
X136904908Y-85929945D01*
X136904908Y-87544793D01*
X136825387Y-87491659D01*
X136089897Y-87345361D01*
X135354408Y-87491659D01*
X134730888Y-87908281D01*
X134314266Y-88531800D01*
X134204897Y-89081635D01*
X134204897Y-89952944D01*
X134314266Y-90502779D01*
X134730888Y-91126299D01*
X135329898Y-91526544D01*
X135329897Y-98205088D01*
X128682803Y-91557994D01*
X129299810Y-91223332D01*
X129764914Y-90649484D01*
X129975012Y-89941330D01*
X129820279Y-89644290D01*
X128216897Y-89644290D01*
X128216897Y-89664290D01*
X127962897Y-89664290D01*
X127962897Y-89644290D01*
X127942897Y-89644290D01*
X127942897Y-89390290D01*
X127962897Y-89390290D01*
X127962897Y-87545718D01*
X128216897Y-87545718D01*
X128216897Y-89390290D01*
X129820279Y-89390290D01*
X129975012Y-89093250D01*
X129764914Y-88385096D01*
X129299810Y-87811248D01*
X128650508Y-87459069D01*
X128509542Y-87429595D01*
X128216897Y-87545718D01*
X127962897Y-87545718D01*
X127670252Y-87429595D01*
X127529286Y-87459069D01*
X126879984Y-87811248D01*
X126414880Y-88385096D01*
X126207820Y-89083011D01*
X124332618Y-87207810D01*
X124290216Y-87144351D01*
X124038824Y-86976376D01*
X123817139Y-86932280D01*
X123817134Y-86932280D01*
X123742287Y-86917392D01*
X123667440Y-86932280D01*
X122079689Y-86932280D01*
X121199699Y-86052290D01*
X121395227Y-86052290D01*
X121959404Y-85818600D01*
X122180555Y-85597449D01*
X129189343Y-85597449D01*
X129275749Y-85853933D01*
X129849233Y-86063748D01*
X130459357Y-86038129D01*
X130904045Y-85853933D01*
X130990451Y-85597449D01*
X130089897Y-84696895D01*
X129189343Y-85597449D01*
X122180555Y-85597449D01*
X122391207Y-85386797D01*
X122624897Y-84822620D01*
X122624897Y-84322257D01*
X122894865Y-84052289D01*
X128625515Y-84052289D01*
X128543439Y-84276626D01*
X128569058Y-84886750D01*
X128753254Y-85331438D01*
X129009738Y-85417844D01*
X129910292Y-84517290D01*
X129896150Y-84503148D01*
X130075755Y-84323543D01*
X130089897Y-84337685D01*
X130104040Y-84323543D01*
X130283645Y-84503148D01*
X130269502Y-84517290D01*
X131170056Y-85417844D01*
X131285358Y-85379000D01*
X131288587Y-85386797D01*
X131720390Y-85818600D01*
X132284567Y-86052290D01*
X132895227Y-86052290D01*
X133459404Y-85818600D01*
X133839897Y-85438107D01*
X134220390Y-85818600D01*
X134784567Y-86052290D01*
X135395227Y-86052290D01*
X135959404Y-85818600D01*
X136391207Y-85386797D01*
X136624897Y-84822620D01*
X136624897Y-84211960D01*
X136391207Y-83647783D01*
X135959404Y-83215980D01*
X135395227Y-82982290D01*
X134894864Y-82982290D01*
X134413368Y-82500794D01*
X134360505Y-82421680D01*
X134047092Y-82212264D01*
X133770714Y-82157289D01*
X133770713Y-82157289D01*
X133677396Y-82138727D01*
X133584079Y-82157289D01*
X122595710Y-82157289D01*
X122502397Y-82138728D01*
X122409085Y-82157289D01*
X122409080Y-82157289D01*
X122132702Y-82212264D01*
X121819289Y-82421680D01*
X121766428Y-82500792D01*
X121284930Y-82982290D01*
X120894864Y-82982290D01*
X120327500Y-82414927D01*
X120327500Y-76993156D01*
X120354897Y-76993156D01*
X120354897Y-78041424D01*
X120756052Y-79009898D01*
X121497289Y-79751135D01*
X122465763Y-80152290D01*
X123514031Y-80152290D01*
X124482505Y-79751135D01*
X125223742Y-79009898D01*
X125589897Y-78125921D01*
X125956052Y-79009898D01*
X126697289Y-79751135D01*
X127665763Y-80152290D01*
X128714031Y-80152290D01*
X129682505Y-79751135D01*
X130423742Y-79009898D01*
X130824897Y-78041424D01*
X130824897Y-76993156D01*
X134354897Y-76993156D01*
X134354897Y-78041424D01*
X134756052Y-79009898D01*
X135497289Y-79751135D01*
X136465763Y-80152290D01*
X137514031Y-80152290D01*
X138482505Y-79751135D01*
X139223742Y-79009898D01*
X139624897Y-78041424D01*
X139624897Y-76993156D01*
X139223742Y-76024682D01*
X138482505Y-75283445D01*
X137514031Y-74882290D01*
X136465763Y-74882290D01*
X135497289Y-75283445D01*
X134756052Y-76024682D01*
X134354897Y-76993156D01*
X130824897Y-76993156D01*
X130423742Y-76024682D01*
X129682505Y-75283445D01*
X128714031Y-74882290D01*
X127665763Y-74882290D01*
X126697289Y-75283445D01*
X125956052Y-76024682D01*
X125589897Y-76908659D01*
X125223742Y-76024682D01*
X124482505Y-75283445D01*
X123514031Y-74882290D01*
X122465763Y-74882290D01*
X121497289Y-75283445D01*
X120756052Y-76024682D01*
X120354897Y-76993156D01*
X120327500Y-76993156D01*
X120327500Y-66258735D01*
X120346061Y-66165422D01*
X120343599Y-66153040D01*
X127215000Y-66153040D01*
X127215000Y-66893600D01*
X127311673Y-67126989D01*
X127490302Y-67305617D01*
X127723691Y-67402290D01*
X128464250Y-67402290D01*
X128623000Y-67243540D01*
X128623000Y-65994290D01*
X127373750Y-65994290D01*
X127215000Y-66153040D01*
X120343599Y-66153040D01*
X120327500Y-66072109D01*
X120327500Y-66072105D01*
X120272525Y-65795727D01*
X120063109Y-65482314D01*
X119984000Y-65429455D01*
X119395525Y-64840980D01*
X127215000Y-64840980D01*
X127215000Y-65581540D01*
X127373750Y-65740290D01*
X128623000Y-65740290D01*
X128623000Y-64491040D01*
X128877000Y-64491040D01*
X128877000Y-65740290D01*
X128897000Y-65740290D01*
X128897000Y-65994290D01*
X128877000Y-65994290D01*
X128877000Y-67243540D01*
X129035750Y-67402290D01*
X129776309Y-67402290D01*
X130009698Y-67305617D01*
X130188327Y-67126989D01*
X130244139Y-66992246D01*
X130420493Y-67168600D01*
X130984670Y-67402290D01*
X131595330Y-67402290D01*
X132159507Y-67168600D01*
X132591310Y-66736797D01*
X132825000Y-66172620D01*
X132825000Y-66153040D01*
X137215000Y-66153040D01*
X137215000Y-66893600D01*
X137311673Y-67126989D01*
X137490302Y-67305617D01*
X137723691Y-67402290D01*
X138464250Y-67402290D01*
X138623000Y-67243540D01*
X138623000Y-65994290D01*
X137373750Y-65994290D01*
X137215000Y-66153040D01*
X132825000Y-66153040D01*
X132825000Y-65561960D01*
X132591310Y-64997783D01*
X132434507Y-64840980D01*
X137215000Y-64840980D01*
X137215000Y-65581540D01*
X137373750Y-65740290D01*
X138623000Y-65740290D01*
X138623000Y-64491040D01*
X138877000Y-64491040D01*
X138877000Y-65740290D01*
X138897000Y-65740290D01*
X138897000Y-65994290D01*
X138877000Y-65994290D01*
X138877000Y-67243540D01*
X139035750Y-67402290D01*
X139776309Y-67402290D01*
X140009698Y-67305617D01*
X140188327Y-67126989D01*
X140244139Y-66992246D01*
X140420493Y-67168600D01*
X140984670Y-67402290D01*
X141595330Y-67402290D01*
X142159507Y-67168600D01*
X142591310Y-66736797D01*
X142825000Y-66172620D01*
X142825000Y-65561960D01*
X142591310Y-64997783D01*
X142159507Y-64565980D01*
X141595330Y-64332290D01*
X140984670Y-64332290D01*
X140420493Y-64565980D01*
X140244139Y-64742334D01*
X140188327Y-64607591D01*
X140009698Y-64428963D01*
X139776309Y-64332290D01*
X139035750Y-64332290D01*
X138877000Y-64491040D01*
X138623000Y-64491040D01*
X138464250Y-64332290D01*
X137723691Y-64332290D01*
X137490302Y-64428963D01*
X137311673Y-64607591D01*
X137215000Y-64840980D01*
X132434507Y-64840980D01*
X132159507Y-64565980D01*
X131595330Y-64332290D01*
X130984670Y-64332290D01*
X130420493Y-64565980D01*
X130244139Y-64742334D01*
X130188327Y-64607591D01*
X130009698Y-64428963D01*
X129776309Y-64332290D01*
X129035750Y-64332290D01*
X128877000Y-64491040D01*
X128623000Y-64491040D01*
X128464250Y-64332290D01*
X127723691Y-64332290D01*
X127490302Y-64428963D01*
X127311673Y-64607591D01*
X127215000Y-64840980D01*
X119395525Y-64840980D01*
X115641639Y-61087096D01*
X115588776Y-61007981D01*
X115328946Y-60834368D01*
X115328946Y-60725543D01*
X115125704Y-60234874D01*
X114750163Y-59859333D01*
X114259494Y-59656091D01*
X113728398Y-59656091D01*
X113626851Y-59698153D01*
X113998913Y-59326091D01*
X114259494Y-59326091D01*
X114750163Y-59122849D01*
X115125704Y-58747308D01*
X115328946Y-58256639D01*
X115328946Y-57725543D01*
X115125704Y-57234874D01*
X114750163Y-56859333D01*
X114259494Y-56656091D01*
X113728398Y-56656091D01*
X113237729Y-56859333D01*
X112862188Y-57234874D01*
X112658946Y-57725543D01*
X112658946Y-57986124D01*
X107723391Y-62921680D01*
X107644279Y-62974541D01*
X107591418Y-63053653D01*
X107434862Y-63287955D01*
X107361325Y-63657650D01*
X105678946Y-63657650D01*
X105678946Y-51251468D01*
X111532446Y-51251468D01*
X111532446Y-52230714D01*
X111907187Y-53135419D01*
X112599618Y-53827850D01*
X113073092Y-54023970D01*
X112862188Y-54234874D01*
X112658946Y-54725543D01*
X112658946Y-55256639D01*
X112862188Y-55747308D01*
X113237729Y-56122849D01*
X113728398Y-56326091D01*
X114259494Y-56326091D01*
X114750163Y-56122849D01*
X115125704Y-55747308D01*
X115328946Y-55256639D01*
X115328946Y-54725543D01*
X115125704Y-54234874D01*
X114914800Y-54023970D01*
X115388274Y-53827850D01*
X116080705Y-53135419D01*
X116455446Y-52230714D01*
X116455446Y-51251468D01*
X116080705Y-50346763D01*
X115388274Y-49654332D01*
X114483569Y-49279591D01*
X113504323Y-49279591D01*
X112599618Y-49654332D01*
X111907187Y-50346763D01*
X111532446Y-51251468D01*
X105678946Y-51251468D01*
X105678946Y-45021597D01*
X105721345Y-44546522D01*
X107758946Y-44546522D01*
X107758946Y-45435660D01*
X108099205Y-46257117D01*
X108727920Y-46885832D01*
X109549377Y-47226091D01*
X110438515Y-47226091D01*
X111259972Y-46885832D01*
X111888687Y-46257117D01*
X112228946Y-45435660D01*
X112228946Y-44546522D01*
X111888687Y-43725065D01*
X111853372Y-43689750D01*
X147615000Y-43689750D01*
X147615000Y-44780310D01*
X147711673Y-45013699D01*
X147890302Y-45192327D01*
X148123691Y-45289000D01*
X149714250Y-45289000D01*
X149873000Y-45130250D01*
X149873000Y-43531000D01*
X150127000Y-43531000D01*
X150127000Y-45130250D01*
X150285750Y-45289000D01*
X151876309Y-45289000D01*
X152109698Y-45192327D01*
X152288327Y-45013699D01*
X152385000Y-44780310D01*
X152385000Y-44546522D01*
X187758946Y-44546522D01*
X187758946Y-45435660D01*
X188099205Y-46257117D01*
X188727920Y-46885832D01*
X189549377Y-47226091D01*
X190438515Y-47226091D01*
X191259972Y-46885832D01*
X191888687Y-46257117D01*
X192228946Y-45435660D01*
X192228946Y-44546522D01*
X191888687Y-43725065D01*
X191259972Y-43096350D01*
X190438515Y-42756091D01*
X189549377Y-42756091D01*
X188727920Y-43096350D01*
X188099205Y-43725065D01*
X187758946Y-44546522D01*
X152385000Y-44546522D01*
X152385000Y-43689750D01*
X152226250Y-43531000D01*
X150127000Y-43531000D01*
X149873000Y-43531000D01*
X147773750Y-43531000D01*
X147615000Y-43689750D01*
X111853372Y-43689750D01*
X111259972Y-43096350D01*
X110438515Y-42756091D01*
X109549377Y-42756091D01*
X108727920Y-43096350D01*
X108099205Y-43725065D01*
X107758946Y-44546522D01*
X105721345Y-44546522D01*
X105749821Y-44227454D01*
X105952126Y-43487951D01*
X106282188Y-42795963D01*
X106729575Y-42173358D01*
X106879892Y-42027690D01*
X147615000Y-42027690D01*
X147615000Y-43118250D01*
X147773750Y-43277000D01*
X149873000Y-43277000D01*
X149873000Y-41677750D01*
X150127000Y-41677750D01*
X150127000Y-43277000D01*
X152226250Y-43277000D01*
X152385000Y-43118250D01*
X152385000Y-42027690D01*
X152288327Y-41794301D01*
X152109698Y-41615673D01*
X151876309Y-41519000D01*
X150285750Y-41519000D01*
X150127000Y-41677750D01*
X149873000Y-41677750D01*
X149714250Y-41519000D01*
X148123691Y-41519000D01*
X147890302Y-41615673D01*
X147711673Y-41794301D01*
X147615000Y-42027690D01*
X106879892Y-42027690D01*
X107280141Y-41639823D01*
X107916490Y-41212215D01*
X108618507Y-40904050D01*
X109369266Y-40723808D01*
X110019058Y-40676091D01*
X189963440Y-40676091D01*
X190757583Y-40746966D01*
G36*
X148461312Y-139376114D02*
X148396887Y-139700000D01*
X148508260Y-140259909D01*
X148825423Y-140734577D01*
X148876972Y-140769021D01*
X148762235Y-140791843D01*
X148552191Y-140932191D01*
X148411843Y-141142235D01*
X148362560Y-141390000D01*
X148362560Y-143090000D01*
X148411843Y-143337765D01*
X148552191Y-143547809D01*
X148762235Y-143688157D01*
X149010000Y-143737440D01*
X150710000Y-143737440D01*
X150957765Y-143688157D01*
X151167809Y-143547809D01*
X151308157Y-143337765D01*
X151317184Y-143292381D01*
X151329375Y-143310625D01*
X151820582Y-143638839D01*
X152253744Y-143725000D01*
X152546256Y-143725000D01*
X152979418Y-143638839D01*
X153470625Y-143310625D01*
X153670000Y-143012239D01*
X153869375Y-143310625D01*
X154360582Y-143638839D01*
X154793744Y-143725000D01*
X155086256Y-143725000D01*
X155519418Y-143638839D01*
X156010625Y-143310625D01*
X156210000Y-143012239D01*
X156409375Y-143310625D01*
X156900582Y-143638839D01*
X157333744Y-143725000D01*
X157626256Y-143725000D01*
X158059418Y-143638839D01*
X158550625Y-143310625D01*
X158750000Y-143012239D01*
X158949375Y-143310625D01*
X159440582Y-143638839D01*
X159873744Y-143725000D01*
X160166256Y-143725000D01*
X160599418Y-143638839D01*
X161090625Y-143310625D01*
X161418839Y-142819418D01*
X161534092Y-142240000D01*
X161418839Y-141660582D01*
X161090625Y-141169375D01*
X160780000Y-140961822D01*
X160780000Y-140918043D01*
X161054577Y-140734577D01*
X161290000Y-140382242D01*
X161525423Y-140734577D01*
X162000091Y-141051740D01*
X162418667Y-141135000D01*
X162695033Y-141135000D01*
X163705000Y-142144967D01*
X163705000Y-142335033D01*
X157087534Y-148952500D01*
X151028318Y-148952500D01*
X150935000Y-148933938D01*
X150841682Y-148952500D01*
X150565304Y-149007475D01*
X150251891Y-149216891D01*
X150199030Y-149296003D01*
X149256004Y-150239030D01*
X149176892Y-150291891D01*
X149124031Y-150371003D01*
X148967475Y-150605305D01*
X148893938Y-150975000D01*
X148895965Y-150985188D01*
X148812235Y-151001843D01*
X148602191Y-151142191D01*
X148568132Y-151193164D01*
X146630972Y-149256006D01*
X146578109Y-149176891D01*
X146264696Y-148967475D01*
X145988318Y-148912500D01*
X145988317Y-148912500D01*
X145895000Y-148893938D01*
X145801683Y-148912500D01*
X143387303Y-148912500D01*
X143849474Y-148450330D01*
X143912930Y-148407930D01*
X143928841Y-148384117D01*
X143985995Y-148573864D01*
X144523223Y-148766965D01*
X145093454Y-148739778D01*
X145494005Y-148573864D01*
X145568139Y-148327745D01*
X144740000Y-147499605D01*
X144725858Y-147513748D01*
X144546252Y-147334142D01*
X144560395Y-147320000D01*
X144919605Y-147320000D01*
X145747745Y-148148139D01*
X145993864Y-148074005D01*
X146186965Y-147536777D01*
X146159778Y-146966546D01*
X145993864Y-146565995D01*
X145747745Y-146491861D01*
X144919605Y-147320000D01*
X144560395Y-147320000D01*
X144546252Y-147305858D01*
X144725858Y-147126252D01*
X144740000Y-147140395D01*
X145568139Y-146312255D01*
X145494005Y-146066136D01*
X144956777Y-145873035D01*
X144386546Y-145900222D01*
X144125001Y-146008558D01*
X144125001Y-143969800D01*
X144139469Y-143955332D01*
X144202928Y-143912930D01*
X144370903Y-143661538D01*
X144381456Y-143608485D01*
X144430959Y-143631914D01*
X144653000Y-143510629D01*
X144653000Y-142367000D01*
X144907000Y-142367000D01*
X144907000Y-143510629D01*
X145129041Y-143631914D01*
X145635134Y-143392389D01*
X146011041Y-142977423D01*
X146171904Y-142589039D01*
X146049915Y-142367000D01*
X144907000Y-142367000D01*
X144653000Y-142367000D01*
X144633000Y-142367000D01*
X144633000Y-142113000D01*
X144653000Y-142113000D01*
X144653000Y-139827000D01*
X144907000Y-139827000D01*
X144907000Y-142113000D01*
X146049915Y-142113000D01*
X146171904Y-141890961D01*
X146011041Y-141502577D01*
X145635134Y-141087611D01*
X145386633Y-140970000D01*
X145635134Y-140852389D01*
X146011041Y-140437423D01*
X146171904Y-140049039D01*
X146049915Y-139827000D01*
X144907000Y-139827000D01*
X144653000Y-139827000D01*
X144633000Y-139827000D01*
X144633000Y-139573000D01*
X144653000Y-139573000D01*
X144653000Y-139553000D01*
X144907000Y-139553000D01*
X144907000Y-139573000D01*
X146049915Y-139573000D01*
X146171904Y-139350961D01*
X146011041Y-138962577D01*
X145635134Y-138547611D01*
X145422641Y-138447042D01*
X145592862Y-138376534D01*
X145996534Y-137972862D01*
X146215000Y-137445439D01*
X146215000Y-137129801D01*
X148461312Y-139376114D01*
X148461312Y-139376114D01*
G37*
X148461312Y-139376114D02*
X148396887Y-139700000D01*
X148508260Y-140259909D01*
X148825423Y-140734577D01*
X148876972Y-140769021D01*
X148762235Y-140791843D01*
X148552191Y-140932191D01*
X148411843Y-141142235D01*
X148362560Y-141390000D01*
X148362560Y-143090000D01*
X148411843Y-143337765D01*
X148552191Y-143547809D01*
X148762235Y-143688157D01*
X149010000Y-143737440D01*
X150710000Y-143737440D01*
X150957765Y-143688157D01*
X151167809Y-143547809D01*
X151308157Y-143337765D01*
X151317184Y-143292381D01*
X151329375Y-143310625D01*
X151820582Y-143638839D01*
X152253744Y-143725000D01*
X152546256Y-143725000D01*
X152979418Y-143638839D01*
X153470625Y-143310625D01*
X153670000Y-143012239D01*
X153869375Y-143310625D01*
X154360582Y-143638839D01*
X154793744Y-143725000D01*
X155086256Y-143725000D01*
X155519418Y-143638839D01*
X156010625Y-143310625D01*
X156210000Y-143012239D01*
X156409375Y-143310625D01*
X156900582Y-143638839D01*
X157333744Y-143725000D01*
X157626256Y-143725000D01*
X158059418Y-143638839D01*
X158550625Y-143310625D01*
X158750000Y-143012239D01*
X158949375Y-143310625D01*
X159440582Y-143638839D01*
X159873744Y-143725000D01*
X160166256Y-143725000D01*
X160599418Y-143638839D01*
X161090625Y-143310625D01*
X161418839Y-142819418D01*
X161534092Y-142240000D01*
X161418839Y-141660582D01*
X161090625Y-141169375D01*
X160780000Y-140961822D01*
X160780000Y-140918043D01*
X161054577Y-140734577D01*
X161290000Y-140382242D01*
X161525423Y-140734577D01*
X162000091Y-141051740D01*
X162418667Y-141135000D01*
X162695033Y-141135000D01*
X163705000Y-142144967D01*
X163705000Y-142335033D01*
X157087534Y-148952500D01*
X151028318Y-148952500D01*
X150935000Y-148933938D01*
X150841682Y-148952500D01*
X150565304Y-149007475D01*
X150251891Y-149216891D01*
X150199030Y-149296003D01*
X149256004Y-150239030D01*
X149176892Y-150291891D01*
X149124031Y-150371003D01*
X148967475Y-150605305D01*
X148893938Y-150975000D01*
X148895965Y-150985188D01*
X148812235Y-151001843D01*
X148602191Y-151142191D01*
X148568132Y-151193164D01*
X146630972Y-149256006D01*
X146578109Y-149176891D01*
X146264696Y-148967475D01*
X145988318Y-148912500D01*
X145988317Y-148912500D01*
X145895000Y-148893938D01*
X145801683Y-148912500D01*
X143387303Y-148912500D01*
X143849474Y-148450330D01*
X143912930Y-148407930D01*
X143928841Y-148384117D01*
X143985995Y-148573864D01*
X144523223Y-148766965D01*
X145093454Y-148739778D01*
X145494005Y-148573864D01*
X145568139Y-148327745D01*
X144740000Y-147499605D01*
X144725858Y-147513748D01*
X144546252Y-147334142D01*
X144560395Y-147320000D01*
X144919605Y-147320000D01*
X145747745Y-148148139D01*
X145993864Y-148074005D01*
X146186965Y-147536777D01*
X146159778Y-146966546D01*
X145993864Y-146565995D01*
X145747745Y-146491861D01*
X144919605Y-147320000D01*
X144560395Y-147320000D01*
X144546252Y-147305858D01*
X144725858Y-147126252D01*
X144740000Y-147140395D01*
X145568139Y-146312255D01*
X145494005Y-146066136D01*
X144956777Y-145873035D01*
X144386546Y-145900222D01*
X144125001Y-146008558D01*
X144125001Y-143969800D01*
X144139469Y-143955332D01*
X144202928Y-143912930D01*
X144370903Y-143661538D01*
X144381456Y-143608485D01*
X144430959Y-143631914D01*
X144653000Y-143510629D01*
X144653000Y-142367000D01*
X144907000Y-142367000D01*
X144907000Y-143510629D01*
X145129041Y-143631914D01*
X145635134Y-143392389D01*
X146011041Y-142977423D01*
X146171904Y-142589039D01*
X146049915Y-142367000D01*
X144907000Y-142367000D01*
X144653000Y-142367000D01*
X144633000Y-142367000D01*
X144633000Y-142113000D01*
X144653000Y-142113000D01*
X144653000Y-139827000D01*
X144907000Y-139827000D01*
X144907000Y-142113000D01*
X146049915Y-142113000D01*
X146171904Y-141890961D01*
X146011041Y-141502577D01*
X145635134Y-141087611D01*
X145386633Y-140970000D01*
X145635134Y-140852389D01*
X146011041Y-140437423D01*
X146171904Y-140049039D01*
X146049915Y-139827000D01*
X144907000Y-139827000D01*
X144653000Y-139827000D01*
X144633000Y-139827000D01*
X144633000Y-139573000D01*
X144653000Y-139573000D01*
X144653000Y-139553000D01*
X144907000Y-139553000D01*
X144907000Y-139573000D01*
X146049915Y-139573000D01*
X146171904Y-139350961D01*
X146011041Y-138962577D01*
X145635134Y-138547611D01*
X145422641Y-138447042D01*
X145592862Y-138376534D01*
X145996534Y-137972862D01*
X146215000Y-137445439D01*
X146215000Y-137129801D01*
X148461312Y-139376114D01*
G36*
X186743466Y-132892862D02*
X187147138Y-133296534D01*
X187674561Y-133515000D01*
X188245439Y-133515000D01*
X188325001Y-133482044D01*
X188325002Y-140535032D01*
X188156005Y-140704028D01*
X188156000Y-140704032D01*
X188055032Y-140805000D01*
X187818667Y-140805000D01*
X187400091Y-140888260D01*
X186925423Y-141205423D01*
X186608260Y-141680091D01*
X186496887Y-142240000D01*
X186517318Y-142342715D01*
X185027534Y-143832500D01*
X168072468Y-143832500D01*
X167904010Y-143664042D01*
X167993454Y-143659778D01*
X168394005Y-143493864D01*
X168468139Y-143247745D01*
X167640000Y-142419605D01*
X167625858Y-142433748D01*
X167446253Y-142254143D01*
X167460395Y-142240000D01*
X166632255Y-141411861D01*
X166386136Y-141485995D01*
X166383710Y-141492746D01*
X166356534Y-141427138D01*
X165952862Y-141023466D01*
X165798139Y-140959378D01*
X166134577Y-140734577D01*
X166390947Y-140350892D01*
X166487611Y-140555134D01*
X166902577Y-140931041D01*
X166960793Y-140955153D01*
X166885995Y-140986136D01*
X166811861Y-141232255D01*
X167640000Y-142060395D01*
X168468139Y-141232255D01*
X168394005Y-140986136D01*
X168313911Y-140957347D01*
X168377423Y-140931041D01*
X168792389Y-140555134D01*
X168889053Y-140350892D01*
X169145423Y-140734577D01*
X169196972Y-140769021D01*
X169082235Y-140791843D01*
X168872191Y-140932191D01*
X168731843Y-141142235D01*
X168682560Y-141390000D01*
X168682560Y-141422348D01*
X168647745Y-141411861D01*
X167819605Y-142240000D01*
X168647745Y-143068139D01*
X168682560Y-143057652D01*
X168682560Y-143090000D01*
X168731843Y-143337765D01*
X168872191Y-143547809D01*
X169082235Y-143688157D01*
X169330000Y-143737440D01*
X171030000Y-143737440D01*
X171277765Y-143688157D01*
X171487809Y-143547809D01*
X171628157Y-143337765D01*
X171637184Y-143292381D01*
X171649375Y-143310625D01*
X172140582Y-143638839D01*
X172573744Y-143725000D01*
X172866256Y-143725000D01*
X173299418Y-143638839D01*
X173790625Y-143310625D01*
X173990000Y-143012239D01*
X174189375Y-143310625D01*
X174680582Y-143638839D01*
X175113744Y-143725000D01*
X175406256Y-143725000D01*
X175839418Y-143638839D01*
X176330625Y-143310625D01*
X176530000Y-143012239D01*
X176729375Y-143310625D01*
X177220582Y-143638839D01*
X177653744Y-143725000D01*
X177946256Y-143725000D01*
X178379418Y-143638839D01*
X178870625Y-143310625D01*
X179070000Y-143012239D01*
X179269375Y-143310625D01*
X179760582Y-143638839D01*
X180193744Y-143725000D01*
X180486256Y-143725000D01*
X180919418Y-143638839D01*
X181410625Y-143310625D01*
X181610000Y-143012239D01*
X181809375Y-143310625D01*
X182300582Y-143638839D01*
X182733744Y-143725000D01*
X183026256Y-143725000D01*
X183459418Y-143638839D01*
X183950625Y-143310625D01*
X184278839Y-142819418D01*
X184394092Y-142240000D01*
X184278839Y-141660582D01*
X183950625Y-141169375D01*
X183640000Y-140961822D01*
X183640000Y-140918043D01*
X183914577Y-140734577D01*
X184231740Y-140259909D01*
X184343113Y-139700000D01*
X184231740Y-139140091D01*
X183914577Y-138665423D01*
X183439909Y-138348260D01*
X183021333Y-138265000D01*
X182738667Y-138265000D01*
X182320091Y-138348260D01*
X181845423Y-138665423D01*
X181610000Y-139017758D01*
X181374577Y-138665423D01*
X180899909Y-138348260D01*
X180481333Y-138265000D01*
X180198667Y-138265000D01*
X179936342Y-138317180D01*
X179924999Y-138260153D01*
X179924999Y-133460564D01*
X180198667Y-133515000D01*
X180481333Y-133515000D01*
X180899909Y-133431740D01*
X181374577Y-133114577D01*
X181455215Y-132993894D01*
X181481843Y-133127765D01*
X181622191Y-133337809D01*
X181832235Y-133478157D01*
X182080000Y-133527440D01*
X183680000Y-133527440D01*
X183927765Y-133478157D01*
X184137809Y-133337809D01*
X184278157Y-133127765D01*
X184327440Y-132880000D01*
X184327440Y-132840000D01*
X186721570Y-132840000D01*
X186743466Y-132892862D01*
X186743466Y-132892862D01*
G37*
X186743466Y-132892862D02*
X187147138Y-133296534D01*
X187674561Y-133515000D01*
X188245439Y-133515000D01*
X188325001Y-133482044D01*
X188325002Y-140535032D01*
X188156005Y-140704028D01*
X188156000Y-140704032D01*
X188055032Y-140805000D01*
X187818667Y-140805000D01*
X187400091Y-140888260D01*
X186925423Y-141205423D01*
X186608260Y-141680091D01*
X186496887Y-142240000D01*
X186517318Y-142342715D01*
X185027534Y-143832500D01*
X168072468Y-143832500D01*
X167904010Y-143664042D01*
X167993454Y-143659778D01*
X168394005Y-143493864D01*
X168468139Y-143247745D01*
X167640000Y-142419605D01*
X167625858Y-142433748D01*
X167446253Y-142254143D01*
X167460395Y-142240000D01*
X166632255Y-141411861D01*
X166386136Y-141485995D01*
X166383710Y-141492746D01*
X166356534Y-141427138D01*
X165952862Y-141023466D01*
X165798139Y-140959378D01*
X166134577Y-140734577D01*
X166390947Y-140350892D01*
X166487611Y-140555134D01*
X166902577Y-140931041D01*
X166960793Y-140955153D01*
X166885995Y-140986136D01*
X166811861Y-141232255D01*
X167640000Y-142060395D01*
X168468139Y-141232255D01*
X168394005Y-140986136D01*
X168313911Y-140957347D01*
X168377423Y-140931041D01*
X168792389Y-140555134D01*
X168889053Y-140350892D01*
X169145423Y-140734577D01*
X169196972Y-140769021D01*
X169082235Y-140791843D01*
X168872191Y-140932191D01*
X168731843Y-141142235D01*
X168682560Y-141390000D01*
X168682560Y-141422348D01*
X168647745Y-141411861D01*
X167819605Y-142240000D01*
X168647745Y-143068139D01*
X168682560Y-143057652D01*
X168682560Y-143090000D01*
X168731843Y-143337765D01*
X168872191Y-143547809D01*
X169082235Y-143688157D01*
X169330000Y-143737440D01*
X171030000Y-143737440D01*
X171277765Y-143688157D01*
X171487809Y-143547809D01*
X171628157Y-143337765D01*
X171637184Y-143292381D01*
X171649375Y-143310625D01*
X172140582Y-143638839D01*
X172573744Y-143725000D01*
X172866256Y-143725000D01*
X173299418Y-143638839D01*
X173790625Y-143310625D01*
X173990000Y-143012239D01*
X174189375Y-143310625D01*
X174680582Y-143638839D01*
X175113744Y-143725000D01*
X175406256Y-143725000D01*
X175839418Y-143638839D01*
X176330625Y-143310625D01*
X176530000Y-143012239D01*
X176729375Y-143310625D01*
X177220582Y-143638839D01*
X177653744Y-143725000D01*
X177946256Y-143725000D01*
X178379418Y-143638839D01*
X178870625Y-143310625D01*
X179070000Y-143012239D01*
X179269375Y-143310625D01*
X179760582Y-143638839D01*
X180193744Y-143725000D01*
X180486256Y-143725000D01*
X180919418Y-143638839D01*
X181410625Y-143310625D01*
X181610000Y-143012239D01*
X181809375Y-143310625D01*
X182300582Y-143638839D01*
X182733744Y-143725000D01*
X183026256Y-143725000D01*
X183459418Y-143638839D01*
X183950625Y-143310625D01*
X184278839Y-142819418D01*
X184394092Y-142240000D01*
X184278839Y-141660582D01*
X183950625Y-141169375D01*
X183640000Y-140961822D01*
X183640000Y-140918043D01*
X183914577Y-140734577D01*
X184231740Y-140259909D01*
X184343113Y-139700000D01*
X184231740Y-139140091D01*
X183914577Y-138665423D01*
X183439909Y-138348260D01*
X183021333Y-138265000D01*
X182738667Y-138265000D01*
X182320091Y-138348260D01*
X181845423Y-138665423D01*
X181610000Y-139017758D01*
X181374577Y-138665423D01*
X180899909Y-138348260D01*
X180481333Y-138265000D01*
X180198667Y-138265000D01*
X179936342Y-138317180D01*
X179924999Y-138260153D01*
X179924999Y-133460564D01*
X180198667Y-133515000D01*
X180481333Y-133515000D01*
X180899909Y-133431740D01*
X181374577Y-133114577D01*
X181455215Y-132993894D01*
X181481843Y-133127765D01*
X181622191Y-133337809D01*
X181832235Y-133478157D01*
X182080000Y-133527440D01*
X183680000Y-133527440D01*
X183927765Y-133478157D01*
X184137809Y-133337809D01*
X184278157Y-133127765D01*
X184327440Y-132880000D01*
X184327440Y-132840000D01*
X186721570Y-132840000D01*
X186743466Y-132892862D01*
G36*
X167767000Y-139573000D02*
X167787000Y-139573000D01*
X167787000Y-139827000D01*
X167767000Y-139827000D01*
X167767000Y-139847000D01*
X167513000Y-139847000D01*
X167513000Y-139827000D01*
X167493000Y-139827000D01*
X167493000Y-139573000D01*
X167513000Y-139573000D01*
X167513000Y-139553000D01*
X167767000Y-139553000D01*
X167767000Y-139573000D01*
X167767000Y-139573000D01*
G37*
X167767000Y-139573000D02*
X167787000Y-139573000D01*
X167787000Y-139827000D01*
X167767000Y-139827000D01*
X167767000Y-139847000D01*
X167513000Y-139847000D01*
X167513000Y-139827000D01*
X167493000Y-139827000D01*
X167493000Y-139573000D01*
X167513000Y-139573000D01*
X167513000Y-139553000D01*
X167767000Y-139553000D01*
X167767000Y-139573000D01*
G36*
X135808260Y-118820091D02*
X135696887Y-119380000D01*
X135808260Y-119939909D01*
X136125423Y-120414577D01*
X136477758Y-120650000D01*
X136125423Y-120885423D01*
X135808260Y-121360091D01*
X135696887Y-121920000D01*
X135808260Y-122479909D01*
X136125423Y-122954577D01*
X136477758Y-123190000D01*
X136125423Y-123425423D01*
X135808260Y-123900091D01*
X135696887Y-124460000D01*
X135808260Y-125019909D01*
X135871797Y-125114999D01*
X134154847Y-125114999D01*
X134079999Y-125100111D01*
X134005151Y-125114999D01*
X134005147Y-125114999D01*
X133831604Y-125149519D01*
X133783461Y-125159095D01*
X133670028Y-125234889D01*
X133532070Y-125327070D01*
X133489670Y-125390526D01*
X127930529Y-130949668D01*
X127867070Y-130992070D01*
X127699095Y-131243463D01*
X127654999Y-131465148D01*
X127654999Y-131465152D01*
X127640111Y-131539999D01*
X127654999Y-131614846D01*
X127655000Y-133420147D01*
X127640111Y-133494999D01*
X127655000Y-133569851D01*
X127682715Y-133709184D01*
X127699096Y-133791536D01*
X127815002Y-133965001D01*
X127867071Y-134042928D01*
X127930527Y-134085328D01*
X128141312Y-134296113D01*
X128076887Y-134620000D01*
X128188260Y-135179909D01*
X128505423Y-135654577D01*
X128889108Y-135910947D01*
X128684866Y-136007611D01*
X128308959Y-136422577D01*
X128148096Y-136810961D01*
X128270085Y-137033000D01*
X129413000Y-137033000D01*
X129413000Y-137013000D01*
X129667000Y-137013000D01*
X129667000Y-137033000D01*
X129687000Y-137033000D01*
X129687000Y-137287000D01*
X129667000Y-137287000D01*
X129667000Y-137307000D01*
X129413000Y-137307000D01*
X129413000Y-137287000D01*
X128270085Y-137287000D01*
X128148096Y-137509039D01*
X128308959Y-137897423D01*
X128647361Y-138270987D01*
X128492235Y-138301843D01*
X128282191Y-138442191D01*
X128141843Y-138652235D01*
X128092560Y-138900000D01*
X128092560Y-139452593D01*
X123362682Y-134722715D01*
X123383113Y-134620000D01*
X123271740Y-134060091D01*
X122954577Y-133585423D01*
X122602242Y-133350000D01*
X122954577Y-133114577D01*
X123271740Y-132639909D01*
X123383113Y-132080000D01*
X123271740Y-131520091D01*
X122954577Y-131045423D01*
X122680000Y-130861957D01*
X122680000Y-127074846D01*
X122694888Y-126999999D01*
X122680000Y-126925152D01*
X122680000Y-126925148D01*
X122635904Y-126703463D01*
X122560694Y-126590903D01*
X122510329Y-126515526D01*
X122510327Y-126515524D01*
X122467929Y-126452071D01*
X122404476Y-126409673D01*
X122339804Y-126345001D01*
X122345154Y-126345001D01*
X122420001Y-126359889D01*
X122494848Y-126345001D01*
X122494853Y-126345001D01*
X122716538Y-126300905D01*
X122967930Y-126132930D01*
X123010332Y-126069471D01*
X126065204Y-123014600D01*
X126187138Y-123136534D01*
X126316216Y-123190000D01*
X126187138Y-123243466D01*
X125783466Y-123647138D01*
X125565000Y-124174561D01*
X125565000Y-124745439D01*
X125783466Y-125272862D01*
X126187138Y-125676534D01*
X126316216Y-125730000D01*
X126187138Y-125783466D01*
X125783466Y-126187138D01*
X125565000Y-126714561D01*
X125565000Y-127285439D01*
X125783466Y-127812862D01*
X126187138Y-128216534D01*
X126714561Y-128435000D01*
X127285439Y-128435000D01*
X127812862Y-128216534D01*
X128216534Y-127812862D01*
X128435000Y-127285439D01*
X128435000Y-126714561D01*
X128216534Y-126187138D01*
X127812862Y-125783466D01*
X127683784Y-125730000D01*
X127812862Y-125676534D01*
X128216534Y-125272862D01*
X128435000Y-124745439D01*
X128435000Y-124174561D01*
X128216534Y-123647138D01*
X127812862Y-123243466D01*
X127683784Y-123190000D01*
X127812862Y-123136534D01*
X128216534Y-122732862D01*
X128435000Y-122205439D01*
X128435000Y-121634561D01*
X128216534Y-121107138D01*
X127812862Y-120703466D01*
X127683784Y-120650000D01*
X127812862Y-120596534D01*
X128216534Y-120192862D01*
X128435000Y-119665439D01*
X128435000Y-119094561D01*
X128281923Y-118725001D01*
X135871797Y-118725001D01*
X135808260Y-118820091D01*
X135808260Y-118820091D01*
G37*
X135808260Y-118820091D02*
X135696887Y-119380000D01*
X135808260Y-119939909D01*
X136125423Y-120414577D01*
X136477758Y-120650000D01*
X136125423Y-120885423D01*
X135808260Y-121360091D01*
X135696887Y-121920000D01*
X135808260Y-122479909D01*
X136125423Y-122954577D01*
X136477758Y-123190000D01*
X136125423Y-123425423D01*
X135808260Y-123900091D01*
X135696887Y-124460000D01*
X135808260Y-125019909D01*
X135871797Y-125114999D01*
X134154847Y-125114999D01*
X134079999Y-125100111D01*
X134005151Y-125114999D01*
X134005147Y-125114999D01*
X133831604Y-125149519D01*
X133783461Y-125159095D01*
X133670028Y-125234889D01*
X133532070Y-125327070D01*
X133489670Y-125390526D01*
X127930529Y-130949668D01*
X127867070Y-130992070D01*
X127699095Y-131243463D01*
X127654999Y-131465148D01*
X127654999Y-131465152D01*
X127640111Y-131539999D01*
X127654999Y-131614846D01*
X127655000Y-133420147D01*
X127640111Y-133494999D01*
X127655000Y-133569851D01*
X127682715Y-133709184D01*
X127699096Y-133791536D01*
X127815002Y-133965001D01*
X127867071Y-134042928D01*
X127930527Y-134085328D01*
X128141312Y-134296113D01*
X128076887Y-134620000D01*
X128188260Y-135179909D01*
X128505423Y-135654577D01*
X128889108Y-135910947D01*
X128684866Y-136007611D01*
X128308959Y-136422577D01*
X128148096Y-136810961D01*
X128270085Y-137033000D01*
X129413000Y-137033000D01*
X129413000Y-137013000D01*
X129667000Y-137013000D01*
X129667000Y-137033000D01*
X129687000Y-137033000D01*
X129687000Y-137287000D01*
X129667000Y-137287000D01*
X129667000Y-137307000D01*
X129413000Y-137307000D01*
X129413000Y-137287000D01*
X128270085Y-137287000D01*
X128148096Y-137509039D01*
X128308959Y-137897423D01*
X128647361Y-138270987D01*
X128492235Y-138301843D01*
X128282191Y-138442191D01*
X128141843Y-138652235D01*
X128092560Y-138900000D01*
X128092560Y-139452593D01*
X123362682Y-134722715D01*
X123383113Y-134620000D01*
X123271740Y-134060091D01*
X122954577Y-133585423D01*
X122602242Y-133350000D01*
X122954577Y-133114577D01*
X123271740Y-132639909D01*
X123383113Y-132080000D01*
X123271740Y-131520091D01*
X122954577Y-131045423D01*
X122680000Y-130861957D01*
X122680000Y-127074846D01*
X122694888Y-126999999D01*
X122680000Y-126925152D01*
X122680000Y-126925148D01*
X122635904Y-126703463D01*
X122560694Y-126590903D01*
X122510329Y-126515526D01*
X122510327Y-126515524D01*
X122467929Y-126452071D01*
X122404476Y-126409673D01*
X122339804Y-126345001D01*
X122345154Y-126345001D01*
X122420001Y-126359889D01*
X122494848Y-126345001D01*
X122494853Y-126345001D01*
X122716538Y-126300905D01*
X122967930Y-126132930D01*
X123010332Y-126069471D01*
X126065204Y-123014600D01*
X126187138Y-123136534D01*
X126316216Y-123190000D01*
X126187138Y-123243466D01*
X125783466Y-123647138D01*
X125565000Y-124174561D01*
X125565000Y-124745439D01*
X125783466Y-125272862D01*
X126187138Y-125676534D01*
X126316216Y-125730000D01*
X126187138Y-125783466D01*
X125783466Y-126187138D01*
X125565000Y-126714561D01*
X125565000Y-127285439D01*
X125783466Y-127812862D01*
X126187138Y-128216534D01*
X126714561Y-128435000D01*
X127285439Y-128435000D01*
X127812862Y-128216534D01*
X128216534Y-127812862D01*
X128435000Y-127285439D01*
X128435000Y-126714561D01*
X128216534Y-126187138D01*
X127812862Y-125783466D01*
X127683784Y-125730000D01*
X127812862Y-125676534D01*
X128216534Y-125272862D01*
X128435000Y-124745439D01*
X128435000Y-124174561D01*
X128216534Y-123647138D01*
X127812862Y-123243466D01*
X127683784Y-123190000D01*
X127812862Y-123136534D01*
X128216534Y-122732862D01*
X128435000Y-122205439D01*
X128435000Y-121634561D01*
X128216534Y-121107138D01*
X127812862Y-120703466D01*
X127683784Y-120650000D01*
X127812862Y-120596534D01*
X128216534Y-120192862D01*
X128435000Y-119665439D01*
X128435000Y-119094561D01*
X128281923Y-118725001D01*
X135871797Y-118725001D01*
X135808260Y-118820091D01*
G36*
X165227000Y-131953000D02*
X165247000Y-131953000D01*
X165247000Y-132207000D01*
X165227000Y-132207000D01*
X165227000Y-133349915D01*
X165449039Y-133471904D01*
X165715000Y-133361747D01*
X165715000Y-133380147D01*
X165700111Y-133454999D01*
X165759096Y-133751536D01*
X165871476Y-133919724D01*
X165927071Y-134002928D01*
X165990527Y-134045328D01*
X170210198Y-138265000D01*
X170038667Y-138265000D01*
X169856113Y-138301312D01*
X169645330Y-138090529D01*
X169602928Y-138027070D01*
X169351536Y-137859095D01*
X169129851Y-137814999D01*
X169129846Y-137814999D01*
X169054999Y-137800111D01*
X168980152Y-137814999D01*
X167704799Y-137814999D01*
X163240778Y-133350978D01*
X163594577Y-133114577D01*
X163850947Y-132730892D01*
X163947611Y-132935134D01*
X164362577Y-133311041D01*
X164750961Y-133471904D01*
X164973000Y-133349915D01*
X164973000Y-132207000D01*
X164953000Y-132207000D01*
X164953000Y-131953000D01*
X164973000Y-131953000D01*
X164973000Y-131933000D01*
X165227000Y-131933000D01*
X165227000Y-131953000D01*
X165227000Y-131953000D01*
G37*
X165227000Y-131953000D02*
X165247000Y-131953000D01*
X165247000Y-132207000D01*
X165227000Y-132207000D01*
X165227000Y-133349915D01*
X165449039Y-133471904D01*
X165715000Y-133361747D01*
X165715000Y-133380147D01*
X165700111Y-133454999D01*
X165759096Y-133751536D01*
X165871476Y-133919724D01*
X165927071Y-134002928D01*
X165990527Y-134045328D01*
X170210198Y-138265000D01*
X170038667Y-138265000D01*
X169856113Y-138301312D01*
X169645330Y-138090529D01*
X169602928Y-138027070D01*
X169351536Y-137859095D01*
X169129851Y-137814999D01*
X169129846Y-137814999D01*
X169054999Y-137800111D01*
X168980152Y-137814999D01*
X167704799Y-137814999D01*
X163240778Y-133350978D01*
X163594577Y-133114577D01*
X163850947Y-132730892D01*
X163947611Y-132935134D01*
X164362577Y-133311041D01*
X164750961Y-133471904D01*
X164973000Y-133349915D01*
X164973000Y-132207000D01*
X164953000Y-132207000D01*
X164953000Y-131953000D01*
X164973000Y-131953000D01*
X164973000Y-131933000D01*
X165227000Y-131933000D01*
X165227000Y-131953000D01*
G36*
X120521312Y-131756113D02*
X120456887Y-132080000D01*
X120568260Y-132639909D01*
X120885423Y-133114577D01*
X121237758Y-133350000D01*
X120885423Y-133585423D01*
X120568260Y-134060091D01*
X120456887Y-134620000D01*
X120568260Y-135179909D01*
X120885423Y-135654577D01*
X121237758Y-135890000D01*
X120885423Y-136125423D01*
X120701957Y-136400000D01*
X118644802Y-136400000D01*
X115567743Y-133322942D01*
X115698157Y-133127765D01*
X115706117Y-133087745D01*
X115971861Y-133087745D01*
X116045995Y-133333864D01*
X116583223Y-133526965D01*
X117153454Y-133499778D01*
X117554005Y-133333864D01*
X117628139Y-133087745D01*
X116800000Y-132259605D01*
X115971861Y-133087745D01*
X115706117Y-133087745D01*
X115744693Y-132893813D01*
X115792255Y-132908139D01*
X116620395Y-132080000D01*
X116606253Y-132065858D01*
X116785858Y-131886253D01*
X116800000Y-131900395D01*
X116814143Y-131886253D01*
X116993748Y-132065858D01*
X116979605Y-132080000D01*
X117807745Y-132908139D01*
X118053864Y-132834005D01*
X118246965Y-132296777D01*
X118219778Y-131726546D01*
X118214995Y-131714999D01*
X120480198Y-131714999D01*
X120521312Y-131756113D01*
X120521312Y-131756113D01*
G37*
X120521312Y-131756113D02*
X120456887Y-132080000D01*
X120568260Y-132639909D01*
X120885423Y-133114577D01*
X121237758Y-133350000D01*
X120885423Y-133585423D01*
X120568260Y-134060091D01*
X120456887Y-134620000D01*
X120568260Y-135179909D01*
X120885423Y-135654577D01*
X121237758Y-135890000D01*
X120885423Y-136125423D01*
X120701957Y-136400000D01*
X118644802Y-136400000D01*
X115567743Y-133322942D01*
X115698157Y-133127765D01*
X115706117Y-133087745D01*
X115971861Y-133087745D01*
X116045995Y-133333864D01*
X116583223Y-133526965D01*
X117153454Y-133499778D01*
X117554005Y-133333864D01*
X117628139Y-133087745D01*
X116800000Y-132259605D01*
X115971861Y-133087745D01*
X115706117Y-133087745D01*
X115744693Y-132893813D01*
X115792255Y-132908139D01*
X116620395Y-132080000D01*
X116606253Y-132065858D01*
X116785858Y-131886253D01*
X116800000Y-131900395D01*
X116814143Y-131886253D01*
X116993748Y-132065858D01*
X116979605Y-132080000D01*
X117807745Y-132908139D01*
X118053864Y-132834005D01*
X118246965Y-132296777D01*
X118219778Y-131726546D01*
X118214995Y-131714999D01*
X120480198Y-131714999D01*
X120521312Y-131756113D01*
G36*
X153905000Y-114505874D02*
X154062569Y-114886280D01*
X154353720Y-115177431D01*
X154734126Y-115335000D01*
X155145874Y-115335000D01*
X155526280Y-115177431D01*
X155643711Y-115060000D01*
X156810201Y-115060000D01*
X158134999Y-116384799D01*
X158134999Y-118076172D01*
X157736777Y-117933035D01*
X157166546Y-117960222D01*
X156765995Y-118126136D01*
X156691861Y-118372255D01*
X157520000Y-119200395D01*
X157534142Y-119186252D01*
X157713748Y-119365858D01*
X157699605Y-119380000D01*
X157713748Y-119394142D01*
X157534143Y-119573748D01*
X157520000Y-119559605D01*
X156691861Y-120387745D01*
X156765995Y-120633864D01*
X157303223Y-120826965D01*
X157873454Y-120799778D01*
X158135000Y-120691442D01*
X158135000Y-121661722D01*
X158120111Y-121736574D01*
X158179096Y-122033111D01*
X158301658Y-122216537D01*
X158347071Y-122284503D01*
X158410527Y-122326903D01*
X164362799Y-128279176D01*
X164345995Y-128286136D01*
X164271861Y-128532255D01*
X165100000Y-129360395D01*
X165114143Y-129346253D01*
X165293748Y-129525858D01*
X165279605Y-129540000D01*
X165293748Y-129554143D01*
X165114142Y-129733748D01*
X165100000Y-129719605D01*
X164271861Y-130547745D01*
X164345995Y-130793864D01*
X164426089Y-130822653D01*
X164362577Y-130848959D01*
X163947611Y-131224866D01*
X163850947Y-131429108D01*
X163594577Y-131045423D01*
X163317288Y-130860145D01*
X163275904Y-130652093D01*
X163107929Y-130400701D01*
X163044473Y-130358301D01*
X162009395Y-129323223D01*
X163653035Y-129323223D01*
X163680222Y-129893454D01*
X163846136Y-130294005D01*
X164092255Y-130368139D01*
X164920395Y-129540000D01*
X164092255Y-128711861D01*
X163846136Y-128785995D01*
X163653035Y-129323223D01*
X162009395Y-129323223D01*
X154121701Y-121435530D01*
X154079299Y-121372071D01*
X153827907Y-121204096D01*
X153606222Y-121160000D01*
X153606217Y-121160000D01*
X153531370Y-121145112D01*
X153456523Y-121160000D01*
X151044312Y-121160000D01*
X151034147Y-121135460D01*
X150644540Y-120745853D01*
X150620000Y-120735688D01*
X150620000Y-119163223D01*
X156073035Y-119163223D01*
X156100222Y-119733454D01*
X156266136Y-120134005D01*
X156512255Y-120208139D01*
X157340395Y-119380000D01*
X156512255Y-118551861D01*
X156266136Y-118625995D01*
X156073035Y-119163223D01*
X150620000Y-119163223D01*
X150620000Y-118078430D01*
X150672862Y-118056534D01*
X150881651Y-117847745D01*
X151531861Y-117847745D01*
X151605995Y-118093864D01*
X152143223Y-118286965D01*
X152713454Y-118259778D01*
X153114005Y-118093864D01*
X153188139Y-117847745D01*
X152360000Y-117019605D01*
X151531861Y-117847745D01*
X150881651Y-117847745D01*
X151076534Y-117652862D01*
X151103525Y-117587701D01*
X151106136Y-117594005D01*
X151352255Y-117668139D01*
X152180395Y-116840000D01*
X152539605Y-116840000D01*
X153367745Y-117668139D01*
X153613864Y-117594005D01*
X153806965Y-117056777D01*
X153779778Y-116486546D01*
X153613864Y-116085995D01*
X153367745Y-116011861D01*
X152539605Y-116840000D01*
X152180395Y-116840000D01*
X151352255Y-116011861D01*
X151106136Y-116085995D01*
X151103710Y-116092746D01*
X151076534Y-116027138D01*
X150881651Y-115832255D01*
X151531861Y-115832255D01*
X152360000Y-116660395D01*
X153188139Y-115832255D01*
X153114005Y-115586136D01*
X152576777Y-115393035D01*
X152006546Y-115420222D01*
X151605995Y-115586136D01*
X151531861Y-115832255D01*
X150881651Y-115832255D01*
X150672862Y-115623466D01*
X150145439Y-115405000D01*
X149574561Y-115405000D01*
X149047138Y-115623466D01*
X148643466Y-116027138D01*
X148425000Y-116554561D01*
X148425000Y-117125439D01*
X148643466Y-117652862D01*
X149047138Y-118056534D01*
X149100001Y-118078430D01*
X149100000Y-120735688D01*
X149075460Y-120745853D01*
X148685853Y-121135460D01*
X148648775Y-121224975D01*
X146954999Y-119531200D01*
X146954999Y-115789851D01*
X146969888Y-115714999D01*
X146910903Y-115418462D01*
X146742928Y-115167070D01*
X146491536Y-114999095D01*
X146269851Y-114954999D01*
X146194999Y-114940110D01*
X146120147Y-114954999D01*
X141774845Y-114954999D01*
X141699998Y-114940111D01*
X141625151Y-114954999D01*
X141625147Y-114954999D01*
X141403462Y-114999095D01*
X141403460Y-114999096D01*
X141403461Y-114999096D01*
X141215525Y-115124670D01*
X141215523Y-115124672D01*
X141152070Y-115167070D01*
X141109672Y-115230523D01*
X139135196Y-117205001D01*
X138550510Y-117205001D01*
X138623113Y-116840000D01*
X138558688Y-116516113D01*
X140739803Y-114334999D01*
X153905000Y-114334999D01*
X153905000Y-114505874D01*
X153905000Y-114505874D01*
G37*
X153905000Y-114505874D02*
X154062569Y-114886280D01*
X154353720Y-115177431D01*
X154734126Y-115335000D01*
X155145874Y-115335000D01*
X155526280Y-115177431D01*
X155643711Y-115060000D01*
X156810201Y-115060000D01*
X158134999Y-116384799D01*
X158134999Y-118076172D01*
X157736777Y-117933035D01*
X157166546Y-117960222D01*
X156765995Y-118126136D01*
X156691861Y-118372255D01*
X157520000Y-119200395D01*
X157534142Y-119186252D01*
X157713748Y-119365858D01*
X157699605Y-119380000D01*
X157713748Y-119394142D01*
X157534143Y-119573748D01*
X157520000Y-119559605D01*
X156691861Y-120387745D01*
X156765995Y-120633864D01*
X157303223Y-120826965D01*
X157873454Y-120799778D01*
X158135000Y-120691442D01*
X158135000Y-121661722D01*
X158120111Y-121736574D01*
X158179096Y-122033111D01*
X158301658Y-122216537D01*
X158347071Y-122284503D01*
X158410527Y-122326903D01*
X164362799Y-128279176D01*
X164345995Y-128286136D01*
X164271861Y-128532255D01*
X165100000Y-129360395D01*
X165114143Y-129346253D01*
X165293748Y-129525858D01*
X165279605Y-129540000D01*
X165293748Y-129554143D01*
X165114142Y-129733748D01*
X165100000Y-129719605D01*
X164271861Y-130547745D01*
X164345995Y-130793864D01*
X164426089Y-130822653D01*
X164362577Y-130848959D01*
X163947611Y-131224866D01*
X163850947Y-131429108D01*
X163594577Y-131045423D01*
X163317288Y-130860145D01*
X163275904Y-130652093D01*
X163107929Y-130400701D01*
X163044473Y-130358301D01*
X162009395Y-129323223D01*
X163653035Y-129323223D01*
X163680222Y-129893454D01*
X163846136Y-130294005D01*
X164092255Y-130368139D01*
X164920395Y-129540000D01*
X164092255Y-128711861D01*
X163846136Y-128785995D01*
X163653035Y-129323223D01*
X162009395Y-129323223D01*
X154121701Y-121435530D01*
X154079299Y-121372071D01*
X153827907Y-121204096D01*
X153606222Y-121160000D01*
X153606217Y-121160000D01*
X153531370Y-121145112D01*
X153456523Y-121160000D01*
X151044312Y-121160000D01*
X151034147Y-121135460D01*
X150644540Y-120745853D01*
X150620000Y-120735688D01*
X150620000Y-119163223D01*
X156073035Y-119163223D01*
X156100222Y-119733454D01*
X156266136Y-120134005D01*
X156512255Y-120208139D01*
X157340395Y-119380000D01*
X156512255Y-118551861D01*
X156266136Y-118625995D01*
X156073035Y-119163223D01*
X150620000Y-119163223D01*
X150620000Y-118078430D01*
X150672862Y-118056534D01*
X150881651Y-117847745D01*
X151531861Y-117847745D01*
X151605995Y-118093864D01*
X152143223Y-118286965D01*
X152713454Y-118259778D01*
X153114005Y-118093864D01*
X153188139Y-117847745D01*
X152360000Y-117019605D01*
X151531861Y-117847745D01*
X150881651Y-117847745D01*
X151076534Y-117652862D01*
X151103525Y-117587701D01*
X151106136Y-117594005D01*
X151352255Y-117668139D01*
X152180395Y-116840000D01*
X152539605Y-116840000D01*
X153367745Y-117668139D01*
X153613864Y-117594005D01*
X153806965Y-117056777D01*
X153779778Y-116486546D01*
X153613864Y-116085995D01*
X153367745Y-116011861D01*
X152539605Y-116840000D01*
X152180395Y-116840000D01*
X151352255Y-116011861D01*
X151106136Y-116085995D01*
X151103710Y-116092746D01*
X151076534Y-116027138D01*
X150881651Y-115832255D01*
X151531861Y-115832255D01*
X152360000Y-116660395D01*
X153188139Y-115832255D01*
X153114005Y-115586136D01*
X152576777Y-115393035D01*
X152006546Y-115420222D01*
X151605995Y-115586136D01*
X151531861Y-115832255D01*
X150881651Y-115832255D01*
X150672862Y-115623466D01*
X150145439Y-115405000D01*
X149574561Y-115405000D01*
X149047138Y-115623466D01*
X148643466Y-116027138D01*
X148425000Y-116554561D01*
X148425000Y-117125439D01*
X148643466Y-117652862D01*
X149047138Y-118056534D01*
X149100001Y-118078430D01*
X149100000Y-120735688D01*
X149075460Y-120745853D01*
X148685853Y-121135460D01*
X148648775Y-121224975D01*
X146954999Y-119531200D01*
X146954999Y-115789851D01*
X146969888Y-115714999D01*
X146910903Y-115418462D01*
X146742928Y-115167070D01*
X146491536Y-114999095D01*
X146269851Y-114954999D01*
X146194999Y-114940110D01*
X146120147Y-114954999D01*
X141774845Y-114954999D01*
X141699998Y-114940111D01*
X141625151Y-114954999D01*
X141625147Y-114954999D01*
X141403462Y-114999095D01*
X141403460Y-114999096D01*
X141403461Y-114999096D01*
X141215525Y-115124670D01*
X141215523Y-115124672D01*
X141152070Y-115167070D01*
X141109672Y-115230523D01*
X139135196Y-117205001D01*
X138550510Y-117205001D01*
X138623113Y-116840000D01*
X138558688Y-116516113D01*
X140739803Y-114334999D01*
X153905000Y-114334999D01*
X153905000Y-114505874D01*
G36*
X177543439Y-84276626D02*
X177569058Y-84886750D01*
X177753254Y-85331438D01*
X178009738Y-85417844D01*
X178910292Y-84517290D01*
X178896150Y-84503148D01*
X179075755Y-84323543D01*
X179089897Y-84337685D01*
X179104040Y-84323543D01*
X179283645Y-84503148D01*
X179269502Y-84517290D01*
X180170056Y-85417844D01*
X180285358Y-85379000D01*
X180288587Y-85386797D01*
X180720390Y-85818600D01*
X180829897Y-85863959D01*
X180829898Y-120043614D01*
X180696890Y-119988524D01*
X180467000Y-120109845D01*
X180467000Y-121303000D01*
X180487000Y-121303000D01*
X180487000Y-121557000D01*
X180467000Y-121557000D01*
X180467000Y-121577000D01*
X180213000Y-121577000D01*
X180213000Y-121557000D01*
X177927000Y-121557000D01*
X177927000Y-122750155D01*
X178156890Y-122871476D01*
X178566924Y-122701645D01*
X178995183Y-122311358D01*
X179070000Y-122152046D01*
X179144817Y-122311358D01*
X179573076Y-122701645D01*
X179685847Y-122748353D01*
X178680529Y-123753672D01*
X178617070Y-123796074D01*
X178449095Y-124047467D01*
X178404999Y-124269152D01*
X178404999Y-124269156D01*
X178390111Y-124344003D01*
X178404999Y-124418850D01*
X178404999Y-128158254D01*
X178379418Y-128141161D01*
X177946256Y-128055000D01*
X177653744Y-128055000D01*
X177384999Y-128108457D01*
X177384999Y-122847407D01*
X177443110Y-122871476D01*
X177673000Y-122750155D01*
X177673000Y-121557000D01*
X177653000Y-121557000D01*
X177653000Y-121303000D01*
X177673000Y-121303000D01*
X177673000Y-120109845D01*
X177927000Y-120109845D01*
X177927000Y-121303000D01*
X180213000Y-121303000D01*
X180213000Y-120109845D01*
X179983110Y-119988524D01*
X179573076Y-120158355D01*
X179144817Y-120548642D01*
X179070000Y-120707954D01*
X178995183Y-120548642D01*
X178566924Y-120158355D01*
X178156890Y-119988524D01*
X177927000Y-120109845D01*
X177673000Y-120109845D01*
X177443110Y-119988524D01*
X177384999Y-120012593D01*
X177384999Y-109104640D01*
X177399887Y-109029792D01*
X177384999Y-108954944D01*
X177384999Y-108954940D01*
X177340903Y-108733255D01*
X177340903Y-108733254D01*
X177215328Y-108545319D01*
X177172928Y-108481863D01*
X177109472Y-108439463D01*
X172731587Y-104061579D01*
X172825386Y-104042921D01*
X173448906Y-103626299D01*
X173865528Y-103002780D01*
X173974897Y-102452945D01*
X173974897Y-102441330D01*
X175204782Y-102441330D01*
X175414880Y-103149484D01*
X175879984Y-103723332D01*
X176529286Y-104075511D01*
X176670252Y-104104985D01*
X176962897Y-103988862D01*
X176962897Y-102144290D01*
X177216897Y-102144290D01*
X177216897Y-103988862D01*
X177509542Y-104104985D01*
X177650508Y-104075511D01*
X178299810Y-103723332D01*
X178764914Y-103149484D01*
X178975012Y-102441330D01*
X178820279Y-102144290D01*
X177216897Y-102144290D01*
X176962897Y-102144290D01*
X175359515Y-102144290D01*
X175204782Y-102441330D01*
X173974897Y-102441330D01*
X173974897Y-101593250D01*
X175204782Y-101593250D01*
X175359515Y-101890290D01*
X176962897Y-101890290D01*
X176962897Y-100045718D01*
X177216897Y-100045718D01*
X177216897Y-101890290D01*
X178820279Y-101890290D01*
X178975012Y-101593250D01*
X178764914Y-100885096D01*
X178299810Y-100311248D01*
X177650508Y-99959069D01*
X177509542Y-99929595D01*
X177216897Y-100045718D01*
X176962897Y-100045718D01*
X176670252Y-99929595D01*
X176529286Y-99959069D01*
X175879984Y-100311248D01*
X175414880Y-100885096D01*
X175204782Y-101593250D01*
X173974897Y-101593250D01*
X173974897Y-101581636D01*
X173865528Y-101031800D01*
X173448906Y-100408281D01*
X172849897Y-100008036D01*
X172849897Y-91526543D01*
X173448906Y-91126299D01*
X173865528Y-90502780D01*
X173974897Y-89952945D01*
X173974897Y-89941330D01*
X175204782Y-89941330D01*
X175414880Y-90649484D01*
X175879984Y-91223332D01*
X176529286Y-91575511D01*
X176670252Y-91604985D01*
X176962897Y-91488862D01*
X176962897Y-89644290D01*
X177216897Y-89644290D01*
X177216897Y-91488862D01*
X177509542Y-91604985D01*
X177650508Y-91575511D01*
X178299810Y-91223332D01*
X178764914Y-90649484D01*
X178975012Y-89941330D01*
X178820279Y-89644290D01*
X177216897Y-89644290D01*
X176962897Y-89644290D01*
X175359515Y-89644290D01*
X175204782Y-89941330D01*
X173974897Y-89941330D01*
X173974897Y-89093250D01*
X175204782Y-89093250D01*
X175359515Y-89390290D01*
X176962897Y-89390290D01*
X176962897Y-87545718D01*
X177216897Y-87545718D01*
X177216897Y-89390290D01*
X178820279Y-89390290D01*
X178975012Y-89093250D01*
X178764914Y-88385096D01*
X178299810Y-87811248D01*
X177650508Y-87459069D01*
X177509542Y-87429595D01*
X177216897Y-87545718D01*
X176962897Y-87545718D01*
X176670252Y-87429595D01*
X176529286Y-87459069D01*
X175879984Y-87811248D01*
X175414880Y-88385096D01*
X175204782Y-89093250D01*
X173974897Y-89093250D01*
X173974897Y-89081636D01*
X173865528Y-88531800D01*
X173448906Y-87908281D01*
X172825387Y-87491659D01*
X172089897Y-87345361D01*
X171354408Y-87491659D01*
X170730888Y-87908281D01*
X170314266Y-88531800D01*
X170204897Y-89081635D01*
X170204897Y-89952944D01*
X170314266Y-90502779D01*
X170730888Y-91126299D01*
X171329898Y-91526545D01*
X171329897Y-100008037D01*
X170730888Y-100408281D01*
X170314266Y-101031800D01*
X170212653Y-101542644D01*
X168349897Y-99679889D01*
X168349897Y-85863959D01*
X168459404Y-85818600D01*
X168839897Y-85438107D01*
X169220390Y-85818600D01*
X169784567Y-86052290D01*
X170395227Y-86052290D01*
X170959404Y-85818600D01*
X171180555Y-85597449D01*
X178189343Y-85597449D01*
X178275749Y-85853933D01*
X178849233Y-86063748D01*
X179459357Y-86038129D01*
X179904045Y-85853933D01*
X179990451Y-85597449D01*
X179089897Y-84696895D01*
X178189343Y-85597449D01*
X171180555Y-85597449D01*
X171391207Y-85386797D01*
X171624897Y-84822620D01*
X171624897Y-84322257D01*
X171894865Y-84052289D01*
X177625515Y-84052289D01*
X177543439Y-84276626D01*
X177543439Y-84276626D01*
G37*
X177543439Y-84276626D02*
X177569058Y-84886750D01*
X177753254Y-85331438D01*
X178009738Y-85417844D01*
X178910292Y-84517290D01*
X178896150Y-84503148D01*
X179075755Y-84323543D01*
X179089897Y-84337685D01*
X179104040Y-84323543D01*
X179283645Y-84503148D01*
X179269502Y-84517290D01*
X180170056Y-85417844D01*
X180285358Y-85379000D01*
X180288587Y-85386797D01*
X180720390Y-85818600D01*
X180829897Y-85863959D01*
X180829898Y-120043614D01*
X180696890Y-119988524D01*
X180467000Y-120109845D01*
X180467000Y-121303000D01*
X180487000Y-121303000D01*
X180487000Y-121557000D01*
X180467000Y-121557000D01*
X180467000Y-121577000D01*
X180213000Y-121577000D01*
X180213000Y-121557000D01*
X177927000Y-121557000D01*
X177927000Y-122750155D01*
X178156890Y-122871476D01*
X178566924Y-122701645D01*
X178995183Y-122311358D01*
X179070000Y-122152046D01*
X179144817Y-122311358D01*
X179573076Y-122701645D01*
X179685847Y-122748353D01*
X178680529Y-123753672D01*
X178617070Y-123796074D01*
X178449095Y-124047467D01*
X178404999Y-124269152D01*
X178404999Y-124269156D01*
X178390111Y-124344003D01*
X178404999Y-124418850D01*
X178404999Y-128158254D01*
X178379418Y-128141161D01*
X177946256Y-128055000D01*
X177653744Y-128055000D01*
X177384999Y-128108457D01*
X177384999Y-122847407D01*
X177443110Y-122871476D01*
X177673000Y-122750155D01*
X177673000Y-121557000D01*
X177653000Y-121557000D01*
X177653000Y-121303000D01*
X177673000Y-121303000D01*
X177673000Y-120109845D01*
X177927000Y-120109845D01*
X177927000Y-121303000D01*
X180213000Y-121303000D01*
X180213000Y-120109845D01*
X179983110Y-119988524D01*
X179573076Y-120158355D01*
X179144817Y-120548642D01*
X179070000Y-120707954D01*
X178995183Y-120548642D01*
X178566924Y-120158355D01*
X178156890Y-119988524D01*
X177927000Y-120109845D01*
X177673000Y-120109845D01*
X177443110Y-119988524D01*
X177384999Y-120012593D01*
X177384999Y-109104640D01*
X177399887Y-109029792D01*
X177384999Y-108954944D01*
X177384999Y-108954940D01*
X177340903Y-108733255D01*
X177340903Y-108733254D01*
X177215328Y-108545319D01*
X177172928Y-108481863D01*
X177109472Y-108439463D01*
X172731587Y-104061579D01*
X172825386Y-104042921D01*
X173448906Y-103626299D01*
X173865528Y-103002780D01*
X173974897Y-102452945D01*
X173974897Y-102441330D01*
X175204782Y-102441330D01*
X175414880Y-103149484D01*
X175879984Y-103723332D01*
X176529286Y-104075511D01*
X176670252Y-104104985D01*
X176962897Y-103988862D01*
X176962897Y-102144290D01*
X177216897Y-102144290D01*
X177216897Y-103988862D01*
X177509542Y-104104985D01*
X177650508Y-104075511D01*
X178299810Y-103723332D01*
X178764914Y-103149484D01*
X178975012Y-102441330D01*
X178820279Y-102144290D01*
X177216897Y-102144290D01*
X176962897Y-102144290D01*
X175359515Y-102144290D01*
X175204782Y-102441330D01*
X173974897Y-102441330D01*
X173974897Y-101593250D01*
X175204782Y-101593250D01*
X175359515Y-101890290D01*
X176962897Y-101890290D01*
X176962897Y-100045718D01*
X177216897Y-100045718D01*
X177216897Y-101890290D01*
X178820279Y-101890290D01*
X178975012Y-101593250D01*
X178764914Y-100885096D01*
X178299810Y-100311248D01*
X177650508Y-99959069D01*
X177509542Y-99929595D01*
X177216897Y-100045718D01*
X176962897Y-100045718D01*
X176670252Y-99929595D01*
X176529286Y-99959069D01*
X175879984Y-100311248D01*
X175414880Y-100885096D01*
X175204782Y-101593250D01*
X173974897Y-101593250D01*
X173974897Y-101581636D01*
X173865528Y-101031800D01*
X173448906Y-100408281D01*
X172849897Y-100008036D01*
X172849897Y-91526543D01*
X173448906Y-91126299D01*
X173865528Y-90502780D01*
X173974897Y-89952945D01*
X173974897Y-89941330D01*
X175204782Y-89941330D01*
X175414880Y-90649484D01*
X175879984Y-91223332D01*
X176529286Y-91575511D01*
X176670252Y-91604985D01*
X176962897Y-91488862D01*
X176962897Y-89644290D01*
X177216897Y-89644290D01*
X177216897Y-91488862D01*
X177509542Y-91604985D01*
X177650508Y-91575511D01*
X178299810Y-91223332D01*
X178764914Y-90649484D01*
X178975012Y-89941330D01*
X178820279Y-89644290D01*
X177216897Y-89644290D01*
X176962897Y-89644290D01*
X175359515Y-89644290D01*
X175204782Y-89941330D01*
X173974897Y-89941330D01*
X173974897Y-89093250D01*
X175204782Y-89093250D01*
X175359515Y-89390290D01*
X176962897Y-89390290D01*
X176962897Y-87545718D01*
X177216897Y-87545718D01*
X177216897Y-89390290D01*
X178820279Y-89390290D01*
X178975012Y-89093250D01*
X178764914Y-88385096D01*
X178299810Y-87811248D01*
X177650508Y-87459069D01*
X177509542Y-87429595D01*
X177216897Y-87545718D01*
X176962897Y-87545718D01*
X176670252Y-87429595D01*
X176529286Y-87459069D01*
X175879984Y-87811248D01*
X175414880Y-88385096D01*
X175204782Y-89093250D01*
X173974897Y-89093250D01*
X173974897Y-89081636D01*
X173865528Y-88531800D01*
X173448906Y-87908281D01*
X172825387Y-87491659D01*
X172089897Y-87345361D01*
X171354408Y-87491659D01*
X170730888Y-87908281D01*
X170314266Y-88531800D01*
X170204897Y-89081635D01*
X170204897Y-89952944D01*
X170314266Y-90502779D01*
X170730888Y-91126299D01*
X171329898Y-91526545D01*
X171329897Y-100008037D01*
X170730888Y-100408281D01*
X170314266Y-101031800D01*
X170212653Y-101542644D01*
X168349897Y-99679889D01*
X168349897Y-85863959D01*
X168459404Y-85818600D01*
X168839897Y-85438107D01*
X169220390Y-85818600D01*
X169784567Y-86052290D01*
X170395227Y-86052290D01*
X170959404Y-85818600D01*
X171180555Y-85597449D01*
X178189343Y-85597449D01*
X178275749Y-85853933D01*
X178849233Y-86063748D01*
X179459357Y-86038129D01*
X179904045Y-85853933D01*
X179990451Y-85597449D01*
X179089897Y-84696895D01*
X178189343Y-85597449D01*
X171180555Y-85597449D01*
X171391207Y-85386797D01*
X171624897Y-84822620D01*
X171624897Y-84322257D01*
X171894865Y-84052289D01*
X177625515Y-84052289D01*
X177543439Y-84276626D01*
G36*
X144933748Y-116825858D02*
X144919605Y-116840000D01*
X144933748Y-116854143D01*
X144754142Y-117033748D01*
X144740000Y-117019605D01*
X144725858Y-117033748D01*
X144546252Y-116854142D01*
X144560395Y-116840000D01*
X144546253Y-116825858D01*
X144725858Y-116646253D01*
X144740000Y-116660395D01*
X144754143Y-116646253D01*
X144933748Y-116825858D01*
X144933748Y-116825858D01*
G37*
X144933748Y-116825858D02*
X144919605Y-116840000D01*
X144933748Y-116854143D01*
X144754142Y-117033748D01*
X144740000Y-117019605D01*
X144725858Y-117033748D01*
X144546252Y-116854142D01*
X144560395Y-116840000D01*
X144546253Y-116825858D01*
X144725858Y-116646253D01*
X144740000Y-116660395D01*
X144754143Y-116646253D01*
X144933748Y-116825858D01*
G36*
X134204897Y-102452944D02*
X134314266Y-103002779D01*
X134730888Y-103626299D01*
X135354407Y-104042921D01*
X136089897Y-104189219D01*
X136825386Y-104042921D01*
X136904907Y-103989787D01*
X136904907Y-107604878D01*
X129554787Y-114954999D01*
X126190940Y-114954999D01*
X126116092Y-114940111D01*
X126041244Y-114954999D01*
X126041240Y-114954999D01*
X125867697Y-114989519D01*
X125819554Y-114999095D01*
X125728404Y-115060000D01*
X125568163Y-115167070D01*
X125525763Y-115230526D01*
X124300276Y-116456013D01*
X124298701Y-116334668D01*
X123959319Y-115515328D01*
X123614571Y-115325034D01*
X122099605Y-116840000D01*
X122113748Y-116854143D01*
X121934143Y-117033748D01*
X121920000Y-117019605D01*
X121905858Y-117033748D01*
X121726253Y-116854143D01*
X121740395Y-116840000D01*
X121726253Y-116825858D01*
X121905858Y-116646253D01*
X121920000Y-116660395D01*
X123434966Y-115145429D01*
X123244672Y-114800681D01*
X122363424Y-114448985D01*
X121848905Y-114455663D01*
X134204897Y-102099672D01*
X134204897Y-102452944D01*
X134204897Y-102452944D01*
G37*
X134204897Y-102452944D02*
X134314266Y-103002779D01*
X134730888Y-103626299D01*
X135354407Y-104042921D01*
X136089897Y-104189219D01*
X136825386Y-104042921D01*
X136904907Y-103989787D01*
X136904907Y-107604878D01*
X129554787Y-114954999D01*
X126190940Y-114954999D01*
X126116092Y-114940111D01*
X126041244Y-114954999D01*
X126041240Y-114954999D01*
X125867697Y-114989519D01*
X125819554Y-114999095D01*
X125728404Y-115060000D01*
X125568163Y-115167070D01*
X125525763Y-115230526D01*
X124300276Y-116456013D01*
X124298701Y-116334668D01*
X123959319Y-115515328D01*
X123614571Y-115325034D01*
X122099605Y-116840000D01*
X122113748Y-116854143D01*
X121934143Y-117033748D01*
X121920000Y-117019605D01*
X121905858Y-117033748D01*
X121726253Y-116854143D01*
X121740395Y-116840000D01*
X121726253Y-116825858D01*
X121905858Y-116646253D01*
X121920000Y-116660395D01*
X123434966Y-115145429D01*
X123244672Y-114800681D01*
X122363424Y-114448985D01*
X121848905Y-114455663D01*
X134204897Y-102099672D01*
X134204897Y-102452944D01*
G36*
X112658946Y-60725543D02*
X112658946Y-61256639D01*
X112862188Y-61747308D01*
X113073092Y-61958212D01*
X112599618Y-62154332D01*
X111907187Y-62846763D01*
X111532446Y-63751468D01*
X111532446Y-64730714D01*
X111907187Y-65635419D01*
X112599618Y-66327850D01*
X113504323Y-66702591D01*
X114483569Y-66702591D01*
X115388274Y-66327850D01*
X116080705Y-65635419D01*
X116455446Y-64730714D01*
X116455446Y-64580836D01*
X118432500Y-66557891D01*
X118432501Y-82714071D01*
X118413938Y-82807393D01*
X118448727Y-82982290D01*
X118284567Y-82982290D01*
X117720390Y-83215980D01*
X117288587Y-83647783D01*
X117285358Y-83655580D01*
X117170056Y-83616736D01*
X116269502Y-84517290D01*
X117170056Y-85417844D01*
X117285358Y-85379000D01*
X117288587Y-85386797D01*
X117720390Y-85818600D01*
X118284567Y-86052290D01*
X118895227Y-86052290D01*
X119004736Y-86006930D01*
X121174557Y-88176752D01*
X121216958Y-88240209D01*
X121418928Y-88375162D01*
X121314266Y-88531800D01*
X121204897Y-89081635D01*
X121204897Y-89952944D01*
X121314266Y-90502779D01*
X121730888Y-91126299D01*
X122329898Y-91526544D01*
X122329897Y-100008037D01*
X121730888Y-100408281D01*
X121314266Y-101031800D01*
X121204897Y-101581635D01*
X121204897Y-102452944D01*
X121314266Y-103002779D01*
X121730888Y-103626299D01*
X122354407Y-104042921D01*
X123089897Y-104189219D01*
X123825386Y-104042921D01*
X124448906Y-103626299D01*
X124865528Y-103002780D01*
X124974897Y-102452945D01*
X124974897Y-102441330D01*
X126204782Y-102441330D01*
X126414880Y-103149484D01*
X126879984Y-103723332D01*
X127529286Y-104075511D01*
X127670252Y-104104985D01*
X127962897Y-103988862D01*
X127962897Y-102144290D01*
X128216897Y-102144290D01*
X128216897Y-103988862D01*
X128509542Y-104104985D01*
X128650508Y-104075511D01*
X129299810Y-103723332D01*
X129764914Y-103149484D01*
X129975012Y-102441330D01*
X129820279Y-102144290D01*
X128216897Y-102144290D01*
X127962897Y-102144290D01*
X126359515Y-102144290D01*
X126204782Y-102441330D01*
X124974897Y-102441330D01*
X124974897Y-101593250D01*
X126204782Y-101593250D01*
X126359515Y-101890290D01*
X127962897Y-101890290D01*
X127962897Y-100045718D01*
X128216897Y-100045718D01*
X128216897Y-101890290D01*
X129820279Y-101890290D01*
X129975012Y-101593250D01*
X129764914Y-100885096D01*
X129299810Y-100311248D01*
X128650508Y-99959069D01*
X128509542Y-99929595D01*
X128216897Y-100045718D01*
X127962897Y-100045718D01*
X127670252Y-99929595D01*
X127529286Y-99959069D01*
X126879984Y-100311248D01*
X126414880Y-100885096D01*
X126204782Y-101593250D01*
X124974897Y-101593250D01*
X124974897Y-101581636D01*
X124865528Y-101031800D01*
X124448906Y-100408281D01*
X123849897Y-100008036D01*
X123849897Y-91526543D01*
X124448906Y-91126299D01*
X124865528Y-90502780D01*
X124967141Y-89991935D01*
X134565085Y-99589880D01*
X119360469Y-114794497D01*
X119297010Y-114836899D01*
X119212365Y-114963579D01*
X119188217Y-114842175D01*
X119047869Y-114632131D01*
X118837825Y-114491783D01*
X118590060Y-114442500D01*
X117801598Y-114442500D01*
X117732525Y-114095244D01*
X117671199Y-114003463D01*
X117523109Y-113781831D01*
X117443997Y-113728970D01*
X109274887Y-105559861D01*
X109274887Y-103989787D01*
X109354407Y-104042921D01*
X110089897Y-104189219D01*
X110825386Y-104042921D01*
X111448906Y-103626299D01*
X111865528Y-103002780D01*
X111974897Y-102452945D01*
X111974897Y-102441330D01*
X113204782Y-102441330D01*
X113414880Y-103149484D01*
X113879984Y-103723332D01*
X114529286Y-104075511D01*
X114670252Y-104104985D01*
X114962897Y-103988862D01*
X114962897Y-102144290D01*
X115216897Y-102144290D01*
X115216897Y-103988862D01*
X115509542Y-104104985D01*
X115650508Y-104075511D01*
X116299810Y-103723332D01*
X116764914Y-103149484D01*
X116975012Y-102441330D01*
X116820279Y-102144290D01*
X115216897Y-102144290D01*
X114962897Y-102144290D01*
X113359515Y-102144290D01*
X113204782Y-102441330D01*
X111974897Y-102441330D01*
X111974897Y-101593250D01*
X113204782Y-101593250D01*
X113359515Y-101890290D01*
X114962897Y-101890290D01*
X114962897Y-100045718D01*
X115216897Y-100045718D01*
X115216897Y-101890290D01*
X116820279Y-101890290D01*
X116975012Y-101593250D01*
X116764914Y-100885096D01*
X116299810Y-100311248D01*
X115650508Y-99959069D01*
X115509542Y-99929595D01*
X115216897Y-100045718D01*
X114962897Y-100045718D01*
X114670252Y-99929595D01*
X114529286Y-99959069D01*
X113879984Y-100311248D01*
X113414880Y-100885096D01*
X113204782Y-101593250D01*
X111974897Y-101593250D01*
X111974897Y-101581636D01*
X111865528Y-101031800D01*
X111448906Y-100408281D01*
X110849897Y-100008036D01*
X110849897Y-91526543D01*
X111448906Y-91126299D01*
X111865528Y-90502780D01*
X111974897Y-89952945D01*
X111974897Y-89941330D01*
X113204782Y-89941330D01*
X113414880Y-90649484D01*
X113879984Y-91223332D01*
X114529286Y-91575511D01*
X114670252Y-91604985D01*
X114962897Y-91488862D01*
X114962897Y-89644290D01*
X115216897Y-89644290D01*
X115216897Y-91488862D01*
X115509542Y-91604985D01*
X115650508Y-91575511D01*
X116299810Y-91223332D01*
X116764914Y-90649484D01*
X116975012Y-89941330D01*
X116820279Y-89644290D01*
X115216897Y-89644290D01*
X114962897Y-89644290D01*
X113359515Y-89644290D01*
X113204782Y-89941330D01*
X111974897Y-89941330D01*
X111974897Y-89093250D01*
X113204782Y-89093250D01*
X113359515Y-89390290D01*
X114962897Y-89390290D01*
X114962897Y-87545718D01*
X115216897Y-87545718D01*
X115216897Y-89390290D01*
X116820279Y-89390290D01*
X116975012Y-89093250D01*
X116764914Y-88385096D01*
X116299810Y-87811248D01*
X115650508Y-87459069D01*
X115509542Y-87429595D01*
X115216897Y-87545718D01*
X114962897Y-87545718D01*
X114670252Y-87429595D01*
X114529286Y-87459069D01*
X113879984Y-87811248D01*
X113414880Y-88385096D01*
X113204782Y-89093250D01*
X111974897Y-89093250D01*
X111974897Y-89081636D01*
X111865528Y-88531800D01*
X111448906Y-87908281D01*
X110825387Y-87491659D01*
X110089897Y-87345361D01*
X109354408Y-87491659D01*
X109274887Y-87544793D01*
X109274887Y-85597449D01*
X115189343Y-85597449D01*
X115275749Y-85853933D01*
X115849233Y-86063748D01*
X116459357Y-86038129D01*
X116904045Y-85853933D01*
X116990451Y-85597449D01*
X116089897Y-84696895D01*
X115189343Y-85597449D01*
X109274887Y-85597449D01*
X109274887Y-84276626D01*
X114543439Y-84276626D01*
X114569058Y-84886750D01*
X114753254Y-85331438D01*
X115009738Y-85417844D01*
X115910292Y-84517290D01*
X115009738Y-83616736D01*
X114753254Y-83703142D01*
X114543439Y-84276626D01*
X109274887Y-84276626D01*
X109274887Y-83437131D01*
X115189343Y-83437131D01*
X116089897Y-84337685D01*
X116990451Y-83437131D01*
X116904045Y-83180647D01*
X116330561Y-82970832D01*
X115720437Y-82996451D01*
X115275749Y-83180647D01*
X115189343Y-83437131D01*
X109274887Y-83437131D01*
X109274887Y-76993156D01*
X111554897Y-76993156D01*
X111554897Y-78041424D01*
X111956052Y-79009898D01*
X112697289Y-79751135D01*
X113665763Y-80152290D01*
X114714031Y-80152290D01*
X115682505Y-79751135D01*
X116423742Y-79009898D01*
X116824897Y-78041424D01*
X116824897Y-76993156D01*
X116423742Y-76024682D01*
X115682505Y-75283445D01*
X114714031Y-74882290D01*
X113665763Y-74882290D01*
X112697289Y-75283445D01*
X111956052Y-76024682D01*
X111554897Y-76993156D01*
X109274887Y-76993156D01*
X109274887Y-64050116D01*
X112701009Y-60623995D01*
X112658946Y-60725543D01*
X112658946Y-60725543D01*
G37*
X112658946Y-60725543D02*
X112658946Y-61256639D01*
X112862188Y-61747308D01*
X113073092Y-61958212D01*
X112599618Y-62154332D01*
X111907187Y-62846763D01*
X111532446Y-63751468D01*
X111532446Y-64730714D01*
X111907187Y-65635419D01*
X112599618Y-66327850D01*
X113504323Y-66702591D01*
X114483569Y-66702591D01*
X115388274Y-66327850D01*
X116080705Y-65635419D01*
X116455446Y-64730714D01*
X116455446Y-64580836D01*
X118432500Y-66557891D01*
X118432501Y-82714071D01*
X118413938Y-82807393D01*
X118448727Y-82982290D01*
X118284567Y-82982290D01*
X117720390Y-83215980D01*
X117288587Y-83647783D01*
X117285358Y-83655580D01*
X117170056Y-83616736D01*
X116269502Y-84517290D01*
X117170056Y-85417844D01*
X117285358Y-85379000D01*
X117288587Y-85386797D01*
X117720390Y-85818600D01*
X118284567Y-86052290D01*
X118895227Y-86052290D01*
X119004736Y-86006930D01*
X121174557Y-88176752D01*
X121216958Y-88240209D01*
X121418928Y-88375162D01*
X121314266Y-88531800D01*
X121204897Y-89081635D01*
X121204897Y-89952944D01*
X121314266Y-90502779D01*
X121730888Y-91126299D01*
X122329898Y-91526544D01*
X122329897Y-100008037D01*
X121730888Y-100408281D01*
X121314266Y-101031800D01*
X121204897Y-101581635D01*
X121204897Y-102452944D01*
X121314266Y-103002779D01*
X121730888Y-103626299D01*
X122354407Y-104042921D01*
X123089897Y-104189219D01*
X123825386Y-104042921D01*
X124448906Y-103626299D01*
X124865528Y-103002780D01*
X124974897Y-102452945D01*
X124974897Y-102441330D01*
X126204782Y-102441330D01*
X126414880Y-103149484D01*
X126879984Y-103723332D01*
X127529286Y-104075511D01*
X127670252Y-104104985D01*
X127962897Y-103988862D01*
X127962897Y-102144290D01*
X128216897Y-102144290D01*
X128216897Y-103988862D01*
X128509542Y-104104985D01*
X128650508Y-104075511D01*
X129299810Y-103723332D01*
X129764914Y-103149484D01*
X129975012Y-102441330D01*
X129820279Y-102144290D01*
X128216897Y-102144290D01*
X127962897Y-102144290D01*
X126359515Y-102144290D01*
X126204782Y-102441330D01*
X124974897Y-102441330D01*
X124974897Y-101593250D01*
X126204782Y-101593250D01*
X126359515Y-101890290D01*
X127962897Y-101890290D01*
X127962897Y-100045718D01*
X128216897Y-100045718D01*
X128216897Y-101890290D01*
X129820279Y-101890290D01*
X129975012Y-101593250D01*
X129764914Y-100885096D01*
X129299810Y-100311248D01*
X128650508Y-99959069D01*
X128509542Y-99929595D01*
X128216897Y-100045718D01*
X127962897Y-100045718D01*
X127670252Y-99929595D01*
X127529286Y-99959069D01*
X126879984Y-100311248D01*
X126414880Y-100885096D01*
X126204782Y-101593250D01*
X124974897Y-101593250D01*
X124974897Y-101581636D01*
X124865528Y-101031800D01*
X124448906Y-100408281D01*
X123849897Y-100008036D01*
X123849897Y-91526543D01*
X124448906Y-91126299D01*
X124865528Y-90502780D01*
X124967141Y-89991935D01*
X134565085Y-99589880D01*
X119360469Y-114794497D01*
X119297010Y-114836899D01*
X119212365Y-114963579D01*
X119188217Y-114842175D01*
X119047869Y-114632131D01*
X118837825Y-114491783D01*
X118590060Y-114442500D01*
X117801598Y-114442500D01*
X117732525Y-114095244D01*
X117671199Y-114003463D01*
X117523109Y-113781831D01*
X117443997Y-113728970D01*
X109274887Y-105559861D01*
X109274887Y-103989787D01*
X109354407Y-104042921D01*
X110089897Y-104189219D01*
X110825386Y-104042921D01*
X111448906Y-103626299D01*
X111865528Y-103002780D01*
X111974897Y-102452945D01*
X111974897Y-102441330D01*
X113204782Y-102441330D01*
X113414880Y-103149484D01*
X113879984Y-103723332D01*
X114529286Y-104075511D01*
X114670252Y-104104985D01*
X114962897Y-103988862D01*
X114962897Y-102144290D01*
X115216897Y-102144290D01*
X115216897Y-103988862D01*
X115509542Y-104104985D01*
X115650508Y-104075511D01*
X116299810Y-103723332D01*
X116764914Y-103149484D01*
X116975012Y-102441330D01*
X116820279Y-102144290D01*
X115216897Y-102144290D01*
X114962897Y-102144290D01*
X113359515Y-102144290D01*
X113204782Y-102441330D01*
X111974897Y-102441330D01*
X111974897Y-101593250D01*
X113204782Y-101593250D01*
X113359515Y-101890290D01*
X114962897Y-101890290D01*
X114962897Y-100045718D01*
X115216897Y-100045718D01*
X115216897Y-101890290D01*
X116820279Y-101890290D01*
X116975012Y-101593250D01*
X116764914Y-100885096D01*
X116299810Y-100311248D01*
X115650508Y-99959069D01*
X115509542Y-99929595D01*
X115216897Y-100045718D01*
X114962897Y-100045718D01*
X114670252Y-99929595D01*
X114529286Y-99959069D01*
X113879984Y-100311248D01*
X113414880Y-100885096D01*
X113204782Y-101593250D01*
X111974897Y-101593250D01*
X111974897Y-101581636D01*
X111865528Y-101031800D01*
X111448906Y-100408281D01*
X110849897Y-100008036D01*
X110849897Y-91526543D01*
X111448906Y-91126299D01*
X111865528Y-90502780D01*
X111974897Y-89952945D01*
X111974897Y-89941330D01*
X113204782Y-89941330D01*
X113414880Y-90649484D01*
X113879984Y-91223332D01*
X114529286Y-91575511D01*
X114670252Y-91604985D01*
X114962897Y-91488862D01*
X114962897Y-89644290D01*
X115216897Y-89644290D01*
X115216897Y-91488862D01*
X115509542Y-91604985D01*
X115650508Y-91575511D01*
X116299810Y-91223332D01*
X116764914Y-90649484D01*
X116975012Y-89941330D01*
X116820279Y-89644290D01*
X115216897Y-89644290D01*
X114962897Y-89644290D01*
X113359515Y-89644290D01*
X113204782Y-89941330D01*
X111974897Y-89941330D01*
X111974897Y-89093250D01*
X113204782Y-89093250D01*
X113359515Y-89390290D01*
X114962897Y-89390290D01*
X114962897Y-87545718D01*
X115216897Y-87545718D01*
X115216897Y-89390290D01*
X116820279Y-89390290D01*
X116975012Y-89093250D01*
X116764914Y-88385096D01*
X116299810Y-87811248D01*
X115650508Y-87459069D01*
X115509542Y-87429595D01*
X115216897Y-87545718D01*
X114962897Y-87545718D01*
X114670252Y-87429595D01*
X114529286Y-87459069D01*
X113879984Y-87811248D01*
X113414880Y-88385096D01*
X113204782Y-89093250D01*
X111974897Y-89093250D01*
X111974897Y-89081636D01*
X111865528Y-88531800D01*
X111448906Y-87908281D01*
X110825387Y-87491659D01*
X110089897Y-87345361D01*
X109354408Y-87491659D01*
X109274887Y-87544793D01*
X109274887Y-85597449D01*
X115189343Y-85597449D01*
X115275749Y-85853933D01*
X115849233Y-86063748D01*
X116459357Y-86038129D01*
X116904045Y-85853933D01*
X116990451Y-85597449D01*
X116089897Y-84696895D01*
X115189343Y-85597449D01*
X109274887Y-85597449D01*
X109274887Y-84276626D01*
X114543439Y-84276626D01*
X114569058Y-84886750D01*
X114753254Y-85331438D01*
X115009738Y-85417844D01*
X115910292Y-84517290D01*
X115009738Y-83616736D01*
X114753254Y-83703142D01*
X114543439Y-84276626D01*
X109274887Y-84276626D01*
X109274887Y-83437131D01*
X115189343Y-83437131D01*
X116089897Y-84337685D01*
X116990451Y-83437131D01*
X116904045Y-83180647D01*
X116330561Y-82970832D01*
X115720437Y-82996451D01*
X115275749Y-83180647D01*
X115189343Y-83437131D01*
X109274887Y-83437131D01*
X109274887Y-76993156D01*
X111554897Y-76993156D01*
X111554897Y-78041424D01*
X111956052Y-79009898D01*
X112697289Y-79751135D01*
X113665763Y-80152290D01*
X114714031Y-80152290D01*
X115682505Y-79751135D01*
X116423742Y-79009898D01*
X116824897Y-78041424D01*
X116824897Y-76993156D01*
X116423742Y-76024682D01*
X115682505Y-75283445D01*
X114714031Y-74882290D01*
X113665763Y-74882290D01*
X112697289Y-75283445D01*
X111956052Y-76024682D01*
X111554897Y-76993156D01*
X109274887Y-76993156D01*
X109274887Y-64050116D01*
X112701009Y-60623995D01*
X112658946Y-60725543D01*
G04 #@! TD*
M02*
