M48
;DRILL file {KiCad (5.0.1)-3} date 30/10/2019 14:47:07
;FORMAT={-:-/ absolute / metric / decimal}
FMAT,2
METRIC,TZ
T1C0.400
T2C0.800
T3C0.900
T4C1.000
T5C1.200
T6C1.397
T7C1.501
T8C2.435
%
G90
G05
M71
T1
X66.675Y-101.6
X86.36Y-121.285
X86.995Y-100.33
X90.805Y-100.33
X90.805Y-101.6
X92.71Y-102.87
X96.52Y-104.14
X114.935Y-122.555
X117.475Y-123.825
X119.38Y-116.84
X120.65Y-129.54
T2
X71.12Y-116.84
X71.12Y-124.46
X73.66Y-116.84
X73.66Y-124.46
X76.2Y-116.84
X76.2Y-124.46
X78.74Y-116.84
X78.74Y-124.46
X81.28Y-116.84
X81.28Y-124.46
X83.82Y-116.84
X83.82Y-124.46
X86.36Y-116.84
X86.36Y-124.46
X88.9Y-116.84
X88.9Y-124.46
X91.44Y-116.84
X91.44Y-124.46
X93.98Y-116.84
X93.98Y-124.46
X96.52Y-116.84
X96.52Y-124.46
X99.06Y-116.84
X99.06Y-124.46
X101.6Y-116.84
X101.6Y-124.46
X104.14Y-116.84
X104.14Y-124.46
X91.44Y-126.96
X91.44Y-129.46
X86.4Y-114.3
X88.9Y-114.3
X73.66Y-132.08
X73.66Y-142.24
X132.08Y-109.22
X132.08Y-119.38
X85.09Y-134.62
X85.09Y-139.5
X127.Y-137.16
X134.62Y-137.16
X109.26Y-114.3
X111.76Y-114.3
X81.28Y-106.68
X91.44Y-106.68
X119.38Y-132.08
X121.88Y-132.08
X93.98Y-132.08
X93.98Y-142.24
X91.44Y-132.08
X91.44Y-142.24
X124.46Y-109.22
X124.46Y-119.38
X99.06Y-134.62
X99.06Y-137.16
X99.06Y-139.7
X99.06Y-142.24
X106.68Y-134.62
X106.68Y-137.16
X106.68Y-139.7
X106.68Y-142.24
X93.98Y-126.96
X93.98Y-129.46
X71.12Y-132.08
X71.12Y-142.24
X127.Y-124.46
X127.Y-127.
X127.Y-129.54
X127.Y-132.08
X134.62Y-124.46
X134.62Y-127.
X134.62Y-129.54
X134.62Y-132.08
X109.3Y-124.46
X111.8Y-124.46
X114.3Y-132.08
X114.3Y-142.24
X129.54Y-109.22
X129.54Y-119.38
X111.76Y-132.08
X111.76Y-142.24
X116.84Y-109.22
X119.34Y-109.22
X76.2Y-132.08
X76.2Y-142.24
X124.46Y-142.24
X134.62Y-142.24
X127.Y-109.22
X127.Y-119.38
X78.74Y-132.08
X78.74Y-142.24
X119.42Y-137.16
X121.92Y-137.16
X134.62Y-109.22
X134.62Y-119.38
X116.8Y-119.38
X119.3Y-119.38
X68.58Y-114.3
X68.58Y-124.46
X66.04Y-114.3
X66.04Y-124.46
X119.38Y-127.
X121.88Y-127.
X116.84Y-114.3
X119.34Y-114.3
X68.58Y-132.08
X68.58Y-142.24
X66.04Y-132.08
X66.04Y-142.24
T3
X79.Y-40.
X82.Y-40.
X85.Y-40.
X109.Y-50.
X111.54Y-50.
X89.Y-50.
X91.54Y-50.
X129.Y-50.
X131.54Y-50.
X79.Y-50.
X81.54Y-50.
X69.Y-50.
X71.54Y-50.
X119.Y-50.
X121.54Y-50.
T4
X93.98Y-114.3
X96.52Y-114.3
X99.06Y-114.3
X101.6Y-114.3
X104.14Y-114.3
X116.84Y-68.58
X119.34Y-68.58
X121.84Y-68.58
X71.12Y-114.3
X73.66Y-114.3
X76.2Y-114.3
X78.74Y-114.3
X81.28Y-114.3
X83.82Y-114.3
X78.74Y-68.58
X81.24Y-68.58
X83.74Y-68.58
X132.08Y-68.58
X134.58Y-68.58
X137.08Y-68.58
X96.52Y-127.
X99.06Y-127.
X101.6Y-127.
X104.14Y-127.
X73.66Y-127.
X76.2Y-127.
X78.74Y-127.
X81.28Y-127.
X83.82Y-127.
X115.Y-44.
X117.5Y-44.
X120.Y-44.
X86.36Y-127.
X88.9Y-127.
X63.5Y-68.58
X66.Y-68.58
X68.5Y-68.58
T5
X95.Y-40.41
X97.5Y-40.41
X100.Y-35.404
X102.5Y-40.41
X105.Y-40.41
X109.22Y-73.66
X109.22Y-86.16
X114.22Y-73.66
X114.22Y-86.16
X73.66Y-73.66
X73.66Y-86.16
X78.66Y-73.66
X78.66Y-86.16
X60.96Y-73.66
X60.96Y-86.16
X65.96Y-73.66
X65.96Y-86.16
X86.36Y-73.66
X86.36Y-86.16
X91.36Y-73.66
X91.36Y-86.16
X134.62Y-73.66
X134.62Y-86.16
X139.62Y-73.66
X139.62Y-86.16
X121.92Y-73.66
X121.92Y-86.16
X126.92Y-73.66
X126.92Y-86.16
T6
X104.262Y-154.483
X106.764Y-151.981
X111.76Y-154.48
X116.756Y-151.981
X119.258Y-154.483
X81.402Y-154.483
X83.904Y-151.981
X88.9Y-154.48
X93.896Y-151.981
X96.398Y-154.483
T7
X71.12Y-106.68
X76.2Y-106.68
T8
X75.75Y-40.
X88.25Y-40.
T0
M30
