M48
; DRILL file {KiCad (5.1.5)-3} date 22/04/2020 17:09:53
; FORMAT={-:-/ absolute / inch / decimal}
; #@! TF.CreationDate,2020-04-22T17:09:53+01:00
; #@! TF.GenerationSoftware,Kicad,Pcbnew,(5.1.5)-3
; #@! TF.FileFunction,NonPlated,1,2,NPTH
FMAT,2
INCH
T1C0.0550
T2C0.0701
T3C0.0866
T4C0.1260
%
G90
G05
T1
X4.1998Y-6.492
X4.5936Y-6.492
X3.2998Y-6.4755
X3.6936Y-6.4755
T2
X2.5Y-4.8
X2.5Y-5.4
X4.1Y-4.8
X4.1Y-5.4
T3
X3.0252Y-2.4244
X3.3717Y-2.425
X2.4252Y-2.4244
X2.7717Y-2.425
X5.1252Y-2.4244
X5.4717Y-2.425
X4.4528Y-1.4567
X4.7992Y-1.4573
X4.5252Y-2.4244
X4.8717Y-2.425
T4
X2.3622Y-2.9134
X3.937Y-3.1496
X2.3622Y-1.378
X3.937Y-1.9685
X5.1181Y-6.2992
X5.5118Y-2.9134
X5.5118Y-4.1339
X5.5118Y-1.378
X2.3622Y-4.1339
X2.7559Y-6.2992
T0
M30
