M48
; DRILL file {KiCad (5.1.5)-3} date 22/04/2020 17:09:53
; FORMAT={-:-/ absolute / inch / decimal}
; #@! TF.CreationDate,2020-04-22T17:09:53+01:00
; #@! TF.GenerationSoftware,Kicad,Pcbnew,(5.1.5)-3
; #@! TF.FileFunction,Plated,1,2,PTH
FMAT,2
INCH
T1C0.0157
T2C0.0315
T3C0.0354
T4C0.0394
T5C0.0433
T6C0.0472
T7C0.0550
T8C0.0591
T9C0.0959
%
G90
G05
T1
X2.95Y-4.6
X3.1Y-4.05
X3.189Y-3.1102
X3.35Y-4.9
X3.6Y-4.35
X3.7Y-4.05
X3.7402Y-5.0
X3.9Y-4.6
X3.95Y-4.65
X4.3701Y-4.0945
T2
X3.7Y-4.2
X3.7984Y-4.2
X4.1Y-4.1
X4.1Y-4.5
X3.3Y-4.1
X3.3Y-4.5
X3.5Y-4.1
X3.5Y-4.5
X5.4Y-4.7
X5.4Y-5.1
X4.2Y-5.8
X4.6Y-5.8
X4.0Y-5.7016
X4.0Y-5.8
X2.6Y-4.8
X2.6Y-5.4
X2.7Y-4.8
X2.7Y-5.4
X2.8Y-4.8
X2.8Y-5.4
X2.9Y-4.8
X2.9Y-5.4
X3.0Y-4.8
X3.0Y-5.4
X3.1Y-4.8
X3.1Y-5.4
X3.2Y-4.8
X3.2Y-5.4
X3.3Y-4.8
X3.3Y-5.4
X3.4Y-4.8
X3.4Y-5.4
X3.5Y-4.8
X3.5Y-5.4
X3.6Y-4.8
X3.6Y-5.4
X3.7Y-4.8
X3.7Y-5.4
X3.8Y-4.8
X3.8Y-5.4
X3.9Y-4.8
X3.9Y-5.4
X4.0Y-4.8
X4.0Y-5.4
X4.0Y-4.1
X4.0Y-4.5
X5.3Y-4.7
X5.3Y-5.1
X3.7Y-5.7
X3.7984Y-5.7
X4.2Y-4.1
X4.2Y-4.5
X3.1Y-5.7
X3.5Y-5.7
X4.8Y-4.7
X4.8Y-4.8
X4.8Y-4.9
X4.8Y-5.0
X5.1Y-4.7
X5.1Y-4.8
X5.1Y-4.9
X5.1Y-5.0
X4.6Y-4.7
X4.6Y-5.0
X3.7Y-4.5
X3.7984Y-4.5
X3.4Y-4.1
X3.4Y-4.5
X3.1Y-5.8
X3.5Y-5.8
T3
X3.5039Y-1.9685
X3.6039Y-1.9685
X4.685Y-1.9685
X4.785Y-1.9685
X5.1Y-5.5638
X5.1Y-5.6819
X5.1Y-5.8
X3.1102Y-1.9685
X3.2102Y-1.9685
X5.0787Y-1.9685
X5.1787Y-1.9685
X2.7165Y-1.9685
X2.8165Y-1.9685
X3.1Y-1.5748
X3.2181Y-1.5748
X3.3362Y-1.5748
X4.2913Y-1.9685
X4.3913Y-1.9685
T4
X5.2Y-2.7
X5.2984Y-2.7
X5.3969Y-2.7
X4.5276Y-1.7323
X4.626Y-1.7323
X4.7244Y-1.7323
X4.6Y-2.7
X4.6984Y-2.7
X4.7969Y-2.7
X2.6Y-4.7
X2.7Y-4.7
X2.8Y-4.7
X2.9Y-4.7
X3.0Y-4.7
X3.1Y-4.7
X3.2Y-4.7
X3.3Y-4.7
X3.4Y-4.7
X3.5Y-4.7
X3.6Y-4.7
X3.7Y-4.7
X3.8Y-4.7
X3.9Y-4.7
X4.0Y-4.7
X2.6Y-5.5
X2.7Y-5.5
X2.8Y-5.5
X2.9Y-5.5
X3.0Y-5.5
X3.1Y-5.5
X3.2Y-5.5
X3.3Y-5.5
X3.4Y-5.5
X3.5Y-5.5
X3.6Y-5.5
X3.7Y-5.5
X3.8Y-5.5
X3.9Y-5.5
X4.0Y-5.5
X3.1Y-2.7
X3.1984Y-2.7
X3.2969Y-2.7
X2.5Y-2.7
X2.5984Y-2.7
X2.6969Y-2.7
T5
X4.3Y-4.7
X4.3Y-5.1
T6
X4.3Y-3.2
X4.3Y-3.6921
X4.4969Y-3.2
X4.4969Y-3.6921
X4.8Y-3.2
X4.8Y-3.6921
X4.9969Y-3.2
X4.9969Y-3.6921
X2.4Y-3.2
X2.4Y-3.6921
X2.5969Y-3.2
X2.5969Y-3.6921
X5.3Y-3.2
X5.3Y-3.6921
X5.4969Y-3.2
X5.4969Y-3.6921
X3.7402Y-1.5909
X3.8386Y-1.5909
X3.937Y-1.3939
X4.0354Y-1.5909
X4.1339Y-1.5909
X2.9Y-3.2
X2.9Y-3.6921
X3.0969Y-3.2
X3.0969Y-3.6921
X3.4Y-3.2
X3.4Y-3.6921
X3.5969Y-3.2
X3.5969Y-3.6921
T7
X4.1015Y-6.0985
X4.2Y-6.0
X4.3967Y-6.0984
X4.5934Y-6.0
X4.6919Y-6.0985
X3.2015Y-6.082
X3.3Y-5.9835
X3.4967Y-6.0819
X3.6934Y-5.9835
X3.7919Y-6.082
T8
X2.8Y-4.2
X3.0Y-4.2
T9
X5.1Y-5.4358
X5.1Y-5.928
X2.972Y-1.5748
X3.4642Y-1.5748
T0
M30
