G04 #@! TF.GenerationSoftware,KiCad,Pcbnew,(5.1.5)-3*
G04 #@! TF.CreationDate,2020-04-22T17:09:55+01:00*
G04 #@! TF.ProjectId,drumkid,6472756d-6b69-4642-9e6b-696361645f70,rev?*
G04 #@! TF.SameCoordinates,Original*
G04 #@! TF.FileFunction,Soldermask,Bot*
G04 #@! TF.FilePolarity,Negative*
%FSLAX46Y46*%
G04 Gerber Fmt 4.6, Leading zero omitted, Abs format (unit mm)*
G04 Created by KiCad (PCBNEW (5.1.5)-3) date 2020-04-22 17:09:55*
%MOMM*%
%LPD*%
G04 APERTURE LIST*
%ADD10C,0.100000*%
G04 APERTURE END LIST*
D10*
G36*
X117041958Y-163695144D02*
G01*
X117269386Y-163789348D01*
X117474065Y-163926110D01*
X117648130Y-164100175D01*
X117784892Y-164304854D01*
X117879096Y-164532282D01*
X117927120Y-164773717D01*
X117927120Y-165019883D01*
X117879096Y-165261318D01*
X117784892Y-165488746D01*
X117648130Y-165693425D01*
X117474065Y-165867490D01*
X117269386Y-166004252D01*
X117041958Y-166098456D01*
X116800523Y-166146480D01*
X116554357Y-166146480D01*
X116312922Y-166098456D01*
X116085494Y-166004252D01*
X115880815Y-165867490D01*
X115706750Y-165693425D01*
X115569988Y-165488746D01*
X115475784Y-165261318D01*
X115427760Y-165019883D01*
X115427760Y-164773717D01*
X115475784Y-164532282D01*
X115569988Y-164304854D01*
X115706750Y-164100175D01*
X115880815Y-163926110D01*
X116085494Y-163789348D01*
X116312922Y-163695144D01*
X116554357Y-163647120D01*
X116800523Y-163647120D01*
X117041958Y-163695144D01*
G37*
G36*
X107039438Y-163695144D02*
G01*
X107266866Y-163789348D01*
X107471545Y-163926110D01*
X107645610Y-164100175D01*
X107782372Y-164304854D01*
X107876576Y-164532282D01*
X107924600Y-164773717D01*
X107924600Y-165019883D01*
X107876576Y-165261318D01*
X107782372Y-165488746D01*
X107645610Y-165693425D01*
X107471545Y-165867490D01*
X107266866Y-166004252D01*
X107039438Y-166098456D01*
X106798003Y-166146480D01*
X106551837Y-166146480D01*
X106310402Y-166098456D01*
X106082974Y-166004252D01*
X105878295Y-165867490D01*
X105704230Y-165693425D01*
X105567468Y-165488746D01*
X105473264Y-165261318D01*
X105425240Y-165019883D01*
X105425240Y-164773717D01*
X105473264Y-164532282D01*
X105567468Y-164304854D01*
X105704230Y-164100175D01*
X105878295Y-163926110D01*
X106082974Y-163789348D01*
X106310402Y-163695144D01*
X106551837Y-163647120D01*
X106798003Y-163647120D01*
X107039438Y-163695144D01*
G37*
G36*
X84179438Y-163276044D02*
G01*
X84406866Y-163370248D01*
X84611545Y-163507010D01*
X84785610Y-163681075D01*
X84922372Y-163885754D01*
X85016576Y-164113182D01*
X85064600Y-164354617D01*
X85064600Y-164600783D01*
X85016576Y-164842218D01*
X84922372Y-165069646D01*
X84785610Y-165274325D01*
X84611545Y-165448390D01*
X84406866Y-165585152D01*
X84179438Y-165679356D01*
X83938003Y-165727380D01*
X83691837Y-165727380D01*
X83450402Y-165679356D01*
X83222974Y-165585152D01*
X83018295Y-165448390D01*
X82844230Y-165274325D01*
X82707468Y-165069646D01*
X82613264Y-164842218D01*
X82565240Y-164600783D01*
X82565240Y-164354617D01*
X82613264Y-164113182D01*
X82707468Y-163885754D01*
X82844230Y-163681075D01*
X83018295Y-163507010D01*
X83222974Y-163370248D01*
X83450402Y-163276044D01*
X83691837Y-163228020D01*
X83938003Y-163228020D01*
X84179438Y-163276044D01*
G37*
G36*
X94181958Y-163276044D02*
G01*
X94409386Y-163370248D01*
X94614065Y-163507010D01*
X94788130Y-163681075D01*
X94924892Y-163885754D01*
X95019096Y-164113182D01*
X95067120Y-164354617D01*
X95067120Y-164600783D01*
X95019096Y-164842218D01*
X94924892Y-165069646D01*
X94788130Y-165274325D01*
X94614065Y-165448390D01*
X94409386Y-165585152D01*
X94181958Y-165679356D01*
X93940523Y-165727380D01*
X93694357Y-165727380D01*
X93452922Y-165679356D01*
X93225494Y-165585152D01*
X93020815Y-165448390D01*
X92846750Y-165274325D01*
X92709988Y-165069646D01*
X92615784Y-164842218D01*
X92567760Y-164600783D01*
X92567760Y-164354617D01*
X92615784Y-164113182D01*
X92709988Y-163885754D01*
X92846750Y-163681075D01*
X93020815Y-163507010D01*
X93225494Y-163370248D01*
X93452922Y-163276044D01*
X93694357Y-163228020D01*
X93940523Y-163228020D01*
X94181958Y-163276044D01*
G37*
G36*
X70466703Y-158461486D02*
G01*
X70757883Y-158582097D01*
X71019940Y-158757198D01*
X71242802Y-158980060D01*
X71417903Y-159242117D01*
X71538514Y-159533297D01*
X71600000Y-159842412D01*
X71600000Y-160157588D01*
X71538514Y-160466703D01*
X71417903Y-160757883D01*
X71242802Y-161019940D01*
X71019940Y-161242802D01*
X70757883Y-161417903D01*
X70466703Y-161538514D01*
X70157588Y-161600000D01*
X69842412Y-161600000D01*
X69533297Y-161538514D01*
X69242117Y-161417903D01*
X68980060Y-161242802D01*
X68757198Y-161019940D01*
X68582097Y-160757883D01*
X68461486Y-160466703D01*
X68400000Y-160157588D01*
X68400000Y-159842412D01*
X68461486Y-159533297D01*
X68582097Y-159242117D01*
X68757198Y-158980060D01*
X68980060Y-158757198D01*
X69242117Y-158582097D01*
X69533297Y-158461486D01*
X69842412Y-158400000D01*
X70157588Y-158400000D01*
X70466703Y-158461486D01*
G37*
G36*
X130466703Y-158461486D02*
G01*
X130757883Y-158582097D01*
X131019940Y-158757198D01*
X131242802Y-158980060D01*
X131417903Y-159242117D01*
X131538514Y-159533297D01*
X131600000Y-159842412D01*
X131600000Y-160157588D01*
X131538514Y-160466703D01*
X131417903Y-160757883D01*
X131242802Y-161019940D01*
X131019940Y-161242802D01*
X130757883Y-161417903D01*
X130466703Y-161538514D01*
X130157588Y-161600000D01*
X129842412Y-161600000D01*
X129533297Y-161538514D01*
X129242117Y-161417903D01*
X128980060Y-161242802D01*
X128757198Y-161019940D01*
X128582097Y-160757883D01*
X128461486Y-160466703D01*
X128400000Y-160157588D01*
X128400000Y-159842412D01*
X128461486Y-159533297D01*
X128582097Y-159242117D01*
X128757198Y-158980060D01*
X128980060Y-158757198D01*
X129242117Y-158582097D01*
X129533297Y-158461486D01*
X129842412Y-158400000D01*
X130157588Y-158400000D01*
X130466703Y-158461486D01*
G37*
G36*
X104542618Y-153700244D02*
G01*
X104770046Y-153794448D01*
X104974725Y-153931210D01*
X105148790Y-154105275D01*
X105285552Y-154309954D01*
X105379756Y-154537382D01*
X105427780Y-154778817D01*
X105427780Y-155024983D01*
X105379756Y-155266418D01*
X105285552Y-155493846D01*
X105148790Y-155698525D01*
X104974725Y-155872590D01*
X104770046Y-156009352D01*
X104542618Y-156103556D01*
X104301183Y-156151580D01*
X104055017Y-156151580D01*
X103813582Y-156103556D01*
X103586154Y-156009352D01*
X103381475Y-155872590D01*
X103207410Y-155698525D01*
X103070648Y-155493846D01*
X102976444Y-155266418D01*
X102928420Y-155024983D01*
X102928420Y-154778817D01*
X102976444Y-154537382D01*
X103070648Y-154309954D01*
X103207410Y-154105275D01*
X103381475Y-153931210D01*
X103586154Y-153794448D01*
X103813582Y-153700244D01*
X104055017Y-153652220D01*
X104301183Y-153652220D01*
X104542618Y-153700244D01*
G37*
G36*
X119538778Y-153700244D02*
G01*
X119766206Y-153794448D01*
X119970885Y-153931210D01*
X120144950Y-154105275D01*
X120281712Y-154309954D01*
X120375916Y-154537382D01*
X120423940Y-154778817D01*
X120423940Y-155024983D01*
X120375916Y-155266418D01*
X120281712Y-155493846D01*
X120144950Y-155698525D01*
X119970885Y-155872590D01*
X119766206Y-156009352D01*
X119538778Y-156103556D01*
X119297343Y-156151580D01*
X119051177Y-156151580D01*
X118809742Y-156103556D01*
X118582314Y-156009352D01*
X118377635Y-155872590D01*
X118203570Y-155698525D01*
X118066808Y-155493846D01*
X117972604Y-155266418D01*
X117924580Y-155024983D01*
X117924580Y-154778817D01*
X117972604Y-154537382D01*
X118066808Y-154309954D01*
X118203570Y-154105275D01*
X118377635Y-153931210D01*
X118582314Y-153794448D01*
X118809742Y-153700244D01*
X119051177Y-153652220D01*
X119297343Y-153652220D01*
X119538778Y-153700244D01*
G37*
G36*
X112040698Y-153697704D02*
G01*
X112268126Y-153791908D01*
X112472805Y-153928670D01*
X112646870Y-154102735D01*
X112783632Y-154307414D01*
X112877836Y-154534842D01*
X112925860Y-154776277D01*
X112925860Y-155022443D01*
X112877836Y-155263878D01*
X112783632Y-155491306D01*
X112646870Y-155695985D01*
X112472805Y-155870050D01*
X112268126Y-156006812D01*
X112040698Y-156101016D01*
X111799263Y-156149040D01*
X111553097Y-156149040D01*
X111311662Y-156101016D01*
X111084234Y-156006812D01*
X110879555Y-155870050D01*
X110705490Y-155695985D01*
X110568728Y-155491306D01*
X110474524Y-155263878D01*
X110426500Y-155022443D01*
X110426500Y-154776277D01*
X110474524Y-154534842D01*
X110568728Y-154307414D01*
X110705490Y-154102735D01*
X110879555Y-153928670D01*
X111084234Y-153791908D01*
X111311662Y-153697704D01*
X111553097Y-153649680D01*
X111799263Y-153649680D01*
X112040698Y-153697704D01*
G37*
G36*
X96678778Y-153281144D02*
G01*
X96906206Y-153375348D01*
X97110885Y-153512110D01*
X97284950Y-153686175D01*
X97421712Y-153890854D01*
X97515916Y-154118282D01*
X97563940Y-154359717D01*
X97563940Y-154605883D01*
X97515916Y-154847318D01*
X97421712Y-155074746D01*
X97284950Y-155279425D01*
X97110885Y-155453490D01*
X96906206Y-155590252D01*
X96678778Y-155684456D01*
X96437343Y-155732480D01*
X96191177Y-155732480D01*
X95949742Y-155684456D01*
X95722314Y-155590252D01*
X95517635Y-155453490D01*
X95343570Y-155279425D01*
X95206808Y-155074746D01*
X95112604Y-154847318D01*
X95064580Y-154605883D01*
X95064580Y-154359717D01*
X95112604Y-154118282D01*
X95206808Y-153890854D01*
X95343570Y-153686175D01*
X95517635Y-153512110D01*
X95722314Y-153375348D01*
X95949742Y-153281144D01*
X96191177Y-153233120D01*
X96437343Y-153233120D01*
X96678778Y-153281144D01*
G37*
G36*
X81682618Y-153281144D02*
G01*
X81910046Y-153375348D01*
X82114725Y-153512110D01*
X82288790Y-153686175D01*
X82425552Y-153890854D01*
X82519756Y-154118282D01*
X82567780Y-154359717D01*
X82567780Y-154605883D01*
X82519756Y-154847318D01*
X82425552Y-155074746D01*
X82288790Y-155279425D01*
X82114725Y-155453490D01*
X81910046Y-155590252D01*
X81682618Y-155684456D01*
X81441183Y-155732480D01*
X81195017Y-155732480D01*
X80953582Y-155684456D01*
X80726154Y-155590252D01*
X80521475Y-155453490D01*
X80347410Y-155279425D01*
X80210648Y-155074746D01*
X80116444Y-154847318D01*
X80068420Y-154605883D01*
X80068420Y-154359717D01*
X80116444Y-154118282D01*
X80210648Y-153890854D01*
X80347410Y-153686175D01*
X80521475Y-153512110D01*
X80726154Y-153375348D01*
X80953582Y-153281144D01*
X81195017Y-153233120D01*
X81441183Y-153233120D01*
X81682618Y-153281144D01*
G37*
G36*
X89180698Y-153278604D02*
G01*
X89408126Y-153372808D01*
X89612805Y-153509570D01*
X89786870Y-153683635D01*
X89923632Y-153888314D01*
X90017836Y-154115742D01*
X90065860Y-154357177D01*
X90065860Y-154603343D01*
X90017836Y-154844778D01*
X89923632Y-155072206D01*
X89786870Y-155276885D01*
X89612805Y-155450950D01*
X89408126Y-155587712D01*
X89180698Y-155681916D01*
X88939263Y-155729940D01*
X88693097Y-155729940D01*
X88451662Y-155681916D01*
X88224234Y-155587712D01*
X88019555Y-155450950D01*
X87845490Y-155276885D01*
X87708728Y-155072206D01*
X87614524Y-154844778D01*
X87566500Y-154603343D01*
X87566500Y-154357177D01*
X87614524Y-154115742D01*
X87708728Y-153888314D01*
X87845490Y-153683635D01*
X88019555Y-153509570D01*
X88224234Y-153372808D01*
X88451662Y-153278604D01*
X88693097Y-153230580D01*
X88939263Y-153230580D01*
X89180698Y-153278604D01*
G37*
G36*
X107044518Y-151198344D02*
G01*
X107271946Y-151292548D01*
X107476625Y-151429310D01*
X107650690Y-151603375D01*
X107787452Y-151808054D01*
X107881656Y-152035482D01*
X107929680Y-152276917D01*
X107929680Y-152523083D01*
X107881656Y-152764518D01*
X107787452Y-152991946D01*
X107650690Y-153196625D01*
X107476625Y-153370690D01*
X107271946Y-153507452D01*
X107044518Y-153601656D01*
X106803083Y-153649680D01*
X106556917Y-153649680D01*
X106315482Y-153601656D01*
X106088054Y-153507452D01*
X105883375Y-153370690D01*
X105709310Y-153196625D01*
X105572548Y-152991946D01*
X105478344Y-152764518D01*
X105430320Y-152523083D01*
X105430320Y-152276917D01*
X105478344Y-152035482D01*
X105572548Y-151808054D01*
X105709310Y-151603375D01*
X105883375Y-151429310D01*
X106088054Y-151292548D01*
X106315482Y-151198344D01*
X106556917Y-151150320D01*
X106803083Y-151150320D01*
X107044518Y-151198344D01*
G37*
G36*
X117036878Y-151198344D02*
G01*
X117264306Y-151292548D01*
X117468985Y-151429310D01*
X117643050Y-151603375D01*
X117779812Y-151808054D01*
X117874016Y-152035482D01*
X117922040Y-152276917D01*
X117922040Y-152523083D01*
X117874016Y-152764518D01*
X117779812Y-152991946D01*
X117643050Y-153196625D01*
X117468985Y-153370690D01*
X117264306Y-153507452D01*
X117036878Y-153601656D01*
X116795443Y-153649680D01*
X116549277Y-153649680D01*
X116307842Y-153601656D01*
X116080414Y-153507452D01*
X115875735Y-153370690D01*
X115701670Y-153196625D01*
X115564908Y-152991946D01*
X115470704Y-152764518D01*
X115422680Y-152523083D01*
X115422680Y-152276917D01*
X115470704Y-152035482D01*
X115564908Y-151808054D01*
X115701670Y-151603375D01*
X115875735Y-151429310D01*
X116080414Y-151292548D01*
X116307842Y-151198344D01*
X116549277Y-151150320D01*
X116795443Y-151150320D01*
X117036878Y-151198344D01*
G37*
G36*
X84184518Y-150779244D02*
G01*
X84411946Y-150873448D01*
X84616625Y-151010210D01*
X84790690Y-151184275D01*
X84927452Y-151388954D01*
X85021656Y-151616382D01*
X85069680Y-151857817D01*
X85069680Y-152103983D01*
X85021656Y-152345418D01*
X84927452Y-152572846D01*
X84790690Y-152777525D01*
X84616625Y-152951590D01*
X84411946Y-153088352D01*
X84184518Y-153182556D01*
X83943083Y-153230580D01*
X83696917Y-153230580D01*
X83455482Y-153182556D01*
X83228054Y-153088352D01*
X83023375Y-152951590D01*
X82849310Y-152777525D01*
X82712548Y-152572846D01*
X82618344Y-152345418D01*
X82570320Y-152103983D01*
X82570320Y-151857817D01*
X82618344Y-151616382D01*
X82712548Y-151388954D01*
X82849310Y-151184275D01*
X83023375Y-151010210D01*
X83228054Y-150873448D01*
X83455482Y-150779244D01*
X83696917Y-150731220D01*
X83943083Y-150731220D01*
X84184518Y-150779244D01*
G37*
G36*
X94176878Y-150779244D02*
G01*
X94404306Y-150873448D01*
X94608985Y-151010210D01*
X94783050Y-151184275D01*
X94919812Y-151388954D01*
X95014016Y-151616382D01*
X95062040Y-151857817D01*
X95062040Y-152103983D01*
X95014016Y-152345418D01*
X94919812Y-152572846D01*
X94783050Y-152777525D01*
X94608985Y-152951590D01*
X94404306Y-153088352D01*
X94176878Y-153182556D01*
X93935443Y-153230580D01*
X93689277Y-153230580D01*
X93447842Y-153182556D01*
X93220414Y-153088352D01*
X93015735Y-152951590D01*
X92841670Y-152777525D01*
X92704908Y-152572846D01*
X92610704Y-152345418D01*
X92562680Y-152103983D01*
X92562680Y-151857817D01*
X92610704Y-151616382D01*
X92704908Y-151388954D01*
X92841670Y-151184275D01*
X93015735Y-151010210D01*
X93220414Y-150873448D01*
X93447842Y-150779244D01*
X93689277Y-150731220D01*
X93935443Y-150731220D01*
X94176878Y-150779244D01*
G37*
G36*
X129896333Y-148778596D02*
G01*
X130072770Y-148813691D01*
X130405172Y-148951376D01*
X130704326Y-149151265D01*
X130958735Y-149405674D01*
X131158624Y-149704828D01*
X131296309Y-150037230D01*
X131366500Y-150390105D01*
X131366500Y-150749895D01*
X131296309Y-151102770D01*
X131158624Y-151435172D01*
X130958735Y-151734326D01*
X130704326Y-151988735D01*
X130405172Y-152188624D01*
X130072770Y-152326309D01*
X129976707Y-152345417D01*
X129719896Y-152396500D01*
X129360104Y-152396500D01*
X129103293Y-152345417D01*
X129007230Y-152326309D01*
X128674828Y-152188624D01*
X128375674Y-151988735D01*
X128121265Y-151734326D01*
X127921376Y-151435172D01*
X127783691Y-151102770D01*
X127713500Y-150749895D01*
X127713500Y-150390105D01*
X127783691Y-150037230D01*
X127921376Y-149704828D01*
X128121265Y-149405674D01*
X128375674Y-149151265D01*
X128674828Y-148951376D01*
X129007230Y-148813691D01*
X129183667Y-148778596D01*
X129360104Y-148743500D01*
X129719896Y-148743500D01*
X129896333Y-148778596D01*
G37*
G36*
X117073351Y-146550743D02*
G01*
X117218941Y-146611048D01*
X117349970Y-146698599D01*
X117461401Y-146810030D01*
X117548952Y-146941059D01*
X117609257Y-147086649D01*
X117640000Y-147241206D01*
X117640000Y-147398794D01*
X117609257Y-147553351D01*
X117548952Y-147698941D01*
X117461401Y-147829970D01*
X117349970Y-147941401D01*
X117218941Y-148028952D01*
X117073351Y-148089257D01*
X116918794Y-148120000D01*
X116761206Y-148120000D01*
X116606649Y-148089257D01*
X116461059Y-148028952D01*
X116330030Y-147941401D01*
X116218599Y-147829970D01*
X116131048Y-147698941D01*
X116070743Y-147553351D01*
X116040000Y-147398794D01*
X116040000Y-147241206D01*
X116070743Y-147086649D01*
X116131048Y-146941059D01*
X116218599Y-146810030D01*
X116330030Y-146698599D01*
X116461059Y-146611048D01*
X116606649Y-146550743D01*
X116761206Y-146520000D01*
X116918794Y-146520000D01*
X117073351Y-146550743D01*
G37*
G36*
X106913351Y-146550743D02*
G01*
X107058941Y-146611048D01*
X107189970Y-146698599D01*
X107301401Y-146810030D01*
X107388952Y-146941059D01*
X107449257Y-147086649D01*
X107480000Y-147241206D01*
X107480000Y-147398794D01*
X107449257Y-147553351D01*
X107388952Y-147698941D01*
X107301401Y-147829970D01*
X107189970Y-147941401D01*
X107058941Y-148028952D01*
X106913351Y-148089257D01*
X106758794Y-148120000D01*
X106601206Y-148120000D01*
X106446649Y-148089257D01*
X106301059Y-148028952D01*
X106170030Y-147941401D01*
X106058599Y-147829970D01*
X105971048Y-147698941D01*
X105910743Y-147553351D01*
X105880000Y-147398794D01*
X105880000Y-147241206D01*
X105910743Y-147086649D01*
X105971048Y-146941059D01*
X106058599Y-146810030D01*
X106170030Y-146698599D01*
X106301059Y-146611048D01*
X106446649Y-146550743D01*
X106601206Y-146520000D01*
X106758794Y-146520000D01*
X106913351Y-146550743D01*
G37*
G36*
X101833351Y-146550743D02*
G01*
X101978941Y-146611048D01*
X102109970Y-146698599D01*
X102221401Y-146810030D01*
X102308952Y-146941059D01*
X102369257Y-147086649D01*
X102400000Y-147241206D01*
X102400000Y-147398794D01*
X102369257Y-147553351D01*
X102308952Y-147698941D01*
X102221401Y-147829970D01*
X102109970Y-147941401D01*
X101978941Y-148028952D01*
X101833351Y-148089257D01*
X101678794Y-148120000D01*
X101521206Y-148120000D01*
X101366649Y-148089257D01*
X101221059Y-148028952D01*
X101090030Y-147941401D01*
X100978599Y-147829970D01*
X100891048Y-147698941D01*
X100830743Y-147553351D01*
X100800000Y-147398794D01*
X100800000Y-147241206D01*
X100830743Y-147086649D01*
X100891048Y-146941059D01*
X100978599Y-146810030D01*
X101090030Y-146698599D01*
X101221059Y-146611048D01*
X101366649Y-146550743D01*
X101521206Y-146520000D01*
X101678794Y-146520000D01*
X101833351Y-146550743D01*
G37*
G36*
X89133351Y-146550743D02*
G01*
X89278941Y-146611048D01*
X89409970Y-146698599D01*
X89521401Y-146810030D01*
X89608952Y-146941059D01*
X89669257Y-147086649D01*
X89700000Y-147241206D01*
X89700000Y-147398794D01*
X89669257Y-147553351D01*
X89608952Y-147698941D01*
X89521401Y-147829970D01*
X89409970Y-147941401D01*
X89278941Y-148028952D01*
X89133351Y-148089257D01*
X88978794Y-148120000D01*
X88821206Y-148120000D01*
X88666649Y-148089257D01*
X88521059Y-148028952D01*
X88390030Y-147941401D01*
X88278599Y-147829970D01*
X88191048Y-147698941D01*
X88130743Y-147553351D01*
X88100000Y-147398794D01*
X88100000Y-147241206D01*
X88130743Y-147086649D01*
X88191048Y-146941059D01*
X88278599Y-146810030D01*
X88390030Y-146698599D01*
X88521059Y-146611048D01*
X88666649Y-146550743D01*
X88821206Y-146520000D01*
X88978794Y-146520000D01*
X89133351Y-146550743D01*
G37*
G36*
X78973351Y-146550743D02*
G01*
X79118941Y-146611048D01*
X79249970Y-146698599D01*
X79361401Y-146810030D01*
X79448952Y-146941059D01*
X79509257Y-147086649D01*
X79540000Y-147241206D01*
X79540000Y-147398794D01*
X79509257Y-147553351D01*
X79448952Y-147698941D01*
X79361401Y-147829970D01*
X79249970Y-147941401D01*
X79118941Y-148028952D01*
X78973351Y-148089257D01*
X78818794Y-148120000D01*
X78661206Y-148120000D01*
X78506649Y-148089257D01*
X78361059Y-148028952D01*
X78230030Y-147941401D01*
X78118599Y-147829970D01*
X78031048Y-147698941D01*
X77970743Y-147553351D01*
X77940000Y-147398794D01*
X77940000Y-147241206D01*
X77970743Y-147086649D01*
X78031048Y-146941059D01*
X78118599Y-146810030D01*
X78230030Y-146698599D01*
X78361059Y-146611048D01*
X78506649Y-146550743D01*
X78661206Y-146520000D01*
X78818794Y-146520000D01*
X78973351Y-146550743D01*
G37*
G36*
X129744182Y-146646900D02*
G01*
X129871573Y-146699667D01*
X129871574Y-146699668D01*
X129986224Y-146776274D01*
X130083726Y-146873776D01*
X130083727Y-146873778D01*
X130160333Y-146988427D01*
X130213100Y-147115818D01*
X130240000Y-147251055D01*
X130240000Y-147388945D01*
X130213100Y-147524182D01*
X130160333Y-147651573D01*
X130160332Y-147651574D01*
X130083726Y-147766224D01*
X129986224Y-147863726D01*
X129928510Y-147902289D01*
X129871573Y-147940333D01*
X129744182Y-147993100D01*
X129608945Y-148020000D01*
X129471055Y-148020000D01*
X129335818Y-147993100D01*
X129208427Y-147940333D01*
X129151490Y-147902289D01*
X129093776Y-147863726D01*
X128996274Y-147766224D01*
X128919668Y-147651574D01*
X128919667Y-147651573D01*
X128866900Y-147524182D01*
X128840000Y-147388945D01*
X128840000Y-147251055D01*
X128866900Y-147115818D01*
X128919667Y-146988427D01*
X128996273Y-146873778D01*
X128996274Y-146873776D01*
X129093776Y-146776274D01*
X129208426Y-146699668D01*
X129208427Y-146699667D01*
X129335818Y-146646900D01*
X129471055Y-146620000D01*
X129608945Y-146620000D01*
X129744182Y-146646900D01*
G37*
G36*
X101833351Y-144050743D02*
G01*
X101978941Y-144111048D01*
X102109970Y-144198599D01*
X102221401Y-144310030D01*
X102308952Y-144441059D01*
X102369257Y-144586649D01*
X102400000Y-144741206D01*
X102400000Y-144898794D01*
X102369257Y-145053351D01*
X102308952Y-145198941D01*
X102221401Y-145329970D01*
X102109970Y-145441401D01*
X101978941Y-145528952D01*
X101833351Y-145589257D01*
X101678794Y-145620000D01*
X101521206Y-145620000D01*
X101366649Y-145589257D01*
X101221059Y-145528952D01*
X101090030Y-145441401D01*
X100978599Y-145329970D01*
X100891048Y-145198941D01*
X100830743Y-145053351D01*
X100800000Y-144898794D01*
X100800000Y-144741206D01*
X100830743Y-144586649D01*
X100891048Y-144441059D01*
X100978599Y-144310030D01*
X101090030Y-144198599D01*
X101221059Y-144111048D01*
X101366649Y-144050743D01*
X101521206Y-144020000D01*
X101678794Y-144020000D01*
X101833351Y-144050743D01*
G37*
G36*
X78973351Y-144010743D02*
G01*
X79118941Y-144071048D01*
X79249970Y-144158599D01*
X79361401Y-144270030D01*
X79448952Y-144401059D01*
X79509257Y-144546649D01*
X79540000Y-144701206D01*
X79540000Y-144858794D01*
X79509257Y-145013351D01*
X79448952Y-145158941D01*
X79361401Y-145289970D01*
X79249970Y-145401401D01*
X79118941Y-145488952D01*
X78973351Y-145549257D01*
X78818794Y-145580000D01*
X78661206Y-145580000D01*
X78506649Y-145549257D01*
X78361059Y-145488952D01*
X78230030Y-145401401D01*
X78118599Y-145289970D01*
X78031048Y-145158941D01*
X77970743Y-145013351D01*
X77940000Y-144858794D01*
X77940000Y-144701206D01*
X77970743Y-144546649D01*
X78031048Y-144401059D01*
X78118599Y-144270030D01*
X78230030Y-144158599D01*
X78361059Y-144071048D01*
X78506649Y-144010743D01*
X78661206Y-143980000D01*
X78818794Y-143980000D01*
X78973351Y-144010743D01*
G37*
G36*
X89133351Y-144010743D02*
G01*
X89278941Y-144071048D01*
X89409970Y-144158599D01*
X89521401Y-144270030D01*
X89608952Y-144401059D01*
X89669257Y-144546649D01*
X89700000Y-144701206D01*
X89700000Y-144858794D01*
X89669257Y-145013351D01*
X89608952Y-145158941D01*
X89521401Y-145289970D01*
X89409970Y-145401401D01*
X89278941Y-145488952D01*
X89133351Y-145549257D01*
X88978794Y-145580000D01*
X88821206Y-145580000D01*
X88666649Y-145549257D01*
X88521059Y-145488952D01*
X88390030Y-145401401D01*
X88278599Y-145289970D01*
X88191048Y-145158941D01*
X88130743Y-145013351D01*
X88100000Y-144858794D01*
X88100000Y-144701206D01*
X88130743Y-144546649D01*
X88191048Y-144401059D01*
X88278599Y-144270030D01*
X88390030Y-144158599D01*
X88521059Y-144071048D01*
X88666649Y-144010743D01*
X88821206Y-143980000D01*
X88978794Y-143980000D01*
X89133351Y-144010743D01*
G37*
G36*
X96713351Y-144010743D02*
G01*
X96858941Y-144071048D01*
X96989970Y-144158599D01*
X97101401Y-144270030D01*
X97188952Y-144401059D01*
X97249257Y-144546649D01*
X97280000Y-144701206D01*
X97280000Y-144858794D01*
X97249257Y-145013351D01*
X97188952Y-145158941D01*
X97101401Y-145289970D01*
X96989970Y-145401401D01*
X96858941Y-145488952D01*
X96713351Y-145549257D01*
X96558794Y-145580000D01*
X96401206Y-145580000D01*
X96246649Y-145549257D01*
X96101059Y-145488952D01*
X95970030Y-145401401D01*
X95858599Y-145289970D01*
X95771048Y-145158941D01*
X95710743Y-145013351D01*
X95680000Y-144858794D01*
X95680000Y-144701206D01*
X95710743Y-144546649D01*
X95771048Y-144401059D01*
X95858599Y-144270030D01*
X95970030Y-144158599D01*
X96101059Y-144071048D01*
X96246649Y-144010743D01*
X96401206Y-143980000D01*
X96558794Y-143980000D01*
X96713351Y-144010743D01*
G37*
G36*
X94780000Y-145580000D02*
G01*
X93180000Y-145580000D01*
X93180000Y-143980000D01*
X94780000Y-143980000D01*
X94780000Y-145580000D01*
G37*
G36*
X129744182Y-143646900D02*
G01*
X129871573Y-143699667D01*
X129871574Y-143699668D01*
X129986224Y-143776274D01*
X130083726Y-143873776D01*
X130083727Y-143873778D01*
X130160333Y-143988427D01*
X130213100Y-144115818D01*
X130240000Y-144251055D01*
X130240000Y-144388945D01*
X130213100Y-144524182D01*
X130160333Y-144651573D01*
X130160332Y-144651574D01*
X130083726Y-144766224D01*
X129986224Y-144863726D01*
X129933742Y-144898793D01*
X129871573Y-144940333D01*
X129744182Y-144993100D01*
X129608945Y-145020000D01*
X129471055Y-145020000D01*
X129335818Y-144993100D01*
X129208427Y-144940333D01*
X129146258Y-144898793D01*
X129093776Y-144863726D01*
X128996274Y-144766224D01*
X128919668Y-144651574D01*
X128919667Y-144651573D01*
X128866900Y-144524182D01*
X128840000Y-144388945D01*
X128840000Y-144251055D01*
X128866900Y-144115818D01*
X128919667Y-143988427D01*
X128996273Y-143873778D01*
X128996274Y-143873776D01*
X129093776Y-143776274D01*
X129208426Y-143699668D01*
X129208427Y-143699667D01*
X129335818Y-143646900D01*
X129471055Y-143620000D01*
X129608945Y-143620000D01*
X129744182Y-143646900D01*
G37*
G36*
X129744182Y-140646900D02*
G01*
X129871573Y-140699667D01*
X129871574Y-140699668D01*
X129986224Y-140776274D01*
X130083726Y-140873776D01*
X130083727Y-140873778D01*
X130160333Y-140988427D01*
X130213100Y-141115818D01*
X130240000Y-141251055D01*
X130240000Y-141388945D01*
X130213100Y-141524182D01*
X130160333Y-141651573D01*
X130160332Y-141651574D01*
X130083726Y-141766224D01*
X129986224Y-141863726D01*
X129928510Y-141902289D01*
X129871573Y-141940333D01*
X129744182Y-141993100D01*
X129608945Y-142020000D01*
X129471055Y-142020000D01*
X129335818Y-141993100D01*
X129208427Y-141940333D01*
X129151490Y-141902289D01*
X129093776Y-141863726D01*
X128996274Y-141766224D01*
X128919668Y-141651574D01*
X128919667Y-141651573D01*
X128866900Y-141524182D01*
X128840000Y-141388945D01*
X128840000Y-141251055D01*
X128866900Y-141115818D01*
X128919667Y-140988427D01*
X128996273Y-140873778D01*
X128996274Y-140873776D01*
X129093776Y-140776274D01*
X129208426Y-140699668D01*
X129208427Y-140699667D01*
X129335818Y-140646900D01*
X129471055Y-140620000D01*
X129608945Y-140620000D01*
X129744182Y-140646900D01*
G37*
G36*
X101847935Y-138882664D02*
G01*
X101974694Y-138935170D01*
X102002626Y-138946740D01*
X102141844Y-139039762D01*
X102260238Y-139158156D01*
X102353260Y-139297374D01*
X102353261Y-139297376D01*
X102417336Y-139452065D01*
X102450000Y-139616281D01*
X102450000Y-139783719D01*
X102417336Y-139947935D01*
X102353261Y-140102624D01*
X102353260Y-140102626D01*
X102260238Y-140241844D01*
X102141844Y-140360238D01*
X102002626Y-140453260D01*
X102002625Y-140453261D01*
X102002624Y-140453261D01*
X101847935Y-140517336D01*
X101683719Y-140550000D01*
X101516281Y-140550000D01*
X101352065Y-140517336D01*
X101197376Y-140453261D01*
X101197375Y-140453261D01*
X101197374Y-140453260D01*
X101058156Y-140360238D01*
X100939762Y-140241844D01*
X100846740Y-140102626D01*
X100846739Y-140102624D01*
X100782664Y-139947935D01*
X100750000Y-139783719D01*
X100750000Y-139616281D01*
X100782664Y-139452065D01*
X100846739Y-139297376D01*
X100846740Y-139297374D01*
X100939762Y-139158156D01*
X101058156Y-139039762D01*
X101197374Y-138946740D01*
X101225306Y-138935170D01*
X101352065Y-138882664D01*
X101516281Y-138850000D01*
X101683719Y-138850000D01*
X101847935Y-138882664D01*
G37*
G36*
X99307935Y-138882664D02*
G01*
X99434694Y-138935170D01*
X99462626Y-138946740D01*
X99601844Y-139039762D01*
X99720238Y-139158156D01*
X99813260Y-139297374D01*
X99813261Y-139297376D01*
X99877336Y-139452065D01*
X99910000Y-139616281D01*
X99910000Y-139783719D01*
X99877336Y-139947935D01*
X99813261Y-140102624D01*
X99813260Y-140102626D01*
X99720238Y-140241844D01*
X99601844Y-140360238D01*
X99462626Y-140453260D01*
X99462625Y-140453261D01*
X99462624Y-140453261D01*
X99307935Y-140517336D01*
X99143719Y-140550000D01*
X98976281Y-140550000D01*
X98812065Y-140517336D01*
X98657376Y-140453261D01*
X98657375Y-140453261D01*
X98657374Y-140453260D01*
X98518156Y-140360238D01*
X98399762Y-140241844D01*
X98306740Y-140102626D01*
X98306739Y-140102624D01*
X98242664Y-139947935D01*
X98210000Y-139783719D01*
X98210000Y-139616281D01*
X98242664Y-139452065D01*
X98306739Y-139297376D01*
X98306740Y-139297374D01*
X98399762Y-139158156D01*
X98518156Y-139039762D01*
X98657374Y-138946740D01*
X98685306Y-138935170D01*
X98812065Y-138882664D01*
X98976281Y-138850000D01*
X99143719Y-138850000D01*
X99307935Y-138882664D01*
G37*
G36*
X96767935Y-138882664D02*
G01*
X96894694Y-138935170D01*
X96922626Y-138946740D01*
X97061844Y-139039762D01*
X97180238Y-139158156D01*
X97273260Y-139297374D01*
X97273261Y-139297376D01*
X97337336Y-139452065D01*
X97370000Y-139616281D01*
X97370000Y-139783719D01*
X97337336Y-139947935D01*
X97273261Y-140102624D01*
X97273260Y-140102626D01*
X97180238Y-140241844D01*
X97061844Y-140360238D01*
X96922626Y-140453260D01*
X96922625Y-140453261D01*
X96922624Y-140453261D01*
X96767935Y-140517336D01*
X96603719Y-140550000D01*
X96436281Y-140550000D01*
X96272065Y-140517336D01*
X96117376Y-140453261D01*
X96117375Y-140453261D01*
X96117374Y-140453260D01*
X95978156Y-140360238D01*
X95859762Y-140241844D01*
X95766740Y-140102626D01*
X95766739Y-140102624D01*
X95702664Y-139947935D01*
X95670000Y-139783719D01*
X95670000Y-139616281D01*
X95702664Y-139452065D01*
X95766739Y-139297376D01*
X95766740Y-139297374D01*
X95859762Y-139158156D01*
X95978156Y-139039762D01*
X96117374Y-138946740D01*
X96145306Y-138935170D01*
X96272065Y-138882664D01*
X96436281Y-138850000D01*
X96603719Y-138850000D01*
X96767935Y-138882664D01*
G37*
G36*
X94227935Y-138882664D02*
G01*
X94354694Y-138935170D01*
X94382626Y-138946740D01*
X94521844Y-139039762D01*
X94640238Y-139158156D01*
X94733260Y-139297374D01*
X94733261Y-139297376D01*
X94797336Y-139452065D01*
X94830000Y-139616281D01*
X94830000Y-139783719D01*
X94797336Y-139947935D01*
X94733261Y-140102624D01*
X94733260Y-140102626D01*
X94640238Y-140241844D01*
X94521844Y-140360238D01*
X94382626Y-140453260D01*
X94382625Y-140453261D01*
X94382624Y-140453261D01*
X94227935Y-140517336D01*
X94063719Y-140550000D01*
X93896281Y-140550000D01*
X93732065Y-140517336D01*
X93577376Y-140453261D01*
X93577375Y-140453261D01*
X93577374Y-140453260D01*
X93438156Y-140360238D01*
X93319762Y-140241844D01*
X93226740Y-140102626D01*
X93226739Y-140102624D01*
X93162664Y-139947935D01*
X93130000Y-139783719D01*
X93130000Y-139616281D01*
X93162664Y-139452065D01*
X93226739Y-139297376D01*
X93226740Y-139297374D01*
X93319762Y-139158156D01*
X93438156Y-139039762D01*
X93577374Y-138946740D01*
X93605306Y-138935170D01*
X93732065Y-138882664D01*
X93896281Y-138850000D01*
X94063719Y-138850000D01*
X94227935Y-138882664D01*
G37*
G36*
X91687935Y-138882664D02*
G01*
X91814694Y-138935170D01*
X91842626Y-138946740D01*
X91981844Y-139039762D01*
X92100238Y-139158156D01*
X92193260Y-139297374D01*
X92193261Y-139297376D01*
X92257336Y-139452065D01*
X92290000Y-139616281D01*
X92290000Y-139783719D01*
X92257336Y-139947935D01*
X92193261Y-140102624D01*
X92193260Y-140102626D01*
X92100238Y-140241844D01*
X91981844Y-140360238D01*
X91842626Y-140453260D01*
X91842625Y-140453261D01*
X91842624Y-140453261D01*
X91687935Y-140517336D01*
X91523719Y-140550000D01*
X91356281Y-140550000D01*
X91192065Y-140517336D01*
X91037376Y-140453261D01*
X91037375Y-140453261D01*
X91037374Y-140453260D01*
X90898156Y-140360238D01*
X90779762Y-140241844D01*
X90686740Y-140102626D01*
X90686739Y-140102624D01*
X90622664Y-139947935D01*
X90590000Y-139783719D01*
X90590000Y-139616281D01*
X90622664Y-139452065D01*
X90686739Y-139297376D01*
X90686740Y-139297374D01*
X90779762Y-139158156D01*
X90898156Y-139039762D01*
X91037374Y-138946740D01*
X91065306Y-138935170D01*
X91192065Y-138882664D01*
X91356281Y-138850000D01*
X91523719Y-138850000D01*
X91687935Y-138882664D01*
G37*
G36*
X89147935Y-138882664D02*
G01*
X89274694Y-138935170D01*
X89302626Y-138946740D01*
X89441844Y-139039762D01*
X89560238Y-139158156D01*
X89653260Y-139297374D01*
X89653261Y-139297376D01*
X89717336Y-139452065D01*
X89750000Y-139616281D01*
X89750000Y-139783719D01*
X89717336Y-139947935D01*
X89653261Y-140102624D01*
X89653260Y-140102626D01*
X89560238Y-140241844D01*
X89441844Y-140360238D01*
X89302626Y-140453260D01*
X89302625Y-140453261D01*
X89302624Y-140453261D01*
X89147935Y-140517336D01*
X88983719Y-140550000D01*
X88816281Y-140550000D01*
X88652065Y-140517336D01*
X88497376Y-140453261D01*
X88497375Y-140453261D01*
X88497374Y-140453260D01*
X88358156Y-140360238D01*
X88239762Y-140241844D01*
X88146740Y-140102626D01*
X88146739Y-140102624D01*
X88082664Y-139947935D01*
X88050000Y-139783719D01*
X88050000Y-139616281D01*
X88082664Y-139452065D01*
X88146739Y-139297376D01*
X88146740Y-139297374D01*
X88239762Y-139158156D01*
X88358156Y-139039762D01*
X88497374Y-138946740D01*
X88525306Y-138935170D01*
X88652065Y-138882664D01*
X88816281Y-138850000D01*
X88983719Y-138850000D01*
X89147935Y-138882664D01*
G37*
G36*
X86607935Y-138882664D02*
G01*
X86734694Y-138935170D01*
X86762626Y-138946740D01*
X86901844Y-139039762D01*
X87020238Y-139158156D01*
X87113260Y-139297374D01*
X87113261Y-139297376D01*
X87177336Y-139452065D01*
X87210000Y-139616281D01*
X87210000Y-139783719D01*
X87177336Y-139947935D01*
X87113261Y-140102624D01*
X87113260Y-140102626D01*
X87020238Y-140241844D01*
X86901844Y-140360238D01*
X86762626Y-140453260D01*
X86762625Y-140453261D01*
X86762624Y-140453261D01*
X86607935Y-140517336D01*
X86443719Y-140550000D01*
X86276281Y-140550000D01*
X86112065Y-140517336D01*
X85957376Y-140453261D01*
X85957375Y-140453261D01*
X85957374Y-140453260D01*
X85818156Y-140360238D01*
X85699762Y-140241844D01*
X85606740Y-140102626D01*
X85606739Y-140102624D01*
X85542664Y-139947935D01*
X85510000Y-139783719D01*
X85510000Y-139616281D01*
X85542664Y-139452065D01*
X85606739Y-139297376D01*
X85606740Y-139297374D01*
X85699762Y-139158156D01*
X85818156Y-139039762D01*
X85957374Y-138946740D01*
X85985306Y-138935170D01*
X86112065Y-138882664D01*
X86276281Y-138850000D01*
X86443719Y-138850000D01*
X86607935Y-138882664D01*
G37*
G36*
X84067935Y-138882664D02*
G01*
X84194694Y-138935170D01*
X84222626Y-138946740D01*
X84361844Y-139039762D01*
X84480238Y-139158156D01*
X84573260Y-139297374D01*
X84573261Y-139297376D01*
X84637336Y-139452065D01*
X84670000Y-139616281D01*
X84670000Y-139783719D01*
X84637336Y-139947935D01*
X84573261Y-140102624D01*
X84573260Y-140102626D01*
X84480238Y-140241844D01*
X84361844Y-140360238D01*
X84222626Y-140453260D01*
X84222625Y-140453261D01*
X84222624Y-140453261D01*
X84067935Y-140517336D01*
X83903719Y-140550000D01*
X83736281Y-140550000D01*
X83572065Y-140517336D01*
X83417376Y-140453261D01*
X83417375Y-140453261D01*
X83417374Y-140453260D01*
X83278156Y-140360238D01*
X83159762Y-140241844D01*
X83066740Y-140102626D01*
X83066739Y-140102624D01*
X83002664Y-139947935D01*
X82970000Y-139783719D01*
X82970000Y-139616281D01*
X83002664Y-139452065D01*
X83066739Y-139297376D01*
X83066740Y-139297374D01*
X83159762Y-139158156D01*
X83278156Y-139039762D01*
X83417374Y-138946740D01*
X83445306Y-138935170D01*
X83572065Y-138882664D01*
X83736281Y-138850000D01*
X83903719Y-138850000D01*
X84067935Y-138882664D01*
G37*
G36*
X78987935Y-138882664D02*
G01*
X79114694Y-138935170D01*
X79142626Y-138946740D01*
X79281844Y-139039762D01*
X79400238Y-139158156D01*
X79493260Y-139297374D01*
X79493261Y-139297376D01*
X79557336Y-139452065D01*
X79590000Y-139616281D01*
X79590000Y-139783719D01*
X79557336Y-139947935D01*
X79493261Y-140102624D01*
X79493260Y-140102626D01*
X79400238Y-140241844D01*
X79281844Y-140360238D01*
X79142626Y-140453260D01*
X79142625Y-140453261D01*
X79142624Y-140453261D01*
X78987935Y-140517336D01*
X78823719Y-140550000D01*
X78656281Y-140550000D01*
X78492065Y-140517336D01*
X78337376Y-140453261D01*
X78337375Y-140453261D01*
X78337374Y-140453260D01*
X78198156Y-140360238D01*
X78079762Y-140241844D01*
X77986740Y-140102626D01*
X77986739Y-140102624D01*
X77922664Y-139947935D01*
X77890000Y-139783719D01*
X77890000Y-139616281D01*
X77922664Y-139452065D01*
X77986739Y-139297376D01*
X77986740Y-139297374D01*
X78079762Y-139158156D01*
X78198156Y-139039762D01*
X78337374Y-138946740D01*
X78365306Y-138935170D01*
X78492065Y-138882664D01*
X78656281Y-138850000D01*
X78823719Y-138850000D01*
X78987935Y-138882664D01*
G37*
G36*
X76447935Y-138882664D02*
G01*
X76574694Y-138935170D01*
X76602626Y-138946740D01*
X76741844Y-139039762D01*
X76860238Y-139158156D01*
X76953260Y-139297374D01*
X76953261Y-139297376D01*
X77017336Y-139452065D01*
X77050000Y-139616281D01*
X77050000Y-139783719D01*
X77017336Y-139947935D01*
X76953261Y-140102624D01*
X76953260Y-140102626D01*
X76860238Y-140241844D01*
X76741844Y-140360238D01*
X76602626Y-140453260D01*
X76602625Y-140453261D01*
X76602624Y-140453261D01*
X76447935Y-140517336D01*
X76283719Y-140550000D01*
X76116281Y-140550000D01*
X75952065Y-140517336D01*
X75797376Y-140453261D01*
X75797375Y-140453261D01*
X75797374Y-140453260D01*
X75658156Y-140360238D01*
X75539762Y-140241844D01*
X75446740Y-140102626D01*
X75446739Y-140102624D01*
X75382664Y-139947935D01*
X75350000Y-139783719D01*
X75350000Y-139616281D01*
X75382664Y-139452065D01*
X75446739Y-139297376D01*
X75446740Y-139297374D01*
X75539762Y-139158156D01*
X75658156Y-139039762D01*
X75797374Y-138946740D01*
X75825306Y-138935170D01*
X75952065Y-138882664D01*
X76116281Y-138850000D01*
X76283719Y-138850000D01*
X76447935Y-138882664D01*
G37*
G36*
X73907935Y-138882664D02*
G01*
X74034694Y-138935170D01*
X74062626Y-138946740D01*
X74201844Y-139039762D01*
X74320238Y-139158156D01*
X74413260Y-139297374D01*
X74413261Y-139297376D01*
X74477336Y-139452065D01*
X74510000Y-139616281D01*
X74510000Y-139783719D01*
X74477336Y-139947935D01*
X74413261Y-140102624D01*
X74413260Y-140102626D01*
X74320238Y-140241844D01*
X74201844Y-140360238D01*
X74062626Y-140453260D01*
X74062625Y-140453261D01*
X74062624Y-140453261D01*
X73907935Y-140517336D01*
X73743719Y-140550000D01*
X73576281Y-140550000D01*
X73412065Y-140517336D01*
X73257376Y-140453261D01*
X73257375Y-140453261D01*
X73257374Y-140453260D01*
X73118156Y-140360238D01*
X72999762Y-140241844D01*
X72906740Y-140102626D01*
X72906739Y-140102624D01*
X72842664Y-139947935D01*
X72810000Y-139783719D01*
X72810000Y-139616281D01*
X72842664Y-139452065D01*
X72906739Y-139297376D01*
X72906740Y-139297374D01*
X72999762Y-139158156D01*
X73118156Y-139039762D01*
X73257374Y-138946740D01*
X73285306Y-138935170D01*
X73412065Y-138882664D01*
X73576281Y-138850000D01*
X73743719Y-138850000D01*
X73907935Y-138882664D01*
G37*
G36*
X71367935Y-138882664D02*
G01*
X71494694Y-138935170D01*
X71522626Y-138946740D01*
X71661844Y-139039762D01*
X71780238Y-139158156D01*
X71873260Y-139297374D01*
X71873261Y-139297376D01*
X71937336Y-139452065D01*
X71970000Y-139616281D01*
X71970000Y-139783719D01*
X71937336Y-139947935D01*
X71873261Y-140102624D01*
X71873260Y-140102626D01*
X71780238Y-140241844D01*
X71661844Y-140360238D01*
X71522626Y-140453260D01*
X71522625Y-140453261D01*
X71522624Y-140453261D01*
X71367935Y-140517336D01*
X71203719Y-140550000D01*
X71036281Y-140550000D01*
X70872065Y-140517336D01*
X70717376Y-140453261D01*
X70717375Y-140453261D01*
X70717374Y-140453260D01*
X70578156Y-140360238D01*
X70459762Y-140241844D01*
X70366740Y-140102626D01*
X70366739Y-140102624D01*
X70302664Y-139947935D01*
X70270000Y-139783719D01*
X70270000Y-139616281D01*
X70302664Y-139452065D01*
X70366739Y-139297376D01*
X70366740Y-139297374D01*
X70459762Y-139158156D01*
X70578156Y-139039762D01*
X70717374Y-138946740D01*
X70745306Y-138935170D01*
X70872065Y-138882664D01*
X71036281Y-138850000D01*
X71203719Y-138850000D01*
X71367935Y-138882664D01*
G37*
G36*
X68827935Y-138882664D02*
G01*
X68954694Y-138935170D01*
X68982626Y-138946740D01*
X69121844Y-139039762D01*
X69240238Y-139158156D01*
X69333260Y-139297374D01*
X69333261Y-139297376D01*
X69397336Y-139452065D01*
X69430000Y-139616281D01*
X69430000Y-139783719D01*
X69397336Y-139947935D01*
X69333261Y-140102624D01*
X69333260Y-140102626D01*
X69240238Y-140241844D01*
X69121844Y-140360238D01*
X68982626Y-140453260D01*
X68982625Y-140453261D01*
X68982624Y-140453261D01*
X68827935Y-140517336D01*
X68663719Y-140550000D01*
X68496281Y-140550000D01*
X68332065Y-140517336D01*
X68177376Y-140453261D01*
X68177375Y-140453261D01*
X68177374Y-140453260D01*
X68038156Y-140360238D01*
X67919762Y-140241844D01*
X67826740Y-140102626D01*
X67826739Y-140102624D01*
X67762664Y-139947935D01*
X67730000Y-139783719D01*
X67730000Y-139616281D01*
X67762664Y-139452065D01*
X67826739Y-139297376D01*
X67826740Y-139297374D01*
X67919762Y-139158156D01*
X68038156Y-139039762D01*
X68177374Y-138946740D01*
X68205306Y-138935170D01*
X68332065Y-138882664D01*
X68496281Y-138850000D01*
X68663719Y-138850000D01*
X68827935Y-138882664D01*
G37*
G36*
X66890000Y-140550000D02*
G01*
X65190000Y-140550000D01*
X65190000Y-138850000D01*
X66890000Y-138850000D01*
X66890000Y-140550000D01*
G37*
G36*
X81527935Y-138882664D02*
G01*
X81654694Y-138935170D01*
X81682626Y-138946740D01*
X81821844Y-139039762D01*
X81940238Y-139158156D01*
X82033260Y-139297374D01*
X82033261Y-139297376D01*
X82097336Y-139452065D01*
X82130000Y-139616281D01*
X82130000Y-139783719D01*
X82097336Y-139947935D01*
X82033261Y-140102624D01*
X82033260Y-140102626D01*
X81940238Y-140241844D01*
X81821844Y-140360238D01*
X81682626Y-140453260D01*
X81682625Y-140453261D01*
X81682624Y-140453261D01*
X81527935Y-140517336D01*
X81363719Y-140550000D01*
X81196281Y-140550000D01*
X81032065Y-140517336D01*
X80877376Y-140453261D01*
X80877375Y-140453261D01*
X80877374Y-140453260D01*
X80738156Y-140360238D01*
X80619762Y-140241844D01*
X80526740Y-140102626D01*
X80526739Y-140102624D01*
X80462664Y-139947935D01*
X80430000Y-139783719D01*
X80430000Y-139616281D01*
X80462664Y-139452065D01*
X80526739Y-139297376D01*
X80526740Y-139297374D01*
X80619762Y-139158156D01*
X80738156Y-139039762D01*
X80877374Y-138946740D01*
X80905306Y-138935170D01*
X81032065Y-138882664D01*
X81196281Y-138850000D01*
X81363719Y-138850000D01*
X81527935Y-138882664D01*
G37*
G36*
X129853120Y-136270000D02*
G01*
X130072770Y-136313691D01*
X130405172Y-136451376D01*
X130704326Y-136651265D01*
X130958735Y-136905674D01*
X131158624Y-137204828D01*
X131296309Y-137537230D01*
X131305129Y-137581571D01*
X131362293Y-137868952D01*
X131366500Y-137890105D01*
X131366500Y-138249895D01*
X131296309Y-138602770D01*
X131158624Y-138935172D01*
X130958735Y-139234326D01*
X130704326Y-139488735D01*
X130405172Y-139688624D01*
X130072770Y-139826309D01*
X129896333Y-139861404D01*
X129719896Y-139896500D01*
X129360104Y-139896500D01*
X129183667Y-139861404D01*
X129007230Y-139826309D01*
X128674828Y-139688624D01*
X128375674Y-139488735D01*
X128121265Y-139234326D01*
X127921376Y-138935172D01*
X127783691Y-138602770D01*
X127713500Y-138249895D01*
X127713500Y-137890105D01*
X127717708Y-137868952D01*
X127774871Y-137581571D01*
X127783691Y-137537230D01*
X127921376Y-137204828D01*
X128121265Y-136905674D01*
X128375674Y-136651265D01*
X128674828Y-136451376D01*
X129007230Y-136313691D01*
X129226880Y-136270000D01*
X129360104Y-136243500D01*
X129719896Y-136243500D01*
X129853120Y-136270000D01*
G37*
G36*
X63759602Y-136304202D02*
G01*
X63921571Y-136371292D01*
X63921573Y-136371293D01*
X64067342Y-136468692D01*
X64191308Y-136592658D01*
X64288707Y-136738427D01*
X64288708Y-136738429D01*
X64355798Y-136900398D01*
X64390000Y-137072341D01*
X64390000Y-137247659D01*
X64355798Y-137419602D01*
X64288708Y-137581571D01*
X64288707Y-137581573D01*
X64191308Y-137727342D01*
X64067342Y-137851308D01*
X63921573Y-137948707D01*
X63921572Y-137948708D01*
X63921571Y-137948708D01*
X63759602Y-138015798D01*
X63587659Y-138050000D01*
X63412341Y-138050000D01*
X63240398Y-138015798D01*
X63078429Y-137948708D01*
X63078428Y-137948708D01*
X63078427Y-137948707D01*
X62932658Y-137851308D01*
X62808692Y-137727342D01*
X62711293Y-137581573D01*
X62711292Y-137581571D01*
X62644202Y-137419602D01*
X62610000Y-137247659D01*
X62610000Y-137072341D01*
X62644202Y-136900398D01*
X62711292Y-136738429D01*
X62711293Y-136738427D01*
X62808692Y-136592658D01*
X62932658Y-136468692D01*
X63078427Y-136371293D01*
X63078429Y-136371292D01*
X63240398Y-136304202D01*
X63412341Y-136270000D01*
X63587659Y-136270000D01*
X63759602Y-136304202D01*
G37*
G36*
X104399602Y-136304202D02*
G01*
X104561571Y-136371292D01*
X104561573Y-136371293D01*
X104707342Y-136468692D01*
X104831308Y-136592658D01*
X104928707Y-136738427D01*
X104928708Y-136738429D01*
X104995798Y-136900398D01*
X105030000Y-137072341D01*
X105030000Y-137247659D01*
X104995798Y-137419602D01*
X104928708Y-137581571D01*
X104928707Y-137581573D01*
X104831308Y-137727342D01*
X104707342Y-137851308D01*
X104561573Y-137948707D01*
X104561572Y-137948708D01*
X104561571Y-137948708D01*
X104399602Y-138015798D01*
X104227659Y-138050000D01*
X104052341Y-138050000D01*
X103880398Y-138015798D01*
X103718429Y-137948708D01*
X103718428Y-137948708D01*
X103718427Y-137948707D01*
X103572658Y-137851308D01*
X103448692Y-137727342D01*
X103351293Y-137581573D01*
X103351292Y-137581571D01*
X103284202Y-137419602D01*
X103250000Y-137247659D01*
X103250000Y-137072341D01*
X103284202Y-136900398D01*
X103351292Y-136738429D01*
X103351293Y-136738427D01*
X103448692Y-136592658D01*
X103572658Y-136468692D01*
X103718427Y-136371293D01*
X103718429Y-136371292D01*
X103880398Y-136304202D01*
X104052341Y-136270000D01*
X104227659Y-136270000D01*
X104399602Y-136304202D01*
G37*
G36*
X66273351Y-136390743D02*
G01*
X66418941Y-136451048D01*
X66549970Y-136538599D01*
X66661401Y-136650030D01*
X66748952Y-136781059D01*
X66809257Y-136926649D01*
X66840000Y-137081206D01*
X66840000Y-137238794D01*
X66809257Y-137393351D01*
X66748952Y-137538941D01*
X66661401Y-137669970D01*
X66549970Y-137781401D01*
X66418941Y-137868952D01*
X66273351Y-137929257D01*
X66118794Y-137960000D01*
X65961206Y-137960000D01*
X65806649Y-137929257D01*
X65661059Y-137868952D01*
X65530030Y-137781401D01*
X65418599Y-137669970D01*
X65331048Y-137538941D01*
X65270743Y-137393351D01*
X65240000Y-137238794D01*
X65240000Y-137081206D01*
X65270743Y-136926649D01*
X65331048Y-136781059D01*
X65418599Y-136650030D01*
X65530030Y-136538599D01*
X65661059Y-136451048D01*
X65806649Y-136390743D01*
X65961206Y-136360000D01*
X66118794Y-136360000D01*
X66273351Y-136390743D01*
G37*
G36*
X101833351Y-136390743D02*
G01*
X101978941Y-136451048D01*
X102109970Y-136538599D01*
X102221401Y-136650030D01*
X102308952Y-136781059D01*
X102369257Y-136926649D01*
X102400000Y-137081206D01*
X102400000Y-137238794D01*
X102369257Y-137393351D01*
X102308952Y-137538941D01*
X102221401Y-137669970D01*
X102109970Y-137781401D01*
X101978941Y-137868952D01*
X101833351Y-137929257D01*
X101678794Y-137960000D01*
X101521206Y-137960000D01*
X101366649Y-137929257D01*
X101221059Y-137868952D01*
X101090030Y-137781401D01*
X100978599Y-137669970D01*
X100891048Y-137538941D01*
X100830743Y-137393351D01*
X100800000Y-137238794D01*
X100800000Y-137081206D01*
X100830743Y-136926649D01*
X100891048Y-136781059D01*
X100978599Y-136650030D01*
X101090030Y-136538599D01*
X101221059Y-136451048D01*
X101366649Y-136390743D01*
X101521206Y-136360000D01*
X101678794Y-136360000D01*
X101833351Y-136390743D01*
G37*
G36*
X99293351Y-136390743D02*
G01*
X99438941Y-136451048D01*
X99569970Y-136538599D01*
X99681401Y-136650030D01*
X99768952Y-136781059D01*
X99829257Y-136926649D01*
X99860000Y-137081206D01*
X99860000Y-137238794D01*
X99829257Y-137393351D01*
X99768952Y-137538941D01*
X99681401Y-137669970D01*
X99569970Y-137781401D01*
X99438941Y-137868952D01*
X99293351Y-137929257D01*
X99138794Y-137960000D01*
X98981206Y-137960000D01*
X98826649Y-137929257D01*
X98681059Y-137868952D01*
X98550030Y-137781401D01*
X98438599Y-137669970D01*
X98351048Y-137538941D01*
X98290743Y-137393351D01*
X98260000Y-137238794D01*
X98260000Y-137081206D01*
X98290743Y-136926649D01*
X98351048Y-136781059D01*
X98438599Y-136650030D01*
X98550030Y-136538599D01*
X98681059Y-136451048D01*
X98826649Y-136390743D01*
X98981206Y-136360000D01*
X99138794Y-136360000D01*
X99293351Y-136390743D01*
G37*
G36*
X96753351Y-136390743D02*
G01*
X96898941Y-136451048D01*
X97029970Y-136538599D01*
X97141401Y-136650030D01*
X97228952Y-136781059D01*
X97289257Y-136926649D01*
X97320000Y-137081206D01*
X97320000Y-137238794D01*
X97289257Y-137393351D01*
X97228952Y-137538941D01*
X97141401Y-137669970D01*
X97029970Y-137781401D01*
X96898941Y-137868952D01*
X96753351Y-137929257D01*
X96598794Y-137960000D01*
X96441206Y-137960000D01*
X96286649Y-137929257D01*
X96141059Y-137868952D01*
X96010030Y-137781401D01*
X95898599Y-137669970D01*
X95811048Y-137538941D01*
X95750743Y-137393351D01*
X95720000Y-137238794D01*
X95720000Y-137081206D01*
X95750743Y-136926649D01*
X95811048Y-136781059D01*
X95898599Y-136650030D01*
X96010030Y-136538599D01*
X96141059Y-136451048D01*
X96286649Y-136390743D01*
X96441206Y-136360000D01*
X96598794Y-136360000D01*
X96753351Y-136390743D01*
G37*
G36*
X91673351Y-136390743D02*
G01*
X91818941Y-136451048D01*
X91949970Y-136538599D01*
X92061401Y-136650030D01*
X92148952Y-136781059D01*
X92209257Y-136926649D01*
X92240000Y-137081206D01*
X92240000Y-137238794D01*
X92209257Y-137393351D01*
X92148952Y-137538941D01*
X92061401Y-137669970D01*
X91949970Y-137781401D01*
X91818941Y-137868952D01*
X91673351Y-137929257D01*
X91518794Y-137960000D01*
X91361206Y-137960000D01*
X91206649Y-137929257D01*
X91061059Y-137868952D01*
X90930030Y-137781401D01*
X90818599Y-137669970D01*
X90731048Y-137538941D01*
X90670743Y-137393351D01*
X90640000Y-137238794D01*
X90640000Y-137081206D01*
X90670743Y-136926649D01*
X90731048Y-136781059D01*
X90818599Y-136650030D01*
X90930030Y-136538599D01*
X91061059Y-136451048D01*
X91206649Y-136390743D01*
X91361206Y-136360000D01*
X91518794Y-136360000D01*
X91673351Y-136390743D01*
G37*
G36*
X89133351Y-136390743D02*
G01*
X89278941Y-136451048D01*
X89409970Y-136538599D01*
X89521401Y-136650030D01*
X89608952Y-136781059D01*
X89669257Y-136926649D01*
X89700000Y-137081206D01*
X89700000Y-137238794D01*
X89669257Y-137393351D01*
X89608952Y-137538941D01*
X89521401Y-137669970D01*
X89409970Y-137781401D01*
X89278941Y-137868952D01*
X89133351Y-137929257D01*
X88978794Y-137960000D01*
X88821206Y-137960000D01*
X88666649Y-137929257D01*
X88521059Y-137868952D01*
X88390030Y-137781401D01*
X88278599Y-137669970D01*
X88191048Y-137538941D01*
X88130743Y-137393351D01*
X88100000Y-137238794D01*
X88100000Y-137081206D01*
X88130743Y-136926649D01*
X88191048Y-136781059D01*
X88278599Y-136650030D01*
X88390030Y-136538599D01*
X88521059Y-136451048D01*
X88666649Y-136390743D01*
X88821206Y-136360000D01*
X88978794Y-136360000D01*
X89133351Y-136390743D01*
G37*
G36*
X86593351Y-136390743D02*
G01*
X86738941Y-136451048D01*
X86869970Y-136538599D01*
X86981401Y-136650030D01*
X87068952Y-136781059D01*
X87129257Y-136926649D01*
X87160000Y-137081206D01*
X87160000Y-137238794D01*
X87129257Y-137393351D01*
X87068952Y-137538941D01*
X86981401Y-137669970D01*
X86869970Y-137781401D01*
X86738941Y-137868952D01*
X86593351Y-137929257D01*
X86438794Y-137960000D01*
X86281206Y-137960000D01*
X86126649Y-137929257D01*
X85981059Y-137868952D01*
X85850030Y-137781401D01*
X85738599Y-137669970D01*
X85651048Y-137538941D01*
X85590743Y-137393351D01*
X85560000Y-137238794D01*
X85560000Y-137081206D01*
X85590743Y-136926649D01*
X85651048Y-136781059D01*
X85738599Y-136650030D01*
X85850030Y-136538599D01*
X85981059Y-136451048D01*
X86126649Y-136390743D01*
X86281206Y-136360000D01*
X86438794Y-136360000D01*
X86593351Y-136390743D01*
G37*
G36*
X84053351Y-136390743D02*
G01*
X84198941Y-136451048D01*
X84329970Y-136538599D01*
X84441401Y-136650030D01*
X84528952Y-136781059D01*
X84589257Y-136926649D01*
X84620000Y-137081206D01*
X84620000Y-137238794D01*
X84589257Y-137393351D01*
X84528952Y-137538941D01*
X84441401Y-137669970D01*
X84329970Y-137781401D01*
X84198941Y-137868952D01*
X84053351Y-137929257D01*
X83898794Y-137960000D01*
X83741206Y-137960000D01*
X83586649Y-137929257D01*
X83441059Y-137868952D01*
X83310030Y-137781401D01*
X83198599Y-137669970D01*
X83111048Y-137538941D01*
X83050743Y-137393351D01*
X83020000Y-137238794D01*
X83020000Y-137081206D01*
X83050743Y-136926649D01*
X83111048Y-136781059D01*
X83198599Y-136650030D01*
X83310030Y-136538599D01*
X83441059Y-136451048D01*
X83586649Y-136390743D01*
X83741206Y-136360000D01*
X83898794Y-136360000D01*
X84053351Y-136390743D01*
G37*
G36*
X78973351Y-136390743D02*
G01*
X79118941Y-136451048D01*
X79249970Y-136538599D01*
X79361401Y-136650030D01*
X79448952Y-136781059D01*
X79509257Y-136926649D01*
X79540000Y-137081206D01*
X79540000Y-137238794D01*
X79509257Y-137393351D01*
X79448952Y-137538941D01*
X79361401Y-137669970D01*
X79249970Y-137781401D01*
X79118941Y-137868952D01*
X78973351Y-137929257D01*
X78818794Y-137960000D01*
X78661206Y-137960000D01*
X78506649Y-137929257D01*
X78361059Y-137868952D01*
X78230030Y-137781401D01*
X78118599Y-137669970D01*
X78031048Y-137538941D01*
X77970743Y-137393351D01*
X77940000Y-137238794D01*
X77940000Y-137081206D01*
X77970743Y-136926649D01*
X78031048Y-136781059D01*
X78118599Y-136650030D01*
X78230030Y-136538599D01*
X78361059Y-136451048D01*
X78506649Y-136390743D01*
X78661206Y-136360000D01*
X78818794Y-136360000D01*
X78973351Y-136390743D01*
G37*
G36*
X76433351Y-136390743D02*
G01*
X76578941Y-136451048D01*
X76709970Y-136538599D01*
X76821401Y-136650030D01*
X76908952Y-136781059D01*
X76969257Y-136926649D01*
X77000000Y-137081206D01*
X77000000Y-137238794D01*
X76969257Y-137393351D01*
X76908952Y-137538941D01*
X76821401Y-137669970D01*
X76709970Y-137781401D01*
X76578941Y-137868952D01*
X76433351Y-137929257D01*
X76278794Y-137960000D01*
X76121206Y-137960000D01*
X75966649Y-137929257D01*
X75821059Y-137868952D01*
X75690030Y-137781401D01*
X75578599Y-137669970D01*
X75491048Y-137538941D01*
X75430743Y-137393351D01*
X75400000Y-137238794D01*
X75400000Y-137081206D01*
X75430743Y-136926649D01*
X75491048Y-136781059D01*
X75578599Y-136650030D01*
X75690030Y-136538599D01*
X75821059Y-136451048D01*
X75966649Y-136390743D01*
X76121206Y-136360000D01*
X76278794Y-136360000D01*
X76433351Y-136390743D01*
G37*
G36*
X73893351Y-136390743D02*
G01*
X74038941Y-136451048D01*
X74169970Y-136538599D01*
X74281401Y-136650030D01*
X74368952Y-136781059D01*
X74429257Y-136926649D01*
X74460000Y-137081206D01*
X74460000Y-137238794D01*
X74429257Y-137393351D01*
X74368952Y-137538941D01*
X74281401Y-137669970D01*
X74169970Y-137781401D01*
X74038941Y-137868952D01*
X73893351Y-137929257D01*
X73738794Y-137960000D01*
X73581206Y-137960000D01*
X73426649Y-137929257D01*
X73281059Y-137868952D01*
X73150030Y-137781401D01*
X73038599Y-137669970D01*
X72951048Y-137538941D01*
X72890743Y-137393351D01*
X72860000Y-137238794D01*
X72860000Y-137081206D01*
X72890743Y-136926649D01*
X72951048Y-136781059D01*
X73038599Y-136650030D01*
X73150030Y-136538599D01*
X73281059Y-136451048D01*
X73426649Y-136390743D01*
X73581206Y-136360000D01*
X73738794Y-136360000D01*
X73893351Y-136390743D01*
G37*
G36*
X71353351Y-136390743D02*
G01*
X71498941Y-136451048D01*
X71629970Y-136538599D01*
X71741401Y-136650030D01*
X71828952Y-136781059D01*
X71889257Y-136926649D01*
X71920000Y-137081206D01*
X71920000Y-137238794D01*
X71889257Y-137393351D01*
X71828952Y-137538941D01*
X71741401Y-137669970D01*
X71629970Y-137781401D01*
X71498941Y-137868952D01*
X71353351Y-137929257D01*
X71198794Y-137960000D01*
X71041206Y-137960000D01*
X70886649Y-137929257D01*
X70741059Y-137868952D01*
X70610030Y-137781401D01*
X70498599Y-137669970D01*
X70411048Y-137538941D01*
X70350743Y-137393351D01*
X70320000Y-137238794D01*
X70320000Y-137081206D01*
X70350743Y-136926649D01*
X70411048Y-136781059D01*
X70498599Y-136650030D01*
X70610030Y-136538599D01*
X70741059Y-136451048D01*
X70886649Y-136390743D01*
X71041206Y-136360000D01*
X71198794Y-136360000D01*
X71353351Y-136390743D01*
G37*
G36*
X68813351Y-136390743D02*
G01*
X68958941Y-136451048D01*
X69089970Y-136538599D01*
X69201401Y-136650030D01*
X69288952Y-136781059D01*
X69349257Y-136926649D01*
X69380000Y-137081206D01*
X69380000Y-137238794D01*
X69349257Y-137393351D01*
X69288952Y-137538941D01*
X69201401Y-137669970D01*
X69089970Y-137781401D01*
X68958941Y-137868952D01*
X68813351Y-137929257D01*
X68658794Y-137960000D01*
X68501206Y-137960000D01*
X68346649Y-137929257D01*
X68201059Y-137868952D01*
X68070030Y-137781401D01*
X67958599Y-137669970D01*
X67871048Y-137538941D01*
X67810743Y-137393351D01*
X67780000Y-137238794D01*
X67780000Y-137081206D01*
X67810743Y-136926649D01*
X67871048Y-136781059D01*
X67958599Y-136650030D01*
X68070030Y-136538599D01*
X68201059Y-136451048D01*
X68346649Y-136390743D01*
X68501206Y-136360000D01*
X68658794Y-136360000D01*
X68813351Y-136390743D01*
G37*
G36*
X94213351Y-136390743D02*
G01*
X94358941Y-136451048D01*
X94489970Y-136538599D01*
X94601401Y-136650030D01*
X94688952Y-136781059D01*
X94749257Y-136926649D01*
X94780000Y-137081206D01*
X94780000Y-137238794D01*
X94749257Y-137393351D01*
X94688952Y-137538941D01*
X94601401Y-137669970D01*
X94489970Y-137781401D01*
X94358941Y-137868952D01*
X94213351Y-137929257D01*
X94058794Y-137960000D01*
X93901206Y-137960000D01*
X93746649Y-137929257D01*
X93601059Y-137868952D01*
X93470030Y-137781401D01*
X93358599Y-137669970D01*
X93271048Y-137538941D01*
X93210743Y-137393351D01*
X93180000Y-137238794D01*
X93180000Y-137081206D01*
X93210743Y-136926649D01*
X93271048Y-136781059D01*
X93358599Y-136650030D01*
X93470030Y-136538599D01*
X93601059Y-136451048D01*
X93746649Y-136390743D01*
X93901206Y-136360000D01*
X94058794Y-136360000D01*
X94213351Y-136390743D01*
G37*
G36*
X81513351Y-136390743D02*
G01*
X81658941Y-136451048D01*
X81789970Y-136538599D01*
X81901401Y-136650030D01*
X81988952Y-136781059D01*
X82049257Y-136926649D01*
X82080000Y-137081206D01*
X82080000Y-137238794D01*
X82049257Y-137393351D01*
X81988952Y-137538941D01*
X81901401Y-137669970D01*
X81789970Y-137781401D01*
X81658941Y-137868952D01*
X81513351Y-137929257D01*
X81358794Y-137960000D01*
X81201206Y-137960000D01*
X81046649Y-137929257D01*
X80901059Y-137868952D01*
X80770030Y-137781401D01*
X80658599Y-137669970D01*
X80571048Y-137538941D01*
X80510743Y-137393351D01*
X80480000Y-137238794D01*
X80480000Y-137081206D01*
X80510743Y-136926649D01*
X80571048Y-136781059D01*
X80658599Y-136650030D01*
X80770030Y-136538599D01*
X80901059Y-136451048D01*
X81046649Y-136390743D01*
X81201206Y-136360000D01*
X81358794Y-136360000D01*
X81513351Y-136390743D01*
G37*
G36*
X110320000Y-130640000D02*
G01*
X108120000Y-130640000D01*
X108120000Y-128440000D01*
X110320000Y-128440000D01*
X110320000Y-130640000D01*
G37*
G36*
X134853351Y-128770743D02*
G01*
X134998941Y-128831048D01*
X135129970Y-128918599D01*
X135241401Y-129030030D01*
X135328952Y-129161059D01*
X135389257Y-129306649D01*
X135420000Y-129461206D01*
X135420000Y-129618794D01*
X135389257Y-129773351D01*
X135328952Y-129918941D01*
X135241401Y-130049970D01*
X135129970Y-130161401D01*
X134998941Y-130248952D01*
X134853351Y-130309257D01*
X134698794Y-130340000D01*
X134541206Y-130340000D01*
X134386649Y-130309257D01*
X134241059Y-130248952D01*
X134110030Y-130161401D01*
X133998599Y-130049970D01*
X133911048Y-129918941D01*
X133850743Y-129773351D01*
X133820000Y-129618794D01*
X133820000Y-129461206D01*
X133850743Y-129306649D01*
X133911048Y-129161059D01*
X133998599Y-129030030D01*
X134110030Y-128918599D01*
X134241059Y-128831048D01*
X134386649Y-128770743D01*
X134541206Y-128740000D01*
X134698794Y-128740000D01*
X134853351Y-128770743D01*
G37*
G36*
X137393351Y-128770743D02*
G01*
X137538941Y-128831048D01*
X137669970Y-128918599D01*
X137781401Y-129030030D01*
X137868952Y-129161059D01*
X137929257Y-129306649D01*
X137960000Y-129461206D01*
X137960000Y-129618794D01*
X137929257Y-129773351D01*
X137868952Y-129918941D01*
X137781401Y-130049970D01*
X137669970Y-130161401D01*
X137538941Y-130248952D01*
X137393351Y-130309257D01*
X137238794Y-130340000D01*
X137081206Y-130340000D01*
X136926649Y-130309257D01*
X136781059Y-130248952D01*
X136650030Y-130161401D01*
X136538599Y-130049970D01*
X136451048Y-129918941D01*
X136390743Y-129773351D01*
X136360000Y-129618794D01*
X136360000Y-129461206D01*
X136390743Y-129306649D01*
X136451048Y-129161059D01*
X136538599Y-129030030D01*
X136650030Y-128918599D01*
X136781059Y-128831048D01*
X136926649Y-128770743D01*
X137081206Y-128740000D01*
X137238794Y-128740000D01*
X137393351Y-128770743D01*
G37*
G36*
X122153351Y-126230743D02*
G01*
X122298941Y-126291048D01*
X122429970Y-126378599D01*
X122541401Y-126490030D01*
X122628952Y-126621059D01*
X122689257Y-126766649D01*
X122720000Y-126921206D01*
X122720000Y-127078794D01*
X122689257Y-127233351D01*
X122628952Y-127378941D01*
X122541401Y-127509970D01*
X122429970Y-127621401D01*
X122298941Y-127708952D01*
X122153351Y-127769257D01*
X121998794Y-127800000D01*
X121841206Y-127800000D01*
X121686649Y-127769257D01*
X121541059Y-127708952D01*
X121410030Y-127621401D01*
X121298599Y-127509970D01*
X121211048Y-127378941D01*
X121150743Y-127233351D01*
X121120000Y-127078794D01*
X121120000Y-126921206D01*
X121150743Y-126766649D01*
X121211048Y-126621059D01*
X121298599Y-126490030D01*
X121410030Y-126378599D01*
X121541059Y-126291048D01*
X121686649Y-126230743D01*
X121841206Y-126200000D01*
X121998794Y-126200000D01*
X122153351Y-126230743D01*
G37*
G36*
X117073351Y-126230743D02*
G01*
X117218941Y-126291048D01*
X117349970Y-126378599D01*
X117461401Y-126490030D01*
X117548952Y-126621059D01*
X117609257Y-126766649D01*
X117640000Y-126921206D01*
X117640000Y-127078794D01*
X117609257Y-127233351D01*
X117548952Y-127378941D01*
X117461401Y-127509970D01*
X117349970Y-127621401D01*
X117218941Y-127708952D01*
X117073351Y-127769257D01*
X116918794Y-127800000D01*
X116761206Y-127800000D01*
X116606649Y-127769257D01*
X116461059Y-127708952D01*
X116330030Y-127621401D01*
X116218599Y-127509970D01*
X116131048Y-127378941D01*
X116070743Y-127233351D01*
X116040000Y-127078794D01*
X116040000Y-126921206D01*
X116070743Y-126766649D01*
X116131048Y-126621059D01*
X116218599Y-126490030D01*
X116330030Y-126378599D01*
X116461059Y-126291048D01*
X116606649Y-126230743D01*
X116761206Y-126200000D01*
X116918794Y-126200000D01*
X117073351Y-126230743D01*
G37*
G36*
X129773351Y-126230743D02*
G01*
X129918941Y-126291048D01*
X130049970Y-126378599D01*
X130161401Y-126490030D01*
X130248952Y-126621059D01*
X130309257Y-126766649D01*
X130340000Y-126921206D01*
X130340000Y-127078794D01*
X130309257Y-127233351D01*
X130248952Y-127378941D01*
X130161401Y-127509970D01*
X130049970Y-127621401D01*
X129918941Y-127708952D01*
X129773351Y-127769257D01*
X129618794Y-127800000D01*
X129461206Y-127800000D01*
X129306649Y-127769257D01*
X129161059Y-127708952D01*
X129030030Y-127621401D01*
X128918599Y-127509970D01*
X128831048Y-127378941D01*
X128770743Y-127233351D01*
X128740000Y-127078794D01*
X128740000Y-126921206D01*
X128770743Y-126766649D01*
X128831048Y-126621059D01*
X128918599Y-126490030D01*
X129030030Y-126378599D01*
X129161059Y-126291048D01*
X129306649Y-126230743D01*
X129461206Y-126200000D01*
X129618794Y-126200000D01*
X129773351Y-126230743D01*
G37*
G36*
X129773351Y-123690743D02*
G01*
X129918941Y-123751048D01*
X130049970Y-123838599D01*
X130161401Y-123950030D01*
X130248952Y-124081059D01*
X130309257Y-124226649D01*
X130340000Y-124381206D01*
X130340000Y-124538794D01*
X130309257Y-124693351D01*
X130248952Y-124838941D01*
X130161401Y-124969970D01*
X130049970Y-125081401D01*
X129918941Y-125168952D01*
X129773351Y-125229257D01*
X129618794Y-125260000D01*
X129461206Y-125260000D01*
X129306649Y-125229257D01*
X129161059Y-125168952D01*
X129030030Y-125081401D01*
X128918599Y-124969970D01*
X128831048Y-124838941D01*
X128770743Y-124693351D01*
X128740000Y-124538794D01*
X128740000Y-124381206D01*
X128770743Y-124226649D01*
X128831048Y-124081059D01*
X128918599Y-123950030D01*
X129030030Y-123838599D01*
X129161059Y-123751048D01*
X129306649Y-123690743D01*
X129461206Y-123660000D01*
X129618794Y-123660000D01*
X129773351Y-123690743D01*
G37*
G36*
X122153351Y-123690743D02*
G01*
X122298941Y-123751048D01*
X122429970Y-123838599D01*
X122541401Y-123950030D01*
X122628952Y-124081059D01*
X122689257Y-124226649D01*
X122720000Y-124381206D01*
X122720000Y-124538794D01*
X122689257Y-124693351D01*
X122628952Y-124838941D01*
X122541401Y-124969970D01*
X122429970Y-125081401D01*
X122298941Y-125168952D01*
X122153351Y-125229257D01*
X121998794Y-125260000D01*
X121841206Y-125260000D01*
X121686649Y-125229257D01*
X121541059Y-125168952D01*
X121410030Y-125081401D01*
X121298599Y-124969970D01*
X121211048Y-124838941D01*
X121150743Y-124693351D01*
X121120000Y-124538794D01*
X121120000Y-124381206D01*
X121150743Y-124226649D01*
X121211048Y-124081059D01*
X121298599Y-123950030D01*
X121410030Y-123838599D01*
X121541059Y-123751048D01*
X121686649Y-123690743D01*
X121841206Y-123660000D01*
X121998794Y-123660000D01*
X122153351Y-123690743D01*
G37*
G36*
X104399602Y-121064202D02*
G01*
X104561571Y-121131292D01*
X104561573Y-121131293D01*
X104707342Y-121228692D01*
X104831308Y-121352658D01*
X104869642Y-121410030D01*
X104928708Y-121498429D01*
X104995798Y-121660398D01*
X105030000Y-121832341D01*
X105030000Y-122007659D01*
X104995798Y-122179602D01*
X104928708Y-122341571D01*
X104928707Y-122341573D01*
X104831308Y-122487342D01*
X104707342Y-122611308D01*
X104561573Y-122708707D01*
X104561572Y-122708708D01*
X104561571Y-122708708D01*
X104399602Y-122775798D01*
X104227659Y-122810000D01*
X104052341Y-122810000D01*
X103880398Y-122775798D01*
X103718429Y-122708708D01*
X103718428Y-122708708D01*
X103718427Y-122708707D01*
X103572658Y-122611308D01*
X103448692Y-122487342D01*
X103351293Y-122341573D01*
X103351292Y-122341571D01*
X103284202Y-122179602D01*
X103250000Y-122007659D01*
X103250000Y-121832341D01*
X103284202Y-121660398D01*
X103351292Y-121498429D01*
X103410358Y-121410030D01*
X103448692Y-121352658D01*
X103572658Y-121228692D01*
X103718427Y-121131293D01*
X103718429Y-121131292D01*
X103880398Y-121064202D01*
X104052341Y-121030000D01*
X104227659Y-121030000D01*
X104399602Y-121064202D01*
G37*
G36*
X63759602Y-121064202D02*
G01*
X63921571Y-121131292D01*
X63921573Y-121131293D01*
X64067342Y-121228692D01*
X64191308Y-121352658D01*
X64229642Y-121410030D01*
X64288708Y-121498429D01*
X64355798Y-121660398D01*
X64390000Y-121832341D01*
X64390000Y-122007659D01*
X64355798Y-122179602D01*
X64288708Y-122341571D01*
X64288707Y-122341573D01*
X64191308Y-122487342D01*
X64067342Y-122611308D01*
X63921573Y-122708707D01*
X63921572Y-122708708D01*
X63921571Y-122708708D01*
X63759602Y-122775798D01*
X63587659Y-122810000D01*
X63412341Y-122810000D01*
X63240398Y-122775798D01*
X63078429Y-122708708D01*
X63078428Y-122708708D01*
X63078427Y-122708707D01*
X62932658Y-122611308D01*
X62808692Y-122487342D01*
X62711293Y-122341573D01*
X62711292Y-122341571D01*
X62644202Y-122179602D01*
X62610000Y-122007659D01*
X62610000Y-121832341D01*
X62644202Y-121660398D01*
X62711292Y-121498429D01*
X62770358Y-121410030D01*
X62808692Y-121352658D01*
X62932658Y-121228692D01*
X63078427Y-121131293D01*
X63078429Y-121131292D01*
X63240398Y-121064202D01*
X63412341Y-121030000D01*
X63587659Y-121030000D01*
X63759602Y-121064202D01*
G37*
G36*
X129773351Y-121150743D02*
G01*
X129918941Y-121211048D01*
X130049970Y-121298599D01*
X130161401Y-121410030D01*
X130248952Y-121541059D01*
X130309257Y-121686649D01*
X130340000Y-121841206D01*
X130340000Y-121998794D01*
X130309257Y-122153351D01*
X130248952Y-122298941D01*
X130161401Y-122429970D01*
X130049970Y-122541401D01*
X129918941Y-122628952D01*
X129773351Y-122689257D01*
X129618794Y-122720000D01*
X129461206Y-122720000D01*
X129306649Y-122689257D01*
X129161059Y-122628952D01*
X129030030Y-122541401D01*
X128918599Y-122429970D01*
X128831048Y-122298941D01*
X128770743Y-122153351D01*
X128740000Y-121998794D01*
X128740000Y-121841206D01*
X128770743Y-121686649D01*
X128831048Y-121541059D01*
X128918599Y-121410030D01*
X129030030Y-121298599D01*
X129161059Y-121211048D01*
X129306649Y-121150743D01*
X129461206Y-121120000D01*
X129618794Y-121120000D01*
X129773351Y-121150743D01*
G37*
G36*
X122153351Y-121150743D02*
G01*
X122298941Y-121211048D01*
X122429970Y-121298599D01*
X122541401Y-121410030D01*
X122628952Y-121541059D01*
X122689257Y-121686649D01*
X122720000Y-121841206D01*
X122720000Y-121998794D01*
X122689257Y-122153351D01*
X122628952Y-122298941D01*
X122541401Y-122429970D01*
X122429970Y-122541401D01*
X122298941Y-122628952D01*
X122153351Y-122689257D01*
X121998794Y-122720000D01*
X121841206Y-122720000D01*
X121686649Y-122689257D01*
X121541059Y-122628952D01*
X121410030Y-122541401D01*
X121298599Y-122429970D01*
X121211048Y-122298941D01*
X121150743Y-122153351D01*
X121120000Y-121998794D01*
X121120000Y-121841206D01*
X121150743Y-121686649D01*
X121211048Y-121541059D01*
X121298599Y-121410030D01*
X121410030Y-121298599D01*
X121541059Y-121211048D01*
X121686649Y-121150743D01*
X121841206Y-121120000D01*
X121998794Y-121120000D01*
X122153351Y-121150743D01*
G37*
G36*
X68813351Y-121150743D02*
G01*
X68958941Y-121211048D01*
X69089970Y-121298599D01*
X69201401Y-121410030D01*
X69288952Y-121541059D01*
X69349257Y-121686649D01*
X69380000Y-121841206D01*
X69380000Y-121998794D01*
X69349257Y-122153351D01*
X69288952Y-122298941D01*
X69201401Y-122429970D01*
X69089970Y-122541401D01*
X68958941Y-122628952D01*
X68813351Y-122689257D01*
X68658794Y-122720000D01*
X68501206Y-122720000D01*
X68346649Y-122689257D01*
X68201059Y-122628952D01*
X68070030Y-122541401D01*
X67958599Y-122429970D01*
X67871048Y-122298941D01*
X67810743Y-122153351D01*
X67780000Y-121998794D01*
X67780000Y-121841206D01*
X67810743Y-121686649D01*
X67871048Y-121541059D01*
X67958599Y-121410030D01*
X68070030Y-121298599D01*
X68201059Y-121211048D01*
X68346649Y-121150743D01*
X68501206Y-121120000D01*
X68658794Y-121120000D01*
X68813351Y-121150743D01*
G37*
G36*
X66273351Y-121150743D02*
G01*
X66418941Y-121211048D01*
X66549970Y-121298599D01*
X66661401Y-121410030D01*
X66748952Y-121541059D01*
X66809257Y-121686649D01*
X66840000Y-121841206D01*
X66840000Y-121998794D01*
X66809257Y-122153351D01*
X66748952Y-122298941D01*
X66661401Y-122429970D01*
X66549970Y-122541401D01*
X66418941Y-122628952D01*
X66273351Y-122689257D01*
X66118794Y-122720000D01*
X65961206Y-122720000D01*
X65806649Y-122689257D01*
X65661059Y-122628952D01*
X65530030Y-122541401D01*
X65418599Y-122429970D01*
X65331048Y-122298941D01*
X65270743Y-122153351D01*
X65240000Y-121998794D01*
X65240000Y-121841206D01*
X65270743Y-121686649D01*
X65331048Y-121541059D01*
X65418599Y-121410030D01*
X65530030Y-121298599D01*
X65661059Y-121211048D01*
X65806649Y-121150743D01*
X65961206Y-121120000D01*
X66118794Y-121120000D01*
X66273351Y-121150743D01*
G37*
G36*
X102400000Y-122720000D02*
G01*
X100800000Y-122720000D01*
X100800000Y-121120000D01*
X102400000Y-121120000D01*
X102400000Y-122720000D01*
G37*
G36*
X73893351Y-121150743D02*
G01*
X74038941Y-121211048D01*
X74169970Y-121298599D01*
X74281401Y-121410030D01*
X74368952Y-121541059D01*
X74429257Y-121686649D01*
X74460000Y-121841206D01*
X74460000Y-121998794D01*
X74429257Y-122153351D01*
X74368952Y-122298941D01*
X74281401Y-122429970D01*
X74169970Y-122541401D01*
X74038941Y-122628952D01*
X73893351Y-122689257D01*
X73738794Y-122720000D01*
X73581206Y-122720000D01*
X73426649Y-122689257D01*
X73281059Y-122628952D01*
X73150030Y-122541401D01*
X73038599Y-122429970D01*
X72951048Y-122298941D01*
X72890743Y-122153351D01*
X72860000Y-121998794D01*
X72860000Y-121841206D01*
X72890743Y-121686649D01*
X72951048Y-121541059D01*
X73038599Y-121410030D01*
X73150030Y-121298599D01*
X73281059Y-121211048D01*
X73426649Y-121150743D01*
X73581206Y-121120000D01*
X73738794Y-121120000D01*
X73893351Y-121150743D01*
G37*
G36*
X71353351Y-121150743D02*
G01*
X71498941Y-121211048D01*
X71629970Y-121298599D01*
X71741401Y-121410030D01*
X71828952Y-121541059D01*
X71889257Y-121686649D01*
X71920000Y-121841206D01*
X71920000Y-121998794D01*
X71889257Y-122153351D01*
X71828952Y-122298941D01*
X71741401Y-122429970D01*
X71629970Y-122541401D01*
X71498941Y-122628952D01*
X71353351Y-122689257D01*
X71198794Y-122720000D01*
X71041206Y-122720000D01*
X70886649Y-122689257D01*
X70741059Y-122628952D01*
X70610030Y-122541401D01*
X70498599Y-122429970D01*
X70411048Y-122298941D01*
X70350743Y-122153351D01*
X70320000Y-121998794D01*
X70320000Y-121841206D01*
X70350743Y-121686649D01*
X70411048Y-121541059D01*
X70498599Y-121410030D01*
X70610030Y-121298599D01*
X70741059Y-121211048D01*
X70886649Y-121150743D01*
X71041206Y-121120000D01*
X71198794Y-121120000D01*
X71353351Y-121150743D01*
G37*
G36*
X91673351Y-121150743D02*
G01*
X91818941Y-121211048D01*
X91949970Y-121298599D01*
X92061401Y-121410030D01*
X92148952Y-121541059D01*
X92209257Y-121686649D01*
X92240000Y-121841206D01*
X92240000Y-121998794D01*
X92209257Y-122153351D01*
X92148952Y-122298941D01*
X92061401Y-122429970D01*
X91949970Y-122541401D01*
X91818941Y-122628952D01*
X91673351Y-122689257D01*
X91518794Y-122720000D01*
X91361206Y-122720000D01*
X91206649Y-122689257D01*
X91061059Y-122628952D01*
X90930030Y-122541401D01*
X90818599Y-122429970D01*
X90731048Y-122298941D01*
X90670743Y-122153351D01*
X90640000Y-121998794D01*
X90640000Y-121841206D01*
X90670743Y-121686649D01*
X90731048Y-121541059D01*
X90818599Y-121410030D01*
X90930030Y-121298599D01*
X91061059Y-121211048D01*
X91206649Y-121150743D01*
X91361206Y-121120000D01*
X91518794Y-121120000D01*
X91673351Y-121150743D01*
G37*
G36*
X94213351Y-121150743D02*
G01*
X94358941Y-121211048D01*
X94489970Y-121298599D01*
X94601401Y-121410030D01*
X94688952Y-121541059D01*
X94749257Y-121686649D01*
X94780000Y-121841206D01*
X94780000Y-121998794D01*
X94749257Y-122153351D01*
X94688952Y-122298941D01*
X94601401Y-122429970D01*
X94489970Y-122541401D01*
X94358941Y-122628952D01*
X94213351Y-122689257D01*
X94058794Y-122720000D01*
X93901206Y-122720000D01*
X93746649Y-122689257D01*
X93601059Y-122628952D01*
X93470030Y-122541401D01*
X93358599Y-122429970D01*
X93271048Y-122298941D01*
X93210743Y-122153351D01*
X93180000Y-121998794D01*
X93180000Y-121841206D01*
X93210743Y-121686649D01*
X93271048Y-121541059D01*
X93358599Y-121410030D01*
X93470030Y-121298599D01*
X93601059Y-121211048D01*
X93746649Y-121150743D01*
X93901206Y-121120000D01*
X94058794Y-121120000D01*
X94213351Y-121150743D01*
G37*
G36*
X89133351Y-121150743D02*
G01*
X89278941Y-121211048D01*
X89409970Y-121298599D01*
X89521401Y-121410030D01*
X89608952Y-121541059D01*
X89669257Y-121686649D01*
X89700000Y-121841206D01*
X89700000Y-121998794D01*
X89669257Y-122153351D01*
X89608952Y-122298941D01*
X89521401Y-122429970D01*
X89409970Y-122541401D01*
X89278941Y-122628952D01*
X89133351Y-122689257D01*
X88978794Y-122720000D01*
X88821206Y-122720000D01*
X88666649Y-122689257D01*
X88521059Y-122628952D01*
X88390030Y-122541401D01*
X88278599Y-122429970D01*
X88191048Y-122298941D01*
X88130743Y-122153351D01*
X88100000Y-121998794D01*
X88100000Y-121841206D01*
X88130743Y-121686649D01*
X88191048Y-121541059D01*
X88278599Y-121410030D01*
X88390030Y-121298599D01*
X88521059Y-121211048D01*
X88666649Y-121150743D01*
X88821206Y-121120000D01*
X88978794Y-121120000D01*
X89133351Y-121150743D01*
G37*
G36*
X96753351Y-121150743D02*
G01*
X96898941Y-121211048D01*
X97029970Y-121298599D01*
X97141401Y-121410030D01*
X97228952Y-121541059D01*
X97289257Y-121686649D01*
X97320000Y-121841206D01*
X97320000Y-121998794D01*
X97289257Y-122153351D01*
X97228952Y-122298941D01*
X97141401Y-122429970D01*
X97029970Y-122541401D01*
X96898941Y-122628952D01*
X96753351Y-122689257D01*
X96598794Y-122720000D01*
X96441206Y-122720000D01*
X96286649Y-122689257D01*
X96141059Y-122628952D01*
X96010030Y-122541401D01*
X95898599Y-122429970D01*
X95811048Y-122298941D01*
X95750743Y-122153351D01*
X95720000Y-121998794D01*
X95720000Y-121841206D01*
X95750743Y-121686649D01*
X95811048Y-121541059D01*
X95898599Y-121410030D01*
X96010030Y-121298599D01*
X96141059Y-121211048D01*
X96286649Y-121150743D01*
X96441206Y-121120000D01*
X96598794Y-121120000D01*
X96753351Y-121150743D01*
G37*
G36*
X84053351Y-121150743D02*
G01*
X84198941Y-121211048D01*
X84329970Y-121298599D01*
X84441401Y-121410030D01*
X84528952Y-121541059D01*
X84589257Y-121686649D01*
X84620000Y-121841206D01*
X84620000Y-121998794D01*
X84589257Y-122153351D01*
X84528952Y-122298941D01*
X84441401Y-122429970D01*
X84329970Y-122541401D01*
X84198941Y-122628952D01*
X84053351Y-122689257D01*
X83898794Y-122720000D01*
X83741206Y-122720000D01*
X83586649Y-122689257D01*
X83441059Y-122628952D01*
X83310030Y-122541401D01*
X83198599Y-122429970D01*
X83111048Y-122298941D01*
X83050743Y-122153351D01*
X83020000Y-121998794D01*
X83020000Y-121841206D01*
X83050743Y-121686649D01*
X83111048Y-121541059D01*
X83198599Y-121410030D01*
X83310030Y-121298599D01*
X83441059Y-121211048D01*
X83586649Y-121150743D01*
X83741206Y-121120000D01*
X83898794Y-121120000D01*
X84053351Y-121150743D01*
G37*
G36*
X78973351Y-121150743D02*
G01*
X79118941Y-121211048D01*
X79249970Y-121298599D01*
X79361401Y-121410030D01*
X79448952Y-121541059D01*
X79509257Y-121686649D01*
X79540000Y-121841206D01*
X79540000Y-121998794D01*
X79509257Y-122153351D01*
X79448952Y-122298941D01*
X79361401Y-122429970D01*
X79249970Y-122541401D01*
X79118941Y-122628952D01*
X78973351Y-122689257D01*
X78818794Y-122720000D01*
X78661206Y-122720000D01*
X78506649Y-122689257D01*
X78361059Y-122628952D01*
X78230030Y-122541401D01*
X78118599Y-122429970D01*
X78031048Y-122298941D01*
X77970743Y-122153351D01*
X77940000Y-121998794D01*
X77940000Y-121841206D01*
X77970743Y-121686649D01*
X78031048Y-121541059D01*
X78118599Y-121410030D01*
X78230030Y-121298599D01*
X78361059Y-121211048D01*
X78506649Y-121150743D01*
X78661206Y-121120000D01*
X78818794Y-121120000D01*
X78973351Y-121150743D01*
G37*
G36*
X86593351Y-121150743D02*
G01*
X86738941Y-121211048D01*
X86869970Y-121298599D01*
X86981401Y-121410030D01*
X87068952Y-121541059D01*
X87129257Y-121686649D01*
X87160000Y-121841206D01*
X87160000Y-121998794D01*
X87129257Y-122153351D01*
X87068952Y-122298941D01*
X86981401Y-122429970D01*
X86869970Y-122541401D01*
X86738941Y-122628952D01*
X86593351Y-122689257D01*
X86438794Y-122720000D01*
X86281206Y-122720000D01*
X86126649Y-122689257D01*
X85981059Y-122628952D01*
X85850030Y-122541401D01*
X85738599Y-122429970D01*
X85651048Y-122298941D01*
X85590743Y-122153351D01*
X85560000Y-121998794D01*
X85560000Y-121841206D01*
X85590743Y-121686649D01*
X85651048Y-121541059D01*
X85738599Y-121410030D01*
X85850030Y-121298599D01*
X85981059Y-121211048D01*
X86126649Y-121150743D01*
X86281206Y-121120000D01*
X86438794Y-121120000D01*
X86593351Y-121150743D01*
G37*
G36*
X76433351Y-121150743D02*
G01*
X76578941Y-121211048D01*
X76709970Y-121298599D01*
X76821401Y-121410030D01*
X76908952Y-121541059D01*
X76969257Y-121686649D01*
X77000000Y-121841206D01*
X77000000Y-121998794D01*
X76969257Y-122153351D01*
X76908952Y-122298941D01*
X76821401Y-122429970D01*
X76709970Y-122541401D01*
X76578941Y-122628952D01*
X76433351Y-122689257D01*
X76278794Y-122720000D01*
X76121206Y-122720000D01*
X75966649Y-122689257D01*
X75821059Y-122628952D01*
X75690030Y-122541401D01*
X75578599Y-122429970D01*
X75491048Y-122298941D01*
X75430743Y-122153351D01*
X75400000Y-121998794D01*
X75400000Y-121841206D01*
X75430743Y-121686649D01*
X75491048Y-121541059D01*
X75578599Y-121410030D01*
X75690030Y-121298599D01*
X75821059Y-121211048D01*
X75966649Y-121150743D01*
X76121206Y-121120000D01*
X76278794Y-121120000D01*
X76433351Y-121150743D01*
G37*
G36*
X99293351Y-121150743D02*
G01*
X99438941Y-121211048D01*
X99569970Y-121298599D01*
X99681401Y-121410030D01*
X99768952Y-121541059D01*
X99829257Y-121686649D01*
X99860000Y-121841206D01*
X99860000Y-121998794D01*
X99829257Y-122153351D01*
X99768952Y-122298941D01*
X99681401Y-122429970D01*
X99569970Y-122541401D01*
X99438941Y-122628952D01*
X99293351Y-122689257D01*
X99138794Y-122720000D01*
X98981206Y-122720000D01*
X98826649Y-122689257D01*
X98681059Y-122628952D01*
X98550030Y-122541401D01*
X98438599Y-122429970D01*
X98351048Y-122298941D01*
X98290743Y-122153351D01*
X98260000Y-121998794D01*
X98260000Y-121841206D01*
X98290743Y-121686649D01*
X98351048Y-121541059D01*
X98438599Y-121410030D01*
X98550030Y-121298599D01*
X98681059Y-121211048D01*
X98826649Y-121150743D01*
X98981206Y-121120000D01*
X99138794Y-121120000D01*
X99293351Y-121150743D01*
G37*
G36*
X81513351Y-121150743D02*
G01*
X81658941Y-121211048D01*
X81789970Y-121298599D01*
X81901401Y-121410030D01*
X81988952Y-121541059D01*
X82049257Y-121686649D01*
X82080000Y-121841206D01*
X82080000Y-121998794D01*
X82049257Y-122153351D01*
X81988952Y-122298941D01*
X81901401Y-122429970D01*
X81789970Y-122541401D01*
X81658941Y-122628952D01*
X81513351Y-122689257D01*
X81358794Y-122720000D01*
X81201206Y-122720000D01*
X81046649Y-122689257D01*
X80901059Y-122628952D01*
X80770030Y-122541401D01*
X80658599Y-122429970D01*
X80571048Y-122298941D01*
X80510743Y-122153351D01*
X80480000Y-121998794D01*
X80480000Y-121841206D01*
X80510743Y-121686649D01*
X80571048Y-121541059D01*
X80658599Y-121410030D01*
X80770030Y-121298599D01*
X80901059Y-121211048D01*
X81046649Y-121150743D01*
X81201206Y-121120000D01*
X81358794Y-121120000D01*
X81513351Y-121150743D01*
G37*
G36*
X109540857Y-118322272D02*
G01*
X109741043Y-118405192D01*
X109741045Y-118405193D01*
X109921209Y-118525575D01*
X110074425Y-118678791D01*
X110180910Y-118838156D01*
X110194808Y-118858957D01*
X110277728Y-119059143D01*
X110320000Y-119271658D01*
X110320000Y-119488342D01*
X110277728Y-119700857D01*
X110194808Y-119901043D01*
X110194807Y-119901045D01*
X110074425Y-120081209D01*
X109921209Y-120234425D01*
X109741045Y-120354807D01*
X109741044Y-120354808D01*
X109741043Y-120354808D01*
X109540857Y-120437728D01*
X109328342Y-120480000D01*
X109111658Y-120480000D01*
X108899143Y-120437728D01*
X108698957Y-120354808D01*
X108698956Y-120354808D01*
X108698955Y-120354807D01*
X108518791Y-120234425D01*
X108365575Y-120081209D01*
X108245193Y-119901045D01*
X108245192Y-119901043D01*
X108162272Y-119700857D01*
X108120000Y-119488342D01*
X108120000Y-119271658D01*
X108162272Y-119059143D01*
X108245192Y-118858957D01*
X108259091Y-118838156D01*
X108365575Y-118678791D01*
X108518791Y-118525575D01*
X108698955Y-118405193D01*
X108698957Y-118405192D01*
X108899143Y-118322272D01*
X109111658Y-118280000D01*
X109328342Y-118280000D01*
X109540857Y-118322272D01*
G37*
G36*
X94227935Y-118562664D02*
G01*
X94382624Y-118626739D01*
X94382626Y-118626740D01*
X94521844Y-118719762D01*
X94640238Y-118838156D01*
X94661535Y-118870030D01*
X94733261Y-118977376D01*
X94797336Y-119132065D01*
X94830000Y-119296281D01*
X94830000Y-119463719D01*
X94797336Y-119627935D01*
X94733261Y-119782624D01*
X94733260Y-119782626D01*
X94640238Y-119921844D01*
X94521844Y-120040238D01*
X94382626Y-120133260D01*
X94382625Y-120133261D01*
X94382624Y-120133261D01*
X94227935Y-120197336D01*
X94063719Y-120230000D01*
X93896281Y-120230000D01*
X93732065Y-120197336D01*
X93577376Y-120133261D01*
X93577375Y-120133261D01*
X93577374Y-120133260D01*
X93438156Y-120040238D01*
X93319762Y-119921844D01*
X93226740Y-119782626D01*
X93226739Y-119782624D01*
X93162664Y-119627935D01*
X93130000Y-119463719D01*
X93130000Y-119296281D01*
X93162664Y-119132065D01*
X93226739Y-118977376D01*
X93298465Y-118870030D01*
X93319762Y-118838156D01*
X93438156Y-118719762D01*
X93577374Y-118626740D01*
X93577376Y-118626739D01*
X93732065Y-118562664D01*
X93896281Y-118530000D01*
X94063719Y-118530000D01*
X94227935Y-118562664D01*
G37*
G36*
X89147935Y-118562664D02*
G01*
X89302624Y-118626739D01*
X89302626Y-118626740D01*
X89441844Y-118719762D01*
X89560238Y-118838156D01*
X89581535Y-118870030D01*
X89653261Y-118977376D01*
X89717336Y-119132065D01*
X89750000Y-119296281D01*
X89750000Y-119463719D01*
X89717336Y-119627935D01*
X89653261Y-119782624D01*
X89653260Y-119782626D01*
X89560238Y-119921844D01*
X89441844Y-120040238D01*
X89302626Y-120133260D01*
X89302625Y-120133261D01*
X89302624Y-120133261D01*
X89147935Y-120197336D01*
X88983719Y-120230000D01*
X88816281Y-120230000D01*
X88652065Y-120197336D01*
X88497376Y-120133261D01*
X88497375Y-120133261D01*
X88497374Y-120133260D01*
X88358156Y-120040238D01*
X88239762Y-119921844D01*
X88146740Y-119782626D01*
X88146739Y-119782624D01*
X88082664Y-119627935D01*
X88050000Y-119463719D01*
X88050000Y-119296281D01*
X88082664Y-119132065D01*
X88146739Y-118977376D01*
X88218465Y-118870030D01*
X88239762Y-118838156D01*
X88358156Y-118719762D01*
X88497374Y-118626740D01*
X88497376Y-118626739D01*
X88652065Y-118562664D01*
X88816281Y-118530000D01*
X88983719Y-118530000D01*
X89147935Y-118562664D01*
G37*
G36*
X86607935Y-118562664D02*
G01*
X86762624Y-118626739D01*
X86762626Y-118626740D01*
X86901844Y-118719762D01*
X87020238Y-118838156D01*
X87041535Y-118870030D01*
X87113261Y-118977376D01*
X87177336Y-119132065D01*
X87210000Y-119296281D01*
X87210000Y-119463719D01*
X87177336Y-119627935D01*
X87113261Y-119782624D01*
X87113260Y-119782626D01*
X87020238Y-119921844D01*
X86901844Y-120040238D01*
X86762626Y-120133260D01*
X86762625Y-120133261D01*
X86762624Y-120133261D01*
X86607935Y-120197336D01*
X86443719Y-120230000D01*
X86276281Y-120230000D01*
X86112065Y-120197336D01*
X85957376Y-120133261D01*
X85957375Y-120133261D01*
X85957374Y-120133260D01*
X85818156Y-120040238D01*
X85699762Y-119921844D01*
X85606740Y-119782626D01*
X85606739Y-119782624D01*
X85542664Y-119627935D01*
X85510000Y-119463719D01*
X85510000Y-119296281D01*
X85542664Y-119132065D01*
X85606739Y-118977376D01*
X85678465Y-118870030D01*
X85699762Y-118838156D01*
X85818156Y-118719762D01*
X85957374Y-118626740D01*
X85957376Y-118626739D01*
X86112065Y-118562664D01*
X86276281Y-118530000D01*
X86443719Y-118530000D01*
X86607935Y-118562664D01*
G37*
G36*
X81527935Y-118562664D02*
G01*
X81682624Y-118626739D01*
X81682626Y-118626740D01*
X81821844Y-118719762D01*
X81940238Y-118838156D01*
X81961535Y-118870030D01*
X82033261Y-118977376D01*
X82097336Y-119132065D01*
X82130000Y-119296281D01*
X82130000Y-119463719D01*
X82097336Y-119627935D01*
X82033261Y-119782624D01*
X82033260Y-119782626D01*
X81940238Y-119921844D01*
X81821844Y-120040238D01*
X81682626Y-120133260D01*
X81682625Y-120133261D01*
X81682624Y-120133261D01*
X81527935Y-120197336D01*
X81363719Y-120230000D01*
X81196281Y-120230000D01*
X81032065Y-120197336D01*
X80877376Y-120133261D01*
X80877375Y-120133261D01*
X80877374Y-120133260D01*
X80738156Y-120040238D01*
X80619762Y-119921844D01*
X80526740Y-119782626D01*
X80526739Y-119782624D01*
X80462664Y-119627935D01*
X80430000Y-119463719D01*
X80430000Y-119296281D01*
X80462664Y-119132065D01*
X80526739Y-118977376D01*
X80598465Y-118870030D01*
X80619762Y-118838156D01*
X80738156Y-118719762D01*
X80877374Y-118626740D01*
X80877376Y-118626739D01*
X81032065Y-118562664D01*
X81196281Y-118530000D01*
X81363719Y-118530000D01*
X81527935Y-118562664D01*
G37*
G36*
X84067935Y-118562664D02*
G01*
X84222624Y-118626739D01*
X84222626Y-118626740D01*
X84361844Y-118719762D01*
X84480238Y-118838156D01*
X84501535Y-118870030D01*
X84573261Y-118977376D01*
X84637336Y-119132065D01*
X84670000Y-119296281D01*
X84670000Y-119463719D01*
X84637336Y-119627935D01*
X84573261Y-119782624D01*
X84573260Y-119782626D01*
X84480238Y-119921844D01*
X84361844Y-120040238D01*
X84222626Y-120133260D01*
X84222625Y-120133261D01*
X84222624Y-120133261D01*
X84067935Y-120197336D01*
X83903719Y-120230000D01*
X83736281Y-120230000D01*
X83572065Y-120197336D01*
X83417376Y-120133261D01*
X83417375Y-120133261D01*
X83417374Y-120133260D01*
X83278156Y-120040238D01*
X83159762Y-119921844D01*
X83066740Y-119782626D01*
X83066739Y-119782624D01*
X83002664Y-119627935D01*
X82970000Y-119463719D01*
X82970000Y-119296281D01*
X83002664Y-119132065D01*
X83066739Y-118977376D01*
X83138465Y-118870030D01*
X83159762Y-118838156D01*
X83278156Y-118719762D01*
X83417374Y-118626740D01*
X83417376Y-118626739D01*
X83572065Y-118562664D01*
X83736281Y-118530000D01*
X83903719Y-118530000D01*
X84067935Y-118562664D01*
G37*
G36*
X78987935Y-118562664D02*
G01*
X79142624Y-118626739D01*
X79142626Y-118626740D01*
X79281844Y-118719762D01*
X79400238Y-118838156D01*
X79421535Y-118870030D01*
X79493261Y-118977376D01*
X79557336Y-119132065D01*
X79590000Y-119296281D01*
X79590000Y-119463719D01*
X79557336Y-119627935D01*
X79493261Y-119782624D01*
X79493260Y-119782626D01*
X79400238Y-119921844D01*
X79281844Y-120040238D01*
X79142626Y-120133260D01*
X79142625Y-120133261D01*
X79142624Y-120133261D01*
X78987935Y-120197336D01*
X78823719Y-120230000D01*
X78656281Y-120230000D01*
X78492065Y-120197336D01*
X78337376Y-120133261D01*
X78337375Y-120133261D01*
X78337374Y-120133260D01*
X78198156Y-120040238D01*
X78079762Y-119921844D01*
X77986740Y-119782626D01*
X77986739Y-119782624D01*
X77922664Y-119627935D01*
X77890000Y-119463719D01*
X77890000Y-119296281D01*
X77922664Y-119132065D01*
X77986739Y-118977376D01*
X78058465Y-118870030D01*
X78079762Y-118838156D01*
X78198156Y-118719762D01*
X78337374Y-118626740D01*
X78337376Y-118626739D01*
X78492065Y-118562664D01*
X78656281Y-118530000D01*
X78823719Y-118530000D01*
X78987935Y-118562664D01*
G37*
G36*
X76447935Y-118562664D02*
G01*
X76602624Y-118626739D01*
X76602626Y-118626740D01*
X76741844Y-118719762D01*
X76860238Y-118838156D01*
X76881535Y-118870030D01*
X76953261Y-118977376D01*
X77017336Y-119132065D01*
X77050000Y-119296281D01*
X77050000Y-119463719D01*
X77017336Y-119627935D01*
X76953261Y-119782624D01*
X76953260Y-119782626D01*
X76860238Y-119921844D01*
X76741844Y-120040238D01*
X76602626Y-120133260D01*
X76602625Y-120133261D01*
X76602624Y-120133261D01*
X76447935Y-120197336D01*
X76283719Y-120230000D01*
X76116281Y-120230000D01*
X75952065Y-120197336D01*
X75797376Y-120133261D01*
X75797375Y-120133261D01*
X75797374Y-120133260D01*
X75658156Y-120040238D01*
X75539762Y-119921844D01*
X75446740Y-119782626D01*
X75446739Y-119782624D01*
X75382664Y-119627935D01*
X75350000Y-119463719D01*
X75350000Y-119296281D01*
X75382664Y-119132065D01*
X75446739Y-118977376D01*
X75518465Y-118870030D01*
X75539762Y-118838156D01*
X75658156Y-118719762D01*
X75797374Y-118626740D01*
X75797376Y-118626739D01*
X75952065Y-118562664D01*
X76116281Y-118530000D01*
X76283719Y-118530000D01*
X76447935Y-118562664D01*
G37*
G36*
X71367935Y-118562664D02*
G01*
X71522624Y-118626739D01*
X71522626Y-118626740D01*
X71661844Y-118719762D01*
X71780238Y-118838156D01*
X71801535Y-118870030D01*
X71873261Y-118977376D01*
X71937336Y-119132065D01*
X71970000Y-119296281D01*
X71970000Y-119463719D01*
X71937336Y-119627935D01*
X71873261Y-119782624D01*
X71873260Y-119782626D01*
X71780238Y-119921844D01*
X71661844Y-120040238D01*
X71522626Y-120133260D01*
X71522625Y-120133261D01*
X71522624Y-120133261D01*
X71367935Y-120197336D01*
X71203719Y-120230000D01*
X71036281Y-120230000D01*
X70872065Y-120197336D01*
X70717376Y-120133261D01*
X70717375Y-120133261D01*
X70717374Y-120133260D01*
X70578156Y-120040238D01*
X70459762Y-119921844D01*
X70366740Y-119782626D01*
X70366739Y-119782624D01*
X70302664Y-119627935D01*
X70270000Y-119463719D01*
X70270000Y-119296281D01*
X70302664Y-119132065D01*
X70366739Y-118977376D01*
X70438465Y-118870030D01*
X70459762Y-118838156D01*
X70578156Y-118719762D01*
X70717374Y-118626740D01*
X70717376Y-118626739D01*
X70872065Y-118562664D01*
X71036281Y-118530000D01*
X71203719Y-118530000D01*
X71367935Y-118562664D01*
G37*
G36*
X73907935Y-118562664D02*
G01*
X74062624Y-118626739D01*
X74062626Y-118626740D01*
X74201844Y-118719762D01*
X74320238Y-118838156D01*
X74341535Y-118870030D01*
X74413261Y-118977376D01*
X74477336Y-119132065D01*
X74510000Y-119296281D01*
X74510000Y-119463719D01*
X74477336Y-119627935D01*
X74413261Y-119782624D01*
X74413260Y-119782626D01*
X74320238Y-119921844D01*
X74201844Y-120040238D01*
X74062626Y-120133260D01*
X74062625Y-120133261D01*
X74062624Y-120133261D01*
X73907935Y-120197336D01*
X73743719Y-120230000D01*
X73576281Y-120230000D01*
X73412065Y-120197336D01*
X73257376Y-120133261D01*
X73257375Y-120133261D01*
X73257374Y-120133260D01*
X73118156Y-120040238D01*
X72999762Y-119921844D01*
X72906740Y-119782626D01*
X72906739Y-119782624D01*
X72842664Y-119627935D01*
X72810000Y-119463719D01*
X72810000Y-119296281D01*
X72842664Y-119132065D01*
X72906739Y-118977376D01*
X72978465Y-118870030D01*
X72999762Y-118838156D01*
X73118156Y-118719762D01*
X73257374Y-118626740D01*
X73257376Y-118626739D01*
X73412065Y-118562664D01*
X73576281Y-118530000D01*
X73743719Y-118530000D01*
X73907935Y-118562664D01*
G37*
G36*
X101847935Y-118562664D02*
G01*
X102002624Y-118626739D01*
X102002626Y-118626740D01*
X102141844Y-118719762D01*
X102260238Y-118838156D01*
X102281535Y-118870030D01*
X102353261Y-118977376D01*
X102417336Y-119132065D01*
X102450000Y-119296281D01*
X102450000Y-119463719D01*
X102417336Y-119627935D01*
X102353261Y-119782624D01*
X102353260Y-119782626D01*
X102260238Y-119921844D01*
X102141844Y-120040238D01*
X102002626Y-120133260D01*
X102002625Y-120133261D01*
X102002624Y-120133261D01*
X101847935Y-120197336D01*
X101683719Y-120230000D01*
X101516281Y-120230000D01*
X101352065Y-120197336D01*
X101197376Y-120133261D01*
X101197375Y-120133261D01*
X101197374Y-120133260D01*
X101058156Y-120040238D01*
X100939762Y-119921844D01*
X100846740Y-119782626D01*
X100846739Y-119782624D01*
X100782664Y-119627935D01*
X100750000Y-119463719D01*
X100750000Y-119296281D01*
X100782664Y-119132065D01*
X100846739Y-118977376D01*
X100918465Y-118870030D01*
X100939762Y-118838156D01*
X101058156Y-118719762D01*
X101197374Y-118626740D01*
X101197376Y-118626739D01*
X101352065Y-118562664D01*
X101516281Y-118530000D01*
X101683719Y-118530000D01*
X101847935Y-118562664D01*
G37*
G36*
X99307935Y-118562664D02*
G01*
X99462624Y-118626739D01*
X99462626Y-118626740D01*
X99601844Y-118719762D01*
X99720238Y-118838156D01*
X99741535Y-118870030D01*
X99813261Y-118977376D01*
X99877336Y-119132065D01*
X99910000Y-119296281D01*
X99910000Y-119463719D01*
X99877336Y-119627935D01*
X99813261Y-119782624D01*
X99813260Y-119782626D01*
X99720238Y-119921844D01*
X99601844Y-120040238D01*
X99462626Y-120133260D01*
X99462625Y-120133261D01*
X99462624Y-120133261D01*
X99307935Y-120197336D01*
X99143719Y-120230000D01*
X98976281Y-120230000D01*
X98812065Y-120197336D01*
X98657376Y-120133261D01*
X98657375Y-120133261D01*
X98657374Y-120133260D01*
X98518156Y-120040238D01*
X98399762Y-119921844D01*
X98306740Y-119782626D01*
X98306739Y-119782624D01*
X98242664Y-119627935D01*
X98210000Y-119463719D01*
X98210000Y-119296281D01*
X98242664Y-119132065D01*
X98306739Y-118977376D01*
X98378465Y-118870030D01*
X98399762Y-118838156D01*
X98518156Y-118719762D01*
X98657374Y-118626740D01*
X98657376Y-118626739D01*
X98812065Y-118562664D01*
X98976281Y-118530000D01*
X99143719Y-118530000D01*
X99307935Y-118562664D01*
G37*
G36*
X96767935Y-118562664D02*
G01*
X96922624Y-118626739D01*
X96922626Y-118626740D01*
X97061844Y-118719762D01*
X97180238Y-118838156D01*
X97201535Y-118870030D01*
X97273261Y-118977376D01*
X97337336Y-119132065D01*
X97370000Y-119296281D01*
X97370000Y-119463719D01*
X97337336Y-119627935D01*
X97273261Y-119782624D01*
X97273260Y-119782626D01*
X97180238Y-119921844D01*
X97061844Y-120040238D01*
X96922626Y-120133260D01*
X96922625Y-120133261D01*
X96922624Y-120133261D01*
X96767935Y-120197336D01*
X96603719Y-120230000D01*
X96436281Y-120230000D01*
X96272065Y-120197336D01*
X96117376Y-120133261D01*
X96117375Y-120133261D01*
X96117374Y-120133260D01*
X95978156Y-120040238D01*
X95859762Y-119921844D01*
X95766740Y-119782626D01*
X95766739Y-119782624D01*
X95702664Y-119627935D01*
X95670000Y-119463719D01*
X95670000Y-119296281D01*
X95702664Y-119132065D01*
X95766739Y-118977376D01*
X95838465Y-118870030D01*
X95859762Y-118838156D01*
X95978156Y-118719762D01*
X96117374Y-118626740D01*
X96117376Y-118626739D01*
X96272065Y-118562664D01*
X96436281Y-118530000D01*
X96603719Y-118530000D01*
X96767935Y-118562664D01*
G37*
G36*
X68827935Y-118562664D02*
G01*
X68982624Y-118626739D01*
X68982626Y-118626740D01*
X69121844Y-118719762D01*
X69240238Y-118838156D01*
X69261535Y-118870030D01*
X69333261Y-118977376D01*
X69397336Y-119132065D01*
X69430000Y-119296281D01*
X69430000Y-119463719D01*
X69397336Y-119627935D01*
X69333261Y-119782624D01*
X69333260Y-119782626D01*
X69240238Y-119921844D01*
X69121844Y-120040238D01*
X68982626Y-120133260D01*
X68982625Y-120133261D01*
X68982624Y-120133261D01*
X68827935Y-120197336D01*
X68663719Y-120230000D01*
X68496281Y-120230000D01*
X68332065Y-120197336D01*
X68177376Y-120133261D01*
X68177375Y-120133261D01*
X68177374Y-120133260D01*
X68038156Y-120040238D01*
X67919762Y-119921844D01*
X67826740Y-119782626D01*
X67826739Y-119782624D01*
X67762664Y-119627935D01*
X67730000Y-119463719D01*
X67730000Y-119296281D01*
X67762664Y-119132065D01*
X67826739Y-118977376D01*
X67898465Y-118870030D01*
X67919762Y-118838156D01*
X68038156Y-118719762D01*
X68177374Y-118626740D01*
X68177376Y-118626739D01*
X68332065Y-118562664D01*
X68496281Y-118530000D01*
X68663719Y-118530000D01*
X68827935Y-118562664D01*
G37*
G36*
X91687935Y-118562664D02*
G01*
X91842624Y-118626739D01*
X91842626Y-118626740D01*
X91981844Y-118719762D01*
X92100238Y-118838156D01*
X92121535Y-118870030D01*
X92193261Y-118977376D01*
X92257336Y-119132065D01*
X92290000Y-119296281D01*
X92290000Y-119463719D01*
X92257336Y-119627935D01*
X92193261Y-119782624D01*
X92193260Y-119782626D01*
X92100238Y-119921844D01*
X91981844Y-120040238D01*
X91842626Y-120133260D01*
X91842625Y-120133261D01*
X91842624Y-120133261D01*
X91687935Y-120197336D01*
X91523719Y-120230000D01*
X91356281Y-120230000D01*
X91192065Y-120197336D01*
X91037376Y-120133261D01*
X91037375Y-120133261D01*
X91037374Y-120133260D01*
X90898156Y-120040238D01*
X90779762Y-119921844D01*
X90686740Y-119782626D01*
X90686739Y-119782624D01*
X90622664Y-119627935D01*
X90590000Y-119463719D01*
X90590000Y-119296281D01*
X90622664Y-119132065D01*
X90686739Y-118977376D01*
X90758465Y-118870030D01*
X90779762Y-118838156D01*
X90898156Y-118719762D01*
X91037374Y-118626740D01*
X91037376Y-118626739D01*
X91192065Y-118562664D01*
X91356281Y-118530000D01*
X91523719Y-118530000D01*
X91687935Y-118562664D01*
G37*
G36*
X66890000Y-120230000D02*
G01*
X65190000Y-120230000D01*
X65190000Y-118530000D01*
X66890000Y-118530000D01*
X66890000Y-120230000D01*
G37*
G36*
X117640000Y-120180000D02*
G01*
X116040000Y-120180000D01*
X116040000Y-118580000D01*
X117640000Y-118580000D01*
X117640000Y-120180000D01*
G37*
G36*
X122720000Y-120180000D02*
G01*
X121120000Y-120180000D01*
X121120000Y-118580000D01*
X122720000Y-118580000D01*
X122720000Y-120180000D01*
G37*
G36*
X137393351Y-118610743D02*
G01*
X137538941Y-118671048D01*
X137669970Y-118758599D01*
X137781401Y-118870030D01*
X137868952Y-119001059D01*
X137929257Y-119146649D01*
X137960000Y-119301206D01*
X137960000Y-119458794D01*
X137929257Y-119613351D01*
X137868952Y-119758941D01*
X137781401Y-119889970D01*
X137669970Y-120001401D01*
X137538941Y-120088952D01*
X137393351Y-120149257D01*
X137238794Y-120180000D01*
X137081206Y-120180000D01*
X136926649Y-120149257D01*
X136781059Y-120088952D01*
X136650030Y-120001401D01*
X136538599Y-119889970D01*
X136451048Y-119758941D01*
X136390743Y-119613351D01*
X136360000Y-119458794D01*
X136360000Y-119301206D01*
X136390743Y-119146649D01*
X136451048Y-119001059D01*
X136538599Y-118870030D01*
X136650030Y-118758599D01*
X136781059Y-118671048D01*
X136926649Y-118610743D01*
X137081206Y-118580000D01*
X137238794Y-118580000D01*
X137393351Y-118610743D01*
G37*
G36*
X134853351Y-118610743D02*
G01*
X134998941Y-118671048D01*
X135129970Y-118758599D01*
X135241401Y-118870030D01*
X135328952Y-119001059D01*
X135389257Y-119146649D01*
X135420000Y-119301206D01*
X135420000Y-119458794D01*
X135389257Y-119613351D01*
X135328952Y-119758941D01*
X135241401Y-119889970D01*
X135129970Y-120001401D01*
X134998941Y-120088952D01*
X134853351Y-120149257D01*
X134698794Y-120180000D01*
X134541206Y-120180000D01*
X134386649Y-120149257D01*
X134241059Y-120088952D01*
X134110030Y-120001401D01*
X133998599Y-119889970D01*
X133911048Y-119758941D01*
X133850743Y-119613351D01*
X133820000Y-119458794D01*
X133820000Y-119301206D01*
X133850743Y-119146649D01*
X133911048Y-119001059D01*
X133998599Y-118870030D01*
X134110030Y-118758599D01*
X134241059Y-118671048D01*
X134386649Y-118610743D01*
X134541206Y-118580000D01*
X134698794Y-118580000D01*
X134853351Y-118610743D01*
G37*
G36*
X129773351Y-118610743D02*
G01*
X129918941Y-118671048D01*
X130049970Y-118758599D01*
X130161401Y-118870030D01*
X130248952Y-119001059D01*
X130309257Y-119146649D01*
X130340000Y-119301206D01*
X130340000Y-119458794D01*
X130309257Y-119613351D01*
X130248952Y-119758941D01*
X130161401Y-119889970D01*
X130049970Y-120001401D01*
X129918941Y-120088952D01*
X129773351Y-120149257D01*
X129618794Y-120180000D01*
X129461206Y-120180000D01*
X129306649Y-120149257D01*
X129161059Y-120088952D01*
X129030030Y-120001401D01*
X128918599Y-119889970D01*
X128831048Y-119758941D01*
X128770743Y-119613351D01*
X128740000Y-119458794D01*
X128740000Y-119301206D01*
X128770743Y-119146649D01*
X128831048Y-119001059D01*
X128918599Y-118870030D01*
X129030030Y-118758599D01*
X129161059Y-118671048D01*
X129306649Y-118610743D01*
X129461206Y-118580000D01*
X129618794Y-118580000D01*
X129773351Y-118610743D01*
G37*
G36*
X101833351Y-113530743D02*
G01*
X101978941Y-113591048D01*
X102109970Y-113678599D01*
X102221401Y-113790030D01*
X102308952Y-113921059D01*
X102369257Y-114066649D01*
X102400000Y-114221206D01*
X102400000Y-114378794D01*
X102369257Y-114533351D01*
X102308952Y-114678941D01*
X102221401Y-114809970D01*
X102109970Y-114921401D01*
X101978941Y-115008952D01*
X101833351Y-115069257D01*
X101678794Y-115100000D01*
X101521206Y-115100000D01*
X101366649Y-115069257D01*
X101221059Y-115008952D01*
X101090030Y-114921401D01*
X100978599Y-114809970D01*
X100891048Y-114678941D01*
X100830743Y-114533351D01*
X100800000Y-114378794D01*
X100800000Y-114221206D01*
X100830743Y-114066649D01*
X100891048Y-113921059D01*
X100978599Y-113790030D01*
X101090030Y-113678599D01*
X101221059Y-113591048D01*
X101366649Y-113530743D01*
X101521206Y-113500000D01*
X101678794Y-113500000D01*
X101833351Y-113530743D01*
G37*
G36*
X96713351Y-113530743D02*
G01*
X96858941Y-113591048D01*
X96989970Y-113678599D01*
X97101401Y-113790030D01*
X97188952Y-113921059D01*
X97249257Y-114066649D01*
X97280000Y-114221206D01*
X97280000Y-114378794D01*
X97249257Y-114533351D01*
X97188952Y-114678941D01*
X97101401Y-114809970D01*
X96989970Y-114921401D01*
X96858941Y-115008952D01*
X96713351Y-115069257D01*
X96558794Y-115100000D01*
X96401206Y-115100000D01*
X96246649Y-115069257D01*
X96101059Y-115008952D01*
X95970030Y-114921401D01*
X95858599Y-114809970D01*
X95771048Y-114678941D01*
X95710743Y-114533351D01*
X95680000Y-114378794D01*
X95680000Y-114221206D01*
X95710743Y-114066649D01*
X95771048Y-113921059D01*
X95858599Y-113790030D01*
X95970030Y-113678599D01*
X96101059Y-113591048D01*
X96246649Y-113530743D01*
X96401206Y-113500000D01*
X96558794Y-113500000D01*
X96713351Y-113530743D01*
G37*
G36*
X94780000Y-115100000D02*
G01*
X93180000Y-115100000D01*
X93180000Y-113500000D01*
X94780000Y-113500000D01*
X94780000Y-115100000D01*
G37*
G36*
X89133351Y-113530743D02*
G01*
X89278941Y-113591048D01*
X89409970Y-113678599D01*
X89521401Y-113790030D01*
X89608952Y-113921059D01*
X89669257Y-114066649D01*
X89700000Y-114221206D01*
X89700000Y-114378794D01*
X89669257Y-114533351D01*
X89608952Y-114678941D01*
X89521401Y-114809970D01*
X89409970Y-114921401D01*
X89278941Y-115008952D01*
X89133351Y-115069257D01*
X88978794Y-115100000D01*
X88821206Y-115100000D01*
X88666649Y-115069257D01*
X88521059Y-115008952D01*
X88390030Y-114921401D01*
X88278599Y-114809970D01*
X88191048Y-114678941D01*
X88130743Y-114533351D01*
X88100000Y-114378794D01*
X88100000Y-114221206D01*
X88130743Y-114066649D01*
X88191048Y-113921059D01*
X88278599Y-113790030D01*
X88390030Y-113678599D01*
X88521059Y-113591048D01*
X88666649Y-113530743D01*
X88821206Y-113500000D01*
X88978794Y-113500000D01*
X89133351Y-113530743D01*
G37*
G36*
X106913351Y-113530743D02*
G01*
X107058941Y-113591048D01*
X107189970Y-113678599D01*
X107301401Y-113790030D01*
X107388952Y-113921059D01*
X107449257Y-114066649D01*
X107480000Y-114221206D01*
X107480000Y-114378794D01*
X107449257Y-114533351D01*
X107388952Y-114678941D01*
X107301401Y-114809970D01*
X107189970Y-114921401D01*
X107058941Y-115008952D01*
X106913351Y-115069257D01*
X106758794Y-115100000D01*
X106601206Y-115100000D01*
X106446649Y-115069257D01*
X106301059Y-115008952D01*
X106170030Y-114921401D01*
X106058599Y-114809970D01*
X105971048Y-114678941D01*
X105910743Y-114533351D01*
X105880000Y-114378794D01*
X105880000Y-114221206D01*
X105910743Y-114066649D01*
X105971048Y-113921059D01*
X106058599Y-113790030D01*
X106170030Y-113678599D01*
X106301059Y-113591048D01*
X106446649Y-113530743D01*
X106601206Y-113500000D01*
X106758794Y-113500000D01*
X106913351Y-113530743D01*
G37*
G36*
X104373351Y-113530743D02*
G01*
X104518941Y-113591048D01*
X104649970Y-113678599D01*
X104761401Y-113790030D01*
X104848952Y-113921059D01*
X104909257Y-114066649D01*
X104940000Y-114221206D01*
X104940000Y-114378794D01*
X104909257Y-114533351D01*
X104848952Y-114678941D01*
X104761401Y-114809970D01*
X104649970Y-114921401D01*
X104518941Y-115008952D01*
X104373351Y-115069257D01*
X104218794Y-115100000D01*
X104061206Y-115100000D01*
X103906649Y-115069257D01*
X103761059Y-115008952D01*
X103630030Y-114921401D01*
X103518599Y-114809970D01*
X103431048Y-114678941D01*
X103370743Y-114533351D01*
X103340000Y-114378794D01*
X103340000Y-114221206D01*
X103370743Y-114066649D01*
X103431048Y-113921059D01*
X103518599Y-113790030D01*
X103630030Y-113678599D01*
X103761059Y-113591048D01*
X103906649Y-113530743D01*
X104061206Y-113500000D01*
X104218794Y-113500000D01*
X104373351Y-113530743D01*
G37*
G36*
X84053351Y-113530743D02*
G01*
X84198941Y-113591048D01*
X84329970Y-113678599D01*
X84441401Y-113790030D01*
X84528952Y-113921059D01*
X84589257Y-114066649D01*
X84620000Y-114221206D01*
X84620000Y-114378794D01*
X84589257Y-114533351D01*
X84528952Y-114678941D01*
X84441401Y-114809970D01*
X84329970Y-114921401D01*
X84198941Y-115008952D01*
X84053351Y-115069257D01*
X83898794Y-115100000D01*
X83741206Y-115100000D01*
X83586649Y-115069257D01*
X83441059Y-115008952D01*
X83310030Y-114921401D01*
X83198599Y-114809970D01*
X83111048Y-114678941D01*
X83050743Y-114533351D01*
X83020000Y-114378794D01*
X83020000Y-114221206D01*
X83050743Y-114066649D01*
X83111048Y-113921059D01*
X83198599Y-113790030D01*
X83310030Y-113678599D01*
X83441059Y-113591048D01*
X83586649Y-113530743D01*
X83741206Y-113500000D01*
X83898794Y-113500000D01*
X84053351Y-113530743D01*
G37*
G36*
X86593351Y-113530743D02*
G01*
X86738941Y-113591048D01*
X86869970Y-113678599D01*
X86981401Y-113790030D01*
X87068952Y-113921059D01*
X87129257Y-114066649D01*
X87160000Y-114221206D01*
X87160000Y-114378794D01*
X87129257Y-114533351D01*
X87068952Y-114678941D01*
X86981401Y-114809970D01*
X86869970Y-114921401D01*
X86738941Y-115008952D01*
X86593351Y-115069257D01*
X86438794Y-115100000D01*
X86281206Y-115100000D01*
X86126649Y-115069257D01*
X85981059Y-115008952D01*
X85850030Y-114921401D01*
X85738599Y-114809970D01*
X85651048Y-114678941D01*
X85590743Y-114533351D01*
X85560000Y-114378794D01*
X85560000Y-114221206D01*
X85590743Y-114066649D01*
X85651048Y-113921059D01*
X85738599Y-113790030D01*
X85850030Y-113678599D01*
X85981059Y-113591048D01*
X86126649Y-113530743D01*
X86281206Y-113500000D01*
X86438794Y-113500000D01*
X86593351Y-113530743D01*
G37*
G36*
X72870060Y-108430060D02*
G01*
X69369940Y-108430060D01*
X69369940Y-104929940D01*
X72870060Y-104929940D01*
X72870060Y-108430060D01*
G37*
G36*
X76710473Y-104997193D02*
G01*
X77028963Y-105129116D01*
X77315598Y-105320639D01*
X77559361Y-105564402D01*
X77750884Y-105851037D01*
X77882807Y-106169527D01*
X77950060Y-106507633D01*
X77950060Y-106852367D01*
X77882807Y-107190473D01*
X77750884Y-107508963D01*
X77559361Y-107795598D01*
X77315598Y-108039361D01*
X77028963Y-108230884D01*
X76710473Y-108362807D01*
X76372367Y-108430060D01*
X76027633Y-108430060D01*
X75689527Y-108362807D01*
X75371037Y-108230884D01*
X75084402Y-108039361D01*
X74840639Y-107795598D01*
X74649116Y-107508963D01*
X74517193Y-107190473D01*
X74449940Y-106852367D01*
X74449940Y-106507633D01*
X74517193Y-106169527D01*
X74649116Y-105851037D01*
X74840639Y-105564402D01*
X75084402Y-105320639D01*
X75371037Y-105129116D01*
X75689527Y-104997193D01*
X76027633Y-104929940D01*
X76372367Y-104929940D01*
X76710473Y-104997193D01*
G37*
G36*
X96713351Y-105910743D02*
G01*
X96858941Y-105971048D01*
X96989970Y-106058599D01*
X97101401Y-106170030D01*
X97188952Y-106301059D01*
X97249257Y-106446649D01*
X97280000Y-106601206D01*
X97280000Y-106758794D01*
X97249257Y-106913351D01*
X97188952Y-107058941D01*
X97101401Y-107189970D01*
X96989970Y-107301401D01*
X96858941Y-107388952D01*
X96713351Y-107449257D01*
X96558794Y-107480000D01*
X96401206Y-107480000D01*
X96246649Y-107449257D01*
X96101059Y-107388952D01*
X95970030Y-107301401D01*
X95858599Y-107189970D01*
X95771048Y-107058941D01*
X95710743Y-106913351D01*
X95680000Y-106758794D01*
X95680000Y-106601206D01*
X95710743Y-106446649D01*
X95771048Y-106301059D01*
X95858599Y-106170030D01*
X95970030Y-106058599D01*
X96101059Y-105971048D01*
X96246649Y-105910743D01*
X96401206Y-105880000D01*
X96558794Y-105880000D01*
X96713351Y-105910743D01*
G37*
G36*
X94213351Y-105910743D02*
G01*
X94358941Y-105971048D01*
X94489970Y-106058599D01*
X94601401Y-106170030D01*
X94688952Y-106301059D01*
X94749257Y-106446649D01*
X94780000Y-106601206D01*
X94780000Y-106758794D01*
X94749257Y-106913351D01*
X94688952Y-107058941D01*
X94601401Y-107189970D01*
X94489970Y-107301401D01*
X94358941Y-107388952D01*
X94213351Y-107449257D01*
X94058794Y-107480000D01*
X93901206Y-107480000D01*
X93746649Y-107449257D01*
X93601059Y-107388952D01*
X93470030Y-107301401D01*
X93358599Y-107189970D01*
X93271048Y-107058941D01*
X93210743Y-106913351D01*
X93180000Y-106758794D01*
X93180000Y-106601206D01*
X93210743Y-106446649D01*
X93271048Y-106301059D01*
X93358599Y-106170030D01*
X93470030Y-106058599D01*
X93601059Y-105971048D01*
X93746649Y-105910743D01*
X93901206Y-105880000D01*
X94058794Y-105880000D01*
X94213351Y-105910743D01*
G37*
G36*
X60466703Y-103461486D02*
G01*
X60757883Y-103582097D01*
X61019940Y-103757198D01*
X61242802Y-103980060D01*
X61417903Y-104242117D01*
X61538514Y-104533297D01*
X61600000Y-104842412D01*
X61600000Y-105157588D01*
X61538514Y-105466703D01*
X61417903Y-105757883D01*
X61242802Y-106019940D01*
X61019940Y-106242802D01*
X60757883Y-106417903D01*
X60466703Y-106538514D01*
X60157588Y-106600000D01*
X59842412Y-106600000D01*
X59533297Y-106538514D01*
X59242117Y-106417903D01*
X58980060Y-106242802D01*
X58757198Y-106019940D01*
X58582097Y-105757883D01*
X58461486Y-105466703D01*
X58400000Y-105157588D01*
X58400000Y-104842412D01*
X58461486Y-104533297D01*
X58582097Y-104242117D01*
X58757198Y-103980060D01*
X58980060Y-103757198D01*
X59242117Y-103582097D01*
X59533297Y-103461486D01*
X59842412Y-103400000D01*
X60157588Y-103400000D01*
X60466703Y-103461486D01*
G37*
G36*
X140466703Y-103461486D02*
G01*
X140757883Y-103582097D01*
X141019940Y-103757198D01*
X141242802Y-103980060D01*
X141417903Y-104242117D01*
X141538514Y-104533297D01*
X141600000Y-104842412D01*
X141600000Y-105157588D01*
X141538514Y-105466703D01*
X141417903Y-105757883D01*
X141242802Y-106019940D01*
X141019940Y-106242802D01*
X140757883Y-106417903D01*
X140466703Y-106538514D01*
X140157588Y-106600000D01*
X139842412Y-106600000D01*
X139533297Y-106538514D01*
X139242117Y-106417903D01*
X138980060Y-106242802D01*
X138757198Y-106019940D01*
X138582097Y-105757883D01*
X138461486Y-105466703D01*
X138400000Y-105157588D01*
X138400000Y-104842412D01*
X138461486Y-104533297D01*
X138582097Y-104242117D01*
X138757198Y-103980060D01*
X138980060Y-103757198D01*
X139242117Y-103582097D01*
X139533297Y-103461486D01*
X139842412Y-103400000D01*
X140157588Y-103400000D01*
X140466703Y-103461486D01*
G37*
G36*
X89133351Y-103370743D02*
G01*
X89278941Y-103431048D01*
X89409970Y-103518599D01*
X89521401Y-103630030D01*
X89608952Y-103761059D01*
X89669257Y-103906649D01*
X89700000Y-104061206D01*
X89700000Y-104218794D01*
X89669257Y-104373351D01*
X89608952Y-104518941D01*
X89521401Y-104649970D01*
X89409970Y-104761401D01*
X89278941Y-104848952D01*
X89133351Y-104909257D01*
X88978794Y-104940000D01*
X88821206Y-104940000D01*
X88666649Y-104909257D01*
X88521059Y-104848952D01*
X88390030Y-104761401D01*
X88278599Y-104649970D01*
X88191048Y-104518941D01*
X88130743Y-104373351D01*
X88100000Y-104218794D01*
X88100000Y-104061206D01*
X88130743Y-103906649D01*
X88191048Y-103761059D01*
X88278599Y-103630030D01*
X88390030Y-103518599D01*
X88521059Y-103431048D01*
X88666649Y-103370743D01*
X88821206Y-103340000D01*
X88978794Y-103340000D01*
X89133351Y-103370743D01*
G37*
G36*
X86593351Y-103370743D02*
G01*
X86738941Y-103431048D01*
X86869970Y-103518599D01*
X86981401Y-103630030D01*
X87068952Y-103761059D01*
X87129257Y-103906649D01*
X87160000Y-104061206D01*
X87160000Y-104218794D01*
X87129257Y-104373351D01*
X87068952Y-104518941D01*
X86981401Y-104649970D01*
X86869970Y-104761401D01*
X86738941Y-104848952D01*
X86593351Y-104909257D01*
X86438794Y-104940000D01*
X86281206Y-104940000D01*
X86126649Y-104909257D01*
X85981059Y-104848952D01*
X85850030Y-104761401D01*
X85738599Y-104649970D01*
X85651048Y-104518941D01*
X85590743Y-104373351D01*
X85560000Y-104218794D01*
X85560000Y-104061206D01*
X85590743Y-103906649D01*
X85651048Y-103761059D01*
X85738599Y-103630030D01*
X85850030Y-103518599D01*
X85981059Y-103431048D01*
X86126649Y-103370743D01*
X86281206Y-103340000D01*
X86438794Y-103340000D01*
X86593351Y-103370743D01*
G37*
G36*
X84053351Y-103370743D02*
G01*
X84198941Y-103431048D01*
X84329970Y-103518599D01*
X84441401Y-103630030D01*
X84528952Y-103761059D01*
X84589257Y-103906649D01*
X84620000Y-104061206D01*
X84620000Y-104218794D01*
X84589257Y-104373351D01*
X84528952Y-104518941D01*
X84441401Y-104649970D01*
X84329970Y-104761401D01*
X84198941Y-104848952D01*
X84053351Y-104909257D01*
X83898794Y-104940000D01*
X83741206Y-104940000D01*
X83586649Y-104909257D01*
X83441059Y-104848952D01*
X83310030Y-104761401D01*
X83198599Y-104649970D01*
X83111048Y-104518941D01*
X83050743Y-104373351D01*
X83020000Y-104218794D01*
X83020000Y-104061206D01*
X83050743Y-103906649D01*
X83111048Y-103761059D01*
X83198599Y-103630030D01*
X83310030Y-103518599D01*
X83441059Y-103431048D01*
X83586649Y-103370743D01*
X83741206Y-103340000D01*
X83898794Y-103340000D01*
X84053351Y-103370743D01*
G37*
G36*
X101833351Y-103370743D02*
G01*
X101978941Y-103431048D01*
X102109970Y-103518599D01*
X102221401Y-103630030D01*
X102308952Y-103761059D01*
X102369257Y-103906649D01*
X102400000Y-104061206D01*
X102400000Y-104218794D01*
X102369257Y-104373351D01*
X102308952Y-104518941D01*
X102221401Y-104649970D01*
X102109970Y-104761401D01*
X101978941Y-104848952D01*
X101833351Y-104909257D01*
X101678794Y-104940000D01*
X101521206Y-104940000D01*
X101366649Y-104909257D01*
X101221059Y-104848952D01*
X101090030Y-104761401D01*
X100978599Y-104649970D01*
X100891048Y-104518941D01*
X100830743Y-104373351D01*
X100800000Y-104218794D01*
X100800000Y-104061206D01*
X100830743Y-103906649D01*
X100891048Y-103761059D01*
X100978599Y-103630030D01*
X101090030Y-103518599D01*
X101221059Y-103431048D01*
X101366649Y-103370743D01*
X101521206Y-103340000D01*
X101678794Y-103340000D01*
X101833351Y-103370743D01*
G37*
G36*
X104373351Y-103370743D02*
G01*
X104518941Y-103431048D01*
X104649970Y-103518599D01*
X104761401Y-103630030D01*
X104848952Y-103761059D01*
X104909257Y-103906649D01*
X104940000Y-104061206D01*
X104940000Y-104218794D01*
X104909257Y-104373351D01*
X104848952Y-104518941D01*
X104761401Y-104649970D01*
X104649970Y-104761401D01*
X104518941Y-104848952D01*
X104373351Y-104909257D01*
X104218794Y-104940000D01*
X104061206Y-104940000D01*
X103906649Y-104909257D01*
X103761059Y-104848952D01*
X103630030Y-104761401D01*
X103518599Y-104649970D01*
X103431048Y-104518941D01*
X103370743Y-104373351D01*
X103340000Y-104218794D01*
X103340000Y-104061206D01*
X103370743Y-103906649D01*
X103431048Y-103761059D01*
X103518599Y-103630030D01*
X103630030Y-103518599D01*
X103761059Y-103431048D01*
X103906649Y-103370743D01*
X104061206Y-103340000D01*
X104218794Y-103340000D01*
X104373351Y-103370743D01*
G37*
G36*
X106913351Y-103370743D02*
G01*
X107058941Y-103431048D01*
X107189970Y-103518599D01*
X107301401Y-103630030D01*
X107388952Y-103761059D01*
X107449257Y-103906649D01*
X107480000Y-104061206D01*
X107480000Y-104218794D01*
X107449257Y-104373351D01*
X107388952Y-104518941D01*
X107301401Y-104649970D01*
X107189970Y-104761401D01*
X107058941Y-104848952D01*
X106913351Y-104909257D01*
X106758794Y-104940000D01*
X106601206Y-104940000D01*
X106446649Y-104909257D01*
X106301059Y-104848952D01*
X106170030Y-104761401D01*
X106058599Y-104649970D01*
X105971048Y-104518941D01*
X105910743Y-104373351D01*
X105880000Y-104218794D01*
X105880000Y-104061206D01*
X105910743Y-103906649D01*
X105971048Y-103761059D01*
X106058599Y-103630030D01*
X106170030Y-103518599D01*
X106301059Y-103431048D01*
X106446649Y-103370743D01*
X106601206Y-103340000D01*
X106758794Y-103340000D01*
X106913351Y-103370743D01*
G37*
G36*
X91605041Y-92298086D02*
G01*
X91722856Y-92333825D01*
X91840669Y-92369563D01*
X91840671Y-92369564D01*
X92057822Y-92485633D01*
X92057824Y-92485634D01*
X92057823Y-92485634D01*
X92248160Y-92641840D01*
X92404366Y-92832177D01*
X92520437Y-93049332D01*
X92563801Y-93192286D01*
X92591914Y-93284960D01*
X92610000Y-93468592D01*
X92610000Y-94091409D01*
X92591914Y-94275041D01*
X92520436Y-94510671D01*
X92404368Y-94727821D01*
X92404366Y-94727823D01*
X92248160Y-94918160D01*
X92091953Y-95046355D01*
X92057821Y-95074367D01*
X91840670Y-95190436D01*
X91840668Y-95190437D01*
X91722855Y-95226175D01*
X91605040Y-95261914D01*
X91360000Y-95286048D01*
X91114959Y-95261914D01*
X90997144Y-95226175D01*
X90879331Y-95190437D01*
X90879329Y-95190436D01*
X90662178Y-95074367D01*
X90633237Y-95050615D01*
X90471840Y-94918160D01*
X90315634Y-94727822D01*
X90199563Y-94510668D01*
X90128087Y-94275042D01*
X90128086Y-94275040D01*
X90110000Y-94091408D01*
X90110000Y-93468591D01*
X90128086Y-93284959D01*
X90199564Y-93049329D01*
X90315633Y-92832178D01*
X90471841Y-92641840D01*
X90662179Y-92485633D01*
X90879330Y-92369564D01*
X90879332Y-92369563D01*
X90997145Y-92333825D01*
X91114960Y-92298086D01*
X91360000Y-92273952D01*
X91605041Y-92298086D01*
G37*
G36*
X61205041Y-92298086D02*
G01*
X61322856Y-92333825D01*
X61440669Y-92369563D01*
X61440671Y-92369564D01*
X61657822Y-92485633D01*
X61657824Y-92485634D01*
X61657823Y-92485634D01*
X61848160Y-92641840D01*
X62004366Y-92832177D01*
X62120437Y-93049332D01*
X62163801Y-93192286D01*
X62191914Y-93284960D01*
X62210000Y-93468592D01*
X62210000Y-94091409D01*
X62191914Y-94275041D01*
X62120436Y-94510671D01*
X62004368Y-94727821D01*
X62004366Y-94727823D01*
X61848160Y-94918160D01*
X61691953Y-95046355D01*
X61657821Y-95074367D01*
X61440670Y-95190436D01*
X61440668Y-95190437D01*
X61322855Y-95226175D01*
X61205040Y-95261914D01*
X60960000Y-95286048D01*
X60714959Y-95261914D01*
X60597144Y-95226175D01*
X60479331Y-95190437D01*
X60479329Y-95190436D01*
X60262178Y-95074367D01*
X60233237Y-95050615D01*
X60071840Y-94918160D01*
X59915634Y-94727822D01*
X59799563Y-94510668D01*
X59728087Y-94275042D01*
X59728086Y-94275040D01*
X59710000Y-94091408D01*
X59710000Y-93468591D01*
X59728086Y-93284959D01*
X59799564Y-93049329D01*
X59915633Y-92832178D01*
X60071841Y-92641840D01*
X60262179Y-92485633D01*
X60479330Y-92369564D01*
X60479332Y-92369563D01*
X60597145Y-92333825D01*
X60714960Y-92298086D01*
X60960000Y-92273952D01*
X61205041Y-92298086D01*
G37*
G36*
X66205041Y-92298086D02*
G01*
X66322856Y-92333825D01*
X66440669Y-92369563D01*
X66440671Y-92369564D01*
X66657822Y-92485633D01*
X66657824Y-92485634D01*
X66657823Y-92485634D01*
X66848160Y-92641840D01*
X67004366Y-92832177D01*
X67120437Y-93049332D01*
X67163801Y-93192286D01*
X67191914Y-93284960D01*
X67210000Y-93468592D01*
X67210000Y-94091409D01*
X67191914Y-94275041D01*
X67120436Y-94510671D01*
X67004368Y-94727821D01*
X67004366Y-94727823D01*
X66848160Y-94918160D01*
X66691953Y-95046355D01*
X66657821Y-95074367D01*
X66440670Y-95190436D01*
X66440668Y-95190437D01*
X66322855Y-95226175D01*
X66205040Y-95261914D01*
X65960000Y-95286048D01*
X65714959Y-95261914D01*
X65597144Y-95226175D01*
X65479331Y-95190437D01*
X65479329Y-95190436D01*
X65262178Y-95074367D01*
X65233237Y-95050615D01*
X65071840Y-94918160D01*
X64915634Y-94727822D01*
X64799563Y-94510668D01*
X64728087Y-94275042D01*
X64728086Y-94275040D01*
X64710000Y-94091408D01*
X64710000Y-93468591D01*
X64728086Y-93284959D01*
X64799564Y-93049329D01*
X64915633Y-92832178D01*
X65071841Y-92641840D01*
X65262179Y-92485633D01*
X65479330Y-92369564D01*
X65479332Y-92369563D01*
X65597145Y-92333825D01*
X65714960Y-92298086D01*
X65960000Y-92273952D01*
X66205041Y-92298086D01*
G37*
G36*
X73905041Y-92298086D02*
G01*
X74022856Y-92333825D01*
X74140669Y-92369563D01*
X74140671Y-92369564D01*
X74357822Y-92485633D01*
X74357824Y-92485634D01*
X74357823Y-92485634D01*
X74548160Y-92641840D01*
X74704366Y-92832177D01*
X74820437Y-93049332D01*
X74863801Y-93192286D01*
X74891914Y-93284960D01*
X74910000Y-93468592D01*
X74910000Y-94091409D01*
X74891914Y-94275041D01*
X74820436Y-94510671D01*
X74704368Y-94727821D01*
X74704366Y-94727823D01*
X74548160Y-94918160D01*
X74391953Y-95046355D01*
X74357821Y-95074367D01*
X74140670Y-95190436D01*
X74140668Y-95190437D01*
X74022855Y-95226175D01*
X73905040Y-95261914D01*
X73660000Y-95286048D01*
X73414959Y-95261914D01*
X73297144Y-95226175D01*
X73179331Y-95190437D01*
X73179329Y-95190436D01*
X72962178Y-95074367D01*
X72933237Y-95050615D01*
X72771840Y-94918160D01*
X72615634Y-94727822D01*
X72499563Y-94510668D01*
X72428087Y-94275042D01*
X72428086Y-94275040D01*
X72410000Y-94091408D01*
X72410000Y-93468591D01*
X72428086Y-93284959D01*
X72499564Y-93049329D01*
X72615633Y-92832178D01*
X72771841Y-92641840D01*
X72962179Y-92485633D01*
X73179330Y-92369564D01*
X73179332Y-92369563D01*
X73297145Y-92333825D01*
X73414960Y-92298086D01*
X73660000Y-92273952D01*
X73905041Y-92298086D01*
G37*
G36*
X78905041Y-92298086D02*
G01*
X79022856Y-92333825D01*
X79140669Y-92369563D01*
X79140671Y-92369564D01*
X79357822Y-92485633D01*
X79357824Y-92485634D01*
X79357823Y-92485634D01*
X79548160Y-92641840D01*
X79704366Y-92832177D01*
X79820437Y-93049332D01*
X79863801Y-93192286D01*
X79891914Y-93284960D01*
X79910000Y-93468592D01*
X79910000Y-94091409D01*
X79891914Y-94275041D01*
X79820436Y-94510671D01*
X79704368Y-94727821D01*
X79704366Y-94727823D01*
X79548160Y-94918160D01*
X79391953Y-95046355D01*
X79357821Y-95074367D01*
X79140670Y-95190436D01*
X79140668Y-95190437D01*
X79022855Y-95226175D01*
X78905040Y-95261914D01*
X78660000Y-95286048D01*
X78414959Y-95261914D01*
X78297144Y-95226175D01*
X78179331Y-95190437D01*
X78179329Y-95190436D01*
X77962178Y-95074367D01*
X77933237Y-95050615D01*
X77771840Y-94918160D01*
X77615634Y-94727822D01*
X77499563Y-94510668D01*
X77428087Y-94275042D01*
X77428086Y-94275040D01*
X77410000Y-94091408D01*
X77410000Y-93468591D01*
X77428086Y-93284959D01*
X77499564Y-93049329D01*
X77615633Y-92832178D01*
X77771841Y-92641840D01*
X77962179Y-92485633D01*
X78179330Y-92369564D01*
X78179332Y-92369563D01*
X78297145Y-92333825D01*
X78414960Y-92298086D01*
X78660000Y-92273952D01*
X78905041Y-92298086D01*
G37*
G36*
X109465041Y-92298086D02*
G01*
X109582856Y-92333825D01*
X109700669Y-92369563D01*
X109700671Y-92369564D01*
X109917822Y-92485633D01*
X109917824Y-92485634D01*
X109917823Y-92485634D01*
X110108160Y-92641840D01*
X110264366Y-92832177D01*
X110380437Y-93049332D01*
X110423801Y-93192286D01*
X110451914Y-93284960D01*
X110470000Y-93468592D01*
X110470000Y-94091409D01*
X110451914Y-94275041D01*
X110380436Y-94510671D01*
X110264368Y-94727821D01*
X110264366Y-94727823D01*
X110108160Y-94918160D01*
X109951953Y-95046355D01*
X109917821Y-95074367D01*
X109700670Y-95190436D01*
X109700668Y-95190437D01*
X109582855Y-95226175D01*
X109465040Y-95261914D01*
X109220000Y-95286048D01*
X108974959Y-95261914D01*
X108857144Y-95226175D01*
X108739331Y-95190437D01*
X108739329Y-95190436D01*
X108522178Y-95074367D01*
X108493237Y-95050615D01*
X108331840Y-94918160D01*
X108175634Y-94727822D01*
X108059563Y-94510668D01*
X107988087Y-94275042D01*
X107988086Y-94275040D01*
X107970000Y-94091408D01*
X107970000Y-93468591D01*
X107988086Y-93284959D01*
X108059564Y-93049329D01*
X108175633Y-92832178D01*
X108331841Y-92641840D01*
X108522179Y-92485633D01*
X108739330Y-92369564D01*
X108739332Y-92369563D01*
X108857145Y-92333825D01*
X108974960Y-92298086D01*
X109220000Y-92273952D01*
X109465041Y-92298086D01*
G37*
G36*
X122165041Y-92298086D02*
G01*
X122282856Y-92333825D01*
X122400669Y-92369563D01*
X122400671Y-92369564D01*
X122617822Y-92485633D01*
X122617824Y-92485634D01*
X122617823Y-92485634D01*
X122808160Y-92641840D01*
X122964366Y-92832177D01*
X123080437Y-93049332D01*
X123123801Y-93192286D01*
X123151914Y-93284960D01*
X123170000Y-93468592D01*
X123170000Y-94091409D01*
X123151914Y-94275041D01*
X123080436Y-94510671D01*
X122964368Y-94727821D01*
X122964366Y-94727823D01*
X122808160Y-94918160D01*
X122651953Y-95046355D01*
X122617821Y-95074367D01*
X122400670Y-95190436D01*
X122400668Y-95190437D01*
X122282855Y-95226175D01*
X122165040Y-95261914D01*
X121920000Y-95286048D01*
X121674959Y-95261914D01*
X121557144Y-95226175D01*
X121439331Y-95190437D01*
X121439329Y-95190436D01*
X121222178Y-95074367D01*
X121193237Y-95050615D01*
X121031840Y-94918160D01*
X120875634Y-94727822D01*
X120759563Y-94510668D01*
X120688087Y-94275042D01*
X120688086Y-94275040D01*
X120670000Y-94091408D01*
X120670000Y-93468591D01*
X120688086Y-93284959D01*
X120759564Y-93049329D01*
X120875633Y-92832178D01*
X121031841Y-92641840D01*
X121222179Y-92485633D01*
X121439330Y-92369564D01*
X121439332Y-92369563D01*
X121557145Y-92333825D01*
X121674960Y-92298086D01*
X121920000Y-92273952D01*
X122165041Y-92298086D01*
G37*
G36*
X86605041Y-92298086D02*
G01*
X86722856Y-92333825D01*
X86840669Y-92369563D01*
X86840671Y-92369564D01*
X87057822Y-92485633D01*
X87057824Y-92485634D01*
X87057823Y-92485634D01*
X87248160Y-92641840D01*
X87404366Y-92832177D01*
X87520437Y-93049332D01*
X87563801Y-93192286D01*
X87591914Y-93284960D01*
X87610000Y-93468592D01*
X87610000Y-94091409D01*
X87591914Y-94275041D01*
X87520436Y-94510671D01*
X87404368Y-94727821D01*
X87404366Y-94727823D01*
X87248160Y-94918160D01*
X87091953Y-95046355D01*
X87057821Y-95074367D01*
X86840670Y-95190436D01*
X86840668Y-95190437D01*
X86722855Y-95226175D01*
X86605040Y-95261914D01*
X86360000Y-95286048D01*
X86114959Y-95261914D01*
X85997144Y-95226175D01*
X85879331Y-95190437D01*
X85879329Y-95190436D01*
X85662178Y-95074367D01*
X85633237Y-95050615D01*
X85471840Y-94918160D01*
X85315634Y-94727822D01*
X85199563Y-94510668D01*
X85128087Y-94275042D01*
X85128086Y-94275040D01*
X85110000Y-94091408D01*
X85110000Y-93468591D01*
X85128086Y-93284959D01*
X85199564Y-93049329D01*
X85315633Y-92832178D01*
X85471841Y-92641840D01*
X85662179Y-92485633D01*
X85879330Y-92369564D01*
X85879332Y-92369563D01*
X85997145Y-92333825D01*
X86114960Y-92298086D01*
X86360000Y-92273952D01*
X86605041Y-92298086D01*
G37*
G36*
X127165041Y-92298086D02*
G01*
X127282856Y-92333825D01*
X127400669Y-92369563D01*
X127400671Y-92369564D01*
X127617822Y-92485633D01*
X127617824Y-92485634D01*
X127617823Y-92485634D01*
X127808160Y-92641840D01*
X127964366Y-92832177D01*
X128080437Y-93049332D01*
X128123801Y-93192286D01*
X128151914Y-93284960D01*
X128170000Y-93468592D01*
X128170000Y-94091409D01*
X128151914Y-94275041D01*
X128080436Y-94510671D01*
X127964368Y-94727821D01*
X127964366Y-94727823D01*
X127808160Y-94918160D01*
X127651953Y-95046355D01*
X127617821Y-95074367D01*
X127400670Y-95190436D01*
X127400668Y-95190437D01*
X127282855Y-95226175D01*
X127165040Y-95261914D01*
X126920000Y-95286048D01*
X126674959Y-95261914D01*
X126557144Y-95226175D01*
X126439331Y-95190437D01*
X126439329Y-95190436D01*
X126222178Y-95074367D01*
X126193237Y-95050615D01*
X126031840Y-94918160D01*
X125875634Y-94727822D01*
X125759563Y-94510668D01*
X125688087Y-94275042D01*
X125688086Y-94275040D01*
X125670000Y-94091408D01*
X125670000Y-93468591D01*
X125688086Y-93284959D01*
X125759564Y-93049329D01*
X125875633Y-92832178D01*
X126031841Y-92641840D01*
X126222179Y-92485633D01*
X126439330Y-92369564D01*
X126439332Y-92369563D01*
X126557145Y-92333825D01*
X126674960Y-92298086D01*
X126920000Y-92273952D01*
X127165041Y-92298086D01*
G37*
G36*
X134865041Y-92298086D02*
G01*
X134982856Y-92333825D01*
X135100669Y-92369563D01*
X135100671Y-92369564D01*
X135317822Y-92485633D01*
X135317824Y-92485634D01*
X135317823Y-92485634D01*
X135508160Y-92641840D01*
X135664366Y-92832177D01*
X135780437Y-93049332D01*
X135823801Y-93192286D01*
X135851914Y-93284960D01*
X135870000Y-93468592D01*
X135870000Y-94091409D01*
X135851914Y-94275041D01*
X135780436Y-94510671D01*
X135664368Y-94727821D01*
X135664366Y-94727823D01*
X135508160Y-94918160D01*
X135351953Y-95046355D01*
X135317821Y-95074367D01*
X135100670Y-95190436D01*
X135100668Y-95190437D01*
X134982855Y-95226175D01*
X134865040Y-95261914D01*
X134620000Y-95286048D01*
X134374959Y-95261914D01*
X134257144Y-95226175D01*
X134139331Y-95190437D01*
X134139329Y-95190436D01*
X133922178Y-95074367D01*
X133893237Y-95050615D01*
X133731840Y-94918160D01*
X133575634Y-94727822D01*
X133459563Y-94510668D01*
X133388087Y-94275042D01*
X133388086Y-94275040D01*
X133370000Y-94091408D01*
X133370000Y-93468591D01*
X133388086Y-93284959D01*
X133459564Y-93049329D01*
X133575633Y-92832178D01*
X133731841Y-92641840D01*
X133922179Y-92485633D01*
X134139330Y-92369564D01*
X134139332Y-92369563D01*
X134257145Y-92333825D01*
X134374960Y-92298086D01*
X134620000Y-92273952D01*
X134865041Y-92298086D01*
G37*
G36*
X114465041Y-92298086D02*
G01*
X114582856Y-92333825D01*
X114700669Y-92369563D01*
X114700671Y-92369564D01*
X114917822Y-92485633D01*
X114917824Y-92485634D01*
X114917823Y-92485634D01*
X115108160Y-92641840D01*
X115264366Y-92832177D01*
X115380437Y-93049332D01*
X115423801Y-93192286D01*
X115451914Y-93284960D01*
X115470000Y-93468592D01*
X115470000Y-94091409D01*
X115451914Y-94275041D01*
X115380436Y-94510671D01*
X115264368Y-94727821D01*
X115264366Y-94727823D01*
X115108160Y-94918160D01*
X114951953Y-95046355D01*
X114917821Y-95074367D01*
X114700670Y-95190436D01*
X114700668Y-95190437D01*
X114582855Y-95226175D01*
X114465040Y-95261914D01*
X114220000Y-95286048D01*
X113974959Y-95261914D01*
X113857144Y-95226175D01*
X113739331Y-95190437D01*
X113739329Y-95190436D01*
X113522178Y-95074367D01*
X113493237Y-95050615D01*
X113331840Y-94918160D01*
X113175634Y-94727822D01*
X113059563Y-94510668D01*
X112988087Y-94275042D01*
X112988086Y-94275040D01*
X112970000Y-94091408D01*
X112970000Y-93468591D01*
X112988086Y-93284959D01*
X113059564Y-93049329D01*
X113175633Y-92832178D01*
X113331841Y-92641840D01*
X113522179Y-92485633D01*
X113739330Y-92369564D01*
X113739332Y-92369563D01*
X113857145Y-92333825D01*
X113974960Y-92298086D01*
X114220000Y-92273952D01*
X114465041Y-92298086D01*
G37*
G36*
X139865041Y-92298086D02*
G01*
X139982856Y-92333825D01*
X140100669Y-92369563D01*
X140100671Y-92369564D01*
X140317822Y-92485633D01*
X140317824Y-92485634D01*
X140317823Y-92485634D01*
X140508160Y-92641840D01*
X140664366Y-92832177D01*
X140780437Y-93049332D01*
X140823801Y-93192286D01*
X140851914Y-93284960D01*
X140870000Y-93468592D01*
X140870000Y-94091409D01*
X140851914Y-94275041D01*
X140780436Y-94510671D01*
X140664368Y-94727821D01*
X140664366Y-94727823D01*
X140508160Y-94918160D01*
X140351953Y-95046355D01*
X140317821Y-95074367D01*
X140100670Y-95190436D01*
X140100668Y-95190437D01*
X139982855Y-95226175D01*
X139865040Y-95261914D01*
X139620000Y-95286048D01*
X139374959Y-95261914D01*
X139257144Y-95226175D01*
X139139331Y-95190437D01*
X139139329Y-95190436D01*
X138922178Y-95074367D01*
X138893237Y-95050615D01*
X138731840Y-94918160D01*
X138575634Y-94727822D01*
X138459563Y-94510668D01*
X138388087Y-94275042D01*
X138388086Y-94275040D01*
X138370000Y-94091408D01*
X138370000Y-93468591D01*
X138388086Y-93284959D01*
X138459564Y-93049329D01*
X138575633Y-92832178D01*
X138731841Y-92641840D01*
X138922179Y-92485633D01*
X139139330Y-92369564D01*
X139139332Y-92369563D01*
X139257145Y-92333825D01*
X139374960Y-92298086D01*
X139620000Y-92273952D01*
X139865041Y-92298086D01*
G37*
G36*
X91605041Y-79798086D02*
G01*
X91722856Y-79833825D01*
X91840669Y-79869563D01*
X91840671Y-79869564D01*
X92057822Y-79985633D01*
X92057824Y-79985634D01*
X92057823Y-79985634D01*
X92248160Y-80141840D01*
X92404366Y-80332177D01*
X92520437Y-80549332D01*
X92563801Y-80692286D01*
X92591914Y-80784960D01*
X92610000Y-80968592D01*
X92610000Y-81591409D01*
X92591914Y-81775041D01*
X92520436Y-82010671D01*
X92404368Y-82227821D01*
X92404366Y-82227823D01*
X92248160Y-82418160D01*
X92091953Y-82546355D01*
X92057821Y-82574367D01*
X91840670Y-82690436D01*
X91840668Y-82690437D01*
X91722855Y-82726175D01*
X91605040Y-82761914D01*
X91360000Y-82786048D01*
X91114959Y-82761914D01*
X90997144Y-82726175D01*
X90879331Y-82690437D01*
X90879329Y-82690436D01*
X90662178Y-82574367D01*
X90633237Y-82550615D01*
X90471840Y-82418160D01*
X90315634Y-82227822D01*
X90199563Y-82010668D01*
X90128087Y-81775042D01*
X90128086Y-81775040D01*
X90110000Y-81591408D01*
X90110000Y-80968591D01*
X90128086Y-80784959D01*
X90199564Y-80549329D01*
X90315633Y-80332178D01*
X90471841Y-80141840D01*
X90662179Y-79985633D01*
X90879330Y-79869564D01*
X90879332Y-79869563D01*
X90997145Y-79833825D01*
X91114960Y-79798086D01*
X91360000Y-79773952D01*
X91605041Y-79798086D01*
G37*
G36*
X86605041Y-79798086D02*
G01*
X86722856Y-79833825D01*
X86840669Y-79869563D01*
X86840671Y-79869564D01*
X87057822Y-79985633D01*
X87057824Y-79985634D01*
X87057823Y-79985634D01*
X87248160Y-80141840D01*
X87404366Y-80332177D01*
X87520437Y-80549332D01*
X87563801Y-80692286D01*
X87591914Y-80784960D01*
X87610000Y-80968592D01*
X87610000Y-81591409D01*
X87591914Y-81775041D01*
X87520436Y-82010671D01*
X87404368Y-82227821D01*
X87404366Y-82227823D01*
X87248160Y-82418160D01*
X87091953Y-82546355D01*
X87057821Y-82574367D01*
X86840670Y-82690436D01*
X86840668Y-82690437D01*
X86722855Y-82726175D01*
X86605040Y-82761914D01*
X86360000Y-82786048D01*
X86114959Y-82761914D01*
X85997144Y-82726175D01*
X85879331Y-82690437D01*
X85879329Y-82690436D01*
X85662178Y-82574367D01*
X85633237Y-82550615D01*
X85471840Y-82418160D01*
X85315634Y-82227822D01*
X85199563Y-82010668D01*
X85128087Y-81775042D01*
X85128086Y-81775040D01*
X85110000Y-81591408D01*
X85110000Y-80968591D01*
X85128086Y-80784959D01*
X85199564Y-80549329D01*
X85315633Y-80332178D01*
X85471841Y-80141840D01*
X85662179Y-79985633D01*
X85879330Y-79869564D01*
X85879332Y-79869563D01*
X85997145Y-79833825D01*
X86114960Y-79798086D01*
X86360000Y-79773952D01*
X86605041Y-79798086D01*
G37*
G36*
X61205041Y-79798086D02*
G01*
X61322856Y-79833825D01*
X61440669Y-79869563D01*
X61440671Y-79869564D01*
X61657822Y-79985633D01*
X61657824Y-79985634D01*
X61657823Y-79985634D01*
X61848160Y-80141840D01*
X62004366Y-80332177D01*
X62120437Y-80549332D01*
X62163801Y-80692286D01*
X62191914Y-80784960D01*
X62210000Y-80968592D01*
X62210000Y-81591409D01*
X62191914Y-81775041D01*
X62120436Y-82010671D01*
X62004368Y-82227821D01*
X62004366Y-82227823D01*
X61848160Y-82418160D01*
X61691953Y-82546355D01*
X61657821Y-82574367D01*
X61440670Y-82690436D01*
X61440668Y-82690437D01*
X61322855Y-82726175D01*
X61205040Y-82761914D01*
X60960000Y-82786048D01*
X60714959Y-82761914D01*
X60597144Y-82726175D01*
X60479331Y-82690437D01*
X60479329Y-82690436D01*
X60262178Y-82574367D01*
X60233237Y-82550615D01*
X60071840Y-82418160D01*
X59915634Y-82227822D01*
X59799563Y-82010668D01*
X59728087Y-81775042D01*
X59728086Y-81775040D01*
X59710000Y-81591408D01*
X59710000Y-80968591D01*
X59728086Y-80784959D01*
X59799564Y-80549329D01*
X59915633Y-80332178D01*
X60071841Y-80141840D01*
X60262179Y-79985633D01*
X60479330Y-79869564D01*
X60479332Y-79869563D01*
X60597145Y-79833825D01*
X60714960Y-79798086D01*
X60960000Y-79773952D01*
X61205041Y-79798086D01*
G37*
G36*
X66205041Y-79798086D02*
G01*
X66322856Y-79833825D01*
X66440669Y-79869563D01*
X66440671Y-79869564D01*
X66657822Y-79985633D01*
X66657824Y-79985634D01*
X66657823Y-79985634D01*
X66848160Y-80141840D01*
X67004366Y-80332177D01*
X67120437Y-80549332D01*
X67163801Y-80692286D01*
X67191914Y-80784960D01*
X67210000Y-80968592D01*
X67210000Y-81591409D01*
X67191914Y-81775041D01*
X67120436Y-82010671D01*
X67004368Y-82227821D01*
X67004366Y-82227823D01*
X66848160Y-82418160D01*
X66691953Y-82546355D01*
X66657821Y-82574367D01*
X66440670Y-82690436D01*
X66440668Y-82690437D01*
X66322855Y-82726175D01*
X66205040Y-82761914D01*
X65960000Y-82786048D01*
X65714959Y-82761914D01*
X65597144Y-82726175D01*
X65479331Y-82690437D01*
X65479329Y-82690436D01*
X65262178Y-82574367D01*
X65233237Y-82550615D01*
X65071840Y-82418160D01*
X64915634Y-82227822D01*
X64799563Y-82010668D01*
X64728087Y-81775042D01*
X64728086Y-81775040D01*
X64710000Y-81591408D01*
X64710000Y-80968591D01*
X64728086Y-80784959D01*
X64799564Y-80549329D01*
X64915633Y-80332178D01*
X65071841Y-80141840D01*
X65262179Y-79985633D01*
X65479330Y-79869564D01*
X65479332Y-79869563D01*
X65597145Y-79833825D01*
X65714960Y-79798086D01*
X65960000Y-79773952D01*
X66205041Y-79798086D01*
G37*
G36*
X109465041Y-79798086D02*
G01*
X109582856Y-79833825D01*
X109700669Y-79869563D01*
X109700671Y-79869564D01*
X109917822Y-79985633D01*
X109917824Y-79985634D01*
X109917823Y-79985634D01*
X110108160Y-80141840D01*
X110264366Y-80332177D01*
X110380437Y-80549332D01*
X110423801Y-80692286D01*
X110451914Y-80784960D01*
X110470000Y-80968592D01*
X110470000Y-81591409D01*
X110451914Y-81775041D01*
X110380436Y-82010671D01*
X110264368Y-82227821D01*
X110264366Y-82227823D01*
X110108160Y-82418160D01*
X109951953Y-82546355D01*
X109917821Y-82574367D01*
X109700670Y-82690436D01*
X109700668Y-82690437D01*
X109582855Y-82726175D01*
X109465040Y-82761914D01*
X109220000Y-82786048D01*
X108974959Y-82761914D01*
X108857144Y-82726175D01*
X108739331Y-82690437D01*
X108739329Y-82690436D01*
X108522178Y-82574367D01*
X108493237Y-82550615D01*
X108331840Y-82418160D01*
X108175634Y-82227822D01*
X108059563Y-82010668D01*
X107988087Y-81775042D01*
X107988086Y-81775040D01*
X107970000Y-81591408D01*
X107970000Y-80968591D01*
X107988086Y-80784959D01*
X108059564Y-80549329D01*
X108175633Y-80332178D01*
X108331841Y-80141840D01*
X108522179Y-79985633D01*
X108739330Y-79869564D01*
X108739332Y-79869563D01*
X108857145Y-79833825D01*
X108974960Y-79798086D01*
X109220000Y-79773952D01*
X109465041Y-79798086D01*
G37*
G36*
X114465041Y-79798086D02*
G01*
X114582856Y-79833825D01*
X114700669Y-79869563D01*
X114700671Y-79869564D01*
X114917822Y-79985633D01*
X114917824Y-79985634D01*
X114917823Y-79985634D01*
X115108160Y-80141840D01*
X115264366Y-80332177D01*
X115380437Y-80549332D01*
X115423801Y-80692286D01*
X115451914Y-80784960D01*
X115470000Y-80968592D01*
X115470000Y-81591409D01*
X115451914Y-81775041D01*
X115380436Y-82010671D01*
X115264368Y-82227821D01*
X115264366Y-82227823D01*
X115108160Y-82418160D01*
X114951953Y-82546355D01*
X114917821Y-82574367D01*
X114700670Y-82690436D01*
X114700668Y-82690437D01*
X114582855Y-82726175D01*
X114465040Y-82761914D01*
X114220000Y-82786048D01*
X113974959Y-82761914D01*
X113857144Y-82726175D01*
X113739331Y-82690437D01*
X113739329Y-82690436D01*
X113522178Y-82574367D01*
X113493237Y-82550615D01*
X113331840Y-82418160D01*
X113175634Y-82227822D01*
X113059563Y-82010668D01*
X112988087Y-81775042D01*
X112988086Y-81775040D01*
X112970000Y-81591408D01*
X112970000Y-80968591D01*
X112988086Y-80784959D01*
X113059564Y-80549329D01*
X113175633Y-80332178D01*
X113331841Y-80141840D01*
X113522179Y-79985633D01*
X113739330Y-79869564D01*
X113739332Y-79869563D01*
X113857145Y-79833825D01*
X113974960Y-79798086D01*
X114220000Y-79773952D01*
X114465041Y-79798086D01*
G37*
G36*
X78905041Y-79798086D02*
G01*
X79022856Y-79833825D01*
X79140669Y-79869563D01*
X79140671Y-79869564D01*
X79357822Y-79985633D01*
X79357824Y-79985634D01*
X79357823Y-79985634D01*
X79548160Y-80141840D01*
X79704366Y-80332177D01*
X79820437Y-80549332D01*
X79863801Y-80692286D01*
X79891914Y-80784960D01*
X79910000Y-80968592D01*
X79910000Y-81591409D01*
X79891914Y-81775041D01*
X79820436Y-82010671D01*
X79704368Y-82227821D01*
X79704366Y-82227823D01*
X79548160Y-82418160D01*
X79391953Y-82546355D01*
X79357821Y-82574367D01*
X79140670Y-82690436D01*
X79140668Y-82690437D01*
X79022855Y-82726175D01*
X78905040Y-82761914D01*
X78660000Y-82786048D01*
X78414959Y-82761914D01*
X78297144Y-82726175D01*
X78179331Y-82690437D01*
X78179329Y-82690436D01*
X77962178Y-82574367D01*
X77933237Y-82550615D01*
X77771840Y-82418160D01*
X77615634Y-82227822D01*
X77499563Y-82010668D01*
X77428087Y-81775042D01*
X77428086Y-81775040D01*
X77410000Y-81591408D01*
X77410000Y-80968591D01*
X77428086Y-80784959D01*
X77499564Y-80549329D01*
X77615633Y-80332178D01*
X77771841Y-80141840D01*
X77962179Y-79985633D01*
X78179330Y-79869564D01*
X78179332Y-79869563D01*
X78297145Y-79833825D01*
X78414960Y-79798086D01*
X78660000Y-79773952D01*
X78905041Y-79798086D01*
G37*
G36*
X139865041Y-79798086D02*
G01*
X139982856Y-79833825D01*
X140100669Y-79869563D01*
X140100671Y-79869564D01*
X140317822Y-79985633D01*
X140317824Y-79985634D01*
X140317823Y-79985634D01*
X140508160Y-80141840D01*
X140664366Y-80332177D01*
X140780437Y-80549332D01*
X140823801Y-80692286D01*
X140851914Y-80784960D01*
X140870000Y-80968592D01*
X140870000Y-81591409D01*
X140851914Y-81775041D01*
X140780436Y-82010671D01*
X140664368Y-82227821D01*
X140664366Y-82227823D01*
X140508160Y-82418160D01*
X140351953Y-82546355D01*
X140317821Y-82574367D01*
X140100670Y-82690436D01*
X140100668Y-82690437D01*
X139982855Y-82726175D01*
X139865040Y-82761914D01*
X139620000Y-82786048D01*
X139374959Y-82761914D01*
X139257144Y-82726175D01*
X139139331Y-82690437D01*
X139139329Y-82690436D01*
X138922178Y-82574367D01*
X138893237Y-82550615D01*
X138731840Y-82418160D01*
X138575634Y-82227822D01*
X138459563Y-82010668D01*
X138388087Y-81775042D01*
X138388086Y-81775040D01*
X138370000Y-81591408D01*
X138370000Y-80968591D01*
X138388086Y-80784959D01*
X138459564Y-80549329D01*
X138575633Y-80332178D01*
X138731841Y-80141840D01*
X138922179Y-79985633D01*
X139139330Y-79869564D01*
X139139332Y-79869563D01*
X139257145Y-79833825D01*
X139374960Y-79798086D01*
X139620000Y-79773952D01*
X139865041Y-79798086D01*
G37*
G36*
X134865041Y-79798086D02*
G01*
X134982856Y-79833825D01*
X135100669Y-79869563D01*
X135100671Y-79869564D01*
X135317822Y-79985633D01*
X135317824Y-79985634D01*
X135317823Y-79985634D01*
X135508160Y-80141840D01*
X135664366Y-80332177D01*
X135780437Y-80549332D01*
X135823801Y-80692286D01*
X135851914Y-80784960D01*
X135870000Y-80968592D01*
X135870000Y-81591409D01*
X135851914Y-81775041D01*
X135780436Y-82010671D01*
X135664368Y-82227821D01*
X135664366Y-82227823D01*
X135508160Y-82418160D01*
X135351953Y-82546355D01*
X135317821Y-82574367D01*
X135100670Y-82690436D01*
X135100668Y-82690437D01*
X134982855Y-82726175D01*
X134865040Y-82761914D01*
X134620000Y-82786048D01*
X134374959Y-82761914D01*
X134257144Y-82726175D01*
X134139331Y-82690437D01*
X134139329Y-82690436D01*
X133922178Y-82574367D01*
X133893237Y-82550615D01*
X133731840Y-82418160D01*
X133575634Y-82227822D01*
X133459563Y-82010668D01*
X133388087Y-81775042D01*
X133388086Y-81775040D01*
X133370000Y-81591408D01*
X133370000Y-80968591D01*
X133388086Y-80784959D01*
X133459564Y-80549329D01*
X133575633Y-80332178D01*
X133731841Y-80141840D01*
X133922179Y-79985633D01*
X134139330Y-79869564D01*
X134139332Y-79869563D01*
X134257145Y-79833825D01*
X134374960Y-79798086D01*
X134620000Y-79773952D01*
X134865041Y-79798086D01*
G37*
G36*
X122165041Y-79798086D02*
G01*
X122282856Y-79833825D01*
X122400669Y-79869563D01*
X122400671Y-79869564D01*
X122617822Y-79985633D01*
X122617824Y-79985634D01*
X122617823Y-79985634D01*
X122808160Y-80141840D01*
X122964366Y-80332177D01*
X123080437Y-80549332D01*
X123123801Y-80692286D01*
X123151914Y-80784960D01*
X123170000Y-80968592D01*
X123170000Y-81591409D01*
X123151914Y-81775041D01*
X123080436Y-82010671D01*
X122964368Y-82227821D01*
X122964366Y-82227823D01*
X122808160Y-82418160D01*
X122651953Y-82546355D01*
X122617821Y-82574367D01*
X122400670Y-82690436D01*
X122400668Y-82690437D01*
X122282855Y-82726175D01*
X122165040Y-82761914D01*
X121920000Y-82786048D01*
X121674959Y-82761914D01*
X121557144Y-82726175D01*
X121439331Y-82690437D01*
X121439329Y-82690436D01*
X121222178Y-82574367D01*
X121193237Y-82550615D01*
X121031840Y-82418160D01*
X120875634Y-82227822D01*
X120759563Y-82010668D01*
X120688087Y-81775042D01*
X120688086Y-81775040D01*
X120670000Y-81591408D01*
X120670000Y-80968591D01*
X120688086Y-80784959D01*
X120759564Y-80549329D01*
X120875633Y-80332178D01*
X121031841Y-80141840D01*
X121222179Y-79985633D01*
X121439330Y-79869564D01*
X121439332Y-79869563D01*
X121557145Y-79833825D01*
X121674960Y-79798086D01*
X121920000Y-79773952D01*
X122165041Y-79798086D01*
G37*
G36*
X73905041Y-79798086D02*
G01*
X74022856Y-79833825D01*
X74140669Y-79869563D01*
X74140671Y-79869564D01*
X74357822Y-79985633D01*
X74357824Y-79985634D01*
X74357823Y-79985634D01*
X74548160Y-80141840D01*
X74704366Y-80332177D01*
X74820437Y-80549332D01*
X74863801Y-80692286D01*
X74891914Y-80784960D01*
X74910000Y-80968592D01*
X74910000Y-81591409D01*
X74891914Y-81775041D01*
X74820436Y-82010671D01*
X74704368Y-82227821D01*
X74704366Y-82227823D01*
X74548160Y-82418160D01*
X74391953Y-82546355D01*
X74357821Y-82574367D01*
X74140670Y-82690436D01*
X74140668Y-82690437D01*
X74022855Y-82726175D01*
X73905040Y-82761914D01*
X73660000Y-82786048D01*
X73414959Y-82761914D01*
X73297144Y-82726175D01*
X73179331Y-82690437D01*
X73179329Y-82690436D01*
X72962178Y-82574367D01*
X72933237Y-82550615D01*
X72771840Y-82418160D01*
X72615634Y-82227822D01*
X72499563Y-82010668D01*
X72428087Y-81775042D01*
X72428086Y-81775040D01*
X72410000Y-81591408D01*
X72410000Y-80968591D01*
X72428086Y-80784959D01*
X72499564Y-80549329D01*
X72615633Y-80332178D01*
X72771841Y-80141840D01*
X72962179Y-79985633D01*
X73179330Y-79869564D01*
X73179332Y-79869563D01*
X73297145Y-79833825D01*
X73414960Y-79798086D01*
X73660000Y-79773952D01*
X73905041Y-79798086D01*
G37*
G36*
X127165041Y-79798086D02*
G01*
X127282856Y-79833825D01*
X127400669Y-79869563D01*
X127400671Y-79869564D01*
X127617822Y-79985633D01*
X127617824Y-79985634D01*
X127617823Y-79985634D01*
X127808160Y-80141840D01*
X127964366Y-80332177D01*
X128080437Y-80549332D01*
X128123801Y-80692286D01*
X128151914Y-80784960D01*
X128170000Y-80968592D01*
X128170000Y-81591409D01*
X128151914Y-81775041D01*
X128080436Y-82010671D01*
X127964368Y-82227821D01*
X127964366Y-82227823D01*
X127808160Y-82418160D01*
X127651953Y-82546355D01*
X127617821Y-82574367D01*
X127400670Y-82690436D01*
X127400668Y-82690437D01*
X127282855Y-82726175D01*
X127165040Y-82761914D01*
X126920000Y-82786048D01*
X126674959Y-82761914D01*
X126557144Y-82726175D01*
X126439331Y-82690437D01*
X126439329Y-82690436D01*
X126222178Y-82574367D01*
X126193237Y-82550615D01*
X126031840Y-82418160D01*
X125875634Y-82227822D01*
X125759563Y-82010668D01*
X125688087Y-81775042D01*
X125688086Y-81775040D01*
X125670000Y-81591408D01*
X125670000Y-80968591D01*
X125688086Y-80784959D01*
X125759564Y-80549329D01*
X125875633Y-80332178D01*
X126031841Y-80141840D01*
X126222179Y-79985633D01*
X126439330Y-79869564D01*
X126439332Y-79869563D01*
X126557145Y-79833825D01*
X126674960Y-79798086D01*
X126920000Y-79773952D01*
X127165041Y-79798086D01*
G37*
G36*
X100466703Y-78461486D02*
G01*
X100757883Y-78582097D01*
X101019940Y-78757198D01*
X101242802Y-78980060D01*
X101417903Y-79242117D01*
X101538514Y-79533297D01*
X101600000Y-79842412D01*
X101600000Y-80157588D01*
X101538514Y-80466703D01*
X101417903Y-80757883D01*
X101242802Y-81019940D01*
X101019940Y-81242802D01*
X100757883Y-81417903D01*
X100466703Y-81538514D01*
X100157588Y-81600000D01*
X99842412Y-81600000D01*
X99533297Y-81538514D01*
X99242117Y-81417903D01*
X98980060Y-81242802D01*
X98757198Y-81019940D01*
X98582097Y-80757883D01*
X98461486Y-80466703D01*
X98400000Y-80157588D01*
X98400000Y-79842412D01*
X98461486Y-79533297D01*
X98582097Y-79242117D01*
X98757198Y-78980060D01*
X98980060Y-78757198D01*
X99242117Y-78582097D01*
X99533297Y-78461486D01*
X99842412Y-78400000D01*
X100157588Y-78400000D01*
X100466703Y-78461486D01*
G37*
G36*
X140466703Y-72461486D02*
G01*
X140757883Y-72582097D01*
X141019940Y-72757198D01*
X141242802Y-72980060D01*
X141417903Y-73242117D01*
X141538514Y-73533297D01*
X141600000Y-73842412D01*
X141600000Y-74157588D01*
X141538514Y-74466703D01*
X141417903Y-74757883D01*
X141242802Y-75019940D01*
X141019940Y-75242802D01*
X140757883Y-75417903D01*
X140466703Y-75538514D01*
X140157588Y-75600000D01*
X139842412Y-75600000D01*
X139533297Y-75538514D01*
X139242117Y-75417903D01*
X138980060Y-75242802D01*
X138757198Y-75019940D01*
X138582097Y-74757883D01*
X138461486Y-74466703D01*
X138400000Y-74157588D01*
X138400000Y-73842412D01*
X138461486Y-73533297D01*
X138582097Y-73242117D01*
X138757198Y-72980060D01*
X138980060Y-72757198D01*
X139242117Y-72582097D01*
X139533297Y-72461486D01*
X139842412Y-72400000D01*
X140157588Y-72400000D01*
X140466703Y-72461486D01*
G37*
G36*
X60466703Y-72461486D02*
G01*
X60757883Y-72582097D01*
X61019940Y-72757198D01*
X61242802Y-72980060D01*
X61417903Y-73242117D01*
X61538514Y-73533297D01*
X61600000Y-73842412D01*
X61600000Y-74157588D01*
X61538514Y-74466703D01*
X61417903Y-74757883D01*
X61242802Y-75019940D01*
X61019940Y-75242802D01*
X60757883Y-75417903D01*
X60466703Y-75538514D01*
X60157588Y-75600000D01*
X59842412Y-75600000D01*
X59533297Y-75538514D01*
X59242117Y-75417903D01*
X58980060Y-75242802D01*
X58757198Y-75019940D01*
X58582097Y-74757883D01*
X58461486Y-74466703D01*
X58400000Y-74157588D01*
X58400000Y-73842412D01*
X58461486Y-73533297D01*
X58582097Y-73242117D01*
X58757198Y-72980060D01*
X58980060Y-72757198D01*
X59242117Y-72582097D01*
X59533297Y-72461486D01*
X59842412Y-72400000D01*
X60157588Y-72400000D01*
X60466703Y-72461486D01*
G37*
G36*
X63762520Y-67714586D02*
G01*
X63926310Y-67782430D01*
X64073717Y-67880924D01*
X64199076Y-68006283D01*
X64297570Y-68153690D01*
X64365414Y-68317480D01*
X64400000Y-68491358D01*
X64400000Y-68668642D01*
X64365414Y-68842520D01*
X64297570Y-69006310D01*
X64199076Y-69153717D01*
X64073717Y-69279076D01*
X63926310Y-69377570D01*
X63926309Y-69377571D01*
X63926308Y-69377571D01*
X63762520Y-69445414D01*
X63588644Y-69480000D01*
X63411356Y-69480000D01*
X63237480Y-69445414D01*
X63073692Y-69377571D01*
X63073691Y-69377571D01*
X63073690Y-69377570D01*
X62926283Y-69279076D01*
X62800924Y-69153717D01*
X62702430Y-69006310D01*
X62634586Y-68842520D01*
X62600000Y-68668642D01*
X62600000Y-68491358D01*
X62634586Y-68317480D01*
X62702430Y-68153690D01*
X62800924Y-68006283D01*
X62926283Y-67880924D01*
X63073690Y-67782430D01*
X63237480Y-67714586D01*
X63411356Y-67680000D01*
X63588644Y-67680000D01*
X63762520Y-67714586D01*
G37*
G36*
X84002520Y-67714586D02*
G01*
X84166310Y-67782430D01*
X84313717Y-67880924D01*
X84439076Y-68006283D01*
X84537570Y-68153690D01*
X84605414Y-68317480D01*
X84640000Y-68491358D01*
X84640000Y-68668642D01*
X84605414Y-68842520D01*
X84537570Y-69006310D01*
X84439076Y-69153717D01*
X84313717Y-69279076D01*
X84166310Y-69377570D01*
X84166309Y-69377571D01*
X84166308Y-69377571D01*
X84002520Y-69445414D01*
X83828644Y-69480000D01*
X83651356Y-69480000D01*
X83477480Y-69445414D01*
X83313692Y-69377571D01*
X83313691Y-69377571D01*
X83313690Y-69377570D01*
X83166283Y-69279076D01*
X83040924Y-69153717D01*
X82942430Y-69006310D01*
X82874586Y-68842520D01*
X82840000Y-68668642D01*
X82840000Y-68491358D01*
X82874586Y-68317480D01*
X82942430Y-68153690D01*
X83040924Y-68006283D01*
X83166283Y-67880924D01*
X83313690Y-67782430D01*
X83477480Y-67714586D01*
X83651356Y-67680000D01*
X83828644Y-67680000D01*
X84002520Y-67714586D01*
G37*
G36*
X81502520Y-67714586D02*
G01*
X81666310Y-67782430D01*
X81813717Y-67880924D01*
X81939076Y-68006283D01*
X82037570Y-68153690D01*
X82105414Y-68317480D01*
X82140000Y-68491358D01*
X82140000Y-68668642D01*
X82105414Y-68842520D01*
X82037570Y-69006310D01*
X81939076Y-69153717D01*
X81813717Y-69279076D01*
X81666310Y-69377570D01*
X81666309Y-69377571D01*
X81666308Y-69377571D01*
X81502520Y-69445414D01*
X81328644Y-69480000D01*
X81151356Y-69480000D01*
X80977480Y-69445414D01*
X80813692Y-69377571D01*
X80813691Y-69377571D01*
X80813690Y-69377570D01*
X80666283Y-69279076D01*
X80540924Y-69153717D01*
X80442430Y-69006310D01*
X80374586Y-68842520D01*
X80340000Y-68668642D01*
X80340000Y-68491358D01*
X80374586Y-68317480D01*
X80442430Y-68153690D01*
X80540924Y-68006283D01*
X80666283Y-67880924D01*
X80813690Y-67782430D01*
X80977480Y-67714586D01*
X81151356Y-67680000D01*
X81328644Y-67680000D01*
X81502520Y-67714586D01*
G37*
G36*
X68762520Y-67714586D02*
G01*
X68926310Y-67782430D01*
X69073717Y-67880924D01*
X69199076Y-68006283D01*
X69297570Y-68153690D01*
X69365414Y-68317480D01*
X69400000Y-68491358D01*
X69400000Y-68668642D01*
X69365414Y-68842520D01*
X69297570Y-69006310D01*
X69199076Y-69153717D01*
X69073717Y-69279076D01*
X68926310Y-69377570D01*
X68926309Y-69377571D01*
X68926308Y-69377571D01*
X68762520Y-69445414D01*
X68588644Y-69480000D01*
X68411356Y-69480000D01*
X68237480Y-69445414D01*
X68073692Y-69377571D01*
X68073691Y-69377571D01*
X68073690Y-69377570D01*
X67926283Y-69279076D01*
X67800924Y-69153717D01*
X67702430Y-69006310D01*
X67634586Y-68842520D01*
X67600000Y-68668642D01*
X67600000Y-68491358D01*
X67634586Y-68317480D01*
X67702430Y-68153690D01*
X67800924Y-68006283D01*
X67926283Y-67880924D01*
X68073690Y-67782430D01*
X68237480Y-67714586D01*
X68411356Y-67680000D01*
X68588644Y-67680000D01*
X68762520Y-67714586D01*
G37*
G36*
X66262520Y-67714586D02*
G01*
X66426310Y-67782430D01*
X66573717Y-67880924D01*
X66699076Y-68006283D01*
X66797570Y-68153690D01*
X66865414Y-68317480D01*
X66900000Y-68491358D01*
X66900000Y-68668642D01*
X66865414Y-68842520D01*
X66797570Y-69006310D01*
X66699076Y-69153717D01*
X66573717Y-69279076D01*
X66426310Y-69377570D01*
X66426309Y-69377571D01*
X66426308Y-69377571D01*
X66262520Y-69445414D01*
X66088644Y-69480000D01*
X65911356Y-69480000D01*
X65737480Y-69445414D01*
X65573692Y-69377571D01*
X65573691Y-69377571D01*
X65573690Y-69377570D01*
X65426283Y-69279076D01*
X65300924Y-69153717D01*
X65202430Y-69006310D01*
X65134586Y-68842520D01*
X65100000Y-68668642D01*
X65100000Y-68491358D01*
X65134586Y-68317480D01*
X65202430Y-68153690D01*
X65300924Y-68006283D01*
X65426283Y-67880924D01*
X65573690Y-67782430D01*
X65737480Y-67714586D01*
X65911356Y-67680000D01*
X66088644Y-67680000D01*
X66262520Y-67714586D01*
G37*
G36*
X79002520Y-67714586D02*
G01*
X79166310Y-67782430D01*
X79313717Y-67880924D01*
X79439076Y-68006283D01*
X79537570Y-68153690D01*
X79605414Y-68317480D01*
X79640000Y-68491358D01*
X79640000Y-68668642D01*
X79605414Y-68842520D01*
X79537570Y-69006310D01*
X79439076Y-69153717D01*
X79313717Y-69279076D01*
X79166310Y-69377570D01*
X79166309Y-69377571D01*
X79166308Y-69377571D01*
X79002520Y-69445414D01*
X78828644Y-69480000D01*
X78651356Y-69480000D01*
X78477480Y-69445414D01*
X78313692Y-69377571D01*
X78313691Y-69377571D01*
X78313690Y-69377570D01*
X78166283Y-69279076D01*
X78040924Y-69153717D01*
X77942430Y-69006310D01*
X77874586Y-68842520D01*
X77840000Y-68668642D01*
X77840000Y-68491358D01*
X77874586Y-68317480D01*
X77942430Y-68153690D01*
X78040924Y-68006283D01*
X78166283Y-67880924D01*
X78313690Y-67782430D01*
X78477480Y-67714586D01*
X78651356Y-67680000D01*
X78828644Y-67680000D01*
X79002520Y-67714586D01*
G37*
G36*
X132342520Y-67714586D02*
G01*
X132506310Y-67782430D01*
X132653717Y-67880924D01*
X132779076Y-68006283D01*
X132877570Y-68153690D01*
X132945414Y-68317480D01*
X132980000Y-68491358D01*
X132980000Y-68668642D01*
X132945414Y-68842520D01*
X132877570Y-69006310D01*
X132779076Y-69153717D01*
X132653717Y-69279076D01*
X132506310Y-69377570D01*
X132506309Y-69377571D01*
X132506308Y-69377571D01*
X132342520Y-69445414D01*
X132168644Y-69480000D01*
X131991356Y-69480000D01*
X131817480Y-69445414D01*
X131653692Y-69377571D01*
X131653691Y-69377571D01*
X131653690Y-69377570D01*
X131506283Y-69279076D01*
X131380924Y-69153717D01*
X131282430Y-69006310D01*
X131214586Y-68842520D01*
X131180000Y-68668642D01*
X131180000Y-68491358D01*
X131214586Y-68317480D01*
X131282430Y-68153690D01*
X131380924Y-68006283D01*
X131506283Y-67880924D01*
X131653690Y-67782430D01*
X131817480Y-67714586D01*
X131991356Y-67680000D01*
X132168644Y-67680000D01*
X132342520Y-67714586D01*
G37*
G36*
X134842520Y-67714586D02*
G01*
X135006310Y-67782430D01*
X135153717Y-67880924D01*
X135279076Y-68006283D01*
X135377570Y-68153690D01*
X135445414Y-68317480D01*
X135480000Y-68491358D01*
X135480000Y-68668642D01*
X135445414Y-68842520D01*
X135377570Y-69006310D01*
X135279076Y-69153717D01*
X135153717Y-69279076D01*
X135006310Y-69377570D01*
X135006309Y-69377571D01*
X135006308Y-69377571D01*
X134842520Y-69445414D01*
X134668644Y-69480000D01*
X134491356Y-69480000D01*
X134317480Y-69445414D01*
X134153692Y-69377571D01*
X134153691Y-69377571D01*
X134153690Y-69377570D01*
X134006283Y-69279076D01*
X133880924Y-69153717D01*
X133782430Y-69006310D01*
X133714586Y-68842520D01*
X133680000Y-68668642D01*
X133680000Y-68491358D01*
X133714586Y-68317480D01*
X133782430Y-68153690D01*
X133880924Y-68006283D01*
X134006283Y-67880924D01*
X134153690Y-67782430D01*
X134317480Y-67714586D01*
X134491356Y-67680000D01*
X134668644Y-67680000D01*
X134842520Y-67714586D01*
G37*
G36*
X137342520Y-67714586D02*
G01*
X137506310Y-67782430D01*
X137653717Y-67880924D01*
X137779076Y-68006283D01*
X137877570Y-68153690D01*
X137945414Y-68317480D01*
X137980000Y-68491358D01*
X137980000Y-68668642D01*
X137945414Y-68842520D01*
X137877570Y-69006310D01*
X137779076Y-69153717D01*
X137653717Y-69279076D01*
X137506310Y-69377570D01*
X137506309Y-69377571D01*
X137506308Y-69377571D01*
X137342520Y-69445414D01*
X137168644Y-69480000D01*
X136991356Y-69480000D01*
X136817480Y-69445414D01*
X136653692Y-69377571D01*
X136653691Y-69377571D01*
X136653690Y-69377570D01*
X136506283Y-69279076D01*
X136380924Y-69153717D01*
X136282430Y-69006310D01*
X136214586Y-68842520D01*
X136180000Y-68668642D01*
X136180000Y-68491358D01*
X136214586Y-68317480D01*
X136282430Y-68153690D01*
X136380924Y-68006283D01*
X136506283Y-67880924D01*
X136653690Y-67782430D01*
X136817480Y-67714586D01*
X136991356Y-67680000D01*
X137168644Y-67680000D01*
X137342520Y-67714586D01*
G37*
G36*
X117102520Y-67714586D02*
G01*
X117266310Y-67782430D01*
X117413717Y-67880924D01*
X117539076Y-68006283D01*
X117637570Y-68153690D01*
X117705414Y-68317480D01*
X117740000Y-68491358D01*
X117740000Y-68668642D01*
X117705414Y-68842520D01*
X117637570Y-69006310D01*
X117539076Y-69153717D01*
X117413717Y-69279076D01*
X117266310Y-69377570D01*
X117266309Y-69377571D01*
X117266308Y-69377571D01*
X117102520Y-69445414D01*
X116928644Y-69480000D01*
X116751356Y-69480000D01*
X116577480Y-69445414D01*
X116413692Y-69377571D01*
X116413691Y-69377571D01*
X116413690Y-69377570D01*
X116266283Y-69279076D01*
X116140924Y-69153717D01*
X116042430Y-69006310D01*
X115974586Y-68842520D01*
X115940000Y-68668642D01*
X115940000Y-68491358D01*
X115974586Y-68317480D01*
X116042430Y-68153690D01*
X116140924Y-68006283D01*
X116266283Y-67880924D01*
X116413690Y-67782430D01*
X116577480Y-67714586D01*
X116751356Y-67680000D01*
X116928644Y-67680000D01*
X117102520Y-67714586D01*
G37*
G36*
X119602520Y-67714586D02*
G01*
X119766310Y-67782430D01*
X119913717Y-67880924D01*
X120039076Y-68006283D01*
X120137570Y-68153690D01*
X120205414Y-68317480D01*
X120240000Y-68491358D01*
X120240000Y-68668642D01*
X120205414Y-68842520D01*
X120137570Y-69006310D01*
X120039076Y-69153717D01*
X119913717Y-69279076D01*
X119766310Y-69377570D01*
X119766309Y-69377571D01*
X119766308Y-69377571D01*
X119602520Y-69445414D01*
X119428644Y-69480000D01*
X119251356Y-69480000D01*
X119077480Y-69445414D01*
X118913692Y-69377571D01*
X118913691Y-69377571D01*
X118913690Y-69377570D01*
X118766283Y-69279076D01*
X118640924Y-69153717D01*
X118542430Y-69006310D01*
X118474586Y-68842520D01*
X118440000Y-68668642D01*
X118440000Y-68491358D01*
X118474586Y-68317480D01*
X118542430Y-68153690D01*
X118640924Y-68006283D01*
X118766283Y-67880924D01*
X118913690Y-67782430D01*
X119077480Y-67714586D01*
X119251356Y-67680000D01*
X119428644Y-67680000D01*
X119602520Y-67714586D01*
G37*
G36*
X122102520Y-67714586D02*
G01*
X122266310Y-67782430D01*
X122413717Y-67880924D01*
X122539076Y-68006283D01*
X122637570Y-68153690D01*
X122705414Y-68317480D01*
X122740000Y-68491358D01*
X122740000Y-68668642D01*
X122705414Y-68842520D01*
X122637570Y-69006310D01*
X122539076Y-69153717D01*
X122413717Y-69279076D01*
X122266310Y-69377570D01*
X122266309Y-69377571D01*
X122266308Y-69377571D01*
X122102520Y-69445414D01*
X121928644Y-69480000D01*
X121751356Y-69480000D01*
X121577480Y-69445414D01*
X121413692Y-69377571D01*
X121413691Y-69377571D01*
X121413690Y-69377570D01*
X121266283Y-69279076D01*
X121140924Y-69153717D01*
X121042430Y-69006310D01*
X120974586Y-68842520D01*
X120940000Y-68668642D01*
X120940000Y-68491358D01*
X120974586Y-68317480D01*
X121042430Y-68153690D01*
X121140924Y-68006283D01*
X121266283Y-67880924D01*
X121413690Y-67782430D01*
X121577480Y-67714586D01*
X121751356Y-67680000D01*
X121928644Y-67680000D01*
X122102520Y-67714586D01*
G37*
G36*
X124323377Y-59671858D02*
G01*
X124651142Y-59807623D01*
X124687355Y-59822623D01*
X124852251Y-59932803D01*
X124992476Y-60026498D01*
X125014926Y-60041499D01*
X125293501Y-60320074D01*
X125502356Y-60632647D01*
X125512378Y-60647647D01*
X125663142Y-61011623D01*
X125740000Y-61398016D01*
X125740000Y-61791984D01*
X125663142Y-62178377D01*
X125512378Y-62542353D01*
X125303525Y-62854925D01*
X125293501Y-62869926D01*
X125014926Y-63148501D01*
X124687355Y-63367377D01*
X124687354Y-63367378D01*
X124687353Y-63367378D01*
X124323377Y-63518142D01*
X123936984Y-63595000D01*
X123543016Y-63595000D01*
X123156623Y-63518142D01*
X122792647Y-63367378D01*
X122792646Y-63367378D01*
X122792645Y-63367377D01*
X122465074Y-63148501D01*
X122186499Y-62869926D01*
X122176476Y-62854925D01*
X121967622Y-62542353D01*
X121816858Y-62178377D01*
X121740000Y-61791984D01*
X121740000Y-61398016D01*
X121816858Y-61011623D01*
X121967622Y-60647647D01*
X121977645Y-60632647D01*
X122186499Y-60320074D01*
X122465074Y-60041499D01*
X122487525Y-60026498D01*
X122627749Y-59932803D01*
X122792645Y-59822623D01*
X122828858Y-59807623D01*
X123156623Y-59671858D01*
X123543016Y-59595000D01*
X123936984Y-59595000D01*
X124323377Y-59671858D01*
G37*
G36*
X86223377Y-59671858D02*
G01*
X86551142Y-59807623D01*
X86587355Y-59822623D01*
X86752251Y-59932803D01*
X86892476Y-60026498D01*
X86914926Y-60041499D01*
X87193501Y-60320074D01*
X87402356Y-60632647D01*
X87412378Y-60647647D01*
X87563142Y-61011623D01*
X87640000Y-61398016D01*
X87640000Y-61791984D01*
X87563142Y-62178377D01*
X87412378Y-62542353D01*
X87203525Y-62854925D01*
X87193501Y-62869926D01*
X86914926Y-63148501D01*
X86587355Y-63367377D01*
X86587354Y-63367378D01*
X86587353Y-63367378D01*
X86223377Y-63518142D01*
X85836984Y-63595000D01*
X85443016Y-63595000D01*
X85056623Y-63518142D01*
X84692647Y-63367378D01*
X84692646Y-63367378D01*
X84692645Y-63367377D01*
X84365074Y-63148501D01*
X84086499Y-62869926D01*
X84076476Y-62854925D01*
X83867622Y-62542353D01*
X83716858Y-62178377D01*
X83640000Y-61791984D01*
X83640000Y-61398016D01*
X83716858Y-61011623D01*
X83867622Y-60647647D01*
X83877645Y-60632647D01*
X84086499Y-60320074D01*
X84365074Y-60041499D01*
X84387525Y-60026498D01*
X84527749Y-59932803D01*
X84692645Y-59822623D01*
X84728858Y-59807623D01*
X85056623Y-59671858D01*
X85443016Y-59595000D01*
X85836984Y-59595000D01*
X86223377Y-59671858D01*
G37*
G36*
X70983377Y-59671858D02*
G01*
X71311142Y-59807623D01*
X71347355Y-59822623D01*
X71512251Y-59932803D01*
X71652476Y-60026498D01*
X71674926Y-60041499D01*
X71953501Y-60320074D01*
X72162356Y-60632647D01*
X72172378Y-60647647D01*
X72323142Y-61011623D01*
X72400000Y-61398016D01*
X72400000Y-61791984D01*
X72323142Y-62178377D01*
X72172378Y-62542353D01*
X71963525Y-62854925D01*
X71953501Y-62869926D01*
X71674926Y-63148501D01*
X71347355Y-63367377D01*
X71347354Y-63367378D01*
X71347353Y-63367378D01*
X70983377Y-63518142D01*
X70596984Y-63595000D01*
X70203016Y-63595000D01*
X69816623Y-63518142D01*
X69452647Y-63367378D01*
X69452646Y-63367378D01*
X69452645Y-63367377D01*
X69125074Y-63148501D01*
X68846499Y-62869926D01*
X68836476Y-62854925D01*
X68627622Y-62542353D01*
X68476858Y-62178377D01*
X68400000Y-61791984D01*
X68400000Y-61398016D01*
X68476858Y-61011623D01*
X68627622Y-60647647D01*
X68637645Y-60632647D01*
X68846499Y-60320074D01*
X69125074Y-60041499D01*
X69147525Y-60026498D01*
X69287749Y-59932803D01*
X69452645Y-59822623D01*
X69488858Y-59807623D01*
X69816623Y-59671858D01*
X70203016Y-59595000D01*
X70596984Y-59595000D01*
X70983377Y-59671858D01*
G37*
G36*
X139563377Y-59671858D02*
G01*
X139891142Y-59807623D01*
X139927355Y-59822623D01*
X140092251Y-59932803D01*
X140232476Y-60026498D01*
X140254926Y-60041499D01*
X140533501Y-60320074D01*
X140742356Y-60632647D01*
X140752378Y-60647647D01*
X140903142Y-61011623D01*
X140980000Y-61398016D01*
X140980000Y-61791984D01*
X140903142Y-62178377D01*
X140752378Y-62542353D01*
X140543525Y-62854925D01*
X140533501Y-62869926D01*
X140254926Y-63148501D01*
X139927355Y-63367377D01*
X139927354Y-63367378D01*
X139927353Y-63367378D01*
X139563377Y-63518142D01*
X139176984Y-63595000D01*
X138783016Y-63595000D01*
X138396623Y-63518142D01*
X138032647Y-63367378D01*
X138032646Y-63367378D01*
X138032645Y-63367377D01*
X137705074Y-63148501D01*
X137426499Y-62869926D01*
X137416476Y-62854925D01*
X137207622Y-62542353D01*
X137056858Y-62178377D01*
X136980000Y-61791984D01*
X136980000Y-61398016D01*
X137056858Y-61011623D01*
X137207622Y-60647647D01*
X137217645Y-60632647D01*
X137426499Y-60320074D01*
X137705074Y-60041499D01*
X137727525Y-60026498D01*
X137867749Y-59932803D01*
X138032645Y-59822623D01*
X138068858Y-59807623D01*
X138396623Y-59671858D01*
X138783016Y-59595000D01*
X139176984Y-59595000D01*
X139563377Y-59671858D01*
G37*
G36*
X62183377Y-59656858D02*
G01*
X62547353Y-59807622D01*
X62547355Y-59807623D01*
X62569804Y-59822623D01*
X62874925Y-60026498D01*
X63153502Y-60305075D01*
X63372378Y-60632647D01*
X63523142Y-60996623D01*
X63600000Y-61383016D01*
X63600000Y-61776984D01*
X63523142Y-62163377D01*
X63516928Y-62178378D01*
X63372377Y-62527355D01*
X63362354Y-62542355D01*
X63153502Y-62854925D01*
X62874925Y-63133502D01*
X62712251Y-63242197D01*
X62547355Y-63352377D01*
X62547354Y-63352378D01*
X62547353Y-63352378D01*
X62183377Y-63503142D01*
X61796984Y-63580000D01*
X61403016Y-63580000D01*
X61016623Y-63503142D01*
X60652647Y-63352378D01*
X60652646Y-63352378D01*
X60652645Y-63352377D01*
X60487749Y-63242197D01*
X60325075Y-63133502D01*
X60046498Y-62854925D01*
X59837646Y-62542355D01*
X59827623Y-62527355D01*
X59683072Y-62178378D01*
X59676858Y-62163377D01*
X59600000Y-61776984D01*
X59600000Y-61383016D01*
X59676858Y-60996623D01*
X59827622Y-60632647D01*
X60046498Y-60305075D01*
X60325075Y-60026498D01*
X60630196Y-59822623D01*
X60652645Y-59807623D01*
X60652647Y-59807622D01*
X61016623Y-59656858D01*
X61403016Y-59580000D01*
X61796984Y-59580000D01*
X62183377Y-59656858D01*
G37*
G36*
X130763377Y-59656858D02*
G01*
X131127353Y-59807622D01*
X131127355Y-59807623D01*
X131149804Y-59822623D01*
X131454925Y-60026498D01*
X131733502Y-60305075D01*
X131952378Y-60632647D01*
X132103142Y-60996623D01*
X132180000Y-61383016D01*
X132180000Y-61776984D01*
X132103142Y-62163377D01*
X132096928Y-62178378D01*
X131952377Y-62527355D01*
X131942354Y-62542355D01*
X131733502Y-62854925D01*
X131454925Y-63133502D01*
X131292251Y-63242197D01*
X131127355Y-63352377D01*
X131127354Y-63352378D01*
X131127353Y-63352378D01*
X130763377Y-63503142D01*
X130376984Y-63580000D01*
X129983016Y-63580000D01*
X129596623Y-63503142D01*
X129232647Y-63352378D01*
X129232646Y-63352378D01*
X129232645Y-63352377D01*
X129067749Y-63242197D01*
X128905075Y-63133502D01*
X128626498Y-62854925D01*
X128417646Y-62542355D01*
X128407623Y-62527355D01*
X128263072Y-62178378D01*
X128256858Y-62163377D01*
X128180000Y-61776984D01*
X128180000Y-61383016D01*
X128256858Y-60996623D01*
X128407622Y-60632647D01*
X128626498Y-60305075D01*
X128905075Y-60026498D01*
X129210196Y-59822623D01*
X129232645Y-59807623D01*
X129232647Y-59807622D01*
X129596623Y-59656858D01*
X129983016Y-59580000D01*
X130376984Y-59580000D01*
X130763377Y-59656858D01*
G37*
G36*
X77423377Y-59656858D02*
G01*
X77787353Y-59807622D01*
X77787355Y-59807623D01*
X77809804Y-59822623D01*
X78114925Y-60026498D01*
X78393502Y-60305075D01*
X78612378Y-60632647D01*
X78763142Y-60996623D01*
X78840000Y-61383016D01*
X78840000Y-61776984D01*
X78763142Y-62163377D01*
X78756928Y-62178378D01*
X78612377Y-62527355D01*
X78602354Y-62542355D01*
X78393502Y-62854925D01*
X78114925Y-63133502D01*
X77952251Y-63242197D01*
X77787355Y-63352377D01*
X77787354Y-63352378D01*
X77787353Y-63352378D01*
X77423377Y-63503142D01*
X77036984Y-63580000D01*
X76643016Y-63580000D01*
X76256623Y-63503142D01*
X75892647Y-63352378D01*
X75892646Y-63352378D01*
X75892645Y-63352377D01*
X75727749Y-63242197D01*
X75565075Y-63133502D01*
X75286498Y-62854925D01*
X75077646Y-62542355D01*
X75067623Y-62527355D01*
X74923072Y-62178378D01*
X74916858Y-62163377D01*
X74840000Y-61776984D01*
X74840000Y-61383016D01*
X74916858Y-60996623D01*
X75067622Y-60632647D01*
X75286498Y-60305075D01*
X75565075Y-60026498D01*
X75870196Y-59822623D01*
X75892645Y-59807623D01*
X75892647Y-59807622D01*
X76256623Y-59656858D01*
X76643016Y-59580000D01*
X77036984Y-59580000D01*
X77423377Y-59656858D01*
G37*
G36*
X115523377Y-59656858D02*
G01*
X115887353Y-59807622D01*
X115887355Y-59807623D01*
X115909804Y-59822623D01*
X116214925Y-60026498D01*
X116493502Y-60305075D01*
X116712378Y-60632647D01*
X116863142Y-60996623D01*
X116940000Y-61383016D01*
X116940000Y-61776984D01*
X116863142Y-62163377D01*
X116856928Y-62178378D01*
X116712377Y-62527355D01*
X116702354Y-62542355D01*
X116493502Y-62854925D01*
X116214925Y-63133502D01*
X116052251Y-63242197D01*
X115887355Y-63352377D01*
X115887354Y-63352378D01*
X115887353Y-63352378D01*
X115523377Y-63503142D01*
X115136984Y-63580000D01*
X114743016Y-63580000D01*
X114356623Y-63503142D01*
X113992647Y-63352378D01*
X113992646Y-63352378D01*
X113992645Y-63352377D01*
X113827749Y-63242197D01*
X113665075Y-63133502D01*
X113386498Y-62854925D01*
X113177646Y-62542355D01*
X113167623Y-62527355D01*
X113023072Y-62178378D01*
X113016858Y-62163377D01*
X112940000Y-61776984D01*
X112940000Y-61383016D01*
X113016858Y-60996623D01*
X113167622Y-60632647D01*
X113386498Y-60305075D01*
X113665075Y-60026498D01*
X113970196Y-59822623D01*
X113992645Y-59807623D01*
X113992647Y-59807622D01*
X114356623Y-59656858D01*
X114743016Y-59580000D01*
X115136984Y-59580000D01*
X115523377Y-59656858D01*
G37*
G36*
X100466703Y-48461486D02*
G01*
X100757883Y-48582097D01*
X101019940Y-48757198D01*
X101242802Y-48980060D01*
X101417903Y-49242117D01*
X101538514Y-49533297D01*
X101600000Y-49842412D01*
X101600000Y-50157588D01*
X101538514Y-50466703D01*
X101417903Y-50757883D01*
X101242802Y-51019940D01*
X101019940Y-51242802D01*
X100757883Y-51417903D01*
X100466703Y-51538514D01*
X100157588Y-51600000D01*
X99842412Y-51600000D01*
X99533297Y-51538514D01*
X99242117Y-51417903D01*
X98980060Y-51242802D01*
X98757198Y-51019940D01*
X98582097Y-50757883D01*
X98461486Y-50466703D01*
X98400000Y-50157588D01*
X98400000Y-49842412D01*
X98461486Y-49533297D01*
X98582097Y-49242117D01*
X98757198Y-48980060D01*
X98980060Y-48757198D01*
X99242117Y-48582097D01*
X99533297Y-48461486D01*
X99842412Y-48400000D01*
X100157588Y-48400000D01*
X100466703Y-48461486D01*
G37*
G36*
X111802520Y-49134586D02*
G01*
X111966310Y-49202430D01*
X112113717Y-49300924D01*
X112239076Y-49426283D01*
X112310580Y-49533297D01*
X112337571Y-49573692D01*
X112405414Y-49737480D01*
X112440000Y-49911356D01*
X112440000Y-50088644D01*
X112426286Y-50157588D01*
X112405414Y-50262520D01*
X112337570Y-50426310D01*
X112239076Y-50573717D01*
X112113717Y-50699076D01*
X111966310Y-50797570D01*
X111966309Y-50797571D01*
X111966308Y-50797571D01*
X111802520Y-50865414D01*
X111628644Y-50900000D01*
X111451356Y-50900000D01*
X111277480Y-50865414D01*
X111113692Y-50797571D01*
X111113691Y-50797571D01*
X111113690Y-50797570D01*
X110966283Y-50699076D01*
X110840924Y-50573717D01*
X110742430Y-50426310D01*
X110674586Y-50262520D01*
X110653714Y-50157588D01*
X110640000Y-50088644D01*
X110640000Y-49911356D01*
X110674586Y-49737480D01*
X110742429Y-49573692D01*
X110769420Y-49533297D01*
X110840924Y-49426283D01*
X110966283Y-49300924D01*
X111113690Y-49202430D01*
X111277480Y-49134586D01*
X111451356Y-49100000D01*
X111628644Y-49100000D01*
X111802520Y-49134586D01*
G37*
G36*
X89900000Y-50900000D02*
G01*
X88100000Y-50900000D01*
X88100000Y-49100000D01*
X89900000Y-49100000D01*
X89900000Y-50900000D01*
G37*
G36*
X121802520Y-49134586D02*
G01*
X121966310Y-49202430D01*
X122113717Y-49300924D01*
X122239076Y-49426283D01*
X122310580Y-49533297D01*
X122337571Y-49573692D01*
X122405414Y-49737480D01*
X122440000Y-49911356D01*
X122440000Y-50088644D01*
X122426286Y-50157588D01*
X122405414Y-50262520D01*
X122337570Y-50426310D01*
X122239076Y-50573717D01*
X122113717Y-50699076D01*
X121966310Y-50797570D01*
X121966309Y-50797571D01*
X121966308Y-50797571D01*
X121802520Y-50865414D01*
X121628644Y-50900000D01*
X121451356Y-50900000D01*
X121277480Y-50865414D01*
X121113692Y-50797571D01*
X121113691Y-50797571D01*
X121113690Y-50797570D01*
X120966283Y-50699076D01*
X120840924Y-50573717D01*
X120742430Y-50426310D01*
X120674586Y-50262520D01*
X120653714Y-50157588D01*
X120640000Y-50088644D01*
X120640000Y-49911356D01*
X120674586Y-49737480D01*
X120742429Y-49573692D01*
X120769420Y-49533297D01*
X120840924Y-49426283D01*
X120966283Y-49300924D01*
X121113690Y-49202430D01*
X121277480Y-49134586D01*
X121451356Y-49100000D01*
X121628644Y-49100000D01*
X121802520Y-49134586D01*
G37*
G36*
X119900000Y-50900000D02*
G01*
X118100000Y-50900000D01*
X118100000Y-49100000D01*
X119900000Y-49100000D01*
X119900000Y-50900000D01*
G37*
G36*
X79900000Y-50900000D02*
G01*
X78100000Y-50900000D01*
X78100000Y-49100000D01*
X79900000Y-49100000D01*
X79900000Y-50900000D01*
G37*
G36*
X81802520Y-49134586D02*
G01*
X81966310Y-49202430D01*
X82113717Y-49300924D01*
X82239076Y-49426283D01*
X82310580Y-49533297D01*
X82337571Y-49573692D01*
X82405414Y-49737480D01*
X82440000Y-49911356D01*
X82440000Y-50088644D01*
X82426286Y-50157588D01*
X82405414Y-50262520D01*
X82337570Y-50426310D01*
X82239076Y-50573717D01*
X82113717Y-50699076D01*
X81966310Y-50797570D01*
X81966309Y-50797571D01*
X81966308Y-50797571D01*
X81802520Y-50865414D01*
X81628644Y-50900000D01*
X81451356Y-50900000D01*
X81277480Y-50865414D01*
X81113692Y-50797571D01*
X81113691Y-50797571D01*
X81113690Y-50797570D01*
X80966283Y-50699076D01*
X80840924Y-50573717D01*
X80742430Y-50426310D01*
X80674586Y-50262520D01*
X80653714Y-50157588D01*
X80640000Y-50088644D01*
X80640000Y-49911356D01*
X80674586Y-49737480D01*
X80742429Y-49573692D01*
X80769420Y-49533297D01*
X80840924Y-49426283D01*
X80966283Y-49300924D01*
X81113690Y-49202430D01*
X81277480Y-49134586D01*
X81451356Y-49100000D01*
X81628644Y-49100000D01*
X81802520Y-49134586D01*
G37*
G36*
X71802520Y-49134586D02*
G01*
X71966310Y-49202430D01*
X72113717Y-49300924D01*
X72239076Y-49426283D01*
X72310580Y-49533297D01*
X72337571Y-49573692D01*
X72405414Y-49737480D01*
X72440000Y-49911356D01*
X72440000Y-50088644D01*
X72426286Y-50157588D01*
X72405414Y-50262520D01*
X72337570Y-50426310D01*
X72239076Y-50573717D01*
X72113717Y-50699076D01*
X71966310Y-50797570D01*
X71966309Y-50797571D01*
X71966308Y-50797571D01*
X71802520Y-50865414D01*
X71628644Y-50900000D01*
X71451356Y-50900000D01*
X71277480Y-50865414D01*
X71113692Y-50797571D01*
X71113691Y-50797571D01*
X71113690Y-50797570D01*
X70966283Y-50699076D01*
X70840924Y-50573717D01*
X70742430Y-50426310D01*
X70674586Y-50262520D01*
X70653714Y-50157588D01*
X70640000Y-50088644D01*
X70640000Y-49911356D01*
X70674586Y-49737480D01*
X70742429Y-49573692D01*
X70769420Y-49533297D01*
X70840924Y-49426283D01*
X70966283Y-49300924D01*
X71113690Y-49202430D01*
X71277480Y-49134586D01*
X71451356Y-49100000D01*
X71628644Y-49100000D01*
X71802520Y-49134586D01*
G37*
G36*
X69900000Y-50900000D02*
G01*
X68100000Y-50900000D01*
X68100000Y-49100000D01*
X69900000Y-49100000D01*
X69900000Y-50900000D01*
G37*
G36*
X91802520Y-49134586D02*
G01*
X91966310Y-49202430D01*
X92113717Y-49300924D01*
X92239076Y-49426283D01*
X92310580Y-49533297D01*
X92337571Y-49573692D01*
X92405414Y-49737480D01*
X92440000Y-49911356D01*
X92440000Y-50088644D01*
X92426286Y-50157588D01*
X92405414Y-50262520D01*
X92337570Y-50426310D01*
X92239076Y-50573717D01*
X92113717Y-50699076D01*
X91966310Y-50797570D01*
X91966309Y-50797571D01*
X91966308Y-50797571D01*
X91802520Y-50865414D01*
X91628644Y-50900000D01*
X91451356Y-50900000D01*
X91277480Y-50865414D01*
X91113692Y-50797571D01*
X91113691Y-50797571D01*
X91113690Y-50797570D01*
X90966283Y-50699076D01*
X90840924Y-50573717D01*
X90742430Y-50426310D01*
X90674586Y-50262520D01*
X90653714Y-50157588D01*
X90640000Y-50088644D01*
X90640000Y-49911356D01*
X90674586Y-49737480D01*
X90742429Y-49573692D01*
X90769420Y-49533297D01*
X90840924Y-49426283D01*
X90966283Y-49300924D01*
X91113690Y-49202430D01*
X91277480Y-49134586D01*
X91451356Y-49100000D01*
X91628644Y-49100000D01*
X91802520Y-49134586D01*
G37*
G36*
X131802520Y-49134586D02*
G01*
X131966310Y-49202430D01*
X132113717Y-49300924D01*
X132239076Y-49426283D01*
X132310580Y-49533297D01*
X132337571Y-49573692D01*
X132405414Y-49737480D01*
X132440000Y-49911356D01*
X132440000Y-50088644D01*
X132426286Y-50157588D01*
X132405414Y-50262520D01*
X132337570Y-50426310D01*
X132239076Y-50573717D01*
X132113717Y-50699076D01*
X131966310Y-50797570D01*
X131966309Y-50797571D01*
X131966308Y-50797571D01*
X131802520Y-50865414D01*
X131628644Y-50900000D01*
X131451356Y-50900000D01*
X131277480Y-50865414D01*
X131113692Y-50797571D01*
X131113691Y-50797571D01*
X131113690Y-50797570D01*
X130966283Y-50699076D01*
X130840924Y-50573717D01*
X130742430Y-50426310D01*
X130674586Y-50262520D01*
X130653714Y-50157588D01*
X130640000Y-50088644D01*
X130640000Y-49911356D01*
X130674586Y-49737480D01*
X130742429Y-49573692D01*
X130769420Y-49533297D01*
X130840924Y-49426283D01*
X130966283Y-49300924D01*
X131113690Y-49202430D01*
X131277480Y-49134586D01*
X131451356Y-49100000D01*
X131628644Y-49100000D01*
X131802520Y-49134586D01*
G37*
G36*
X129900000Y-50900000D02*
G01*
X128100000Y-50900000D01*
X128100000Y-49100000D01*
X129900000Y-49100000D01*
X129900000Y-50900000D01*
G37*
G36*
X109900000Y-50900000D02*
G01*
X108100000Y-50900000D01*
X108100000Y-49100000D01*
X109900000Y-49100000D01*
X109900000Y-50900000D01*
G37*
G36*
X120262520Y-43134586D02*
G01*
X120426310Y-43202430D01*
X120573717Y-43300924D01*
X120699076Y-43426283D01*
X120797570Y-43573690D01*
X120865414Y-43737480D01*
X120900000Y-43911358D01*
X120900000Y-44088642D01*
X120865414Y-44262520D01*
X120797570Y-44426310D01*
X120699076Y-44573717D01*
X120573717Y-44699076D01*
X120426310Y-44797570D01*
X120426309Y-44797571D01*
X120426308Y-44797571D01*
X120262520Y-44865414D01*
X120088644Y-44900000D01*
X119911356Y-44900000D01*
X119737480Y-44865414D01*
X119573692Y-44797571D01*
X119573691Y-44797571D01*
X119573690Y-44797570D01*
X119426283Y-44699076D01*
X119300924Y-44573717D01*
X119202430Y-44426310D01*
X119134586Y-44262520D01*
X119100000Y-44088642D01*
X119100000Y-43911358D01*
X119134586Y-43737480D01*
X119202430Y-43573690D01*
X119300924Y-43426283D01*
X119426283Y-43300924D01*
X119573690Y-43202430D01*
X119737480Y-43134586D01*
X119911356Y-43100000D01*
X120088644Y-43100000D01*
X120262520Y-43134586D01*
G37*
G36*
X115262520Y-43134586D02*
G01*
X115426310Y-43202430D01*
X115573717Y-43300924D01*
X115699076Y-43426283D01*
X115797570Y-43573690D01*
X115865414Y-43737480D01*
X115900000Y-43911358D01*
X115900000Y-44088642D01*
X115865414Y-44262520D01*
X115797570Y-44426310D01*
X115699076Y-44573717D01*
X115573717Y-44699076D01*
X115426310Y-44797570D01*
X115426309Y-44797571D01*
X115426308Y-44797571D01*
X115262520Y-44865414D01*
X115088644Y-44900000D01*
X114911356Y-44900000D01*
X114737480Y-44865414D01*
X114573692Y-44797571D01*
X114573691Y-44797571D01*
X114573690Y-44797570D01*
X114426283Y-44699076D01*
X114300924Y-44573717D01*
X114202430Y-44426310D01*
X114134586Y-44262520D01*
X114100000Y-44088642D01*
X114100000Y-43911358D01*
X114134586Y-43737480D01*
X114202430Y-43573690D01*
X114300924Y-43426283D01*
X114426283Y-43300924D01*
X114573690Y-43202430D01*
X114737480Y-43134586D01*
X114911356Y-43100000D01*
X115088644Y-43100000D01*
X115262520Y-43134586D01*
G37*
G36*
X117762520Y-43134586D02*
G01*
X117926310Y-43202430D01*
X118073717Y-43300924D01*
X118199076Y-43426283D01*
X118297570Y-43573690D01*
X118365414Y-43737480D01*
X118400000Y-43911358D01*
X118400000Y-44088642D01*
X118365414Y-44262520D01*
X118297570Y-44426310D01*
X118199076Y-44573717D01*
X118073717Y-44699076D01*
X117926310Y-44797570D01*
X117926309Y-44797571D01*
X117926308Y-44797571D01*
X117762520Y-44865414D01*
X117588644Y-44900000D01*
X117411356Y-44900000D01*
X117237480Y-44865414D01*
X117073692Y-44797571D01*
X117073691Y-44797571D01*
X117073690Y-44797570D01*
X116926283Y-44699076D01*
X116800924Y-44573717D01*
X116702430Y-44426310D01*
X116634586Y-44262520D01*
X116600000Y-44088642D01*
X116600000Y-43911358D01*
X116634586Y-43737480D01*
X116702430Y-43573690D01*
X116800924Y-43426283D01*
X116926283Y-43300924D01*
X117073690Y-43202430D01*
X117237480Y-43134586D01*
X117411356Y-43100000D01*
X117588644Y-43100000D01*
X117762520Y-43134586D01*
G37*
G36*
X97671530Y-38672661D02*
G01*
X97836468Y-38722695D01*
X97988476Y-38803944D01*
X98121712Y-38913288D01*
X98231056Y-39046524D01*
X98312305Y-39198532D01*
X98362339Y-39363470D01*
X98375000Y-39492021D01*
X98375000Y-41327979D01*
X98362339Y-41456530D01*
X98312305Y-41621468D01*
X98231056Y-41773476D01*
X98121712Y-41906712D01*
X97988475Y-42016056D01*
X97836467Y-42097305D01*
X97671529Y-42147339D01*
X97500000Y-42164233D01*
X97328470Y-42147339D01*
X97163532Y-42097305D01*
X97011524Y-42016056D01*
X96878288Y-41906712D01*
X96768944Y-41773475D01*
X96687695Y-41621467D01*
X96637661Y-41456529D01*
X96625000Y-41327978D01*
X96625001Y-39492021D01*
X96637662Y-39363470D01*
X96687696Y-39198532D01*
X96768945Y-39046524D01*
X96878289Y-38913288D01*
X97011525Y-38803944D01*
X97163533Y-38722695D01*
X97328471Y-38672661D01*
X97500000Y-38655767D01*
X97671530Y-38672661D01*
G37*
G36*
X95171530Y-38672661D02*
G01*
X95336468Y-38722695D01*
X95488476Y-38803944D01*
X95621712Y-38913288D01*
X95731056Y-39046524D01*
X95812305Y-39198532D01*
X95862339Y-39363470D01*
X95875000Y-39492021D01*
X95875000Y-41327979D01*
X95862339Y-41456530D01*
X95812305Y-41621468D01*
X95731056Y-41773476D01*
X95621712Y-41906712D01*
X95488475Y-42016056D01*
X95336467Y-42097305D01*
X95171529Y-42147339D01*
X95000000Y-42164233D01*
X94828470Y-42147339D01*
X94663532Y-42097305D01*
X94511524Y-42016056D01*
X94378288Y-41906712D01*
X94268944Y-41773475D01*
X94187695Y-41621467D01*
X94137661Y-41456529D01*
X94125000Y-41327978D01*
X94125001Y-39492021D01*
X94137662Y-39363470D01*
X94187696Y-39198532D01*
X94268945Y-39046524D01*
X94378289Y-38913288D01*
X94511525Y-38803944D01*
X94663533Y-38722695D01*
X94828471Y-38672661D01*
X95000000Y-38655767D01*
X95171530Y-38672661D01*
G37*
G36*
X102671530Y-38672661D02*
G01*
X102836468Y-38722695D01*
X102988476Y-38803944D01*
X103121712Y-38913288D01*
X103231056Y-39046524D01*
X103312305Y-39198532D01*
X103362339Y-39363470D01*
X103375000Y-39492021D01*
X103375000Y-41327979D01*
X103362339Y-41456530D01*
X103312305Y-41621468D01*
X103231056Y-41773476D01*
X103121712Y-41906712D01*
X102988475Y-42016056D01*
X102836467Y-42097305D01*
X102671529Y-42147339D01*
X102500000Y-42164233D01*
X102328470Y-42147339D01*
X102163532Y-42097305D01*
X102011524Y-42016056D01*
X101878288Y-41906712D01*
X101768944Y-41773475D01*
X101687695Y-41621467D01*
X101637661Y-41456529D01*
X101625000Y-41327978D01*
X101625001Y-39492021D01*
X101637662Y-39363470D01*
X101687696Y-39198532D01*
X101768945Y-39046524D01*
X101878289Y-38913288D01*
X102011525Y-38803944D01*
X102163533Y-38722695D01*
X102328471Y-38672661D01*
X102500000Y-38655767D01*
X102671530Y-38672661D01*
G37*
G36*
X105171530Y-38672661D02*
G01*
X105336468Y-38722695D01*
X105488476Y-38803944D01*
X105621712Y-38913288D01*
X105731056Y-39046524D01*
X105812305Y-39198532D01*
X105862339Y-39363470D01*
X105875000Y-39492021D01*
X105875000Y-41327979D01*
X105862339Y-41456530D01*
X105812305Y-41621468D01*
X105731056Y-41773476D01*
X105621712Y-41906712D01*
X105488475Y-42016056D01*
X105336467Y-42097305D01*
X105171529Y-42147339D01*
X105000000Y-42164233D01*
X104828470Y-42147339D01*
X104663532Y-42097305D01*
X104511524Y-42016056D01*
X104378288Y-41906712D01*
X104268944Y-41773475D01*
X104187695Y-41621467D01*
X104137661Y-41456529D01*
X104125000Y-41327978D01*
X104125001Y-39492021D01*
X104137662Y-39363470D01*
X104187696Y-39198532D01*
X104268945Y-39046524D01*
X104378289Y-38913288D01*
X104511525Y-38803944D01*
X104663533Y-38722695D01*
X104828471Y-38672661D01*
X105000000Y-38655767D01*
X105171530Y-38672661D01*
G37*
G36*
X75846332Y-38208595D02*
G01*
X76022770Y-38243691D01*
X76355172Y-38381376D01*
X76654326Y-38581265D01*
X76908735Y-38835674D01*
X77108624Y-39134828D01*
X77246309Y-39467230D01*
X77316500Y-39820105D01*
X77316500Y-40179895D01*
X77246309Y-40532770D01*
X77108624Y-40865172D01*
X76908735Y-41164326D01*
X76654326Y-41418735D01*
X76355172Y-41618624D01*
X76022770Y-41756309D01*
X75936470Y-41773475D01*
X75669896Y-41826500D01*
X75310104Y-41826500D01*
X75043530Y-41773475D01*
X74957230Y-41756309D01*
X74624828Y-41618624D01*
X74325674Y-41418735D01*
X74071265Y-41164326D01*
X73871376Y-40865172D01*
X73733691Y-40532770D01*
X73663500Y-40179895D01*
X73663500Y-39820105D01*
X73733691Y-39467230D01*
X73871376Y-39134828D01*
X74071265Y-38835674D01*
X74325674Y-38581265D01*
X74624828Y-38381376D01*
X74957230Y-38243691D01*
X75133668Y-38208595D01*
X75310104Y-38173500D01*
X75669896Y-38173500D01*
X75846332Y-38208595D01*
G37*
G36*
X88346332Y-38208595D02*
G01*
X88522770Y-38243691D01*
X88855172Y-38381376D01*
X89154326Y-38581265D01*
X89408735Y-38835674D01*
X89608624Y-39134828D01*
X89746309Y-39467230D01*
X89816500Y-39820105D01*
X89816500Y-40179895D01*
X89746309Y-40532770D01*
X89608624Y-40865172D01*
X89408735Y-41164326D01*
X89154326Y-41418735D01*
X88855172Y-41618624D01*
X88522770Y-41756309D01*
X88436470Y-41773475D01*
X88169896Y-41826500D01*
X87810104Y-41826500D01*
X87543530Y-41773475D01*
X87457230Y-41756309D01*
X87124828Y-41618624D01*
X86825674Y-41418735D01*
X86571265Y-41164326D01*
X86371376Y-40865172D01*
X86233691Y-40532770D01*
X86163500Y-40179895D01*
X86163500Y-39820105D01*
X86233691Y-39467230D01*
X86371376Y-39134828D01*
X86571265Y-38835674D01*
X86825674Y-38581265D01*
X87124828Y-38381376D01*
X87457230Y-38243691D01*
X87633668Y-38208595D01*
X87810104Y-38173500D01*
X88169896Y-38173500D01*
X88346332Y-38208595D01*
G37*
G36*
X84944182Y-39326900D02*
G01*
X85071573Y-39379667D01*
X85071574Y-39379668D01*
X85186224Y-39456274D01*
X85283726Y-39553776D01*
X85283727Y-39553778D01*
X85360333Y-39668427D01*
X85413100Y-39795818D01*
X85440000Y-39931055D01*
X85440000Y-40068945D01*
X85413100Y-40204182D01*
X85360333Y-40331573D01*
X85360332Y-40331574D01*
X85283726Y-40446224D01*
X85186224Y-40543726D01*
X85128510Y-40582289D01*
X85071573Y-40620333D01*
X84944182Y-40673100D01*
X84808945Y-40700000D01*
X84671055Y-40700000D01*
X84535818Y-40673100D01*
X84408427Y-40620333D01*
X84351490Y-40582289D01*
X84293776Y-40543726D01*
X84196274Y-40446224D01*
X84119668Y-40331574D01*
X84119667Y-40331573D01*
X84066900Y-40204182D01*
X84040000Y-40068945D01*
X84040000Y-39931055D01*
X84066900Y-39795818D01*
X84119667Y-39668427D01*
X84196273Y-39553778D01*
X84196274Y-39553776D01*
X84293776Y-39456274D01*
X84408426Y-39379668D01*
X84408427Y-39379667D01*
X84535818Y-39326900D01*
X84671055Y-39300000D01*
X84808945Y-39300000D01*
X84944182Y-39326900D01*
G37*
G36*
X78944182Y-39326900D02*
G01*
X79071573Y-39379667D01*
X79071574Y-39379668D01*
X79186224Y-39456274D01*
X79283726Y-39553776D01*
X79283727Y-39553778D01*
X79360333Y-39668427D01*
X79413100Y-39795818D01*
X79440000Y-39931055D01*
X79440000Y-40068945D01*
X79413100Y-40204182D01*
X79360333Y-40331573D01*
X79360332Y-40331574D01*
X79283726Y-40446224D01*
X79186224Y-40543726D01*
X79128510Y-40582289D01*
X79071573Y-40620333D01*
X78944182Y-40673100D01*
X78808945Y-40700000D01*
X78671055Y-40700000D01*
X78535818Y-40673100D01*
X78408427Y-40620333D01*
X78351490Y-40582289D01*
X78293776Y-40543726D01*
X78196274Y-40446224D01*
X78119668Y-40331574D01*
X78119667Y-40331573D01*
X78066900Y-40204182D01*
X78040000Y-40068945D01*
X78040000Y-39931055D01*
X78066900Y-39795818D01*
X78119667Y-39668427D01*
X78196273Y-39553778D01*
X78196274Y-39553776D01*
X78293776Y-39456274D01*
X78408426Y-39379668D01*
X78408427Y-39379667D01*
X78535818Y-39326900D01*
X78671055Y-39300000D01*
X78808945Y-39300000D01*
X78944182Y-39326900D01*
G37*
G36*
X81944182Y-39326900D02*
G01*
X82071573Y-39379667D01*
X82071574Y-39379668D01*
X82186224Y-39456274D01*
X82283726Y-39553776D01*
X82283727Y-39553778D01*
X82360333Y-39668427D01*
X82413100Y-39795818D01*
X82440000Y-39931055D01*
X82440000Y-40068945D01*
X82413100Y-40204182D01*
X82360333Y-40331573D01*
X82360332Y-40331574D01*
X82283726Y-40446224D01*
X82186224Y-40543726D01*
X82128510Y-40582289D01*
X82071573Y-40620333D01*
X81944182Y-40673100D01*
X81808945Y-40700000D01*
X81671055Y-40700000D01*
X81535818Y-40673100D01*
X81408427Y-40620333D01*
X81351490Y-40582289D01*
X81293776Y-40543726D01*
X81196274Y-40446224D01*
X81119668Y-40331574D01*
X81119667Y-40331573D01*
X81066900Y-40204182D01*
X81040000Y-40068945D01*
X81040000Y-39931055D01*
X81066900Y-39795818D01*
X81119667Y-39668427D01*
X81196273Y-39553778D01*
X81196274Y-39553776D01*
X81293776Y-39456274D01*
X81408426Y-39379668D01*
X81408427Y-39379667D01*
X81535818Y-39326900D01*
X81671055Y-39300000D01*
X81808945Y-39300000D01*
X81944182Y-39326900D01*
G37*
G36*
X122483377Y-35091858D02*
G01*
X122811142Y-35227623D01*
X122847355Y-35242623D01*
X123012251Y-35352803D01*
X123174925Y-35461498D01*
X123453502Y-35740075D01*
X123562197Y-35902749D01*
X123662356Y-36052647D01*
X123672378Y-36067647D01*
X123823142Y-36431623D01*
X123900000Y-36818016D01*
X123900000Y-37211984D01*
X123823142Y-37598377D01*
X123672378Y-37962353D01*
X123453502Y-38289925D01*
X123174925Y-38568502D01*
X123044323Y-38655767D01*
X122847355Y-38787377D01*
X122847354Y-38787378D01*
X122847353Y-38787378D01*
X122483377Y-38938142D01*
X122096984Y-39015000D01*
X121703016Y-39015000D01*
X121316623Y-38938142D01*
X120952647Y-38787378D01*
X120952646Y-38787378D01*
X120952645Y-38787377D01*
X120755677Y-38655767D01*
X120625075Y-38568502D01*
X120346498Y-38289925D01*
X120127622Y-37962353D01*
X119976858Y-37598377D01*
X119900000Y-37211984D01*
X119900000Y-36818016D01*
X119976858Y-36431623D01*
X120127622Y-36067647D01*
X120137645Y-36052647D01*
X120237803Y-35902749D01*
X120346498Y-35740075D01*
X120625075Y-35461498D01*
X120787749Y-35352803D01*
X120952645Y-35242623D01*
X120988858Y-35227623D01*
X121316623Y-35091858D01*
X121703016Y-35015000D01*
X122096984Y-35015000D01*
X122483377Y-35091858D01*
G37*
G36*
X113683377Y-35076858D02*
G01*
X114047353Y-35227622D01*
X114047355Y-35227623D01*
X114069804Y-35242623D01*
X114374925Y-35446498D01*
X114653502Y-35725075D01*
X114872378Y-36052647D01*
X115023142Y-36416623D01*
X115100000Y-36803016D01*
X115100000Y-37196984D01*
X115023142Y-37583377D01*
X115016928Y-37598378D01*
X114872377Y-37947355D01*
X114862354Y-37962355D01*
X114653502Y-38274925D01*
X114374925Y-38553502D01*
X114221874Y-38655767D01*
X114047355Y-38772377D01*
X114047354Y-38772378D01*
X114047353Y-38772378D01*
X113683377Y-38923142D01*
X113296984Y-39000000D01*
X112903016Y-39000000D01*
X112516623Y-38923142D01*
X112152647Y-38772378D01*
X112152646Y-38772378D01*
X112152645Y-38772377D01*
X111978126Y-38655767D01*
X111825075Y-38553502D01*
X111546498Y-38274925D01*
X111337646Y-37962355D01*
X111327623Y-37947355D01*
X111183072Y-37598378D01*
X111176858Y-37583377D01*
X111100000Y-37196984D01*
X111100000Y-36803016D01*
X111176858Y-36416623D01*
X111327622Y-36052647D01*
X111546498Y-35725075D01*
X111825075Y-35446498D01*
X112130196Y-35242623D01*
X112152645Y-35227623D01*
X112152647Y-35227622D01*
X112516623Y-35076858D01*
X112903016Y-35000000D01*
X113296984Y-35000000D01*
X113683377Y-35076858D01*
G37*
G36*
X101750000Y-36654000D02*
G01*
X98250000Y-36654000D01*
X98250000Y-34154000D01*
X101750000Y-34154000D01*
X101750000Y-36654000D01*
G37*
G36*
X140466703Y-33461486D02*
G01*
X140757883Y-33582097D01*
X141019940Y-33757198D01*
X141242802Y-33980060D01*
X141417903Y-34242117D01*
X141538514Y-34533297D01*
X141600000Y-34842412D01*
X141600000Y-35157588D01*
X141538514Y-35466703D01*
X141417903Y-35757883D01*
X141242802Y-36019940D01*
X141019940Y-36242802D01*
X140757883Y-36417903D01*
X140466703Y-36538514D01*
X140157588Y-36600000D01*
X139842412Y-36600000D01*
X139533297Y-36538514D01*
X139242117Y-36417903D01*
X138980060Y-36242802D01*
X138757198Y-36019940D01*
X138582097Y-35757883D01*
X138461486Y-35466703D01*
X138400000Y-35157588D01*
X138400000Y-34842412D01*
X138461486Y-34533297D01*
X138582097Y-34242117D01*
X138757198Y-33980060D01*
X138980060Y-33757198D01*
X139242117Y-33582097D01*
X139533297Y-33461486D01*
X139842412Y-33400000D01*
X140157588Y-33400000D01*
X140466703Y-33461486D01*
G37*
G36*
X60466703Y-33461486D02*
G01*
X60757883Y-33582097D01*
X61019940Y-33757198D01*
X61242802Y-33980060D01*
X61417903Y-34242117D01*
X61538514Y-34533297D01*
X61600000Y-34842412D01*
X61600000Y-35157588D01*
X61538514Y-35466703D01*
X61417903Y-35757883D01*
X61242802Y-36019940D01*
X61019940Y-36242802D01*
X60757883Y-36417903D01*
X60466703Y-36538514D01*
X60157588Y-36600000D01*
X59842412Y-36600000D01*
X59533297Y-36538514D01*
X59242117Y-36417903D01*
X58980060Y-36242802D01*
X58757198Y-36019940D01*
X58582097Y-35757883D01*
X58461486Y-35466703D01*
X58400000Y-35157588D01*
X58400000Y-34842412D01*
X58461486Y-34533297D01*
X58582097Y-34242117D01*
X58757198Y-33980060D01*
X58980060Y-33757198D01*
X59242117Y-33582097D01*
X59533297Y-33461486D01*
X59842412Y-33400000D01*
X60157588Y-33400000D01*
X60466703Y-33461486D01*
G37*
M02*
