G04 #@! TF.GenerationSoftware,KiCad,Pcbnew,(5.0.1)-3*
G04 #@! TF.CreationDate,2020-03-25T14:52:38+00:00*
G04 #@! TF.ProjectId,drumkid,6472756D6B69642E6B696361645F7063,rev?*
G04 #@! TF.SameCoordinates,Original*
G04 #@! TF.FileFunction,Soldermask,Bot*
G04 #@! TF.FilePolarity,Negative*
%FSLAX46Y46*%
G04 Gerber Fmt 4.6, Leading zero omitted, Abs format (unit mm)*
G04 Created by KiCad (PCBNEW (5.0.1)-3) date 25/03/2020 14:52:38*
%MOMM*%
%LPD*%
G01*
G04 APERTURE LIST*
%ADD10C,0.100000*%
G04 APERTURE END LIST*
D10*
G36*
X117041958Y-163695144D02*
X117269386Y-163789348D01*
X117474065Y-163926110D01*
X117648130Y-164100175D01*
X117784892Y-164304854D01*
X117879096Y-164532282D01*
X117927120Y-164773717D01*
X117927120Y-165019883D01*
X117879096Y-165261318D01*
X117784892Y-165488746D01*
X117648130Y-165693425D01*
X117474065Y-165867490D01*
X117269386Y-166004252D01*
X117041958Y-166098456D01*
X116800523Y-166146480D01*
X116554357Y-166146480D01*
X116312922Y-166098456D01*
X116085494Y-166004252D01*
X115880815Y-165867490D01*
X115706750Y-165693425D01*
X115569988Y-165488746D01*
X115475784Y-165261318D01*
X115427760Y-165019883D01*
X115427760Y-164773717D01*
X115475784Y-164532282D01*
X115569988Y-164304854D01*
X115706750Y-164100175D01*
X115880815Y-163926110D01*
X116085494Y-163789348D01*
X116312922Y-163695144D01*
X116554357Y-163647120D01*
X116800523Y-163647120D01*
X117041958Y-163695144D01*
X117041958Y-163695144D01*
G37*
G36*
X107039438Y-163695144D02*
X107266866Y-163789348D01*
X107471545Y-163926110D01*
X107645610Y-164100175D01*
X107782372Y-164304854D01*
X107876576Y-164532282D01*
X107924600Y-164773717D01*
X107924600Y-165019883D01*
X107876576Y-165261318D01*
X107782372Y-165488746D01*
X107645610Y-165693425D01*
X107471545Y-165867490D01*
X107266866Y-166004252D01*
X107039438Y-166098456D01*
X106798003Y-166146480D01*
X106551837Y-166146480D01*
X106310402Y-166098456D01*
X106082974Y-166004252D01*
X105878295Y-165867490D01*
X105704230Y-165693425D01*
X105567468Y-165488746D01*
X105473264Y-165261318D01*
X105425240Y-165019883D01*
X105425240Y-164773717D01*
X105473264Y-164532282D01*
X105567468Y-164304854D01*
X105704230Y-164100175D01*
X105878295Y-163926110D01*
X106082974Y-163789348D01*
X106310402Y-163695144D01*
X106551837Y-163647120D01*
X106798003Y-163647120D01*
X107039438Y-163695144D01*
X107039438Y-163695144D01*
G37*
G36*
X84179438Y-163276044D02*
X84406866Y-163370248D01*
X84611545Y-163507010D01*
X84785610Y-163681075D01*
X84922372Y-163885754D01*
X85016576Y-164113182D01*
X85064600Y-164354617D01*
X85064600Y-164600783D01*
X85016576Y-164842218D01*
X84922372Y-165069646D01*
X84785610Y-165274325D01*
X84611545Y-165448390D01*
X84406866Y-165585152D01*
X84179438Y-165679356D01*
X83938003Y-165727380D01*
X83691837Y-165727380D01*
X83450402Y-165679356D01*
X83222974Y-165585152D01*
X83018295Y-165448390D01*
X82844230Y-165274325D01*
X82707468Y-165069646D01*
X82613264Y-164842218D01*
X82565240Y-164600783D01*
X82565240Y-164354617D01*
X82613264Y-164113182D01*
X82707468Y-163885754D01*
X82844230Y-163681075D01*
X83018295Y-163507010D01*
X83222974Y-163370248D01*
X83450402Y-163276044D01*
X83691837Y-163228020D01*
X83938003Y-163228020D01*
X84179438Y-163276044D01*
X84179438Y-163276044D01*
G37*
G36*
X94181958Y-163276044D02*
X94409386Y-163370248D01*
X94614065Y-163507010D01*
X94788130Y-163681075D01*
X94924892Y-163885754D01*
X95019096Y-164113182D01*
X95067120Y-164354617D01*
X95067120Y-164600783D01*
X95019096Y-164842218D01*
X94924892Y-165069646D01*
X94788130Y-165274325D01*
X94614065Y-165448390D01*
X94409386Y-165585152D01*
X94181958Y-165679356D01*
X93940523Y-165727380D01*
X93694357Y-165727380D01*
X93452922Y-165679356D01*
X93225494Y-165585152D01*
X93020815Y-165448390D01*
X92846750Y-165274325D01*
X92709988Y-165069646D01*
X92615784Y-164842218D01*
X92567760Y-164600783D01*
X92567760Y-164354617D01*
X92615784Y-164113182D01*
X92709988Y-163885754D01*
X92846750Y-163681075D01*
X93020815Y-163507010D01*
X93225494Y-163370248D01*
X93452922Y-163276044D01*
X93694357Y-163228020D01*
X93940523Y-163228020D01*
X94181958Y-163276044D01*
X94181958Y-163276044D01*
G37*
G36*
X70466703Y-158461486D02*
X70757883Y-158582097D01*
X71019944Y-158757201D01*
X71242799Y-158980056D01*
X71417903Y-159242117D01*
X71538514Y-159533297D01*
X71600000Y-159842412D01*
X71600000Y-160157588D01*
X71538514Y-160466703D01*
X71417903Y-160757883D01*
X71242799Y-161019944D01*
X71019944Y-161242799D01*
X70757883Y-161417903D01*
X70466703Y-161538514D01*
X70157588Y-161600000D01*
X69842412Y-161600000D01*
X69533297Y-161538514D01*
X69242117Y-161417903D01*
X68980056Y-161242799D01*
X68757201Y-161019944D01*
X68582097Y-160757883D01*
X68461486Y-160466703D01*
X68400000Y-160157588D01*
X68400000Y-159842412D01*
X68461486Y-159533297D01*
X68582097Y-159242117D01*
X68757201Y-158980056D01*
X68980056Y-158757201D01*
X69242117Y-158582097D01*
X69533297Y-158461486D01*
X69842412Y-158400000D01*
X70157588Y-158400000D01*
X70466703Y-158461486D01*
X70466703Y-158461486D01*
G37*
G36*
X130466703Y-158461486D02*
X130757883Y-158582097D01*
X131019944Y-158757201D01*
X131242799Y-158980056D01*
X131417903Y-159242117D01*
X131538514Y-159533297D01*
X131600000Y-159842412D01*
X131600000Y-160157588D01*
X131538514Y-160466703D01*
X131417903Y-160757883D01*
X131242799Y-161019944D01*
X131019944Y-161242799D01*
X130757883Y-161417903D01*
X130466703Y-161538514D01*
X130157588Y-161600000D01*
X129842412Y-161600000D01*
X129533297Y-161538514D01*
X129242117Y-161417903D01*
X128980056Y-161242799D01*
X128757201Y-161019944D01*
X128582097Y-160757883D01*
X128461486Y-160466703D01*
X128400000Y-160157588D01*
X128400000Y-159842412D01*
X128461486Y-159533297D01*
X128582097Y-159242117D01*
X128757201Y-158980056D01*
X128980056Y-158757201D01*
X129242117Y-158582097D01*
X129533297Y-158461486D01*
X129842412Y-158400000D01*
X130157588Y-158400000D01*
X130466703Y-158461486D01*
X130466703Y-158461486D01*
G37*
G36*
X104542618Y-153700244D02*
X104770046Y-153794448D01*
X104974725Y-153931210D01*
X105148790Y-154105275D01*
X105285552Y-154309954D01*
X105379756Y-154537382D01*
X105427780Y-154778817D01*
X105427780Y-155024983D01*
X105379756Y-155266418D01*
X105285552Y-155493846D01*
X105148790Y-155698525D01*
X104974725Y-155872590D01*
X104770046Y-156009352D01*
X104542618Y-156103556D01*
X104301183Y-156151580D01*
X104055017Y-156151580D01*
X103813582Y-156103556D01*
X103586154Y-156009352D01*
X103381475Y-155872590D01*
X103207410Y-155698525D01*
X103070648Y-155493846D01*
X102976444Y-155266418D01*
X102928420Y-155024983D01*
X102928420Y-154778817D01*
X102976444Y-154537382D01*
X103070648Y-154309954D01*
X103207410Y-154105275D01*
X103381475Y-153931210D01*
X103586154Y-153794448D01*
X103813582Y-153700244D01*
X104055017Y-153652220D01*
X104301183Y-153652220D01*
X104542618Y-153700244D01*
X104542618Y-153700244D01*
G37*
G36*
X119538778Y-153700244D02*
X119766206Y-153794448D01*
X119970885Y-153931210D01*
X120144950Y-154105275D01*
X120281712Y-154309954D01*
X120375916Y-154537382D01*
X120423940Y-154778817D01*
X120423940Y-155024983D01*
X120375916Y-155266418D01*
X120281712Y-155493846D01*
X120144950Y-155698525D01*
X119970885Y-155872590D01*
X119766206Y-156009352D01*
X119538778Y-156103556D01*
X119297343Y-156151580D01*
X119051177Y-156151580D01*
X118809742Y-156103556D01*
X118582314Y-156009352D01*
X118377635Y-155872590D01*
X118203570Y-155698525D01*
X118066808Y-155493846D01*
X117972604Y-155266418D01*
X117924580Y-155024983D01*
X117924580Y-154778817D01*
X117972604Y-154537382D01*
X118066808Y-154309954D01*
X118203570Y-154105275D01*
X118377635Y-153931210D01*
X118582314Y-153794448D01*
X118809742Y-153700244D01*
X119051177Y-153652220D01*
X119297343Y-153652220D01*
X119538778Y-153700244D01*
X119538778Y-153700244D01*
G37*
G36*
X112040698Y-153697704D02*
X112268126Y-153791908D01*
X112472805Y-153928670D01*
X112646870Y-154102735D01*
X112783632Y-154307414D01*
X112877836Y-154534842D01*
X112925860Y-154776277D01*
X112925860Y-155022443D01*
X112877836Y-155263878D01*
X112783632Y-155491306D01*
X112646870Y-155695985D01*
X112472805Y-155870050D01*
X112268126Y-156006812D01*
X112040698Y-156101016D01*
X111799263Y-156149040D01*
X111553097Y-156149040D01*
X111311662Y-156101016D01*
X111084234Y-156006812D01*
X110879555Y-155870050D01*
X110705490Y-155695985D01*
X110568728Y-155491306D01*
X110474524Y-155263878D01*
X110426500Y-155022443D01*
X110426500Y-154776277D01*
X110474524Y-154534842D01*
X110568728Y-154307414D01*
X110705490Y-154102735D01*
X110879555Y-153928670D01*
X111084234Y-153791908D01*
X111311662Y-153697704D01*
X111553097Y-153649680D01*
X111799263Y-153649680D01*
X112040698Y-153697704D01*
X112040698Y-153697704D01*
G37*
G36*
X96678778Y-153281144D02*
X96906206Y-153375348D01*
X97110885Y-153512110D01*
X97284950Y-153686175D01*
X97421712Y-153890854D01*
X97515916Y-154118282D01*
X97563940Y-154359717D01*
X97563940Y-154605883D01*
X97515916Y-154847318D01*
X97421712Y-155074746D01*
X97284950Y-155279425D01*
X97110885Y-155453490D01*
X96906206Y-155590252D01*
X96678778Y-155684456D01*
X96437343Y-155732480D01*
X96191177Y-155732480D01*
X95949742Y-155684456D01*
X95722314Y-155590252D01*
X95517635Y-155453490D01*
X95343570Y-155279425D01*
X95206808Y-155074746D01*
X95112604Y-154847318D01*
X95064580Y-154605883D01*
X95064580Y-154359717D01*
X95112604Y-154118282D01*
X95206808Y-153890854D01*
X95343570Y-153686175D01*
X95517635Y-153512110D01*
X95722314Y-153375348D01*
X95949742Y-153281144D01*
X96191177Y-153233120D01*
X96437343Y-153233120D01*
X96678778Y-153281144D01*
X96678778Y-153281144D01*
G37*
G36*
X81682618Y-153281144D02*
X81910046Y-153375348D01*
X82114725Y-153512110D01*
X82288790Y-153686175D01*
X82425552Y-153890854D01*
X82519756Y-154118282D01*
X82567780Y-154359717D01*
X82567780Y-154605883D01*
X82519756Y-154847318D01*
X82425552Y-155074746D01*
X82288790Y-155279425D01*
X82114725Y-155453490D01*
X81910046Y-155590252D01*
X81682618Y-155684456D01*
X81441183Y-155732480D01*
X81195017Y-155732480D01*
X80953582Y-155684456D01*
X80726154Y-155590252D01*
X80521475Y-155453490D01*
X80347410Y-155279425D01*
X80210648Y-155074746D01*
X80116444Y-154847318D01*
X80068420Y-154605883D01*
X80068420Y-154359717D01*
X80116444Y-154118282D01*
X80210648Y-153890854D01*
X80347410Y-153686175D01*
X80521475Y-153512110D01*
X80726154Y-153375348D01*
X80953582Y-153281144D01*
X81195017Y-153233120D01*
X81441183Y-153233120D01*
X81682618Y-153281144D01*
X81682618Y-153281144D01*
G37*
G36*
X89180698Y-153278604D02*
X89408126Y-153372808D01*
X89612805Y-153509570D01*
X89786870Y-153683635D01*
X89923632Y-153888314D01*
X90017836Y-154115742D01*
X90065860Y-154357177D01*
X90065860Y-154603343D01*
X90017836Y-154844778D01*
X89923632Y-155072206D01*
X89786870Y-155276885D01*
X89612805Y-155450950D01*
X89408126Y-155587712D01*
X89180698Y-155681916D01*
X88939263Y-155729940D01*
X88693097Y-155729940D01*
X88451662Y-155681916D01*
X88224234Y-155587712D01*
X88019555Y-155450950D01*
X87845490Y-155276885D01*
X87708728Y-155072206D01*
X87614524Y-154844778D01*
X87566500Y-154603343D01*
X87566500Y-154357177D01*
X87614524Y-154115742D01*
X87708728Y-153888314D01*
X87845490Y-153683635D01*
X88019555Y-153509570D01*
X88224234Y-153372808D01*
X88451662Y-153278604D01*
X88693097Y-153230580D01*
X88939263Y-153230580D01*
X89180698Y-153278604D01*
X89180698Y-153278604D01*
G37*
G36*
X107044518Y-151198344D02*
X107271946Y-151292548D01*
X107476625Y-151429310D01*
X107650690Y-151603375D01*
X107787452Y-151808054D01*
X107881656Y-152035482D01*
X107929680Y-152276917D01*
X107929680Y-152523083D01*
X107881656Y-152764518D01*
X107787452Y-152991946D01*
X107650690Y-153196625D01*
X107476625Y-153370690D01*
X107271946Y-153507452D01*
X107044518Y-153601656D01*
X106803083Y-153649680D01*
X106556917Y-153649680D01*
X106315482Y-153601656D01*
X106088054Y-153507452D01*
X105883375Y-153370690D01*
X105709310Y-153196625D01*
X105572548Y-152991946D01*
X105478344Y-152764518D01*
X105430320Y-152523083D01*
X105430320Y-152276917D01*
X105478344Y-152035482D01*
X105572548Y-151808054D01*
X105709310Y-151603375D01*
X105883375Y-151429310D01*
X106088054Y-151292548D01*
X106315482Y-151198344D01*
X106556917Y-151150320D01*
X106803083Y-151150320D01*
X107044518Y-151198344D01*
X107044518Y-151198344D01*
G37*
G36*
X117036878Y-151198344D02*
X117264306Y-151292548D01*
X117468985Y-151429310D01*
X117643050Y-151603375D01*
X117779812Y-151808054D01*
X117874016Y-152035482D01*
X117922040Y-152276917D01*
X117922040Y-152523083D01*
X117874016Y-152764518D01*
X117779812Y-152991946D01*
X117643050Y-153196625D01*
X117468985Y-153370690D01*
X117264306Y-153507452D01*
X117036878Y-153601656D01*
X116795443Y-153649680D01*
X116549277Y-153649680D01*
X116307842Y-153601656D01*
X116080414Y-153507452D01*
X115875735Y-153370690D01*
X115701670Y-153196625D01*
X115564908Y-152991946D01*
X115470704Y-152764518D01*
X115422680Y-152523083D01*
X115422680Y-152276917D01*
X115470704Y-152035482D01*
X115564908Y-151808054D01*
X115701670Y-151603375D01*
X115875735Y-151429310D01*
X116080414Y-151292548D01*
X116307842Y-151198344D01*
X116549277Y-151150320D01*
X116795443Y-151150320D01*
X117036878Y-151198344D01*
X117036878Y-151198344D01*
G37*
G36*
X84184518Y-150779244D02*
X84411946Y-150873448D01*
X84616625Y-151010210D01*
X84790690Y-151184275D01*
X84927452Y-151388954D01*
X85021656Y-151616382D01*
X85069680Y-151857817D01*
X85069680Y-152103983D01*
X85021656Y-152345418D01*
X84927452Y-152572846D01*
X84790690Y-152777525D01*
X84616625Y-152951590D01*
X84411946Y-153088352D01*
X84184518Y-153182556D01*
X83943083Y-153230580D01*
X83696917Y-153230580D01*
X83455482Y-153182556D01*
X83228054Y-153088352D01*
X83023375Y-152951590D01*
X82849310Y-152777525D01*
X82712548Y-152572846D01*
X82618344Y-152345418D01*
X82570320Y-152103983D01*
X82570320Y-151857817D01*
X82618344Y-151616382D01*
X82712548Y-151388954D01*
X82849310Y-151184275D01*
X83023375Y-151010210D01*
X83228054Y-150873448D01*
X83455482Y-150779244D01*
X83696917Y-150731220D01*
X83943083Y-150731220D01*
X84184518Y-150779244D01*
X84184518Y-150779244D01*
G37*
G36*
X94176878Y-150779244D02*
X94404306Y-150873448D01*
X94608985Y-151010210D01*
X94783050Y-151184275D01*
X94919812Y-151388954D01*
X95014016Y-151616382D01*
X95062040Y-151857817D01*
X95062040Y-152103983D01*
X95014016Y-152345418D01*
X94919812Y-152572846D01*
X94783050Y-152777525D01*
X94608985Y-152951590D01*
X94404306Y-153088352D01*
X94176878Y-153182556D01*
X93935443Y-153230580D01*
X93689277Y-153230580D01*
X93447842Y-153182556D01*
X93220414Y-153088352D01*
X93015735Y-152951590D01*
X92841670Y-152777525D01*
X92704908Y-152572846D01*
X92610704Y-152345418D01*
X92562680Y-152103983D01*
X92562680Y-151857817D01*
X92610704Y-151616382D01*
X92704908Y-151388954D01*
X92841670Y-151184275D01*
X93015735Y-151010210D01*
X93220414Y-150873448D01*
X93447842Y-150779244D01*
X93689277Y-150731220D01*
X93935443Y-150731220D01*
X94176878Y-150779244D01*
X94176878Y-150779244D01*
G37*
G36*
X130072770Y-148813691D02*
X130405172Y-148951376D01*
X130704326Y-149151265D01*
X130958735Y-149405674D01*
X131158624Y-149704828D01*
X131296309Y-150037230D01*
X131366500Y-150390105D01*
X131366500Y-150749895D01*
X131296309Y-151102770D01*
X131158624Y-151435172D01*
X130958735Y-151734326D01*
X130704326Y-151988735D01*
X130405172Y-152188624D01*
X130072770Y-152326309D01*
X129719895Y-152396500D01*
X129360105Y-152396500D01*
X129007230Y-152326309D01*
X128674828Y-152188624D01*
X128375674Y-151988735D01*
X128121265Y-151734326D01*
X127921376Y-151435172D01*
X127783691Y-151102770D01*
X127713500Y-150749895D01*
X127713500Y-150390105D01*
X127783691Y-150037230D01*
X127921376Y-149704828D01*
X128121265Y-149405674D01*
X128375674Y-149151265D01*
X128674828Y-148951376D01*
X129007230Y-148813691D01*
X129360105Y-148743500D01*
X129719895Y-148743500D01*
X130072770Y-148813691D01*
X130072770Y-148813691D01*
G37*
G36*
X116957649Y-146527717D02*
X116996827Y-146531576D01*
X117060012Y-146550743D01*
X117147629Y-146577321D01*
X117286608Y-146651608D01*
X117408422Y-146751578D01*
X117508392Y-146873392D01*
X117582679Y-147012371D01*
X117628424Y-147163174D01*
X117643870Y-147320000D01*
X117628424Y-147476826D01*
X117582679Y-147627629D01*
X117508392Y-147766608D01*
X117408422Y-147888422D01*
X117286608Y-147988392D01*
X117147629Y-148062679D01*
X117072228Y-148085551D01*
X116996827Y-148108424D01*
X116957649Y-148112283D01*
X116879295Y-148120000D01*
X116800705Y-148120000D01*
X116722351Y-148112283D01*
X116683173Y-148108424D01*
X116607772Y-148085551D01*
X116532371Y-148062679D01*
X116393392Y-147988392D01*
X116271578Y-147888422D01*
X116171608Y-147766608D01*
X116097321Y-147627629D01*
X116051576Y-147476826D01*
X116036130Y-147320000D01*
X116051576Y-147163174D01*
X116097321Y-147012371D01*
X116171608Y-146873392D01*
X116271578Y-146751578D01*
X116393392Y-146651608D01*
X116532371Y-146577321D01*
X116619988Y-146550743D01*
X116683173Y-146531576D01*
X116722351Y-146527717D01*
X116800705Y-146520000D01*
X116879295Y-146520000D01*
X116957649Y-146527717D01*
X116957649Y-146527717D01*
G37*
G36*
X106913352Y-146550743D02*
X107058941Y-146611048D01*
X107189973Y-146698601D01*
X107301399Y-146810027D01*
X107388952Y-146941059D01*
X107449257Y-147086648D01*
X107480000Y-147241205D01*
X107480000Y-147398795D01*
X107449257Y-147553352D01*
X107388952Y-147698941D01*
X107301399Y-147829973D01*
X107189973Y-147941399D01*
X107058941Y-148028952D01*
X106913352Y-148089257D01*
X106758795Y-148120000D01*
X106601205Y-148120000D01*
X106446648Y-148089257D01*
X106301059Y-148028952D01*
X106170027Y-147941399D01*
X106058601Y-147829973D01*
X105971048Y-147698941D01*
X105910743Y-147553352D01*
X105880000Y-147398795D01*
X105880000Y-147241205D01*
X105910743Y-147086648D01*
X105971048Y-146941059D01*
X106058601Y-146810027D01*
X106170027Y-146698601D01*
X106301059Y-146611048D01*
X106446648Y-146550743D01*
X106601205Y-146520000D01*
X106758795Y-146520000D01*
X106913352Y-146550743D01*
X106913352Y-146550743D01*
G37*
G36*
X101833352Y-146550743D02*
X101978941Y-146611048D01*
X102109973Y-146698601D01*
X102221399Y-146810027D01*
X102308952Y-146941059D01*
X102369257Y-147086648D01*
X102400000Y-147241205D01*
X102400000Y-147398795D01*
X102369257Y-147553352D01*
X102308952Y-147698941D01*
X102221399Y-147829973D01*
X102109973Y-147941399D01*
X101978941Y-148028952D01*
X101833352Y-148089257D01*
X101678795Y-148120000D01*
X101521205Y-148120000D01*
X101366648Y-148089257D01*
X101221059Y-148028952D01*
X101090027Y-147941399D01*
X100978601Y-147829973D01*
X100891048Y-147698941D01*
X100830743Y-147553352D01*
X100800000Y-147398795D01*
X100800000Y-147241205D01*
X100830743Y-147086648D01*
X100891048Y-146941059D01*
X100978601Y-146810027D01*
X101090027Y-146698601D01*
X101221059Y-146611048D01*
X101366648Y-146550743D01*
X101521205Y-146520000D01*
X101678795Y-146520000D01*
X101833352Y-146550743D01*
X101833352Y-146550743D01*
G37*
G36*
X89017649Y-146527717D02*
X89056827Y-146531576D01*
X89120012Y-146550743D01*
X89207629Y-146577321D01*
X89346608Y-146651608D01*
X89468422Y-146751578D01*
X89568392Y-146873392D01*
X89642679Y-147012371D01*
X89688424Y-147163174D01*
X89703870Y-147320000D01*
X89688424Y-147476826D01*
X89642679Y-147627629D01*
X89568392Y-147766608D01*
X89468422Y-147888422D01*
X89346608Y-147988392D01*
X89207629Y-148062679D01*
X89132228Y-148085551D01*
X89056827Y-148108424D01*
X89017649Y-148112283D01*
X88939295Y-148120000D01*
X88860705Y-148120000D01*
X88782351Y-148112283D01*
X88743173Y-148108424D01*
X88667772Y-148085551D01*
X88592371Y-148062679D01*
X88453392Y-147988392D01*
X88331578Y-147888422D01*
X88231608Y-147766608D01*
X88157321Y-147627629D01*
X88111576Y-147476826D01*
X88096130Y-147320000D01*
X88111576Y-147163174D01*
X88157321Y-147012371D01*
X88231608Y-146873392D01*
X88331578Y-146751578D01*
X88453392Y-146651608D01*
X88592371Y-146577321D01*
X88679988Y-146550743D01*
X88743173Y-146531576D01*
X88782351Y-146527717D01*
X88860705Y-146520000D01*
X88939295Y-146520000D01*
X89017649Y-146527717D01*
X89017649Y-146527717D01*
G37*
G36*
X78973352Y-146550743D02*
X79118941Y-146611048D01*
X79249973Y-146698601D01*
X79361399Y-146810027D01*
X79448952Y-146941059D01*
X79509257Y-147086648D01*
X79540000Y-147241205D01*
X79540000Y-147398795D01*
X79509257Y-147553352D01*
X79448952Y-147698941D01*
X79361399Y-147829973D01*
X79249973Y-147941399D01*
X79118941Y-148028952D01*
X78973352Y-148089257D01*
X78818795Y-148120000D01*
X78661205Y-148120000D01*
X78506648Y-148089257D01*
X78361059Y-148028952D01*
X78230027Y-147941399D01*
X78118601Y-147829973D01*
X78031048Y-147698941D01*
X77970743Y-147553352D01*
X77940000Y-147398795D01*
X77940000Y-147241205D01*
X77970743Y-147086648D01*
X78031048Y-146941059D01*
X78118601Y-146810027D01*
X78230027Y-146698601D01*
X78361059Y-146611048D01*
X78506648Y-146550743D01*
X78661205Y-146520000D01*
X78818795Y-146520000D01*
X78973352Y-146550743D01*
X78973352Y-146550743D01*
G37*
G36*
X129744183Y-146646900D02*
X129871574Y-146699668D01*
X129986225Y-146776275D01*
X130083725Y-146873775D01*
X130160332Y-146988426D01*
X130213100Y-147115817D01*
X130240000Y-147251055D01*
X130240000Y-147388945D01*
X130213100Y-147524183D01*
X130160332Y-147651574D01*
X130083725Y-147766225D01*
X129986225Y-147863725D01*
X129871574Y-147940332D01*
X129744183Y-147993100D01*
X129608945Y-148020000D01*
X129471055Y-148020000D01*
X129335817Y-147993100D01*
X129208426Y-147940332D01*
X129093775Y-147863725D01*
X128996275Y-147766225D01*
X128919668Y-147651574D01*
X128866900Y-147524183D01*
X128840000Y-147388945D01*
X128840000Y-147251055D01*
X128866900Y-147115817D01*
X128919668Y-146988426D01*
X128996275Y-146873775D01*
X129093775Y-146776275D01*
X129208426Y-146699668D01*
X129335817Y-146646900D01*
X129471055Y-146620000D01*
X129608945Y-146620000D01*
X129744183Y-146646900D01*
X129744183Y-146646900D01*
G37*
G36*
X101833352Y-144050743D02*
X101978941Y-144111048D01*
X102109973Y-144198601D01*
X102221399Y-144310027D01*
X102308952Y-144441059D01*
X102369257Y-144586648D01*
X102400000Y-144741205D01*
X102400000Y-144898795D01*
X102369257Y-145053352D01*
X102308952Y-145198941D01*
X102221399Y-145329973D01*
X102109973Y-145441399D01*
X101978941Y-145528952D01*
X101833352Y-145589257D01*
X101678795Y-145620000D01*
X101521205Y-145620000D01*
X101366648Y-145589257D01*
X101221059Y-145528952D01*
X101090027Y-145441399D01*
X100978601Y-145329973D01*
X100891048Y-145198941D01*
X100830743Y-145053352D01*
X100800000Y-144898795D01*
X100800000Y-144741205D01*
X100830743Y-144586648D01*
X100891048Y-144441059D01*
X100978601Y-144310027D01*
X101090027Y-144198601D01*
X101221059Y-144111048D01*
X101366648Y-144050743D01*
X101521205Y-144020000D01*
X101678795Y-144020000D01*
X101833352Y-144050743D01*
X101833352Y-144050743D01*
G37*
G36*
X78973352Y-144010743D02*
X79118941Y-144071048D01*
X79249973Y-144158601D01*
X79361399Y-144270027D01*
X79448952Y-144401059D01*
X79509257Y-144546648D01*
X79540000Y-144701205D01*
X79540000Y-144858795D01*
X79509257Y-145013352D01*
X79448952Y-145158941D01*
X79361399Y-145289973D01*
X79249973Y-145401399D01*
X79118941Y-145488952D01*
X78973352Y-145549257D01*
X78818795Y-145580000D01*
X78661205Y-145580000D01*
X78506648Y-145549257D01*
X78361059Y-145488952D01*
X78230027Y-145401399D01*
X78118601Y-145289973D01*
X78031048Y-145158941D01*
X77970743Y-145013352D01*
X77940000Y-144858795D01*
X77940000Y-144701205D01*
X77970743Y-144546648D01*
X78031048Y-144401059D01*
X78118601Y-144270027D01*
X78230027Y-144158601D01*
X78361059Y-144071048D01*
X78506648Y-144010743D01*
X78661205Y-143980000D01*
X78818795Y-143980000D01*
X78973352Y-144010743D01*
X78973352Y-144010743D01*
G37*
G36*
X89017649Y-143987717D02*
X89056827Y-143991576D01*
X89120012Y-144010743D01*
X89207629Y-144037321D01*
X89346608Y-144111608D01*
X89468422Y-144211578D01*
X89568392Y-144333392D01*
X89642679Y-144472371D01*
X89642679Y-144472372D01*
X89688424Y-144623173D01*
X89703870Y-144780000D01*
X89688424Y-144936827D01*
X89671354Y-144993099D01*
X89642679Y-145087629D01*
X89568392Y-145226608D01*
X89468422Y-145348422D01*
X89346608Y-145448392D01*
X89207629Y-145522679D01*
X89186949Y-145528952D01*
X89056827Y-145568424D01*
X89017649Y-145572283D01*
X88939295Y-145580000D01*
X88860705Y-145580000D01*
X88782351Y-145572283D01*
X88743173Y-145568424D01*
X88613051Y-145528952D01*
X88592371Y-145522679D01*
X88453392Y-145448392D01*
X88331578Y-145348422D01*
X88231608Y-145226608D01*
X88157321Y-145087629D01*
X88128646Y-144993099D01*
X88111576Y-144936827D01*
X88096130Y-144780000D01*
X88111576Y-144623173D01*
X88157321Y-144472372D01*
X88157321Y-144472371D01*
X88231608Y-144333392D01*
X88331578Y-144211578D01*
X88453392Y-144111608D01*
X88592371Y-144037321D01*
X88679988Y-144010743D01*
X88743173Y-143991576D01*
X88782351Y-143987717D01*
X88860705Y-143980000D01*
X88939295Y-143980000D01*
X89017649Y-143987717D01*
X89017649Y-143987717D01*
G37*
G36*
X96713352Y-144010743D02*
X96858941Y-144071048D01*
X96989973Y-144158601D01*
X97101399Y-144270027D01*
X97188952Y-144401059D01*
X97249257Y-144546648D01*
X97280000Y-144701205D01*
X97280000Y-144858795D01*
X97249257Y-145013352D01*
X97188952Y-145158941D01*
X97101399Y-145289973D01*
X96989973Y-145401399D01*
X96858941Y-145488952D01*
X96713352Y-145549257D01*
X96558795Y-145580000D01*
X96401205Y-145580000D01*
X96246648Y-145549257D01*
X96101059Y-145488952D01*
X95970027Y-145401399D01*
X95858601Y-145289973D01*
X95771048Y-145158941D01*
X95710743Y-145013352D01*
X95680000Y-144858795D01*
X95680000Y-144701205D01*
X95710743Y-144546648D01*
X95771048Y-144401059D01*
X95858601Y-144270027D01*
X95970027Y-144158601D01*
X96101059Y-144071048D01*
X96246648Y-144010743D01*
X96401205Y-143980000D01*
X96558795Y-143980000D01*
X96713352Y-144010743D01*
X96713352Y-144010743D01*
G37*
G36*
X94780000Y-145580000D02*
X93180000Y-145580000D01*
X93180000Y-143980000D01*
X94780000Y-143980000D01*
X94780000Y-145580000D01*
X94780000Y-145580000D01*
G37*
G36*
X129744183Y-143646900D02*
X129871574Y-143699668D01*
X129986225Y-143776275D01*
X130083725Y-143873775D01*
X130160332Y-143988426D01*
X130213100Y-144115817D01*
X130240000Y-144251055D01*
X130240000Y-144388945D01*
X130213100Y-144524183D01*
X130187225Y-144586649D01*
X130160332Y-144651574D01*
X130100442Y-144741207D01*
X130083725Y-144766225D01*
X129986225Y-144863725D01*
X129871574Y-144940332D01*
X129744183Y-144993100D01*
X129608945Y-145020000D01*
X129471055Y-145020000D01*
X129335817Y-144993100D01*
X129208426Y-144940332D01*
X129093775Y-144863725D01*
X128996275Y-144766225D01*
X128979559Y-144741207D01*
X128919668Y-144651574D01*
X128892775Y-144586649D01*
X128866900Y-144524183D01*
X128840000Y-144388945D01*
X128840000Y-144251055D01*
X128866900Y-144115817D01*
X128919668Y-143988426D01*
X128996275Y-143873775D01*
X129093775Y-143776275D01*
X129208426Y-143699668D01*
X129335817Y-143646900D01*
X129471055Y-143620000D01*
X129608945Y-143620000D01*
X129744183Y-143646900D01*
X129744183Y-143646900D01*
G37*
G36*
X129744183Y-140646900D02*
X129871574Y-140699668D01*
X129986225Y-140776275D01*
X130083725Y-140873775D01*
X130160332Y-140988426D01*
X130213100Y-141115817D01*
X130240000Y-141251055D01*
X130240000Y-141388945D01*
X130213100Y-141524183D01*
X130160332Y-141651574D01*
X130083725Y-141766225D01*
X129986225Y-141863725D01*
X129871574Y-141940332D01*
X129744183Y-141993100D01*
X129608945Y-142020000D01*
X129471055Y-142020000D01*
X129335817Y-141993100D01*
X129208426Y-141940332D01*
X129093775Y-141863725D01*
X128996275Y-141766225D01*
X128919668Y-141651574D01*
X128866900Y-141524183D01*
X128840000Y-141388945D01*
X128840000Y-141251055D01*
X128866900Y-141115817D01*
X128919668Y-140988426D01*
X128996275Y-140873775D01*
X129093775Y-140776275D01*
X129208426Y-140699668D01*
X129335817Y-140646900D01*
X129471055Y-140620000D01*
X129608945Y-140620000D01*
X129744183Y-140646900D01*
X129744183Y-140646900D01*
G37*
G36*
X101766630Y-138862299D02*
X101926855Y-138910903D01*
X102074520Y-138989831D01*
X102203949Y-139096051D01*
X102310169Y-139225480D01*
X102389097Y-139373145D01*
X102437701Y-139533370D01*
X102454112Y-139700000D01*
X102437701Y-139866630D01*
X102389097Y-140026855D01*
X102310169Y-140174520D01*
X102203949Y-140303949D01*
X102074520Y-140410169D01*
X101926855Y-140489097D01*
X101766630Y-140537701D01*
X101641752Y-140550000D01*
X101558248Y-140550000D01*
X101433370Y-140537701D01*
X101273145Y-140489097D01*
X101125480Y-140410169D01*
X100996051Y-140303949D01*
X100889831Y-140174520D01*
X100810903Y-140026855D01*
X100762299Y-139866630D01*
X100745888Y-139700000D01*
X100762299Y-139533370D01*
X100810903Y-139373145D01*
X100889831Y-139225480D01*
X100996051Y-139096051D01*
X101125480Y-138989831D01*
X101273145Y-138910903D01*
X101433370Y-138862299D01*
X101558248Y-138850000D01*
X101641752Y-138850000D01*
X101766630Y-138862299D01*
X101766630Y-138862299D01*
G37*
G36*
X99226630Y-138862299D02*
X99386855Y-138910903D01*
X99534520Y-138989831D01*
X99663949Y-139096051D01*
X99770169Y-139225480D01*
X99849097Y-139373145D01*
X99897701Y-139533370D01*
X99914112Y-139700000D01*
X99897701Y-139866630D01*
X99849097Y-140026855D01*
X99770169Y-140174520D01*
X99663949Y-140303949D01*
X99534520Y-140410169D01*
X99386855Y-140489097D01*
X99226630Y-140537701D01*
X99101752Y-140550000D01*
X99018248Y-140550000D01*
X98893370Y-140537701D01*
X98733145Y-140489097D01*
X98585480Y-140410169D01*
X98456051Y-140303949D01*
X98349831Y-140174520D01*
X98270903Y-140026855D01*
X98222299Y-139866630D01*
X98205888Y-139700000D01*
X98222299Y-139533370D01*
X98270903Y-139373145D01*
X98349831Y-139225480D01*
X98456051Y-139096051D01*
X98585480Y-138989831D01*
X98733145Y-138910903D01*
X98893370Y-138862299D01*
X99018248Y-138850000D01*
X99101752Y-138850000D01*
X99226630Y-138862299D01*
X99226630Y-138862299D01*
G37*
G36*
X96686630Y-138862299D02*
X96846855Y-138910903D01*
X96994520Y-138989831D01*
X97123949Y-139096051D01*
X97230169Y-139225480D01*
X97309097Y-139373145D01*
X97357701Y-139533370D01*
X97374112Y-139700000D01*
X97357701Y-139866630D01*
X97309097Y-140026855D01*
X97230169Y-140174520D01*
X97123949Y-140303949D01*
X96994520Y-140410169D01*
X96846855Y-140489097D01*
X96686630Y-140537701D01*
X96561752Y-140550000D01*
X96478248Y-140550000D01*
X96353370Y-140537701D01*
X96193145Y-140489097D01*
X96045480Y-140410169D01*
X95916051Y-140303949D01*
X95809831Y-140174520D01*
X95730903Y-140026855D01*
X95682299Y-139866630D01*
X95665888Y-139700000D01*
X95682299Y-139533370D01*
X95730903Y-139373145D01*
X95809831Y-139225480D01*
X95916051Y-139096051D01*
X96045480Y-138989831D01*
X96193145Y-138910903D01*
X96353370Y-138862299D01*
X96478248Y-138850000D01*
X96561752Y-138850000D01*
X96686630Y-138862299D01*
X96686630Y-138862299D01*
G37*
G36*
X94146630Y-138862299D02*
X94306855Y-138910903D01*
X94454520Y-138989831D01*
X94583949Y-139096051D01*
X94690169Y-139225480D01*
X94769097Y-139373145D01*
X94817701Y-139533370D01*
X94834112Y-139700000D01*
X94817701Y-139866630D01*
X94769097Y-140026855D01*
X94690169Y-140174520D01*
X94583949Y-140303949D01*
X94454520Y-140410169D01*
X94306855Y-140489097D01*
X94146630Y-140537701D01*
X94021752Y-140550000D01*
X93938248Y-140550000D01*
X93813370Y-140537701D01*
X93653145Y-140489097D01*
X93505480Y-140410169D01*
X93376051Y-140303949D01*
X93269831Y-140174520D01*
X93190903Y-140026855D01*
X93142299Y-139866630D01*
X93125888Y-139700000D01*
X93142299Y-139533370D01*
X93190903Y-139373145D01*
X93269831Y-139225480D01*
X93376051Y-139096051D01*
X93505480Y-138989831D01*
X93653145Y-138910903D01*
X93813370Y-138862299D01*
X93938248Y-138850000D01*
X94021752Y-138850000D01*
X94146630Y-138862299D01*
X94146630Y-138862299D01*
G37*
G36*
X91606630Y-138862299D02*
X91766855Y-138910903D01*
X91914520Y-138989831D01*
X92043949Y-139096051D01*
X92150169Y-139225480D01*
X92229097Y-139373145D01*
X92277701Y-139533370D01*
X92294112Y-139700000D01*
X92277701Y-139866630D01*
X92229097Y-140026855D01*
X92150169Y-140174520D01*
X92043949Y-140303949D01*
X91914520Y-140410169D01*
X91766855Y-140489097D01*
X91606630Y-140537701D01*
X91481752Y-140550000D01*
X91398248Y-140550000D01*
X91273370Y-140537701D01*
X91113145Y-140489097D01*
X90965480Y-140410169D01*
X90836051Y-140303949D01*
X90729831Y-140174520D01*
X90650903Y-140026855D01*
X90602299Y-139866630D01*
X90585888Y-139700000D01*
X90602299Y-139533370D01*
X90650903Y-139373145D01*
X90729831Y-139225480D01*
X90836051Y-139096051D01*
X90965480Y-138989831D01*
X91113145Y-138910903D01*
X91273370Y-138862299D01*
X91398248Y-138850000D01*
X91481752Y-138850000D01*
X91606630Y-138862299D01*
X91606630Y-138862299D01*
G37*
G36*
X89066630Y-138862299D02*
X89226855Y-138910903D01*
X89374520Y-138989831D01*
X89503949Y-139096051D01*
X89610169Y-139225480D01*
X89689097Y-139373145D01*
X89737701Y-139533370D01*
X89754112Y-139700000D01*
X89737701Y-139866630D01*
X89689097Y-140026855D01*
X89610169Y-140174520D01*
X89503949Y-140303949D01*
X89374520Y-140410169D01*
X89226855Y-140489097D01*
X89066630Y-140537701D01*
X88941752Y-140550000D01*
X88858248Y-140550000D01*
X88733370Y-140537701D01*
X88573145Y-140489097D01*
X88425480Y-140410169D01*
X88296051Y-140303949D01*
X88189831Y-140174520D01*
X88110903Y-140026855D01*
X88062299Y-139866630D01*
X88045888Y-139700000D01*
X88062299Y-139533370D01*
X88110903Y-139373145D01*
X88189831Y-139225480D01*
X88296051Y-139096051D01*
X88425480Y-138989831D01*
X88573145Y-138910903D01*
X88733370Y-138862299D01*
X88858248Y-138850000D01*
X88941752Y-138850000D01*
X89066630Y-138862299D01*
X89066630Y-138862299D01*
G37*
G36*
X86526630Y-138862299D02*
X86686855Y-138910903D01*
X86834520Y-138989831D01*
X86963949Y-139096051D01*
X87070169Y-139225480D01*
X87149097Y-139373145D01*
X87197701Y-139533370D01*
X87214112Y-139700000D01*
X87197701Y-139866630D01*
X87149097Y-140026855D01*
X87070169Y-140174520D01*
X86963949Y-140303949D01*
X86834520Y-140410169D01*
X86686855Y-140489097D01*
X86526630Y-140537701D01*
X86401752Y-140550000D01*
X86318248Y-140550000D01*
X86193370Y-140537701D01*
X86033145Y-140489097D01*
X85885480Y-140410169D01*
X85756051Y-140303949D01*
X85649831Y-140174520D01*
X85570903Y-140026855D01*
X85522299Y-139866630D01*
X85505888Y-139700000D01*
X85522299Y-139533370D01*
X85570903Y-139373145D01*
X85649831Y-139225480D01*
X85756051Y-139096051D01*
X85885480Y-138989831D01*
X86033145Y-138910903D01*
X86193370Y-138862299D01*
X86318248Y-138850000D01*
X86401752Y-138850000D01*
X86526630Y-138862299D01*
X86526630Y-138862299D01*
G37*
G36*
X83986630Y-138862299D02*
X84146855Y-138910903D01*
X84294520Y-138989831D01*
X84423949Y-139096051D01*
X84530169Y-139225480D01*
X84609097Y-139373145D01*
X84657701Y-139533370D01*
X84674112Y-139700000D01*
X84657701Y-139866630D01*
X84609097Y-140026855D01*
X84530169Y-140174520D01*
X84423949Y-140303949D01*
X84294520Y-140410169D01*
X84146855Y-140489097D01*
X83986630Y-140537701D01*
X83861752Y-140550000D01*
X83778248Y-140550000D01*
X83653370Y-140537701D01*
X83493145Y-140489097D01*
X83345480Y-140410169D01*
X83216051Y-140303949D01*
X83109831Y-140174520D01*
X83030903Y-140026855D01*
X82982299Y-139866630D01*
X82965888Y-139700000D01*
X82982299Y-139533370D01*
X83030903Y-139373145D01*
X83109831Y-139225480D01*
X83216051Y-139096051D01*
X83345480Y-138989831D01*
X83493145Y-138910903D01*
X83653370Y-138862299D01*
X83778248Y-138850000D01*
X83861752Y-138850000D01*
X83986630Y-138862299D01*
X83986630Y-138862299D01*
G37*
G36*
X78906630Y-138862299D02*
X79066855Y-138910903D01*
X79214520Y-138989831D01*
X79343949Y-139096051D01*
X79450169Y-139225480D01*
X79529097Y-139373145D01*
X79577701Y-139533370D01*
X79594112Y-139700000D01*
X79577701Y-139866630D01*
X79529097Y-140026855D01*
X79450169Y-140174520D01*
X79343949Y-140303949D01*
X79214520Y-140410169D01*
X79066855Y-140489097D01*
X78906630Y-140537701D01*
X78781752Y-140550000D01*
X78698248Y-140550000D01*
X78573370Y-140537701D01*
X78413145Y-140489097D01*
X78265480Y-140410169D01*
X78136051Y-140303949D01*
X78029831Y-140174520D01*
X77950903Y-140026855D01*
X77902299Y-139866630D01*
X77885888Y-139700000D01*
X77902299Y-139533370D01*
X77950903Y-139373145D01*
X78029831Y-139225480D01*
X78136051Y-139096051D01*
X78265480Y-138989831D01*
X78413145Y-138910903D01*
X78573370Y-138862299D01*
X78698248Y-138850000D01*
X78781752Y-138850000D01*
X78906630Y-138862299D01*
X78906630Y-138862299D01*
G37*
G36*
X76366630Y-138862299D02*
X76526855Y-138910903D01*
X76674520Y-138989831D01*
X76803949Y-139096051D01*
X76910169Y-139225480D01*
X76989097Y-139373145D01*
X77037701Y-139533370D01*
X77054112Y-139700000D01*
X77037701Y-139866630D01*
X76989097Y-140026855D01*
X76910169Y-140174520D01*
X76803949Y-140303949D01*
X76674520Y-140410169D01*
X76526855Y-140489097D01*
X76366630Y-140537701D01*
X76241752Y-140550000D01*
X76158248Y-140550000D01*
X76033370Y-140537701D01*
X75873145Y-140489097D01*
X75725480Y-140410169D01*
X75596051Y-140303949D01*
X75489831Y-140174520D01*
X75410903Y-140026855D01*
X75362299Y-139866630D01*
X75345888Y-139700000D01*
X75362299Y-139533370D01*
X75410903Y-139373145D01*
X75489831Y-139225480D01*
X75596051Y-139096051D01*
X75725480Y-138989831D01*
X75873145Y-138910903D01*
X76033370Y-138862299D01*
X76158248Y-138850000D01*
X76241752Y-138850000D01*
X76366630Y-138862299D01*
X76366630Y-138862299D01*
G37*
G36*
X73826630Y-138862299D02*
X73986855Y-138910903D01*
X74134520Y-138989831D01*
X74263949Y-139096051D01*
X74370169Y-139225480D01*
X74449097Y-139373145D01*
X74497701Y-139533370D01*
X74514112Y-139700000D01*
X74497701Y-139866630D01*
X74449097Y-140026855D01*
X74370169Y-140174520D01*
X74263949Y-140303949D01*
X74134520Y-140410169D01*
X73986855Y-140489097D01*
X73826630Y-140537701D01*
X73701752Y-140550000D01*
X73618248Y-140550000D01*
X73493370Y-140537701D01*
X73333145Y-140489097D01*
X73185480Y-140410169D01*
X73056051Y-140303949D01*
X72949831Y-140174520D01*
X72870903Y-140026855D01*
X72822299Y-139866630D01*
X72805888Y-139700000D01*
X72822299Y-139533370D01*
X72870903Y-139373145D01*
X72949831Y-139225480D01*
X73056051Y-139096051D01*
X73185480Y-138989831D01*
X73333145Y-138910903D01*
X73493370Y-138862299D01*
X73618248Y-138850000D01*
X73701752Y-138850000D01*
X73826630Y-138862299D01*
X73826630Y-138862299D01*
G37*
G36*
X71286630Y-138862299D02*
X71446855Y-138910903D01*
X71594520Y-138989831D01*
X71723949Y-139096051D01*
X71830169Y-139225480D01*
X71909097Y-139373145D01*
X71957701Y-139533370D01*
X71974112Y-139700000D01*
X71957701Y-139866630D01*
X71909097Y-140026855D01*
X71830169Y-140174520D01*
X71723949Y-140303949D01*
X71594520Y-140410169D01*
X71446855Y-140489097D01*
X71286630Y-140537701D01*
X71161752Y-140550000D01*
X71078248Y-140550000D01*
X70953370Y-140537701D01*
X70793145Y-140489097D01*
X70645480Y-140410169D01*
X70516051Y-140303949D01*
X70409831Y-140174520D01*
X70330903Y-140026855D01*
X70282299Y-139866630D01*
X70265888Y-139700000D01*
X70282299Y-139533370D01*
X70330903Y-139373145D01*
X70409831Y-139225480D01*
X70516051Y-139096051D01*
X70645480Y-138989831D01*
X70793145Y-138910903D01*
X70953370Y-138862299D01*
X71078248Y-138850000D01*
X71161752Y-138850000D01*
X71286630Y-138862299D01*
X71286630Y-138862299D01*
G37*
G36*
X68746630Y-138862299D02*
X68906855Y-138910903D01*
X69054520Y-138989831D01*
X69183949Y-139096051D01*
X69290169Y-139225480D01*
X69369097Y-139373145D01*
X69417701Y-139533370D01*
X69434112Y-139700000D01*
X69417701Y-139866630D01*
X69369097Y-140026855D01*
X69290169Y-140174520D01*
X69183949Y-140303949D01*
X69054520Y-140410169D01*
X68906855Y-140489097D01*
X68746630Y-140537701D01*
X68621752Y-140550000D01*
X68538248Y-140550000D01*
X68413370Y-140537701D01*
X68253145Y-140489097D01*
X68105480Y-140410169D01*
X67976051Y-140303949D01*
X67869831Y-140174520D01*
X67790903Y-140026855D01*
X67742299Y-139866630D01*
X67725888Y-139700000D01*
X67742299Y-139533370D01*
X67790903Y-139373145D01*
X67869831Y-139225480D01*
X67976051Y-139096051D01*
X68105480Y-138989831D01*
X68253145Y-138910903D01*
X68413370Y-138862299D01*
X68538248Y-138850000D01*
X68621752Y-138850000D01*
X68746630Y-138862299D01*
X68746630Y-138862299D01*
G37*
G36*
X66890000Y-140550000D02*
X65190000Y-140550000D01*
X65190000Y-138850000D01*
X66890000Y-138850000D01*
X66890000Y-140550000D01*
X66890000Y-140550000D01*
G37*
G36*
X81446630Y-138862299D02*
X81606855Y-138910903D01*
X81754520Y-138989831D01*
X81883949Y-139096051D01*
X81990169Y-139225480D01*
X82069097Y-139373145D01*
X82117701Y-139533370D01*
X82134112Y-139700000D01*
X82117701Y-139866630D01*
X82069097Y-140026855D01*
X81990169Y-140174520D01*
X81883949Y-140303949D01*
X81754520Y-140410169D01*
X81606855Y-140489097D01*
X81446630Y-140537701D01*
X81321752Y-140550000D01*
X81238248Y-140550000D01*
X81113370Y-140537701D01*
X80953145Y-140489097D01*
X80805480Y-140410169D01*
X80676051Y-140303949D01*
X80569831Y-140174520D01*
X80490903Y-140026855D01*
X80442299Y-139866630D01*
X80425888Y-139700000D01*
X80442299Y-139533370D01*
X80490903Y-139373145D01*
X80569831Y-139225480D01*
X80676051Y-139096051D01*
X80805480Y-138989831D01*
X80953145Y-138910903D01*
X81113370Y-138862299D01*
X81238248Y-138850000D01*
X81321752Y-138850000D01*
X81446630Y-138862299D01*
X81446630Y-138862299D01*
G37*
G36*
X130072770Y-136313691D02*
X130405172Y-136451376D01*
X130704326Y-136651265D01*
X130958735Y-136905674D01*
X131158624Y-137204828D01*
X131296309Y-137537230D01*
X131366500Y-137890105D01*
X131366500Y-138249895D01*
X131296309Y-138602770D01*
X131158624Y-138935172D01*
X130958735Y-139234326D01*
X130704326Y-139488735D01*
X130405172Y-139688624D01*
X130072770Y-139826309D01*
X129719895Y-139896500D01*
X129360105Y-139896500D01*
X129007230Y-139826309D01*
X128674828Y-139688624D01*
X128375674Y-139488735D01*
X128121265Y-139234326D01*
X127921376Y-138935172D01*
X127783691Y-138602770D01*
X127713500Y-138249895D01*
X127713500Y-137890105D01*
X127783691Y-137537230D01*
X127921376Y-137204828D01*
X128121265Y-136905674D01*
X128375674Y-136651265D01*
X128674828Y-136451376D01*
X129007230Y-136313691D01*
X129360105Y-136243500D01*
X129719895Y-136243500D01*
X130072770Y-136313691D01*
X130072770Y-136313691D01*
G37*
G36*
X63759601Y-136304202D02*
X63921574Y-136371293D01*
X64067345Y-136468694D01*
X64191306Y-136592655D01*
X64288707Y-136738426D01*
X64355798Y-136900399D01*
X64390000Y-137072341D01*
X64390000Y-137247659D01*
X64355798Y-137419601D01*
X64288707Y-137581574D01*
X64191306Y-137727345D01*
X64067345Y-137851306D01*
X63921574Y-137948707D01*
X63759601Y-138015798D01*
X63587659Y-138050000D01*
X63412341Y-138050000D01*
X63240399Y-138015798D01*
X63078426Y-137948707D01*
X62932655Y-137851306D01*
X62808694Y-137727345D01*
X62711293Y-137581574D01*
X62644202Y-137419601D01*
X62610000Y-137247659D01*
X62610000Y-137072341D01*
X62644202Y-136900399D01*
X62711293Y-136738426D01*
X62808694Y-136592655D01*
X62932655Y-136468694D01*
X63078426Y-136371293D01*
X63240399Y-136304202D01*
X63412341Y-136270000D01*
X63587659Y-136270000D01*
X63759601Y-136304202D01*
X63759601Y-136304202D01*
G37*
G36*
X104399601Y-136304202D02*
X104561574Y-136371293D01*
X104707345Y-136468694D01*
X104831306Y-136592655D01*
X104928707Y-136738426D01*
X104995798Y-136900399D01*
X105030000Y-137072341D01*
X105030000Y-137247659D01*
X104995798Y-137419601D01*
X104928707Y-137581574D01*
X104831306Y-137727345D01*
X104707345Y-137851306D01*
X104561574Y-137948707D01*
X104399601Y-138015798D01*
X104227659Y-138050000D01*
X104052341Y-138050000D01*
X103880399Y-138015798D01*
X103718426Y-137948707D01*
X103572655Y-137851306D01*
X103448694Y-137727345D01*
X103351293Y-137581574D01*
X103284202Y-137419601D01*
X103250000Y-137247659D01*
X103250000Y-137072341D01*
X103284202Y-136900399D01*
X103351293Y-136738426D01*
X103448694Y-136592655D01*
X103572655Y-136468694D01*
X103718426Y-136371293D01*
X103880399Y-136304202D01*
X104052341Y-136270000D01*
X104227659Y-136270000D01*
X104399601Y-136304202D01*
X104399601Y-136304202D01*
G37*
G36*
X66157649Y-136367717D02*
X66196827Y-136371576D01*
X66272228Y-136394449D01*
X66347629Y-136417321D01*
X66486608Y-136491608D01*
X66608422Y-136591578D01*
X66708392Y-136713392D01*
X66782679Y-136852371D01*
X66828424Y-137003174D01*
X66843870Y-137160000D01*
X66828424Y-137316826D01*
X66782679Y-137467629D01*
X66708392Y-137606608D01*
X66608422Y-137728422D01*
X66486608Y-137828392D01*
X66347629Y-137902679D01*
X66272228Y-137925551D01*
X66196827Y-137948424D01*
X66157649Y-137952283D01*
X66079295Y-137960000D01*
X66000705Y-137960000D01*
X65922351Y-137952283D01*
X65883173Y-137948424D01*
X65807772Y-137925551D01*
X65732371Y-137902679D01*
X65593392Y-137828392D01*
X65471578Y-137728422D01*
X65371608Y-137606608D01*
X65297321Y-137467629D01*
X65251576Y-137316826D01*
X65236130Y-137160000D01*
X65251576Y-137003174D01*
X65297321Y-136852371D01*
X65371608Y-136713392D01*
X65471578Y-136591578D01*
X65593392Y-136491608D01*
X65732371Y-136417321D01*
X65807772Y-136394449D01*
X65883173Y-136371576D01*
X65922351Y-136367717D01*
X66000705Y-136360000D01*
X66079295Y-136360000D01*
X66157649Y-136367717D01*
X66157649Y-136367717D01*
G37*
G36*
X101717649Y-136367717D02*
X101756827Y-136371576D01*
X101832228Y-136394449D01*
X101907629Y-136417321D01*
X102046608Y-136491608D01*
X102168422Y-136591578D01*
X102268392Y-136713392D01*
X102342679Y-136852371D01*
X102388424Y-137003174D01*
X102403870Y-137160000D01*
X102388424Y-137316826D01*
X102342679Y-137467629D01*
X102268392Y-137606608D01*
X102168422Y-137728422D01*
X102046608Y-137828392D01*
X101907629Y-137902679D01*
X101832227Y-137925552D01*
X101756827Y-137948424D01*
X101717649Y-137952283D01*
X101639295Y-137960000D01*
X101560705Y-137960000D01*
X101482351Y-137952283D01*
X101443173Y-137948424D01*
X101367772Y-137925551D01*
X101292371Y-137902679D01*
X101153392Y-137828392D01*
X101031578Y-137728422D01*
X100931608Y-137606608D01*
X100857321Y-137467629D01*
X100811576Y-137316826D01*
X100796130Y-137160000D01*
X100811576Y-137003174D01*
X100857321Y-136852371D01*
X100931608Y-136713392D01*
X101031578Y-136591578D01*
X101153392Y-136491608D01*
X101292371Y-136417321D01*
X101367772Y-136394449D01*
X101443173Y-136371576D01*
X101482351Y-136367717D01*
X101560705Y-136360000D01*
X101639295Y-136360000D01*
X101717649Y-136367717D01*
X101717649Y-136367717D01*
G37*
G36*
X99177649Y-136367717D02*
X99216827Y-136371576D01*
X99292228Y-136394449D01*
X99367629Y-136417321D01*
X99506608Y-136491608D01*
X99628422Y-136591578D01*
X99728392Y-136713392D01*
X99802679Y-136852371D01*
X99848424Y-137003174D01*
X99863870Y-137160000D01*
X99848424Y-137316826D01*
X99802679Y-137467629D01*
X99728392Y-137606608D01*
X99628422Y-137728422D01*
X99506608Y-137828392D01*
X99367629Y-137902679D01*
X99292227Y-137925552D01*
X99216827Y-137948424D01*
X99177649Y-137952283D01*
X99099295Y-137960000D01*
X99020705Y-137960000D01*
X98942351Y-137952283D01*
X98903173Y-137948424D01*
X98827772Y-137925551D01*
X98752371Y-137902679D01*
X98613392Y-137828392D01*
X98491578Y-137728422D01*
X98391608Y-137606608D01*
X98317321Y-137467629D01*
X98271576Y-137316826D01*
X98256130Y-137160000D01*
X98271576Y-137003174D01*
X98317321Y-136852371D01*
X98391608Y-136713392D01*
X98491578Y-136591578D01*
X98613392Y-136491608D01*
X98752371Y-136417321D01*
X98827772Y-136394449D01*
X98903173Y-136371576D01*
X98942351Y-136367717D01*
X99020705Y-136360000D01*
X99099295Y-136360000D01*
X99177649Y-136367717D01*
X99177649Y-136367717D01*
G37*
G36*
X96637649Y-136367717D02*
X96676827Y-136371576D01*
X96752228Y-136394449D01*
X96827629Y-136417321D01*
X96966608Y-136491608D01*
X97088422Y-136591578D01*
X97188392Y-136713392D01*
X97262679Y-136852371D01*
X97308424Y-137003174D01*
X97323870Y-137160000D01*
X97308424Y-137316826D01*
X97262679Y-137467629D01*
X97188392Y-137606608D01*
X97088422Y-137728422D01*
X96966608Y-137828392D01*
X96827629Y-137902679D01*
X96752227Y-137925552D01*
X96676827Y-137948424D01*
X96637649Y-137952283D01*
X96559295Y-137960000D01*
X96480705Y-137960000D01*
X96402351Y-137952283D01*
X96363173Y-137948424D01*
X96287772Y-137925551D01*
X96212371Y-137902679D01*
X96073392Y-137828392D01*
X95951578Y-137728422D01*
X95851608Y-137606608D01*
X95777321Y-137467629D01*
X95731576Y-137316826D01*
X95716130Y-137160000D01*
X95731576Y-137003174D01*
X95777321Y-136852371D01*
X95851608Y-136713392D01*
X95951578Y-136591578D01*
X96073392Y-136491608D01*
X96212371Y-136417321D01*
X96287772Y-136394449D01*
X96363173Y-136371576D01*
X96402351Y-136367717D01*
X96480705Y-136360000D01*
X96559295Y-136360000D01*
X96637649Y-136367717D01*
X96637649Y-136367717D01*
G37*
G36*
X91557649Y-136367717D02*
X91596827Y-136371576D01*
X91672228Y-136394449D01*
X91747629Y-136417321D01*
X91886608Y-136491608D01*
X92008422Y-136591578D01*
X92108392Y-136713392D01*
X92182679Y-136852371D01*
X92228424Y-137003174D01*
X92243870Y-137160000D01*
X92228424Y-137316826D01*
X92182679Y-137467629D01*
X92108392Y-137606608D01*
X92008422Y-137728422D01*
X91886608Y-137828392D01*
X91747629Y-137902679D01*
X91672227Y-137925552D01*
X91596827Y-137948424D01*
X91557649Y-137952283D01*
X91479295Y-137960000D01*
X91400705Y-137960000D01*
X91322351Y-137952283D01*
X91283173Y-137948424D01*
X91207772Y-137925551D01*
X91132371Y-137902679D01*
X90993392Y-137828392D01*
X90871578Y-137728422D01*
X90771608Y-137606608D01*
X90697321Y-137467629D01*
X90651576Y-137316826D01*
X90636130Y-137160000D01*
X90651576Y-137003174D01*
X90697321Y-136852371D01*
X90771608Y-136713392D01*
X90871578Y-136591578D01*
X90993392Y-136491608D01*
X91132371Y-136417321D01*
X91207772Y-136394449D01*
X91283173Y-136371576D01*
X91322351Y-136367717D01*
X91400705Y-136360000D01*
X91479295Y-136360000D01*
X91557649Y-136367717D01*
X91557649Y-136367717D01*
G37*
G36*
X89017649Y-136367717D02*
X89056827Y-136371576D01*
X89132228Y-136394449D01*
X89207629Y-136417321D01*
X89346608Y-136491608D01*
X89468422Y-136591578D01*
X89568392Y-136713392D01*
X89642679Y-136852371D01*
X89688424Y-137003174D01*
X89703870Y-137160000D01*
X89688424Y-137316826D01*
X89642679Y-137467629D01*
X89568392Y-137606608D01*
X89468422Y-137728422D01*
X89346608Y-137828392D01*
X89207629Y-137902679D01*
X89132227Y-137925552D01*
X89056827Y-137948424D01*
X89017649Y-137952283D01*
X88939295Y-137960000D01*
X88860705Y-137960000D01*
X88782351Y-137952283D01*
X88743173Y-137948424D01*
X88667772Y-137925551D01*
X88592371Y-137902679D01*
X88453392Y-137828392D01*
X88331578Y-137728422D01*
X88231608Y-137606608D01*
X88157321Y-137467629D01*
X88111576Y-137316826D01*
X88096130Y-137160000D01*
X88111576Y-137003174D01*
X88157321Y-136852371D01*
X88231608Y-136713392D01*
X88331578Y-136591578D01*
X88453392Y-136491608D01*
X88592371Y-136417321D01*
X88667772Y-136394449D01*
X88743173Y-136371576D01*
X88782351Y-136367717D01*
X88860705Y-136360000D01*
X88939295Y-136360000D01*
X89017649Y-136367717D01*
X89017649Y-136367717D01*
G37*
G36*
X86477649Y-136367717D02*
X86516827Y-136371576D01*
X86592228Y-136394449D01*
X86667629Y-136417321D01*
X86806608Y-136491608D01*
X86928422Y-136591578D01*
X87028392Y-136713392D01*
X87102679Y-136852371D01*
X87148424Y-137003174D01*
X87163870Y-137160000D01*
X87148424Y-137316826D01*
X87102679Y-137467629D01*
X87028392Y-137606608D01*
X86928422Y-137728422D01*
X86806608Y-137828392D01*
X86667629Y-137902679D01*
X86592227Y-137925552D01*
X86516827Y-137948424D01*
X86477649Y-137952283D01*
X86399295Y-137960000D01*
X86320705Y-137960000D01*
X86242351Y-137952283D01*
X86203173Y-137948424D01*
X86127772Y-137925551D01*
X86052371Y-137902679D01*
X85913392Y-137828392D01*
X85791578Y-137728422D01*
X85691608Y-137606608D01*
X85617321Y-137467629D01*
X85571576Y-137316826D01*
X85556130Y-137160000D01*
X85571576Y-137003174D01*
X85617321Y-136852371D01*
X85691608Y-136713392D01*
X85791578Y-136591578D01*
X85913392Y-136491608D01*
X86052371Y-136417321D01*
X86127772Y-136394449D01*
X86203173Y-136371576D01*
X86242351Y-136367717D01*
X86320705Y-136360000D01*
X86399295Y-136360000D01*
X86477649Y-136367717D01*
X86477649Y-136367717D01*
G37*
G36*
X83937649Y-136367717D02*
X83976827Y-136371576D01*
X84052228Y-136394449D01*
X84127629Y-136417321D01*
X84266608Y-136491608D01*
X84388422Y-136591578D01*
X84488392Y-136713392D01*
X84562679Y-136852371D01*
X84608424Y-137003174D01*
X84623870Y-137160000D01*
X84608424Y-137316826D01*
X84562679Y-137467629D01*
X84488392Y-137606608D01*
X84388422Y-137728422D01*
X84266608Y-137828392D01*
X84127629Y-137902679D01*
X84052227Y-137925552D01*
X83976827Y-137948424D01*
X83937649Y-137952283D01*
X83859295Y-137960000D01*
X83780705Y-137960000D01*
X83702351Y-137952283D01*
X83663173Y-137948424D01*
X83587772Y-137925551D01*
X83512371Y-137902679D01*
X83373392Y-137828392D01*
X83251578Y-137728422D01*
X83151608Y-137606608D01*
X83077321Y-137467629D01*
X83031576Y-137316826D01*
X83016130Y-137160000D01*
X83031576Y-137003174D01*
X83077321Y-136852371D01*
X83151608Y-136713392D01*
X83251578Y-136591578D01*
X83373392Y-136491608D01*
X83512371Y-136417321D01*
X83587772Y-136394449D01*
X83663173Y-136371576D01*
X83702351Y-136367717D01*
X83780705Y-136360000D01*
X83859295Y-136360000D01*
X83937649Y-136367717D01*
X83937649Y-136367717D01*
G37*
G36*
X78857649Y-136367717D02*
X78896827Y-136371576D01*
X78972228Y-136394449D01*
X79047629Y-136417321D01*
X79186608Y-136491608D01*
X79308422Y-136591578D01*
X79408392Y-136713392D01*
X79482679Y-136852371D01*
X79528424Y-137003174D01*
X79543870Y-137160000D01*
X79528424Y-137316826D01*
X79482679Y-137467629D01*
X79408392Y-137606608D01*
X79308422Y-137728422D01*
X79186608Y-137828392D01*
X79047629Y-137902679D01*
X78972228Y-137925551D01*
X78896827Y-137948424D01*
X78857649Y-137952283D01*
X78779295Y-137960000D01*
X78700705Y-137960000D01*
X78622351Y-137952283D01*
X78583173Y-137948424D01*
X78507772Y-137925551D01*
X78432371Y-137902679D01*
X78293392Y-137828392D01*
X78171578Y-137728422D01*
X78071608Y-137606608D01*
X77997321Y-137467629D01*
X77951576Y-137316826D01*
X77936130Y-137160000D01*
X77951576Y-137003174D01*
X77997321Y-136852371D01*
X78071608Y-136713392D01*
X78171578Y-136591578D01*
X78293392Y-136491608D01*
X78432371Y-136417321D01*
X78507772Y-136394449D01*
X78583173Y-136371576D01*
X78622351Y-136367717D01*
X78700705Y-136360000D01*
X78779295Y-136360000D01*
X78857649Y-136367717D01*
X78857649Y-136367717D01*
G37*
G36*
X76317649Y-136367717D02*
X76356827Y-136371576D01*
X76432228Y-136394449D01*
X76507629Y-136417321D01*
X76646608Y-136491608D01*
X76768422Y-136591578D01*
X76868392Y-136713392D01*
X76942679Y-136852371D01*
X76988424Y-137003174D01*
X77003870Y-137160000D01*
X76988424Y-137316826D01*
X76942679Y-137467629D01*
X76868392Y-137606608D01*
X76768422Y-137728422D01*
X76646608Y-137828392D01*
X76507629Y-137902679D01*
X76432228Y-137925551D01*
X76356827Y-137948424D01*
X76317649Y-137952283D01*
X76239295Y-137960000D01*
X76160705Y-137960000D01*
X76082351Y-137952283D01*
X76043173Y-137948424D01*
X75967772Y-137925551D01*
X75892371Y-137902679D01*
X75753392Y-137828392D01*
X75631578Y-137728422D01*
X75531608Y-137606608D01*
X75457321Y-137467629D01*
X75411576Y-137316826D01*
X75396130Y-137160000D01*
X75411576Y-137003174D01*
X75457321Y-136852371D01*
X75531608Y-136713392D01*
X75631578Y-136591578D01*
X75753392Y-136491608D01*
X75892371Y-136417321D01*
X75967772Y-136394449D01*
X76043173Y-136371576D01*
X76082351Y-136367717D01*
X76160705Y-136360000D01*
X76239295Y-136360000D01*
X76317649Y-136367717D01*
X76317649Y-136367717D01*
G37*
G36*
X73777649Y-136367717D02*
X73816827Y-136371576D01*
X73892228Y-136394449D01*
X73967629Y-136417321D01*
X74106608Y-136491608D01*
X74228422Y-136591578D01*
X74328392Y-136713392D01*
X74402679Y-136852371D01*
X74448424Y-137003174D01*
X74463870Y-137160000D01*
X74448424Y-137316826D01*
X74402679Y-137467629D01*
X74328392Y-137606608D01*
X74228422Y-137728422D01*
X74106608Y-137828392D01*
X73967629Y-137902679D01*
X73892228Y-137925551D01*
X73816827Y-137948424D01*
X73777649Y-137952283D01*
X73699295Y-137960000D01*
X73620705Y-137960000D01*
X73542351Y-137952283D01*
X73503173Y-137948424D01*
X73427772Y-137925551D01*
X73352371Y-137902679D01*
X73213392Y-137828392D01*
X73091578Y-137728422D01*
X72991608Y-137606608D01*
X72917321Y-137467629D01*
X72871576Y-137316826D01*
X72856130Y-137160000D01*
X72871576Y-137003174D01*
X72917321Y-136852371D01*
X72991608Y-136713392D01*
X73091578Y-136591578D01*
X73213392Y-136491608D01*
X73352371Y-136417321D01*
X73427772Y-136394449D01*
X73503173Y-136371576D01*
X73542351Y-136367717D01*
X73620705Y-136360000D01*
X73699295Y-136360000D01*
X73777649Y-136367717D01*
X73777649Y-136367717D01*
G37*
G36*
X71237649Y-136367717D02*
X71276827Y-136371576D01*
X71352228Y-136394449D01*
X71427629Y-136417321D01*
X71566608Y-136491608D01*
X71688422Y-136591578D01*
X71788392Y-136713392D01*
X71862679Y-136852371D01*
X71908424Y-137003174D01*
X71923870Y-137160000D01*
X71908424Y-137316826D01*
X71862679Y-137467629D01*
X71788392Y-137606608D01*
X71688422Y-137728422D01*
X71566608Y-137828392D01*
X71427629Y-137902679D01*
X71352228Y-137925551D01*
X71276827Y-137948424D01*
X71237649Y-137952283D01*
X71159295Y-137960000D01*
X71080705Y-137960000D01*
X71002351Y-137952283D01*
X70963173Y-137948424D01*
X70887772Y-137925551D01*
X70812371Y-137902679D01*
X70673392Y-137828392D01*
X70551578Y-137728422D01*
X70451608Y-137606608D01*
X70377321Y-137467629D01*
X70331576Y-137316826D01*
X70316130Y-137160000D01*
X70331576Y-137003174D01*
X70377321Y-136852371D01*
X70451608Y-136713392D01*
X70551578Y-136591578D01*
X70673392Y-136491608D01*
X70812371Y-136417321D01*
X70887772Y-136394449D01*
X70963173Y-136371576D01*
X71002351Y-136367717D01*
X71080705Y-136360000D01*
X71159295Y-136360000D01*
X71237649Y-136367717D01*
X71237649Y-136367717D01*
G37*
G36*
X68697649Y-136367717D02*
X68736827Y-136371576D01*
X68812228Y-136394449D01*
X68887629Y-136417321D01*
X69026608Y-136491608D01*
X69148422Y-136591578D01*
X69248392Y-136713392D01*
X69322679Y-136852371D01*
X69368424Y-137003174D01*
X69383870Y-137160000D01*
X69368424Y-137316826D01*
X69322679Y-137467629D01*
X69248392Y-137606608D01*
X69148422Y-137728422D01*
X69026608Y-137828392D01*
X68887629Y-137902679D01*
X68812228Y-137925551D01*
X68736827Y-137948424D01*
X68697649Y-137952283D01*
X68619295Y-137960000D01*
X68540705Y-137960000D01*
X68462351Y-137952283D01*
X68423173Y-137948424D01*
X68347772Y-137925551D01*
X68272371Y-137902679D01*
X68133392Y-137828392D01*
X68011578Y-137728422D01*
X67911608Y-137606608D01*
X67837321Y-137467629D01*
X67791576Y-137316826D01*
X67776130Y-137160000D01*
X67791576Y-137003174D01*
X67837321Y-136852371D01*
X67911608Y-136713392D01*
X68011578Y-136591578D01*
X68133392Y-136491608D01*
X68272371Y-136417321D01*
X68347772Y-136394449D01*
X68423173Y-136371576D01*
X68462351Y-136367717D01*
X68540705Y-136360000D01*
X68619295Y-136360000D01*
X68697649Y-136367717D01*
X68697649Y-136367717D01*
G37*
G36*
X94097649Y-136367717D02*
X94136827Y-136371576D01*
X94212228Y-136394449D01*
X94287629Y-136417321D01*
X94426608Y-136491608D01*
X94548422Y-136591578D01*
X94648392Y-136713392D01*
X94722679Y-136852371D01*
X94768424Y-137003174D01*
X94783870Y-137160000D01*
X94768424Y-137316826D01*
X94722679Y-137467629D01*
X94648392Y-137606608D01*
X94548422Y-137728422D01*
X94426608Y-137828392D01*
X94287629Y-137902679D01*
X94212227Y-137925552D01*
X94136827Y-137948424D01*
X94097649Y-137952283D01*
X94019295Y-137960000D01*
X93940705Y-137960000D01*
X93862351Y-137952283D01*
X93823173Y-137948424D01*
X93747772Y-137925551D01*
X93672371Y-137902679D01*
X93533392Y-137828392D01*
X93411578Y-137728422D01*
X93311608Y-137606608D01*
X93237321Y-137467629D01*
X93191576Y-137316826D01*
X93176130Y-137160000D01*
X93191576Y-137003174D01*
X93237321Y-136852371D01*
X93311608Y-136713392D01*
X93411578Y-136591578D01*
X93533392Y-136491608D01*
X93672371Y-136417321D01*
X93747772Y-136394449D01*
X93823173Y-136371576D01*
X93862351Y-136367717D01*
X93940705Y-136360000D01*
X94019295Y-136360000D01*
X94097649Y-136367717D01*
X94097649Y-136367717D01*
G37*
G36*
X81397649Y-136367717D02*
X81436827Y-136371576D01*
X81512228Y-136394449D01*
X81587629Y-136417321D01*
X81726608Y-136491608D01*
X81848422Y-136591578D01*
X81948392Y-136713392D01*
X82022679Y-136852371D01*
X82068424Y-137003174D01*
X82083870Y-137160000D01*
X82068424Y-137316826D01*
X82022679Y-137467629D01*
X81948392Y-137606608D01*
X81848422Y-137728422D01*
X81726608Y-137828392D01*
X81587629Y-137902679D01*
X81512228Y-137925551D01*
X81436827Y-137948424D01*
X81397649Y-137952283D01*
X81319295Y-137960000D01*
X81240705Y-137960000D01*
X81162351Y-137952283D01*
X81123173Y-137948424D01*
X81047772Y-137925551D01*
X80972371Y-137902679D01*
X80833392Y-137828392D01*
X80711578Y-137728422D01*
X80611608Y-137606608D01*
X80537321Y-137467629D01*
X80491576Y-137316826D01*
X80476130Y-137160000D01*
X80491576Y-137003174D01*
X80537321Y-136852371D01*
X80611608Y-136713392D01*
X80711578Y-136591578D01*
X80833392Y-136491608D01*
X80972371Y-136417321D01*
X81047772Y-136394449D01*
X81123173Y-136371576D01*
X81162351Y-136367717D01*
X81240705Y-136360000D01*
X81319295Y-136360000D01*
X81397649Y-136367717D01*
X81397649Y-136367717D01*
G37*
G36*
X110320000Y-130640000D02*
X108120000Y-130640000D01*
X108120000Y-128440000D01*
X110320000Y-128440000D01*
X110320000Y-130640000D01*
X110320000Y-130640000D01*
G37*
G36*
X134737649Y-128747717D02*
X134776827Y-128751576D01*
X134840012Y-128770743D01*
X134927629Y-128797321D01*
X135066608Y-128871608D01*
X135188422Y-128971578D01*
X135288392Y-129093392D01*
X135362679Y-129232371D01*
X135408424Y-129383174D01*
X135423870Y-129540000D01*
X135408424Y-129696826D01*
X135362679Y-129847629D01*
X135288392Y-129986608D01*
X135188422Y-130108422D01*
X135066608Y-130208392D01*
X134927629Y-130282679D01*
X134852227Y-130305552D01*
X134776827Y-130328424D01*
X134737649Y-130332283D01*
X134659295Y-130340000D01*
X134580705Y-130340000D01*
X134502351Y-130332283D01*
X134463173Y-130328424D01*
X134387772Y-130305551D01*
X134312371Y-130282679D01*
X134173392Y-130208392D01*
X134051578Y-130108422D01*
X133951608Y-129986608D01*
X133877321Y-129847629D01*
X133831576Y-129696826D01*
X133816130Y-129540000D01*
X133831576Y-129383174D01*
X133877321Y-129232371D01*
X133951608Y-129093392D01*
X134051578Y-128971578D01*
X134173392Y-128871608D01*
X134312371Y-128797321D01*
X134399988Y-128770743D01*
X134463173Y-128751576D01*
X134502351Y-128747717D01*
X134580705Y-128740000D01*
X134659295Y-128740000D01*
X134737649Y-128747717D01*
X134737649Y-128747717D01*
G37*
G36*
X137393352Y-128770743D02*
X137538941Y-128831048D01*
X137669973Y-128918601D01*
X137781399Y-129030027D01*
X137868952Y-129161059D01*
X137929257Y-129306648D01*
X137960000Y-129461205D01*
X137960000Y-129618795D01*
X137929257Y-129773352D01*
X137868952Y-129918941D01*
X137781399Y-130049973D01*
X137669973Y-130161399D01*
X137538941Y-130248952D01*
X137393352Y-130309257D01*
X137238795Y-130340000D01*
X137081205Y-130340000D01*
X136926648Y-130309257D01*
X136781059Y-130248952D01*
X136650027Y-130161399D01*
X136538601Y-130049973D01*
X136451048Y-129918941D01*
X136390743Y-129773352D01*
X136360000Y-129618795D01*
X136360000Y-129461205D01*
X136390743Y-129306648D01*
X136451048Y-129161059D01*
X136538601Y-129030027D01*
X136650027Y-128918601D01*
X136781059Y-128831048D01*
X136926648Y-128770743D01*
X137081205Y-128740000D01*
X137238795Y-128740000D01*
X137393352Y-128770743D01*
X137393352Y-128770743D01*
G37*
G36*
X122037649Y-126207717D02*
X122076827Y-126211576D01*
X122152228Y-126234449D01*
X122227629Y-126257321D01*
X122366608Y-126331608D01*
X122488422Y-126431578D01*
X122588392Y-126553392D01*
X122662679Y-126692371D01*
X122708424Y-126843174D01*
X122723870Y-127000000D01*
X122708424Y-127156826D01*
X122662679Y-127307629D01*
X122588392Y-127446608D01*
X122488422Y-127568422D01*
X122366608Y-127668392D01*
X122227629Y-127742679D01*
X122152228Y-127765551D01*
X122076827Y-127788424D01*
X122037649Y-127792283D01*
X121959295Y-127800000D01*
X121880705Y-127800000D01*
X121802351Y-127792283D01*
X121763173Y-127788424D01*
X121687773Y-127765552D01*
X121612371Y-127742679D01*
X121473392Y-127668392D01*
X121351578Y-127568422D01*
X121251608Y-127446608D01*
X121177321Y-127307629D01*
X121131576Y-127156826D01*
X121116130Y-127000000D01*
X121131576Y-126843174D01*
X121177321Y-126692371D01*
X121251608Y-126553392D01*
X121351578Y-126431578D01*
X121473392Y-126331608D01*
X121612371Y-126257321D01*
X121687772Y-126234449D01*
X121763173Y-126211576D01*
X121802351Y-126207717D01*
X121880705Y-126200000D01*
X121959295Y-126200000D01*
X122037649Y-126207717D01*
X122037649Y-126207717D01*
G37*
G36*
X116957649Y-126207717D02*
X116996827Y-126211576D01*
X117072228Y-126234449D01*
X117147629Y-126257321D01*
X117286608Y-126331608D01*
X117408422Y-126431578D01*
X117508392Y-126553392D01*
X117582679Y-126692371D01*
X117628424Y-126843174D01*
X117643870Y-127000000D01*
X117628424Y-127156826D01*
X117582679Y-127307629D01*
X117508392Y-127446608D01*
X117408422Y-127568422D01*
X117286608Y-127668392D01*
X117147629Y-127742679D01*
X117072228Y-127765551D01*
X116996827Y-127788424D01*
X116957649Y-127792283D01*
X116879295Y-127800000D01*
X116800705Y-127800000D01*
X116722351Y-127792283D01*
X116683173Y-127788424D01*
X116607773Y-127765552D01*
X116532371Y-127742679D01*
X116393392Y-127668392D01*
X116271578Y-127568422D01*
X116171608Y-127446608D01*
X116097321Y-127307629D01*
X116051576Y-127156826D01*
X116036130Y-127000000D01*
X116051576Y-126843174D01*
X116097321Y-126692371D01*
X116171608Y-126553392D01*
X116271578Y-126431578D01*
X116393392Y-126331608D01*
X116532371Y-126257321D01*
X116607772Y-126234449D01*
X116683173Y-126211576D01*
X116722351Y-126207717D01*
X116800705Y-126200000D01*
X116879295Y-126200000D01*
X116957649Y-126207717D01*
X116957649Y-126207717D01*
G37*
G36*
X129657649Y-126207717D02*
X129696827Y-126211576D01*
X129772228Y-126234449D01*
X129847629Y-126257321D01*
X129986608Y-126331608D01*
X130108422Y-126431578D01*
X130208392Y-126553392D01*
X130282679Y-126692371D01*
X130328424Y-126843174D01*
X130343870Y-127000000D01*
X130328424Y-127156826D01*
X130282679Y-127307629D01*
X130208392Y-127446608D01*
X130108422Y-127568422D01*
X129986608Y-127668392D01*
X129847629Y-127742679D01*
X129772228Y-127765551D01*
X129696827Y-127788424D01*
X129657649Y-127792283D01*
X129579295Y-127800000D01*
X129500705Y-127800000D01*
X129422351Y-127792283D01*
X129383173Y-127788424D01*
X129307773Y-127765552D01*
X129232371Y-127742679D01*
X129093392Y-127668392D01*
X128971578Y-127568422D01*
X128871608Y-127446608D01*
X128797321Y-127307629D01*
X128751576Y-127156826D01*
X128736130Y-127000000D01*
X128751576Y-126843174D01*
X128797321Y-126692371D01*
X128871608Y-126553392D01*
X128971578Y-126431578D01*
X129093392Y-126331608D01*
X129232371Y-126257321D01*
X129307772Y-126234449D01*
X129383173Y-126211576D01*
X129422351Y-126207717D01*
X129500705Y-126200000D01*
X129579295Y-126200000D01*
X129657649Y-126207717D01*
X129657649Y-126207717D01*
G37*
G36*
X129657649Y-123667717D02*
X129696827Y-123671576D01*
X129772228Y-123694449D01*
X129847629Y-123717321D01*
X129986608Y-123791608D01*
X130108422Y-123891578D01*
X130208392Y-124013392D01*
X130282679Y-124152371D01*
X130328424Y-124303174D01*
X130343870Y-124460000D01*
X130328424Y-124616826D01*
X130282679Y-124767629D01*
X130208392Y-124906608D01*
X130108422Y-125028422D01*
X129986608Y-125128392D01*
X129847629Y-125202679D01*
X129772228Y-125225551D01*
X129696827Y-125248424D01*
X129657649Y-125252283D01*
X129579295Y-125260000D01*
X129500705Y-125260000D01*
X129422351Y-125252283D01*
X129383173Y-125248424D01*
X129307773Y-125225552D01*
X129232371Y-125202679D01*
X129093392Y-125128392D01*
X128971578Y-125028422D01*
X128871608Y-124906608D01*
X128797321Y-124767629D01*
X128751576Y-124616826D01*
X128736130Y-124460000D01*
X128751576Y-124303174D01*
X128797321Y-124152371D01*
X128871608Y-124013392D01*
X128971578Y-123891578D01*
X129093392Y-123791608D01*
X129232371Y-123717321D01*
X129307772Y-123694449D01*
X129383173Y-123671576D01*
X129422351Y-123667717D01*
X129500705Y-123660000D01*
X129579295Y-123660000D01*
X129657649Y-123667717D01*
X129657649Y-123667717D01*
G37*
G36*
X122037649Y-123667717D02*
X122076827Y-123671576D01*
X122152228Y-123694449D01*
X122227629Y-123717321D01*
X122366608Y-123791608D01*
X122488422Y-123891578D01*
X122588392Y-124013392D01*
X122662679Y-124152371D01*
X122708424Y-124303174D01*
X122723870Y-124460000D01*
X122708424Y-124616826D01*
X122662679Y-124767629D01*
X122588392Y-124906608D01*
X122488422Y-125028422D01*
X122366608Y-125128392D01*
X122227629Y-125202679D01*
X122152227Y-125225552D01*
X122076827Y-125248424D01*
X122037649Y-125252283D01*
X121959295Y-125260000D01*
X121880705Y-125260000D01*
X121802351Y-125252283D01*
X121763173Y-125248424D01*
X121687773Y-125225552D01*
X121612371Y-125202679D01*
X121473392Y-125128392D01*
X121351578Y-125028422D01*
X121251608Y-124906608D01*
X121177321Y-124767629D01*
X121131576Y-124616826D01*
X121116130Y-124460000D01*
X121131576Y-124303174D01*
X121177321Y-124152371D01*
X121251608Y-124013392D01*
X121351578Y-123891578D01*
X121473392Y-123791608D01*
X121612371Y-123717321D01*
X121687772Y-123694449D01*
X121763173Y-123671576D01*
X121802351Y-123667717D01*
X121880705Y-123660000D01*
X121959295Y-123660000D01*
X122037649Y-123667717D01*
X122037649Y-123667717D01*
G37*
G36*
X104399601Y-121064202D02*
X104561574Y-121131293D01*
X104707345Y-121228694D01*
X104831306Y-121352655D01*
X104928707Y-121498426D01*
X104995798Y-121660399D01*
X105030000Y-121832341D01*
X105030000Y-122007659D01*
X104995798Y-122179601D01*
X104928707Y-122341574D01*
X104831306Y-122487345D01*
X104707345Y-122611306D01*
X104561574Y-122708707D01*
X104399601Y-122775798D01*
X104227659Y-122810000D01*
X104052341Y-122810000D01*
X103880399Y-122775798D01*
X103718426Y-122708707D01*
X103572655Y-122611306D01*
X103448694Y-122487345D01*
X103351293Y-122341574D01*
X103284202Y-122179601D01*
X103250000Y-122007659D01*
X103250000Y-121832341D01*
X103284202Y-121660399D01*
X103351293Y-121498426D01*
X103448694Y-121352655D01*
X103572655Y-121228694D01*
X103718426Y-121131293D01*
X103880399Y-121064202D01*
X104052341Y-121030000D01*
X104227659Y-121030000D01*
X104399601Y-121064202D01*
X104399601Y-121064202D01*
G37*
G36*
X63759601Y-121064202D02*
X63921574Y-121131293D01*
X64067345Y-121228694D01*
X64191306Y-121352655D01*
X64288707Y-121498426D01*
X64355798Y-121660399D01*
X64390000Y-121832341D01*
X64390000Y-122007659D01*
X64355798Y-122179601D01*
X64288707Y-122341574D01*
X64191306Y-122487345D01*
X64067345Y-122611306D01*
X63921574Y-122708707D01*
X63759601Y-122775798D01*
X63587659Y-122810000D01*
X63412341Y-122810000D01*
X63240399Y-122775798D01*
X63078426Y-122708707D01*
X62932655Y-122611306D01*
X62808694Y-122487345D01*
X62711293Y-122341574D01*
X62644202Y-122179601D01*
X62610000Y-122007659D01*
X62610000Y-121832341D01*
X62644202Y-121660399D01*
X62711293Y-121498426D01*
X62808694Y-121352655D01*
X62932655Y-121228694D01*
X63078426Y-121131293D01*
X63240399Y-121064202D01*
X63412341Y-121030000D01*
X63587659Y-121030000D01*
X63759601Y-121064202D01*
X63759601Y-121064202D01*
G37*
G36*
X129657649Y-121127717D02*
X129696827Y-121131576D01*
X129772227Y-121154448D01*
X129847629Y-121177321D01*
X129986608Y-121251608D01*
X130108422Y-121351578D01*
X130208392Y-121473392D01*
X130282679Y-121612371D01*
X130328424Y-121763174D01*
X130343870Y-121920000D01*
X130328424Y-122076826D01*
X130282679Y-122227629D01*
X130208392Y-122366608D01*
X130108422Y-122488422D01*
X129986608Y-122588392D01*
X129847629Y-122662679D01*
X129772228Y-122685551D01*
X129696827Y-122708424D01*
X129657649Y-122712283D01*
X129579295Y-122720000D01*
X129500705Y-122720000D01*
X129422351Y-122712283D01*
X129383173Y-122708424D01*
X129307772Y-122685551D01*
X129232371Y-122662679D01*
X129093392Y-122588392D01*
X128971578Y-122488422D01*
X128871608Y-122366608D01*
X128797321Y-122227629D01*
X128751576Y-122076826D01*
X128736130Y-121920000D01*
X128751576Y-121763174D01*
X128797321Y-121612371D01*
X128871608Y-121473392D01*
X128971578Y-121351578D01*
X129093392Y-121251608D01*
X129232371Y-121177321D01*
X129307773Y-121154448D01*
X129383173Y-121131576D01*
X129422351Y-121127717D01*
X129500705Y-121120000D01*
X129579295Y-121120000D01*
X129657649Y-121127717D01*
X129657649Y-121127717D01*
G37*
G36*
X122037649Y-121127717D02*
X122076827Y-121131576D01*
X122152227Y-121154448D01*
X122227629Y-121177321D01*
X122366608Y-121251608D01*
X122488422Y-121351578D01*
X122588392Y-121473392D01*
X122662679Y-121612371D01*
X122708424Y-121763174D01*
X122723870Y-121920000D01*
X122708424Y-122076826D01*
X122662679Y-122227629D01*
X122588392Y-122366608D01*
X122488422Y-122488422D01*
X122366608Y-122588392D01*
X122227629Y-122662679D01*
X122152228Y-122685551D01*
X122076827Y-122708424D01*
X122037649Y-122712283D01*
X121959295Y-122720000D01*
X121880705Y-122720000D01*
X121802351Y-122712283D01*
X121763173Y-122708424D01*
X121687772Y-122685551D01*
X121612371Y-122662679D01*
X121473392Y-122588392D01*
X121351578Y-122488422D01*
X121251608Y-122366608D01*
X121177321Y-122227629D01*
X121131576Y-122076826D01*
X121116130Y-121920000D01*
X121131576Y-121763174D01*
X121177321Y-121612371D01*
X121251608Y-121473392D01*
X121351578Y-121351578D01*
X121473392Y-121251608D01*
X121612371Y-121177321D01*
X121687773Y-121154448D01*
X121763173Y-121131576D01*
X121802351Y-121127717D01*
X121880705Y-121120000D01*
X121959295Y-121120000D01*
X122037649Y-121127717D01*
X122037649Y-121127717D01*
G37*
G36*
X68697649Y-121127717D02*
X68736827Y-121131576D01*
X68812227Y-121154448D01*
X68887629Y-121177321D01*
X69026608Y-121251608D01*
X69148422Y-121351578D01*
X69248392Y-121473392D01*
X69322679Y-121612371D01*
X69368424Y-121763174D01*
X69383870Y-121920000D01*
X69368424Y-122076826D01*
X69322679Y-122227629D01*
X69248392Y-122366608D01*
X69148422Y-122488422D01*
X69026608Y-122588392D01*
X68887629Y-122662679D01*
X68812228Y-122685551D01*
X68736827Y-122708424D01*
X68697649Y-122712283D01*
X68619295Y-122720000D01*
X68540705Y-122720000D01*
X68462351Y-122712283D01*
X68423173Y-122708424D01*
X68347772Y-122685551D01*
X68272371Y-122662679D01*
X68133392Y-122588392D01*
X68011578Y-122488422D01*
X67911608Y-122366608D01*
X67837321Y-122227629D01*
X67791576Y-122076826D01*
X67776130Y-121920000D01*
X67791576Y-121763174D01*
X67837321Y-121612371D01*
X67911608Y-121473392D01*
X68011578Y-121351578D01*
X68133392Y-121251608D01*
X68272371Y-121177321D01*
X68347773Y-121154448D01*
X68423173Y-121131576D01*
X68462351Y-121127717D01*
X68540705Y-121120000D01*
X68619295Y-121120000D01*
X68697649Y-121127717D01*
X68697649Y-121127717D01*
G37*
G36*
X66157649Y-121127717D02*
X66196827Y-121131576D01*
X66272227Y-121154448D01*
X66347629Y-121177321D01*
X66486608Y-121251608D01*
X66608422Y-121351578D01*
X66708392Y-121473392D01*
X66782679Y-121612371D01*
X66828424Y-121763174D01*
X66843870Y-121920000D01*
X66828424Y-122076826D01*
X66782679Y-122227629D01*
X66708392Y-122366608D01*
X66608422Y-122488422D01*
X66486608Y-122588392D01*
X66347629Y-122662679D01*
X66272228Y-122685551D01*
X66196827Y-122708424D01*
X66157649Y-122712283D01*
X66079295Y-122720000D01*
X66000705Y-122720000D01*
X65922351Y-122712283D01*
X65883173Y-122708424D01*
X65807772Y-122685551D01*
X65732371Y-122662679D01*
X65593392Y-122588392D01*
X65471578Y-122488422D01*
X65371608Y-122366608D01*
X65297321Y-122227629D01*
X65251576Y-122076826D01*
X65236130Y-121920000D01*
X65251576Y-121763174D01*
X65297321Y-121612371D01*
X65371608Y-121473392D01*
X65471578Y-121351578D01*
X65593392Y-121251608D01*
X65732371Y-121177321D01*
X65807773Y-121154448D01*
X65883173Y-121131576D01*
X65922351Y-121127717D01*
X66000705Y-121120000D01*
X66079295Y-121120000D01*
X66157649Y-121127717D01*
X66157649Y-121127717D01*
G37*
G36*
X102400000Y-122720000D02*
X100800000Y-122720000D01*
X100800000Y-121120000D01*
X102400000Y-121120000D01*
X102400000Y-122720000D01*
X102400000Y-122720000D01*
G37*
G36*
X73777649Y-121127717D02*
X73816827Y-121131576D01*
X73892227Y-121154448D01*
X73967629Y-121177321D01*
X74106608Y-121251608D01*
X74228422Y-121351578D01*
X74328392Y-121473392D01*
X74402679Y-121612371D01*
X74448424Y-121763174D01*
X74463870Y-121920000D01*
X74448424Y-122076826D01*
X74402679Y-122227629D01*
X74328392Y-122366608D01*
X74228422Y-122488422D01*
X74106608Y-122588392D01*
X73967629Y-122662679D01*
X73892228Y-122685551D01*
X73816827Y-122708424D01*
X73777649Y-122712283D01*
X73699295Y-122720000D01*
X73620705Y-122720000D01*
X73542351Y-122712283D01*
X73503173Y-122708424D01*
X73427772Y-122685551D01*
X73352371Y-122662679D01*
X73213392Y-122588392D01*
X73091578Y-122488422D01*
X72991608Y-122366608D01*
X72917321Y-122227629D01*
X72871576Y-122076826D01*
X72856130Y-121920000D01*
X72871576Y-121763174D01*
X72917321Y-121612371D01*
X72991608Y-121473392D01*
X73091578Y-121351578D01*
X73213392Y-121251608D01*
X73352371Y-121177321D01*
X73427773Y-121154448D01*
X73503173Y-121131576D01*
X73542351Y-121127717D01*
X73620705Y-121120000D01*
X73699295Y-121120000D01*
X73777649Y-121127717D01*
X73777649Y-121127717D01*
G37*
G36*
X71237649Y-121127717D02*
X71276827Y-121131576D01*
X71352227Y-121154448D01*
X71427629Y-121177321D01*
X71566608Y-121251608D01*
X71688422Y-121351578D01*
X71788392Y-121473392D01*
X71862679Y-121612371D01*
X71908424Y-121763174D01*
X71923870Y-121920000D01*
X71908424Y-122076826D01*
X71862679Y-122227629D01*
X71788392Y-122366608D01*
X71688422Y-122488422D01*
X71566608Y-122588392D01*
X71427629Y-122662679D01*
X71352228Y-122685551D01*
X71276827Y-122708424D01*
X71237649Y-122712283D01*
X71159295Y-122720000D01*
X71080705Y-122720000D01*
X71002351Y-122712283D01*
X70963173Y-122708424D01*
X70887772Y-122685551D01*
X70812371Y-122662679D01*
X70673392Y-122588392D01*
X70551578Y-122488422D01*
X70451608Y-122366608D01*
X70377321Y-122227629D01*
X70331576Y-122076826D01*
X70316130Y-121920000D01*
X70331576Y-121763174D01*
X70377321Y-121612371D01*
X70451608Y-121473392D01*
X70551578Y-121351578D01*
X70673392Y-121251608D01*
X70812371Y-121177321D01*
X70887773Y-121154448D01*
X70963173Y-121131576D01*
X71002351Y-121127717D01*
X71080705Y-121120000D01*
X71159295Y-121120000D01*
X71237649Y-121127717D01*
X71237649Y-121127717D01*
G37*
G36*
X91557649Y-121127717D02*
X91596827Y-121131576D01*
X91672227Y-121154448D01*
X91747629Y-121177321D01*
X91886608Y-121251608D01*
X92008422Y-121351578D01*
X92108392Y-121473392D01*
X92182679Y-121612371D01*
X92228424Y-121763174D01*
X92243870Y-121920000D01*
X92228424Y-122076826D01*
X92182679Y-122227629D01*
X92108392Y-122366608D01*
X92008422Y-122488422D01*
X91886608Y-122588392D01*
X91747629Y-122662679D01*
X91672228Y-122685551D01*
X91596827Y-122708424D01*
X91557649Y-122712283D01*
X91479295Y-122720000D01*
X91400705Y-122720000D01*
X91322351Y-122712283D01*
X91283173Y-122708424D01*
X91207772Y-122685551D01*
X91132371Y-122662679D01*
X90993392Y-122588392D01*
X90871578Y-122488422D01*
X90771608Y-122366608D01*
X90697321Y-122227629D01*
X90651576Y-122076826D01*
X90636130Y-121920000D01*
X90651576Y-121763174D01*
X90697321Y-121612371D01*
X90771608Y-121473392D01*
X90871578Y-121351578D01*
X90993392Y-121251608D01*
X91132371Y-121177321D01*
X91207773Y-121154448D01*
X91283173Y-121131576D01*
X91322351Y-121127717D01*
X91400705Y-121120000D01*
X91479295Y-121120000D01*
X91557649Y-121127717D01*
X91557649Y-121127717D01*
G37*
G36*
X94097649Y-121127717D02*
X94136827Y-121131576D01*
X94212227Y-121154448D01*
X94287629Y-121177321D01*
X94426608Y-121251608D01*
X94548422Y-121351578D01*
X94648392Y-121473392D01*
X94722679Y-121612371D01*
X94768424Y-121763174D01*
X94783870Y-121920000D01*
X94768424Y-122076826D01*
X94722679Y-122227629D01*
X94648392Y-122366608D01*
X94548422Y-122488422D01*
X94426608Y-122588392D01*
X94287629Y-122662679D01*
X94212228Y-122685551D01*
X94136827Y-122708424D01*
X94097649Y-122712283D01*
X94019295Y-122720000D01*
X93940705Y-122720000D01*
X93862351Y-122712283D01*
X93823173Y-122708424D01*
X93747772Y-122685551D01*
X93672371Y-122662679D01*
X93533392Y-122588392D01*
X93411578Y-122488422D01*
X93311608Y-122366608D01*
X93237321Y-122227629D01*
X93191576Y-122076826D01*
X93176130Y-121920000D01*
X93191576Y-121763174D01*
X93237321Y-121612371D01*
X93311608Y-121473392D01*
X93411578Y-121351578D01*
X93533392Y-121251608D01*
X93672371Y-121177321D01*
X93747773Y-121154448D01*
X93823173Y-121131576D01*
X93862351Y-121127717D01*
X93940705Y-121120000D01*
X94019295Y-121120000D01*
X94097649Y-121127717D01*
X94097649Y-121127717D01*
G37*
G36*
X89017649Y-121127717D02*
X89056827Y-121131576D01*
X89132227Y-121154448D01*
X89207629Y-121177321D01*
X89346608Y-121251608D01*
X89468422Y-121351578D01*
X89568392Y-121473392D01*
X89642679Y-121612371D01*
X89688424Y-121763174D01*
X89703870Y-121920000D01*
X89688424Y-122076826D01*
X89642679Y-122227629D01*
X89568392Y-122366608D01*
X89468422Y-122488422D01*
X89346608Y-122588392D01*
X89207629Y-122662679D01*
X89132228Y-122685551D01*
X89056827Y-122708424D01*
X89017649Y-122712283D01*
X88939295Y-122720000D01*
X88860705Y-122720000D01*
X88782351Y-122712283D01*
X88743173Y-122708424D01*
X88667772Y-122685551D01*
X88592371Y-122662679D01*
X88453392Y-122588392D01*
X88331578Y-122488422D01*
X88231608Y-122366608D01*
X88157321Y-122227629D01*
X88111576Y-122076826D01*
X88096130Y-121920000D01*
X88111576Y-121763174D01*
X88157321Y-121612371D01*
X88231608Y-121473392D01*
X88331578Y-121351578D01*
X88453392Y-121251608D01*
X88592371Y-121177321D01*
X88667773Y-121154448D01*
X88743173Y-121131576D01*
X88782351Y-121127717D01*
X88860705Y-121120000D01*
X88939295Y-121120000D01*
X89017649Y-121127717D01*
X89017649Y-121127717D01*
G37*
G36*
X96637649Y-121127717D02*
X96676827Y-121131576D01*
X96752227Y-121154448D01*
X96827629Y-121177321D01*
X96966608Y-121251608D01*
X97088422Y-121351578D01*
X97188392Y-121473392D01*
X97262679Y-121612371D01*
X97308424Y-121763174D01*
X97323870Y-121920000D01*
X97308424Y-122076826D01*
X97262679Y-122227629D01*
X97188392Y-122366608D01*
X97088422Y-122488422D01*
X96966608Y-122588392D01*
X96827629Y-122662679D01*
X96752228Y-122685551D01*
X96676827Y-122708424D01*
X96637649Y-122712283D01*
X96559295Y-122720000D01*
X96480705Y-122720000D01*
X96402351Y-122712283D01*
X96363173Y-122708424D01*
X96287772Y-122685551D01*
X96212371Y-122662679D01*
X96073392Y-122588392D01*
X95951578Y-122488422D01*
X95851608Y-122366608D01*
X95777321Y-122227629D01*
X95731576Y-122076826D01*
X95716130Y-121920000D01*
X95731576Y-121763174D01*
X95777321Y-121612371D01*
X95851608Y-121473392D01*
X95951578Y-121351578D01*
X96073392Y-121251608D01*
X96212371Y-121177321D01*
X96287773Y-121154448D01*
X96363173Y-121131576D01*
X96402351Y-121127717D01*
X96480705Y-121120000D01*
X96559295Y-121120000D01*
X96637649Y-121127717D01*
X96637649Y-121127717D01*
G37*
G36*
X83937649Y-121127717D02*
X83976827Y-121131576D01*
X84052227Y-121154448D01*
X84127629Y-121177321D01*
X84266608Y-121251608D01*
X84388422Y-121351578D01*
X84488392Y-121473392D01*
X84562679Y-121612371D01*
X84608424Y-121763174D01*
X84623870Y-121920000D01*
X84608424Y-122076826D01*
X84562679Y-122227629D01*
X84488392Y-122366608D01*
X84388422Y-122488422D01*
X84266608Y-122588392D01*
X84127629Y-122662679D01*
X84052228Y-122685551D01*
X83976827Y-122708424D01*
X83937649Y-122712283D01*
X83859295Y-122720000D01*
X83780705Y-122720000D01*
X83702351Y-122712283D01*
X83663173Y-122708424D01*
X83587772Y-122685551D01*
X83512371Y-122662679D01*
X83373392Y-122588392D01*
X83251578Y-122488422D01*
X83151608Y-122366608D01*
X83077321Y-122227629D01*
X83031576Y-122076826D01*
X83016130Y-121920000D01*
X83031576Y-121763174D01*
X83077321Y-121612371D01*
X83151608Y-121473392D01*
X83251578Y-121351578D01*
X83373392Y-121251608D01*
X83512371Y-121177321D01*
X83587773Y-121154448D01*
X83663173Y-121131576D01*
X83702351Y-121127717D01*
X83780705Y-121120000D01*
X83859295Y-121120000D01*
X83937649Y-121127717D01*
X83937649Y-121127717D01*
G37*
G36*
X78857649Y-121127717D02*
X78896827Y-121131576D01*
X78972227Y-121154448D01*
X79047629Y-121177321D01*
X79186608Y-121251608D01*
X79308422Y-121351578D01*
X79408392Y-121473392D01*
X79482679Y-121612371D01*
X79528424Y-121763174D01*
X79543870Y-121920000D01*
X79528424Y-122076826D01*
X79482679Y-122227629D01*
X79408392Y-122366608D01*
X79308422Y-122488422D01*
X79186608Y-122588392D01*
X79047629Y-122662679D01*
X78972228Y-122685551D01*
X78896827Y-122708424D01*
X78857649Y-122712283D01*
X78779295Y-122720000D01*
X78700705Y-122720000D01*
X78622351Y-122712283D01*
X78583173Y-122708424D01*
X78507772Y-122685551D01*
X78432371Y-122662679D01*
X78293392Y-122588392D01*
X78171578Y-122488422D01*
X78071608Y-122366608D01*
X77997321Y-122227629D01*
X77951576Y-122076826D01*
X77936130Y-121920000D01*
X77951576Y-121763174D01*
X77997321Y-121612371D01*
X78071608Y-121473392D01*
X78171578Y-121351578D01*
X78293392Y-121251608D01*
X78432371Y-121177321D01*
X78507773Y-121154448D01*
X78583173Y-121131576D01*
X78622351Y-121127717D01*
X78700705Y-121120000D01*
X78779295Y-121120000D01*
X78857649Y-121127717D01*
X78857649Y-121127717D01*
G37*
G36*
X86477649Y-121127717D02*
X86516827Y-121131576D01*
X86592227Y-121154448D01*
X86667629Y-121177321D01*
X86806608Y-121251608D01*
X86928422Y-121351578D01*
X87028392Y-121473392D01*
X87102679Y-121612371D01*
X87148424Y-121763174D01*
X87163870Y-121920000D01*
X87148424Y-122076826D01*
X87102679Y-122227629D01*
X87028392Y-122366608D01*
X86928422Y-122488422D01*
X86806608Y-122588392D01*
X86667629Y-122662679D01*
X86592228Y-122685551D01*
X86516827Y-122708424D01*
X86477649Y-122712283D01*
X86399295Y-122720000D01*
X86320705Y-122720000D01*
X86242351Y-122712283D01*
X86203173Y-122708424D01*
X86127772Y-122685551D01*
X86052371Y-122662679D01*
X85913392Y-122588392D01*
X85791578Y-122488422D01*
X85691608Y-122366608D01*
X85617321Y-122227629D01*
X85571576Y-122076826D01*
X85556130Y-121920000D01*
X85571576Y-121763174D01*
X85617321Y-121612371D01*
X85691608Y-121473392D01*
X85791578Y-121351578D01*
X85913392Y-121251608D01*
X86052371Y-121177321D01*
X86127773Y-121154448D01*
X86203173Y-121131576D01*
X86242351Y-121127717D01*
X86320705Y-121120000D01*
X86399295Y-121120000D01*
X86477649Y-121127717D01*
X86477649Y-121127717D01*
G37*
G36*
X76317649Y-121127717D02*
X76356827Y-121131576D01*
X76432227Y-121154448D01*
X76507629Y-121177321D01*
X76646608Y-121251608D01*
X76768422Y-121351578D01*
X76868392Y-121473392D01*
X76942679Y-121612371D01*
X76988424Y-121763174D01*
X77003870Y-121920000D01*
X76988424Y-122076826D01*
X76942679Y-122227629D01*
X76868392Y-122366608D01*
X76768422Y-122488422D01*
X76646608Y-122588392D01*
X76507629Y-122662679D01*
X76432228Y-122685551D01*
X76356827Y-122708424D01*
X76317649Y-122712283D01*
X76239295Y-122720000D01*
X76160705Y-122720000D01*
X76082351Y-122712283D01*
X76043173Y-122708424D01*
X75967772Y-122685551D01*
X75892371Y-122662679D01*
X75753392Y-122588392D01*
X75631578Y-122488422D01*
X75531608Y-122366608D01*
X75457321Y-122227629D01*
X75411576Y-122076826D01*
X75396130Y-121920000D01*
X75411576Y-121763174D01*
X75457321Y-121612371D01*
X75531608Y-121473392D01*
X75631578Y-121351578D01*
X75753392Y-121251608D01*
X75892371Y-121177321D01*
X75967773Y-121154448D01*
X76043173Y-121131576D01*
X76082351Y-121127717D01*
X76160705Y-121120000D01*
X76239295Y-121120000D01*
X76317649Y-121127717D01*
X76317649Y-121127717D01*
G37*
G36*
X99177649Y-121127717D02*
X99216827Y-121131576D01*
X99292227Y-121154448D01*
X99367629Y-121177321D01*
X99506608Y-121251608D01*
X99628422Y-121351578D01*
X99728392Y-121473392D01*
X99802679Y-121612371D01*
X99848424Y-121763174D01*
X99863870Y-121920000D01*
X99848424Y-122076826D01*
X99802679Y-122227629D01*
X99728392Y-122366608D01*
X99628422Y-122488422D01*
X99506608Y-122588392D01*
X99367629Y-122662679D01*
X99292228Y-122685551D01*
X99216827Y-122708424D01*
X99177649Y-122712283D01*
X99099295Y-122720000D01*
X99020705Y-122720000D01*
X98942351Y-122712283D01*
X98903173Y-122708424D01*
X98827772Y-122685551D01*
X98752371Y-122662679D01*
X98613392Y-122588392D01*
X98491578Y-122488422D01*
X98391608Y-122366608D01*
X98317321Y-122227629D01*
X98271576Y-122076826D01*
X98256130Y-121920000D01*
X98271576Y-121763174D01*
X98317321Y-121612371D01*
X98391608Y-121473392D01*
X98491578Y-121351578D01*
X98613392Y-121251608D01*
X98752371Y-121177321D01*
X98827773Y-121154448D01*
X98903173Y-121131576D01*
X98942351Y-121127717D01*
X99020705Y-121120000D01*
X99099295Y-121120000D01*
X99177649Y-121127717D01*
X99177649Y-121127717D01*
G37*
G36*
X81397649Y-121127717D02*
X81436827Y-121131576D01*
X81512227Y-121154448D01*
X81587629Y-121177321D01*
X81726608Y-121251608D01*
X81848422Y-121351578D01*
X81948392Y-121473392D01*
X82022679Y-121612371D01*
X82068424Y-121763174D01*
X82083870Y-121920000D01*
X82068424Y-122076826D01*
X82022679Y-122227629D01*
X81948392Y-122366608D01*
X81848422Y-122488422D01*
X81726608Y-122588392D01*
X81587629Y-122662679D01*
X81512228Y-122685551D01*
X81436827Y-122708424D01*
X81397649Y-122712283D01*
X81319295Y-122720000D01*
X81240705Y-122720000D01*
X81162351Y-122712283D01*
X81123173Y-122708424D01*
X81047772Y-122685551D01*
X80972371Y-122662679D01*
X80833392Y-122588392D01*
X80711578Y-122488422D01*
X80611608Y-122366608D01*
X80537321Y-122227629D01*
X80491576Y-122076826D01*
X80476130Y-121920000D01*
X80491576Y-121763174D01*
X80537321Y-121612371D01*
X80611608Y-121473392D01*
X80711578Y-121351578D01*
X80833392Y-121251608D01*
X80972371Y-121177321D01*
X81047773Y-121154448D01*
X81123173Y-121131576D01*
X81162351Y-121127717D01*
X81240705Y-121120000D01*
X81319295Y-121120000D01*
X81397649Y-121127717D01*
X81397649Y-121127717D01*
G37*
G36*
X109435639Y-118295916D02*
X109642986Y-118358815D01*
X109642988Y-118358816D01*
X109834084Y-118460958D01*
X110001581Y-118598419D01*
X110139042Y-118765916D01*
X110213640Y-118905481D01*
X110241185Y-118957014D01*
X110304084Y-119164361D01*
X110325322Y-119380000D01*
X110304084Y-119595639D01*
X110254546Y-119758942D01*
X110241184Y-119802988D01*
X110139042Y-119994084D01*
X110001581Y-120161581D01*
X109834084Y-120299042D01*
X109642988Y-120401184D01*
X109642986Y-120401185D01*
X109435639Y-120464084D01*
X109274038Y-120480000D01*
X109165962Y-120480000D01*
X109004361Y-120464084D01*
X108797014Y-120401185D01*
X108797012Y-120401184D01*
X108605916Y-120299042D01*
X108438419Y-120161581D01*
X108300958Y-119994084D01*
X108198816Y-119802988D01*
X108185455Y-119758942D01*
X108135916Y-119595639D01*
X108114678Y-119380000D01*
X108135916Y-119164361D01*
X108198815Y-118957014D01*
X108226360Y-118905481D01*
X108300958Y-118765916D01*
X108438419Y-118598419D01*
X108605916Y-118460958D01*
X108797012Y-118358816D01*
X108797014Y-118358815D01*
X109004361Y-118295916D01*
X109165962Y-118280000D01*
X109274038Y-118280000D01*
X109435639Y-118295916D01*
X109435639Y-118295916D01*
G37*
G36*
X94146630Y-118542299D02*
X94306855Y-118590903D01*
X94454520Y-118669831D01*
X94583949Y-118776051D01*
X94690169Y-118905480D01*
X94769097Y-119053145D01*
X94817701Y-119213370D01*
X94834112Y-119380000D01*
X94817701Y-119546630D01*
X94769097Y-119706855D01*
X94690169Y-119854520D01*
X94583949Y-119983949D01*
X94454520Y-120090169D01*
X94306855Y-120169097D01*
X94146630Y-120217701D01*
X94021752Y-120230000D01*
X93938248Y-120230000D01*
X93813370Y-120217701D01*
X93653145Y-120169097D01*
X93505480Y-120090169D01*
X93376051Y-119983949D01*
X93269831Y-119854520D01*
X93190903Y-119706855D01*
X93142299Y-119546630D01*
X93125888Y-119380000D01*
X93142299Y-119213370D01*
X93190903Y-119053145D01*
X93269831Y-118905480D01*
X93376051Y-118776051D01*
X93505480Y-118669831D01*
X93653145Y-118590903D01*
X93813370Y-118542299D01*
X93938248Y-118530000D01*
X94021752Y-118530000D01*
X94146630Y-118542299D01*
X94146630Y-118542299D01*
G37*
G36*
X89066630Y-118542299D02*
X89226855Y-118590903D01*
X89374520Y-118669831D01*
X89503949Y-118776051D01*
X89610169Y-118905480D01*
X89689097Y-119053145D01*
X89737701Y-119213370D01*
X89754112Y-119380000D01*
X89737701Y-119546630D01*
X89689097Y-119706855D01*
X89610169Y-119854520D01*
X89503949Y-119983949D01*
X89374520Y-120090169D01*
X89226855Y-120169097D01*
X89066630Y-120217701D01*
X88941752Y-120230000D01*
X88858248Y-120230000D01*
X88733370Y-120217701D01*
X88573145Y-120169097D01*
X88425480Y-120090169D01*
X88296051Y-119983949D01*
X88189831Y-119854520D01*
X88110903Y-119706855D01*
X88062299Y-119546630D01*
X88045888Y-119380000D01*
X88062299Y-119213370D01*
X88110903Y-119053145D01*
X88189831Y-118905480D01*
X88296051Y-118776051D01*
X88425480Y-118669831D01*
X88573145Y-118590903D01*
X88733370Y-118542299D01*
X88858248Y-118530000D01*
X88941752Y-118530000D01*
X89066630Y-118542299D01*
X89066630Y-118542299D01*
G37*
G36*
X86526630Y-118542299D02*
X86686855Y-118590903D01*
X86834520Y-118669831D01*
X86963949Y-118776051D01*
X87070169Y-118905480D01*
X87149097Y-119053145D01*
X87197701Y-119213370D01*
X87214112Y-119380000D01*
X87197701Y-119546630D01*
X87149097Y-119706855D01*
X87070169Y-119854520D01*
X86963949Y-119983949D01*
X86834520Y-120090169D01*
X86686855Y-120169097D01*
X86526630Y-120217701D01*
X86401752Y-120230000D01*
X86318248Y-120230000D01*
X86193370Y-120217701D01*
X86033145Y-120169097D01*
X85885480Y-120090169D01*
X85756051Y-119983949D01*
X85649831Y-119854520D01*
X85570903Y-119706855D01*
X85522299Y-119546630D01*
X85505888Y-119380000D01*
X85522299Y-119213370D01*
X85570903Y-119053145D01*
X85649831Y-118905480D01*
X85756051Y-118776051D01*
X85885480Y-118669831D01*
X86033145Y-118590903D01*
X86193370Y-118542299D01*
X86318248Y-118530000D01*
X86401752Y-118530000D01*
X86526630Y-118542299D01*
X86526630Y-118542299D01*
G37*
G36*
X81446630Y-118542299D02*
X81606855Y-118590903D01*
X81754520Y-118669831D01*
X81883949Y-118776051D01*
X81990169Y-118905480D01*
X82069097Y-119053145D01*
X82117701Y-119213370D01*
X82134112Y-119380000D01*
X82117701Y-119546630D01*
X82069097Y-119706855D01*
X81990169Y-119854520D01*
X81883949Y-119983949D01*
X81754520Y-120090169D01*
X81606855Y-120169097D01*
X81446630Y-120217701D01*
X81321752Y-120230000D01*
X81238248Y-120230000D01*
X81113370Y-120217701D01*
X80953145Y-120169097D01*
X80805480Y-120090169D01*
X80676051Y-119983949D01*
X80569831Y-119854520D01*
X80490903Y-119706855D01*
X80442299Y-119546630D01*
X80425888Y-119380000D01*
X80442299Y-119213370D01*
X80490903Y-119053145D01*
X80569831Y-118905480D01*
X80676051Y-118776051D01*
X80805480Y-118669831D01*
X80953145Y-118590903D01*
X81113370Y-118542299D01*
X81238248Y-118530000D01*
X81321752Y-118530000D01*
X81446630Y-118542299D01*
X81446630Y-118542299D01*
G37*
G36*
X83986630Y-118542299D02*
X84146855Y-118590903D01*
X84294520Y-118669831D01*
X84423949Y-118776051D01*
X84530169Y-118905480D01*
X84609097Y-119053145D01*
X84657701Y-119213370D01*
X84674112Y-119380000D01*
X84657701Y-119546630D01*
X84609097Y-119706855D01*
X84530169Y-119854520D01*
X84423949Y-119983949D01*
X84294520Y-120090169D01*
X84146855Y-120169097D01*
X83986630Y-120217701D01*
X83861752Y-120230000D01*
X83778248Y-120230000D01*
X83653370Y-120217701D01*
X83493145Y-120169097D01*
X83345480Y-120090169D01*
X83216051Y-119983949D01*
X83109831Y-119854520D01*
X83030903Y-119706855D01*
X82982299Y-119546630D01*
X82965888Y-119380000D01*
X82982299Y-119213370D01*
X83030903Y-119053145D01*
X83109831Y-118905480D01*
X83216051Y-118776051D01*
X83345480Y-118669831D01*
X83493145Y-118590903D01*
X83653370Y-118542299D01*
X83778248Y-118530000D01*
X83861752Y-118530000D01*
X83986630Y-118542299D01*
X83986630Y-118542299D01*
G37*
G36*
X78906630Y-118542299D02*
X79066855Y-118590903D01*
X79214520Y-118669831D01*
X79343949Y-118776051D01*
X79450169Y-118905480D01*
X79529097Y-119053145D01*
X79577701Y-119213370D01*
X79594112Y-119380000D01*
X79577701Y-119546630D01*
X79529097Y-119706855D01*
X79450169Y-119854520D01*
X79343949Y-119983949D01*
X79214520Y-120090169D01*
X79066855Y-120169097D01*
X78906630Y-120217701D01*
X78781752Y-120230000D01*
X78698248Y-120230000D01*
X78573370Y-120217701D01*
X78413145Y-120169097D01*
X78265480Y-120090169D01*
X78136051Y-119983949D01*
X78029831Y-119854520D01*
X77950903Y-119706855D01*
X77902299Y-119546630D01*
X77885888Y-119380000D01*
X77902299Y-119213370D01*
X77950903Y-119053145D01*
X78029831Y-118905480D01*
X78136051Y-118776051D01*
X78265480Y-118669831D01*
X78413145Y-118590903D01*
X78573370Y-118542299D01*
X78698248Y-118530000D01*
X78781752Y-118530000D01*
X78906630Y-118542299D01*
X78906630Y-118542299D01*
G37*
G36*
X76366630Y-118542299D02*
X76526855Y-118590903D01*
X76674520Y-118669831D01*
X76803949Y-118776051D01*
X76910169Y-118905480D01*
X76989097Y-119053145D01*
X77037701Y-119213370D01*
X77054112Y-119380000D01*
X77037701Y-119546630D01*
X76989097Y-119706855D01*
X76910169Y-119854520D01*
X76803949Y-119983949D01*
X76674520Y-120090169D01*
X76526855Y-120169097D01*
X76366630Y-120217701D01*
X76241752Y-120230000D01*
X76158248Y-120230000D01*
X76033370Y-120217701D01*
X75873145Y-120169097D01*
X75725480Y-120090169D01*
X75596051Y-119983949D01*
X75489831Y-119854520D01*
X75410903Y-119706855D01*
X75362299Y-119546630D01*
X75345888Y-119380000D01*
X75362299Y-119213370D01*
X75410903Y-119053145D01*
X75489831Y-118905480D01*
X75596051Y-118776051D01*
X75725480Y-118669831D01*
X75873145Y-118590903D01*
X76033370Y-118542299D01*
X76158248Y-118530000D01*
X76241752Y-118530000D01*
X76366630Y-118542299D01*
X76366630Y-118542299D01*
G37*
G36*
X71286630Y-118542299D02*
X71446855Y-118590903D01*
X71594520Y-118669831D01*
X71723949Y-118776051D01*
X71830169Y-118905480D01*
X71909097Y-119053145D01*
X71957701Y-119213370D01*
X71974112Y-119380000D01*
X71957701Y-119546630D01*
X71909097Y-119706855D01*
X71830169Y-119854520D01*
X71723949Y-119983949D01*
X71594520Y-120090169D01*
X71446855Y-120169097D01*
X71286630Y-120217701D01*
X71161752Y-120230000D01*
X71078248Y-120230000D01*
X70953370Y-120217701D01*
X70793145Y-120169097D01*
X70645480Y-120090169D01*
X70516051Y-119983949D01*
X70409831Y-119854520D01*
X70330903Y-119706855D01*
X70282299Y-119546630D01*
X70265888Y-119380000D01*
X70282299Y-119213370D01*
X70330903Y-119053145D01*
X70409831Y-118905480D01*
X70516051Y-118776051D01*
X70645480Y-118669831D01*
X70793145Y-118590903D01*
X70953370Y-118542299D01*
X71078248Y-118530000D01*
X71161752Y-118530000D01*
X71286630Y-118542299D01*
X71286630Y-118542299D01*
G37*
G36*
X73826630Y-118542299D02*
X73986855Y-118590903D01*
X74134520Y-118669831D01*
X74263949Y-118776051D01*
X74370169Y-118905480D01*
X74449097Y-119053145D01*
X74497701Y-119213370D01*
X74514112Y-119380000D01*
X74497701Y-119546630D01*
X74449097Y-119706855D01*
X74370169Y-119854520D01*
X74263949Y-119983949D01*
X74134520Y-120090169D01*
X73986855Y-120169097D01*
X73826630Y-120217701D01*
X73701752Y-120230000D01*
X73618248Y-120230000D01*
X73493370Y-120217701D01*
X73333145Y-120169097D01*
X73185480Y-120090169D01*
X73056051Y-119983949D01*
X72949831Y-119854520D01*
X72870903Y-119706855D01*
X72822299Y-119546630D01*
X72805888Y-119380000D01*
X72822299Y-119213370D01*
X72870903Y-119053145D01*
X72949831Y-118905480D01*
X73056051Y-118776051D01*
X73185480Y-118669831D01*
X73333145Y-118590903D01*
X73493370Y-118542299D01*
X73618248Y-118530000D01*
X73701752Y-118530000D01*
X73826630Y-118542299D01*
X73826630Y-118542299D01*
G37*
G36*
X101766630Y-118542299D02*
X101926855Y-118590903D01*
X102074520Y-118669831D01*
X102203949Y-118776051D01*
X102310169Y-118905480D01*
X102389097Y-119053145D01*
X102437701Y-119213370D01*
X102454112Y-119380000D01*
X102437701Y-119546630D01*
X102389097Y-119706855D01*
X102310169Y-119854520D01*
X102203949Y-119983949D01*
X102074520Y-120090169D01*
X101926855Y-120169097D01*
X101766630Y-120217701D01*
X101641752Y-120230000D01*
X101558248Y-120230000D01*
X101433370Y-120217701D01*
X101273145Y-120169097D01*
X101125480Y-120090169D01*
X100996051Y-119983949D01*
X100889831Y-119854520D01*
X100810903Y-119706855D01*
X100762299Y-119546630D01*
X100745888Y-119380000D01*
X100762299Y-119213370D01*
X100810903Y-119053145D01*
X100889831Y-118905480D01*
X100996051Y-118776051D01*
X101125480Y-118669831D01*
X101273145Y-118590903D01*
X101433370Y-118542299D01*
X101558248Y-118530000D01*
X101641752Y-118530000D01*
X101766630Y-118542299D01*
X101766630Y-118542299D01*
G37*
G36*
X99226630Y-118542299D02*
X99386855Y-118590903D01*
X99534520Y-118669831D01*
X99663949Y-118776051D01*
X99770169Y-118905480D01*
X99849097Y-119053145D01*
X99897701Y-119213370D01*
X99914112Y-119380000D01*
X99897701Y-119546630D01*
X99849097Y-119706855D01*
X99770169Y-119854520D01*
X99663949Y-119983949D01*
X99534520Y-120090169D01*
X99386855Y-120169097D01*
X99226630Y-120217701D01*
X99101752Y-120230000D01*
X99018248Y-120230000D01*
X98893370Y-120217701D01*
X98733145Y-120169097D01*
X98585480Y-120090169D01*
X98456051Y-119983949D01*
X98349831Y-119854520D01*
X98270903Y-119706855D01*
X98222299Y-119546630D01*
X98205888Y-119380000D01*
X98222299Y-119213370D01*
X98270903Y-119053145D01*
X98349831Y-118905480D01*
X98456051Y-118776051D01*
X98585480Y-118669831D01*
X98733145Y-118590903D01*
X98893370Y-118542299D01*
X99018248Y-118530000D01*
X99101752Y-118530000D01*
X99226630Y-118542299D01*
X99226630Y-118542299D01*
G37*
G36*
X96686630Y-118542299D02*
X96846855Y-118590903D01*
X96994520Y-118669831D01*
X97123949Y-118776051D01*
X97230169Y-118905480D01*
X97309097Y-119053145D01*
X97357701Y-119213370D01*
X97374112Y-119380000D01*
X97357701Y-119546630D01*
X97309097Y-119706855D01*
X97230169Y-119854520D01*
X97123949Y-119983949D01*
X96994520Y-120090169D01*
X96846855Y-120169097D01*
X96686630Y-120217701D01*
X96561752Y-120230000D01*
X96478248Y-120230000D01*
X96353370Y-120217701D01*
X96193145Y-120169097D01*
X96045480Y-120090169D01*
X95916051Y-119983949D01*
X95809831Y-119854520D01*
X95730903Y-119706855D01*
X95682299Y-119546630D01*
X95665888Y-119380000D01*
X95682299Y-119213370D01*
X95730903Y-119053145D01*
X95809831Y-118905480D01*
X95916051Y-118776051D01*
X96045480Y-118669831D01*
X96193145Y-118590903D01*
X96353370Y-118542299D01*
X96478248Y-118530000D01*
X96561752Y-118530000D01*
X96686630Y-118542299D01*
X96686630Y-118542299D01*
G37*
G36*
X68746630Y-118542299D02*
X68906855Y-118590903D01*
X69054520Y-118669831D01*
X69183949Y-118776051D01*
X69290169Y-118905480D01*
X69369097Y-119053145D01*
X69417701Y-119213370D01*
X69434112Y-119380000D01*
X69417701Y-119546630D01*
X69369097Y-119706855D01*
X69290169Y-119854520D01*
X69183949Y-119983949D01*
X69054520Y-120090169D01*
X68906855Y-120169097D01*
X68746630Y-120217701D01*
X68621752Y-120230000D01*
X68538248Y-120230000D01*
X68413370Y-120217701D01*
X68253145Y-120169097D01*
X68105480Y-120090169D01*
X67976051Y-119983949D01*
X67869831Y-119854520D01*
X67790903Y-119706855D01*
X67742299Y-119546630D01*
X67725888Y-119380000D01*
X67742299Y-119213370D01*
X67790903Y-119053145D01*
X67869831Y-118905480D01*
X67976051Y-118776051D01*
X68105480Y-118669831D01*
X68253145Y-118590903D01*
X68413370Y-118542299D01*
X68538248Y-118530000D01*
X68621752Y-118530000D01*
X68746630Y-118542299D01*
X68746630Y-118542299D01*
G37*
G36*
X91606630Y-118542299D02*
X91766855Y-118590903D01*
X91914520Y-118669831D01*
X92043949Y-118776051D01*
X92150169Y-118905480D01*
X92229097Y-119053145D01*
X92277701Y-119213370D01*
X92294112Y-119380000D01*
X92277701Y-119546630D01*
X92229097Y-119706855D01*
X92150169Y-119854520D01*
X92043949Y-119983949D01*
X91914520Y-120090169D01*
X91766855Y-120169097D01*
X91606630Y-120217701D01*
X91481752Y-120230000D01*
X91398248Y-120230000D01*
X91273370Y-120217701D01*
X91113145Y-120169097D01*
X90965480Y-120090169D01*
X90836051Y-119983949D01*
X90729831Y-119854520D01*
X90650903Y-119706855D01*
X90602299Y-119546630D01*
X90585888Y-119380000D01*
X90602299Y-119213370D01*
X90650903Y-119053145D01*
X90729831Y-118905480D01*
X90836051Y-118776051D01*
X90965480Y-118669831D01*
X91113145Y-118590903D01*
X91273370Y-118542299D01*
X91398248Y-118530000D01*
X91481752Y-118530000D01*
X91606630Y-118542299D01*
X91606630Y-118542299D01*
G37*
G36*
X66890000Y-120230000D02*
X65190000Y-120230000D01*
X65190000Y-118530000D01*
X66890000Y-118530000D01*
X66890000Y-120230000D01*
X66890000Y-120230000D01*
G37*
G36*
X117640000Y-120180000D02*
X116040000Y-120180000D01*
X116040000Y-118580000D01*
X117640000Y-118580000D01*
X117640000Y-120180000D01*
X117640000Y-120180000D01*
G37*
G36*
X122720000Y-120180000D02*
X121120000Y-120180000D01*
X121120000Y-118580000D01*
X122720000Y-118580000D01*
X122720000Y-120180000D01*
X122720000Y-120180000D01*
G37*
G36*
X137277649Y-118587717D02*
X137316827Y-118591576D01*
X137339385Y-118598419D01*
X137467629Y-118637321D01*
X137606608Y-118711608D01*
X137728422Y-118811578D01*
X137828392Y-118933392D01*
X137902679Y-119072371D01*
X137902679Y-119072372D01*
X137948424Y-119223173D01*
X137963870Y-119380000D01*
X137948424Y-119536827D01*
X137945450Y-119546630D01*
X137902679Y-119687629D01*
X137828392Y-119826608D01*
X137728422Y-119948422D01*
X137606608Y-120048392D01*
X137467629Y-120122679D01*
X137392228Y-120145551D01*
X137316827Y-120168424D01*
X137277649Y-120172283D01*
X137199295Y-120180000D01*
X137120705Y-120180000D01*
X137042351Y-120172283D01*
X137003173Y-120168424D01*
X136927772Y-120145551D01*
X136852371Y-120122679D01*
X136713392Y-120048392D01*
X136591578Y-119948422D01*
X136491608Y-119826608D01*
X136417321Y-119687629D01*
X136374550Y-119546630D01*
X136371576Y-119536827D01*
X136356130Y-119380000D01*
X136371576Y-119223173D01*
X136417321Y-119072372D01*
X136417321Y-119072371D01*
X136491608Y-118933392D01*
X136591578Y-118811578D01*
X136713392Y-118711608D01*
X136852371Y-118637321D01*
X136980615Y-118598419D01*
X137003173Y-118591576D01*
X137042351Y-118587717D01*
X137120705Y-118580000D01*
X137199295Y-118580000D01*
X137277649Y-118587717D01*
X137277649Y-118587717D01*
G37*
G36*
X134853352Y-118610743D02*
X134998941Y-118671048D01*
X135129973Y-118758601D01*
X135241399Y-118870027D01*
X135328952Y-119001059D01*
X135389257Y-119146648D01*
X135420000Y-119301205D01*
X135420000Y-119458795D01*
X135389257Y-119613352D01*
X135328952Y-119758941D01*
X135241399Y-119889973D01*
X135129973Y-120001399D01*
X134998941Y-120088952D01*
X134853352Y-120149257D01*
X134698795Y-120180000D01*
X134541205Y-120180000D01*
X134386648Y-120149257D01*
X134241059Y-120088952D01*
X134110027Y-120001399D01*
X133998601Y-119889973D01*
X133911048Y-119758941D01*
X133850743Y-119613352D01*
X133820000Y-119458795D01*
X133820000Y-119301205D01*
X133850743Y-119146648D01*
X133911048Y-119001059D01*
X133998601Y-118870027D01*
X134110027Y-118758601D01*
X134241059Y-118671048D01*
X134386648Y-118610743D01*
X134541205Y-118580000D01*
X134698795Y-118580000D01*
X134853352Y-118610743D01*
X134853352Y-118610743D01*
G37*
G36*
X129657649Y-118587717D02*
X129696827Y-118591576D01*
X129719385Y-118598419D01*
X129847629Y-118637321D01*
X129986608Y-118711608D01*
X130108422Y-118811578D01*
X130208392Y-118933392D01*
X130282679Y-119072371D01*
X130282679Y-119072372D01*
X130328424Y-119223173D01*
X130343870Y-119380000D01*
X130328424Y-119536827D01*
X130325450Y-119546630D01*
X130282679Y-119687629D01*
X130208392Y-119826608D01*
X130108422Y-119948422D01*
X129986608Y-120048392D01*
X129847629Y-120122679D01*
X129772228Y-120145551D01*
X129696827Y-120168424D01*
X129657649Y-120172283D01*
X129579295Y-120180000D01*
X129500705Y-120180000D01*
X129422351Y-120172283D01*
X129383173Y-120168424D01*
X129307772Y-120145551D01*
X129232371Y-120122679D01*
X129093392Y-120048392D01*
X128971578Y-119948422D01*
X128871608Y-119826608D01*
X128797321Y-119687629D01*
X128754550Y-119546630D01*
X128751576Y-119536827D01*
X128736130Y-119380000D01*
X128751576Y-119223173D01*
X128797321Y-119072372D01*
X128797321Y-119072371D01*
X128871608Y-118933392D01*
X128971578Y-118811578D01*
X129093392Y-118711608D01*
X129232371Y-118637321D01*
X129360615Y-118598419D01*
X129383173Y-118591576D01*
X129422351Y-118587717D01*
X129500705Y-118580000D01*
X129579295Y-118580000D01*
X129657649Y-118587717D01*
X129657649Y-118587717D01*
G37*
G36*
X101717649Y-113507717D02*
X101756827Y-113511576D01*
X101820012Y-113530743D01*
X101907629Y-113557321D01*
X102046608Y-113631608D01*
X102168422Y-113731578D01*
X102268392Y-113853392D01*
X102342679Y-113992371D01*
X102388424Y-114143174D01*
X102403870Y-114300000D01*
X102388424Y-114456826D01*
X102342679Y-114607629D01*
X102268392Y-114746608D01*
X102168422Y-114868422D01*
X102046608Y-114968392D01*
X101907629Y-115042679D01*
X101832228Y-115065551D01*
X101756827Y-115088424D01*
X101717649Y-115092283D01*
X101639295Y-115100000D01*
X101560705Y-115100000D01*
X101482351Y-115092283D01*
X101443173Y-115088424D01*
X101367772Y-115065551D01*
X101292371Y-115042679D01*
X101153392Y-114968392D01*
X101031578Y-114868422D01*
X100931608Y-114746608D01*
X100857321Y-114607629D01*
X100811576Y-114456826D01*
X100796130Y-114300000D01*
X100811576Y-114143174D01*
X100857321Y-113992371D01*
X100931608Y-113853392D01*
X101031578Y-113731578D01*
X101153392Y-113631608D01*
X101292371Y-113557321D01*
X101379988Y-113530743D01*
X101443173Y-113511576D01*
X101482351Y-113507717D01*
X101560705Y-113500000D01*
X101639295Y-113500000D01*
X101717649Y-113507717D01*
X101717649Y-113507717D01*
G37*
G36*
X96713352Y-113530743D02*
X96858941Y-113591048D01*
X96989973Y-113678601D01*
X97101399Y-113790027D01*
X97188952Y-113921059D01*
X97249257Y-114066648D01*
X97280000Y-114221205D01*
X97280000Y-114378795D01*
X97249257Y-114533352D01*
X97188952Y-114678941D01*
X97101399Y-114809973D01*
X96989973Y-114921399D01*
X96858941Y-115008952D01*
X96713352Y-115069257D01*
X96558795Y-115100000D01*
X96401205Y-115100000D01*
X96246648Y-115069257D01*
X96101059Y-115008952D01*
X95970027Y-114921399D01*
X95858601Y-114809973D01*
X95771048Y-114678941D01*
X95710743Y-114533352D01*
X95680000Y-114378795D01*
X95680000Y-114221205D01*
X95710743Y-114066648D01*
X95771048Y-113921059D01*
X95858601Y-113790027D01*
X95970027Y-113678601D01*
X96101059Y-113591048D01*
X96246648Y-113530743D01*
X96401205Y-113500000D01*
X96558795Y-113500000D01*
X96713352Y-113530743D01*
X96713352Y-113530743D01*
G37*
G36*
X94780000Y-115100000D02*
X93180000Y-115100000D01*
X93180000Y-113500000D01*
X94780000Y-113500000D01*
X94780000Y-115100000D01*
X94780000Y-115100000D01*
G37*
G36*
X89017649Y-113507717D02*
X89056827Y-113511576D01*
X89120012Y-113530743D01*
X89207629Y-113557321D01*
X89346608Y-113631608D01*
X89468422Y-113731578D01*
X89568392Y-113853392D01*
X89642679Y-113992371D01*
X89688424Y-114143174D01*
X89703870Y-114300000D01*
X89688424Y-114456826D01*
X89642679Y-114607629D01*
X89568392Y-114746608D01*
X89468422Y-114868422D01*
X89346608Y-114968392D01*
X89207629Y-115042679D01*
X89132228Y-115065551D01*
X89056827Y-115088424D01*
X89017649Y-115092283D01*
X88939295Y-115100000D01*
X88860705Y-115100000D01*
X88782351Y-115092283D01*
X88743173Y-115088424D01*
X88667772Y-115065551D01*
X88592371Y-115042679D01*
X88453392Y-114968392D01*
X88331578Y-114868422D01*
X88231608Y-114746608D01*
X88157321Y-114607629D01*
X88111576Y-114456826D01*
X88096130Y-114300000D01*
X88111576Y-114143174D01*
X88157321Y-113992371D01*
X88231608Y-113853392D01*
X88331578Y-113731578D01*
X88453392Y-113631608D01*
X88592371Y-113557321D01*
X88679988Y-113530743D01*
X88743173Y-113511576D01*
X88782351Y-113507717D01*
X88860705Y-113500000D01*
X88939295Y-113500000D01*
X89017649Y-113507717D01*
X89017649Y-113507717D01*
G37*
G36*
X106797649Y-113507717D02*
X106836827Y-113511576D01*
X106900012Y-113530743D01*
X106987629Y-113557321D01*
X107126608Y-113631608D01*
X107248422Y-113731578D01*
X107348392Y-113853392D01*
X107422679Y-113992371D01*
X107468424Y-114143174D01*
X107483870Y-114300000D01*
X107468424Y-114456826D01*
X107422679Y-114607629D01*
X107348392Y-114746608D01*
X107248422Y-114868422D01*
X107126608Y-114968392D01*
X106987629Y-115042679D01*
X106912228Y-115065551D01*
X106836827Y-115088424D01*
X106797649Y-115092283D01*
X106719295Y-115100000D01*
X106640705Y-115100000D01*
X106562351Y-115092283D01*
X106523173Y-115088424D01*
X106447772Y-115065551D01*
X106372371Y-115042679D01*
X106233392Y-114968392D01*
X106111578Y-114868422D01*
X106011608Y-114746608D01*
X105937321Y-114607629D01*
X105891576Y-114456826D01*
X105876130Y-114300000D01*
X105891576Y-114143174D01*
X105937321Y-113992371D01*
X106011608Y-113853392D01*
X106111578Y-113731578D01*
X106233392Y-113631608D01*
X106372371Y-113557321D01*
X106459988Y-113530743D01*
X106523173Y-113511576D01*
X106562351Y-113507717D01*
X106640705Y-113500000D01*
X106719295Y-113500000D01*
X106797649Y-113507717D01*
X106797649Y-113507717D01*
G37*
G36*
X104257649Y-113507717D02*
X104296827Y-113511576D01*
X104360012Y-113530743D01*
X104447629Y-113557321D01*
X104586608Y-113631608D01*
X104708422Y-113731578D01*
X104808392Y-113853392D01*
X104882679Y-113992371D01*
X104928424Y-114143174D01*
X104943870Y-114300000D01*
X104928424Y-114456826D01*
X104882679Y-114607629D01*
X104808392Y-114746608D01*
X104708422Y-114868422D01*
X104586608Y-114968392D01*
X104447629Y-115042679D01*
X104372228Y-115065551D01*
X104296827Y-115088424D01*
X104257649Y-115092283D01*
X104179295Y-115100000D01*
X104100705Y-115100000D01*
X104022351Y-115092283D01*
X103983173Y-115088424D01*
X103907772Y-115065551D01*
X103832371Y-115042679D01*
X103693392Y-114968392D01*
X103571578Y-114868422D01*
X103471608Y-114746608D01*
X103397321Y-114607629D01*
X103351576Y-114456826D01*
X103336130Y-114300000D01*
X103351576Y-114143174D01*
X103397321Y-113992371D01*
X103471608Y-113853392D01*
X103571578Y-113731578D01*
X103693392Y-113631608D01*
X103832371Y-113557321D01*
X103919988Y-113530743D01*
X103983173Y-113511576D01*
X104022351Y-113507717D01*
X104100705Y-113500000D01*
X104179295Y-113500000D01*
X104257649Y-113507717D01*
X104257649Y-113507717D01*
G37*
G36*
X83937649Y-113507717D02*
X83976827Y-113511576D01*
X84040012Y-113530743D01*
X84127629Y-113557321D01*
X84266608Y-113631608D01*
X84388422Y-113731578D01*
X84488392Y-113853392D01*
X84562679Y-113992371D01*
X84608424Y-114143174D01*
X84623870Y-114300000D01*
X84608424Y-114456826D01*
X84562679Y-114607629D01*
X84488392Y-114746608D01*
X84388422Y-114868422D01*
X84266608Y-114968392D01*
X84127629Y-115042679D01*
X84052228Y-115065551D01*
X83976827Y-115088424D01*
X83937649Y-115092283D01*
X83859295Y-115100000D01*
X83780705Y-115100000D01*
X83702351Y-115092283D01*
X83663173Y-115088424D01*
X83587772Y-115065551D01*
X83512371Y-115042679D01*
X83373392Y-114968392D01*
X83251578Y-114868422D01*
X83151608Y-114746608D01*
X83077321Y-114607629D01*
X83031576Y-114456826D01*
X83016130Y-114300000D01*
X83031576Y-114143174D01*
X83077321Y-113992371D01*
X83151608Y-113853392D01*
X83251578Y-113731578D01*
X83373392Y-113631608D01*
X83512371Y-113557321D01*
X83599988Y-113530743D01*
X83663173Y-113511576D01*
X83702351Y-113507717D01*
X83780705Y-113500000D01*
X83859295Y-113500000D01*
X83937649Y-113507717D01*
X83937649Y-113507717D01*
G37*
G36*
X86477649Y-113507717D02*
X86516827Y-113511576D01*
X86580012Y-113530743D01*
X86667629Y-113557321D01*
X86806608Y-113631608D01*
X86928422Y-113731578D01*
X87028392Y-113853392D01*
X87102679Y-113992371D01*
X87148424Y-114143174D01*
X87163870Y-114300000D01*
X87148424Y-114456826D01*
X87102679Y-114607629D01*
X87028392Y-114746608D01*
X86928422Y-114868422D01*
X86806608Y-114968392D01*
X86667629Y-115042679D01*
X86592228Y-115065551D01*
X86516827Y-115088424D01*
X86477649Y-115092283D01*
X86399295Y-115100000D01*
X86320705Y-115100000D01*
X86242351Y-115092283D01*
X86203173Y-115088424D01*
X86127772Y-115065551D01*
X86052371Y-115042679D01*
X85913392Y-114968392D01*
X85791578Y-114868422D01*
X85691608Y-114746608D01*
X85617321Y-114607629D01*
X85571576Y-114456826D01*
X85556130Y-114300000D01*
X85571576Y-114143174D01*
X85617321Y-113992371D01*
X85691608Y-113853392D01*
X85791578Y-113731578D01*
X85913392Y-113631608D01*
X86052371Y-113557321D01*
X86139988Y-113530743D01*
X86203173Y-113511576D01*
X86242351Y-113507717D01*
X86320705Y-113500000D01*
X86399295Y-113500000D01*
X86477649Y-113507717D01*
X86477649Y-113507717D01*
G37*
G36*
X72870060Y-108430060D02*
X69369940Y-108430060D01*
X69369940Y-104929940D01*
X72870060Y-104929940D01*
X72870060Y-108430060D01*
X72870060Y-108430060D01*
G37*
G36*
X76710473Y-104997193D02*
X77028963Y-105129116D01*
X77315601Y-105320641D01*
X77559359Y-105564399D01*
X77750884Y-105851037D01*
X77882807Y-106169527D01*
X77950060Y-106507633D01*
X77950060Y-106852367D01*
X77882807Y-107190473D01*
X77750884Y-107508963D01*
X77559359Y-107795601D01*
X77315601Y-108039359D01*
X77028963Y-108230884D01*
X76710473Y-108362807D01*
X76372367Y-108430060D01*
X76027633Y-108430060D01*
X75689527Y-108362807D01*
X75371037Y-108230884D01*
X75084399Y-108039359D01*
X74840641Y-107795601D01*
X74649116Y-107508963D01*
X74517193Y-107190473D01*
X74449940Y-106852367D01*
X74449940Y-106507633D01*
X74517193Y-106169527D01*
X74649116Y-105851037D01*
X74840641Y-105564399D01*
X75084399Y-105320641D01*
X75371037Y-105129116D01*
X75689527Y-104997193D01*
X76027633Y-104929940D01*
X76372367Y-104929940D01*
X76710473Y-104997193D01*
X76710473Y-104997193D01*
G37*
G36*
X96713352Y-105910743D02*
X96858941Y-105971048D01*
X96989973Y-106058601D01*
X97101399Y-106170027D01*
X97188952Y-106301059D01*
X97249257Y-106446648D01*
X97280000Y-106601205D01*
X97280000Y-106758795D01*
X97249257Y-106913352D01*
X97188952Y-107058941D01*
X97101399Y-107189973D01*
X96989973Y-107301399D01*
X96858941Y-107388952D01*
X96713352Y-107449257D01*
X96558795Y-107480000D01*
X96401205Y-107480000D01*
X96246648Y-107449257D01*
X96101059Y-107388952D01*
X95970027Y-107301399D01*
X95858601Y-107189973D01*
X95771048Y-107058941D01*
X95710743Y-106913352D01*
X95680000Y-106758795D01*
X95680000Y-106601205D01*
X95710743Y-106446648D01*
X95771048Y-106301059D01*
X95858601Y-106170027D01*
X95970027Y-106058601D01*
X96101059Y-105971048D01*
X96246648Y-105910743D01*
X96401205Y-105880000D01*
X96558795Y-105880000D01*
X96713352Y-105910743D01*
X96713352Y-105910743D01*
G37*
G36*
X94213352Y-105910743D02*
X94358941Y-105971048D01*
X94489973Y-106058601D01*
X94601399Y-106170027D01*
X94688952Y-106301059D01*
X94749257Y-106446648D01*
X94780000Y-106601205D01*
X94780000Y-106758795D01*
X94749257Y-106913352D01*
X94688952Y-107058941D01*
X94601399Y-107189973D01*
X94489973Y-107301399D01*
X94358941Y-107388952D01*
X94213352Y-107449257D01*
X94058795Y-107480000D01*
X93901205Y-107480000D01*
X93746648Y-107449257D01*
X93601059Y-107388952D01*
X93470027Y-107301399D01*
X93358601Y-107189973D01*
X93271048Y-107058941D01*
X93210743Y-106913352D01*
X93180000Y-106758795D01*
X93180000Y-106601205D01*
X93210743Y-106446648D01*
X93271048Y-106301059D01*
X93358601Y-106170027D01*
X93470027Y-106058601D01*
X93601059Y-105971048D01*
X93746648Y-105910743D01*
X93901205Y-105880000D01*
X94058795Y-105880000D01*
X94213352Y-105910743D01*
X94213352Y-105910743D01*
G37*
G36*
X60466703Y-103461486D02*
X60757883Y-103582097D01*
X61019944Y-103757201D01*
X61242799Y-103980056D01*
X61417903Y-104242117D01*
X61538514Y-104533297D01*
X61600000Y-104842412D01*
X61600000Y-105157588D01*
X61538514Y-105466703D01*
X61417903Y-105757883D01*
X61242799Y-106019944D01*
X61019944Y-106242799D01*
X60757883Y-106417903D01*
X60466703Y-106538514D01*
X60157588Y-106600000D01*
X59842412Y-106600000D01*
X59533297Y-106538514D01*
X59242117Y-106417903D01*
X58980056Y-106242799D01*
X58757201Y-106019944D01*
X58582097Y-105757883D01*
X58461486Y-105466703D01*
X58400000Y-105157588D01*
X58400000Y-104842412D01*
X58461486Y-104533297D01*
X58582097Y-104242117D01*
X58757201Y-103980056D01*
X58980056Y-103757201D01*
X59242117Y-103582097D01*
X59533297Y-103461486D01*
X59842412Y-103400000D01*
X60157588Y-103400000D01*
X60466703Y-103461486D01*
X60466703Y-103461486D01*
G37*
G36*
X140466703Y-103461486D02*
X140757883Y-103582097D01*
X141019944Y-103757201D01*
X141242799Y-103980056D01*
X141417903Y-104242117D01*
X141538514Y-104533297D01*
X141600000Y-104842412D01*
X141600000Y-105157588D01*
X141538514Y-105466703D01*
X141417903Y-105757883D01*
X141242799Y-106019944D01*
X141019944Y-106242799D01*
X140757883Y-106417903D01*
X140466703Y-106538514D01*
X140157588Y-106600000D01*
X139842412Y-106600000D01*
X139533297Y-106538514D01*
X139242117Y-106417903D01*
X138980056Y-106242799D01*
X138757201Y-106019944D01*
X138582097Y-105757883D01*
X138461486Y-105466703D01*
X138400000Y-105157588D01*
X138400000Y-104842412D01*
X138461486Y-104533297D01*
X138582097Y-104242117D01*
X138757201Y-103980056D01*
X138980056Y-103757201D01*
X139242117Y-103582097D01*
X139533297Y-103461486D01*
X139842412Y-103400000D01*
X140157588Y-103400000D01*
X140466703Y-103461486D01*
X140466703Y-103461486D01*
G37*
G36*
X89133352Y-103370743D02*
X89278941Y-103431048D01*
X89409973Y-103518601D01*
X89521399Y-103630027D01*
X89608952Y-103761059D01*
X89669257Y-103906648D01*
X89700000Y-104061205D01*
X89700000Y-104218795D01*
X89669257Y-104373352D01*
X89608952Y-104518941D01*
X89521399Y-104649973D01*
X89409973Y-104761399D01*
X89278941Y-104848952D01*
X89133352Y-104909257D01*
X88978795Y-104940000D01*
X88821205Y-104940000D01*
X88666648Y-104909257D01*
X88521059Y-104848952D01*
X88390027Y-104761399D01*
X88278601Y-104649973D01*
X88191048Y-104518941D01*
X88130743Y-104373352D01*
X88100000Y-104218795D01*
X88100000Y-104061205D01*
X88130743Y-103906648D01*
X88191048Y-103761059D01*
X88278601Y-103630027D01*
X88390027Y-103518601D01*
X88521059Y-103431048D01*
X88666648Y-103370743D01*
X88821205Y-103340000D01*
X88978795Y-103340000D01*
X89133352Y-103370743D01*
X89133352Y-103370743D01*
G37*
G36*
X86593352Y-103370743D02*
X86738941Y-103431048D01*
X86869973Y-103518601D01*
X86981399Y-103630027D01*
X87068952Y-103761059D01*
X87129257Y-103906648D01*
X87160000Y-104061205D01*
X87160000Y-104218795D01*
X87129257Y-104373352D01*
X87068952Y-104518941D01*
X86981399Y-104649973D01*
X86869973Y-104761399D01*
X86738941Y-104848952D01*
X86593352Y-104909257D01*
X86438795Y-104940000D01*
X86281205Y-104940000D01*
X86126648Y-104909257D01*
X85981059Y-104848952D01*
X85850027Y-104761399D01*
X85738601Y-104649973D01*
X85651048Y-104518941D01*
X85590743Y-104373352D01*
X85560000Y-104218795D01*
X85560000Y-104061205D01*
X85590743Y-103906648D01*
X85651048Y-103761059D01*
X85738601Y-103630027D01*
X85850027Y-103518601D01*
X85981059Y-103431048D01*
X86126648Y-103370743D01*
X86281205Y-103340000D01*
X86438795Y-103340000D01*
X86593352Y-103370743D01*
X86593352Y-103370743D01*
G37*
G36*
X84053352Y-103370743D02*
X84198941Y-103431048D01*
X84329973Y-103518601D01*
X84441399Y-103630027D01*
X84528952Y-103761059D01*
X84589257Y-103906648D01*
X84620000Y-104061205D01*
X84620000Y-104218795D01*
X84589257Y-104373352D01*
X84528952Y-104518941D01*
X84441399Y-104649973D01*
X84329973Y-104761399D01*
X84198941Y-104848952D01*
X84053352Y-104909257D01*
X83898795Y-104940000D01*
X83741205Y-104940000D01*
X83586648Y-104909257D01*
X83441059Y-104848952D01*
X83310027Y-104761399D01*
X83198601Y-104649973D01*
X83111048Y-104518941D01*
X83050743Y-104373352D01*
X83020000Y-104218795D01*
X83020000Y-104061205D01*
X83050743Y-103906648D01*
X83111048Y-103761059D01*
X83198601Y-103630027D01*
X83310027Y-103518601D01*
X83441059Y-103431048D01*
X83586648Y-103370743D01*
X83741205Y-103340000D01*
X83898795Y-103340000D01*
X84053352Y-103370743D01*
X84053352Y-103370743D01*
G37*
G36*
X101833352Y-103370743D02*
X101978941Y-103431048D01*
X102109973Y-103518601D01*
X102221399Y-103630027D01*
X102308952Y-103761059D01*
X102369257Y-103906648D01*
X102400000Y-104061205D01*
X102400000Y-104218795D01*
X102369257Y-104373352D01*
X102308952Y-104518941D01*
X102221399Y-104649973D01*
X102109973Y-104761399D01*
X101978941Y-104848952D01*
X101833352Y-104909257D01*
X101678795Y-104940000D01*
X101521205Y-104940000D01*
X101366648Y-104909257D01*
X101221059Y-104848952D01*
X101090027Y-104761399D01*
X100978601Y-104649973D01*
X100891048Y-104518941D01*
X100830743Y-104373352D01*
X100800000Y-104218795D01*
X100800000Y-104061205D01*
X100830743Y-103906648D01*
X100891048Y-103761059D01*
X100978601Y-103630027D01*
X101090027Y-103518601D01*
X101221059Y-103431048D01*
X101366648Y-103370743D01*
X101521205Y-103340000D01*
X101678795Y-103340000D01*
X101833352Y-103370743D01*
X101833352Y-103370743D01*
G37*
G36*
X104373352Y-103370743D02*
X104518941Y-103431048D01*
X104649973Y-103518601D01*
X104761399Y-103630027D01*
X104848952Y-103761059D01*
X104909257Y-103906648D01*
X104940000Y-104061205D01*
X104940000Y-104218795D01*
X104909257Y-104373352D01*
X104848952Y-104518941D01*
X104761399Y-104649973D01*
X104649973Y-104761399D01*
X104518941Y-104848952D01*
X104373352Y-104909257D01*
X104218795Y-104940000D01*
X104061205Y-104940000D01*
X103906648Y-104909257D01*
X103761059Y-104848952D01*
X103630027Y-104761399D01*
X103518601Y-104649973D01*
X103431048Y-104518941D01*
X103370743Y-104373352D01*
X103340000Y-104218795D01*
X103340000Y-104061205D01*
X103370743Y-103906648D01*
X103431048Y-103761059D01*
X103518601Y-103630027D01*
X103630027Y-103518601D01*
X103761059Y-103431048D01*
X103906648Y-103370743D01*
X104061205Y-103340000D01*
X104218795Y-103340000D01*
X104373352Y-103370743D01*
X104373352Y-103370743D01*
G37*
G36*
X106913352Y-103370743D02*
X107058941Y-103431048D01*
X107189973Y-103518601D01*
X107301399Y-103630027D01*
X107388952Y-103761059D01*
X107449257Y-103906648D01*
X107480000Y-104061205D01*
X107480000Y-104218795D01*
X107449257Y-104373352D01*
X107388952Y-104518941D01*
X107301399Y-104649973D01*
X107189973Y-104761399D01*
X107058941Y-104848952D01*
X106913352Y-104909257D01*
X106758795Y-104940000D01*
X106601205Y-104940000D01*
X106446648Y-104909257D01*
X106301059Y-104848952D01*
X106170027Y-104761399D01*
X106058601Y-104649973D01*
X105971048Y-104518941D01*
X105910743Y-104373352D01*
X105880000Y-104218795D01*
X105880000Y-104061205D01*
X105910743Y-103906648D01*
X105971048Y-103761059D01*
X106058601Y-103630027D01*
X106170027Y-103518601D01*
X106301059Y-103431048D01*
X106446648Y-103370743D01*
X106601205Y-103340000D01*
X106758795Y-103340000D01*
X106913352Y-103370743D01*
X106913352Y-103370743D01*
G37*
G36*
X91605039Y-92298086D02*
X91605042Y-92298087D01*
X91605043Y-92298087D01*
X91840669Y-92369563D01*
X92057823Y-92485634D01*
X92248160Y-92641840D01*
X92404366Y-92832177D01*
X92520437Y-93049332D01*
X92591913Y-93284958D01*
X92591914Y-93284962D01*
X92610000Y-93468592D01*
X92610000Y-94091409D01*
X92591914Y-94275039D01*
X92591913Y-94275042D01*
X92591913Y-94275043D01*
X92520437Y-94510669D01*
X92404366Y-94727823D01*
X92248160Y-94918160D01*
X92057822Y-95074366D01*
X91840668Y-95190437D01*
X91605042Y-95261913D01*
X91605041Y-95261913D01*
X91605038Y-95261914D01*
X91360000Y-95286048D01*
X91114961Y-95261914D01*
X91114958Y-95261913D01*
X91114957Y-95261913D01*
X90879331Y-95190437D01*
X90662177Y-95074366D01*
X90471840Y-94918160D01*
X90315634Y-94727822D01*
X90199563Y-94510668D01*
X90128087Y-94275042D01*
X90128087Y-94275041D01*
X90128086Y-94275038D01*
X90110000Y-94091408D01*
X90110000Y-93468591D01*
X90128086Y-93284961D01*
X90199564Y-93049329D01*
X90315635Y-92832176D01*
X90471841Y-92641840D01*
X90662177Y-92485635D01*
X90662176Y-92485635D01*
X90662178Y-92485634D01*
X90879332Y-92369563D01*
X91114958Y-92298087D01*
X91114959Y-92298087D01*
X91114962Y-92298086D01*
X91360000Y-92273952D01*
X91605039Y-92298086D01*
X91605039Y-92298086D01*
G37*
G36*
X61205039Y-92298086D02*
X61205042Y-92298087D01*
X61205043Y-92298087D01*
X61440669Y-92369563D01*
X61657823Y-92485634D01*
X61848160Y-92641840D01*
X62004366Y-92832177D01*
X62120437Y-93049332D01*
X62191913Y-93284958D01*
X62191914Y-93284962D01*
X62210000Y-93468592D01*
X62210000Y-94091409D01*
X62191914Y-94275039D01*
X62191913Y-94275042D01*
X62191913Y-94275043D01*
X62120437Y-94510669D01*
X62004366Y-94727823D01*
X61848160Y-94918160D01*
X61657822Y-95074366D01*
X61440668Y-95190437D01*
X61205042Y-95261913D01*
X61205041Y-95261913D01*
X61205038Y-95261914D01*
X60960000Y-95286048D01*
X60714961Y-95261914D01*
X60714958Y-95261913D01*
X60714957Y-95261913D01*
X60479331Y-95190437D01*
X60262177Y-95074366D01*
X60071840Y-94918160D01*
X59915634Y-94727822D01*
X59799563Y-94510668D01*
X59728087Y-94275042D01*
X59728087Y-94275041D01*
X59728086Y-94275038D01*
X59710000Y-94091408D01*
X59710000Y-93468591D01*
X59728086Y-93284961D01*
X59799564Y-93049329D01*
X59915635Y-92832176D01*
X60071841Y-92641840D01*
X60262177Y-92485635D01*
X60262176Y-92485635D01*
X60262178Y-92485634D01*
X60479332Y-92369563D01*
X60714958Y-92298087D01*
X60714959Y-92298087D01*
X60714962Y-92298086D01*
X60960000Y-92273952D01*
X61205039Y-92298086D01*
X61205039Y-92298086D01*
G37*
G36*
X66205039Y-92298086D02*
X66205042Y-92298087D01*
X66205043Y-92298087D01*
X66440669Y-92369563D01*
X66657823Y-92485634D01*
X66848160Y-92641840D01*
X67004366Y-92832177D01*
X67120437Y-93049332D01*
X67191913Y-93284958D01*
X67191914Y-93284962D01*
X67210000Y-93468592D01*
X67210000Y-94091409D01*
X67191914Y-94275039D01*
X67191913Y-94275042D01*
X67191913Y-94275043D01*
X67120437Y-94510669D01*
X67004366Y-94727823D01*
X66848160Y-94918160D01*
X66657822Y-95074366D01*
X66440668Y-95190437D01*
X66205042Y-95261913D01*
X66205041Y-95261913D01*
X66205038Y-95261914D01*
X65960000Y-95286048D01*
X65714961Y-95261914D01*
X65714958Y-95261913D01*
X65714957Y-95261913D01*
X65479331Y-95190437D01*
X65262177Y-95074366D01*
X65071840Y-94918160D01*
X64915634Y-94727822D01*
X64799563Y-94510668D01*
X64728087Y-94275042D01*
X64728087Y-94275041D01*
X64728086Y-94275038D01*
X64710000Y-94091408D01*
X64710000Y-93468591D01*
X64728086Y-93284961D01*
X64799564Y-93049329D01*
X64915635Y-92832176D01*
X65071841Y-92641840D01*
X65262177Y-92485635D01*
X65262176Y-92485635D01*
X65262178Y-92485634D01*
X65479332Y-92369563D01*
X65714958Y-92298087D01*
X65714959Y-92298087D01*
X65714962Y-92298086D01*
X65960000Y-92273952D01*
X66205039Y-92298086D01*
X66205039Y-92298086D01*
G37*
G36*
X73905039Y-92298086D02*
X73905042Y-92298087D01*
X73905043Y-92298087D01*
X74140669Y-92369563D01*
X74357823Y-92485634D01*
X74548160Y-92641840D01*
X74704366Y-92832177D01*
X74820437Y-93049332D01*
X74891913Y-93284958D01*
X74891914Y-93284962D01*
X74910000Y-93468592D01*
X74910000Y-94091409D01*
X74891914Y-94275039D01*
X74891913Y-94275042D01*
X74891913Y-94275043D01*
X74820437Y-94510669D01*
X74704366Y-94727823D01*
X74548160Y-94918160D01*
X74357822Y-95074366D01*
X74140668Y-95190437D01*
X73905042Y-95261913D01*
X73905041Y-95261913D01*
X73905038Y-95261914D01*
X73660000Y-95286048D01*
X73414961Y-95261914D01*
X73414958Y-95261913D01*
X73414957Y-95261913D01*
X73179331Y-95190437D01*
X72962177Y-95074366D01*
X72771840Y-94918160D01*
X72615634Y-94727822D01*
X72499563Y-94510668D01*
X72428087Y-94275042D01*
X72428087Y-94275041D01*
X72428086Y-94275038D01*
X72410000Y-94091408D01*
X72410000Y-93468591D01*
X72428086Y-93284961D01*
X72499564Y-93049329D01*
X72615635Y-92832176D01*
X72771841Y-92641840D01*
X72962177Y-92485635D01*
X72962176Y-92485635D01*
X72962178Y-92485634D01*
X73179332Y-92369563D01*
X73414958Y-92298087D01*
X73414959Y-92298087D01*
X73414962Y-92298086D01*
X73660000Y-92273952D01*
X73905039Y-92298086D01*
X73905039Y-92298086D01*
G37*
G36*
X78905039Y-92298086D02*
X78905042Y-92298087D01*
X78905043Y-92298087D01*
X79140669Y-92369563D01*
X79357823Y-92485634D01*
X79548160Y-92641840D01*
X79704366Y-92832177D01*
X79820437Y-93049332D01*
X79891913Y-93284958D01*
X79891914Y-93284962D01*
X79910000Y-93468592D01*
X79910000Y-94091409D01*
X79891914Y-94275039D01*
X79891913Y-94275042D01*
X79891913Y-94275043D01*
X79820437Y-94510669D01*
X79704366Y-94727823D01*
X79548160Y-94918160D01*
X79357822Y-95074366D01*
X79140668Y-95190437D01*
X78905042Y-95261913D01*
X78905041Y-95261913D01*
X78905038Y-95261914D01*
X78660000Y-95286048D01*
X78414961Y-95261914D01*
X78414958Y-95261913D01*
X78414957Y-95261913D01*
X78179331Y-95190437D01*
X77962177Y-95074366D01*
X77771840Y-94918160D01*
X77615634Y-94727822D01*
X77499563Y-94510668D01*
X77428087Y-94275042D01*
X77428087Y-94275041D01*
X77428086Y-94275038D01*
X77410000Y-94091408D01*
X77410000Y-93468591D01*
X77428086Y-93284961D01*
X77499564Y-93049329D01*
X77615635Y-92832176D01*
X77771841Y-92641840D01*
X77962177Y-92485635D01*
X77962176Y-92485635D01*
X77962178Y-92485634D01*
X78179332Y-92369563D01*
X78414958Y-92298087D01*
X78414959Y-92298087D01*
X78414962Y-92298086D01*
X78660000Y-92273952D01*
X78905039Y-92298086D01*
X78905039Y-92298086D01*
G37*
G36*
X109465039Y-92298086D02*
X109465042Y-92298087D01*
X109465043Y-92298087D01*
X109700669Y-92369563D01*
X109917823Y-92485634D01*
X110108160Y-92641840D01*
X110264366Y-92832177D01*
X110380437Y-93049332D01*
X110451913Y-93284958D01*
X110451914Y-93284962D01*
X110470000Y-93468592D01*
X110470000Y-94091409D01*
X110451914Y-94275039D01*
X110451913Y-94275042D01*
X110451913Y-94275043D01*
X110380437Y-94510669D01*
X110264366Y-94727823D01*
X110108160Y-94918160D01*
X109917822Y-95074366D01*
X109700668Y-95190437D01*
X109465042Y-95261913D01*
X109465041Y-95261913D01*
X109465038Y-95261914D01*
X109220000Y-95286048D01*
X108974961Y-95261914D01*
X108974958Y-95261913D01*
X108974957Y-95261913D01*
X108739331Y-95190437D01*
X108522177Y-95074366D01*
X108331840Y-94918160D01*
X108175634Y-94727822D01*
X108059563Y-94510668D01*
X107988087Y-94275042D01*
X107988087Y-94275041D01*
X107988086Y-94275038D01*
X107970000Y-94091408D01*
X107970000Y-93468591D01*
X107988086Y-93284961D01*
X108059564Y-93049329D01*
X108175635Y-92832176D01*
X108331841Y-92641840D01*
X108522177Y-92485635D01*
X108522176Y-92485635D01*
X108522178Y-92485634D01*
X108739332Y-92369563D01*
X108974958Y-92298087D01*
X108974959Y-92298087D01*
X108974962Y-92298086D01*
X109220000Y-92273952D01*
X109465039Y-92298086D01*
X109465039Y-92298086D01*
G37*
G36*
X122165039Y-92298086D02*
X122165042Y-92298087D01*
X122165043Y-92298087D01*
X122400669Y-92369563D01*
X122617823Y-92485634D01*
X122808160Y-92641840D01*
X122964366Y-92832177D01*
X123080437Y-93049332D01*
X123151913Y-93284958D01*
X123151914Y-93284962D01*
X123170000Y-93468592D01*
X123170000Y-94091409D01*
X123151914Y-94275039D01*
X123151913Y-94275042D01*
X123151913Y-94275043D01*
X123080437Y-94510669D01*
X122964366Y-94727823D01*
X122808160Y-94918160D01*
X122617822Y-95074366D01*
X122400668Y-95190437D01*
X122165042Y-95261913D01*
X122165041Y-95261913D01*
X122165038Y-95261914D01*
X121920000Y-95286048D01*
X121674961Y-95261914D01*
X121674958Y-95261913D01*
X121674957Y-95261913D01*
X121439331Y-95190437D01*
X121222177Y-95074366D01*
X121031840Y-94918160D01*
X120875634Y-94727822D01*
X120759563Y-94510668D01*
X120688087Y-94275042D01*
X120688087Y-94275041D01*
X120688086Y-94275038D01*
X120670000Y-94091408D01*
X120670000Y-93468591D01*
X120688086Y-93284961D01*
X120759564Y-93049329D01*
X120875635Y-92832176D01*
X121031841Y-92641840D01*
X121222177Y-92485635D01*
X121222176Y-92485635D01*
X121222178Y-92485634D01*
X121439332Y-92369563D01*
X121674958Y-92298087D01*
X121674959Y-92298087D01*
X121674962Y-92298086D01*
X121920000Y-92273952D01*
X122165039Y-92298086D01*
X122165039Y-92298086D01*
G37*
G36*
X86605039Y-92298086D02*
X86605042Y-92298087D01*
X86605043Y-92298087D01*
X86840669Y-92369563D01*
X87057823Y-92485634D01*
X87248160Y-92641840D01*
X87404366Y-92832177D01*
X87520437Y-93049332D01*
X87591913Y-93284958D01*
X87591914Y-93284962D01*
X87610000Y-93468592D01*
X87610000Y-94091409D01*
X87591914Y-94275039D01*
X87591913Y-94275042D01*
X87591913Y-94275043D01*
X87520437Y-94510669D01*
X87404366Y-94727823D01*
X87248160Y-94918160D01*
X87057822Y-95074366D01*
X86840668Y-95190437D01*
X86605042Y-95261913D01*
X86605041Y-95261913D01*
X86605038Y-95261914D01*
X86360000Y-95286048D01*
X86114961Y-95261914D01*
X86114958Y-95261913D01*
X86114957Y-95261913D01*
X85879331Y-95190437D01*
X85662177Y-95074366D01*
X85471840Y-94918160D01*
X85315634Y-94727822D01*
X85199563Y-94510668D01*
X85128087Y-94275042D01*
X85128087Y-94275041D01*
X85128086Y-94275038D01*
X85110000Y-94091408D01*
X85110000Y-93468591D01*
X85128086Y-93284961D01*
X85199564Y-93049329D01*
X85315635Y-92832176D01*
X85471841Y-92641840D01*
X85662177Y-92485635D01*
X85662176Y-92485635D01*
X85662178Y-92485634D01*
X85879332Y-92369563D01*
X86114958Y-92298087D01*
X86114959Y-92298087D01*
X86114962Y-92298086D01*
X86360000Y-92273952D01*
X86605039Y-92298086D01*
X86605039Y-92298086D01*
G37*
G36*
X127165039Y-92298086D02*
X127165042Y-92298087D01*
X127165043Y-92298087D01*
X127400669Y-92369563D01*
X127617823Y-92485634D01*
X127808160Y-92641840D01*
X127964366Y-92832177D01*
X128080437Y-93049332D01*
X128151913Y-93284958D01*
X128151914Y-93284962D01*
X128170000Y-93468592D01*
X128170000Y-94091409D01*
X128151914Y-94275039D01*
X128151913Y-94275042D01*
X128151913Y-94275043D01*
X128080437Y-94510669D01*
X127964366Y-94727823D01*
X127808160Y-94918160D01*
X127617822Y-95074366D01*
X127400668Y-95190437D01*
X127165042Y-95261913D01*
X127165041Y-95261913D01*
X127165038Y-95261914D01*
X126920000Y-95286048D01*
X126674961Y-95261914D01*
X126674958Y-95261913D01*
X126674957Y-95261913D01*
X126439331Y-95190437D01*
X126222177Y-95074366D01*
X126031840Y-94918160D01*
X125875634Y-94727822D01*
X125759563Y-94510668D01*
X125688087Y-94275042D01*
X125688087Y-94275041D01*
X125688086Y-94275038D01*
X125670000Y-94091408D01*
X125670000Y-93468591D01*
X125688086Y-93284961D01*
X125759564Y-93049329D01*
X125875635Y-92832176D01*
X126031841Y-92641840D01*
X126222177Y-92485635D01*
X126222176Y-92485635D01*
X126222178Y-92485634D01*
X126439332Y-92369563D01*
X126674958Y-92298087D01*
X126674959Y-92298087D01*
X126674962Y-92298086D01*
X126920000Y-92273952D01*
X127165039Y-92298086D01*
X127165039Y-92298086D01*
G37*
G36*
X134865039Y-92298086D02*
X134865042Y-92298087D01*
X134865043Y-92298087D01*
X135100669Y-92369563D01*
X135317823Y-92485634D01*
X135508160Y-92641840D01*
X135664366Y-92832177D01*
X135780437Y-93049332D01*
X135851913Y-93284958D01*
X135851914Y-93284962D01*
X135870000Y-93468592D01*
X135870000Y-94091409D01*
X135851914Y-94275039D01*
X135851913Y-94275042D01*
X135851913Y-94275043D01*
X135780437Y-94510669D01*
X135664366Y-94727823D01*
X135508160Y-94918160D01*
X135317822Y-95074366D01*
X135100668Y-95190437D01*
X134865042Y-95261913D01*
X134865041Y-95261913D01*
X134865038Y-95261914D01*
X134620000Y-95286048D01*
X134374961Y-95261914D01*
X134374958Y-95261913D01*
X134374957Y-95261913D01*
X134139331Y-95190437D01*
X133922177Y-95074366D01*
X133731840Y-94918160D01*
X133575634Y-94727822D01*
X133459563Y-94510668D01*
X133388087Y-94275042D01*
X133388087Y-94275041D01*
X133388086Y-94275038D01*
X133370000Y-94091408D01*
X133370000Y-93468591D01*
X133388086Y-93284961D01*
X133459564Y-93049329D01*
X133575635Y-92832176D01*
X133731841Y-92641840D01*
X133922177Y-92485635D01*
X133922176Y-92485635D01*
X133922178Y-92485634D01*
X134139332Y-92369563D01*
X134374958Y-92298087D01*
X134374959Y-92298087D01*
X134374962Y-92298086D01*
X134620000Y-92273952D01*
X134865039Y-92298086D01*
X134865039Y-92298086D01*
G37*
G36*
X114465039Y-92298086D02*
X114465042Y-92298087D01*
X114465043Y-92298087D01*
X114700669Y-92369563D01*
X114917823Y-92485634D01*
X115108160Y-92641840D01*
X115264366Y-92832177D01*
X115380437Y-93049332D01*
X115451913Y-93284958D01*
X115451914Y-93284962D01*
X115470000Y-93468592D01*
X115470000Y-94091409D01*
X115451914Y-94275039D01*
X115451913Y-94275042D01*
X115451913Y-94275043D01*
X115380437Y-94510669D01*
X115264366Y-94727823D01*
X115108160Y-94918160D01*
X114917822Y-95074366D01*
X114700668Y-95190437D01*
X114465042Y-95261913D01*
X114465041Y-95261913D01*
X114465038Y-95261914D01*
X114220000Y-95286048D01*
X113974961Y-95261914D01*
X113974958Y-95261913D01*
X113974957Y-95261913D01*
X113739331Y-95190437D01*
X113522177Y-95074366D01*
X113331840Y-94918160D01*
X113175634Y-94727822D01*
X113059563Y-94510668D01*
X112988087Y-94275042D01*
X112988087Y-94275041D01*
X112988086Y-94275038D01*
X112970000Y-94091408D01*
X112970000Y-93468591D01*
X112988086Y-93284961D01*
X113059564Y-93049329D01*
X113175635Y-92832176D01*
X113331841Y-92641840D01*
X113522177Y-92485635D01*
X113522176Y-92485635D01*
X113522178Y-92485634D01*
X113739332Y-92369563D01*
X113974958Y-92298087D01*
X113974959Y-92298087D01*
X113974962Y-92298086D01*
X114220000Y-92273952D01*
X114465039Y-92298086D01*
X114465039Y-92298086D01*
G37*
G36*
X139865039Y-92298086D02*
X139865042Y-92298087D01*
X139865043Y-92298087D01*
X140100669Y-92369563D01*
X140317823Y-92485634D01*
X140508160Y-92641840D01*
X140664366Y-92832177D01*
X140780437Y-93049332D01*
X140851913Y-93284958D01*
X140851914Y-93284962D01*
X140870000Y-93468592D01*
X140870000Y-94091409D01*
X140851914Y-94275039D01*
X140851913Y-94275042D01*
X140851913Y-94275043D01*
X140780437Y-94510669D01*
X140664366Y-94727823D01*
X140508160Y-94918160D01*
X140317822Y-95074366D01*
X140100668Y-95190437D01*
X139865042Y-95261913D01*
X139865041Y-95261913D01*
X139865038Y-95261914D01*
X139620000Y-95286048D01*
X139374961Y-95261914D01*
X139374958Y-95261913D01*
X139374957Y-95261913D01*
X139139331Y-95190437D01*
X138922177Y-95074366D01*
X138731840Y-94918160D01*
X138575634Y-94727822D01*
X138459563Y-94510668D01*
X138388087Y-94275042D01*
X138388087Y-94275041D01*
X138388086Y-94275038D01*
X138370000Y-94091408D01*
X138370000Y-93468591D01*
X138388086Y-93284961D01*
X138459564Y-93049329D01*
X138575635Y-92832176D01*
X138731841Y-92641840D01*
X138922177Y-92485635D01*
X138922176Y-92485635D01*
X138922178Y-92485634D01*
X139139332Y-92369563D01*
X139374958Y-92298087D01*
X139374959Y-92298087D01*
X139374962Y-92298086D01*
X139620000Y-92273952D01*
X139865039Y-92298086D01*
X139865039Y-92298086D01*
G37*
G36*
X91605039Y-79798086D02*
X91605042Y-79798087D01*
X91605043Y-79798087D01*
X91840669Y-79869563D01*
X92057823Y-79985634D01*
X92248160Y-80141840D01*
X92404366Y-80332177D01*
X92520437Y-80549332D01*
X92591913Y-80784958D01*
X92591914Y-80784962D01*
X92610000Y-80968592D01*
X92610000Y-81591409D01*
X92591914Y-81775039D01*
X92591913Y-81775042D01*
X92591913Y-81775043D01*
X92520437Y-82010669D01*
X92404366Y-82227823D01*
X92248160Y-82418160D01*
X92057822Y-82574366D01*
X91840668Y-82690437D01*
X91605042Y-82761913D01*
X91605041Y-82761913D01*
X91605038Y-82761914D01*
X91360000Y-82786048D01*
X91114961Y-82761914D01*
X91114958Y-82761913D01*
X91114957Y-82761913D01*
X90879331Y-82690437D01*
X90662177Y-82574366D01*
X90471840Y-82418160D01*
X90315634Y-82227822D01*
X90199563Y-82010668D01*
X90128087Y-81775042D01*
X90128087Y-81775041D01*
X90128086Y-81775038D01*
X90110000Y-81591408D01*
X90110000Y-80968591D01*
X90128086Y-80784961D01*
X90128087Y-80784957D01*
X90199563Y-80549331D01*
X90243729Y-80466703D01*
X90315635Y-80332176D01*
X90471841Y-80141840D01*
X90662177Y-79985635D01*
X90662176Y-79985635D01*
X90662178Y-79985634D01*
X90879332Y-79869563D01*
X91114958Y-79798087D01*
X91114959Y-79798087D01*
X91114962Y-79798086D01*
X91360000Y-79773952D01*
X91605039Y-79798086D01*
X91605039Y-79798086D01*
G37*
G36*
X86605039Y-79798086D02*
X86605042Y-79798087D01*
X86605043Y-79798087D01*
X86840669Y-79869563D01*
X87057823Y-79985634D01*
X87248160Y-80141840D01*
X87404366Y-80332177D01*
X87520437Y-80549332D01*
X87591913Y-80784958D01*
X87591914Y-80784962D01*
X87610000Y-80968592D01*
X87610000Y-81591409D01*
X87591914Y-81775039D01*
X87591913Y-81775042D01*
X87591913Y-81775043D01*
X87520437Y-82010669D01*
X87404366Y-82227823D01*
X87248160Y-82418160D01*
X87057822Y-82574366D01*
X86840668Y-82690437D01*
X86605042Y-82761913D01*
X86605041Y-82761913D01*
X86605038Y-82761914D01*
X86360000Y-82786048D01*
X86114961Y-82761914D01*
X86114958Y-82761913D01*
X86114957Y-82761913D01*
X85879331Y-82690437D01*
X85662177Y-82574366D01*
X85471840Y-82418160D01*
X85315634Y-82227822D01*
X85199563Y-82010668D01*
X85128087Y-81775042D01*
X85128087Y-81775041D01*
X85128086Y-81775038D01*
X85110000Y-81591408D01*
X85110000Y-80968591D01*
X85128086Y-80784961D01*
X85128087Y-80784957D01*
X85199563Y-80549331D01*
X85243729Y-80466703D01*
X85315635Y-80332176D01*
X85471841Y-80141840D01*
X85662177Y-79985635D01*
X85662176Y-79985635D01*
X85662178Y-79985634D01*
X85879332Y-79869563D01*
X86114958Y-79798087D01*
X86114959Y-79798087D01*
X86114962Y-79798086D01*
X86360000Y-79773952D01*
X86605039Y-79798086D01*
X86605039Y-79798086D01*
G37*
G36*
X61205039Y-79798086D02*
X61205042Y-79798087D01*
X61205043Y-79798087D01*
X61440669Y-79869563D01*
X61657823Y-79985634D01*
X61848160Y-80141840D01*
X62004366Y-80332177D01*
X62120437Y-80549332D01*
X62191913Y-80784958D01*
X62191914Y-80784962D01*
X62210000Y-80968592D01*
X62210000Y-81591409D01*
X62191914Y-81775039D01*
X62191913Y-81775042D01*
X62191913Y-81775043D01*
X62120437Y-82010669D01*
X62004366Y-82227823D01*
X61848160Y-82418160D01*
X61657822Y-82574366D01*
X61440668Y-82690437D01*
X61205042Y-82761913D01*
X61205041Y-82761913D01*
X61205038Y-82761914D01*
X60960000Y-82786048D01*
X60714961Y-82761914D01*
X60714958Y-82761913D01*
X60714957Y-82761913D01*
X60479331Y-82690437D01*
X60262177Y-82574366D01*
X60071840Y-82418160D01*
X59915634Y-82227822D01*
X59799563Y-82010668D01*
X59728087Y-81775042D01*
X59728087Y-81775041D01*
X59728086Y-81775038D01*
X59710000Y-81591408D01*
X59710000Y-80968591D01*
X59728086Y-80784961D01*
X59728087Y-80784957D01*
X59799563Y-80549331D01*
X59843729Y-80466703D01*
X59915635Y-80332176D01*
X60071841Y-80141840D01*
X60262177Y-79985635D01*
X60262176Y-79985635D01*
X60262178Y-79985634D01*
X60479332Y-79869563D01*
X60714958Y-79798087D01*
X60714959Y-79798087D01*
X60714962Y-79798086D01*
X60960000Y-79773952D01*
X61205039Y-79798086D01*
X61205039Y-79798086D01*
G37*
G36*
X66205039Y-79798086D02*
X66205042Y-79798087D01*
X66205043Y-79798087D01*
X66440669Y-79869563D01*
X66657823Y-79985634D01*
X66848160Y-80141840D01*
X67004366Y-80332177D01*
X67120437Y-80549332D01*
X67191913Y-80784958D01*
X67191914Y-80784962D01*
X67210000Y-80968592D01*
X67210000Y-81591409D01*
X67191914Y-81775039D01*
X67191913Y-81775042D01*
X67191913Y-81775043D01*
X67120437Y-82010669D01*
X67004366Y-82227823D01*
X66848160Y-82418160D01*
X66657822Y-82574366D01*
X66440668Y-82690437D01*
X66205042Y-82761913D01*
X66205041Y-82761913D01*
X66205038Y-82761914D01*
X65960000Y-82786048D01*
X65714961Y-82761914D01*
X65714958Y-82761913D01*
X65714957Y-82761913D01*
X65479331Y-82690437D01*
X65262177Y-82574366D01*
X65071840Y-82418160D01*
X64915634Y-82227822D01*
X64799563Y-82010668D01*
X64728087Y-81775042D01*
X64728087Y-81775041D01*
X64728086Y-81775038D01*
X64710000Y-81591408D01*
X64710000Y-80968591D01*
X64728086Y-80784961D01*
X64728087Y-80784957D01*
X64799563Y-80549331D01*
X64843729Y-80466703D01*
X64915635Y-80332176D01*
X65071841Y-80141840D01*
X65262177Y-79985635D01*
X65262176Y-79985635D01*
X65262178Y-79985634D01*
X65479332Y-79869563D01*
X65714958Y-79798087D01*
X65714959Y-79798087D01*
X65714962Y-79798086D01*
X65960000Y-79773952D01*
X66205039Y-79798086D01*
X66205039Y-79798086D01*
G37*
G36*
X109465039Y-79798086D02*
X109465042Y-79798087D01*
X109465043Y-79798087D01*
X109700669Y-79869563D01*
X109917823Y-79985634D01*
X110108160Y-80141840D01*
X110264366Y-80332177D01*
X110380437Y-80549332D01*
X110451913Y-80784958D01*
X110451914Y-80784962D01*
X110470000Y-80968592D01*
X110470000Y-81591409D01*
X110451914Y-81775039D01*
X110451913Y-81775042D01*
X110451913Y-81775043D01*
X110380437Y-82010669D01*
X110264366Y-82227823D01*
X110108160Y-82418160D01*
X109917822Y-82574366D01*
X109700668Y-82690437D01*
X109465042Y-82761913D01*
X109465041Y-82761913D01*
X109465038Y-82761914D01*
X109220000Y-82786048D01*
X108974961Y-82761914D01*
X108974958Y-82761913D01*
X108974957Y-82761913D01*
X108739331Y-82690437D01*
X108522177Y-82574366D01*
X108331840Y-82418160D01*
X108175634Y-82227822D01*
X108059563Y-82010668D01*
X107988087Y-81775042D01*
X107988087Y-81775041D01*
X107988086Y-81775038D01*
X107970000Y-81591408D01*
X107970000Y-80968591D01*
X107988086Y-80784961D01*
X107988087Y-80784957D01*
X108059563Y-80549331D01*
X108103729Y-80466703D01*
X108175635Y-80332176D01*
X108331841Y-80141840D01*
X108522177Y-79985635D01*
X108522176Y-79985635D01*
X108522178Y-79985634D01*
X108739332Y-79869563D01*
X108974958Y-79798087D01*
X108974959Y-79798087D01*
X108974962Y-79798086D01*
X109220000Y-79773952D01*
X109465039Y-79798086D01*
X109465039Y-79798086D01*
G37*
G36*
X114465039Y-79798086D02*
X114465042Y-79798087D01*
X114465043Y-79798087D01*
X114700669Y-79869563D01*
X114917823Y-79985634D01*
X115108160Y-80141840D01*
X115264366Y-80332177D01*
X115380437Y-80549332D01*
X115451913Y-80784958D01*
X115451914Y-80784962D01*
X115470000Y-80968592D01*
X115470000Y-81591409D01*
X115451914Y-81775039D01*
X115451913Y-81775042D01*
X115451913Y-81775043D01*
X115380437Y-82010669D01*
X115264366Y-82227823D01*
X115108160Y-82418160D01*
X114917822Y-82574366D01*
X114700668Y-82690437D01*
X114465042Y-82761913D01*
X114465041Y-82761913D01*
X114465038Y-82761914D01*
X114220000Y-82786048D01*
X113974961Y-82761914D01*
X113974958Y-82761913D01*
X113974957Y-82761913D01*
X113739331Y-82690437D01*
X113522177Y-82574366D01*
X113331840Y-82418160D01*
X113175634Y-82227822D01*
X113059563Y-82010668D01*
X112988087Y-81775042D01*
X112988087Y-81775041D01*
X112988086Y-81775038D01*
X112970000Y-81591408D01*
X112970000Y-80968591D01*
X112988086Y-80784961D01*
X112988087Y-80784957D01*
X113059563Y-80549331D01*
X113103729Y-80466703D01*
X113175635Y-80332176D01*
X113331841Y-80141840D01*
X113522177Y-79985635D01*
X113522176Y-79985635D01*
X113522178Y-79985634D01*
X113739332Y-79869563D01*
X113974958Y-79798087D01*
X113974959Y-79798087D01*
X113974962Y-79798086D01*
X114220000Y-79773952D01*
X114465039Y-79798086D01*
X114465039Y-79798086D01*
G37*
G36*
X78905039Y-79798086D02*
X78905042Y-79798087D01*
X78905043Y-79798087D01*
X79140669Y-79869563D01*
X79357823Y-79985634D01*
X79548160Y-80141840D01*
X79704366Y-80332177D01*
X79820437Y-80549332D01*
X79891913Y-80784958D01*
X79891914Y-80784962D01*
X79910000Y-80968592D01*
X79910000Y-81591409D01*
X79891914Y-81775039D01*
X79891913Y-81775042D01*
X79891913Y-81775043D01*
X79820437Y-82010669D01*
X79704366Y-82227823D01*
X79548160Y-82418160D01*
X79357822Y-82574366D01*
X79140668Y-82690437D01*
X78905042Y-82761913D01*
X78905041Y-82761913D01*
X78905038Y-82761914D01*
X78660000Y-82786048D01*
X78414961Y-82761914D01*
X78414958Y-82761913D01*
X78414957Y-82761913D01*
X78179331Y-82690437D01*
X77962177Y-82574366D01*
X77771840Y-82418160D01*
X77615634Y-82227822D01*
X77499563Y-82010668D01*
X77428087Y-81775042D01*
X77428087Y-81775041D01*
X77428086Y-81775038D01*
X77410000Y-81591408D01*
X77410000Y-80968591D01*
X77428086Y-80784961D01*
X77428087Y-80784957D01*
X77499563Y-80549331D01*
X77543729Y-80466703D01*
X77615635Y-80332176D01*
X77771841Y-80141840D01*
X77962177Y-79985635D01*
X77962176Y-79985635D01*
X77962178Y-79985634D01*
X78179332Y-79869563D01*
X78414958Y-79798087D01*
X78414959Y-79798087D01*
X78414962Y-79798086D01*
X78660000Y-79773952D01*
X78905039Y-79798086D01*
X78905039Y-79798086D01*
G37*
G36*
X139865039Y-79798086D02*
X139865042Y-79798087D01*
X139865043Y-79798087D01*
X140100669Y-79869563D01*
X140317823Y-79985634D01*
X140508160Y-80141840D01*
X140664366Y-80332177D01*
X140780437Y-80549332D01*
X140851913Y-80784958D01*
X140851914Y-80784962D01*
X140870000Y-80968592D01*
X140870000Y-81591409D01*
X140851914Y-81775039D01*
X140851913Y-81775042D01*
X140851913Y-81775043D01*
X140780437Y-82010669D01*
X140664366Y-82227823D01*
X140508160Y-82418160D01*
X140317822Y-82574366D01*
X140100668Y-82690437D01*
X139865042Y-82761913D01*
X139865041Y-82761913D01*
X139865038Y-82761914D01*
X139620000Y-82786048D01*
X139374961Y-82761914D01*
X139374958Y-82761913D01*
X139374957Y-82761913D01*
X139139331Y-82690437D01*
X138922177Y-82574366D01*
X138731840Y-82418160D01*
X138575634Y-82227822D01*
X138459563Y-82010668D01*
X138388087Y-81775042D01*
X138388087Y-81775041D01*
X138388086Y-81775038D01*
X138370000Y-81591408D01*
X138370000Y-80968591D01*
X138388086Y-80784961D01*
X138388087Y-80784957D01*
X138459563Y-80549331D01*
X138503729Y-80466703D01*
X138575635Y-80332176D01*
X138731841Y-80141840D01*
X138922177Y-79985635D01*
X138922176Y-79985635D01*
X138922178Y-79985634D01*
X139139332Y-79869563D01*
X139374958Y-79798087D01*
X139374959Y-79798087D01*
X139374962Y-79798086D01*
X139620000Y-79773952D01*
X139865039Y-79798086D01*
X139865039Y-79798086D01*
G37*
G36*
X134865039Y-79798086D02*
X134865042Y-79798087D01*
X134865043Y-79798087D01*
X135100669Y-79869563D01*
X135317823Y-79985634D01*
X135508160Y-80141840D01*
X135664366Y-80332177D01*
X135780437Y-80549332D01*
X135851913Y-80784958D01*
X135851914Y-80784962D01*
X135870000Y-80968592D01*
X135870000Y-81591409D01*
X135851914Y-81775039D01*
X135851913Y-81775042D01*
X135851913Y-81775043D01*
X135780437Y-82010669D01*
X135664366Y-82227823D01*
X135508160Y-82418160D01*
X135317822Y-82574366D01*
X135100668Y-82690437D01*
X134865042Y-82761913D01*
X134865041Y-82761913D01*
X134865038Y-82761914D01*
X134620000Y-82786048D01*
X134374961Y-82761914D01*
X134374958Y-82761913D01*
X134374957Y-82761913D01*
X134139331Y-82690437D01*
X133922177Y-82574366D01*
X133731840Y-82418160D01*
X133575634Y-82227822D01*
X133459563Y-82010668D01*
X133388087Y-81775042D01*
X133388087Y-81775041D01*
X133388086Y-81775038D01*
X133370000Y-81591408D01*
X133370000Y-80968591D01*
X133388086Y-80784961D01*
X133388087Y-80784957D01*
X133459563Y-80549331D01*
X133503729Y-80466703D01*
X133575635Y-80332176D01*
X133731841Y-80141840D01*
X133922177Y-79985635D01*
X133922176Y-79985635D01*
X133922178Y-79985634D01*
X134139332Y-79869563D01*
X134374958Y-79798087D01*
X134374959Y-79798087D01*
X134374962Y-79798086D01*
X134620000Y-79773952D01*
X134865039Y-79798086D01*
X134865039Y-79798086D01*
G37*
G36*
X122165039Y-79798086D02*
X122165042Y-79798087D01*
X122165043Y-79798087D01*
X122400669Y-79869563D01*
X122617823Y-79985634D01*
X122808160Y-80141840D01*
X122964366Y-80332177D01*
X123080437Y-80549332D01*
X123151913Y-80784958D01*
X123151914Y-80784962D01*
X123170000Y-80968592D01*
X123170000Y-81591409D01*
X123151914Y-81775039D01*
X123151913Y-81775042D01*
X123151913Y-81775043D01*
X123080437Y-82010669D01*
X122964366Y-82227823D01*
X122808160Y-82418160D01*
X122617822Y-82574366D01*
X122400668Y-82690437D01*
X122165042Y-82761913D01*
X122165041Y-82761913D01*
X122165038Y-82761914D01*
X121920000Y-82786048D01*
X121674961Y-82761914D01*
X121674958Y-82761913D01*
X121674957Y-82761913D01*
X121439331Y-82690437D01*
X121222177Y-82574366D01*
X121031840Y-82418160D01*
X120875634Y-82227822D01*
X120759563Y-82010668D01*
X120688087Y-81775042D01*
X120688087Y-81775041D01*
X120688086Y-81775038D01*
X120670000Y-81591408D01*
X120670000Y-80968591D01*
X120688086Y-80784961D01*
X120688087Y-80784957D01*
X120759563Y-80549331D01*
X120803729Y-80466703D01*
X120875635Y-80332176D01*
X121031841Y-80141840D01*
X121222177Y-79985635D01*
X121222176Y-79985635D01*
X121222178Y-79985634D01*
X121439332Y-79869563D01*
X121674958Y-79798087D01*
X121674959Y-79798087D01*
X121674962Y-79798086D01*
X121920000Y-79773952D01*
X122165039Y-79798086D01*
X122165039Y-79798086D01*
G37*
G36*
X73905039Y-79798086D02*
X73905042Y-79798087D01*
X73905043Y-79798087D01*
X74140669Y-79869563D01*
X74357823Y-79985634D01*
X74548160Y-80141840D01*
X74704366Y-80332177D01*
X74820437Y-80549332D01*
X74891913Y-80784958D01*
X74891914Y-80784962D01*
X74910000Y-80968592D01*
X74910000Y-81591409D01*
X74891914Y-81775039D01*
X74891913Y-81775042D01*
X74891913Y-81775043D01*
X74820437Y-82010669D01*
X74704366Y-82227823D01*
X74548160Y-82418160D01*
X74357822Y-82574366D01*
X74140668Y-82690437D01*
X73905042Y-82761913D01*
X73905041Y-82761913D01*
X73905038Y-82761914D01*
X73660000Y-82786048D01*
X73414961Y-82761914D01*
X73414958Y-82761913D01*
X73414957Y-82761913D01*
X73179331Y-82690437D01*
X72962177Y-82574366D01*
X72771840Y-82418160D01*
X72615634Y-82227822D01*
X72499563Y-82010668D01*
X72428087Y-81775042D01*
X72428087Y-81775041D01*
X72428086Y-81775038D01*
X72410000Y-81591408D01*
X72410000Y-80968591D01*
X72428086Y-80784961D01*
X72428087Y-80784957D01*
X72499563Y-80549331D01*
X72543729Y-80466703D01*
X72615635Y-80332176D01*
X72771841Y-80141840D01*
X72962177Y-79985635D01*
X72962176Y-79985635D01*
X72962178Y-79985634D01*
X73179332Y-79869563D01*
X73414958Y-79798087D01*
X73414959Y-79798087D01*
X73414962Y-79798086D01*
X73660000Y-79773952D01*
X73905039Y-79798086D01*
X73905039Y-79798086D01*
G37*
G36*
X127165039Y-79798086D02*
X127165042Y-79798087D01*
X127165043Y-79798087D01*
X127400669Y-79869563D01*
X127617823Y-79985634D01*
X127808160Y-80141840D01*
X127964366Y-80332177D01*
X128080437Y-80549332D01*
X128151913Y-80784958D01*
X128151914Y-80784962D01*
X128170000Y-80968592D01*
X128170000Y-81591409D01*
X128151914Y-81775039D01*
X128151913Y-81775042D01*
X128151913Y-81775043D01*
X128080437Y-82010669D01*
X127964366Y-82227823D01*
X127808160Y-82418160D01*
X127617822Y-82574366D01*
X127400668Y-82690437D01*
X127165042Y-82761913D01*
X127165041Y-82761913D01*
X127165038Y-82761914D01*
X126920000Y-82786048D01*
X126674961Y-82761914D01*
X126674958Y-82761913D01*
X126674957Y-82761913D01*
X126439331Y-82690437D01*
X126222177Y-82574366D01*
X126031840Y-82418160D01*
X125875634Y-82227822D01*
X125759563Y-82010668D01*
X125688087Y-81775042D01*
X125688087Y-81775041D01*
X125688086Y-81775038D01*
X125670000Y-81591408D01*
X125670000Y-80968591D01*
X125688086Y-80784961D01*
X125688087Y-80784957D01*
X125759563Y-80549331D01*
X125803729Y-80466703D01*
X125875635Y-80332176D01*
X126031841Y-80141840D01*
X126222177Y-79985635D01*
X126222176Y-79985635D01*
X126222178Y-79985634D01*
X126439332Y-79869563D01*
X126674958Y-79798087D01*
X126674959Y-79798087D01*
X126674962Y-79798086D01*
X126920000Y-79773952D01*
X127165039Y-79798086D01*
X127165039Y-79798086D01*
G37*
G36*
X100466703Y-78461486D02*
X100757883Y-78582097D01*
X101019944Y-78757201D01*
X101242799Y-78980056D01*
X101417903Y-79242117D01*
X101538514Y-79533297D01*
X101600000Y-79842412D01*
X101600000Y-80157588D01*
X101538514Y-80466703D01*
X101417903Y-80757883D01*
X101242799Y-81019944D01*
X101019944Y-81242799D01*
X100757883Y-81417903D01*
X100466703Y-81538514D01*
X100157588Y-81600000D01*
X99842412Y-81600000D01*
X99533297Y-81538514D01*
X99242117Y-81417903D01*
X98980056Y-81242799D01*
X98757201Y-81019944D01*
X98582097Y-80757883D01*
X98461486Y-80466703D01*
X98400000Y-80157588D01*
X98400000Y-79842412D01*
X98461486Y-79533297D01*
X98582097Y-79242117D01*
X98757201Y-78980056D01*
X98980056Y-78757201D01*
X99242117Y-78582097D01*
X99533297Y-78461486D01*
X99842412Y-78400000D01*
X100157588Y-78400000D01*
X100466703Y-78461486D01*
X100466703Y-78461486D01*
G37*
G36*
X140466703Y-72461486D02*
X140757883Y-72582097D01*
X141019944Y-72757201D01*
X141242799Y-72980056D01*
X141417903Y-73242117D01*
X141538514Y-73533297D01*
X141600000Y-73842412D01*
X141600000Y-74157588D01*
X141538514Y-74466703D01*
X141417903Y-74757883D01*
X141242799Y-75019944D01*
X141019944Y-75242799D01*
X140757883Y-75417903D01*
X140466703Y-75538514D01*
X140157588Y-75600000D01*
X139842412Y-75600000D01*
X139533297Y-75538514D01*
X139242117Y-75417903D01*
X138980056Y-75242799D01*
X138757201Y-75019944D01*
X138582097Y-74757883D01*
X138461486Y-74466703D01*
X138400000Y-74157588D01*
X138400000Y-73842412D01*
X138461486Y-73533297D01*
X138582097Y-73242117D01*
X138757201Y-72980056D01*
X138980056Y-72757201D01*
X139242117Y-72582097D01*
X139533297Y-72461486D01*
X139842412Y-72400000D01*
X140157588Y-72400000D01*
X140466703Y-72461486D01*
X140466703Y-72461486D01*
G37*
G36*
X60466703Y-72461486D02*
X60757883Y-72582097D01*
X61019944Y-72757201D01*
X61242799Y-72980056D01*
X61417903Y-73242117D01*
X61538514Y-73533297D01*
X61600000Y-73842412D01*
X61600000Y-74157588D01*
X61538514Y-74466703D01*
X61417903Y-74757883D01*
X61242799Y-75019944D01*
X61019944Y-75242799D01*
X60757883Y-75417903D01*
X60466703Y-75538514D01*
X60157588Y-75600000D01*
X59842412Y-75600000D01*
X59533297Y-75538514D01*
X59242117Y-75417903D01*
X58980056Y-75242799D01*
X58757201Y-75019944D01*
X58582097Y-74757883D01*
X58461486Y-74466703D01*
X58400000Y-74157588D01*
X58400000Y-73842412D01*
X58461486Y-73533297D01*
X58582097Y-73242117D01*
X58757201Y-72980056D01*
X58980056Y-72757201D01*
X59242117Y-72582097D01*
X59533297Y-72461486D01*
X59842412Y-72400000D01*
X60157588Y-72400000D01*
X60466703Y-72461486D01*
X60466703Y-72461486D01*
G37*
G36*
X63762521Y-67714586D02*
X63926309Y-67782429D01*
X64073720Y-67880926D01*
X64199074Y-68006280D01*
X64297571Y-68153691D01*
X64365414Y-68317479D01*
X64400000Y-68491356D01*
X64400000Y-68668644D01*
X64365414Y-68842521D01*
X64297571Y-69006309D01*
X64199074Y-69153720D01*
X64073720Y-69279074D01*
X63926309Y-69377571D01*
X63762521Y-69445414D01*
X63588644Y-69480000D01*
X63411356Y-69480000D01*
X63237479Y-69445414D01*
X63073691Y-69377571D01*
X62926280Y-69279074D01*
X62800926Y-69153720D01*
X62702429Y-69006309D01*
X62634586Y-68842521D01*
X62600000Y-68668644D01*
X62600000Y-68491356D01*
X62634586Y-68317479D01*
X62702429Y-68153691D01*
X62800926Y-68006280D01*
X62926280Y-67880926D01*
X63073691Y-67782429D01*
X63237479Y-67714586D01*
X63411356Y-67680000D01*
X63588644Y-67680000D01*
X63762521Y-67714586D01*
X63762521Y-67714586D01*
G37*
G36*
X84002521Y-67714586D02*
X84166309Y-67782429D01*
X84313720Y-67880926D01*
X84439074Y-68006280D01*
X84537571Y-68153691D01*
X84605414Y-68317479D01*
X84640000Y-68491356D01*
X84640000Y-68668644D01*
X84605414Y-68842521D01*
X84537571Y-69006309D01*
X84439074Y-69153720D01*
X84313720Y-69279074D01*
X84166309Y-69377571D01*
X84002521Y-69445414D01*
X83828644Y-69480000D01*
X83651356Y-69480000D01*
X83477479Y-69445414D01*
X83313691Y-69377571D01*
X83166280Y-69279074D01*
X83040926Y-69153720D01*
X82942429Y-69006309D01*
X82874586Y-68842521D01*
X82840000Y-68668644D01*
X82840000Y-68491356D01*
X82874586Y-68317479D01*
X82942429Y-68153691D01*
X83040926Y-68006280D01*
X83166280Y-67880926D01*
X83313691Y-67782429D01*
X83477479Y-67714586D01*
X83651356Y-67680000D01*
X83828644Y-67680000D01*
X84002521Y-67714586D01*
X84002521Y-67714586D01*
G37*
G36*
X81502521Y-67714586D02*
X81666309Y-67782429D01*
X81813720Y-67880926D01*
X81939074Y-68006280D01*
X82037571Y-68153691D01*
X82105414Y-68317479D01*
X82140000Y-68491356D01*
X82140000Y-68668644D01*
X82105414Y-68842521D01*
X82037571Y-69006309D01*
X81939074Y-69153720D01*
X81813720Y-69279074D01*
X81666309Y-69377571D01*
X81502521Y-69445414D01*
X81328644Y-69480000D01*
X81151356Y-69480000D01*
X80977479Y-69445414D01*
X80813691Y-69377571D01*
X80666280Y-69279074D01*
X80540926Y-69153720D01*
X80442429Y-69006309D01*
X80374586Y-68842521D01*
X80340000Y-68668644D01*
X80340000Y-68491356D01*
X80374586Y-68317479D01*
X80442429Y-68153691D01*
X80540926Y-68006280D01*
X80666280Y-67880926D01*
X80813691Y-67782429D01*
X80977479Y-67714586D01*
X81151356Y-67680000D01*
X81328644Y-67680000D01*
X81502521Y-67714586D01*
X81502521Y-67714586D01*
G37*
G36*
X68762521Y-67714586D02*
X68926309Y-67782429D01*
X69073720Y-67880926D01*
X69199074Y-68006280D01*
X69297571Y-68153691D01*
X69365414Y-68317479D01*
X69400000Y-68491356D01*
X69400000Y-68668644D01*
X69365414Y-68842521D01*
X69297571Y-69006309D01*
X69199074Y-69153720D01*
X69073720Y-69279074D01*
X68926309Y-69377571D01*
X68762521Y-69445414D01*
X68588644Y-69480000D01*
X68411356Y-69480000D01*
X68237479Y-69445414D01*
X68073691Y-69377571D01*
X67926280Y-69279074D01*
X67800926Y-69153720D01*
X67702429Y-69006309D01*
X67634586Y-68842521D01*
X67600000Y-68668644D01*
X67600000Y-68491356D01*
X67634586Y-68317479D01*
X67702429Y-68153691D01*
X67800926Y-68006280D01*
X67926280Y-67880926D01*
X68073691Y-67782429D01*
X68237479Y-67714586D01*
X68411356Y-67680000D01*
X68588644Y-67680000D01*
X68762521Y-67714586D01*
X68762521Y-67714586D01*
G37*
G36*
X66262521Y-67714586D02*
X66426309Y-67782429D01*
X66573720Y-67880926D01*
X66699074Y-68006280D01*
X66797571Y-68153691D01*
X66865414Y-68317479D01*
X66900000Y-68491356D01*
X66900000Y-68668644D01*
X66865414Y-68842521D01*
X66797571Y-69006309D01*
X66699074Y-69153720D01*
X66573720Y-69279074D01*
X66426309Y-69377571D01*
X66262521Y-69445414D01*
X66088644Y-69480000D01*
X65911356Y-69480000D01*
X65737479Y-69445414D01*
X65573691Y-69377571D01*
X65426280Y-69279074D01*
X65300926Y-69153720D01*
X65202429Y-69006309D01*
X65134586Y-68842521D01*
X65100000Y-68668644D01*
X65100000Y-68491356D01*
X65134586Y-68317479D01*
X65202429Y-68153691D01*
X65300926Y-68006280D01*
X65426280Y-67880926D01*
X65573691Y-67782429D01*
X65737479Y-67714586D01*
X65911356Y-67680000D01*
X66088644Y-67680000D01*
X66262521Y-67714586D01*
X66262521Y-67714586D01*
G37*
G36*
X79002521Y-67714586D02*
X79166309Y-67782429D01*
X79313720Y-67880926D01*
X79439074Y-68006280D01*
X79537571Y-68153691D01*
X79605414Y-68317479D01*
X79640000Y-68491356D01*
X79640000Y-68668644D01*
X79605414Y-68842521D01*
X79537571Y-69006309D01*
X79439074Y-69153720D01*
X79313720Y-69279074D01*
X79166309Y-69377571D01*
X79002521Y-69445414D01*
X78828644Y-69480000D01*
X78651356Y-69480000D01*
X78477479Y-69445414D01*
X78313691Y-69377571D01*
X78166280Y-69279074D01*
X78040926Y-69153720D01*
X77942429Y-69006309D01*
X77874586Y-68842521D01*
X77840000Y-68668644D01*
X77840000Y-68491356D01*
X77874586Y-68317479D01*
X77942429Y-68153691D01*
X78040926Y-68006280D01*
X78166280Y-67880926D01*
X78313691Y-67782429D01*
X78477479Y-67714586D01*
X78651356Y-67680000D01*
X78828644Y-67680000D01*
X79002521Y-67714586D01*
X79002521Y-67714586D01*
G37*
G36*
X132342521Y-67714586D02*
X132506309Y-67782429D01*
X132653720Y-67880926D01*
X132779074Y-68006280D01*
X132877571Y-68153691D01*
X132945414Y-68317479D01*
X132980000Y-68491356D01*
X132980000Y-68668644D01*
X132945414Y-68842521D01*
X132877571Y-69006309D01*
X132779074Y-69153720D01*
X132653720Y-69279074D01*
X132506309Y-69377571D01*
X132342521Y-69445414D01*
X132168644Y-69480000D01*
X131991356Y-69480000D01*
X131817479Y-69445414D01*
X131653691Y-69377571D01*
X131506280Y-69279074D01*
X131380926Y-69153720D01*
X131282429Y-69006309D01*
X131214586Y-68842521D01*
X131180000Y-68668644D01*
X131180000Y-68491356D01*
X131214586Y-68317479D01*
X131282429Y-68153691D01*
X131380926Y-68006280D01*
X131506280Y-67880926D01*
X131653691Y-67782429D01*
X131817479Y-67714586D01*
X131991356Y-67680000D01*
X132168644Y-67680000D01*
X132342521Y-67714586D01*
X132342521Y-67714586D01*
G37*
G36*
X134842521Y-67714586D02*
X135006309Y-67782429D01*
X135153720Y-67880926D01*
X135279074Y-68006280D01*
X135377571Y-68153691D01*
X135445414Y-68317479D01*
X135480000Y-68491356D01*
X135480000Y-68668644D01*
X135445414Y-68842521D01*
X135377571Y-69006309D01*
X135279074Y-69153720D01*
X135153720Y-69279074D01*
X135006309Y-69377571D01*
X134842521Y-69445414D01*
X134668644Y-69480000D01*
X134491356Y-69480000D01*
X134317479Y-69445414D01*
X134153691Y-69377571D01*
X134006280Y-69279074D01*
X133880926Y-69153720D01*
X133782429Y-69006309D01*
X133714586Y-68842521D01*
X133680000Y-68668644D01*
X133680000Y-68491356D01*
X133714586Y-68317479D01*
X133782429Y-68153691D01*
X133880926Y-68006280D01*
X134006280Y-67880926D01*
X134153691Y-67782429D01*
X134317479Y-67714586D01*
X134491356Y-67680000D01*
X134668644Y-67680000D01*
X134842521Y-67714586D01*
X134842521Y-67714586D01*
G37*
G36*
X137342521Y-67714586D02*
X137506309Y-67782429D01*
X137653720Y-67880926D01*
X137779074Y-68006280D01*
X137877571Y-68153691D01*
X137945414Y-68317479D01*
X137980000Y-68491356D01*
X137980000Y-68668644D01*
X137945414Y-68842521D01*
X137877571Y-69006309D01*
X137779074Y-69153720D01*
X137653720Y-69279074D01*
X137506309Y-69377571D01*
X137342521Y-69445414D01*
X137168644Y-69480000D01*
X136991356Y-69480000D01*
X136817479Y-69445414D01*
X136653691Y-69377571D01*
X136506280Y-69279074D01*
X136380926Y-69153720D01*
X136282429Y-69006309D01*
X136214586Y-68842521D01*
X136180000Y-68668644D01*
X136180000Y-68491356D01*
X136214586Y-68317479D01*
X136282429Y-68153691D01*
X136380926Y-68006280D01*
X136506280Y-67880926D01*
X136653691Y-67782429D01*
X136817479Y-67714586D01*
X136991356Y-67680000D01*
X137168644Y-67680000D01*
X137342521Y-67714586D01*
X137342521Y-67714586D01*
G37*
G36*
X117102521Y-67714586D02*
X117266309Y-67782429D01*
X117413720Y-67880926D01*
X117539074Y-68006280D01*
X117637571Y-68153691D01*
X117705414Y-68317479D01*
X117740000Y-68491356D01*
X117740000Y-68668644D01*
X117705414Y-68842521D01*
X117637571Y-69006309D01*
X117539074Y-69153720D01*
X117413720Y-69279074D01*
X117266309Y-69377571D01*
X117102521Y-69445414D01*
X116928644Y-69480000D01*
X116751356Y-69480000D01*
X116577479Y-69445414D01*
X116413691Y-69377571D01*
X116266280Y-69279074D01*
X116140926Y-69153720D01*
X116042429Y-69006309D01*
X115974586Y-68842521D01*
X115940000Y-68668644D01*
X115940000Y-68491356D01*
X115974586Y-68317479D01*
X116042429Y-68153691D01*
X116140926Y-68006280D01*
X116266280Y-67880926D01*
X116413691Y-67782429D01*
X116577479Y-67714586D01*
X116751356Y-67680000D01*
X116928644Y-67680000D01*
X117102521Y-67714586D01*
X117102521Y-67714586D01*
G37*
G36*
X119602521Y-67714586D02*
X119766309Y-67782429D01*
X119913720Y-67880926D01*
X120039074Y-68006280D01*
X120137571Y-68153691D01*
X120205414Y-68317479D01*
X120240000Y-68491356D01*
X120240000Y-68668644D01*
X120205414Y-68842521D01*
X120137571Y-69006309D01*
X120039074Y-69153720D01*
X119913720Y-69279074D01*
X119766309Y-69377571D01*
X119602521Y-69445414D01*
X119428644Y-69480000D01*
X119251356Y-69480000D01*
X119077479Y-69445414D01*
X118913691Y-69377571D01*
X118766280Y-69279074D01*
X118640926Y-69153720D01*
X118542429Y-69006309D01*
X118474586Y-68842521D01*
X118440000Y-68668644D01*
X118440000Y-68491356D01*
X118474586Y-68317479D01*
X118542429Y-68153691D01*
X118640926Y-68006280D01*
X118766280Y-67880926D01*
X118913691Y-67782429D01*
X119077479Y-67714586D01*
X119251356Y-67680000D01*
X119428644Y-67680000D01*
X119602521Y-67714586D01*
X119602521Y-67714586D01*
G37*
G36*
X122102521Y-67714586D02*
X122266309Y-67782429D01*
X122413720Y-67880926D01*
X122539074Y-68006280D01*
X122637571Y-68153691D01*
X122705414Y-68317479D01*
X122740000Y-68491356D01*
X122740000Y-68668644D01*
X122705414Y-68842521D01*
X122637571Y-69006309D01*
X122539074Y-69153720D01*
X122413720Y-69279074D01*
X122266309Y-69377571D01*
X122102521Y-69445414D01*
X121928644Y-69480000D01*
X121751356Y-69480000D01*
X121577479Y-69445414D01*
X121413691Y-69377571D01*
X121266280Y-69279074D01*
X121140926Y-69153720D01*
X121042429Y-69006309D01*
X120974586Y-68842521D01*
X120940000Y-68668644D01*
X120940000Y-68491356D01*
X120974586Y-68317479D01*
X121042429Y-68153691D01*
X121140926Y-68006280D01*
X121266280Y-67880926D01*
X121413691Y-67782429D01*
X121577479Y-67714586D01*
X121751356Y-67680000D01*
X121928644Y-67680000D01*
X122102521Y-67714586D01*
X122102521Y-67714586D01*
G37*
G36*
X124323378Y-59671859D02*
X124687354Y-59822622D01*
X125014929Y-60041501D01*
X125293499Y-60320071D01*
X125512378Y-60647646D01*
X125663141Y-61011622D01*
X125740000Y-61398016D01*
X125740000Y-61791984D01*
X125663141Y-62178378D01*
X125512378Y-62542354D01*
X125293499Y-62869929D01*
X125014929Y-63148499D01*
X124687354Y-63367378D01*
X124323378Y-63518141D01*
X123936984Y-63595000D01*
X123543016Y-63595000D01*
X123156622Y-63518141D01*
X122792646Y-63367378D01*
X122465071Y-63148499D01*
X122186501Y-62869929D01*
X121967622Y-62542354D01*
X121816859Y-62178378D01*
X121740000Y-61791984D01*
X121740000Y-61398016D01*
X121816859Y-61011622D01*
X121967622Y-60647646D01*
X122186501Y-60320071D01*
X122465071Y-60041501D01*
X122792646Y-59822622D01*
X123156622Y-59671859D01*
X123543016Y-59595000D01*
X123936984Y-59595000D01*
X124323378Y-59671859D01*
X124323378Y-59671859D01*
G37*
G36*
X86223378Y-59671859D02*
X86587354Y-59822622D01*
X86914929Y-60041501D01*
X87193499Y-60320071D01*
X87412378Y-60647646D01*
X87563141Y-61011622D01*
X87640000Y-61398016D01*
X87640000Y-61791984D01*
X87563141Y-62178378D01*
X87412378Y-62542354D01*
X87193499Y-62869929D01*
X86914929Y-63148499D01*
X86587354Y-63367378D01*
X86223378Y-63518141D01*
X85836984Y-63595000D01*
X85443016Y-63595000D01*
X85056622Y-63518141D01*
X84692646Y-63367378D01*
X84365071Y-63148499D01*
X84086501Y-62869929D01*
X83867622Y-62542354D01*
X83716859Y-62178378D01*
X83640000Y-61791984D01*
X83640000Y-61398016D01*
X83716859Y-61011622D01*
X83867622Y-60647646D01*
X84086501Y-60320071D01*
X84365071Y-60041501D01*
X84692646Y-59822622D01*
X85056622Y-59671859D01*
X85443016Y-59595000D01*
X85836984Y-59595000D01*
X86223378Y-59671859D01*
X86223378Y-59671859D01*
G37*
G36*
X70983378Y-59671859D02*
X71347354Y-59822622D01*
X71674929Y-60041501D01*
X71953499Y-60320071D01*
X72172378Y-60647646D01*
X72323141Y-61011622D01*
X72400000Y-61398016D01*
X72400000Y-61791984D01*
X72323141Y-62178378D01*
X72172378Y-62542354D01*
X71953499Y-62869929D01*
X71674929Y-63148499D01*
X71347354Y-63367378D01*
X70983378Y-63518141D01*
X70596984Y-63595000D01*
X70203016Y-63595000D01*
X69816622Y-63518141D01*
X69452646Y-63367378D01*
X69125071Y-63148499D01*
X68846501Y-62869929D01*
X68627622Y-62542354D01*
X68476859Y-62178378D01*
X68400000Y-61791984D01*
X68400000Y-61398016D01*
X68476859Y-61011622D01*
X68627622Y-60647646D01*
X68846501Y-60320071D01*
X69125071Y-60041501D01*
X69452646Y-59822622D01*
X69816622Y-59671859D01*
X70203016Y-59595000D01*
X70596984Y-59595000D01*
X70983378Y-59671859D01*
X70983378Y-59671859D01*
G37*
G36*
X139563378Y-59671859D02*
X139927354Y-59822622D01*
X140254929Y-60041501D01*
X140533499Y-60320071D01*
X140752378Y-60647646D01*
X140903141Y-61011622D01*
X140980000Y-61398016D01*
X140980000Y-61791984D01*
X140903141Y-62178378D01*
X140752378Y-62542354D01*
X140533499Y-62869929D01*
X140254929Y-63148499D01*
X139927354Y-63367378D01*
X139563378Y-63518141D01*
X139176984Y-63595000D01*
X138783016Y-63595000D01*
X138396622Y-63518141D01*
X138032646Y-63367378D01*
X137705071Y-63148499D01*
X137426501Y-62869929D01*
X137207622Y-62542354D01*
X137056859Y-62178378D01*
X136980000Y-61791984D01*
X136980000Y-61398016D01*
X137056859Y-61011622D01*
X137207622Y-60647646D01*
X137426501Y-60320071D01*
X137705071Y-60041501D01*
X138032646Y-59822622D01*
X138396622Y-59671859D01*
X138783016Y-59595000D01*
X139176984Y-59595000D01*
X139563378Y-59671859D01*
X139563378Y-59671859D01*
G37*
G36*
X62183378Y-59656859D02*
X62547354Y-59807622D01*
X62874929Y-60026501D01*
X63153499Y-60305071D01*
X63372378Y-60632646D01*
X63523141Y-60996622D01*
X63600000Y-61383016D01*
X63600000Y-61776984D01*
X63523141Y-62163378D01*
X63372378Y-62527354D01*
X63153499Y-62854929D01*
X62874929Y-63133499D01*
X62547354Y-63352378D01*
X62183378Y-63503141D01*
X61796984Y-63580000D01*
X61403016Y-63580000D01*
X61016622Y-63503141D01*
X60652646Y-63352378D01*
X60325071Y-63133499D01*
X60046501Y-62854929D01*
X59827622Y-62527354D01*
X59676859Y-62163378D01*
X59600000Y-61776984D01*
X59600000Y-61383016D01*
X59676859Y-60996622D01*
X59827622Y-60632646D01*
X60046501Y-60305071D01*
X60325071Y-60026501D01*
X60652646Y-59807622D01*
X61016622Y-59656859D01*
X61403016Y-59580000D01*
X61796984Y-59580000D01*
X62183378Y-59656859D01*
X62183378Y-59656859D01*
G37*
G36*
X130763378Y-59656859D02*
X131127354Y-59807622D01*
X131454929Y-60026501D01*
X131733499Y-60305071D01*
X131952378Y-60632646D01*
X132103141Y-60996622D01*
X132180000Y-61383016D01*
X132180000Y-61776984D01*
X132103141Y-62163378D01*
X131952378Y-62527354D01*
X131733499Y-62854929D01*
X131454929Y-63133499D01*
X131127354Y-63352378D01*
X130763378Y-63503141D01*
X130376984Y-63580000D01*
X129983016Y-63580000D01*
X129596622Y-63503141D01*
X129232646Y-63352378D01*
X128905071Y-63133499D01*
X128626501Y-62854929D01*
X128407622Y-62527354D01*
X128256859Y-62163378D01*
X128180000Y-61776984D01*
X128180000Y-61383016D01*
X128256859Y-60996622D01*
X128407622Y-60632646D01*
X128626501Y-60305071D01*
X128905071Y-60026501D01*
X129232646Y-59807622D01*
X129596622Y-59656859D01*
X129983016Y-59580000D01*
X130376984Y-59580000D01*
X130763378Y-59656859D01*
X130763378Y-59656859D01*
G37*
G36*
X77423378Y-59656859D02*
X77787354Y-59807622D01*
X78114929Y-60026501D01*
X78393499Y-60305071D01*
X78612378Y-60632646D01*
X78763141Y-60996622D01*
X78840000Y-61383016D01*
X78840000Y-61776984D01*
X78763141Y-62163378D01*
X78612378Y-62527354D01*
X78393499Y-62854929D01*
X78114929Y-63133499D01*
X77787354Y-63352378D01*
X77423378Y-63503141D01*
X77036984Y-63580000D01*
X76643016Y-63580000D01*
X76256622Y-63503141D01*
X75892646Y-63352378D01*
X75565071Y-63133499D01*
X75286501Y-62854929D01*
X75067622Y-62527354D01*
X74916859Y-62163378D01*
X74840000Y-61776984D01*
X74840000Y-61383016D01*
X74916859Y-60996622D01*
X75067622Y-60632646D01*
X75286501Y-60305071D01*
X75565071Y-60026501D01*
X75892646Y-59807622D01*
X76256622Y-59656859D01*
X76643016Y-59580000D01*
X77036984Y-59580000D01*
X77423378Y-59656859D01*
X77423378Y-59656859D01*
G37*
G36*
X115523378Y-59656859D02*
X115887354Y-59807622D01*
X116214929Y-60026501D01*
X116493499Y-60305071D01*
X116712378Y-60632646D01*
X116863141Y-60996622D01*
X116940000Y-61383016D01*
X116940000Y-61776984D01*
X116863141Y-62163378D01*
X116712378Y-62527354D01*
X116493499Y-62854929D01*
X116214929Y-63133499D01*
X115887354Y-63352378D01*
X115523378Y-63503141D01*
X115136984Y-63580000D01*
X114743016Y-63580000D01*
X114356622Y-63503141D01*
X113992646Y-63352378D01*
X113665071Y-63133499D01*
X113386501Y-62854929D01*
X113167622Y-62527354D01*
X113016859Y-62163378D01*
X112940000Y-61776984D01*
X112940000Y-61383016D01*
X113016859Y-60996622D01*
X113167622Y-60632646D01*
X113386501Y-60305071D01*
X113665071Y-60026501D01*
X113992646Y-59807622D01*
X114356622Y-59656859D01*
X114743016Y-59580000D01*
X115136984Y-59580000D01*
X115523378Y-59656859D01*
X115523378Y-59656859D01*
G37*
G36*
X100466703Y-48461486D02*
X100757883Y-48582097D01*
X101019944Y-48757201D01*
X101242799Y-48980056D01*
X101417903Y-49242117D01*
X101538514Y-49533297D01*
X101600000Y-49842412D01*
X101600000Y-50157588D01*
X101538514Y-50466703D01*
X101417903Y-50757883D01*
X101242799Y-51019944D01*
X101019944Y-51242799D01*
X100757883Y-51417903D01*
X100466703Y-51538514D01*
X100157588Y-51600000D01*
X99842412Y-51600000D01*
X99533297Y-51538514D01*
X99242117Y-51417903D01*
X98980056Y-51242799D01*
X98757201Y-51019944D01*
X98582097Y-50757883D01*
X98461486Y-50466703D01*
X98400000Y-50157588D01*
X98400000Y-49842412D01*
X98461486Y-49533297D01*
X98582097Y-49242117D01*
X98757201Y-48980056D01*
X98980056Y-48757201D01*
X99242117Y-48582097D01*
X99533297Y-48461486D01*
X99842412Y-48400000D01*
X100157588Y-48400000D01*
X100466703Y-48461486D01*
X100466703Y-48461486D01*
G37*
G36*
X111802521Y-49134586D02*
X111966309Y-49202429D01*
X112113720Y-49300926D01*
X112239074Y-49426280D01*
X112337571Y-49573691D01*
X112405414Y-49737479D01*
X112440000Y-49911356D01*
X112440000Y-50088644D01*
X112405414Y-50262521D01*
X112337571Y-50426309D01*
X112239074Y-50573720D01*
X112113720Y-50699074D01*
X111966309Y-50797571D01*
X111802521Y-50865414D01*
X111628644Y-50900000D01*
X111451356Y-50900000D01*
X111277479Y-50865414D01*
X111113691Y-50797571D01*
X110966280Y-50699074D01*
X110840926Y-50573720D01*
X110742429Y-50426309D01*
X110674586Y-50262521D01*
X110640000Y-50088644D01*
X110640000Y-49911356D01*
X110674586Y-49737479D01*
X110742429Y-49573691D01*
X110840926Y-49426280D01*
X110966280Y-49300926D01*
X111113691Y-49202429D01*
X111277479Y-49134586D01*
X111451356Y-49100000D01*
X111628644Y-49100000D01*
X111802521Y-49134586D01*
X111802521Y-49134586D01*
G37*
G36*
X89900000Y-50900000D02*
X88100000Y-50900000D01*
X88100000Y-49100000D01*
X89900000Y-49100000D01*
X89900000Y-50900000D01*
X89900000Y-50900000D01*
G37*
G36*
X121802521Y-49134586D02*
X121966309Y-49202429D01*
X122113720Y-49300926D01*
X122239074Y-49426280D01*
X122337571Y-49573691D01*
X122405414Y-49737479D01*
X122440000Y-49911356D01*
X122440000Y-50088644D01*
X122405414Y-50262521D01*
X122337571Y-50426309D01*
X122239074Y-50573720D01*
X122113720Y-50699074D01*
X121966309Y-50797571D01*
X121802521Y-50865414D01*
X121628644Y-50900000D01*
X121451356Y-50900000D01*
X121277479Y-50865414D01*
X121113691Y-50797571D01*
X120966280Y-50699074D01*
X120840926Y-50573720D01*
X120742429Y-50426309D01*
X120674586Y-50262521D01*
X120640000Y-50088644D01*
X120640000Y-49911356D01*
X120674586Y-49737479D01*
X120742429Y-49573691D01*
X120840926Y-49426280D01*
X120966280Y-49300926D01*
X121113691Y-49202429D01*
X121277479Y-49134586D01*
X121451356Y-49100000D01*
X121628644Y-49100000D01*
X121802521Y-49134586D01*
X121802521Y-49134586D01*
G37*
G36*
X119900000Y-50900000D02*
X118100000Y-50900000D01*
X118100000Y-49100000D01*
X119900000Y-49100000D01*
X119900000Y-50900000D01*
X119900000Y-50900000D01*
G37*
G36*
X79900000Y-50900000D02*
X78100000Y-50900000D01*
X78100000Y-49100000D01*
X79900000Y-49100000D01*
X79900000Y-50900000D01*
X79900000Y-50900000D01*
G37*
G36*
X81802521Y-49134586D02*
X81966309Y-49202429D01*
X82113720Y-49300926D01*
X82239074Y-49426280D01*
X82337571Y-49573691D01*
X82405414Y-49737479D01*
X82440000Y-49911356D01*
X82440000Y-50088644D01*
X82405414Y-50262521D01*
X82337571Y-50426309D01*
X82239074Y-50573720D01*
X82113720Y-50699074D01*
X81966309Y-50797571D01*
X81802521Y-50865414D01*
X81628644Y-50900000D01*
X81451356Y-50900000D01*
X81277479Y-50865414D01*
X81113691Y-50797571D01*
X80966280Y-50699074D01*
X80840926Y-50573720D01*
X80742429Y-50426309D01*
X80674586Y-50262521D01*
X80640000Y-50088644D01*
X80640000Y-49911356D01*
X80674586Y-49737479D01*
X80742429Y-49573691D01*
X80840926Y-49426280D01*
X80966280Y-49300926D01*
X81113691Y-49202429D01*
X81277479Y-49134586D01*
X81451356Y-49100000D01*
X81628644Y-49100000D01*
X81802521Y-49134586D01*
X81802521Y-49134586D01*
G37*
G36*
X71802521Y-49134586D02*
X71966309Y-49202429D01*
X72113720Y-49300926D01*
X72239074Y-49426280D01*
X72337571Y-49573691D01*
X72405414Y-49737479D01*
X72440000Y-49911356D01*
X72440000Y-50088644D01*
X72405414Y-50262521D01*
X72337571Y-50426309D01*
X72239074Y-50573720D01*
X72113720Y-50699074D01*
X71966309Y-50797571D01*
X71802521Y-50865414D01*
X71628644Y-50900000D01*
X71451356Y-50900000D01*
X71277479Y-50865414D01*
X71113691Y-50797571D01*
X70966280Y-50699074D01*
X70840926Y-50573720D01*
X70742429Y-50426309D01*
X70674586Y-50262521D01*
X70640000Y-50088644D01*
X70640000Y-49911356D01*
X70674586Y-49737479D01*
X70742429Y-49573691D01*
X70840926Y-49426280D01*
X70966280Y-49300926D01*
X71113691Y-49202429D01*
X71277479Y-49134586D01*
X71451356Y-49100000D01*
X71628644Y-49100000D01*
X71802521Y-49134586D01*
X71802521Y-49134586D01*
G37*
G36*
X69900000Y-50900000D02*
X68100000Y-50900000D01*
X68100000Y-49100000D01*
X69900000Y-49100000D01*
X69900000Y-50900000D01*
X69900000Y-50900000D01*
G37*
G36*
X91802521Y-49134586D02*
X91966309Y-49202429D01*
X92113720Y-49300926D01*
X92239074Y-49426280D01*
X92337571Y-49573691D01*
X92405414Y-49737479D01*
X92440000Y-49911356D01*
X92440000Y-50088644D01*
X92405414Y-50262521D01*
X92337571Y-50426309D01*
X92239074Y-50573720D01*
X92113720Y-50699074D01*
X91966309Y-50797571D01*
X91802521Y-50865414D01*
X91628644Y-50900000D01*
X91451356Y-50900000D01*
X91277479Y-50865414D01*
X91113691Y-50797571D01*
X90966280Y-50699074D01*
X90840926Y-50573720D01*
X90742429Y-50426309D01*
X90674586Y-50262521D01*
X90640000Y-50088644D01*
X90640000Y-49911356D01*
X90674586Y-49737479D01*
X90742429Y-49573691D01*
X90840926Y-49426280D01*
X90966280Y-49300926D01*
X91113691Y-49202429D01*
X91277479Y-49134586D01*
X91451356Y-49100000D01*
X91628644Y-49100000D01*
X91802521Y-49134586D01*
X91802521Y-49134586D01*
G37*
G36*
X131802521Y-49134586D02*
X131966309Y-49202429D01*
X132113720Y-49300926D01*
X132239074Y-49426280D01*
X132337571Y-49573691D01*
X132405414Y-49737479D01*
X132440000Y-49911356D01*
X132440000Y-50088644D01*
X132405414Y-50262521D01*
X132337571Y-50426309D01*
X132239074Y-50573720D01*
X132113720Y-50699074D01*
X131966309Y-50797571D01*
X131802521Y-50865414D01*
X131628644Y-50900000D01*
X131451356Y-50900000D01*
X131277479Y-50865414D01*
X131113691Y-50797571D01*
X130966280Y-50699074D01*
X130840926Y-50573720D01*
X130742429Y-50426309D01*
X130674586Y-50262521D01*
X130640000Y-50088644D01*
X130640000Y-49911356D01*
X130674586Y-49737479D01*
X130742429Y-49573691D01*
X130840926Y-49426280D01*
X130966280Y-49300926D01*
X131113691Y-49202429D01*
X131277479Y-49134586D01*
X131451356Y-49100000D01*
X131628644Y-49100000D01*
X131802521Y-49134586D01*
X131802521Y-49134586D01*
G37*
G36*
X129900000Y-50900000D02*
X128100000Y-50900000D01*
X128100000Y-49100000D01*
X129900000Y-49100000D01*
X129900000Y-50900000D01*
X129900000Y-50900000D01*
G37*
G36*
X109900000Y-50900000D02*
X108100000Y-50900000D01*
X108100000Y-49100000D01*
X109900000Y-49100000D01*
X109900000Y-50900000D01*
X109900000Y-50900000D01*
G37*
G36*
X120262521Y-43134586D02*
X120426309Y-43202429D01*
X120573720Y-43300926D01*
X120699074Y-43426280D01*
X120797571Y-43573691D01*
X120865414Y-43737479D01*
X120900000Y-43911356D01*
X120900000Y-44088644D01*
X120865414Y-44262521D01*
X120797571Y-44426309D01*
X120699074Y-44573720D01*
X120573720Y-44699074D01*
X120426309Y-44797571D01*
X120262521Y-44865414D01*
X120088644Y-44900000D01*
X119911356Y-44900000D01*
X119737479Y-44865414D01*
X119573691Y-44797571D01*
X119426280Y-44699074D01*
X119300926Y-44573720D01*
X119202429Y-44426309D01*
X119134586Y-44262521D01*
X119100000Y-44088644D01*
X119100000Y-43911356D01*
X119134586Y-43737479D01*
X119202429Y-43573691D01*
X119300926Y-43426280D01*
X119426280Y-43300926D01*
X119573691Y-43202429D01*
X119737479Y-43134586D01*
X119911356Y-43100000D01*
X120088644Y-43100000D01*
X120262521Y-43134586D01*
X120262521Y-43134586D01*
G37*
G36*
X115262521Y-43134586D02*
X115426309Y-43202429D01*
X115573720Y-43300926D01*
X115699074Y-43426280D01*
X115797571Y-43573691D01*
X115865414Y-43737479D01*
X115900000Y-43911356D01*
X115900000Y-44088644D01*
X115865414Y-44262521D01*
X115797571Y-44426309D01*
X115699074Y-44573720D01*
X115573720Y-44699074D01*
X115426309Y-44797571D01*
X115262521Y-44865414D01*
X115088644Y-44900000D01*
X114911356Y-44900000D01*
X114737479Y-44865414D01*
X114573691Y-44797571D01*
X114426280Y-44699074D01*
X114300926Y-44573720D01*
X114202429Y-44426309D01*
X114134586Y-44262521D01*
X114100000Y-44088644D01*
X114100000Y-43911356D01*
X114134586Y-43737479D01*
X114202429Y-43573691D01*
X114300926Y-43426280D01*
X114426280Y-43300926D01*
X114573691Y-43202429D01*
X114737479Y-43134586D01*
X114911356Y-43100000D01*
X115088644Y-43100000D01*
X115262521Y-43134586D01*
X115262521Y-43134586D01*
G37*
G36*
X117762521Y-43134586D02*
X117926309Y-43202429D01*
X118073720Y-43300926D01*
X118199074Y-43426280D01*
X118297571Y-43573691D01*
X118365414Y-43737479D01*
X118400000Y-43911356D01*
X118400000Y-44088644D01*
X118365414Y-44262521D01*
X118297571Y-44426309D01*
X118199074Y-44573720D01*
X118073720Y-44699074D01*
X117926309Y-44797571D01*
X117762521Y-44865414D01*
X117588644Y-44900000D01*
X117411356Y-44900000D01*
X117237479Y-44865414D01*
X117073691Y-44797571D01*
X116926280Y-44699074D01*
X116800926Y-44573720D01*
X116702429Y-44426309D01*
X116634586Y-44262521D01*
X116600000Y-44088644D01*
X116600000Y-43911356D01*
X116634586Y-43737479D01*
X116702429Y-43573691D01*
X116800926Y-43426280D01*
X116926280Y-43300926D01*
X117073691Y-43202429D01*
X117237479Y-43134586D01*
X117411356Y-43100000D01*
X117588644Y-43100000D01*
X117762521Y-43134586D01*
X117762521Y-43134586D01*
G37*
G36*
X97671530Y-38672661D02*
X97781489Y-38706017D01*
X97836469Y-38722695D01*
X97887137Y-38749778D01*
X97988476Y-38803944D01*
X98121712Y-38913288D01*
X98231056Y-39046524D01*
X98278255Y-39134828D01*
X98312305Y-39198531D01*
X98312305Y-39198532D01*
X98362339Y-39363470D01*
X98375000Y-39492021D01*
X98375000Y-41327979D01*
X98362339Y-41456530D01*
X98328983Y-41566489D01*
X98312305Y-41621469D01*
X98285222Y-41672137D01*
X98231056Y-41773476D01*
X98121712Y-41906712D01*
X97988475Y-42016056D01*
X97988473Y-42016057D01*
X97988472Y-42016058D01*
X97836471Y-42097304D01*
X97793550Y-42110324D01*
X97671529Y-42147339D01*
X97500000Y-42164233D01*
X97328470Y-42147339D01*
X97218511Y-42113983D01*
X97163531Y-42097305D01*
X97112863Y-42070222D01*
X97011524Y-42016056D01*
X96878288Y-41906712D01*
X96768944Y-41773475D01*
X96768942Y-41773472D01*
X96687696Y-41621471D01*
X96674676Y-41578550D01*
X96637661Y-41456529D01*
X96625000Y-41327978D01*
X96625001Y-39492021D01*
X96637662Y-39363470D01*
X96687696Y-39198532D01*
X96687696Y-39198531D01*
X96721746Y-39134828D01*
X96768945Y-39046524D01*
X96878289Y-38913288D01*
X97011525Y-38803944D01*
X97112864Y-38749778D01*
X97163532Y-38722695D01*
X97218512Y-38706017D01*
X97328471Y-38672661D01*
X97500000Y-38655767D01*
X97671530Y-38672661D01*
X97671530Y-38672661D01*
G37*
G36*
X95171530Y-38672661D02*
X95281489Y-38706017D01*
X95336469Y-38722695D01*
X95387137Y-38749778D01*
X95488476Y-38803944D01*
X95621712Y-38913288D01*
X95731056Y-39046524D01*
X95778255Y-39134828D01*
X95812305Y-39198531D01*
X95812305Y-39198532D01*
X95862339Y-39363470D01*
X95875000Y-39492021D01*
X95875000Y-41327979D01*
X95862339Y-41456530D01*
X95828983Y-41566489D01*
X95812305Y-41621469D01*
X95785222Y-41672137D01*
X95731056Y-41773476D01*
X95621712Y-41906712D01*
X95488475Y-42016056D01*
X95488473Y-42016057D01*
X95488472Y-42016058D01*
X95336471Y-42097304D01*
X95293550Y-42110324D01*
X95171529Y-42147339D01*
X95000000Y-42164233D01*
X94828470Y-42147339D01*
X94718511Y-42113983D01*
X94663531Y-42097305D01*
X94612863Y-42070222D01*
X94511524Y-42016056D01*
X94378288Y-41906712D01*
X94268944Y-41773475D01*
X94268942Y-41773472D01*
X94187696Y-41621471D01*
X94174676Y-41578550D01*
X94137661Y-41456529D01*
X94125000Y-41327978D01*
X94125001Y-39492021D01*
X94137662Y-39363470D01*
X94187696Y-39198532D01*
X94187696Y-39198531D01*
X94221746Y-39134828D01*
X94268945Y-39046524D01*
X94378289Y-38913288D01*
X94511525Y-38803944D01*
X94612864Y-38749778D01*
X94663532Y-38722695D01*
X94718512Y-38706017D01*
X94828471Y-38672661D01*
X95000000Y-38655767D01*
X95171530Y-38672661D01*
X95171530Y-38672661D01*
G37*
G36*
X102671530Y-38672661D02*
X102781489Y-38706017D01*
X102836469Y-38722695D01*
X102887137Y-38749778D01*
X102988476Y-38803944D01*
X103121712Y-38913288D01*
X103231056Y-39046524D01*
X103278255Y-39134828D01*
X103312305Y-39198531D01*
X103312305Y-39198532D01*
X103362339Y-39363470D01*
X103375000Y-39492021D01*
X103375000Y-41327979D01*
X103362339Y-41456530D01*
X103328983Y-41566489D01*
X103312305Y-41621469D01*
X103285222Y-41672137D01*
X103231056Y-41773476D01*
X103121712Y-41906712D01*
X102988475Y-42016056D01*
X102988473Y-42016057D01*
X102988472Y-42016058D01*
X102836471Y-42097304D01*
X102793550Y-42110324D01*
X102671529Y-42147339D01*
X102500000Y-42164233D01*
X102328470Y-42147339D01*
X102218511Y-42113983D01*
X102163531Y-42097305D01*
X102112863Y-42070222D01*
X102011524Y-42016056D01*
X101878288Y-41906712D01*
X101768944Y-41773475D01*
X101768942Y-41773472D01*
X101687696Y-41621471D01*
X101674676Y-41578550D01*
X101637661Y-41456529D01*
X101625000Y-41327978D01*
X101625001Y-39492021D01*
X101637662Y-39363470D01*
X101687696Y-39198532D01*
X101687696Y-39198531D01*
X101721746Y-39134828D01*
X101768945Y-39046524D01*
X101878289Y-38913288D01*
X102011525Y-38803944D01*
X102112864Y-38749778D01*
X102163532Y-38722695D01*
X102218512Y-38706017D01*
X102328471Y-38672661D01*
X102500000Y-38655767D01*
X102671530Y-38672661D01*
X102671530Y-38672661D01*
G37*
G36*
X105171530Y-38672661D02*
X105281489Y-38706017D01*
X105336469Y-38722695D01*
X105387137Y-38749778D01*
X105488476Y-38803944D01*
X105621712Y-38913288D01*
X105731056Y-39046524D01*
X105778255Y-39134828D01*
X105812305Y-39198531D01*
X105812305Y-39198532D01*
X105862339Y-39363470D01*
X105875000Y-39492021D01*
X105875000Y-41327979D01*
X105862339Y-41456530D01*
X105828983Y-41566489D01*
X105812305Y-41621469D01*
X105785222Y-41672137D01*
X105731056Y-41773476D01*
X105621712Y-41906712D01*
X105488475Y-42016056D01*
X105488473Y-42016057D01*
X105488472Y-42016058D01*
X105336471Y-42097304D01*
X105293550Y-42110324D01*
X105171529Y-42147339D01*
X105000000Y-42164233D01*
X104828470Y-42147339D01*
X104718511Y-42113983D01*
X104663531Y-42097305D01*
X104612863Y-42070222D01*
X104511524Y-42016056D01*
X104378288Y-41906712D01*
X104268944Y-41773475D01*
X104268942Y-41773472D01*
X104187696Y-41621471D01*
X104174676Y-41578550D01*
X104137661Y-41456529D01*
X104125000Y-41327978D01*
X104125001Y-39492021D01*
X104137662Y-39363470D01*
X104187696Y-39198532D01*
X104187696Y-39198531D01*
X104221746Y-39134828D01*
X104268945Y-39046524D01*
X104378289Y-38913288D01*
X104511525Y-38803944D01*
X104612864Y-38749778D01*
X104663532Y-38722695D01*
X104718512Y-38706017D01*
X104828471Y-38672661D01*
X105000000Y-38655767D01*
X105171530Y-38672661D01*
X105171530Y-38672661D01*
G37*
G36*
X76022770Y-38243691D02*
X76355172Y-38381376D01*
X76654326Y-38581265D01*
X76908735Y-38835674D01*
X77108624Y-39134828D01*
X77246309Y-39467230D01*
X77316500Y-39820105D01*
X77316500Y-40179895D01*
X77246309Y-40532770D01*
X77108624Y-40865172D01*
X76908735Y-41164326D01*
X76654326Y-41418735D01*
X76355172Y-41618624D01*
X76022770Y-41756309D01*
X75669895Y-41826500D01*
X75310105Y-41826500D01*
X74957230Y-41756309D01*
X74624828Y-41618624D01*
X74325674Y-41418735D01*
X74071265Y-41164326D01*
X73871376Y-40865172D01*
X73733691Y-40532770D01*
X73663500Y-40179895D01*
X73663500Y-39820105D01*
X73733691Y-39467230D01*
X73871376Y-39134828D01*
X74071265Y-38835674D01*
X74325674Y-38581265D01*
X74624828Y-38381376D01*
X74957230Y-38243691D01*
X75310105Y-38173500D01*
X75669895Y-38173500D01*
X76022770Y-38243691D01*
X76022770Y-38243691D01*
G37*
G36*
X88522770Y-38243691D02*
X88855172Y-38381376D01*
X89154326Y-38581265D01*
X89408735Y-38835674D01*
X89608624Y-39134828D01*
X89746309Y-39467230D01*
X89816500Y-39820105D01*
X89816500Y-40179895D01*
X89746309Y-40532770D01*
X89608624Y-40865172D01*
X89408735Y-41164326D01*
X89154326Y-41418735D01*
X88855172Y-41618624D01*
X88522770Y-41756309D01*
X88169895Y-41826500D01*
X87810105Y-41826500D01*
X87457230Y-41756309D01*
X87124828Y-41618624D01*
X86825674Y-41418735D01*
X86571265Y-41164326D01*
X86371376Y-40865172D01*
X86233691Y-40532770D01*
X86163500Y-40179895D01*
X86163500Y-39820105D01*
X86233691Y-39467230D01*
X86371376Y-39134828D01*
X86571265Y-38835674D01*
X86825674Y-38581265D01*
X87124828Y-38381376D01*
X87457230Y-38243691D01*
X87810105Y-38173500D01*
X88169895Y-38173500D01*
X88522770Y-38243691D01*
X88522770Y-38243691D01*
G37*
G36*
X84944183Y-39326900D02*
X85071574Y-39379668D01*
X85186225Y-39456275D01*
X85283725Y-39553775D01*
X85360332Y-39668426D01*
X85413100Y-39795817D01*
X85440000Y-39931055D01*
X85440000Y-40068945D01*
X85413100Y-40204183D01*
X85360332Y-40331574D01*
X85283725Y-40446225D01*
X85186225Y-40543725D01*
X85071574Y-40620332D01*
X84944183Y-40673100D01*
X84808945Y-40700000D01*
X84671055Y-40700000D01*
X84535817Y-40673100D01*
X84408426Y-40620332D01*
X84293775Y-40543725D01*
X84196275Y-40446225D01*
X84119668Y-40331574D01*
X84066900Y-40204183D01*
X84040000Y-40068945D01*
X84040000Y-39931055D01*
X84066900Y-39795817D01*
X84119668Y-39668426D01*
X84196275Y-39553775D01*
X84293775Y-39456275D01*
X84408426Y-39379668D01*
X84535817Y-39326900D01*
X84671055Y-39300000D01*
X84808945Y-39300000D01*
X84944183Y-39326900D01*
X84944183Y-39326900D01*
G37*
G36*
X78944183Y-39326900D02*
X79071574Y-39379668D01*
X79186225Y-39456275D01*
X79283725Y-39553775D01*
X79360332Y-39668426D01*
X79413100Y-39795817D01*
X79440000Y-39931055D01*
X79440000Y-40068945D01*
X79413100Y-40204183D01*
X79360332Y-40331574D01*
X79283725Y-40446225D01*
X79186225Y-40543725D01*
X79071574Y-40620332D01*
X78944183Y-40673100D01*
X78808945Y-40700000D01*
X78671055Y-40700000D01*
X78535817Y-40673100D01*
X78408426Y-40620332D01*
X78293775Y-40543725D01*
X78196275Y-40446225D01*
X78119668Y-40331574D01*
X78066900Y-40204183D01*
X78040000Y-40068945D01*
X78040000Y-39931055D01*
X78066900Y-39795817D01*
X78119668Y-39668426D01*
X78196275Y-39553775D01*
X78293775Y-39456275D01*
X78408426Y-39379668D01*
X78535817Y-39326900D01*
X78671055Y-39300000D01*
X78808945Y-39300000D01*
X78944183Y-39326900D01*
X78944183Y-39326900D01*
G37*
G36*
X81944183Y-39326900D02*
X82071574Y-39379668D01*
X82186225Y-39456275D01*
X82283725Y-39553775D01*
X82360332Y-39668426D01*
X82413100Y-39795817D01*
X82440000Y-39931055D01*
X82440000Y-40068945D01*
X82413100Y-40204183D01*
X82360332Y-40331574D01*
X82283725Y-40446225D01*
X82186225Y-40543725D01*
X82071574Y-40620332D01*
X81944183Y-40673100D01*
X81808945Y-40700000D01*
X81671055Y-40700000D01*
X81535817Y-40673100D01*
X81408426Y-40620332D01*
X81293775Y-40543725D01*
X81196275Y-40446225D01*
X81119668Y-40331574D01*
X81066900Y-40204183D01*
X81040000Y-40068945D01*
X81040000Y-39931055D01*
X81066900Y-39795817D01*
X81119668Y-39668426D01*
X81196275Y-39553775D01*
X81293775Y-39456275D01*
X81408426Y-39379668D01*
X81535817Y-39326900D01*
X81671055Y-39300000D01*
X81808945Y-39300000D01*
X81944183Y-39326900D01*
X81944183Y-39326900D01*
G37*
G36*
X122483378Y-35091859D02*
X122847354Y-35242622D01*
X123174929Y-35461501D01*
X123453499Y-35740071D01*
X123672378Y-36067646D01*
X123823141Y-36431622D01*
X123900000Y-36818016D01*
X123900000Y-37211984D01*
X123823141Y-37598378D01*
X123672378Y-37962354D01*
X123453499Y-38289929D01*
X123174929Y-38568499D01*
X122847354Y-38787378D01*
X122483378Y-38938141D01*
X122096984Y-39015000D01*
X121703016Y-39015000D01*
X121316622Y-38938141D01*
X120952646Y-38787378D01*
X120625071Y-38568499D01*
X120346501Y-38289929D01*
X120127622Y-37962354D01*
X119976859Y-37598378D01*
X119900000Y-37211984D01*
X119900000Y-36818016D01*
X119976859Y-36431622D01*
X120127622Y-36067646D01*
X120346501Y-35740071D01*
X120625071Y-35461501D01*
X120952646Y-35242622D01*
X121316622Y-35091859D01*
X121703016Y-35015000D01*
X122096984Y-35015000D01*
X122483378Y-35091859D01*
X122483378Y-35091859D01*
G37*
G36*
X113683378Y-35076859D02*
X114047354Y-35227622D01*
X114374929Y-35446501D01*
X114653499Y-35725071D01*
X114872378Y-36052646D01*
X115023141Y-36416622D01*
X115100000Y-36803016D01*
X115100000Y-37196984D01*
X115023141Y-37583378D01*
X114872378Y-37947354D01*
X114653499Y-38274929D01*
X114374929Y-38553499D01*
X114047354Y-38772378D01*
X113683378Y-38923141D01*
X113296984Y-39000000D01*
X112903016Y-39000000D01*
X112516622Y-38923141D01*
X112152646Y-38772378D01*
X111825071Y-38553499D01*
X111546501Y-38274929D01*
X111327622Y-37947354D01*
X111176859Y-37583378D01*
X111100000Y-37196984D01*
X111100000Y-36803016D01*
X111176859Y-36416622D01*
X111327622Y-36052646D01*
X111546501Y-35725071D01*
X111825071Y-35446501D01*
X112152646Y-35227622D01*
X112516622Y-35076859D01*
X112903016Y-35000000D01*
X113296984Y-35000000D01*
X113683378Y-35076859D01*
X113683378Y-35076859D01*
G37*
G36*
X101750000Y-36654000D02*
X98250000Y-36654000D01*
X98250000Y-34154000D01*
X101750000Y-34154000D01*
X101750000Y-36654000D01*
X101750000Y-36654000D01*
G37*
G36*
X140466703Y-33461486D02*
X140757883Y-33582097D01*
X141019944Y-33757201D01*
X141242799Y-33980056D01*
X141417903Y-34242117D01*
X141538514Y-34533297D01*
X141600000Y-34842412D01*
X141600000Y-35157588D01*
X141538514Y-35466703D01*
X141417903Y-35757883D01*
X141242799Y-36019944D01*
X141019944Y-36242799D01*
X140757883Y-36417903D01*
X140466703Y-36538514D01*
X140157588Y-36600000D01*
X139842412Y-36600000D01*
X139533297Y-36538514D01*
X139242117Y-36417903D01*
X138980056Y-36242799D01*
X138757201Y-36019944D01*
X138582097Y-35757883D01*
X138461486Y-35466703D01*
X138400000Y-35157588D01*
X138400000Y-34842412D01*
X138461486Y-34533297D01*
X138582097Y-34242117D01*
X138757201Y-33980056D01*
X138980056Y-33757201D01*
X139242117Y-33582097D01*
X139533297Y-33461486D01*
X139842412Y-33400000D01*
X140157588Y-33400000D01*
X140466703Y-33461486D01*
X140466703Y-33461486D01*
G37*
G36*
X60466703Y-33461486D02*
X60757883Y-33582097D01*
X61019944Y-33757201D01*
X61242799Y-33980056D01*
X61417903Y-34242117D01*
X61538514Y-34533297D01*
X61600000Y-34842412D01*
X61600000Y-35157588D01*
X61538514Y-35466703D01*
X61417903Y-35757883D01*
X61242799Y-36019944D01*
X61019944Y-36242799D01*
X60757883Y-36417903D01*
X60466703Y-36538514D01*
X60157588Y-36600000D01*
X59842412Y-36600000D01*
X59533297Y-36538514D01*
X59242117Y-36417903D01*
X58980056Y-36242799D01*
X58757201Y-36019944D01*
X58582097Y-35757883D01*
X58461486Y-35466703D01*
X58400000Y-35157588D01*
X58400000Y-34842412D01*
X58461486Y-34533297D01*
X58582097Y-34242117D01*
X58757201Y-33980056D01*
X58980056Y-33757201D01*
X59242117Y-33582097D01*
X59533297Y-33461486D01*
X59842412Y-33400000D01*
X60157588Y-33400000D01*
X60466703Y-33461486D01*
X60466703Y-33461486D01*
G37*
M02*
