M48
;DRILL file {KiCad (5.0.1)-3} date 25/03/2020 14:52:41
;FORMAT={-:-/ absolute / metric / decimal}
FMAT,2
METRIC,TZ
T1C0.400
T2C0.800
T3C0.900
T4C1.000
T5C1.100
T6C1.200
T7C1.397
T8C1.501
T9C2.435
%
G90
G05
M71
T1
X74.93Y-116.84
X78.74Y-102.87
X81.Y-79.
X85.09Y-124.46
X91.44Y-110.49
X93.98Y-102.87
X95.Y-127.
X99.06Y-116.84
X100.33Y-118.11
X111.Y-104.
T2
X106.68Y-147.32
X116.84Y-147.32
X134.62Y-119.38
X134.62Y-129.54
X93.98Y-114.3
X96.48Y-114.3
X101.6Y-144.82
X101.6Y-147.32
X106.68Y-104.14
X106.68Y-114.3
X66.04Y-121.92
X66.04Y-137.16
X68.58Y-121.92
X68.58Y-137.16
X71.12Y-121.92
X71.12Y-137.16
X73.66Y-121.92
X73.66Y-137.16
X76.2Y-121.92
X76.2Y-137.16
X78.74Y-121.92
X78.74Y-137.16
X81.28Y-121.92
X81.28Y-137.16
X83.82Y-121.92
X83.82Y-137.16
X86.36Y-121.92
X86.36Y-137.16
X88.9Y-121.92
X88.9Y-137.16
X91.44Y-121.92
X91.44Y-137.16
X93.98Y-121.92
X93.98Y-137.16
X96.52Y-121.92
X96.52Y-137.16
X99.06Y-121.92
X99.06Y-137.16
X101.6Y-121.92
X101.6Y-137.16
X101.6Y-104.14
X101.6Y-114.3
X83.82Y-104.14
X83.82Y-114.3
X93.98Y-144.78
X96.48Y-144.78
X116.84Y-119.38
X116.84Y-127.
X104.14Y-104.14
X104.14Y-114.3
X121.92Y-119.38
X121.92Y-121.92
X121.92Y-124.46
X121.92Y-127.
X129.54Y-119.38
X129.54Y-121.92
X129.54Y-124.46
X129.54Y-127.
X137.16Y-119.38
X137.16Y-129.54
X88.9Y-104.14
X88.9Y-114.3
X86.36Y-104.14
X86.36Y-114.3
X78.74Y-144.78
X88.9Y-144.78
X78.74Y-147.32
X88.9Y-147.32
X93.98Y-106.68
X96.48Y-106.68
T3
X129.Y-50.
X131.54Y-50.
X119.Y-50.
X121.54Y-50.
X89.Y-50.
X91.54Y-50.
X79.Y-50.
X81.54Y-50.
X69.Y-50.
X71.54Y-50.
X78.74Y-40.
X81.74Y-40.
X84.74Y-40.
X129.54Y-141.32
X129.54Y-144.32
X129.54Y-147.32
X109.Y-50.
X111.54Y-50.
T4
X132.08Y-68.58
X134.58Y-68.58
X137.08Y-68.58
X78.74Y-68.58
X81.24Y-68.58
X83.74Y-68.58
X116.84Y-68.58
X119.34Y-68.58
X121.84Y-68.58
X115.Y-44.
X117.5Y-44.
X120.Y-44.
X66.04Y-139.7
X68.58Y-139.7
X71.12Y-139.7
X73.66Y-139.7
X76.2Y-139.7
X78.74Y-139.7
X81.28Y-139.7
X83.82Y-139.7
X86.36Y-139.7
X88.9Y-139.7
X91.44Y-139.7
X93.98Y-139.7
X96.52Y-139.7
X99.06Y-139.7
X101.6Y-139.7
X66.04Y-119.38
X68.58Y-119.38
X71.12Y-119.38
X73.66Y-119.38
X76.2Y-119.38
X78.74Y-119.38
X81.28Y-119.38
X83.82Y-119.38
X86.36Y-119.38
X88.9Y-119.38
X91.44Y-119.38
X93.98Y-119.38
X96.52Y-119.38
X99.06Y-119.38
X101.6Y-119.38
X63.5Y-68.58
X66.Y-68.58
X68.5Y-68.58
T5
X109.22Y-119.38
X109.22Y-129.54
T6
X134.62Y-81.28
X134.62Y-93.78
X139.62Y-81.28
X139.62Y-93.78
X60.96Y-81.28
X60.96Y-93.78
X65.96Y-81.28
X65.96Y-93.78
X95.Y-40.41
X97.5Y-40.41
X100.Y-35.404
X102.5Y-40.41
X105.Y-40.41
X121.92Y-81.28
X121.92Y-93.78
X126.92Y-81.28
X126.92Y-93.78
X109.22Y-81.28
X109.22Y-93.78
X114.22Y-81.28
X114.22Y-93.78
X73.66Y-81.28
X73.66Y-93.78
X78.66Y-81.28
X78.66Y-93.78
X86.36Y-81.28
X86.36Y-93.78
X91.36Y-81.28
X91.36Y-93.78
T7
X104.178Y-154.902
X106.68Y-152.4
X111.676Y-154.899
X116.672Y-152.4
X119.174Y-154.902
X81.318Y-154.483
X83.82Y-151.981
X88.816Y-154.48
X93.812Y-151.981
X96.314Y-154.483
T8
X71.12Y-106.68
X76.2Y-106.68
T9
X75.49Y-40.
X87.99Y-40.
X129.54Y-138.07
X129.54Y-150.57
T0
M30
