M48
; DRILL file {KiCad (5.1.5)-3} date 02/09/2021 10:53:43
; FORMAT={-:-/ absolute / metric / decimal}
; #@! TF.CreationDate,2021-09-02T10:53:43+01:00
; #@! TF.GenerationSoftware,Kicad,Pcbnew,(5.1.5)-3
; #@! TF.FileFunction,NonPlated,1,2,NPTH
FMAT,2
METRIC
T1C1.397
T2C1.780
T3C2.200
T4C3.200
%
G90
G05
T1
X105.0Y-165.0
X115.003Y-165.0
X84.997Y-165.0
X95.0Y-165.0
T2
X63.5Y-121.92
X63.5Y-137.16
X104.14Y-121.92
X104.14Y-137.16
T3
X113.1Y-37.0
X121.9Y-37.015
X76.84Y-61.58
X85.64Y-61.595
X61.6Y-61.58
X70.4Y-61.595
X114.94Y-61.58
X123.74Y-61.595
X130.18Y-61.58
X138.98Y-61.595
T4
X70.0Y-160.0
X140.0Y-105.0
X100.0Y-80.0
X60.0Y-74.0
X100.0Y-50.0
X130.0Y-160.0
X60.0Y-35.0
X140.0Y-74.0
X60.0Y-105.0
X140.0Y-35.0
T0
M30
