M48
; DRILL file {KiCad (5.1.5)-3} date 02/09/2021 10:53:43
; FORMAT={-:-/ absolute / metric / decimal}
; #@! TF.CreationDate,2021-09-02T10:53:43+01:00
; #@! TF.GenerationSoftware,Kicad,Pcbnew,(5.1.5)-3
; #@! TF.FileFunction,Plated,1,2,PTH
FMAT,2
METRIC
T1C0.400
T2C0.800
T3C0.900
T4C1.000
T5C1.200
T6C1.397
T7C1.501
T8C2.435
%
G90
G05
T1
X69.469Y-101.6
X70.485Y-110.363
X70.612Y-112.522
X79.793Y-105.067
X80.01Y-102.108
X86.36Y-110.744
X87.884Y-70.358
X89.535Y-66.548
X89.535Y-91.821
X91.44Y-110.871
X94.234Y-109.601
X96.139Y-109.601
X97.028Y-102.489
X105.029Y-139.954
X109.728Y-127.508
X112.649Y-47.117
X113.919Y-135.89
X115.443Y-118.364
T2
X124.5Y-128.38
X124.5Y-136.0
X97.282Y-114.046
X99.782Y-114.046
X66.04Y-121.92
X66.04Y-137.16
X68.58Y-121.92
X68.58Y-137.16
X71.12Y-121.92
X71.12Y-137.16
X73.66Y-121.92
X73.66Y-137.16
X76.2Y-121.92
X76.2Y-137.16
X78.74Y-121.92
X78.74Y-137.16
X81.28Y-121.92
X81.28Y-137.16
X83.82Y-121.92
X83.82Y-137.16
X86.36Y-121.92
X86.36Y-137.16
X88.9Y-121.92
X88.9Y-137.16
X91.44Y-121.92
X91.44Y-137.16
X93.98Y-121.92
X93.98Y-137.16
X96.52Y-121.92
X96.52Y-137.16
X99.06Y-121.92
X99.06Y-137.16
X101.6Y-121.92
X101.6Y-137.16
X94.02Y-144.78
X96.52Y-144.78
T3
X119.0Y-50.0
X121.54Y-50.0
X79.0Y-50.0
X81.54Y-50.0
X69.0Y-50.0
X71.54Y-50.0
X89.0Y-50.0
X91.54Y-50.0
X132.08Y-129.89
X132.08Y-132.89
X132.08Y-135.89
X129.0Y-50.0
X131.54Y-50.0
X78.74Y-40.0
X81.74Y-40.0
X84.74Y-40.0
X109.0Y-50.0
X111.54Y-50.0
T4
X66.04Y-124.46
X68.58Y-124.46
X71.12Y-124.46
X73.66Y-124.46
X76.2Y-124.46
X78.74Y-124.46
X81.28Y-124.46
X83.82Y-124.46
X86.36Y-124.46
X88.9Y-124.46
X91.44Y-124.46
X93.98Y-124.46
X96.52Y-124.46
X99.06Y-124.46
X101.6Y-124.46
X66.04Y-134.62
X68.58Y-134.62
X71.12Y-134.62
X73.66Y-134.62
X76.2Y-134.62
X78.74Y-134.62
X81.28Y-134.62
X83.82Y-134.62
X86.36Y-134.62
X88.9Y-134.62
X91.44Y-134.62
X93.98Y-134.62
X96.52Y-134.62
X99.06Y-134.62
X101.6Y-134.62
X116.84Y-68.58
X119.34Y-68.58
X121.84Y-68.58
X132.08Y-68.58
X134.58Y-68.58
X137.08Y-68.58
X129.54Y-111.76
X129.54Y-114.3
X129.54Y-116.84
X129.54Y-119.38
X129.54Y-121.92
X109.22Y-147.32
X111.76Y-147.32
X114.3Y-147.32
X116.84Y-147.32
X119.38Y-147.32
X121.92Y-147.32
X124.46Y-147.32
X127.0Y-147.32
X129.54Y-147.32
X132.08Y-147.32
X73.66Y-144.78
X73.66Y-147.32
X73.66Y-149.86
X73.66Y-152.4
X73.66Y-154.94
X115.0Y-44.0
X117.5Y-44.0
X120.0Y-44.0
X109.22Y-104.14
X111.76Y-104.14
X114.3Y-104.14
X116.84Y-104.14
X119.38Y-104.14
X121.92Y-104.14
X124.46Y-104.14
X127.0Y-104.14
X129.54Y-104.14
X132.08Y-104.14
X109.22Y-144.78
X111.76Y-144.78
X114.3Y-144.78
X116.84Y-144.78
X119.38Y-144.78
X121.92Y-144.78
X124.46Y-144.78
X127.0Y-144.78
X129.54Y-144.78
X132.08Y-144.78
X66.04Y-139.7
X68.58Y-139.7
X71.12Y-139.7
X73.66Y-139.7
X76.2Y-139.7
X78.74Y-139.7
X81.28Y-139.7
X83.82Y-139.7
X86.36Y-139.7
X88.9Y-139.7
X91.44Y-139.7
X93.98Y-139.7
X96.52Y-139.7
X99.06Y-139.7
X101.6Y-139.7
X78.74Y-68.58
X81.24Y-68.58
X83.74Y-68.58
X66.04Y-119.38
X68.58Y-119.38
X71.12Y-119.38
X73.66Y-119.38
X76.2Y-119.38
X78.74Y-119.38
X81.28Y-119.38
X83.82Y-119.38
X86.36Y-119.38
X88.9Y-119.38
X91.44Y-119.38
X93.98Y-119.38
X96.52Y-119.38
X99.06Y-119.38
X101.6Y-119.38
X63.5Y-68.58
X66.0Y-68.58
X68.5Y-68.58
X109.22Y-106.68
X111.76Y-106.68
X114.3Y-106.68
X116.84Y-106.68
X119.38Y-106.68
X121.92Y-106.68
X124.46Y-106.68
X127.0Y-106.68
X129.54Y-106.68
X132.08Y-106.68
T5
X134.62Y-111.84
X134.62Y-114.34
X134.62Y-119.34
X134.62Y-121.84
X139.626Y-116.84
X95.0Y-40.41
X97.5Y-40.41
X100.0Y-35.404
X102.5Y-40.41
X105.0Y-40.41
X63.5Y-149.86
X68.506Y-144.86
X68.506Y-147.36
X68.506Y-152.36
X68.506Y-154.86
T6
X102.503Y-155.005
X105.005Y-152.503
X110.001Y-155.003
X114.997Y-152.503
X117.499Y-155.005
X82.501Y-155.005
X85.003Y-152.503
X89.999Y-155.003
X94.995Y-152.503
X97.497Y-155.005
T7
X71.12Y-106.68
X76.2Y-106.68
T8
X132.08Y-126.64
X132.08Y-139.14
X75.49Y-40.0
X87.99Y-40.0
T0
M30
