M48
; DRILL file {KiCad (5.1.5)-3} date 04/08/2020 14:33:39
; FORMAT={-:-/ absolute / inch / decimal}
; #@! TF.CreationDate,2020-08-04T14:33:39+01:00
; #@! TF.GenerationSoftware,Kicad,Pcbnew,(5.1.5)-3
; #@! TF.FileFunction,Plated,1,2,PTH
FMAT,2
INCH
T1C0.0157
T2C0.0315
T3C0.0354
T4C0.0394
T5C0.0433
T6C0.0472
T7C0.0550
T8C0.0591
T9C0.0959
%
G90
G05
T1
X2.3Y-5.1
X2.4Y-4.6
X2.5Y-5.7
X2.6Y-4.3
X3.2Y-5.1
X3.6Y-5.1
X3.6Y-6.3
X3.7Y-4.2
X4.0Y-5.9
X4.3Y-6.3
X4.9Y-4.6
X5.3Y-4.3
X5.5Y-5.8
T2
X4.9Y-5.1
X4.9Y-5.5
X4.8Y-4.4
X4.8Y-4.8
X4.2Y-4.1
X4.2Y-4.5
X4.1Y-4.1
X4.1Y-4.5
X3.3Y-4.1
X3.3Y-4.5
X4.9Y-4.4
X4.9Y-4.8
X3.4Y-4.1
X3.4Y-4.5
X4.0Y-4.1
X4.0Y-4.5
X4.9Y-6.0
X5.3Y-6.0
X2.6Y-4.8
X2.6Y-5.4
X2.7Y-4.8
X2.7Y-5.4
X2.8Y-4.8
X2.8Y-5.4
X2.9Y-4.8
X2.9Y-5.4
X3.0Y-4.8
X3.0Y-5.4
X3.1Y-4.8
X3.1Y-5.4
X3.2Y-4.8
X3.2Y-5.4
X3.3Y-4.8
X3.3Y-5.4
X3.4Y-4.8
X3.4Y-5.4
X3.5Y-4.8
X3.5Y-5.4
X3.6Y-4.8
X3.6Y-5.4
X3.7Y-4.8
X3.7Y-5.4
X3.8Y-4.8
X3.8Y-5.4
X3.9Y-4.8
X3.9Y-5.4
X4.0Y-4.8
X4.0Y-5.4
X3.1Y-5.8
X3.5Y-5.8
X4.6Y-4.9
X4.6Y-5.2
X3.5Y-4.1
X3.5Y-4.5
X2.5Y-4.5
X2.9Y-4.5
X3.1Y-5.7
X3.5Y-5.7
X4.45Y-5.4
X4.5484Y-5.4
X3.7Y-4.5
X3.7984Y-4.5
X4.8Y-5.1
X4.8Y-5.5
X4.4Y-4.4
X4.4Y-4.5
X4.4Y-4.6
X4.4Y-4.7
X4.7Y-4.4
X4.7Y-4.5
X4.7Y-4.6
X4.7Y-4.7
X3.0016Y-4.5
X3.1Y-4.5
X3.7Y-5.7
X3.7984Y-5.7
T3
X2.7165Y-1.9685
X2.8165Y-1.9685
X3.5039Y-1.9685
X3.6039Y-1.9685
X5.0787Y-1.9685
X5.1787Y-1.9685
X3.1102Y-1.9685
X3.2102Y-1.9685
X4.685Y-1.9685
X4.785Y-1.9685
X4.2913Y-1.9685
X4.3913Y-1.9685
X3.1Y-1.5748
X3.2181Y-1.5748
X3.3362Y-1.5748
X5.2Y-5.1138
X5.2Y-5.2319
X5.2Y-5.35
T4
X2.6Y-5.3
X2.7Y-5.3
X2.8Y-5.3
X2.9Y-5.3
X3.0Y-5.3
X3.1Y-5.3
X3.2Y-5.3
X3.3Y-5.3
X3.4Y-5.3
X3.5Y-5.3
X3.6Y-5.3
X3.7Y-5.3
X3.8Y-5.3
X3.9Y-5.3
X4.0Y-5.3
X4.5276Y-1.7323
X4.626Y-1.7323
X4.7244Y-1.7323
X4.3Y-5.8
X4.4Y-5.8
X4.5Y-5.8
X4.6Y-5.8
X4.7Y-5.8
X4.8Y-5.8
X4.9Y-5.8
X5.0Y-5.8
X5.1Y-5.8
X5.2Y-5.8
X2.9Y-5.7
X2.9Y-5.8
X2.9Y-5.9
X2.9Y-6.0
X2.9Y-6.1
X4.3Y-5.7
X4.4Y-5.7
X4.5Y-5.7
X4.6Y-5.7
X4.7Y-5.7
X4.8Y-5.7
X4.9Y-5.7
X5.0Y-5.7
X5.1Y-5.7
X5.2Y-5.7
X4.6Y-2.7
X4.6984Y-2.7
X4.7969Y-2.7
X2.6Y-4.9
X2.7Y-4.9
X2.8Y-4.9
X2.9Y-4.9
X3.0Y-4.9
X3.1Y-4.9
X3.2Y-4.9
X3.3Y-4.9
X3.4Y-4.9
X3.5Y-4.9
X3.6Y-4.9
X3.7Y-4.9
X3.8Y-4.9
X3.9Y-4.9
X4.0Y-4.9
X4.3Y-4.2
X4.4Y-4.2
X4.5Y-4.2
X4.6Y-4.2
X4.7Y-4.2
X4.8Y-4.2
X4.9Y-4.2
X5.0Y-4.2
X5.1Y-4.2
X5.2Y-4.2
X3.1Y-2.7
X3.1984Y-2.7
X3.2969Y-2.7
X4.3Y-4.1
X4.4Y-4.1
X4.5Y-4.1
X4.6Y-4.1
X4.7Y-4.1
X4.8Y-4.1
X4.9Y-4.1
X5.0Y-4.1
X5.1Y-4.1
X5.2Y-4.1
X2.5Y-2.7
X2.5984Y-2.7
X2.6969Y-2.7
X2.6Y-4.7
X2.7Y-4.7
X2.8Y-4.7
X2.9Y-4.7
X3.0Y-4.7
X3.1Y-4.7
X3.2Y-4.7
X3.3Y-4.7
X3.4Y-4.7
X3.5Y-4.7
X3.6Y-4.7
X3.7Y-4.7
X3.8Y-4.7
X3.9Y-4.7
X4.0Y-4.7
X2.6Y-5.5
X2.7Y-5.5
X2.8Y-5.5
X2.9Y-5.5
X3.0Y-5.5
X3.1Y-5.5
X3.2Y-5.5
X3.3Y-5.5
X3.4Y-5.5
X3.5Y-5.5
X3.6Y-5.5
X3.7Y-5.5
X3.8Y-5.5
X3.9Y-5.5
X4.0Y-5.5
X5.2Y-2.7
X5.2984Y-2.7
X5.3969Y-2.7
X5.1Y-4.4
X5.1Y-4.5
X5.1Y-4.6
X5.1Y-4.7
X5.1Y-4.8
T5
X4.3Y-4.9
X4.3Y-5.3
T6
X4.3Y-3.2
X4.3Y-3.6921
X4.4969Y-3.2
X4.4969Y-3.6921
X2.9Y-3.2
X2.9Y-3.6921
X3.0969Y-3.2
X3.0969Y-3.6921
X2.4Y-3.2
X2.4Y-3.6921
X2.5969Y-3.2
X2.5969Y-3.6921
X5.3Y-4.4031
X5.3Y-4.5016
X5.3Y-4.6984
X5.3Y-4.7969
X5.4971Y-4.6
X5.3Y-3.2
X5.3Y-3.6921
X5.4969Y-3.2
X5.4969Y-3.6921
X2.5Y-5.9
X2.6971Y-5.7031
X2.6971Y-5.8016
X2.6971Y-5.9984
X2.6971Y-6.0969
X4.8Y-3.2
X4.8Y-3.6921
X4.9969Y-3.2
X4.9969Y-3.6921
X3.7402Y-1.5909
X3.8386Y-1.5909
X3.937Y-1.3939
X4.0354Y-1.5909
X4.1339Y-1.5909
X3.4Y-3.2
X3.4Y-3.6921
X3.5969Y-3.2
X3.5969Y-3.6921
T7
X3.2481Y-6.1026
X3.3466Y-6.0041
X3.5433Y-6.1025
X3.74Y-6.0041
X3.8385Y-6.1026
X4.0356Y-6.1026
X4.1341Y-6.0041
X4.3308Y-6.1025
X4.5275Y-6.0041
X4.626Y-6.1026
T8
X2.8Y-4.2
X3.0Y-4.2
T9
X2.972Y-1.5748
X3.4642Y-1.5748
X5.2Y-4.9858
X5.2Y-5.478
T0
M30
