G04 #@! TF.GenerationSoftware,KiCad,Pcbnew,(5.1.5)-3*
G04 #@! TF.CreationDate,2020-08-04T14:33:43+01:00*
G04 #@! TF.ProjectId,drumkid,6472756d-6b69-4642-9e6b-696361645f70,rev?*
G04 #@! TF.SameCoordinates,Original*
G04 #@! TF.FileFunction,Legend,Top*
G04 #@! TF.FilePolarity,Positive*
%FSLAX46Y46*%
G04 Gerber Fmt 4.6, Leading zero omitted, Abs format (unit mm)*
G04 Created by KiCad (PCBNEW (5.1.5)-3) date 2020-08-04 14:33:43*
%MOMM*%
%LPD*%
G04 APERTURE LIST*
%ADD10C,0.250000*%
%ADD11C,0.200000*%
%ADD12C,0.150000*%
%ADD13C,0.300000*%
%ADD14C,0.120000*%
G04 APERTURE END LIST*
D10*
X127440833Y-111018571D02*
X128012261Y-111018571D01*
X127726547Y-112518571D02*
X127726547Y-111018571D01*
X126393214Y-113518571D02*
X126964642Y-113518571D01*
X126678928Y-115018571D02*
X126678928Y-113518571D01*
X127297976Y-115018571D02*
X127297976Y-113518571D01*
X127869404Y-115018571D01*
X127869404Y-113518571D01*
X127345595Y-117447142D02*
X127488452Y-117518571D01*
X127726547Y-117518571D01*
X127821785Y-117447142D01*
X127869404Y-117375714D01*
X127917023Y-117232857D01*
X127917023Y-117090000D01*
X127869404Y-116947142D01*
X127821785Y-116875714D01*
X127726547Y-116804285D01*
X127536071Y-116732857D01*
X127440833Y-116661428D01*
X127393214Y-116590000D01*
X127345595Y-116447142D01*
X127345595Y-116304285D01*
X127393214Y-116161428D01*
X127440833Y-116090000D01*
X127536071Y-116018571D01*
X127774166Y-116018571D01*
X127917023Y-116090000D01*
X126869404Y-120018571D02*
X126536071Y-119304285D01*
X126297976Y-120018571D02*
X126297976Y-118518571D01*
X126678928Y-118518571D01*
X126774166Y-118590000D01*
X126821785Y-118661428D01*
X126869404Y-118804285D01*
X126869404Y-119018571D01*
X126821785Y-119161428D01*
X126774166Y-119232857D01*
X126678928Y-119304285D01*
X126297976Y-119304285D01*
X127297976Y-120018571D02*
X127297976Y-118518571D01*
X127869404Y-120018571D01*
X127869404Y-118518571D01*
X127917023Y-122518571D02*
X127583690Y-121804285D01*
X127345595Y-122518571D02*
X127345595Y-121018571D01*
X127726547Y-121018571D01*
X127821785Y-121090000D01*
X127869404Y-121161428D01*
X127917023Y-121304285D01*
X127917023Y-121518571D01*
X127869404Y-121661428D01*
X127821785Y-121732857D01*
X127726547Y-121804285D01*
X127345595Y-121804285D01*
X75902023Y-145538571D02*
X75568690Y-144824285D01*
X75330595Y-145538571D02*
X75330595Y-144038571D01*
X75711547Y-144038571D01*
X75806785Y-144110000D01*
X75854404Y-144181428D01*
X75902023Y-144324285D01*
X75902023Y-144538571D01*
X75854404Y-144681428D01*
X75806785Y-144752857D01*
X75711547Y-144824285D01*
X75330595Y-144824285D01*
X75902023Y-148038571D02*
X75568690Y-147324285D01*
X75330595Y-148038571D02*
X75330595Y-146538571D01*
X75711547Y-146538571D01*
X75806785Y-146610000D01*
X75854404Y-146681428D01*
X75902023Y-146824285D01*
X75902023Y-147038571D01*
X75854404Y-147181428D01*
X75806785Y-147252857D01*
X75711547Y-147324285D01*
X75330595Y-147324285D01*
X76330595Y-148038571D02*
X76330595Y-146538571D01*
X76902023Y-148038571D01*
X76902023Y-146538571D01*
X75282976Y-150467142D02*
X75425833Y-150538571D01*
X75663928Y-150538571D01*
X75759166Y-150467142D01*
X75806785Y-150395714D01*
X75854404Y-150252857D01*
X75854404Y-150110000D01*
X75806785Y-149967142D01*
X75759166Y-149895714D01*
X75663928Y-149824285D01*
X75473452Y-149752857D01*
X75378214Y-149681428D01*
X75330595Y-149610000D01*
X75282976Y-149467142D01*
X75282976Y-149324285D01*
X75330595Y-149181428D01*
X75378214Y-149110000D01*
X75473452Y-149038571D01*
X75711547Y-149038571D01*
X75854404Y-149110000D01*
X75187738Y-151538571D02*
X75759166Y-151538571D01*
X75473452Y-153038571D02*
X75473452Y-151538571D01*
X76092500Y-153038571D02*
X76092500Y-151538571D01*
X76663928Y-153038571D01*
X76663928Y-151538571D01*
X75187738Y-154038571D02*
X75759166Y-154038571D01*
X75473452Y-155538571D02*
X75473452Y-154038571D01*
D11*
X93915714Y-95542857D02*
X93915714Y-94342857D01*
X94201428Y-94342857D01*
X94372857Y-94400000D01*
X94487142Y-94514285D01*
X94544285Y-94628571D01*
X94601428Y-94857142D01*
X94601428Y-95028571D01*
X94544285Y-95257142D01*
X94487142Y-95371428D01*
X94372857Y-95485714D01*
X94201428Y-95542857D01*
X93915714Y-95542857D01*
X95115714Y-95542857D02*
X95115714Y-94742857D01*
X95115714Y-94971428D02*
X95172857Y-94857142D01*
X95230000Y-94800000D01*
X95344285Y-94742857D01*
X95458571Y-94742857D01*
X96372857Y-94742857D02*
X96372857Y-95542857D01*
X95858571Y-94742857D02*
X95858571Y-95371428D01*
X95915714Y-95485714D01*
X96030000Y-95542857D01*
X96201428Y-95542857D01*
X96315714Y-95485714D01*
X96372857Y-95428571D01*
X96944285Y-95542857D02*
X96944285Y-94742857D01*
X96944285Y-94857142D02*
X97001428Y-94800000D01*
X97115714Y-94742857D01*
X97287142Y-94742857D01*
X97401428Y-94800000D01*
X97458571Y-94914285D01*
X97458571Y-95542857D01*
X97458571Y-94914285D02*
X97515714Y-94800000D01*
X97630000Y-94742857D01*
X97801428Y-94742857D01*
X97915714Y-94800000D01*
X97972857Y-94914285D01*
X97972857Y-95542857D01*
X98544285Y-95542857D02*
X98544285Y-94342857D01*
X99230000Y-95542857D02*
X98715714Y-94857142D01*
X99230000Y-94342857D02*
X98544285Y-95028571D01*
X99744285Y-95542857D02*
X99744285Y-94742857D01*
X99744285Y-94342857D02*
X99687142Y-94400000D01*
X99744285Y-94457142D01*
X99801428Y-94400000D01*
X99744285Y-94342857D01*
X99744285Y-94457142D01*
X100830000Y-95542857D02*
X100830000Y-94342857D01*
X100830000Y-95485714D02*
X100715714Y-95542857D01*
X100487142Y-95542857D01*
X100372857Y-95485714D01*
X100315714Y-95428571D01*
X100258571Y-95314285D01*
X100258571Y-94971428D01*
X100315714Y-94857142D01*
X100372857Y-94800000D01*
X100487142Y-94742857D01*
X100715714Y-94742857D01*
X100830000Y-94800000D01*
X102201428Y-94742857D02*
X102487142Y-95542857D01*
X102772857Y-94742857D01*
X103287142Y-95542857D02*
X103515714Y-95542857D01*
X103630000Y-95485714D01*
X103687142Y-95428571D01*
X103801428Y-95257142D01*
X103858571Y-95028571D01*
X103858571Y-94571428D01*
X103801428Y-94457142D01*
X103744285Y-94400000D01*
X103630000Y-94342857D01*
X103401428Y-94342857D01*
X103287142Y-94400000D01*
X103230000Y-94457142D01*
X103172857Y-94571428D01*
X103172857Y-94857142D01*
X103230000Y-94971428D01*
X103287142Y-95028571D01*
X103401428Y-95085714D01*
X103630000Y-95085714D01*
X103744285Y-95028571D01*
X103801428Y-94971428D01*
X103858571Y-94857142D01*
X93915714Y-97542857D02*
X93915714Y-96342857D01*
X93915714Y-96800000D02*
X94030000Y-96742857D01*
X94258571Y-96742857D01*
X94372857Y-96800000D01*
X94430000Y-96857142D01*
X94487142Y-96971428D01*
X94487142Y-97314285D01*
X94430000Y-97428571D01*
X94372857Y-97485714D01*
X94258571Y-97542857D01*
X94030000Y-97542857D01*
X93915714Y-97485714D01*
X94887142Y-96742857D02*
X95172857Y-97542857D01*
X95458571Y-96742857D02*
X95172857Y-97542857D01*
X95058571Y-97828571D01*
X95001428Y-97885714D01*
X94887142Y-97942857D01*
X96830000Y-97542857D02*
X96830000Y-96342857D01*
X97230000Y-97200000D01*
X97630000Y-96342857D01*
X97630000Y-97542857D01*
X98715714Y-97542857D02*
X98715714Y-96914285D01*
X98658571Y-96800000D01*
X98544285Y-96742857D01*
X98315714Y-96742857D01*
X98201428Y-96800000D01*
X98715714Y-97485714D02*
X98601428Y-97542857D01*
X98315714Y-97542857D01*
X98201428Y-97485714D01*
X98144285Y-97371428D01*
X98144285Y-97257142D01*
X98201428Y-97142857D01*
X98315714Y-97085714D01*
X98601428Y-97085714D01*
X98715714Y-97028571D01*
X99115714Y-96742857D02*
X99572857Y-96742857D01*
X99287142Y-96342857D02*
X99287142Y-97371428D01*
X99344285Y-97485714D01*
X99458571Y-97542857D01*
X99572857Y-97542857D01*
X99801428Y-96742857D02*
X100258571Y-96742857D01*
X99972857Y-96342857D02*
X99972857Y-97371428D01*
X100030000Y-97485714D01*
X100144285Y-97542857D01*
X100258571Y-97542857D01*
X101972857Y-96914285D02*
X102144285Y-96971428D01*
X102201428Y-97028571D01*
X102258571Y-97142857D01*
X102258571Y-97314285D01*
X102201428Y-97428571D01*
X102144285Y-97485714D01*
X102030000Y-97542857D01*
X101572857Y-97542857D01*
X101572857Y-96342857D01*
X101972857Y-96342857D01*
X102087142Y-96400000D01*
X102144285Y-96457142D01*
X102201428Y-96571428D01*
X102201428Y-96685714D01*
X102144285Y-96800000D01*
X102087142Y-96857142D01*
X101972857Y-96914285D01*
X101572857Y-96914285D01*
X102772857Y-97542857D02*
X102772857Y-96742857D01*
X102772857Y-96971428D02*
X102830000Y-96857142D01*
X102887142Y-96800000D01*
X103001428Y-96742857D01*
X103115714Y-96742857D01*
X104030000Y-97542857D02*
X104030000Y-96914285D01*
X103972857Y-96800000D01*
X103858571Y-96742857D01*
X103630000Y-96742857D01*
X103515714Y-96800000D01*
X104030000Y-97485714D02*
X103915714Y-97542857D01*
X103630000Y-97542857D01*
X103515714Y-97485714D01*
X103458571Y-97371428D01*
X103458571Y-97257142D01*
X103515714Y-97142857D01*
X103630000Y-97085714D01*
X103915714Y-97085714D01*
X104030000Y-97028571D01*
X105115714Y-97542857D02*
X105115714Y-96342857D01*
X105115714Y-97485714D02*
X105001428Y-97542857D01*
X104772857Y-97542857D01*
X104658571Y-97485714D01*
X104601428Y-97428571D01*
X104544285Y-97314285D01*
X104544285Y-96971428D01*
X104601428Y-96857142D01*
X104658571Y-96800000D01*
X104772857Y-96742857D01*
X105001428Y-96742857D01*
X105115714Y-96800000D01*
X105630000Y-97485714D02*
X105744285Y-97542857D01*
X105972857Y-97542857D01*
X106087142Y-97485714D01*
X106144285Y-97371428D01*
X106144285Y-97314285D01*
X106087142Y-97200000D01*
X105972857Y-97142857D01*
X105801428Y-97142857D01*
X105687142Y-97085714D01*
X105630000Y-96971428D01*
X105630000Y-96914285D01*
X105687142Y-96800000D01*
X105801428Y-96742857D01*
X105972857Y-96742857D01*
X106087142Y-96800000D01*
X106658571Y-97542857D02*
X106658571Y-96342857D01*
X107172857Y-97542857D02*
X107172857Y-96914285D01*
X107115714Y-96800000D01*
X107001428Y-96742857D01*
X106830000Y-96742857D01*
X106715714Y-96800000D01*
X106658571Y-96857142D01*
X108258571Y-97542857D02*
X108258571Y-96914285D01*
X108201428Y-96800000D01*
X108087142Y-96742857D01*
X107858571Y-96742857D01*
X107744285Y-96800000D01*
X108258571Y-97485714D02*
X108144285Y-97542857D01*
X107858571Y-97542857D01*
X107744285Y-97485714D01*
X107687142Y-97371428D01*
X107687142Y-97257142D01*
X107744285Y-97142857D01*
X107858571Y-97085714D01*
X108144285Y-97085714D01*
X108258571Y-97028571D01*
X108715714Y-96742857D02*
X108944285Y-97542857D01*
X109172857Y-96971428D01*
X109401428Y-97542857D01*
X109630000Y-96742857D01*
X93915714Y-99542857D02*
X93915714Y-98742857D01*
X93915714Y-98857142D02*
X93972857Y-98800000D01*
X94087142Y-98742857D01*
X94258571Y-98742857D01*
X94372857Y-98800000D01*
X94430000Y-98914285D01*
X94430000Y-99542857D01*
X94430000Y-98914285D02*
X94487142Y-98800000D01*
X94601428Y-98742857D01*
X94772857Y-98742857D01*
X94887142Y-98800000D01*
X94944285Y-98914285D01*
X94944285Y-99542857D01*
X96030000Y-99542857D02*
X96030000Y-98914285D01*
X95972857Y-98800000D01*
X95858571Y-98742857D01*
X95630000Y-98742857D01*
X95515714Y-98800000D01*
X96030000Y-99485714D02*
X95915714Y-99542857D01*
X95630000Y-99542857D01*
X95515714Y-99485714D01*
X95458571Y-99371428D01*
X95458571Y-99257142D01*
X95515714Y-99142857D01*
X95630000Y-99085714D01*
X95915714Y-99085714D01*
X96030000Y-99028571D01*
X96430000Y-98742857D02*
X96887142Y-98742857D01*
X96601428Y-98342857D02*
X96601428Y-99371428D01*
X96658571Y-99485714D01*
X96772857Y-99542857D01*
X96887142Y-99542857D01*
X97115714Y-98742857D02*
X97572857Y-98742857D01*
X97287142Y-98342857D02*
X97287142Y-99371428D01*
X97344285Y-99485714D01*
X97458571Y-99542857D01*
X97572857Y-99542857D01*
X97972857Y-99542857D02*
X97972857Y-98342857D01*
X97972857Y-98800000D02*
X98087142Y-98742857D01*
X98315714Y-98742857D01*
X98430000Y-98800000D01*
X98487142Y-98857142D01*
X98544285Y-98971428D01*
X98544285Y-99314285D01*
X98487142Y-99428571D01*
X98430000Y-99485714D01*
X98315714Y-99542857D01*
X98087142Y-99542857D01*
X97972857Y-99485714D01*
X99058571Y-99542857D02*
X99058571Y-98742857D01*
X99058571Y-98971428D02*
X99115714Y-98857142D01*
X99172857Y-98800000D01*
X99287142Y-98742857D01*
X99401428Y-98742857D01*
X100315714Y-99542857D02*
X100315714Y-98914285D01*
X100258571Y-98800000D01*
X100144285Y-98742857D01*
X99915714Y-98742857D01*
X99801428Y-98800000D01*
X100315714Y-99485714D02*
X100201428Y-99542857D01*
X99915714Y-99542857D01*
X99801428Y-99485714D01*
X99744285Y-99371428D01*
X99744285Y-99257142D01*
X99801428Y-99142857D01*
X99915714Y-99085714D01*
X100201428Y-99085714D01*
X100315714Y-99028571D01*
X101401428Y-99542857D02*
X101401428Y-98342857D01*
X101401428Y-99485714D02*
X101287142Y-99542857D01*
X101058571Y-99542857D01*
X100944285Y-99485714D01*
X100887142Y-99428571D01*
X100830000Y-99314285D01*
X100830000Y-98971428D01*
X100887142Y-98857142D01*
X100944285Y-98800000D01*
X101058571Y-98742857D01*
X101287142Y-98742857D01*
X101401428Y-98800000D01*
X101915714Y-99485714D02*
X102030000Y-99542857D01*
X102258571Y-99542857D01*
X102372857Y-99485714D01*
X102430000Y-99371428D01*
X102430000Y-99314285D01*
X102372857Y-99200000D01*
X102258571Y-99142857D01*
X102087142Y-99142857D01*
X101972857Y-99085714D01*
X101915714Y-98971428D01*
X101915714Y-98914285D01*
X101972857Y-98800000D01*
X102087142Y-98742857D01*
X102258571Y-98742857D01*
X102372857Y-98800000D01*
X102944285Y-99542857D02*
X102944285Y-98342857D01*
X103458571Y-99542857D02*
X103458571Y-98914285D01*
X103401428Y-98800000D01*
X103287142Y-98742857D01*
X103115714Y-98742857D01*
X103001428Y-98800000D01*
X102944285Y-98857142D01*
X104544285Y-99542857D02*
X104544285Y-98914285D01*
X104487142Y-98800000D01*
X104372857Y-98742857D01*
X104144285Y-98742857D01*
X104030000Y-98800000D01*
X104544285Y-99485714D02*
X104430000Y-99542857D01*
X104144285Y-99542857D01*
X104030000Y-99485714D01*
X103972857Y-99371428D01*
X103972857Y-99257142D01*
X104030000Y-99142857D01*
X104144285Y-99085714D01*
X104430000Y-99085714D01*
X104544285Y-99028571D01*
X105001428Y-98742857D02*
X105230000Y-99542857D01*
X105458571Y-98971428D01*
X105687142Y-99542857D01*
X105915714Y-98742857D01*
X106887142Y-99542857D02*
X106887142Y-98342857D01*
X106887142Y-99485714D02*
X106772857Y-99542857D01*
X106544285Y-99542857D01*
X106430000Y-99485714D01*
X106372857Y-99428571D01*
X106315714Y-99314285D01*
X106315714Y-98971428D01*
X106372857Y-98857142D01*
X106430000Y-98800000D01*
X106544285Y-98742857D01*
X106772857Y-98742857D01*
X106887142Y-98800000D01*
X107915714Y-99485714D02*
X107801428Y-99542857D01*
X107572857Y-99542857D01*
X107458571Y-99485714D01*
X107401428Y-99371428D01*
X107401428Y-98914285D01*
X107458571Y-98800000D01*
X107572857Y-98742857D01*
X107801428Y-98742857D01*
X107915714Y-98800000D01*
X107972857Y-98914285D01*
X107972857Y-99028571D01*
X107401428Y-99142857D01*
X108430000Y-99485714D02*
X108544285Y-99542857D01*
X108772857Y-99542857D01*
X108887142Y-99485714D01*
X108944285Y-99371428D01*
X108944285Y-99314285D01*
X108887142Y-99200000D01*
X108772857Y-99142857D01*
X108601428Y-99142857D01*
X108487142Y-99085714D01*
X108430000Y-98971428D01*
X108430000Y-98914285D01*
X108487142Y-98800000D01*
X108601428Y-98742857D01*
X108772857Y-98742857D01*
X108887142Y-98800000D01*
X109458571Y-99542857D02*
X109458571Y-98742857D01*
X109458571Y-98342857D02*
X109401428Y-98400000D01*
X109458571Y-98457142D01*
X109515714Y-98400000D01*
X109458571Y-98342857D01*
X109458571Y-98457142D01*
X110544285Y-98742857D02*
X110544285Y-99714285D01*
X110487142Y-99828571D01*
X110430000Y-99885714D01*
X110315714Y-99942857D01*
X110144285Y-99942857D01*
X110030000Y-99885714D01*
X110544285Y-99485714D02*
X110430000Y-99542857D01*
X110201428Y-99542857D01*
X110087142Y-99485714D01*
X110030000Y-99428571D01*
X109972857Y-99314285D01*
X109972857Y-98971428D01*
X110030000Y-98857142D01*
X110087142Y-98800000D01*
X110201428Y-98742857D01*
X110430000Y-98742857D01*
X110544285Y-98800000D01*
X111115714Y-98742857D02*
X111115714Y-99542857D01*
X111115714Y-98857142D02*
X111172857Y-98800000D01*
X111287142Y-98742857D01*
X111458571Y-98742857D01*
X111572857Y-98800000D01*
X111630000Y-98914285D01*
X111630000Y-99542857D01*
X112201428Y-99428571D02*
X112258571Y-99485714D01*
X112201428Y-99542857D01*
X112144285Y-99485714D01*
X112201428Y-99428571D01*
X112201428Y-99542857D01*
X113287142Y-99485714D02*
X113172857Y-99542857D01*
X112944285Y-99542857D01*
X112830000Y-99485714D01*
X112772857Y-99428571D01*
X112715714Y-99314285D01*
X112715714Y-98971428D01*
X112772857Y-98857142D01*
X112830000Y-98800000D01*
X112944285Y-98742857D01*
X113172857Y-98742857D01*
X113287142Y-98800000D01*
X113972857Y-99542857D02*
X113858571Y-99485714D01*
X113801428Y-99428571D01*
X113744285Y-99314285D01*
X113744285Y-98971428D01*
X113801428Y-98857142D01*
X113858571Y-98800000D01*
X113972857Y-98742857D01*
X114144285Y-98742857D01*
X114258571Y-98800000D01*
X114315714Y-98857142D01*
X114372857Y-98971428D01*
X114372857Y-99314285D01*
X114315714Y-99428571D01*
X114258571Y-99485714D01*
X114144285Y-99542857D01*
X113972857Y-99542857D01*
X114887142Y-99542857D02*
X114887142Y-98742857D01*
X114887142Y-98857142D02*
X114944285Y-98800000D01*
X115058571Y-98742857D01*
X115230000Y-98742857D01*
X115344285Y-98800000D01*
X115401428Y-98914285D01*
X115401428Y-99542857D01*
X115401428Y-98914285D02*
X115458571Y-98800000D01*
X115572857Y-98742857D01*
X115744285Y-98742857D01*
X115858571Y-98800000D01*
X115915714Y-98914285D01*
X115915714Y-99542857D01*
X94430000Y-100742857D02*
X94430000Y-101714285D01*
X94372857Y-101828571D01*
X94315714Y-101885714D01*
X94201428Y-101942857D01*
X94030000Y-101942857D01*
X93915714Y-101885714D01*
X94430000Y-101485714D02*
X94315714Y-101542857D01*
X94087142Y-101542857D01*
X93972857Y-101485714D01*
X93915714Y-101428571D01*
X93858571Y-101314285D01*
X93858571Y-100971428D01*
X93915714Y-100857142D01*
X93972857Y-100800000D01*
X94087142Y-100742857D01*
X94315714Y-100742857D01*
X94430000Y-100800000D01*
X95001428Y-101542857D02*
X95001428Y-100742857D01*
X95001428Y-100342857D02*
X94944285Y-100400000D01*
X95001428Y-100457142D01*
X95058571Y-100400000D01*
X95001428Y-100342857D01*
X95001428Y-100457142D01*
X95401428Y-100742857D02*
X95858571Y-100742857D01*
X95572857Y-100342857D02*
X95572857Y-101371428D01*
X95630000Y-101485714D01*
X95744285Y-101542857D01*
X95858571Y-101542857D01*
X96258571Y-101542857D02*
X96258571Y-100342857D01*
X96772857Y-101542857D02*
X96772857Y-100914285D01*
X96715714Y-100800000D01*
X96601428Y-100742857D01*
X96430000Y-100742857D01*
X96315714Y-100800000D01*
X96258571Y-100857142D01*
X97858571Y-100742857D02*
X97858571Y-101542857D01*
X97344285Y-100742857D02*
X97344285Y-101371428D01*
X97401428Y-101485714D01*
X97515714Y-101542857D01*
X97687142Y-101542857D01*
X97801428Y-101485714D01*
X97858571Y-101428571D01*
X98430000Y-101542857D02*
X98430000Y-100342857D01*
X98430000Y-100800000D02*
X98544285Y-100742857D01*
X98772857Y-100742857D01*
X98887142Y-100800000D01*
X98944285Y-100857142D01*
X99001428Y-100971428D01*
X99001428Y-101314285D01*
X98944285Y-101428571D01*
X98887142Y-101485714D01*
X98772857Y-101542857D01*
X98544285Y-101542857D01*
X98430000Y-101485714D01*
X99515714Y-101428571D02*
X99572857Y-101485714D01*
X99515714Y-101542857D01*
X99458571Y-101485714D01*
X99515714Y-101428571D01*
X99515714Y-101542857D01*
X100601428Y-101485714D02*
X100487142Y-101542857D01*
X100258571Y-101542857D01*
X100144285Y-101485714D01*
X100087142Y-101428571D01*
X100030000Y-101314285D01*
X100030000Y-100971428D01*
X100087142Y-100857142D01*
X100144285Y-100800000D01*
X100258571Y-100742857D01*
X100487142Y-100742857D01*
X100601428Y-100800000D01*
X101287142Y-101542857D02*
X101172857Y-101485714D01*
X101115714Y-101428571D01*
X101058571Y-101314285D01*
X101058571Y-100971428D01*
X101115714Y-100857142D01*
X101172857Y-100800000D01*
X101287142Y-100742857D01*
X101458571Y-100742857D01*
X101572857Y-100800000D01*
X101630000Y-100857142D01*
X101687142Y-100971428D01*
X101687142Y-101314285D01*
X101630000Y-101428571D01*
X101572857Y-101485714D01*
X101458571Y-101542857D01*
X101287142Y-101542857D01*
X102201428Y-101542857D02*
X102201428Y-100742857D01*
X102201428Y-100857142D02*
X102258571Y-100800000D01*
X102372857Y-100742857D01*
X102544285Y-100742857D01*
X102658571Y-100800000D01*
X102715714Y-100914285D01*
X102715714Y-101542857D01*
X102715714Y-100914285D02*
X102772857Y-100800000D01*
X102887142Y-100742857D01*
X103058571Y-100742857D01*
X103172857Y-100800000D01*
X103230000Y-100914285D01*
X103230000Y-101542857D01*
X104658571Y-100285714D02*
X103630000Y-101828571D01*
X105058571Y-101542857D02*
X105058571Y-100742857D01*
X105058571Y-100857142D02*
X105115714Y-100800000D01*
X105230000Y-100742857D01*
X105401428Y-100742857D01*
X105515714Y-100800000D01*
X105572857Y-100914285D01*
X105572857Y-101542857D01*
X105572857Y-100914285D02*
X105630000Y-100800000D01*
X105744285Y-100742857D01*
X105915714Y-100742857D01*
X106030000Y-100800000D01*
X106087142Y-100914285D01*
X106087142Y-101542857D01*
X107172857Y-101542857D02*
X107172857Y-100914285D01*
X107115714Y-100800000D01*
X107001428Y-100742857D01*
X106772857Y-100742857D01*
X106658571Y-100800000D01*
X107172857Y-101485714D02*
X107058571Y-101542857D01*
X106772857Y-101542857D01*
X106658571Y-101485714D01*
X106601428Y-101371428D01*
X106601428Y-101257142D01*
X106658571Y-101142857D01*
X106772857Y-101085714D01*
X107058571Y-101085714D01*
X107172857Y-101028571D01*
X107572857Y-100742857D02*
X108030000Y-100742857D01*
X107744285Y-100342857D02*
X107744285Y-101371428D01*
X107801428Y-101485714D01*
X107915714Y-101542857D01*
X108030000Y-101542857D01*
X108258571Y-100742857D02*
X108715714Y-100742857D01*
X108430000Y-100342857D02*
X108430000Y-101371428D01*
X108487142Y-101485714D01*
X108601428Y-101542857D01*
X108715714Y-101542857D01*
X109001428Y-100742857D02*
X109287142Y-101542857D01*
X109572857Y-100742857D02*
X109287142Y-101542857D01*
X109172857Y-101828571D01*
X109115714Y-101885714D01*
X109001428Y-101942857D01*
X110030000Y-101542857D02*
X110030000Y-100342857D01*
X110030000Y-100800000D02*
X110144285Y-100742857D01*
X110372857Y-100742857D01*
X110487142Y-100800000D01*
X110544285Y-100857142D01*
X110601428Y-100971428D01*
X110601428Y-101314285D01*
X110544285Y-101428571D01*
X110487142Y-101485714D01*
X110372857Y-101542857D01*
X110144285Y-101542857D01*
X110030000Y-101485714D01*
X111115714Y-101542857D02*
X111115714Y-100742857D01*
X111115714Y-100971428D02*
X111172857Y-100857142D01*
X111230000Y-100800000D01*
X111344285Y-100742857D01*
X111458571Y-100742857D01*
X112372857Y-101542857D02*
X112372857Y-100914285D01*
X112315714Y-100800000D01*
X112201428Y-100742857D01*
X111972857Y-100742857D01*
X111858571Y-100800000D01*
X112372857Y-101485714D02*
X112258571Y-101542857D01*
X111972857Y-101542857D01*
X111858571Y-101485714D01*
X111801428Y-101371428D01*
X111801428Y-101257142D01*
X111858571Y-101142857D01*
X111972857Y-101085714D01*
X112258571Y-101085714D01*
X112372857Y-101028571D01*
X113458571Y-101542857D02*
X113458571Y-100342857D01*
X113458571Y-101485714D02*
X113344285Y-101542857D01*
X113115714Y-101542857D01*
X113001428Y-101485714D01*
X112944285Y-101428571D01*
X112887142Y-101314285D01*
X112887142Y-100971428D01*
X112944285Y-100857142D01*
X113001428Y-100800000D01*
X113115714Y-100742857D01*
X113344285Y-100742857D01*
X113458571Y-100800000D01*
X114887142Y-100285714D02*
X113858571Y-101828571D01*
X115801428Y-101542857D02*
X115801428Y-100342857D01*
X115801428Y-101485714D02*
X115687142Y-101542857D01*
X115458571Y-101542857D01*
X115344285Y-101485714D01*
X115287142Y-101428571D01*
X115230000Y-101314285D01*
X115230000Y-100971428D01*
X115287142Y-100857142D01*
X115344285Y-100800000D01*
X115458571Y-100742857D01*
X115687142Y-100742857D01*
X115801428Y-100800000D01*
X116372857Y-101542857D02*
X116372857Y-100742857D01*
X116372857Y-100971428D02*
X116430000Y-100857142D01*
X116487142Y-100800000D01*
X116601428Y-100742857D01*
X116715714Y-100742857D01*
X117630000Y-100742857D02*
X117630000Y-101542857D01*
X117115714Y-100742857D02*
X117115714Y-101371428D01*
X117172857Y-101485714D01*
X117287142Y-101542857D01*
X117458571Y-101542857D01*
X117572857Y-101485714D01*
X117630000Y-101428571D01*
X118201428Y-101542857D02*
X118201428Y-100742857D01*
X118201428Y-100857142D02*
X118258571Y-100800000D01*
X118372857Y-100742857D01*
X118544285Y-100742857D01*
X118658571Y-100800000D01*
X118715714Y-100914285D01*
X118715714Y-101542857D01*
X118715714Y-100914285D02*
X118772857Y-100800000D01*
X118887142Y-100742857D01*
X119058571Y-100742857D01*
X119172857Y-100800000D01*
X119230000Y-100914285D01*
X119230000Y-101542857D01*
X119801428Y-101542857D02*
X119801428Y-100342857D01*
X119915714Y-101085714D02*
X120258571Y-101542857D01*
X120258571Y-100742857D02*
X119801428Y-101200000D01*
X120772857Y-101542857D02*
X120772857Y-100742857D01*
X120772857Y-100342857D02*
X120715714Y-100400000D01*
X120772857Y-100457142D01*
X120830000Y-100400000D01*
X120772857Y-100342857D01*
X120772857Y-100457142D01*
X121858571Y-101542857D02*
X121858571Y-100342857D01*
X121858571Y-101485714D02*
X121744285Y-101542857D01*
X121515714Y-101542857D01*
X121401428Y-101485714D01*
X121344285Y-101428571D01*
X121287142Y-101314285D01*
X121287142Y-100971428D01*
X121344285Y-100857142D01*
X121401428Y-100800000D01*
X121515714Y-100742857D01*
X121744285Y-100742857D01*
X121858571Y-100800000D01*
D12*
X73660000Y-154940000D02*
X68580000Y-154940000D01*
X73660000Y-152400000D02*
X68580000Y-152400000D01*
X73660000Y-144780000D02*
X68580000Y-144780000D01*
X73660000Y-147320000D02*
X68580000Y-147320000D01*
X73660000Y-149860000D02*
X63500000Y-149860000D01*
X129540000Y-121920000D02*
X134620000Y-121920000D01*
X129540000Y-119380000D02*
X134620000Y-119380000D01*
X129540000Y-116840000D02*
X139700000Y-116840000D01*
X129540000Y-114300000D02*
X134620000Y-114300000D01*
X129540000Y-111760000D02*
X134620000Y-111760000D01*
X130619047Y-48571428D02*
X131380952Y-48571428D01*
X131000000Y-48952380D02*
X131000000Y-48190476D01*
X120619047Y-48571428D02*
X121380952Y-48571428D01*
X121000000Y-48952380D02*
X121000000Y-48190476D01*
X110619047Y-48571428D02*
X111380952Y-48571428D01*
X111000000Y-48952380D02*
X111000000Y-48190476D01*
X90619047Y-48571428D02*
X91380952Y-48571428D01*
X91000000Y-48952380D02*
X91000000Y-48190476D01*
X80619047Y-48571428D02*
X81380952Y-48571428D01*
X81000000Y-48952380D02*
X81000000Y-48190476D01*
X70619047Y-48571428D02*
X71380952Y-48571428D01*
X71000000Y-48952380D02*
X71000000Y-48190476D01*
X95075952Y-55332380D02*
X95075952Y-56046666D01*
X95028333Y-56189523D01*
X94933095Y-56284761D01*
X94790238Y-56332380D01*
X94695000Y-56332380D01*
X96028333Y-56332380D02*
X95552142Y-56332380D01*
X95552142Y-55332380D01*
X96933095Y-56237142D02*
X96885476Y-56284761D01*
X96742619Y-56332380D01*
X96647380Y-56332380D01*
X96504523Y-56284761D01*
X96409285Y-56189523D01*
X96361666Y-56094285D01*
X96314047Y-55903809D01*
X96314047Y-55760952D01*
X96361666Y-55570476D01*
X96409285Y-55475238D01*
X96504523Y-55380000D01*
X96647380Y-55332380D01*
X96742619Y-55332380D01*
X96885476Y-55380000D01*
X96933095Y-55427619D01*
X97647380Y-55332380D02*
X97647380Y-56046666D01*
X97599761Y-56189523D01*
X97504523Y-56284761D01*
X97361666Y-56332380D01*
X97266428Y-56332380D01*
X98599761Y-56332380D02*
X98123571Y-56332380D01*
X98123571Y-55332380D01*
X99504523Y-56237142D02*
X99456904Y-56284761D01*
X99314047Y-56332380D01*
X99218809Y-56332380D01*
X99075952Y-56284761D01*
X98980714Y-56189523D01*
X98933095Y-56094285D01*
X98885476Y-55903809D01*
X98885476Y-55760952D01*
X98933095Y-55570476D01*
X98980714Y-55475238D01*
X99075952Y-55380000D01*
X99218809Y-55332380D01*
X99314047Y-55332380D01*
X99456904Y-55380000D01*
X99504523Y-55427619D01*
X100218809Y-55332380D02*
X100218809Y-56046666D01*
X100171190Y-56189523D01*
X100075952Y-56284761D01*
X99933095Y-56332380D01*
X99837857Y-56332380D01*
X101171190Y-56332380D02*
X100695000Y-56332380D01*
X100695000Y-55332380D01*
X102075952Y-56237142D02*
X102028333Y-56284761D01*
X101885476Y-56332380D01*
X101790238Y-56332380D01*
X101647380Y-56284761D01*
X101552142Y-56189523D01*
X101504523Y-56094285D01*
X101456904Y-55903809D01*
X101456904Y-55760952D01*
X101504523Y-55570476D01*
X101552142Y-55475238D01*
X101647380Y-55380000D01*
X101790238Y-55332380D01*
X101885476Y-55332380D01*
X102028333Y-55380000D01*
X102075952Y-55427619D01*
X102790238Y-55332380D02*
X102790238Y-56046666D01*
X102742619Y-56189523D01*
X102647380Y-56284761D01*
X102504523Y-56332380D01*
X102409285Y-56332380D01*
X103742619Y-56332380D02*
X103266428Y-56332380D01*
X103266428Y-55332380D01*
X104647380Y-56237142D02*
X104599761Y-56284761D01*
X104456904Y-56332380D01*
X104361666Y-56332380D01*
X104218809Y-56284761D01*
X104123571Y-56189523D01*
X104075952Y-56094285D01*
X104028333Y-55903809D01*
X104028333Y-55760952D01*
X104075952Y-55570476D01*
X104123571Y-55475238D01*
X104218809Y-55380000D01*
X104361666Y-55332380D01*
X104456904Y-55332380D01*
X104599761Y-55380000D01*
X104647380Y-55427619D01*
D11*
X113808095Y-121372380D02*
X113617619Y-121372380D01*
X113522380Y-121420000D01*
X113474761Y-121467619D01*
X113379523Y-121610476D01*
X113331904Y-121800952D01*
X113331904Y-122181904D01*
X113379523Y-122277142D01*
X113427142Y-122324761D01*
X113522380Y-122372380D01*
X113712857Y-122372380D01*
X113808095Y-122324761D01*
X113855714Y-122277142D01*
X113903333Y-122181904D01*
X113903333Y-121943809D01*
X113855714Y-121848571D01*
X113808095Y-121800952D01*
X113712857Y-121753333D01*
X113522380Y-121753333D01*
X113427142Y-121800952D01*
X113379523Y-121848571D01*
X113331904Y-121943809D01*
X114331904Y-122372380D02*
X114331904Y-121372380D01*
X114903333Y-122372380D01*
X114903333Y-121372380D01*
X115903333Y-122372380D02*
X115331904Y-122372380D01*
X115617619Y-122372380D02*
X115617619Y-121372380D01*
X115522380Y-121515238D01*
X115427142Y-121610476D01*
X115331904Y-121658095D01*
X116236666Y-121372380D02*
X116855714Y-121372380D01*
X116522380Y-121753333D01*
X116665238Y-121753333D01*
X116760476Y-121800952D01*
X116808095Y-121848571D01*
X116855714Y-121943809D01*
X116855714Y-122181904D01*
X116808095Y-122277142D01*
X116760476Y-122324761D01*
X116665238Y-122372380D01*
X116379523Y-122372380D01*
X116284285Y-122324761D01*
X116236666Y-122277142D01*
X117427142Y-121800952D02*
X117331904Y-121753333D01*
X117284285Y-121705714D01*
X117236666Y-121610476D01*
X117236666Y-121562857D01*
X117284285Y-121467619D01*
X117331904Y-121420000D01*
X117427142Y-121372380D01*
X117617619Y-121372380D01*
X117712857Y-121420000D01*
X117760476Y-121467619D01*
X117808095Y-121562857D01*
X117808095Y-121610476D01*
X117760476Y-121705714D01*
X117712857Y-121753333D01*
X117617619Y-121800952D01*
X117427142Y-121800952D01*
X117331904Y-121848571D01*
X117284285Y-121896190D01*
X117236666Y-121991428D01*
X117236666Y-122181904D01*
X117284285Y-122277142D01*
X117331904Y-122324761D01*
X117427142Y-122372380D01*
X117617619Y-122372380D01*
X117712857Y-122324761D01*
X117760476Y-122277142D01*
X117808095Y-122181904D01*
X117808095Y-121991428D01*
X117760476Y-121896190D01*
X117712857Y-121848571D01*
X117617619Y-121800952D01*
X115452380Y-130642857D02*
X115452380Y-131214285D01*
X115452380Y-130928571D02*
X114452380Y-130928571D01*
X114595238Y-131023809D01*
X114690476Y-131119047D01*
X114738095Y-131214285D01*
X115452380Y-130214285D02*
X114452380Y-130214285D01*
X115452380Y-129642857D01*
X114452380Y-129642857D01*
X114785714Y-128738095D02*
X115452380Y-128738095D01*
X114404761Y-128976190D02*
X115119047Y-129214285D01*
X115119047Y-128595238D01*
X115452380Y-127690476D02*
X115452380Y-128261904D01*
X115452380Y-127976190D02*
X114452380Y-127976190D01*
X114595238Y-128071428D01*
X114690476Y-128166666D01*
X114738095Y-128261904D01*
X114785714Y-126833333D02*
X115452380Y-126833333D01*
X114404761Y-127071428D02*
X115119047Y-127309523D01*
X115119047Y-126690476D01*
X114880952Y-126166666D02*
X114833333Y-126261904D01*
X114785714Y-126309523D01*
X114690476Y-126357142D01*
X114642857Y-126357142D01*
X114547619Y-126309523D01*
X114500000Y-126261904D01*
X114452380Y-126166666D01*
X114452380Y-125976190D01*
X114500000Y-125880952D01*
X114547619Y-125833333D01*
X114642857Y-125785714D01*
X114690476Y-125785714D01*
X114785714Y-125833333D01*
X114833333Y-125880952D01*
X114880952Y-125976190D01*
X114880952Y-126166666D01*
X114928571Y-126261904D01*
X114976190Y-126309523D01*
X115071428Y-126357142D01*
X115261904Y-126357142D01*
X115357142Y-126309523D01*
X115404761Y-126261904D01*
X115452380Y-126166666D01*
X115452380Y-125976190D01*
X115404761Y-125880952D01*
X115357142Y-125833333D01*
X115261904Y-125785714D01*
X115071428Y-125785714D01*
X114976190Y-125833333D01*
X114928571Y-125880952D01*
X114880952Y-125976190D01*
X112212380Y-131642857D02*
X112212380Y-132214285D01*
X112212380Y-131928571D02*
X111212380Y-131928571D01*
X111355238Y-132023809D01*
X111450476Y-132119047D01*
X111498095Y-132214285D01*
X112212380Y-131214285D02*
X111212380Y-131214285D01*
X112212380Y-130642857D01*
X111212380Y-130642857D01*
X111212380Y-129690476D02*
X111212380Y-130166666D01*
X111688571Y-130214285D01*
X111640952Y-130166666D01*
X111593333Y-130071428D01*
X111593333Y-129833333D01*
X111640952Y-129738095D01*
X111688571Y-129690476D01*
X111783809Y-129642857D01*
X112021904Y-129642857D01*
X112117142Y-129690476D01*
X112164761Y-129738095D01*
X112212380Y-129833333D01*
X112212380Y-130071428D01*
X112164761Y-130166666D01*
X112117142Y-130214285D01*
X111640952Y-129071428D02*
X111593333Y-129166666D01*
X111545714Y-129214285D01*
X111450476Y-129261904D01*
X111402857Y-129261904D01*
X111307619Y-129214285D01*
X111260000Y-129166666D01*
X111212380Y-129071428D01*
X111212380Y-128880952D01*
X111260000Y-128785714D01*
X111307619Y-128738095D01*
X111402857Y-128690476D01*
X111450476Y-128690476D01*
X111545714Y-128738095D01*
X111593333Y-128785714D01*
X111640952Y-128880952D01*
X111640952Y-129071428D01*
X111688571Y-129166666D01*
X111736190Y-129214285D01*
X111831428Y-129261904D01*
X112021904Y-129261904D01*
X112117142Y-129214285D01*
X112164761Y-129166666D01*
X112212380Y-129071428D01*
X112212380Y-128880952D01*
X112164761Y-128785714D01*
X112117142Y-128738095D01*
X112021904Y-128690476D01*
X111831428Y-128690476D01*
X111736190Y-128738095D01*
X111688571Y-128785714D01*
X111640952Y-128880952D01*
X112212380Y-127738095D02*
X112212380Y-128309523D01*
X112212380Y-128023809D02*
X111212380Y-128023809D01*
X111355238Y-128119047D01*
X111450476Y-128214285D01*
X111498095Y-128309523D01*
X111212380Y-127404761D02*
X111212380Y-126738095D01*
X112212380Y-127166666D01*
D13*
X136885000Y-127542857D02*
X136885000Y-126914285D01*
X136827857Y-126800000D01*
X136713571Y-126742857D01*
X136485000Y-126742857D01*
X136370714Y-126800000D01*
X136885000Y-127485714D02*
X136770714Y-127542857D01*
X136485000Y-127542857D01*
X136370714Y-127485714D01*
X136313571Y-127371428D01*
X136313571Y-127257142D01*
X136370714Y-127142857D01*
X136485000Y-127085714D01*
X136770714Y-127085714D01*
X136885000Y-127028571D01*
X137456428Y-127542857D02*
X137456428Y-126742857D01*
X137456428Y-126971428D02*
X137513571Y-126857142D01*
X137570714Y-126800000D01*
X137685000Y-126742857D01*
X137799285Y-126742857D01*
X138713571Y-127542857D02*
X138713571Y-126342857D01*
X138713571Y-127485714D02*
X138599285Y-127542857D01*
X138370714Y-127542857D01*
X138256428Y-127485714D01*
X138199285Y-127428571D01*
X138142142Y-127314285D01*
X138142142Y-126971428D01*
X138199285Y-126857142D01*
X138256428Y-126800000D01*
X138370714Y-126742857D01*
X138599285Y-126742857D01*
X138713571Y-126800000D01*
X139799285Y-126742857D02*
X139799285Y-127542857D01*
X139285000Y-126742857D02*
X139285000Y-127371428D01*
X139342142Y-127485714D01*
X139456428Y-127542857D01*
X139627857Y-127542857D01*
X139742142Y-127485714D01*
X139799285Y-127428571D01*
X140370714Y-127542857D02*
X140370714Y-126742857D01*
X140370714Y-126342857D02*
X140313571Y-126400000D01*
X140370714Y-126457142D01*
X140427857Y-126400000D01*
X140370714Y-126342857D01*
X140370714Y-126457142D01*
X140942142Y-126742857D02*
X140942142Y-127542857D01*
X140942142Y-126857142D02*
X140999285Y-126800000D01*
X141113571Y-126742857D01*
X141285000Y-126742857D01*
X141399285Y-126800000D01*
X141456428Y-126914285D01*
X141456428Y-127542857D01*
X142199285Y-127542857D02*
X142085000Y-127485714D01*
X142027857Y-127428571D01*
X141970714Y-127314285D01*
X141970714Y-126971428D01*
X142027857Y-126857142D01*
X142085000Y-126800000D01*
X142199285Y-126742857D01*
X142370714Y-126742857D01*
X142485000Y-126800000D01*
X142542142Y-126857142D01*
X142599285Y-126971428D01*
X142599285Y-127314285D01*
X142542142Y-127428571D01*
X142485000Y-127485714D01*
X142370714Y-127542857D01*
X142199285Y-127542857D01*
X136370714Y-138972857D02*
X136370714Y-138172857D01*
X136370714Y-138287142D02*
X136427857Y-138230000D01*
X136542142Y-138172857D01*
X136713571Y-138172857D01*
X136827857Y-138230000D01*
X136885000Y-138344285D01*
X136885000Y-138972857D01*
X136885000Y-138344285D02*
X136942142Y-138230000D01*
X137056428Y-138172857D01*
X137227857Y-138172857D01*
X137342142Y-138230000D01*
X137399285Y-138344285D01*
X137399285Y-138972857D01*
X137970714Y-138972857D02*
X137970714Y-138172857D01*
X137970714Y-137772857D02*
X137913571Y-137830000D01*
X137970714Y-137887142D01*
X138027857Y-137830000D01*
X137970714Y-137772857D01*
X137970714Y-137887142D01*
X139056428Y-138972857D02*
X139056428Y-137772857D01*
X139056428Y-138915714D02*
X138942142Y-138972857D01*
X138713571Y-138972857D01*
X138599285Y-138915714D01*
X138542142Y-138858571D01*
X138485000Y-138744285D01*
X138485000Y-138401428D01*
X138542142Y-138287142D01*
X138599285Y-138230000D01*
X138713571Y-138172857D01*
X138942142Y-138172857D01*
X139056428Y-138230000D01*
X139627857Y-138972857D02*
X139627857Y-138172857D01*
X139627857Y-137772857D02*
X139570714Y-137830000D01*
X139627857Y-137887142D01*
X139685000Y-137830000D01*
X139627857Y-137772857D01*
X139627857Y-137887142D01*
X63285714Y-127903571D02*
X63285714Y-129117857D01*
X63357142Y-129260714D01*
X63428571Y-129332142D01*
X63571428Y-129403571D01*
X63857142Y-129403571D01*
X64000000Y-129332142D01*
X64071428Y-129260714D01*
X64142857Y-129117857D01*
X64142857Y-127903571D01*
X64785714Y-129332142D02*
X65000000Y-129403571D01*
X65357142Y-129403571D01*
X65500000Y-129332142D01*
X65571428Y-129260714D01*
X65642857Y-129117857D01*
X65642857Y-128975000D01*
X65571428Y-128832142D01*
X65500000Y-128760714D01*
X65357142Y-128689285D01*
X65071428Y-128617857D01*
X64928571Y-128546428D01*
X64857142Y-128475000D01*
X64785714Y-128332142D01*
X64785714Y-128189285D01*
X64857142Y-128046428D01*
X64928571Y-127975000D01*
X65071428Y-127903571D01*
X65428571Y-127903571D01*
X65642857Y-127975000D01*
X66785714Y-128617857D02*
X67000000Y-128689285D01*
X67071428Y-128760714D01*
X67142857Y-128903571D01*
X67142857Y-129117857D01*
X67071428Y-129260714D01*
X67000000Y-129332142D01*
X66857142Y-129403571D01*
X66285714Y-129403571D01*
X66285714Y-127903571D01*
X66785714Y-127903571D01*
X66928571Y-127975000D01*
X67000000Y-128046428D01*
X67071428Y-128189285D01*
X67071428Y-128332142D01*
X67000000Y-128475000D01*
X66928571Y-128546428D01*
X66785714Y-128617857D01*
X66285714Y-128617857D01*
X68928571Y-128403571D02*
X68928571Y-129903571D01*
X68928571Y-128475000D02*
X69071428Y-128403571D01*
X69357142Y-128403571D01*
X69500000Y-128475000D01*
X69571428Y-128546428D01*
X69642857Y-128689285D01*
X69642857Y-129117857D01*
X69571428Y-129260714D01*
X69500000Y-129332142D01*
X69357142Y-129403571D01*
X69071428Y-129403571D01*
X68928571Y-129332142D01*
X70500000Y-129403571D02*
X70357142Y-129332142D01*
X70285714Y-129260714D01*
X70214285Y-129117857D01*
X70214285Y-128689285D01*
X70285714Y-128546428D01*
X70357142Y-128475000D01*
X70500000Y-128403571D01*
X70714285Y-128403571D01*
X70857142Y-128475000D01*
X70928571Y-128546428D01*
X71000000Y-128689285D01*
X71000000Y-129117857D01*
X70928571Y-129260714D01*
X70857142Y-129332142D01*
X70714285Y-129403571D01*
X70500000Y-129403571D01*
X71642857Y-129403571D02*
X71642857Y-128403571D01*
X71642857Y-128689285D02*
X71714285Y-128546428D01*
X71785714Y-128475000D01*
X71928571Y-128403571D01*
X72071428Y-128403571D01*
X72357142Y-128403571D02*
X72928571Y-128403571D01*
X72571428Y-127903571D02*
X72571428Y-129189285D01*
X72642857Y-129332142D01*
X72785714Y-129403571D01*
X72928571Y-129403571D01*
X63500000Y-130953571D02*
X64071428Y-130953571D01*
X63714285Y-130453571D02*
X63714285Y-131739285D01*
X63785714Y-131882142D01*
X63928571Y-131953571D01*
X64071428Y-131953571D01*
X64571428Y-131953571D02*
X64571428Y-130453571D01*
X65214285Y-131953571D02*
X65214285Y-131167857D01*
X65142857Y-131025000D01*
X65000000Y-130953571D01*
X64785714Y-130953571D01*
X64642857Y-131025000D01*
X64571428Y-131096428D01*
X65928571Y-131953571D02*
X65928571Y-130953571D01*
X65928571Y-130453571D02*
X65857142Y-130525000D01*
X65928571Y-130596428D01*
X66000000Y-130525000D01*
X65928571Y-130453571D01*
X65928571Y-130596428D01*
X66571428Y-131882142D02*
X66714285Y-131953571D01*
X67000000Y-131953571D01*
X67142857Y-131882142D01*
X67214285Y-131739285D01*
X67214285Y-131667857D01*
X67142857Y-131525000D01*
X67000000Y-131453571D01*
X66785714Y-131453571D01*
X66642857Y-131382142D01*
X66571428Y-131239285D01*
X66571428Y-131167857D01*
X66642857Y-131025000D01*
X66785714Y-130953571D01*
X67000000Y-130953571D01*
X67142857Y-131025000D01*
X69571428Y-131882142D02*
X69428571Y-131953571D01*
X69142857Y-131953571D01*
X69000000Y-131882142D01*
X68928571Y-131739285D01*
X68928571Y-131167857D01*
X69000000Y-131025000D01*
X69142857Y-130953571D01*
X69428571Y-130953571D01*
X69571428Y-131025000D01*
X69642857Y-131167857D01*
X69642857Y-131310714D01*
X68928571Y-131453571D01*
X70285714Y-130953571D02*
X70285714Y-131953571D01*
X70285714Y-131096428D02*
X70357142Y-131025000D01*
X70500000Y-130953571D01*
X70714285Y-130953571D01*
X70857142Y-131025000D01*
X70928571Y-131167857D01*
X70928571Y-131953571D01*
X72285714Y-131953571D02*
X72285714Y-130453571D01*
X72285714Y-131882142D02*
X72142857Y-131953571D01*
X71857142Y-131953571D01*
X71714285Y-131882142D01*
X71642857Y-131810714D01*
X71571428Y-131667857D01*
X71571428Y-131239285D01*
X71642857Y-131096428D01*
X71714285Y-131025000D01*
X71857142Y-130953571D01*
X72142857Y-130953571D01*
X72285714Y-131025000D01*
X80328571Y-129790000D02*
X81042857Y-129790000D01*
X80185714Y-130218571D02*
X80685714Y-128718571D01*
X81185714Y-130218571D01*
X81685714Y-130218571D02*
X81685714Y-129218571D01*
X81685714Y-129504285D02*
X81757142Y-129361428D01*
X81828571Y-129290000D01*
X81971428Y-129218571D01*
X82114285Y-129218571D01*
X83257142Y-130218571D02*
X83257142Y-128718571D01*
X83257142Y-130147142D02*
X83114285Y-130218571D01*
X82828571Y-130218571D01*
X82685714Y-130147142D01*
X82614285Y-130075714D01*
X82542857Y-129932857D01*
X82542857Y-129504285D01*
X82614285Y-129361428D01*
X82685714Y-129290000D01*
X82828571Y-129218571D01*
X83114285Y-129218571D01*
X83257142Y-129290000D01*
X84614285Y-129218571D02*
X84614285Y-130218571D01*
X83971428Y-129218571D02*
X83971428Y-130004285D01*
X84042857Y-130147142D01*
X84185714Y-130218571D01*
X84399999Y-130218571D01*
X84542857Y-130147142D01*
X84614285Y-130075714D01*
X85328571Y-130218571D02*
X85328571Y-129218571D01*
X85328571Y-128718571D02*
X85257142Y-128790000D01*
X85328571Y-128861428D01*
X85399999Y-128790000D01*
X85328571Y-128718571D01*
X85328571Y-128861428D01*
X86042857Y-129218571D02*
X86042857Y-130218571D01*
X86042857Y-129361428D02*
X86114285Y-129290000D01*
X86257142Y-129218571D01*
X86471428Y-129218571D01*
X86614285Y-129290000D01*
X86685714Y-129432857D01*
X86685714Y-130218571D01*
X87614285Y-130218571D02*
X87471428Y-130147142D01*
X87400000Y-130075714D01*
X87328571Y-129932857D01*
X87328571Y-129504285D01*
X87400000Y-129361428D01*
X87471428Y-129290000D01*
X87614285Y-129218571D01*
X87828571Y-129218571D01*
X87971428Y-129290000D01*
X88042857Y-129361428D01*
X88114285Y-129504285D01*
X88114285Y-129932857D01*
X88042857Y-130075714D01*
X87971428Y-130147142D01*
X87828571Y-130218571D01*
X87614285Y-130218571D01*
X89899999Y-130218571D02*
X89899999Y-128718571D01*
X90757142Y-130218571D01*
X90757142Y-128718571D01*
X92114285Y-130218571D02*
X92114285Y-129432857D01*
X92042857Y-129290000D01*
X91899999Y-129218571D01*
X91614285Y-129218571D01*
X91471428Y-129290000D01*
X92114285Y-130147142D02*
X91971428Y-130218571D01*
X91614285Y-130218571D01*
X91471428Y-130147142D01*
X91399999Y-130004285D01*
X91399999Y-129861428D01*
X91471428Y-129718571D01*
X91614285Y-129647142D01*
X91971428Y-129647142D01*
X92114285Y-129575714D01*
X92828571Y-129218571D02*
X92828571Y-130218571D01*
X92828571Y-129361428D02*
X92899999Y-129290000D01*
X93042857Y-129218571D01*
X93257142Y-129218571D01*
X93399999Y-129290000D01*
X93471428Y-129432857D01*
X93471428Y-130218571D01*
X94399999Y-130218571D02*
X94257142Y-130147142D01*
X94185714Y-130075714D01*
X94114285Y-129932857D01*
X94114285Y-129504285D01*
X94185714Y-129361428D01*
X94257142Y-129290000D01*
X94399999Y-129218571D01*
X94614285Y-129218571D01*
X94757142Y-129290000D01*
X94828571Y-129361428D01*
X94899999Y-129504285D01*
X94899999Y-129932857D01*
X94828571Y-130075714D01*
X94757142Y-130147142D01*
X94614285Y-130218571D01*
X94399999Y-130218571D01*
X96542857Y-128718571D02*
X97471428Y-128718571D01*
X96971428Y-129290000D01*
X97185714Y-129290000D01*
X97328571Y-129361428D01*
X97399999Y-129432857D01*
X97471428Y-129575714D01*
X97471428Y-129932857D01*
X97399999Y-130075714D01*
X97328571Y-130147142D01*
X97185714Y-130218571D01*
X96757142Y-130218571D01*
X96614285Y-130147142D01*
X96542857Y-130075714D01*
X70445714Y-103107142D02*
X71588571Y-103107142D01*
X71017142Y-103678571D02*
X71017142Y-102535714D01*
X75731428Y-103107142D02*
X76874285Y-103107142D01*
D11*
X63898571Y-97485714D02*
X64070000Y-97542857D01*
X64355714Y-97542857D01*
X64470000Y-97485714D01*
X64527142Y-97428571D01*
X64584285Y-97314285D01*
X64584285Y-97200000D01*
X64527142Y-97085714D01*
X64470000Y-97028571D01*
X64355714Y-96971428D01*
X64127142Y-96914285D01*
X64012857Y-96857142D01*
X63955714Y-96800000D01*
X63898571Y-96685714D01*
X63898571Y-96571428D01*
X63955714Y-96457142D01*
X64012857Y-96400000D01*
X64127142Y-96342857D01*
X64412857Y-96342857D01*
X64584285Y-96400000D01*
X65555714Y-97485714D02*
X65441428Y-97542857D01*
X65212857Y-97542857D01*
X65098571Y-97485714D01*
X65041428Y-97371428D01*
X65041428Y-96914285D01*
X65098571Y-96800000D01*
X65212857Y-96742857D01*
X65441428Y-96742857D01*
X65555714Y-96800000D01*
X65612857Y-96914285D01*
X65612857Y-97028571D01*
X65041428Y-97142857D01*
X66127142Y-97542857D02*
X66127142Y-96742857D01*
X66127142Y-96971428D02*
X66184285Y-96857142D01*
X66241428Y-96800000D01*
X66355714Y-96742857D01*
X66470000Y-96742857D01*
X66870000Y-97542857D02*
X66870000Y-96742857D01*
X66870000Y-96342857D02*
X66812857Y-96400000D01*
X66870000Y-96457142D01*
X66927142Y-96400000D01*
X66870000Y-96342857D01*
X66870000Y-96457142D01*
X67955714Y-97542857D02*
X67955714Y-96914285D01*
X67898571Y-96800000D01*
X67784285Y-96742857D01*
X67555714Y-96742857D01*
X67441428Y-96800000D01*
X67955714Y-97485714D02*
X67841428Y-97542857D01*
X67555714Y-97542857D01*
X67441428Y-97485714D01*
X67384285Y-97371428D01*
X67384285Y-97257142D01*
X67441428Y-97142857D01*
X67555714Y-97085714D01*
X67841428Y-97085714D01*
X67955714Y-97028571D01*
X68698571Y-97542857D02*
X68584285Y-97485714D01*
X68527142Y-97371428D01*
X68527142Y-96342857D01*
X62527142Y-98742857D02*
X62527142Y-99542857D01*
X62527142Y-98857142D02*
X62584285Y-98800000D01*
X62698571Y-98742857D01*
X62870000Y-98742857D01*
X62984285Y-98800000D01*
X63041428Y-98914285D01*
X63041428Y-99542857D01*
X64127142Y-98742857D02*
X64127142Y-99542857D01*
X63612857Y-98742857D02*
X63612857Y-99371428D01*
X63670000Y-99485714D01*
X63784285Y-99542857D01*
X63955714Y-99542857D01*
X64070000Y-99485714D01*
X64127142Y-99428571D01*
X64698571Y-99542857D02*
X64698571Y-98742857D01*
X64698571Y-98857142D02*
X64755714Y-98800000D01*
X64870000Y-98742857D01*
X65041428Y-98742857D01*
X65155714Y-98800000D01*
X65212857Y-98914285D01*
X65212857Y-99542857D01*
X65212857Y-98914285D02*
X65270000Y-98800000D01*
X65384285Y-98742857D01*
X65555714Y-98742857D01*
X65670000Y-98800000D01*
X65727142Y-98914285D01*
X65727142Y-99542857D01*
X66298571Y-99542857D02*
X66298571Y-98342857D01*
X66298571Y-98800000D02*
X66412857Y-98742857D01*
X66641428Y-98742857D01*
X66755714Y-98800000D01*
X66812857Y-98857142D01*
X66870000Y-98971428D01*
X66870000Y-99314285D01*
X66812857Y-99428571D01*
X66755714Y-99485714D01*
X66641428Y-99542857D01*
X66412857Y-99542857D01*
X66298571Y-99485714D01*
X67841428Y-99485714D02*
X67727142Y-99542857D01*
X67498571Y-99542857D01*
X67384285Y-99485714D01*
X67327142Y-99371428D01*
X67327142Y-98914285D01*
X67384285Y-98800000D01*
X67498571Y-98742857D01*
X67727142Y-98742857D01*
X67841428Y-98800000D01*
X67898571Y-98914285D01*
X67898571Y-99028571D01*
X67327142Y-99142857D01*
X68412857Y-99542857D02*
X68412857Y-98742857D01*
X68412857Y-98971428D02*
X68470000Y-98857142D01*
X68527142Y-98800000D01*
X68641428Y-98742857D01*
X68755714Y-98742857D01*
D12*
G36*
X90000000Y-101000000D02*
G01*
X70000000Y-101000000D01*
X70000000Y-96000000D01*
X90000000Y-96000000D01*
X90000000Y-101000000D01*
G37*
X90000000Y-101000000D02*
X70000000Y-101000000D01*
X70000000Y-96000000D01*
X90000000Y-96000000D01*
X90000000Y-101000000D01*
D11*
X132500000Y-50000000D02*
G75*
G03X132500000Y-50000000I-2500000J0D01*
G01*
X122500000Y-50000000D02*
G75*
G03X122500000Y-50000000I-2500000J0D01*
G01*
X112500000Y-50000000D02*
G75*
G03X112500000Y-50000000I-2500000J0D01*
G01*
X72500000Y-50000000D02*
G75*
G03X72500000Y-50000000I-2500000J0D01*
G01*
X82500000Y-50000000D02*
G75*
G03X82500000Y-50000000I-2500000J0D01*
G01*
X92500000Y-50000000D02*
G75*
G03X92500000Y-50000000I-2500000J0D01*
G01*
X102500000Y-50000000D02*
G75*
G03X102500000Y-50000000I-2500000J0D01*
G01*
X102500000Y-80000000D02*
G75*
G03X102500000Y-80000000I-2500000J0D01*
G01*
D14*
X64710000Y-125790000D02*
X64710000Y-124460000D01*
X66040000Y-125790000D02*
X64710000Y-125790000D01*
X67310000Y-125790000D02*
X67310000Y-123130000D01*
X67310000Y-123130000D02*
X102930000Y-123130000D01*
X67310000Y-125790000D02*
X102930000Y-125790000D01*
X102930000Y-125790000D02*
X102930000Y-123130000D01*
X64710000Y-135950000D02*
X64710000Y-134620000D01*
X66040000Y-135950000D02*
X64710000Y-135950000D01*
X67310000Y-135950000D02*
X67310000Y-133290000D01*
X67310000Y-133290000D02*
X102930000Y-133290000D01*
X67310000Y-135950000D02*
X102930000Y-135950000D01*
X102930000Y-135950000D02*
X102930000Y-133290000D01*
X107890000Y-108010000D02*
X107890000Y-106680000D01*
X109220000Y-108010000D02*
X107890000Y-108010000D01*
X110490000Y-108010000D02*
X110490000Y-105350000D01*
X110490000Y-105350000D02*
X133410000Y-105350000D01*
X110490000Y-108010000D02*
X133410000Y-108010000D01*
X133410000Y-108010000D02*
X133410000Y-105350000D01*
X107890000Y-146110000D02*
X107890000Y-144780000D01*
X109220000Y-146110000D02*
X107890000Y-146110000D01*
X110490000Y-146110000D02*
X110490000Y-143450000D01*
X110490000Y-143450000D02*
X133410000Y-143450000D01*
X110490000Y-146110000D02*
X133410000Y-146110000D01*
X133410000Y-146110000D02*
X133410000Y-143450000D01*
X73660000Y-143450000D02*
X74990000Y-143450000D01*
X74990000Y-143450000D02*
X74990000Y-144780000D01*
X74990000Y-146050000D02*
X74990000Y-156270000D01*
X72330000Y-156270000D02*
X74990000Y-156270000D01*
X72330000Y-146050000D02*
X72330000Y-156270000D01*
X72330000Y-146050000D02*
X74990000Y-146050000D01*
X129540000Y-123250000D02*
X128210000Y-123250000D01*
X128210000Y-123250000D02*
X128210000Y-121920000D01*
X128210000Y-120650000D02*
X128210000Y-110430000D01*
X130870000Y-110430000D02*
X128210000Y-110430000D01*
X130870000Y-120650000D02*
X130870000Y-110430000D01*
X130870000Y-120650000D02*
X128210000Y-120650000D01*
X124460000Y-130580000D02*
X124460000Y-131350000D01*
X124460000Y-138660000D02*
X124460000Y-137890000D01*
X123090000Y-131350000D02*
X123090000Y-137890000D01*
X125830000Y-131350000D02*
X123090000Y-131350000D01*
X125830000Y-137890000D02*
X125830000Y-131350000D01*
X123090000Y-137890000D02*
X125830000Y-137890000D01*
X121920000Y-130580000D02*
X121920000Y-131350000D01*
X121920000Y-138660000D02*
X121920000Y-137890000D01*
X120550000Y-131350000D02*
X120550000Y-137890000D01*
X123290000Y-131350000D02*
X120550000Y-131350000D01*
X123290000Y-137890000D02*
X123290000Y-131350000D01*
X120550000Y-137890000D02*
X123290000Y-137890000D01*
X117550000Y-137160000D02*
G75*
G03X117550000Y-137160000I-3270000J0D01*
G01*
X114280000Y-133930000D02*
X114280000Y-140390000D01*
X114320000Y-133930000D02*
X114320000Y-140390000D01*
X114360000Y-133930000D02*
X114360000Y-140390000D01*
X114400000Y-133932000D02*
X114400000Y-140388000D01*
X114440000Y-133933000D02*
X114440000Y-140387000D01*
X114480000Y-133936000D02*
X114480000Y-140384000D01*
X114520000Y-133938000D02*
X114520000Y-136120000D01*
X114520000Y-138200000D02*
X114520000Y-140382000D01*
X114560000Y-133942000D02*
X114560000Y-136120000D01*
X114560000Y-138200000D02*
X114560000Y-140378000D01*
X114600000Y-133945000D02*
X114600000Y-136120000D01*
X114600000Y-138200000D02*
X114600000Y-140375000D01*
X114640000Y-133949000D02*
X114640000Y-136120000D01*
X114640000Y-138200000D02*
X114640000Y-140371000D01*
X114680000Y-133954000D02*
X114680000Y-136120000D01*
X114680000Y-138200000D02*
X114680000Y-140366000D01*
X114720000Y-133959000D02*
X114720000Y-136120000D01*
X114720000Y-138200000D02*
X114720000Y-140361000D01*
X114760000Y-133965000D02*
X114760000Y-136120000D01*
X114760000Y-138200000D02*
X114760000Y-140355000D01*
X114800000Y-133971000D02*
X114800000Y-136120000D01*
X114800000Y-138200000D02*
X114800000Y-140349000D01*
X114840000Y-133978000D02*
X114840000Y-136120000D01*
X114840000Y-138200000D02*
X114840000Y-140342000D01*
X114880000Y-133985000D02*
X114880000Y-136120000D01*
X114880000Y-138200000D02*
X114880000Y-140335000D01*
X114920000Y-133993000D02*
X114920000Y-136120000D01*
X114920000Y-138200000D02*
X114920000Y-140327000D01*
X114960000Y-134001000D02*
X114960000Y-136120000D01*
X114960000Y-138200000D02*
X114960000Y-140319000D01*
X115001000Y-134010000D02*
X115001000Y-136120000D01*
X115001000Y-138200000D02*
X115001000Y-140310000D01*
X115041000Y-134019000D02*
X115041000Y-136120000D01*
X115041000Y-138200000D02*
X115041000Y-140301000D01*
X115081000Y-134029000D02*
X115081000Y-136120000D01*
X115081000Y-138200000D02*
X115081000Y-140291000D01*
X115121000Y-134039000D02*
X115121000Y-136120000D01*
X115121000Y-138200000D02*
X115121000Y-140281000D01*
X115161000Y-134050000D02*
X115161000Y-136120000D01*
X115161000Y-138200000D02*
X115161000Y-140270000D01*
X115201000Y-134062000D02*
X115201000Y-136120000D01*
X115201000Y-138200000D02*
X115201000Y-140258000D01*
X115241000Y-134074000D02*
X115241000Y-136120000D01*
X115241000Y-138200000D02*
X115241000Y-140246000D01*
X115281000Y-134086000D02*
X115281000Y-136120000D01*
X115281000Y-138200000D02*
X115281000Y-140234000D01*
X115321000Y-134099000D02*
X115321000Y-136120000D01*
X115321000Y-138200000D02*
X115321000Y-140221000D01*
X115361000Y-134113000D02*
X115361000Y-136120000D01*
X115361000Y-138200000D02*
X115361000Y-140207000D01*
X115401000Y-134127000D02*
X115401000Y-136120000D01*
X115401000Y-138200000D02*
X115401000Y-140193000D01*
X115441000Y-134142000D02*
X115441000Y-136120000D01*
X115441000Y-138200000D02*
X115441000Y-140178000D01*
X115481000Y-134158000D02*
X115481000Y-136120000D01*
X115481000Y-138200000D02*
X115481000Y-140162000D01*
X115521000Y-134174000D02*
X115521000Y-136120000D01*
X115521000Y-138200000D02*
X115521000Y-140146000D01*
X115561000Y-134190000D02*
X115561000Y-136120000D01*
X115561000Y-138200000D02*
X115561000Y-140130000D01*
X115601000Y-134208000D02*
X115601000Y-136120000D01*
X115601000Y-138200000D02*
X115601000Y-140112000D01*
X115641000Y-134226000D02*
X115641000Y-136120000D01*
X115641000Y-138200000D02*
X115641000Y-140094000D01*
X115681000Y-134244000D02*
X115681000Y-136120000D01*
X115681000Y-138200000D02*
X115681000Y-140076000D01*
X115721000Y-134264000D02*
X115721000Y-136120000D01*
X115721000Y-138200000D02*
X115721000Y-140056000D01*
X115761000Y-134284000D02*
X115761000Y-136120000D01*
X115761000Y-138200000D02*
X115761000Y-140036000D01*
X115801000Y-134304000D02*
X115801000Y-136120000D01*
X115801000Y-138200000D02*
X115801000Y-140016000D01*
X115841000Y-134326000D02*
X115841000Y-136120000D01*
X115841000Y-138200000D02*
X115841000Y-139994000D01*
X115881000Y-134348000D02*
X115881000Y-136120000D01*
X115881000Y-138200000D02*
X115881000Y-139972000D01*
X115921000Y-134370000D02*
X115921000Y-136120000D01*
X115921000Y-138200000D02*
X115921000Y-139950000D01*
X115961000Y-134394000D02*
X115961000Y-136120000D01*
X115961000Y-138200000D02*
X115961000Y-139926000D01*
X116001000Y-134418000D02*
X116001000Y-136120000D01*
X116001000Y-138200000D02*
X116001000Y-139902000D01*
X116041000Y-134444000D02*
X116041000Y-136120000D01*
X116041000Y-138200000D02*
X116041000Y-139876000D01*
X116081000Y-134470000D02*
X116081000Y-136120000D01*
X116081000Y-138200000D02*
X116081000Y-139850000D01*
X116121000Y-134496000D02*
X116121000Y-136120000D01*
X116121000Y-138200000D02*
X116121000Y-139824000D01*
X116161000Y-134524000D02*
X116161000Y-136120000D01*
X116161000Y-138200000D02*
X116161000Y-139796000D01*
X116201000Y-134553000D02*
X116201000Y-136120000D01*
X116201000Y-138200000D02*
X116201000Y-139767000D01*
X116241000Y-134582000D02*
X116241000Y-136120000D01*
X116241000Y-138200000D02*
X116241000Y-139738000D01*
X116281000Y-134612000D02*
X116281000Y-136120000D01*
X116281000Y-138200000D02*
X116281000Y-139708000D01*
X116321000Y-134644000D02*
X116321000Y-136120000D01*
X116321000Y-138200000D02*
X116321000Y-139676000D01*
X116361000Y-134676000D02*
X116361000Y-136120000D01*
X116361000Y-138200000D02*
X116361000Y-139644000D01*
X116401000Y-134710000D02*
X116401000Y-136120000D01*
X116401000Y-138200000D02*
X116401000Y-139610000D01*
X116441000Y-134744000D02*
X116441000Y-136120000D01*
X116441000Y-138200000D02*
X116441000Y-139576000D01*
X116481000Y-134780000D02*
X116481000Y-136120000D01*
X116481000Y-138200000D02*
X116481000Y-139540000D01*
X116521000Y-134817000D02*
X116521000Y-136120000D01*
X116521000Y-138200000D02*
X116521000Y-139503000D01*
X116561000Y-134855000D02*
X116561000Y-136120000D01*
X116561000Y-138200000D02*
X116561000Y-139465000D01*
X116601000Y-134895000D02*
X116601000Y-139425000D01*
X116641000Y-134936000D02*
X116641000Y-139384000D01*
X116681000Y-134978000D02*
X116681000Y-139342000D01*
X116721000Y-135023000D02*
X116721000Y-139297000D01*
X116761000Y-135068000D02*
X116761000Y-139252000D01*
X116801000Y-135116000D02*
X116801000Y-139204000D01*
X116841000Y-135165000D02*
X116841000Y-139155000D01*
X116881000Y-135216000D02*
X116881000Y-139104000D01*
X116921000Y-135270000D02*
X116921000Y-139050000D01*
X116961000Y-135326000D02*
X116961000Y-138994000D01*
X117001000Y-135384000D02*
X117001000Y-138936000D01*
X117041000Y-135446000D02*
X117041000Y-138874000D01*
X117081000Y-135510000D02*
X117081000Y-138810000D01*
X117121000Y-135579000D02*
X117121000Y-138741000D01*
X117161000Y-135651000D02*
X117161000Y-138669000D01*
X117201000Y-135728000D02*
X117201000Y-138592000D01*
X117241000Y-135810000D02*
X117241000Y-138510000D01*
X117281000Y-135898000D02*
X117281000Y-138422000D01*
X117321000Y-135995000D02*
X117321000Y-138325000D01*
X117361000Y-136101000D02*
X117361000Y-138219000D01*
X117401000Y-136220000D02*
X117401000Y-138100000D01*
X117441000Y-136358000D02*
X117441000Y-137962000D01*
X117481000Y-136527000D02*
X117481000Y-137793000D01*
X117521000Y-136758000D02*
X117521000Y-137562000D01*
X110779759Y-135321000D02*
X111409759Y-135321000D01*
X111094759Y-135006000D02*
X111094759Y-135636000D01*
X121920000Y-120880000D02*
X121920000Y-120110000D01*
X121920000Y-112800000D02*
X121920000Y-113570000D01*
X123290000Y-120110000D02*
X123290000Y-113570000D01*
X120550000Y-120110000D02*
X123290000Y-120110000D01*
X120550000Y-113570000D02*
X120550000Y-120110000D01*
X123290000Y-113570000D02*
X120550000Y-113570000D01*
X123090000Y-120110000D02*
X125830000Y-120110000D01*
X125830000Y-120110000D02*
X125830000Y-113570000D01*
X125830000Y-113570000D02*
X123090000Y-113570000D01*
X123090000Y-113570000D02*
X123090000Y-120110000D01*
X124460000Y-120880000D02*
X124460000Y-120110000D01*
X124460000Y-112800000D02*
X124460000Y-113570000D01*
X64710000Y-139700000D02*
X64710000Y-138370000D01*
X64710000Y-138370000D02*
X66040000Y-138370000D01*
X67310000Y-138370000D02*
X102930000Y-138370000D01*
X102930000Y-141030000D02*
X102930000Y-138370000D01*
X67310000Y-141030000D02*
X102930000Y-141030000D01*
X67310000Y-141030000D02*
X67310000Y-138370000D01*
X83820000Y-113260000D02*
X83820000Y-112490000D01*
X83820000Y-105180000D02*
X83820000Y-105950000D01*
X85190000Y-112490000D02*
X85190000Y-105950000D01*
X82450000Y-112490000D02*
X85190000Y-112490000D01*
X82450000Y-105950000D02*
X82450000Y-112490000D01*
X85190000Y-105950000D02*
X82450000Y-105950000D01*
X100330000Y-123190000D02*
X102870000Y-123190000D01*
X102870000Y-123190000D02*
X102870000Y-120520000D01*
X100330000Y-120520000D02*
X62100000Y-120520000D01*
X105540000Y-120520000D02*
X102870000Y-120520000D01*
X102870000Y-135890000D02*
X102870000Y-138560000D01*
X102870000Y-135890000D02*
X64770000Y-135890000D01*
X64770000Y-135890000D02*
X64770000Y-138560000D01*
X100330000Y-123190000D02*
X100330000Y-120520000D01*
X100330000Y-123190000D02*
X64770000Y-123190000D01*
X64770000Y-123190000D02*
X64770000Y-120520000D01*
X62100000Y-120520000D02*
X62100000Y-138560000D01*
X62100000Y-138560000D02*
X105540000Y-138560000D01*
X105540000Y-138560000D02*
X105540000Y-120520000D01*
X108050000Y-105950000D02*
X105310000Y-105950000D01*
X105310000Y-105950000D02*
X105310000Y-112490000D01*
X105310000Y-112490000D02*
X108050000Y-112490000D01*
X108050000Y-112490000D02*
X108050000Y-105950000D01*
X106680000Y-105180000D02*
X106680000Y-105950000D01*
X106680000Y-113260000D02*
X106680000Y-112490000D01*
X126270000Y-151030000D02*
X126270000Y-153770000D01*
X126270000Y-153770000D02*
X132810000Y-153770000D01*
X132810000Y-153770000D02*
X132810000Y-151030000D01*
X132810000Y-151030000D02*
X126270000Y-151030000D01*
X125500000Y-152400000D02*
X126270000Y-152400000D01*
X133580000Y-152400000D02*
X132810000Y-152400000D01*
X80550000Y-145950000D02*
X80550000Y-148690000D01*
X80550000Y-148690000D02*
X87090000Y-148690000D01*
X87090000Y-148690000D02*
X87090000Y-145950000D01*
X87090000Y-145950000D02*
X80550000Y-145950000D01*
X79780000Y-147320000D02*
X80550000Y-147320000D01*
X87860000Y-147320000D02*
X87090000Y-147320000D01*
X107750000Y-132260000D02*
X110690000Y-132260000D01*
X110690000Y-132260000D02*
X110690000Y-126820000D01*
X110690000Y-126820000D02*
X107750000Y-126820000D01*
X107750000Y-126820000D02*
X107750000Y-132260000D01*
X109220000Y-133280000D02*
X109220000Y-132260000D01*
X109220000Y-125800000D02*
X109220000Y-126820000D01*
X107750000Y-131360000D02*
X110690000Y-131360000D01*
X107750000Y-131240000D02*
X110690000Y-131240000D01*
X107750000Y-131480000D02*
X110690000Y-131480000D01*
X87860000Y-144780000D02*
X87090000Y-144780000D01*
X79780000Y-144780000D02*
X80550000Y-144780000D01*
X87090000Y-143410000D02*
X80550000Y-143410000D01*
X87090000Y-146150000D02*
X87090000Y-143410000D01*
X80550000Y-146150000D02*
X87090000Y-146150000D01*
X80550000Y-143410000D02*
X80550000Y-146150000D01*
X117960000Y-126150000D02*
X115720000Y-126150000D01*
X115720000Y-126150000D02*
X115720000Y-130390000D01*
X115720000Y-130390000D02*
X117960000Y-130390000D01*
X117960000Y-130390000D02*
X117960000Y-126150000D01*
X116840000Y-125500000D02*
X116840000Y-126150000D01*
X116840000Y-131040000D02*
X116840000Y-130390000D01*
X117960000Y-126870000D02*
X115720000Y-126870000D01*
X117960000Y-126990000D02*
X115720000Y-126990000D01*
X117960000Y-126750000D02*
X115720000Y-126750000D01*
X86360000Y-113260000D02*
X86360000Y-112490000D01*
X86360000Y-105180000D02*
X86360000Y-105950000D01*
X87730000Y-112490000D02*
X87730000Y-105950000D01*
X84990000Y-112490000D02*
X87730000Y-112490000D01*
X84990000Y-105950000D02*
X84990000Y-112490000D01*
X87730000Y-105950000D02*
X84990000Y-105950000D01*
X102970000Y-105950000D02*
X100230000Y-105950000D01*
X100230000Y-105950000D02*
X100230000Y-112490000D01*
X100230000Y-112490000D02*
X102970000Y-112490000D01*
X102970000Y-112490000D02*
X102970000Y-105950000D01*
X101600000Y-105180000D02*
X101600000Y-105950000D01*
X101600000Y-113260000D02*
X101600000Y-112490000D01*
X67310000Y-120710000D02*
X67310000Y-118050000D01*
X67310000Y-120710000D02*
X102930000Y-120710000D01*
X102930000Y-120710000D02*
X102930000Y-118050000D01*
X67310000Y-118050000D02*
X102930000Y-118050000D01*
X64710000Y-118050000D02*
X66040000Y-118050000D01*
X64710000Y-119380000D02*
X64710000Y-118050000D01*
X104140000Y-113260000D02*
X104140000Y-112490000D01*
X104140000Y-105180000D02*
X104140000Y-105950000D01*
X105510000Y-112490000D02*
X105510000Y-105950000D01*
X102770000Y-112490000D02*
X105510000Y-112490000D01*
X102770000Y-105950000D02*
X102770000Y-112490000D01*
X105510000Y-105950000D02*
X102770000Y-105950000D01*
X90270000Y-105950000D02*
X87530000Y-105950000D01*
X87530000Y-105950000D02*
X87530000Y-112490000D01*
X87530000Y-112490000D02*
X90270000Y-112490000D01*
X90270000Y-112490000D02*
X90270000Y-105950000D01*
X88900000Y-105180000D02*
X88900000Y-105950000D01*
X88900000Y-113260000D02*
X88900000Y-112490000D01*
X116570000Y-110430000D02*
G75*
G02X114570000Y-110430000I-1000000J0D01*
G01*
X114570000Y-110430000D02*
X112920000Y-110430000D01*
X112920000Y-110430000D02*
X112920000Y-120710000D01*
X112920000Y-120710000D02*
X118220000Y-120710000D01*
X118220000Y-120710000D02*
X118220000Y-110430000D01*
X118220000Y-110430000D02*
X116570000Y-110430000D01*
X110430000Y-110370000D02*
X110430000Y-120770000D01*
X110430000Y-120770000D02*
X120710000Y-120770000D01*
X120710000Y-120770000D02*
X120710000Y-110370000D01*
X120710000Y-110370000D02*
X110430000Y-110370000D01*
X92044759Y-142626000D02*
X92044759Y-143256000D01*
X91729759Y-142941000D02*
X92359759Y-142941000D01*
X98471000Y-144378000D02*
X98471000Y-145182000D01*
X98431000Y-144147000D02*
X98431000Y-145413000D01*
X98391000Y-143978000D02*
X98391000Y-145582000D01*
X98351000Y-143840000D02*
X98351000Y-145720000D01*
X98311000Y-143721000D02*
X98311000Y-145839000D01*
X98271000Y-143615000D02*
X98271000Y-145945000D01*
X98231000Y-143518000D02*
X98231000Y-146042000D01*
X98191000Y-143430000D02*
X98191000Y-146130000D01*
X98151000Y-143348000D02*
X98151000Y-146212000D01*
X98111000Y-143271000D02*
X98111000Y-146289000D01*
X98071000Y-143199000D02*
X98071000Y-146361000D01*
X98031000Y-143130000D02*
X98031000Y-146430000D01*
X97991000Y-143066000D02*
X97991000Y-146494000D01*
X97951000Y-143004000D02*
X97951000Y-146556000D01*
X97911000Y-142946000D02*
X97911000Y-146614000D01*
X97871000Y-142890000D02*
X97871000Y-146670000D01*
X97831000Y-142836000D02*
X97831000Y-146724000D01*
X97791000Y-142785000D02*
X97791000Y-146775000D01*
X97751000Y-142736000D02*
X97751000Y-146824000D01*
X97711000Y-142688000D02*
X97711000Y-146872000D01*
X97671000Y-142643000D02*
X97671000Y-146917000D01*
X97631000Y-142598000D02*
X97631000Y-146962000D01*
X97591000Y-142556000D02*
X97591000Y-147004000D01*
X97551000Y-142515000D02*
X97551000Y-147045000D01*
X97511000Y-145820000D02*
X97511000Y-147085000D01*
X97511000Y-142475000D02*
X97511000Y-143740000D01*
X97471000Y-145820000D02*
X97471000Y-147123000D01*
X97471000Y-142437000D02*
X97471000Y-143740000D01*
X97431000Y-145820000D02*
X97431000Y-147160000D01*
X97431000Y-142400000D02*
X97431000Y-143740000D01*
X97391000Y-145820000D02*
X97391000Y-147196000D01*
X97391000Y-142364000D02*
X97391000Y-143740000D01*
X97351000Y-145820000D02*
X97351000Y-147230000D01*
X97351000Y-142330000D02*
X97351000Y-143740000D01*
X97311000Y-145820000D02*
X97311000Y-147264000D01*
X97311000Y-142296000D02*
X97311000Y-143740000D01*
X97271000Y-145820000D02*
X97271000Y-147296000D01*
X97271000Y-142264000D02*
X97271000Y-143740000D01*
X97231000Y-145820000D02*
X97231000Y-147328000D01*
X97231000Y-142232000D02*
X97231000Y-143740000D01*
X97191000Y-145820000D02*
X97191000Y-147358000D01*
X97191000Y-142202000D02*
X97191000Y-143740000D01*
X97151000Y-145820000D02*
X97151000Y-147387000D01*
X97151000Y-142173000D02*
X97151000Y-143740000D01*
X97111000Y-145820000D02*
X97111000Y-147416000D01*
X97111000Y-142144000D02*
X97111000Y-143740000D01*
X97071000Y-145820000D02*
X97071000Y-147444000D01*
X97071000Y-142116000D02*
X97071000Y-143740000D01*
X97031000Y-145820000D02*
X97031000Y-147470000D01*
X97031000Y-142090000D02*
X97031000Y-143740000D01*
X96991000Y-145820000D02*
X96991000Y-147496000D01*
X96991000Y-142064000D02*
X96991000Y-143740000D01*
X96951000Y-145820000D02*
X96951000Y-147522000D01*
X96951000Y-142038000D02*
X96951000Y-143740000D01*
X96911000Y-145820000D02*
X96911000Y-147546000D01*
X96911000Y-142014000D02*
X96911000Y-143740000D01*
X96871000Y-145820000D02*
X96871000Y-147570000D01*
X96871000Y-141990000D02*
X96871000Y-143740000D01*
X96831000Y-145820000D02*
X96831000Y-147592000D01*
X96831000Y-141968000D02*
X96831000Y-143740000D01*
X96791000Y-145820000D02*
X96791000Y-147614000D01*
X96791000Y-141946000D02*
X96791000Y-143740000D01*
X96751000Y-145820000D02*
X96751000Y-147636000D01*
X96751000Y-141924000D02*
X96751000Y-143740000D01*
X96711000Y-145820000D02*
X96711000Y-147656000D01*
X96711000Y-141904000D02*
X96711000Y-143740000D01*
X96671000Y-145820000D02*
X96671000Y-147676000D01*
X96671000Y-141884000D02*
X96671000Y-143740000D01*
X96631000Y-145820000D02*
X96631000Y-147696000D01*
X96631000Y-141864000D02*
X96631000Y-143740000D01*
X96591000Y-145820000D02*
X96591000Y-147714000D01*
X96591000Y-141846000D02*
X96591000Y-143740000D01*
X96551000Y-145820000D02*
X96551000Y-147732000D01*
X96551000Y-141828000D02*
X96551000Y-143740000D01*
X96511000Y-145820000D02*
X96511000Y-147750000D01*
X96511000Y-141810000D02*
X96511000Y-143740000D01*
X96471000Y-145820000D02*
X96471000Y-147766000D01*
X96471000Y-141794000D02*
X96471000Y-143740000D01*
X96431000Y-145820000D02*
X96431000Y-147782000D01*
X96431000Y-141778000D02*
X96431000Y-143740000D01*
X96391000Y-145820000D02*
X96391000Y-147798000D01*
X96391000Y-141762000D02*
X96391000Y-143740000D01*
X96351000Y-145820000D02*
X96351000Y-147813000D01*
X96351000Y-141747000D02*
X96351000Y-143740000D01*
X96311000Y-145820000D02*
X96311000Y-147827000D01*
X96311000Y-141733000D02*
X96311000Y-143740000D01*
X96271000Y-145820000D02*
X96271000Y-147841000D01*
X96271000Y-141719000D02*
X96271000Y-143740000D01*
X96231000Y-145820000D02*
X96231000Y-147854000D01*
X96231000Y-141706000D02*
X96231000Y-143740000D01*
X96191000Y-145820000D02*
X96191000Y-147866000D01*
X96191000Y-141694000D02*
X96191000Y-143740000D01*
X96151000Y-145820000D02*
X96151000Y-147878000D01*
X96151000Y-141682000D02*
X96151000Y-143740000D01*
X96111000Y-145820000D02*
X96111000Y-147890000D01*
X96111000Y-141670000D02*
X96111000Y-143740000D01*
X96071000Y-145820000D02*
X96071000Y-147901000D01*
X96071000Y-141659000D02*
X96071000Y-143740000D01*
X96031000Y-145820000D02*
X96031000Y-147911000D01*
X96031000Y-141649000D02*
X96031000Y-143740000D01*
X95991000Y-145820000D02*
X95991000Y-147921000D01*
X95991000Y-141639000D02*
X95991000Y-143740000D01*
X95951000Y-145820000D02*
X95951000Y-147930000D01*
X95951000Y-141630000D02*
X95951000Y-143740000D01*
X95910000Y-145820000D02*
X95910000Y-147939000D01*
X95910000Y-141621000D02*
X95910000Y-143740000D01*
X95870000Y-145820000D02*
X95870000Y-147947000D01*
X95870000Y-141613000D02*
X95870000Y-143740000D01*
X95830000Y-145820000D02*
X95830000Y-147955000D01*
X95830000Y-141605000D02*
X95830000Y-143740000D01*
X95790000Y-145820000D02*
X95790000Y-147962000D01*
X95790000Y-141598000D02*
X95790000Y-143740000D01*
X95750000Y-145820000D02*
X95750000Y-147969000D01*
X95750000Y-141591000D02*
X95750000Y-143740000D01*
X95710000Y-145820000D02*
X95710000Y-147975000D01*
X95710000Y-141585000D02*
X95710000Y-143740000D01*
X95670000Y-145820000D02*
X95670000Y-147981000D01*
X95670000Y-141579000D02*
X95670000Y-143740000D01*
X95630000Y-145820000D02*
X95630000Y-147986000D01*
X95630000Y-141574000D02*
X95630000Y-143740000D01*
X95590000Y-145820000D02*
X95590000Y-147991000D01*
X95590000Y-141569000D02*
X95590000Y-143740000D01*
X95550000Y-145820000D02*
X95550000Y-147995000D01*
X95550000Y-141565000D02*
X95550000Y-143740000D01*
X95510000Y-145820000D02*
X95510000Y-147998000D01*
X95510000Y-141562000D02*
X95510000Y-143740000D01*
X95470000Y-145820000D02*
X95470000Y-148002000D01*
X95470000Y-141558000D02*
X95470000Y-143740000D01*
X95430000Y-141556000D02*
X95430000Y-148004000D01*
X95390000Y-141553000D02*
X95390000Y-148007000D01*
X95350000Y-141552000D02*
X95350000Y-148008000D01*
X95310000Y-141550000D02*
X95310000Y-148010000D01*
X95270000Y-141550000D02*
X95270000Y-148010000D01*
X95230000Y-141550000D02*
X95230000Y-148010000D01*
X98500000Y-144780000D02*
G75*
G03X98500000Y-144780000I-3270000J0D01*
G01*
X92044759Y-112146000D02*
X92044759Y-112776000D01*
X91729759Y-112461000D02*
X92359759Y-112461000D01*
X98471000Y-113898000D02*
X98471000Y-114702000D01*
X98431000Y-113667000D02*
X98431000Y-114933000D01*
X98391000Y-113498000D02*
X98391000Y-115102000D01*
X98351000Y-113360000D02*
X98351000Y-115240000D01*
X98311000Y-113241000D02*
X98311000Y-115359000D01*
X98271000Y-113135000D02*
X98271000Y-115465000D01*
X98231000Y-113038000D02*
X98231000Y-115562000D01*
X98191000Y-112950000D02*
X98191000Y-115650000D01*
X98151000Y-112868000D02*
X98151000Y-115732000D01*
X98111000Y-112791000D02*
X98111000Y-115809000D01*
X98071000Y-112719000D02*
X98071000Y-115881000D01*
X98031000Y-112650000D02*
X98031000Y-115950000D01*
X97991000Y-112586000D02*
X97991000Y-116014000D01*
X97951000Y-112524000D02*
X97951000Y-116076000D01*
X97911000Y-112466000D02*
X97911000Y-116134000D01*
X97871000Y-112410000D02*
X97871000Y-116190000D01*
X97831000Y-112356000D02*
X97831000Y-116244000D01*
X97791000Y-112305000D02*
X97791000Y-116295000D01*
X97751000Y-112256000D02*
X97751000Y-116344000D01*
X97711000Y-112208000D02*
X97711000Y-116392000D01*
X97671000Y-112163000D02*
X97671000Y-116437000D01*
X97631000Y-112118000D02*
X97631000Y-116482000D01*
X97591000Y-112076000D02*
X97591000Y-116524000D01*
X97551000Y-112035000D02*
X97551000Y-116565000D01*
X97511000Y-115340000D02*
X97511000Y-116605000D01*
X97511000Y-111995000D02*
X97511000Y-113260000D01*
X97471000Y-115340000D02*
X97471000Y-116643000D01*
X97471000Y-111957000D02*
X97471000Y-113260000D01*
X97431000Y-115340000D02*
X97431000Y-116680000D01*
X97431000Y-111920000D02*
X97431000Y-113260000D01*
X97391000Y-115340000D02*
X97391000Y-116716000D01*
X97391000Y-111884000D02*
X97391000Y-113260000D01*
X97351000Y-115340000D02*
X97351000Y-116750000D01*
X97351000Y-111850000D02*
X97351000Y-113260000D01*
X97311000Y-115340000D02*
X97311000Y-116784000D01*
X97311000Y-111816000D02*
X97311000Y-113260000D01*
X97271000Y-115340000D02*
X97271000Y-116816000D01*
X97271000Y-111784000D02*
X97271000Y-113260000D01*
X97231000Y-115340000D02*
X97231000Y-116848000D01*
X97231000Y-111752000D02*
X97231000Y-113260000D01*
X97191000Y-115340000D02*
X97191000Y-116878000D01*
X97191000Y-111722000D02*
X97191000Y-113260000D01*
X97151000Y-115340000D02*
X97151000Y-116907000D01*
X97151000Y-111693000D02*
X97151000Y-113260000D01*
X97111000Y-115340000D02*
X97111000Y-116936000D01*
X97111000Y-111664000D02*
X97111000Y-113260000D01*
X97071000Y-115340000D02*
X97071000Y-116964000D01*
X97071000Y-111636000D02*
X97071000Y-113260000D01*
X97031000Y-115340000D02*
X97031000Y-116990000D01*
X97031000Y-111610000D02*
X97031000Y-113260000D01*
X96991000Y-115340000D02*
X96991000Y-117016000D01*
X96991000Y-111584000D02*
X96991000Y-113260000D01*
X96951000Y-115340000D02*
X96951000Y-117042000D01*
X96951000Y-111558000D02*
X96951000Y-113260000D01*
X96911000Y-115340000D02*
X96911000Y-117066000D01*
X96911000Y-111534000D02*
X96911000Y-113260000D01*
X96871000Y-115340000D02*
X96871000Y-117090000D01*
X96871000Y-111510000D02*
X96871000Y-113260000D01*
X96831000Y-115340000D02*
X96831000Y-117112000D01*
X96831000Y-111488000D02*
X96831000Y-113260000D01*
X96791000Y-115340000D02*
X96791000Y-117134000D01*
X96791000Y-111466000D02*
X96791000Y-113260000D01*
X96751000Y-115340000D02*
X96751000Y-117156000D01*
X96751000Y-111444000D02*
X96751000Y-113260000D01*
X96711000Y-115340000D02*
X96711000Y-117176000D01*
X96711000Y-111424000D02*
X96711000Y-113260000D01*
X96671000Y-115340000D02*
X96671000Y-117196000D01*
X96671000Y-111404000D02*
X96671000Y-113260000D01*
X96631000Y-115340000D02*
X96631000Y-117216000D01*
X96631000Y-111384000D02*
X96631000Y-113260000D01*
X96591000Y-115340000D02*
X96591000Y-117234000D01*
X96591000Y-111366000D02*
X96591000Y-113260000D01*
X96551000Y-115340000D02*
X96551000Y-117252000D01*
X96551000Y-111348000D02*
X96551000Y-113260000D01*
X96511000Y-115340000D02*
X96511000Y-117270000D01*
X96511000Y-111330000D02*
X96511000Y-113260000D01*
X96471000Y-115340000D02*
X96471000Y-117286000D01*
X96471000Y-111314000D02*
X96471000Y-113260000D01*
X96431000Y-115340000D02*
X96431000Y-117302000D01*
X96431000Y-111298000D02*
X96431000Y-113260000D01*
X96391000Y-115340000D02*
X96391000Y-117318000D01*
X96391000Y-111282000D02*
X96391000Y-113260000D01*
X96351000Y-115340000D02*
X96351000Y-117333000D01*
X96351000Y-111267000D02*
X96351000Y-113260000D01*
X96311000Y-115340000D02*
X96311000Y-117347000D01*
X96311000Y-111253000D02*
X96311000Y-113260000D01*
X96271000Y-115340000D02*
X96271000Y-117361000D01*
X96271000Y-111239000D02*
X96271000Y-113260000D01*
X96231000Y-115340000D02*
X96231000Y-117374000D01*
X96231000Y-111226000D02*
X96231000Y-113260000D01*
X96191000Y-115340000D02*
X96191000Y-117386000D01*
X96191000Y-111214000D02*
X96191000Y-113260000D01*
X96151000Y-115340000D02*
X96151000Y-117398000D01*
X96151000Y-111202000D02*
X96151000Y-113260000D01*
X96111000Y-115340000D02*
X96111000Y-117410000D01*
X96111000Y-111190000D02*
X96111000Y-113260000D01*
X96071000Y-115340000D02*
X96071000Y-117421000D01*
X96071000Y-111179000D02*
X96071000Y-113260000D01*
X96031000Y-115340000D02*
X96031000Y-117431000D01*
X96031000Y-111169000D02*
X96031000Y-113260000D01*
X95991000Y-115340000D02*
X95991000Y-117441000D01*
X95991000Y-111159000D02*
X95991000Y-113260000D01*
X95951000Y-115340000D02*
X95951000Y-117450000D01*
X95951000Y-111150000D02*
X95951000Y-113260000D01*
X95910000Y-115340000D02*
X95910000Y-117459000D01*
X95910000Y-111141000D02*
X95910000Y-113260000D01*
X95870000Y-115340000D02*
X95870000Y-117467000D01*
X95870000Y-111133000D02*
X95870000Y-113260000D01*
X95830000Y-115340000D02*
X95830000Y-117475000D01*
X95830000Y-111125000D02*
X95830000Y-113260000D01*
X95790000Y-115340000D02*
X95790000Y-117482000D01*
X95790000Y-111118000D02*
X95790000Y-113260000D01*
X95750000Y-115340000D02*
X95750000Y-117489000D01*
X95750000Y-111111000D02*
X95750000Y-113260000D01*
X95710000Y-115340000D02*
X95710000Y-117495000D01*
X95710000Y-111105000D02*
X95710000Y-113260000D01*
X95670000Y-115340000D02*
X95670000Y-117501000D01*
X95670000Y-111099000D02*
X95670000Y-113260000D01*
X95630000Y-115340000D02*
X95630000Y-117506000D01*
X95630000Y-111094000D02*
X95630000Y-113260000D01*
X95590000Y-115340000D02*
X95590000Y-117511000D01*
X95590000Y-111089000D02*
X95590000Y-113260000D01*
X95550000Y-115340000D02*
X95550000Y-117515000D01*
X95550000Y-111085000D02*
X95550000Y-113260000D01*
X95510000Y-115340000D02*
X95510000Y-117518000D01*
X95510000Y-111082000D02*
X95510000Y-113260000D01*
X95470000Y-115340000D02*
X95470000Y-117522000D01*
X95470000Y-111078000D02*
X95470000Y-113260000D01*
X95430000Y-111076000D02*
X95430000Y-117524000D01*
X95390000Y-111073000D02*
X95390000Y-117527000D01*
X95350000Y-111072000D02*
X95350000Y-117528000D01*
X95310000Y-111070000D02*
X95310000Y-117530000D01*
X95270000Y-111070000D02*
X95270000Y-117530000D01*
X95230000Y-111070000D02*
X95230000Y-117530000D01*
X98500000Y-114300000D02*
G75*
G03X98500000Y-114300000I-3270000J0D01*
G01*
X65310000Y-112930000D02*
X65310000Y-115670000D01*
X65310000Y-115670000D02*
X71850000Y-115670000D01*
X71850000Y-115670000D02*
X71850000Y-112930000D01*
X71850000Y-112930000D02*
X65310000Y-112930000D01*
X64540000Y-114300000D02*
X65310000Y-114300000D01*
X72620000Y-114300000D02*
X71850000Y-114300000D01*
X107890000Y-104140000D02*
X107890000Y-102810000D01*
X107890000Y-102810000D02*
X109220000Y-102810000D01*
X110490000Y-102810000D02*
X133410000Y-102810000D01*
X133410000Y-105470000D02*
X133410000Y-102810000D01*
X110490000Y-105470000D02*
X133410000Y-105470000D01*
X110490000Y-105470000D02*
X110490000Y-102810000D01*
X107890000Y-147320000D02*
X107890000Y-145990000D01*
X107890000Y-145990000D02*
X109220000Y-145990000D01*
X110490000Y-145990000D02*
X133410000Y-145990000D01*
X133410000Y-148650000D02*
X133410000Y-145990000D01*
X110490000Y-148650000D02*
X133410000Y-148650000D01*
X110490000Y-148650000D02*
X110490000Y-145990000D01*
X76861000Y-115220000D02*
X78119000Y-115220000D01*
X76861000Y-113380000D02*
X78119000Y-113380000D01*
D12*
X63162380Y-125269523D02*
X63876666Y-125269523D01*
X64019523Y-125317142D01*
X64114761Y-125412380D01*
X64162380Y-125555238D01*
X64162380Y-125650476D01*
X64162380Y-124269523D02*
X64162380Y-124840952D01*
X64162380Y-124555238D02*
X63162380Y-124555238D01*
X63305238Y-124650476D01*
X63400476Y-124745714D01*
X63448095Y-124840952D01*
X64162380Y-123317142D02*
X64162380Y-123888571D01*
X64162380Y-123602857D02*
X63162380Y-123602857D01*
X63305238Y-123698095D01*
X63400476Y-123793333D01*
X63448095Y-123888571D01*
X63162380Y-135429523D02*
X63876666Y-135429523D01*
X64019523Y-135477142D01*
X64114761Y-135572380D01*
X64162380Y-135715238D01*
X64162380Y-135810476D01*
X64162380Y-134429523D02*
X64162380Y-135000952D01*
X64162380Y-134715238D02*
X63162380Y-134715238D01*
X63305238Y-134810476D01*
X63400476Y-134905714D01*
X63448095Y-135000952D01*
X63162380Y-133810476D02*
X63162380Y-133715238D01*
X63210000Y-133620000D01*
X63257619Y-133572380D01*
X63352857Y-133524761D01*
X63543333Y-133477142D01*
X63781428Y-133477142D01*
X63971904Y-133524761D01*
X64067142Y-133572380D01*
X64114761Y-133620000D01*
X64162380Y-133715238D01*
X64162380Y-133810476D01*
X64114761Y-133905714D01*
X64067142Y-133953333D01*
X63971904Y-134000952D01*
X63781428Y-134048571D01*
X63543333Y-134048571D01*
X63352857Y-134000952D01*
X63257619Y-133953333D01*
X63210000Y-133905714D01*
X63162380Y-133810476D01*
X133952380Y-107013333D02*
X134666666Y-107013333D01*
X134809523Y-107060952D01*
X134904761Y-107156190D01*
X134952380Y-107299047D01*
X134952380Y-107394285D01*
X133952380Y-106632380D02*
X133952380Y-105965714D01*
X134952380Y-106394285D01*
X106452380Y-145113333D02*
X107166666Y-145113333D01*
X107309523Y-145160952D01*
X107404761Y-145256190D01*
X107452380Y-145399047D01*
X107452380Y-145494285D01*
X106452380Y-144208571D02*
X106452380Y-144399047D01*
X106500000Y-144494285D01*
X106547619Y-144541904D01*
X106690476Y-144637142D01*
X106880952Y-144684761D01*
X107261904Y-144684761D01*
X107357142Y-144637142D01*
X107404761Y-144589523D01*
X107452380Y-144494285D01*
X107452380Y-144303809D01*
X107404761Y-144208571D01*
X107357142Y-144160952D01*
X107261904Y-144113333D01*
X107023809Y-144113333D01*
X106928571Y-144160952D01*
X106880952Y-144208571D01*
X106833333Y-144303809D01*
X106833333Y-144494285D01*
X106880952Y-144589523D01*
X106928571Y-144637142D01*
X107023809Y-144684761D01*
X72850476Y-141462380D02*
X72850476Y-142176666D01*
X72802857Y-142319523D01*
X72707619Y-142414761D01*
X72564761Y-142462380D01*
X72469523Y-142462380D01*
X73850476Y-142462380D02*
X73279047Y-142462380D01*
X73564761Y-142462380D02*
X73564761Y-141462380D01*
X73469523Y-141605238D01*
X73374285Y-141700476D01*
X73279047Y-141748095D01*
X74231428Y-141557619D02*
X74279047Y-141510000D01*
X74374285Y-141462380D01*
X74612380Y-141462380D01*
X74707619Y-141510000D01*
X74755238Y-141557619D01*
X74802857Y-141652857D01*
X74802857Y-141748095D01*
X74755238Y-141890952D01*
X74183809Y-142462380D01*
X74802857Y-142462380D01*
X128730476Y-124142380D02*
X128730476Y-124856666D01*
X128682857Y-124999523D01*
X128587619Y-125094761D01*
X128444761Y-125142380D01*
X128349523Y-125142380D01*
X129730476Y-125142380D02*
X129159047Y-125142380D01*
X129444761Y-125142380D02*
X129444761Y-124142380D01*
X129349523Y-124285238D01*
X129254285Y-124380476D01*
X129159047Y-124428095D01*
X130587619Y-124475714D02*
X130587619Y-125142380D01*
X130349523Y-124094761D02*
X130111428Y-124809047D01*
X130730476Y-124809047D01*
X124277380Y-135262857D02*
X123801190Y-135596190D01*
X124277380Y-135834285D02*
X123277380Y-135834285D01*
X123277380Y-135453333D01*
X123325000Y-135358095D01*
X123372619Y-135310476D01*
X123467857Y-135262857D01*
X123610714Y-135262857D01*
X123705952Y-135310476D01*
X123753571Y-135358095D01*
X123801190Y-135453333D01*
X123801190Y-135834285D01*
X124277380Y-134310476D02*
X124277380Y-134881904D01*
X124277380Y-134596190D02*
X123277380Y-134596190D01*
X123420238Y-134691428D01*
X123515476Y-134786666D01*
X123563095Y-134881904D01*
X123277380Y-133977142D02*
X123277380Y-133358095D01*
X123658333Y-133691428D01*
X123658333Y-133548571D01*
X123705952Y-133453333D01*
X123753571Y-133405714D01*
X123848809Y-133358095D01*
X124086904Y-133358095D01*
X124182142Y-133405714D01*
X124229761Y-133453333D01*
X124277380Y-133548571D01*
X124277380Y-133834285D01*
X124229761Y-133929523D01*
X124182142Y-133977142D01*
X125547380Y-134739047D02*
X125547380Y-135310476D01*
X125547380Y-135024761D02*
X124547380Y-135024761D01*
X124690238Y-135120000D01*
X124785476Y-135215238D01*
X124833095Y-135310476D01*
X125547380Y-134310476D02*
X124547380Y-134310476D01*
X125166428Y-134215238D02*
X125547380Y-133929523D01*
X124880714Y-133929523D02*
X125261666Y-134310476D01*
X121737380Y-135262857D02*
X121261190Y-135596190D01*
X121737380Y-135834285D02*
X120737380Y-135834285D01*
X120737380Y-135453333D01*
X120785000Y-135358095D01*
X120832619Y-135310476D01*
X120927857Y-135262857D01*
X121070714Y-135262857D01*
X121165952Y-135310476D01*
X121213571Y-135358095D01*
X121261190Y-135453333D01*
X121261190Y-135834285D01*
X121737380Y-134310476D02*
X121737380Y-134881904D01*
X121737380Y-134596190D02*
X120737380Y-134596190D01*
X120880238Y-134691428D01*
X120975476Y-134786666D01*
X121023095Y-134881904D01*
X120832619Y-133929523D02*
X120785000Y-133881904D01*
X120737380Y-133786666D01*
X120737380Y-133548571D01*
X120785000Y-133453333D01*
X120832619Y-133405714D01*
X120927857Y-133358095D01*
X121023095Y-133358095D01*
X121165952Y-133405714D01*
X121737380Y-133977142D01*
X121737380Y-133358095D01*
X123007380Y-134739047D02*
X123007380Y-135310476D01*
X123007380Y-135024761D02*
X122007380Y-135024761D01*
X122150238Y-135120000D01*
X122245476Y-135215238D01*
X122293095Y-135310476D01*
X123007380Y-134310476D02*
X122007380Y-134310476D01*
X122626428Y-134215238D02*
X123007380Y-133929523D01*
X122340714Y-133929523D02*
X122721666Y-134310476D01*
X114113333Y-133117142D02*
X114065714Y-133164761D01*
X113922857Y-133212380D01*
X113827619Y-133212380D01*
X113684761Y-133164761D01*
X113589523Y-133069523D01*
X113541904Y-132974285D01*
X113494285Y-132783809D01*
X113494285Y-132640952D01*
X113541904Y-132450476D01*
X113589523Y-132355238D01*
X113684761Y-132260000D01*
X113827619Y-132212380D01*
X113922857Y-132212380D01*
X114065714Y-132260000D01*
X114113333Y-132307619D01*
X115018095Y-132212380D02*
X114541904Y-132212380D01*
X114494285Y-132688571D01*
X114541904Y-132640952D01*
X114637142Y-132593333D01*
X114875238Y-132593333D01*
X114970476Y-132640952D01*
X115018095Y-132688571D01*
X115065714Y-132783809D01*
X115065714Y-133021904D01*
X115018095Y-133117142D01*
X114970476Y-133164761D01*
X114875238Y-133212380D01*
X114637142Y-133212380D01*
X114541904Y-133164761D01*
X114494285Y-133117142D01*
X112637142Y-141107619D02*
X112684761Y-141060000D01*
X112780000Y-141012380D01*
X113018095Y-141012380D01*
X113113333Y-141060000D01*
X113160952Y-141107619D01*
X113208571Y-141202857D01*
X113208571Y-141298095D01*
X113160952Y-141440952D01*
X112589523Y-142012380D01*
X113208571Y-142012380D01*
X113589523Y-141107619D02*
X113637142Y-141060000D01*
X113732380Y-141012380D01*
X113970476Y-141012380D01*
X114065714Y-141060000D01*
X114113333Y-141107619D01*
X114160952Y-141202857D01*
X114160952Y-141298095D01*
X114113333Y-141440952D01*
X113541904Y-142012380D01*
X114160952Y-142012380D01*
X115018095Y-141345714D02*
X115018095Y-142012380D01*
X114589523Y-141345714D02*
X114589523Y-141869523D01*
X114637142Y-141964761D01*
X114732380Y-142012380D01*
X114875238Y-142012380D01*
X114970476Y-141964761D01*
X115018095Y-141917142D01*
X115827619Y-141488571D02*
X115494285Y-141488571D01*
X115494285Y-142012380D02*
X115494285Y-141012380D01*
X115970476Y-141012380D01*
X123007380Y-117006666D02*
X122531190Y-117340000D01*
X123007380Y-117578095D02*
X122007380Y-117578095D01*
X122007380Y-117197142D01*
X122055000Y-117101904D01*
X122102619Y-117054285D01*
X122197857Y-117006666D01*
X122340714Y-117006666D01*
X122435952Y-117054285D01*
X122483571Y-117101904D01*
X122531190Y-117197142D01*
X122531190Y-117578095D01*
X123007380Y-116530476D02*
X123007380Y-116340000D01*
X122959761Y-116244761D01*
X122912142Y-116197142D01*
X122769285Y-116101904D01*
X122578809Y-116054285D01*
X122197857Y-116054285D01*
X122102619Y-116101904D01*
X122055000Y-116149523D01*
X122007380Y-116244761D01*
X122007380Y-116435238D01*
X122055000Y-116530476D01*
X122102619Y-116578095D01*
X122197857Y-116625714D01*
X122435952Y-116625714D01*
X122531190Y-116578095D01*
X122578809Y-116530476D01*
X122626428Y-116435238D01*
X122626428Y-116244761D01*
X122578809Y-116149523D01*
X122531190Y-116101904D01*
X122435952Y-116054285D01*
X121070714Y-117601904D02*
X121737380Y-117601904D01*
X120689761Y-117840000D02*
X121404047Y-118078095D01*
X121404047Y-117459047D01*
X120737380Y-117173333D02*
X120737380Y-116506666D01*
X121737380Y-116935238D01*
X120737380Y-115935238D02*
X120737380Y-115840000D01*
X120785000Y-115744761D01*
X120832619Y-115697142D01*
X120927857Y-115649523D01*
X121118333Y-115601904D01*
X121356428Y-115601904D01*
X121546904Y-115649523D01*
X121642142Y-115697142D01*
X121689761Y-115744761D01*
X121737380Y-115840000D01*
X121737380Y-115935238D01*
X121689761Y-116030476D01*
X121642142Y-116078095D01*
X121546904Y-116125714D01*
X121356428Y-116173333D01*
X121118333Y-116173333D01*
X120927857Y-116125714D01*
X120832619Y-116078095D01*
X120785000Y-116030476D01*
X120737380Y-115935238D01*
X124277380Y-117006666D02*
X123801190Y-117340000D01*
X124277380Y-117578095D02*
X123277380Y-117578095D01*
X123277380Y-117197142D01*
X123325000Y-117101904D01*
X123372619Y-117054285D01*
X123467857Y-117006666D01*
X123610714Y-117006666D01*
X123705952Y-117054285D01*
X123753571Y-117101904D01*
X123801190Y-117197142D01*
X123801190Y-117578095D01*
X123705952Y-116435238D02*
X123658333Y-116530476D01*
X123610714Y-116578095D01*
X123515476Y-116625714D01*
X123467857Y-116625714D01*
X123372619Y-116578095D01*
X123325000Y-116530476D01*
X123277380Y-116435238D01*
X123277380Y-116244761D01*
X123325000Y-116149523D01*
X123372619Y-116101904D01*
X123467857Y-116054285D01*
X123515476Y-116054285D01*
X123610714Y-116101904D01*
X123658333Y-116149523D01*
X123705952Y-116244761D01*
X123705952Y-116435238D01*
X123753571Y-116530476D01*
X123801190Y-116578095D01*
X123896428Y-116625714D01*
X124086904Y-116625714D01*
X124182142Y-116578095D01*
X124229761Y-116530476D01*
X124277380Y-116435238D01*
X124277380Y-116244761D01*
X124229761Y-116149523D01*
X124182142Y-116101904D01*
X124086904Y-116054285D01*
X123896428Y-116054285D01*
X123801190Y-116101904D01*
X123753571Y-116149523D01*
X123705952Y-116244761D01*
X125547380Y-117435238D02*
X125547380Y-118006666D01*
X125547380Y-117720952D02*
X124547380Y-117720952D01*
X124690238Y-117816190D01*
X124785476Y-117911428D01*
X124833095Y-118006666D01*
X124547380Y-116816190D02*
X124547380Y-116720952D01*
X124595000Y-116625714D01*
X124642619Y-116578095D01*
X124737857Y-116530476D01*
X124928333Y-116482857D01*
X125166428Y-116482857D01*
X125356904Y-116530476D01*
X125452142Y-116578095D01*
X125499761Y-116625714D01*
X125547380Y-116720952D01*
X125547380Y-116816190D01*
X125499761Y-116911428D01*
X125452142Y-116959047D01*
X125356904Y-117006666D01*
X125166428Y-117054285D01*
X124928333Y-117054285D01*
X124737857Y-117006666D01*
X124642619Y-116959047D01*
X124595000Y-116911428D01*
X124547380Y-116816190D01*
X125547380Y-116054285D02*
X124547380Y-116054285D01*
X125166428Y-115959047D02*
X125547380Y-115673333D01*
X124880714Y-115673333D02*
X125261666Y-116054285D01*
X62722380Y-140033333D02*
X63436666Y-140033333D01*
X63579523Y-140080952D01*
X63674761Y-140176190D01*
X63722380Y-140319047D01*
X63722380Y-140414285D01*
X62722380Y-139652380D02*
X62722380Y-139033333D01*
X63103333Y-139366666D01*
X63103333Y-139223809D01*
X63150952Y-139128571D01*
X63198571Y-139080952D01*
X63293809Y-139033333D01*
X63531904Y-139033333D01*
X63627142Y-139080952D01*
X63674761Y-139128571D01*
X63722380Y-139223809D01*
X63722380Y-139509523D01*
X63674761Y-139604761D01*
X63627142Y-139652380D01*
X84907380Y-109386666D02*
X84431190Y-109720000D01*
X84907380Y-109958095D02*
X83907380Y-109958095D01*
X83907380Y-109577142D01*
X83955000Y-109481904D01*
X84002619Y-109434285D01*
X84097857Y-109386666D01*
X84240714Y-109386666D01*
X84335952Y-109434285D01*
X84383571Y-109481904D01*
X84431190Y-109577142D01*
X84431190Y-109958095D01*
X83907380Y-108529523D02*
X83907380Y-108720000D01*
X83955000Y-108815238D01*
X84002619Y-108862857D01*
X84145476Y-108958095D01*
X84335952Y-109005714D01*
X84716904Y-109005714D01*
X84812142Y-108958095D01*
X84859761Y-108910476D01*
X84907380Y-108815238D01*
X84907380Y-108624761D01*
X84859761Y-108529523D01*
X84812142Y-108481904D01*
X84716904Y-108434285D01*
X84478809Y-108434285D01*
X84383571Y-108481904D01*
X84335952Y-108529523D01*
X84288333Y-108624761D01*
X84288333Y-108815238D01*
X84335952Y-108910476D01*
X84383571Y-108958095D01*
X84478809Y-109005714D01*
X83637380Y-110648571D02*
X83161190Y-110981904D01*
X83637380Y-111220000D02*
X82637380Y-111220000D01*
X82637380Y-110839047D01*
X82685000Y-110743809D01*
X82732619Y-110696190D01*
X82827857Y-110648571D01*
X82970714Y-110648571D01*
X83065952Y-110696190D01*
X83113571Y-110743809D01*
X83161190Y-110839047D01*
X83161190Y-111220000D01*
X83732619Y-110458095D02*
X83732619Y-109696190D01*
X83637380Y-108981904D02*
X83637380Y-109458095D01*
X82637380Y-109458095D01*
X83113571Y-108648571D02*
X83113571Y-108315238D01*
X83637380Y-108172380D02*
X83637380Y-108648571D01*
X82637380Y-108648571D01*
X82637380Y-108172380D01*
X83637380Y-107743809D02*
X82637380Y-107743809D01*
X82637380Y-107505714D01*
X82685000Y-107362857D01*
X82780238Y-107267619D01*
X82875476Y-107220000D01*
X83065952Y-107172380D01*
X83208809Y-107172380D01*
X83399285Y-107220000D01*
X83494523Y-107267619D01*
X83589761Y-107362857D01*
X83637380Y-107505714D01*
X83637380Y-107743809D01*
X101666666Y-127714285D02*
X101666666Y-127238095D01*
X101952380Y-127809523D02*
X100952380Y-127476190D01*
X101952380Y-127142857D01*
X101952380Y-126285714D02*
X101952380Y-126857142D01*
X101952380Y-126571428D02*
X100952380Y-126571428D01*
X101095238Y-126666666D01*
X101190476Y-126761904D01*
X101238095Y-126857142D01*
X107767380Y-109386666D02*
X107291190Y-109720000D01*
X107767380Y-109958095D02*
X106767380Y-109958095D01*
X106767380Y-109577142D01*
X106815000Y-109481904D01*
X106862619Y-109434285D01*
X106957857Y-109386666D01*
X107100714Y-109386666D01*
X107195952Y-109434285D01*
X107243571Y-109481904D01*
X107291190Y-109577142D01*
X107291190Y-109958095D01*
X107767380Y-108434285D02*
X107767380Y-109005714D01*
X107767380Y-108720000D02*
X106767380Y-108720000D01*
X106910238Y-108815238D01*
X107005476Y-108910476D01*
X107053095Y-109005714D01*
X106497380Y-110648571D02*
X106021190Y-110981904D01*
X106497380Y-111220000D02*
X105497380Y-111220000D01*
X105497380Y-110839047D01*
X105545000Y-110743809D01*
X105592619Y-110696190D01*
X105687857Y-110648571D01*
X105830714Y-110648571D01*
X105925952Y-110696190D01*
X105973571Y-110743809D01*
X106021190Y-110839047D01*
X106021190Y-111220000D01*
X106592619Y-110458095D02*
X106592619Y-109696190D01*
X106497380Y-108981904D02*
X106497380Y-109458095D01*
X105497380Y-109458095D01*
X105973571Y-108648571D02*
X105973571Y-108315238D01*
X106497380Y-108172380D02*
X106497380Y-108648571D01*
X105497380Y-108648571D01*
X105497380Y-108172380D01*
X106497380Y-107743809D02*
X105497380Y-107743809D01*
X105497380Y-107505714D01*
X105545000Y-107362857D01*
X105640238Y-107267619D01*
X105735476Y-107220000D01*
X105925952Y-107172380D01*
X106068809Y-107172380D01*
X106259285Y-107220000D01*
X106354523Y-107267619D01*
X106449761Y-107362857D01*
X106497380Y-107505714D01*
X106497380Y-107743809D01*
X129373333Y-152217380D02*
X129040000Y-151741190D01*
X128801904Y-152217380D02*
X128801904Y-151217380D01*
X129182857Y-151217380D01*
X129278095Y-151265000D01*
X129325714Y-151312619D01*
X129373333Y-151407857D01*
X129373333Y-151550714D01*
X129325714Y-151645952D01*
X129278095Y-151693571D01*
X129182857Y-151741190D01*
X128801904Y-151741190D01*
X129706666Y-151217380D02*
X130373333Y-151217380D01*
X129944761Y-152217380D01*
X128301904Y-152582619D02*
X128349523Y-152535000D01*
X128444761Y-152487380D01*
X128682857Y-152487380D01*
X128778095Y-152535000D01*
X128825714Y-152582619D01*
X128873333Y-152677857D01*
X128873333Y-152773095D01*
X128825714Y-152915952D01*
X128254285Y-153487380D01*
X128873333Y-153487380D01*
X129254285Y-152582619D02*
X129301904Y-152535000D01*
X129397142Y-152487380D01*
X129635238Y-152487380D01*
X129730476Y-152535000D01*
X129778095Y-152582619D01*
X129825714Y-152677857D01*
X129825714Y-152773095D01*
X129778095Y-152915952D01*
X129206666Y-153487380D01*
X129825714Y-153487380D01*
X130444761Y-152487380D02*
X130540000Y-152487380D01*
X130635238Y-152535000D01*
X130682857Y-152582619D01*
X130730476Y-152677857D01*
X130778095Y-152868333D01*
X130778095Y-153106428D01*
X130730476Y-153296904D01*
X130682857Y-153392142D01*
X130635238Y-153439761D01*
X130540000Y-153487380D01*
X130444761Y-153487380D01*
X130349523Y-153439761D01*
X130301904Y-153392142D01*
X130254285Y-153296904D01*
X130206666Y-153106428D01*
X130206666Y-152868333D01*
X130254285Y-152677857D01*
X130301904Y-152582619D01*
X130349523Y-152535000D01*
X130444761Y-152487380D01*
X83177142Y-147137380D02*
X82843809Y-146661190D01*
X82605714Y-147137380D02*
X82605714Y-146137380D01*
X82986666Y-146137380D01*
X83081904Y-146185000D01*
X83129523Y-146232619D01*
X83177142Y-146327857D01*
X83177142Y-146470714D01*
X83129523Y-146565952D01*
X83081904Y-146613571D01*
X82986666Y-146661190D01*
X82605714Y-146661190D01*
X84129523Y-147137380D02*
X83558095Y-147137380D01*
X83843809Y-147137380D02*
X83843809Y-146137380D01*
X83748571Y-146280238D01*
X83653333Y-146375476D01*
X83558095Y-146423095D01*
X84748571Y-146137380D02*
X84843809Y-146137380D01*
X84939047Y-146185000D01*
X84986666Y-146232619D01*
X85034285Y-146327857D01*
X85081904Y-146518333D01*
X85081904Y-146756428D01*
X85034285Y-146946904D01*
X84986666Y-147042142D01*
X84939047Y-147089761D01*
X84843809Y-147137380D01*
X84748571Y-147137380D01*
X84653333Y-147089761D01*
X84605714Y-147042142D01*
X84558095Y-146946904D01*
X84510476Y-146756428D01*
X84510476Y-146518333D01*
X84558095Y-146327857D01*
X84605714Y-146232619D01*
X84653333Y-146185000D01*
X84748571Y-146137380D01*
X82581904Y-147502619D02*
X82629523Y-147455000D01*
X82724761Y-147407380D01*
X82962857Y-147407380D01*
X83058095Y-147455000D01*
X83105714Y-147502619D01*
X83153333Y-147597857D01*
X83153333Y-147693095D01*
X83105714Y-147835952D01*
X82534285Y-148407380D01*
X83153333Y-148407380D01*
X83534285Y-147502619D02*
X83581904Y-147455000D01*
X83677142Y-147407380D01*
X83915238Y-147407380D01*
X84010476Y-147455000D01*
X84058095Y-147502619D01*
X84105714Y-147597857D01*
X84105714Y-147693095D01*
X84058095Y-147835952D01*
X83486666Y-148407380D01*
X84105714Y-148407380D01*
X84724761Y-147407380D02*
X84820000Y-147407380D01*
X84915238Y-147455000D01*
X84962857Y-147502619D01*
X85010476Y-147597857D01*
X85058095Y-147788333D01*
X85058095Y-148026428D01*
X85010476Y-148216904D01*
X84962857Y-148312142D01*
X84915238Y-148359761D01*
X84820000Y-148407380D01*
X84724761Y-148407380D01*
X84629523Y-148359761D01*
X84581904Y-148312142D01*
X84534285Y-148216904D01*
X84486666Y-148026428D01*
X84486666Y-147788333D01*
X84534285Y-147597857D01*
X84581904Y-147502619D01*
X84629523Y-147455000D01*
X84724761Y-147407380D01*
X107202380Y-130278095D02*
X106202380Y-130278095D01*
X106202380Y-130040000D01*
X106250000Y-129897142D01*
X106345238Y-129801904D01*
X106440476Y-129754285D01*
X106630952Y-129706666D01*
X106773809Y-129706666D01*
X106964285Y-129754285D01*
X107059523Y-129801904D01*
X107154761Y-129897142D01*
X107202380Y-130040000D01*
X107202380Y-130278095D01*
X106630952Y-129135238D02*
X106583333Y-129230476D01*
X106535714Y-129278095D01*
X106440476Y-129325714D01*
X106392857Y-129325714D01*
X106297619Y-129278095D01*
X106250000Y-129230476D01*
X106202380Y-129135238D01*
X106202380Y-128944761D01*
X106250000Y-128849523D01*
X106297619Y-128801904D01*
X106392857Y-128754285D01*
X106440476Y-128754285D01*
X106535714Y-128801904D01*
X106583333Y-128849523D01*
X106630952Y-128944761D01*
X106630952Y-129135238D01*
X106678571Y-129230476D01*
X106726190Y-129278095D01*
X106821428Y-129325714D01*
X107011904Y-129325714D01*
X107107142Y-129278095D01*
X107154761Y-129230476D01*
X107202380Y-129135238D01*
X107202380Y-128944761D01*
X107154761Y-128849523D01*
X107107142Y-128801904D01*
X107011904Y-128754285D01*
X106821428Y-128754285D01*
X106726190Y-128801904D01*
X106678571Y-128849523D01*
X106630952Y-128944761D01*
X107572380Y-134881904D02*
X106572380Y-134881904D01*
X107572380Y-134310476D02*
X107000952Y-134739047D01*
X106572380Y-134310476D02*
X107143809Y-134881904D01*
X83177142Y-144597380D02*
X82843809Y-144121190D01*
X82605714Y-144597380D02*
X82605714Y-143597380D01*
X82986666Y-143597380D01*
X83081904Y-143645000D01*
X83129523Y-143692619D01*
X83177142Y-143787857D01*
X83177142Y-143930714D01*
X83129523Y-144025952D01*
X83081904Y-144073571D01*
X82986666Y-144121190D01*
X82605714Y-144121190D01*
X84129523Y-144597380D02*
X83558095Y-144597380D01*
X83843809Y-144597380D02*
X83843809Y-143597380D01*
X83748571Y-143740238D01*
X83653333Y-143835476D01*
X83558095Y-143883095D01*
X85081904Y-144597380D02*
X84510476Y-144597380D01*
X84796190Y-144597380D02*
X84796190Y-143597380D01*
X84700952Y-143740238D01*
X84605714Y-143835476D01*
X84510476Y-143883095D01*
X82581904Y-144962619D02*
X82629523Y-144915000D01*
X82724761Y-144867380D01*
X82962857Y-144867380D01*
X83058095Y-144915000D01*
X83105714Y-144962619D01*
X83153333Y-145057857D01*
X83153333Y-145153095D01*
X83105714Y-145295952D01*
X82534285Y-145867380D01*
X83153333Y-145867380D01*
X83534285Y-144962619D02*
X83581904Y-144915000D01*
X83677142Y-144867380D01*
X83915238Y-144867380D01*
X84010476Y-144915000D01*
X84058095Y-144962619D01*
X84105714Y-145057857D01*
X84105714Y-145153095D01*
X84058095Y-145295952D01*
X83486666Y-145867380D01*
X84105714Y-145867380D01*
X84724761Y-144867380D02*
X84820000Y-144867380D01*
X84915238Y-144915000D01*
X84962857Y-144962619D01*
X85010476Y-145057857D01*
X85058095Y-145248333D01*
X85058095Y-145486428D01*
X85010476Y-145676904D01*
X84962857Y-145772142D01*
X84915238Y-145819761D01*
X84820000Y-145867380D01*
X84724761Y-145867380D01*
X84629523Y-145819761D01*
X84581904Y-145772142D01*
X84534285Y-145676904D01*
X84486666Y-145486428D01*
X84486666Y-145248333D01*
X84534285Y-145057857D01*
X84581904Y-144962619D01*
X84629523Y-144915000D01*
X84724761Y-144867380D01*
X119412380Y-129008095D02*
X118412380Y-129008095D01*
X118412380Y-128770000D01*
X118460000Y-128627142D01*
X118555238Y-128531904D01*
X118650476Y-128484285D01*
X118840952Y-128436666D01*
X118983809Y-128436666D01*
X119174285Y-128484285D01*
X119269523Y-128531904D01*
X119364761Y-128627142D01*
X119412380Y-128770000D01*
X119412380Y-129008095D01*
X118412380Y-128103333D02*
X118412380Y-127436666D01*
X119412380Y-127865238D01*
X119092380Y-124721904D02*
X118092380Y-124721904D01*
X119092380Y-124150476D02*
X118520952Y-124579047D01*
X118092380Y-124150476D02*
X118663809Y-124721904D01*
X87447380Y-109386666D02*
X86971190Y-109720000D01*
X87447380Y-109958095D02*
X86447380Y-109958095D01*
X86447380Y-109577142D01*
X86495000Y-109481904D01*
X86542619Y-109434285D01*
X86637857Y-109386666D01*
X86780714Y-109386666D01*
X86875952Y-109434285D01*
X86923571Y-109481904D01*
X86971190Y-109577142D01*
X86971190Y-109958095D01*
X86447380Y-108481904D02*
X86447380Y-108958095D01*
X86923571Y-109005714D01*
X86875952Y-108958095D01*
X86828333Y-108862857D01*
X86828333Y-108624761D01*
X86875952Y-108529523D01*
X86923571Y-108481904D01*
X87018809Y-108434285D01*
X87256904Y-108434285D01*
X87352142Y-108481904D01*
X87399761Y-108529523D01*
X87447380Y-108624761D01*
X87447380Y-108862857D01*
X87399761Y-108958095D01*
X87352142Y-109005714D01*
X86177380Y-110648571D02*
X85701190Y-110981904D01*
X86177380Y-111220000D02*
X85177380Y-111220000D01*
X85177380Y-110839047D01*
X85225000Y-110743809D01*
X85272619Y-110696190D01*
X85367857Y-110648571D01*
X85510714Y-110648571D01*
X85605952Y-110696190D01*
X85653571Y-110743809D01*
X85701190Y-110839047D01*
X85701190Y-111220000D01*
X86272619Y-110458095D02*
X86272619Y-109696190D01*
X86177380Y-108981904D02*
X86177380Y-109458095D01*
X85177380Y-109458095D01*
X85653571Y-108648571D02*
X85653571Y-108315238D01*
X86177380Y-108172380D02*
X86177380Y-108648571D01*
X85177380Y-108648571D01*
X85177380Y-108172380D01*
X86177380Y-107743809D02*
X85177380Y-107743809D01*
X85177380Y-107505714D01*
X85225000Y-107362857D01*
X85320238Y-107267619D01*
X85415476Y-107220000D01*
X85605952Y-107172380D01*
X85748809Y-107172380D01*
X85939285Y-107220000D01*
X86034523Y-107267619D01*
X86129761Y-107362857D01*
X86177380Y-107505714D01*
X86177380Y-107743809D01*
X102687380Y-109386666D02*
X102211190Y-109720000D01*
X102687380Y-109958095D02*
X101687380Y-109958095D01*
X101687380Y-109577142D01*
X101735000Y-109481904D01*
X101782619Y-109434285D01*
X101877857Y-109386666D01*
X102020714Y-109386666D01*
X102115952Y-109434285D01*
X102163571Y-109481904D01*
X102211190Y-109577142D01*
X102211190Y-109958095D01*
X101687380Y-109053333D02*
X101687380Y-108434285D01*
X102068333Y-108767619D01*
X102068333Y-108624761D01*
X102115952Y-108529523D01*
X102163571Y-108481904D01*
X102258809Y-108434285D01*
X102496904Y-108434285D01*
X102592142Y-108481904D01*
X102639761Y-108529523D01*
X102687380Y-108624761D01*
X102687380Y-108910476D01*
X102639761Y-109005714D01*
X102592142Y-109053333D01*
X101417380Y-110648571D02*
X100941190Y-110981904D01*
X101417380Y-111220000D02*
X100417380Y-111220000D01*
X100417380Y-110839047D01*
X100465000Y-110743809D01*
X100512619Y-110696190D01*
X100607857Y-110648571D01*
X100750714Y-110648571D01*
X100845952Y-110696190D01*
X100893571Y-110743809D01*
X100941190Y-110839047D01*
X100941190Y-111220000D01*
X101512619Y-110458095D02*
X101512619Y-109696190D01*
X101417380Y-108981904D02*
X101417380Y-109458095D01*
X100417380Y-109458095D01*
X100893571Y-108648571D02*
X100893571Y-108315238D01*
X101417380Y-108172380D02*
X101417380Y-108648571D01*
X100417380Y-108648571D01*
X100417380Y-108172380D01*
X101417380Y-107743809D02*
X100417380Y-107743809D01*
X100417380Y-107505714D01*
X100465000Y-107362857D01*
X100560238Y-107267619D01*
X100655476Y-107220000D01*
X100845952Y-107172380D01*
X100988809Y-107172380D01*
X101179285Y-107220000D01*
X101274523Y-107267619D01*
X101369761Y-107362857D01*
X101417380Y-107505714D01*
X101417380Y-107743809D01*
X62722380Y-119713333D02*
X63436666Y-119713333D01*
X63579523Y-119760952D01*
X63674761Y-119856190D01*
X63722380Y-119999047D01*
X63722380Y-120094285D01*
X63055714Y-118808571D02*
X63722380Y-118808571D01*
X62674761Y-119046666D02*
X63389047Y-119284761D01*
X63389047Y-118665714D01*
X105227380Y-109386666D02*
X104751190Y-109720000D01*
X105227380Y-109958095D02*
X104227380Y-109958095D01*
X104227380Y-109577142D01*
X104275000Y-109481904D01*
X104322619Y-109434285D01*
X104417857Y-109386666D01*
X104560714Y-109386666D01*
X104655952Y-109434285D01*
X104703571Y-109481904D01*
X104751190Y-109577142D01*
X104751190Y-109958095D01*
X104322619Y-109005714D02*
X104275000Y-108958095D01*
X104227380Y-108862857D01*
X104227380Y-108624761D01*
X104275000Y-108529523D01*
X104322619Y-108481904D01*
X104417857Y-108434285D01*
X104513095Y-108434285D01*
X104655952Y-108481904D01*
X105227380Y-109053333D01*
X105227380Y-108434285D01*
X103957380Y-110648571D02*
X103481190Y-110981904D01*
X103957380Y-111220000D02*
X102957380Y-111220000D01*
X102957380Y-110839047D01*
X103005000Y-110743809D01*
X103052619Y-110696190D01*
X103147857Y-110648571D01*
X103290714Y-110648571D01*
X103385952Y-110696190D01*
X103433571Y-110743809D01*
X103481190Y-110839047D01*
X103481190Y-111220000D01*
X104052619Y-110458095D02*
X104052619Y-109696190D01*
X103957380Y-108981904D02*
X103957380Y-109458095D01*
X102957380Y-109458095D01*
X103433571Y-108648571D02*
X103433571Y-108315238D01*
X103957380Y-108172380D02*
X103957380Y-108648571D01*
X102957380Y-108648571D01*
X102957380Y-108172380D01*
X103957380Y-107743809D02*
X102957380Y-107743809D01*
X102957380Y-107505714D01*
X103005000Y-107362857D01*
X103100238Y-107267619D01*
X103195476Y-107220000D01*
X103385952Y-107172380D01*
X103528809Y-107172380D01*
X103719285Y-107220000D01*
X103814523Y-107267619D01*
X103909761Y-107362857D01*
X103957380Y-107505714D01*
X103957380Y-107743809D01*
X89987380Y-109386666D02*
X89511190Y-109720000D01*
X89987380Y-109958095D02*
X88987380Y-109958095D01*
X88987380Y-109577142D01*
X89035000Y-109481904D01*
X89082619Y-109434285D01*
X89177857Y-109386666D01*
X89320714Y-109386666D01*
X89415952Y-109434285D01*
X89463571Y-109481904D01*
X89511190Y-109577142D01*
X89511190Y-109958095D01*
X89320714Y-108529523D02*
X89987380Y-108529523D01*
X88939761Y-108767619D02*
X89654047Y-109005714D01*
X89654047Y-108386666D01*
X88717380Y-110648571D02*
X88241190Y-110981904D01*
X88717380Y-111220000D02*
X87717380Y-111220000D01*
X87717380Y-110839047D01*
X87765000Y-110743809D01*
X87812619Y-110696190D01*
X87907857Y-110648571D01*
X88050714Y-110648571D01*
X88145952Y-110696190D01*
X88193571Y-110743809D01*
X88241190Y-110839047D01*
X88241190Y-111220000D01*
X88812619Y-110458095D02*
X88812619Y-109696190D01*
X88717380Y-108981904D02*
X88717380Y-109458095D01*
X87717380Y-109458095D01*
X88193571Y-108648571D02*
X88193571Y-108315238D01*
X88717380Y-108172380D02*
X88717380Y-108648571D01*
X87717380Y-108648571D01*
X87717380Y-108172380D01*
X88717380Y-107743809D02*
X87717380Y-107743809D01*
X87717380Y-107505714D01*
X87765000Y-107362857D01*
X87860238Y-107267619D01*
X87955476Y-107220000D01*
X88145952Y-107172380D01*
X88288809Y-107172380D01*
X88479285Y-107220000D01*
X88574523Y-107267619D01*
X88669761Y-107362857D01*
X88717380Y-107505714D01*
X88717380Y-107743809D01*
X114808095Y-108882380D02*
X114808095Y-109691904D01*
X114855714Y-109787142D01*
X114903333Y-109834761D01*
X114998571Y-109882380D01*
X115189047Y-109882380D01*
X115284285Y-109834761D01*
X115331904Y-109787142D01*
X115379523Y-109691904D01*
X115379523Y-108882380D01*
X116379523Y-109882380D02*
X115808095Y-109882380D01*
X116093809Y-109882380D02*
X116093809Y-108882380D01*
X115998571Y-109025238D01*
X115903333Y-109120476D01*
X115808095Y-109168095D01*
X79224285Y-105973571D02*
X79367142Y-106021190D01*
X79414761Y-106068809D01*
X79462380Y-106164047D01*
X79462380Y-106306904D01*
X79414761Y-106402142D01*
X79367142Y-106449761D01*
X79271904Y-106497380D01*
X78890952Y-106497380D01*
X78890952Y-105497380D01*
X79224285Y-105497380D01*
X79319523Y-105545000D01*
X79367142Y-105592619D01*
X79414761Y-105687857D01*
X79414761Y-105783095D01*
X79367142Y-105878333D01*
X79319523Y-105925952D01*
X79224285Y-105973571D01*
X78890952Y-105973571D01*
X79748095Y-105497380D02*
X80319523Y-105497380D01*
X80033809Y-106497380D02*
X80033809Y-105497380D01*
X81176666Y-106497380D02*
X80605238Y-106497380D01*
X80890952Y-106497380D02*
X80890952Y-105497380D01*
X80795714Y-105640238D01*
X80700476Y-105735476D01*
X80605238Y-105783095D01*
X71588571Y-110418571D02*
X71731428Y-110466190D01*
X71779047Y-110513809D01*
X71826666Y-110609047D01*
X71826666Y-110751904D01*
X71779047Y-110847142D01*
X71731428Y-110894761D01*
X71636190Y-110942380D01*
X71255238Y-110942380D01*
X71255238Y-109942380D01*
X71588571Y-109942380D01*
X71683809Y-109990000D01*
X71731428Y-110037619D01*
X71779047Y-110132857D01*
X71779047Y-110228095D01*
X71731428Y-110323333D01*
X71683809Y-110370952D01*
X71588571Y-110418571D01*
X71255238Y-110418571D01*
X72683809Y-110942380D02*
X72683809Y-110418571D01*
X72636190Y-110323333D01*
X72540952Y-110275714D01*
X72350476Y-110275714D01*
X72255238Y-110323333D01*
X72683809Y-110894761D02*
X72588571Y-110942380D01*
X72350476Y-110942380D01*
X72255238Y-110894761D01*
X72207619Y-110799523D01*
X72207619Y-110704285D01*
X72255238Y-110609047D01*
X72350476Y-110561428D01*
X72588571Y-110561428D01*
X72683809Y-110513809D01*
X73017142Y-110275714D02*
X73398095Y-110275714D01*
X73160000Y-109942380D02*
X73160000Y-110799523D01*
X73207619Y-110894761D01*
X73302857Y-110942380D01*
X73398095Y-110942380D01*
X73588571Y-110275714D02*
X73969523Y-110275714D01*
X73731428Y-109942380D02*
X73731428Y-110799523D01*
X73779047Y-110894761D01*
X73874285Y-110942380D01*
X73969523Y-110942380D01*
X74683809Y-110894761D02*
X74588571Y-110942380D01*
X74398095Y-110942380D01*
X74302857Y-110894761D01*
X74255238Y-110799523D01*
X74255238Y-110418571D01*
X74302857Y-110323333D01*
X74398095Y-110275714D01*
X74588571Y-110275714D01*
X74683809Y-110323333D01*
X74731428Y-110418571D01*
X74731428Y-110513809D01*
X74255238Y-110609047D01*
X75160000Y-110942380D02*
X75160000Y-110275714D01*
X75160000Y-110466190D02*
X75207619Y-110370952D01*
X75255238Y-110323333D01*
X75350476Y-110275714D01*
X75445714Y-110275714D01*
X75683809Y-110275714D02*
X75921904Y-110942380D01*
X76160000Y-110275714D02*
X75921904Y-110942380D01*
X75826666Y-111180476D01*
X75779047Y-111228095D01*
X75683809Y-111275714D01*
X98893333Y-143232142D02*
X98845714Y-143279761D01*
X98702857Y-143327380D01*
X98607619Y-143327380D01*
X98464761Y-143279761D01*
X98369523Y-143184523D01*
X98321904Y-143089285D01*
X98274285Y-142898809D01*
X98274285Y-142755952D01*
X98321904Y-142565476D01*
X98369523Y-142470238D01*
X98464761Y-142375000D01*
X98607619Y-142327380D01*
X98702857Y-142327380D01*
X98845714Y-142375000D01*
X98893333Y-142422619D01*
X99845714Y-143327380D02*
X99274285Y-143327380D01*
X99560000Y-143327380D02*
X99560000Y-142327380D01*
X99464761Y-142470238D01*
X99369523Y-142565476D01*
X99274285Y-142613095D01*
X93587142Y-148965714D02*
X93587142Y-149632380D01*
X93349047Y-148584761D02*
X93110952Y-149299047D01*
X93730000Y-149299047D01*
X94015714Y-148632380D02*
X94682380Y-148632380D01*
X94253809Y-149632380D01*
X95253809Y-148632380D02*
X95349047Y-148632380D01*
X95444285Y-148680000D01*
X95491904Y-148727619D01*
X95539523Y-148822857D01*
X95587142Y-149013333D01*
X95587142Y-149251428D01*
X95539523Y-149441904D01*
X95491904Y-149537142D01*
X95444285Y-149584761D01*
X95349047Y-149632380D01*
X95253809Y-149632380D01*
X95158571Y-149584761D01*
X95110952Y-149537142D01*
X95063333Y-149441904D01*
X95015714Y-149251428D01*
X95015714Y-149013333D01*
X95063333Y-148822857D01*
X95110952Y-148727619D01*
X95158571Y-148680000D01*
X95253809Y-148632380D01*
X96444285Y-148965714D02*
X96444285Y-149632380D01*
X96015714Y-148965714D02*
X96015714Y-149489523D01*
X96063333Y-149584761D01*
X96158571Y-149632380D01*
X96301428Y-149632380D01*
X96396666Y-149584761D01*
X96444285Y-149537142D01*
X97253809Y-149108571D02*
X96920476Y-149108571D01*
X96920476Y-149632380D02*
X96920476Y-148632380D01*
X97396666Y-148632380D01*
X95063333Y-110257142D02*
X95015714Y-110304761D01*
X94872857Y-110352380D01*
X94777619Y-110352380D01*
X94634761Y-110304761D01*
X94539523Y-110209523D01*
X94491904Y-110114285D01*
X94444285Y-109923809D01*
X94444285Y-109780952D01*
X94491904Y-109590476D01*
X94539523Y-109495238D01*
X94634761Y-109400000D01*
X94777619Y-109352380D01*
X94872857Y-109352380D01*
X95015714Y-109400000D01*
X95063333Y-109447619D01*
X95396666Y-109352380D02*
X96015714Y-109352380D01*
X95682380Y-109733333D01*
X95825238Y-109733333D01*
X95920476Y-109780952D01*
X95968095Y-109828571D01*
X96015714Y-109923809D01*
X96015714Y-110161904D01*
X95968095Y-110257142D01*
X95920476Y-110304761D01*
X95825238Y-110352380D01*
X95539523Y-110352380D01*
X95444285Y-110304761D01*
X95396666Y-110257142D01*
X93607142Y-107735714D02*
X93607142Y-108402380D01*
X93369047Y-107354761D02*
X93130952Y-108069047D01*
X93750000Y-108069047D01*
X94035714Y-107402380D02*
X94702380Y-107402380D01*
X94273809Y-108402380D01*
X95273809Y-107402380D02*
X95369047Y-107402380D01*
X95464285Y-107450000D01*
X95511904Y-107497619D01*
X95559523Y-107592857D01*
X95607142Y-107783333D01*
X95607142Y-108021428D01*
X95559523Y-108211904D01*
X95511904Y-108307142D01*
X95464285Y-108354761D01*
X95369047Y-108402380D01*
X95273809Y-108402380D01*
X95178571Y-108354761D01*
X95130952Y-108307142D01*
X95083333Y-108211904D01*
X95035714Y-108021428D01*
X95035714Y-107783333D01*
X95083333Y-107592857D01*
X95130952Y-107497619D01*
X95178571Y-107450000D01*
X95273809Y-107402380D01*
X96464285Y-107735714D02*
X96464285Y-108402380D01*
X96035714Y-107735714D02*
X96035714Y-108259523D01*
X96083333Y-108354761D01*
X96178571Y-108402380D01*
X96321428Y-108402380D01*
X96416666Y-108354761D01*
X96464285Y-108307142D01*
X97273809Y-107878571D02*
X96940476Y-107878571D01*
X96940476Y-108402380D02*
X96940476Y-107402380D01*
X97416666Y-107402380D01*
X67937142Y-114117380D02*
X67603809Y-113641190D01*
X67365714Y-114117380D02*
X67365714Y-113117380D01*
X67746666Y-113117380D01*
X67841904Y-113165000D01*
X67889523Y-113212619D01*
X67937142Y-113307857D01*
X67937142Y-113450714D01*
X67889523Y-113545952D01*
X67841904Y-113593571D01*
X67746666Y-113641190D01*
X67365714Y-113641190D01*
X68889523Y-114117380D02*
X68318095Y-114117380D01*
X68603809Y-114117380D02*
X68603809Y-113117380D01*
X68508571Y-113260238D01*
X68413333Y-113355476D01*
X68318095Y-113403095D01*
X69746666Y-113450714D02*
X69746666Y-114117380D01*
X69508571Y-113069761D02*
X69270476Y-113784047D01*
X69889523Y-113784047D01*
X67341904Y-114482619D02*
X67389523Y-114435000D01*
X67484761Y-114387380D01*
X67722857Y-114387380D01*
X67818095Y-114435000D01*
X67865714Y-114482619D01*
X67913333Y-114577857D01*
X67913333Y-114673095D01*
X67865714Y-114815952D01*
X67294285Y-115387380D01*
X67913333Y-115387380D01*
X68246666Y-114387380D02*
X68913333Y-114387380D01*
X68484761Y-115387380D01*
X69484761Y-114387380D02*
X69580000Y-114387380D01*
X69675238Y-114435000D01*
X69722857Y-114482619D01*
X69770476Y-114577857D01*
X69818095Y-114768333D01*
X69818095Y-115006428D01*
X69770476Y-115196904D01*
X69722857Y-115292142D01*
X69675238Y-115339761D01*
X69580000Y-115387380D01*
X69484761Y-115387380D01*
X69389523Y-115339761D01*
X69341904Y-115292142D01*
X69294285Y-115196904D01*
X69246666Y-115006428D01*
X69246666Y-114768333D01*
X69294285Y-114577857D01*
X69341904Y-114482619D01*
X69389523Y-114435000D01*
X69484761Y-114387380D01*
X133952380Y-104333333D02*
X134666666Y-104333333D01*
X134809523Y-104380952D01*
X134904761Y-104476190D01*
X134952380Y-104619047D01*
X134952380Y-104714285D01*
X134380952Y-103714285D02*
X134333333Y-103809523D01*
X134285714Y-103857142D01*
X134190476Y-103904761D01*
X134142857Y-103904761D01*
X134047619Y-103857142D01*
X134000000Y-103809523D01*
X133952380Y-103714285D01*
X133952380Y-103523809D01*
X134000000Y-103428571D01*
X134047619Y-103380952D01*
X134142857Y-103333333D01*
X134190476Y-103333333D01*
X134285714Y-103380952D01*
X134333333Y-103428571D01*
X134380952Y-103523809D01*
X134380952Y-103714285D01*
X134428571Y-103809523D01*
X134476190Y-103857142D01*
X134571428Y-103904761D01*
X134761904Y-103904761D01*
X134857142Y-103857142D01*
X134904761Y-103809523D01*
X134952380Y-103714285D01*
X134952380Y-103523809D01*
X134904761Y-103428571D01*
X134857142Y-103380952D01*
X134761904Y-103333333D01*
X134571428Y-103333333D01*
X134476190Y-103380952D01*
X134428571Y-103428571D01*
X134380952Y-103523809D01*
X106452380Y-147653333D02*
X107166666Y-147653333D01*
X107309523Y-147700952D01*
X107404761Y-147796190D01*
X107452380Y-147939047D01*
X107452380Y-148034285D01*
X106452380Y-146700952D02*
X106452380Y-147177142D01*
X106928571Y-147224761D01*
X106880952Y-147177142D01*
X106833333Y-147081904D01*
X106833333Y-146843809D01*
X106880952Y-146748571D01*
X106928571Y-146700952D01*
X107023809Y-146653333D01*
X107261904Y-146653333D01*
X107357142Y-146700952D01*
X107404761Y-146748571D01*
X107452380Y-146843809D01*
X107452380Y-147081904D01*
X107404761Y-147177142D01*
X107357142Y-147224761D01*
X77323333Y-112607142D02*
X77275714Y-112654761D01*
X77132857Y-112702380D01*
X77037619Y-112702380D01*
X76894761Y-112654761D01*
X76799523Y-112559523D01*
X76751904Y-112464285D01*
X76704285Y-112273809D01*
X76704285Y-112130952D01*
X76751904Y-111940476D01*
X76799523Y-111845238D01*
X76894761Y-111750000D01*
X77037619Y-111702380D01*
X77132857Y-111702380D01*
X77275714Y-111750000D01*
X77323333Y-111797619D01*
X77704285Y-111797619D02*
X77751904Y-111750000D01*
X77847142Y-111702380D01*
X78085238Y-111702380D01*
X78180476Y-111750000D01*
X78228095Y-111797619D01*
X78275714Y-111892857D01*
X78275714Y-111988095D01*
X78228095Y-112130952D01*
X77656666Y-112702380D01*
X78275714Y-112702380D01*
X75942380Y-116802380D02*
X75370952Y-116802380D01*
X75656666Y-116802380D02*
X75656666Y-115802380D01*
X75561428Y-115945238D01*
X75466190Y-116040476D01*
X75370952Y-116088095D01*
X76561428Y-115802380D02*
X76656666Y-115802380D01*
X76751904Y-115850000D01*
X76799523Y-115897619D01*
X76847142Y-115992857D01*
X76894761Y-116183333D01*
X76894761Y-116421428D01*
X76847142Y-116611904D01*
X76799523Y-116707142D01*
X76751904Y-116754761D01*
X76656666Y-116802380D01*
X76561428Y-116802380D01*
X76466190Y-116754761D01*
X76418571Y-116707142D01*
X76370952Y-116611904D01*
X76323333Y-116421428D01*
X76323333Y-116183333D01*
X76370952Y-115992857D01*
X76418571Y-115897619D01*
X76466190Y-115850000D01*
X76561428Y-115802380D01*
X77513809Y-115802380D02*
X77609047Y-115802380D01*
X77704285Y-115850000D01*
X77751904Y-115897619D01*
X77799523Y-115992857D01*
X77847142Y-116183333D01*
X77847142Y-116421428D01*
X77799523Y-116611904D01*
X77751904Y-116707142D01*
X77704285Y-116754761D01*
X77609047Y-116802380D01*
X77513809Y-116802380D01*
X77418571Y-116754761D01*
X77370952Y-116707142D01*
X77323333Y-116611904D01*
X77275714Y-116421428D01*
X77275714Y-116183333D01*
X77323333Y-115992857D01*
X77370952Y-115897619D01*
X77418571Y-115850000D01*
X77513809Y-115802380D01*
X78275714Y-116135714D02*
X78275714Y-116802380D01*
X78275714Y-116230952D02*
X78323333Y-116183333D01*
X78418571Y-116135714D01*
X78561428Y-116135714D01*
X78656666Y-116183333D01*
X78704285Y-116278571D01*
X78704285Y-116802380D01*
X79513809Y-116278571D02*
X79180476Y-116278571D01*
X79180476Y-116802380D02*
X79180476Y-115802380D01*
X79656666Y-115802380D01*
M02*
