M48
;DRILL file {KiCad (5.0.1)-3} date 21/03/2019 16:13:15
;FORMAT={-:-/ absolute / metric / decimal}
FMAT,2
METRIC,TZ
T1C0.800
T2C0.900
T3C1.000
T4C1.100
T5C1.200
T6C1.500
%
G90
G05
M71
T1
X90.Y-50.
X90.Y-52.5
X65.Y-47.5
X67.5Y-47.5
X62.738Y-72.5
X72.898Y-72.5
X112.5Y-52.5
X115.Y-52.5
X72.5Y-107.5
X75.Y-107.5
X79.84Y-57.5
X90.Y-57.5
X122.5Y-52.5
X125.Y-52.5
X72.5Y-87.5
X75.Y-87.5
X75.Y-95.12
X75.Y-100.
X90.Y-87.5
X90.Y-90.04
X90.Y-92.58
X90.Y-95.12
X90.Y-97.66
X90.Y-100.2
X90.Y-102.74
X90.Y-105.28
X90.Y-107.82
X90.Y-110.36
X90.Y-112.9
X90.Y-115.44
X90.Y-117.98
X90.Y-120.52
X97.62Y-87.5
X97.62Y-90.04
X97.62Y-92.58
X97.62Y-95.12
X97.62Y-97.66
X97.62Y-100.2
X97.62Y-102.74
X97.62Y-105.28
X97.62Y-107.82
X97.62Y-110.36
X97.62Y-112.9
X97.62Y-115.44
X97.62Y-117.98
X97.62Y-120.52
X97.5Y-47.5
X97.5Y-50.04
X97.5Y-52.58
X97.5Y-55.12
X105.12Y-47.5
X105.12Y-50.04
X105.12Y-52.58
X105.12Y-55.12
X97.536Y-72.5
X107.696Y-72.5
X57.5Y-47.5
X57.5Y-57.66
X47.244Y-72.5
X57.404Y-72.5
X111.76Y-72.5
X121.92Y-72.5
X60.Y-80.
X70.16Y-80.
T2
X95.Y-65.
X97.54Y-65.
X65.Y-65.
X67.54Y-65.
X105.Y-65.
X107.54Y-65.
X85.Y-65.
X87.54Y-65.
X75.Y-65.
X77.54Y-65.
X106.Y-34.
X108.Y-34.
X110.Y-34.
T3
X79.Y-76.
X79.Y-78.5
X79.Y-81.
X122.46Y-120.
X125.Y-120.
X57.5Y-92.5
X57.5Y-95.
X57.5Y-97.5
X122.5Y-35.
X126.5Y-35.
T4
X115.Y-42.5
X125.16Y-42.5
X103.69Y-102.46
X103.69Y-107.54
X111.31Y-102.46
X111.31Y-107.54
X73.69Y-114.96
X73.69Y-120.04
X81.31Y-114.96
X81.31Y-120.04
X103.69Y-87.46
X103.69Y-92.54
X111.31Y-87.46
X111.31Y-92.54
X48.69Y-114.96
X48.69Y-120.04
X56.31Y-114.96
X56.31Y-120.04
X116.19Y-97.46
X116.19Y-102.54
X123.81Y-97.46
X123.81Y-102.54
X61.19Y-114.96
X61.19Y-120.04
X68.81Y-114.96
X68.81Y-120.04
X116.19Y-82.46
X116.19Y-87.54
X123.81Y-82.46
X123.81Y-87.54
T5
X62.5Y-39.834
X65.Y-39.834
X67.5Y-34.828
X70.Y-39.834
X72.5Y-39.834
T6
X103.9Y-34.
X112.1Y-34.
T0
M30
