G04 #@! TF.GenerationSoftware,KiCad,Pcbnew,(5.0.1)-3*
G04 #@! TF.CreationDate,2019-03-21T16:12:42+00:00*
G04 #@! TF.ProjectId,drumkid,6472756D6B69642E6B696361645F7063,v01*
G04 #@! TF.SameCoordinates,Original*
G04 #@! TF.FileFunction,Soldermask,Top*
G04 #@! TF.FilePolarity,Negative*
%FSLAX46Y46*%
G04 Gerber Fmt 4.6, Leading zero omitted, Abs format (unit mm)*
G04 Created by KiCad (PCBNEW (5.0.1)-3) date 21/03/2019 16:12:42*
%MOMM*%
%LPD*%
G01*
G04 APERTURE LIST*
%ADD10C,0.100000*%
G04 APERTURE END LIST*
D10*
G36*
X97786821Y-119681313D02*
X97786824Y-119681314D01*
X97786825Y-119681314D01*
X97947239Y-119729975D01*
X97947241Y-119729976D01*
X97947244Y-119729977D01*
X98095078Y-119808995D01*
X98224659Y-119915341D01*
X98331005Y-120044922D01*
X98410023Y-120192756D01*
X98458687Y-120353179D01*
X98475117Y-120520000D01*
X98458687Y-120686821D01*
X98458686Y-120686824D01*
X98458686Y-120686825D01*
X98413300Y-120836443D01*
X98410023Y-120847244D01*
X98331005Y-120995078D01*
X98224659Y-121124659D01*
X98095078Y-121231005D01*
X97947244Y-121310023D01*
X97947241Y-121310024D01*
X97947239Y-121310025D01*
X97786825Y-121358686D01*
X97786824Y-121358686D01*
X97786821Y-121358687D01*
X97661804Y-121371000D01*
X97578196Y-121371000D01*
X97453179Y-121358687D01*
X97453176Y-121358686D01*
X97453175Y-121358686D01*
X97292761Y-121310025D01*
X97292759Y-121310024D01*
X97292756Y-121310023D01*
X97144922Y-121231005D01*
X97015341Y-121124659D01*
X96908995Y-120995078D01*
X96829977Y-120847244D01*
X96826701Y-120836443D01*
X96781314Y-120686825D01*
X96781314Y-120686824D01*
X96781313Y-120686821D01*
X96764883Y-120520000D01*
X96781313Y-120353179D01*
X96829977Y-120192756D01*
X96908995Y-120044922D01*
X97015341Y-119915341D01*
X97144922Y-119808995D01*
X97292756Y-119729977D01*
X97292759Y-119729976D01*
X97292761Y-119729975D01*
X97453175Y-119681314D01*
X97453176Y-119681314D01*
X97453179Y-119681313D01*
X97578196Y-119669000D01*
X97661804Y-119669000D01*
X97786821Y-119681313D01*
X97786821Y-119681313D01*
G37*
G36*
X90166821Y-119681313D02*
X90166824Y-119681314D01*
X90166825Y-119681314D01*
X90327239Y-119729975D01*
X90327241Y-119729976D01*
X90327244Y-119729977D01*
X90475078Y-119808995D01*
X90604659Y-119915341D01*
X90711005Y-120044922D01*
X90790023Y-120192756D01*
X90838687Y-120353179D01*
X90855117Y-120520000D01*
X90838687Y-120686821D01*
X90838686Y-120686824D01*
X90838686Y-120686825D01*
X90793300Y-120836443D01*
X90790023Y-120847244D01*
X90711005Y-120995078D01*
X90604659Y-121124659D01*
X90475078Y-121231005D01*
X90327244Y-121310023D01*
X90327241Y-121310024D01*
X90327239Y-121310025D01*
X90166825Y-121358686D01*
X90166824Y-121358686D01*
X90166821Y-121358687D01*
X90041804Y-121371000D01*
X89958196Y-121371000D01*
X89833179Y-121358687D01*
X89833176Y-121358686D01*
X89833175Y-121358686D01*
X89672761Y-121310025D01*
X89672759Y-121310024D01*
X89672756Y-121310023D01*
X89524922Y-121231005D01*
X89395341Y-121124659D01*
X89288995Y-120995078D01*
X89209977Y-120847244D01*
X89206701Y-120836443D01*
X89161314Y-120686825D01*
X89161314Y-120686824D01*
X89161313Y-120686821D01*
X89144883Y-120520000D01*
X89161313Y-120353179D01*
X89209977Y-120192756D01*
X89288995Y-120044922D01*
X89395341Y-119915341D01*
X89524922Y-119808995D01*
X89672756Y-119729977D01*
X89672759Y-119729976D01*
X89672761Y-119729975D01*
X89833175Y-119681314D01*
X89833176Y-119681314D01*
X89833179Y-119681313D01*
X89958196Y-119669000D01*
X90041804Y-119669000D01*
X90166821Y-119681313D01*
X90166821Y-119681313D01*
G37*
G36*
X69116565Y-119029389D02*
X69307834Y-119108615D01*
X69479976Y-119223637D01*
X69626363Y-119370024D01*
X69741385Y-119542166D01*
X69820611Y-119733435D01*
X69861000Y-119936484D01*
X69861000Y-120143516D01*
X69820611Y-120346565D01*
X69741385Y-120537834D01*
X69626363Y-120709976D01*
X69479976Y-120856363D01*
X69307834Y-120971385D01*
X69116565Y-121050611D01*
X68913516Y-121091000D01*
X68706484Y-121091000D01*
X68503435Y-121050611D01*
X68312166Y-120971385D01*
X68140024Y-120856363D01*
X67993637Y-120709976D01*
X67878615Y-120537834D01*
X67799389Y-120346565D01*
X67759000Y-120143516D01*
X67759000Y-119936484D01*
X67799389Y-119733435D01*
X67878615Y-119542166D01*
X67993637Y-119370024D01*
X68140024Y-119223637D01*
X68312166Y-119108615D01*
X68503435Y-119029389D01*
X68706484Y-118989000D01*
X68913516Y-118989000D01*
X69116565Y-119029389D01*
X69116565Y-119029389D01*
G37*
G36*
X61496565Y-119029389D02*
X61687834Y-119108615D01*
X61859976Y-119223637D01*
X62006363Y-119370024D01*
X62121385Y-119542166D01*
X62200611Y-119733435D01*
X62241000Y-119936484D01*
X62241000Y-120143516D01*
X62200611Y-120346565D01*
X62121385Y-120537834D01*
X62006363Y-120709976D01*
X61859976Y-120856363D01*
X61687834Y-120971385D01*
X61496565Y-121050611D01*
X61293516Y-121091000D01*
X61086484Y-121091000D01*
X60883435Y-121050611D01*
X60692166Y-120971385D01*
X60520024Y-120856363D01*
X60373637Y-120709976D01*
X60258615Y-120537834D01*
X60179389Y-120346565D01*
X60139000Y-120143516D01*
X60139000Y-119936484D01*
X60179389Y-119733435D01*
X60258615Y-119542166D01*
X60373637Y-119370024D01*
X60520024Y-119223637D01*
X60692166Y-119108615D01*
X60883435Y-119029389D01*
X61086484Y-118989000D01*
X61293516Y-118989000D01*
X61496565Y-119029389D01*
X61496565Y-119029389D01*
G37*
G36*
X73996565Y-119029389D02*
X74187834Y-119108615D01*
X74359976Y-119223637D01*
X74506363Y-119370024D01*
X74621385Y-119542166D01*
X74700611Y-119733435D01*
X74741000Y-119936484D01*
X74741000Y-120143516D01*
X74700611Y-120346565D01*
X74621385Y-120537834D01*
X74506363Y-120709976D01*
X74359976Y-120856363D01*
X74187834Y-120971385D01*
X73996565Y-121050611D01*
X73793516Y-121091000D01*
X73586484Y-121091000D01*
X73383435Y-121050611D01*
X73192166Y-120971385D01*
X73020024Y-120856363D01*
X72873637Y-120709976D01*
X72758615Y-120537834D01*
X72679389Y-120346565D01*
X72639000Y-120143516D01*
X72639000Y-119936484D01*
X72679389Y-119733435D01*
X72758615Y-119542166D01*
X72873637Y-119370024D01*
X73020024Y-119223637D01*
X73192166Y-119108615D01*
X73383435Y-119029389D01*
X73586484Y-118989000D01*
X73793516Y-118989000D01*
X73996565Y-119029389D01*
X73996565Y-119029389D01*
G37*
G36*
X81616565Y-119029389D02*
X81807834Y-119108615D01*
X81979976Y-119223637D01*
X82126363Y-119370024D01*
X82241385Y-119542166D01*
X82320611Y-119733435D01*
X82361000Y-119936484D01*
X82361000Y-120143516D01*
X82320611Y-120346565D01*
X82241385Y-120537834D01*
X82126363Y-120709976D01*
X81979976Y-120856363D01*
X81807834Y-120971385D01*
X81616565Y-121050611D01*
X81413516Y-121091000D01*
X81206484Y-121091000D01*
X81003435Y-121050611D01*
X80812166Y-120971385D01*
X80640024Y-120856363D01*
X80493637Y-120709976D01*
X80378615Y-120537834D01*
X80299389Y-120346565D01*
X80259000Y-120143516D01*
X80259000Y-119936484D01*
X80299389Y-119733435D01*
X80378615Y-119542166D01*
X80493637Y-119370024D01*
X80640024Y-119223637D01*
X80812166Y-119108615D01*
X81003435Y-119029389D01*
X81206484Y-118989000D01*
X81413516Y-118989000D01*
X81616565Y-119029389D01*
X81616565Y-119029389D01*
G37*
G36*
X48996565Y-119029389D02*
X49187834Y-119108615D01*
X49359976Y-119223637D01*
X49506363Y-119370024D01*
X49621385Y-119542166D01*
X49700611Y-119733435D01*
X49741000Y-119936484D01*
X49741000Y-120143516D01*
X49700611Y-120346565D01*
X49621385Y-120537834D01*
X49506363Y-120709976D01*
X49359976Y-120856363D01*
X49187834Y-120971385D01*
X48996565Y-121050611D01*
X48793516Y-121091000D01*
X48586484Y-121091000D01*
X48383435Y-121050611D01*
X48192166Y-120971385D01*
X48020024Y-120856363D01*
X47873637Y-120709976D01*
X47758615Y-120537834D01*
X47679389Y-120346565D01*
X47639000Y-120143516D01*
X47639000Y-119936484D01*
X47679389Y-119733435D01*
X47758615Y-119542166D01*
X47873637Y-119370024D01*
X48020024Y-119223637D01*
X48192166Y-119108615D01*
X48383435Y-119029389D01*
X48586484Y-118989000D01*
X48793516Y-118989000D01*
X48996565Y-119029389D01*
X48996565Y-119029389D01*
G37*
G36*
X56616565Y-119029389D02*
X56807834Y-119108615D01*
X56979976Y-119223637D01*
X57126363Y-119370024D01*
X57241385Y-119542166D01*
X57320611Y-119733435D01*
X57361000Y-119936484D01*
X57361000Y-120143516D01*
X57320611Y-120346565D01*
X57241385Y-120537834D01*
X57126363Y-120709976D01*
X56979976Y-120856363D01*
X56807834Y-120971385D01*
X56616565Y-121050611D01*
X56413516Y-121091000D01*
X56206484Y-121091000D01*
X56003435Y-121050611D01*
X55812166Y-120971385D01*
X55640024Y-120856363D01*
X55493637Y-120709976D01*
X55378615Y-120537834D01*
X55299389Y-120346565D01*
X55259000Y-120143516D01*
X55259000Y-119936484D01*
X55299389Y-119733435D01*
X55378615Y-119542166D01*
X55493637Y-119370024D01*
X55640024Y-119223637D01*
X55812166Y-119108615D01*
X56003435Y-119029389D01*
X56206484Y-118989000D01*
X56413516Y-118989000D01*
X56616565Y-119029389D01*
X56616565Y-119029389D01*
G37*
G36*
X125901000Y-120901000D02*
X124099000Y-120901000D01*
X124099000Y-119099000D01*
X125901000Y-119099000D01*
X125901000Y-120901000D01*
X125901000Y-120901000D01*
G37*
G36*
X122570443Y-119105519D02*
X122636627Y-119112037D01*
X122749853Y-119146384D01*
X122806467Y-119163557D01*
X122918863Y-119223635D01*
X122962991Y-119247222D01*
X122998729Y-119276552D01*
X123100186Y-119359814D01*
X123183448Y-119461271D01*
X123212778Y-119497009D01*
X123212779Y-119497011D01*
X123296443Y-119653533D01*
X123296443Y-119653534D01*
X123347963Y-119823373D01*
X123365359Y-120000000D01*
X123347963Y-120176627D01*
X123313616Y-120289853D01*
X123296443Y-120346467D01*
X123292857Y-120353175D01*
X123212778Y-120502991D01*
X123198819Y-120520000D01*
X123100186Y-120640186D01*
X123015149Y-120709973D01*
X122962991Y-120752778D01*
X122962989Y-120752779D01*
X122806467Y-120836443D01*
X122770860Y-120847244D01*
X122636627Y-120887963D01*
X122570442Y-120894482D01*
X122504260Y-120901000D01*
X122415740Y-120901000D01*
X122349558Y-120894482D01*
X122283373Y-120887963D01*
X122149140Y-120847244D01*
X122113533Y-120836443D01*
X121957011Y-120752779D01*
X121957009Y-120752778D01*
X121904851Y-120709973D01*
X121819814Y-120640186D01*
X121721181Y-120520000D01*
X121707222Y-120502991D01*
X121627143Y-120353175D01*
X121623557Y-120346467D01*
X121606384Y-120289853D01*
X121572037Y-120176627D01*
X121554641Y-120000000D01*
X121572037Y-119823373D01*
X121623557Y-119653534D01*
X121623557Y-119653533D01*
X121707221Y-119497011D01*
X121707222Y-119497009D01*
X121736552Y-119461271D01*
X121819814Y-119359814D01*
X121921271Y-119276552D01*
X121957009Y-119247222D01*
X122001137Y-119223635D01*
X122113533Y-119163557D01*
X122170147Y-119146384D01*
X122283373Y-119112037D01*
X122349557Y-119105519D01*
X122415740Y-119099000D01*
X122504260Y-119099000D01*
X122570443Y-119105519D01*
X122570443Y-119105519D01*
G37*
G36*
X90166821Y-117141313D02*
X90166824Y-117141314D01*
X90166825Y-117141314D01*
X90327239Y-117189975D01*
X90327241Y-117189976D01*
X90327244Y-117189977D01*
X90475078Y-117268995D01*
X90604659Y-117375341D01*
X90711005Y-117504922D01*
X90790023Y-117652756D01*
X90838687Y-117813179D01*
X90855117Y-117980000D01*
X90838687Y-118146821D01*
X90790023Y-118307244D01*
X90711005Y-118455078D01*
X90604659Y-118584659D01*
X90475078Y-118691005D01*
X90327244Y-118770023D01*
X90327241Y-118770024D01*
X90327239Y-118770025D01*
X90166825Y-118818686D01*
X90166824Y-118818686D01*
X90166821Y-118818687D01*
X90041804Y-118831000D01*
X89958196Y-118831000D01*
X89833179Y-118818687D01*
X89833176Y-118818686D01*
X89833175Y-118818686D01*
X89672761Y-118770025D01*
X89672759Y-118770024D01*
X89672756Y-118770023D01*
X89524922Y-118691005D01*
X89395341Y-118584659D01*
X89288995Y-118455078D01*
X89209977Y-118307244D01*
X89161313Y-118146821D01*
X89144883Y-117980000D01*
X89161313Y-117813179D01*
X89209977Y-117652756D01*
X89288995Y-117504922D01*
X89395341Y-117375341D01*
X89524922Y-117268995D01*
X89672756Y-117189977D01*
X89672759Y-117189976D01*
X89672761Y-117189975D01*
X89833175Y-117141314D01*
X89833176Y-117141314D01*
X89833179Y-117141313D01*
X89958196Y-117129000D01*
X90041804Y-117129000D01*
X90166821Y-117141313D01*
X90166821Y-117141313D01*
G37*
G36*
X97786821Y-117141313D02*
X97786824Y-117141314D01*
X97786825Y-117141314D01*
X97947239Y-117189975D01*
X97947241Y-117189976D01*
X97947244Y-117189977D01*
X98095078Y-117268995D01*
X98224659Y-117375341D01*
X98331005Y-117504922D01*
X98410023Y-117652756D01*
X98458687Y-117813179D01*
X98475117Y-117980000D01*
X98458687Y-118146821D01*
X98410023Y-118307244D01*
X98331005Y-118455078D01*
X98224659Y-118584659D01*
X98095078Y-118691005D01*
X97947244Y-118770023D01*
X97947241Y-118770024D01*
X97947239Y-118770025D01*
X97786825Y-118818686D01*
X97786824Y-118818686D01*
X97786821Y-118818687D01*
X97661804Y-118831000D01*
X97578196Y-118831000D01*
X97453179Y-118818687D01*
X97453176Y-118818686D01*
X97453175Y-118818686D01*
X97292761Y-118770025D01*
X97292759Y-118770024D01*
X97292756Y-118770023D01*
X97144922Y-118691005D01*
X97015341Y-118584659D01*
X96908995Y-118455078D01*
X96829977Y-118307244D01*
X96781313Y-118146821D01*
X96764883Y-117980000D01*
X96781313Y-117813179D01*
X96829977Y-117652756D01*
X96908995Y-117504922D01*
X97015341Y-117375341D01*
X97144922Y-117268995D01*
X97292756Y-117189977D01*
X97292759Y-117189976D01*
X97292761Y-117189975D01*
X97453175Y-117141314D01*
X97453176Y-117141314D01*
X97453179Y-117141313D01*
X97578196Y-117129000D01*
X97661804Y-117129000D01*
X97786821Y-117141313D01*
X97786821Y-117141313D01*
G37*
G36*
X90166821Y-114601313D02*
X90166824Y-114601314D01*
X90166825Y-114601314D01*
X90327239Y-114649975D01*
X90327241Y-114649976D01*
X90327244Y-114649977D01*
X90475078Y-114728995D01*
X90604659Y-114835341D01*
X90711005Y-114964922D01*
X90790023Y-115112756D01*
X90838687Y-115273179D01*
X90855117Y-115440000D01*
X90838687Y-115606821D01*
X90790023Y-115767244D01*
X90711005Y-115915078D01*
X90604659Y-116044659D01*
X90475078Y-116151005D01*
X90327244Y-116230023D01*
X90327241Y-116230024D01*
X90327239Y-116230025D01*
X90166825Y-116278686D01*
X90166824Y-116278686D01*
X90166821Y-116278687D01*
X90041804Y-116291000D01*
X89958196Y-116291000D01*
X89833179Y-116278687D01*
X89833176Y-116278686D01*
X89833175Y-116278686D01*
X89672761Y-116230025D01*
X89672759Y-116230024D01*
X89672756Y-116230023D01*
X89524922Y-116151005D01*
X89395341Y-116044659D01*
X89288995Y-115915078D01*
X89209977Y-115767244D01*
X89161313Y-115606821D01*
X89144883Y-115440000D01*
X89161313Y-115273179D01*
X89209977Y-115112756D01*
X89288995Y-114964922D01*
X89395341Y-114835341D01*
X89524922Y-114728995D01*
X89672756Y-114649977D01*
X89672759Y-114649976D01*
X89672761Y-114649975D01*
X89833175Y-114601314D01*
X89833176Y-114601314D01*
X89833179Y-114601313D01*
X89958196Y-114589000D01*
X90041804Y-114589000D01*
X90166821Y-114601313D01*
X90166821Y-114601313D01*
G37*
G36*
X97786821Y-114601313D02*
X97786824Y-114601314D01*
X97786825Y-114601314D01*
X97947239Y-114649975D01*
X97947241Y-114649976D01*
X97947244Y-114649977D01*
X98095078Y-114728995D01*
X98224659Y-114835341D01*
X98331005Y-114964922D01*
X98410023Y-115112756D01*
X98458687Y-115273179D01*
X98475117Y-115440000D01*
X98458687Y-115606821D01*
X98410023Y-115767244D01*
X98331005Y-115915078D01*
X98224659Y-116044659D01*
X98095078Y-116151005D01*
X97947244Y-116230023D01*
X97947241Y-116230024D01*
X97947239Y-116230025D01*
X97786825Y-116278686D01*
X97786824Y-116278686D01*
X97786821Y-116278687D01*
X97661804Y-116291000D01*
X97578196Y-116291000D01*
X97453179Y-116278687D01*
X97453176Y-116278686D01*
X97453175Y-116278686D01*
X97292761Y-116230025D01*
X97292759Y-116230024D01*
X97292756Y-116230023D01*
X97144922Y-116151005D01*
X97015341Y-116044659D01*
X96908995Y-115915078D01*
X96829977Y-115767244D01*
X96781313Y-115606821D01*
X96764883Y-115440000D01*
X96781313Y-115273179D01*
X96829977Y-115112756D01*
X96908995Y-114964922D01*
X97015341Y-114835341D01*
X97144922Y-114728995D01*
X97292756Y-114649977D01*
X97292759Y-114649976D01*
X97292761Y-114649975D01*
X97453175Y-114601314D01*
X97453176Y-114601314D01*
X97453179Y-114601313D01*
X97578196Y-114589000D01*
X97661804Y-114589000D01*
X97786821Y-114601313D01*
X97786821Y-114601313D01*
G37*
G36*
X73996565Y-113949389D02*
X74187834Y-114028615D01*
X74359976Y-114143637D01*
X74506363Y-114290024D01*
X74621385Y-114462166D01*
X74700611Y-114653435D01*
X74741000Y-114856484D01*
X74741000Y-115063516D01*
X74700611Y-115266565D01*
X74621385Y-115457834D01*
X74506363Y-115629976D01*
X74359976Y-115776363D01*
X74187834Y-115891385D01*
X73996565Y-115970611D01*
X73793516Y-116011000D01*
X73586484Y-116011000D01*
X73383435Y-115970611D01*
X73192166Y-115891385D01*
X73020024Y-115776363D01*
X72873637Y-115629976D01*
X72758615Y-115457834D01*
X72679389Y-115266565D01*
X72639000Y-115063516D01*
X72639000Y-114856484D01*
X72679389Y-114653435D01*
X72758615Y-114462166D01*
X72873637Y-114290024D01*
X73020024Y-114143637D01*
X73192166Y-114028615D01*
X73383435Y-113949389D01*
X73586484Y-113909000D01*
X73793516Y-113909000D01*
X73996565Y-113949389D01*
X73996565Y-113949389D01*
G37*
G36*
X81616565Y-113949389D02*
X81807834Y-114028615D01*
X81979976Y-114143637D01*
X82126363Y-114290024D01*
X82241385Y-114462166D01*
X82320611Y-114653435D01*
X82361000Y-114856484D01*
X82361000Y-115063516D01*
X82320611Y-115266565D01*
X82241385Y-115457834D01*
X82126363Y-115629976D01*
X81979976Y-115776363D01*
X81807834Y-115891385D01*
X81616565Y-115970611D01*
X81413516Y-116011000D01*
X81206484Y-116011000D01*
X81003435Y-115970611D01*
X80812166Y-115891385D01*
X80640024Y-115776363D01*
X80493637Y-115629976D01*
X80378615Y-115457834D01*
X80299389Y-115266565D01*
X80259000Y-115063516D01*
X80259000Y-114856484D01*
X80299389Y-114653435D01*
X80378615Y-114462166D01*
X80493637Y-114290024D01*
X80640024Y-114143637D01*
X80812166Y-114028615D01*
X81003435Y-113949389D01*
X81206484Y-113909000D01*
X81413516Y-113909000D01*
X81616565Y-113949389D01*
X81616565Y-113949389D01*
G37*
G36*
X56616565Y-113949389D02*
X56807834Y-114028615D01*
X56979976Y-114143637D01*
X57126363Y-114290024D01*
X57241385Y-114462166D01*
X57320611Y-114653435D01*
X57361000Y-114856484D01*
X57361000Y-115063516D01*
X57320611Y-115266565D01*
X57241385Y-115457834D01*
X57126363Y-115629976D01*
X56979976Y-115776363D01*
X56807834Y-115891385D01*
X56616565Y-115970611D01*
X56413516Y-116011000D01*
X56206484Y-116011000D01*
X56003435Y-115970611D01*
X55812166Y-115891385D01*
X55640024Y-115776363D01*
X55493637Y-115629976D01*
X55378615Y-115457834D01*
X55299389Y-115266565D01*
X55259000Y-115063516D01*
X55259000Y-114856484D01*
X55299389Y-114653435D01*
X55378615Y-114462166D01*
X55493637Y-114290024D01*
X55640024Y-114143637D01*
X55812166Y-114028615D01*
X56003435Y-113949389D01*
X56206484Y-113909000D01*
X56413516Y-113909000D01*
X56616565Y-113949389D01*
X56616565Y-113949389D01*
G37*
G36*
X48996565Y-113949389D02*
X49187834Y-114028615D01*
X49359976Y-114143637D01*
X49506363Y-114290024D01*
X49621385Y-114462166D01*
X49700611Y-114653435D01*
X49741000Y-114856484D01*
X49741000Y-115063516D01*
X49700611Y-115266565D01*
X49621385Y-115457834D01*
X49506363Y-115629976D01*
X49359976Y-115776363D01*
X49187834Y-115891385D01*
X48996565Y-115970611D01*
X48793516Y-116011000D01*
X48586484Y-116011000D01*
X48383435Y-115970611D01*
X48192166Y-115891385D01*
X48020024Y-115776363D01*
X47873637Y-115629976D01*
X47758615Y-115457834D01*
X47679389Y-115266565D01*
X47639000Y-115063516D01*
X47639000Y-114856484D01*
X47679389Y-114653435D01*
X47758615Y-114462166D01*
X47873637Y-114290024D01*
X48020024Y-114143637D01*
X48192166Y-114028615D01*
X48383435Y-113949389D01*
X48586484Y-113909000D01*
X48793516Y-113909000D01*
X48996565Y-113949389D01*
X48996565Y-113949389D01*
G37*
G36*
X61496565Y-113949389D02*
X61687834Y-114028615D01*
X61859976Y-114143637D01*
X62006363Y-114290024D01*
X62121385Y-114462166D01*
X62200611Y-114653435D01*
X62241000Y-114856484D01*
X62241000Y-115063516D01*
X62200611Y-115266565D01*
X62121385Y-115457834D01*
X62006363Y-115629976D01*
X61859976Y-115776363D01*
X61687834Y-115891385D01*
X61496565Y-115970611D01*
X61293516Y-116011000D01*
X61086484Y-116011000D01*
X60883435Y-115970611D01*
X60692166Y-115891385D01*
X60520024Y-115776363D01*
X60373637Y-115629976D01*
X60258615Y-115457834D01*
X60179389Y-115266565D01*
X60139000Y-115063516D01*
X60139000Y-114856484D01*
X60179389Y-114653435D01*
X60258615Y-114462166D01*
X60373637Y-114290024D01*
X60520024Y-114143637D01*
X60692166Y-114028615D01*
X60883435Y-113949389D01*
X61086484Y-113909000D01*
X61293516Y-113909000D01*
X61496565Y-113949389D01*
X61496565Y-113949389D01*
G37*
G36*
X69116565Y-113949389D02*
X69307834Y-114028615D01*
X69479976Y-114143637D01*
X69626363Y-114290024D01*
X69741385Y-114462166D01*
X69820611Y-114653435D01*
X69861000Y-114856484D01*
X69861000Y-115063516D01*
X69820611Y-115266565D01*
X69741385Y-115457834D01*
X69626363Y-115629976D01*
X69479976Y-115776363D01*
X69307834Y-115891385D01*
X69116565Y-115970611D01*
X68913516Y-116011000D01*
X68706484Y-116011000D01*
X68503435Y-115970611D01*
X68312166Y-115891385D01*
X68140024Y-115776363D01*
X67993637Y-115629976D01*
X67878615Y-115457834D01*
X67799389Y-115266565D01*
X67759000Y-115063516D01*
X67759000Y-114856484D01*
X67799389Y-114653435D01*
X67878615Y-114462166D01*
X67993637Y-114290024D01*
X68140024Y-114143637D01*
X68312166Y-114028615D01*
X68503435Y-113949389D01*
X68706484Y-113909000D01*
X68913516Y-113909000D01*
X69116565Y-113949389D01*
X69116565Y-113949389D01*
G37*
G36*
X90166821Y-112061313D02*
X90166824Y-112061314D01*
X90166825Y-112061314D01*
X90327239Y-112109975D01*
X90327241Y-112109976D01*
X90327244Y-112109977D01*
X90475078Y-112188995D01*
X90604659Y-112295341D01*
X90711005Y-112424922D01*
X90790023Y-112572756D01*
X90838687Y-112733179D01*
X90855117Y-112900000D01*
X90838687Y-113066821D01*
X90790023Y-113227244D01*
X90711005Y-113375078D01*
X90604659Y-113504659D01*
X90475078Y-113611005D01*
X90327244Y-113690023D01*
X90327241Y-113690024D01*
X90327239Y-113690025D01*
X90166825Y-113738686D01*
X90166824Y-113738686D01*
X90166821Y-113738687D01*
X90041804Y-113751000D01*
X89958196Y-113751000D01*
X89833179Y-113738687D01*
X89833176Y-113738686D01*
X89833175Y-113738686D01*
X89672761Y-113690025D01*
X89672759Y-113690024D01*
X89672756Y-113690023D01*
X89524922Y-113611005D01*
X89395341Y-113504659D01*
X89288995Y-113375078D01*
X89209977Y-113227244D01*
X89161313Y-113066821D01*
X89144883Y-112900000D01*
X89161313Y-112733179D01*
X89209977Y-112572756D01*
X89288995Y-112424922D01*
X89395341Y-112295341D01*
X89524922Y-112188995D01*
X89672756Y-112109977D01*
X89672759Y-112109976D01*
X89672761Y-112109975D01*
X89833175Y-112061314D01*
X89833176Y-112061314D01*
X89833179Y-112061313D01*
X89958196Y-112049000D01*
X90041804Y-112049000D01*
X90166821Y-112061313D01*
X90166821Y-112061313D01*
G37*
G36*
X97786821Y-112061313D02*
X97786824Y-112061314D01*
X97786825Y-112061314D01*
X97947239Y-112109975D01*
X97947241Y-112109976D01*
X97947244Y-112109977D01*
X98095078Y-112188995D01*
X98224659Y-112295341D01*
X98331005Y-112424922D01*
X98410023Y-112572756D01*
X98458687Y-112733179D01*
X98475117Y-112900000D01*
X98458687Y-113066821D01*
X98410023Y-113227244D01*
X98331005Y-113375078D01*
X98224659Y-113504659D01*
X98095078Y-113611005D01*
X97947244Y-113690023D01*
X97947241Y-113690024D01*
X97947239Y-113690025D01*
X97786825Y-113738686D01*
X97786824Y-113738686D01*
X97786821Y-113738687D01*
X97661804Y-113751000D01*
X97578196Y-113751000D01*
X97453179Y-113738687D01*
X97453176Y-113738686D01*
X97453175Y-113738686D01*
X97292761Y-113690025D01*
X97292759Y-113690024D01*
X97292756Y-113690023D01*
X97144922Y-113611005D01*
X97015341Y-113504659D01*
X96908995Y-113375078D01*
X96829977Y-113227244D01*
X96781313Y-113066821D01*
X96764883Y-112900000D01*
X96781313Y-112733179D01*
X96829977Y-112572756D01*
X96908995Y-112424922D01*
X97015341Y-112295341D01*
X97144922Y-112188995D01*
X97292756Y-112109977D01*
X97292759Y-112109976D01*
X97292761Y-112109975D01*
X97453175Y-112061314D01*
X97453176Y-112061314D01*
X97453179Y-112061313D01*
X97578196Y-112049000D01*
X97661804Y-112049000D01*
X97786821Y-112061313D01*
X97786821Y-112061313D01*
G37*
G36*
X97786821Y-109521313D02*
X97786824Y-109521314D01*
X97786825Y-109521314D01*
X97947239Y-109569975D01*
X97947241Y-109569976D01*
X97947244Y-109569977D01*
X98095078Y-109648995D01*
X98224659Y-109755341D01*
X98331005Y-109884922D01*
X98410023Y-110032756D01*
X98458687Y-110193179D01*
X98475117Y-110360000D01*
X98458687Y-110526821D01*
X98410023Y-110687244D01*
X98331005Y-110835078D01*
X98224659Y-110964659D01*
X98095078Y-111071005D01*
X97947244Y-111150023D01*
X97947241Y-111150024D01*
X97947239Y-111150025D01*
X97786825Y-111198686D01*
X97786824Y-111198686D01*
X97786821Y-111198687D01*
X97661804Y-111211000D01*
X97578196Y-111211000D01*
X97453179Y-111198687D01*
X97453176Y-111198686D01*
X97453175Y-111198686D01*
X97292761Y-111150025D01*
X97292759Y-111150024D01*
X97292756Y-111150023D01*
X97144922Y-111071005D01*
X97015341Y-110964659D01*
X96908995Y-110835078D01*
X96829977Y-110687244D01*
X96781313Y-110526821D01*
X96764883Y-110360000D01*
X96781313Y-110193179D01*
X96829977Y-110032756D01*
X96908995Y-109884922D01*
X97015341Y-109755341D01*
X97144922Y-109648995D01*
X97292756Y-109569977D01*
X97292759Y-109569976D01*
X97292761Y-109569975D01*
X97453175Y-109521314D01*
X97453176Y-109521314D01*
X97453179Y-109521313D01*
X97578196Y-109509000D01*
X97661804Y-109509000D01*
X97786821Y-109521313D01*
X97786821Y-109521313D01*
G37*
G36*
X90166821Y-109521313D02*
X90166824Y-109521314D01*
X90166825Y-109521314D01*
X90327239Y-109569975D01*
X90327241Y-109569976D01*
X90327244Y-109569977D01*
X90475078Y-109648995D01*
X90604659Y-109755341D01*
X90711005Y-109884922D01*
X90790023Y-110032756D01*
X90838687Y-110193179D01*
X90855117Y-110360000D01*
X90838687Y-110526821D01*
X90790023Y-110687244D01*
X90711005Y-110835078D01*
X90604659Y-110964659D01*
X90475078Y-111071005D01*
X90327244Y-111150023D01*
X90327241Y-111150024D01*
X90327239Y-111150025D01*
X90166825Y-111198686D01*
X90166824Y-111198686D01*
X90166821Y-111198687D01*
X90041804Y-111211000D01*
X89958196Y-111211000D01*
X89833179Y-111198687D01*
X89833176Y-111198686D01*
X89833175Y-111198686D01*
X89672761Y-111150025D01*
X89672759Y-111150024D01*
X89672756Y-111150023D01*
X89524922Y-111071005D01*
X89395341Y-110964659D01*
X89288995Y-110835078D01*
X89209977Y-110687244D01*
X89161313Y-110526821D01*
X89144883Y-110360000D01*
X89161313Y-110193179D01*
X89209977Y-110032756D01*
X89288995Y-109884922D01*
X89395341Y-109755341D01*
X89524922Y-109648995D01*
X89672756Y-109569977D01*
X89672759Y-109569976D01*
X89672761Y-109569975D01*
X89833175Y-109521314D01*
X89833176Y-109521314D01*
X89833179Y-109521313D01*
X89958196Y-109509000D01*
X90041804Y-109509000D01*
X90166821Y-109521313D01*
X90166821Y-109521313D01*
G37*
G36*
X97786821Y-106981313D02*
X97786824Y-106981314D01*
X97786825Y-106981314D01*
X97947239Y-107029975D01*
X97947241Y-107029976D01*
X97947244Y-107029977D01*
X98095078Y-107108995D01*
X98224659Y-107215341D01*
X98331005Y-107344922D01*
X98410023Y-107492756D01*
X98458687Y-107653179D01*
X98475117Y-107820000D01*
X98458687Y-107986821D01*
X98458686Y-107986824D01*
X98458686Y-107986825D01*
X98443213Y-108037834D01*
X98410023Y-108147244D01*
X98331005Y-108295078D01*
X98224659Y-108424659D01*
X98095078Y-108531005D01*
X97947244Y-108610023D01*
X97947241Y-108610024D01*
X97947239Y-108610025D01*
X97786825Y-108658686D01*
X97786824Y-108658686D01*
X97786821Y-108658687D01*
X97661804Y-108671000D01*
X97578196Y-108671000D01*
X97453179Y-108658687D01*
X97453176Y-108658686D01*
X97453175Y-108658686D01*
X97292761Y-108610025D01*
X97292759Y-108610024D01*
X97292756Y-108610023D01*
X97144922Y-108531005D01*
X97015341Y-108424659D01*
X96908995Y-108295078D01*
X96829977Y-108147244D01*
X96796788Y-108037834D01*
X96781314Y-107986825D01*
X96781314Y-107986824D01*
X96781313Y-107986821D01*
X96764883Y-107820000D01*
X96781313Y-107653179D01*
X96829977Y-107492756D01*
X96908995Y-107344922D01*
X97015341Y-107215341D01*
X97144922Y-107108995D01*
X97292756Y-107029977D01*
X97292759Y-107029976D01*
X97292761Y-107029975D01*
X97453175Y-106981314D01*
X97453176Y-106981314D01*
X97453179Y-106981313D01*
X97578196Y-106969000D01*
X97661804Y-106969000D01*
X97786821Y-106981313D01*
X97786821Y-106981313D01*
G37*
G36*
X90166821Y-106981313D02*
X90166824Y-106981314D01*
X90166825Y-106981314D01*
X90327239Y-107029975D01*
X90327241Y-107029976D01*
X90327244Y-107029977D01*
X90475078Y-107108995D01*
X90604659Y-107215341D01*
X90711005Y-107344922D01*
X90790023Y-107492756D01*
X90838687Y-107653179D01*
X90855117Y-107820000D01*
X90838687Y-107986821D01*
X90838686Y-107986824D01*
X90838686Y-107986825D01*
X90823213Y-108037834D01*
X90790023Y-108147244D01*
X90711005Y-108295078D01*
X90604659Y-108424659D01*
X90475078Y-108531005D01*
X90327244Y-108610023D01*
X90327241Y-108610024D01*
X90327239Y-108610025D01*
X90166825Y-108658686D01*
X90166824Y-108658686D01*
X90166821Y-108658687D01*
X90041804Y-108671000D01*
X89958196Y-108671000D01*
X89833179Y-108658687D01*
X89833176Y-108658686D01*
X89833175Y-108658686D01*
X89672761Y-108610025D01*
X89672759Y-108610024D01*
X89672756Y-108610023D01*
X89524922Y-108531005D01*
X89395341Y-108424659D01*
X89288995Y-108295078D01*
X89209977Y-108147244D01*
X89176788Y-108037834D01*
X89161314Y-107986825D01*
X89161314Y-107986824D01*
X89161313Y-107986821D01*
X89144883Y-107820000D01*
X89161313Y-107653179D01*
X89209977Y-107492756D01*
X89288995Y-107344922D01*
X89395341Y-107215341D01*
X89524922Y-107108995D01*
X89672756Y-107029977D01*
X89672759Y-107029976D01*
X89672761Y-107029975D01*
X89833175Y-106981314D01*
X89833176Y-106981314D01*
X89833179Y-106981313D01*
X89958196Y-106969000D01*
X90041804Y-106969000D01*
X90166821Y-106981313D01*
X90166821Y-106981313D01*
G37*
G36*
X111616565Y-106529389D02*
X111807834Y-106608615D01*
X111979976Y-106723637D01*
X112126363Y-106870024D01*
X112241385Y-107042166D01*
X112320611Y-107233435D01*
X112361000Y-107436484D01*
X112361000Y-107643516D01*
X112320611Y-107846565D01*
X112241385Y-108037834D01*
X112126363Y-108209976D01*
X111979976Y-108356363D01*
X111807834Y-108471385D01*
X111616565Y-108550611D01*
X111413516Y-108591000D01*
X111206484Y-108591000D01*
X111003435Y-108550611D01*
X110812166Y-108471385D01*
X110640024Y-108356363D01*
X110493637Y-108209976D01*
X110378615Y-108037834D01*
X110299389Y-107846565D01*
X110259000Y-107643516D01*
X110259000Y-107436484D01*
X110299389Y-107233435D01*
X110378615Y-107042166D01*
X110493637Y-106870024D01*
X110640024Y-106723637D01*
X110812166Y-106608615D01*
X111003435Y-106529389D01*
X111206484Y-106489000D01*
X111413516Y-106489000D01*
X111616565Y-106529389D01*
X111616565Y-106529389D01*
G37*
G36*
X103996565Y-106529389D02*
X104187834Y-106608615D01*
X104359976Y-106723637D01*
X104506363Y-106870024D01*
X104621385Y-107042166D01*
X104700611Y-107233435D01*
X104741000Y-107436484D01*
X104741000Y-107643516D01*
X104700611Y-107846565D01*
X104621385Y-108037834D01*
X104506363Y-108209976D01*
X104359976Y-108356363D01*
X104187834Y-108471385D01*
X103996565Y-108550611D01*
X103793516Y-108591000D01*
X103586484Y-108591000D01*
X103383435Y-108550611D01*
X103192166Y-108471385D01*
X103020024Y-108356363D01*
X102873637Y-108209976D01*
X102758615Y-108037834D01*
X102679389Y-107846565D01*
X102639000Y-107643516D01*
X102639000Y-107436484D01*
X102679389Y-107233435D01*
X102758615Y-107042166D01*
X102873637Y-106870024D01*
X103020024Y-106723637D01*
X103192166Y-106608615D01*
X103383435Y-106529389D01*
X103586484Y-106489000D01*
X103793516Y-106489000D01*
X103996565Y-106529389D01*
X103996565Y-106529389D01*
G37*
G36*
X75248228Y-106681703D02*
X75403100Y-106745853D01*
X75542481Y-106838985D01*
X75661015Y-106957519D01*
X75754147Y-107096900D01*
X75818297Y-107251772D01*
X75851000Y-107416184D01*
X75851000Y-107583816D01*
X75818297Y-107748228D01*
X75754147Y-107903100D01*
X75661015Y-108042481D01*
X75542481Y-108161015D01*
X75403100Y-108254147D01*
X75248228Y-108318297D01*
X75083816Y-108351000D01*
X74916184Y-108351000D01*
X74751772Y-108318297D01*
X74596900Y-108254147D01*
X74457519Y-108161015D01*
X74338985Y-108042481D01*
X74245853Y-107903100D01*
X74181703Y-107748228D01*
X74149000Y-107583816D01*
X74149000Y-107416184D01*
X74181703Y-107251772D01*
X74245853Y-107096900D01*
X74338985Y-106957519D01*
X74457519Y-106838985D01*
X74596900Y-106745853D01*
X74751772Y-106681703D01*
X74916184Y-106649000D01*
X75083816Y-106649000D01*
X75248228Y-106681703D01*
X75248228Y-106681703D01*
G37*
G36*
X72748228Y-106681703D02*
X72903100Y-106745853D01*
X73042481Y-106838985D01*
X73161015Y-106957519D01*
X73254147Y-107096900D01*
X73318297Y-107251772D01*
X73351000Y-107416184D01*
X73351000Y-107583816D01*
X73318297Y-107748228D01*
X73254147Y-107903100D01*
X73161015Y-108042481D01*
X73042481Y-108161015D01*
X72903100Y-108254147D01*
X72748228Y-108318297D01*
X72583816Y-108351000D01*
X72416184Y-108351000D01*
X72251772Y-108318297D01*
X72096900Y-108254147D01*
X71957519Y-108161015D01*
X71838985Y-108042481D01*
X71745853Y-107903100D01*
X71681703Y-107748228D01*
X71649000Y-107583816D01*
X71649000Y-107416184D01*
X71681703Y-107251772D01*
X71745853Y-107096900D01*
X71838985Y-106957519D01*
X71957519Y-106838985D01*
X72096900Y-106745853D01*
X72251772Y-106681703D01*
X72416184Y-106649000D01*
X72583816Y-106649000D01*
X72748228Y-106681703D01*
X72748228Y-106681703D01*
G37*
G36*
X90166821Y-104441313D02*
X90166824Y-104441314D01*
X90166825Y-104441314D01*
X90327239Y-104489975D01*
X90327241Y-104489976D01*
X90327244Y-104489977D01*
X90475078Y-104568995D01*
X90604659Y-104675341D01*
X90711005Y-104804922D01*
X90790023Y-104952756D01*
X90838687Y-105113179D01*
X90855117Y-105280000D01*
X90838687Y-105446821D01*
X90790023Y-105607244D01*
X90711005Y-105755078D01*
X90604659Y-105884659D01*
X90475078Y-105991005D01*
X90327244Y-106070023D01*
X90327241Y-106070024D01*
X90327239Y-106070025D01*
X90166825Y-106118686D01*
X90166824Y-106118686D01*
X90166821Y-106118687D01*
X90041804Y-106131000D01*
X89958196Y-106131000D01*
X89833179Y-106118687D01*
X89833176Y-106118686D01*
X89833175Y-106118686D01*
X89672761Y-106070025D01*
X89672759Y-106070024D01*
X89672756Y-106070023D01*
X89524922Y-105991005D01*
X89395341Y-105884659D01*
X89288995Y-105755078D01*
X89209977Y-105607244D01*
X89161313Y-105446821D01*
X89144883Y-105280000D01*
X89161313Y-105113179D01*
X89209977Y-104952756D01*
X89288995Y-104804922D01*
X89395341Y-104675341D01*
X89524922Y-104568995D01*
X89672756Y-104489977D01*
X89672759Y-104489976D01*
X89672761Y-104489975D01*
X89833175Y-104441314D01*
X89833176Y-104441314D01*
X89833179Y-104441313D01*
X89958196Y-104429000D01*
X90041804Y-104429000D01*
X90166821Y-104441313D01*
X90166821Y-104441313D01*
G37*
G36*
X97786821Y-104441313D02*
X97786824Y-104441314D01*
X97786825Y-104441314D01*
X97947239Y-104489975D01*
X97947241Y-104489976D01*
X97947244Y-104489977D01*
X98095078Y-104568995D01*
X98224659Y-104675341D01*
X98331005Y-104804922D01*
X98410023Y-104952756D01*
X98458687Y-105113179D01*
X98475117Y-105280000D01*
X98458687Y-105446821D01*
X98410023Y-105607244D01*
X98331005Y-105755078D01*
X98224659Y-105884659D01*
X98095078Y-105991005D01*
X97947244Y-106070023D01*
X97947241Y-106070024D01*
X97947239Y-106070025D01*
X97786825Y-106118686D01*
X97786824Y-106118686D01*
X97786821Y-106118687D01*
X97661804Y-106131000D01*
X97578196Y-106131000D01*
X97453179Y-106118687D01*
X97453176Y-106118686D01*
X97453175Y-106118686D01*
X97292761Y-106070025D01*
X97292759Y-106070024D01*
X97292756Y-106070023D01*
X97144922Y-105991005D01*
X97015341Y-105884659D01*
X96908995Y-105755078D01*
X96829977Y-105607244D01*
X96781313Y-105446821D01*
X96764883Y-105280000D01*
X96781313Y-105113179D01*
X96829977Y-104952756D01*
X96908995Y-104804922D01*
X97015341Y-104675341D01*
X97144922Y-104568995D01*
X97292756Y-104489977D01*
X97292759Y-104489976D01*
X97292761Y-104489975D01*
X97453175Y-104441314D01*
X97453176Y-104441314D01*
X97453179Y-104441313D01*
X97578196Y-104429000D01*
X97661804Y-104429000D01*
X97786821Y-104441313D01*
X97786821Y-104441313D01*
G37*
G36*
X97786821Y-101901313D02*
X97786824Y-101901314D01*
X97786825Y-101901314D01*
X97947239Y-101949975D01*
X97947241Y-101949976D01*
X97947244Y-101949977D01*
X98095078Y-102028995D01*
X98224659Y-102135341D01*
X98331005Y-102264922D01*
X98410023Y-102412756D01*
X98410024Y-102412759D01*
X98410025Y-102412761D01*
X98455755Y-102563514D01*
X98458687Y-102573179D01*
X98475117Y-102740000D01*
X98458687Y-102906821D01*
X98458686Y-102906824D01*
X98458686Y-102906825D01*
X98418945Y-103037835D01*
X98410023Y-103067244D01*
X98331005Y-103215078D01*
X98224659Y-103344659D01*
X98095078Y-103451005D01*
X97947244Y-103530023D01*
X97947241Y-103530024D01*
X97947239Y-103530025D01*
X97786825Y-103578686D01*
X97786824Y-103578686D01*
X97786821Y-103578687D01*
X97661804Y-103591000D01*
X97578196Y-103591000D01*
X97453179Y-103578687D01*
X97453176Y-103578686D01*
X97453175Y-103578686D01*
X97292761Y-103530025D01*
X97292759Y-103530024D01*
X97292756Y-103530023D01*
X97144922Y-103451005D01*
X97015341Y-103344659D01*
X96908995Y-103215078D01*
X96829977Y-103067244D01*
X96821056Y-103037835D01*
X96781314Y-102906825D01*
X96781314Y-102906824D01*
X96781313Y-102906821D01*
X96764883Y-102740000D01*
X96781313Y-102573179D01*
X96784245Y-102563514D01*
X96829975Y-102412761D01*
X96829976Y-102412759D01*
X96829977Y-102412756D01*
X96908995Y-102264922D01*
X97015341Y-102135341D01*
X97144922Y-102028995D01*
X97292756Y-101949977D01*
X97292759Y-101949976D01*
X97292761Y-101949975D01*
X97453175Y-101901314D01*
X97453176Y-101901314D01*
X97453179Y-101901313D01*
X97578196Y-101889000D01*
X97661804Y-101889000D01*
X97786821Y-101901313D01*
X97786821Y-101901313D01*
G37*
G36*
X124116565Y-101529389D02*
X124307834Y-101608615D01*
X124479976Y-101723637D01*
X124626363Y-101870024D01*
X124741385Y-102042166D01*
X124820611Y-102233435D01*
X124861000Y-102436484D01*
X124861000Y-102643516D01*
X124820611Y-102846565D01*
X124741385Y-103037834D01*
X124626363Y-103209976D01*
X124479976Y-103356363D01*
X124307834Y-103471385D01*
X124116565Y-103550611D01*
X123913516Y-103591000D01*
X123706484Y-103591000D01*
X123503435Y-103550611D01*
X123312166Y-103471385D01*
X123140024Y-103356363D01*
X122993637Y-103209976D01*
X122878615Y-103037834D01*
X122799389Y-102846565D01*
X122759000Y-102643516D01*
X122759000Y-102436484D01*
X122799389Y-102233435D01*
X122878615Y-102042166D01*
X122993637Y-101870024D01*
X123140024Y-101723637D01*
X123312166Y-101608615D01*
X123503435Y-101529389D01*
X123706484Y-101489000D01*
X123913516Y-101489000D01*
X124116565Y-101529389D01*
X124116565Y-101529389D01*
G37*
G36*
X90166821Y-101901313D02*
X90166824Y-101901314D01*
X90166825Y-101901314D01*
X90327239Y-101949975D01*
X90327241Y-101949976D01*
X90327244Y-101949977D01*
X90475078Y-102028995D01*
X90604659Y-102135341D01*
X90711005Y-102264922D01*
X90790023Y-102412756D01*
X90790024Y-102412759D01*
X90790025Y-102412761D01*
X90835755Y-102563514D01*
X90838687Y-102573179D01*
X90855117Y-102740000D01*
X90838687Y-102906821D01*
X90838686Y-102906824D01*
X90838686Y-102906825D01*
X90798945Y-103037835D01*
X90790023Y-103067244D01*
X90711005Y-103215078D01*
X90604659Y-103344659D01*
X90475078Y-103451005D01*
X90327244Y-103530023D01*
X90327241Y-103530024D01*
X90327239Y-103530025D01*
X90166825Y-103578686D01*
X90166824Y-103578686D01*
X90166821Y-103578687D01*
X90041804Y-103591000D01*
X89958196Y-103591000D01*
X89833179Y-103578687D01*
X89833176Y-103578686D01*
X89833175Y-103578686D01*
X89672761Y-103530025D01*
X89672759Y-103530024D01*
X89672756Y-103530023D01*
X89524922Y-103451005D01*
X89395341Y-103344659D01*
X89288995Y-103215078D01*
X89209977Y-103067244D01*
X89201056Y-103037835D01*
X89161314Y-102906825D01*
X89161314Y-102906824D01*
X89161313Y-102906821D01*
X89144883Y-102740000D01*
X89161313Y-102573179D01*
X89164245Y-102563514D01*
X89209975Y-102412761D01*
X89209976Y-102412759D01*
X89209977Y-102412756D01*
X89288995Y-102264922D01*
X89395341Y-102135341D01*
X89524922Y-102028995D01*
X89672756Y-101949977D01*
X89672759Y-101949976D01*
X89672761Y-101949975D01*
X89833175Y-101901314D01*
X89833176Y-101901314D01*
X89833179Y-101901313D01*
X89958196Y-101889000D01*
X90041804Y-101889000D01*
X90166821Y-101901313D01*
X90166821Y-101901313D01*
G37*
G36*
X116496565Y-101529389D02*
X116687834Y-101608615D01*
X116859976Y-101723637D01*
X117006363Y-101870024D01*
X117121385Y-102042166D01*
X117200611Y-102233435D01*
X117241000Y-102436484D01*
X117241000Y-102643516D01*
X117200611Y-102846565D01*
X117121385Y-103037834D01*
X117006363Y-103209976D01*
X116859976Y-103356363D01*
X116687834Y-103471385D01*
X116496565Y-103550611D01*
X116293516Y-103591000D01*
X116086484Y-103591000D01*
X115883435Y-103550611D01*
X115692166Y-103471385D01*
X115520024Y-103356363D01*
X115373637Y-103209976D01*
X115258615Y-103037834D01*
X115179389Y-102846565D01*
X115139000Y-102643516D01*
X115139000Y-102436484D01*
X115179389Y-102233435D01*
X115258615Y-102042166D01*
X115373637Y-101870024D01*
X115520024Y-101723637D01*
X115692166Y-101608615D01*
X115883435Y-101529389D01*
X116086484Y-101489000D01*
X116293516Y-101489000D01*
X116496565Y-101529389D01*
X116496565Y-101529389D01*
G37*
G36*
X103996565Y-101449389D02*
X104187834Y-101528615D01*
X104359976Y-101643637D01*
X104506363Y-101790024D01*
X104621385Y-101962166D01*
X104700611Y-102153435D01*
X104741000Y-102356484D01*
X104741000Y-102563516D01*
X104700611Y-102766565D01*
X104621385Y-102957834D01*
X104506363Y-103129976D01*
X104359976Y-103276363D01*
X104187834Y-103391385D01*
X103996565Y-103470611D01*
X103793516Y-103511000D01*
X103586484Y-103511000D01*
X103383435Y-103470611D01*
X103192166Y-103391385D01*
X103020024Y-103276363D01*
X102873637Y-103129976D01*
X102758615Y-102957834D01*
X102679389Y-102766565D01*
X102639000Y-102563516D01*
X102639000Y-102356484D01*
X102679389Y-102153435D01*
X102758615Y-101962166D01*
X102873637Y-101790024D01*
X103020024Y-101643637D01*
X103192166Y-101528615D01*
X103383435Y-101449389D01*
X103586484Y-101409000D01*
X103793516Y-101409000D01*
X103996565Y-101449389D01*
X103996565Y-101449389D01*
G37*
G36*
X111616565Y-101449389D02*
X111807834Y-101528615D01*
X111979976Y-101643637D01*
X112126363Y-101790024D01*
X112241385Y-101962166D01*
X112320611Y-102153435D01*
X112361000Y-102356484D01*
X112361000Y-102563516D01*
X112320611Y-102766565D01*
X112241385Y-102957834D01*
X112126363Y-103129976D01*
X111979976Y-103276363D01*
X111807834Y-103391385D01*
X111616565Y-103470611D01*
X111413516Y-103511000D01*
X111206484Y-103511000D01*
X111003435Y-103470611D01*
X110812166Y-103391385D01*
X110640024Y-103276363D01*
X110493637Y-103129976D01*
X110378615Y-102957834D01*
X110299389Y-102766565D01*
X110259000Y-102563516D01*
X110259000Y-102356484D01*
X110299389Y-102153435D01*
X110378615Y-101962166D01*
X110493637Y-101790024D01*
X110640024Y-101643637D01*
X110812166Y-101528615D01*
X111003435Y-101449389D01*
X111206484Y-101409000D01*
X111413516Y-101409000D01*
X111616565Y-101449389D01*
X111616565Y-101449389D01*
G37*
G36*
X65098252Y-97427818D02*
X65098254Y-97427819D01*
X65098255Y-97427819D01*
X65471513Y-97582427D01*
X65587609Y-97660000D01*
X65807439Y-97806886D01*
X66093114Y-98092561D01*
X66093116Y-98092564D01*
X66317573Y-98428487D01*
X66472181Y-98801745D01*
X66472182Y-98801748D01*
X66551000Y-99197993D01*
X66551000Y-99602007D01*
X66497144Y-99872761D01*
X66472181Y-99998255D01*
X66317573Y-100371513D01*
X66150085Y-100622176D01*
X66093114Y-100707439D01*
X65807439Y-100993114D01*
X65807436Y-100993116D01*
X65471513Y-101217573D01*
X65098255Y-101372181D01*
X65098254Y-101372181D01*
X65098252Y-101372182D01*
X64702007Y-101451000D01*
X64297993Y-101451000D01*
X63901748Y-101372182D01*
X63901746Y-101372181D01*
X63901745Y-101372181D01*
X63528487Y-101217573D01*
X63192564Y-100993116D01*
X63192561Y-100993114D01*
X62906886Y-100707439D01*
X62849915Y-100622176D01*
X62682427Y-100371513D01*
X62527819Y-99998255D01*
X62502857Y-99872761D01*
X62449000Y-99602007D01*
X62449000Y-99197993D01*
X62527818Y-98801748D01*
X62527819Y-98801745D01*
X62682427Y-98428487D01*
X62906884Y-98092564D01*
X62906886Y-98092561D01*
X63192561Y-97806886D01*
X63412391Y-97660000D01*
X63528487Y-97582427D01*
X63901745Y-97427819D01*
X63901746Y-97427819D01*
X63901748Y-97427818D01*
X64297993Y-97349000D01*
X64702007Y-97349000D01*
X65098252Y-97427818D01*
X65098252Y-97427818D01*
G37*
G36*
X90166821Y-99361313D02*
X90166824Y-99361314D01*
X90166825Y-99361314D01*
X90327239Y-99409975D01*
X90327241Y-99409976D01*
X90327244Y-99409977D01*
X90475078Y-99488995D01*
X90604659Y-99595341D01*
X90711005Y-99724922D01*
X90790023Y-99872756D01*
X90790024Y-99872759D01*
X90790025Y-99872761D01*
X90828092Y-99998252D01*
X90838687Y-100033179D01*
X90855117Y-100200000D01*
X90838687Y-100366821D01*
X90838686Y-100366824D01*
X90838686Y-100366825D01*
X90795070Y-100510608D01*
X90790023Y-100527244D01*
X90711005Y-100675078D01*
X90604659Y-100804659D01*
X90475078Y-100911005D01*
X90327244Y-100990023D01*
X90327241Y-100990024D01*
X90327239Y-100990025D01*
X90166825Y-101038686D01*
X90166824Y-101038686D01*
X90166821Y-101038687D01*
X90041804Y-101051000D01*
X89958196Y-101051000D01*
X89833179Y-101038687D01*
X89833176Y-101038686D01*
X89833175Y-101038686D01*
X89672761Y-100990025D01*
X89672759Y-100990024D01*
X89672756Y-100990023D01*
X89524922Y-100911005D01*
X89395341Y-100804659D01*
X89288995Y-100675078D01*
X89209977Y-100527244D01*
X89204931Y-100510608D01*
X89161314Y-100366825D01*
X89161314Y-100366824D01*
X89161313Y-100366821D01*
X89144883Y-100200000D01*
X89161313Y-100033179D01*
X89171908Y-99998252D01*
X89209975Y-99872761D01*
X89209976Y-99872759D01*
X89209977Y-99872756D01*
X89288995Y-99724922D01*
X89395341Y-99595341D01*
X89524922Y-99488995D01*
X89672756Y-99409977D01*
X89672759Y-99409976D01*
X89672761Y-99409975D01*
X89833175Y-99361314D01*
X89833176Y-99361314D01*
X89833179Y-99361313D01*
X89958196Y-99349000D01*
X90041804Y-99349000D01*
X90166821Y-99361313D01*
X90166821Y-99361313D01*
G37*
G36*
X97786821Y-99361313D02*
X97786824Y-99361314D01*
X97786825Y-99361314D01*
X97947239Y-99409975D01*
X97947241Y-99409976D01*
X97947244Y-99409977D01*
X98095078Y-99488995D01*
X98224659Y-99595341D01*
X98331005Y-99724922D01*
X98410023Y-99872756D01*
X98410024Y-99872759D01*
X98410025Y-99872761D01*
X98448092Y-99998252D01*
X98458687Y-100033179D01*
X98475117Y-100200000D01*
X98458687Y-100366821D01*
X98458686Y-100366824D01*
X98458686Y-100366825D01*
X98415070Y-100510608D01*
X98410023Y-100527244D01*
X98331005Y-100675078D01*
X98224659Y-100804659D01*
X98095078Y-100911005D01*
X97947244Y-100990023D01*
X97947241Y-100990024D01*
X97947239Y-100990025D01*
X97786825Y-101038686D01*
X97786824Y-101038686D01*
X97786821Y-101038687D01*
X97661804Y-101051000D01*
X97578196Y-101051000D01*
X97453179Y-101038687D01*
X97453176Y-101038686D01*
X97453175Y-101038686D01*
X97292761Y-100990025D01*
X97292759Y-100990024D01*
X97292756Y-100990023D01*
X97144922Y-100911005D01*
X97015341Y-100804659D01*
X96908995Y-100675078D01*
X96829977Y-100527244D01*
X96824931Y-100510608D01*
X96781314Y-100366825D01*
X96781314Y-100366824D01*
X96781313Y-100366821D01*
X96764883Y-100200000D01*
X96781313Y-100033179D01*
X96791908Y-99998252D01*
X96829975Y-99872761D01*
X96829976Y-99872759D01*
X96829977Y-99872756D01*
X96908995Y-99724922D01*
X97015341Y-99595341D01*
X97144922Y-99488995D01*
X97292756Y-99409977D01*
X97292759Y-99409976D01*
X97292761Y-99409975D01*
X97453175Y-99361314D01*
X97453176Y-99361314D01*
X97453179Y-99361313D01*
X97578196Y-99349000D01*
X97661804Y-99349000D01*
X97786821Y-99361313D01*
X97786821Y-99361313D01*
G37*
G36*
X75233643Y-99229781D02*
X75379415Y-99290162D01*
X75510611Y-99377824D01*
X75622176Y-99489389D01*
X75709838Y-99620585D01*
X75770219Y-99766357D01*
X75801000Y-99921107D01*
X75801000Y-100078893D01*
X75770219Y-100233643D01*
X75709838Y-100379415D01*
X75622176Y-100510611D01*
X75510611Y-100622176D01*
X75379415Y-100709838D01*
X75233643Y-100770219D01*
X75078893Y-100801000D01*
X74921107Y-100801000D01*
X74766357Y-100770219D01*
X74620585Y-100709838D01*
X74489389Y-100622176D01*
X74377824Y-100510611D01*
X74290162Y-100379415D01*
X74229781Y-100233643D01*
X74199000Y-100078893D01*
X74199000Y-99921107D01*
X74229781Y-99766357D01*
X74290162Y-99620585D01*
X74377824Y-99489389D01*
X74489389Y-99377824D01*
X74620585Y-99290162D01*
X74766357Y-99229781D01*
X74921107Y-99199000D01*
X75078893Y-99199000D01*
X75233643Y-99229781D01*
X75233643Y-99229781D01*
G37*
G36*
X97786821Y-96821313D02*
X97786824Y-96821314D01*
X97786825Y-96821314D01*
X97947239Y-96869975D01*
X97947241Y-96869976D01*
X97947244Y-96869977D01*
X98095078Y-96948995D01*
X98224659Y-97055341D01*
X98331005Y-97184922D01*
X98410023Y-97332756D01*
X98410024Y-97332759D01*
X98410025Y-97332761D01*
X98432343Y-97406335D01*
X98458687Y-97493179D01*
X98475117Y-97660000D01*
X98458687Y-97826821D01*
X98458686Y-97826824D01*
X98458686Y-97826825D01*
X98418945Y-97957835D01*
X98410023Y-97987244D01*
X98331005Y-98135078D01*
X98224659Y-98264659D01*
X98095078Y-98371005D01*
X97947244Y-98450023D01*
X97947241Y-98450024D01*
X97947239Y-98450025D01*
X97786825Y-98498686D01*
X97786824Y-98498686D01*
X97786821Y-98498687D01*
X97661804Y-98511000D01*
X97578196Y-98511000D01*
X97453179Y-98498687D01*
X97453176Y-98498686D01*
X97453175Y-98498686D01*
X97292761Y-98450025D01*
X97292759Y-98450024D01*
X97292756Y-98450023D01*
X97144922Y-98371005D01*
X97015341Y-98264659D01*
X96908995Y-98135078D01*
X96829977Y-97987244D01*
X96821056Y-97957835D01*
X96781314Y-97826825D01*
X96781314Y-97826824D01*
X96781313Y-97826821D01*
X96764883Y-97660000D01*
X96781313Y-97493179D01*
X96807657Y-97406335D01*
X96829975Y-97332761D01*
X96829976Y-97332759D01*
X96829977Y-97332756D01*
X96908995Y-97184922D01*
X97015341Y-97055341D01*
X97144922Y-96948995D01*
X97292756Y-96869977D01*
X97292759Y-96869976D01*
X97292761Y-96869975D01*
X97453175Y-96821314D01*
X97453176Y-96821314D01*
X97453179Y-96821313D01*
X97578196Y-96809000D01*
X97661804Y-96809000D01*
X97786821Y-96821313D01*
X97786821Y-96821313D01*
G37*
G36*
X90166821Y-96821313D02*
X90166824Y-96821314D01*
X90166825Y-96821314D01*
X90327239Y-96869975D01*
X90327241Y-96869976D01*
X90327244Y-96869977D01*
X90475078Y-96948995D01*
X90604659Y-97055341D01*
X90711005Y-97184922D01*
X90790023Y-97332756D01*
X90790024Y-97332759D01*
X90790025Y-97332761D01*
X90812343Y-97406335D01*
X90838687Y-97493179D01*
X90855117Y-97660000D01*
X90838687Y-97826821D01*
X90838686Y-97826824D01*
X90838686Y-97826825D01*
X90798945Y-97957835D01*
X90790023Y-97987244D01*
X90711005Y-98135078D01*
X90604659Y-98264659D01*
X90475078Y-98371005D01*
X90327244Y-98450023D01*
X90327241Y-98450024D01*
X90327239Y-98450025D01*
X90166825Y-98498686D01*
X90166824Y-98498686D01*
X90166821Y-98498687D01*
X90041804Y-98511000D01*
X89958196Y-98511000D01*
X89833179Y-98498687D01*
X89833176Y-98498686D01*
X89833175Y-98498686D01*
X89672761Y-98450025D01*
X89672759Y-98450024D01*
X89672756Y-98450023D01*
X89524922Y-98371005D01*
X89395341Y-98264659D01*
X89288995Y-98135078D01*
X89209977Y-97987244D01*
X89201056Y-97957835D01*
X89161314Y-97826825D01*
X89161314Y-97826824D01*
X89161313Y-97826821D01*
X89144883Y-97660000D01*
X89161313Y-97493179D01*
X89187657Y-97406335D01*
X89209975Y-97332761D01*
X89209976Y-97332759D01*
X89209977Y-97332756D01*
X89288995Y-97184922D01*
X89395341Y-97055341D01*
X89524922Y-96948995D01*
X89672756Y-96869977D01*
X89672759Y-96869976D01*
X89672761Y-96869975D01*
X89833175Y-96821314D01*
X89833176Y-96821314D01*
X89833179Y-96821313D01*
X89958196Y-96809000D01*
X90041804Y-96809000D01*
X90166821Y-96821313D01*
X90166821Y-96821313D01*
G37*
G36*
X124116565Y-96449389D02*
X124307834Y-96528615D01*
X124479976Y-96643637D01*
X124626363Y-96790024D01*
X124741385Y-96962166D01*
X124820611Y-97153435D01*
X124861000Y-97356484D01*
X124861000Y-97563516D01*
X124820611Y-97766565D01*
X124741385Y-97957834D01*
X124626363Y-98129976D01*
X124479976Y-98276363D01*
X124307834Y-98391385D01*
X124116565Y-98470611D01*
X123913516Y-98511000D01*
X123706484Y-98511000D01*
X123503435Y-98470611D01*
X123312166Y-98391385D01*
X123140024Y-98276363D01*
X122993637Y-98129976D01*
X122878615Y-97957834D01*
X122799389Y-97766565D01*
X122759000Y-97563516D01*
X122759000Y-97356484D01*
X122799389Y-97153435D01*
X122878615Y-96962166D01*
X122993637Y-96790024D01*
X123140024Y-96643637D01*
X123312166Y-96528615D01*
X123503435Y-96449389D01*
X123706484Y-96409000D01*
X123913516Y-96409000D01*
X124116565Y-96449389D01*
X124116565Y-96449389D01*
G37*
G36*
X116496565Y-96449389D02*
X116687834Y-96528615D01*
X116859976Y-96643637D01*
X117006363Y-96790024D01*
X117121385Y-96962166D01*
X117200611Y-97153435D01*
X117241000Y-97356484D01*
X117241000Y-97563516D01*
X117200611Y-97766565D01*
X117121385Y-97957834D01*
X117006363Y-98129976D01*
X116859976Y-98276363D01*
X116687834Y-98391385D01*
X116496565Y-98470611D01*
X116293516Y-98511000D01*
X116086484Y-98511000D01*
X115883435Y-98470611D01*
X115692166Y-98391385D01*
X115520024Y-98276363D01*
X115373637Y-98129976D01*
X115258615Y-97957834D01*
X115179389Y-97766565D01*
X115139000Y-97563516D01*
X115139000Y-97356484D01*
X115179389Y-97153435D01*
X115258615Y-96962166D01*
X115373637Y-96790024D01*
X115520024Y-96643637D01*
X115692166Y-96528615D01*
X115883435Y-96449389D01*
X116086484Y-96409000D01*
X116293516Y-96409000D01*
X116496565Y-96449389D01*
X116496565Y-96449389D01*
G37*
G36*
X57777396Y-96585546D02*
X57950466Y-96657234D01*
X58106230Y-96761312D01*
X58238688Y-96893770D01*
X58342766Y-97049534D01*
X58414454Y-97222604D01*
X58451000Y-97406333D01*
X58451000Y-97593667D01*
X58414454Y-97777396D01*
X58342766Y-97950466D01*
X58238688Y-98106230D01*
X58106230Y-98238688D01*
X57950466Y-98342766D01*
X57777396Y-98414454D01*
X57593667Y-98451000D01*
X57406333Y-98451000D01*
X57222604Y-98414454D01*
X57049534Y-98342766D01*
X56893770Y-98238688D01*
X56761312Y-98106230D01*
X56657234Y-97950466D01*
X56585546Y-97777396D01*
X56549000Y-97593667D01*
X56549000Y-97406333D01*
X56585546Y-97222604D01*
X56657234Y-97049534D01*
X56761312Y-96893770D01*
X56893770Y-96761312D01*
X57049534Y-96657234D01*
X57222604Y-96585546D01*
X57406333Y-96549000D01*
X57593667Y-96549000D01*
X57777396Y-96585546D01*
X57777396Y-96585546D01*
G37*
G36*
X97786821Y-94281313D02*
X97786824Y-94281314D01*
X97786825Y-94281314D01*
X97947239Y-94329975D01*
X97947241Y-94329976D01*
X97947244Y-94329977D01*
X98095078Y-94408995D01*
X98224659Y-94515341D01*
X98331005Y-94644922D01*
X98410023Y-94792756D01*
X98410024Y-94792759D01*
X98410025Y-94792761D01*
X98444477Y-94906335D01*
X98458687Y-94953179D01*
X98475117Y-95120000D01*
X98458687Y-95286821D01*
X98410023Y-95447244D01*
X98331005Y-95595078D01*
X98224659Y-95724659D01*
X98095078Y-95831005D01*
X97947244Y-95910023D01*
X97947241Y-95910024D01*
X97947239Y-95910025D01*
X97786825Y-95958686D01*
X97786824Y-95958686D01*
X97786821Y-95958687D01*
X97661804Y-95971000D01*
X97578196Y-95971000D01*
X97453179Y-95958687D01*
X97453176Y-95958686D01*
X97453175Y-95958686D01*
X97292761Y-95910025D01*
X97292759Y-95910024D01*
X97292756Y-95910023D01*
X97144922Y-95831005D01*
X97015341Y-95724659D01*
X96908995Y-95595078D01*
X96829977Y-95447244D01*
X96781313Y-95286821D01*
X96764883Y-95120000D01*
X96781313Y-94953179D01*
X96795523Y-94906335D01*
X96829975Y-94792761D01*
X96829976Y-94792759D01*
X96829977Y-94792756D01*
X96908995Y-94644922D01*
X97015341Y-94515341D01*
X97144922Y-94408995D01*
X97292756Y-94329977D01*
X97292759Y-94329976D01*
X97292761Y-94329975D01*
X97453175Y-94281314D01*
X97453176Y-94281314D01*
X97453179Y-94281313D01*
X97578196Y-94269000D01*
X97661804Y-94269000D01*
X97786821Y-94281313D01*
X97786821Y-94281313D01*
G37*
G36*
X90166821Y-94281313D02*
X90166824Y-94281314D01*
X90166825Y-94281314D01*
X90327239Y-94329975D01*
X90327241Y-94329976D01*
X90327244Y-94329977D01*
X90475078Y-94408995D01*
X90604659Y-94515341D01*
X90711005Y-94644922D01*
X90790023Y-94792756D01*
X90790024Y-94792759D01*
X90790025Y-94792761D01*
X90824477Y-94906335D01*
X90838687Y-94953179D01*
X90855117Y-95120000D01*
X90838687Y-95286821D01*
X90790023Y-95447244D01*
X90711005Y-95595078D01*
X90604659Y-95724659D01*
X90475078Y-95831005D01*
X90327244Y-95910023D01*
X90327241Y-95910024D01*
X90327239Y-95910025D01*
X90166825Y-95958686D01*
X90166824Y-95958686D01*
X90166821Y-95958687D01*
X90041804Y-95971000D01*
X89958196Y-95971000D01*
X89833179Y-95958687D01*
X89833176Y-95958686D01*
X89833175Y-95958686D01*
X89672761Y-95910025D01*
X89672759Y-95910024D01*
X89672756Y-95910023D01*
X89524922Y-95831005D01*
X89395341Y-95724659D01*
X89288995Y-95595078D01*
X89209977Y-95447244D01*
X89161313Y-95286821D01*
X89144883Y-95120000D01*
X89161313Y-94953179D01*
X89175523Y-94906335D01*
X89209975Y-94792761D01*
X89209976Y-94792759D01*
X89209977Y-94792756D01*
X89288995Y-94644922D01*
X89395341Y-94515341D01*
X89524922Y-94408995D01*
X89672756Y-94329977D01*
X89672759Y-94329976D01*
X89672761Y-94329975D01*
X89833175Y-94281314D01*
X89833176Y-94281314D01*
X89833179Y-94281313D01*
X89958196Y-94269000D01*
X90041804Y-94269000D01*
X90166821Y-94281313D01*
X90166821Y-94281313D01*
G37*
G36*
X57777396Y-94085546D02*
X57950466Y-94157234D01*
X58106230Y-94261312D01*
X58238688Y-94393770D01*
X58342766Y-94549534D01*
X58414454Y-94722604D01*
X58451000Y-94906333D01*
X58451000Y-95093667D01*
X58414454Y-95277396D01*
X58342766Y-95450466D01*
X58238688Y-95606230D01*
X58106230Y-95738688D01*
X57950466Y-95842766D01*
X57777396Y-95914454D01*
X57593667Y-95951000D01*
X57406333Y-95951000D01*
X57222604Y-95914454D01*
X57049534Y-95842766D01*
X56893770Y-95738688D01*
X56761312Y-95606230D01*
X56657234Y-95450466D01*
X56585546Y-95277396D01*
X56549000Y-95093667D01*
X56549000Y-94906333D01*
X56585546Y-94722604D01*
X56657234Y-94549534D01*
X56761312Y-94393770D01*
X56893770Y-94261312D01*
X57049534Y-94157234D01*
X57222604Y-94085546D01*
X57406333Y-94049000D01*
X57593667Y-94049000D01*
X57777396Y-94085546D01*
X57777396Y-94085546D01*
G37*
G36*
X75233643Y-94349781D02*
X75379415Y-94410162D01*
X75510611Y-94497824D01*
X75622176Y-94609389D01*
X75709838Y-94740585D01*
X75770219Y-94886357D01*
X75801000Y-95041107D01*
X75801000Y-95198893D01*
X75770219Y-95353643D01*
X75709838Y-95499415D01*
X75622176Y-95630611D01*
X75510611Y-95742176D01*
X75379415Y-95829838D01*
X75233643Y-95890219D01*
X75078893Y-95921000D01*
X74921107Y-95921000D01*
X74766357Y-95890219D01*
X74620585Y-95829838D01*
X74489389Y-95742176D01*
X74377824Y-95630611D01*
X74290162Y-95499415D01*
X74229781Y-95353643D01*
X74199000Y-95198893D01*
X74199000Y-95041107D01*
X74229781Y-94886357D01*
X74290162Y-94740585D01*
X74377824Y-94609389D01*
X74489389Y-94497824D01*
X74620585Y-94410162D01*
X74766357Y-94349781D01*
X74921107Y-94319000D01*
X75078893Y-94319000D01*
X75233643Y-94349781D01*
X75233643Y-94349781D01*
G37*
G36*
X111616565Y-91529389D02*
X111807834Y-91608615D01*
X111979976Y-91723637D01*
X112126363Y-91870024D01*
X112241385Y-92042166D01*
X112320611Y-92233435D01*
X112361000Y-92436484D01*
X112361000Y-92643516D01*
X112320611Y-92846565D01*
X112241385Y-93037834D01*
X112126363Y-93209976D01*
X111979976Y-93356363D01*
X111807834Y-93471385D01*
X111616565Y-93550611D01*
X111413516Y-93591000D01*
X111206484Y-93591000D01*
X111003435Y-93550611D01*
X110812166Y-93471385D01*
X110640024Y-93356363D01*
X110493637Y-93209976D01*
X110378615Y-93037834D01*
X110299389Y-92846565D01*
X110259000Y-92643516D01*
X110259000Y-92436484D01*
X110299389Y-92233435D01*
X110378615Y-92042166D01*
X110493637Y-91870024D01*
X110640024Y-91723637D01*
X110812166Y-91608615D01*
X111003435Y-91529389D01*
X111206484Y-91489000D01*
X111413516Y-91489000D01*
X111616565Y-91529389D01*
X111616565Y-91529389D01*
G37*
G36*
X103996565Y-91529389D02*
X104187834Y-91608615D01*
X104359976Y-91723637D01*
X104506363Y-91870024D01*
X104621385Y-92042166D01*
X104700611Y-92233435D01*
X104741000Y-92436484D01*
X104741000Y-92643516D01*
X104700611Y-92846565D01*
X104621385Y-93037834D01*
X104506363Y-93209976D01*
X104359976Y-93356363D01*
X104187834Y-93471385D01*
X103996565Y-93550611D01*
X103793516Y-93591000D01*
X103586484Y-93591000D01*
X103383435Y-93550611D01*
X103192166Y-93471385D01*
X103020024Y-93356363D01*
X102873637Y-93209976D01*
X102758615Y-93037834D01*
X102679389Y-92846565D01*
X102639000Y-92643516D01*
X102639000Y-92436484D01*
X102679389Y-92233435D01*
X102758615Y-92042166D01*
X102873637Y-91870024D01*
X103020024Y-91723637D01*
X103192166Y-91608615D01*
X103383435Y-91529389D01*
X103586484Y-91489000D01*
X103793516Y-91489000D01*
X103996565Y-91529389D01*
X103996565Y-91529389D01*
G37*
G36*
X57777396Y-91585546D02*
X57950466Y-91657234D01*
X58106230Y-91761312D01*
X58238688Y-91893770D01*
X58342766Y-92049534D01*
X58414454Y-92222604D01*
X58451000Y-92406333D01*
X58451000Y-92593667D01*
X58414454Y-92777396D01*
X58342766Y-92950466D01*
X58238688Y-93106230D01*
X58106230Y-93238688D01*
X57950466Y-93342766D01*
X57777396Y-93414454D01*
X57593667Y-93451000D01*
X57406333Y-93451000D01*
X57222604Y-93414454D01*
X57049534Y-93342766D01*
X56893770Y-93238688D01*
X56761312Y-93106230D01*
X56657234Y-92950466D01*
X56585546Y-92777396D01*
X56549000Y-92593667D01*
X56549000Y-92406333D01*
X56585546Y-92222604D01*
X56657234Y-92049534D01*
X56761312Y-91893770D01*
X56893770Y-91761312D01*
X57049534Y-91657234D01*
X57222604Y-91585546D01*
X57406333Y-91549000D01*
X57593667Y-91549000D01*
X57777396Y-91585546D01*
X57777396Y-91585546D01*
G37*
G36*
X97786821Y-91741313D02*
X97786824Y-91741314D01*
X97786825Y-91741314D01*
X97947239Y-91789975D01*
X97947241Y-91789976D01*
X97947244Y-91789977D01*
X98095078Y-91868995D01*
X98224659Y-91975341D01*
X98331005Y-92104922D01*
X98410023Y-92252756D01*
X98410024Y-92252759D01*
X98410025Y-92252761D01*
X98456611Y-92406335D01*
X98458687Y-92413179D01*
X98475117Y-92580000D01*
X98458687Y-92746821D01*
X98410023Y-92907244D01*
X98331005Y-93055078D01*
X98224659Y-93184659D01*
X98095078Y-93291005D01*
X97947244Y-93370023D01*
X97947241Y-93370024D01*
X97947239Y-93370025D01*
X97786825Y-93418686D01*
X97786824Y-93418686D01*
X97786821Y-93418687D01*
X97661804Y-93431000D01*
X97578196Y-93431000D01*
X97453179Y-93418687D01*
X97453176Y-93418686D01*
X97453175Y-93418686D01*
X97292761Y-93370025D01*
X97292759Y-93370024D01*
X97292756Y-93370023D01*
X97144922Y-93291005D01*
X97015341Y-93184659D01*
X96908995Y-93055078D01*
X96829977Y-92907244D01*
X96781313Y-92746821D01*
X96764883Y-92580000D01*
X96781313Y-92413179D01*
X96783389Y-92406335D01*
X96829975Y-92252761D01*
X96829976Y-92252759D01*
X96829977Y-92252756D01*
X96908995Y-92104922D01*
X97015341Y-91975341D01*
X97144922Y-91868995D01*
X97292756Y-91789977D01*
X97292759Y-91789976D01*
X97292761Y-91789975D01*
X97453175Y-91741314D01*
X97453176Y-91741314D01*
X97453179Y-91741313D01*
X97578196Y-91729000D01*
X97661804Y-91729000D01*
X97786821Y-91741313D01*
X97786821Y-91741313D01*
G37*
G36*
X90166821Y-91741313D02*
X90166824Y-91741314D01*
X90166825Y-91741314D01*
X90327239Y-91789975D01*
X90327241Y-91789976D01*
X90327244Y-91789977D01*
X90475078Y-91868995D01*
X90604659Y-91975341D01*
X90711005Y-92104922D01*
X90790023Y-92252756D01*
X90790024Y-92252759D01*
X90790025Y-92252761D01*
X90836611Y-92406335D01*
X90838687Y-92413179D01*
X90855117Y-92580000D01*
X90838687Y-92746821D01*
X90790023Y-92907244D01*
X90711005Y-93055078D01*
X90604659Y-93184659D01*
X90475078Y-93291005D01*
X90327244Y-93370023D01*
X90327241Y-93370024D01*
X90327239Y-93370025D01*
X90166825Y-93418686D01*
X90166824Y-93418686D01*
X90166821Y-93418687D01*
X90041804Y-93431000D01*
X89958196Y-93431000D01*
X89833179Y-93418687D01*
X89833176Y-93418686D01*
X89833175Y-93418686D01*
X89672761Y-93370025D01*
X89672759Y-93370024D01*
X89672756Y-93370023D01*
X89524922Y-93291005D01*
X89395341Y-93184659D01*
X89288995Y-93055078D01*
X89209977Y-92907244D01*
X89161313Y-92746821D01*
X89144883Y-92580000D01*
X89161313Y-92413179D01*
X89163389Y-92406335D01*
X89209975Y-92252761D01*
X89209976Y-92252759D01*
X89209977Y-92252756D01*
X89288995Y-92104922D01*
X89395341Y-91975341D01*
X89524922Y-91868995D01*
X89672756Y-91789977D01*
X89672759Y-91789976D01*
X89672761Y-91789975D01*
X89833175Y-91741314D01*
X89833176Y-91741314D01*
X89833179Y-91741313D01*
X89958196Y-91729000D01*
X90041804Y-91729000D01*
X90166821Y-91741313D01*
X90166821Y-91741313D01*
G37*
G36*
X65098252Y-88627818D02*
X65098254Y-88627819D01*
X65098255Y-88627819D01*
X65471513Y-88782427D01*
X65471514Y-88782428D01*
X65807439Y-89006886D01*
X66093114Y-89292561D01*
X66093116Y-89292564D01*
X66317573Y-89628487D01*
X66418927Y-89873179D01*
X66472182Y-90001748D01*
X66551000Y-90397993D01*
X66551000Y-90802007D01*
X66535748Y-90878686D01*
X66472181Y-91198255D01*
X66317573Y-91571513D01*
X66118801Y-91868996D01*
X66093114Y-91907439D01*
X65807439Y-92193114D01*
X65807436Y-92193116D01*
X65471513Y-92417573D01*
X65098255Y-92572181D01*
X65098254Y-92572181D01*
X65098252Y-92572182D01*
X64702007Y-92651000D01*
X64297993Y-92651000D01*
X63901748Y-92572182D01*
X63901746Y-92572181D01*
X63901745Y-92572181D01*
X63528487Y-92417573D01*
X63192564Y-92193116D01*
X63192561Y-92193114D01*
X62906886Y-91907439D01*
X62881199Y-91868996D01*
X62682427Y-91571513D01*
X62527819Y-91198255D01*
X62464253Y-90878686D01*
X62449000Y-90802007D01*
X62449000Y-90397993D01*
X62527818Y-90001748D01*
X62581073Y-89873179D01*
X62682427Y-89628487D01*
X62906884Y-89292564D01*
X62906886Y-89292561D01*
X63192561Y-89006886D01*
X63528486Y-88782428D01*
X63528487Y-88782427D01*
X63901745Y-88627819D01*
X63901746Y-88627819D01*
X63901748Y-88627818D01*
X64297993Y-88549000D01*
X64702007Y-88549000D01*
X65098252Y-88627818D01*
X65098252Y-88627818D01*
G37*
G36*
X97786821Y-89201313D02*
X97786824Y-89201314D01*
X97786825Y-89201314D01*
X97947239Y-89249975D01*
X97947241Y-89249976D01*
X97947244Y-89249977D01*
X98095078Y-89328995D01*
X98224659Y-89435341D01*
X98331005Y-89564922D01*
X98410023Y-89712756D01*
X98458687Y-89873179D01*
X98475117Y-90040000D01*
X98458687Y-90206821D01*
X98410023Y-90367244D01*
X98331005Y-90515078D01*
X98224659Y-90644659D01*
X98095078Y-90751005D01*
X97947244Y-90830023D01*
X97947241Y-90830024D01*
X97947239Y-90830025D01*
X97786825Y-90878686D01*
X97786824Y-90878686D01*
X97786821Y-90878687D01*
X97661804Y-90891000D01*
X97578196Y-90891000D01*
X97453179Y-90878687D01*
X97453176Y-90878686D01*
X97453175Y-90878686D01*
X97292761Y-90830025D01*
X97292759Y-90830024D01*
X97292756Y-90830023D01*
X97144922Y-90751005D01*
X97015341Y-90644659D01*
X96908995Y-90515078D01*
X96829977Y-90367244D01*
X96781313Y-90206821D01*
X96764883Y-90040000D01*
X96781313Y-89873179D01*
X96829977Y-89712756D01*
X96908995Y-89564922D01*
X97015341Y-89435341D01*
X97144922Y-89328995D01*
X97292756Y-89249977D01*
X97292759Y-89249976D01*
X97292761Y-89249975D01*
X97453175Y-89201314D01*
X97453176Y-89201314D01*
X97453179Y-89201313D01*
X97578196Y-89189000D01*
X97661804Y-89189000D01*
X97786821Y-89201313D01*
X97786821Y-89201313D01*
G37*
G36*
X90166821Y-89201313D02*
X90166824Y-89201314D01*
X90166825Y-89201314D01*
X90327239Y-89249975D01*
X90327241Y-89249976D01*
X90327244Y-89249977D01*
X90475078Y-89328995D01*
X90604659Y-89435341D01*
X90711005Y-89564922D01*
X90790023Y-89712756D01*
X90838687Y-89873179D01*
X90855117Y-90040000D01*
X90838687Y-90206821D01*
X90790023Y-90367244D01*
X90711005Y-90515078D01*
X90604659Y-90644659D01*
X90475078Y-90751005D01*
X90327244Y-90830023D01*
X90327241Y-90830024D01*
X90327239Y-90830025D01*
X90166825Y-90878686D01*
X90166824Y-90878686D01*
X90166821Y-90878687D01*
X90041804Y-90891000D01*
X89958196Y-90891000D01*
X89833179Y-90878687D01*
X89833176Y-90878686D01*
X89833175Y-90878686D01*
X89672761Y-90830025D01*
X89672759Y-90830024D01*
X89672756Y-90830023D01*
X89524922Y-90751005D01*
X89395341Y-90644659D01*
X89288995Y-90515078D01*
X89209977Y-90367244D01*
X89161313Y-90206821D01*
X89144883Y-90040000D01*
X89161313Y-89873179D01*
X89209977Y-89712756D01*
X89288995Y-89564922D01*
X89395341Y-89435341D01*
X89524922Y-89328995D01*
X89672756Y-89249977D01*
X89672759Y-89249976D01*
X89672761Y-89249975D01*
X89833175Y-89201314D01*
X89833176Y-89201314D01*
X89833179Y-89201313D01*
X89958196Y-89189000D01*
X90041804Y-89189000D01*
X90166821Y-89201313D01*
X90166821Y-89201313D01*
G37*
G36*
X116496565Y-86529389D02*
X116687834Y-86608615D01*
X116859976Y-86723637D01*
X117006363Y-86870024D01*
X117121385Y-87042166D01*
X117200611Y-87233435D01*
X117241000Y-87436484D01*
X117241000Y-87643516D01*
X117200611Y-87846565D01*
X117121385Y-88037834D01*
X117006363Y-88209976D01*
X116859976Y-88356363D01*
X116687834Y-88471385D01*
X116496565Y-88550611D01*
X116293516Y-88591000D01*
X116086484Y-88591000D01*
X115883435Y-88550611D01*
X115692166Y-88471385D01*
X115520024Y-88356363D01*
X115373637Y-88209976D01*
X115258615Y-88037834D01*
X115179389Y-87846565D01*
X115139000Y-87643516D01*
X115139000Y-87436484D01*
X115179389Y-87233435D01*
X115258615Y-87042166D01*
X115373637Y-86870024D01*
X115520024Y-86723637D01*
X115692166Y-86608615D01*
X115883435Y-86529389D01*
X116086484Y-86489000D01*
X116293516Y-86489000D01*
X116496565Y-86529389D01*
X116496565Y-86529389D01*
G37*
G36*
X124116565Y-86529389D02*
X124307834Y-86608615D01*
X124479976Y-86723637D01*
X124626363Y-86870024D01*
X124741385Y-87042166D01*
X124820611Y-87233435D01*
X124861000Y-87436484D01*
X124861000Y-87643516D01*
X124820611Y-87846565D01*
X124741385Y-88037834D01*
X124626363Y-88209976D01*
X124479976Y-88356363D01*
X124307834Y-88471385D01*
X124116565Y-88550611D01*
X123913516Y-88591000D01*
X123706484Y-88591000D01*
X123503435Y-88550611D01*
X123312166Y-88471385D01*
X123140024Y-88356363D01*
X122993637Y-88209976D01*
X122878615Y-88037834D01*
X122799389Y-87846565D01*
X122759000Y-87643516D01*
X122759000Y-87436484D01*
X122799389Y-87233435D01*
X122878615Y-87042166D01*
X122993637Y-86870024D01*
X123140024Y-86723637D01*
X123312166Y-86608615D01*
X123503435Y-86529389D01*
X123706484Y-86489000D01*
X123913516Y-86489000D01*
X124116565Y-86529389D01*
X124116565Y-86529389D01*
G37*
G36*
X103996565Y-86449389D02*
X104187834Y-86528615D01*
X104359976Y-86643637D01*
X104506363Y-86790024D01*
X104621385Y-86962166D01*
X104700611Y-87153435D01*
X104741000Y-87356484D01*
X104741000Y-87563516D01*
X104700611Y-87766565D01*
X104621385Y-87957834D01*
X104506363Y-88129976D01*
X104359976Y-88276363D01*
X104187834Y-88391385D01*
X103996565Y-88470611D01*
X103793516Y-88511000D01*
X103586484Y-88511000D01*
X103383435Y-88470611D01*
X103192166Y-88391385D01*
X103020024Y-88276363D01*
X102873637Y-88129976D01*
X102758615Y-87957834D01*
X102679389Y-87766565D01*
X102639000Y-87563516D01*
X102639000Y-87356484D01*
X102679389Y-87153435D01*
X102758615Y-86962166D01*
X102873637Y-86790024D01*
X103020024Y-86643637D01*
X103192166Y-86528615D01*
X103383435Y-86449389D01*
X103586484Y-86409000D01*
X103793516Y-86409000D01*
X103996565Y-86449389D01*
X103996565Y-86449389D01*
G37*
G36*
X111616565Y-86449389D02*
X111807834Y-86528615D01*
X111979976Y-86643637D01*
X112126363Y-86790024D01*
X112241385Y-86962166D01*
X112320611Y-87153435D01*
X112361000Y-87356484D01*
X112361000Y-87563516D01*
X112320611Y-87766565D01*
X112241385Y-87957834D01*
X112126363Y-88129976D01*
X111979976Y-88276363D01*
X111807834Y-88391385D01*
X111616565Y-88470611D01*
X111413516Y-88511000D01*
X111206484Y-88511000D01*
X111003435Y-88470611D01*
X110812166Y-88391385D01*
X110640024Y-88276363D01*
X110493637Y-88129976D01*
X110378615Y-87957834D01*
X110299389Y-87766565D01*
X110259000Y-87563516D01*
X110259000Y-87356484D01*
X110299389Y-87153435D01*
X110378615Y-86962166D01*
X110493637Y-86790024D01*
X110640024Y-86643637D01*
X110812166Y-86528615D01*
X111003435Y-86449389D01*
X111206484Y-86409000D01*
X111413516Y-86409000D01*
X111616565Y-86449389D01*
X111616565Y-86449389D01*
G37*
G36*
X97786821Y-86661313D02*
X97786824Y-86661314D01*
X97786825Y-86661314D01*
X97947239Y-86709975D01*
X97947241Y-86709976D01*
X97947244Y-86709977D01*
X98095078Y-86788995D01*
X98224659Y-86895341D01*
X98331005Y-87024922D01*
X98410023Y-87172756D01*
X98410024Y-87172759D01*
X98410025Y-87172761D01*
X98458686Y-87333175D01*
X98458687Y-87333179D01*
X98475117Y-87500000D01*
X98458687Y-87666821D01*
X98458686Y-87666824D01*
X98458686Y-87666825D01*
X98433993Y-87748228D01*
X98410023Y-87827244D01*
X98331005Y-87975078D01*
X98224659Y-88104659D01*
X98095078Y-88211005D01*
X97947244Y-88290023D01*
X97947241Y-88290024D01*
X97947239Y-88290025D01*
X97786825Y-88338686D01*
X97786824Y-88338686D01*
X97786821Y-88338687D01*
X97661804Y-88351000D01*
X97578196Y-88351000D01*
X97453179Y-88338687D01*
X97453176Y-88338686D01*
X97453175Y-88338686D01*
X97292761Y-88290025D01*
X97292759Y-88290024D01*
X97292756Y-88290023D01*
X97144922Y-88211005D01*
X97015341Y-88104659D01*
X96908995Y-87975078D01*
X96829977Y-87827244D01*
X96806008Y-87748228D01*
X96781314Y-87666825D01*
X96781314Y-87666824D01*
X96781313Y-87666821D01*
X96764883Y-87500000D01*
X96781313Y-87333179D01*
X96781314Y-87333175D01*
X96829975Y-87172761D01*
X96829976Y-87172759D01*
X96829977Y-87172756D01*
X96908995Y-87024922D01*
X97015341Y-86895341D01*
X97144922Y-86788995D01*
X97292756Y-86709977D01*
X97292759Y-86709976D01*
X97292761Y-86709975D01*
X97453175Y-86661314D01*
X97453176Y-86661314D01*
X97453179Y-86661313D01*
X97578196Y-86649000D01*
X97661804Y-86649000D01*
X97786821Y-86661313D01*
X97786821Y-86661313D01*
G37*
G36*
X90851000Y-88351000D02*
X89149000Y-88351000D01*
X89149000Y-86649000D01*
X90851000Y-86649000D01*
X90851000Y-88351000D01*
X90851000Y-88351000D01*
G37*
G36*
X72748228Y-86681703D02*
X72903100Y-86745853D01*
X73042481Y-86838985D01*
X73161015Y-86957519D01*
X73254147Y-87096900D01*
X73318297Y-87251772D01*
X73351000Y-87416184D01*
X73351000Y-87583816D01*
X73318297Y-87748228D01*
X73254147Y-87903100D01*
X73161015Y-88042481D01*
X73042481Y-88161015D01*
X72903100Y-88254147D01*
X72748228Y-88318297D01*
X72583816Y-88351000D01*
X72416184Y-88351000D01*
X72251772Y-88318297D01*
X72096900Y-88254147D01*
X71957519Y-88161015D01*
X71838985Y-88042481D01*
X71745853Y-87903100D01*
X71681703Y-87748228D01*
X71649000Y-87583816D01*
X71649000Y-87416184D01*
X71681703Y-87251772D01*
X71745853Y-87096900D01*
X71838985Y-86957519D01*
X71957519Y-86838985D01*
X72096900Y-86745853D01*
X72251772Y-86681703D01*
X72416184Y-86649000D01*
X72583816Y-86649000D01*
X72748228Y-86681703D01*
X72748228Y-86681703D01*
G37*
G36*
X75248228Y-86681703D02*
X75403100Y-86745853D01*
X75542481Y-86838985D01*
X75661015Y-86957519D01*
X75754147Y-87096900D01*
X75818297Y-87251772D01*
X75851000Y-87416184D01*
X75851000Y-87583816D01*
X75818297Y-87748228D01*
X75754147Y-87903100D01*
X75661015Y-88042481D01*
X75542481Y-88161015D01*
X75403100Y-88254147D01*
X75248228Y-88318297D01*
X75083816Y-88351000D01*
X74916184Y-88351000D01*
X74751772Y-88318297D01*
X74596900Y-88254147D01*
X74457519Y-88161015D01*
X74338985Y-88042481D01*
X74245853Y-87903100D01*
X74181703Y-87748228D01*
X74149000Y-87583816D01*
X74149000Y-87416184D01*
X74181703Y-87251772D01*
X74245853Y-87096900D01*
X74338985Y-86957519D01*
X74457519Y-86838985D01*
X74596900Y-86745853D01*
X74751772Y-86681703D01*
X74916184Y-86649000D01*
X75083816Y-86649000D01*
X75248228Y-86681703D01*
X75248228Y-86681703D01*
G37*
G36*
X86598252Y-80927818D02*
X86598254Y-80927819D01*
X86598255Y-80927819D01*
X86971513Y-81082427D01*
X87263304Y-81277396D01*
X87307439Y-81306886D01*
X87593114Y-81592561D01*
X87593116Y-81592564D01*
X87817573Y-81928487D01*
X87831523Y-81962166D01*
X87972182Y-82301748D01*
X88051000Y-82697993D01*
X88051000Y-83102007D01*
X88045437Y-83129976D01*
X87972181Y-83498255D01*
X87817573Y-83871513D01*
X87817572Y-83871514D01*
X87593114Y-84207439D01*
X87307439Y-84493114D01*
X87307436Y-84493116D01*
X86971513Y-84717573D01*
X86598255Y-84872181D01*
X86598254Y-84872181D01*
X86598252Y-84872182D01*
X86202007Y-84951000D01*
X85797993Y-84951000D01*
X85401748Y-84872182D01*
X85401746Y-84872181D01*
X85401745Y-84872181D01*
X85028487Y-84717573D01*
X84692564Y-84493116D01*
X84692561Y-84493114D01*
X84406886Y-84207439D01*
X84182428Y-83871514D01*
X84182427Y-83871513D01*
X84027819Y-83498255D01*
X83954564Y-83129976D01*
X83949000Y-83102007D01*
X83949000Y-82697993D01*
X84027818Y-82301748D01*
X84168477Y-81962166D01*
X84182427Y-81928487D01*
X84406884Y-81592564D01*
X84406886Y-81592561D01*
X84692561Y-81306886D01*
X84736696Y-81277396D01*
X85028487Y-81082427D01*
X85401745Y-80927819D01*
X85401746Y-80927819D01*
X85401748Y-80927818D01*
X85797993Y-80849000D01*
X86202007Y-80849000D01*
X86598252Y-80927818D01*
X86598252Y-80927818D01*
G37*
G36*
X124116565Y-81449389D02*
X124307834Y-81528615D01*
X124479976Y-81643637D01*
X124626363Y-81790024D01*
X124741385Y-81962166D01*
X124820611Y-82153435D01*
X124861000Y-82356484D01*
X124861000Y-82563516D01*
X124820611Y-82766565D01*
X124741385Y-82957834D01*
X124626363Y-83129976D01*
X124479976Y-83276363D01*
X124307834Y-83391385D01*
X124116565Y-83470611D01*
X123913516Y-83511000D01*
X123706484Y-83511000D01*
X123503435Y-83470611D01*
X123312166Y-83391385D01*
X123140024Y-83276363D01*
X122993637Y-83129976D01*
X122878615Y-82957834D01*
X122799389Y-82766565D01*
X122759000Y-82563516D01*
X122759000Y-82356484D01*
X122799389Y-82153435D01*
X122878615Y-81962166D01*
X122993637Y-81790024D01*
X123140024Y-81643637D01*
X123312166Y-81528615D01*
X123503435Y-81449389D01*
X123706484Y-81409000D01*
X123913516Y-81409000D01*
X124116565Y-81449389D01*
X124116565Y-81449389D01*
G37*
G36*
X116496565Y-81449389D02*
X116687834Y-81528615D01*
X116859976Y-81643637D01*
X117006363Y-81790024D01*
X117121385Y-81962166D01*
X117200611Y-82153435D01*
X117241000Y-82356484D01*
X117241000Y-82563516D01*
X117200611Y-82766565D01*
X117121385Y-82957834D01*
X117006363Y-83129976D01*
X116859976Y-83276363D01*
X116687834Y-83391385D01*
X116496565Y-83470611D01*
X116293516Y-83511000D01*
X116086484Y-83511000D01*
X115883435Y-83470611D01*
X115692166Y-83391385D01*
X115520024Y-83276363D01*
X115373637Y-83129976D01*
X115258615Y-82957834D01*
X115179389Y-82766565D01*
X115139000Y-82563516D01*
X115139000Y-82356484D01*
X115179389Y-82153435D01*
X115258615Y-81962166D01*
X115373637Y-81790024D01*
X115520024Y-81643637D01*
X115692166Y-81528615D01*
X115883435Y-81449389D01*
X116086484Y-81409000D01*
X116293516Y-81409000D01*
X116496565Y-81449389D01*
X116496565Y-81449389D01*
G37*
G36*
X79277396Y-80085546D02*
X79450466Y-80157234D01*
X79606230Y-80261312D01*
X79738688Y-80393770D01*
X79842766Y-80549534D01*
X79914454Y-80722604D01*
X79951000Y-80906333D01*
X79951000Y-81093667D01*
X79914454Y-81277396D01*
X79842766Y-81450466D01*
X79738688Y-81606230D01*
X79606230Y-81738688D01*
X79450466Y-81842766D01*
X79277396Y-81914454D01*
X79093667Y-81951000D01*
X78906333Y-81951000D01*
X78722604Y-81914454D01*
X78549534Y-81842766D01*
X78393770Y-81738688D01*
X78261312Y-81606230D01*
X78157234Y-81450466D01*
X78085546Y-81277396D01*
X78049000Y-81093667D01*
X78049000Y-80906333D01*
X78085546Y-80722604D01*
X78157234Y-80549534D01*
X78261312Y-80393770D01*
X78393770Y-80261312D01*
X78549534Y-80157234D01*
X78722604Y-80085546D01*
X78906333Y-80049000D01*
X79093667Y-80049000D01*
X79277396Y-80085546D01*
X79277396Y-80085546D01*
G37*
G36*
X70326821Y-79161313D02*
X70326824Y-79161314D01*
X70326825Y-79161314D01*
X70487239Y-79209975D01*
X70487241Y-79209976D01*
X70487244Y-79209977D01*
X70635078Y-79288995D01*
X70764659Y-79395341D01*
X70871005Y-79524922D01*
X70950023Y-79672756D01*
X70950024Y-79672759D01*
X70950025Y-79672761D01*
X70998686Y-79833175D01*
X70998687Y-79833179D01*
X71015117Y-80000000D01*
X70998687Y-80166821D01*
X70998686Y-80166824D01*
X70998686Y-80166825D01*
X70970024Y-80261312D01*
X70950023Y-80327244D01*
X70871005Y-80475078D01*
X70764659Y-80604659D01*
X70635078Y-80711005D01*
X70487244Y-80790023D01*
X70487241Y-80790024D01*
X70487239Y-80790025D01*
X70326825Y-80838686D01*
X70326824Y-80838686D01*
X70326821Y-80838687D01*
X70201804Y-80851000D01*
X70118196Y-80851000D01*
X69993179Y-80838687D01*
X69993176Y-80838686D01*
X69993175Y-80838686D01*
X69832761Y-80790025D01*
X69832759Y-80790024D01*
X69832756Y-80790023D01*
X69684922Y-80711005D01*
X69555341Y-80604659D01*
X69448995Y-80475078D01*
X69369977Y-80327244D01*
X69349977Y-80261312D01*
X69321314Y-80166825D01*
X69321314Y-80166824D01*
X69321313Y-80166821D01*
X69304883Y-80000000D01*
X69321313Y-79833179D01*
X69321314Y-79833175D01*
X69369975Y-79672761D01*
X69369976Y-79672759D01*
X69369977Y-79672756D01*
X69448995Y-79524922D01*
X69555341Y-79395341D01*
X69684922Y-79288995D01*
X69832756Y-79209977D01*
X69832759Y-79209976D01*
X69832761Y-79209975D01*
X69993175Y-79161314D01*
X69993176Y-79161314D01*
X69993179Y-79161313D01*
X70118196Y-79149000D01*
X70201804Y-79149000D01*
X70326821Y-79161313D01*
X70326821Y-79161313D01*
G37*
G36*
X60248228Y-79181703D02*
X60403100Y-79245853D01*
X60542481Y-79338985D01*
X60661015Y-79457519D01*
X60754147Y-79596900D01*
X60818297Y-79751772D01*
X60851000Y-79916184D01*
X60851000Y-80083816D01*
X60818297Y-80248228D01*
X60754147Y-80403100D01*
X60661015Y-80542481D01*
X60542481Y-80661015D01*
X60403100Y-80754147D01*
X60248228Y-80818297D01*
X60083816Y-80851000D01*
X59916184Y-80851000D01*
X59751772Y-80818297D01*
X59596900Y-80754147D01*
X59457519Y-80661015D01*
X59338985Y-80542481D01*
X59245853Y-80403100D01*
X59181703Y-80248228D01*
X59149000Y-80083816D01*
X59149000Y-79916184D01*
X59181703Y-79751772D01*
X59245853Y-79596900D01*
X59338985Y-79457519D01*
X59457519Y-79338985D01*
X59596900Y-79245853D01*
X59751772Y-79181703D01*
X59916184Y-79149000D01*
X60083816Y-79149000D01*
X60248228Y-79181703D01*
X60248228Y-79181703D01*
G37*
G36*
X79277396Y-77585546D02*
X79450466Y-77657234D01*
X79606230Y-77761312D01*
X79738688Y-77893770D01*
X79842766Y-78049534D01*
X79914454Y-78222604D01*
X79951000Y-78406333D01*
X79951000Y-78593667D01*
X79914454Y-78777396D01*
X79842766Y-78950466D01*
X79738688Y-79106230D01*
X79606230Y-79238688D01*
X79450466Y-79342766D01*
X79277396Y-79414454D01*
X79093667Y-79451000D01*
X78906333Y-79451000D01*
X78722604Y-79414454D01*
X78549534Y-79342766D01*
X78393770Y-79238688D01*
X78261312Y-79106230D01*
X78157234Y-78950466D01*
X78085546Y-78777396D01*
X78049000Y-78593667D01*
X78049000Y-78406333D01*
X78085546Y-78222604D01*
X78157234Y-78049534D01*
X78261312Y-77893770D01*
X78393770Y-77761312D01*
X78549534Y-77657234D01*
X78722604Y-77585546D01*
X78906333Y-77549000D01*
X79093667Y-77549000D01*
X79277396Y-77585546D01*
X79277396Y-77585546D01*
G37*
G36*
X79277396Y-75085546D02*
X79450466Y-75157234D01*
X79606230Y-75261312D01*
X79738688Y-75393770D01*
X79842766Y-75549534D01*
X79914454Y-75722604D01*
X79951000Y-75906333D01*
X79951000Y-76093667D01*
X79914454Y-76277396D01*
X79842766Y-76450466D01*
X79738688Y-76606230D01*
X79606230Y-76738688D01*
X79450466Y-76842766D01*
X79277396Y-76914454D01*
X79093667Y-76951000D01*
X78906333Y-76951000D01*
X78722604Y-76914454D01*
X78549534Y-76842766D01*
X78393770Y-76738688D01*
X78261312Y-76606230D01*
X78157234Y-76450466D01*
X78085546Y-76277396D01*
X78049000Y-76093667D01*
X78049000Y-75906333D01*
X78085546Y-75722604D01*
X78157234Y-75549534D01*
X78261312Y-75393770D01*
X78393770Y-75261312D01*
X78549534Y-75157234D01*
X78722604Y-75085546D01*
X78906333Y-75049000D01*
X79093667Y-75049000D01*
X79277396Y-75085546D01*
X79277396Y-75085546D01*
G37*
G36*
X86598252Y-72127818D02*
X86598254Y-72127819D01*
X86598255Y-72127819D01*
X86971513Y-72282427D01*
X87171694Y-72416184D01*
X87307439Y-72506886D01*
X87593114Y-72792561D01*
X87593116Y-72792564D01*
X87817573Y-73128487D01*
X87972181Y-73501745D01*
X88051000Y-73897994D01*
X88051000Y-74302006D01*
X87972181Y-74698255D01*
X87817573Y-75071513D01*
X87760296Y-75157234D01*
X87593114Y-75407439D01*
X87307439Y-75693114D01*
X87307436Y-75693116D01*
X86971513Y-75917573D01*
X86598255Y-76072181D01*
X86598254Y-76072181D01*
X86598252Y-76072182D01*
X86202007Y-76151000D01*
X85797993Y-76151000D01*
X85401748Y-76072182D01*
X85401746Y-76072181D01*
X85401745Y-76072181D01*
X85028487Y-75917573D01*
X84692564Y-75693116D01*
X84692561Y-75693114D01*
X84406886Y-75407439D01*
X84239704Y-75157234D01*
X84182427Y-75071513D01*
X84027819Y-74698255D01*
X83949000Y-74302006D01*
X83949000Y-73897994D01*
X84027819Y-73501745D01*
X84182427Y-73128487D01*
X84406884Y-72792564D01*
X84406886Y-72792561D01*
X84692561Y-72506886D01*
X84828306Y-72416184D01*
X85028487Y-72282427D01*
X85401745Y-72127819D01*
X85401746Y-72127819D01*
X85401748Y-72127818D01*
X85797993Y-72049000D01*
X86202007Y-72049000D01*
X86598252Y-72127818D01*
X86598252Y-72127818D01*
G37*
G36*
X112008228Y-71681703D02*
X112163100Y-71745853D01*
X112302481Y-71838985D01*
X112421015Y-71957519D01*
X112514147Y-72096900D01*
X112578297Y-72251772D01*
X112611000Y-72416184D01*
X112611000Y-72583816D01*
X112578297Y-72748228D01*
X112514147Y-72903100D01*
X112421015Y-73042481D01*
X112302481Y-73161015D01*
X112163100Y-73254147D01*
X112008228Y-73318297D01*
X111843816Y-73351000D01*
X111676184Y-73351000D01*
X111511772Y-73318297D01*
X111356900Y-73254147D01*
X111217519Y-73161015D01*
X111098985Y-73042481D01*
X111005853Y-72903100D01*
X110941703Y-72748228D01*
X110909000Y-72583816D01*
X110909000Y-72416184D01*
X110941703Y-72251772D01*
X111005853Y-72096900D01*
X111098985Y-71957519D01*
X111217519Y-71838985D01*
X111356900Y-71745853D01*
X111511772Y-71681703D01*
X111676184Y-71649000D01*
X111843816Y-71649000D01*
X112008228Y-71681703D01*
X112008228Y-71681703D01*
G37*
G36*
X122086821Y-71661313D02*
X122086824Y-71661314D01*
X122086825Y-71661314D01*
X122247239Y-71709975D01*
X122247241Y-71709976D01*
X122247244Y-71709977D01*
X122395078Y-71788995D01*
X122524659Y-71895341D01*
X122631005Y-72024922D01*
X122710023Y-72172756D01*
X122710024Y-72172759D01*
X122710025Y-72172761D01*
X122743292Y-72282428D01*
X122758687Y-72333179D01*
X122775117Y-72500000D01*
X122758687Y-72666821D01*
X122758686Y-72666824D01*
X122758686Y-72666825D01*
X122720544Y-72792564D01*
X122710023Y-72827244D01*
X122631005Y-72975078D01*
X122524659Y-73104659D01*
X122395078Y-73211005D01*
X122247244Y-73290023D01*
X122247241Y-73290024D01*
X122247239Y-73290025D01*
X122086825Y-73338686D01*
X122086824Y-73338686D01*
X122086821Y-73338687D01*
X121961804Y-73351000D01*
X121878196Y-73351000D01*
X121753179Y-73338687D01*
X121753176Y-73338686D01*
X121753175Y-73338686D01*
X121592761Y-73290025D01*
X121592759Y-73290024D01*
X121592756Y-73290023D01*
X121444922Y-73211005D01*
X121315341Y-73104659D01*
X121208995Y-72975078D01*
X121129977Y-72827244D01*
X121119457Y-72792564D01*
X121081314Y-72666825D01*
X121081314Y-72666824D01*
X121081313Y-72666821D01*
X121064883Y-72500000D01*
X121081313Y-72333179D01*
X121096708Y-72282428D01*
X121129975Y-72172761D01*
X121129976Y-72172759D01*
X121129977Y-72172756D01*
X121208995Y-72024922D01*
X121315341Y-71895341D01*
X121444922Y-71788995D01*
X121592756Y-71709977D01*
X121592759Y-71709976D01*
X121592761Y-71709975D01*
X121753175Y-71661314D01*
X121753176Y-71661314D01*
X121753179Y-71661313D01*
X121878196Y-71649000D01*
X121961804Y-71649000D01*
X122086821Y-71661313D01*
X122086821Y-71661313D01*
G37*
G36*
X73146228Y-71681703D02*
X73301100Y-71745853D01*
X73440481Y-71838985D01*
X73559015Y-71957519D01*
X73652147Y-72096900D01*
X73716297Y-72251772D01*
X73749000Y-72416184D01*
X73749000Y-72583816D01*
X73716297Y-72748228D01*
X73652147Y-72903100D01*
X73559015Y-73042481D01*
X73440481Y-73161015D01*
X73301100Y-73254147D01*
X73146228Y-73318297D01*
X72981816Y-73351000D01*
X72814184Y-73351000D01*
X72649772Y-73318297D01*
X72494900Y-73254147D01*
X72355519Y-73161015D01*
X72236985Y-73042481D01*
X72143853Y-72903100D01*
X72079703Y-72748228D01*
X72047000Y-72583816D01*
X72047000Y-72416184D01*
X72079703Y-72251772D01*
X72143853Y-72096900D01*
X72236985Y-71957519D01*
X72355519Y-71838985D01*
X72494900Y-71745853D01*
X72649772Y-71681703D01*
X72814184Y-71649000D01*
X72981816Y-71649000D01*
X73146228Y-71681703D01*
X73146228Y-71681703D01*
G37*
G36*
X107862821Y-71661313D02*
X107862824Y-71661314D01*
X107862825Y-71661314D01*
X108023239Y-71709975D01*
X108023241Y-71709976D01*
X108023244Y-71709977D01*
X108171078Y-71788995D01*
X108300659Y-71895341D01*
X108407005Y-72024922D01*
X108486023Y-72172756D01*
X108486024Y-72172759D01*
X108486025Y-72172761D01*
X108519292Y-72282428D01*
X108534687Y-72333179D01*
X108551117Y-72500000D01*
X108534687Y-72666821D01*
X108534686Y-72666824D01*
X108534686Y-72666825D01*
X108496544Y-72792564D01*
X108486023Y-72827244D01*
X108407005Y-72975078D01*
X108300659Y-73104659D01*
X108171078Y-73211005D01*
X108023244Y-73290023D01*
X108023241Y-73290024D01*
X108023239Y-73290025D01*
X107862825Y-73338686D01*
X107862824Y-73338686D01*
X107862821Y-73338687D01*
X107737804Y-73351000D01*
X107654196Y-73351000D01*
X107529179Y-73338687D01*
X107529176Y-73338686D01*
X107529175Y-73338686D01*
X107368761Y-73290025D01*
X107368759Y-73290024D01*
X107368756Y-73290023D01*
X107220922Y-73211005D01*
X107091341Y-73104659D01*
X106984995Y-72975078D01*
X106905977Y-72827244D01*
X106895457Y-72792564D01*
X106857314Y-72666825D01*
X106857314Y-72666824D01*
X106857313Y-72666821D01*
X106840883Y-72500000D01*
X106857313Y-72333179D01*
X106872708Y-72282428D01*
X106905975Y-72172761D01*
X106905976Y-72172759D01*
X106905977Y-72172756D01*
X106984995Y-72024922D01*
X107091341Y-71895341D01*
X107220922Y-71788995D01*
X107368756Y-71709977D01*
X107368759Y-71709976D01*
X107368761Y-71709975D01*
X107529175Y-71661314D01*
X107529176Y-71661314D01*
X107529179Y-71661313D01*
X107654196Y-71649000D01*
X107737804Y-71649000D01*
X107862821Y-71661313D01*
X107862821Y-71661313D01*
G37*
G36*
X47410821Y-71661313D02*
X47410824Y-71661314D01*
X47410825Y-71661314D01*
X47571239Y-71709975D01*
X47571241Y-71709976D01*
X47571244Y-71709977D01*
X47719078Y-71788995D01*
X47848659Y-71895341D01*
X47955005Y-72024922D01*
X48034023Y-72172756D01*
X48034024Y-72172759D01*
X48034025Y-72172761D01*
X48067292Y-72282428D01*
X48082687Y-72333179D01*
X48099117Y-72500000D01*
X48082687Y-72666821D01*
X48082686Y-72666824D01*
X48082686Y-72666825D01*
X48044544Y-72792564D01*
X48034023Y-72827244D01*
X47955005Y-72975078D01*
X47848659Y-73104659D01*
X47719078Y-73211005D01*
X47571244Y-73290023D01*
X47571241Y-73290024D01*
X47571239Y-73290025D01*
X47410825Y-73338686D01*
X47410824Y-73338686D01*
X47410821Y-73338687D01*
X47285804Y-73351000D01*
X47202196Y-73351000D01*
X47077179Y-73338687D01*
X47077176Y-73338686D01*
X47077175Y-73338686D01*
X46916761Y-73290025D01*
X46916759Y-73290024D01*
X46916756Y-73290023D01*
X46768922Y-73211005D01*
X46639341Y-73104659D01*
X46532995Y-72975078D01*
X46453977Y-72827244D01*
X46443457Y-72792564D01*
X46405314Y-72666825D01*
X46405314Y-72666824D01*
X46405313Y-72666821D01*
X46388883Y-72500000D01*
X46405313Y-72333179D01*
X46420708Y-72282428D01*
X46453975Y-72172761D01*
X46453976Y-72172759D01*
X46453977Y-72172756D01*
X46532995Y-72024922D01*
X46639341Y-71895341D01*
X46768922Y-71788995D01*
X46916756Y-71709977D01*
X46916759Y-71709976D01*
X46916761Y-71709975D01*
X47077175Y-71661314D01*
X47077176Y-71661314D01*
X47077179Y-71661313D01*
X47202196Y-71649000D01*
X47285804Y-71649000D01*
X47410821Y-71661313D01*
X47410821Y-71661313D01*
G37*
G36*
X57652228Y-71681703D02*
X57807100Y-71745853D01*
X57946481Y-71838985D01*
X58065015Y-71957519D01*
X58158147Y-72096900D01*
X58222297Y-72251772D01*
X58255000Y-72416184D01*
X58255000Y-72583816D01*
X58222297Y-72748228D01*
X58158147Y-72903100D01*
X58065015Y-73042481D01*
X57946481Y-73161015D01*
X57807100Y-73254147D01*
X57652228Y-73318297D01*
X57487816Y-73351000D01*
X57320184Y-73351000D01*
X57155772Y-73318297D01*
X57000900Y-73254147D01*
X56861519Y-73161015D01*
X56742985Y-73042481D01*
X56649853Y-72903100D01*
X56585703Y-72748228D01*
X56553000Y-72583816D01*
X56553000Y-72416184D01*
X56585703Y-72251772D01*
X56649853Y-72096900D01*
X56742985Y-71957519D01*
X56861519Y-71838985D01*
X57000900Y-71745853D01*
X57155772Y-71681703D01*
X57320184Y-71649000D01*
X57487816Y-71649000D01*
X57652228Y-71681703D01*
X57652228Y-71681703D01*
G37*
G36*
X97784228Y-71681703D02*
X97939100Y-71745853D01*
X98078481Y-71838985D01*
X98197015Y-71957519D01*
X98290147Y-72096900D01*
X98354297Y-72251772D01*
X98387000Y-72416184D01*
X98387000Y-72583816D01*
X98354297Y-72748228D01*
X98290147Y-72903100D01*
X98197015Y-73042481D01*
X98078481Y-73161015D01*
X97939100Y-73254147D01*
X97784228Y-73318297D01*
X97619816Y-73351000D01*
X97452184Y-73351000D01*
X97287772Y-73318297D01*
X97132900Y-73254147D01*
X96993519Y-73161015D01*
X96874985Y-73042481D01*
X96781853Y-72903100D01*
X96717703Y-72748228D01*
X96685000Y-72583816D01*
X96685000Y-72416184D01*
X96717703Y-72251772D01*
X96781853Y-72096900D01*
X96874985Y-71957519D01*
X96993519Y-71838985D01*
X97132900Y-71745853D01*
X97287772Y-71681703D01*
X97452184Y-71649000D01*
X97619816Y-71649000D01*
X97784228Y-71681703D01*
X97784228Y-71681703D01*
G37*
G36*
X62904821Y-71661313D02*
X62904824Y-71661314D01*
X62904825Y-71661314D01*
X63065239Y-71709975D01*
X63065241Y-71709976D01*
X63065244Y-71709977D01*
X63213078Y-71788995D01*
X63342659Y-71895341D01*
X63449005Y-72024922D01*
X63528023Y-72172756D01*
X63528024Y-72172759D01*
X63528025Y-72172761D01*
X63561292Y-72282428D01*
X63576687Y-72333179D01*
X63593117Y-72500000D01*
X63576687Y-72666821D01*
X63576686Y-72666824D01*
X63576686Y-72666825D01*
X63538544Y-72792564D01*
X63528023Y-72827244D01*
X63449005Y-72975078D01*
X63342659Y-73104659D01*
X63213078Y-73211005D01*
X63065244Y-73290023D01*
X63065241Y-73290024D01*
X63065239Y-73290025D01*
X62904825Y-73338686D01*
X62904824Y-73338686D01*
X62904821Y-73338687D01*
X62779804Y-73351000D01*
X62696196Y-73351000D01*
X62571179Y-73338687D01*
X62571176Y-73338686D01*
X62571175Y-73338686D01*
X62410761Y-73290025D01*
X62410759Y-73290024D01*
X62410756Y-73290023D01*
X62262922Y-73211005D01*
X62133341Y-73104659D01*
X62026995Y-72975078D01*
X61947977Y-72827244D01*
X61937457Y-72792564D01*
X61899314Y-72666825D01*
X61899314Y-72666824D01*
X61899313Y-72666821D01*
X61882883Y-72500000D01*
X61899313Y-72333179D01*
X61914708Y-72282428D01*
X61947975Y-72172761D01*
X61947976Y-72172759D01*
X61947977Y-72172756D01*
X62026995Y-72024922D01*
X62133341Y-71895341D01*
X62262922Y-71788995D01*
X62410756Y-71709977D01*
X62410759Y-71709976D01*
X62410761Y-71709975D01*
X62571175Y-71661314D01*
X62571176Y-71661314D01*
X62571179Y-71661313D01*
X62696196Y-71649000D01*
X62779804Y-71649000D01*
X62904821Y-71661313D01*
X62904821Y-71661313D01*
G37*
G36*
X95951000Y-65951000D02*
X94049000Y-65951000D01*
X94049000Y-64049000D01*
X95951000Y-64049000D01*
X95951000Y-65951000D01*
X95951000Y-65951000D01*
G37*
G36*
X85951000Y-65951000D02*
X84049000Y-65951000D01*
X84049000Y-64049000D01*
X85951000Y-64049000D01*
X85951000Y-65951000D01*
X85951000Y-65951000D01*
G37*
G36*
X87817396Y-64085546D02*
X87990466Y-64157234D01*
X88146230Y-64261312D01*
X88278688Y-64393770D01*
X88382766Y-64549534D01*
X88454454Y-64722604D01*
X88491000Y-64906333D01*
X88491000Y-65093667D01*
X88454454Y-65277396D01*
X88382766Y-65450466D01*
X88278688Y-65606230D01*
X88146230Y-65738688D01*
X87990466Y-65842766D01*
X87817396Y-65914454D01*
X87633667Y-65951000D01*
X87446333Y-65951000D01*
X87262604Y-65914454D01*
X87089534Y-65842766D01*
X86933770Y-65738688D01*
X86801312Y-65606230D01*
X86697234Y-65450466D01*
X86625546Y-65277396D01*
X86589000Y-65093667D01*
X86589000Y-64906333D01*
X86625546Y-64722604D01*
X86697234Y-64549534D01*
X86801312Y-64393770D01*
X86933770Y-64261312D01*
X87089534Y-64157234D01*
X87262604Y-64085546D01*
X87446333Y-64049000D01*
X87633667Y-64049000D01*
X87817396Y-64085546D01*
X87817396Y-64085546D01*
G37*
G36*
X105951000Y-65951000D02*
X104049000Y-65951000D01*
X104049000Y-64049000D01*
X105951000Y-64049000D01*
X105951000Y-65951000D01*
X105951000Y-65951000D01*
G37*
G36*
X97817396Y-64085546D02*
X97990466Y-64157234D01*
X98146230Y-64261312D01*
X98278688Y-64393770D01*
X98382766Y-64549534D01*
X98454454Y-64722604D01*
X98491000Y-64906333D01*
X98491000Y-65093667D01*
X98454454Y-65277396D01*
X98382766Y-65450466D01*
X98278688Y-65606230D01*
X98146230Y-65738688D01*
X97990466Y-65842766D01*
X97817396Y-65914454D01*
X97633667Y-65951000D01*
X97446333Y-65951000D01*
X97262604Y-65914454D01*
X97089534Y-65842766D01*
X96933770Y-65738688D01*
X96801312Y-65606230D01*
X96697234Y-65450466D01*
X96625546Y-65277396D01*
X96589000Y-65093667D01*
X96589000Y-64906333D01*
X96625546Y-64722604D01*
X96697234Y-64549534D01*
X96801312Y-64393770D01*
X96933770Y-64261312D01*
X97089534Y-64157234D01*
X97262604Y-64085546D01*
X97446333Y-64049000D01*
X97633667Y-64049000D01*
X97817396Y-64085546D01*
X97817396Y-64085546D01*
G37*
G36*
X77817396Y-64085546D02*
X77990466Y-64157234D01*
X78146230Y-64261312D01*
X78278688Y-64393770D01*
X78382766Y-64549534D01*
X78454454Y-64722604D01*
X78491000Y-64906333D01*
X78491000Y-65093667D01*
X78454454Y-65277396D01*
X78382766Y-65450466D01*
X78278688Y-65606230D01*
X78146230Y-65738688D01*
X77990466Y-65842766D01*
X77817396Y-65914454D01*
X77633667Y-65951000D01*
X77446333Y-65951000D01*
X77262604Y-65914454D01*
X77089534Y-65842766D01*
X76933770Y-65738688D01*
X76801312Y-65606230D01*
X76697234Y-65450466D01*
X76625546Y-65277396D01*
X76589000Y-65093667D01*
X76589000Y-64906333D01*
X76625546Y-64722604D01*
X76697234Y-64549534D01*
X76801312Y-64393770D01*
X76933770Y-64261312D01*
X77089534Y-64157234D01*
X77262604Y-64085546D01*
X77446333Y-64049000D01*
X77633667Y-64049000D01*
X77817396Y-64085546D01*
X77817396Y-64085546D01*
G37*
G36*
X75951000Y-65951000D02*
X74049000Y-65951000D01*
X74049000Y-64049000D01*
X75951000Y-64049000D01*
X75951000Y-65951000D01*
X75951000Y-65951000D01*
G37*
G36*
X67817396Y-64085546D02*
X67990466Y-64157234D01*
X68146230Y-64261312D01*
X68278688Y-64393770D01*
X68382766Y-64549534D01*
X68454454Y-64722604D01*
X68491000Y-64906333D01*
X68491000Y-65093667D01*
X68454454Y-65277396D01*
X68382766Y-65450466D01*
X68278688Y-65606230D01*
X68146230Y-65738688D01*
X67990466Y-65842766D01*
X67817396Y-65914454D01*
X67633667Y-65951000D01*
X67446333Y-65951000D01*
X67262604Y-65914454D01*
X67089534Y-65842766D01*
X66933770Y-65738688D01*
X66801312Y-65606230D01*
X66697234Y-65450466D01*
X66625546Y-65277396D01*
X66589000Y-65093667D01*
X66589000Y-64906333D01*
X66625546Y-64722604D01*
X66697234Y-64549534D01*
X66801312Y-64393770D01*
X66933770Y-64261312D01*
X67089534Y-64157234D01*
X67262604Y-64085546D01*
X67446333Y-64049000D01*
X67633667Y-64049000D01*
X67817396Y-64085546D01*
X67817396Y-64085546D01*
G37*
G36*
X65951000Y-65951000D02*
X64049000Y-65951000D01*
X64049000Y-64049000D01*
X65951000Y-64049000D01*
X65951000Y-65951000D01*
X65951000Y-65951000D01*
G37*
G36*
X107817396Y-64085546D02*
X107990466Y-64157234D01*
X108146230Y-64261312D01*
X108278688Y-64393770D01*
X108382766Y-64549534D01*
X108454454Y-64722604D01*
X108491000Y-64906333D01*
X108491000Y-65093667D01*
X108454454Y-65277396D01*
X108382766Y-65450466D01*
X108278688Y-65606230D01*
X108146230Y-65738688D01*
X107990466Y-65842766D01*
X107817396Y-65914454D01*
X107633667Y-65951000D01*
X107446333Y-65951000D01*
X107262604Y-65914454D01*
X107089534Y-65842766D01*
X106933770Y-65738688D01*
X106801312Y-65606230D01*
X106697234Y-65450466D01*
X106625546Y-65277396D01*
X106589000Y-65093667D01*
X106589000Y-64906333D01*
X106625546Y-64722604D01*
X106697234Y-64549534D01*
X106801312Y-64393770D01*
X106933770Y-64261312D01*
X107089534Y-64157234D01*
X107262604Y-64085546D01*
X107446333Y-64049000D01*
X107633667Y-64049000D01*
X107817396Y-64085546D01*
X107817396Y-64085546D01*
G37*
G36*
X57666821Y-56821313D02*
X57666824Y-56821314D01*
X57666825Y-56821314D01*
X57827239Y-56869975D01*
X57827241Y-56869976D01*
X57827244Y-56869977D01*
X57975078Y-56948995D01*
X58104659Y-57055341D01*
X58211005Y-57184922D01*
X58290023Y-57332756D01*
X58290024Y-57332759D01*
X58290025Y-57332761D01*
X58315331Y-57416184D01*
X58338687Y-57493179D01*
X58355117Y-57660000D01*
X58338687Y-57826821D01*
X58290023Y-57987244D01*
X58211005Y-58135078D01*
X58104659Y-58264659D01*
X57975078Y-58371005D01*
X57827244Y-58450023D01*
X57827241Y-58450024D01*
X57827239Y-58450025D01*
X57666825Y-58498686D01*
X57666824Y-58498686D01*
X57666821Y-58498687D01*
X57541804Y-58511000D01*
X57458196Y-58511000D01*
X57333179Y-58498687D01*
X57333176Y-58498686D01*
X57333175Y-58498686D01*
X57172761Y-58450025D01*
X57172759Y-58450024D01*
X57172756Y-58450023D01*
X57024922Y-58371005D01*
X56895341Y-58264659D01*
X56788995Y-58135078D01*
X56709977Y-57987244D01*
X56661313Y-57826821D01*
X56644883Y-57660000D01*
X56661313Y-57493179D01*
X56684669Y-57416184D01*
X56709975Y-57332761D01*
X56709976Y-57332759D01*
X56709977Y-57332756D01*
X56788995Y-57184922D01*
X56895341Y-57055341D01*
X57024922Y-56948995D01*
X57172756Y-56869977D01*
X57172759Y-56869976D01*
X57172761Y-56869975D01*
X57333175Y-56821314D01*
X57333176Y-56821314D01*
X57333179Y-56821313D01*
X57458196Y-56809000D01*
X57541804Y-56809000D01*
X57666821Y-56821313D01*
X57666821Y-56821313D01*
G37*
G36*
X90248228Y-56681703D02*
X90403100Y-56745853D01*
X90542481Y-56838985D01*
X90661015Y-56957519D01*
X90754147Y-57096900D01*
X90818297Y-57251772D01*
X90851000Y-57416184D01*
X90851000Y-57583816D01*
X90818297Y-57748228D01*
X90754147Y-57903100D01*
X90661015Y-58042481D01*
X90542481Y-58161015D01*
X90403100Y-58254147D01*
X90248228Y-58318297D01*
X90083816Y-58351000D01*
X89916184Y-58351000D01*
X89751772Y-58318297D01*
X89596900Y-58254147D01*
X89457519Y-58161015D01*
X89338985Y-58042481D01*
X89245853Y-57903100D01*
X89181703Y-57748228D01*
X89149000Y-57583816D01*
X89149000Y-57416184D01*
X89181703Y-57251772D01*
X89245853Y-57096900D01*
X89338985Y-56957519D01*
X89457519Y-56838985D01*
X89596900Y-56745853D01*
X89751772Y-56681703D01*
X89916184Y-56649000D01*
X90083816Y-56649000D01*
X90248228Y-56681703D01*
X90248228Y-56681703D01*
G37*
G36*
X80006821Y-56661313D02*
X80006824Y-56661314D01*
X80006825Y-56661314D01*
X80167239Y-56709975D01*
X80167241Y-56709976D01*
X80167244Y-56709977D01*
X80315078Y-56788995D01*
X80444659Y-56895341D01*
X80551005Y-57024922D01*
X80630023Y-57172756D01*
X80630024Y-57172759D01*
X80630025Y-57172761D01*
X80678559Y-57332756D01*
X80678687Y-57333179D01*
X80695117Y-57500000D01*
X80678687Y-57666821D01*
X80678686Y-57666824D01*
X80678686Y-57666825D01*
X80630151Y-57826825D01*
X80630023Y-57827244D01*
X80551005Y-57975078D01*
X80444659Y-58104659D01*
X80315078Y-58211005D01*
X80167244Y-58290023D01*
X80167241Y-58290024D01*
X80167239Y-58290025D01*
X80006825Y-58338686D01*
X80006824Y-58338686D01*
X80006821Y-58338687D01*
X79881804Y-58351000D01*
X79798196Y-58351000D01*
X79673179Y-58338687D01*
X79673176Y-58338686D01*
X79673175Y-58338686D01*
X79512761Y-58290025D01*
X79512759Y-58290024D01*
X79512756Y-58290023D01*
X79364922Y-58211005D01*
X79235341Y-58104659D01*
X79128995Y-57975078D01*
X79049977Y-57827244D01*
X79049850Y-57826825D01*
X79001314Y-57666825D01*
X79001314Y-57666824D01*
X79001313Y-57666821D01*
X78984883Y-57500000D01*
X79001313Y-57333179D01*
X79001441Y-57332756D01*
X79049975Y-57172761D01*
X79049976Y-57172759D01*
X79049977Y-57172756D01*
X79128995Y-57024922D01*
X79235341Y-56895341D01*
X79364922Y-56788995D01*
X79512756Y-56709977D01*
X79512759Y-56709976D01*
X79512761Y-56709975D01*
X79673175Y-56661314D01*
X79673176Y-56661314D01*
X79673179Y-56661313D01*
X79798196Y-56649000D01*
X79881804Y-56649000D01*
X80006821Y-56661313D01*
X80006821Y-56661313D01*
G37*
G36*
X97666821Y-54281313D02*
X97666824Y-54281314D01*
X97666825Y-54281314D01*
X97827239Y-54329975D01*
X97827241Y-54329976D01*
X97827244Y-54329977D01*
X97975078Y-54408995D01*
X98104659Y-54515341D01*
X98211005Y-54644922D01*
X98290023Y-54792756D01*
X98338687Y-54953179D01*
X98355117Y-55120000D01*
X98338687Y-55286821D01*
X98290023Y-55447244D01*
X98211005Y-55595078D01*
X98104659Y-55724659D01*
X97975078Y-55831005D01*
X97827244Y-55910023D01*
X97827241Y-55910024D01*
X97827239Y-55910025D01*
X97666825Y-55958686D01*
X97666824Y-55958686D01*
X97666821Y-55958687D01*
X97541804Y-55971000D01*
X97458196Y-55971000D01*
X97333179Y-55958687D01*
X97333176Y-55958686D01*
X97333175Y-55958686D01*
X97172761Y-55910025D01*
X97172759Y-55910024D01*
X97172756Y-55910023D01*
X97024922Y-55831005D01*
X96895341Y-55724659D01*
X96788995Y-55595078D01*
X96709977Y-55447244D01*
X96661313Y-55286821D01*
X96644883Y-55120000D01*
X96661313Y-54953179D01*
X96709977Y-54792756D01*
X96788995Y-54644922D01*
X96895341Y-54515341D01*
X97024922Y-54408995D01*
X97172756Y-54329977D01*
X97172759Y-54329976D01*
X97172761Y-54329975D01*
X97333175Y-54281314D01*
X97333176Y-54281314D01*
X97333179Y-54281313D01*
X97458196Y-54269000D01*
X97541804Y-54269000D01*
X97666821Y-54281313D01*
X97666821Y-54281313D01*
G37*
G36*
X105286821Y-54281313D02*
X105286824Y-54281314D01*
X105286825Y-54281314D01*
X105447239Y-54329975D01*
X105447241Y-54329976D01*
X105447244Y-54329977D01*
X105595078Y-54408995D01*
X105724659Y-54515341D01*
X105831005Y-54644922D01*
X105910023Y-54792756D01*
X105958687Y-54953179D01*
X105975117Y-55120000D01*
X105958687Y-55286821D01*
X105910023Y-55447244D01*
X105831005Y-55595078D01*
X105724659Y-55724659D01*
X105595078Y-55831005D01*
X105447244Y-55910023D01*
X105447241Y-55910024D01*
X105447239Y-55910025D01*
X105286825Y-55958686D01*
X105286824Y-55958686D01*
X105286821Y-55958687D01*
X105161804Y-55971000D01*
X105078196Y-55971000D01*
X104953179Y-55958687D01*
X104953176Y-55958686D01*
X104953175Y-55958686D01*
X104792761Y-55910025D01*
X104792759Y-55910024D01*
X104792756Y-55910023D01*
X104644922Y-55831005D01*
X104515341Y-55724659D01*
X104408995Y-55595078D01*
X104329977Y-55447244D01*
X104281313Y-55286821D01*
X104264883Y-55120000D01*
X104281313Y-54953179D01*
X104329977Y-54792756D01*
X104408995Y-54644922D01*
X104515341Y-54515341D01*
X104644922Y-54408995D01*
X104792756Y-54329977D01*
X104792759Y-54329976D01*
X104792761Y-54329975D01*
X104953175Y-54281314D01*
X104953176Y-54281314D01*
X104953179Y-54281313D01*
X105078196Y-54269000D01*
X105161804Y-54269000D01*
X105286821Y-54281313D01*
X105286821Y-54281313D01*
G37*
G36*
X105286821Y-51741313D02*
X105286824Y-51741314D01*
X105286825Y-51741314D01*
X105447239Y-51789975D01*
X105447241Y-51789976D01*
X105447244Y-51789977D01*
X105595078Y-51868995D01*
X105724659Y-51975341D01*
X105831005Y-52104922D01*
X105910023Y-52252756D01*
X105958687Y-52413179D01*
X105975117Y-52580000D01*
X105958687Y-52746821D01*
X105958686Y-52746824D01*
X105958686Y-52746825D01*
X105911281Y-52903100D01*
X105910023Y-52907244D01*
X105831005Y-53055078D01*
X105724659Y-53184659D01*
X105595078Y-53291005D01*
X105447244Y-53370023D01*
X105447241Y-53370024D01*
X105447239Y-53370025D01*
X105286825Y-53418686D01*
X105286824Y-53418686D01*
X105286821Y-53418687D01*
X105161804Y-53431000D01*
X105078196Y-53431000D01*
X104953179Y-53418687D01*
X104953176Y-53418686D01*
X104953175Y-53418686D01*
X104792761Y-53370025D01*
X104792759Y-53370024D01*
X104792756Y-53370023D01*
X104644922Y-53291005D01*
X104515341Y-53184659D01*
X104408995Y-53055078D01*
X104329977Y-52907244D01*
X104328720Y-52903100D01*
X104281314Y-52746825D01*
X104281314Y-52746824D01*
X104281313Y-52746821D01*
X104264883Y-52580000D01*
X104281313Y-52413179D01*
X104329977Y-52252756D01*
X104408995Y-52104922D01*
X104515341Y-51975341D01*
X104644922Y-51868995D01*
X104792756Y-51789977D01*
X104792759Y-51789976D01*
X104792761Y-51789975D01*
X104953175Y-51741314D01*
X104953176Y-51741314D01*
X104953179Y-51741313D01*
X105078196Y-51729000D01*
X105161804Y-51729000D01*
X105286821Y-51741313D01*
X105286821Y-51741313D01*
G37*
G36*
X97666821Y-51741313D02*
X97666824Y-51741314D01*
X97666825Y-51741314D01*
X97827239Y-51789975D01*
X97827241Y-51789976D01*
X97827244Y-51789977D01*
X97975078Y-51868995D01*
X98104659Y-51975341D01*
X98211005Y-52104922D01*
X98290023Y-52252756D01*
X98338687Y-52413179D01*
X98355117Y-52580000D01*
X98338687Y-52746821D01*
X98338686Y-52746824D01*
X98338686Y-52746825D01*
X98291281Y-52903100D01*
X98290023Y-52907244D01*
X98211005Y-53055078D01*
X98104659Y-53184659D01*
X97975078Y-53291005D01*
X97827244Y-53370023D01*
X97827241Y-53370024D01*
X97827239Y-53370025D01*
X97666825Y-53418686D01*
X97666824Y-53418686D01*
X97666821Y-53418687D01*
X97541804Y-53431000D01*
X97458196Y-53431000D01*
X97333179Y-53418687D01*
X97333176Y-53418686D01*
X97333175Y-53418686D01*
X97172761Y-53370025D01*
X97172759Y-53370024D01*
X97172756Y-53370023D01*
X97024922Y-53291005D01*
X96895341Y-53184659D01*
X96788995Y-53055078D01*
X96709977Y-52907244D01*
X96708720Y-52903100D01*
X96661314Y-52746825D01*
X96661314Y-52746824D01*
X96661313Y-52746821D01*
X96644883Y-52580000D01*
X96661313Y-52413179D01*
X96709977Y-52252756D01*
X96788995Y-52104922D01*
X96895341Y-51975341D01*
X97024922Y-51868995D01*
X97172756Y-51789977D01*
X97172759Y-51789976D01*
X97172761Y-51789975D01*
X97333175Y-51741314D01*
X97333176Y-51741314D01*
X97333179Y-51741313D01*
X97458196Y-51729000D01*
X97541804Y-51729000D01*
X97666821Y-51741313D01*
X97666821Y-51741313D01*
G37*
G36*
X90248228Y-51681703D02*
X90403100Y-51745853D01*
X90542481Y-51838985D01*
X90661015Y-51957519D01*
X90754147Y-52096900D01*
X90818297Y-52251772D01*
X90851000Y-52416184D01*
X90851000Y-52583816D01*
X90818297Y-52748228D01*
X90754147Y-52903100D01*
X90661015Y-53042481D01*
X90542481Y-53161015D01*
X90403100Y-53254147D01*
X90248228Y-53318297D01*
X90083816Y-53351000D01*
X89916184Y-53351000D01*
X89751772Y-53318297D01*
X89596900Y-53254147D01*
X89457519Y-53161015D01*
X89338985Y-53042481D01*
X89245853Y-52903100D01*
X89181703Y-52748228D01*
X89149000Y-52583816D01*
X89149000Y-52416184D01*
X89181703Y-52251772D01*
X89245853Y-52096900D01*
X89338985Y-51957519D01*
X89457519Y-51838985D01*
X89596900Y-51745853D01*
X89751772Y-51681703D01*
X89916184Y-51649000D01*
X90083816Y-51649000D01*
X90248228Y-51681703D01*
X90248228Y-51681703D01*
G37*
G36*
X113351000Y-53351000D02*
X111649000Y-53351000D01*
X111649000Y-51649000D01*
X113351000Y-51649000D01*
X113351000Y-53351000D01*
X113351000Y-53351000D01*
G37*
G36*
X115248228Y-51681703D02*
X115403100Y-51745853D01*
X115542481Y-51838985D01*
X115661015Y-51957519D01*
X115754147Y-52096900D01*
X115818297Y-52251772D01*
X115851000Y-52416184D01*
X115851000Y-52583816D01*
X115818297Y-52748228D01*
X115754147Y-52903100D01*
X115661015Y-53042481D01*
X115542481Y-53161015D01*
X115403100Y-53254147D01*
X115248228Y-53318297D01*
X115083816Y-53351000D01*
X114916184Y-53351000D01*
X114751772Y-53318297D01*
X114596900Y-53254147D01*
X114457519Y-53161015D01*
X114338985Y-53042481D01*
X114245853Y-52903100D01*
X114181703Y-52748228D01*
X114149000Y-52583816D01*
X114149000Y-52416184D01*
X114181703Y-52251772D01*
X114245853Y-52096900D01*
X114338985Y-51957519D01*
X114457519Y-51838985D01*
X114596900Y-51745853D01*
X114751772Y-51681703D01*
X114916184Y-51649000D01*
X115083816Y-51649000D01*
X115248228Y-51681703D01*
X115248228Y-51681703D01*
G37*
G36*
X125248228Y-51681703D02*
X125403100Y-51745853D01*
X125542481Y-51838985D01*
X125661015Y-51957519D01*
X125754147Y-52096900D01*
X125818297Y-52251772D01*
X125851000Y-52416184D01*
X125851000Y-52583816D01*
X125818297Y-52748228D01*
X125754147Y-52903100D01*
X125661015Y-53042481D01*
X125542481Y-53161015D01*
X125403100Y-53254147D01*
X125248228Y-53318297D01*
X125083816Y-53351000D01*
X124916184Y-53351000D01*
X124751772Y-53318297D01*
X124596900Y-53254147D01*
X124457519Y-53161015D01*
X124338985Y-53042481D01*
X124245853Y-52903100D01*
X124181703Y-52748228D01*
X124149000Y-52583816D01*
X124149000Y-52416184D01*
X124181703Y-52251772D01*
X124245853Y-52096900D01*
X124338985Y-51957519D01*
X124457519Y-51838985D01*
X124596900Y-51745853D01*
X124751772Y-51681703D01*
X124916184Y-51649000D01*
X125083816Y-51649000D01*
X125248228Y-51681703D01*
X125248228Y-51681703D01*
G37*
G36*
X123351000Y-53351000D02*
X121649000Y-53351000D01*
X121649000Y-51649000D01*
X123351000Y-51649000D01*
X123351000Y-53351000D01*
X123351000Y-53351000D01*
G37*
G36*
X97666821Y-49201313D02*
X97666824Y-49201314D01*
X97666825Y-49201314D01*
X97827239Y-49249975D01*
X97827241Y-49249976D01*
X97827244Y-49249977D01*
X97975078Y-49328995D01*
X98104659Y-49435341D01*
X98211005Y-49564922D01*
X98290023Y-49712756D01*
X98290024Y-49712759D01*
X98290025Y-49712761D01*
X98338686Y-49873175D01*
X98338687Y-49873179D01*
X98355117Y-50040000D01*
X98338687Y-50206821D01*
X98338686Y-50206824D01*
X98338686Y-50206825D01*
X98326127Y-50248228D01*
X98290023Y-50367244D01*
X98211005Y-50515078D01*
X98104659Y-50644659D01*
X97975078Y-50751005D01*
X97827244Y-50830023D01*
X97827241Y-50830024D01*
X97827239Y-50830025D01*
X97666825Y-50878686D01*
X97666824Y-50878686D01*
X97666821Y-50878687D01*
X97541804Y-50891000D01*
X97458196Y-50891000D01*
X97333179Y-50878687D01*
X97333176Y-50878686D01*
X97333175Y-50878686D01*
X97172761Y-50830025D01*
X97172759Y-50830024D01*
X97172756Y-50830023D01*
X97024922Y-50751005D01*
X96895341Y-50644659D01*
X96788995Y-50515078D01*
X96709977Y-50367244D01*
X96673874Y-50248228D01*
X96661314Y-50206825D01*
X96661314Y-50206824D01*
X96661313Y-50206821D01*
X96644883Y-50040000D01*
X96661313Y-49873179D01*
X96661314Y-49873175D01*
X96709975Y-49712761D01*
X96709976Y-49712759D01*
X96709977Y-49712756D01*
X96788995Y-49564922D01*
X96895341Y-49435341D01*
X97024922Y-49328995D01*
X97172756Y-49249977D01*
X97172759Y-49249976D01*
X97172761Y-49249975D01*
X97333175Y-49201314D01*
X97333176Y-49201314D01*
X97333179Y-49201313D01*
X97458196Y-49189000D01*
X97541804Y-49189000D01*
X97666821Y-49201313D01*
X97666821Y-49201313D01*
G37*
G36*
X105286821Y-49201313D02*
X105286824Y-49201314D01*
X105286825Y-49201314D01*
X105447239Y-49249975D01*
X105447241Y-49249976D01*
X105447244Y-49249977D01*
X105595078Y-49328995D01*
X105724659Y-49435341D01*
X105831005Y-49564922D01*
X105910023Y-49712756D01*
X105910024Y-49712759D01*
X105910025Y-49712761D01*
X105958686Y-49873175D01*
X105958687Y-49873179D01*
X105975117Y-50040000D01*
X105958687Y-50206821D01*
X105958686Y-50206824D01*
X105958686Y-50206825D01*
X105946127Y-50248228D01*
X105910023Y-50367244D01*
X105831005Y-50515078D01*
X105724659Y-50644659D01*
X105595078Y-50751005D01*
X105447244Y-50830023D01*
X105447241Y-50830024D01*
X105447239Y-50830025D01*
X105286825Y-50878686D01*
X105286824Y-50878686D01*
X105286821Y-50878687D01*
X105161804Y-50891000D01*
X105078196Y-50891000D01*
X104953179Y-50878687D01*
X104953176Y-50878686D01*
X104953175Y-50878686D01*
X104792761Y-50830025D01*
X104792759Y-50830024D01*
X104792756Y-50830023D01*
X104644922Y-50751005D01*
X104515341Y-50644659D01*
X104408995Y-50515078D01*
X104329977Y-50367244D01*
X104293874Y-50248228D01*
X104281314Y-50206825D01*
X104281314Y-50206824D01*
X104281313Y-50206821D01*
X104264883Y-50040000D01*
X104281313Y-49873179D01*
X104281314Y-49873175D01*
X104329975Y-49712761D01*
X104329976Y-49712759D01*
X104329977Y-49712756D01*
X104408995Y-49564922D01*
X104515341Y-49435341D01*
X104644922Y-49328995D01*
X104792756Y-49249977D01*
X104792759Y-49249976D01*
X104792761Y-49249975D01*
X104953175Y-49201314D01*
X104953176Y-49201314D01*
X104953179Y-49201313D01*
X105078196Y-49189000D01*
X105161804Y-49189000D01*
X105286821Y-49201313D01*
X105286821Y-49201313D01*
G37*
G36*
X90248228Y-49181703D02*
X90403100Y-49245853D01*
X90542481Y-49338985D01*
X90661015Y-49457519D01*
X90754147Y-49596900D01*
X90818297Y-49751772D01*
X90851000Y-49916184D01*
X90851000Y-50083816D01*
X90818297Y-50248228D01*
X90754147Y-50403100D01*
X90661015Y-50542481D01*
X90542481Y-50661015D01*
X90403100Y-50754147D01*
X90248228Y-50818297D01*
X90083816Y-50851000D01*
X89916184Y-50851000D01*
X89751772Y-50818297D01*
X89596900Y-50754147D01*
X89457519Y-50661015D01*
X89338985Y-50542481D01*
X89245853Y-50403100D01*
X89181703Y-50248228D01*
X89149000Y-50083816D01*
X89149000Y-49916184D01*
X89181703Y-49751772D01*
X89245853Y-49596900D01*
X89338985Y-49457519D01*
X89457519Y-49338985D01*
X89596900Y-49245853D01*
X89751772Y-49181703D01*
X89916184Y-49149000D01*
X90083816Y-49149000D01*
X90248228Y-49181703D01*
X90248228Y-49181703D01*
G37*
G36*
X105286821Y-46661313D02*
X105286824Y-46661314D01*
X105286825Y-46661314D01*
X105447239Y-46709975D01*
X105447241Y-46709976D01*
X105447244Y-46709977D01*
X105595078Y-46788995D01*
X105724659Y-46895341D01*
X105831005Y-47024922D01*
X105910023Y-47172756D01*
X105910024Y-47172759D01*
X105910025Y-47172761D01*
X105958686Y-47333175D01*
X105958687Y-47333179D01*
X105975117Y-47500000D01*
X105958687Y-47666821D01*
X105958686Y-47666824D01*
X105958686Y-47666825D01*
X105933993Y-47748228D01*
X105910023Y-47827244D01*
X105831005Y-47975078D01*
X105724659Y-48104659D01*
X105595078Y-48211005D01*
X105447244Y-48290023D01*
X105447241Y-48290024D01*
X105447239Y-48290025D01*
X105286825Y-48338686D01*
X105286824Y-48338686D01*
X105286821Y-48338687D01*
X105161804Y-48351000D01*
X105078196Y-48351000D01*
X104953179Y-48338687D01*
X104953176Y-48338686D01*
X104953175Y-48338686D01*
X104792761Y-48290025D01*
X104792759Y-48290024D01*
X104792756Y-48290023D01*
X104644922Y-48211005D01*
X104515341Y-48104659D01*
X104408995Y-47975078D01*
X104329977Y-47827244D01*
X104306008Y-47748228D01*
X104281314Y-47666825D01*
X104281314Y-47666824D01*
X104281313Y-47666821D01*
X104264883Y-47500000D01*
X104281313Y-47333179D01*
X104281314Y-47333175D01*
X104329975Y-47172761D01*
X104329976Y-47172759D01*
X104329977Y-47172756D01*
X104408995Y-47024922D01*
X104515341Y-46895341D01*
X104644922Y-46788995D01*
X104792756Y-46709977D01*
X104792759Y-46709976D01*
X104792761Y-46709975D01*
X104953175Y-46661314D01*
X104953176Y-46661314D01*
X104953179Y-46661313D01*
X105078196Y-46649000D01*
X105161804Y-46649000D01*
X105286821Y-46661313D01*
X105286821Y-46661313D01*
G37*
G36*
X98351000Y-48351000D02*
X96649000Y-48351000D01*
X96649000Y-46649000D01*
X98351000Y-46649000D01*
X98351000Y-48351000D01*
X98351000Y-48351000D01*
G37*
G36*
X67748228Y-46681703D02*
X67903100Y-46745853D01*
X68042481Y-46838985D01*
X68161015Y-46957519D01*
X68254147Y-47096900D01*
X68318297Y-47251772D01*
X68351000Y-47416184D01*
X68351000Y-47583816D01*
X68318297Y-47748228D01*
X68254147Y-47903100D01*
X68161015Y-48042481D01*
X68042481Y-48161015D01*
X67903100Y-48254147D01*
X67748228Y-48318297D01*
X67583816Y-48351000D01*
X67416184Y-48351000D01*
X67251772Y-48318297D01*
X67096900Y-48254147D01*
X66957519Y-48161015D01*
X66838985Y-48042481D01*
X66745853Y-47903100D01*
X66681703Y-47748228D01*
X66649000Y-47583816D01*
X66649000Y-47416184D01*
X66681703Y-47251772D01*
X66745853Y-47096900D01*
X66838985Y-46957519D01*
X66957519Y-46838985D01*
X67096900Y-46745853D01*
X67251772Y-46681703D01*
X67416184Y-46649000D01*
X67583816Y-46649000D01*
X67748228Y-46681703D01*
X67748228Y-46681703D01*
G37*
G36*
X65248228Y-46681703D02*
X65403100Y-46745853D01*
X65542481Y-46838985D01*
X65661015Y-46957519D01*
X65754147Y-47096900D01*
X65818297Y-47251772D01*
X65851000Y-47416184D01*
X65851000Y-47583816D01*
X65818297Y-47748228D01*
X65754147Y-47903100D01*
X65661015Y-48042481D01*
X65542481Y-48161015D01*
X65403100Y-48254147D01*
X65248228Y-48318297D01*
X65083816Y-48351000D01*
X64916184Y-48351000D01*
X64751772Y-48318297D01*
X64596900Y-48254147D01*
X64457519Y-48161015D01*
X64338985Y-48042481D01*
X64245853Y-47903100D01*
X64181703Y-47748228D01*
X64149000Y-47583816D01*
X64149000Y-47416184D01*
X64181703Y-47251772D01*
X64245853Y-47096900D01*
X64338985Y-46957519D01*
X64457519Y-46838985D01*
X64596900Y-46745853D01*
X64751772Y-46681703D01*
X64916184Y-46649000D01*
X65083816Y-46649000D01*
X65248228Y-46681703D01*
X65248228Y-46681703D01*
G37*
G36*
X57748228Y-46681703D02*
X57903100Y-46745853D01*
X58042481Y-46838985D01*
X58161015Y-46957519D01*
X58254147Y-47096900D01*
X58318297Y-47251772D01*
X58351000Y-47416184D01*
X58351000Y-47583816D01*
X58318297Y-47748228D01*
X58254147Y-47903100D01*
X58161015Y-48042481D01*
X58042481Y-48161015D01*
X57903100Y-48254147D01*
X57748228Y-48318297D01*
X57583816Y-48351000D01*
X57416184Y-48351000D01*
X57251772Y-48318297D01*
X57096900Y-48254147D01*
X56957519Y-48161015D01*
X56838985Y-48042481D01*
X56745853Y-47903100D01*
X56681703Y-47748228D01*
X56649000Y-47583816D01*
X56649000Y-47416184D01*
X56681703Y-47251772D01*
X56745853Y-47096900D01*
X56838985Y-46957519D01*
X56957519Y-46838985D01*
X57096900Y-46745853D01*
X57251772Y-46681703D01*
X57416184Y-46649000D01*
X57583816Y-46649000D01*
X57748228Y-46681703D01*
X57748228Y-46681703D01*
G37*
G36*
X125284180Y-41355662D02*
X125385635Y-41365654D01*
X125602600Y-41431470D01*
X125602602Y-41431471D01*
X125602605Y-41431472D01*
X125802556Y-41538347D01*
X125977818Y-41682182D01*
X126121653Y-41857444D01*
X126228528Y-42057395D01*
X126228529Y-42057398D01*
X126228530Y-42057400D01*
X126294346Y-42274365D01*
X126316569Y-42500000D01*
X126294346Y-42725635D01*
X126228530Y-42942600D01*
X126228528Y-42942605D01*
X126121653Y-43142556D01*
X125977818Y-43317818D01*
X125802556Y-43461653D01*
X125602605Y-43568528D01*
X125602602Y-43568529D01*
X125602600Y-43568530D01*
X125385635Y-43634346D01*
X125284180Y-43644338D01*
X125216545Y-43651000D01*
X125103455Y-43651000D01*
X125035820Y-43644338D01*
X124934365Y-43634346D01*
X124717400Y-43568530D01*
X124717398Y-43568529D01*
X124717395Y-43568528D01*
X124517444Y-43461653D01*
X124342182Y-43317818D01*
X124198347Y-43142556D01*
X124091472Y-42942605D01*
X124091470Y-42942600D01*
X124025654Y-42725635D01*
X124003431Y-42500000D01*
X124025654Y-42274365D01*
X124091470Y-42057400D01*
X124091471Y-42057398D01*
X124091472Y-42057395D01*
X124198347Y-41857444D01*
X124342182Y-41682182D01*
X124517444Y-41538347D01*
X124717395Y-41431472D01*
X124717398Y-41431471D01*
X124717400Y-41431470D01*
X124934365Y-41365654D01*
X125035820Y-41355662D01*
X125103455Y-41349000D01*
X125216545Y-41349000D01*
X125284180Y-41355662D01*
X125284180Y-41355662D01*
G37*
G36*
X116151000Y-43651000D02*
X113849000Y-43651000D01*
X113849000Y-41349000D01*
X116151000Y-41349000D01*
X116151000Y-43651000D01*
X116151000Y-43651000D01*
G37*
G36*
X65181528Y-38046398D02*
X65356078Y-38099348D01*
X65516947Y-38185333D01*
X65657949Y-38301051D01*
X65773667Y-38442053D01*
X65859652Y-38602921D01*
X65912602Y-38777471D01*
X65926000Y-38913510D01*
X65926000Y-40754490D01*
X65912602Y-40890529D01*
X65859652Y-41065079D01*
X65773667Y-41225947D01*
X65657949Y-41366949D01*
X65516947Y-41482667D01*
X65356079Y-41568652D01*
X65181529Y-41621602D01*
X65000000Y-41639480D01*
X64818472Y-41621602D01*
X64643922Y-41568652D01*
X64483054Y-41482667D01*
X64342052Y-41366949D01*
X64226334Y-41225947D01*
X64140349Y-41065079D01*
X64087399Y-40890529D01*
X64074000Y-40754489D01*
X64074000Y-38913511D01*
X64087398Y-38777472D01*
X64140348Y-38602922D01*
X64226333Y-38442053D01*
X64342051Y-38301051D01*
X64483053Y-38185333D01*
X64643921Y-38099348D01*
X64818471Y-38046398D01*
X65000000Y-38028520D01*
X65181528Y-38046398D01*
X65181528Y-38046398D01*
G37*
G36*
X70181528Y-38046398D02*
X70356078Y-38099348D01*
X70516947Y-38185333D01*
X70657949Y-38301051D01*
X70773667Y-38442053D01*
X70859652Y-38602921D01*
X70912602Y-38777471D01*
X70926000Y-38913510D01*
X70926000Y-40754490D01*
X70912602Y-40890529D01*
X70859652Y-41065079D01*
X70773667Y-41225947D01*
X70657949Y-41366949D01*
X70516947Y-41482667D01*
X70356079Y-41568652D01*
X70181529Y-41621602D01*
X70000000Y-41639480D01*
X69818472Y-41621602D01*
X69643922Y-41568652D01*
X69483054Y-41482667D01*
X69342052Y-41366949D01*
X69226334Y-41225947D01*
X69140349Y-41065079D01*
X69087399Y-40890529D01*
X69074000Y-40754489D01*
X69074000Y-38913511D01*
X69087398Y-38777472D01*
X69140348Y-38602922D01*
X69226333Y-38442053D01*
X69342051Y-38301051D01*
X69483053Y-38185333D01*
X69643921Y-38099348D01*
X69818471Y-38046398D01*
X70000000Y-38028520D01*
X70181528Y-38046398D01*
X70181528Y-38046398D01*
G37*
G36*
X62681528Y-38046398D02*
X62856078Y-38099348D01*
X63016947Y-38185333D01*
X63157949Y-38301051D01*
X63273667Y-38442053D01*
X63359652Y-38602921D01*
X63412602Y-38777471D01*
X63426000Y-38913510D01*
X63426000Y-40754490D01*
X63412602Y-40890529D01*
X63359652Y-41065079D01*
X63273667Y-41225947D01*
X63157949Y-41366949D01*
X63016947Y-41482667D01*
X62856079Y-41568652D01*
X62681529Y-41621602D01*
X62500000Y-41639480D01*
X62318472Y-41621602D01*
X62143922Y-41568652D01*
X61983054Y-41482667D01*
X61842052Y-41366949D01*
X61726334Y-41225947D01*
X61640349Y-41065079D01*
X61587399Y-40890529D01*
X61574000Y-40754489D01*
X61574000Y-38913511D01*
X61587398Y-38777472D01*
X61640348Y-38602922D01*
X61726333Y-38442053D01*
X61842051Y-38301051D01*
X61983053Y-38185333D01*
X62143921Y-38099348D01*
X62318471Y-38046398D01*
X62500000Y-38028520D01*
X62681528Y-38046398D01*
X62681528Y-38046398D01*
G37*
G36*
X72681528Y-38046398D02*
X72856078Y-38099348D01*
X73016947Y-38185333D01*
X73157949Y-38301051D01*
X73273667Y-38442053D01*
X73359652Y-38602921D01*
X73412602Y-38777471D01*
X73426000Y-38913510D01*
X73426000Y-40754490D01*
X73412602Y-40890529D01*
X73359652Y-41065079D01*
X73273667Y-41225947D01*
X73157949Y-41366949D01*
X73016947Y-41482667D01*
X72856079Y-41568652D01*
X72681529Y-41621602D01*
X72500000Y-41639480D01*
X72318472Y-41621602D01*
X72143922Y-41568652D01*
X71983054Y-41482667D01*
X71842052Y-41366949D01*
X71726334Y-41225947D01*
X71640349Y-41065079D01*
X71587399Y-40890529D01*
X71574000Y-40754489D01*
X71574000Y-38913511D01*
X71587398Y-38777472D01*
X71640348Y-38602922D01*
X71726333Y-38442053D01*
X71842051Y-38301051D01*
X71983053Y-38185333D01*
X72143921Y-38099348D01*
X72318471Y-38046398D01*
X72500000Y-38028520D01*
X72681528Y-38046398D01*
X72681528Y-38046398D01*
G37*
G36*
X69301000Y-36129000D02*
X65699000Y-36129000D01*
X65699000Y-33527000D01*
X69301000Y-33527000D01*
X69301000Y-36129000D01*
X69301000Y-36129000D01*
G37*
G36*
X126806565Y-33989389D02*
X126997834Y-34068615D01*
X127169976Y-34183637D01*
X127316363Y-34330024D01*
X127431385Y-34502166D01*
X127510611Y-34693435D01*
X127551000Y-34896484D01*
X127551000Y-35103516D01*
X127510611Y-35306565D01*
X127431385Y-35497834D01*
X127316363Y-35669976D01*
X127169976Y-35816363D01*
X126997834Y-35931385D01*
X126806565Y-36010611D01*
X126603516Y-36051000D01*
X126396484Y-36051000D01*
X126193435Y-36010611D01*
X126002166Y-35931385D01*
X125830024Y-35816363D01*
X125683637Y-35669976D01*
X125568615Y-35497834D01*
X125489389Y-35306565D01*
X125449000Y-35103516D01*
X125449000Y-34896484D01*
X125489389Y-34693435D01*
X125568615Y-34502166D01*
X125683637Y-34330024D01*
X125830024Y-34183637D01*
X126002166Y-34068615D01*
X126193435Y-33989389D01*
X126396484Y-33949000D01*
X126603516Y-33949000D01*
X126806565Y-33989389D01*
X126806565Y-33989389D01*
G37*
G36*
X122806565Y-33989389D02*
X122997834Y-34068615D01*
X123169976Y-34183637D01*
X123316363Y-34330024D01*
X123431385Y-34502166D01*
X123510611Y-34693435D01*
X123551000Y-34896484D01*
X123551000Y-35103516D01*
X123510611Y-35306565D01*
X123431385Y-35497834D01*
X123316363Y-35669976D01*
X123169976Y-35816363D01*
X122997834Y-35931385D01*
X122806565Y-36010611D01*
X122603516Y-36051000D01*
X122396484Y-36051000D01*
X122193435Y-36010611D01*
X122002166Y-35931385D01*
X121830024Y-35816363D01*
X121683637Y-35669976D01*
X121568615Y-35497834D01*
X121489389Y-35306565D01*
X121449000Y-35103516D01*
X121449000Y-34896484D01*
X121489389Y-34693435D01*
X121568615Y-34502166D01*
X121683637Y-34330024D01*
X121830024Y-34183637D01*
X122002166Y-34068615D01*
X122193435Y-33989389D01*
X122396484Y-33949000D01*
X122603516Y-33949000D01*
X122806565Y-33989389D01*
X122806565Y-33989389D01*
G37*
G36*
X112325635Y-32215654D02*
X112542600Y-32281470D01*
X112542602Y-32281471D01*
X112542605Y-32281472D01*
X112742556Y-32388347D01*
X112917818Y-32532182D01*
X113061653Y-32707444D01*
X113168528Y-32907395D01*
X113168529Y-32907398D01*
X113168530Y-32907400D01*
X113234346Y-33124365D01*
X113251000Y-33293457D01*
X113251000Y-34706543D01*
X113234346Y-34875635D01*
X113172003Y-35081150D01*
X113168528Y-35092605D01*
X113061653Y-35292556D01*
X112917818Y-35467818D01*
X112742555Y-35611653D01*
X112542604Y-35718528D01*
X112542601Y-35718529D01*
X112542599Y-35718530D01*
X112325634Y-35784346D01*
X112100000Y-35806569D01*
X111874365Y-35784346D01*
X111657400Y-35718530D01*
X111657398Y-35718529D01*
X111657395Y-35718528D01*
X111457444Y-35611653D01*
X111282182Y-35467818D01*
X111138347Y-35292555D01*
X111036240Y-35101525D01*
X111022626Y-35081150D01*
X111005299Y-35063823D01*
X110984925Y-35050209D01*
X110962286Y-35040832D01*
X110938252Y-35036051D01*
X110913748Y-35036051D01*
X110889715Y-35040831D01*
X110867076Y-35050209D01*
X110846701Y-35063823D01*
X110829374Y-35081150D01*
X110815760Y-35101524D01*
X110806383Y-35124163D01*
X110801602Y-35148197D01*
X110801000Y-35160449D01*
X110801000Y-35301000D01*
X109199000Y-35301000D01*
X109199000Y-32699000D01*
X110801000Y-32699000D01*
X110801000Y-32839551D01*
X110803402Y-32863937D01*
X110810515Y-32887386D01*
X110822066Y-32908997D01*
X110837612Y-32927939D01*
X110856554Y-32943485D01*
X110878165Y-32955036D01*
X110901614Y-32962149D01*
X110926000Y-32964551D01*
X110950386Y-32962149D01*
X110973835Y-32955036D01*
X110995446Y-32943485D01*
X111014388Y-32927939D01*
X111036240Y-32898476D01*
X111138350Y-32707443D01*
X111282183Y-32532182D01*
X111457445Y-32388347D01*
X111657396Y-32281472D01*
X111657399Y-32281471D01*
X111657401Y-32281470D01*
X111874366Y-32215654D01*
X112100000Y-32193431D01*
X112325635Y-32215654D01*
X112325635Y-32215654D01*
G37*
G36*
X104125635Y-32215654D02*
X104342600Y-32281470D01*
X104342602Y-32281471D01*
X104342605Y-32281472D01*
X104542556Y-32388347D01*
X104717818Y-32532182D01*
X104861653Y-32707444D01*
X104968528Y-32907395D01*
X104968529Y-32907398D01*
X104968530Y-32907400D01*
X105034346Y-33124365D01*
X105034346Y-33124368D01*
X105034989Y-33126487D01*
X105038909Y-33146197D01*
X105048285Y-33168836D01*
X105061899Y-33189211D01*
X105079226Y-33206538D01*
X105099600Y-33220153D01*
X105122239Y-33229531D01*
X105146272Y-33234312D01*
X105170776Y-33234312D01*
X105194810Y-33229532D01*
X105217449Y-33220156D01*
X105237824Y-33206542D01*
X105255151Y-33189215D01*
X105268767Y-33168838D01*
X105330771Y-33052835D01*
X105430868Y-32930867D01*
X105552836Y-32830770D01*
X105691989Y-32756392D01*
X105842976Y-32710590D01*
X106000000Y-32695125D01*
X106157025Y-32710590D01*
X106308012Y-32756392D01*
X106447165Y-32830770D01*
X106569133Y-32930867D01*
X106669230Y-33052835D01*
X106743608Y-33191988D01*
X106789410Y-33342975D01*
X106801000Y-33460654D01*
X106801000Y-34539346D01*
X106789410Y-34657025D01*
X106743608Y-34808012D01*
X106669230Y-34947165D01*
X106569136Y-35069130D01*
X106569134Y-35069131D01*
X106569133Y-35069133D01*
X106508148Y-35119181D01*
X106447161Y-35169232D01*
X106308011Y-35243608D01*
X106157024Y-35289410D01*
X106000000Y-35304875D01*
X105842975Y-35289410D01*
X105691988Y-35243608D01*
X105552835Y-35169230D01*
X105430870Y-35069136D01*
X105430869Y-35069134D01*
X105430867Y-35069133D01*
X105380819Y-35008148D01*
X105330768Y-34947161D01*
X105268767Y-34831163D01*
X105255154Y-34810788D01*
X105237826Y-34793461D01*
X105217452Y-34779847D01*
X105194813Y-34770470D01*
X105170780Y-34765689D01*
X105146275Y-34765689D01*
X105122242Y-34770469D01*
X105099603Y-34779847D01*
X105079228Y-34793460D01*
X105061901Y-34810788D01*
X105048287Y-34831162D01*
X105038910Y-34853801D01*
X105034989Y-34873512D01*
X105034346Y-34875630D01*
X105034346Y-34875635D01*
X104972003Y-35081150D01*
X104968528Y-35092605D01*
X104861653Y-35292556D01*
X104717818Y-35467818D01*
X104542555Y-35611653D01*
X104342604Y-35718528D01*
X104342601Y-35718529D01*
X104342599Y-35718530D01*
X104125634Y-35784346D01*
X103900000Y-35806569D01*
X103674365Y-35784346D01*
X103457400Y-35718530D01*
X103457398Y-35718529D01*
X103457395Y-35718528D01*
X103257444Y-35611653D01*
X103082182Y-35467818D01*
X102938347Y-35292555D01*
X102831472Y-35092604D01*
X102822741Y-35063823D01*
X102765654Y-34875634D01*
X102749000Y-34706542D01*
X102749000Y-33293457D01*
X102765654Y-33124365D01*
X102831470Y-32907400D01*
X102842168Y-32887386D01*
X102938349Y-32707443D01*
X103082183Y-32532182D01*
X103257445Y-32388347D01*
X103457396Y-32281472D01*
X103457399Y-32281471D01*
X103457401Y-32281470D01*
X103674366Y-32215654D01*
X103900000Y-32193431D01*
X104125635Y-32215654D01*
X104125635Y-32215654D01*
G37*
G36*
X108157025Y-32710590D02*
X108308012Y-32756392D01*
X108447165Y-32830770D01*
X108569133Y-32930867D01*
X108669230Y-33052835D01*
X108743608Y-33191988D01*
X108789410Y-33342975D01*
X108801000Y-33460654D01*
X108801000Y-34539346D01*
X108789410Y-34657025D01*
X108743608Y-34808012D01*
X108669230Y-34947165D01*
X108569136Y-35069130D01*
X108569134Y-35069131D01*
X108569133Y-35069133D01*
X108508148Y-35119181D01*
X108447161Y-35169232D01*
X108308011Y-35243608D01*
X108157024Y-35289410D01*
X108000000Y-35304875D01*
X107842975Y-35289410D01*
X107691988Y-35243608D01*
X107552835Y-35169230D01*
X107430870Y-35069136D01*
X107430869Y-35069134D01*
X107430867Y-35069133D01*
X107380819Y-35008148D01*
X107330768Y-34947161D01*
X107256392Y-34808011D01*
X107210590Y-34657024D01*
X107199000Y-34539345D01*
X107199001Y-33460654D01*
X107210591Y-33342975D01*
X107256393Y-33191988D01*
X107330771Y-33052835D01*
X107430868Y-32930867D01*
X107552836Y-32830770D01*
X107691989Y-32756392D01*
X107842976Y-32710590D01*
X108000000Y-32695125D01*
X108157025Y-32710590D01*
X108157025Y-32710590D01*
G37*
M02*
