G04 #@! TF.GenerationSoftware,KiCad,Pcbnew,(5.0.1)-3*
G04 #@! TF.CreationDate,2019-03-21T16:12:42+00:00*
G04 #@! TF.ProjectId,drumkid,6472756D6B69642E6B696361645F7063,v01*
G04 #@! TF.SameCoordinates,Original*
G04 #@! TF.FileFunction,Legend,Top*
G04 #@! TF.FilePolarity,Positive*
%FSLAX46Y46*%
G04 Gerber Fmt 4.6, Leading zero omitted, Abs format (unit mm)*
G04 Created by KiCad (PCBNEW (5.0.1)-3) date 21/03/2019 16:12:42*
%MOMM*%
%LPD*%
G01*
G04 APERTURE LIST*
%ADD10C,0.120000*%
%ADD11C,0.150000*%
%ADD12C,0.100000*%
G04 APERTURE END LIST*
D10*
G04 #@! TO.C,BT1*
X121130000Y-118670000D02*
X121130000Y-121330000D01*
X123730000Y-118670000D02*
X121130000Y-118670000D01*
X123730000Y-121330000D02*
X121130000Y-121330000D01*
X123730000Y-118670000D02*
X123730000Y-121330000D01*
X125000000Y-118670000D02*
X126330000Y-118670000D01*
X126330000Y-118670000D02*
X126330000Y-120000000D01*
G04 #@! TO.C,C1*
X117020000Y-52500000D02*
G75*
G03X117020000Y-52500000I-3270000J0D01*
G01*
X113750000Y-49270000D02*
X113750000Y-55730000D01*
X113790000Y-49270000D02*
X113790000Y-55730000D01*
X113830000Y-49270000D02*
X113830000Y-55730000D01*
X113870000Y-49272000D02*
X113870000Y-55728000D01*
X113910000Y-49273000D02*
X113910000Y-55727000D01*
X113950000Y-49276000D02*
X113950000Y-55724000D01*
X113990000Y-49278000D02*
X113990000Y-51460000D01*
X113990000Y-53540000D02*
X113990000Y-55722000D01*
X114030000Y-49282000D02*
X114030000Y-51460000D01*
X114030000Y-53540000D02*
X114030000Y-55718000D01*
X114070000Y-49285000D02*
X114070000Y-51460000D01*
X114070000Y-53540000D02*
X114070000Y-55715000D01*
X114110000Y-49289000D02*
X114110000Y-51460000D01*
X114110000Y-53540000D02*
X114110000Y-55711000D01*
X114150000Y-49294000D02*
X114150000Y-51460000D01*
X114150000Y-53540000D02*
X114150000Y-55706000D01*
X114190000Y-49299000D02*
X114190000Y-51460000D01*
X114190000Y-53540000D02*
X114190000Y-55701000D01*
X114230000Y-49305000D02*
X114230000Y-51460000D01*
X114230000Y-53540000D02*
X114230000Y-55695000D01*
X114270000Y-49311000D02*
X114270000Y-51460000D01*
X114270000Y-53540000D02*
X114270000Y-55689000D01*
X114310000Y-49318000D02*
X114310000Y-51460000D01*
X114310000Y-53540000D02*
X114310000Y-55682000D01*
X114350000Y-49325000D02*
X114350000Y-51460000D01*
X114350000Y-53540000D02*
X114350000Y-55675000D01*
X114390000Y-49333000D02*
X114390000Y-51460000D01*
X114390000Y-53540000D02*
X114390000Y-55667000D01*
X114430000Y-49341000D02*
X114430000Y-51460000D01*
X114430000Y-53540000D02*
X114430000Y-55659000D01*
X114471000Y-49350000D02*
X114471000Y-51460000D01*
X114471000Y-53540000D02*
X114471000Y-55650000D01*
X114511000Y-49359000D02*
X114511000Y-51460000D01*
X114511000Y-53540000D02*
X114511000Y-55641000D01*
X114551000Y-49369000D02*
X114551000Y-51460000D01*
X114551000Y-53540000D02*
X114551000Y-55631000D01*
X114591000Y-49379000D02*
X114591000Y-51460000D01*
X114591000Y-53540000D02*
X114591000Y-55621000D01*
X114631000Y-49390000D02*
X114631000Y-51460000D01*
X114631000Y-53540000D02*
X114631000Y-55610000D01*
X114671000Y-49402000D02*
X114671000Y-51460000D01*
X114671000Y-53540000D02*
X114671000Y-55598000D01*
X114711000Y-49414000D02*
X114711000Y-51460000D01*
X114711000Y-53540000D02*
X114711000Y-55586000D01*
X114751000Y-49426000D02*
X114751000Y-51460000D01*
X114751000Y-53540000D02*
X114751000Y-55574000D01*
X114791000Y-49439000D02*
X114791000Y-51460000D01*
X114791000Y-53540000D02*
X114791000Y-55561000D01*
X114831000Y-49453000D02*
X114831000Y-51460000D01*
X114831000Y-53540000D02*
X114831000Y-55547000D01*
X114871000Y-49467000D02*
X114871000Y-51460000D01*
X114871000Y-53540000D02*
X114871000Y-55533000D01*
X114911000Y-49482000D02*
X114911000Y-51460000D01*
X114911000Y-53540000D02*
X114911000Y-55518000D01*
X114951000Y-49498000D02*
X114951000Y-51460000D01*
X114951000Y-53540000D02*
X114951000Y-55502000D01*
X114991000Y-49514000D02*
X114991000Y-51460000D01*
X114991000Y-53540000D02*
X114991000Y-55486000D01*
X115031000Y-49530000D02*
X115031000Y-51460000D01*
X115031000Y-53540000D02*
X115031000Y-55470000D01*
X115071000Y-49548000D02*
X115071000Y-51460000D01*
X115071000Y-53540000D02*
X115071000Y-55452000D01*
X115111000Y-49566000D02*
X115111000Y-51460000D01*
X115111000Y-53540000D02*
X115111000Y-55434000D01*
X115151000Y-49584000D02*
X115151000Y-51460000D01*
X115151000Y-53540000D02*
X115151000Y-55416000D01*
X115191000Y-49604000D02*
X115191000Y-51460000D01*
X115191000Y-53540000D02*
X115191000Y-55396000D01*
X115231000Y-49624000D02*
X115231000Y-51460000D01*
X115231000Y-53540000D02*
X115231000Y-55376000D01*
X115271000Y-49644000D02*
X115271000Y-51460000D01*
X115271000Y-53540000D02*
X115271000Y-55356000D01*
X115311000Y-49666000D02*
X115311000Y-51460000D01*
X115311000Y-53540000D02*
X115311000Y-55334000D01*
X115351000Y-49688000D02*
X115351000Y-51460000D01*
X115351000Y-53540000D02*
X115351000Y-55312000D01*
X115391000Y-49710000D02*
X115391000Y-51460000D01*
X115391000Y-53540000D02*
X115391000Y-55290000D01*
X115431000Y-49734000D02*
X115431000Y-51460000D01*
X115431000Y-53540000D02*
X115431000Y-55266000D01*
X115471000Y-49758000D02*
X115471000Y-51460000D01*
X115471000Y-53540000D02*
X115471000Y-55242000D01*
X115511000Y-49784000D02*
X115511000Y-51460000D01*
X115511000Y-53540000D02*
X115511000Y-55216000D01*
X115551000Y-49810000D02*
X115551000Y-51460000D01*
X115551000Y-53540000D02*
X115551000Y-55190000D01*
X115591000Y-49836000D02*
X115591000Y-51460000D01*
X115591000Y-53540000D02*
X115591000Y-55164000D01*
X115631000Y-49864000D02*
X115631000Y-51460000D01*
X115631000Y-53540000D02*
X115631000Y-55136000D01*
X115671000Y-49893000D02*
X115671000Y-51460000D01*
X115671000Y-53540000D02*
X115671000Y-55107000D01*
X115711000Y-49922000D02*
X115711000Y-51460000D01*
X115711000Y-53540000D02*
X115711000Y-55078000D01*
X115751000Y-49952000D02*
X115751000Y-51460000D01*
X115751000Y-53540000D02*
X115751000Y-55048000D01*
X115791000Y-49984000D02*
X115791000Y-51460000D01*
X115791000Y-53540000D02*
X115791000Y-55016000D01*
X115831000Y-50016000D02*
X115831000Y-51460000D01*
X115831000Y-53540000D02*
X115831000Y-54984000D01*
X115871000Y-50050000D02*
X115871000Y-51460000D01*
X115871000Y-53540000D02*
X115871000Y-54950000D01*
X115911000Y-50084000D02*
X115911000Y-51460000D01*
X115911000Y-53540000D02*
X115911000Y-54916000D01*
X115951000Y-50120000D02*
X115951000Y-51460000D01*
X115951000Y-53540000D02*
X115951000Y-54880000D01*
X115991000Y-50157000D02*
X115991000Y-51460000D01*
X115991000Y-53540000D02*
X115991000Y-54843000D01*
X116031000Y-50195000D02*
X116031000Y-51460000D01*
X116031000Y-53540000D02*
X116031000Y-54805000D01*
X116071000Y-50235000D02*
X116071000Y-54765000D01*
X116111000Y-50276000D02*
X116111000Y-54724000D01*
X116151000Y-50318000D02*
X116151000Y-54682000D01*
X116191000Y-50363000D02*
X116191000Y-54637000D01*
X116231000Y-50408000D02*
X116231000Y-54592000D01*
X116271000Y-50456000D02*
X116271000Y-54544000D01*
X116311000Y-50505000D02*
X116311000Y-54495000D01*
X116351000Y-50556000D02*
X116351000Y-54444000D01*
X116391000Y-50610000D02*
X116391000Y-54390000D01*
X116431000Y-50666000D02*
X116431000Y-54334000D01*
X116471000Y-50724000D02*
X116471000Y-54276000D01*
X116511000Y-50786000D02*
X116511000Y-54214000D01*
X116551000Y-50850000D02*
X116551000Y-54150000D01*
X116591000Y-50919000D02*
X116591000Y-54081000D01*
X116631000Y-50991000D02*
X116631000Y-54009000D01*
X116671000Y-51068000D02*
X116671000Y-53932000D01*
X116711000Y-51150000D02*
X116711000Y-53850000D01*
X116751000Y-51238000D02*
X116751000Y-53762000D01*
X116791000Y-51335000D02*
X116791000Y-53665000D01*
X116831000Y-51441000D02*
X116831000Y-53559000D01*
X116871000Y-51560000D02*
X116871000Y-53440000D01*
X116911000Y-51698000D02*
X116911000Y-53302000D01*
X116951000Y-51867000D02*
X116951000Y-53133000D01*
X116991000Y-52098000D02*
X116991000Y-52902000D01*
X110249759Y-50661000D02*
X110879759Y-50661000D01*
X110564759Y-50346000D02*
X110564759Y-50976000D01*
G04 #@! TO.C,C2*
X90925000Y-49430000D02*
X91170000Y-49430000D01*
X88830000Y-49430000D02*
X89075000Y-49430000D01*
X90925000Y-53070000D02*
X91170000Y-53070000D01*
X88830000Y-53070000D02*
X89075000Y-53070000D01*
X91170000Y-53070000D02*
X91170000Y-49430000D01*
X88830000Y-53070000D02*
X88830000Y-49430000D01*
G04 #@! TO.C,C3*
X68070000Y-48670000D02*
X64430000Y-48670000D01*
X68070000Y-46330000D02*
X64430000Y-46330000D01*
X68070000Y-48670000D02*
X68070000Y-48425000D01*
X68070000Y-46575000D02*
X68070000Y-46330000D01*
X64430000Y-48670000D02*
X64430000Y-48425000D01*
X64430000Y-46575000D02*
X64430000Y-46330000D01*
G04 #@! TO.C,C4*
X71930000Y-86575000D02*
X71930000Y-86330000D01*
X71930000Y-88670000D02*
X71930000Y-88425000D01*
X75570000Y-86575000D02*
X75570000Y-86330000D01*
X75570000Y-88670000D02*
X75570000Y-88425000D01*
X75570000Y-86330000D02*
X71930000Y-86330000D01*
X75570000Y-88670000D02*
X71930000Y-88670000D01*
G04 #@! TO.C,C5*
X75570000Y-108670000D02*
X71930000Y-108670000D01*
X75570000Y-106330000D02*
X71930000Y-106330000D01*
X75570000Y-108670000D02*
X75570000Y-108425000D01*
X75570000Y-106575000D02*
X75570000Y-106330000D01*
X71930000Y-108670000D02*
X71930000Y-108425000D01*
X71930000Y-106575000D02*
X71930000Y-106330000D01*
G04 #@! TO.C,C6*
X120564759Y-50346000D02*
X120564759Y-50976000D01*
X120249759Y-50661000D02*
X120879759Y-50661000D01*
X126991000Y-52098000D02*
X126991000Y-52902000D01*
X126951000Y-51867000D02*
X126951000Y-53133000D01*
X126911000Y-51698000D02*
X126911000Y-53302000D01*
X126871000Y-51560000D02*
X126871000Y-53440000D01*
X126831000Y-51441000D02*
X126831000Y-53559000D01*
X126791000Y-51335000D02*
X126791000Y-53665000D01*
X126751000Y-51238000D02*
X126751000Y-53762000D01*
X126711000Y-51150000D02*
X126711000Y-53850000D01*
X126671000Y-51068000D02*
X126671000Y-53932000D01*
X126631000Y-50991000D02*
X126631000Y-54009000D01*
X126591000Y-50919000D02*
X126591000Y-54081000D01*
X126551000Y-50850000D02*
X126551000Y-54150000D01*
X126511000Y-50786000D02*
X126511000Y-54214000D01*
X126471000Y-50724000D02*
X126471000Y-54276000D01*
X126431000Y-50666000D02*
X126431000Y-54334000D01*
X126391000Y-50610000D02*
X126391000Y-54390000D01*
X126351000Y-50556000D02*
X126351000Y-54444000D01*
X126311000Y-50505000D02*
X126311000Y-54495000D01*
X126271000Y-50456000D02*
X126271000Y-54544000D01*
X126231000Y-50408000D02*
X126231000Y-54592000D01*
X126191000Y-50363000D02*
X126191000Y-54637000D01*
X126151000Y-50318000D02*
X126151000Y-54682000D01*
X126111000Y-50276000D02*
X126111000Y-54724000D01*
X126071000Y-50235000D02*
X126071000Y-54765000D01*
X126031000Y-53540000D02*
X126031000Y-54805000D01*
X126031000Y-50195000D02*
X126031000Y-51460000D01*
X125991000Y-53540000D02*
X125991000Y-54843000D01*
X125991000Y-50157000D02*
X125991000Y-51460000D01*
X125951000Y-53540000D02*
X125951000Y-54880000D01*
X125951000Y-50120000D02*
X125951000Y-51460000D01*
X125911000Y-53540000D02*
X125911000Y-54916000D01*
X125911000Y-50084000D02*
X125911000Y-51460000D01*
X125871000Y-53540000D02*
X125871000Y-54950000D01*
X125871000Y-50050000D02*
X125871000Y-51460000D01*
X125831000Y-53540000D02*
X125831000Y-54984000D01*
X125831000Y-50016000D02*
X125831000Y-51460000D01*
X125791000Y-53540000D02*
X125791000Y-55016000D01*
X125791000Y-49984000D02*
X125791000Y-51460000D01*
X125751000Y-53540000D02*
X125751000Y-55048000D01*
X125751000Y-49952000D02*
X125751000Y-51460000D01*
X125711000Y-53540000D02*
X125711000Y-55078000D01*
X125711000Y-49922000D02*
X125711000Y-51460000D01*
X125671000Y-53540000D02*
X125671000Y-55107000D01*
X125671000Y-49893000D02*
X125671000Y-51460000D01*
X125631000Y-53540000D02*
X125631000Y-55136000D01*
X125631000Y-49864000D02*
X125631000Y-51460000D01*
X125591000Y-53540000D02*
X125591000Y-55164000D01*
X125591000Y-49836000D02*
X125591000Y-51460000D01*
X125551000Y-53540000D02*
X125551000Y-55190000D01*
X125551000Y-49810000D02*
X125551000Y-51460000D01*
X125511000Y-53540000D02*
X125511000Y-55216000D01*
X125511000Y-49784000D02*
X125511000Y-51460000D01*
X125471000Y-53540000D02*
X125471000Y-55242000D01*
X125471000Y-49758000D02*
X125471000Y-51460000D01*
X125431000Y-53540000D02*
X125431000Y-55266000D01*
X125431000Y-49734000D02*
X125431000Y-51460000D01*
X125391000Y-53540000D02*
X125391000Y-55290000D01*
X125391000Y-49710000D02*
X125391000Y-51460000D01*
X125351000Y-53540000D02*
X125351000Y-55312000D01*
X125351000Y-49688000D02*
X125351000Y-51460000D01*
X125311000Y-53540000D02*
X125311000Y-55334000D01*
X125311000Y-49666000D02*
X125311000Y-51460000D01*
X125271000Y-53540000D02*
X125271000Y-55356000D01*
X125271000Y-49644000D02*
X125271000Y-51460000D01*
X125231000Y-53540000D02*
X125231000Y-55376000D01*
X125231000Y-49624000D02*
X125231000Y-51460000D01*
X125191000Y-53540000D02*
X125191000Y-55396000D01*
X125191000Y-49604000D02*
X125191000Y-51460000D01*
X125151000Y-53540000D02*
X125151000Y-55416000D01*
X125151000Y-49584000D02*
X125151000Y-51460000D01*
X125111000Y-53540000D02*
X125111000Y-55434000D01*
X125111000Y-49566000D02*
X125111000Y-51460000D01*
X125071000Y-53540000D02*
X125071000Y-55452000D01*
X125071000Y-49548000D02*
X125071000Y-51460000D01*
X125031000Y-53540000D02*
X125031000Y-55470000D01*
X125031000Y-49530000D02*
X125031000Y-51460000D01*
X124991000Y-53540000D02*
X124991000Y-55486000D01*
X124991000Y-49514000D02*
X124991000Y-51460000D01*
X124951000Y-53540000D02*
X124951000Y-55502000D01*
X124951000Y-49498000D02*
X124951000Y-51460000D01*
X124911000Y-53540000D02*
X124911000Y-55518000D01*
X124911000Y-49482000D02*
X124911000Y-51460000D01*
X124871000Y-53540000D02*
X124871000Y-55533000D01*
X124871000Y-49467000D02*
X124871000Y-51460000D01*
X124831000Y-53540000D02*
X124831000Y-55547000D01*
X124831000Y-49453000D02*
X124831000Y-51460000D01*
X124791000Y-53540000D02*
X124791000Y-55561000D01*
X124791000Y-49439000D02*
X124791000Y-51460000D01*
X124751000Y-53540000D02*
X124751000Y-55574000D01*
X124751000Y-49426000D02*
X124751000Y-51460000D01*
X124711000Y-53540000D02*
X124711000Y-55586000D01*
X124711000Y-49414000D02*
X124711000Y-51460000D01*
X124671000Y-53540000D02*
X124671000Y-55598000D01*
X124671000Y-49402000D02*
X124671000Y-51460000D01*
X124631000Y-53540000D02*
X124631000Y-55610000D01*
X124631000Y-49390000D02*
X124631000Y-51460000D01*
X124591000Y-53540000D02*
X124591000Y-55621000D01*
X124591000Y-49379000D02*
X124591000Y-51460000D01*
X124551000Y-53540000D02*
X124551000Y-55631000D01*
X124551000Y-49369000D02*
X124551000Y-51460000D01*
X124511000Y-53540000D02*
X124511000Y-55641000D01*
X124511000Y-49359000D02*
X124511000Y-51460000D01*
X124471000Y-53540000D02*
X124471000Y-55650000D01*
X124471000Y-49350000D02*
X124471000Y-51460000D01*
X124430000Y-53540000D02*
X124430000Y-55659000D01*
X124430000Y-49341000D02*
X124430000Y-51460000D01*
X124390000Y-53540000D02*
X124390000Y-55667000D01*
X124390000Y-49333000D02*
X124390000Y-51460000D01*
X124350000Y-53540000D02*
X124350000Y-55675000D01*
X124350000Y-49325000D02*
X124350000Y-51460000D01*
X124310000Y-53540000D02*
X124310000Y-55682000D01*
X124310000Y-49318000D02*
X124310000Y-51460000D01*
X124270000Y-53540000D02*
X124270000Y-55689000D01*
X124270000Y-49311000D02*
X124270000Y-51460000D01*
X124230000Y-53540000D02*
X124230000Y-55695000D01*
X124230000Y-49305000D02*
X124230000Y-51460000D01*
X124190000Y-53540000D02*
X124190000Y-55701000D01*
X124190000Y-49299000D02*
X124190000Y-51460000D01*
X124150000Y-53540000D02*
X124150000Y-55706000D01*
X124150000Y-49294000D02*
X124150000Y-51460000D01*
X124110000Y-53540000D02*
X124110000Y-55711000D01*
X124110000Y-49289000D02*
X124110000Y-51460000D01*
X124070000Y-53540000D02*
X124070000Y-55715000D01*
X124070000Y-49285000D02*
X124070000Y-51460000D01*
X124030000Y-53540000D02*
X124030000Y-55718000D01*
X124030000Y-49282000D02*
X124030000Y-51460000D01*
X123990000Y-53540000D02*
X123990000Y-55722000D01*
X123990000Y-49278000D02*
X123990000Y-51460000D01*
X123950000Y-49276000D02*
X123950000Y-55724000D01*
X123910000Y-49273000D02*
X123910000Y-55727000D01*
X123870000Y-49272000D02*
X123870000Y-55728000D01*
X123830000Y-49270000D02*
X123830000Y-55730000D01*
X123790000Y-49270000D02*
X123790000Y-55730000D01*
X123750000Y-49270000D02*
X123750000Y-55730000D01*
X127020000Y-52500000D02*
G75*
G03X127020000Y-52500000I-3270000J0D01*
G01*
G04 #@! TO.C,D1*
X117360000Y-41030000D02*
X117360000Y-43970000D01*
X117360000Y-43970000D02*
X122800000Y-43970000D01*
X122800000Y-43970000D02*
X122800000Y-41030000D01*
X122800000Y-41030000D02*
X117360000Y-41030000D01*
X116340000Y-42500000D02*
X117360000Y-42500000D01*
X123820000Y-42500000D02*
X122800000Y-42500000D01*
X118260000Y-41030000D02*
X118260000Y-43970000D01*
X118380000Y-41030000D02*
X118380000Y-43970000D01*
X118140000Y-41030000D02*
X118140000Y-43970000D01*
G04 #@! TO.C,D2*
X89260000Y-65000462D02*
G75*
G03X83710000Y-63455170I-2990000J462D01*
G01*
X89260000Y-64999538D02*
G75*
G02X83710000Y-66544830I-2990000J-462D01*
G01*
X88770000Y-65000000D02*
G75*
G03X88770000Y-65000000I-2500000J0D01*
G01*
X83710000Y-63455000D02*
X83710000Y-66545000D01*
G04 #@! TO.C,D3*
X73710000Y-63455000D02*
X73710000Y-66545000D01*
X78770000Y-65000000D02*
G75*
G03X78770000Y-65000000I-2500000J0D01*
G01*
X79260000Y-64999538D02*
G75*
G02X73710000Y-66544830I-2990000J-462D01*
G01*
X79260000Y-65000462D02*
G75*
G03X73710000Y-63455170I-2990000J462D01*
G01*
G04 #@! TO.C,D4*
X109260000Y-65000462D02*
G75*
G03X103710000Y-63455170I-2990000J462D01*
G01*
X109260000Y-64999538D02*
G75*
G02X103710000Y-66544830I-2990000J-462D01*
G01*
X108770000Y-65000000D02*
G75*
G03X108770000Y-65000000I-2500000J0D01*
G01*
X103710000Y-63455000D02*
X103710000Y-66545000D01*
G04 #@! TO.C,D5*
X63710000Y-63455000D02*
X63710000Y-66545000D01*
X68770000Y-65000000D02*
G75*
G03X68770000Y-65000000I-2500000J0D01*
G01*
X69260000Y-64999538D02*
G75*
G02X63710000Y-66544830I-2990000J-462D01*
G01*
X69260000Y-65000462D02*
G75*
G03X63710000Y-63455170I-2990000J462D01*
G01*
G04 #@! TO.C,D6*
X99260000Y-65000462D02*
G75*
G03X93710000Y-63455170I-2990000J462D01*
G01*
X99260000Y-64999538D02*
G75*
G02X93710000Y-66544830I-2990000J-462D01*
G01*
X98770000Y-65000000D02*
G75*
G03X98770000Y-65000000I-2500000J0D01*
G01*
X93710000Y-63455000D02*
X93710000Y-66545000D01*
D11*
G04 #@! TO.C,J1*
X65722000Y-34900000D02*
X63690000Y-34900000D01*
X63690000Y-34900000D02*
X63690000Y-31344000D01*
X63690000Y-31344000D02*
X71310000Y-31344000D01*
X71310000Y-31344000D02*
X71310000Y-34900000D01*
X71310000Y-34900000D02*
X69278000Y-34900000D01*
X62420000Y-30328000D02*
X61404000Y-30328000D01*
X73596000Y-30328000D02*
X72580000Y-30328000D01*
X64960000Y-28296000D02*
X64960000Y-29820000D01*
X70040000Y-29820000D02*
X70040000Y-28296000D01*
X64960000Y-29058000D02*
X70040000Y-29058000D01*
X62420000Y-30328000D02*
X62420000Y-30074000D01*
X62420000Y-30074000D02*
X62420000Y-29820000D01*
X62420000Y-29820000D02*
X72580000Y-29820000D01*
X72580000Y-29820000D02*
X72580000Y-30328000D01*
X64960000Y-28296000D02*
X70040000Y-28296000D01*
X61404000Y-42520000D02*
X61404000Y-30328000D01*
X73596000Y-30328000D02*
X73596000Y-42520000D01*
X73596000Y-42520000D02*
X61404000Y-42520000D01*
D10*
G04 #@! TO.C,L1*
X127354260Y-33740000D02*
G75*
G03X121645740Y-33740000I-2854260J-1260000D01*
G01*
X127354260Y-36260000D02*
G75*
G02X121645740Y-36260000I-2854260J1260000D01*
G01*
G04 #@! TO.C,R1*
X58870000Y-49310000D02*
X56130000Y-49310000D01*
X56130000Y-49310000D02*
X56130000Y-55850000D01*
X56130000Y-55850000D02*
X58870000Y-55850000D01*
X58870000Y-55850000D02*
X58870000Y-49310000D01*
X57500000Y-48540000D02*
X57500000Y-49310000D01*
X57500000Y-56620000D02*
X57500000Y-55850000D01*
G04 #@! TO.C,R2*
X69120000Y-80000000D02*
X68350000Y-80000000D01*
X61040000Y-80000000D02*
X61810000Y-80000000D01*
X68350000Y-78630000D02*
X61810000Y-78630000D01*
X68350000Y-81370000D02*
X68350000Y-78630000D01*
X61810000Y-81370000D02*
X68350000Y-81370000D01*
X61810000Y-78630000D02*
X61810000Y-81370000D01*
G04 #@! TO.C,R3*
X88190000Y-58870000D02*
X88190000Y-56130000D01*
X88190000Y-56130000D02*
X81650000Y-56130000D01*
X81650000Y-56130000D02*
X81650000Y-58870000D01*
X81650000Y-58870000D02*
X88190000Y-58870000D01*
X88960000Y-57500000D02*
X88190000Y-57500000D01*
X80880000Y-57500000D02*
X81650000Y-57500000D01*
G04 #@! TO.C,R4*
X63778000Y-72500000D02*
X64548000Y-72500000D01*
X71858000Y-72500000D02*
X71088000Y-72500000D01*
X64548000Y-73870000D02*
X71088000Y-73870000D01*
X64548000Y-71130000D02*
X64548000Y-73870000D01*
X71088000Y-71130000D02*
X64548000Y-71130000D01*
X71088000Y-73870000D02*
X71088000Y-71130000D01*
G04 #@! TO.C,R5*
X113570000Y-71130000D02*
X113570000Y-73870000D01*
X113570000Y-73870000D02*
X120110000Y-73870000D01*
X120110000Y-73870000D02*
X120110000Y-71130000D01*
X120110000Y-71130000D02*
X113570000Y-71130000D01*
X112800000Y-72500000D02*
X113570000Y-72500000D01*
X120880000Y-72500000D02*
X120110000Y-72500000D01*
G04 #@! TO.C,R6*
X48284000Y-72500000D02*
X49054000Y-72500000D01*
X56364000Y-72500000D02*
X55594000Y-72500000D01*
X49054000Y-73870000D02*
X55594000Y-73870000D01*
X49054000Y-71130000D02*
X49054000Y-73870000D01*
X55594000Y-71130000D02*
X49054000Y-71130000D01*
X55594000Y-73870000D02*
X55594000Y-71130000D01*
G04 #@! TO.C,R7*
X99346000Y-71130000D02*
X99346000Y-73870000D01*
X99346000Y-73870000D02*
X105886000Y-73870000D01*
X105886000Y-73870000D02*
X105886000Y-71130000D01*
X105886000Y-71130000D02*
X99346000Y-71130000D01*
X98576000Y-72500000D02*
X99346000Y-72500000D01*
X106656000Y-72500000D02*
X105886000Y-72500000D01*
G04 #@! TO.C,RV1*
X79880000Y-73530000D02*
X83745000Y-73530000D01*
X88255000Y-73530000D02*
X92120000Y-73530000D01*
X79880000Y-83470000D02*
X83745000Y-83470000D01*
X88255000Y-83470000D02*
X92120000Y-83470000D01*
X79880000Y-73530000D02*
X79880000Y-75129000D01*
X79880000Y-76871000D02*
X79880000Y-77630000D01*
X79880000Y-79371000D02*
X79880000Y-80130000D01*
X79880000Y-81870000D02*
X79880000Y-83470000D01*
X92120000Y-73530000D02*
X92120000Y-83470000D01*
G04 #@! TO.C,RV2*
X70620000Y-90030000D02*
X70620000Y-99970000D01*
X58380000Y-98370000D02*
X58380000Y-99970000D01*
X58380000Y-95871000D02*
X58380000Y-96630000D01*
X58380000Y-93371000D02*
X58380000Y-94130000D01*
X58380000Y-90030000D02*
X58380000Y-91629000D01*
X66755000Y-99970000D02*
X70620000Y-99970000D01*
X58380000Y-99970000D02*
X62245000Y-99970000D01*
X66755000Y-90030000D02*
X70620000Y-90030000D01*
X58380000Y-90030000D02*
X62245000Y-90030000D01*
D11*
G04 #@! TO.C,SW1*
X112300000Y-36300000D02*
X103700000Y-36300000D01*
X112300000Y-31700000D02*
X110100000Y-31700000D01*
X106000000Y-31700000D02*
X103700000Y-31700000D01*
D10*
G04 #@! TO.C,U1*
X94810000Y-86170000D02*
G75*
G02X92810000Y-86170000I-1000000J0D01*
G01*
X92810000Y-86170000D02*
X91160000Y-86170000D01*
X91160000Y-86170000D02*
X91160000Y-121850000D01*
X91160000Y-121850000D02*
X96460000Y-121850000D01*
X96460000Y-121850000D02*
X96460000Y-86170000D01*
X96460000Y-86170000D02*
X94810000Y-86170000D01*
G04 #@! TO.C,U2*
X102310000Y-46170000D02*
G75*
G02X100310000Y-46170000I-1000000J0D01*
G01*
X100310000Y-46170000D02*
X98660000Y-46170000D01*
X98660000Y-46170000D02*
X98660000Y-56450000D01*
X98660000Y-56450000D02*
X103960000Y-56450000D01*
X103960000Y-56450000D02*
X103960000Y-46170000D01*
X103960000Y-46170000D02*
X102310000Y-46170000D01*
X96170000Y-46110000D02*
X96170000Y-56510000D01*
X96170000Y-56510000D02*
X106450000Y-56510000D01*
X106450000Y-56510000D02*
X106450000Y-46110000D01*
X106450000Y-46110000D02*
X96170000Y-46110000D01*
G04 #@! TO.C,Y1*
X72475000Y-100760000D02*
X72475000Y-94360000D01*
X77525000Y-100760000D02*
X77525000Y-94360000D01*
X77525000Y-100760000D02*
G75*
G02X72475000Y-100760000I-2525000J0D01*
G01*
X77525000Y-94360000D02*
G75*
G03X72475000Y-94360000I-2525000J0D01*
G01*
G04 #@! TO.C,BT1*
D11*
X127258571Y-120785714D02*
X127306190Y-120642857D01*
X127353809Y-120595238D01*
X127449047Y-120547619D01*
X127591904Y-120547619D01*
X127687142Y-120595238D01*
X127734761Y-120642857D01*
X127782380Y-120738095D01*
X127782380Y-121119047D01*
X126782380Y-121119047D01*
X126782380Y-120785714D01*
X126830000Y-120690476D01*
X126877619Y-120642857D01*
X126972857Y-120595238D01*
X127068095Y-120595238D01*
X127163333Y-120642857D01*
X127210952Y-120690476D01*
X127258571Y-120785714D01*
X127258571Y-121119047D01*
X126782380Y-120261904D02*
X126782380Y-119690476D01*
X127782380Y-119976190D02*
X126782380Y-119976190D01*
X127782380Y-118833333D02*
X127782380Y-119404761D01*
X127782380Y-119119047D02*
X126782380Y-119119047D01*
X126925238Y-119214285D01*
X127020476Y-119309523D01*
X127068095Y-119404761D01*
G04 #@! TO.C,C1*
X113583333Y-48457142D02*
X113535714Y-48504761D01*
X113392857Y-48552380D01*
X113297619Y-48552380D01*
X113154761Y-48504761D01*
X113059523Y-48409523D01*
X113011904Y-48314285D01*
X112964285Y-48123809D01*
X112964285Y-47980952D01*
X113011904Y-47790476D01*
X113059523Y-47695238D01*
X113154761Y-47600000D01*
X113297619Y-47552380D01*
X113392857Y-47552380D01*
X113535714Y-47600000D01*
X113583333Y-47647619D01*
X114535714Y-48552380D02*
X113964285Y-48552380D01*
X114250000Y-48552380D02*
X114250000Y-47552380D01*
X114154761Y-47695238D01*
X114059523Y-47790476D01*
X113964285Y-47838095D01*
G04 #@! TO.C,C2*
X88057142Y-51416666D02*
X88104761Y-51464285D01*
X88152380Y-51607142D01*
X88152380Y-51702380D01*
X88104761Y-51845238D01*
X88009523Y-51940476D01*
X87914285Y-51988095D01*
X87723809Y-52035714D01*
X87580952Y-52035714D01*
X87390476Y-51988095D01*
X87295238Y-51940476D01*
X87200000Y-51845238D01*
X87152380Y-51702380D01*
X87152380Y-51607142D01*
X87200000Y-51464285D01*
X87247619Y-51416666D01*
X87247619Y-51035714D02*
X87200000Y-50988095D01*
X87152380Y-50892857D01*
X87152380Y-50654761D01*
X87200000Y-50559523D01*
X87247619Y-50511904D01*
X87342857Y-50464285D01*
X87438095Y-50464285D01*
X87580952Y-50511904D01*
X88152380Y-51083333D01*
X88152380Y-50464285D01*
G04 #@! TO.C,C3*
X66083333Y-50157142D02*
X66035714Y-50204761D01*
X65892857Y-50252380D01*
X65797619Y-50252380D01*
X65654761Y-50204761D01*
X65559523Y-50109523D01*
X65511904Y-50014285D01*
X65464285Y-49823809D01*
X65464285Y-49680952D01*
X65511904Y-49490476D01*
X65559523Y-49395238D01*
X65654761Y-49300000D01*
X65797619Y-49252380D01*
X65892857Y-49252380D01*
X66035714Y-49300000D01*
X66083333Y-49347619D01*
X66416666Y-49252380D02*
X67035714Y-49252380D01*
X66702380Y-49633333D01*
X66845238Y-49633333D01*
X66940476Y-49680952D01*
X66988095Y-49728571D01*
X67035714Y-49823809D01*
X67035714Y-50061904D01*
X66988095Y-50157142D01*
X66940476Y-50204761D01*
X66845238Y-50252380D01*
X66559523Y-50252380D01*
X66464285Y-50204761D01*
X66416666Y-50157142D01*
G04 #@! TO.C,C4*
X73583333Y-90157142D02*
X73535714Y-90204761D01*
X73392857Y-90252380D01*
X73297619Y-90252380D01*
X73154761Y-90204761D01*
X73059523Y-90109523D01*
X73011904Y-90014285D01*
X72964285Y-89823809D01*
X72964285Y-89680952D01*
X73011904Y-89490476D01*
X73059523Y-89395238D01*
X73154761Y-89300000D01*
X73297619Y-89252380D01*
X73392857Y-89252380D01*
X73535714Y-89300000D01*
X73583333Y-89347619D01*
X74440476Y-89585714D02*
X74440476Y-90252380D01*
X74202380Y-89204761D02*
X73964285Y-89919047D01*
X74583333Y-89919047D01*
G04 #@! TO.C,C5*
X73583333Y-110157142D02*
X73535714Y-110204761D01*
X73392857Y-110252380D01*
X73297619Y-110252380D01*
X73154761Y-110204761D01*
X73059523Y-110109523D01*
X73011904Y-110014285D01*
X72964285Y-109823809D01*
X72964285Y-109680952D01*
X73011904Y-109490476D01*
X73059523Y-109395238D01*
X73154761Y-109300000D01*
X73297619Y-109252380D01*
X73392857Y-109252380D01*
X73535714Y-109300000D01*
X73583333Y-109347619D01*
X74488095Y-109252380D02*
X74011904Y-109252380D01*
X73964285Y-109728571D01*
X74011904Y-109680952D01*
X74107142Y-109633333D01*
X74345238Y-109633333D01*
X74440476Y-109680952D01*
X74488095Y-109728571D01*
X74535714Y-109823809D01*
X74535714Y-110061904D01*
X74488095Y-110157142D01*
X74440476Y-110204761D01*
X74345238Y-110252380D01*
X74107142Y-110252380D01*
X74011904Y-110204761D01*
X73964285Y-110157142D01*
G04 #@! TO.C,C6*
X123583333Y-48457142D02*
X123535714Y-48504761D01*
X123392857Y-48552380D01*
X123297619Y-48552380D01*
X123154761Y-48504761D01*
X123059523Y-48409523D01*
X123011904Y-48314285D01*
X122964285Y-48123809D01*
X122964285Y-47980952D01*
X123011904Y-47790476D01*
X123059523Y-47695238D01*
X123154761Y-47600000D01*
X123297619Y-47552380D01*
X123392857Y-47552380D01*
X123535714Y-47600000D01*
X123583333Y-47647619D01*
X124440476Y-47552380D02*
X124250000Y-47552380D01*
X124154761Y-47600000D01*
X124107142Y-47647619D01*
X124011904Y-47790476D01*
X123964285Y-47980952D01*
X123964285Y-48361904D01*
X124011904Y-48457142D01*
X124059523Y-48504761D01*
X124154761Y-48552380D01*
X124345238Y-48552380D01*
X124440476Y-48504761D01*
X124488095Y-48457142D01*
X124535714Y-48361904D01*
X124535714Y-48123809D01*
X124488095Y-48028571D01*
X124440476Y-47980952D01*
X124345238Y-47933333D01*
X124154761Y-47933333D01*
X124059523Y-47980952D01*
X124011904Y-48028571D01*
X123964285Y-48123809D01*
G04 #@! TO.C,D1*
X119341904Y-40482380D02*
X119341904Y-39482380D01*
X119580000Y-39482380D01*
X119722857Y-39530000D01*
X119818095Y-39625238D01*
X119865714Y-39720476D01*
X119913333Y-39910952D01*
X119913333Y-40053809D01*
X119865714Y-40244285D01*
X119818095Y-40339523D01*
X119722857Y-40434761D01*
X119580000Y-40482380D01*
X119341904Y-40482380D01*
X120865714Y-40482380D02*
X120294285Y-40482380D01*
X120580000Y-40482380D02*
X120580000Y-39482380D01*
X120484761Y-39625238D01*
X120389523Y-39720476D01*
X120294285Y-39768095D01*
X114738095Y-40852380D02*
X114738095Y-39852380D01*
X115309523Y-40852380D02*
X114880952Y-40280952D01*
X115309523Y-39852380D02*
X114738095Y-40423809D01*
G04 #@! TO.C,D2*
X85531904Y-61492380D02*
X85531904Y-60492380D01*
X85770000Y-60492380D01*
X85912857Y-60540000D01*
X86008095Y-60635238D01*
X86055714Y-60730476D01*
X86103333Y-60920952D01*
X86103333Y-61063809D01*
X86055714Y-61254285D01*
X86008095Y-61349523D01*
X85912857Y-61444761D01*
X85770000Y-61492380D01*
X85531904Y-61492380D01*
X86484285Y-60587619D02*
X86531904Y-60540000D01*
X86627142Y-60492380D01*
X86865238Y-60492380D01*
X86960476Y-60540000D01*
X87008095Y-60587619D01*
X87055714Y-60682857D01*
X87055714Y-60778095D01*
X87008095Y-60920952D01*
X86436666Y-61492380D01*
X87055714Y-61492380D01*
G04 #@! TO.C,D3*
X75531904Y-61492380D02*
X75531904Y-60492380D01*
X75770000Y-60492380D01*
X75912857Y-60540000D01*
X76008095Y-60635238D01*
X76055714Y-60730476D01*
X76103333Y-60920952D01*
X76103333Y-61063809D01*
X76055714Y-61254285D01*
X76008095Y-61349523D01*
X75912857Y-61444761D01*
X75770000Y-61492380D01*
X75531904Y-61492380D01*
X76436666Y-60492380D02*
X77055714Y-60492380D01*
X76722380Y-60873333D01*
X76865238Y-60873333D01*
X76960476Y-60920952D01*
X77008095Y-60968571D01*
X77055714Y-61063809D01*
X77055714Y-61301904D01*
X77008095Y-61397142D01*
X76960476Y-61444761D01*
X76865238Y-61492380D01*
X76579523Y-61492380D01*
X76484285Y-61444761D01*
X76436666Y-61397142D01*
G04 #@! TO.C,D4*
X105531904Y-61492380D02*
X105531904Y-60492380D01*
X105770000Y-60492380D01*
X105912857Y-60540000D01*
X106008095Y-60635238D01*
X106055714Y-60730476D01*
X106103333Y-60920952D01*
X106103333Y-61063809D01*
X106055714Y-61254285D01*
X106008095Y-61349523D01*
X105912857Y-61444761D01*
X105770000Y-61492380D01*
X105531904Y-61492380D01*
X106960476Y-60825714D02*
X106960476Y-61492380D01*
X106722380Y-60444761D02*
X106484285Y-61159047D01*
X107103333Y-61159047D01*
G04 #@! TO.C,D5*
X65531904Y-61492380D02*
X65531904Y-60492380D01*
X65770000Y-60492380D01*
X65912857Y-60540000D01*
X66008095Y-60635238D01*
X66055714Y-60730476D01*
X66103333Y-60920952D01*
X66103333Y-61063809D01*
X66055714Y-61254285D01*
X66008095Y-61349523D01*
X65912857Y-61444761D01*
X65770000Y-61492380D01*
X65531904Y-61492380D01*
X67008095Y-60492380D02*
X66531904Y-60492380D01*
X66484285Y-60968571D01*
X66531904Y-60920952D01*
X66627142Y-60873333D01*
X66865238Y-60873333D01*
X66960476Y-60920952D01*
X67008095Y-60968571D01*
X67055714Y-61063809D01*
X67055714Y-61301904D01*
X67008095Y-61397142D01*
X66960476Y-61444761D01*
X66865238Y-61492380D01*
X66627142Y-61492380D01*
X66531904Y-61444761D01*
X66484285Y-61397142D01*
G04 #@! TO.C,D6*
X95531904Y-61492380D02*
X95531904Y-60492380D01*
X95770000Y-60492380D01*
X95912857Y-60540000D01*
X96008095Y-60635238D01*
X96055714Y-60730476D01*
X96103333Y-60920952D01*
X96103333Y-61063809D01*
X96055714Y-61254285D01*
X96008095Y-61349523D01*
X95912857Y-61444761D01*
X95770000Y-61492380D01*
X95531904Y-61492380D01*
X96960476Y-60492380D02*
X96770000Y-60492380D01*
X96674761Y-60540000D01*
X96627142Y-60587619D01*
X96531904Y-60730476D01*
X96484285Y-60920952D01*
X96484285Y-61301904D01*
X96531904Y-61397142D01*
X96579523Y-61444761D01*
X96674761Y-61492380D01*
X96865238Y-61492380D01*
X96960476Y-61444761D01*
X97008095Y-61397142D01*
X97055714Y-61301904D01*
X97055714Y-61063809D01*
X97008095Y-60968571D01*
X96960476Y-60920952D01*
X96865238Y-60873333D01*
X96674761Y-60873333D01*
X96579523Y-60920952D01*
X96531904Y-60968571D01*
X96484285Y-61063809D01*
G04 #@! TO.C,J1*
X62915333Y-43097904D02*
X62915333Y-43669333D01*
X62877238Y-43783619D01*
X62801047Y-43859809D01*
X62686761Y-43897904D01*
X62610571Y-43897904D01*
X63715333Y-43897904D02*
X63258190Y-43897904D01*
X63486761Y-43897904D02*
X63486761Y-43097904D01*
X63410571Y-43212190D01*
X63334380Y-43288380D01*
X63258190Y-43326476D01*
D12*
X61642857Y-37032000D02*
X61928571Y-37032000D01*
X61585714Y-37203428D02*
X61785714Y-36603428D01*
X61985714Y-37203428D01*
X62442857Y-36803428D02*
X62442857Y-37203428D01*
X62185714Y-36803428D02*
X62185714Y-37117714D01*
X62214285Y-37174857D01*
X62271428Y-37203428D01*
X62357142Y-37203428D01*
X62414285Y-37174857D01*
X62442857Y-37146285D01*
X62985714Y-37203428D02*
X62985714Y-36603428D01*
X62985714Y-37174857D02*
X62928571Y-37203428D01*
X62814285Y-37203428D01*
X62757142Y-37174857D01*
X62728571Y-37146285D01*
X62700000Y-37089142D01*
X62700000Y-36917714D01*
X62728571Y-36860571D01*
X62757142Y-36832000D01*
X62814285Y-36803428D01*
X62928571Y-36803428D01*
X62985714Y-36832000D01*
X63271428Y-37203428D02*
X63271428Y-36803428D01*
X63271428Y-36603428D02*
X63242857Y-36632000D01*
X63271428Y-36660571D01*
X63300000Y-36632000D01*
X63271428Y-36603428D01*
X63271428Y-36660571D01*
X63642857Y-37203428D02*
X63585714Y-37174857D01*
X63557142Y-37146285D01*
X63528571Y-37089142D01*
X63528571Y-36917714D01*
X63557142Y-36860571D01*
X63585714Y-36832000D01*
X63642857Y-36803428D01*
X63728571Y-36803428D01*
X63785714Y-36832000D01*
X63814285Y-36860571D01*
X63842857Y-36917714D01*
X63842857Y-37089142D01*
X63814285Y-37146285D01*
X63785714Y-37174857D01*
X63728571Y-37203428D01*
X63642857Y-37203428D01*
X64271428Y-36603428D02*
X64271428Y-37032000D01*
X64242857Y-37117714D01*
X64185714Y-37174857D01*
X64100000Y-37203428D01*
X64042857Y-37203428D01*
X64814285Y-37203428D02*
X64814285Y-36889142D01*
X64785714Y-36832000D01*
X64728571Y-36803428D01*
X64614285Y-36803428D01*
X64557142Y-36832000D01*
X64814285Y-37174857D02*
X64757142Y-37203428D01*
X64614285Y-37203428D01*
X64557142Y-37174857D01*
X64528571Y-37117714D01*
X64528571Y-37060571D01*
X64557142Y-37003428D01*
X64614285Y-36974857D01*
X64757142Y-36974857D01*
X64814285Y-36946285D01*
X65357142Y-37174857D02*
X65300000Y-37203428D01*
X65185714Y-37203428D01*
X65128571Y-37174857D01*
X65100000Y-37146285D01*
X65071428Y-37089142D01*
X65071428Y-36917714D01*
X65100000Y-36860571D01*
X65128571Y-36832000D01*
X65185714Y-36803428D01*
X65300000Y-36803428D01*
X65357142Y-36832000D01*
X65614285Y-37203428D02*
X65614285Y-36603428D01*
X65671428Y-36974857D02*
X65842857Y-37203428D01*
X65842857Y-36803428D02*
X65614285Y-37032000D01*
X66042857Y-36603428D02*
X66414285Y-36603428D01*
X66214285Y-36832000D01*
X66300000Y-36832000D01*
X66357142Y-36860571D01*
X66385714Y-36889142D01*
X66414285Y-36946285D01*
X66414285Y-37089142D01*
X66385714Y-37146285D01*
X66357142Y-37174857D01*
X66300000Y-37203428D01*
X66128571Y-37203428D01*
X66071428Y-37174857D01*
X66042857Y-37146285D01*
X66528571Y-37260571D02*
X66985714Y-37260571D01*
X67442857Y-36632000D02*
X67385714Y-36603428D01*
X67300000Y-36603428D01*
X67214285Y-36632000D01*
X67157142Y-36689142D01*
X67128571Y-36746285D01*
X67100000Y-36860571D01*
X67100000Y-36946285D01*
X67128571Y-37060571D01*
X67157142Y-37117714D01*
X67214285Y-37174857D01*
X67300000Y-37203428D01*
X67357142Y-37203428D01*
X67442857Y-37174857D01*
X67471428Y-37146285D01*
X67471428Y-36946285D01*
X67357142Y-36946285D01*
X67728571Y-37203428D02*
X67728571Y-36803428D01*
X67728571Y-36917714D02*
X67757142Y-36860571D01*
X67785714Y-36832000D01*
X67842857Y-36803428D01*
X67900000Y-36803428D01*
X68185714Y-37203428D02*
X68128571Y-37174857D01*
X68100000Y-37146285D01*
X68071428Y-37089142D01*
X68071428Y-36917714D01*
X68100000Y-36860571D01*
X68128571Y-36832000D01*
X68185714Y-36803428D01*
X68271428Y-36803428D01*
X68328571Y-36832000D01*
X68357142Y-36860571D01*
X68385714Y-36917714D01*
X68385714Y-37089142D01*
X68357142Y-37146285D01*
X68328571Y-37174857D01*
X68271428Y-37203428D01*
X68185714Y-37203428D01*
X68900000Y-36803428D02*
X68900000Y-37203428D01*
X68642857Y-36803428D02*
X68642857Y-37117714D01*
X68671428Y-37174857D01*
X68728571Y-37203428D01*
X68814285Y-37203428D01*
X68871428Y-37174857D01*
X68900000Y-37146285D01*
X69185714Y-36803428D02*
X69185714Y-37203428D01*
X69185714Y-36860571D02*
X69214285Y-36832000D01*
X69271428Y-36803428D01*
X69357142Y-36803428D01*
X69414285Y-36832000D01*
X69442857Y-36889142D01*
X69442857Y-37203428D01*
X69985714Y-37203428D02*
X69985714Y-36603428D01*
X69985714Y-37174857D02*
X69928571Y-37203428D01*
X69814285Y-37203428D01*
X69757142Y-37174857D01*
X69728571Y-37146285D01*
X69700000Y-37089142D01*
X69700000Y-36917714D01*
X69728571Y-36860571D01*
X69757142Y-36832000D01*
X69814285Y-36803428D01*
X69928571Y-36803428D01*
X69985714Y-36832000D01*
X70128571Y-37260571D02*
X70585714Y-37260571D01*
X70700000Y-37174857D02*
X70785714Y-37203428D01*
X70928571Y-37203428D01*
X70985714Y-37174857D01*
X71014285Y-37146285D01*
X71042857Y-37089142D01*
X71042857Y-37032000D01*
X71014285Y-36974857D01*
X70985714Y-36946285D01*
X70928571Y-36917714D01*
X70814285Y-36889142D01*
X70757142Y-36860571D01*
X70728571Y-36832000D01*
X70700000Y-36774857D01*
X70700000Y-36717714D01*
X70728571Y-36660571D01*
X70757142Y-36632000D01*
X70814285Y-36603428D01*
X70957142Y-36603428D01*
X71042857Y-36632000D01*
X71242857Y-36803428D02*
X71357142Y-37203428D01*
X71471428Y-36917714D01*
X71585714Y-37203428D01*
X71700000Y-36803428D01*
X71928571Y-37203428D02*
X71928571Y-36803428D01*
X71928571Y-36603428D02*
X71900000Y-36632000D01*
X71928571Y-36660571D01*
X71957142Y-36632000D01*
X71928571Y-36603428D01*
X71928571Y-36660571D01*
X72128571Y-36803428D02*
X72357142Y-36803428D01*
X72214285Y-36603428D02*
X72214285Y-37117714D01*
X72242857Y-37174857D01*
X72300000Y-37203428D01*
X72357142Y-37203428D01*
X72814285Y-37174857D02*
X72757142Y-37203428D01*
X72642857Y-37203428D01*
X72585714Y-37174857D01*
X72557142Y-37146285D01*
X72528571Y-37089142D01*
X72528571Y-36917714D01*
X72557142Y-36860571D01*
X72585714Y-36832000D01*
X72642857Y-36803428D01*
X72757142Y-36803428D01*
X72814285Y-36832000D01*
X73071428Y-37203428D02*
X73071428Y-36603428D01*
X73328571Y-37203428D02*
X73328571Y-36889142D01*
X73300000Y-36832000D01*
X73242857Y-36803428D01*
X73157142Y-36803428D01*
X73100000Y-36832000D01*
X73071428Y-36860571D01*
G04 #@! TO.C,L1*
D11*
X124333333Y-31202380D02*
X123857142Y-31202380D01*
X123857142Y-30202380D01*
X125190476Y-31202380D02*
X124619047Y-31202380D01*
X124904761Y-31202380D02*
X124904761Y-30202380D01*
X124809523Y-30345238D01*
X124714285Y-30440476D01*
X124619047Y-30488095D01*
G04 #@! TO.C,R1*
X60322380Y-52746666D02*
X59846190Y-53080000D01*
X60322380Y-53318095D02*
X59322380Y-53318095D01*
X59322380Y-52937142D01*
X59370000Y-52841904D01*
X59417619Y-52794285D01*
X59512857Y-52746666D01*
X59655714Y-52746666D01*
X59750952Y-52794285D01*
X59798571Y-52841904D01*
X59846190Y-52937142D01*
X59846190Y-53318095D01*
X60322380Y-51794285D02*
X60322380Y-52365714D01*
X60322380Y-52080000D02*
X59322380Y-52080000D01*
X59465238Y-52175238D01*
X59560476Y-52270476D01*
X59608095Y-52365714D01*
G04 #@! TO.C,R2*
X64913333Y-78082380D02*
X64580000Y-77606190D01*
X64341904Y-78082380D02*
X64341904Y-77082380D01*
X64722857Y-77082380D01*
X64818095Y-77130000D01*
X64865714Y-77177619D01*
X64913333Y-77272857D01*
X64913333Y-77415714D01*
X64865714Y-77510952D01*
X64818095Y-77558571D01*
X64722857Y-77606190D01*
X64341904Y-77606190D01*
X65294285Y-77177619D02*
X65341904Y-77130000D01*
X65437142Y-77082380D01*
X65675238Y-77082380D01*
X65770476Y-77130000D01*
X65818095Y-77177619D01*
X65865714Y-77272857D01*
X65865714Y-77368095D01*
X65818095Y-77510952D01*
X65246666Y-78082380D01*
X65865714Y-78082380D01*
G04 #@! TO.C,R3*
X84753333Y-60322380D02*
X84420000Y-59846190D01*
X84181904Y-60322380D02*
X84181904Y-59322380D01*
X84562857Y-59322380D01*
X84658095Y-59370000D01*
X84705714Y-59417619D01*
X84753333Y-59512857D01*
X84753333Y-59655714D01*
X84705714Y-59750952D01*
X84658095Y-59798571D01*
X84562857Y-59846190D01*
X84181904Y-59846190D01*
X85086666Y-59322380D02*
X85705714Y-59322380D01*
X85372380Y-59703333D01*
X85515238Y-59703333D01*
X85610476Y-59750952D01*
X85658095Y-59798571D01*
X85705714Y-59893809D01*
X85705714Y-60131904D01*
X85658095Y-60227142D01*
X85610476Y-60274761D01*
X85515238Y-60322380D01*
X85229523Y-60322380D01*
X85134285Y-60274761D01*
X85086666Y-60227142D01*
G04 #@! TO.C,R4*
X67651333Y-75322380D02*
X67318000Y-74846190D01*
X67079904Y-75322380D02*
X67079904Y-74322380D01*
X67460857Y-74322380D01*
X67556095Y-74370000D01*
X67603714Y-74417619D01*
X67651333Y-74512857D01*
X67651333Y-74655714D01*
X67603714Y-74750952D01*
X67556095Y-74798571D01*
X67460857Y-74846190D01*
X67079904Y-74846190D01*
X68508476Y-74655714D02*
X68508476Y-75322380D01*
X68270380Y-74274761D02*
X68032285Y-74989047D01*
X68651333Y-74989047D01*
G04 #@! TO.C,R5*
X116673333Y-70582380D02*
X116340000Y-70106190D01*
X116101904Y-70582380D02*
X116101904Y-69582380D01*
X116482857Y-69582380D01*
X116578095Y-69630000D01*
X116625714Y-69677619D01*
X116673333Y-69772857D01*
X116673333Y-69915714D01*
X116625714Y-70010952D01*
X116578095Y-70058571D01*
X116482857Y-70106190D01*
X116101904Y-70106190D01*
X117578095Y-69582380D02*
X117101904Y-69582380D01*
X117054285Y-70058571D01*
X117101904Y-70010952D01*
X117197142Y-69963333D01*
X117435238Y-69963333D01*
X117530476Y-70010952D01*
X117578095Y-70058571D01*
X117625714Y-70153809D01*
X117625714Y-70391904D01*
X117578095Y-70487142D01*
X117530476Y-70534761D01*
X117435238Y-70582380D01*
X117197142Y-70582380D01*
X117101904Y-70534761D01*
X117054285Y-70487142D01*
G04 #@! TO.C,R6*
X52157333Y-75322380D02*
X51824000Y-74846190D01*
X51585904Y-75322380D02*
X51585904Y-74322380D01*
X51966857Y-74322380D01*
X52062095Y-74370000D01*
X52109714Y-74417619D01*
X52157333Y-74512857D01*
X52157333Y-74655714D01*
X52109714Y-74750952D01*
X52062095Y-74798571D01*
X51966857Y-74846190D01*
X51585904Y-74846190D01*
X53014476Y-74322380D02*
X52824000Y-74322380D01*
X52728761Y-74370000D01*
X52681142Y-74417619D01*
X52585904Y-74560476D01*
X52538285Y-74750952D01*
X52538285Y-75131904D01*
X52585904Y-75227142D01*
X52633523Y-75274761D01*
X52728761Y-75322380D01*
X52919238Y-75322380D01*
X53014476Y-75274761D01*
X53062095Y-75227142D01*
X53109714Y-75131904D01*
X53109714Y-74893809D01*
X53062095Y-74798571D01*
X53014476Y-74750952D01*
X52919238Y-74703333D01*
X52728761Y-74703333D01*
X52633523Y-74750952D01*
X52585904Y-74798571D01*
X52538285Y-74893809D01*
G04 #@! TO.C,R7*
X102449333Y-70582380D02*
X102116000Y-70106190D01*
X101877904Y-70582380D02*
X101877904Y-69582380D01*
X102258857Y-69582380D01*
X102354095Y-69630000D01*
X102401714Y-69677619D01*
X102449333Y-69772857D01*
X102449333Y-69915714D01*
X102401714Y-70010952D01*
X102354095Y-70058571D01*
X102258857Y-70106190D01*
X101877904Y-70106190D01*
X102782666Y-69582380D02*
X103449333Y-69582380D01*
X103020761Y-70582380D01*
G04 #@! TO.C,RV1*
X84454761Y-71302380D02*
X84121428Y-70826190D01*
X83883333Y-71302380D02*
X83883333Y-70302380D01*
X84264285Y-70302380D01*
X84359523Y-70350000D01*
X84407142Y-70397619D01*
X84454761Y-70492857D01*
X84454761Y-70635714D01*
X84407142Y-70730952D01*
X84359523Y-70778571D01*
X84264285Y-70826190D01*
X83883333Y-70826190D01*
X84740476Y-70302380D02*
X85073809Y-71302380D01*
X85407142Y-70302380D01*
X86264285Y-71302380D02*
X85692857Y-71302380D01*
X85978571Y-71302380D02*
X85978571Y-70302380D01*
X85883333Y-70445238D01*
X85788095Y-70540476D01*
X85692857Y-70588095D01*
G04 #@! TO.C,RV2*
X62954761Y-87802380D02*
X62621428Y-87326190D01*
X62383333Y-87802380D02*
X62383333Y-86802380D01*
X62764285Y-86802380D01*
X62859523Y-86850000D01*
X62907142Y-86897619D01*
X62954761Y-86992857D01*
X62954761Y-87135714D01*
X62907142Y-87230952D01*
X62859523Y-87278571D01*
X62764285Y-87326190D01*
X62383333Y-87326190D01*
X63240476Y-86802380D02*
X63573809Y-87802380D01*
X63907142Y-86802380D01*
X64192857Y-86897619D02*
X64240476Y-86850000D01*
X64335714Y-86802380D01*
X64573809Y-86802380D01*
X64669047Y-86850000D01*
X64716666Y-86897619D01*
X64764285Y-86992857D01*
X64764285Y-87088095D01*
X64716666Y-87230952D01*
X64145238Y-87802380D01*
X64764285Y-87802380D01*
G04 #@! TO.C,SW1*
X107266666Y-38004761D02*
X107409523Y-38052380D01*
X107647619Y-38052380D01*
X107742857Y-38004761D01*
X107790476Y-37957142D01*
X107838095Y-37861904D01*
X107838095Y-37766666D01*
X107790476Y-37671428D01*
X107742857Y-37623809D01*
X107647619Y-37576190D01*
X107457142Y-37528571D01*
X107361904Y-37480952D01*
X107314285Y-37433333D01*
X107266666Y-37338095D01*
X107266666Y-37242857D01*
X107314285Y-37147619D01*
X107361904Y-37100000D01*
X107457142Y-37052380D01*
X107695238Y-37052380D01*
X107838095Y-37100000D01*
X108171428Y-37052380D02*
X108409523Y-38052380D01*
X108600000Y-37338095D01*
X108790476Y-38052380D01*
X109028571Y-37052380D01*
X109933333Y-38052380D02*
X109361904Y-38052380D01*
X109647619Y-38052380D02*
X109647619Y-37052380D01*
X109552380Y-37195238D01*
X109457142Y-37290476D01*
X109361904Y-37338095D01*
G04 #@! TO.C,SW2*
X106166666Y-85324761D02*
X106309523Y-85372380D01*
X106547619Y-85372380D01*
X106642857Y-85324761D01*
X106690476Y-85277142D01*
X106738095Y-85181904D01*
X106738095Y-85086666D01*
X106690476Y-84991428D01*
X106642857Y-84943809D01*
X106547619Y-84896190D01*
X106357142Y-84848571D01*
X106261904Y-84800952D01*
X106214285Y-84753333D01*
X106166666Y-84658095D01*
X106166666Y-84562857D01*
X106214285Y-84467619D01*
X106261904Y-84420000D01*
X106357142Y-84372380D01*
X106595238Y-84372380D01*
X106738095Y-84420000D01*
X107071428Y-84372380D02*
X107309523Y-85372380D01*
X107500000Y-84658095D01*
X107690476Y-85372380D01*
X107928571Y-84372380D01*
X108261904Y-84467619D02*
X108309523Y-84420000D01*
X108404761Y-84372380D01*
X108642857Y-84372380D01*
X108738095Y-84420000D01*
X108785714Y-84467619D01*
X108833333Y-84562857D01*
X108833333Y-84658095D01*
X108785714Y-84800952D01*
X108214285Y-85372380D01*
X108833333Y-85372380D01*
G04 #@! TO.C,SW3*
X63666666Y-122984761D02*
X63809523Y-123032380D01*
X64047619Y-123032380D01*
X64142857Y-122984761D01*
X64190476Y-122937142D01*
X64238095Y-122841904D01*
X64238095Y-122746666D01*
X64190476Y-122651428D01*
X64142857Y-122603809D01*
X64047619Y-122556190D01*
X63857142Y-122508571D01*
X63761904Y-122460952D01*
X63714285Y-122413333D01*
X63666666Y-122318095D01*
X63666666Y-122222857D01*
X63714285Y-122127619D01*
X63761904Y-122080000D01*
X63857142Y-122032380D01*
X64095238Y-122032380D01*
X64238095Y-122080000D01*
X64571428Y-122032380D02*
X64809523Y-123032380D01*
X65000000Y-122318095D01*
X65190476Y-123032380D01*
X65428571Y-122032380D01*
X65714285Y-122032380D02*
X66333333Y-122032380D01*
X66000000Y-122413333D01*
X66142857Y-122413333D01*
X66238095Y-122460952D01*
X66285714Y-122508571D01*
X66333333Y-122603809D01*
X66333333Y-122841904D01*
X66285714Y-122937142D01*
X66238095Y-122984761D01*
X66142857Y-123032380D01*
X65857142Y-123032380D01*
X65761904Y-122984761D01*
X65714285Y-122937142D01*
G04 #@! TO.C,SW4*
X51166666Y-122984761D02*
X51309523Y-123032380D01*
X51547619Y-123032380D01*
X51642857Y-122984761D01*
X51690476Y-122937142D01*
X51738095Y-122841904D01*
X51738095Y-122746666D01*
X51690476Y-122651428D01*
X51642857Y-122603809D01*
X51547619Y-122556190D01*
X51357142Y-122508571D01*
X51261904Y-122460952D01*
X51214285Y-122413333D01*
X51166666Y-122318095D01*
X51166666Y-122222857D01*
X51214285Y-122127619D01*
X51261904Y-122080000D01*
X51357142Y-122032380D01*
X51595238Y-122032380D01*
X51738095Y-122080000D01*
X52071428Y-122032380D02*
X52309523Y-123032380D01*
X52500000Y-122318095D01*
X52690476Y-123032380D01*
X52928571Y-122032380D01*
X53738095Y-122365714D02*
X53738095Y-123032380D01*
X53500000Y-121984761D02*
X53261904Y-122699047D01*
X53880952Y-122699047D01*
G04 #@! TO.C,SW5*
X118666666Y-80324761D02*
X118809523Y-80372380D01*
X119047619Y-80372380D01*
X119142857Y-80324761D01*
X119190476Y-80277142D01*
X119238095Y-80181904D01*
X119238095Y-80086666D01*
X119190476Y-79991428D01*
X119142857Y-79943809D01*
X119047619Y-79896190D01*
X118857142Y-79848571D01*
X118761904Y-79800952D01*
X118714285Y-79753333D01*
X118666666Y-79658095D01*
X118666666Y-79562857D01*
X118714285Y-79467619D01*
X118761904Y-79420000D01*
X118857142Y-79372380D01*
X119095238Y-79372380D01*
X119238095Y-79420000D01*
X119571428Y-79372380D02*
X119809523Y-80372380D01*
X120000000Y-79658095D01*
X120190476Y-80372380D01*
X120428571Y-79372380D01*
X121285714Y-79372380D02*
X120809523Y-79372380D01*
X120761904Y-79848571D01*
X120809523Y-79800952D01*
X120904761Y-79753333D01*
X121142857Y-79753333D01*
X121238095Y-79800952D01*
X121285714Y-79848571D01*
X121333333Y-79943809D01*
X121333333Y-80181904D01*
X121285714Y-80277142D01*
X121238095Y-80324761D01*
X121142857Y-80372380D01*
X120904761Y-80372380D01*
X120809523Y-80324761D01*
X120761904Y-80277142D01*
G04 #@! TO.C,SW6*
X106166666Y-100324761D02*
X106309523Y-100372380D01*
X106547619Y-100372380D01*
X106642857Y-100324761D01*
X106690476Y-100277142D01*
X106738095Y-100181904D01*
X106738095Y-100086666D01*
X106690476Y-99991428D01*
X106642857Y-99943809D01*
X106547619Y-99896190D01*
X106357142Y-99848571D01*
X106261904Y-99800952D01*
X106214285Y-99753333D01*
X106166666Y-99658095D01*
X106166666Y-99562857D01*
X106214285Y-99467619D01*
X106261904Y-99420000D01*
X106357142Y-99372380D01*
X106595238Y-99372380D01*
X106738095Y-99420000D01*
X107071428Y-99372380D02*
X107309523Y-100372380D01*
X107500000Y-99658095D01*
X107690476Y-100372380D01*
X107928571Y-99372380D01*
X108738095Y-99372380D02*
X108547619Y-99372380D01*
X108452380Y-99420000D01*
X108404761Y-99467619D01*
X108309523Y-99610476D01*
X108261904Y-99800952D01*
X108261904Y-100181904D01*
X108309523Y-100277142D01*
X108357142Y-100324761D01*
X108452380Y-100372380D01*
X108642857Y-100372380D01*
X108738095Y-100324761D01*
X108785714Y-100277142D01*
X108833333Y-100181904D01*
X108833333Y-99943809D01*
X108785714Y-99848571D01*
X108738095Y-99800952D01*
X108642857Y-99753333D01*
X108452380Y-99753333D01*
X108357142Y-99800952D01*
X108309523Y-99848571D01*
X108261904Y-99943809D01*
G04 #@! TO.C,SW7*
X76166666Y-122984761D02*
X76309523Y-123032380D01*
X76547619Y-123032380D01*
X76642857Y-122984761D01*
X76690476Y-122937142D01*
X76738095Y-122841904D01*
X76738095Y-122746666D01*
X76690476Y-122651428D01*
X76642857Y-122603809D01*
X76547619Y-122556190D01*
X76357142Y-122508571D01*
X76261904Y-122460952D01*
X76214285Y-122413333D01*
X76166666Y-122318095D01*
X76166666Y-122222857D01*
X76214285Y-122127619D01*
X76261904Y-122080000D01*
X76357142Y-122032380D01*
X76595238Y-122032380D01*
X76738095Y-122080000D01*
X77071428Y-122032380D02*
X77309523Y-123032380D01*
X77500000Y-122318095D01*
X77690476Y-123032380D01*
X77928571Y-122032380D01*
X78214285Y-122032380D02*
X78880952Y-122032380D01*
X78452380Y-123032380D01*
G04 #@! TO.C,SW8*
X118666666Y-95324761D02*
X118809523Y-95372380D01*
X119047619Y-95372380D01*
X119142857Y-95324761D01*
X119190476Y-95277142D01*
X119238095Y-95181904D01*
X119238095Y-95086666D01*
X119190476Y-94991428D01*
X119142857Y-94943809D01*
X119047619Y-94896190D01*
X118857142Y-94848571D01*
X118761904Y-94800952D01*
X118714285Y-94753333D01*
X118666666Y-94658095D01*
X118666666Y-94562857D01*
X118714285Y-94467619D01*
X118761904Y-94420000D01*
X118857142Y-94372380D01*
X119095238Y-94372380D01*
X119238095Y-94420000D01*
X119571428Y-94372380D02*
X119809523Y-95372380D01*
X120000000Y-94658095D01*
X120190476Y-95372380D01*
X120428571Y-94372380D01*
X120952380Y-94800952D02*
X120857142Y-94753333D01*
X120809523Y-94705714D01*
X120761904Y-94610476D01*
X120761904Y-94562857D01*
X120809523Y-94467619D01*
X120857142Y-94420000D01*
X120952380Y-94372380D01*
X121142857Y-94372380D01*
X121238095Y-94420000D01*
X121285714Y-94467619D01*
X121333333Y-94562857D01*
X121333333Y-94610476D01*
X121285714Y-94705714D01*
X121238095Y-94753333D01*
X121142857Y-94800952D01*
X120952380Y-94800952D01*
X120857142Y-94848571D01*
X120809523Y-94896190D01*
X120761904Y-94991428D01*
X120761904Y-95181904D01*
X120809523Y-95277142D01*
X120857142Y-95324761D01*
X120952380Y-95372380D01*
X121142857Y-95372380D01*
X121238095Y-95324761D01*
X121285714Y-95277142D01*
X121333333Y-95181904D01*
X121333333Y-94991428D01*
X121285714Y-94896190D01*
X121238095Y-94848571D01*
X121142857Y-94800952D01*
G04 #@! TO.C,U1*
X93048095Y-84622380D02*
X93048095Y-85431904D01*
X93095714Y-85527142D01*
X93143333Y-85574761D01*
X93238571Y-85622380D01*
X93429047Y-85622380D01*
X93524285Y-85574761D01*
X93571904Y-85527142D01*
X93619523Y-85431904D01*
X93619523Y-84622380D01*
X94619523Y-85622380D02*
X94048095Y-85622380D01*
X94333809Y-85622380D02*
X94333809Y-84622380D01*
X94238571Y-84765238D01*
X94143333Y-84860476D01*
X94048095Y-84908095D01*
G04 #@! TO.C,U2*
X100548095Y-44622380D02*
X100548095Y-45431904D01*
X100595714Y-45527142D01*
X100643333Y-45574761D01*
X100738571Y-45622380D01*
X100929047Y-45622380D01*
X101024285Y-45574761D01*
X101071904Y-45527142D01*
X101119523Y-45431904D01*
X101119523Y-44622380D01*
X101548095Y-44717619D02*
X101595714Y-44670000D01*
X101690952Y-44622380D01*
X101929047Y-44622380D01*
X102024285Y-44670000D01*
X102071904Y-44717619D01*
X102119523Y-44812857D01*
X102119523Y-44908095D01*
X102071904Y-45050952D01*
X101500476Y-45622380D01*
X102119523Y-45622380D01*
G04 #@! TO.C,Y1*
X71451190Y-98036190D02*
X71927380Y-98036190D01*
X70927380Y-98369523D02*
X71451190Y-98036190D01*
X70927380Y-97702857D01*
X71927380Y-96845714D02*
X71927380Y-97417142D01*
X71927380Y-97131428D02*
X70927380Y-97131428D01*
X71070238Y-97226666D01*
X71165476Y-97321904D01*
X71213095Y-97417142D01*
G04 #@! TD*
M02*
