M48
;DRILL file {KiCad (5.0.1)-3} date 25/03/2020 14:52:41
;FORMAT={-:-/ absolute / metric / decimal}
FMAT,2
METRIC,TZ
T1C1.397
T2C1.780
T3C2.200
T4C3.200
%
G90
G05
M71
T1
X106.675Y-164.897
X116.677Y-164.897
X83.815Y-164.478
X93.817Y-164.478
T2
X63.5Y-121.92
X63.5Y-137.16
X104.14Y-121.92
X104.14Y-137.16
T3
X61.6Y-61.58
X70.4Y-61.595
X130.18Y-61.58
X138.98Y-61.595
X76.84Y-61.58
X85.64Y-61.595
X114.94Y-61.58
X123.74Y-61.595
X113.1Y-37.
X121.9Y-37.015
T4
X100.Y-80.
X60.Y-105.
X100.Y-50.
X70.Y-160.
X60.Y-74.
X140.Y-105.
X130.Y-160.
X60.Y-35.
X140.Y-35.
X140.Y-74.
T0
M30
