G04 #@! TF.GenerationSoftware,KiCad,Pcbnew,(5.0.1)-3*
G04 #@! TF.CreationDate,2020-03-25T14:52:38+00:00*
G04 #@! TF.ProjectId,drumkid,6472756D6B69642E6B696361645F7063,rev?*
G04 #@! TF.SameCoordinates,Original*
G04 #@! TF.FileFunction,Copper,L1,Top,Signal*
G04 #@! TF.FilePolarity,Positive*
%FSLAX46Y46*%
G04 Gerber Fmt 4.6, Leading zero omitted, Abs format (unit mm)*
G04 Created by KiCad (PCBNEW (5.0.1)-3) date 25/03/2020 14:52:38*
%MOMM*%
%LPD*%
G01*
G04 APERTURE LIST*
G04 #@! TA.AperFunction,ComponentPad*
%ADD10C,1.600000*%
G04 #@! TD*
G04 #@! TA.AperFunction,ComponentPad*
%ADD11R,1.600000X1.600000*%
G04 #@! TD*
G04 #@! TA.AperFunction,ComponentPad*
%ADD12O,1.700000X1.700000*%
G04 #@! TD*
G04 #@! TA.AperFunction,ComponentPad*
%ADD13R,1.700000X1.700000*%
G04 #@! TD*
G04 #@! TA.AperFunction,ComponentPad*
%ADD14O,1.600000X1.600000*%
G04 #@! TD*
G04 #@! TA.AperFunction,ComponentPad*
%ADD15R,2.200000X2.200000*%
G04 #@! TD*
G04 #@! TA.AperFunction,ComponentPad*
%ADD16O,2.200000X2.200000*%
G04 #@! TD*
G04 #@! TA.AperFunction,ComponentPad*
%ADD17C,1.400000*%
G04 #@! TD*
G04 #@! TA.AperFunction,ComponentPad*
%ADD18C,3.653000*%
G04 #@! TD*
G04 #@! TA.AperFunction,ComponentPad*
%ADD19R,1.800000X1.800000*%
G04 #@! TD*
G04 #@! TA.AperFunction,ComponentPad*
%ADD20C,1.800000*%
G04 #@! TD*
G04 #@! TA.AperFunction,WasherPad*
%ADD21C,2.499360*%
G04 #@! TD*
G04 #@! TA.AperFunction,ComponentPad*
%ADD22C,2.499360*%
G04 #@! TD*
G04 #@! TA.AperFunction,ComponentPad*
%ADD23O,2.500000X3.000000*%
G04 #@! TD*
G04 #@! TA.AperFunction,ComponentPad*
%ADD24R,3.500000X2.500000*%
G04 #@! TD*
G04 #@! TA.AperFunction,ComponentPad*
%ADD25O,1.750000X3.500000*%
G04 #@! TD*
G04 #@! TA.AperFunction,WasherPad*
%ADD26C,4.000000*%
G04 #@! TD*
G04 #@! TA.AperFunction,ComponentPad*
%ADD27R,3.500120X3.500120*%
G04 #@! TD*
G04 #@! TA.AperFunction,ComponentPad*
%ADD28C,3.500120*%
G04 #@! TD*
G04 #@! TA.AperFunction,ViaPad*
%ADD29C,0.800000*%
G04 #@! TD*
G04 #@! TA.AperFunction,Conductor*
%ADD30C,0.250000*%
G04 #@! TD*
G04 #@! TA.AperFunction,Conductor*
%ADD31C,0.625000*%
G04 #@! TD*
G04 #@! TA.AperFunction,Conductor*
%ADD32C,0.254000*%
G04 #@! TD*
G04 APERTURE END LIST*
D10*
G04 #@! TO.P,C1,2*
G04 #@! TO.N,GND*
X96480000Y-144780000D03*
D11*
G04 #@! TO.P,C1,1*
G04 #@! TO.N,VCC*
X93980000Y-144780000D03*
G04 #@! TD*
G04 #@! TO.P,C3,1*
G04 #@! TO.N,VCC*
X93980000Y-114300000D03*
D10*
G04 #@! TO.P,C3,2*
G04 #@! TO.N,GND*
X96480000Y-114300000D03*
G04 #@! TD*
G04 #@! TO.P,C2,2*
G04 #@! TO.N,GND*
X101600000Y-144820000D03*
G04 #@! TO.P,C2,1*
G04 #@! TO.N,VCC*
X101600000Y-147320000D03*
G04 #@! TD*
G04 #@! TO.P,C4,1*
G04 #@! TO.N,VCC*
X93980000Y-106680000D03*
G04 #@! TO.P,C4,2*
G04 #@! TO.N,GND*
X96480000Y-106680000D03*
G04 #@! TD*
D12*
G04 #@! TO.P,J3,15*
G04 #@! TO.N,+9V*
X101600000Y-139700000D03*
G04 #@! TO.P,J3,14*
G04 #@! TO.N,GND*
X99060000Y-139700000D03*
G04 #@! TO.P,J3,13*
G04 #@! TO.N,/RESET*
X96520000Y-139700000D03*
G04 #@! TO.P,J3,12*
G04 #@! TO.N,VCC*
X93980000Y-139700000D03*
G04 #@! TO.P,J3,11*
G04 #@! TO.N,/ANALOG_7*
X91440000Y-139700000D03*
G04 #@! TO.P,J3,10*
G04 #@! TO.N,/ANALOG_6*
X88900000Y-139700000D03*
G04 #@! TO.P,J3,9*
G04 #@! TO.N,/ANALOG_5*
X86360000Y-139700000D03*
G04 #@! TO.P,J3,8*
G04 #@! TO.N,/ANALOG_4*
X83820000Y-139700000D03*
G04 #@! TO.P,J3,7*
G04 #@! TO.N,/ANALOG_3*
X81280000Y-139700000D03*
G04 #@! TO.P,J3,6*
G04 #@! TO.N,/ANALOG_2*
X78740000Y-139700000D03*
G04 #@! TO.P,J3,5*
G04 #@! TO.N,/ANALOG_1*
X76200000Y-139700000D03*
G04 #@! TO.P,J3,4*
G04 #@! TO.N,/ANALOG_0*
X73660000Y-139700000D03*
G04 #@! TO.P,J3,3*
G04 #@! TO.N,/AREF*
X71120000Y-139700000D03*
G04 #@! TO.P,J3,2*
G04 #@! TO.N,/3V3*
X68580000Y-139700000D03*
D13*
G04 #@! TO.P,J3,1*
G04 #@! TO.N,/DIGITAL_13*
X66040000Y-139700000D03*
G04 #@! TD*
G04 #@! TO.P,J4,1*
G04 #@! TO.N,/DIGITAL_12*
X66040000Y-119380000D03*
D12*
G04 #@! TO.P,J4,2*
G04 #@! TO.N,/DIGITAL_11*
X68580000Y-119380000D03*
G04 #@! TO.P,J4,3*
G04 #@! TO.N,/DIGITAL_10*
X71120000Y-119380000D03*
G04 #@! TO.P,J4,4*
G04 #@! TO.N,/DIGITAL_9*
X73660000Y-119380000D03*
G04 #@! TO.P,J4,5*
G04 #@! TO.N,/DIGITAL_8*
X76200000Y-119380000D03*
G04 #@! TO.P,J4,6*
G04 #@! TO.N,/DIGITAL_7*
X78740000Y-119380000D03*
G04 #@! TO.P,J4,7*
G04 #@! TO.N,/DIGITAL_6*
X81280000Y-119380000D03*
G04 #@! TO.P,J4,8*
G04 #@! TO.N,/DIGITAL_5*
X83820000Y-119380000D03*
G04 #@! TO.P,J4,9*
G04 #@! TO.N,/DIGITAL_4*
X86360000Y-119380000D03*
G04 #@! TO.P,J4,10*
G04 #@! TO.N,/DIGITAL_3*
X88900000Y-119380000D03*
G04 #@! TO.P,J4,11*
G04 #@! TO.N,/DIGITAL_2*
X91440000Y-119380000D03*
G04 #@! TO.P,J4,12*
G04 #@! TO.N,GND*
X93980000Y-119380000D03*
G04 #@! TO.P,J4,13*
G04 #@! TO.N,/RESET*
X96520000Y-119380000D03*
G04 #@! TO.P,J4,14*
G04 #@! TO.N,/DIGITAL_0*
X99060000Y-119380000D03*
G04 #@! TO.P,J4,15*
G04 #@! TO.N,/DIGITAL_1*
X101600000Y-119380000D03*
G04 #@! TD*
D11*
G04 #@! TO.P,D7,1*
G04 #@! TO.N,Net-(D7-Pad1)*
X116840000Y-119380000D03*
D14*
G04 #@! TO.P,D7,2*
G04 #@! TO.N,Net-(D7-Pad2)*
X116840000Y-127000000D03*
G04 #@! TD*
D15*
G04 #@! TO.P,D8,1*
G04 #@! TO.N,VCC*
X109220000Y-129540000D03*
D16*
G04 #@! TO.P,D8,2*
G04 #@! TO.N,Net-(D8-Pad2)*
X109220000Y-119380000D03*
G04 #@! TD*
D11*
G04 #@! TO.P,A1,1*
G04 #@! TO.N,/DIGITAL_1*
X101600000Y-121920000D03*
D14*
G04 #@! TO.P,A1,17*
G04 #@! TO.N,/3V3*
X68580000Y-137160000D03*
G04 #@! TO.P,A1,2*
G04 #@! TO.N,/DIGITAL_0*
X99060000Y-121920000D03*
G04 #@! TO.P,A1,18*
G04 #@! TO.N,/AREF*
X71120000Y-137160000D03*
G04 #@! TO.P,A1,3*
G04 #@! TO.N,/RESET*
X96520000Y-121920000D03*
G04 #@! TO.P,A1,19*
G04 #@! TO.N,/ANALOG_0*
X73660000Y-137160000D03*
G04 #@! TO.P,A1,4*
G04 #@! TO.N,GND*
X93980000Y-121920000D03*
G04 #@! TO.P,A1,20*
G04 #@! TO.N,/ANALOG_1*
X76200000Y-137160000D03*
G04 #@! TO.P,A1,5*
G04 #@! TO.N,/DIGITAL_2*
X91440000Y-121920000D03*
G04 #@! TO.P,A1,21*
G04 #@! TO.N,/ANALOG_2*
X78740000Y-137160000D03*
G04 #@! TO.P,A1,6*
G04 #@! TO.N,/DIGITAL_3*
X88900000Y-121920000D03*
G04 #@! TO.P,A1,22*
G04 #@! TO.N,/ANALOG_3*
X81280000Y-137160000D03*
G04 #@! TO.P,A1,7*
G04 #@! TO.N,/DIGITAL_4*
X86360000Y-121920000D03*
G04 #@! TO.P,A1,23*
G04 #@! TO.N,/ANALOG_4*
X83820000Y-137160000D03*
G04 #@! TO.P,A1,8*
G04 #@! TO.N,/DIGITAL_5*
X83820000Y-121920000D03*
G04 #@! TO.P,A1,24*
G04 #@! TO.N,/ANALOG_5*
X86360000Y-137160000D03*
G04 #@! TO.P,A1,9*
G04 #@! TO.N,/DIGITAL_6*
X81280000Y-121920000D03*
G04 #@! TO.P,A1,25*
G04 #@! TO.N,/ANALOG_6*
X88900000Y-137160000D03*
G04 #@! TO.P,A1,10*
G04 #@! TO.N,/DIGITAL_7*
X78740000Y-121920000D03*
G04 #@! TO.P,A1,26*
G04 #@! TO.N,/ANALOG_7*
X91440000Y-137160000D03*
G04 #@! TO.P,A1,11*
G04 #@! TO.N,/DIGITAL_8*
X76200000Y-121920000D03*
G04 #@! TO.P,A1,27*
G04 #@! TO.N,VCC*
X93980000Y-137160000D03*
G04 #@! TO.P,A1,12*
G04 #@! TO.N,/DIGITAL_9*
X73660000Y-121920000D03*
G04 #@! TO.P,A1,28*
G04 #@! TO.N,/RESET*
X96520000Y-137160000D03*
G04 #@! TO.P,A1,13*
G04 #@! TO.N,/DIGITAL_10*
X71120000Y-121920000D03*
G04 #@! TO.P,A1,29*
G04 #@! TO.N,GND*
X99060000Y-137160000D03*
G04 #@! TO.P,A1,14*
G04 #@! TO.N,/DIGITAL_11*
X68580000Y-121920000D03*
G04 #@! TO.P,A1,30*
G04 #@! TO.N,+9V*
X101600000Y-137160000D03*
G04 #@! TO.P,A1,15*
G04 #@! TO.N,/DIGITAL_12*
X66040000Y-121920000D03*
G04 #@! TO.P,A1,16*
G04 #@! TO.N,/DIGITAL_13*
X66040000Y-137160000D03*
G04 #@! TD*
D17*
G04 #@! TO.P,SW8,1*
G04 #@! TO.N,/DIGITAL_0*
X129540000Y-147320000D03*
G04 #@! TO.P,SW8,2*
G04 #@! TO.N,Net-(R9-Pad2)*
X129540000Y-144320000D03*
G04 #@! TO.P,SW8,3*
G04 #@! TO.N,Net-(SW8-Pad3)*
X129540000Y-141320000D03*
D18*
G04 #@! TO.P,SW8,MH1*
G04 #@! TO.N,N/C*
X129540000Y-150570000D03*
G04 #@! TO.P,SW8,MH2*
X129540000Y-138070000D03*
G04 #@! TD*
G04 #@! TO.P,SW7,MH2*
G04 #@! TO.N,N/C*
X87990000Y-40000000D03*
G04 #@! TO.P,SW7,MH1*
X75490000Y-40000000D03*
D17*
G04 #@! TO.P,SW7,3*
G04 #@! TO.N,Net-(SW7-Pad3)*
X84740000Y-40000000D03*
G04 #@! TO.P,SW7,2*
G04 #@! TO.N,Net-(BT1-Pad1)*
X81740000Y-40000000D03*
G04 #@! TO.P,SW7,1*
G04 #@! TO.N,Net-(D8-Pad2)*
X78740000Y-40000000D03*
G04 #@! TD*
D19*
G04 #@! TO.P,D1,1*
G04 #@! TO.N,GND*
X129000000Y-50000000D03*
D20*
G04 #@! TO.P,D1,2*
G04 #@! TO.N,Net-(D1-Pad2)*
X131540000Y-50000000D03*
G04 #@! TD*
D21*
G04 #@! TO.P,J1,*
G04 #@! TO.N,*
X106674920Y-164896800D03*
X116677440Y-164896800D03*
D22*
G04 #@! TO.P,J1,5*
G04 #@! TO.N,Net-(D7-Pad2)*
X106680000Y-152400000D03*
G04 #@! TO.P,J1,1*
G04 #@! TO.N,Net-(J1-Pad1)*
X119174260Y-154901900D03*
G04 #@! TO.P,J1,2*
G04 #@! TO.N,Net-(J1-Pad2)*
X111676180Y-154899360D03*
G04 #@! TO.P,J1,4*
G04 #@! TO.N,Net-(J1-Pad4)*
X116672360Y-152400000D03*
G04 #@! TO.P,J1,3*
G04 #@! TO.N,Net-(J1-Pad3)*
X104178100Y-154901900D03*
G04 #@! TD*
D23*
G04 #@! TO.P,SW1,1*
G04 #@! TO.N,/DIGITAL_4*
X134620000Y-93780000D03*
G04 #@! TO.P,SW1,2*
G04 #@! TO.N,GND*
X139620000Y-93780000D03*
G04 #@! TO.P,SW1,1*
G04 #@! TO.N,/DIGITAL_4*
X134620000Y-81280000D03*
G04 #@! TO.P,SW1,2*
G04 #@! TO.N,GND*
X139620000Y-81280000D03*
G04 #@! TD*
G04 #@! TO.P,SW5,2*
G04 #@! TO.N,GND*
X78660000Y-81280000D03*
G04 #@! TO.P,SW5,1*
G04 #@! TO.N,/DIGITAL_8*
X73660000Y-81280000D03*
G04 #@! TO.P,SW5,2*
G04 #@! TO.N,GND*
X78660000Y-93780000D03*
G04 #@! TO.P,SW5,1*
G04 #@! TO.N,/DIGITAL_8*
X73660000Y-93780000D03*
G04 #@! TD*
G04 #@! TO.P,SW2,1*
G04 #@! TO.N,/DIGITAL_5*
X121920000Y-93780000D03*
G04 #@! TO.P,SW2,2*
G04 #@! TO.N,GND*
X126920000Y-93780000D03*
G04 #@! TO.P,SW2,1*
G04 #@! TO.N,/DIGITAL_5*
X121920000Y-81280000D03*
G04 #@! TO.P,SW2,2*
G04 #@! TO.N,GND*
X126920000Y-81280000D03*
G04 #@! TD*
G04 #@! TO.P,SW3,2*
G04 #@! TO.N,GND*
X114220000Y-81280000D03*
G04 #@! TO.P,SW3,1*
G04 #@! TO.N,/DIGITAL_6*
X109220000Y-81280000D03*
G04 #@! TO.P,SW3,2*
G04 #@! TO.N,GND*
X114220000Y-93780000D03*
G04 #@! TO.P,SW3,1*
G04 #@! TO.N,/DIGITAL_6*
X109220000Y-93780000D03*
G04 #@! TD*
G04 #@! TO.P,SW6,1*
G04 #@! TO.N,/DIGITAL_10*
X60960000Y-93780000D03*
G04 #@! TO.P,SW6,2*
G04 #@! TO.N,GND*
X65960000Y-93780000D03*
G04 #@! TO.P,SW6,1*
G04 #@! TO.N,/DIGITAL_10*
X60960000Y-81280000D03*
G04 #@! TO.P,SW6,2*
G04 #@! TO.N,GND*
X65960000Y-81280000D03*
G04 #@! TD*
G04 #@! TO.P,SW4,2*
G04 #@! TO.N,GND*
X91360000Y-81280000D03*
G04 #@! TO.P,SW4,1*
G04 #@! TO.N,/DIGITAL_7*
X86360000Y-81280000D03*
G04 #@! TO.P,SW4,2*
G04 #@! TO.N,GND*
X91360000Y-93780000D03*
G04 #@! TO.P,SW4,1*
G04 #@! TO.N,/DIGITAL_7*
X86360000Y-93780000D03*
G04 #@! TD*
D20*
G04 #@! TO.P,D3,2*
G04 #@! TO.N,Net-(D3-Pad2)*
X111540000Y-50000000D03*
D19*
G04 #@! TO.P,D3,1*
G04 #@! TO.N,GND*
X109000000Y-50000000D03*
G04 #@! TD*
G04 #@! TO.P,D6,1*
G04 #@! TO.N,GND*
X69000000Y-50000000D03*
D20*
G04 #@! TO.P,D6,2*
G04 #@! TO.N,Net-(D6-Pad2)*
X71540000Y-50000000D03*
G04 #@! TD*
G04 #@! TO.P,D5,2*
G04 #@! TO.N,Net-(D5-Pad2)*
X81540000Y-50000000D03*
D19*
G04 #@! TO.P,D5,1*
G04 #@! TO.N,GND*
X79000000Y-50000000D03*
G04 #@! TD*
G04 #@! TO.P,D2,1*
G04 #@! TO.N,GND*
X119000000Y-50000000D03*
D20*
G04 #@! TO.P,D2,2*
G04 #@! TO.N,Net-(D2-Pad2)*
X121540000Y-50000000D03*
G04 #@! TD*
G04 #@! TO.P,D4,2*
G04 #@! TO.N,Net-(D4-Pad2)*
X91540000Y-50000000D03*
D19*
G04 #@! TO.P,D4,1*
G04 #@! TO.N,GND*
X89000000Y-50000000D03*
G04 #@! TD*
D14*
G04 #@! TO.P,R5,2*
G04 #@! TO.N,/DIGITAL_12*
X86360000Y-114300000D03*
D10*
G04 #@! TO.P,R5,1*
G04 #@! TO.N,Net-(D5-Pad2)*
X86360000Y-104140000D03*
G04 #@! TD*
D14*
G04 #@! TO.P,R11,2*
G04 #@! TO.N,VCC*
X88900000Y-144780000D03*
D10*
G04 #@! TO.P,R11,1*
G04 #@! TO.N,Net-(J2-Pad4)*
X78740000Y-144780000D03*
G04 #@! TD*
G04 #@! TO.P,R10,1*
G04 #@! TO.N,Net-(J2-Pad5)*
X78740000Y-147320000D03*
D14*
G04 #@! TO.P,R10,2*
G04 #@! TO.N,/DIGITAL_1*
X88900000Y-147320000D03*
G04 #@! TD*
G04 #@! TO.P,R9,2*
G04 #@! TO.N,Net-(R9-Pad2)*
X134620000Y-129540000D03*
D10*
G04 #@! TO.P,R9,1*
G04 #@! TO.N,VCC*
X134620000Y-119380000D03*
G04 #@! TD*
G04 #@! TO.P,R8,1*
G04 #@! TO.N,GND*
X137160000Y-129540000D03*
D14*
G04 #@! TO.P,R8,2*
G04 #@! TO.N,Net-(R8-Pad2)*
X137160000Y-119380000D03*
G04 #@! TD*
G04 #@! TO.P,R6,2*
G04 #@! TO.N,/DIGITAL_13*
X83820000Y-114300000D03*
D10*
G04 #@! TO.P,R6,1*
G04 #@! TO.N,Net-(D6-Pad2)*
X83820000Y-104140000D03*
G04 #@! TD*
G04 #@! TO.P,R3,1*
G04 #@! TO.N,Net-(D3-Pad2)*
X101600000Y-104140000D03*
D14*
G04 #@! TO.P,R3,2*
G04 #@! TO.N,/DIGITAL_3*
X101600000Y-114300000D03*
G04 #@! TD*
G04 #@! TO.P,R2,2*
G04 #@! TO.N,/DIGITAL_2*
X104140000Y-114300000D03*
D10*
G04 #@! TO.P,R2,1*
G04 #@! TO.N,Net-(D2-Pad2)*
X104140000Y-104140000D03*
G04 #@! TD*
G04 #@! TO.P,R1,1*
G04 #@! TO.N,Net-(D1-Pad2)*
X106680000Y-104140000D03*
D14*
G04 #@! TO.P,R1,2*
G04 #@! TO.N,VCC*
X106680000Y-114300000D03*
G04 #@! TD*
D10*
G04 #@! TO.P,R4,1*
G04 #@! TO.N,Net-(D4-Pad2)*
X88900000Y-104140000D03*
D14*
G04 #@! TO.P,R4,2*
G04 #@! TO.N,/DIGITAL_11*
X88900000Y-114300000D03*
G04 #@! TD*
G04 #@! TO.P,R7,2*
G04 #@! TO.N,Net-(J1-Pad4)*
X116840000Y-147320000D03*
D10*
G04 #@! TO.P,R7,1*
G04 #@! TO.N,Net-(D7-Pad1)*
X106680000Y-147320000D03*
G04 #@! TD*
D21*
G04 #@! TO.P,J2,*
G04 #@! TO.N,*
X83814920Y-164477700D03*
X93817440Y-164477700D03*
D22*
G04 #@! TO.P,J2,5*
G04 #@! TO.N,Net-(J2-Pad5)*
X83820000Y-151980900D03*
G04 #@! TO.P,J2,1*
G04 #@! TO.N,Net-(J2-Pad1)*
X96314260Y-154482800D03*
G04 #@! TO.P,J2,2*
G04 #@! TO.N,GND*
X88816180Y-154480260D03*
G04 #@! TO.P,J2,4*
G04 #@! TO.N,Net-(J2-Pad4)*
X93812360Y-151980900D03*
G04 #@! TO.P,J2,3*
G04 #@! TO.N,Net-(J2-Pad3)*
X81318100Y-154482800D03*
G04 #@! TD*
D24*
G04 #@! TO.P,J9,S*
G04 #@! TO.N,GND*
X100000000Y-35404000D03*
D25*
G04 #@! TO.P,J9,TN*
G04 #@! TO.N,Net-(J9-PadTN)*
X102500000Y-40410000D03*
G04 #@! TO.P,J9,RN*
G04 #@! TO.N,Net-(J9-PadRN)*
X97500000Y-40410000D03*
G04 #@! TO.P,J9,T*
G04 #@! TO.N,Net-(J9-PadR)*
X105000000Y-40410000D03*
G04 #@! TO.P,J9,R*
X95000000Y-40410000D03*
G04 #@! TD*
D20*
G04 #@! TO.P,RV5,3*
G04 #@! TO.N,GND*
X120000000Y-44000000D03*
G04 #@! TO.P,RV5,2*
G04 #@! TO.N,Net-(J9-PadR)*
X117500000Y-44000000D03*
G04 #@! TO.P,RV5,1*
G04 #@! TO.N,/DIGITAL_9*
X115000000Y-44000000D03*
D26*
G04 #@! TO.P,RV5,*
G04 #@! TO.N,*
X121900000Y-37015000D03*
X113100000Y-37000000D03*
G04 #@! TD*
D20*
G04 #@! TO.P,RV2,3*
G04 #@! TO.N,GND*
X121840000Y-68580000D03*
G04 #@! TO.P,RV2,2*
G04 #@! TO.N,/ANALOG_1*
X119340000Y-68580000D03*
G04 #@! TO.P,RV2,1*
G04 #@! TO.N,VCC*
X116840000Y-68580000D03*
D26*
G04 #@! TO.P,RV2,*
G04 #@! TO.N,*
X123740000Y-61595000D03*
X114940000Y-61580000D03*
G04 #@! TD*
D20*
G04 #@! TO.P,RV1,3*
G04 #@! TO.N,GND*
X137080000Y-68580000D03*
G04 #@! TO.P,RV1,2*
G04 #@! TO.N,/ANALOG_0*
X134580000Y-68580000D03*
G04 #@! TO.P,RV1,1*
G04 #@! TO.N,VCC*
X132080000Y-68580000D03*
D26*
G04 #@! TO.P,RV1,*
G04 #@! TO.N,*
X138980000Y-61595000D03*
X130180000Y-61580000D03*
G04 #@! TD*
D20*
G04 #@! TO.P,RV4,3*
G04 #@! TO.N,GND*
X68500000Y-68580000D03*
G04 #@! TO.P,RV4,2*
G04 #@! TO.N,/ANALOG_3*
X66000000Y-68580000D03*
G04 #@! TO.P,RV4,1*
G04 #@! TO.N,VCC*
X63500000Y-68580000D03*
D26*
G04 #@! TO.P,RV4,*
G04 #@! TO.N,*
X70400000Y-61595000D03*
X61600000Y-61580000D03*
G04 #@! TD*
D20*
G04 #@! TO.P,RV3,3*
G04 #@! TO.N,GND*
X83740000Y-68580000D03*
G04 #@! TO.P,RV3,2*
G04 #@! TO.N,/ANALOG_2*
X81240000Y-68580000D03*
G04 #@! TO.P,RV3,1*
G04 #@! TO.N,VCC*
X78740000Y-68580000D03*
D26*
G04 #@! TO.P,RV3,*
G04 #@! TO.N,*
X85640000Y-61595000D03*
X76840000Y-61580000D03*
G04 #@! TD*
D27*
G04 #@! TO.P,BT1,1*
G04 #@! TO.N,Net-(BT1-Pad1)*
X71120000Y-106680000D03*
D28*
G04 #@! TO.P,BT1,2*
G04 #@! TO.N,GND*
X76200000Y-106680000D03*
G04 #@! TD*
D11*
G04 #@! TO.P,U1,1*
G04 #@! TO.N,Net-(U1-Pad1)*
X121920000Y-119380000D03*
D14*
G04 #@! TO.P,U1,5*
G04 #@! TO.N,GND*
X129540000Y-127000000D03*
G04 #@! TO.P,U1,2*
G04 #@! TO.N,Net-(D7-Pad1)*
X121920000Y-121920000D03*
G04 #@! TO.P,U1,6*
G04 #@! TO.N,Net-(R9-Pad2)*
X129540000Y-124460000D03*
G04 #@! TO.P,U1,3*
G04 #@! TO.N,Net-(D7-Pad2)*
X121920000Y-124460000D03*
G04 #@! TO.P,U1,7*
G04 #@! TO.N,Net-(R8-Pad2)*
X129540000Y-121920000D03*
G04 #@! TO.P,U1,4*
G04 #@! TO.N,Net-(U1-Pad4)*
X121920000Y-127000000D03*
G04 #@! TO.P,U1,8*
G04 #@! TO.N,VCC*
X129540000Y-119380000D03*
G04 #@! TD*
D29*
G04 #@! TO.N,/DIGITAL_5*
X91440000Y-110490000D03*
G04 #@! TO.N,/DIGITAL_6*
X93980000Y-102870000D03*
X85090000Y-124460000D03*
G04 #@! TO.N,/DIGITAL_2*
X100330000Y-118110000D03*
G04 #@! TO.N,/DIGITAL_3*
X99060000Y-116840000D03*
G04 #@! TO.N,/DIGITAL_11*
X74930000Y-116840000D03*
G04 #@! TO.N,/DIGITAL_7*
X78740000Y-102870000D03*
G04 #@! TO.N,VCC*
X111000000Y-104000000D03*
X81000000Y-79000000D03*
G04 #@! TO.N,/RESET*
X95000000Y-127000000D03*
G04 #@! TD*
D30*
G04 #@! TO.N,/ANALOG_3*
X81280000Y-137160000D02*
X81280000Y-139700000D01*
X77564999Y-140264001D02*
X78270998Y-140970000D01*
X71120000Y-73700000D02*
X71120000Y-102594878D01*
X66000000Y-68580000D02*
X71120000Y-73700000D01*
X71120000Y-102594878D02*
X74124939Y-105599817D01*
X74124939Y-105599817D02*
X74124939Y-113025937D01*
X74124939Y-113025937D02*
X77564999Y-116465997D01*
X77564999Y-116465997D02*
X77564999Y-140264001D01*
X80010000Y-140970000D02*
X81280000Y-139700000D01*
X78270998Y-140970000D02*
X80010000Y-140970000D01*
G04 #@! TO.N,/ANALOG_1*
X76200000Y-137160000D02*
X76200000Y-139700000D01*
X76200000Y-140902081D02*
X76200000Y-139700000D01*
X76200000Y-151695229D02*
X76200000Y-140902081D01*
X80981352Y-156476581D02*
X76200000Y-151695229D01*
X126817641Y-156476581D02*
X80981352Y-156476581D01*
X141925001Y-141369221D02*
X126817641Y-156476581D01*
X141925001Y-81107601D02*
X141925001Y-141369221D01*
X130622401Y-69805001D02*
X141925001Y-81107601D01*
X120565001Y-69805001D02*
X130622401Y-69805001D01*
X119340000Y-68580000D02*
X120565001Y-69805001D01*
G04 #@! TO.N,/ANALOG_2*
X78740000Y-137160000D02*
X78740000Y-139700000D01*
X79539999Y-136360001D02*
X78740000Y-137160000D01*
X82455001Y-133444999D02*
X79539999Y-136360001D01*
X82455001Y-69795001D02*
X82455001Y-133444999D01*
X81240000Y-68580000D02*
X82455001Y-69795001D01*
G04 #@! TO.N,Net-(R9-Pad2)*
X134620000Y-139240000D02*
X134620000Y-129540000D01*
X129540000Y-144320000D02*
X134620000Y-139240000D01*
X129540000Y-124460000D02*
X134620000Y-129540000D01*
G04 #@! TO.N,/ANALOG_0*
X73660000Y-137160000D02*
X73660000Y-139700000D01*
X135479999Y-69479999D02*
X134580000Y-68580000D01*
X138654003Y-69805001D02*
X135805001Y-69805001D01*
X73660000Y-139700000D02*
X73660000Y-149791639D01*
X73660000Y-149791639D02*
X80794951Y-156926590D01*
X80794951Y-156926590D02*
X127004041Y-156926591D01*
X127004041Y-156926591D02*
X142375010Y-141555622D01*
X135805001Y-69805001D02*
X135479999Y-69479999D01*
X142375010Y-141555622D02*
X142375011Y-73526009D01*
X142375011Y-73526009D02*
X138654003Y-69805001D01*
D31*
G04 #@! TO.N,Net-(BT1-Pad1)*
X71120000Y-106680000D02*
X68744940Y-106680000D01*
X68744940Y-106680000D02*
X60616940Y-98552000D01*
X60616940Y-98552000D02*
X59087499Y-97022559D01*
X59087499Y-57189999D02*
X59436000Y-56841498D01*
X57887499Y-95822559D02*
X57887499Y-58389999D01*
X60616940Y-98552000D02*
X57887499Y-95822559D01*
X57887499Y-58389999D02*
X59436000Y-56841498D01*
X81040001Y-40699999D02*
X81740000Y-40000000D01*
X73152501Y-48587499D02*
X81040001Y-40699999D01*
X67689999Y-48587499D02*
X73152501Y-48587499D01*
X59436000Y-56841498D02*
X67689999Y-48587499D01*
D30*
G04 #@! TO.N,Net-(D5-Pad2)*
X82439999Y-50899999D02*
X81540000Y-50000000D01*
X87965001Y-56425001D02*
X82439999Y-50899999D01*
X87965001Y-102534999D02*
X87965001Y-56425001D01*
X86360000Y-104140000D02*
X87965001Y-102534999D01*
G04 #@! TO.N,/DIGITAL_5*
X83820000Y-119380000D02*
X83820000Y-121920000D01*
X121920000Y-93780000D02*
X121920000Y-81280000D01*
X83820000Y-123051370D02*
X83820000Y-121920000D01*
X83820000Y-124263002D02*
X83820000Y-123051370D01*
X84741999Y-125185001D02*
X83820000Y-124263002D01*
X87535001Y-123088001D02*
X85438001Y-125185001D01*
X87535001Y-117330001D02*
X87535001Y-123088001D01*
X85438001Y-125185001D02*
X84741999Y-125185001D01*
X91440000Y-113425002D02*
X87535001Y-117330001D01*
X91440000Y-110490000D02*
X91440000Y-113425002D01*
G04 #@! TO.N,Net-(D6-Pad2)*
X71540000Y-51272792D02*
X71540000Y-50000000D01*
X84965001Y-64697793D02*
X71540000Y-51272792D01*
X84965001Y-69168001D02*
X84965001Y-64697793D01*
X82905011Y-71227991D02*
X84965001Y-69168001D01*
X82905011Y-103225011D02*
X82905011Y-71227991D01*
X83820000Y-104140000D02*
X82905011Y-103225011D01*
G04 #@! TO.N,/DIGITAL_6*
X81280000Y-119380000D02*
X81280000Y-121920000D01*
X109220000Y-93780000D02*
X109220000Y-81280000D01*
X93980000Y-102870000D02*
X91440000Y-105410000D01*
X91440000Y-105410000D02*
X85090000Y-111760000D01*
X85090000Y-111760000D02*
X85090000Y-124460000D01*
G04 #@! TO.N,/DIGITAL_9*
X73660000Y-119380000D02*
X73660000Y-121920000D01*
G04 #@! TO.N,/DIGITAL_2*
X91440000Y-119380000D02*
X91440000Y-121920000D01*
X92710000Y-118110000D02*
X91440000Y-119380000D01*
X100330000Y-118110000D02*
X92710000Y-118110000D01*
G04 #@! TO.N,/DIGITAL_3*
X88900000Y-119380000D02*
X88900000Y-121920000D01*
X91440000Y-116840000D02*
X88900000Y-119380000D01*
X99060000Y-116840000D02*
X91440000Y-116840000D01*
G04 #@! TO.N,/DIGITAL_4*
X86360000Y-119380000D02*
X86360000Y-121920000D01*
X134620000Y-93780000D02*
X134620000Y-81280000D01*
G04 #@! TO.N,Net-(D4-Pad2)*
X92439999Y-50899999D02*
X91540000Y-50000000D01*
X92935010Y-51395010D02*
X92439999Y-50899999D01*
X92935010Y-100104990D02*
X92935010Y-51395010D01*
X88900000Y-104140000D02*
X92935010Y-100104990D01*
G04 #@! TO.N,/DIGITAL_0*
X99060000Y-119380000D02*
X99060000Y-121920000D01*
G04 #@! TO.N,/DIGITAL_10*
X71120000Y-119380000D02*
X71120000Y-121920000D01*
X60960000Y-93780000D02*
X60960000Y-81280000D01*
G04 #@! TO.N,/DIGITAL_1*
X101600000Y-119380000D02*
X101600000Y-121920000D01*
X101600000Y-122970000D02*
X101600000Y-121920000D01*
X92804999Y-131765001D02*
X101600000Y-122970000D01*
X92804999Y-143415001D02*
X92804999Y-131765001D01*
X88900000Y-147320000D02*
X92804999Y-143415001D01*
G04 #@! TO.N,/DIGITAL_11*
X68580000Y-119380000D02*
X68580000Y-121920000D01*
X71120000Y-116840000D02*
X68580000Y-119380000D01*
X74930000Y-116840000D02*
X71120000Y-116840000D01*
G04 #@! TO.N,/DIGITAL_12*
X66040000Y-119380000D02*
X66040000Y-121920000D01*
G04 #@! TO.N,/DIGITAL_13*
X66040000Y-137160000D02*
X66040000Y-139700000D01*
G04 #@! TO.N,/DIGITAL_7*
X78740000Y-119380000D02*
X78740000Y-121920000D01*
X86360000Y-93780000D02*
X86360000Y-81280000D01*
X78740000Y-102870000D02*
X78740000Y-119380000D01*
G04 #@! TO.N,/ANALOG_4*
X83820000Y-137160000D02*
X83820000Y-139700000D01*
G04 #@! TO.N,/DIGITAL_8*
X76200000Y-119380000D02*
X76200000Y-121920000D01*
X73660000Y-93780000D02*
X73660000Y-81280000D01*
G04 #@! TO.N,/ANALOG_5*
X86360000Y-137160000D02*
X86360000Y-139700000D01*
G04 #@! TO.N,Net-(J2-Pad4)*
X92562681Y-150731221D02*
X93812360Y-151980900D01*
X90276461Y-148445001D02*
X92562681Y-150731221D01*
X82405001Y-148445001D02*
X90276461Y-148445001D01*
X78740000Y-144780000D02*
X82405001Y-148445001D01*
G04 #@! TO.N,Net-(D7-Pad2)*
X119380000Y-127000000D02*
X121920000Y-124460000D01*
X116840000Y-127000000D02*
X119380000Y-127000000D01*
X116840000Y-142240000D02*
X116840000Y-127000000D01*
X106680000Y-152400000D02*
X116840000Y-142240000D01*
G04 #@! TO.N,Net-(J9-PadR)*
X113910000Y-40410000D02*
X105000000Y-40410000D01*
X117500000Y-44000000D02*
X113910000Y-40410000D01*
X95000000Y-39535000D02*
X95000000Y-40410000D01*
X96200010Y-38334990D02*
X95000000Y-39535000D01*
X104924990Y-38334990D02*
X96200010Y-38334990D01*
X105000000Y-38410000D02*
X104924990Y-38334990D01*
X105000000Y-40410000D02*
X105000000Y-38410000D01*
D31*
G04 #@! TO.N,VCC*
X93980000Y-139700000D02*
X93980000Y-144780000D01*
X93980000Y-139700000D02*
X101600000Y-147320000D01*
X93980000Y-139700000D02*
X93980000Y-137160000D01*
X95292501Y-115612501D02*
X93980000Y-114300000D01*
X99849003Y-115612501D02*
X95292501Y-115612501D01*
X106680000Y-122443498D02*
X99849003Y-115612501D01*
X106680000Y-124460000D02*
X106680000Y-122443498D01*
X93980000Y-114300000D02*
X93980000Y-106680000D01*
X134620000Y-119380000D02*
X129540000Y-119380000D01*
X128740001Y-118580001D02*
X129540000Y-119380000D01*
X128227499Y-118067499D02*
X128740001Y-118580001D01*
X115629999Y-118067499D02*
X128227499Y-118067499D01*
X109220000Y-124477498D02*
X115629999Y-118067499D01*
X109220000Y-129540000D02*
X109220000Y-124477498D01*
X109220000Y-129540000D02*
X101600000Y-129540000D01*
X93980000Y-137160000D02*
X101600000Y-129540000D01*
X101600000Y-129540000D02*
X106680000Y-124460000D01*
X106680000Y-114300000D02*
X106680000Y-123190000D01*
X106680000Y-123190000D02*
X106680000Y-118110000D01*
X64399999Y-67680001D02*
X63500000Y-68580000D01*
X64912501Y-67167499D02*
X64399999Y-67680001D01*
X77327499Y-67167499D02*
X64912501Y-67167499D01*
X78740000Y-68580000D02*
X77327499Y-67167499D01*
X131180001Y-67680001D02*
X132080000Y-68580000D01*
X130667499Y-67167499D02*
X131180001Y-67680001D01*
X118252501Y-67167499D02*
X130667499Y-67167499D01*
X116840000Y-68580000D02*
X118252501Y-67167499D01*
X116840000Y-98160000D02*
X116840000Y-68580000D01*
X111000000Y-104000000D02*
X116840000Y-98160000D01*
X78740000Y-76740000D02*
X78740000Y-68580000D01*
X81000000Y-79000000D02*
X78740000Y-76740000D01*
D30*
G04 #@! TO.N,Net-(J2-Pad5)*
X83400900Y-151980900D02*
X83820000Y-151980900D01*
X78740000Y-147320000D02*
X83400900Y-151980900D01*
G04 #@! TO.N,Net-(R8-Pad2)*
X134620000Y-121920000D02*
X137160000Y-119380000D01*
X129540000Y-121920000D02*
X134620000Y-121920000D01*
G04 #@! TO.N,Net-(J1-Pad4)*
X116672360Y-147487640D02*
X116840000Y-147320000D01*
X116672360Y-152400000D02*
X116672360Y-147487640D01*
G04 #@! TO.N,Net-(D7-Pad1)*
X119380000Y-119380000D02*
X121920000Y-121920000D01*
X116840000Y-119380000D02*
X119380000Y-119380000D01*
X120254998Y-121920000D02*
X113030000Y-129144998D01*
X121920000Y-121920000D02*
X120254998Y-121920000D01*
X113030000Y-140970000D02*
X106680000Y-147320000D01*
X113030000Y-129144998D02*
X113030000Y-140970000D01*
G04 #@! TO.N,/3V3*
X68580000Y-137160000D02*
X68580000Y-139700000D01*
G04 #@! TO.N,/AREF*
X71120000Y-137160000D02*
X71120000Y-139700000D01*
G04 #@! TO.N,/RESET*
X96520000Y-119380000D02*
X96520000Y-121920000D01*
X96520000Y-137160000D02*
X96520000Y-139700000D01*
X96520000Y-121920000D02*
X96520000Y-125480000D01*
X96520000Y-125480000D02*
X95000000Y-127000000D01*
G04 #@! TO.N,/ANALOG_6*
X88900000Y-137160000D02*
X88900000Y-139700000D01*
G04 #@! TO.N,/ANALOG_7*
X91440000Y-137160000D02*
X91440000Y-139700000D01*
G04 #@! TO.N,+9V*
X101600000Y-137160000D02*
X101600000Y-139700000D01*
D31*
G04 #@! TO.N,Net-(D8-Pad2)*
X93612490Y-41900768D02*
X89372721Y-37660999D01*
X93612490Y-80915055D02*
X93612490Y-41900768D01*
X107992501Y-95295066D02*
X93612490Y-80915055D01*
X107992501Y-118152501D02*
X107992501Y-95295066D01*
X109220000Y-119380000D02*
X107992501Y-118152501D01*
X81079001Y-37660999D02*
X78740000Y-40000000D01*
X89372721Y-37660999D02*
X81079001Y-37660999D01*
G04 #@! TD*
D32*
G04 #@! TO.N,GND*
G36*
X140754747Y-30805281D02*
X141485643Y-31005231D01*
X142169575Y-31331450D01*
X142784928Y-31773626D01*
X143312259Y-32317789D01*
X143734886Y-32946726D01*
X144039463Y-33640570D01*
X144217715Y-34383039D01*
X144265000Y-35026949D01*
X144265001Y-139986810D01*
X144189634Y-142092345D01*
X143965335Y-144173970D01*
X143592779Y-146234234D01*
X143073870Y-148262597D01*
X142411274Y-150248645D01*
X141608366Y-152182261D01*
X140669274Y-154053507D01*
X139598785Y-155852836D01*
X138402401Y-157571009D01*
X137086217Y-159199262D01*
X135656998Y-160729233D01*
X134122043Y-162153108D01*
X132489220Y-163463585D01*
X130766874Y-164653973D01*
X128963821Y-165718172D01*
X127089308Y-166650728D01*
X125152901Y-167446881D01*
X123164547Y-168102542D01*
X121134394Y-168614365D01*
X119072830Y-168979730D01*
X116989798Y-169196827D01*
X114987502Y-169265000D01*
X85013163Y-169265000D01*
X82907655Y-169189634D01*
X80826030Y-168965335D01*
X78765766Y-168592779D01*
X76737403Y-168073870D01*
X74751355Y-167411274D01*
X72817739Y-166608366D01*
X70946493Y-165669274D01*
X69147164Y-164598785D01*
X68434882Y-164102814D01*
X81930240Y-164102814D01*
X81930240Y-164852586D01*
X82217165Y-165545285D01*
X82747335Y-166075455D01*
X83440034Y-166362380D01*
X84189806Y-166362380D01*
X84882505Y-166075455D01*
X85412675Y-165545285D01*
X85699600Y-164852586D01*
X85699600Y-164102814D01*
X91932760Y-164102814D01*
X91932760Y-164852586D01*
X92219685Y-165545285D01*
X92749855Y-166075455D01*
X93442554Y-166362380D01*
X94192326Y-166362380D01*
X94885025Y-166075455D01*
X95415195Y-165545285D01*
X95702120Y-164852586D01*
X95702120Y-164521914D01*
X104790240Y-164521914D01*
X104790240Y-165271686D01*
X105077165Y-165964385D01*
X105607335Y-166494555D01*
X106300034Y-166781480D01*
X107049806Y-166781480D01*
X107742505Y-166494555D01*
X108272675Y-165964385D01*
X108559600Y-165271686D01*
X108559600Y-164521914D01*
X114792760Y-164521914D01*
X114792760Y-165271686D01*
X115079685Y-165964385D01*
X115609855Y-166494555D01*
X116302554Y-166781480D01*
X117052326Y-166781480D01*
X117745025Y-166494555D01*
X118275195Y-165964385D01*
X118562120Y-165271686D01*
X118562120Y-164521914D01*
X118275195Y-163829215D01*
X117745025Y-163299045D01*
X117052326Y-163012120D01*
X116302554Y-163012120D01*
X115609855Y-163299045D01*
X115079685Y-163829215D01*
X114792760Y-164521914D01*
X108559600Y-164521914D01*
X108272675Y-163829215D01*
X107742505Y-163299045D01*
X107049806Y-163012120D01*
X106300034Y-163012120D01*
X105607335Y-163299045D01*
X105077165Y-163829215D01*
X104790240Y-164521914D01*
X95702120Y-164521914D01*
X95702120Y-164102814D01*
X95415195Y-163410115D01*
X94885025Y-162879945D01*
X94192326Y-162593020D01*
X93442554Y-162593020D01*
X92749855Y-162879945D01*
X92219685Y-163410115D01*
X91932760Y-164102814D01*
X85699600Y-164102814D01*
X85412675Y-163410115D01*
X84882505Y-162879945D01*
X84189806Y-162593020D01*
X83440034Y-162593020D01*
X82747335Y-162879945D01*
X82217165Y-163410115D01*
X81930240Y-164102814D01*
X68434882Y-164102814D01*
X67428991Y-163402401D01*
X65800738Y-162086217D01*
X64270767Y-160656998D01*
X63248918Y-159555431D01*
X67765000Y-159555431D01*
X67765000Y-160444569D01*
X68105259Y-161266026D01*
X68733974Y-161894741D01*
X69555431Y-162235000D01*
X70444569Y-162235000D01*
X71266026Y-161894741D01*
X71894741Y-161266026D01*
X72235000Y-160444569D01*
X72235000Y-159555431D01*
X127765000Y-159555431D01*
X127765000Y-160444569D01*
X128105259Y-161266026D01*
X128733974Y-161894741D01*
X129555431Y-162235000D01*
X130444569Y-162235000D01*
X131266026Y-161894741D01*
X131894741Y-161266026D01*
X132235000Y-160444569D01*
X132235000Y-159555431D01*
X131894741Y-158733974D01*
X131266026Y-158105259D01*
X130444569Y-157765000D01*
X129555431Y-157765000D01*
X128733974Y-158105259D01*
X128105259Y-158733974D01*
X127765000Y-159555431D01*
X72235000Y-159555431D01*
X71894741Y-158733974D01*
X71266026Y-158105259D01*
X70444569Y-157765000D01*
X69555431Y-157765000D01*
X68733974Y-158105259D01*
X68105259Y-158733974D01*
X67765000Y-159555431D01*
X63248918Y-159555431D01*
X62846892Y-159122043D01*
X61536415Y-157489220D01*
X60346027Y-155766874D01*
X59281828Y-153963821D01*
X58349272Y-152089308D01*
X57553119Y-150152901D01*
X56897458Y-148164547D01*
X56385635Y-146134394D01*
X56020270Y-144072830D01*
X55803173Y-141989798D01*
X55735000Y-139987502D01*
X55735000Y-104555431D01*
X57765000Y-104555431D01*
X57765000Y-105444569D01*
X58105259Y-106266026D01*
X58733974Y-106894741D01*
X59555431Y-107235000D01*
X60444569Y-107235000D01*
X61266026Y-106894741D01*
X61894741Y-106266026D01*
X62235000Y-105444569D01*
X62235000Y-104555431D01*
X61894741Y-103733974D01*
X61266026Y-103105259D01*
X60444569Y-102765000D01*
X59555431Y-102765000D01*
X58733974Y-103105259D01*
X58105259Y-103733974D01*
X57765000Y-104555431D01*
X55735000Y-104555431D01*
X55735000Y-58389999D01*
X56921437Y-58389999D01*
X56940000Y-58483321D01*
X56939999Y-95729242D01*
X56921437Y-95822559D01*
X56939999Y-95915876D01*
X56994974Y-96192254D01*
X57204390Y-96505668D01*
X57283505Y-96558531D01*
X59646667Y-98921695D01*
X60012941Y-99287969D01*
X60012947Y-99287973D01*
X68008970Y-107283997D01*
X68061831Y-107363109D01*
X68256020Y-107492862D01*
X68375244Y-107572525D01*
X68722500Y-107641598D01*
X68722500Y-108430060D01*
X68771783Y-108677825D01*
X68912131Y-108887869D01*
X69122175Y-109028217D01*
X69369940Y-109077500D01*
X72870060Y-109077500D01*
X73117825Y-109028217D01*
X73327869Y-108887869D01*
X73364939Y-108832390D01*
X73364940Y-112951085D01*
X73350051Y-113025937D01*
X73409036Y-113322474D01*
X73527558Y-113499854D01*
X73577011Y-113573866D01*
X73640467Y-113616266D01*
X76804999Y-116780799D01*
X76804999Y-117998254D01*
X76779418Y-117981161D01*
X76346256Y-117895000D01*
X76053744Y-117895000D01*
X75620582Y-117981161D01*
X75129375Y-118309375D01*
X74930000Y-118607761D01*
X74730625Y-118309375D01*
X74239418Y-117981161D01*
X73806256Y-117895000D01*
X73513744Y-117895000D01*
X73080582Y-117981161D01*
X72589375Y-118309375D01*
X72390000Y-118607761D01*
X72190625Y-118309375D01*
X71699418Y-117981161D01*
X71266256Y-117895000D01*
X71139803Y-117895000D01*
X71434803Y-117600000D01*
X74226289Y-117600000D01*
X74343720Y-117717431D01*
X74724126Y-117875000D01*
X75135874Y-117875000D01*
X75516280Y-117717431D01*
X75807431Y-117426280D01*
X75965000Y-117045874D01*
X75965000Y-116634126D01*
X75807431Y-116253720D01*
X75516280Y-115962569D01*
X75135874Y-115805000D01*
X74724126Y-115805000D01*
X74343720Y-115962569D01*
X74226289Y-116080000D01*
X71194846Y-116080000D01*
X71119999Y-116065112D01*
X71045152Y-116080000D01*
X71045148Y-116080000D01*
X70823463Y-116124096D01*
X70823461Y-116124097D01*
X70823462Y-116124097D01*
X70635526Y-116249671D01*
X70635524Y-116249673D01*
X70572071Y-116292071D01*
X70529673Y-116355524D01*
X68946408Y-117938791D01*
X68726256Y-117895000D01*
X68433744Y-117895000D01*
X68000582Y-117981161D01*
X67509375Y-118309375D01*
X67497184Y-118327619D01*
X67488157Y-118282235D01*
X67347809Y-118072191D01*
X67137765Y-117931843D01*
X66890000Y-117882560D01*
X65190000Y-117882560D01*
X64942235Y-117931843D01*
X64732191Y-118072191D01*
X64591843Y-118282235D01*
X64542560Y-118530000D01*
X64542560Y-120230000D01*
X64591843Y-120477765D01*
X64732191Y-120687809D01*
X64942235Y-120828157D01*
X65056972Y-120850979D01*
X65005423Y-120885423D01*
X64830531Y-121147168D01*
X64792833Y-121056157D01*
X64363843Y-120627167D01*
X63803341Y-120395000D01*
X63196659Y-120395000D01*
X62636157Y-120627167D01*
X62207167Y-121056157D01*
X61975000Y-121616659D01*
X61975000Y-122223341D01*
X62207167Y-122783843D01*
X62636157Y-123212833D01*
X63196659Y-123445000D01*
X63803341Y-123445000D01*
X64363843Y-123212833D01*
X64792833Y-122783843D01*
X64830531Y-122692832D01*
X65005423Y-122954577D01*
X65480091Y-123271740D01*
X65898667Y-123355000D01*
X66181333Y-123355000D01*
X66599909Y-123271740D01*
X67074577Y-122954577D01*
X67310000Y-122602242D01*
X67545423Y-122954577D01*
X68020091Y-123271740D01*
X68438667Y-123355000D01*
X68721333Y-123355000D01*
X69139909Y-123271740D01*
X69614577Y-122954577D01*
X69850000Y-122602242D01*
X70085423Y-122954577D01*
X70560091Y-123271740D01*
X70978667Y-123355000D01*
X71261333Y-123355000D01*
X71679909Y-123271740D01*
X72154577Y-122954577D01*
X72390000Y-122602242D01*
X72625423Y-122954577D01*
X73100091Y-123271740D01*
X73518667Y-123355000D01*
X73801333Y-123355000D01*
X74219909Y-123271740D01*
X74694577Y-122954577D01*
X74930000Y-122602242D01*
X75165423Y-122954577D01*
X75640091Y-123271740D01*
X76058667Y-123355000D01*
X76341333Y-123355000D01*
X76759909Y-123271740D01*
X76804999Y-123241612D01*
X76805000Y-135838389D01*
X76759909Y-135808260D01*
X76341333Y-135725000D01*
X76058667Y-135725000D01*
X75640091Y-135808260D01*
X75165423Y-136125423D01*
X74930000Y-136477758D01*
X74694577Y-136125423D01*
X74219909Y-135808260D01*
X73801333Y-135725000D01*
X73518667Y-135725000D01*
X73100091Y-135808260D01*
X72625423Y-136125423D01*
X72390000Y-136477758D01*
X72154577Y-136125423D01*
X71679909Y-135808260D01*
X71261333Y-135725000D01*
X70978667Y-135725000D01*
X70560091Y-135808260D01*
X70085423Y-136125423D01*
X69850000Y-136477758D01*
X69614577Y-136125423D01*
X69139909Y-135808260D01*
X68721333Y-135725000D01*
X68438667Y-135725000D01*
X68020091Y-135808260D01*
X67545423Y-136125423D01*
X67310000Y-136477758D01*
X67074577Y-136125423D01*
X66599909Y-135808260D01*
X66181333Y-135725000D01*
X65898667Y-135725000D01*
X65480091Y-135808260D01*
X65005423Y-136125423D01*
X64830531Y-136387168D01*
X64792833Y-136296157D01*
X64363843Y-135867167D01*
X63803341Y-135635000D01*
X63196659Y-135635000D01*
X62636157Y-135867167D01*
X62207167Y-136296157D01*
X61975000Y-136856659D01*
X61975000Y-137463341D01*
X62207167Y-138023843D01*
X62636157Y-138452833D01*
X63196659Y-138685000D01*
X63803341Y-138685000D01*
X64363843Y-138452833D01*
X64792833Y-138023843D01*
X64830531Y-137932832D01*
X65005423Y-138194577D01*
X65056972Y-138229021D01*
X64942235Y-138251843D01*
X64732191Y-138392191D01*
X64591843Y-138602235D01*
X64542560Y-138850000D01*
X64542560Y-140550000D01*
X64591843Y-140797765D01*
X64732191Y-141007809D01*
X64942235Y-141148157D01*
X65190000Y-141197440D01*
X66890000Y-141197440D01*
X67137765Y-141148157D01*
X67347809Y-141007809D01*
X67488157Y-140797765D01*
X67497184Y-140752381D01*
X67509375Y-140770625D01*
X68000582Y-141098839D01*
X68433744Y-141185000D01*
X68726256Y-141185000D01*
X69159418Y-141098839D01*
X69650625Y-140770625D01*
X69850000Y-140472239D01*
X70049375Y-140770625D01*
X70540582Y-141098839D01*
X70973744Y-141185000D01*
X71266256Y-141185000D01*
X71699418Y-141098839D01*
X72190625Y-140770625D01*
X72390000Y-140472239D01*
X72589375Y-140770625D01*
X72900000Y-140978178D01*
X72900001Y-149716787D01*
X72885112Y-149791639D01*
X72900001Y-149866491D01*
X72913873Y-149936231D01*
X72944097Y-150088176D01*
X73035090Y-150224356D01*
X73112072Y-150339568D01*
X73175528Y-150381968D01*
X80204626Y-157411068D01*
X80247022Y-157474518D01*
X80310472Y-157516914D01*
X80310477Y-157516919D01*
X80498413Y-157642493D01*
X80794950Y-157701478D01*
X80869802Y-157686589D01*
X126929194Y-157686591D01*
X127004041Y-157701479D01*
X127078888Y-157686591D01*
X127078892Y-157686591D01*
X127300577Y-157642495D01*
X127551969Y-157474520D01*
X127594369Y-157411064D01*
X142859485Y-142145949D01*
X142922938Y-142103551D01*
X142965336Y-142040098D01*
X142965339Y-142040095D01*
X143090914Y-141852160D01*
X143149898Y-141555622D01*
X143135009Y-141480769D01*
X143135011Y-73600856D01*
X143149899Y-73526009D01*
X143135011Y-73451162D01*
X143135011Y-73451158D01*
X143090915Y-73229473D01*
X143039197Y-73152071D01*
X142965340Y-73041536D01*
X142965338Y-73041534D01*
X142922940Y-72978081D01*
X142859487Y-72935683D01*
X139244334Y-69320531D01*
X139201932Y-69257072D01*
X138950540Y-69089097D01*
X138728855Y-69045001D01*
X138728850Y-69045001D01*
X138654003Y-69030113D01*
X138579156Y-69045001D01*
X138544382Y-69045001D01*
X138626458Y-68820664D01*
X138600839Y-68210540D01*
X138416643Y-67765852D01*
X138160159Y-67679446D01*
X137259605Y-68580000D01*
X137273748Y-68594143D01*
X137094143Y-68773748D01*
X137080000Y-68759605D01*
X137065858Y-68773748D01*
X136886253Y-68594143D01*
X136900395Y-68580000D01*
X135999841Y-67679446D01*
X135884539Y-67718290D01*
X135881310Y-67710493D01*
X135670658Y-67499841D01*
X136179446Y-67499841D01*
X137080000Y-68400395D01*
X137980554Y-67499841D01*
X137894148Y-67243357D01*
X137320664Y-67033542D01*
X136710540Y-67059161D01*
X136265852Y-67243357D01*
X136179446Y-67499841D01*
X135670658Y-67499841D01*
X135449507Y-67278690D01*
X134885330Y-67045000D01*
X134274670Y-67045000D01*
X133710493Y-67278690D01*
X133330000Y-67659183D01*
X132949507Y-67278690D01*
X132385330Y-67045000D01*
X131884967Y-67045000D01*
X131403471Y-66563504D01*
X131350608Y-66484390D01*
X131037195Y-66274974D01*
X130760817Y-66219999D01*
X130760816Y-66219999D01*
X130667499Y-66201437D01*
X130574182Y-66219999D01*
X118345813Y-66219999D01*
X118252500Y-66201438D01*
X118159188Y-66219999D01*
X118159183Y-66219999D01*
X117882805Y-66274974D01*
X117569392Y-66484390D01*
X117516531Y-66563502D01*
X117035033Y-67045000D01*
X116534670Y-67045000D01*
X115970493Y-67278690D01*
X115538690Y-67710493D01*
X115305000Y-68274670D01*
X115305000Y-68885330D01*
X115538690Y-69449507D01*
X115892501Y-69803318D01*
X115892501Y-80144701D01*
X115429913Y-79573958D01*
X114780611Y-79221779D01*
X114639645Y-79192305D01*
X114347000Y-79308428D01*
X114347000Y-81153000D01*
X114367000Y-81153000D01*
X114367000Y-81407000D01*
X114347000Y-81407000D01*
X114347000Y-83251572D01*
X114639645Y-83367695D01*
X114780611Y-83338221D01*
X115429913Y-82986042D01*
X115892501Y-82415299D01*
X115892500Y-92644701D01*
X115429913Y-92073958D01*
X114780611Y-91721779D01*
X114639645Y-91692305D01*
X114347000Y-91808428D01*
X114347000Y-93653000D01*
X114367000Y-93653000D01*
X114367000Y-93907000D01*
X114347000Y-93907000D01*
X114347000Y-95751572D01*
X114639645Y-95867695D01*
X114780611Y-95838221D01*
X115429913Y-95486042D01*
X115892500Y-94915299D01*
X115892500Y-97767532D01*
X110624965Y-103035068D01*
X110413720Y-103122569D01*
X110122569Y-103413720D01*
X109965000Y-103794126D01*
X109965000Y-104205874D01*
X110122569Y-104586280D01*
X110413720Y-104877431D01*
X110794126Y-105035000D01*
X111205874Y-105035000D01*
X111586280Y-104877431D01*
X111877431Y-104586280D01*
X111964932Y-104375035D01*
X117444000Y-98895968D01*
X117523109Y-98843109D01*
X117732525Y-98529696D01*
X117787500Y-98253318D01*
X117787500Y-98253314D01*
X117806061Y-98160001D01*
X117787500Y-98066688D01*
X117787500Y-80844345D01*
X120035000Y-80844345D01*
X120035000Y-81715654D01*
X120144369Y-82265489D01*
X120560991Y-82889009D01*
X121160001Y-83289255D01*
X121160000Y-91770747D01*
X120560991Y-92170991D01*
X120144369Y-92794510D01*
X120035000Y-93344345D01*
X120035000Y-94215654D01*
X120144369Y-94765489D01*
X120560991Y-95389009D01*
X121184510Y-95805631D01*
X121920000Y-95951929D01*
X122655489Y-95805631D01*
X123279009Y-95389009D01*
X123695631Y-94765490D01*
X123805000Y-94215655D01*
X123805000Y-94204040D01*
X125034885Y-94204040D01*
X125244983Y-94912194D01*
X125710087Y-95486042D01*
X126359389Y-95838221D01*
X126500355Y-95867695D01*
X126793000Y-95751572D01*
X126793000Y-93907000D01*
X127047000Y-93907000D01*
X127047000Y-95751572D01*
X127339645Y-95867695D01*
X127480611Y-95838221D01*
X128129913Y-95486042D01*
X128595017Y-94912194D01*
X128805115Y-94204040D01*
X128650382Y-93907000D01*
X127047000Y-93907000D01*
X126793000Y-93907000D01*
X125189618Y-93907000D01*
X125034885Y-94204040D01*
X123805000Y-94204040D01*
X123805000Y-93355960D01*
X125034885Y-93355960D01*
X125189618Y-93653000D01*
X126793000Y-93653000D01*
X126793000Y-91808428D01*
X127047000Y-91808428D01*
X127047000Y-93653000D01*
X128650382Y-93653000D01*
X128805115Y-93355960D01*
X128595017Y-92647806D01*
X128129913Y-92073958D01*
X127480611Y-91721779D01*
X127339645Y-91692305D01*
X127047000Y-91808428D01*
X126793000Y-91808428D01*
X126500355Y-91692305D01*
X126359389Y-91721779D01*
X125710087Y-92073958D01*
X125244983Y-92647806D01*
X125034885Y-93355960D01*
X123805000Y-93355960D01*
X123805000Y-93344346D01*
X123695631Y-92794510D01*
X123279009Y-92170991D01*
X122680000Y-91770746D01*
X122680000Y-83289253D01*
X123279009Y-82889009D01*
X123695631Y-82265490D01*
X123805000Y-81715655D01*
X123805000Y-81704040D01*
X125034885Y-81704040D01*
X125244983Y-82412194D01*
X125710087Y-82986042D01*
X126359389Y-83338221D01*
X126500355Y-83367695D01*
X126793000Y-83251572D01*
X126793000Y-81407000D01*
X127047000Y-81407000D01*
X127047000Y-83251572D01*
X127339645Y-83367695D01*
X127480611Y-83338221D01*
X128129913Y-82986042D01*
X128595017Y-82412194D01*
X128805115Y-81704040D01*
X128650382Y-81407000D01*
X127047000Y-81407000D01*
X126793000Y-81407000D01*
X125189618Y-81407000D01*
X125034885Y-81704040D01*
X123805000Y-81704040D01*
X123805000Y-80855960D01*
X125034885Y-80855960D01*
X125189618Y-81153000D01*
X126793000Y-81153000D01*
X126793000Y-79308428D01*
X127047000Y-79308428D01*
X127047000Y-81153000D01*
X128650382Y-81153000D01*
X128805115Y-80855960D01*
X128801670Y-80844345D01*
X132735000Y-80844345D01*
X132735000Y-81715654D01*
X132844369Y-82265489D01*
X133260991Y-82889009D01*
X133860001Y-83289255D01*
X133860000Y-91770747D01*
X133260991Y-92170991D01*
X132844369Y-92794510D01*
X132735000Y-93344345D01*
X132735000Y-94215654D01*
X132844369Y-94765489D01*
X133260991Y-95389009D01*
X133884510Y-95805631D01*
X134620000Y-95951929D01*
X135355489Y-95805631D01*
X135979009Y-95389009D01*
X136395631Y-94765490D01*
X136505000Y-94215655D01*
X136505000Y-94204040D01*
X137734885Y-94204040D01*
X137944983Y-94912194D01*
X138410087Y-95486042D01*
X139059389Y-95838221D01*
X139200355Y-95867695D01*
X139493000Y-95751572D01*
X139493000Y-93907000D01*
X137889618Y-93907000D01*
X137734885Y-94204040D01*
X136505000Y-94204040D01*
X136505000Y-93355960D01*
X137734885Y-93355960D01*
X137889618Y-93653000D01*
X139493000Y-93653000D01*
X139493000Y-91808428D01*
X139200355Y-91692305D01*
X139059389Y-91721779D01*
X138410087Y-92073958D01*
X137944983Y-92647806D01*
X137734885Y-93355960D01*
X136505000Y-93355960D01*
X136505000Y-93344346D01*
X136395631Y-92794510D01*
X135979009Y-92170991D01*
X135380000Y-91770746D01*
X135380000Y-83289253D01*
X135979009Y-82889009D01*
X136395631Y-82265490D01*
X136505000Y-81715655D01*
X136505000Y-81704040D01*
X137734885Y-81704040D01*
X137944983Y-82412194D01*
X138410087Y-82986042D01*
X139059389Y-83338221D01*
X139200355Y-83367695D01*
X139493000Y-83251572D01*
X139493000Y-81407000D01*
X137889618Y-81407000D01*
X137734885Y-81704040D01*
X136505000Y-81704040D01*
X136505000Y-80844346D01*
X136395631Y-80294510D01*
X135979009Y-79670991D01*
X135355490Y-79254369D01*
X134620000Y-79108071D01*
X133884511Y-79254369D01*
X133260991Y-79670991D01*
X132844369Y-80294510D01*
X132735000Y-80844345D01*
X128801670Y-80844345D01*
X128595017Y-80147806D01*
X128129913Y-79573958D01*
X127480611Y-79221779D01*
X127339645Y-79192305D01*
X127047000Y-79308428D01*
X126793000Y-79308428D01*
X126500355Y-79192305D01*
X126359389Y-79221779D01*
X125710087Y-79573958D01*
X125244983Y-80147806D01*
X125034885Y-80855960D01*
X123805000Y-80855960D01*
X123805000Y-80844346D01*
X123695631Y-80294510D01*
X123279009Y-79670991D01*
X122655490Y-79254369D01*
X121920000Y-79108071D01*
X121184511Y-79254369D01*
X120560991Y-79670991D01*
X120144369Y-80294510D01*
X120035000Y-80844345D01*
X117787500Y-80844345D01*
X117787500Y-69803317D01*
X118090000Y-69500817D01*
X118470493Y-69881310D01*
X119034670Y-70115000D01*
X119645330Y-70115000D01*
X119754838Y-70069640D01*
X119974671Y-70289473D01*
X120017072Y-70352930D01*
X120268464Y-70520905D01*
X120490149Y-70565001D01*
X120490153Y-70565001D01*
X120565000Y-70579889D01*
X120639847Y-70565001D01*
X130307600Y-70565001D01*
X138997789Y-79255191D01*
X138410087Y-79573958D01*
X137944983Y-80147806D01*
X137734885Y-80855960D01*
X137889618Y-81153000D01*
X139493000Y-81153000D01*
X139493000Y-81133000D01*
X139747000Y-81133000D01*
X139747000Y-81153000D01*
X139767000Y-81153000D01*
X139767000Y-81407000D01*
X139747000Y-81407000D01*
X139747000Y-83251572D01*
X140039645Y-83367695D01*
X140180611Y-83338221D01*
X140829913Y-82986042D01*
X141165001Y-82572608D01*
X141165001Y-92487392D01*
X140829913Y-92073958D01*
X140180611Y-91721779D01*
X140039645Y-91692305D01*
X139747000Y-91808428D01*
X139747000Y-93653000D01*
X139767000Y-93653000D01*
X139767000Y-93907000D01*
X139747000Y-93907000D01*
X139747000Y-95751572D01*
X140039645Y-95867695D01*
X140180611Y-95838221D01*
X140829913Y-95486042D01*
X141165001Y-95072608D01*
X141165001Y-103063413D01*
X140444569Y-102765000D01*
X139555431Y-102765000D01*
X138733974Y-103105259D01*
X138105259Y-103733974D01*
X137765000Y-104555431D01*
X137765000Y-105444569D01*
X138105259Y-106266026D01*
X138733974Y-106894741D01*
X139555431Y-107235000D01*
X140444569Y-107235000D01*
X141165001Y-106936587D01*
X141165002Y-141054417D01*
X132001500Y-150217920D01*
X132001500Y-150080377D01*
X131626759Y-149175672D01*
X130934328Y-148483241D01*
X130460854Y-148287121D01*
X130671758Y-148076217D01*
X130875000Y-147585548D01*
X130875000Y-147054452D01*
X130671758Y-146563783D01*
X130296217Y-146188242D01*
X129805548Y-145985000D01*
X129274452Y-145985000D01*
X128783783Y-146188242D01*
X128408242Y-146563783D01*
X128205000Y-147054452D01*
X128205000Y-147585548D01*
X128408242Y-148076217D01*
X128619146Y-148287121D01*
X128145672Y-148483241D01*
X127453241Y-149175672D01*
X127078500Y-150080377D01*
X127078500Y-151059623D01*
X127453241Y-151964328D01*
X128145672Y-152656759D01*
X129050377Y-153031500D01*
X129187921Y-153031500D01*
X126502840Y-155716581D01*
X120876771Y-155716581D01*
X121058940Y-155276786D01*
X121058940Y-154527014D01*
X120772015Y-153834315D01*
X120241845Y-153304145D01*
X119549146Y-153017220D01*
X118799374Y-153017220D01*
X118385684Y-153188576D01*
X118557040Y-152774886D01*
X118557040Y-152025114D01*
X118270115Y-151332415D01*
X117739945Y-150802245D01*
X117432360Y-150674839D01*
X117432360Y-148650057D01*
X117874577Y-148354577D01*
X118191740Y-147879909D01*
X118303113Y-147320000D01*
X118191740Y-146760091D01*
X117874577Y-146285423D01*
X117399909Y-145968260D01*
X116981333Y-145885000D01*
X116698667Y-145885000D01*
X116280091Y-145968260D01*
X115805423Y-146285423D01*
X115488260Y-146760091D01*
X115376887Y-147320000D01*
X115488260Y-147879909D01*
X115805423Y-148354577D01*
X115912361Y-148426031D01*
X115912360Y-150674839D01*
X115604775Y-150802245D01*
X115074605Y-151332415D01*
X114787680Y-152025114D01*
X114787680Y-152774886D01*
X115074605Y-153467585D01*
X115604775Y-153997755D01*
X116297474Y-154284680D01*
X117047246Y-154284680D01*
X117460936Y-154113324D01*
X117289580Y-154527014D01*
X117289580Y-155276786D01*
X117471749Y-155716581D01*
X113377639Y-155716581D01*
X113560860Y-155274246D01*
X113560860Y-154524474D01*
X113273935Y-153831775D01*
X112743765Y-153301605D01*
X112051066Y-153014680D01*
X111301294Y-153014680D01*
X110608595Y-153301605D01*
X110078425Y-153831775D01*
X109791500Y-154524474D01*
X109791500Y-155274246D01*
X109974721Y-155716581D01*
X105880611Y-155716581D01*
X106062780Y-155276786D01*
X106062780Y-154527014D01*
X105891424Y-154113324D01*
X106305114Y-154284680D01*
X107054886Y-154284680D01*
X107747585Y-153997755D01*
X108277755Y-153467585D01*
X108564680Y-152774886D01*
X108564680Y-152025114D01*
X108437274Y-151717527D01*
X117324473Y-142830329D01*
X117387929Y-142787929D01*
X117465748Y-142671465D01*
X117555904Y-142536538D01*
X117571666Y-142457296D01*
X117600000Y-142314852D01*
X117600000Y-142314848D01*
X117614888Y-142240000D01*
X117600000Y-142165152D01*
X117600000Y-137580377D01*
X127078500Y-137580377D01*
X127078500Y-138559623D01*
X127453241Y-139464328D01*
X128145672Y-140156759D01*
X128619146Y-140352879D01*
X128408242Y-140563783D01*
X128205000Y-141054452D01*
X128205000Y-141585548D01*
X128408242Y-142076217D01*
X128783783Y-142451758D01*
X129274452Y-142655000D01*
X129805548Y-142655000D01*
X130296217Y-142451758D01*
X130671758Y-142076217D01*
X130875000Y-141585548D01*
X130875000Y-141054452D01*
X130671758Y-140563783D01*
X130460854Y-140352879D01*
X130934328Y-140156759D01*
X131626759Y-139464328D01*
X132001500Y-138559623D01*
X132001500Y-137580377D01*
X131626759Y-136675672D01*
X130934328Y-135983241D01*
X130029623Y-135608500D01*
X129050377Y-135608500D01*
X128145672Y-135983241D01*
X127453241Y-136675672D01*
X127078500Y-137580377D01*
X117600000Y-137580377D01*
X117600000Y-128218043D01*
X117874577Y-128034577D01*
X118058043Y-127760000D01*
X119305153Y-127760000D01*
X119380000Y-127774888D01*
X119454847Y-127760000D01*
X119454852Y-127760000D01*
X119676537Y-127715904D01*
X119927929Y-127547929D01*
X119970331Y-127484470D01*
X120457405Y-126997397D01*
X120456887Y-127000000D01*
X120568260Y-127559909D01*
X120885423Y-128034577D01*
X121360091Y-128351740D01*
X121778667Y-128435000D01*
X122061333Y-128435000D01*
X122479909Y-128351740D01*
X122954577Y-128034577D01*
X123271740Y-127559909D01*
X123313684Y-127349039D01*
X128148096Y-127349039D01*
X128308959Y-127737423D01*
X128684866Y-128152389D01*
X129190959Y-128391914D01*
X129413000Y-128270629D01*
X129413000Y-127127000D01*
X129667000Y-127127000D01*
X129667000Y-128270629D01*
X129889041Y-128391914D01*
X130395134Y-128152389D01*
X130771041Y-127737423D01*
X130931904Y-127349039D01*
X130809915Y-127127000D01*
X129667000Y-127127000D01*
X129413000Y-127127000D01*
X128270085Y-127127000D01*
X128148096Y-127349039D01*
X123313684Y-127349039D01*
X123383113Y-127000000D01*
X123271740Y-126440091D01*
X122954577Y-125965423D01*
X122602242Y-125730000D01*
X122954577Y-125494577D01*
X123271740Y-125019909D01*
X123383113Y-124460000D01*
X123271740Y-123900091D01*
X122954577Y-123425423D01*
X122602242Y-123190000D01*
X122954577Y-122954577D01*
X123271740Y-122479909D01*
X123383113Y-121920000D01*
X123271740Y-121360091D01*
X122954577Y-120885423D01*
X122833894Y-120804785D01*
X122967765Y-120778157D01*
X123177809Y-120637809D01*
X123318157Y-120427765D01*
X123367440Y-120180000D01*
X123367440Y-119014999D01*
X127835032Y-119014999D01*
X128097318Y-119277285D01*
X128076887Y-119380000D01*
X128188260Y-119939909D01*
X128505423Y-120414577D01*
X128857758Y-120650000D01*
X128505423Y-120885423D01*
X128188260Y-121360091D01*
X128076887Y-121920000D01*
X128188260Y-122479909D01*
X128505423Y-122954577D01*
X128857758Y-123190000D01*
X128505423Y-123425423D01*
X128188260Y-123900091D01*
X128076887Y-124460000D01*
X128188260Y-125019909D01*
X128505423Y-125494577D01*
X128889108Y-125750947D01*
X128684866Y-125847611D01*
X128308959Y-126262577D01*
X128148096Y-126650961D01*
X128270085Y-126873000D01*
X129413000Y-126873000D01*
X129413000Y-126853000D01*
X129667000Y-126853000D01*
X129667000Y-126873000D01*
X130809915Y-126873000D01*
X130834128Y-126828929D01*
X133221312Y-129216114D01*
X133156887Y-129540000D01*
X133268260Y-130099909D01*
X133585423Y-130574577D01*
X133860001Y-130758044D01*
X133860000Y-138925198D01*
X129800199Y-142985000D01*
X129274452Y-142985000D01*
X128783783Y-143188242D01*
X128408242Y-143563783D01*
X128205000Y-144054452D01*
X128205000Y-144585548D01*
X128408242Y-145076217D01*
X128783783Y-145451758D01*
X129274452Y-145655000D01*
X129805548Y-145655000D01*
X130296217Y-145451758D01*
X130671758Y-145076217D01*
X130875000Y-144585548D01*
X130875000Y-144059801D01*
X135104473Y-139830329D01*
X135167929Y-139787929D01*
X135335904Y-139536537D01*
X135380000Y-139314852D01*
X135380000Y-139314847D01*
X135394888Y-139240000D01*
X135380000Y-139165153D01*
X135380000Y-130758043D01*
X135654577Y-130574577D01*
X135672505Y-130547745D01*
X136331861Y-130547745D01*
X136405995Y-130793864D01*
X136943223Y-130986965D01*
X137513454Y-130959778D01*
X137914005Y-130793864D01*
X137988139Y-130547745D01*
X137160000Y-129719605D01*
X136331861Y-130547745D01*
X135672505Y-130547745D01*
X135881611Y-130234797D01*
X135906136Y-130294005D01*
X136152255Y-130368139D01*
X136980395Y-129540000D01*
X137339605Y-129540000D01*
X138167745Y-130368139D01*
X138413864Y-130294005D01*
X138606965Y-129756777D01*
X138579778Y-129186546D01*
X138413864Y-128785995D01*
X138167745Y-128711861D01*
X137339605Y-129540000D01*
X136980395Y-129540000D01*
X136152255Y-128711861D01*
X135906136Y-128785995D01*
X135883720Y-128848359D01*
X135672506Y-128532255D01*
X136331861Y-128532255D01*
X137160000Y-129360395D01*
X137988139Y-128532255D01*
X137914005Y-128286136D01*
X137376777Y-128093035D01*
X136806546Y-128120222D01*
X136405995Y-128286136D01*
X136331861Y-128532255D01*
X135672506Y-128532255D01*
X135654577Y-128505423D01*
X135179909Y-128188260D01*
X134761333Y-128105000D01*
X134478667Y-128105000D01*
X134296114Y-128141312D01*
X130938688Y-124783887D01*
X131003113Y-124460000D01*
X130891740Y-123900091D01*
X130574577Y-123425423D01*
X130222242Y-123190000D01*
X130574577Y-122954577D01*
X130758043Y-122680000D01*
X134545153Y-122680000D01*
X134620000Y-122694888D01*
X134694847Y-122680000D01*
X134694852Y-122680000D01*
X134916537Y-122635904D01*
X135167929Y-122467929D01*
X135210331Y-122404470D01*
X136836114Y-120778688D01*
X137018667Y-120815000D01*
X137301333Y-120815000D01*
X137719909Y-120731740D01*
X138194577Y-120414577D01*
X138511740Y-119939909D01*
X138623113Y-119380000D01*
X138511740Y-118820091D01*
X138194577Y-118345423D01*
X137719909Y-118028260D01*
X137301333Y-117945000D01*
X137018667Y-117945000D01*
X136600091Y-118028260D01*
X136125423Y-118345423D01*
X135890394Y-118697168D01*
X135836534Y-118567138D01*
X135432862Y-118163466D01*
X134905439Y-117945000D01*
X134334561Y-117945000D01*
X133807138Y-118163466D01*
X133538104Y-118432500D01*
X130632760Y-118432500D01*
X130574577Y-118345423D01*
X130099909Y-118028260D01*
X129681333Y-117945000D01*
X129444967Y-117945000D01*
X128963471Y-117463504D01*
X128910608Y-117384390D01*
X128597195Y-117174974D01*
X128320817Y-117119999D01*
X128320816Y-117119999D01*
X128227499Y-117101437D01*
X128134182Y-117119999D01*
X115723317Y-117119999D01*
X115629999Y-117101437D01*
X115536681Y-117119999D01*
X115260303Y-117174974D01*
X114946890Y-117384390D01*
X114894029Y-117463502D01*
X108616004Y-123741528D01*
X108536892Y-123794389D01*
X108484031Y-123873501D01*
X108327475Y-124107803D01*
X108253938Y-124477498D01*
X108272501Y-124570820D01*
X108272500Y-127792560D01*
X108120000Y-127792560D01*
X107872235Y-127841843D01*
X107662191Y-127982191D01*
X107521843Y-128192235D01*
X107472560Y-128440000D01*
X107472560Y-128592500D01*
X103887466Y-128592500D01*
X107283997Y-125195969D01*
X107363109Y-125143109D01*
X107572525Y-124829696D01*
X107627500Y-124553318D01*
X107627500Y-124553317D01*
X107646062Y-124460000D01*
X107627500Y-124366682D01*
X107627500Y-122536816D01*
X107646062Y-122443498D01*
X107627500Y-122350180D01*
X107627500Y-120119572D01*
X107969135Y-120630865D01*
X108543037Y-121014334D01*
X109049120Y-121115000D01*
X109390880Y-121115000D01*
X109896963Y-121014334D01*
X110470865Y-120630865D01*
X110854334Y-120056963D01*
X110988990Y-119380000D01*
X110854334Y-118703037D01*
X110470865Y-118129135D01*
X109896963Y-117745666D01*
X109390880Y-117645000D01*
X109049120Y-117645000D01*
X108940001Y-117666705D01*
X108940001Y-95896234D01*
X109220000Y-95951929D01*
X109955489Y-95805631D01*
X110579009Y-95389009D01*
X110995631Y-94765490D01*
X111105000Y-94215655D01*
X111105000Y-94204040D01*
X112334885Y-94204040D01*
X112544983Y-94912194D01*
X113010087Y-95486042D01*
X113659389Y-95838221D01*
X113800355Y-95867695D01*
X114093000Y-95751572D01*
X114093000Y-93907000D01*
X112489618Y-93907000D01*
X112334885Y-94204040D01*
X111105000Y-94204040D01*
X111105000Y-93355960D01*
X112334885Y-93355960D01*
X112489618Y-93653000D01*
X114093000Y-93653000D01*
X114093000Y-91808428D01*
X113800355Y-91692305D01*
X113659389Y-91721779D01*
X113010087Y-92073958D01*
X112544983Y-92647806D01*
X112334885Y-93355960D01*
X111105000Y-93355960D01*
X111105000Y-93344346D01*
X110995631Y-92794510D01*
X110579009Y-92170991D01*
X109980000Y-91770746D01*
X109980000Y-83289253D01*
X110579009Y-82889009D01*
X110995631Y-82265490D01*
X111105000Y-81715655D01*
X111105000Y-81704040D01*
X112334885Y-81704040D01*
X112544983Y-82412194D01*
X113010087Y-82986042D01*
X113659389Y-83338221D01*
X113800355Y-83367695D01*
X114093000Y-83251572D01*
X114093000Y-81407000D01*
X112489618Y-81407000D01*
X112334885Y-81704040D01*
X111105000Y-81704040D01*
X111105000Y-80855960D01*
X112334885Y-80855960D01*
X112489618Y-81153000D01*
X114093000Y-81153000D01*
X114093000Y-79308428D01*
X113800355Y-79192305D01*
X113659389Y-79221779D01*
X113010087Y-79573958D01*
X112544983Y-80147806D01*
X112334885Y-80855960D01*
X111105000Y-80855960D01*
X111105000Y-80844346D01*
X110995631Y-80294510D01*
X110579009Y-79670991D01*
X109955490Y-79254369D01*
X109220000Y-79108071D01*
X108484511Y-79254369D01*
X107860991Y-79670991D01*
X107444369Y-80294510D01*
X107335000Y-80844345D01*
X107335000Y-81715654D01*
X107444369Y-82265489D01*
X107860991Y-82889009D01*
X108460001Y-83289255D01*
X108460000Y-91770747D01*
X107860991Y-92170991D01*
X107444369Y-92794510D01*
X107342756Y-93305354D01*
X94559990Y-80522589D01*
X94559990Y-79555431D01*
X97765000Y-79555431D01*
X97765000Y-80444569D01*
X98105259Y-81266026D01*
X98733974Y-81894741D01*
X99555431Y-82235000D01*
X100444569Y-82235000D01*
X101266026Y-81894741D01*
X101894741Y-81266026D01*
X102235000Y-80444569D01*
X102235000Y-79555431D01*
X101894741Y-78733974D01*
X101266026Y-78105259D01*
X100444569Y-77765000D01*
X99555431Y-77765000D01*
X98733974Y-78105259D01*
X98105259Y-78733974D01*
X97765000Y-79555431D01*
X94559990Y-79555431D01*
X94559990Y-61055866D01*
X112305000Y-61055866D01*
X112305000Y-62104134D01*
X112706155Y-63072608D01*
X113447392Y-63813845D01*
X114415866Y-64215000D01*
X115464134Y-64215000D01*
X116432608Y-63813845D01*
X117173845Y-63072608D01*
X117575000Y-62104134D01*
X117575000Y-61070866D01*
X121105000Y-61070866D01*
X121105000Y-62119134D01*
X121506155Y-63087608D01*
X122247392Y-63828845D01*
X123215866Y-64230000D01*
X124264134Y-64230000D01*
X125232608Y-63828845D01*
X125973845Y-63087608D01*
X126375000Y-62119134D01*
X126375000Y-61070866D01*
X126368787Y-61055866D01*
X127545000Y-61055866D01*
X127545000Y-62104134D01*
X127946155Y-63072608D01*
X128687392Y-63813845D01*
X129655866Y-64215000D01*
X130704134Y-64215000D01*
X131672608Y-63813845D01*
X132413845Y-63072608D01*
X132815000Y-62104134D01*
X132815000Y-61070866D01*
X136345000Y-61070866D01*
X136345000Y-62119134D01*
X136746155Y-63087608D01*
X137487392Y-63828845D01*
X138455866Y-64230000D01*
X139504134Y-64230000D01*
X140472608Y-63828845D01*
X141213845Y-63087608D01*
X141615000Y-62119134D01*
X141615000Y-61070866D01*
X141213845Y-60102392D01*
X140472608Y-59361155D01*
X139504134Y-58960000D01*
X138455866Y-58960000D01*
X137487392Y-59361155D01*
X136746155Y-60102392D01*
X136345000Y-61070866D01*
X132815000Y-61070866D01*
X132815000Y-61055866D01*
X132413845Y-60087392D01*
X131672608Y-59346155D01*
X130704134Y-58945000D01*
X129655866Y-58945000D01*
X128687392Y-59346155D01*
X127946155Y-60087392D01*
X127545000Y-61055866D01*
X126368787Y-61055866D01*
X125973845Y-60102392D01*
X125232608Y-59361155D01*
X124264134Y-58960000D01*
X123215866Y-58960000D01*
X122247392Y-59361155D01*
X121506155Y-60102392D01*
X121105000Y-61070866D01*
X117575000Y-61070866D01*
X117575000Y-61055866D01*
X117173845Y-60087392D01*
X116432608Y-59346155D01*
X115464134Y-58945000D01*
X114415866Y-58945000D01*
X113447392Y-59346155D01*
X112706155Y-60087392D01*
X112305000Y-61055866D01*
X94559990Y-61055866D01*
X94559990Y-49555431D01*
X97765000Y-49555431D01*
X97765000Y-50444569D01*
X98105259Y-51266026D01*
X98733974Y-51894741D01*
X99555431Y-52235000D01*
X100444569Y-52235000D01*
X101266026Y-51894741D01*
X101894741Y-51266026D01*
X102235000Y-50444569D01*
X102235000Y-50285750D01*
X107465000Y-50285750D01*
X107465000Y-51026310D01*
X107561673Y-51259699D01*
X107740302Y-51438327D01*
X107973691Y-51535000D01*
X108714250Y-51535000D01*
X108873000Y-51376250D01*
X108873000Y-50127000D01*
X107623750Y-50127000D01*
X107465000Y-50285750D01*
X102235000Y-50285750D01*
X102235000Y-49555431D01*
X101994035Y-48973690D01*
X107465000Y-48973690D01*
X107465000Y-49714250D01*
X107623750Y-49873000D01*
X108873000Y-49873000D01*
X108873000Y-48623750D01*
X109127000Y-48623750D01*
X109127000Y-49873000D01*
X109147000Y-49873000D01*
X109147000Y-50127000D01*
X109127000Y-50127000D01*
X109127000Y-51376250D01*
X109285750Y-51535000D01*
X110026309Y-51535000D01*
X110259698Y-51438327D01*
X110438327Y-51259699D01*
X110494139Y-51124956D01*
X110670493Y-51301310D01*
X111234670Y-51535000D01*
X111845330Y-51535000D01*
X112409507Y-51301310D01*
X112841310Y-50869507D01*
X113075000Y-50305330D01*
X113075000Y-50285750D01*
X117465000Y-50285750D01*
X117465000Y-51026310D01*
X117561673Y-51259699D01*
X117740302Y-51438327D01*
X117973691Y-51535000D01*
X118714250Y-51535000D01*
X118873000Y-51376250D01*
X118873000Y-50127000D01*
X117623750Y-50127000D01*
X117465000Y-50285750D01*
X113075000Y-50285750D01*
X113075000Y-49694670D01*
X112841310Y-49130493D01*
X112684507Y-48973690D01*
X117465000Y-48973690D01*
X117465000Y-49714250D01*
X117623750Y-49873000D01*
X118873000Y-49873000D01*
X118873000Y-48623750D01*
X119127000Y-48623750D01*
X119127000Y-49873000D01*
X119147000Y-49873000D01*
X119147000Y-50127000D01*
X119127000Y-50127000D01*
X119127000Y-51376250D01*
X119285750Y-51535000D01*
X120026309Y-51535000D01*
X120259698Y-51438327D01*
X120438327Y-51259699D01*
X120494139Y-51124956D01*
X120670493Y-51301310D01*
X121234670Y-51535000D01*
X121845330Y-51535000D01*
X122409507Y-51301310D01*
X122841310Y-50869507D01*
X123075000Y-50305330D01*
X123075000Y-50285750D01*
X127465000Y-50285750D01*
X127465000Y-51026310D01*
X127561673Y-51259699D01*
X127740302Y-51438327D01*
X127973691Y-51535000D01*
X128714250Y-51535000D01*
X128873000Y-51376250D01*
X128873000Y-50127000D01*
X127623750Y-50127000D01*
X127465000Y-50285750D01*
X123075000Y-50285750D01*
X123075000Y-49694670D01*
X122841310Y-49130493D01*
X122684507Y-48973690D01*
X127465000Y-48973690D01*
X127465000Y-49714250D01*
X127623750Y-49873000D01*
X128873000Y-49873000D01*
X128873000Y-48623750D01*
X129127000Y-48623750D01*
X129127000Y-49873000D01*
X129147000Y-49873000D01*
X129147000Y-50127000D01*
X129127000Y-50127000D01*
X129127000Y-51376250D01*
X129285750Y-51535000D01*
X130026309Y-51535000D01*
X130259698Y-51438327D01*
X130438327Y-51259699D01*
X130494139Y-51124956D01*
X130670493Y-51301310D01*
X131234670Y-51535000D01*
X131845330Y-51535000D01*
X132409507Y-51301310D01*
X132841310Y-50869507D01*
X133075000Y-50305330D01*
X133075000Y-49694670D01*
X132841310Y-49130493D01*
X132409507Y-48698690D01*
X131845330Y-48465000D01*
X131234670Y-48465000D01*
X130670493Y-48698690D01*
X130494139Y-48875044D01*
X130438327Y-48740301D01*
X130259698Y-48561673D01*
X130026309Y-48465000D01*
X129285750Y-48465000D01*
X129127000Y-48623750D01*
X128873000Y-48623750D01*
X128714250Y-48465000D01*
X127973691Y-48465000D01*
X127740302Y-48561673D01*
X127561673Y-48740301D01*
X127465000Y-48973690D01*
X122684507Y-48973690D01*
X122409507Y-48698690D01*
X121845330Y-48465000D01*
X121234670Y-48465000D01*
X120670493Y-48698690D01*
X120494139Y-48875044D01*
X120438327Y-48740301D01*
X120259698Y-48561673D01*
X120026309Y-48465000D01*
X119285750Y-48465000D01*
X119127000Y-48623750D01*
X118873000Y-48623750D01*
X118714250Y-48465000D01*
X117973691Y-48465000D01*
X117740302Y-48561673D01*
X117561673Y-48740301D01*
X117465000Y-48973690D01*
X112684507Y-48973690D01*
X112409507Y-48698690D01*
X111845330Y-48465000D01*
X111234670Y-48465000D01*
X110670493Y-48698690D01*
X110494139Y-48875044D01*
X110438327Y-48740301D01*
X110259698Y-48561673D01*
X110026309Y-48465000D01*
X109285750Y-48465000D01*
X109127000Y-48623750D01*
X108873000Y-48623750D01*
X108714250Y-48465000D01*
X107973691Y-48465000D01*
X107740302Y-48561673D01*
X107561673Y-48740301D01*
X107465000Y-48973690D01*
X101994035Y-48973690D01*
X101894741Y-48733974D01*
X101266026Y-48105259D01*
X100444569Y-47765000D01*
X99555431Y-47765000D01*
X98733974Y-48105259D01*
X98105259Y-48733974D01*
X97765000Y-49555431D01*
X94559990Y-49555431D01*
X94559990Y-42737058D01*
X95000000Y-42824582D01*
X95589172Y-42707388D01*
X96088649Y-42373649D01*
X96250000Y-42132170D01*
X96411351Y-42373649D01*
X96910827Y-42707388D01*
X97500000Y-42824582D01*
X98089172Y-42707388D01*
X98588649Y-42373649D01*
X98922388Y-41874173D01*
X99010000Y-41433718D01*
X99010000Y-39386282D01*
X98952058Y-39094990D01*
X101047942Y-39094990D01*
X100990000Y-39386282D01*
X100990000Y-41433717D01*
X101077612Y-41874172D01*
X101411351Y-42373649D01*
X101910827Y-42707388D01*
X102500000Y-42824582D01*
X103089172Y-42707388D01*
X103588649Y-42373649D01*
X103750000Y-42132170D01*
X103911351Y-42373649D01*
X104410827Y-42707388D01*
X105000000Y-42824582D01*
X105589172Y-42707388D01*
X106088649Y-42373649D01*
X106422388Y-41874173D01*
X106510000Y-41433718D01*
X106510000Y-41170000D01*
X113595199Y-41170000D01*
X114890199Y-42465000D01*
X114694670Y-42465000D01*
X114130493Y-42698690D01*
X113698690Y-43130493D01*
X113465000Y-43694670D01*
X113465000Y-44305330D01*
X113698690Y-44869507D01*
X114130493Y-45301310D01*
X114694670Y-45535000D01*
X115305330Y-45535000D01*
X115869507Y-45301310D01*
X116250000Y-44920817D01*
X116630493Y-45301310D01*
X117194670Y-45535000D01*
X117805330Y-45535000D01*
X118369507Y-45301310D01*
X118590658Y-45080159D01*
X119099446Y-45080159D01*
X119185852Y-45336643D01*
X119759336Y-45546458D01*
X120369460Y-45520839D01*
X120814148Y-45336643D01*
X120900554Y-45080159D01*
X120000000Y-44179605D01*
X119099446Y-45080159D01*
X118590658Y-45080159D01*
X118801310Y-44869507D01*
X118804539Y-44861710D01*
X118919841Y-44900554D01*
X119820395Y-44000000D01*
X120179605Y-44000000D01*
X121080159Y-44900554D01*
X121336643Y-44814148D01*
X121546458Y-44240664D01*
X121520839Y-43630540D01*
X121336643Y-43185852D01*
X121080159Y-43099446D01*
X120179605Y-44000000D01*
X119820395Y-44000000D01*
X118919841Y-43099446D01*
X118804539Y-43138290D01*
X118801310Y-43130493D01*
X118590658Y-42919841D01*
X119099446Y-42919841D01*
X120000000Y-43820395D01*
X120900554Y-42919841D01*
X120814148Y-42663357D01*
X120240664Y-42453542D01*
X119630540Y-42479161D01*
X119185852Y-42663357D01*
X119099446Y-42919841D01*
X118590658Y-42919841D01*
X118369507Y-42698690D01*
X117805330Y-42465000D01*
X117194670Y-42465000D01*
X117085162Y-42510360D01*
X114500331Y-39925530D01*
X114457929Y-39862071D01*
X114206537Y-39694096D01*
X113984852Y-39650000D01*
X113984847Y-39650000D01*
X113910000Y-39635112D01*
X113835153Y-39650000D01*
X106510000Y-39650000D01*
X106510000Y-39386282D01*
X106422388Y-38945827D01*
X106088649Y-38446351D01*
X105735134Y-38210140D01*
X105715904Y-38113463D01*
X105547929Y-37862071D01*
X105502964Y-37832026D01*
X105472919Y-37787061D01*
X105221527Y-37619086D01*
X104999842Y-37574990D01*
X104999837Y-37574990D01*
X104924990Y-37560102D01*
X104850143Y-37574990D01*
X96274856Y-37574990D01*
X96200009Y-37560102D01*
X96125162Y-37574990D01*
X96125158Y-37574990D01*
X95903473Y-37619086D01*
X95903471Y-37619087D01*
X95903472Y-37619087D01*
X95715536Y-37744661D01*
X95715534Y-37744663D01*
X95652081Y-37787061D01*
X95609683Y-37850514D01*
X95387668Y-38072530D01*
X95000000Y-37995418D01*
X94410828Y-38112612D01*
X93911352Y-38446351D01*
X93577613Y-38945827D01*
X93490000Y-39386282D01*
X93490000Y-40438311D01*
X90108693Y-37057005D01*
X90055830Y-36977890D01*
X89742417Y-36768474D01*
X89466039Y-36713499D01*
X89466038Y-36713499D01*
X89372721Y-36694937D01*
X89279404Y-36713499D01*
X81172318Y-36713499D01*
X81079001Y-36694937D01*
X80985683Y-36713499D01*
X80709305Y-36768474D01*
X80395892Y-36977890D01*
X80343031Y-37057002D01*
X78735034Y-38665000D01*
X78474452Y-38665000D01*
X77983783Y-38868242D01*
X77772879Y-39079146D01*
X77576759Y-38605672D01*
X76884328Y-37913241D01*
X75979623Y-37538500D01*
X75000377Y-37538500D01*
X74095672Y-37913241D01*
X73403241Y-38605672D01*
X73028500Y-39510377D01*
X73028500Y-40489623D01*
X73403241Y-41394328D01*
X74095672Y-42086759D01*
X75000377Y-42461500D01*
X75979623Y-42461500D01*
X76884328Y-42086759D01*
X77576759Y-41394328D01*
X77772879Y-40920854D01*
X77983783Y-41131758D01*
X78474452Y-41335000D01*
X79005548Y-41335000D01*
X79107094Y-41292938D01*
X72760035Y-47639999D01*
X67783311Y-47639999D01*
X67689998Y-47621438D01*
X67596685Y-47639999D01*
X67596681Y-47639999D01*
X67320303Y-47694974D01*
X67320301Y-47694975D01*
X67320302Y-47694975D01*
X67086000Y-47851530D01*
X67085999Y-47851531D01*
X67006890Y-47904390D01*
X66954031Y-47983499D01*
X58832005Y-56105527D01*
X58832002Y-56105529D01*
X57283503Y-57654029D01*
X57204391Y-57706890D01*
X57151530Y-57786002D01*
X56994974Y-58020304D01*
X56921437Y-58389999D01*
X55735000Y-58389999D01*
X55735000Y-35032731D01*
X55777598Y-34555431D01*
X57765000Y-34555431D01*
X57765000Y-35444569D01*
X58105259Y-36266026D01*
X58733974Y-36894741D01*
X59555431Y-37235000D01*
X60444569Y-37235000D01*
X61266026Y-36894741D01*
X61894741Y-36266026D01*
X62133442Y-35689750D01*
X97615000Y-35689750D01*
X97615000Y-36780310D01*
X97711673Y-37013699D01*
X97890302Y-37192327D01*
X98123691Y-37289000D01*
X99714250Y-37289000D01*
X99873000Y-37130250D01*
X99873000Y-35531000D01*
X100127000Y-35531000D01*
X100127000Y-37130250D01*
X100285750Y-37289000D01*
X101876309Y-37289000D01*
X102109698Y-37192327D01*
X102288327Y-37013699D01*
X102385000Y-36780310D01*
X102385000Y-36475866D01*
X110465000Y-36475866D01*
X110465000Y-37524134D01*
X110866155Y-38492608D01*
X111607392Y-39233845D01*
X112575866Y-39635000D01*
X113624134Y-39635000D01*
X114592608Y-39233845D01*
X115333845Y-38492608D01*
X115735000Y-37524134D01*
X115735000Y-36490866D01*
X119265000Y-36490866D01*
X119265000Y-37539134D01*
X119666155Y-38507608D01*
X120407392Y-39248845D01*
X121375866Y-39650000D01*
X122424134Y-39650000D01*
X123392608Y-39248845D01*
X124133845Y-38507608D01*
X124535000Y-37539134D01*
X124535000Y-36490866D01*
X124133845Y-35522392D01*
X123392608Y-34781155D01*
X122847662Y-34555431D01*
X137765000Y-34555431D01*
X137765000Y-35444569D01*
X138105259Y-36266026D01*
X138733974Y-36894741D01*
X139555431Y-37235000D01*
X140444569Y-37235000D01*
X141266026Y-36894741D01*
X141894741Y-36266026D01*
X142235000Y-35444569D01*
X142235000Y-34555431D01*
X141894741Y-33733974D01*
X141266026Y-33105259D01*
X140444569Y-32765000D01*
X139555431Y-32765000D01*
X138733974Y-33105259D01*
X138105259Y-33733974D01*
X137765000Y-34555431D01*
X122847662Y-34555431D01*
X122424134Y-34380000D01*
X121375866Y-34380000D01*
X120407392Y-34781155D01*
X119666155Y-35522392D01*
X119265000Y-36490866D01*
X115735000Y-36490866D01*
X115735000Y-36475866D01*
X115333845Y-35507392D01*
X114592608Y-34766155D01*
X113624134Y-34365000D01*
X112575866Y-34365000D01*
X111607392Y-34766155D01*
X110866155Y-35507392D01*
X110465000Y-36475866D01*
X102385000Y-36475866D01*
X102385000Y-35689750D01*
X102226250Y-35531000D01*
X100127000Y-35531000D01*
X99873000Y-35531000D01*
X97773750Y-35531000D01*
X97615000Y-35689750D01*
X62133442Y-35689750D01*
X62235000Y-35444569D01*
X62235000Y-34555431D01*
X62016403Y-34027690D01*
X97615000Y-34027690D01*
X97615000Y-35118250D01*
X97773750Y-35277000D01*
X99873000Y-35277000D01*
X99873000Y-33677750D01*
X100127000Y-33677750D01*
X100127000Y-35277000D01*
X102226250Y-35277000D01*
X102385000Y-35118250D01*
X102385000Y-34027690D01*
X102288327Y-33794301D01*
X102109698Y-33615673D01*
X101876309Y-33519000D01*
X100285750Y-33519000D01*
X100127000Y-33677750D01*
X99873000Y-33677750D01*
X99714250Y-33519000D01*
X98123691Y-33519000D01*
X97890302Y-33615673D01*
X97711673Y-33794301D01*
X97615000Y-34027690D01*
X62016403Y-34027690D01*
X61894741Y-33733974D01*
X61266026Y-33105259D01*
X60444569Y-32765000D01*
X59555431Y-32765000D01*
X58733974Y-33105259D01*
X58105259Y-33733974D01*
X57765000Y-34555431D01*
X55777598Y-34555431D01*
X55805281Y-34245253D01*
X56005231Y-33514357D01*
X56331450Y-32830425D01*
X56773626Y-32215072D01*
X57317789Y-31687741D01*
X57946726Y-31265114D01*
X58640570Y-30960537D01*
X59383039Y-30782285D01*
X60026949Y-30735000D01*
X139967269Y-30735000D01*
X140754747Y-30805281D01*
X140754747Y-30805281D01*
G37*
X140754747Y-30805281D02*
X141485643Y-31005231D01*
X142169575Y-31331450D01*
X142784928Y-31773626D01*
X143312259Y-32317789D01*
X143734886Y-32946726D01*
X144039463Y-33640570D01*
X144217715Y-34383039D01*
X144265000Y-35026949D01*
X144265001Y-139986810D01*
X144189634Y-142092345D01*
X143965335Y-144173970D01*
X143592779Y-146234234D01*
X143073870Y-148262597D01*
X142411274Y-150248645D01*
X141608366Y-152182261D01*
X140669274Y-154053507D01*
X139598785Y-155852836D01*
X138402401Y-157571009D01*
X137086217Y-159199262D01*
X135656998Y-160729233D01*
X134122043Y-162153108D01*
X132489220Y-163463585D01*
X130766874Y-164653973D01*
X128963821Y-165718172D01*
X127089308Y-166650728D01*
X125152901Y-167446881D01*
X123164547Y-168102542D01*
X121134394Y-168614365D01*
X119072830Y-168979730D01*
X116989798Y-169196827D01*
X114987502Y-169265000D01*
X85013163Y-169265000D01*
X82907655Y-169189634D01*
X80826030Y-168965335D01*
X78765766Y-168592779D01*
X76737403Y-168073870D01*
X74751355Y-167411274D01*
X72817739Y-166608366D01*
X70946493Y-165669274D01*
X69147164Y-164598785D01*
X68434882Y-164102814D01*
X81930240Y-164102814D01*
X81930240Y-164852586D01*
X82217165Y-165545285D01*
X82747335Y-166075455D01*
X83440034Y-166362380D01*
X84189806Y-166362380D01*
X84882505Y-166075455D01*
X85412675Y-165545285D01*
X85699600Y-164852586D01*
X85699600Y-164102814D01*
X91932760Y-164102814D01*
X91932760Y-164852586D01*
X92219685Y-165545285D01*
X92749855Y-166075455D01*
X93442554Y-166362380D01*
X94192326Y-166362380D01*
X94885025Y-166075455D01*
X95415195Y-165545285D01*
X95702120Y-164852586D01*
X95702120Y-164521914D01*
X104790240Y-164521914D01*
X104790240Y-165271686D01*
X105077165Y-165964385D01*
X105607335Y-166494555D01*
X106300034Y-166781480D01*
X107049806Y-166781480D01*
X107742505Y-166494555D01*
X108272675Y-165964385D01*
X108559600Y-165271686D01*
X108559600Y-164521914D01*
X114792760Y-164521914D01*
X114792760Y-165271686D01*
X115079685Y-165964385D01*
X115609855Y-166494555D01*
X116302554Y-166781480D01*
X117052326Y-166781480D01*
X117745025Y-166494555D01*
X118275195Y-165964385D01*
X118562120Y-165271686D01*
X118562120Y-164521914D01*
X118275195Y-163829215D01*
X117745025Y-163299045D01*
X117052326Y-163012120D01*
X116302554Y-163012120D01*
X115609855Y-163299045D01*
X115079685Y-163829215D01*
X114792760Y-164521914D01*
X108559600Y-164521914D01*
X108272675Y-163829215D01*
X107742505Y-163299045D01*
X107049806Y-163012120D01*
X106300034Y-163012120D01*
X105607335Y-163299045D01*
X105077165Y-163829215D01*
X104790240Y-164521914D01*
X95702120Y-164521914D01*
X95702120Y-164102814D01*
X95415195Y-163410115D01*
X94885025Y-162879945D01*
X94192326Y-162593020D01*
X93442554Y-162593020D01*
X92749855Y-162879945D01*
X92219685Y-163410115D01*
X91932760Y-164102814D01*
X85699600Y-164102814D01*
X85412675Y-163410115D01*
X84882505Y-162879945D01*
X84189806Y-162593020D01*
X83440034Y-162593020D01*
X82747335Y-162879945D01*
X82217165Y-163410115D01*
X81930240Y-164102814D01*
X68434882Y-164102814D01*
X67428991Y-163402401D01*
X65800738Y-162086217D01*
X64270767Y-160656998D01*
X63248918Y-159555431D01*
X67765000Y-159555431D01*
X67765000Y-160444569D01*
X68105259Y-161266026D01*
X68733974Y-161894741D01*
X69555431Y-162235000D01*
X70444569Y-162235000D01*
X71266026Y-161894741D01*
X71894741Y-161266026D01*
X72235000Y-160444569D01*
X72235000Y-159555431D01*
X127765000Y-159555431D01*
X127765000Y-160444569D01*
X128105259Y-161266026D01*
X128733974Y-161894741D01*
X129555431Y-162235000D01*
X130444569Y-162235000D01*
X131266026Y-161894741D01*
X131894741Y-161266026D01*
X132235000Y-160444569D01*
X132235000Y-159555431D01*
X131894741Y-158733974D01*
X131266026Y-158105259D01*
X130444569Y-157765000D01*
X129555431Y-157765000D01*
X128733974Y-158105259D01*
X128105259Y-158733974D01*
X127765000Y-159555431D01*
X72235000Y-159555431D01*
X71894741Y-158733974D01*
X71266026Y-158105259D01*
X70444569Y-157765000D01*
X69555431Y-157765000D01*
X68733974Y-158105259D01*
X68105259Y-158733974D01*
X67765000Y-159555431D01*
X63248918Y-159555431D01*
X62846892Y-159122043D01*
X61536415Y-157489220D01*
X60346027Y-155766874D01*
X59281828Y-153963821D01*
X58349272Y-152089308D01*
X57553119Y-150152901D01*
X56897458Y-148164547D01*
X56385635Y-146134394D01*
X56020270Y-144072830D01*
X55803173Y-141989798D01*
X55735000Y-139987502D01*
X55735000Y-104555431D01*
X57765000Y-104555431D01*
X57765000Y-105444569D01*
X58105259Y-106266026D01*
X58733974Y-106894741D01*
X59555431Y-107235000D01*
X60444569Y-107235000D01*
X61266026Y-106894741D01*
X61894741Y-106266026D01*
X62235000Y-105444569D01*
X62235000Y-104555431D01*
X61894741Y-103733974D01*
X61266026Y-103105259D01*
X60444569Y-102765000D01*
X59555431Y-102765000D01*
X58733974Y-103105259D01*
X58105259Y-103733974D01*
X57765000Y-104555431D01*
X55735000Y-104555431D01*
X55735000Y-58389999D01*
X56921437Y-58389999D01*
X56940000Y-58483321D01*
X56939999Y-95729242D01*
X56921437Y-95822559D01*
X56939999Y-95915876D01*
X56994974Y-96192254D01*
X57204390Y-96505668D01*
X57283505Y-96558531D01*
X59646667Y-98921695D01*
X60012941Y-99287969D01*
X60012947Y-99287973D01*
X68008970Y-107283997D01*
X68061831Y-107363109D01*
X68256020Y-107492862D01*
X68375244Y-107572525D01*
X68722500Y-107641598D01*
X68722500Y-108430060D01*
X68771783Y-108677825D01*
X68912131Y-108887869D01*
X69122175Y-109028217D01*
X69369940Y-109077500D01*
X72870060Y-109077500D01*
X73117825Y-109028217D01*
X73327869Y-108887869D01*
X73364939Y-108832390D01*
X73364940Y-112951085D01*
X73350051Y-113025937D01*
X73409036Y-113322474D01*
X73527558Y-113499854D01*
X73577011Y-113573866D01*
X73640467Y-113616266D01*
X76804999Y-116780799D01*
X76804999Y-117998254D01*
X76779418Y-117981161D01*
X76346256Y-117895000D01*
X76053744Y-117895000D01*
X75620582Y-117981161D01*
X75129375Y-118309375D01*
X74930000Y-118607761D01*
X74730625Y-118309375D01*
X74239418Y-117981161D01*
X73806256Y-117895000D01*
X73513744Y-117895000D01*
X73080582Y-117981161D01*
X72589375Y-118309375D01*
X72390000Y-118607761D01*
X72190625Y-118309375D01*
X71699418Y-117981161D01*
X71266256Y-117895000D01*
X71139803Y-117895000D01*
X71434803Y-117600000D01*
X74226289Y-117600000D01*
X74343720Y-117717431D01*
X74724126Y-117875000D01*
X75135874Y-117875000D01*
X75516280Y-117717431D01*
X75807431Y-117426280D01*
X75965000Y-117045874D01*
X75965000Y-116634126D01*
X75807431Y-116253720D01*
X75516280Y-115962569D01*
X75135874Y-115805000D01*
X74724126Y-115805000D01*
X74343720Y-115962569D01*
X74226289Y-116080000D01*
X71194846Y-116080000D01*
X71119999Y-116065112D01*
X71045152Y-116080000D01*
X71045148Y-116080000D01*
X70823463Y-116124096D01*
X70823461Y-116124097D01*
X70823462Y-116124097D01*
X70635526Y-116249671D01*
X70635524Y-116249673D01*
X70572071Y-116292071D01*
X70529673Y-116355524D01*
X68946408Y-117938791D01*
X68726256Y-117895000D01*
X68433744Y-117895000D01*
X68000582Y-117981161D01*
X67509375Y-118309375D01*
X67497184Y-118327619D01*
X67488157Y-118282235D01*
X67347809Y-118072191D01*
X67137765Y-117931843D01*
X66890000Y-117882560D01*
X65190000Y-117882560D01*
X64942235Y-117931843D01*
X64732191Y-118072191D01*
X64591843Y-118282235D01*
X64542560Y-118530000D01*
X64542560Y-120230000D01*
X64591843Y-120477765D01*
X64732191Y-120687809D01*
X64942235Y-120828157D01*
X65056972Y-120850979D01*
X65005423Y-120885423D01*
X64830531Y-121147168D01*
X64792833Y-121056157D01*
X64363843Y-120627167D01*
X63803341Y-120395000D01*
X63196659Y-120395000D01*
X62636157Y-120627167D01*
X62207167Y-121056157D01*
X61975000Y-121616659D01*
X61975000Y-122223341D01*
X62207167Y-122783843D01*
X62636157Y-123212833D01*
X63196659Y-123445000D01*
X63803341Y-123445000D01*
X64363843Y-123212833D01*
X64792833Y-122783843D01*
X64830531Y-122692832D01*
X65005423Y-122954577D01*
X65480091Y-123271740D01*
X65898667Y-123355000D01*
X66181333Y-123355000D01*
X66599909Y-123271740D01*
X67074577Y-122954577D01*
X67310000Y-122602242D01*
X67545423Y-122954577D01*
X68020091Y-123271740D01*
X68438667Y-123355000D01*
X68721333Y-123355000D01*
X69139909Y-123271740D01*
X69614577Y-122954577D01*
X69850000Y-122602242D01*
X70085423Y-122954577D01*
X70560091Y-123271740D01*
X70978667Y-123355000D01*
X71261333Y-123355000D01*
X71679909Y-123271740D01*
X72154577Y-122954577D01*
X72390000Y-122602242D01*
X72625423Y-122954577D01*
X73100091Y-123271740D01*
X73518667Y-123355000D01*
X73801333Y-123355000D01*
X74219909Y-123271740D01*
X74694577Y-122954577D01*
X74930000Y-122602242D01*
X75165423Y-122954577D01*
X75640091Y-123271740D01*
X76058667Y-123355000D01*
X76341333Y-123355000D01*
X76759909Y-123271740D01*
X76804999Y-123241612D01*
X76805000Y-135838389D01*
X76759909Y-135808260D01*
X76341333Y-135725000D01*
X76058667Y-135725000D01*
X75640091Y-135808260D01*
X75165423Y-136125423D01*
X74930000Y-136477758D01*
X74694577Y-136125423D01*
X74219909Y-135808260D01*
X73801333Y-135725000D01*
X73518667Y-135725000D01*
X73100091Y-135808260D01*
X72625423Y-136125423D01*
X72390000Y-136477758D01*
X72154577Y-136125423D01*
X71679909Y-135808260D01*
X71261333Y-135725000D01*
X70978667Y-135725000D01*
X70560091Y-135808260D01*
X70085423Y-136125423D01*
X69850000Y-136477758D01*
X69614577Y-136125423D01*
X69139909Y-135808260D01*
X68721333Y-135725000D01*
X68438667Y-135725000D01*
X68020091Y-135808260D01*
X67545423Y-136125423D01*
X67310000Y-136477758D01*
X67074577Y-136125423D01*
X66599909Y-135808260D01*
X66181333Y-135725000D01*
X65898667Y-135725000D01*
X65480091Y-135808260D01*
X65005423Y-136125423D01*
X64830531Y-136387168D01*
X64792833Y-136296157D01*
X64363843Y-135867167D01*
X63803341Y-135635000D01*
X63196659Y-135635000D01*
X62636157Y-135867167D01*
X62207167Y-136296157D01*
X61975000Y-136856659D01*
X61975000Y-137463341D01*
X62207167Y-138023843D01*
X62636157Y-138452833D01*
X63196659Y-138685000D01*
X63803341Y-138685000D01*
X64363843Y-138452833D01*
X64792833Y-138023843D01*
X64830531Y-137932832D01*
X65005423Y-138194577D01*
X65056972Y-138229021D01*
X64942235Y-138251843D01*
X64732191Y-138392191D01*
X64591843Y-138602235D01*
X64542560Y-138850000D01*
X64542560Y-140550000D01*
X64591843Y-140797765D01*
X64732191Y-141007809D01*
X64942235Y-141148157D01*
X65190000Y-141197440D01*
X66890000Y-141197440D01*
X67137765Y-141148157D01*
X67347809Y-141007809D01*
X67488157Y-140797765D01*
X67497184Y-140752381D01*
X67509375Y-140770625D01*
X68000582Y-141098839D01*
X68433744Y-141185000D01*
X68726256Y-141185000D01*
X69159418Y-141098839D01*
X69650625Y-140770625D01*
X69850000Y-140472239D01*
X70049375Y-140770625D01*
X70540582Y-141098839D01*
X70973744Y-141185000D01*
X71266256Y-141185000D01*
X71699418Y-141098839D01*
X72190625Y-140770625D01*
X72390000Y-140472239D01*
X72589375Y-140770625D01*
X72900000Y-140978178D01*
X72900001Y-149716787D01*
X72885112Y-149791639D01*
X72900001Y-149866491D01*
X72913873Y-149936231D01*
X72944097Y-150088176D01*
X73035090Y-150224356D01*
X73112072Y-150339568D01*
X73175528Y-150381968D01*
X80204626Y-157411068D01*
X80247022Y-157474518D01*
X80310472Y-157516914D01*
X80310477Y-157516919D01*
X80498413Y-157642493D01*
X80794950Y-157701478D01*
X80869802Y-157686589D01*
X126929194Y-157686591D01*
X127004041Y-157701479D01*
X127078888Y-157686591D01*
X127078892Y-157686591D01*
X127300577Y-157642495D01*
X127551969Y-157474520D01*
X127594369Y-157411064D01*
X142859485Y-142145949D01*
X142922938Y-142103551D01*
X142965336Y-142040098D01*
X142965339Y-142040095D01*
X143090914Y-141852160D01*
X143149898Y-141555622D01*
X143135009Y-141480769D01*
X143135011Y-73600856D01*
X143149899Y-73526009D01*
X143135011Y-73451162D01*
X143135011Y-73451158D01*
X143090915Y-73229473D01*
X143039197Y-73152071D01*
X142965340Y-73041536D01*
X142965338Y-73041534D01*
X142922940Y-72978081D01*
X142859487Y-72935683D01*
X139244334Y-69320531D01*
X139201932Y-69257072D01*
X138950540Y-69089097D01*
X138728855Y-69045001D01*
X138728850Y-69045001D01*
X138654003Y-69030113D01*
X138579156Y-69045001D01*
X138544382Y-69045001D01*
X138626458Y-68820664D01*
X138600839Y-68210540D01*
X138416643Y-67765852D01*
X138160159Y-67679446D01*
X137259605Y-68580000D01*
X137273748Y-68594143D01*
X137094143Y-68773748D01*
X137080000Y-68759605D01*
X137065858Y-68773748D01*
X136886253Y-68594143D01*
X136900395Y-68580000D01*
X135999841Y-67679446D01*
X135884539Y-67718290D01*
X135881310Y-67710493D01*
X135670658Y-67499841D01*
X136179446Y-67499841D01*
X137080000Y-68400395D01*
X137980554Y-67499841D01*
X137894148Y-67243357D01*
X137320664Y-67033542D01*
X136710540Y-67059161D01*
X136265852Y-67243357D01*
X136179446Y-67499841D01*
X135670658Y-67499841D01*
X135449507Y-67278690D01*
X134885330Y-67045000D01*
X134274670Y-67045000D01*
X133710493Y-67278690D01*
X133330000Y-67659183D01*
X132949507Y-67278690D01*
X132385330Y-67045000D01*
X131884967Y-67045000D01*
X131403471Y-66563504D01*
X131350608Y-66484390D01*
X131037195Y-66274974D01*
X130760817Y-66219999D01*
X130760816Y-66219999D01*
X130667499Y-66201437D01*
X130574182Y-66219999D01*
X118345813Y-66219999D01*
X118252500Y-66201438D01*
X118159188Y-66219999D01*
X118159183Y-66219999D01*
X117882805Y-66274974D01*
X117569392Y-66484390D01*
X117516531Y-66563502D01*
X117035033Y-67045000D01*
X116534670Y-67045000D01*
X115970493Y-67278690D01*
X115538690Y-67710493D01*
X115305000Y-68274670D01*
X115305000Y-68885330D01*
X115538690Y-69449507D01*
X115892501Y-69803318D01*
X115892501Y-80144701D01*
X115429913Y-79573958D01*
X114780611Y-79221779D01*
X114639645Y-79192305D01*
X114347000Y-79308428D01*
X114347000Y-81153000D01*
X114367000Y-81153000D01*
X114367000Y-81407000D01*
X114347000Y-81407000D01*
X114347000Y-83251572D01*
X114639645Y-83367695D01*
X114780611Y-83338221D01*
X115429913Y-82986042D01*
X115892501Y-82415299D01*
X115892500Y-92644701D01*
X115429913Y-92073958D01*
X114780611Y-91721779D01*
X114639645Y-91692305D01*
X114347000Y-91808428D01*
X114347000Y-93653000D01*
X114367000Y-93653000D01*
X114367000Y-93907000D01*
X114347000Y-93907000D01*
X114347000Y-95751572D01*
X114639645Y-95867695D01*
X114780611Y-95838221D01*
X115429913Y-95486042D01*
X115892500Y-94915299D01*
X115892500Y-97767532D01*
X110624965Y-103035068D01*
X110413720Y-103122569D01*
X110122569Y-103413720D01*
X109965000Y-103794126D01*
X109965000Y-104205874D01*
X110122569Y-104586280D01*
X110413720Y-104877431D01*
X110794126Y-105035000D01*
X111205874Y-105035000D01*
X111586280Y-104877431D01*
X111877431Y-104586280D01*
X111964932Y-104375035D01*
X117444000Y-98895968D01*
X117523109Y-98843109D01*
X117732525Y-98529696D01*
X117787500Y-98253318D01*
X117787500Y-98253314D01*
X117806061Y-98160001D01*
X117787500Y-98066688D01*
X117787500Y-80844345D01*
X120035000Y-80844345D01*
X120035000Y-81715654D01*
X120144369Y-82265489D01*
X120560991Y-82889009D01*
X121160001Y-83289255D01*
X121160000Y-91770747D01*
X120560991Y-92170991D01*
X120144369Y-92794510D01*
X120035000Y-93344345D01*
X120035000Y-94215654D01*
X120144369Y-94765489D01*
X120560991Y-95389009D01*
X121184510Y-95805631D01*
X121920000Y-95951929D01*
X122655489Y-95805631D01*
X123279009Y-95389009D01*
X123695631Y-94765490D01*
X123805000Y-94215655D01*
X123805000Y-94204040D01*
X125034885Y-94204040D01*
X125244983Y-94912194D01*
X125710087Y-95486042D01*
X126359389Y-95838221D01*
X126500355Y-95867695D01*
X126793000Y-95751572D01*
X126793000Y-93907000D01*
X127047000Y-93907000D01*
X127047000Y-95751572D01*
X127339645Y-95867695D01*
X127480611Y-95838221D01*
X128129913Y-95486042D01*
X128595017Y-94912194D01*
X128805115Y-94204040D01*
X128650382Y-93907000D01*
X127047000Y-93907000D01*
X126793000Y-93907000D01*
X125189618Y-93907000D01*
X125034885Y-94204040D01*
X123805000Y-94204040D01*
X123805000Y-93355960D01*
X125034885Y-93355960D01*
X125189618Y-93653000D01*
X126793000Y-93653000D01*
X126793000Y-91808428D01*
X127047000Y-91808428D01*
X127047000Y-93653000D01*
X128650382Y-93653000D01*
X128805115Y-93355960D01*
X128595017Y-92647806D01*
X128129913Y-92073958D01*
X127480611Y-91721779D01*
X127339645Y-91692305D01*
X127047000Y-91808428D01*
X126793000Y-91808428D01*
X126500355Y-91692305D01*
X126359389Y-91721779D01*
X125710087Y-92073958D01*
X125244983Y-92647806D01*
X125034885Y-93355960D01*
X123805000Y-93355960D01*
X123805000Y-93344346D01*
X123695631Y-92794510D01*
X123279009Y-92170991D01*
X122680000Y-91770746D01*
X122680000Y-83289253D01*
X123279009Y-82889009D01*
X123695631Y-82265490D01*
X123805000Y-81715655D01*
X123805000Y-81704040D01*
X125034885Y-81704040D01*
X125244983Y-82412194D01*
X125710087Y-82986042D01*
X126359389Y-83338221D01*
X126500355Y-83367695D01*
X126793000Y-83251572D01*
X126793000Y-81407000D01*
X127047000Y-81407000D01*
X127047000Y-83251572D01*
X127339645Y-83367695D01*
X127480611Y-83338221D01*
X128129913Y-82986042D01*
X128595017Y-82412194D01*
X128805115Y-81704040D01*
X128650382Y-81407000D01*
X127047000Y-81407000D01*
X126793000Y-81407000D01*
X125189618Y-81407000D01*
X125034885Y-81704040D01*
X123805000Y-81704040D01*
X123805000Y-80855960D01*
X125034885Y-80855960D01*
X125189618Y-81153000D01*
X126793000Y-81153000D01*
X126793000Y-79308428D01*
X127047000Y-79308428D01*
X127047000Y-81153000D01*
X128650382Y-81153000D01*
X128805115Y-80855960D01*
X128801670Y-80844345D01*
X132735000Y-80844345D01*
X132735000Y-81715654D01*
X132844369Y-82265489D01*
X133260991Y-82889009D01*
X133860001Y-83289255D01*
X133860000Y-91770747D01*
X133260991Y-92170991D01*
X132844369Y-92794510D01*
X132735000Y-93344345D01*
X132735000Y-94215654D01*
X132844369Y-94765489D01*
X133260991Y-95389009D01*
X133884510Y-95805631D01*
X134620000Y-95951929D01*
X135355489Y-95805631D01*
X135979009Y-95389009D01*
X136395631Y-94765490D01*
X136505000Y-94215655D01*
X136505000Y-94204040D01*
X137734885Y-94204040D01*
X137944983Y-94912194D01*
X138410087Y-95486042D01*
X139059389Y-95838221D01*
X139200355Y-95867695D01*
X139493000Y-95751572D01*
X139493000Y-93907000D01*
X137889618Y-93907000D01*
X137734885Y-94204040D01*
X136505000Y-94204040D01*
X136505000Y-93355960D01*
X137734885Y-93355960D01*
X137889618Y-93653000D01*
X139493000Y-93653000D01*
X139493000Y-91808428D01*
X139200355Y-91692305D01*
X139059389Y-91721779D01*
X138410087Y-92073958D01*
X137944983Y-92647806D01*
X137734885Y-93355960D01*
X136505000Y-93355960D01*
X136505000Y-93344346D01*
X136395631Y-92794510D01*
X135979009Y-92170991D01*
X135380000Y-91770746D01*
X135380000Y-83289253D01*
X135979009Y-82889009D01*
X136395631Y-82265490D01*
X136505000Y-81715655D01*
X136505000Y-81704040D01*
X137734885Y-81704040D01*
X137944983Y-82412194D01*
X138410087Y-82986042D01*
X139059389Y-83338221D01*
X139200355Y-83367695D01*
X139493000Y-83251572D01*
X139493000Y-81407000D01*
X137889618Y-81407000D01*
X137734885Y-81704040D01*
X136505000Y-81704040D01*
X136505000Y-80844346D01*
X136395631Y-80294510D01*
X135979009Y-79670991D01*
X135355490Y-79254369D01*
X134620000Y-79108071D01*
X133884511Y-79254369D01*
X133260991Y-79670991D01*
X132844369Y-80294510D01*
X132735000Y-80844345D01*
X128801670Y-80844345D01*
X128595017Y-80147806D01*
X128129913Y-79573958D01*
X127480611Y-79221779D01*
X127339645Y-79192305D01*
X127047000Y-79308428D01*
X126793000Y-79308428D01*
X126500355Y-79192305D01*
X126359389Y-79221779D01*
X125710087Y-79573958D01*
X125244983Y-80147806D01*
X125034885Y-80855960D01*
X123805000Y-80855960D01*
X123805000Y-80844346D01*
X123695631Y-80294510D01*
X123279009Y-79670991D01*
X122655490Y-79254369D01*
X121920000Y-79108071D01*
X121184511Y-79254369D01*
X120560991Y-79670991D01*
X120144369Y-80294510D01*
X120035000Y-80844345D01*
X117787500Y-80844345D01*
X117787500Y-69803317D01*
X118090000Y-69500817D01*
X118470493Y-69881310D01*
X119034670Y-70115000D01*
X119645330Y-70115000D01*
X119754838Y-70069640D01*
X119974671Y-70289473D01*
X120017072Y-70352930D01*
X120268464Y-70520905D01*
X120490149Y-70565001D01*
X120490153Y-70565001D01*
X120565000Y-70579889D01*
X120639847Y-70565001D01*
X130307600Y-70565001D01*
X138997789Y-79255191D01*
X138410087Y-79573958D01*
X137944983Y-80147806D01*
X137734885Y-80855960D01*
X137889618Y-81153000D01*
X139493000Y-81153000D01*
X139493000Y-81133000D01*
X139747000Y-81133000D01*
X139747000Y-81153000D01*
X139767000Y-81153000D01*
X139767000Y-81407000D01*
X139747000Y-81407000D01*
X139747000Y-83251572D01*
X140039645Y-83367695D01*
X140180611Y-83338221D01*
X140829913Y-82986042D01*
X141165001Y-82572608D01*
X141165001Y-92487392D01*
X140829913Y-92073958D01*
X140180611Y-91721779D01*
X140039645Y-91692305D01*
X139747000Y-91808428D01*
X139747000Y-93653000D01*
X139767000Y-93653000D01*
X139767000Y-93907000D01*
X139747000Y-93907000D01*
X139747000Y-95751572D01*
X140039645Y-95867695D01*
X140180611Y-95838221D01*
X140829913Y-95486042D01*
X141165001Y-95072608D01*
X141165001Y-103063413D01*
X140444569Y-102765000D01*
X139555431Y-102765000D01*
X138733974Y-103105259D01*
X138105259Y-103733974D01*
X137765000Y-104555431D01*
X137765000Y-105444569D01*
X138105259Y-106266026D01*
X138733974Y-106894741D01*
X139555431Y-107235000D01*
X140444569Y-107235000D01*
X141165001Y-106936587D01*
X141165002Y-141054417D01*
X132001500Y-150217920D01*
X132001500Y-150080377D01*
X131626759Y-149175672D01*
X130934328Y-148483241D01*
X130460854Y-148287121D01*
X130671758Y-148076217D01*
X130875000Y-147585548D01*
X130875000Y-147054452D01*
X130671758Y-146563783D01*
X130296217Y-146188242D01*
X129805548Y-145985000D01*
X129274452Y-145985000D01*
X128783783Y-146188242D01*
X128408242Y-146563783D01*
X128205000Y-147054452D01*
X128205000Y-147585548D01*
X128408242Y-148076217D01*
X128619146Y-148287121D01*
X128145672Y-148483241D01*
X127453241Y-149175672D01*
X127078500Y-150080377D01*
X127078500Y-151059623D01*
X127453241Y-151964328D01*
X128145672Y-152656759D01*
X129050377Y-153031500D01*
X129187921Y-153031500D01*
X126502840Y-155716581D01*
X120876771Y-155716581D01*
X121058940Y-155276786D01*
X121058940Y-154527014D01*
X120772015Y-153834315D01*
X120241845Y-153304145D01*
X119549146Y-153017220D01*
X118799374Y-153017220D01*
X118385684Y-153188576D01*
X118557040Y-152774886D01*
X118557040Y-152025114D01*
X118270115Y-151332415D01*
X117739945Y-150802245D01*
X117432360Y-150674839D01*
X117432360Y-148650057D01*
X117874577Y-148354577D01*
X118191740Y-147879909D01*
X118303113Y-147320000D01*
X118191740Y-146760091D01*
X117874577Y-146285423D01*
X117399909Y-145968260D01*
X116981333Y-145885000D01*
X116698667Y-145885000D01*
X116280091Y-145968260D01*
X115805423Y-146285423D01*
X115488260Y-146760091D01*
X115376887Y-147320000D01*
X115488260Y-147879909D01*
X115805423Y-148354577D01*
X115912361Y-148426031D01*
X115912360Y-150674839D01*
X115604775Y-150802245D01*
X115074605Y-151332415D01*
X114787680Y-152025114D01*
X114787680Y-152774886D01*
X115074605Y-153467585D01*
X115604775Y-153997755D01*
X116297474Y-154284680D01*
X117047246Y-154284680D01*
X117460936Y-154113324D01*
X117289580Y-154527014D01*
X117289580Y-155276786D01*
X117471749Y-155716581D01*
X113377639Y-155716581D01*
X113560860Y-155274246D01*
X113560860Y-154524474D01*
X113273935Y-153831775D01*
X112743765Y-153301605D01*
X112051066Y-153014680D01*
X111301294Y-153014680D01*
X110608595Y-153301605D01*
X110078425Y-153831775D01*
X109791500Y-154524474D01*
X109791500Y-155274246D01*
X109974721Y-155716581D01*
X105880611Y-155716581D01*
X106062780Y-155276786D01*
X106062780Y-154527014D01*
X105891424Y-154113324D01*
X106305114Y-154284680D01*
X107054886Y-154284680D01*
X107747585Y-153997755D01*
X108277755Y-153467585D01*
X108564680Y-152774886D01*
X108564680Y-152025114D01*
X108437274Y-151717527D01*
X117324473Y-142830329D01*
X117387929Y-142787929D01*
X117465748Y-142671465D01*
X117555904Y-142536538D01*
X117571666Y-142457296D01*
X117600000Y-142314852D01*
X117600000Y-142314848D01*
X117614888Y-142240000D01*
X117600000Y-142165152D01*
X117600000Y-137580377D01*
X127078500Y-137580377D01*
X127078500Y-138559623D01*
X127453241Y-139464328D01*
X128145672Y-140156759D01*
X128619146Y-140352879D01*
X128408242Y-140563783D01*
X128205000Y-141054452D01*
X128205000Y-141585548D01*
X128408242Y-142076217D01*
X128783783Y-142451758D01*
X129274452Y-142655000D01*
X129805548Y-142655000D01*
X130296217Y-142451758D01*
X130671758Y-142076217D01*
X130875000Y-141585548D01*
X130875000Y-141054452D01*
X130671758Y-140563783D01*
X130460854Y-140352879D01*
X130934328Y-140156759D01*
X131626759Y-139464328D01*
X132001500Y-138559623D01*
X132001500Y-137580377D01*
X131626759Y-136675672D01*
X130934328Y-135983241D01*
X130029623Y-135608500D01*
X129050377Y-135608500D01*
X128145672Y-135983241D01*
X127453241Y-136675672D01*
X127078500Y-137580377D01*
X117600000Y-137580377D01*
X117600000Y-128218043D01*
X117874577Y-128034577D01*
X118058043Y-127760000D01*
X119305153Y-127760000D01*
X119380000Y-127774888D01*
X119454847Y-127760000D01*
X119454852Y-127760000D01*
X119676537Y-127715904D01*
X119927929Y-127547929D01*
X119970331Y-127484470D01*
X120457405Y-126997397D01*
X120456887Y-127000000D01*
X120568260Y-127559909D01*
X120885423Y-128034577D01*
X121360091Y-128351740D01*
X121778667Y-128435000D01*
X122061333Y-128435000D01*
X122479909Y-128351740D01*
X122954577Y-128034577D01*
X123271740Y-127559909D01*
X123313684Y-127349039D01*
X128148096Y-127349039D01*
X128308959Y-127737423D01*
X128684866Y-128152389D01*
X129190959Y-128391914D01*
X129413000Y-128270629D01*
X129413000Y-127127000D01*
X129667000Y-127127000D01*
X129667000Y-128270629D01*
X129889041Y-128391914D01*
X130395134Y-128152389D01*
X130771041Y-127737423D01*
X130931904Y-127349039D01*
X130809915Y-127127000D01*
X129667000Y-127127000D01*
X129413000Y-127127000D01*
X128270085Y-127127000D01*
X128148096Y-127349039D01*
X123313684Y-127349039D01*
X123383113Y-127000000D01*
X123271740Y-126440091D01*
X122954577Y-125965423D01*
X122602242Y-125730000D01*
X122954577Y-125494577D01*
X123271740Y-125019909D01*
X123383113Y-124460000D01*
X123271740Y-123900091D01*
X122954577Y-123425423D01*
X122602242Y-123190000D01*
X122954577Y-122954577D01*
X123271740Y-122479909D01*
X123383113Y-121920000D01*
X123271740Y-121360091D01*
X122954577Y-120885423D01*
X122833894Y-120804785D01*
X122967765Y-120778157D01*
X123177809Y-120637809D01*
X123318157Y-120427765D01*
X123367440Y-120180000D01*
X123367440Y-119014999D01*
X127835032Y-119014999D01*
X128097318Y-119277285D01*
X128076887Y-119380000D01*
X128188260Y-119939909D01*
X128505423Y-120414577D01*
X128857758Y-120650000D01*
X128505423Y-120885423D01*
X128188260Y-121360091D01*
X128076887Y-121920000D01*
X128188260Y-122479909D01*
X128505423Y-122954577D01*
X128857758Y-123190000D01*
X128505423Y-123425423D01*
X128188260Y-123900091D01*
X128076887Y-124460000D01*
X128188260Y-125019909D01*
X128505423Y-125494577D01*
X128889108Y-125750947D01*
X128684866Y-125847611D01*
X128308959Y-126262577D01*
X128148096Y-126650961D01*
X128270085Y-126873000D01*
X129413000Y-126873000D01*
X129413000Y-126853000D01*
X129667000Y-126853000D01*
X129667000Y-126873000D01*
X130809915Y-126873000D01*
X130834128Y-126828929D01*
X133221312Y-129216114D01*
X133156887Y-129540000D01*
X133268260Y-130099909D01*
X133585423Y-130574577D01*
X133860001Y-130758044D01*
X133860000Y-138925198D01*
X129800199Y-142985000D01*
X129274452Y-142985000D01*
X128783783Y-143188242D01*
X128408242Y-143563783D01*
X128205000Y-144054452D01*
X128205000Y-144585548D01*
X128408242Y-145076217D01*
X128783783Y-145451758D01*
X129274452Y-145655000D01*
X129805548Y-145655000D01*
X130296217Y-145451758D01*
X130671758Y-145076217D01*
X130875000Y-144585548D01*
X130875000Y-144059801D01*
X135104473Y-139830329D01*
X135167929Y-139787929D01*
X135335904Y-139536537D01*
X135380000Y-139314852D01*
X135380000Y-139314847D01*
X135394888Y-139240000D01*
X135380000Y-139165153D01*
X135380000Y-130758043D01*
X135654577Y-130574577D01*
X135672505Y-130547745D01*
X136331861Y-130547745D01*
X136405995Y-130793864D01*
X136943223Y-130986965D01*
X137513454Y-130959778D01*
X137914005Y-130793864D01*
X137988139Y-130547745D01*
X137160000Y-129719605D01*
X136331861Y-130547745D01*
X135672505Y-130547745D01*
X135881611Y-130234797D01*
X135906136Y-130294005D01*
X136152255Y-130368139D01*
X136980395Y-129540000D01*
X137339605Y-129540000D01*
X138167745Y-130368139D01*
X138413864Y-130294005D01*
X138606965Y-129756777D01*
X138579778Y-129186546D01*
X138413864Y-128785995D01*
X138167745Y-128711861D01*
X137339605Y-129540000D01*
X136980395Y-129540000D01*
X136152255Y-128711861D01*
X135906136Y-128785995D01*
X135883720Y-128848359D01*
X135672506Y-128532255D01*
X136331861Y-128532255D01*
X137160000Y-129360395D01*
X137988139Y-128532255D01*
X137914005Y-128286136D01*
X137376777Y-128093035D01*
X136806546Y-128120222D01*
X136405995Y-128286136D01*
X136331861Y-128532255D01*
X135672506Y-128532255D01*
X135654577Y-128505423D01*
X135179909Y-128188260D01*
X134761333Y-128105000D01*
X134478667Y-128105000D01*
X134296114Y-128141312D01*
X130938688Y-124783887D01*
X131003113Y-124460000D01*
X130891740Y-123900091D01*
X130574577Y-123425423D01*
X130222242Y-123190000D01*
X130574577Y-122954577D01*
X130758043Y-122680000D01*
X134545153Y-122680000D01*
X134620000Y-122694888D01*
X134694847Y-122680000D01*
X134694852Y-122680000D01*
X134916537Y-122635904D01*
X135167929Y-122467929D01*
X135210331Y-122404470D01*
X136836114Y-120778688D01*
X137018667Y-120815000D01*
X137301333Y-120815000D01*
X137719909Y-120731740D01*
X138194577Y-120414577D01*
X138511740Y-119939909D01*
X138623113Y-119380000D01*
X138511740Y-118820091D01*
X138194577Y-118345423D01*
X137719909Y-118028260D01*
X137301333Y-117945000D01*
X137018667Y-117945000D01*
X136600091Y-118028260D01*
X136125423Y-118345423D01*
X135890394Y-118697168D01*
X135836534Y-118567138D01*
X135432862Y-118163466D01*
X134905439Y-117945000D01*
X134334561Y-117945000D01*
X133807138Y-118163466D01*
X133538104Y-118432500D01*
X130632760Y-118432500D01*
X130574577Y-118345423D01*
X130099909Y-118028260D01*
X129681333Y-117945000D01*
X129444967Y-117945000D01*
X128963471Y-117463504D01*
X128910608Y-117384390D01*
X128597195Y-117174974D01*
X128320817Y-117119999D01*
X128320816Y-117119999D01*
X128227499Y-117101437D01*
X128134182Y-117119999D01*
X115723317Y-117119999D01*
X115629999Y-117101437D01*
X115536681Y-117119999D01*
X115260303Y-117174974D01*
X114946890Y-117384390D01*
X114894029Y-117463502D01*
X108616004Y-123741528D01*
X108536892Y-123794389D01*
X108484031Y-123873501D01*
X108327475Y-124107803D01*
X108253938Y-124477498D01*
X108272501Y-124570820D01*
X108272500Y-127792560D01*
X108120000Y-127792560D01*
X107872235Y-127841843D01*
X107662191Y-127982191D01*
X107521843Y-128192235D01*
X107472560Y-128440000D01*
X107472560Y-128592500D01*
X103887466Y-128592500D01*
X107283997Y-125195969D01*
X107363109Y-125143109D01*
X107572525Y-124829696D01*
X107627500Y-124553318D01*
X107627500Y-124553317D01*
X107646062Y-124460000D01*
X107627500Y-124366682D01*
X107627500Y-122536816D01*
X107646062Y-122443498D01*
X107627500Y-122350180D01*
X107627500Y-120119572D01*
X107969135Y-120630865D01*
X108543037Y-121014334D01*
X109049120Y-121115000D01*
X109390880Y-121115000D01*
X109896963Y-121014334D01*
X110470865Y-120630865D01*
X110854334Y-120056963D01*
X110988990Y-119380000D01*
X110854334Y-118703037D01*
X110470865Y-118129135D01*
X109896963Y-117745666D01*
X109390880Y-117645000D01*
X109049120Y-117645000D01*
X108940001Y-117666705D01*
X108940001Y-95896234D01*
X109220000Y-95951929D01*
X109955489Y-95805631D01*
X110579009Y-95389009D01*
X110995631Y-94765490D01*
X111105000Y-94215655D01*
X111105000Y-94204040D01*
X112334885Y-94204040D01*
X112544983Y-94912194D01*
X113010087Y-95486042D01*
X113659389Y-95838221D01*
X113800355Y-95867695D01*
X114093000Y-95751572D01*
X114093000Y-93907000D01*
X112489618Y-93907000D01*
X112334885Y-94204040D01*
X111105000Y-94204040D01*
X111105000Y-93355960D01*
X112334885Y-93355960D01*
X112489618Y-93653000D01*
X114093000Y-93653000D01*
X114093000Y-91808428D01*
X113800355Y-91692305D01*
X113659389Y-91721779D01*
X113010087Y-92073958D01*
X112544983Y-92647806D01*
X112334885Y-93355960D01*
X111105000Y-93355960D01*
X111105000Y-93344346D01*
X110995631Y-92794510D01*
X110579009Y-92170991D01*
X109980000Y-91770746D01*
X109980000Y-83289253D01*
X110579009Y-82889009D01*
X110995631Y-82265490D01*
X111105000Y-81715655D01*
X111105000Y-81704040D01*
X112334885Y-81704040D01*
X112544983Y-82412194D01*
X113010087Y-82986042D01*
X113659389Y-83338221D01*
X113800355Y-83367695D01*
X114093000Y-83251572D01*
X114093000Y-81407000D01*
X112489618Y-81407000D01*
X112334885Y-81704040D01*
X111105000Y-81704040D01*
X111105000Y-80855960D01*
X112334885Y-80855960D01*
X112489618Y-81153000D01*
X114093000Y-81153000D01*
X114093000Y-79308428D01*
X113800355Y-79192305D01*
X113659389Y-79221779D01*
X113010087Y-79573958D01*
X112544983Y-80147806D01*
X112334885Y-80855960D01*
X111105000Y-80855960D01*
X111105000Y-80844346D01*
X110995631Y-80294510D01*
X110579009Y-79670991D01*
X109955490Y-79254369D01*
X109220000Y-79108071D01*
X108484511Y-79254369D01*
X107860991Y-79670991D01*
X107444369Y-80294510D01*
X107335000Y-80844345D01*
X107335000Y-81715654D01*
X107444369Y-82265489D01*
X107860991Y-82889009D01*
X108460001Y-83289255D01*
X108460000Y-91770747D01*
X107860991Y-92170991D01*
X107444369Y-92794510D01*
X107342756Y-93305354D01*
X94559990Y-80522589D01*
X94559990Y-79555431D01*
X97765000Y-79555431D01*
X97765000Y-80444569D01*
X98105259Y-81266026D01*
X98733974Y-81894741D01*
X99555431Y-82235000D01*
X100444569Y-82235000D01*
X101266026Y-81894741D01*
X101894741Y-81266026D01*
X102235000Y-80444569D01*
X102235000Y-79555431D01*
X101894741Y-78733974D01*
X101266026Y-78105259D01*
X100444569Y-77765000D01*
X99555431Y-77765000D01*
X98733974Y-78105259D01*
X98105259Y-78733974D01*
X97765000Y-79555431D01*
X94559990Y-79555431D01*
X94559990Y-61055866D01*
X112305000Y-61055866D01*
X112305000Y-62104134D01*
X112706155Y-63072608D01*
X113447392Y-63813845D01*
X114415866Y-64215000D01*
X115464134Y-64215000D01*
X116432608Y-63813845D01*
X117173845Y-63072608D01*
X117575000Y-62104134D01*
X117575000Y-61070866D01*
X121105000Y-61070866D01*
X121105000Y-62119134D01*
X121506155Y-63087608D01*
X122247392Y-63828845D01*
X123215866Y-64230000D01*
X124264134Y-64230000D01*
X125232608Y-63828845D01*
X125973845Y-63087608D01*
X126375000Y-62119134D01*
X126375000Y-61070866D01*
X126368787Y-61055866D01*
X127545000Y-61055866D01*
X127545000Y-62104134D01*
X127946155Y-63072608D01*
X128687392Y-63813845D01*
X129655866Y-64215000D01*
X130704134Y-64215000D01*
X131672608Y-63813845D01*
X132413845Y-63072608D01*
X132815000Y-62104134D01*
X132815000Y-61070866D01*
X136345000Y-61070866D01*
X136345000Y-62119134D01*
X136746155Y-63087608D01*
X137487392Y-63828845D01*
X138455866Y-64230000D01*
X139504134Y-64230000D01*
X140472608Y-63828845D01*
X141213845Y-63087608D01*
X141615000Y-62119134D01*
X141615000Y-61070866D01*
X141213845Y-60102392D01*
X140472608Y-59361155D01*
X139504134Y-58960000D01*
X138455866Y-58960000D01*
X137487392Y-59361155D01*
X136746155Y-60102392D01*
X136345000Y-61070866D01*
X132815000Y-61070866D01*
X132815000Y-61055866D01*
X132413845Y-60087392D01*
X131672608Y-59346155D01*
X130704134Y-58945000D01*
X129655866Y-58945000D01*
X128687392Y-59346155D01*
X127946155Y-60087392D01*
X127545000Y-61055866D01*
X126368787Y-61055866D01*
X125973845Y-60102392D01*
X125232608Y-59361155D01*
X124264134Y-58960000D01*
X123215866Y-58960000D01*
X122247392Y-59361155D01*
X121506155Y-60102392D01*
X121105000Y-61070866D01*
X117575000Y-61070866D01*
X117575000Y-61055866D01*
X117173845Y-60087392D01*
X116432608Y-59346155D01*
X115464134Y-58945000D01*
X114415866Y-58945000D01*
X113447392Y-59346155D01*
X112706155Y-60087392D01*
X112305000Y-61055866D01*
X94559990Y-61055866D01*
X94559990Y-49555431D01*
X97765000Y-49555431D01*
X97765000Y-50444569D01*
X98105259Y-51266026D01*
X98733974Y-51894741D01*
X99555431Y-52235000D01*
X100444569Y-52235000D01*
X101266026Y-51894741D01*
X101894741Y-51266026D01*
X102235000Y-50444569D01*
X102235000Y-50285750D01*
X107465000Y-50285750D01*
X107465000Y-51026310D01*
X107561673Y-51259699D01*
X107740302Y-51438327D01*
X107973691Y-51535000D01*
X108714250Y-51535000D01*
X108873000Y-51376250D01*
X108873000Y-50127000D01*
X107623750Y-50127000D01*
X107465000Y-50285750D01*
X102235000Y-50285750D01*
X102235000Y-49555431D01*
X101994035Y-48973690D01*
X107465000Y-48973690D01*
X107465000Y-49714250D01*
X107623750Y-49873000D01*
X108873000Y-49873000D01*
X108873000Y-48623750D01*
X109127000Y-48623750D01*
X109127000Y-49873000D01*
X109147000Y-49873000D01*
X109147000Y-50127000D01*
X109127000Y-50127000D01*
X109127000Y-51376250D01*
X109285750Y-51535000D01*
X110026309Y-51535000D01*
X110259698Y-51438327D01*
X110438327Y-51259699D01*
X110494139Y-51124956D01*
X110670493Y-51301310D01*
X111234670Y-51535000D01*
X111845330Y-51535000D01*
X112409507Y-51301310D01*
X112841310Y-50869507D01*
X113075000Y-50305330D01*
X113075000Y-50285750D01*
X117465000Y-50285750D01*
X117465000Y-51026310D01*
X117561673Y-51259699D01*
X117740302Y-51438327D01*
X117973691Y-51535000D01*
X118714250Y-51535000D01*
X118873000Y-51376250D01*
X118873000Y-50127000D01*
X117623750Y-50127000D01*
X117465000Y-50285750D01*
X113075000Y-50285750D01*
X113075000Y-49694670D01*
X112841310Y-49130493D01*
X112684507Y-48973690D01*
X117465000Y-48973690D01*
X117465000Y-49714250D01*
X117623750Y-49873000D01*
X118873000Y-49873000D01*
X118873000Y-48623750D01*
X119127000Y-48623750D01*
X119127000Y-49873000D01*
X119147000Y-49873000D01*
X119147000Y-50127000D01*
X119127000Y-50127000D01*
X119127000Y-51376250D01*
X119285750Y-51535000D01*
X120026309Y-51535000D01*
X120259698Y-51438327D01*
X120438327Y-51259699D01*
X120494139Y-51124956D01*
X120670493Y-51301310D01*
X121234670Y-51535000D01*
X121845330Y-51535000D01*
X122409507Y-51301310D01*
X122841310Y-50869507D01*
X123075000Y-50305330D01*
X123075000Y-50285750D01*
X127465000Y-50285750D01*
X127465000Y-51026310D01*
X127561673Y-51259699D01*
X127740302Y-51438327D01*
X127973691Y-51535000D01*
X128714250Y-51535000D01*
X128873000Y-51376250D01*
X128873000Y-50127000D01*
X127623750Y-50127000D01*
X127465000Y-50285750D01*
X123075000Y-50285750D01*
X123075000Y-49694670D01*
X122841310Y-49130493D01*
X122684507Y-48973690D01*
X127465000Y-48973690D01*
X127465000Y-49714250D01*
X127623750Y-49873000D01*
X128873000Y-49873000D01*
X128873000Y-48623750D01*
X129127000Y-48623750D01*
X129127000Y-49873000D01*
X129147000Y-49873000D01*
X129147000Y-50127000D01*
X129127000Y-50127000D01*
X129127000Y-51376250D01*
X129285750Y-51535000D01*
X130026309Y-51535000D01*
X130259698Y-51438327D01*
X130438327Y-51259699D01*
X130494139Y-51124956D01*
X130670493Y-51301310D01*
X131234670Y-51535000D01*
X131845330Y-51535000D01*
X132409507Y-51301310D01*
X132841310Y-50869507D01*
X133075000Y-50305330D01*
X133075000Y-49694670D01*
X132841310Y-49130493D01*
X132409507Y-48698690D01*
X131845330Y-48465000D01*
X131234670Y-48465000D01*
X130670493Y-48698690D01*
X130494139Y-48875044D01*
X130438327Y-48740301D01*
X130259698Y-48561673D01*
X130026309Y-48465000D01*
X129285750Y-48465000D01*
X129127000Y-48623750D01*
X128873000Y-48623750D01*
X128714250Y-48465000D01*
X127973691Y-48465000D01*
X127740302Y-48561673D01*
X127561673Y-48740301D01*
X127465000Y-48973690D01*
X122684507Y-48973690D01*
X122409507Y-48698690D01*
X121845330Y-48465000D01*
X121234670Y-48465000D01*
X120670493Y-48698690D01*
X120494139Y-48875044D01*
X120438327Y-48740301D01*
X120259698Y-48561673D01*
X120026309Y-48465000D01*
X119285750Y-48465000D01*
X119127000Y-48623750D01*
X118873000Y-48623750D01*
X118714250Y-48465000D01*
X117973691Y-48465000D01*
X117740302Y-48561673D01*
X117561673Y-48740301D01*
X117465000Y-48973690D01*
X112684507Y-48973690D01*
X112409507Y-48698690D01*
X111845330Y-48465000D01*
X111234670Y-48465000D01*
X110670493Y-48698690D01*
X110494139Y-48875044D01*
X110438327Y-48740301D01*
X110259698Y-48561673D01*
X110026309Y-48465000D01*
X109285750Y-48465000D01*
X109127000Y-48623750D01*
X108873000Y-48623750D01*
X108714250Y-48465000D01*
X107973691Y-48465000D01*
X107740302Y-48561673D01*
X107561673Y-48740301D01*
X107465000Y-48973690D01*
X101994035Y-48973690D01*
X101894741Y-48733974D01*
X101266026Y-48105259D01*
X100444569Y-47765000D01*
X99555431Y-47765000D01*
X98733974Y-48105259D01*
X98105259Y-48733974D01*
X97765000Y-49555431D01*
X94559990Y-49555431D01*
X94559990Y-42737058D01*
X95000000Y-42824582D01*
X95589172Y-42707388D01*
X96088649Y-42373649D01*
X96250000Y-42132170D01*
X96411351Y-42373649D01*
X96910827Y-42707388D01*
X97500000Y-42824582D01*
X98089172Y-42707388D01*
X98588649Y-42373649D01*
X98922388Y-41874173D01*
X99010000Y-41433718D01*
X99010000Y-39386282D01*
X98952058Y-39094990D01*
X101047942Y-39094990D01*
X100990000Y-39386282D01*
X100990000Y-41433717D01*
X101077612Y-41874172D01*
X101411351Y-42373649D01*
X101910827Y-42707388D01*
X102500000Y-42824582D01*
X103089172Y-42707388D01*
X103588649Y-42373649D01*
X103750000Y-42132170D01*
X103911351Y-42373649D01*
X104410827Y-42707388D01*
X105000000Y-42824582D01*
X105589172Y-42707388D01*
X106088649Y-42373649D01*
X106422388Y-41874173D01*
X106510000Y-41433718D01*
X106510000Y-41170000D01*
X113595199Y-41170000D01*
X114890199Y-42465000D01*
X114694670Y-42465000D01*
X114130493Y-42698690D01*
X113698690Y-43130493D01*
X113465000Y-43694670D01*
X113465000Y-44305330D01*
X113698690Y-44869507D01*
X114130493Y-45301310D01*
X114694670Y-45535000D01*
X115305330Y-45535000D01*
X115869507Y-45301310D01*
X116250000Y-44920817D01*
X116630493Y-45301310D01*
X117194670Y-45535000D01*
X117805330Y-45535000D01*
X118369507Y-45301310D01*
X118590658Y-45080159D01*
X119099446Y-45080159D01*
X119185852Y-45336643D01*
X119759336Y-45546458D01*
X120369460Y-45520839D01*
X120814148Y-45336643D01*
X120900554Y-45080159D01*
X120000000Y-44179605D01*
X119099446Y-45080159D01*
X118590658Y-45080159D01*
X118801310Y-44869507D01*
X118804539Y-44861710D01*
X118919841Y-44900554D01*
X119820395Y-44000000D01*
X120179605Y-44000000D01*
X121080159Y-44900554D01*
X121336643Y-44814148D01*
X121546458Y-44240664D01*
X121520839Y-43630540D01*
X121336643Y-43185852D01*
X121080159Y-43099446D01*
X120179605Y-44000000D01*
X119820395Y-44000000D01*
X118919841Y-43099446D01*
X118804539Y-43138290D01*
X118801310Y-43130493D01*
X118590658Y-42919841D01*
X119099446Y-42919841D01*
X120000000Y-43820395D01*
X120900554Y-42919841D01*
X120814148Y-42663357D01*
X120240664Y-42453542D01*
X119630540Y-42479161D01*
X119185852Y-42663357D01*
X119099446Y-42919841D01*
X118590658Y-42919841D01*
X118369507Y-42698690D01*
X117805330Y-42465000D01*
X117194670Y-42465000D01*
X117085162Y-42510360D01*
X114500331Y-39925530D01*
X114457929Y-39862071D01*
X114206537Y-39694096D01*
X113984852Y-39650000D01*
X113984847Y-39650000D01*
X113910000Y-39635112D01*
X113835153Y-39650000D01*
X106510000Y-39650000D01*
X106510000Y-39386282D01*
X106422388Y-38945827D01*
X106088649Y-38446351D01*
X105735134Y-38210140D01*
X105715904Y-38113463D01*
X105547929Y-37862071D01*
X105502964Y-37832026D01*
X105472919Y-37787061D01*
X105221527Y-37619086D01*
X104999842Y-37574990D01*
X104999837Y-37574990D01*
X104924990Y-37560102D01*
X104850143Y-37574990D01*
X96274856Y-37574990D01*
X96200009Y-37560102D01*
X96125162Y-37574990D01*
X96125158Y-37574990D01*
X95903473Y-37619086D01*
X95903471Y-37619087D01*
X95903472Y-37619087D01*
X95715536Y-37744661D01*
X95715534Y-37744663D01*
X95652081Y-37787061D01*
X95609683Y-37850514D01*
X95387668Y-38072530D01*
X95000000Y-37995418D01*
X94410828Y-38112612D01*
X93911352Y-38446351D01*
X93577613Y-38945827D01*
X93490000Y-39386282D01*
X93490000Y-40438311D01*
X90108693Y-37057005D01*
X90055830Y-36977890D01*
X89742417Y-36768474D01*
X89466039Y-36713499D01*
X89466038Y-36713499D01*
X89372721Y-36694937D01*
X89279404Y-36713499D01*
X81172318Y-36713499D01*
X81079001Y-36694937D01*
X80985683Y-36713499D01*
X80709305Y-36768474D01*
X80395892Y-36977890D01*
X80343031Y-37057002D01*
X78735034Y-38665000D01*
X78474452Y-38665000D01*
X77983783Y-38868242D01*
X77772879Y-39079146D01*
X77576759Y-38605672D01*
X76884328Y-37913241D01*
X75979623Y-37538500D01*
X75000377Y-37538500D01*
X74095672Y-37913241D01*
X73403241Y-38605672D01*
X73028500Y-39510377D01*
X73028500Y-40489623D01*
X73403241Y-41394328D01*
X74095672Y-42086759D01*
X75000377Y-42461500D01*
X75979623Y-42461500D01*
X76884328Y-42086759D01*
X77576759Y-41394328D01*
X77772879Y-40920854D01*
X77983783Y-41131758D01*
X78474452Y-41335000D01*
X79005548Y-41335000D01*
X79107094Y-41292938D01*
X72760035Y-47639999D01*
X67783311Y-47639999D01*
X67689998Y-47621438D01*
X67596685Y-47639999D01*
X67596681Y-47639999D01*
X67320303Y-47694974D01*
X67320301Y-47694975D01*
X67320302Y-47694975D01*
X67086000Y-47851530D01*
X67085999Y-47851531D01*
X67006890Y-47904390D01*
X66954031Y-47983499D01*
X58832005Y-56105527D01*
X58832002Y-56105529D01*
X57283503Y-57654029D01*
X57204391Y-57706890D01*
X57151530Y-57786002D01*
X56994974Y-58020304D01*
X56921437Y-58389999D01*
X55735000Y-58389999D01*
X55735000Y-35032731D01*
X55777598Y-34555431D01*
X57765000Y-34555431D01*
X57765000Y-35444569D01*
X58105259Y-36266026D01*
X58733974Y-36894741D01*
X59555431Y-37235000D01*
X60444569Y-37235000D01*
X61266026Y-36894741D01*
X61894741Y-36266026D01*
X62133442Y-35689750D01*
X97615000Y-35689750D01*
X97615000Y-36780310D01*
X97711673Y-37013699D01*
X97890302Y-37192327D01*
X98123691Y-37289000D01*
X99714250Y-37289000D01*
X99873000Y-37130250D01*
X99873000Y-35531000D01*
X100127000Y-35531000D01*
X100127000Y-37130250D01*
X100285750Y-37289000D01*
X101876309Y-37289000D01*
X102109698Y-37192327D01*
X102288327Y-37013699D01*
X102385000Y-36780310D01*
X102385000Y-36475866D01*
X110465000Y-36475866D01*
X110465000Y-37524134D01*
X110866155Y-38492608D01*
X111607392Y-39233845D01*
X112575866Y-39635000D01*
X113624134Y-39635000D01*
X114592608Y-39233845D01*
X115333845Y-38492608D01*
X115735000Y-37524134D01*
X115735000Y-36490866D01*
X119265000Y-36490866D01*
X119265000Y-37539134D01*
X119666155Y-38507608D01*
X120407392Y-39248845D01*
X121375866Y-39650000D01*
X122424134Y-39650000D01*
X123392608Y-39248845D01*
X124133845Y-38507608D01*
X124535000Y-37539134D01*
X124535000Y-36490866D01*
X124133845Y-35522392D01*
X123392608Y-34781155D01*
X122847662Y-34555431D01*
X137765000Y-34555431D01*
X137765000Y-35444569D01*
X138105259Y-36266026D01*
X138733974Y-36894741D01*
X139555431Y-37235000D01*
X140444569Y-37235000D01*
X141266026Y-36894741D01*
X141894741Y-36266026D01*
X142235000Y-35444569D01*
X142235000Y-34555431D01*
X141894741Y-33733974D01*
X141266026Y-33105259D01*
X140444569Y-32765000D01*
X139555431Y-32765000D01*
X138733974Y-33105259D01*
X138105259Y-33733974D01*
X137765000Y-34555431D01*
X122847662Y-34555431D01*
X122424134Y-34380000D01*
X121375866Y-34380000D01*
X120407392Y-34781155D01*
X119666155Y-35522392D01*
X119265000Y-36490866D01*
X115735000Y-36490866D01*
X115735000Y-36475866D01*
X115333845Y-35507392D01*
X114592608Y-34766155D01*
X113624134Y-34365000D01*
X112575866Y-34365000D01*
X111607392Y-34766155D01*
X110866155Y-35507392D01*
X110465000Y-36475866D01*
X102385000Y-36475866D01*
X102385000Y-35689750D01*
X102226250Y-35531000D01*
X100127000Y-35531000D01*
X99873000Y-35531000D01*
X97773750Y-35531000D01*
X97615000Y-35689750D01*
X62133442Y-35689750D01*
X62235000Y-35444569D01*
X62235000Y-34555431D01*
X62016403Y-34027690D01*
X97615000Y-34027690D01*
X97615000Y-35118250D01*
X97773750Y-35277000D01*
X99873000Y-35277000D01*
X99873000Y-33677750D01*
X100127000Y-33677750D01*
X100127000Y-35277000D01*
X102226250Y-35277000D01*
X102385000Y-35118250D01*
X102385000Y-34027690D01*
X102288327Y-33794301D01*
X102109698Y-33615673D01*
X101876309Y-33519000D01*
X100285750Y-33519000D01*
X100127000Y-33677750D01*
X99873000Y-33677750D01*
X99714250Y-33519000D01*
X98123691Y-33519000D01*
X97890302Y-33615673D01*
X97711673Y-33794301D01*
X97615000Y-34027690D01*
X62016403Y-34027690D01*
X61894741Y-33733974D01*
X61266026Y-33105259D01*
X60444569Y-32765000D01*
X59555431Y-32765000D01*
X58733974Y-33105259D01*
X58105259Y-33733974D01*
X57765000Y-34555431D01*
X55777598Y-34555431D01*
X55805281Y-34245253D01*
X56005231Y-33514357D01*
X56331450Y-32830425D01*
X56773626Y-32215072D01*
X57317789Y-31687741D01*
X57946726Y-31265114D01*
X58640570Y-30960537D01*
X59383039Y-30782285D01*
X60026949Y-30735000D01*
X139967269Y-30735000D01*
X140754747Y-30805281D01*
G36*
X115392560Y-120180000D02*
X115441843Y-120427765D01*
X115582191Y-120637809D01*
X115792235Y-120778157D01*
X116040000Y-120827440D01*
X117640000Y-120827440D01*
X117887765Y-120778157D01*
X118097809Y-120637809D01*
X118238157Y-120427765D01*
X118287440Y-120180000D01*
X118287440Y-120140000D01*
X119065199Y-120140000D01*
X120100951Y-121175753D01*
X119958461Y-121204096D01*
X119707069Y-121372071D01*
X119664670Y-121435526D01*
X112545530Y-128554667D01*
X112482071Y-128597069D01*
X112314096Y-128848462D01*
X112270000Y-129070147D01*
X112270000Y-129070151D01*
X112255112Y-129144998D01*
X112270000Y-129219845D01*
X112270001Y-140655197D01*
X107018302Y-145906897D01*
X106965439Y-145885000D01*
X106394561Y-145885000D01*
X105867138Y-146103466D01*
X105463466Y-146507138D01*
X105245000Y-147034561D01*
X105245000Y-147605439D01*
X105463466Y-148132862D01*
X105867138Y-148536534D01*
X106394561Y-148755000D01*
X106965439Y-148755000D01*
X107492862Y-148536534D01*
X107896534Y-148132862D01*
X108115000Y-147605439D01*
X108115000Y-147034561D01*
X108093103Y-146981698D01*
X113514473Y-141560329D01*
X113577929Y-141517929D01*
X113745904Y-141266537D01*
X113790000Y-141044852D01*
X113790000Y-141044848D01*
X113804888Y-140970001D01*
X113790000Y-140895154D01*
X113790000Y-129459799D01*
X115569022Y-127680778D01*
X115805423Y-128034577D01*
X116080001Y-128218044D01*
X116080000Y-141925198D01*
X107362473Y-150642726D01*
X107054886Y-150515320D01*
X106305114Y-150515320D01*
X105612415Y-150802245D01*
X105082245Y-151332415D01*
X104795320Y-152025114D01*
X104795320Y-152774886D01*
X104966676Y-153188576D01*
X104552986Y-153017220D01*
X103803214Y-153017220D01*
X103110515Y-153304145D01*
X102580345Y-153834315D01*
X102293420Y-154527014D01*
X102293420Y-155276786D01*
X102475589Y-155716581D01*
X97745819Y-155716581D01*
X97912015Y-155550385D01*
X98198940Y-154857686D01*
X98198940Y-154107914D01*
X97912015Y-153415215D01*
X97381845Y-152885045D01*
X96689146Y-152598120D01*
X95939374Y-152598120D01*
X95525684Y-152769476D01*
X95697040Y-152355786D01*
X95697040Y-151606014D01*
X95410115Y-150913315D01*
X94879945Y-150383145D01*
X94187246Y-150096220D01*
X93437474Y-150096220D01*
X93129889Y-150223626D01*
X90866792Y-147960531D01*
X90824390Y-147897072D01*
X90572998Y-147729097D01*
X90351313Y-147685001D01*
X90351308Y-147685001D01*
X90292824Y-147673368D01*
X90363113Y-147320000D01*
X90298688Y-146996113D01*
X92532560Y-144762242D01*
X92532560Y-145580000D01*
X92581843Y-145827765D01*
X92722191Y-146037809D01*
X92932235Y-146178157D01*
X93180000Y-146227440D01*
X94780000Y-146227440D01*
X95027765Y-146178157D01*
X95237809Y-146037809D01*
X95378157Y-145827765D01*
X95386117Y-145787745D01*
X95651861Y-145787745D01*
X95725995Y-146033864D01*
X96263223Y-146226965D01*
X96833454Y-146199778D01*
X97234005Y-146033864D01*
X97308139Y-145787745D01*
X96480000Y-144959605D01*
X95651861Y-145787745D01*
X95386117Y-145787745D01*
X95424693Y-145593813D01*
X95472255Y-145608139D01*
X96300395Y-144780000D01*
X95472255Y-143951861D01*
X95424693Y-143966187D01*
X95378157Y-143732235D01*
X95237809Y-143522191D01*
X95027765Y-143381843D01*
X94927500Y-143361899D01*
X94927500Y-141987466D01*
X96292350Y-143352317D01*
X96126546Y-143360222D01*
X95725995Y-143526136D01*
X95651861Y-143772255D01*
X96480000Y-144600395D01*
X96494143Y-144586253D01*
X96673748Y-144765858D01*
X96659605Y-144780000D01*
X97487745Y-145608139D01*
X97733864Y-145534005D01*
X97926965Y-144996777D01*
X97926472Y-144986439D01*
X100165000Y-147224968D01*
X100165000Y-147605439D01*
X100383466Y-148132862D01*
X100787138Y-148536534D01*
X101314561Y-148755000D01*
X101885439Y-148755000D01*
X102412862Y-148536534D01*
X102816534Y-148132862D01*
X103035000Y-147605439D01*
X103035000Y-147034561D01*
X102816534Y-146507138D01*
X102412862Y-146103466D01*
X102347701Y-146076475D01*
X102354005Y-146073864D01*
X102428139Y-145827745D01*
X101600000Y-144999605D01*
X101585858Y-145013748D01*
X101406252Y-144834142D01*
X101420395Y-144820000D01*
X101779605Y-144820000D01*
X102607745Y-145648139D01*
X102853864Y-145574005D01*
X103046965Y-145036777D01*
X103019778Y-144466546D01*
X102853864Y-144065995D01*
X102607745Y-143991861D01*
X101779605Y-144820000D01*
X101420395Y-144820000D01*
X100592255Y-143991861D01*
X100346136Y-144065995D01*
X100171584Y-144551617D01*
X99432222Y-143812255D01*
X100771861Y-143812255D01*
X101600000Y-144640395D01*
X102428139Y-143812255D01*
X102354005Y-143566136D01*
X101816777Y-143373035D01*
X101246546Y-143400222D01*
X100845995Y-143566136D01*
X100771861Y-143812255D01*
X99432222Y-143812255D01*
X96781953Y-141161986D01*
X97099418Y-141098839D01*
X97590625Y-140770625D01*
X97803843Y-140451522D01*
X97864817Y-140581358D01*
X98293076Y-140971645D01*
X98703110Y-141141476D01*
X98933000Y-141020155D01*
X98933000Y-139827000D01*
X98913000Y-139827000D01*
X98913000Y-139573000D01*
X98933000Y-139573000D01*
X98933000Y-137287000D01*
X98913000Y-137287000D01*
X98913000Y-137033000D01*
X98933000Y-137033000D01*
X98933000Y-135890085D01*
X99187000Y-135890085D01*
X99187000Y-137033000D01*
X99207000Y-137033000D01*
X99207000Y-137287000D01*
X99187000Y-137287000D01*
X99187000Y-139573000D01*
X99207000Y-139573000D01*
X99207000Y-139827000D01*
X99187000Y-139827000D01*
X99187000Y-141020155D01*
X99416890Y-141141476D01*
X99826924Y-140971645D01*
X100255183Y-140581358D01*
X100316157Y-140451522D01*
X100529375Y-140770625D01*
X101020582Y-141098839D01*
X101453744Y-141185000D01*
X101746256Y-141185000D01*
X102179418Y-141098839D01*
X102670625Y-140770625D01*
X102998839Y-140279418D01*
X103114092Y-139700000D01*
X102998839Y-139120582D01*
X102670625Y-138629375D01*
X102360000Y-138421822D01*
X102360000Y-138378043D01*
X102634577Y-138194577D01*
X102809469Y-137932832D01*
X102847167Y-138023843D01*
X103276157Y-138452833D01*
X103836659Y-138685000D01*
X104443341Y-138685000D01*
X105003843Y-138452833D01*
X105432833Y-138023843D01*
X105665000Y-137463341D01*
X105665000Y-136856659D01*
X105432833Y-136296157D01*
X105003843Y-135867167D01*
X104443341Y-135635000D01*
X103836659Y-135635000D01*
X103276157Y-135867167D01*
X102847167Y-136296157D01*
X102809469Y-136387168D01*
X102634577Y-136125423D01*
X102159909Y-135808260D01*
X101741333Y-135725000D01*
X101458667Y-135725000D01*
X101040091Y-135808260D01*
X100565423Y-136125423D01*
X100309053Y-136509108D01*
X100212389Y-136304866D01*
X99797423Y-135928959D01*
X99409039Y-135768096D01*
X99187000Y-135890085D01*
X98933000Y-135890085D01*
X98710961Y-135768096D01*
X98322577Y-135928959D01*
X97907611Y-136304866D01*
X97810947Y-136509108D01*
X97554577Y-136125423D01*
X97079909Y-135808260D01*
X96739432Y-135740535D01*
X101992468Y-130487500D01*
X107472560Y-130487500D01*
X107472560Y-130640000D01*
X107521843Y-130887765D01*
X107662191Y-131097809D01*
X107872235Y-131238157D01*
X108120000Y-131287440D01*
X110320000Y-131287440D01*
X110567765Y-131238157D01*
X110777809Y-131097809D01*
X110918157Y-130887765D01*
X110967440Y-130640000D01*
X110967440Y-128440000D01*
X110918157Y-128192235D01*
X110777809Y-127982191D01*
X110567765Y-127841843D01*
X110320000Y-127792560D01*
X110167500Y-127792560D01*
X110167500Y-124869964D01*
X115392560Y-119644905D01*
X115392560Y-120180000D01*
X115392560Y-120180000D01*
G37*
X115392560Y-120180000D02*
X115441843Y-120427765D01*
X115582191Y-120637809D01*
X115792235Y-120778157D01*
X116040000Y-120827440D01*
X117640000Y-120827440D01*
X117887765Y-120778157D01*
X118097809Y-120637809D01*
X118238157Y-120427765D01*
X118287440Y-120180000D01*
X118287440Y-120140000D01*
X119065199Y-120140000D01*
X120100951Y-121175753D01*
X119958461Y-121204096D01*
X119707069Y-121372071D01*
X119664670Y-121435526D01*
X112545530Y-128554667D01*
X112482071Y-128597069D01*
X112314096Y-128848462D01*
X112270000Y-129070147D01*
X112270000Y-129070151D01*
X112255112Y-129144998D01*
X112270000Y-129219845D01*
X112270001Y-140655197D01*
X107018302Y-145906897D01*
X106965439Y-145885000D01*
X106394561Y-145885000D01*
X105867138Y-146103466D01*
X105463466Y-146507138D01*
X105245000Y-147034561D01*
X105245000Y-147605439D01*
X105463466Y-148132862D01*
X105867138Y-148536534D01*
X106394561Y-148755000D01*
X106965439Y-148755000D01*
X107492862Y-148536534D01*
X107896534Y-148132862D01*
X108115000Y-147605439D01*
X108115000Y-147034561D01*
X108093103Y-146981698D01*
X113514473Y-141560329D01*
X113577929Y-141517929D01*
X113745904Y-141266537D01*
X113790000Y-141044852D01*
X113790000Y-141044848D01*
X113804888Y-140970001D01*
X113790000Y-140895154D01*
X113790000Y-129459799D01*
X115569022Y-127680778D01*
X115805423Y-128034577D01*
X116080001Y-128218044D01*
X116080000Y-141925198D01*
X107362473Y-150642726D01*
X107054886Y-150515320D01*
X106305114Y-150515320D01*
X105612415Y-150802245D01*
X105082245Y-151332415D01*
X104795320Y-152025114D01*
X104795320Y-152774886D01*
X104966676Y-153188576D01*
X104552986Y-153017220D01*
X103803214Y-153017220D01*
X103110515Y-153304145D01*
X102580345Y-153834315D01*
X102293420Y-154527014D01*
X102293420Y-155276786D01*
X102475589Y-155716581D01*
X97745819Y-155716581D01*
X97912015Y-155550385D01*
X98198940Y-154857686D01*
X98198940Y-154107914D01*
X97912015Y-153415215D01*
X97381845Y-152885045D01*
X96689146Y-152598120D01*
X95939374Y-152598120D01*
X95525684Y-152769476D01*
X95697040Y-152355786D01*
X95697040Y-151606014D01*
X95410115Y-150913315D01*
X94879945Y-150383145D01*
X94187246Y-150096220D01*
X93437474Y-150096220D01*
X93129889Y-150223626D01*
X90866792Y-147960531D01*
X90824390Y-147897072D01*
X90572998Y-147729097D01*
X90351313Y-147685001D01*
X90351308Y-147685001D01*
X90292824Y-147673368D01*
X90363113Y-147320000D01*
X90298688Y-146996113D01*
X92532560Y-144762242D01*
X92532560Y-145580000D01*
X92581843Y-145827765D01*
X92722191Y-146037809D01*
X92932235Y-146178157D01*
X93180000Y-146227440D01*
X94780000Y-146227440D01*
X95027765Y-146178157D01*
X95237809Y-146037809D01*
X95378157Y-145827765D01*
X95386117Y-145787745D01*
X95651861Y-145787745D01*
X95725995Y-146033864D01*
X96263223Y-146226965D01*
X96833454Y-146199778D01*
X97234005Y-146033864D01*
X97308139Y-145787745D01*
X96480000Y-144959605D01*
X95651861Y-145787745D01*
X95386117Y-145787745D01*
X95424693Y-145593813D01*
X95472255Y-145608139D01*
X96300395Y-144780000D01*
X95472255Y-143951861D01*
X95424693Y-143966187D01*
X95378157Y-143732235D01*
X95237809Y-143522191D01*
X95027765Y-143381843D01*
X94927500Y-143361899D01*
X94927500Y-141987466D01*
X96292350Y-143352317D01*
X96126546Y-143360222D01*
X95725995Y-143526136D01*
X95651861Y-143772255D01*
X96480000Y-144600395D01*
X96494143Y-144586253D01*
X96673748Y-144765858D01*
X96659605Y-144780000D01*
X97487745Y-145608139D01*
X97733864Y-145534005D01*
X97926965Y-144996777D01*
X97926472Y-144986439D01*
X100165000Y-147224968D01*
X100165000Y-147605439D01*
X100383466Y-148132862D01*
X100787138Y-148536534D01*
X101314561Y-148755000D01*
X101885439Y-148755000D01*
X102412862Y-148536534D01*
X102816534Y-148132862D01*
X103035000Y-147605439D01*
X103035000Y-147034561D01*
X102816534Y-146507138D01*
X102412862Y-146103466D01*
X102347701Y-146076475D01*
X102354005Y-146073864D01*
X102428139Y-145827745D01*
X101600000Y-144999605D01*
X101585858Y-145013748D01*
X101406252Y-144834142D01*
X101420395Y-144820000D01*
X101779605Y-144820000D01*
X102607745Y-145648139D01*
X102853864Y-145574005D01*
X103046965Y-145036777D01*
X103019778Y-144466546D01*
X102853864Y-144065995D01*
X102607745Y-143991861D01*
X101779605Y-144820000D01*
X101420395Y-144820000D01*
X100592255Y-143991861D01*
X100346136Y-144065995D01*
X100171584Y-144551617D01*
X99432222Y-143812255D01*
X100771861Y-143812255D01*
X101600000Y-144640395D01*
X102428139Y-143812255D01*
X102354005Y-143566136D01*
X101816777Y-143373035D01*
X101246546Y-143400222D01*
X100845995Y-143566136D01*
X100771861Y-143812255D01*
X99432222Y-143812255D01*
X96781953Y-141161986D01*
X97099418Y-141098839D01*
X97590625Y-140770625D01*
X97803843Y-140451522D01*
X97864817Y-140581358D01*
X98293076Y-140971645D01*
X98703110Y-141141476D01*
X98933000Y-141020155D01*
X98933000Y-139827000D01*
X98913000Y-139827000D01*
X98913000Y-139573000D01*
X98933000Y-139573000D01*
X98933000Y-137287000D01*
X98913000Y-137287000D01*
X98913000Y-137033000D01*
X98933000Y-137033000D01*
X98933000Y-135890085D01*
X99187000Y-135890085D01*
X99187000Y-137033000D01*
X99207000Y-137033000D01*
X99207000Y-137287000D01*
X99187000Y-137287000D01*
X99187000Y-139573000D01*
X99207000Y-139573000D01*
X99207000Y-139827000D01*
X99187000Y-139827000D01*
X99187000Y-141020155D01*
X99416890Y-141141476D01*
X99826924Y-140971645D01*
X100255183Y-140581358D01*
X100316157Y-140451522D01*
X100529375Y-140770625D01*
X101020582Y-141098839D01*
X101453744Y-141185000D01*
X101746256Y-141185000D01*
X102179418Y-141098839D01*
X102670625Y-140770625D01*
X102998839Y-140279418D01*
X103114092Y-139700000D01*
X102998839Y-139120582D01*
X102670625Y-138629375D01*
X102360000Y-138421822D01*
X102360000Y-138378043D01*
X102634577Y-138194577D01*
X102809469Y-137932832D01*
X102847167Y-138023843D01*
X103276157Y-138452833D01*
X103836659Y-138685000D01*
X104443341Y-138685000D01*
X105003843Y-138452833D01*
X105432833Y-138023843D01*
X105665000Y-137463341D01*
X105665000Y-136856659D01*
X105432833Y-136296157D01*
X105003843Y-135867167D01*
X104443341Y-135635000D01*
X103836659Y-135635000D01*
X103276157Y-135867167D01*
X102847167Y-136296157D01*
X102809469Y-136387168D01*
X102634577Y-136125423D01*
X102159909Y-135808260D01*
X101741333Y-135725000D01*
X101458667Y-135725000D01*
X101040091Y-135808260D01*
X100565423Y-136125423D01*
X100309053Y-136509108D01*
X100212389Y-136304866D01*
X99797423Y-135928959D01*
X99409039Y-135768096D01*
X99187000Y-135890085D01*
X98933000Y-135890085D01*
X98710961Y-135768096D01*
X98322577Y-135928959D01*
X97907611Y-136304866D01*
X97810947Y-136509108D01*
X97554577Y-136125423D01*
X97079909Y-135808260D01*
X96739432Y-135740535D01*
X101992468Y-130487500D01*
X107472560Y-130487500D01*
X107472560Y-130640000D01*
X107521843Y-130887765D01*
X107662191Y-131097809D01*
X107872235Y-131238157D01*
X108120000Y-131287440D01*
X110320000Y-131287440D01*
X110567765Y-131238157D01*
X110777809Y-131097809D01*
X110918157Y-130887765D01*
X110967440Y-130640000D01*
X110967440Y-128440000D01*
X110918157Y-128192235D01*
X110777809Y-127982191D01*
X110567765Y-127841843D01*
X110320000Y-127792560D01*
X110167500Y-127792560D01*
X110167500Y-124869964D01*
X115392560Y-119644905D01*
X115392560Y-120180000D01*
G36*
X81814671Y-148929473D02*
X81857072Y-148992930D01*
X82108464Y-149160905D01*
X82330149Y-149205001D01*
X82330153Y-149205001D01*
X82405000Y-149219889D01*
X82479847Y-149205001D01*
X89961660Y-149205001D01*
X92055086Y-151298429D01*
X91927680Y-151606014D01*
X91927680Y-152355786D01*
X92214605Y-153048485D01*
X92744775Y-153578655D01*
X93437474Y-153865580D01*
X94187246Y-153865580D01*
X94600936Y-153694224D01*
X94429580Y-154107914D01*
X94429580Y-154857686D01*
X94716505Y-155550385D01*
X94882701Y-155716581D01*
X90232109Y-155716581D01*
X90149270Y-155633742D01*
X90442039Y-155504535D01*
X90710251Y-154804377D01*
X90690108Y-154054876D01*
X90442039Y-153455985D01*
X90149269Y-153326777D01*
X88995785Y-154480260D01*
X89009928Y-154494402D01*
X88830322Y-154674008D01*
X88816180Y-154659865D01*
X88802038Y-154674008D01*
X88622432Y-154494402D01*
X88636575Y-154480260D01*
X87483091Y-153326777D01*
X87190321Y-153455985D01*
X86922109Y-154156143D01*
X86942252Y-154905644D01*
X87190321Y-155504535D01*
X87483090Y-155633742D01*
X87400251Y-155716581D01*
X82749659Y-155716581D01*
X82915855Y-155550385D01*
X83202780Y-154857686D01*
X83202780Y-154107914D01*
X83031424Y-153694224D01*
X83445114Y-153865580D01*
X84194886Y-153865580D01*
X84887585Y-153578655D01*
X85319069Y-153147171D01*
X87662697Y-153147171D01*
X88816180Y-154300655D01*
X89969663Y-153147171D01*
X89840455Y-152854401D01*
X89140297Y-152586189D01*
X88390796Y-152606332D01*
X87791905Y-152854401D01*
X87662697Y-153147171D01*
X85319069Y-153147171D01*
X85417755Y-153048485D01*
X85704680Y-152355786D01*
X85704680Y-151606014D01*
X85417755Y-150913315D01*
X84887585Y-150383145D01*
X84194886Y-150096220D01*
X83445114Y-150096220D01*
X82841179Y-150346378D01*
X80153103Y-147658302D01*
X80175000Y-147605439D01*
X80175000Y-147289802D01*
X81814671Y-148929473D01*
X81814671Y-148929473D01*
G37*
X81814671Y-148929473D02*
X81857072Y-148992930D01*
X82108464Y-149160905D01*
X82330149Y-149205001D01*
X82330153Y-149205001D01*
X82405000Y-149219889D01*
X82479847Y-149205001D01*
X89961660Y-149205001D01*
X92055086Y-151298429D01*
X91927680Y-151606014D01*
X91927680Y-152355786D01*
X92214605Y-153048485D01*
X92744775Y-153578655D01*
X93437474Y-153865580D01*
X94187246Y-153865580D01*
X94600936Y-153694224D01*
X94429580Y-154107914D01*
X94429580Y-154857686D01*
X94716505Y-155550385D01*
X94882701Y-155716581D01*
X90232109Y-155716581D01*
X90149270Y-155633742D01*
X90442039Y-155504535D01*
X90710251Y-154804377D01*
X90690108Y-154054876D01*
X90442039Y-153455985D01*
X90149269Y-153326777D01*
X88995785Y-154480260D01*
X89009928Y-154494402D01*
X88830322Y-154674008D01*
X88816180Y-154659865D01*
X88802038Y-154674008D01*
X88622432Y-154494402D01*
X88636575Y-154480260D01*
X87483091Y-153326777D01*
X87190321Y-153455985D01*
X86922109Y-154156143D01*
X86942252Y-154905644D01*
X87190321Y-155504535D01*
X87483090Y-155633742D01*
X87400251Y-155716581D01*
X82749659Y-155716581D01*
X82915855Y-155550385D01*
X83202780Y-154857686D01*
X83202780Y-154107914D01*
X83031424Y-153694224D01*
X83445114Y-153865580D01*
X84194886Y-153865580D01*
X84887585Y-153578655D01*
X85319069Y-153147171D01*
X87662697Y-153147171D01*
X88816180Y-154300655D01*
X89969663Y-153147171D01*
X89840455Y-152854401D01*
X89140297Y-152586189D01*
X88390796Y-152606332D01*
X87791905Y-152854401D01*
X87662697Y-153147171D01*
X85319069Y-153147171D01*
X85417755Y-153048485D01*
X85704680Y-152355786D01*
X85704680Y-151606014D01*
X85417755Y-150913315D01*
X84887585Y-150383145D01*
X84194886Y-150096220D01*
X83445114Y-150096220D01*
X82841179Y-150346378D01*
X80153103Y-147658302D01*
X80175000Y-147605439D01*
X80175000Y-147289802D01*
X81814671Y-148929473D01*
G36*
X94107000Y-119253000D02*
X94127000Y-119253000D01*
X94127000Y-119507000D01*
X94107000Y-119507000D01*
X94107000Y-121793000D01*
X94127000Y-121793000D01*
X94127000Y-122047000D01*
X94107000Y-122047000D01*
X94107000Y-123189915D01*
X94329039Y-123311904D01*
X94717423Y-123151041D01*
X95132389Y-122775134D01*
X95229053Y-122570892D01*
X95485423Y-122954577D01*
X95760000Y-123138044D01*
X95760001Y-125165197D01*
X94960199Y-125965000D01*
X94794126Y-125965000D01*
X94413720Y-126122569D01*
X94122569Y-126413720D01*
X93965000Y-126794126D01*
X93965000Y-127205874D01*
X94122569Y-127586280D01*
X94413720Y-127877431D01*
X94794126Y-128035000D01*
X95205874Y-128035000D01*
X95586280Y-127877431D01*
X95877431Y-127586280D01*
X96035000Y-127205874D01*
X96035000Y-127039801D01*
X97004473Y-126070329D01*
X97067929Y-126027929D01*
X97235904Y-125776537D01*
X97280000Y-125554852D01*
X97280000Y-125554848D01*
X97294888Y-125480000D01*
X97280000Y-125405152D01*
X97280000Y-123138043D01*
X97554577Y-122954577D01*
X97790000Y-122602242D01*
X98025423Y-122954577D01*
X98500091Y-123271740D01*
X98918667Y-123355000D01*
X99201333Y-123355000D01*
X99619909Y-123271740D01*
X100094577Y-122954577D01*
X100175215Y-122833894D01*
X100201843Y-122967765D01*
X100332257Y-123162941D01*
X92320527Y-131174672D01*
X92257071Y-131217072D01*
X92214671Y-131280528D01*
X92214670Y-131280529D01*
X92089096Y-131468464D01*
X92030111Y-131765001D01*
X92045000Y-131839853D01*
X92045000Y-135838389D01*
X91999909Y-135808260D01*
X91581333Y-135725000D01*
X91298667Y-135725000D01*
X90880091Y-135808260D01*
X90405423Y-136125423D01*
X90170000Y-136477758D01*
X89934577Y-136125423D01*
X89459909Y-135808260D01*
X89041333Y-135725000D01*
X88758667Y-135725000D01*
X88340091Y-135808260D01*
X87865423Y-136125423D01*
X87630000Y-136477758D01*
X87394577Y-136125423D01*
X86919909Y-135808260D01*
X86501333Y-135725000D01*
X86218667Y-135725000D01*
X85800091Y-135808260D01*
X85325423Y-136125423D01*
X85090000Y-136477758D01*
X84854577Y-136125423D01*
X84379909Y-135808260D01*
X83961333Y-135725000D01*
X83678667Y-135725000D01*
X83260091Y-135808260D01*
X82785423Y-136125423D01*
X82550000Y-136477758D01*
X82314577Y-136125423D01*
X81839909Y-135808260D01*
X81421333Y-135725000D01*
X81249802Y-135725000D01*
X82939477Y-134035326D01*
X83002930Y-133992928D01*
X83045328Y-133929475D01*
X83045330Y-133929473D01*
X83170904Y-133741537D01*
X83170905Y-133741536D01*
X83215001Y-133519851D01*
X83215001Y-133519847D01*
X83229889Y-133445000D01*
X83215001Y-133370153D01*
X83215001Y-124725519D01*
X83272071Y-124810931D01*
X83335529Y-124853333D01*
X84151672Y-125669476D01*
X84194070Y-125732930D01*
X84257523Y-125775328D01*
X84257525Y-125775330D01*
X84312017Y-125811740D01*
X84445462Y-125900905D01*
X84667147Y-125945001D01*
X84667151Y-125945001D01*
X84741998Y-125959889D01*
X84816845Y-125945001D01*
X85363154Y-125945001D01*
X85438001Y-125959889D01*
X85512848Y-125945001D01*
X85512853Y-125945001D01*
X85734538Y-125900905D01*
X85985930Y-125732930D01*
X86028332Y-125669471D01*
X88019474Y-123678330D01*
X88082930Y-123635930D01*
X88161776Y-123517929D01*
X88250905Y-123384539D01*
X88273342Y-123271740D01*
X88281173Y-123232372D01*
X88340091Y-123271740D01*
X88758667Y-123355000D01*
X89041333Y-123355000D01*
X89459909Y-123271740D01*
X89934577Y-122954577D01*
X90170000Y-122602242D01*
X90405423Y-122954577D01*
X90880091Y-123271740D01*
X91298667Y-123355000D01*
X91581333Y-123355000D01*
X91999909Y-123271740D01*
X92474577Y-122954577D01*
X92730947Y-122570892D01*
X92827611Y-122775134D01*
X93242577Y-123151041D01*
X93630961Y-123311904D01*
X93853000Y-123189915D01*
X93853000Y-122047000D01*
X93833000Y-122047000D01*
X93833000Y-121793000D01*
X93853000Y-121793000D01*
X93853000Y-119507000D01*
X93833000Y-119507000D01*
X93833000Y-119253000D01*
X93853000Y-119253000D01*
X93853000Y-119233000D01*
X94107000Y-119233000D01*
X94107000Y-119253000D01*
X94107000Y-119253000D01*
G37*
X94107000Y-119253000D02*
X94127000Y-119253000D01*
X94127000Y-119507000D01*
X94107000Y-119507000D01*
X94107000Y-121793000D01*
X94127000Y-121793000D01*
X94127000Y-122047000D01*
X94107000Y-122047000D01*
X94107000Y-123189915D01*
X94329039Y-123311904D01*
X94717423Y-123151041D01*
X95132389Y-122775134D01*
X95229053Y-122570892D01*
X95485423Y-122954577D01*
X95760000Y-123138044D01*
X95760001Y-125165197D01*
X94960199Y-125965000D01*
X94794126Y-125965000D01*
X94413720Y-126122569D01*
X94122569Y-126413720D01*
X93965000Y-126794126D01*
X93965000Y-127205874D01*
X94122569Y-127586280D01*
X94413720Y-127877431D01*
X94794126Y-128035000D01*
X95205874Y-128035000D01*
X95586280Y-127877431D01*
X95877431Y-127586280D01*
X96035000Y-127205874D01*
X96035000Y-127039801D01*
X97004473Y-126070329D01*
X97067929Y-126027929D01*
X97235904Y-125776537D01*
X97280000Y-125554852D01*
X97280000Y-125554848D01*
X97294888Y-125480000D01*
X97280000Y-125405152D01*
X97280000Y-123138043D01*
X97554577Y-122954577D01*
X97790000Y-122602242D01*
X98025423Y-122954577D01*
X98500091Y-123271740D01*
X98918667Y-123355000D01*
X99201333Y-123355000D01*
X99619909Y-123271740D01*
X100094577Y-122954577D01*
X100175215Y-122833894D01*
X100201843Y-122967765D01*
X100332257Y-123162941D01*
X92320527Y-131174672D01*
X92257071Y-131217072D01*
X92214671Y-131280528D01*
X92214670Y-131280529D01*
X92089096Y-131468464D01*
X92030111Y-131765001D01*
X92045000Y-131839853D01*
X92045000Y-135838389D01*
X91999909Y-135808260D01*
X91581333Y-135725000D01*
X91298667Y-135725000D01*
X90880091Y-135808260D01*
X90405423Y-136125423D01*
X90170000Y-136477758D01*
X89934577Y-136125423D01*
X89459909Y-135808260D01*
X89041333Y-135725000D01*
X88758667Y-135725000D01*
X88340091Y-135808260D01*
X87865423Y-136125423D01*
X87630000Y-136477758D01*
X87394577Y-136125423D01*
X86919909Y-135808260D01*
X86501333Y-135725000D01*
X86218667Y-135725000D01*
X85800091Y-135808260D01*
X85325423Y-136125423D01*
X85090000Y-136477758D01*
X84854577Y-136125423D01*
X84379909Y-135808260D01*
X83961333Y-135725000D01*
X83678667Y-135725000D01*
X83260091Y-135808260D01*
X82785423Y-136125423D01*
X82550000Y-136477758D01*
X82314577Y-136125423D01*
X81839909Y-135808260D01*
X81421333Y-135725000D01*
X81249802Y-135725000D01*
X82939477Y-134035326D01*
X83002930Y-133992928D01*
X83045328Y-133929475D01*
X83045330Y-133929473D01*
X83170904Y-133741537D01*
X83170905Y-133741536D01*
X83215001Y-133519851D01*
X83215001Y-133519847D01*
X83229889Y-133445000D01*
X83215001Y-133370153D01*
X83215001Y-124725519D01*
X83272071Y-124810931D01*
X83335529Y-124853333D01*
X84151672Y-125669476D01*
X84194070Y-125732930D01*
X84257523Y-125775328D01*
X84257525Y-125775330D01*
X84312017Y-125811740D01*
X84445462Y-125900905D01*
X84667147Y-125945001D01*
X84667151Y-125945001D01*
X84741998Y-125959889D01*
X84816845Y-125945001D01*
X85363154Y-125945001D01*
X85438001Y-125959889D01*
X85512848Y-125945001D01*
X85512853Y-125945001D01*
X85734538Y-125900905D01*
X85985930Y-125732930D01*
X86028332Y-125669471D01*
X88019474Y-123678330D01*
X88082930Y-123635930D01*
X88161776Y-123517929D01*
X88250905Y-123384539D01*
X88273342Y-123271740D01*
X88281173Y-123232372D01*
X88340091Y-123271740D01*
X88758667Y-123355000D01*
X89041333Y-123355000D01*
X89459909Y-123271740D01*
X89934577Y-122954577D01*
X90170000Y-122602242D01*
X90405423Y-122954577D01*
X90880091Y-123271740D01*
X91298667Y-123355000D01*
X91581333Y-123355000D01*
X91999909Y-123271740D01*
X92474577Y-122954577D01*
X92730947Y-122570892D01*
X92827611Y-122775134D01*
X93242577Y-123151041D01*
X93630961Y-123311904D01*
X93853000Y-123189915D01*
X93853000Y-122047000D01*
X93833000Y-122047000D01*
X93833000Y-121793000D01*
X93853000Y-121793000D01*
X93853000Y-119507000D01*
X93833000Y-119507000D01*
X93833000Y-119253000D01*
X93853000Y-119253000D01*
X93853000Y-119233000D01*
X94107000Y-119233000D01*
X94107000Y-119253000D01*
G36*
X77205000Y-68384966D02*
X77205000Y-68885330D01*
X77438690Y-69449507D01*
X77792501Y-69803318D01*
X77792500Y-76646683D01*
X77773938Y-76740000D01*
X77792500Y-76833317D01*
X77847475Y-77109695D01*
X78056891Y-77423109D01*
X78136006Y-77475972D01*
X80035069Y-79375036D01*
X80122569Y-79586280D01*
X80413720Y-79877431D01*
X80794126Y-80035000D01*
X81205874Y-80035000D01*
X81586280Y-79877431D01*
X81695001Y-79768710D01*
X81695002Y-117948457D01*
X81426256Y-117895000D01*
X81133744Y-117895000D01*
X80700582Y-117981161D01*
X80209375Y-118309375D01*
X80010000Y-118607761D01*
X79810625Y-118309375D01*
X79500000Y-118101822D01*
X79500000Y-103573711D01*
X79617431Y-103456280D01*
X79775000Y-103075874D01*
X79775000Y-102664126D01*
X79617431Y-102283720D01*
X79326280Y-101992569D01*
X78945874Y-101835000D01*
X78534126Y-101835000D01*
X78153720Y-101992569D01*
X77862569Y-102283720D01*
X77705000Y-102664126D01*
X77705000Y-103075874D01*
X77862569Y-103456280D01*
X77980000Y-103573711D01*
X77980000Y-105212189D01*
X77894571Y-105165034D01*
X76379605Y-106680000D01*
X77894571Y-108194966D01*
X77980000Y-108147811D01*
X77980001Y-115806197D01*
X74884939Y-112711136D01*
X74884939Y-108723155D01*
X75756576Y-109071015D01*
X76705332Y-109058701D01*
X77524672Y-108719319D01*
X77714966Y-108374571D01*
X76200000Y-106859605D01*
X76185858Y-106873748D01*
X76006253Y-106694143D01*
X76020395Y-106680000D01*
X76006253Y-106665858D01*
X76185858Y-106486253D01*
X76200000Y-106500395D01*
X77714966Y-104985429D01*
X77524672Y-104640681D01*
X76643424Y-104288985D01*
X75694668Y-104301299D01*
X74875328Y-104640681D01*
X74685035Y-104985427D01*
X74572031Y-104872423D01*
X74522189Y-104922265D01*
X71880000Y-102280077D01*
X71880000Y-94743525D01*
X71884369Y-94765489D01*
X72300991Y-95389009D01*
X72924510Y-95805631D01*
X73660000Y-95951929D01*
X74395489Y-95805631D01*
X75019009Y-95389009D01*
X75435631Y-94765490D01*
X75545000Y-94215655D01*
X75545000Y-94204040D01*
X76774885Y-94204040D01*
X76984983Y-94912194D01*
X77450087Y-95486042D01*
X78099389Y-95838221D01*
X78240355Y-95867695D01*
X78533000Y-95751572D01*
X78533000Y-93907000D01*
X78787000Y-93907000D01*
X78787000Y-95751572D01*
X79079645Y-95867695D01*
X79220611Y-95838221D01*
X79869913Y-95486042D01*
X80335017Y-94912194D01*
X80545115Y-94204040D01*
X80390382Y-93907000D01*
X78787000Y-93907000D01*
X78533000Y-93907000D01*
X76929618Y-93907000D01*
X76774885Y-94204040D01*
X75545000Y-94204040D01*
X75545000Y-93355960D01*
X76774885Y-93355960D01*
X76929618Y-93653000D01*
X78533000Y-93653000D01*
X78533000Y-91808428D01*
X78787000Y-91808428D01*
X78787000Y-93653000D01*
X80390382Y-93653000D01*
X80545115Y-93355960D01*
X80335017Y-92647806D01*
X79869913Y-92073958D01*
X79220611Y-91721779D01*
X79079645Y-91692305D01*
X78787000Y-91808428D01*
X78533000Y-91808428D01*
X78240355Y-91692305D01*
X78099389Y-91721779D01*
X77450087Y-92073958D01*
X76984983Y-92647806D01*
X76774885Y-93355960D01*
X75545000Y-93355960D01*
X75545000Y-93344346D01*
X75435631Y-92794510D01*
X75019009Y-92170991D01*
X74420000Y-91770746D01*
X74420000Y-83289253D01*
X75019009Y-82889009D01*
X75435631Y-82265490D01*
X75545000Y-81715655D01*
X75545000Y-81704040D01*
X76774885Y-81704040D01*
X76984983Y-82412194D01*
X77450087Y-82986042D01*
X78099389Y-83338221D01*
X78240355Y-83367695D01*
X78533000Y-83251572D01*
X78533000Y-81407000D01*
X78787000Y-81407000D01*
X78787000Y-83251572D01*
X79079645Y-83367695D01*
X79220611Y-83338221D01*
X79869913Y-82986042D01*
X80335017Y-82412194D01*
X80545115Y-81704040D01*
X80390382Y-81407000D01*
X78787000Y-81407000D01*
X78533000Y-81407000D01*
X76929618Y-81407000D01*
X76774885Y-81704040D01*
X75545000Y-81704040D01*
X75545000Y-80855960D01*
X76774885Y-80855960D01*
X76929618Y-81153000D01*
X78533000Y-81153000D01*
X78533000Y-79308428D01*
X78787000Y-79308428D01*
X78787000Y-81153000D01*
X80390382Y-81153000D01*
X80545115Y-80855960D01*
X80335017Y-80147806D01*
X79869913Y-79573958D01*
X79220611Y-79221779D01*
X79079645Y-79192305D01*
X78787000Y-79308428D01*
X78533000Y-79308428D01*
X78240355Y-79192305D01*
X78099389Y-79221779D01*
X77450087Y-79573958D01*
X76984983Y-80147806D01*
X76774885Y-80855960D01*
X75545000Y-80855960D01*
X75545000Y-80844346D01*
X75435631Y-80294510D01*
X75019009Y-79670991D01*
X74395490Y-79254369D01*
X73660000Y-79108071D01*
X72924511Y-79254369D01*
X72300991Y-79670991D01*
X71884369Y-80294510D01*
X71880000Y-80316474D01*
X71880000Y-73774846D01*
X71894888Y-73699999D01*
X71880000Y-73625152D01*
X71880000Y-73625148D01*
X71835904Y-73403463D01*
X71794102Y-73340902D01*
X71710329Y-73215526D01*
X71710327Y-73215524D01*
X71667929Y-73152071D01*
X71604476Y-73109673D01*
X68606675Y-70111873D01*
X68869460Y-70100839D01*
X69314148Y-69916643D01*
X69400554Y-69660159D01*
X68500000Y-68759605D01*
X68485858Y-68773748D01*
X68306253Y-68594143D01*
X68320395Y-68580000D01*
X68306253Y-68565858D01*
X68485858Y-68386253D01*
X68500000Y-68400395D01*
X68514143Y-68386253D01*
X68693748Y-68565858D01*
X68679605Y-68580000D01*
X69580159Y-69480554D01*
X69836643Y-69394148D01*
X70046458Y-68820664D01*
X70020839Y-68210540D01*
X69981265Y-68114999D01*
X76935033Y-68114999D01*
X77205000Y-68384966D01*
X77205000Y-68384966D01*
G37*
X77205000Y-68384966D02*
X77205000Y-68885330D01*
X77438690Y-69449507D01*
X77792501Y-69803318D01*
X77792500Y-76646683D01*
X77773938Y-76740000D01*
X77792500Y-76833317D01*
X77847475Y-77109695D01*
X78056891Y-77423109D01*
X78136006Y-77475972D01*
X80035069Y-79375036D01*
X80122569Y-79586280D01*
X80413720Y-79877431D01*
X80794126Y-80035000D01*
X81205874Y-80035000D01*
X81586280Y-79877431D01*
X81695001Y-79768710D01*
X81695002Y-117948457D01*
X81426256Y-117895000D01*
X81133744Y-117895000D01*
X80700582Y-117981161D01*
X80209375Y-118309375D01*
X80010000Y-118607761D01*
X79810625Y-118309375D01*
X79500000Y-118101822D01*
X79500000Y-103573711D01*
X79617431Y-103456280D01*
X79775000Y-103075874D01*
X79775000Y-102664126D01*
X79617431Y-102283720D01*
X79326280Y-101992569D01*
X78945874Y-101835000D01*
X78534126Y-101835000D01*
X78153720Y-101992569D01*
X77862569Y-102283720D01*
X77705000Y-102664126D01*
X77705000Y-103075874D01*
X77862569Y-103456280D01*
X77980000Y-103573711D01*
X77980000Y-105212189D01*
X77894571Y-105165034D01*
X76379605Y-106680000D01*
X77894571Y-108194966D01*
X77980000Y-108147811D01*
X77980001Y-115806197D01*
X74884939Y-112711136D01*
X74884939Y-108723155D01*
X75756576Y-109071015D01*
X76705332Y-109058701D01*
X77524672Y-108719319D01*
X77714966Y-108374571D01*
X76200000Y-106859605D01*
X76185858Y-106873748D01*
X76006253Y-106694143D01*
X76020395Y-106680000D01*
X76006253Y-106665858D01*
X76185858Y-106486253D01*
X76200000Y-106500395D01*
X77714966Y-104985429D01*
X77524672Y-104640681D01*
X76643424Y-104288985D01*
X75694668Y-104301299D01*
X74875328Y-104640681D01*
X74685035Y-104985427D01*
X74572031Y-104872423D01*
X74522189Y-104922265D01*
X71880000Y-102280077D01*
X71880000Y-94743525D01*
X71884369Y-94765489D01*
X72300991Y-95389009D01*
X72924510Y-95805631D01*
X73660000Y-95951929D01*
X74395489Y-95805631D01*
X75019009Y-95389009D01*
X75435631Y-94765490D01*
X75545000Y-94215655D01*
X75545000Y-94204040D01*
X76774885Y-94204040D01*
X76984983Y-94912194D01*
X77450087Y-95486042D01*
X78099389Y-95838221D01*
X78240355Y-95867695D01*
X78533000Y-95751572D01*
X78533000Y-93907000D01*
X78787000Y-93907000D01*
X78787000Y-95751572D01*
X79079645Y-95867695D01*
X79220611Y-95838221D01*
X79869913Y-95486042D01*
X80335017Y-94912194D01*
X80545115Y-94204040D01*
X80390382Y-93907000D01*
X78787000Y-93907000D01*
X78533000Y-93907000D01*
X76929618Y-93907000D01*
X76774885Y-94204040D01*
X75545000Y-94204040D01*
X75545000Y-93355960D01*
X76774885Y-93355960D01*
X76929618Y-93653000D01*
X78533000Y-93653000D01*
X78533000Y-91808428D01*
X78787000Y-91808428D01*
X78787000Y-93653000D01*
X80390382Y-93653000D01*
X80545115Y-93355960D01*
X80335017Y-92647806D01*
X79869913Y-92073958D01*
X79220611Y-91721779D01*
X79079645Y-91692305D01*
X78787000Y-91808428D01*
X78533000Y-91808428D01*
X78240355Y-91692305D01*
X78099389Y-91721779D01*
X77450087Y-92073958D01*
X76984983Y-92647806D01*
X76774885Y-93355960D01*
X75545000Y-93355960D01*
X75545000Y-93344346D01*
X75435631Y-92794510D01*
X75019009Y-92170991D01*
X74420000Y-91770746D01*
X74420000Y-83289253D01*
X75019009Y-82889009D01*
X75435631Y-82265490D01*
X75545000Y-81715655D01*
X75545000Y-81704040D01*
X76774885Y-81704040D01*
X76984983Y-82412194D01*
X77450087Y-82986042D01*
X78099389Y-83338221D01*
X78240355Y-83367695D01*
X78533000Y-83251572D01*
X78533000Y-81407000D01*
X78787000Y-81407000D01*
X78787000Y-83251572D01*
X79079645Y-83367695D01*
X79220611Y-83338221D01*
X79869913Y-82986042D01*
X80335017Y-82412194D01*
X80545115Y-81704040D01*
X80390382Y-81407000D01*
X78787000Y-81407000D01*
X78533000Y-81407000D01*
X76929618Y-81407000D01*
X76774885Y-81704040D01*
X75545000Y-81704040D01*
X75545000Y-80855960D01*
X76774885Y-80855960D01*
X76929618Y-81153000D01*
X78533000Y-81153000D01*
X78533000Y-79308428D01*
X78787000Y-79308428D01*
X78787000Y-81153000D01*
X80390382Y-81153000D01*
X80545115Y-80855960D01*
X80335017Y-80147806D01*
X79869913Y-79573958D01*
X79220611Y-79221779D01*
X79079645Y-79192305D01*
X78787000Y-79308428D01*
X78533000Y-79308428D01*
X78240355Y-79192305D01*
X78099389Y-79221779D01*
X77450087Y-79573958D01*
X76984983Y-80147806D01*
X76774885Y-80855960D01*
X75545000Y-80855960D01*
X75545000Y-80844346D01*
X75435631Y-80294510D01*
X75019009Y-79670991D01*
X74395490Y-79254369D01*
X73660000Y-79108071D01*
X72924511Y-79254369D01*
X72300991Y-79670991D01*
X71884369Y-80294510D01*
X71880000Y-80316474D01*
X71880000Y-73774846D01*
X71894888Y-73699999D01*
X71880000Y-73625152D01*
X71880000Y-73625148D01*
X71835904Y-73403463D01*
X71794102Y-73340902D01*
X71710329Y-73215526D01*
X71710327Y-73215524D01*
X71667929Y-73152071D01*
X71604476Y-73109673D01*
X68606675Y-70111873D01*
X68869460Y-70100839D01*
X69314148Y-69916643D01*
X69400554Y-69660159D01*
X68500000Y-68759605D01*
X68485858Y-68773748D01*
X68306253Y-68594143D01*
X68320395Y-68580000D01*
X68306253Y-68565858D01*
X68485858Y-68386253D01*
X68500000Y-68400395D01*
X68514143Y-68386253D01*
X68693748Y-68565858D01*
X68679605Y-68580000D01*
X69580159Y-69480554D01*
X69836643Y-69394148D01*
X70046458Y-68820664D01*
X70020839Y-68210540D01*
X69981265Y-68114999D01*
X76935033Y-68114999D01*
X77205000Y-68384966D01*
G36*
X107045002Y-95687534D02*
X107045002Y-102737956D01*
X106965439Y-102705000D01*
X106394561Y-102705000D01*
X105867138Y-102923466D01*
X105463466Y-103327138D01*
X105410000Y-103456216D01*
X105356534Y-103327138D01*
X104952862Y-102923466D01*
X104425439Y-102705000D01*
X103854561Y-102705000D01*
X103327138Y-102923466D01*
X102923466Y-103327138D01*
X102870000Y-103456216D01*
X102816534Y-103327138D01*
X102412862Y-102923466D01*
X101885439Y-102705000D01*
X101314561Y-102705000D01*
X100787138Y-102923466D01*
X100383466Y-103327138D01*
X100165000Y-103854561D01*
X100165000Y-104425439D01*
X100383466Y-104952862D01*
X100787138Y-105356534D01*
X101314561Y-105575000D01*
X101885439Y-105575000D01*
X102412862Y-105356534D01*
X102816534Y-104952862D01*
X102870000Y-104823784D01*
X102923466Y-104952862D01*
X103327138Y-105356534D01*
X103854561Y-105575000D01*
X104425439Y-105575000D01*
X104952862Y-105356534D01*
X105356534Y-104952862D01*
X105410000Y-104823784D01*
X105463466Y-104952862D01*
X105867138Y-105356534D01*
X106394561Y-105575000D01*
X106965439Y-105575000D01*
X107045002Y-105542044D01*
X107045001Y-112909490D01*
X106821333Y-112865000D01*
X106538667Y-112865000D01*
X106120091Y-112948260D01*
X105645423Y-113265423D01*
X105410000Y-113617758D01*
X105174577Y-113265423D01*
X104699909Y-112948260D01*
X104281333Y-112865000D01*
X103998667Y-112865000D01*
X103580091Y-112948260D01*
X103105423Y-113265423D01*
X102870000Y-113617758D01*
X102634577Y-113265423D01*
X102159909Y-112948260D01*
X101741333Y-112865000D01*
X101458667Y-112865000D01*
X101040091Y-112948260D01*
X100565423Y-113265423D01*
X100248260Y-113740091D01*
X100136887Y-114300000D01*
X100220690Y-114721306D01*
X100218699Y-114719976D01*
X99942321Y-114665001D01*
X99942320Y-114665001D01*
X99849003Y-114646439D01*
X99755686Y-114665001D01*
X97873687Y-114665001D01*
X97926965Y-114516777D01*
X97899778Y-113946546D01*
X97733864Y-113545995D01*
X97487745Y-113471861D01*
X96659605Y-114300000D01*
X96673748Y-114314143D01*
X96494143Y-114493748D01*
X96480000Y-114479605D01*
X96465858Y-114493748D01*
X96286253Y-114314143D01*
X96300395Y-114300000D01*
X95472255Y-113471861D01*
X95424693Y-113486187D01*
X95386118Y-113292255D01*
X95651861Y-113292255D01*
X96480000Y-114120395D01*
X97308139Y-113292255D01*
X97234005Y-113046136D01*
X96696777Y-112853035D01*
X96126546Y-112880222D01*
X95725995Y-113046136D01*
X95651861Y-113292255D01*
X95386118Y-113292255D01*
X95378157Y-113252235D01*
X95237809Y-113042191D01*
X95027765Y-112901843D01*
X94927500Y-112881899D01*
X94927500Y-107761896D01*
X95001651Y-107687745D01*
X95651861Y-107687745D01*
X95725995Y-107933864D01*
X96263223Y-108126965D01*
X96833454Y-108099778D01*
X97234005Y-107933864D01*
X97308139Y-107687745D01*
X96480000Y-106859605D01*
X95651861Y-107687745D01*
X95001651Y-107687745D01*
X95196534Y-107492862D01*
X95223525Y-107427701D01*
X95226136Y-107434005D01*
X95472255Y-107508139D01*
X96300395Y-106680000D01*
X96659605Y-106680000D01*
X97487745Y-107508139D01*
X97733864Y-107434005D01*
X97926965Y-106896777D01*
X97899778Y-106326546D01*
X97733864Y-105925995D01*
X97487745Y-105851861D01*
X96659605Y-106680000D01*
X96300395Y-106680000D01*
X95472255Y-105851861D01*
X95226136Y-105925995D01*
X95223710Y-105932746D01*
X95196534Y-105867138D01*
X95001651Y-105672255D01*
X95651861Y-105672255D01*
X96480000Y-106500395D01*
X97308139Y-105672255D01*
X97234005Y-105426136D01*
X96696777Y-105233035D01*
X96126546Y-105260222D01*
X95725995Y-105426136D01*
X95651861Y-105672255D01*
X95001651Y-105672255D01*
X94792862Y-105463466D01*
X94265439Y-105245000D01*
X93694561Y-105245000D01*
X93167138Y-105463466D01*
X92763466Y-105867138D01*
X92545000Y-106394561D01*
X92545000Y-106965439D01*
X92763466Y-107492862D01*
X93032501Y-107761897D01*
X93032500Y-112881899D01*
X92932235Y-112901843D01*
X92722191Y-113042191D01*
X92581843Y-113252235D01*
X92532560Y-113500000D01*
X92532560Y-115100000D01*
X92581843Y-115347765D01*
X92722191Y-115557809D01*
X92932235Y-115698157D01*
X93180000Y-115747440D01*
X94087473Y-115747440D01*
X94420033Y-116080000D01*
X91514846Y-116080000D01*
X91439999Y-116065112D01*
X91365152Y-116080000D01*
X91365148Y-116080000D01*
X91143463Y-116124096D01*
X91143461Y-116124097D01*
X91143462Y-116124097D01*
X90955526Y-116249671D01*
X90955524Y-116249673D01*
X90892071Y-116292071D01*
X90849673Y-116355524D01*
X89266408Y-117938791D01*
X89046256Y-117895000D01*
X88753744Y-117895000D01*
X88320582Y-117981161D01*
X88295001Y-117998254D01*
X88295001Y-117644802D01*
X91924473Y-114015331D01*
X91987929Y-113972931D01*
X92155904Y-113721539D01*
X92200000Y-113499854D01*
X92200000Y-113499850D01*
X92214888Y-113425002D01*
X92200000Y-113350154D01*
X92200000Y-111193711D01*
X92317431Y-111076280D01*
X92475000Y-110695874D01*
X92475000Y-110284126D01*
X92317431Y-109903720D01*
X92026280Y-109612569D01*
X91645874Y-109455000D01*
X91234126Y-109455000D01*
X90853720Y-109612569D01*
X90562569Y-109903720D01*
X90405000Y-110284126D01*
X90405000Y-110695874D01*
X90562569Y-111076280D01*
X90680000Y-111193711D01*
X90680001Y-113110199D01*
X90170978Y-113619222D01*
X89934577Y-113265423D01*
X89459909Y-112948260D01*
X89041333Y-112865000D01*
X88758667Y-112865000D01*
X88340091Y-112948260D01*
X87865423Y-113265423D01*
X87630000Y-113617758D01*
X87394577Y-113265423D01*
X86919909Y-112948260D01*
X86501333Y-112865000D01*
X86218667Y-112865000D01*
X85850000Y-112938332D01*
X85850000Y-112074801D01*
X92030329Y-105894473D01*
X92030331Y-105894470D01*
X94019803Y-103905000D01*
X94185874Y-103905000D01*
X94566280Y-103747431D01*
X94857431Y-103456280D01*
X95015000Y-103075874D01*
X95015000Y-102664126D01*
X94857431Y-102283720D01*
X94566280Y-101992569D01*
X94185874Y-101835000D01*
X93774126Y-101835000D01*
X93393720Y-101992569D01*
X93102569Y-102283720D01*
X92945000Y-102664126D01*
X92945000Y-102830197D01*
X90955530Y-104819669D01*
X90955527Y-104819671D01*
X84605530Y-111169669D01*
X84542071Y-111212071D01*
X84374096Y-111463464D01*
X84330000Y-111685149D01*
X84330000Y-111685153D01*
X84315112Y-111760000D01*
X84330000Y-111834847D01*
X84330000Y-112938332D01*
X83961333Y-112865000D01*
X83678667Y-112865000D01*
X83260091Y-112948260D01*
X83215001Y-112978388D01*
X83215001Y-105442634D01*
X83534561Y-105575000D01*
X84105439Y-105575000D01*
X84632862Y-105356534D01*
X85036534Y-104952862D01*
X85090000Y-104823784D01*
X85143466Y-104952862D01*
X85547138Y-105356534D01*
X86074561Y-105575000D01*
X86645439Y-105575000D01*
X87172862Y-105356534D01*
X87576534Y-104952862D01*
X87630000Y-104823784D01*
X87683466Y-104952862D01*
X88087138Y-105356534D01*
X88614561Y-105575000D01*
X89185439Y-105575000D01*
X89712862Y-105356534D01*
X90116534Y-104952862D01*
X90335000Y-104425439D01*
X90335000Y-103854561D01*
X90313103Y-103801698D01*
X93419483Y-100695319D01*
X93482939Y-100652919D01*
X93650914Y-100401527D01*
X93695010Y-100179842D01*
X93695010Y-100179837D01*
X93709898Y-100104990D01*
X93695010Y-100030143D01*
X93695010Y-82337541D01*
X107045002Y-95687534D01*
X107045002Y-95687534D01*
G37*
X107045002Y-95687534D02*
X107045002Y-102737956D01*
X106965439Y-102705000D01*
X106394561Y-102705000D01*
X105867138Y-102923466D01*
X105463466Y-103327138D01*
X105410000Y-103456216D01*
X105356534Y-103327138D01*
X104952862Y-102923466D01*
X104425439Y-102705000D01*
X103854561Y-102705000D01*
X103327138Y-102923466D01*
X102923466Y-103327138D01*
X102870000Y-103456216D01*
X102816534Y-103327138D01*
X102412862Y-102923466D01*
X101885439Y-102705000D01*
X101314561Y-102705000D01*
X100787138Y-102923466D01*
X100383466Y-103327138D01*
X100165000Y-103854561D01*
X100165000Y-104425439D01*
X100383466Y-104952862D01*
X100787138Y-105356534D01*
X101314561Y-105575000D01*
X101885439Y-105575000D01*
X102412862Y-105356534D01*
X102816534Y-104952862D01*
X102870000Y-104823784D01*
X102923466Y-104952862D01*
X103327138Y-105356534D01*
X103854561Y-105575000D01*
X104425439Y-105575000D01*
X104952862Y-105356534D01*
X105356534Y-104952862D01*
X105410000Y-104823784D01*
X105463466Y-104952862D01*
X105867138Y-105356534D01*
X106394561Y-105575000D01*
X106965439Y-105575000D01*
X107045002Y-105542044D01*
X107045001Y-112909490D01*
X106821333Y-112865000D01*
X106538667Y-112865000D01*
X106120091Y-112948260D01*
X105645423Y-113265423D01*
X105410000Y-113617758D01*
X105174577Y-113265423D01*
X104699909Y-112948260D01*
X104281333Y-112865000D01*
X103998667Y-112865000D01*
X103580091Y-112948260D01*
X103105423Y-113265423D01*
X102870000Y-113617758D01*
X102634577Y-113265423D01*
X102159909Y-112948260D01*
X101741333Y-112865000D01*
X101458667Y-112865000D01*
X101040091Y-112948260D01*
X100565423Y-113265423D01*
X100248260Y-113740091D01*
X100136887Y-114300000D01*
X100220690Y-114721306D01*
X100218699Y-114719976D01*
X99942321Y-114665001D01*
X99942320Y-114665001D01*
X99849003Y-114646439D01*
X99755686Y-114665001D01*
X97873687Y-114665001D01*
X97926965Y-114516777D01*
X97899778Y-113946546D01*
X97733864Y-113545995D01*
X97487745Y-113471861D01*
X96659605Y-114300000D01*
X96673748Y-114314143D01*
X96494143Y-114493748D01*
X96480000Y-114479605D01*
X96465858Y-114493748D01*
X96286253Y-114314143D01*
X96300395Y-114300000D01*
X95472255Y-113471861D01*
X95424693Y-113486187D01*
X95386118Y-113292255D01*
X95651861Y-113292255D01*
X96480000Y-114120395D01*
X97308139Y-113292255D01*
X97234005Y-113046136D01*
X96696777Y-112853035D01*
X96126546Y-112880222D01*
X95725995Y-113046136D01*
X95651861Y-113292255D01*
X95386118Y-113292255D01*
X95378157Y-113252235D01*
X95237809Y-113042191D01*
X95027765Y-112901843D01*
X94927500Y-112881899D01*
X94927500Y-107761896D01*
X95001651Y-107687745D01*
X95651861Y-107687745D01*
X95725995Y-107933864D01*
X96263223Y-108126965D01*
X96833454Y-108099778D01*
X97234005Y-107933864D01*
X97308139Y-107687745D01*
X96480000Y-106859605D01*
X95651861Y-107687745D01*
X95001651Y-107687745D01*
X95196534Y-107492862D01*
X95223525Y-107427701D01*
X95226136Y-107434005D01*
X95472255Y-107508139D01*
X96300395Y-106680000D01*
X96659605Y-106680000D01*
X97487745Y-107508139D01*
X97733864Y-107434005D01*
X97926965Y-106896777D01*
X97899778Y-106326546D01*
X97733864Y-105925995D01*
X97487745Y-105851861D01*
X96659605Y-106680000D01*
X96300395Y-106680000D01*
X95472255Y-105851861D01*
X95226136Y-105925995D01*
X95223710Y-105932746D01*
X95196534Y-105867138D01*
X95001651Y-105672255D01*
X95651861Y-105672255D01*
X96480000Y-106500395D01*
X97308139Y-105672255D01*
X97234005Y-105426136D01*
X96696777Y-105233035D01*
X96126546Y-105260222D01*
X95725995Y-105426136D01*
X95651861Y-105672255D01*
X95001651Y-105672255D01*
X94792862Y-105463466D01*
X94265439Y-105245000D01*
X93694561Y-105245000D01*
X93167138Y-105463466D01*
X92763466Y-105867138D01*
X92545000Y-106394561D01*
X92545000Y-106965439D01*
X92763466Y-107492862D01*
X93032501Y-107761897D01*
X93032500Y-112881899D01*
X92932235Y-112901843D01*
X92722191Y-113042191D01*
X92581843Y-113252235D01*
X92532560Y-113500000D01*
X92532560Y-115100000D01*
X92581843Y-115347765D01*
X92722191Y-115557809D01*
X92932235Y-115698157D01*
X93180000Y-115747440D01*
X94087473Y-115747440D01*
X94420033Y-116080000D01*
X91514846Y-116080000D01*
X91439999Y-116065112D01*
X91365152Y-116080000D01*
X91365148Y-116080000D01*
X91143463Y-116124096D01*
X91143461Y-116124097D01*
X91143462Y-116124097D01*
X90955526Y-116249671D01*
X90955524Y-116249673D01*
X90892071Y-116292071D01*
X90849673Y-116355524D01*
X89266408Y-117938791D01*
X89046256Y-117895000D01*
X88753744Y-117895000D01*
X88320582Y-117981161D01*
X88295001Y-117998254D01*
X88295001Y-117644802D01*
X91924473Y-114015331D01*
X91987929Y-113972931D01*
X92155904Y-113721539D01*
X92200000Y-113499854D01*
X92200000Y-113499850D01*
X92214888Y-113425002D01*
X92200000Y-113350154D01*
X92200000Y-111193711D01*
X92317431Y-111076280D01*
X92475000Y-110695874D01*
X92475000Y-110284126D01*
X92317431Y-109903720D01*
X92026280Y-109612569D01*
X91645874Y-109455000D01*
X91234126Y-109455000D01*
X90853720Y-109612569D01*
X90562569Y-109903720D01*
X90405000Y-110284126D01*
X90405000Y-110695874D01*
X90562569Y-111076280D01*
X90680000Y-111193711D01*
X90680001Y-113110199D01*
X90170978Y-113619222D01*
X89934577Y-113265423D01*
X89459909Y-112948260D01*
X89041333Y-112865000D01*
X88758667Y-112865000D01*
X88340091Y-112948260D01*
X87865423Y-113265423D01*
X87630000Y-113617758D01*
X87394577Y-113265423D01*
X86919909Y-112948260D01*
X86501333Y-112865000D01*
X86218667Y-112865000D01*
X85850000Y-112938332D01*
X85850000Y-112074801D01*
X92030329Y-105894473D01*
X92030331Y-105894470D01*
X94019803Y-103905000D01*
X94185874Y-103905000D01*
X94566280Y-103747431D01*
X94857431Y-103456280D01*
X95015000Y-103075874D01*
X95015000Y-102664126D01*
X94857431Y-102283720D01*
X94566280Y-101992569D01*
X94185874Y-101835000D01*
X93774126Y-101835000D01*
X93393720Y-101992569D01*
X93102569Y-102283720D01*
X92945000Y-102664126D01*
X92945000Y-102830197D01*
X90955530Y-104819669D01*
X90955527Y-104819671D01*
X84605530Y-111169669D01*
X84542071Y-111212071D01*
X84374096Y-111463464D01*
X84330000Y-111685149D01*
X84330000Y-111685153D01*
X84315112Y-111760000D01*
X84330000Y-111834847D01*
X84330000Y-112938332D01*
X83961333Y-112865000D01*
X83678667Y-112865000D01*
X83260091Y-112948260D01*
X83215001Y-112978388D01*
X83215001Y-105442634D01*
X83534561Y-105575000D01*
X84105439Y-105575000D01*
X84632862Y-105356534D01*
X85036534Y-104952862D01*
X85090000Y-104823784D01*
X85143466Y-104952862D01*
X85547138Y-105356534D01*
X86074561Y-105575000D01*
X86645439Y-105575000D01*
X87172862Y-105356534D01*
X87576534Y-104952862D01*
X87630000Y-104823784D01*
X87683466Y-104952862D01*
X88087138Y-105356534D01*
X88614561Y-105575000D01*
X89185439Y-105575000D01*
X89712862Y-105356534D01*
X90116534Y-104952862D01*
X90335000Y-104425439D01*
X90335000Y-103854561D01*
X90313103Y-103801698D01*
X93419483Y-100695319D01*
X93482939Y-100652919D01*
X93650914Y-100401527D01*
X93695010Y-100179842D01*
X93695010Y-100179837D01*
X93709898Y-100104990D01*
X93695010Y-100030143D01*
X93695010Y-82337541D01*
X107045002Y-95687534D01*
G36*
X69127000Y-49873000D02*
X69147000Y-49873000D01*
X69147000Y-50127000D01*
X69127000Y-50127000D01*
X69127000Y-51376250D01*
X69285750Y-51535000D01*
X70026309Y-51535000D01*
X70259698Y-51438327D01*
X70438327Y-51259699D01*
X70494139Y-51124956D01*
X70670493Y-51301310D01*
X70779790Y-51346582D01*
X70780000Y-51347639D01*
X70780000Y-51347643D01*
X70824096Y-51569328D01*
X70992071Y-51820721D01*
X71055530Y-51863123D01*
X84205002Y-65012597D01*
X84205001Y-67115618D01*
X83980664Y-67033542D01*
X83370540Y-67059161D01*
X82925852Y-67243357D01*
X82839446Y-67499841D01*
X83740000Y-68400395D01*
X83754143Y-68386253D01*
X83933748Y-68565858D01*
X83919605Y-68580000D01*
X83933748Y-68594143D01*
X83754143Y-68773748D01*
X83740000Y-68759605D01*
X83725858Y-68773748D01*
X83546253Y-68594143D01*
X83560395Y-68580000D01*
X82659841Y-67679446D01*
X82544539Y-67718290D01*
X82541310Y-67710493D01*
X82109507Y-67278690D01*
X81545330Y-67045000D01*
X80934670Y-67045000D01*
X80370493Y-67278690D01*
X79990000Y-67659183D01*
X79609507Y-67278690D01*
X79045330Y-67045000D01*
X78544966Y-67045000D01*
X78063471Y-66563505D01*
X78010608Y-66484390D01*
X77697195Y-66274974D01*
X77420817Y-66219999D01*
X77420816Y-66219999D01*
X77327499Y-66201437D01*
X77234182Y-66219999D01*
X65005813Y-66219999D01*
X64912500Y-66201438D01*
X64819187Y-66219999D01*
X64819183Y-66219999D01*
X64542805Y-66274974D01*
X64229392Y-66484390D01*
X64176531Y-66563503D01*
X63796003Y-66944030D01*
X63695033Y-67045000D01*
X63194670Y-67045000D01*
X62630493Y-67278690D01*
X62198690Y-67710493D01*
X61965000Y-68274670D01*
X61965000Y-68885330D01*
X62198690Y-69449507D01*
X62630493Y-69881310D01*
X63194670Y-70115000D01*
X63805330Y-70115000D01*
X64369507Y-69881310D01*
X64750000Y-69500817D01*
X65130493Y-69881310D01*
X65694670Y-70115000D01*
X66305330Y-70115000D01*
X66414839Y-70069640D01*
X70360000Y-74014803D01*
X70360001Y-102520026D01*
X70345112Y-102594878D01*
X70360001Y-102669730D01*
X70399837Y-102870001D01*
X70404097Y-102891415D01*
X70527349Y-103075874D01*
X70572072Y-103142807D01*
X70635528Y-103185207D01*
X71732820Y-104282500D01*
X69369940Y-104282500D01*
X69122175Y-104331783D01*
X68912131Y-104472131D01*
X68771783Y-104682175D01*
X68722500Y-104929940D01*
X68722500Y-105317593D01*
X61352913Y-97948007D01*
X61352909Y-97948001D01*
X58834999Y-95430093D01*
X58834999Y-80844345D01*
X59075000Y-80844345D01*
X59075000Y-81715654D01*
X59184369Y-82265489D01*
X59600991Y-82889009D01*
X60200001Y-83289255D01*
X60200000Y-91770747D01*
X59600991Y-92170991D01*
X59184369Y-92794510D01*
X59075000Y-93344345D01*
X59075000Y-94215654D01*
X59184369Y-94765489D01*
X59600991Y-95389009D01*
X60224510Y-95805631D01*
X60960000Y-95951929D01*
X61695489Y-95805631D01*
X62319009Y-95389009D01*
X62735631Y-94765490D01*
X62845000Y-94215655D01*
X62845000Y-94204040D01*
X64074885Y-94204040D01*
X64284983Y-94912194D01*
X64750087Y-95486042D01*
X65399389Y-95838221D01*
X65540355Y-95867695D01*
X65833000Y-95751572D01*
X65833000Y-93907000D01*
X66087000Y-93907000D01*
X66087000Y-95751572D01*
X66379645Y-95867695D01*
X66520611Y-95838221D01*
X67169913Y-95486042D01*
X67635017Y-94912194D01*
X67845115Y-94204040D01*
X67690382Y-93907000D01*
X66087000Y-93907000D01*
X65833000Y-93907000D01*
X64229618Y-93907000D01*
X64074885Y-94204040D01*
X62845000Y-94204040D01*
X62845000Y-93355960D01*
X64074885Y-93355960D01*
X64229618Y-93653000D01*
X65833000Y-93653000D01*
X65833000Y-91808428D01*
X66087000Y-91808428D01*
X66087000Y-93653000D01*
X67690382Y-93653000D01*
X67845115Y-93355960D01*
X67635017Y-92647806D01*
X67169913Y-92073958D01*
X66520611Y-91721779D01*
X66379645Y-91692305D01*
X66087000Y-91808428D01*
X65833000Y-91808428D01*
X65540355Y-91692305D01*
X65399389Y-91721779D01*
X64750087Y-92073958D01*
X64284983Y-92647806D01*
X64074885Y-93355960D01*
X62845000Y-93355960D01*
X62845000Y-93344346D01*
X62735631Y-92794510D01*
X62319009Y-92170991D01*
X61720000Y-91770746D01*
X61720000Y-83289253D01*
X62319009Y-82889009D01*
X62735631Y-82265490D01*
X62845000Y-81715655D01*
X62845000Y-81704040D01*
X64074885Y-81704040D01*
X64284983Y-82412194D01*
X64750087Y-82986042D01*
X65399389Y-83338221D01*
X65540355Y-83367695D01*
X65833000Y-83251572D01*
X65833000Y-81407000D01*
X66087000Y-81407000D01*
X66087000Y-83251572D01*
X66379645Y-83367695D01*
X66520611Y-83338221D01*
X67169913Y-82986042D01*
X67635017Y-82412194D01*
X67845115Y-81704040D01*
X67690382Y-81407000D01*
X66087000Y-81407000D01*
X65833000Y-81407000D01*
X64229618Y-81407000D01*
X64074885Y-81704040D01*
X62845000Y-81704040D01*
X62845000Y-80855960D01*
X64074885Y-80855960D01*
X64229618Y-81153000D01*
X65833000Y-81153000D01*
X65833000Y-79308428D01*
X66087000Y-79308428D01*
X66087000Y-81153000D01*
X67690382Y-81153000D01*
X67845115Y-80855960D01*
X67635017Y-80147806D01*
X67169913Y-79573958D01*
X66520611Y-79221779D01*
X66379645Y-79192305D01*
X66087000Y-79308428D01*
X65833000Y-79308428D01*
X65540355Y-79192305D01*
X65399389Y-79221779D01*
X64750087Y-79573958D01*
X64284983Y-80147806D01*
X64074885Y-80855960D01*
X62845000Y-80855960D01*
X62845000Y-80844346D01*
X62735631Y-80294510D01*
X62319009Y-79670991D01*
X61695490Y-79254369D01*
X60960000Y-79108071D01*
X60224511Y-79254369D01*
X59600991Y-79670991D01*
X59184369Y-80294510D01*
X59075000Y-80844345D01*
X58834999Y-80844345D01*
X58834999Y-75936587D01*
X59555431Y-76235000D01*
X60444569Y-76235000D01*
X61266026Y-75894741D01*
X61894741Y-75266026D01*
X62235000Y-74444569D01*
X62235000Y-73555431D01*
X61894741Y-72733974D01*
X61266026Y-72105259D01*
X60444569Y-71765000D01*
X59555431Y-71765000D01*
X58834999Y-72063413D01*
X58834999Y-61055866D01*
X58965000Y-61055866D01*
X58965000Y-62104134D01*
X59366155Y-63072608D01*
X60107392Y-63813845D01*
X61075866Y-64215000D01*
X62124134Y-64215000D01*
X63092608Y-63813845D01*
X63833845Y-63072608D01*
X64235000Y-62104134D01*
X64235000Y-61070866D01*
X67765000Y-61070866D01*
X67765000Y-62119134D01*
X68166155Y-63087608D01*
X68907392Y-63828845D01*
X69875866Y-64230000D01*
X70924134Y-64230000D01*
X71892608Y-63828845D01*
X72633845Y-63087608D01*
X73035000Y-62119134D01*
X73035000Y-61070866D01*
X73028787Y-61055866D01*
X74205000Y-61055866D01*
X74205000Y-62104134D01*
X74606155Y-63072608D01*
X75347392Y-63813845D01*
X76315866Y-64215000D01*
X77364134Y-64215000D01*
X78332608Y-63813845D01*
X79073845Y-63072608D01*
X79475000Y-62104134D01*
X79475000Y-61055866D01*
X79073845Y-60087392D01*
X78332608Y-59346155D01*
X77364134Y-58945000D01*
X76315866Y-58945000D01*
X75347392Y-59346155D01*
X74606155Y-60087392D01*
X74205000Y-61055866D01*
X73028787Y-61055866D01*
X72633845Y-60102392D01*
X71892608Y-59361155D01*
X70924134Y-58960000D01*
X69875866Y-58960000D01*
X68907392Y-59361155D01*
X68166155Y-60102392D01*
X67765000Y-61070866D01*
X64235000Y-61070866D01*
X64235000Y-61055866D01*
X63833845Y-60087392D01*
X63092608Y-59346155D01*
X62124134Y-58945000D01*
X61075866Y-58945000D01*
X60107392Y-59346155D01*
X59366155Y-60087392D01*
X58965000Y-61055866D01*
X58834999Y-61055866D01*
X58834999Y-58782465D01*
X60171969Y-57445496D01*
X60171971Y-57445493D01*
X67490464Y-50127002D01*
X67623748Y-50127002D01*
X67465000Y-50285750D01*
X67465000Y-51026310D01*
X67561673Y-51259699D01*
X67740302Y-51438327D01*
X67973691Y-51535000D01*
X68714250Y-51535000D01*
X68873000Y-51376250D01*
X68873000Y-50127000D01*
X68853000Y-50127000D01*
X68853000Y-49873000D01*
X68873000Y-49873000D01*
X68873000Y-49853000D01*
X69127000Y-49853000D01*
X69127000Y-49873000D01*
X69127000Y-49873000D01*
G37*
X69127000Y-49873000D02*
X69147000Y-49873000D01*
X69147000Y-50127000D01*
X69127000Y-50127000D01*
X69127000Y-51376250D01*
X69285750Y-51535000D01*
X70026309Y-51535000D01*
X70259698Y-51438327D01*
X70438327Y-51259699D01*
X70494139Y-51124956D01*
X70670493Y-51301310D01*
X70779790Y-51346582D01*
X70780000Y-51347639D01*
X70780000Y-51347643D01*
X70824096Y-51569328D01*
X70992071Y-51820721D01*
X71055530Y-51863123D01*
X84205002Y-65012597D01*
X84205001Y-67115618D01*
X83980664Y-67033542D01*
X83370540Y-67059161D01*
X82925852Y-67243357D01*
X82839446Y-67499841D01*
X83740000Y-68400395D01*
X83754143Y-68386253D01*
X83933748Y-68565858D01*
X83919605Y-68580000D01*
X83933748Y-68594143D01*
X83754143Y-68773748D01*
X83740000Y-68759605D01*
X83725858Y-68773748D01*
X83546253Y-68594143D01*
X83560395Y-68580000D01*
X82659841Y-67679446D01*
X82544539Y-67718290D01*
X82541310Y-67710493D01*
X82109507Y-67278690D01*
X81545330Y-67045000D01*
X80934670Y-67045000D01*
X80370493Y-67278690D01*
X79990000Y-67659183D01*
X79609507Y-67278690D01*
X79045330Y-67045000D01*
X78544966Y-67045000D01*
X78063471Y-66563505D01*
X78010608Y-66484390D01*
X77697195Y-66274974D01*
X77420817Y-66219999D01*
X77420816Y-66219999D01*
X77327499Y-66201437D01*
X77234182Y-66219999D01*
X65005813Y-66219999D01*
X64912500Y-66201438D01*
X64819187Y-66219999D01*
X64819183Y-66219999D01*
X64542805Y-66274974D01*
X64229392Y-66484390D01*
X64176531Y-66563503D01*
X63796003Y-66944030D01*
X63695033Y-67045000D01*
X63194670Y-67045000D01*
X62630493Y-67278690D01*
X62198690Y-67710493D01*
X61965000Y-68274670D01*
X61965000Y-68885330D01*
X62198690Y-69449507D01*
X62630493Y-69881310D01*
X63194670Y-70115000D01*
X63805330Y-70115000D01*
X64369507Y-69881310D01*
X64750000Y-69500817D01*
X65130493Y-69881310D01*
X65694670Y-70115000D01*
X66305330Y-70115000D01*
X66414839Y-70069640D01*
X70360000Y-74014803D01*
X70360001Y-102520026D01*
X70345112Y-102594878D01*
X70360001Y-102669730D01*
X70399837Y-102870001D01*
X70404097Y-102891415D01*
X70527349Y-103075874D01*
X70572072Y-103142807D01*
X70635528Y-103185207D01*
X71732820Y-104282500D01*
X69369940Y-104282500D01*
X69122175Y-104331783D01*
X68912131Y-104472131D01*
X68771783Y-104682175D01*
X68722500Y-104929940D01*
X68722500Y-105317593D01*
X61352913Y-97948007D01*
X61352909Y-97948001D01*
X58834999Y-95430093D01*
X58834999Y-80844345D01*
X59075000Y-80844345D01*
X59075000Y-81715654D01*
X59184369Y-82265489D01*
X59600991Y-82889009D01*
X60200001Y-83289255D01*
X60200000Y-91770747D01*
X59600991Y-92170991D01*
X59184369Y-92794510D01*
X59075000Y-93344345D01*
X59075000Y-94215654D01*
X59184369Y-94765489D01*
X59600991Y-95389009D01*
X60224510Y-95805631D01*
X60960000Y-95951929D01*
X61695489Y-95805631D01*
X62319009Y-95389009D01*
X62735631Y-94765490D01*
X62845000Y-94215655D01*
X62845000Y-94204040D01*
X64074885Y-94204040D01*
X64284983Y-94912194D01*
X64750087Y-95486042D01*
X65399389Y-95838221D01*
X65540355Y-95867695D01*
X65833000Y-95751572D01*
X65833000Y-93907000D01*
X66087000Y-93907000D01*
X66087000Y-95751572D01*
X66379645Y-95867695D01*
X66520611Y-95838221D01*
X67169913Y-95486042D01*
X67635017Y-94912194D01*
X67845115Y-94204040D01*
X67690382Y-93907000D01*
X66087000Y-93907000D01*
X65833000Y-93907000D01*
X64229618Y-93907000D01*
X64074885Y-94204040D01*
X62845000Y-94204040D01*
X62845000Y-93355960D01*
X64074885Y-93355960D01*
X64229618Y-93653000D01*
X65833000Y-93653000D01*
X65833000Y-91808428D01*
X66087000Y-91808428D01*
X66087000Y-93653000D01*
X67690382Y-93653000D01*
X67845115Y-93355960D01*
X67635017Y-92647806D01*
X67169913Y-92073958D01*
X66520611Y-91721779D01*
X66379645Y-91692305D01*
X66087000Y-91808428D01*
X65833000Y-91808428D01*
X65540355Y-91692305D01*
X65399389Y-91721779D01*
X64750087Y-92073958D01*
X64284983Y-92647806D01*
X64074885Y-93355960D01*
X62845000Y-93355960D01*
X62845000Y-93344346D01*
X62735631Y-92794510D01*
X62319009Y-92170991D01*
X61720000Y-91770746D01*
X61720000Y-83289253D01*
X62319009Y-82889009D01*
X62735631Y-82265490D01*
X62845000Y-81715655D01*
X62845000Y-81704040D01*
X64074885Y-81704040D01*
X64284983Y-82412194D01*
X64750087Y-82986042D01*
X65399389Y-83338221D01*
X65540355Y-83367695D01*
X65833000Y-83251572D01*
X65833000Y-81407000D01*
X66087000Y-81407000D01*
X66087000Y-83251572D01*
X66379645Y-83367695D01*
X66520611Y-83338221D01*
X67169913Y-82986042D01*
X67635017Y-82412194D01*
X67845115Y-81704040D01*
X67690382Y-81407000D01*
X66087000Y-81407000D01*
X65833000Y-81407000D01*
X64229618Y-81407000D01*
X64074885Y-81704040D01*
X62845000Y-81704040D01*
X62845000Y-80855960D01*
X64074885Y-80855960D01*
X64229618Y-81153000D01*
X65833000Y-81153000D01*
X65833000Y-79308428D01*
X66087000Y-79308428D01*
X66087000Y-81153000D01*
X67690382Y-81153000D01*
X67845115Y-80855960D01*
X67635017Y-80147806D01*
X67169913Y-79573958D01*
X66520611Y-79221779D01*
X66379645Y-79192305D01*
X66087000Y-79308428D01*
X65833000Y-79308428D01*
X65540355Y-79192305D01*
X65399389Y-79221779D01*
X64750087Y-79573958D01*
X64284983Y-80147806D01*
X64074885Y-80855960D01*
X62845000Y-80855960D01*
X62845000Y-80844346D01*
X62735631Y-80294510D01*
X62319009Y-79670991D01*
X61695490Y-79254369D01*
X60960000Y-79108071D01*
X60224511Y-79254369D01*
X59600991Y-79670991D01*
X59184369Y-80294510D01*
X59075000Y-80844345D01*
X58834999Y-80844345D01*
X58834999Y-75936587D01*
X59555431Y-76235000D01*
X60444569Y-76235000D01*
X61266026Y-75894741D01*
X61894741Y-75266026D01*
X62235000Y-74444569D01*
X62235000Y-73555431D01*
X61894741Y-72733974D01*
X61266026Y-72105259D01*
X60444569Y-71765000D01*
X59555431Y-71765000D01*
X58834999Y-72063413D01*
X58834999Y-61055866D01*
X58965000Y-61055866D01*
X58965000Y-62104134D01*
X59366155Y-63072608D01*
X60107392Y-63813845D01*
X61075866Y-64215000D01*
X62124134Y-64215000D01*
X63092608Y-63813845D01*
X63833845Y-63072608D01*
X64235000Y-62104134D01*
X64235000Y-61070866D01*
X67765000Y-61070866D01*
X67765000Y-62119134D01*
X68166155Y-63087608D01*
X68907392Y-63828845D01*
X69875866Y-64230000D01*
X70924134Y-64230000D01*
X71892608Y-63828845D01*
X72633845Y-63087608D01*
X73035000Y-62119134D01*
X73035000Y-61070866D01*
X73028787Y-61055866D01*
X74205000Y-61055866D01*
X74205000Y-62104134D01*
X74606155Y-63072608D01*
X75347392Y-63813845D01*
X76315866Y-64215000D01*
X77364134Y-64215000D01*
X78332608Y-63813845D01*
X79073845Y-63072608D01*
X79475000Y-62104134D01*
X79475000Y-61055866D01*
X79073845Y-60087392D01*
X78332608Y-59346155D01*
X77364134Y-58945000D01*
X76315866Y-58945000D01*
X75347392Y-59346155D01*
X74606155Y-60087392D01*
X74205000Y-61055866D01*
X73028787Y-61055866D01*
X72633845Y-60102392D01*
X71892608Y-59361155D01*
X70924134Y-58960000D01*
X69875866Y-58960000D01*
X68907392Y-59361155D01*
X68166155Y-60102392D01*
X67765000Y-61070866D01*
X64235000Y-61070866D01*
X64235000Y-61055866D01*
X63833845Y-60087392D01*
X63092608Y-59346155D01*
X62124134Y-58945000D01*
X61075866Y-58945000D01*
X60107392Y-59346155D01*
X59366155Y-60087392D01*
X58965000Y-61055866D01*
X58834999Y-61055866D01*
X58834999Y-58782465D01*
X60171969Y-57445496D01*
X60171971Y-57445493D01*
X67490464Y-50127002D01*
X67623748Y-50127002D01*
X67465000Y-50285750D01*
X67465000Y-51026310D01*
X67561673Y-51259699D01*
X67740302Y-51438327D01*
X67973691Y-51535000D01*
X68714250Y-51535000D01*
X68873000Y-51376250D01*
X68873000Y-50127000D01*
X68853000Y-50127000D01*
X68853000Y-49873000D01*
X68873000Y-49873000D01*
X68873000Y-49853000D01*
X69127000Y-49853000D01*
X69127000Y-49873000D01*
G36*
X85707121Y-39079146D02*
X85496217Y-38868242D01*
X85005548Y-38665000D01*
X84474452Y-38665000D01*
X83983783Y-38868242D01*
X83608242Y-39243783D01*
X83405000Y-39734452D01*
X83405000Y-40265548D01*
X83608242Y-40756217D01*
X83983783Y-41131758D01*
X84474452Y-41335000D01*
X85005548Y-41335000D01*
X85496217Y-41131758D01*
X85707121Y-40920854D01*
X85903241Y-41394328D01*
X86595672Y-42086759D01*
X87500377Y-42461500D01*
X88479623Y-42461500D01*
X89384328Y-42086759D01*
X90076759Y-41394328D01*
X90451500Y-40489623D01*
X90451500Y-40079744D01*
X92664991Y-42293236D01*
X92664991Y-48954174D01*
X92409507Y-48698690D01*
X91845330Y-48465000D01*
X91234670Y-48465000D01*
X90670493Y-48698690D01*
X90494139Y-48875044D01*
X90438327Y-48740301D01*
X90259698Y-48561673D01*
X90026309Y-48465000D01*
X89285750Y-48465000D01*
X89127000Y-48623750D01*
X89127000Y-49873000D01*
X89147000Y-49873000D01*
X89147000Y-50127000D01*
X89127000Y-50127000D01*
X89127000Y-51376250D01*
X89285750Y-51535000D01*
X90026309Y-51535000D01*
X90259698Y-51438327D01*
X90438327Y-51259699D01*
X90494139Y-51124956D01*
X90670493Y-51301310D01*
X91234670Y-51535000D01*
X91845330Y-51535000D01*
X91954838Y-51489640D01*
X92175011Y-51709813D01*
X92175010Y-79359764D01*
X91920611Y-79221779D01*
X91779645Y-79192305D01*
X91487000Y-79308428D01*
X91487000Y-81153000D01*
X91507000Y-81153000D01*
X91507000Y-81407000D01*
X91487000Y-81407000D01*
X91487000Y-83251572D01*
X91779645Y-83367695D01*
X91920611Y-83338221D01*
X92175010Y-83200236D01*
X92175010Y-91859764D01*
X91920611Y-91721779D01*
X91779645Y-91692305D01*
X91487000Y-91808428D01*
X91487000Y-93653000D01*
X91507000Y-93653000D01*
X91507000Y-93907000D01*
X91487000Y-93907000D01*
X91487000Y-95751572D01*
X91779645Y-95867695D01*
X91920611Y-95838221D01*
X92175010Y-95700236D01*
X92175010Y-99790188D01*
X89238302Y-102726897D01*
X89185439Y-102705000D01*
X88706075Y-102705000D01*
X88725001Y-102609851D01*
X88725001Y-102609847D01*
X88739889Y-102535000D01*
X88725001Y-102460153D01*
X88725001Y-94204040D01*
X89474885Y-94204040D01*
X89684983Y-94912194D01*
X90150087Y-95486042D01*
X90799389Y-95838221D01*
X90940355Y-95867695D01*
X91233000Y-95751572D01*
X91233000Y-93907000D01*
X89629618Y-93907000D01*
X89474885Y-94204040D01*
X88725001Y-94204040D01*
X88725001Y-93355960D01*
X89474885Y-93355960D01*
X89629618Y-93653000D01*
X91233000Y-93653000D01*
X91233000Y-91808428D01*
X90940355Y-91692305D01*
X90799389Y-91721779D01*
X90150087Y-92073958D01*
X89684983Y-92647806D01*
X89474885Y-93355960D01*
X88725001Y-93355960D01*
X88725001Y-81704040D01*
X89474885Y-81704040D01*
X89684983Y-82412194D01*
X90150087Y-82986042D01*
X90799389Y-83338221D01*
X90940355Y-83367695D01*
X91233000Y-83251572D01*
X91233000Y-81407000D01*
X89629618Y-81407000D01*
X89474885Y-81704040D01*
X88725001Y-81704040D01*
X88725001Y-80855960D01*
X89474885Y-80855960D01*
X89629618Y-81153000D01*
X91233000Y-81153000D01*
X91233000Y-79308428D01*
X90940355Y-79192305D01*
X90799389Y-79221779D01*
X90150087Y-79573958D01*
X89684983Y-80147806D01*
X89474885Y-80855960D01*
X88725001Y-80855960D01*
X88725001Y-56499849D01*
X88739889Y-56425001D01*
X88725001Y-56350153D01*
X88725001Y-56350149D01*
X88686858Y-56158390D01*
X88680905Y-56128463D01*
X88555330Y-55940528D01*
X88512930Y-55877072D01*
X88449474Y-55834672D01*
X83030330Y-50415529D01*
X83030328Y-50415526D01*
X83029640Y-50414838D01*
X83075000Y-50305330D01*
X83075000Y-50285750D01*
X87465000Y-50285750D01*
X87465000Y-51026310D01*
X87561673Y-51259699D01*
X87740302Y-51438327D01*
X87973691Y-51535000D01*
X88714250Y-51535000D01*
X88873000Y-51376250D01*
X88873000Y-50127000D01*
X87623750Y-50127000D01*
X87465000Y-50285750D01*
X83075000Y-50285750D01*
X83075000Y-49694670D01*
X82841310Y-49130493D01*
X82684507Y-48973690D01*
X87465000Y-48973690D01*
X87465000Y-49714250D01*
X87623750Y-49873000D01*
X88873000Y-49873000D01*
X88873000Y-48623750D01*
X88714250Y-48465000D01*
X87973691Y-48465000D01*
X87740302Y-48561673D01*
X87561673Y-48740301D01*
X87465000Y-48973690D01*
X82684507Y-48973690D01*
X82409507Y-48698690D01*
X81845330Y-48465000D01*
X81234670Y-48465000D01*
X80670493Y-48698690D01*
X80494139Y-48875044D01*
X80438327Y-48740301D01*
X80259698Y-48561673D01*
X80026309Y-48465000D01*
X79285750Y-48465000D01*
X79127000Y-48623750D01*
X79127000Y-49873000D01*
X79147000Y-49873000D01*
X79147000Y-50127000D01*
X79127000Y-50127000D01*
X79127000Y-51376250D01*
X79285750Y-51535000D01*
X80026309Y-51535000D01*
X80259698Y-51438327D01*
X80438327Y-51259699D01*
X80494139Y-51124956D01*
X80670493Y-51301310D01*
X81234670Y-51535000D01*
X81845330Y-51535000D01*
X81954838Y-51489640D01*
X81955526Y-51490328D01*
X81955529Y-51490330D01*
X87205002Y-56739804D01*
X87205002Y-59433549D01*
X87132608Y-59361155D01*
X86164134Y-58960000D01*
X85115866Y-58960000D01*
X84147392Y-59361155D01*
X83406155Y-60102392D01*
X83005000Y-61070866D01*
X83005000Y-61662989D01*
X72526413Y-51184404D01*
X72841310Y-50869507D01*
X73075000Y-50305330D01*
X73075000Y-50285750D01*
X77465000Y-50285750D01*
X77465000Y-51026310D01*
X77561673Y-51259699D01*
X77740302Y-51438327D01*
X77973691Y-51535000D01*
X78714250Y-51535000D01*
X78873000Y-51376250D01*
X78873000Y-50127000D01*
X77623750Y-50127000D01*
X77465000Y-50285750D01*
X73075000Y-50285750D01*
X73075000Y-49694670D01*
X73008862Y-49534999D01*
X73059184Y-49534999D01*
X73152501Y-49553561D01*
X73245818Y-49534999D01*
X73245819Y-49534999D01*
X73522197Y-49480024D01*
X73835610Y-49270608D01*
X73888473Y-49191493D01*
X74106276Y-48973690D01*
X77465000Y-48973690D01*
X77465000Y-49714250D01*
X77623750Y-49873000D01*
X78873000Y-49873000D01*
X78873000Y-48623750D01*
X78714250Y-48465000D01*
X77973691Y-48465000D01*
X77740302Y-48561673D01*
X77561673Y-48740301D01*
X77465000Y-48973690D01*
X74106276Y-48973690D01*
X81744968Y-41335000D01*
X82005548Y-41335000D01*
X82496217Y-41131758D01*
X82871758Y-40756217D01*
X83075000Y-40265548D01*
X83075000Y-39734452D01*
X82871758Y-39243783D01*
X82496217Y-38868242D01*
X82005548Y-38665000D01*
X81474452Y-38665000D01*
X81372904Y-38707062D01*
X81471468Y-38608499D01*
X85902070Y-38608499D01*
X85707121Y-39079146D01*
X85707121Y-39079146D01*
G37*
X85707121Y-39079146D02*
X85496217Y-38868242D01*
X85005548Y-38665000D01*
X84474452Y-38665000D01*
X83983783Y-38868242D01*
X83608242Y-39243783D01*
X83405000Y-39734452D01*
X83405000Y-40265548D01*
X83608242Y-40756217D01*
X83983783Y-41131758D01*
X84474452Y-41335000D01*
X85005548Y-41335000D01*
X85496217Y-41131758D01*
X85707121Y-40920854D01*
X85903241Y-41394328D01*
X86595672Y-42086759D01*
X87500377Y-42461500D01*
X88479623Y-42461500D01*
X89384328Y-42086759D01*
X90076759Y-41394328D01*
X90451500Y-40489623D01*
X90451500Y-40079744D01*
X92664991Y-42293236D01*
X92664991Y-48954174D01*
X92409507Y-48698690D01*
X91845330Y-48465000D01*
X91234670Y-48465000D01*
X90670493Y-48698690D01*
X90494139Y-48875044D01*
X90438327Y-48740301D01*
X90259698Y-48561673D01*
X90026309Y-48465000D01*
X89285750Y-48465000D01*
X89127000Y-48623750D01*
X89127000Y-49873000D01*
X89147000Y-49873000D01*
X89147000Y-50127000D01*
X89127000Y-50127000D01*
X89127000Y-51376250D01*
X89285750Y-51535000D01*
X90026309Y-51535000D01*
X90259698Y-51438327D01*
X90438327Y-51259699D01*
X90494139Y-51124956D01*
X90670493Y-51301310D01*
X91234670Y-51535000D01*
X91845330Y-51535000D01*
X91954838Y-51489640D01*
X92175011Y-51709813D01*
X92175010Y-79359764D01*
X91920611Y-79221779D01*
X91779645Y-79192305D01*
X91487000Y-79308428D01*
X91487000Y-81153000D01*
X91507000Y-81153000D01*
X91507000Y-81407000D01*
X91487000Y-81407000D01*
X91487000Y-83251572D01*
X91779645Y-83367695D01*
X91920611Y-83338221D01*
X92175010Y-83200236D01*
X92175010Y-91859764D01*
X91920611Y-91721779D01*
X91779645Y-91692305D01*
X91487000Y-91808428D01*
X91487000Y-93653000D01*
X91507000Y-93653000D01*
X91507000Y-93907000D01*
X91487000Y-93907000D01*
X91487000Y-95751572D01*
X91779645Y-95867695D01*
X91920611Y-95838221D01*
X92175010Y-95700236D01*
X92175010Y-99790188D01*
X89238302Y-102726897D01*
X89185439Y-102705000D01*
X88706075Y-102705000D01*
X88725001Y-102609851D01*
X88725001Y-102609847D01*
X88739889Y-102535000D01*
X88725001Y-102460153D01*
X88725001Y-94204040D01*
X89474885Y-94204040D01*
X89684983Y-94912194D01*
X90150087Y-95486042D01*
X90799389Y-95838221D01*
X90940355Y-95867695D01*
X91233000Y-95751572D01*
X91233000Y-93907000D01*
X89629618Y-93907000D01*
X89474885Y-94204040D01*
X88725001Y-94204040D01*
X88725001Y-93355960D01*
X89474885Y-93355960D01*
X89629618Y-93653000D01*
X91233000Y-93653000D01*
X91233000Y-91808428D01*
X90940355Y-91692305D01*
X90799389Y-91721779D01*
X90150087Y-92073958D01*
X89684983Y-92647806D01*
X89474885Y-93355960D01*
X88725001Y-93355960D01*
X88725001Y-81704040D01*
X89474885Y-81704040D01*
X89684983Y-82412194D01*
X90150087Y-82986042D01*
X90799389Y-83338221D01*
X90940355Y-83367695D01*
X91233000Y-83251572D01*
X91233000Y-81407000D01*
X89629618Y-81407000D01*
X89474885Y-81704040D01*
X88725001Y-81704040D01*
X88725001Y-80855960D01*
X89474885Y-80855960D01*
X89629618Y-81153000D01*
X91233000Y-81153000D01*
X91233000Y-79308428D01*
X90940355Y-79192305D01*
X90799389Y-79221779D01*
X90150087Y-79573958D01*
X89684983Y-80147806D01*
X89474885Y-80855960D01*
X88725001Y-80855960D01*
X88725001Y-56499849D01*
X88739889Y-56425001D01*
X88725001Y-56350153D01*
X88725001Y-56350149D01*
X88686858Y-56158390D01*
X88680905Y-56128463D01*
X88555330Y-55940528D01*
X88512930Y-55877072D01*
X88449474Y-55834672D01*
X83030330Y-50415529D01*
X83030328Y-50415526D01*
X83029640Y-50414838D01*
X83075000Y-50305330D01*
X83075000Y-50285750D01*
X87465000Y-50285750D01*
X87465000Y-51026310D01*
X87561673Y-51259699D01*
X87740302Y-51438327D01*
X87973691Y-51535000D01*
X88714250Y-51535000D01*
X88873000Y-51376250D01*
X88873000Y-50127000D01*
X87623750Y-50127000D01*
X87465000Y-50285750D01*
X83075000Y-50285750D01*
X83075000Y-49694670D01*
X82841310Y-49130493D01*
X82684507Y-48973690D01*
X87465000Y-48973690D01*
X87465000Y-49714250D01*
X87623750Y-49873000D01*
X88873000Y-49873000D01*
X88873000Y-48623750D01*
X88714250Y-48465000D01*
X87973691Y-48465000D01*
X87740302Y-48561673D01*
X87561673Y-48740301D01*
X87465000Y-48973690D01*
X82684507Y-48973690D01*
X82409507Y-48698690D01*
X81845330Y-48465000D01*
X81234670Y-48465000D01*
X80670493Y-48698690D01*
X80494139Y-48875044D01*
X80438327Y-48740301D01*
X80259698Y-48561673D01*
X80026309Y-48465000D01*
X79285750Y-48465000D01*
X79127000Y-48623750D01*
X79127000Y-49873000D01*
X79147000Y-49873000D01*
X79147000Y-50127000D01*
X79127000Y-50127000D01*
X79127000Y-51376250D01*
X79285750Y-51535000D01*
X80026309Y-51535000D01*
X80259698Y-51438327D01*
X80438327Y-51259699D01*
X80494139Y-51124956D01*
X80670493Y-51301310D01*
X81234670Y-51535000D01*
X81845330Y-51535000D01*
X81954838Y-51489640D01*
X81955526Y-51490328D01*
X81955529Y-51490330D01*
X87205002Y-56739804D01*
X87205002Y-59433549D01*
X87132608Y-59361155D01*
X86164134Y-58960000D01*
X85115866Y-58960000D01*
X84147392Y-59361155D01*
X83406155Y-60102392D01*
X83005000Y-61070866D01*
X83005000Y-61662989D01*
X72526413Y-51184404D01*
X72841310Y-50869507D01*
X73075000Y-50305330D01*
X73075000Y-50285750D01*
X77465000Y-50285750D01*
X77465000Y-51026310D01*
X77561673Y-51259699D01*
X77740302Y-51438327D01*
X77973691Y-51535000D01*
X78714250Y-51535000D01*
X78873000Y-51376250D01*
X78873000Y-50127000D01*
X77623750Y-50127000D01*
X77465000Y-50285750D01*
X73075000Y-50285750D01*
X73075000Y-49694670D01*
X73008862Y-49534999D01*
X73059184Y-49534999D01*
X73152501Y-49553561D01*
X73245818Y-49534999D01*
X73245819Y-49534999D01*
X73522197Y-49480024D01*
X73835610Y-49270608D01*
X73888473Y-49191493D01*
X74106276Y-48973690D01*
X77465000Y-48973690D01*
X77465000Y-49714250D01*
X77623750Y-49873000D01*
X78873000Y-49873000D01*
X78873000Y-48623750D01*
X78714250Y-48465000D01*
X77973691Y-48465000D01*
X77740302Y-48561673D01*
X77561673Y-48740301D01*
X77465000Y-48973690D01*
X74106276Y-48973690D01*
X81744968Y-41335000D01*
X82005548Y-41335000D01*
X82496217Y-41131758D01*
X82871758Y-40756217D01*
X83075000Y-40265548D01*
X83075000Y-39734452D01*
X82871758Y-39243783D01*
X82496217Y-38868242D01*
X82005548Y-38665000D01*
X81474452Y-38665000D01*
X81372904Y-38707062D01*
X81471468Y-38608499D01*
X85902070Y-38608499D01*
X85707121Y-39079146D01*
G36*
X122033748Y-68565858D02*
X122019605Y-68580000D01*
X122033748Y-68594143D01*
X121854143Y-68773748D01*
X121840000Y-68759605D01*
X121825858Y-68773748D01*
X121646253Y-68594143D01*
X121660395Y-68580000D01*
X121646253Y-68565858D01*
X121825858Y-68386253D01*
X121840000Y-68400395D01*
X121854143Y-68386253D01*
X122033748Y-68565858D01*
X122033748Y-68565858D01*
G37*
X122033748Y-68565858D02*
X122019605Y-68580000D01*
X122033748Y-68594143D01*
X121854143Y-68773748D01*
X121840000Y-68759605D01*
X121825858Y-68773748D01*
X121646253Y-68594143D01*
X121660395Y-68580000D01*
X121646253Y-68565858D01*
X121825858Y-68386253D01*
X121840000Y-68400395D01*
X121854143Y-68386253D01*
X122033748Y-68565858D01*
G04 #@! TD*
M02*
