G04 #@! TF.GenerationSoftware,KiCad,Pcbnew,(5.1.5)-3*
G04 #@! TF.CreationDate,2020-06-23T14:27:24+01:00*
G04 #@! TF.ProjectId,drumkid,6472756d-6b69-4642-9e6b-696361645f70,rev?*
G04 #@! TF.SameCoordinates,Original*
G04 #@! TF.FileFunction,Legend,Top*
G04 #@! TF.FilePolarity,Positive*
%FSLAX46Y46*%
G04 Gerber Fmt 4.6, Leading zero omitted, Abs format (unit mm)*
G04 Created by KiCad (PCBNEW (5.1.5)-3) date 2020-06-23 14:27:24*
%MOMM*%
%LPD*%
G04 APERTURE LIST*
%ADD10C,0.150000*%
%ADD11C,0.200000*%
%ADD12C,0.300000*%
%ADD13C,0.120000*%
G04 APERTURE END LIST*
D10*
X130619047Y-48571428D02*
X131380952Y-48571428D01*
X131000000Y-48952380D02*
X131000000Y-48190476D01*
X120619047Y-48571428D02*
X121380952Y-48571428D01*
X121000000Y-48952380D02*
X121000000Y-48190476D01*
X110619047Y-48571428D02*
X111380952Y-48571428D01*
X111000000Y-48952380D02*
X111000000Y-48190476D01*
X90619047Y-48571428D02*
X91380952Y-48571428D01*
X91000000Y-48952380D02*
X91000000Y-48190476D01*
X80619047Y-48571428D02*
X81380952Y-48571428D01*
X81000000Y-48952380D02*
X81000000Y-48190476D01*
X70619047Y-48571428D02*
X71380952Y-48571428D01*
X71000000Y-48952380D02*
X71000000Y-48190476D01*
X65230952Y-113752380D02*
X65230952Y-114466666D01*
X65183333Y-114609523D01*
X65088095Y-114704761D01*
X64945238Y-114752380D01*
X64850000Y-114752380D01*
X66183333Y-114752380D02*
X65707142Y-114752380D01*
X65707142Y-113752380D01*
X67088095Y-114657142D02*
X67040476Y-114704761D01*
X66897619Y-114752380D01*
X66802380Y-114752380D01*
X66659523Y-114704761D01*
X66564285Y-114609523D01*
X66516666Y-114514285D01*
X66469047Y-114323809D01*
X66469047Y-114180952D01*
X66516666Y-113990476D01*
X66564285Y-113895238D01*
X66659523Y-113800000D01*
X66802380Y-113752380D01*
X66897619Y-113752380D01*
X67040476Y-113800000D01*
X67088095Y-113847619D01*
X67802380Y-113752380D02*
X67802380Y-114466666D01*
X67754761Y-114609523D01*
X67659523Y-114704761D01*
X67516666Y-114752380D01*
X67421428Y-114752380D01*
X68754761Y-114752380D02*
X68278571Y-114752380D01*
X68278571Y-113752380D01*
X69659523Y-114657142D02*
X69611904Y-114704761D01*
X69469047Y-114752380D01*
X69373809Y-114752380D01*
X69230952Y-114704761D01*
X69135714Y-114609523D01*
X69088095Y-114514285D01*
X69040476Y-114323809D01*
X69040476Y-114180952D01*
X69088095Y-113990476D01*
X69135714Y-113895238D01*
X69230952Y-113800000D01*
X69373809Y-113752380D01*
X69469047Y-113752380D01*
X69611904Y-113800000D01*
X69659523Y-113847619D01*
X70373809Y-113752380D02*
X70373809Y-114466666D01*
X70326190Y-114609523D01*
X70230952Y-114704761D01*
X70088095Y-114752380D01*
X69992857Y-114752380D01*
X71326190Y-114752380D02*
X70850000Y-114752380D01*
X70850000Y-113752380D01*
X72230952Y-114657142D02*
X72183333Y-114704761D01*
X72040476Y-114752380D01*
X71945238Y-114752380D01*
X71802380Y-114704761D01*
X71707142Y-114609523D01*
X71659523Y-114514285D01*
X71611904Y-114323809D01*
X71611904Y-114180952D01*
X71659523Y-113990476D01*
X71707142Y-113895238D01*
X71802380Y-113800000D01*
X71945238Y-113752380D01*
X72040476Y-113752380D01*
X72183333Y-113800000D01*
X72230952Y-113847619D01*
X72945238Y-113752380D02*
X72945238Y-114466666D01*
X72897619Y-114609523D01*
X72802380Y-114704761D01*
X72659523Y-114752380D01*
X72564285Y-114752380D01*
X73897619Y-114752380D02*
X73421428Y-114752380D01*
X73421428Y-113752380D01*
X74802380Y-114657142D02*
X74754761Y-114704761D01*
X74611904Y-114752380D01*
X74516666Y-114752380D01*
X74373809Y-114704761D01*
X74278571Y-114609523D01*
X74230952Y-114514285D01*
X74183333Y-114323809D01*
X74183333Y-114180952D01*
X74230952Y-113990476D01*
X74278571Y-113895238D01*
X74373809Y-113800000D01*
X74516666Y-113752380D01*
X74611904Y-113752380D01*
X74754761Y-113800000D01*
X74802380Y-113847619D01*
D11*
X123968095Y-128992380D02*
X123777619Y-128992380D01*
X123682380Y-129040000D01*
X123634761Y-129087619D01*
X123539523Y-129230476D01*
X123491904Y-129420952D01*
X123491904Y-129801904D01*
X123539523Y-129897142D01*
X123587142Y-129944761D01*
X123682380Y-129992380D01*
X123872857Y-129992380D01*
X123968095Y-129944761D01*
X124015714Y-129897142D01*
X124063333Y-129801904D01*
X124063333Y-129563809D01*
X124015714Y-129468571D01*
X123968095Y-129420952D01*
X123872857Y-129373333D01*
X123682380Y-129373333D01*
X123587142Y-129420952D01*
X123539523Y-129468571D01*
X123491904Y-129563809D01*
X124491904Y-129992380D02*
X124491904Y-128992380D01*
X125063333Y-129992380D01*
X125063333Y-128992380D01*
X126063333Y-129992380D02*
X125491904Y-129992380D01*
X125777619Y-129992380D02*
X125777619Y-128992380D01*
X125682380Y-129135238D01*
X125587142Y-129230476D01*
X125491904Y-129278095D01*
X126396666Y-128992380D02*
X127015714Y-128992380D01*
X126682380Y-129373333D01*
X126825238Y-129373333D01*
X126920476Y-129420952D01*
X126968095Y-129468571D01*
X127015714Y-129563809D01*
X127015714Y-129801904D01*
X126968095Y-129897142D01*
X126920476Y-129944761D01*
X126825238Y-129992380D01*
X126539523Y-129992380D01*
X126444285Y-129944761D01*
X126396666Y-129897142D01*
X127587142Y-129420952D02*
X127491904Y-129373333D01*
X127444285Y-129325714D01*
X127396666Y-129230476D01*
X127396666Y-129182857D01*
X127444285Y-129087619D01*
X127491904Y-129040000D01*
X127587142Y-128992380D01*
X127777619Y-128992380D01*
X127872857Y-129040000D01*
X127920476Y-129087619D01*
X127968095Y-129182857D01*
X127968095Y-129230476D01*
X127920476Y-129325714D01*
X127872857Y-129373333D01*
X127777619Y-129420952D01*
X127587142Y-129420952D01*
X127491904Y-129468571D01*
X127444285Y-129516190D01*
X127396666Y-129611428D01*
X127396666Y-129801904D01*
X127444285Y-129897142D01*
X127491904Y-129944761D01*
X127587142Y-129992380D01*
X127777619Y-129992380D01*
X127872857Y-129944761D01*
X127920476Y-129897142D01*
X127968095Y-129801904D01*
X127968095Y-129611428D01*
X127920476Y-129516190D01*
X127872857Y-129468571D01*
X127777619Y-129420952D01*
X114752380Y-125332857D02*
X114752380Y-125904285D01*
X114752380Y-125618571D02*
X113752380Y-125618571D01*
X113895238Y-125713809D01*
X113990476Y-125809047D01*
X114038095Y-125904285D01*
X114752380Y-124904285D02*
X113752380Y-124904285D01*
X114752380Y-124332857D01*
X113752380Y-124332857D01*
X114085714Y-123428095D02*
X114752380Y-123428095D01*
X113704761Y-123666190D02*
X114419047Y-123904285D01*
X114419047Y-123285238D01*
X114752380Y-122380476D02*
X114752380Y-122951904D01*
X114752380Y-122666190D02*
X113752380Y-122666190D01*
X113895238Y-122761428D01*
X113990476Y-122856666D01*
X114038095Y-122951904D01*
X114085714Y-121523333D02*
X114752380Y-121523333D01*
X113704761Y-121761428D02*
X114419047Y-121999523D01*
X114419047Y-121380476D01*
X114180952Y-120856666D02*
X114133333Y-120951904D01*
X114085714Y-120999523D01*
X113990476Y-121047142D01*
X113942857Y-121047142D01*
X113847619Y-120999523D01*
X113800000Y-120951904D01*
X113752380Y-120856666D01*
X113752380Y-120666190D01*
X113800000Y-120570952D01*
X113847619Y-120523333D01*
X113942857Y-120475714D01*
X113990476Y-120475714D01*
X114085714Y-120523333D01*
X114133333Y-120570952D01*
X114180952Y-120666190D01*
X114180952Y-120856666D01*
X114228571Y-120951904D01*
X114276190Y-120999523D01*
X114371428Y-121047142D01*
X114561904Y-121047142D01*
X114657142Y-120999523D01*
X114704761Y-120951904D01*
X114752380Y-120856666D01*
X114752380Y-120666190D01*
X114704761Y-120570952D01*
X114657142Y-120523333D01*
X114561904Y-120475714D01*
X114371428Y-120475714D01*
X114276190Y-120523333D01*
X114228571Y-120570952D01*
X114180952Y-120666190D01*
X112212380Y-126602857D02*
X112212380Y-127174285D01*
X112212380Y-126888571D02*
X111212380Y-126888571D01*
X111355238Y-126983809D01*
X111450476Y-127079047D01*
X111498095Y-127174285D01*
X112212380Y-126174285D02*
X111212380Y-126174285D01*
X112212380Y-125602857D01*
X111212380Y-125602857D01*
X111212380Y-124650476D02*
X111212380Y-125126666D01*
X111688571Y-125174285D01*
X111640952Y-125126666D01*
X111593333Y-125031428D01*
X111593333Y-124793333D01*
X111640952Y-124698095D01*
X111688571Y-124650476D01*
X111783809Y-124602857D01*
X112021904Y-124602857D01*
X112117142Y-124650476D01*
X112164761Y-124698095D01*
X112212380Y-124793333D01*
X112212380Y-125031428D01*
X112164761Y-125126666D01*
X112117142Y-125174285D01*
X111640952Y-124031428D02*
X111593333Y-124126666D01*
X111545714Y-124174285D01*
X111450476Y-124221904D01*
X111402857Y-124221904D01*
X111307619Y-124174285D01*
X111260000Y-124126666D01*
X111212380Y-124031428D01*
X111212380Y-123840952D01*
X111260000Y-123745714D01*
X111307619Y-123698095D01*
X111402857Y-123650476D01*
X111450476Y-123650476D01*
X111545714Y-123698095D01*
X111593333Y-123745714D01*
X111640952Y-123840952D01*
X111640952Y-124031428D01*
X111688571Y-124126666D01*
X111736190Y-124174285D01*
X111831428Y-124221904D01*
X112021904Y-124221904D01*
X112117142Y-124174285D01*
X112164761Y-124126666D01*
X112212380Y-124031428D01*
X112212380Y-123840952D01*
X112164761Y-123745714D01*
X112117142Y-123698095D01*
X112021904Y-123650476D01*
X111831428Y-123650476D01*
X111736190Y-123698095D01*
X111688571Y-123745714D01*
X111640952Y-123840952D01*
X112212380Y-122698095D02*
X112212380Y-123269523D01*
X112212380Y-122983809D02*
X111212380Y-122983809D01*
X111355238Y-123079047D01*
X111450476Y-123174285D01*
X111498095Y-123269523D01*
X111212380Y-122364761D02*
X111212380Y-121698095D01*
X112212380Y-122126666D01*
D12*
X134345000Y-138972857D02*
X134345000Y-138344285D01*
X134287857Y-138230000D01*
X134173571Y-138172857D01*
X133945000Y-138172857D01*
X133830714Y-138230000D01*
X134345000Y-138915714D02*
X134230714Y-138972857D01*
X133945000Y-138972857D01*
X133830714Y-138915714D01*
X133773571Y-138801428D01*
X133773571Y-138687142D01*
X133830714Y-138572857D01*
X133945000Y-138515714D01*
X134230714Y-138515714D01*
X134345000Y-138458571D01*
X134916428Y-138972857D02*
X134916428Y-138172857D01*
X134916428Y-138401428D02*
X134973571Y-138287142D01*
X135030714Y-138230000D01*
X135145000Y-138172857D01*
X135259285Y-138172857D01*
X136173571Y-138972857D02*
X136173571Y-137772857D01*
X136173571Y-138915714D02*
X136059285Y-138972857D01*
X135830714Y-138972857D01*
X135716428Y-138915714D01*
X135659285Y-138858571D01*
X135602142Y-138744285D01*
X135602142Y-138401428D01*
X135659285Y-138287142D01*
X135716428Y-138230000D01*
X135830714Y-138172857D01*
X136059285Y-138172857D01*
X136173571Y-138230000D01*
X137259285Y-138172857D02*
X137259285Y-138972857D01*
X136745000Y-138172857D02*
X136745000Y-138801428D01*
X136802142Y-138915714D01*
X136916428Y-138972857D01*
X137087857Y-138972857D01*
X137202142Y-138915714D01*
X137259285Y-138858571D01*
X137830714Y-138972857D02*
X137830714Y-138172857D01*
X137830714Y-137772857D02*
X137773571Y-137830000D01*
X137830714Y-137887142D01*
X137887857Y-137830000D01*
X137830714Y-137772857D01*
X137830714Y-137887142D01*
X138402142Y-138172857D02*
X138402142Y-138972857D01*
X138402142Y-138287142D02*
X138459285Y-138230000D01*
X138573571Y-138172857D01*
X138745000Y-138172857D01*
X138859285Y-138230000D01*
X138916428Y-138344285D01*
X138916428Y-138972857D01*
X139659285Y-138972857D02*
X139545000Y-138915714D01*
X139487857Y-138858571D01*
X139430714Y-138744285D01*
X139430714Y-138401428D01*
X139487857Y-138287142D01*
X139545000Y-138230000D01*
X139659285Y-138172857D01*
X139830714Y-138172857D01*
X139945000Y-138230000D01*
X140002142Y-138287142D01*
X140059285Y-138401428D01*
X140059285Y-138744285D01*
X140002142Y-138858571D01*
X139945000Y-138915714D01*
X139830714Y-138972857D01*
X139659285Y-138972857D01*
X133830714Y-150402857D02*
X133830714Y-149602857D01*
X133830714Y-149717142D02*
X133887857Y-149660000D01*
X134002142Y-149602857D01*
X134173571Y-149602857D01*
X134287857Y-149660000D01*
X134345000Y-149774285D01*
X134345000Y-150402857D01*
X134345000Y-149774285D02*
X134402142Y-149660000D01*
X134516428Y-149602857D01*
X134687857Y-149602857D01*
X134802142Y-149660000D01*
X134859285Y-149774285D01*
X134859285Y-150402857D01*
X135430714Y-150402857D02*
X135430714Y-149602857D01*
X135430714Y-149202857D02*
X135373571Y-149260000D01*
X135430714Y-149317142D01*
X135487857Y-149260000D01*
X135430714Y-149202857D01*
X135430714Y-149317142D01*
X136516428Y-150402857D02*
X136516428Y-149202857D01*
X136516428Y-150345714D02*
X136402142Y-150402857D01*
X136173571Y-150402857D01*
X136059285Y-150345714D01*
X136002142Y-150288571D01*
X135945000Y-150174285D01*
X135945000Y-149831428D01*
X136002142Y-149717142D01*
X136059285Y-149660000D01*
X136173571Y-149602857D01*
X136402142Y-149602857D01*
X136516428Y-149660000D01*
X137087857Y-150402857D02*
X137087857Y-149602857D01*
X137087857Y-149202857D02*
X137030714Y-149260000D01*
X137087857Y-149317142D01*
X137145000Y-149260000D01*
X137087857Y-149202857D01*
X137087857Y-149317142D01*
X63285714Y-127903571D02*
X63285714Y-129117857D01*
X63357142Y-129260714D01*
X63428571Y-129332142D01*
X63571428Y-129403571D01*
X63857142Y-129403571D01*
X64000000Y-129332142D01*
X64071428Y-129260714D01*
X64142857Y-129117857D01*
X64142857Y-127903571D01*
X64785714Y-129332142D02*
X65000000Y-129403571D01*
X65357142Y-129403571D01*
X65500000Y-129332142D01*
X65571428Y-129260714D01*
X65642857Y-129117857D01*
X65642857Y-128975000D01*
X65571428Y-128832142D01*
X65500000Y-128760714D01*
X65357142Y-128689285D01*
X65071428Y-128617857D01*
X64928571Y-128546428D01*
X64857142Y-128475000D01*
X64785714Y-128332142D01*
X64785714Y-128189285D01*
X64857142Y-128046428D01*
X64928571Y-127975000D01*
X65071428Y-127903571D01*
X65428571Y-127903571D01*
X65642857Y-127975000D01*
X66785714Y-128617857D02*
X67000000Y-128689285D01*
X67071428Y-128760714D01*
X67142857Y-128903571D01*
X67142857Y-129117857D01*
X67071428Y-129260714D01*
X67000000Y-129332142D01*
X66857142Y-129403571D01*
X66285714Y-129403571D01*
X66285714Y-127903571D01*
X66785714Y-127903571D01*
X66928571Y-127975000D01*
X67000000Y-128046428D01*
X67071428Y-128189285D01*
X67071428Y-128332142D01*
X67000000Y-128475000D01*
X66928571Y-128546428D01*
X66785714Y-128617857D01*
X66285714Y-128617857D01*
X68928571Y-128403571D02*
X68928571Y-129903571D01*
X68928571Y-128475000D02*
X69071428Y-128403571D01*
X69357142Y-128403571D01*
X69500000Y-128475000D01*
X69571428Y-128546428D01*
X69642857Y-128689285D01*
X69642857Y-129117857D01*
X69571428Y-129260714D01*
X69500000Y-129332142D01*
X69357142Y-129403571D01*
X69071428Y-129403571D01*
X68928571Y-129332142D01*
X70500000Y-129403571D02*
X70357142Y-129332142D01*
X70285714Y-129260714D01*
X70214285Y-129117857D01*
X70214285Y-128689285D01*
X70285714Y-128546428D01*
X70357142Y-128475000D01*
X70500000Y-128403571D01*
X70714285Y-128403571D01*
X70857142Y-128475000D01*
X70928571Y-128546428D01*
X71000000Y-128689285D01*
X71000000Y-129117857D01*
X70928571Y-129260714D01*
X70857142Y-129332142D01*
X70714285Y-129403571D01*
X70500000Y-129403571D01*
X71642857Y-129403571D02*
X71642857Y-128403571D01*
X71642857Y-128689285D02*
X71714285Y-128546428D01*
X71785714Y-128475000D01*
X71928571Y-128403571D01*
X72071428Y-128403571D01*
X72357142Y-128403571D02*
X72928571Y-128403571D01*
X72571428Y-127903571D02*
X72571428Y-129189285D01*
X72642857Y-129332142D01*
X72785714Y-129403571D01*
X72928571Y-129403571D01*
X63500000Y-130953571D02*
X64071428Y-130953571D01*
X63714285Y-130453571D02*
X63714285Y-131739285D01*
X63785714Y-131882142D01*
X63928571Y-131953571D01*
X64071428Y-131953571D01*
X64571428Y-131953571D02*
X64571428Y-130453571D01*
X65214285Y-131953571D02*
X65214285Y-131167857D01*
X65142857Y-131025000D01*
X65000000Y-130953571D01*
X64785714Y-130953571D01*
X64642857Y-131025000D01*
X64571428Y-131096428D01*
X65928571Y-131953571D02*
X65928571Y-130953571D01*
X65928571Y-130453571D02*
X65857142Y-130525000D01*
X65928571Y-130596428D01*
X66000000Y-130525000D01*
X65928571Y-130453571D01*
X65928571Y-130596428D01*
X66571428Y-131882142D02*
X66714285Y-131953571D01*
X67000000Y-131953571D01*
X67142857Y-131882142D01*
X67214285Y-131739285D01*
X67214285Y-131667857D01*
X67142857Y-131525000D01*
X67000000Y-131453571D01*
X66785714Y-131453571D01*
X66642857Y-131382142D01*
X66571428Y-131239285D01*
X66571428Y-131167857D01*
X66642857Y-131025000D01*
X66785714Y-130953571D01*
X67000000Y-130953571D01*
X67142857Y-131025000D01*
X69571428Y-131882142D02*
X69428571Y-131953571D01*
X69142857Y-131953571D01*
X69000000Y-131882142D01*
X68928571Y-131739285D01*
X68928571Y-131167857D01*
X69000000Y-131025000D01*
X69142857Y-130953571D01*
X69428571Y-130953571D01*
X69571428Y-131025000D01*
X69642857Y-131167857D01*
X69642857Y-131310714D01*
X68928571Y-131453571D01*
X70285714Y-130953571D02*
X70285714Y-131953571D01*
X70285714Y-131096428D02*
X70357142Y-131025000D01*
X70500000Y-130953571D01*
X70714285Y-130953571D01*
X70857142Y-131025000D01*
X70928571Y-131167857D01*
X70928571Y-131953571D01*
X72285714Y-131953571D02*
X72285714Y-130453571D01*
X72285714Y-131882142D02*
X72142857Y-131953571D01*
X71857142Y-131953571D01*
X71714285Y-131882142D01*
X71642857Y-131810714D01*
X71571428Y-131667857D01*
X71571428Y-131239285D01*
X71642857Y-131096428D01*
X71714285Y-131025000D01*
X71857142Y-130953571D01*
X72142857Y-130953571D01*
X72285714Y-131025000D01*
X80428571Y-130250000D02*
X81142857Y-130250000D01*
X80285714Y-130678571D02*
X80785714Y-129178571D01*
X81285714Y-130678571D01*
X81785714Y-130678571D02*
X81785714Y-129678571D01*
X81785714Y-129964285D02*
X81857142Y-129821428D01*
X81928571Y-129750000D01*
X82071428Y-129678571D01*
X82214285Y-129678571D01*
X83357142Y-130678571D02*
X83357142Y-129178571D01*
X83357142Y-130607142D02*
X83214285Y-130678571D01*
X82928571Y-130678571D01*
X82785714Y-130607142D01*
X82714285Y-130535714D01*
X82642857Y-130392857D01*
X82642857Y-129964285D01*
X82714285Y-129821428D01*
X82785714Y-129750000D01*
X82928571Y-129678571D01*
X83214285Y-129678571D01*
X83357142Y-129750000D01*
X84714285Y-129678571D02*
X84714285Y-130678571D01*
X84071428Y-129678571D02*
X84071428Y-130464285D01*
X84142857Y-130607142D01*
X84285714Y-130678571D01*
X84499999Y-130678571D01*
X84642857Y-130607142D01*
X84714285Y-130535714D01*
X85428571Y-130678571D02*
X85428571Y-129678571D01*
X85428571Y-129178571D02*
X85357142Y-129250000D01*
X85428571Y-129321428D01*
X85499999Y-129250000D01*
X85428571Y-129178571D01*
X85428571Y-129321428D01*
X86142857Y-129678571D02*
X86142857Y-130678571D01*
X86142857Y-129821428D02*
X86214285Y-129750000D01*
X86357142Y-129678571D01*
X86571428Y-129678571D01*
X86714285Y-129750000D01*
X86785714Y-129892857D01*
X86785714Y-130678571D01*
X87714285Y-130678571D02*
X87571428Y-130607142D01*
X87500000Y-130535714D01*
X87428571Y-130392857D01*
X87428571Y-129964285D01*
X87500000Y-129821428D01*
X87571428Y-129750000D01*
X87714285Y-129678571D01*
X87928571Y-129678571D01*
X88071428Y-129750000D01*
X88142857Y-129821428D01*
X88214285Y-129964285D01*
X88214285Y-130392857D01*
X88142857Y-130535714D01*
X88071428Y-130607142D01*
X87928571Y-130678571D01*
X87714285Y-130678571D01*
X89999999Y-130678571D02*
X89999999Y-129178571D01*
X90857142Y-130678571D01*
X90857142Y-129178571D01*
X92214285Y-130678571D02*
X92214285Y-129892857D01*
X92142857Y-129750000D01*
X91999999Y-129678571D01*
X91714285Y-129678571D01*
X91571428Y-129750000D01*
X92214285Y-130607142D02*
X92071428Y-130678571D01*
X91714285Y-130678571D01*
X91571428Y-130607142D01*
X91499999Y-130464285D01*
X91499999Y-130321428D01*
X91571428Y-130178571D01*
X91714285Y-130107142D01*
X92071428Y-130107142D01*
X92214285Y-130035714D01*
X92928571Y-129678571D02*
X92928571Y-130678571D01*
X92928571Y-129821428D02*
X92999999Y-129750000D01*
X93142857Y-129678571D01*
X93357142Y-129678571D01*
X93499999Y-129750000D01*
X93571428Y-129892857D01*
X93571428Y-130678571D01*
X94499999Y-130678571D02*
X94357142Y-130607142D01*
X94285714Y-130535714D01*
X94214285Y-130392857D01*
X94214285Y-129964285D01*
X94285714Y-129821428D01*
X94357142Y-129750000D01*
X94499999Y-129678571D01*
X94714285Y-129678571D01*
X94857142Y-129750000D01*
X94928571Y-129821428D01*
X94999999Y-129964285D01*
X94999999Y-130392857D01*
X94928571Y-130535714D01*
X94857142Y-130607142D01*
X94714285Y-130678571D01*
X94499999Y-130678571D01*
X96642857Y-129178571D02*
X97571428Y-129178571D01*
X97071428Y-129750000D01*
X97285714Y-129750000D01*
X97428571Y-129821428D01*
X97499999Y-129892857D01*
X97571428Y-130035714D01*
X97571428Y-130392857D01*
X97499999Y-130535714D01*
X97428571Y-130607142D01*
X97285714Y-130678571D01*
X96857142Y-130678571D01*
X96714285Y-130607142D01*
X96642857Y-130535714D01*
X70445714Y-103107142D02*
X71588571Y-103107142D01*
X71017142Y-103678571D02*
X71017142Y-102535714D01*
X75731428Y-103107142D02*
X76874285Y-103107142D01*
D11*
X112175714Y-109302857D02*
X112175714Y-108102857D01*
X112461428Y-108102857D01*
X112632857Y-108160000D01*
X112747142Y-108274285D01*
X112804285Y-108388571D01*
X112861428Y-108617142D01*
X112861428Y-108788571D01*
X112804285Y-109017142D01*
X112747142Y-109131428D01*
X112632857Y-109245714D01*
X112461428Y-109302857D01*
X112175714Y-109302857D01*
X113375714Y-109302857D02*
X113375714Y-108502857D01*
X113375714Y-108731428D02*
X113432857Y-108617142D01*
X113490000Y-108560000D01*
X113604285Y-108502857D01*
X113718571Y-108502857D01*
X114632857Y-108502857D02*
X114632857Y-109302857D01*
X114118571Y-108502857D02*
X114118571Y-109131428D01*
X114175714Y-109245714D01*
X114290000Y-109302857D01*
X114461428Y-109302857D01*
X114575714Y-109245714D01*
X114632857Y-109188571D01*
X115204285Y-109302857D02*
X115204285Y-108502857D01*
X115204285Y-108617142D02*
X115261428Y-108560000D01*
X115375714Y-108502857D01*
X115547142Y-108502857D01*
X115661428Y-108560000D01*
X115718571Y-108674285D01*
X115718571Y-109302857D01*
X115718571Y-108674285D02*
X115775714Y-108560000D01*
X115890000Y-108502857D01*
X116061428Y-108502857D01*
X116175714Y-108560000D01*
X116232857Y-108674285D01*
X116232857Y-109302857D01*
X116804285Y-109302857D02*
X116804285Y-108102857D01*
X117490000Y-109302857D02*
X116975714Y-108617142D01*
X117490000Y-108102857D02*
X116804285Y-108788571D01*
X118004285Y-109302857D02*
X118004285Y-108502857D01*
X118004285Y-108102857D02*
X117947142Y-108160000D01*
X118004285Y-108217142D01*
X118061428Y-108160000D01*
X118004285Y-108102857D01*
X118004285Y-108217142D01*
X119090000Y-109302857D02*
X119090000Y-108102857D01*
X119090000Y-109245714D02*
X118975714Y-109302857D01*
X118747142Y-109302857D01*
X118632857Y-109245714D01*
X118575714Y-109188571D01*
X118518571Y-109074285D01*
X118518571Y-108731428D01*
X118575714Y-108617142D01*
X118632857Y-108560000D01*
X118747142Y-108502857D01*
X118975714Y-108502857D01*
X119090000Y-108560000D01*
X120461428Y-108502857D02*
X120747142Y-109302857D01*
X121032857Y-108502857D01*
X121718571Y-108102857D02*
X121832857Y-108102857D01*
X121947142Y-108160000D01*
X122004285Y-108217142D01*
X122061428Y-108331428D01*
X122118571Y-108560000D01*
X122118571Y-108845714D01*
X122061428Y-109074285D01*
X122004285Y-109188571D01*
X121947142Y-109245714D01*
X121832857Y-109302857D01*
X121718571Y-109302857D01*
X121604285Y-109245714D01*
X121547142Y-109188571D01*
X121490000Y-109074285D01*
X121432857Y-108845714D01*
X121432857Y-108560000D01*
X121490000Y-108331428D01*
X121547142Y-108217142D01*
X121604285Y-108160000D01*
X121718571Y-108102857D01*
X122804285Y-108617142D02*
X122690000Y-108560000D01*
X122632857Y-108502857D01*
X122575714Y-108388571D01*
X122575714Y-108331428D01*
X122632857Y-108217142D01*
X122690000Y-108160000D01*
X122804285Y-108102857D01*
X123032857Y-108102857D01*
X123147142Y-108160000D01*
X123204285Y-108217142D01*
X123261428Y-108331428D01*
X123261428Y-108388571D01*
X123204285Y-108502857D01*
X123147142Y-108560000D01*
X123032857Y-108617142D01*
X122804285Y-108617142D01*
X122690000Y-108674285D01*
X122632857Y-108731428D01*
X122575714Y-108845714D01*
X122575714Y-109074285D01*
X122632857Y-109188571D01*
X122690000Y-109245714D01*
X122804285Y-109302857D01*
X123032857Y-109302857D01*
X123147142Y-109245714D01*
X123204285Y-109188571D01*
X123261428Y-109074285D01*
X123261428Y-108845714D01*
X123204285Y-108731428D01*
X123147142Y-108674285D01*
X123032857Y-108617142D01*
X112175714Y-111302857D02*
X112175714Y-110102857D01*
X112175714Y-110560000D02*
X112290000Y-110502857D01*
X112518571Y-110502857D01*
X112632857Y-110560000D01*
X112690000Y-110617142D01*
X112747142Y-110731428D01*
X112747142Y-111074285D01*
X112690000Y-111188571D01*
X112632857Y-111245714D01*
X112518571Y-111302857D01*
X112290000Y-111302857D01*
X112175714Y-111245714D01*
X113147142Y-110502857D02*
X113432857Y-111302857D01*
X113718571Y-110502857D02*
X113432857Y-111302857D01*
X113318571Y-111588571D01*
X113261428Y-111645714D01*
X113147142Y-111702857D01*
X115090000Y-111302857D02*
X115090000Y-110102857D01*
X115490000Y-110960000D01*
X115890000Y-110102857D01*
X115890000Y-111302857D01*
X116975714Y-111302857D02*
X116975714Y-110674285D01*
X116918571Y-110560000D01*
X116804285Y-110502857D01*
X116575714Y-110502857D01*
X116461428Y-110560000D01*
X116975714Y-111245714D02*
X116861428Y-111302857D01*
X116575714Y-111302857D01*
X116461428Y-111245714D01*
X116404285Y-111131428D01*
X116404285Y-111017142D01*
X116461428Y-110902857D01*
X116575714Y-110845714D01*
X116861428Y-110845714D01*
X116975714Y-110788571D01*
X117375714Y-110502857D02*
X117832857Y-110502857D01*
X117547142Y-110102857D02*
X117547142Y-111131428D01*
X117604285Y-111245714D01*
X117718571Y-111302857D01*
X117832857Y-111302857D01*
X118061428Y-110502857D02*
X118518571Y-110502857D01*
X118232857Y-110102857D02*
X118232857Y-111131428D01*
X118290000Y-111245714D01*
X118404285Y-111302857D01*
X118518571Y-111302857D01*
X120232857Y-110674285D02*
X120404285Y-110731428D01*
X120461428Y-110788571D01*
X120518571Y-110902857D01*
X120518571Y-111074285D01*
X120461428Y-111188571D01*
X120404285Y-111245714D01*
X120290000Y-111302857D01*
X119832857Y-111302857D01*
X119832857Y-110102857D01*
X120232857Y-110102857D01*
X120347142Y-110160000D01*
X120404285Y-110217142D01*
X120461428Y-110331428D01*
X120461428Y-110445714D01*
X120404285Y-110560000D01*
X120347142Y-110617142D01*
X120232857Y-110674285D01*
X119832857Y-110674285D01*
X121032857Y-111302857D02*
X121032857Y-110502857D01*
X121032857Y-110731428D02*
X121090000Y-110617142D01*
X121147142Y-110560000D01*
X121261428Y-110502857D01*
X121375714Y-110502857D01*
X122290000Y-111302857D02*
X122290000Y-110674285D01*
X122232857Y-110560000D01*
X122118571Y-110502857D01*
X121890000Y-110502857D01*
X121775714Y-110560000D01*
X122290000Y-111245714D02*
X122175714Y-111302857D01*
X121890000Y-111302857D01*
X121775714Y-111245714D01*
X121718571Y-111131428D01*
X121718571Y-111017142D01*
X121775714Y-110902857D01*
X121890000Y-110845714D01*
X122175714Y-110845714D01*
X122290000Y-110788571D01*
X123375714Y-111302857D02*
X123375714Y-110102857D01*
X123375714Y-111245714D02*
X123261428Y-111302857D01*
X123032857Y-111302857D01*
X122918571Y-111245714D01*
X122861428Y-111188571D01*
X122804285Y-111074285D01*
X122804285Y-110731428D01*
X122861428Y-110617142D01*
X122918571Y-110560000D01*
X123032857Y-110502857D01*
X123261428Y-110502857D01*
X123375714Y-110560000D01*
X123890000Y-111245714D02*
X124004285Y-111302857D01*
X124232857Y-111302857D01*
X124347142Y-111245714D01*
X124404285Y-111131428D01*
X124404285Y-111074285D01*
X124347142Y-110960000D01*
X124232857Y-110902857D01*
X124061428Y-110902857D01*
X123947142Y-110845714D01*
X123890000Y-110731428D01*
X123890000Y-110674285D01*
X123947142Y-110560000D01*
X124061428Y-110502857D01*
X124232857Y-110502857D01*
X124347142Y-110560000D01*
X124918571Y-111302857D02*
X124918571Y-110102857D01*
X125432857Y-111302857D02*
X125432857Y-110674285D01*
X125375714Y-110560000D01*
X125261428Y-110502857D01*
X125090000Y-110502857D01*
X124975714Y-110560000D01*
X124918571Y-110617142D01*
X126518571Y-111302857D02*
X126518571Y-110674285D01*
X126461428Y-110560000D01*
X126347142Y-110502857D01*
X126118571Y-110502857D01*
X126004285Y-110560000D01*
X126518571Y-111245714D02*
X126404285Y-111302857D01*
X126118571Y-111302857D01*
X126004285Y-111245714D01*
X125947142Y-111131428D01*
X125947142Y-111017142D01*
X126004285Y-110902857D01*
X126118571Y-110845714D01*
X126404285Y-110845714D01*
X126518571Y-110788571D01*
X126975714Y-110502857D02*
X127204285Y-111302857D01*
X127432857Y-110731428D01*
X127661428Y-111302857D01*
X127890000Y-110502857D01*
X112175714Y-113302857D02*
X112175714Y-112502857D01*
X112175714Y-112617142D02*
X112232857Y-112560000D01*
X112347142Y-112502857D01*
X112518571Y-112502857D01*
X112632857Y-112560000D01*
X112690000Y-112674285D01*
X112690000Y-113302857D01*
X112690000Y-112674285D02*
X112747142Y-112560000D01*
X112861428Y-112502857D01*
X113032857Y-112502857D01*
X113147142Y-112560000D01*
X113204285Y-112674285D01*
X113204285Y-113302857D01*
X114290000Y-113302857D02*
X114290000Y-112674285D01*
X114232857Y-112560000D01*
X114118571Y-112502857D01*
X113890000Y-112502857D01*
X113775714Y-112560000D01*
X114290000Y-113245714D02*
X114175714Y-113302857D01*
X113890000Y-113302857D01*
X113775714Y-113245714D01*
X113718571Y-113131428D01*
X113718571Y-113017142D01*
X113775714Y-112902857D01*
X113890000Y-112845714D01*
X114175714Y-112845714D01*
X114290000Y-112788571D01*
X114690000Y-112502857D02*
X115147142Y-112502857D01*
X114861428Y-112102857D02*
X114861428Y-113131428D01*
X114918571Y-113245714D01*
X115032857Y-113302857D01*
X115147142Y-113302857D01*
X115375714Y-112502857D02*
X115832857Y-112502857D01*
X115547142Y-112102857D02*
X115547142Y-113131428D01*
X115604285Y-113245714D01*
X115718571Y-113302857D01*
X115832857Y-113302857D01*
X116232857Y-113302857D02*
X116232857Y-112102857D01*
X116232857Y-112560000D02*
X116347142Y-112502857D01*
X116575714Y-112502857D01*
X116690000Y-112560000D01*
X116747142Y-112617142D01*
X116804285Y-112731428D01*
X116804285Y-113074285D01*
X116747142Y-113188571D01*
X116690000Y-113245714D01*
X116575714Y-113302857D01*
X116347142Y-113302857D01*
X116232857Y-113245714D01*
X117318571Y-113302857D02*
X117318571Y-112502857D01*
X117318571Y-112731428D02*
X117375714Y-112617142D01*
X117432857Y-112560000D01*
X117547142Y-112502857D01*
X117661428Y-112502857D01*
X118575714Y-113302857D02*
X118575714Y-112674285D01*
X118518571Y-112560000D01*
X118404285Y-112502857D01*
X118175714Y-112502857D01*
X118061428Y-112560000D01*
X118575714Y-113245714D02*
X118461428Y-113302857D01*
X118175714Y-113302857D01*
X118061428Y-113245714D01*
X118004285Y-113131428D01*
X118004285Y-113017142D01*
X118061428Y-112902857D01*
X118175714Y-112845714D01*
X118461428Y-112845714D01*
X118575714Y-112788571D01*
X119661428Y-113302857D02*
X119661428Y-112102857D01*
X119661428Y-113245714D02*
X119547142Y-113302857D01*
X119318571Y-113302857D01*
X119204285Y-113245714D01*
X119147142Y-113188571D01*
X119090000Y-113074285D01*
X119090000Y-112731428D01*
X119147142Y-112617142D01*
X119204285Y-112560000D01*
X119318571Y-112502857D01*
X119547142Y-112502857D01*
X119661428Y-112560000D01*
X120175714Y-113245714D02*
X120290000Y-113302857D01*
X120518571Y-113302857D01*
X120632857Y-113245714D01*
X120690000Y-113131428D01*
X120690000Y-113074285D01*
X120632857Y-112960000D01*
X120518571Y-112902857D01*
X120347142Y-112902857D01*
X120232857Y-112845714D01*
X120175714Y-112731428D01*
X120175714Y-112674285D01*
X120232857Y-112560000D01*
X120347142Y-112502857D01*
X120518571Y-112502857D01*
X120632857Y-112560000D01*
X121204285Y-113302857D02*
X121204285Y-112102857D01*
X121718571Y-113302857D02*
X121718571Y-112674285D01*
X121661428Y-112560000D01*
X121547142Y-112502857D01*
X121375714Y-112502857D01*
X121261428Y-112560000D01*
X121204285Y-112617142D01*
X122804285Y-113302857D02*
X122804285Y-112674285D01*
X122747142Y-112560000D01*
X122632857Y-112502857D01*
X122404285Y-112502857D01*
X122290000Y-112560000D01*
X122804285Y-113245714D02*
X122690000Y-113302857D01*
X122404285Y-113302857D01*
X122290000Y-113245714D01*
X122232857Y-113131428D01*
X122232857Y-113017142D01*
X122290000Y-112902857D01*
X122404285Y-112845714D01*
X122690000Y-112845714D01*
X122804285Y-112788571D01*
X123261428Y-112502857D02*
X123490000Y-113302857D01*
X123718571Y-112731428D01*
X123947142Y-113302857D01*
X124175714Y-112502857D01*
X125147142Y-113302857D02*
X125147142Y-112102857D01*
X125147142Y-113245714D02*
X125032857Y-113302857D01*
X124804285Y-113302857D01*
X124690000Y-113245714D01*
X124632857Y-113188571D01*
X124575714Y-113074285D01*
X124575714Y-112731428D01*
X124632857Y-112617142D01*
X124690000Y-112560000D01*
X124804285Y-112502857D01*
X125032857Y-112502857D01*
X125147142Y-112560000D01*
X126175714Y-113245714D02*
X126061428Y-113302857D01*
X125832857Y-113302857D01*
X125718571Y-113245714D01*
X125661428Y-113131428D01*
X125661428Y-112674285D01*
X125718571Y-112560000D01*
X125832857Y-112502857D01*
X126061428Y-112502857D01*
X126175714Y-112560000D01*
X126232857Y-112674285D01*
X126232857Y-112788571D01*
X125661428Y-112902857D01*
X126690000Y-113245714D02*
X126804285Y-113302857D01*
X127032857Y-113302857D01*
X127147142Y-113245714D01*
X127204285Y-113131428D01*
X127204285Y-113074285D01*
X127147142Y-112960000D01*
X127032857Y-112902857D01*
X126861428Y-112902857D01*
X126747142Y-112845714D01*
X126690000Y-112731428D01*
X126690000Y-112674285D01*
X126747142Y-112560000D01*
X126861428Y-112502857D01*
X127032857Y-112502857D01*
X127147142Y-112560000D01*
X127718571Y-113302857D02*
X127718571Y-112502857D01*
X127718571Y-112102857D02*
X127661428Y-112160000D01*
X127718571Y-112217142D01*
X127775714Y-112160000D01*
X127718571Y-112102857D01*
X127718571Y-112217142D01*
X128804285Y-112502857D02*
X128804285Y-113474285D01*
X128747142Y-113588571D01*
X128690000Y-113645714D01*
X128575714Y-113702857D01*
X128404285Y-113702857D01*
X128290000Y-113645714D01*
X128804285Y-113245714D02*
X128690000Y-113302857D01*
X128461428Y-113302857D01*
X128347142Y-113245714D01*
X128290000Y-113188571D01*
X128232857Y-113074285D01*
X128232857Y-112731428D01*
X128290000Y-112617142D01*
X128347142Y-112560000D01*
X128461428Y-112502857D01*
X128690000Y-112502857D01*
X128804285Y-112560000D01*
X129375714Y-112502857D02*
X129375714Y-113302857D01*
X129375714Y-112617142D02*
X129432857Y-112560000D01*
X129547142Y-112502857D01*
X129718571Y-112502857D01*
X129832857Y-112560000D01*
X129890000Y-112674285D01*
X129890000Y-113302857D01*
X130461428Y-113188571D02*
X130518571Y-113245714D01*
X130461428Y-113302857D01*
X130404285Y-113245714D01*
X130461428Y-113188571D01*
X130461428Y-113302857D01*
X131547142Y-113245714D02*
X131432857Y-113302857D01*
X131204285Y-113302857D01*
X131090000Y-113245714D01*
X131032857Y-113188571D01*
X130975714Y-113074285D01*
X130975714Y-112731428D01*
X131032857Y-112617142D01*
X131090000Y-112560000D01*
X131204285Y-112502857D01*
X131432857Y-112502857D01*
X131547142Y-112560000D01*
X132232857Y-113302857D02*
X132118571Y-113245714D01*
X132061428Y-113188571D01*
X132004285Y-113074285D01*
X132004285Y-112731428D01*
X132061428Y-112617142D01*
X132118571Y-112560000D01*
X132232857Y-112502857D01*
X132404285Y-112502857D01*
X132518571Y-112560000D01*
X132575714Y-112617142D01*
X132632857Y-112731428D01*
X132632857Y-113074285D01*
X132575714Y-113188571D01*
X132518571Y-113245714D01*
X132404285Y-113302857D01*
X132232857Y-113302857D01*
X133147142Y-113302857D02*
X133147142Y-112502857D01*
X133147142Y-112617142D02*
X133204285Y-112560000D01*
X133318571Y-112502857D01*
X133490000Y-112502857D01*
X133604285Y-112560000D01*
X133661428Y-112674285D01*
X133661428Y-113302857D01*
X133661428Y-112674285D02*
X133718571Y-112560000D01*
X133832857Y-112502857D01*
X134004285Y-112502857D01*
X134118571Y-112560000D01*
X134175714Y-112674285D01*
X134175714Y-113302857D01*
X112690000Y-114502857D02*
X112690000Y-115474285D01*
X112632857Y-115588571D01*
X112575714Y-115645714D01*
X112461428Y-115702857D01*
X112290000Y-115702857D01*
X112175714Y-115645714D01*
X112690000Y-115245714D02*
X112575714Y-115302857D01*
X112347142Y-115302857D01*
X112232857Y-115245714D01*
X112175714Y-115188571D01*
X112118571Y-115074285D01*
X112118571Y-114731428D01*
X112175714Y-114617142D01*
X112232857Y-114560000D01*
X112347142Y-114502857D01*
X112575714Y-114502857D01*
X112690000Y-114560000D01*
X113261428Y-115302857D02*
X113261428Y-114502857D01*
X113261428Y-114102857D02*
X113204285Y-114160000D01*
X113261428Y-114217142D01*
X113318571Y-114160000D01*
X113261428Y-114102857D01*
X113261428Y-114217142D01*
X113661428Y-114502857D02*
X114118571Y-114502857D01*
X113832857Y-114102857D02*
X113832857Y-115131428D01*
X113890000Y-115245714D01*
X114004285Y-115302857D01*
X114118571Y-115302857D01*
X114518571Y-115302857D02*
X114518571Y-114102857D01*
X115032857Y-115302857D02*
X115032857Y-114674285D01*
X114975714Y-114560000D01*
X114861428Y-114502857D01*
X114690000Y-114502857D01*
X114575714Y-114560000D01*
X114518571Y-114617142D01*
X116118571Y-114502857D02*
X116118571Y-115302857D01*
X115604285Y-114502857D02*
X115604285Y-115131428D01*
X115661428Y-115245714D01*
X115775714Y-115302857D01*
X115947142Y-115302857D01*
X116061428Y-115245714D01*
X116118571Y-115188571D01*
X116690000Y-115302857D02*
X116690000Y-114102857D01*
X116690000Y-114560000D02*
X116804285Y-114502857D01*
X117032857Y-114502857D01*
X117147142Y-114560000D01*
X117204285Y-114617142D01*
X117261428Y-114731428D01*
X117261428Y-115074285D01*
X117204285Y-115188571D01*
X117147142Y-115245714D01*
X117032857Y-115302857D01*
X116804285Y-115302857D01*
X116690000Y-115245714D01*
X117775714Y-115188571D02*
X117832857Y-115245714D01*
X117775714Y-115302857D01*
X117718571Y-115245714D01*
X117775714Y-115188571D01*
X117775714Y-115302857D01*
X118861428Y-115245714D02*
X118747142Y-115302857D01*
X118518571Y-115302857D01*
X118404285Y-115245714D01*
X118347142Y-115188571D01*
X118290000Y-115074285D01*
X118290000Y-114731428D01*
X118347142Y-114617142D01*
X118404285Y-114560000D01*
X118518571Y-114502857D01*
X118747142Y-114502857D01*
X118861428Y-114560000D01*
X119547142Y-115302857D02*
X119432857Y-115245714D01*
X119375714Y-115188571D01*
X119318571Y-115074285D01*
X119318571Y-114731428D01*
X119375714Y-114617142D01*
X119432857Y-114560000D01*
X119547142Y-114502857D01*
X119718571Y-114502857D01*
X119832857Y-114560000D01*
X119890000Y-114617142D01*
X119947142Y-114731428D01*
X119947142Y-115074285D01*
X119890000Y-115188571D01*
X119832857Y-115245714D01*
X119718571Y-115302857D01*
X119547142Y-115302857D01*
X120461428Y-115302857D02*
X120461428Y-114502857D01*
X120461428Y-114617142D02*
X120518571Y-114560000D01*
X120632857Y-114502857D01*
X120804285Y-114502857D01*
X120918571Y-114560000D01*
X120975714Y-114674285D01*
X120975714Y-115302857D01*
X120975714Y-114674285D02*
X121032857Y-114560000D01*
X121147142Y-114502857D01*
X121318571Y-114502857D01*
X121432857Y-114560000D01*
X121490000Y-114674285D01*
X121490000Y-115302857D01*
X122918571Y-114045714D02*
X121890000Y-115588571D01*
X123318571Y-115302857D02*
X123318571Y-114502857D01*
X123318571Y-114617142D02*
X123375714Y-114560000D01*
X123490000Y-114502857D01*
X123661428Y-114502857D01*
X123775714Y-114560000D01*
X123832857Y-114674285D01*
X123832857Y-115302857D01*
X123832857Y-114674285D02*
X123890000Y-114560000D01*
X124004285Y-114502857D01*
X124175714Y-114502857D01*
X124290000Y-114560000D01*
X124347142Y-114674285D01*
X124347142Y-115302857D01*
X125432857Y-115302857D02*
X125432857Y-114674285D01*
X125375714Y-114560000D01*
X125261428Y-114502857D01*
X125032857Y-114502857D01*
X124918571Y-114560000D01*
X125432857Y-115245714D02*
X125318571Y-115302857D01*
X125032857Y-115302857D01*
X124918571Y-115245714D01*
X124861428Y-115131428D01*
X124861428Y-115017142D01*
X124918571Y-114902857D01*
X125032857Y-114845714D01*
X125318571Y-114845714D01*
X125432857Y-114788571D01*
X125832857Y-114502857D02*
X126290000Y-114502857D01*
X126004285Y-114102857D02*
X126004285Y-115131428D01*
X126061428Y-115245714D01*
X126175714Y-115302857D01*
X126290000Y-115302857D01*
X126518571Y-114502857D02*
X126975714Y-114502857D01*
X126690000Y-114102857D02*
X126690000Y-115131428D01*
X126747142Y-115245714D01*
X126861428Y-115302857D01*
X126975714Y-115302857D01*
X127261428Y-114502857D02*
X127547142Y-115302857D01*
X127832857Y-114502857D02*
X127547142Y-115302857D01*
X127432857Y-115588571D01*
X127375714Y-115645714D01*
X127261428Y-115702857D01*
X128290000Y-115302857D02*
X128290000Y-114102857D01*
X128290000Y-114560000D02*
X128404285Y-114502857D01*
X128632857Y-114502857D01*
X128747142Y-114560000D01*
X128804285Y-114617142D01*
X128861428Y-114731428D01*
X128861428Y-115074285D01*
X128804285Y-115188571D01*
X128747142Y-115245714D01*
X128632857Y-115302857D01*
X128404285Y-115302857D01*
X128290000Y-115245714D01*
X129375714Y-115302857D02*
X129375714Y-114502857D01*
X129375714Y-114731428D02*
X129432857Y-114617142D01*
X129490000Y-114560000D01*
X129604285Y-114502857D01*
X129718571Y-114502857D01*
X130632857Y-115302857D02*
X130632857Y-114674285D01*
X130575714Y-114560000D01*
X130461428Y-114502857D01*
X130232857Y-114502857D01*
X130118571Y-114560000D01*
X130632857Y-115245714D02*
X130518571Y-115302857D01*
X130232857Y-115302857D01*
X130118571Y-115245714D01*
X130061428Y-115131428D01*
X130061428Y-115017142D01*
X130118571Y-114902857D01*
X130232857Y-114845714D01*
X130518571Y-114845714D01*
X130632857Y-114788571D01*
X131718571Y-115302857D02*
X131718571Y-114102857D01*
X131718571Y-115245714D02*
X131604285Y-115302857D01*
X131375714Y-115302857D01*
X131261428Y-115245714D01*
X131204285Y-115188571D01*
X131147142Y-115074285D01*
X131147142Y-114731428D01*
X131204285Y-114617142D01*
X131261428Y-114560000D01*
X131375714Y-114502857D01*
X131604285Y-114502857D01*
X131718571Y-114560000D01*
X133147142Y-114045714D02*
X132118571Y-115588571D01*
X134061428Y-115302857D02*
X134061428Y-114102857D01*
X134061428Y-115245714D02*
X133947142Y-115302857D01*
X133718571Y-115302857D01*
X133604285Y-115245714D01*
X133547142Y-115188571D01*
X133490000Y-115074285D01*
X133490000Y-114731428D01*
X133547142Y-114617142D01*
X133604285Y-114560000D01*
X133718571Y-114502857D01*
X133947142Y-114502857D01*
X134061428Y-114560000D01*
X134632857Y-115302857D02*
X134632857Y-114502857D01*
X134632857Y-114731428D02*
X134690000Y-114617142D01*
X134747142Y-114560000D01*
X134861428Y-114502857D01*
X134975714Y-114502857D01*
X135890000Y-114502857D02*
X135890000Y-115302857D01*
X135375714Y-114502857D02*
X135375714Y-115131428D01*
X135432857Y-115245714D01*
X135547142Y-115302857D01*
X135718571Y-115302857D01*
X135832857Y-115245714D01*
X135890000Y-115188571D01*
X136461428Y-115302857D02*
X136461428Y-114502857D01*
X136461428Y-114617142D02*
X136518571Y-114560000D01*
X136632857Y-114502857D01*
X136804285Y-114502857D01*
X136918571Y-114560000D01*
X136975714Y-114674285D01*
X136975714Y-115302857D01*
X136975714Y-114674285D02*
X137032857Y-114560000D01*
X137147142Y-114502857D01*
X137318571Y-114502857D01*
X137432857Y-114560000D01*
X137490000Y-114674285D01*
X137490000Y-115302857D01*
X138061428Y-115302857D02*
X138061428Y-114102857D01*
X138175714Y-114845714D02*
X138518571Y-115302857D01*
X138518571Y-114502857D02*
X138061428Y-114960000D01*
X139032857Y-115302857D02*
X139032857Y-114502857D01*
X139032857Y-114102857D02*
X138975714Y-114160000D01*
X139032857Y-114217142D01*
X139090000Y-114160000D01*
X139032857Y-114102857D01*
X139032857Y-114217142D01*
X140118571Y-115302857D02*
X140118571Y-114102857D01*
X140118571Y-115245714D02*
X140004285Y-115302857D01*
X139775714Y-115302857D01*
X139661428Y-115245714D01*
X139604285Y-115188571D01*
X139547142Y-115074285D01*
X139547142Y-114731428D01*
X139604285Y-114617142D01*
X139661428Y-114560000D01*
X139775714Y-114502857D01*
X140004285Y-114502857D01*
X140118571Y-114560000D01*
X112118571Y-100815714D02*
X112290000Y-100872857D01*
X112575714Y-100872857D01*
X112690000Y-100815714D01*
X112747142Y-100758571D01*
X112804285Y-100644285D01*
X112804285Y-100530000D01*
X112747142Y-100415714D01*
X112690000Y-100358571D01*
X112575714Y-100301428D01*
X112347142Y-100244285D01*
X112232857Y-100187142D01*
X112175714Y-100130000D01*
X112118571Y-100015714D01*
X112118571Y-99901428D01*
X112175714Y-99787142D01*
X112232857Y-99730000D01*
X112347142Y-99672857D01*
X112632857Y-99672857D01*
X112804285Y-99730000D01*
X113775714Y-100815714D02*
X113661428Y-100872857D01*
X113432857Y-100872857D01*
X113318571Y-100815714D01*
X113261428Y-100701428D01*
X113261428Y-100244285D01*
X113318571Y-100130000D01*
X113432857Y-100072857D01*
X113661428Y-100072857D01*
X113775714Y-100130000D01*
X113832857Y-100244285D01*
X113832857Y-100358571D01*
X113261428Y-100472857D01*
X114347142Y-100872857D02*
X114347142Y-100072857D01*
X114347142Y-100301428D02*
X114404285Y-100187142D01*
X114461428Y-100130000D01*
X114575714Y-100072857D01*
X114690000Y-100072857D01*
X115090000Y-100872857D02*
X115090000Y-100072857D01*
X115090000Y-99672857D02*
X115032857Y-99730000D01*
X115090000Y-99787142D01*
X115147142Y-99730000D01*
X115090000Y-99672857D01*
X115090000Y-99787142D01*
X116175714Y-100872857D02*
X116175714Y-100244285D01*
X116118571Y-100130000D01*
X116004285Y-100072857D01*
X115775714Y-100072857D01*
X115661428Y-100130000D01*
X116175714Y-100815714D02*
X116061428Y-100872857D01*
X115775714Y-100872857D01*
X115661428Y-100815714D01*
X115604285Y-100701428D01*
X115604285Y-100587142D01*
X115661428Y-100472857D01*
X115775714Y-100415714D01*
X116061428Y-100415714D01*
X116175714Y-100358571D01*
X116918571Y-100872857D02*
X116804285Y-100815714D01*
X116747142Y-100701428D01*
X116747142Y-99672857D01*
X118290000Y-100072857D02*
X118290000Y-100872857D01*
X118290000Y-100187142D02*
X118347142Y-100130000D01*
X118461428Y-100072857D01*
X118632857Y-100072857D01*
X118747142Y-100130000D01*
X118804285Y-100244285D01*
X118804285Y-100872857D01*
X119890000Y-100072857D02*
X119890000Y-100872857D01*
X119375714Y-100072857D02*
X119375714Y-100701428D01*
X119432857Y-100815714D01*
X119547142Y-100872857D01*
X119718571Y-100872857D01*
X119832857Y-100815714D01*
X119890000Y-100758571D01*
X120461428Y-100872857D02*
X120461428Y-100072857D01*
X120461428Y-100187142D02*
X120518571Y-100130000D01*
X120632857Y-100072857D01*
X120804285Y-100072857D01*
X120918571Y-100130000D01*
X120975714Y-100244285D01*
X120975714Y-100872857D01*
X120975714Y-100244285D02*
X121032857Y-100130000D01*
X121147142Y-100072857D01*
X121318571Y-100072857D01*
X121432857Y-100130000D01*
X121490000Y-100244285D01*
X121490000Y-100872857D01*
X122061428Y-100872857D02*
X122061428Y-99672857D01*
X122061428Y-100130000D02*
X122175714Y-100072857D01*
X122404285Y-100072857D01*
X122518571Y-100130000D01*
X122575714Y-100187142D01*
X122632857Y-100301428D01*
X122632857Y-100644285D01*
X122575714Y-100758571D01*
X122518571Y-100815714D01*
X122404285Y-100872857D01*
X122175714Y-100872857D01*
X122061428Y-100815714D01*
X123604285Y-100815714D02*
X123490000Y-100872857D01*
X123261428Y-100872857D01*
X123147142Y-100815714D01*
X123090000Y-100701428D01*
X123090000Y-100244285D01*
X123147142Y-100130000D01*
X123261428Y-100072857D01*
X123490000Y-100072857D01*
X123604285Y-100130000D01*
X123661428Y-100244285D01*
X123661428Y-100358571D01*
X123090000Y-100472857D01*
X124175714Y-100872857D02*
X124175714Y-100072857D01*
X124175714Y-100301428D02*
X124232857Y-100187142D01*
X124290000Y-100130000D01*
X124404285Y-100072857D01*
X124518571Y-100072857D01*
D10*
G36*
X132080000Y-106600000D02*
G01*
X112080000Y-106600000D01*
X112080000Y-101600000D01*
X132080000Y-101600000D01*
X132080000Y-106600000D01*
G37*
X132080000Y-106600000D02*
X112080000Y-106600000D01*
X112080000Y-101600000D01*
X132080000Y-101600000D01*
X132080000Y-106600000D01*
D11*
X132500000Y-50000000D02*
G75*
G03X132500000Y-50000000I-2500000J0D01*
G01*
X122500000Y-50000000D02*
G75*
G03X122500000Y-50000000I-2500000J0D01*
G01*
X112500000Y-50000000D02*
G75*
G03X112500000Y-50000000I-2500000J0D01*
G01*
X72500000Y-50000000D02*
G75*
G03X72500000Y-50000000I-2500000J0D01*
G01*
X82500000Y-50000000D02*
G75*
G03X82500000Y-50000000I-2500000J0D01*
G01*
X92500000Y-50000000D02*
G75*
G03X92500000Y-50000000I-2500000J0D01*
G01*
X102500000Y-50000000D02*
G75*
G03X102500000Y-50000000I-2500000J0D01*
G01*
X102500000Y-80000000D02*
G75*
G03X102500000Y-80000000I-2500000J0D01*
G01*
D13*
X120650000Y-134390000D02*
X120650000Y-135160000D01*
X120650000Y-142470000D02*
X120650000Y-141700000D01*
X119280000Y-135160000D02*
X119280000Y-141700000D01*
X122020000Y-135160000D02*
X119280000Y-135160000D01*
X122020000Y-141700000D02*
X122020000Y-135160000D01*
X119280000Y-141700000D02*
X122020000Y-141700000D01*
X118110000Y-134390000D02*
X118110000Y-135160000D01*
X118110000Y-142470000D02*
X118110000Y-141700000D01*
X116740000Y-135160000D02*
X116740000Y-141700000D01*
X119480000Y-135160000D02*
X116740000Y-135160000D01*
X119480000Y-141700000D02*
X119480000Y-135160000D01*
X116740000Y-141700000D02*
X119480000Y-141700000D01*
X115010000Y-138430000D02*
G75*
G03X115010000Y-138430000I-3270000J0D01*
G01*
X111740000Y-135200000D02*
X111740000Y-141660000D01*
X111780000Y-135200000D02*
X111780000Y-141660000D01*
X111820000Y-135200000D02*
X111820000Y-141660000D01*
X111860000Y-135202000D02*
X111860000Y-141658000D01*
X111900000Y-135203000D02*
X111900000Y-141657000D01*
X111940000Y-135206000D02*
X111940000Y-141654000D01*
X111980000Y-135208000D02*
X111980000Y-137390000D01*
X111980000Y-139470000D02*
X111980000Y-141652000D01*
X112020000Y-135212000D02*
X112020000Y-137390000D01*
X112020000Y-139470000D02*
X112020000Y-141648000D01*
X112060000Y-135215000D02*
X112060000Y-137390000D01*
X112060000Y-139470000D02*
X112060000Y-141645000D01*
X112100000Y-135219000D02*
X112100000Y-137390000D01*
X112100000Y-139470000D02*
X112100000Y-141641000D01*
X112140000Y-135224000D02*
X112140000Y-137390000D01*
X112140000Y-139470000D02*
X112140000Y-141636000D01*
X112180000Y-135229000D02*
X112180000Y-137390000D01*
X112180000Y-139470000D02*
X112180000Y-141631000D01*
X112220000Y-135235000D02*
X112220000Y-137390000D01*
X112220000Y-139470000D02*
X112220000Y-141625000D01*
X112260000Y-135241000D02*
X112260000Y-137390000D01*
X112260000Y-139470000D02*
X112260000Y-141619000D01*
X112300000Y-135248000D02*
X112300000Y-137390000D01*
X112300000Y-139470000D02*
X112300000Y-141612000D01*
X112340000Y-135255000D02*
X112340000Y-137390000D01*
X112340000Y-139470000D02*
X112340000Y-141605000D01*
X112380000Y-135263000D02*
X112380000Y-137390000D01*
X112380000Y-139470000D02*
X112380000Y-141597000D01*
X112420000Y-135271000D02*
X112420000Y-137390000D01*
X112420000Y-139470000D02*
X112420000Y-141589000D01*
X112461000Y-135280000D02*
X112461000Y-137390000D01*
X112461000Y-139470000D02*
X112461000Y-141580000D01*
X112501000Y-135289000D02*
X112501000Y-137390000D01*
X112501000Y-139470000D02*
X112501000Y-141571000D01*
X112541000Y-135299000D02*
X112541000Y-137390000D01*
X112541000Y-139470000D02*
X112541000Y-141561000D01*
X112581000Y-135309000D02*
X112581000Y-137390000D01*
X112581000Y-139470000D02*
X112581000Y-141551000D01*
X112621000Y-135320000D02*
X112621000Y-137390000D01*
X112621000Y-139470000D02*
X112621000Y-141540000D01*
X112661000Y-135332000D02*
X112661000Y-137390000D01*
X112661000Y-139470000D02*
X112661000Y-141528000D01*
X112701000Y-135344000D02*
X112701000Y-137390000D01*
X112701000Y-139470000D02*
X112701000Y-141516000D01*
X112741000Y-135356000D02*
X112741000Y-137390000D01*
X112741000Y-139470000D02*
X112741000Y-141504000D01*
X112781000Y-135369000D02*
X112781000Y-137390000D01*
X112781000Y-139470000D02*
X112781000Y-141491000D01*
X112821000Y-135383000D02*
X112821000Y-137390000D01*
X112821000Y-139470000D02*
X112821000Y-141477000D01*
X112861000Y-135397000D02*
X112861000Y-137390000D01*
X112861000Y-139470000D02*
X112861000Y-141463000D01*
X112901000Y-135412000D02*
X112901000Y-137390000D01*
X112901000Y-139470000D02*
X112901000Y-141448000D01*
X112941000Y-135428000D02*
X112941000Y-137390000D01*
X112941000Y-139470000D02*
X112941000Y-141432000D01*
X112981000Y-135444000D02*
X112981000Y-137390000D01*
X112981000Y-139470000D02*
X112981000Y-141416000D01*
X113021000Y-135460000D02*
X113021000Y-137390000D01*
X113021000Y-139470000D02*
X113021000Y-141400000D01*
X113061000Y-135478000D02*
X113061000Y-137390000D01*
X113061000Y-139470000D02*
X113061000Y-141382000D01*
X113101000Y-135496000D02*
X113101000Y-137390000D01*
X113101000Y-139470000D02*
X113101000Y-141364000D01*
X113141000Y-135514000D02*
X113141000Y-137390000D01*
X113141000Y-139470000D02*
X113141000Y-141346000D01*
X113181000Y-135534000D02*
X113181000Y-137390000D01*
X113181000Y-139470000D02*
X113181000Y-141326000D01*
X113221000Y-135554000D02*
X113221000Y-137390000D01*
X113221000Y-139470000D02*
X113221000Y-141306000D01*
X113261000Y-135574000D02*
X113261000Y-137390000D01*
X113261000Y-139470000D02*
X113261000Y-141286000D01*
X113301000Y-135596000D02*
X113301000Y-137390000D01*
X113301000Y-139470000D02*
X113301000Y-141264000D01*
X113341000Y-135618000D02*
X113341000Y-137390000D01*
X113341000Y-139470000D02*
X113341000Y-141242000D01*
X113381000Y-135640000D02*
X113381000Y-137390000D01*
X113381000Y-139470000D02*
X113381000Y-141220000D01*
X113421000Y-135664000D02*
X113421000Y-137390000D01*
X113421000Y-139470000D02*
X113421000Y-141196000D01*
X113461000Y-135688000D02*
X113461000Y-137390000D01*
X113461000Y-139470000D02*
X113461000Y-141172000D01*
X113501000Y-135714000D02*
X113501000Y-137390000D01*
X113501000Y-139470000D02*
X113501000Y-141146000D01*
X113541000Y-135740000D02*
X113541000Y-137390000D01*
X113541000Y-139470000D02*
X113541000Y-141120000D01*
X113581000Y-135766000D02*
X113581000Y-137390000D01*
X113581000Y-139470000D02*
X113581000Y-141094000D01*
X113621000Y-135794000D02*
X113621000Y-137390000D01*
X113621000Y-139470000D02*
X113621000Y-141066000D01*
X113661000Y-135823000D02*
X113661000Y-137390000D01*
X113661000Y-139470000D02*
X113661000Y-141037000D01*
X113701000Y-135852000D02*
X113701000Y-137390000D01*
X113701000Y-139470000D02*
X113701000Y-141008000D01*
X113741000Y-135882000D02*
X113741000Y-137390000D01*
X113741000Y-139470000D02*
X113741000Y-140978000D01*
X113781000Y-135914000D02*
X113781000Y-137390000D01*
X113781000Y-139470000D02*
X113781000Y-140946000D01*
X113821000Y-135946000D02*
X113821000Y-137390000D01*
X113821000Y-139470000D02*
X113821000Y-140914000D01*
X113861000Y-135980000D02*
X113861000Y-137390000D01*
X113861000Y-139470000D02*
X113861000Y-140880000D01*
X113901000Y-136014000D02*
X113901000Y-137390000D01*
X113901000Y-139470000D02*
X113901000Y-140846000D01*
X113941000Y-136050000D02*
X113941000Y-137390000D01*
X113941000Y-139470000D02*
X113941000Y-140810000D01*
X113981000Y-136087000D02*
X113981000Y-137390000D01*
X113981000Y-139470000D02*
X113981000Y-140773000D01*
X114021000Y-136125000D02*
X114021000Y-137390000D01*
X114021000Y-139470000D02*
X114021000Y-140735000D01*
X114061000Y-136165000D02*
X114061000Y-140695000D01*
X114101000Y-136206000D02*
X114101000Y-140654000D01*
X114141000Y-136248000D02*
X114141000Y-140612000D01*
X114181000Y-136293000D02*
X114181000Y-140567000D01*
X114221000Y-136338000D02*
X114221000Y-140522000D01*
X114261000Y-136386000D02*
X114261000Y-140474000D01*
X114301000Y-136435000D02*
X114301000Y-140425000D01*
X114341000Y-136486000D02*
X114341000Y-140374000D01*
X114381000Y-136540000D02*
X114381000Y-140320000D01*
X114421000Y-136596000D02*
X114421000Y-140264000D01*
X114461000Y-136654000D02*
X114461000Y-140206000D01*
X114501000Y-136716000D02*
X114501000Y-140144000D01*
X114541000Y-136780000D02*
X114541000Y-140080000D01*
X114581000Y-136849000D02*
X114581000Y-140011000D01*
X114621000Y-136921000D02*
X114621000Y-139939000D01*
X114661000Y-136998000D02*
X114661000Y-139862000D01*
X114701000Y-137080000D02*
X114701000Y-139780000D01*
X114741000Y-137168000D02*
X114741000Y-139692000D01*
X114781000Y-137265000D02*
X114781000Y-139595000D01*
X114821000Y-137371000D02*
X114821000Y-139489000D01*
X114861000Y-137490000D02*
X114861000Y-139370000D01*
X114901000Y-137628000D02*
X114901000Y-139232000D01*
X114941000Y-137797000D02*
X114941000Y-139063000D01*
X114981000Y-138028000D02*
X114981000Y-138832000D01*
X108239759Y-136591000D02*
X108869759Y-136591000D01*
X108554759Y-136276000D02*
X108554759Y-136906000D01*
X92044759Y-142626000D02*
X92044759Y-143256000D01*
X91729759Y-142941000D02*
X92359759Y-142941000D01*
X98471000Y-144378000D02*
X98471000Y-145182000D01*
X98431000Y-144147000D02*
X98431000Y-145413000D01*
X98391000Y-143978000D02*
X98391000Y-145582000D01*
X98351000Y-143840000D02*
X98351000Y-145720000D01*
X98311000Y-143721000D02*
X98311000Y-145839000D01*
X98271000Y-143615000D02*
X98271000Y-145945000D01*
X98231000Y-143518000D02*
X98231000Y-146042000D01*
X98191000Y-143430000D02*
X98191000Y-146130000D01*
X98151000Y-143348000D02*
X98151000Y-146212000D01*
X98111000Y-143271000D02*
X98111000Y-146289000D01*
X98071000Y-143199000D02*
X98071000Y-146361000D01*
X98031000Y-143130000D02*
X98031000Y-146430000D01*
X97991000Y-143066000D02*
X97991000Y-146494000D01*
X97951000Y-143004000D02*
X97951000Y-146556000D01*
X97911000Y-142946000D02*
X97911000Y-146614000D01*
X97871000Y-142890000D02*
X97871000Y-146670000D01*
X97831000Y-142836000D02*
X97831000Y-146724000D01*
X97791000Y-142785000D02*
X97791000Y-146775000D01*
X97751000Y-142736000D02*
X97751000Y-146824000D01*
X97711000Y-142688000D02*
X97711000Y-146872000D01*
X97671000Y-142643000D02*
X97671000Y-146917000D01*
X97631000Y-142598000D02*
X97631000Y-146962000D01*
X97591000Y-142556000D02*
X97591000Y-147004000D01*
X97551000Y-142515000D02*
X97551000Y-147045000D01*
X97511000Y-145820000D02*
X97511000Y-147085000D01*
X97511000Y-142475000D02*
X97511000Y-143740000D01*
X97471000Y-145820000D02*
X97471000Y-147123000D01*
X97471000Y-142437000D02*
X97471000Y-143740000D01*
X97431000Y-145820000D02*
X97431000Y-147160000D01*
X97431000Y-142400000D02*
X97431000Y-143740000D01*
X97391000Y-145820000D02*
X97391000Y-147196000D01*
X97391000Y-142364000D02*
X97391000Y-143740000D01*
X97351000Y-145820000D02*
X97351000Y-147230000D01*
X97351000Y-142330000D02*
X97351000Y-143740000D01*
X97311000Y-145820000D02*
X97311000Y-147264000D01*
X97311000Y-142296000D02*
X97311000Y-143740000D01*
X97271000Y-145820000D02*
X97271000Y-147296000D01*
X97271000Y-142264000D02*
X97271000Y-143740000D01*
X97231000Y-145820000D02*
X97231000Y-147328000D01*
X97231000Y-142232000D02*
X97231000Y-143740000D01*
X97191000Y-145820000D02*
X97191000Y-147358000D01*
X97191000Y-142202000D02*
X97191000Y-143740000D01*
X97151000Y-145820000D02*
X97151000Y-147387000D01*
X97151000Y-142173000D02*
X97151000Y-143740000D01*
X97111000Y-145820000D02*
X97111000Y-147416000D01*
X97111000Y-142144000D02*
X97111000Y-143740000D01*
X97071000Y-145820000D02*
X97071000Y-147444000D01*
X97071000Y-142116000D02*
X97071000Y-143740000D01*
X97031000Y-145820000D02*
X97031000Y-147470000D01*
X97031000Y-142090000D02*
X97031000Y-143740000D01*
X96991000Y-145820000D02*
X96991000Y-147496000D01*
X96991000Y-142064000D02*
X96991000Y-143740000D01*
X96951000Y-145820000D02*
X96951000Y-147522000D01*
X96951000Y-142038000D02*
X96951000Y-143740000D01*
X96911000Y-145820000D02*
X96911000Y-147546000D01*
X96911000Y-142014000D02*
X96911000Y-143740000D01*
X96871000Y-145820000D02*
X96871000Y-147570000D01*
X96871000Y-141990000D02*
X96871000Y-143740000D01*
X96831000Y-145820000D02*
X96831000Y-147592000D01*
X96831000Y-141968000D02*
X96831000Y-143740000D01*
X96791000Y-145820000D02*
X96791000Y-147614000D01*
X96791000Y-141946000D02*
X96791000Y-143740000D01*
X96751000Y-145820000D02*
X96751000Y-147636000D01*
X96751000Y-141924000D02*
X96751000Y-143740000D01*
X96711000Y-145820000D02*
X96711000Y-147656000D01*
X96711000Y-141904000D02*
X96711000Y-143740000D01*
X96671000Y-145820000D02*
X96671000Y-147676000D01*
X96671000Y-141884000D02*
X96671000Y-143740000D01*
X96631000Y-145820000D02*
X96631000Y-147696000D01*
X96631000Y-141864000D02*
X96631000Y-143740000D01*
X96591000Y-145820000D02*
X96591000Y-147714000D01*
X96591000Y-141846000D02*
X96591000Y-143740000D01*
X96551000Y-145820000D02*
X96551000Y-147732000D01*
X96551000Y-141828000D02*
X96551000Y-143740000D01*
X96511000Y-145820000D02*
X96511000Y-147750000D01*
X96511000Y-141810000D02*
X96511000Y-143740000D01*
X96471000Y-145820000D02*
X96471000Y-147766000D01*
X96471000Y-141794000D02*
X96471000Y-143740000D01*
X96431000Y-145820000D02*
X96431000Y-147782000D01*
X96431000Y-141778000D02*
X96431000Y-143740000D01*
X96391000Y-145820000D02*
X96391000Y-147798000D01*
X96391000Y-141762000D02*
X96391000Y-143740000D01*
X96351000Y-145820000D02*
X96351000Y-147813000D01*
X96351000Y-141747000D02*
X96351000Y-143740000D01*
X96311000Y-145820000D02*
X96311000Y-147827000D01*
X96311000Y-141733000D02*
X96311000Y-143740000D01*
X96271000Y-145820000D02*
X96271000Y-147841000D01*
X96271000Y-141719000D02*
X96271000Y-143740000D01*
X96231000Y-145820000D02*
X96231000Y-147854000D01*
X96231000Y-141706000D02*
X96231000Y-143740000D01*
X96191000Y-145820000D02*
X96191000Y-147866000D01*
X96191000Y-141694000D02*
X96191000Y-143740000D01*
X96151000Y-145820000D02*
X96151000Y-147878000D01*
X96151000Y-141682000D02*
X96151000Y-143740000D01*
X96111000Y-145820000D02*
X96111000Y-147890000D01*
X96111000Y-141670000D02*
X96111000Y-143740000D01*
X96071000Y-145820000D02*
X96071000Y-147901000D01*
X96071000Y-141659000D02*
X96071000Y-143740000D01*
X96031000Y-145820000D02*
X96031000Y-147911000D01*
X96031000Y-141649000D02*
X96031000Y-143740000D01*
X95991000Y-145820000D02*
X95991000Y-147921000D01*
X95991000Y-141639000D02*
X95991000Y-143740000D01*
X95951000Y-145820000D02*
X95951000Y-147930000D01*
X95951000Y-141630000D02*
X95951000Y-143740000D01*
X95910000Y-145820000D02*
X95910000Y-147939000D01*
X95910000Y-141621000D02*
X95910000Y-143740000D01*
X95870000Y-145820000D02*
X95870000Y-147947000D01*
X95870000Y-141613000D02*
X95870000Y-143740000D01*
X95830000Y-145820000D02*
X95830000Y-147955000D01*
X95830000Y-141605000D02*
X95830000Y-143740000D01*
X95790000Y-145820000D02*
X95790000Y-147962000D01*
X95790000Y-141598000D02*
X95790000Y-143740000D01*
X95750000Y-145820000D02*
X95750000Y-147969000D01*
X95750000Y-141591000D02*
X95750000Y-143740000D01*
X95710000Y-145820000D02*
X95710000Y-147975000D01*
X95710000Y-141585000D02*
X95710000Y-143740000D01*
X95670000Y-145820000D02*
X95670000Y-147981000D01*
X95670000Y-141579000D02*
X95670000Y-143740000D01*
X95630000Y-145820000D02*
X95630000Y-147986000D01*
X95630000Y-141574000D02*
X95630000Y-143740000D01*
X95590000Y-145820000D02*
X95590000Y-147991000D01*
X95590000Y-141569000D02*
X95590000Y-143740000D01*
X95550000Y-145820000D02*
X95550000Y-147995000D01*
X95550000Y-141565000D02*
X95550000Y-143740000D01*
X95510000Y-145820000D02*
X95510000Y-147998000D01*
X95510000Y-141562000D02*
X95510000Y-143740000D01*
X95470000Y-145820000D02*
X95470000Y-148002000D01*
X95470000Y-141558000D02*
X95470000Y-143740000D01*
X95430000Y-141556000D02*
X95430000Y-148004000D01*
X95390000Y-141553000D02*
X95390000Y-148007000D01*
X95350000Y-141552000D02*
X95350000Y-148008000D01*
X95310000Y-141550000D02*
X95310000Y-148010000D01*
X95270000Y-141550000D02*
X95270000Y-148010000D01*
X95230000Y-141550000D02*
X95230000Y-148010000D01*
X98500000Y-144780000D02*
G75*
G03X98500000Y-144780000I-3270000J0D01*
G01*
X98500000Y-114300000D02*
G75*
G03X98500000Y-114300000I-3270000J0D01*
G01*
X95230000Y-111070000D02*
X95230000Y-117530000D01*
X95270000Y-111070000D02*
X95270000Y-117530000D01*
X95310000Y-111070000D02*
X95310000Y-117530000D01*
X95350000Y-111072000D02*
X95350000Y-117528000D01*
X95390000Y-111073000D02*
X95390000Y-117527000D01*
X95430000Y-111076000D02*
X95430000Y-117524000D01*
X95470000Y-111078000D02*
X95470000Y-113260000D01*
X95470000Y-115340000D02*
X95470000Y-117522000D01*
X95510000Y-111082000D02*
X95510000Y-113260000D01*
X95510000Y-115340000D02*
X95510000Y-117518000D01*
X95550000Y-111085000D02*
X95550000Y-113260000D01*
X95550000Y-115340000D02*
X95550000Y-117515000D01*
X95590000Y-111089000D02*
X95590000Y-113260000D01*
X95590000Y-115340000D02*
X95590000Y-117511000D01*
X95630000Y-111094000D02*
X95630000Y-113260000D01*
X95630000Y-115340000D02*
X95630000Y-117506000D01*
X95670000Y-111099000D02*
X95670000Y-113260000D01*
X95670000Y-115340000D02*
X95670000Y-117501000D01*
X95710000Y-111105000D02*
X95710000Y-113260000D01*
X95710000Y-115340000D02*
X95710000Y-117495000D01*
X95750000Y-111111000D02*
X95750000Y-113260000D01*
X95750000Y-115340000D02*
X95750000Y-117489000D01*
X95790000Y-111118000D02*
X95790000Y-113260000D01*
X95790000Y-115340000D02*
X95790000Y-117482000D01*
X95830000Y-111125000D02*
X95830000Y-113260000D01*
X95830000Y-115340000D02*
X95830000Y-117475000D01*
X95870000Y-111133000D02*
X95870000Y-113260000D01*
X95870000Y-115340000D02*
X95870000Y-117467000D01*
X95910000Y-111141000D02*
X95910000Y-113260000D01*
X95910000Y-115340000D02*
X95910000Y-117459000D01*
X95951000Y-111150000D02*
X95951000Y-113260000D01*
X95951000Y-115340000D02*
X95951000Y-117450000D01*
X95991000Y-111159000D02*
X95991000Y-113260000D01*
X95991000Y-115340000D02*
X95991000Y-117441000D01*
X96031000Y-111169000D02*
X96031000Y-113260000D01*
X96031000Y-115340000D02*
X96031000Y-117431000D01*
X96071000Y-111179000D02*
X96071000Y-113260000D01*
X96071000Y-115340000D02*
X96071000Y-117421000D01*
X96111000Y-111190000D02*
X96111000Y-113260000D01*
X96111000Y-115340000D02*
X96111000Y-117410000D01*
X96151000Y-111202000D02*
X96151000Y-113260000D01*
X96151000Y-115340000D02*
X96151000Y-117398000D01*
X96191000Y-111214000D02*
X96191000Y-113260000D01*
X96191000Y-115340000D02*
X96191000Y-117386000D01*
X96231000Y-111226000D02*
X96231000Y-113260000D01*
X96231000Y-115340000D02*
X96231000Y-117374000D01*
X96271000Y-111239000D02*
X96271000Y-113260000D01*
X96271000Y-115340000D02*
X96271000Y-117361000D01*
X96311000Y-111253000D02*
X96311000Y-113260000D01*
X96311000Y-115340000D02*
X96311000Y-117347000D01*
X96351000Y-111267000D02*
X96351000Y-113260000D01*
X96351000Y-115340000D02*
X96351000Y-117333000D01*
X96391000Y-111282000D02*
X96391000Y-113260000D01*
X96391000Y-115340000D02*
X96391000Y-117318000D01*
X96431000Y-111298000D02*
X96431000Y-113260000D01*
X96431000Y-115340000D02*
X96431000Y-117302000D01*
X96471000Y-111314000D02*
X96471000Y-113260000D01*
X96471000Y-115340000D02*
X96471000Y-117286000D01*
X96511000Y-111330000D02*
X96511000Y-113260000D01*
X96511000Y-115340000D02*
X96511000Y-117270000D01*
X96551000Y-111348000D02*
X96551000Y-113260000D01*
X96551000Y-115340000D02*
X96551000Y-117252000D01*
X96591000Y-111366000D02*
X96591000Y-113260000D01*
X96591000Y-115340000D02*
X96591000Y-117234000D01*
X96631000Y-111384000D02*
X96631000Y-113260000D01*
X96631000Y-115340000D02*
X96631000Y-117216000D01*
X96671000Y-111404000D02*
X96671000Y-113260000D01*
X96671000Y-115340000D02*
X96671000Y-117196000D01*
X96711000Y-111424000D02*
X96711000Y-113260000D01*
X96711000Y-115340000D02*
X96711000Y-117176000D01*
X96751000Y-111444000D02*
X96751000Y-113260000D01*
X96751000Y-115340000D02*
X96751000Y-117156000D01*
X96791000Y-111466000D02*
X96791000Y-113260000D01*
X96791000Y-115340000D02*
X96791000Y-117134000D01*
X96831000Y-111488000D02*
X96831000Y-113260000D01*
X96831000Y-115340000D02*
X96831000Y-117112000D01*
X96871000Y-111510000D02*
X96871000Y-113260000D01*
X96871000Y-115340000D02*
X96871000Y-117090000D01*
X96911000Y-111534000D02*
X96911000Y-113260000D01*
X96911000Y-115340000D02*
X96911000Y-117066000D01*
X96951000Y-111558000D02*
X96951000Y-113260000D01*
X96951000Y-115340000D02*
X96951000Y-117042000D01*
X96991000Y-111584000D02*
X96991000Y-113260000D01*
X96991000Y-115340000D02*
X96991000Y-117016000D01*
X97031000Y-111610000D02*
X97031000Y-113260000D01*
X97031000Y-115340000D02*
X97031000Y-116990000D01*
X97071000Y-111636000D02*
X97071000Y-113260000D01*
X97071000Y-115340000D02*
X97071000Y-116964000D01*
X97111000Y-111664000D02*
X97111000Y-113260000D01*
X97111000Y-115340000D02*
X97111000Y-116936000D01*
X97151000Y-111693000D02*
X97151000Y-113260000D01*
X97151000Y-115340000D02*
X97151000Y-116907000D01*
X97191000Y-111722000D02*
X97191000Y-113260000D01*
X97191000Y-115340000D02*
X97191000Y-116878000D01*
X97231000Y-111752000D02*
X97231000Y-113260000D01*
X97231000Y-115340000D02*
X97231000Y-116848000D01*
X97271000Y-111784000D02*
X97271000Y-113260000D01*
X97271000Y-115340000D02*
X97271000Y-116816000D01*
X97311000Y-111816000D02*
X97311000Y-113260000D01*
X97311000Y-115340000D02*
X97311000Y-116784000D01*
X97351000Y-111850000D02*
X97351000Y-113260000D01*
X97351000Y-115340000D02*
X97351000Y-116750000D01*
X97391000Y-111884000D02*
X97391000Y-113260000D01*
X97391000Y-115340000D02*
X97391000Y-116716000D01*
X97431000Y-111920000D02*
X97431000Y-113260000D01*
X97431000Y-115340000D02*
X97431000Y-116680000D01*
X97471000Y-111957000D02*
X97471000Y-113260000D01*
X97471000Y-115340000D02*
X97471000Y-116643000D01*
X97511000Y-111995000D02*
X97511000Y-113260000D01*
X97511000Y-115340000D02*
X97511000Y-116605000D01*
X97551000Y-112035000D02*
X97551000Y-116565000D01*
X97591000Y-112076000D02*
X97591000Y-116524000D01*
X97631000Y-112118000D02*
X97631000Y-116482000D01*
X97671000Y-112163000D02*
X97671000Y-116437000D01*
X97711000Y-112208000D02*
X97711000Y-116392000D01*
X97751000Y-112256000D02*
X97751000Y-116344000D01*
X97791000Y-112305000D02*
X97791000Y-116295000D01*
X97831000Y-112356000D02*
X97831000Y-116244000D01*
X97871000Y-112410000D02*
X97871000Y-116190000D01*
X97911000Y-112466000D02*
X97911000Y-116134000D01*
X97951000Y-112524000D02*
X97951000Y-116076000D01*
X97991000Y-112586000D02*
X97991000Y-116014000D01*
X98031000Y-112650000D02*
X98031000Y-115950000D01*
X98071000Y-112719000D02*
X98071000Y-115881000D01*
X98111000Y-112791000D02*
X98111000Y-115809000D01*
X98151000Y-112868000D02*
X98151000Y-115732000D01*
X98191000Y-112950000D02*
X98191000Y-115650000D01*
X98231000Y-113038000D02*
X98231000Y-115562000D01*
X98271000Y-113135000D02*
X98271000Y-115465000D01*
X98311000Y-113241000D02*
X98311000Y-115359000D01*
X98351000Y-113360000D02*
X98351000Y-115240000D01*
X98391000Y-113498000D02*
X98391000Y-115102000D01*
X98431000Y-113667000D02*
X98431000Y-114933000D01*
X98471000Y-113898000D02*
X98471000Y-114702000D01*
X91729759Y-112461000D02*
X92359759Y-112461000D01*
X92044759Y-112146000D02*
X92044759Y-112776000D01*
X102525000Y-144250000D02*
X102770000Y-144250000D01*
X100430000Y-144250000D02*
X100675000Y-144250000D01*
X102525000Y-147890000D02*
X102770000Y-147890000D01*
X100430000Y-147890000D02*
X100675000Y-147890000D01*
X102770000Y-147890000D02*
X102770000Y-144250000D01*
X100430000Y-147890000D02*
X100430000Y-144250000D01*
X93410000Y-105510000D02*
X97050000Y-105510000D01*
X93410000Y-107850000D02*
X97050000Y-107850000D01*
X93410000Y-105510000D02*
X93410000Y-105755000D01*
X93410000Y-107605000D02*
X93410000Y-107850000D01*
X97050000Y-105510000D02*
X97050000Y-105755000D01*
X97050000Y-107605000D02*
X97050000Y-107850000D01*
X64710000Y-139700000D02*
X64710000Y-138370000D01*
X64710000Y-138370000D02*
X66040000Y-138370000D01*
X67310000Y-138370000D02*
X102930000Y-138370000D01*
X102930000Y-141030000D02*
X102930000Y-138370000D01*
X67310000Y-141030000D02*
X102930000Y-141030000D01*
X67310000Y-141030000D02*
X67310000Y-138370000D01*
X67310000Y-120710000D02*
X67310000Y-118050000D01*
X67310000Y-120710000D02*
X102930000Y-120710000D01*
X102930000Y-120710000D02*
X102930000Y-118050000D01*
X67310000Y-118050000D02*
X102930000Y-118050000D01*
X64710000Y-118050000D02*
X66040000Y-118050000D01*
X64710000Y-119380000D02*
X64710000Y-118050000D01*
X117960000Y-121070000D02*
X115720000Y-121070000D01*
X115720000Y-121070000D02*
X115720000Y-125310000D01*
X115720000Y-125310000D02*
X117960000Y-125310000D01*
X117960000Y-125310000D02*
X117960000Y-121070000D01*
X116840000Y-120420000D02*
X116840000Y-121070000D01*
X116840000Y-125960000D02*
X116840000Y-125310000D01*
X117960000Y-121790000D02*
X115720000Y-121790000D01*
X117960000Y-121910000D02*
X115720000Y-121910000D01*
X117960000Y-121670000D02*
X115720000Y-121670000D01*
X107750000Y-127180000D02*
X110690000Y-127180000D01*
X110690000Y-127180000D02*
X110690000Y-121740000D01*
X110690000Y-121740000D02*
X107750000Y-121740000D01*
X107750000Y-121740000D02*
X107750000Y-127180000D01*
X109220000Y-128200000D02*
X109220000Y-127180000D01*
X109220000Y-120720000D02*
X109220000Y-121740000D01*
X107750000Y-126280000D02*
X110690000Y-126280000D01*
X107750000Y-126160000D02*
X110690000Y-126160000D01*
X107750000Y-126400000D02*
X110690000Y-126400000D01*
X100330000Y-123190000D02*
X102870000Y-123190000D01*
X102870000Y-123190000D02*
X102870000Y-120520000D01*
X100330000Y-120520000D02*
X62100000Y-120520000D01*
X105540000Y-120520000D02*
X102870000Y-120520000D01*
X102870000Y-135890000D02*
X102870000Y-138560000D01*
X102870000Y-135890000D02*
X64770000Y-135890000D01*
X64770000Y-135890000D02*
X64770000Y-138560000D01*
X100330000Y-123190000D02*
X100330000Y-120520000D01*
X100330000Y-123190000D02*
X64770000Y-123190000D01*
X64770000Y-123190000D02*
X64770000Y-120520000D01*
X62100000Y-120520000D02*
X62100000Y-138560000D01*
X62100000Y-138560000D02*
X105540000Y-138560000D01*
X105540000Y-138560000D02*
X105540000Y-120520000D01*
X86360000Y-113260000D02*
X86360000Y-112490000D01*
X86360000Y-105180000D02*
X86360000Y-105950000D01*
X87730000Y-112490000D02*
X87730000Y-105950000D01*
X84990000Y-112490000D02*
X87730000Y-112490000D01*
X84990000Y-105950000D02*
X84990000Y-112490000D01*
X87730000Y-105950000D02*
X84990000Y-105950000D01*
X87860000Y-144780000D02*
X87090000Y-144780000D01*
X79780000Y-144780000D02*
X80550000Y-144780000D01*
X87090000Y-143410000D02*
X80550000Y-143410000D01*
X87090000Y-146150000D02*
X87090000Y-143410000D01*
X80550000Y-146150000D02*
X87090000Y-146150000D01*
X80550000Y-143410000D02*
X80550000Y-146150000D01*
X80550000Y-145950000D02*
X80550000Y-148690000D01*
X80550000Y-148690000D02*
X87090000Y-148690000D01*
X87090000Y-148690000D02*
X87090000Y-145950000D01*
X87090000Y-145950000D02*
X80550000Y-145950000D01*
X79780000Y-147320000D02*
X80550000Y-147320000D01*
X87860000Y-147320000D02*
X87090000Y-147320000D01*
X134620000Y-128500000D02*
X134620000Y-127730000D01*
X134620000Y-120420000D02*
X134620000Y-121190000D01*
X135990000Y-127730000D02*
X135990000Y-121190000D01*
X133250000Y-127730000D02*
X135990000Y-127730000D01*
X133250000Y-121190000D02*
X133250000Y-127730000D01*
X135990000Y-121190000D02*
X133250000Y-121190000D01*
X135790000Y-127730000D02*
X138530000Y-127730000D01*
X138530000Y-127730000D02*
X138530000Y-121190000D01*
X138530000Y-121190000D02*
X135790000Y-121190000D01*
X135790000Y-121190000D02*
X135790000Y-127730000D01*
X137160000Y-128500000D02*
X137160000Y-127730000D01*
X137160000Y-120420000D02*
X137160000Y-121190000D01*
X83820000Y-113260000D02*
X83820000Y-112490000D01*
X83820000Y-105180000D02*
X83820000Y-105950000D01*
X85190000Y-112490000D02*
X85190000Y-105950000D01*
X82450000Y-112490000D02*
X85190000Y-112490000D01*
X82450000Y-105950000D02*
X82450000Y-112490000D01*
X85190000Y-105950000D02*
X82450000Y-105950000D01*
X102970000Y-105950000D02*
X100230000Y-105950000D01*
X100230000Y-105950000D02*
X100230000Y-112490000D01*
X100230000Y-112490000D02*
X102970000Y-112490000D01*
X102970000Y-112490000D02*
X102970000Y-105950000D01*
X101600000Y-105180000D02*
X101600000Y-105950000D01*
X101600000Y-113260000D02*
X101600000Y-112490000D01*
X104140000Y-113260000D02*
X104140000Y-112490000D01*
X104140000Y-105180000D02*
X104140000Y-105950000D01*
X105510000Y-112490000D02*
X105510000Y-105950000D01*
X102770000Y-112490000D02*
X105510000Y-112490000D01*
X102770000Y-105950000D02*
X102770000Y-112490000D01*
X105510000Y-105950000D02*
X102770000Y-105950000D01*
X108050000Y-105950000D02*
X105310000Y-105950000D01*
X105310000Y-105950000D02*
X105310000Y-112490000D01*
X105310000Y-112490000D02*
X108050000Y-112490000D01*
X108050000Y-112490000D02*
X108050000Y-105950000D01*
X106680000Y-105180000D02*
X106680000Y-105950000D01*
X106680000Y-113260000D02*
X106680000Y-112490000D01*
X90270000Y-105950000D02*
X87530000Y-105950000D01*
X87530000Y-105950000D02*
X87530000Y-112490000D01*
X87530000Y-112490000D02*
X90270000Y-112490000D01*
X90270000Y-112490000D02*
X90270000Y-105950000D01*
X88900000Y-105180000D02*
X88900000Y-105950000D01*
X88900000Y-113260000D02*
X88900000Y-112490000D01*
X115800000Y-147320000D02*
X115030000Y-147320000D01*
X107720000Y-147320000D02*
X108490000Y-147320000D01*
X115030000Y-145950000D02*
X108490000Y-145950000D01*
X115030000Y-148690000D02*
X115030000Y-145950000D01*
X108490000Y-148690000D02*
X115030000Y-148690000D01*
X108490000Y-145950000D02*
X108490000Y-148690000D01*
X126730000Y-118050000D02*
G75*
G02X124730000Y-118050000I-1000000J0D01*
G01*
X124730000Y-118050000D02*
X123080000Y-118050000D01*
X123080000Y-118050000D02*
X123080000Y-128330000D01*
X123080000Y-128330000D02*
X128380000Y-128330000D01*
X128380000Y-128330000D02*
X128380000Y-118050000D01*
X128380000Y-118050000D02*
X126730000Y-118050000D01*
X120590000Y-117990000D02*
X120590000Y-128390000D01*
X120590000Y-128390000D02*
X130870000Y-128390000D01*
X130870000Y-128390000D02*
X130870000Y-117990000D01*
X130870000Y-117990000D02*
X120590000Y-117990000D01*
D10*
X120467380Y-139072857D02*
X119991190Y-139406190D01*
X120467380Y-139644285D02*
X119467380Y-139644285D01*
X119467380Y-139263333D01*
X119515000Y-139168095D01*
X119562619Y-139120476D01*
X119657857Y-139072857D01*
X119800714Y-139072857D01*
X119895952Y-139120476D01*
X119943571Y-139168095D01*
X119991190Y-139263333D01*
X119991190Y-139644285D01*
X120467380Y-138120476D02*
X120467380Y-138691904D01*
X120467380Y-138406190D02*
X119467380Y-138406190D01*
X119610238Y-138501428D01*
X119705476Y-138596666D01*
X119753095Y-138691904D01*
X119467380Y-137787142D02*
X119467380Y-137168095D01*
X119848333Y-137501428D01*
X119848333Y-137358571D01*
X119895952Y-137263333D01*
X119943571Y-137215714D01*
X120038809Y-137168095D01*
X120276904Y-137168095D01*
X120372142Y-137215714D01*
X120419761Y-137263333D01*
X120467380Y-137358571D01*
X120467380Y-137644285D01*
X120419761Y-137739523D01*
X120372142Y-137787142D01*
X121737380Y-138549047D02*
X121737380Y-139120476D01*
X121737380Y-138834761D02*
X120737380Y-138834761D01*
X120880238Y-138930000D01*
X120975476Y-139025238D01*
X121023095Y-139120476D01*
X121737380Y-138120476D02*
X120737380Y-138120476D01*
X121356428Y-138025238D02*
X121737380Y-137739523D01*
X121070714Y-137739523D02*
X121451666Y-138120476D01*
X117927380Y-139072857D02*
X117451190Y-139406190D01*
X117927380Y-139644285D02*
X116927380Y-139644285D01*
X116927380Y-139263333D01*
X116975000Y-139168095D01*
X117022619Y-139120476D01*
X117117857Y-139072857D01*
X117260714Y-139072857D01*
X117355952Y-139120476D01*
X117403571Y-139168095D01*
X117451190Y-139263333D01*
X117451190Y-139644285D01*
X117927380Y-138120476D02*
X117927380Y-138691904D01*
X117927380Y-138406190D02*
X116927380Y-138406190D01*
X117070238Y-138501428D01*
X117165476Y-138596666D01*
X117213095Y-138691904D01*
X117022619Y-137739523D02*
X116975000Y-137691904D01*
X116927380Y-137596666D01*
X116927380Y-137358571D01*
X116975000Y-137263333D01*
X117022619Y-137215714D01*
X117117857Y-137168095D01*
X117213095Y-137168095D01*
X117355952Y-137215714D01*
X117927380Y-137787142D01*
X117927380Y-137168095D01*
X119197380Y-138549047D02*
X119197380Y-139120476D01*
X119197380Y-138834761D02*
X118197380Y-138834761D01*
X118340238Y-138930000D01*
X118435476Y-139025238D01*
X118483095Y-139120476D01*
X119197380Y-138120476D02*
X118197380Y-138120476D01*
X118816428Y-138025238D02*
X119197380Y-137739523D01*
X118530714Y-137739523D02*
X118911666Y-138120476D01*
X111573333Y-134387142D02*
X111525714Y-134434761D01*
X111382857Y-134482380D01*
X111287619Y-134482380D01*
X111144761Y-134434761D01*
X111049523Y-134339523D01*
X111001904Y-134244285D01*
X110954285Y-134053809D01*
X110954285Y-133910952D01*
X111001904Y-133720476D01*
X111049523Y-133625238D01*
X111144761Y-133530000D01*
X111287619Y-133482380D01*
X111382857Y-133482380D01*
X111525714Y-133530000D01*
X111573333Y-133577619D01*
X112478095Y-133482380D02*
X112001904Y-133482380D01*
X111954285Y-133958571D01*
X112001904Y-133910952D01*
X112097142Y-133863333D01*
X112335238Y-133863333D01*
X112430476Y-133910952D01*
X112478095Y-133958571D01*
X112525714Y-134053809D01*
X112525714Y-134291904D01*
X112478095Y-134387142D01*
X112430476Y-134434761D01*
X112335238Y-134482380D01*
X112097142Y-134482380D01*
X112001904Y-134434761D01*
X111954285Y-134387142D01*
X110097142Y-142377619D02*
X110144761Y-142330000D01*
X110240000Y-142282380D01*
X110478095Y-142282380D01*
X110573333Y-142330000D01*
X110620952Y-142377619D01*
X110668571Y-142472857D01*
X110668571Y-142568095D01*
X110620952Y-142710952D01*
X110049523Y-143282380D01*
X110668571Y-143282380D01*
X111049523Y-142377619D02*
X111097142Y-142330000D01*
X111192380Y-142282380D01*
X111430476Y-142282380D01*
X111525714Y-142330000D01*
X111573333Y-142377619D01*
X111620952Y-142472857D01*
X111620952Y-142568095D01*
X111573333Y-142710952D01*
X111001904Y-143282380D01*
X111620952Y-143282380D01*
X112478095Y-142615714D02*
X112478095Y-143282380D01*
X112049523Y-142615714D02*
X112049523Y-143139523D01*
X112097142Y-143234761D01*
X112192380Y-143282380D01*
X112335238Y-143282380D01*
X112430476Y-143234761D01*
X112478095Y-143187142D01*
X113287619Y-142758571D02*
X112954285Y-142758571D01*
X112954285Y-143282380D02*
X112954285Y-142282380D01*
X113430476Y-142282380D01*
X92543333Y-148947142D02*
X92495714Y-148994761D01*
X92352857Y-149042380D01*
X92257619Y-149042380D01*
X92114761Y-148994761D01*
X92019523Y-148899523D01*
X91971904Y-148804285D01*
X91924285Y-148613809D01*
X91924285Y-148470952D01*
X91971904Y-148280476D01*
X92019523Y-148185238D01*
X92114761Y-148090000D01*
X92257619Y-148042380D01*
X92352857Y-148042380D01*
X92495714Y-148090000D01*
X92543333Y-148137619D01*
X93495714Y-149042380D02*
X92924285Y-149042380D01*
X93210000Y-149042380D02*
X93210000Y-148042380D01*
X93114761Y-148185238D01*
X93019523Y-148280476D01*
X92924285Y-148328095D01*
X94877142Y-148965714D02*
X94877142Y-149632380D01*
X94639047Y-148584761D02*
X94400952Y-149299047D01*
X95020000Y-149299047D01*
X95305714Y-148632380D02*
X95972380Y-148632380D01*
X95543809Y-149632380D01*
X96543809Y-148632380D02*
X96639047Y-148632380D01*
X96734285Y-148680000D01*
X96781904Y-148727619D01*
X96829523Y-148822857D01*
X96877142Y-149013333D01*
X96877142Y-149251428D01*
X96829523Y-149441904D01*
X96781904Y-149537142D01*
X96734285Y-149584761D01*
X96639047Y-149632380D01*
X96543809Y-149632380D01*
X96448571Y-149584761D01*
X96400952Y-149537142D01*
X96353333Y-149441904D01*
X96305714Y-149251428D01*
X96305714Y-149013333D01*
X96353333Y-148822857D01*
X96400952Y-148727619D01*
X96448571Y-148680000D01*
X96543809Y-148632380D01*
X97734285Y-148965714D02*
X97734285Y-149632380D01*
X97305714Y-148965714D02*
X97305714Y-149489523D01*
X97353333Y-149584761D01*
X97448571Y-149632380D01*
X97591428Y-149632380D01*
X97686666Y-149584761D01*
X97734285Y-149537142D01*
X98543809Y-149108571D02*
X98210476Y-149108571D01*
X98210476Y-149632380D02*
X98210476Y-148632380D01*
X98686666Y-148632380D01*
X92543333Y-110847142D02*
X92495714Y-110894761D01*
X92352857Y-110942380D01*
X92257619Y-110942380D01*
X92114761Y-110894761D01*
X92019523Y-110799523D01*
X91971904Y-110704285D01*
X91924285Y-110513809D01*
X91924285Y-110370952D01*
X91971904Y-110180476D01*
X92019523Y-110085238D01*
X92114761Y-109990000D01*
X92257619Y-109942380D01*
X92352857Y-109942380D01*
X92495714Y-109990000D01*
X92543333Y-110037619D01*
X92876666Y-109942380D02*
X93495714Y-109942380D01*
X93162380Y-110323333D01*
X93305238Y-110323333D01*
X93400476Y-110370952D01*
X93448095Y-110418571D01*
X93495714Y-110513809D01*
X93495714Y-110751904D01*
X93448095Y-110847142D01*
X93400476Y-110894761D01*
X93305238Y-110942380D01*
X93019523Y-110942380D01*
X92924285Y-110894761D01*
X92876666Y-110847142D01*
X96147142Y-110275714D02*
X96147142Y-110942380D01*
X95909047Y-109894761D02*
X95670952Y-110609047D01*
X96290000Y-110609047D01*
X96575714Y-109942380D02*
X97242380Y-109942380D01*
X96813809Y-110942380D01*
X97813809Y-109942380D02*
X97909047Y-109942380D01*
X98004285Y-109990000D01*
X98051904Y-110037619D01*
X98099523Y-110132857D01*
X98147142Y-110323333D01*
X98147142Y-110561428D01*
X98099523Y-110751904D01*
X98051904Y-110847142D01*
X98004285Y-110894761D01*
X97909047Y-110942380D01*
X97813809Y-110942380D01*
X97718571Y-110894761D01*
X97670952Y-110847142D01*
X97623333Y-110751904D01*
X97575714Y-110561428D01*
X97575714Y-110323333D01*
X97623333Y-110132857D01*
X97670952Y-110037619D01*
X97718571Y-109990000D01*
X97813809Y-109942380D01*
X99004285Y-110275714D02*
X99004285Y-110942380D01*
X98575714Y-110275714D02*
X98575714Y-110799523D01*
X98623333Y-110894761D01*
X98718571Y-110942380D01*
X98861428Y-110942380D01*
X98956666Y-110894761D01*
X99004285Y-110847142D01*
X99813809Y-110418571D02*
X99480476Y-110418571D01*
X99480476Y-110942380D02*
X99480476Y-109942380D01*
X99956666Y-109942380D01*
X99657142Y-146236666D02*
X99704761Y-146284285D01*
X99752380Y-146427142D01*
X99752380Y-146522380D01*
X99704761Y-146665238D01*
X99609523Y-146760476D01*
X99514285Y-146808095D01*
X99323809Y-146855714D01*
X99180952Y-146855714D01*
X98990476Y-146808095D01*
X98895238Y-146760476D01*
X98800000Y-146665238D01*
X98752380Y-146522380D01*
X98752380Y-146427142D01*
X98800000Y-146284285D01*
X98847619Y-146236666D01*
X98847619Y-145855714D02*
X98800000Y-145808095D01*
X98752380Y-145712857D01*
X98752380Y-145474761D01*
X98800000Y-145379523D01*
X98847619Y-145331904D01*
X98942857Y-145284285D01*
X99038095Y-145284285D01*
X99180952Y-145331904D01*
X99752380Y-145903333D01*
X99752380Y-145284285D01*
X95063333Y-104737142D02*
X95015714Y-104784761D01*
X94872857Y-104832380D01*
X94777619Y-104832380D01*
X94634761Y-104784761D01*
X94539523Y-104689523D01*
X94491904Y-104594285D01*
X94444285Y-104403809D01*
X94444285Y-104260952D01*
X94491904Y-104070476D01*
X94539523Y-103975238D01*
X94634761Y-103880000D01*
X94777619Y-103832380D01*
X94872857Y-103832380D01*
X95015714Y-103880000D01*
X95063333Y-103927619D01*
X95920476Y-104165714D02*
X95920476Y-104832380D01*
X95682380Y-103784761D02*
X95444285Y-104499047D01*
X96063333Y-104499047D01*
X62722380Y-140033333D02*
X63436666Y-140033333D01*
X63579523Y-140080952D01*
X63674761Y-140176190D01*
X63722380Y-140319047D01*
X63722380Y-140414285D01*
X62722380Y-139652380D02*
X62722380Y-139033333D01*
X63103333Y-139366666D01*
X63103333Y-139223809D01*
X63150952Y-139128571D01*
X63198571Y-139080952D01*
X63293809Y-139033333D01*
X63531904Y-139033333D01*
X63627142Y-139080952D01*
X63674761Y-139128571D01*
X63722380Y-139223809D01*
X63722380Y-139509523D01*
X63674761Y-139604761D01*
X63627142Y-139652380D01*
X62722380Y-119713333D02*
X63436666Y-119713333D01*
X63579523Y-119760952D01*
X63674761Y-119856190D01*
X63722380Y-119999047D01*
X63722380Y-120094285D01*
X63055714Y-118808571D02*
X63722380Y-118808571D01*
X62674761Y-119046666D02*
X63389047Y-119284761D01*
X63389047Y-118665714D01*
X119412380Y-123928095D02*
X118412380Y-123928095D01*
X118412380Y-123690000D01*
X118460000Y-123547142D01*
X118555238Y-123451904D01*
X118650476Y-123404285D01*
X118840952Y-123356666D01*
X118983809Y-123356666D01*
X119174285Y-123404285D01*
X119269523Y-123451904D01*
X119364761Y-123547142D01*
X119412380Y-123690000D01*
X119412380Y-123928095D01*
X118412380Y-123023333D02*
X118412380Y-122356666D01*
X119412380Y-122785238D01*
X119092380Y-119641904D02*
X118092380Y-119641904D01*
X119092380Y-119070476D02*
X118520952Y-119499047D01*
X118092380Y-119070476D02*
X118663809Y-119641904D01*
X107202380Y-125198095D02*
X106202380Y-125198095D01*
X106202380Y-124960000D01*
X106250000Y-124817142D01*
X106345238Y-124721904D01*
X106440476Y-124674285D01*
X106630952Y-124626666D01*
X106773809Y-124626666D01*
X106964285Y-124674285D01*
X107059523Y-124721904D01*
X107154761Y-124817142D01*
X107202380Y-124960000D01*
X107202380Y-125198095D01*
X106630952Y-124055238D02*
X106583333Y-124150476D01*
X106535714Y-124198095D01*
X106440476Y-124245714D01*
X106392857Y-124245714D01*
X106297619Y-124198095D01*
X106250000Y-124150476D01*
X106202380Y-124055238D01*
X106202380Y-123864761D01*
X106250000Y-123769523D01*
X106297619Y-123721904D01*
X106392857Y-123674285D01*
X106440476Y-123674285D01*
X106535714Y-123721904D01*
X106583333Y-123769523D01*
X106630952Y-123864761D01*
X106630952Y-124055238D01*
X106678571Y-124150476D01*
X106726190Y-124198095D01*
X106821428Y-124245714D01*
X107011904Y-124245714D01*
X107107142Y-124198095D01*
X107154761Y-124150476D01*
X107202380Y-124055238D01*
X107202380Y-123864761D01*
X107154761Y-123769523D01*
X107107142Y-123721904D01*
X107011904Y-123674285D01*
X106821428Y-123674285D01*
X106726190Y-123721904D01*
X106678571Y-123769523D01*
X106630952Y-123864761D01*
X107572380Y-129801904D02*
X106572380Y-129801904D01*
X107572380Y-129230476D02*
X107000952Y-129659047D01*
X106572380Y-129230476D02*
X107143809Y-129801904D01*
X106846666Y-132714285D02*
X106846666Y-132238095D01*
X107132380Y-132809523D02*
X106132380Y-132476190D01*
X107132380Y-132142857D01*
X107132380Y-131285714D02*
X107132380Y-131857142D01*
X107132380Y-131571428D02*
X106132380Y-131571428D01*
X106275238Y-131666666D01*
X106370476Y-131761904D01*
X106418095Y-131857142D01*
X87447380Y-109386666D02*
X86971190Y-109720000D01*
X87447380Y-109958095D02*
X86447380Y-109958095D01*
X86447380Y-109577142D01*
X86495000Y-109481904D01*
X86542619Y-109434285D01*
X86637857Y-109386666D01*
X86780714Y-109386666D01*
X86875952Y-109434285D01*
X86923571Y-109481904D01*
X86971190Y-109577142D01*
X86971190Y-109958095D01*
X86447380Y-108481904D02*
X86447380Y-108958095D01*
X86923571Y-109005714D01*
X86875952Y-108958095D01*
X86828333Y-108862857D01*
X86828333Y-108624761D01*
X86875952Y-108529523D01*
X86923571Y-108481904D01*
X87018809Y-108434285D01*
X87256904Y-108434285D01*
X87352142Y-108481904D01*
X87399761Y-108529523D01*
X87447380Y-108624761D01*
X87447380Y-108862857D01*
X87399761Y-108958095D01*
X87352142Y-109005714D01*
X85177380Y-109981904D02*
X85177380Y-110172380D01*
X85225000Y-110267619D01*
X85272619Y-110315238D01*
X85415476Y-110410476D01*
X85605952Y-110458095D01*
X85986904Y-110458095D01*
X86082142Y-110410476D01*
X86129761Y-110362857D01*
X86177380Y-110267619D01*
X86177380Y-110077142D01*
X86129761Y-109981904D01*
X86082142Y-109934285D01*
X85986904Y-109886666D01*
X85748809Y-109886666D01*
X85653571Y-109934285D01*
X85605952Y-109981904D01*
X85558333Y-110077142D01*
X85558333Y-110267619D01*
X85605952Y-110362857D01*
X85653571Y-110410476D01*
X85748809Y-110458095D01*
X85605952Y-109315238D02*
X85558333Y-109410476D01*
X85510714Y-109458095D01*
X85415476Y-109505714D01*
X85367857Y-109505714D01*
X85272619Y-109458095D01*
X85225000Y-109410476D01*
X85177380Y-109315238D01*
X85177380Y-109124761D01*
X85225000Y-109029523D01*
X85272619Y-108981904D01*
X85367857Y-108934285D01*
X85415476Y-108934285D01*
X85510714Y-108981904D01*
X85558333Y-109029523D01*
X85605952Y-109124761D01*
X85605952Y-109315238D01*
X85653571Y-109410476D01*
X85701190Y-109458095D01*
X85796428Y-109505714D01*
X85986904Y-109505714D01*
X86082142Y-109458095D01*
X86129761Y-109410476D01*
X86177380Y-109315238D01*
X86177380Y-109124761D01*
X86129761Y-109029523D01*
X86082142Y-108981904D01*
X85986904Y-108934285D01*
X85796428Y-108934285D01*
X85701190Y-108981904D01*
X85653571Y-109029523D01*
X85605952Y-109124761D01*
X85177380Y-108315238D02*
X85177380Y-108220000D01*
X85225000Y-108124761D01*
X85272619Y-108077142D01*
X85367857Y-108029523D01*
X85558333Y-107981904D01*
X85796428Y-107981904D01*
X85986904Y-108029523D01*
X86082142Y-108077142D01*
X86129761Y-108124761D01*
X86177380Y-108220000D01*
X86177380Y-108315238D01*
X86129761Y-108410476D01*
X86082142Y-108458095D01*
X85986904Y-108505714D01*
X85796428Y-108553333D01*
X85558333Y-108553333D01*
X85367857Y-108505714D01*
X85272619Y-108458095D01*
X85225000Y-108410476D01*
X85177380Y-108315238D01*
X83177142Y-144597380D02*
X82843809Y-144121190D01*
X82605714Y-144597380D02*
X82605714Y-143597380D01*
X82986666Y-143597380D01*
X83081904Y-143645000D01*
X83129523Y-143692619D01*
X83177142Y-143787857D01*
X83177142Y-143930714D01*
X83129523Y-144025952D01*
X83081904Y-144073571D01*
X82986666Y-144121190D01*
X82605714Y-144121190D01*
X84129523Y-144597380D02*
X83558095Y-144597380D01*
X83843809Y-144597380D02*
X83843809Y-143597380D01*
X83748571Y-143740238D01*
X83653333Y-143835476D01*
X83558095Y-143883095D01*
X85081904Y-144597380D02*
X84510476Y-144597380D01*
X84796190Y-144597380D02*
X84796190Y-143597380D01*
X84700952Y-143740238D01*
X84605714Y-143835476D01*
X84510476Y-143883095D01*
X82581904Y-144962619D02*
X82629523Y-144915000D01*
X82724761Y-144867380D01*
X82962857Y-144867380D01*
X83058095Y-144915000D01*
X83105714Y-144962619D01*
X83153333Y-145057857D01*
X83153333Y-145153095D01*
X83105714Y-145295952D01*
X82534285Y-145867380D01*
X83153333Y-145867380D01*
X83534285Y-144962619D02*
X83581904Y-144915000D01*
X83677142Y-144867380D01*
X83915238Y-144867380D01*
X84010476Y-144915000D01*
X84058095Y-144962619D01*
X84105714Y-145057857D01*
X84105714Y-145153095D01*
X84058095Y-145295952D01*
X83486666Y-145867380D01*
X84105714Y-145867380D01*
X84724761Y-144867380D02*
X84820000Y-144867380D01*
X84915238Y-144915000D01*
X84962857Y-144962619D01*
X85010476Y-145057857D01*
X85058095Y-145248333D01*
X85058095Y-145486428D01*
X85010476Y-145676904D01*
X84962857Y-145772142D01*
X84915238Y-145819761D01*
X84820000Y-145867380D01*
X84724761Y-145867380D01*
X84629523Y-145819761D01*
X84581904Y-145772142D01*
X84534285Y-145676904D01*
X84486666Y-145486428D01*
X84486666Y-145248333D01*
X84534285Y-145057857D01*
X84581904Y-144962619D01*
X84629523Y-144915000D01*
X84724761Y-144867380D01*
X83177142Y-147137380D02*
X82843809Y-146661190D01*
X82605714Y-147137380D02*
X82605714Y-146137380D01*
X82986666Y-146137380D01*
X83081904Y-146185000D01*
X83129523Y-146232619D01*
X83177142Y-146327857D01*
X83177142Y-146470714D01*
X83129523Y-146565952D01*
X83081904Y-146613571D01*
X82986666Y-146661190D01*
X82605714Y-146661190D01*
X84129523Y-147137380D02*
X83558095Y-147137380D01*
X83843809Y-147137380D02*
X83843809Y-146137380D01*
X83748571Y-146280238D01*
X83653333Y-146375476D01*
X83558095Y-146423095D01*
X84748571Y-146137380D02*
X84843809Y-146137380D01*
X84939047Y-146185000D01*
X84986666Y-146232619D01*
X85034285Y-146327857D01*
X85081904Y-146518333D01*
X85081904Y-146756428D01*
X85034285Y-146946904D01*
X84986666Y-147042142D01*
X84939047Y-147089761D01*
X84843809Y-147137380D01*
X84748571Y-147137380D01*
X84653333Y-147089761D01*
X84605714Y-147042142D01*
X84558095Y-146946904D01*
X84510476Y-146756428D01*
X84510476Y-146518333D01*
X84558095Y-146327857D01*
X84605714Y-146232619D01*
X84653333Y-146185000D01*
X84748571Y-146137380D01*
X82581904Y-147502619D02*
X82629523Y-147455000D01*
X82724761Y-147407380D01*
X82962857Y-147407380D01*
X83058095Y-147455000D01*
X83105714Y-147502619D01*
X83153333Y-147597857D01*
X83153333Y-147693095D01*
X83105714Y-147835952D01*
X82534285Y-148407380D01*
X83153333Y-148407380D01*
X83534285Y-147502619D02*
X83581904Y-147455000D01*
X83677142Y-147407380D01*
X83915238Y-147407380D01*
X84010476Y-147455000D01*
X84058095Y-147502619D01*
X84105714Y-147597857D01*
X84105714Y-147693095D01*
X84058095Y-147835952D01*
X83486666Y-148407380D01*
X84105714Y-148407380D01*
X84724761Y-147407380D02*
X84820000Y-147407380D01*
X84915238Y-147455000D01*
X84962857Y-147502619D01*
X85010476Y-147597857D01*
X85058095Y-147788333D01*
X85058095Y-148026428D01*
X85010476Y-148216904D01*
X84962857Y-148312142D01*
X84915238Y-148359761D01*
X84820000Y-148407380D01*
X84724761Y-148407380D01*
X84629523Y-148359761D01*
X84581904Y-148312142D01*
X84534285Y-148216904D01*
X84486666Y-148026428D01*
X84486666Y-147788333D01*
X84534285Y-147597857D01*
X84581904Y-147502619D01*
X84629523Y-147455000D01*
X84724761Y-147407380D01*
X135707380Y-124626666D02*
X135231190Y-124960000D01*
X135707380Y-125198095D02*
X134707380Y-125198095D01*
X134707380Y-124817142D01*
X134755000Y-124721904D01*
X134802619Y-124674285D01*
X134897857Y-124626666D01*
X135040714Y-124626666D01*
X135135952Y-124674285D01*
X135183571Y-124721904D01*
X135231190Y-124817142D01*
X135231190Y-125198095D01*
X135707380Y-124150476D02*
X135707380Y-123960000D01*
X135659761Y-123864761D01*
X135612142Y-123817142D01*
X135469285Y-123721904D01*
X135278809Y-123674285D01*
X134897857Y-123674285D01*
X134802619Y-123721904D01*
X134755000Y-123769523D01*
X134707380Y-123864761D01*
X134707380Y-124055238D01*
X134755000Y-124150476D01*
X134802619Y-124198095D01*
X134897857Y-124245714D01*
X135135952Y-124245714D01*
X135231190Y-124198095D01*
X135278809Y-124150476D01*
X135326428Y-124055238D01*
X135326428Y-123864761D01*
X135278809Y-123769523D01*
X135231190Y-123721904D01*
X135135952Y-123674285D01*
X133770714Y-125221904D02*
X134437380Y-125221904D01*
X133389761Y-125460000D02*
X134104047Y-125698095D01*
X134104047Y-125079047D01*
X133437380Y-124793333D02*
X133437380Y-124126666D01*
X134437380Y-124555238D01*
X133437380Y-123555238D02*
X133437380Y-123460000D01*
X133485000Y-123364761D01*
X133532619Y-123317142D01*
X133627857Y-123269523D01*
X133818333Y-123221904D01*
X134056428Y-123221904D01*
X134246904Y-123269523D01*
X134342142Y-123317142D01*
X134389761Y-123364761D01*
X134437380Y-123460000D01*
X134437380Y-123555238D01*
X134389761Y-123650476D01*
X134342142Y-123698095D01*
X134246904Y-123745714D01*
X134056428Y-123793333D01*
X133818333Y-123793333D01*
X133627857Y-123745714D01*
X133532619Y-123698095D01*
X133485000Y-123650476D01*
X133437380Y-123555238D01*
X136977380Y-124626666D02*
X136501190Y-124960000D01*
X136977380Y-125198095D02*
X135977380Y-125198095D01*
X135977380Y-124817142D01*
X136025000Y-124721904D01*
X136072619Y-124674285D01*
X136167857Y-124626666D01*
X136310714Y-124626666D01*
X136405952Y-124674285D01*
X136453571Y-124721904D01*
X136501190Y-124817142D01*
X136501190Y-125198095D01*
X136405952Y-124055238D02*
X136358333Y-124150476D01*
X136310714Y-124198095D01*
X136215476Y-124245714D01*
X136167857Y-124245714D01*
X136072619Y-124198095D01*
X136025000Y-124150476D01*
X135977380Y-124055238D01*
X135977380Y-123864761D01*
X136025000Y-123769523D01*
X136072619Y-123721904D01*
X136167857Y-123674285D01*
X136215476Y-123674285D01*
X136310714Y-123721904D01*
X136358333Y-123769523D01*
X136405952Y-123864761D01*
X136405952Y-124055238D01*
X136453571Y-124150476D01*
X136501190Y-124198095D01*
X136596428Y-124245714D01*
X136786904Y-124245714D01*
X136882142Y-124198095D01*
X136929761Y-124150476D01*
X136977380Y-124055238D01*
X136977380Y-123864761D01*
X136929761Y-123769523D01*
X136882142Y-123721904D01*
X136786904Y-123674285D01*
X136596428Y-123674285D01*
X136501190Y-123721904D01*
X136453571Y-123769523D01*
X136405952Y-123864761D01*
X138247380Y-125055238D02*
X138247380Y-125626666D01*
X138247380Y-125340952D02*
X137247380Y-125340952D01*
X137390238Y-125436190D01*
X137485476Y-125531428D01*
X137533095Y-125626666D01*
X137247380Y-124436190D02*
X137247380Y-124340952D01*
X137295000Y-124245714D01*
X137342619Y-124198095D01*
X137437857Y-124150476D01*
X137628333Y-124102857D01*
X137866428Y-124102857D01*
X138056904Y-124150476D01*
X138152142Y-124198095D01*
X138199761Y-124245714D01*
X138247380Y-124340952D01*
X138247380Y-124436190D01*
X138199761Y-124531428D01*
X138152142Y-124579047D01*
X138056904Y-124626666D01*
X137866428Y-124674285D01*
X137628333Y-124674285D01*
X137437857Y-124626666D01*
X137342619Y-124579047D01*
X137295000Y-124531428D01*
X137247380Y-124436190D01*
X138247380Y-123674285D02*
X137247380Y-123674285D01*
X137866428Y-123579047D02*
X138247380Y-123293333D01*
X137580714Y-123293333D02*
X137961666Y-123674285D01*
X84907380Y-109386666D02*
X84431190Y-109720000D01*
X84907380Y-109958095D02*
X83907380Y-109958095D01*
X83907380Y-109577142D01*
X83955000Y-109481904D01*
X84002619Y-109434285D01*
X84097857Y-109386666D01*
X84240714Y-109386666D01*
X84335952Y-109434285D01*
X84383571Y-109481904D01*
X84431190Y-109577142D01*
X84431190Y-109958095D01*
X83907380Y-108529523D02*
X83907380Y-108720000D01*
X83955000Y-108815238D01*
X84002619Y-108862857D01*
X84145476Y-108958095D01*
X84335952Y-109005714D01*
X84716904Y-109005714D01*
X84812142Y-108958095D01*
X84859761Y-108910476D01*
X84907380Y-108815238D01*
X84907380Y-108624761D01*
X84859761Y-108529523D01*
X84812142Y-108481904D01*
X84716904Y-108434285D01*
X84478809Y-108434285D01*
X84383571Y-108481904D01*
X84335952Y-108529523D01*
X84288333Y-108624761D01*
X84288333Y-108815238D01*
X84335952Y-108910476D01*
X84383571Y-108958095D01*
X84478809Y-109005714D01*
X82637380Y-109981904D02*
X82637380Y-110172380D01*
X82685000Y-110267619D01*
X82732619Y-110315238D01*
X82875476Y-110410476D01*
X83065952Y-110458095D01*
X83446904Y-110458095D01*
X83542142Y-110410476D01*
X83589761Y-110362857D01*
X83637380Y-110267619D01*
X83637380Y-110077142D01*
X83589761Y-109981904D01*
X83542142Y-109934285D01*
X83446904Y-109886666D01*
X83208809Y-109886666D01*
X83113571Y-109934285D01*
X83065952Y-109981904D01*
X83018333Y-110077142D01*
X83018333Y-110267619D01*
X83065952Y-110362857D01*
X83113571Y-110410476D01*
X83208809Y-110458095D01*
X83065952Y-109315238D02*
X83018333Y-109410476D01*
X82970714Y-109458095D01*
X82875476Y-109505714D01*
X82827857Y-109505714D01*
X82732619Y-109458095D01*
X82685000Y-109410476D01*
X82637380Y-109315238D01*
X82637380Y-109124761D01*
X82685000Y-109029523D01*
X82732619Y-108981904D01*
X82827857Y-108934285D01*
X82875476Y-108934285D01*
X82970714Y-108981904D01*
X83018333Y-109029523D01*
X83065952Y-109124761D01*
X83065952Y-109315238D01*
X83113571Y-109410476D01*
X83161190Y-109458095D01*
X83256428Y-109505714D01*
X83446904Y-109505714D01*
X83542142Y-109458095D01*
X83589761Y-109410476D01*
X83637380Y-109315238D01*
X83637380Y-109124761D01*
X83589761Y-109029523D01*
X83542142Y-108981904D01*
X83446904Y-108934285D01*
X83256428Y-108934285D01*
X83161190Y-108981904D01*
X83113571Y-109029523D01*
X83065952Y-109124761D01*
X82637380Y-108315238D02*
X82637380Y-108220000D01*
X82685000Y-108124761D01*
X82732619Y-108077142D01*
X82827857Y-108029523D01*
X83018333Y-107981904D01*
X83256428Y-107981904D01*
X83446904Y-108029523D01*
X83542142Y-108077142D01*
X83589761Y-108124761D01*
X83637380Y-108220000D01*
X83637380Y-108315238D01*
X83589761Y-108410476D01*
X83542142Y-108458095D01*
X83446904Y-108505714D01*
X83256428Y-108553333D01*
X83018333Y-108553333D01*
X82827857Y-108505714D01*
X82732619Y-108458095D01*
X82685000Y-108410476D01*
X82637380Y-108315238D01*
X102687380Y-109386666D02*
X102211190Y-109720000D01*
X102687380Y-109958095D02*
X101687380Y-109958095D01*
X101687380Y-109577142D01*
X101735000Y-109481904D01*
X101782619Y-109434285D01*
X101877857Y-109386666D01*
X102020714Y-109386666D01*
X102115952Y-109434285D01*
X102163571Y-109481904D01*
X102211190Y-109577142D01*
X102211190Y-109958095D01*
X101687380Y-109053333D02*
X101687380Y-108434285D01*
X102068333Y-108767619D01*
X102068333Y-108624761D01*
X102115952Y-108529523D01*
X102163571Y-108481904D01*
X102258809Y-108434285D01*
X102496904Y-108434285D01*
X102592142Y-108481904D01*
X102639761Y-108529523D01*
X102687380Y-108624761D01*
X102687380Y-108910476D01*
X102639761Y-109005714D01*
X102592142Y-109053333D01*
X100417380Y-109981904D02*
X100417380Y-110172380D01*
X100465000Y-110267619D01*
X100512619Y-110315238D01*
X100655476Y-110410476D01*
X100845952Y-110458095D01*
X101226904Y-110458095D01*
X101322142Y-110410476D01*
X101369761Y-110362857D01*
X101417380Y-110267619D01*
X101417380Y-110077142D01*
X101369761Y-109981904D01*
X101322142Y-109934285D01*
X101226904Y-109886666D01*
X100988809Y-109886666D01*
X100893571Y-109934285D01*
X100845952Y-109981904D01*
X100798333Y-110077142D01*
X100798333Y-110267619D01*
X100845952Y-110362857D01*
X100893571Y-110410476D01*
X100988809Y-110458095D01*
X100845952Y-109315238D02*
X100798333Y-109410476D01*
X100750714Y-109458095D01*
X100655476Y-109505714D01*
X100607857Y-109505714D01*
X100512619Y-109458095D01*
X100465000Y-109410476D01*
X100417380Y-109315238D01*
X100417380Y-109124761D01*
X100465000Y-109029523D01*
X100512619Y-108981904D01*
X100607857Y-108934285D01*
X100655476Y-108934285D01*
X100750714Y-108981904D01*
X100798333Y-109029523D01*
X100845952Y-109124761D01*
X100845952Y-109315238D01*
X100893571Y-109410476D01*
X100941190Y-109458095D01*
X101036428Y-109505714D01*
X101226904Y-109505714D01*
X101322142Y-109458095D01*
X101369761Y-109410476D01*
X101417380Y-109315238D01*
X101417380Y-109124761D01*
X101369761Y-109029523D01*
X101322142Y-108981904D01*
X101226904Y-108934285D01*
X101036428Y-108934285D01*
X100941190Y-108981904D01*
X100893571Y-109029523D01*
X100845952Y-109124761D01*
X100417380Y-108315238D02*
X100417380Y-108220000D01*
X100465000Y-108124761D01*
X100512619Y-108077142D01*
X100607857Y-108029523D01*
X100798333Y-107981904D01*
X101036428Y-107981904D01*
X101226904Y-108029523D01*
X101322142Y-108077142D01*
X101369761Y-108124761D01*
X101417380Y-108220000D01*
X101417380Y-108315238D01*
X101369761Y-108410476D01*
X101322142Y-108458095D01*
X101226904Y-108505714D01*
X101036428Y-108553333D01*
X100798333Y-108553333D01*
X100607857Y-108505714D01*
X100512619Y-108458095D01*
X100465000Y-108410476D01*
X100417380Y-108315238D01*
X105227380Y-109386666D02*
X104751190Y-109720000D01*
X105227380Y-109958095D02*
X104227380Y-109958095D01*
X104227380Y-109577142D01*
X104275000Y-109481904D01*
X104322619Y-109434285D01*
X104417857Y-109386666D01*
X104560714Y-109386666D01*
X104655952Y-109434285D01*
X104703571Y-109481904D01*
X104751190Y-109577142D01*
X104751190Y-109958095D01*
X104322619Y-109005714D02*
X104275000Y-108958095D01*
X104227380Y-108862857D01*
X104227380Y-108624761D01*
X104275000Y-108529523D01*
X104322619Y-108481904D01*
X104417857Y-108434285D01*
X104513095Y-108434285D01*
X104655952Y-108481904D01*
X105227380Y-109053333D01*
X105227380Y-108434285D01*
X102957380Y-109981904D02*
X102957380Y-110172380D01*
X103005000Y-110267619D01*
X103052619Y-110315238D01*
X103195476Y-110410476D01*
X103385952Y-110458095D01*
X103766904Y-110458095D01*
X103862142Y-110410476D01*
X103909761Y-110362857D01*
X103957380Y-110267619D01*
X103957380Y-110077142D01*
X103909761Y-109981904D01*
X103862142Y-109934285D01*
X103766904Y-109886666D01*
X103528809Y-109886666D01*
X103433571Y-109934285D01*
X103385952Y-109981904D01*
X103338333Y-110077142D01*
X103338333Y-110267619D01*
X103385952Y-110362857D01*
X103433571Y-110410476D01*
X103528809Y-110458095D01*
X103385952Y-109315238D02*
X103338333Y-109410476D01*
X103290714Y-109458095D01*
X103195476Y-109505714D01*
X103147857Y-109505714D01*
X103052619Y-109458095D01*
X103005000Y-109410476D01*
X102957380Y-109315238D01*
X102957380Y-109124761D01*
X103005000Y-109029523D01*
X103052619Y-108981904D01*
X103147857Y-108934285D01*
X103195476Y-108934285D01*
X103290714Y-108981904D01*
X103338333Y-109029523D01*
X103385952Y-109124761D01*
X103385952Y-109315238D01*
X103433571Y-109410476D01*
X103481190Y-109458095D01*
X103576428Y-109505714D01*
X103766904Y-109505714D01*
X103862142Y-109458095D01*
X103909761Y-109410476D01*
X103957380Y-109315238D01*
X103957380Y-109124761D01*
X103909761Y-109029523D01*
X103862142Y-108981904D01*
X103766904Y-108934285D01*
X103576428Y-108934285D01*
X103481190Y-108981904D01*
X103433571Y-109029523D01*
X103385952Y-109124761D01*
X102957380Y-108315238D02*
X102957380Y-108220000D01*
X103005000Y-108124761D01*
X103052619Y-108077142D01*
X103147857Y-108029523D01*
X103338333Y-107981904D01*
X103576428Y-107981904D01*
X103766904Y-108029523D01*
X103862142Y-108077142D01*
X103909761Y-108124761D01*
X103957380Y-108220000D01*
X103957380Y-108315238D01*
X103909761Y-108410476D01*
X103862142Y-108458095D01*
X103766904Y-108505714D01*
X103576428Y-108553333D01*
X103338333Y-108553333D01*
X103147857Y-108505714D01*
X103052619Y-108458095D01*
X103005000Y-108410476D01*
X102957380Y-108315238D01*
X107767380Y-109386666D02*
X107291190Y-109720000D01*
X107767380Y-109958095D02*
X106767380Y-109958095D01*
X106767380Y-109577142D01*
X106815000Y-109481904D01*
X106862619Y-109434285D01*
X106957857Y-109386666D01*
X107100714Y-109386666D01*
X107195952Y-109434285D01*
X107243571Y-109481904D01*
X107291190Y-109577142D01*
X107291190Y-109958095D01*
X107767380Y-108434285D02*
X107767380Y-109005714D01*
X107767380Y-108720000D02*
X106767380Y-108720000D01*
X106910238Y-108815238D01*
X107005476Y-108910476D01*
X107053095Y-109005714D01*
X105497380Y-109981904D02*
X105497380Y-110172380D01*
X105545000Y-110267619D01*
X105592619Y-110315238D01*
X105735476Y-110410476D01*
X105925952Y-110458095D01*
X106306904Y-110458095D01*
X106402142Y-110410476D01*
X106449761Y-110362857D01*
X106497380Y-110267619D01*
X106497380Y-110077142D01*
X106449761Y-109981904D01*
X106402142Y-109934285D01*
X106306904Y-109886666D01*
X106068809Y-109886666D01*
X105973571Y-109934285D01*
X105925952Y-109981904D01*
X105878333Y-110077142D01*
X105878333Y-110267619D01*
X105925952Y-110362857D01*
X105973571Y-110410476D01*
X106068809Y-110458095D01*
X105925952Y-109315238D02*
X105878333Y-109410476D01*
X105830714Y-109458095D01*
X105735476Y-109505714D01*
X105687857Y-109505714D01*
X105592619Y-109458095D01*
X105545000Y-109410476D01*
X105497380Y-109315238D01*
X105497380Y-109124761D01*
X105545000Y-109029523D01*
X105592619Y-108981904D01*
X105687857Y-108934285D01*
X105735476Y-108934285D01*
X105830714Y-108981904D01*
X105878333Y-109029523D01*
X105925952Y-109124761D01*
X105925952Y-109315238D01*
X105973571Y-109410476D01*
X106021190Y-109458095D01*
X106116428Y-109505714D01*
X106306904Y-109505714D01*
X106402142Y-109458095D01*
X106449761Y-109410476D01*
X106497380Y-109315238D01*
X106497380Y-109124761D01*
X106449761Y-109029523D01*
X106402142Y-108981904D01*
X106306904Y-108934285D01*
X106116428Y-108934285D01*
X106021190Y-108981904D01*
X105973571Y-109029523D01*
X105925952Y-109124761D01*
X105497380Y-108315238D02*
X105497380Y-108220000D01*
X105545000Y-108124761D01*
X105592619Y-108077142D01*
X105687857Y-108029523D01*
X105878333Y-107981904D01*
X106116428Y-107981904D01*
X106306904Y-108029523D01*
X106402142Y-108077142D01*
X106449761Y-108124761D01*
X106497380Y-108220000D01*
X106497380Y-108315238D01*
X106449761Y-108410476D01*
X106402142Y-108458095D01*
X106306904Y-108505714D01*
X106116428Y-108553333D01*
X105878333Y-108553333D01*
X105687857Y-108505714D01*
X105592619Y-108458095D01*
X105545000Y-108410476D01*
X105497380Y-108315238D01*
X89987380Y-109386666D02*
X89511190Y-109720000D01*
X89987380Y-109958095D02*
X88987380Y-109958095D01*
X88987380Y-109577142D01*
X89035000Y-109481904D01*
X89082619Y-109434285D01*
X89177857Y-109386666D01*
X89320714Y-109386666D01*
X89415952Y-109434285D01*
X89463571Y-109481904D01*
X89511190Y-109577142D01*
X89511190Y-109958095D01*
X89320714Y-108529523D02*
X89987380Y-108529523D01*
X88939761Y-108767619D02*
X89654047Y-109005714D01*
X89654047Y-108386666D01*
X87717380Y-109981904D02*
X87717380Y-110172380D01*
X87765000Y-110267619D01*
X87812619Y-110315238D01*
X87955476Y-110410476D01*
X88145952Y-110458095D01*
X88526904Y-110458095D01*
X88622142Y-110410476D01*
X88669761Y-110362857D01*
X88717380Y-110267619D01*
X88717380Y-110077142D01*
X88669761Y-109981904D01*
X88622142Y-109934285D01*
X88526904Y-109886666D01*
X88288809Y-109886666D01*
X88193571Y-109934285D01*
X88145952Y-109981904D01*
X88098333Y-110077142D01*
X88098333Y-110267619D01*
X88145952Y-110362857D01*
X88193571Y-110410476D01*
X88288809Y-110458095D01*
X88145952Y-109315238D02*
X88098333Y-109410476D01*
X88050714Y-109458095D01*
X87955476Y-109505714D01*
X87907857Y-109505714D01*
X87812619Y-109458095D01*
X87765000Y-109410476D01*
X87717380Y-109315238D01*
X87717380Y-109124761D01*
X87765000Y-109029523D01*
X87812619Y-108981904D01*
X87907857Y-108934285D01*
X87955476Y-108934285D01*
X88050714Y-108981904D01*
X88098333Y-109029523D01*
X88145952Y-109124761D01*
X88145952Y-109315238D01*
X88193571Y-109410476D01*
X88241190Y-109458095D01*
X88336428Y-109505714D01*
X88526904Y-109505714D01*
X88622142Y-109458095D01*
X88669761Y-109410476D01*
X88717380Y-109315238D01*
X88717380Y-109124761D01*
X88669761Y-109029523D01*
X88622142Y-108981904D01*
X88526904Y-108934285D01*
X88336428Y-108934285D01*
X88241190Y-108981904D01*
X88193571Y-109029523D01*
X88145952Y-109124761D01*
X87717380Y-108315238D02*
X87717380Y-108220000D01*
X87765000Y-108124761D01*
X87812619Y-108077142D01*
X87907857Y-108029523D01*
X88098333Y-107981904D01*
X88336428Y-107981904D01*
X88526904Y-108029523D01*
X88622142Y-108077142D01*
X88669761Y-108124761D01*
X88717380Y-108220000D01*
X88717380Y-108315238D01*
X88669761Y-108410476D01*
X88622142Y-108458095D01*
X88526904Y-108505714D01*
X88336428Y-108553333D01*
X88098333Y-108553333D01*
X87907857Y-108505714D01*
X87812619Y-108458095D01*
X87765000Y-108410476D01*
X87717380Y-108315238D01*
X111593333Y-147137380D02*
X111260000Y-146661190D01*
X111021904Y-147137380D02*
X111021904Y-146137380D01*
X111402857Y-146137380D01*
X111498095Y-146185000D01*
X111545714Y-146232619D01*
X111593333Y-146327857D01*
X111593333Y-146470714D01*
X111545714Y-146565952D01*
X111498095Y-146613571D01*
X111402857Y-146661190D01*
X111021904Y-146661190D01*
X111926666Y-146137380D02*
X112593333Y-146137380D01*
X112164761Y-147137380D01*
X110521904Y-147502619D02*
X110569523Y-147455000D01*
X110664761Y-147407380D01*
X110902857Y-147407380D01*
X110998095Y-147455000D01*
X111045714Y-147502619D01*
X111093333Y-147597857D01*
X111093333Y-147693095D01*
X111045714Y-147835952D01*
X110474285Y-148407380D01*
X111093333Y-148407380D01*
X111474285Y-147502619D02*
X111521904Y-147455000D01*
X111617142Y-147407380D01*
X111855238Y-147407380D01*
X111950476Y-147455000D01*
X111998095Y-147502619D01*
X112045714Y-147597857D01*
X112045714Y-147693095D01*
X111998095Y-147835952D01*
X111426666Y-148407380D01*
X112045714Y-148407380D01*
X112664761Y-147407380D02*
X112760000Y-147407380D01*
X112855238Y-147455000D01*
X112902857Y-147502619D01*
X112950476Y-147597857D01*
X112998095Y-147788333D01*
X112998095Y-148026428D01*
X112950476Y-148216904D01*
X112902857Y-148312142D01*
X112855238Y-148359761D01*
X112760000Y-148407380D01*
X112664761Y-148407380D01*
X112569523Y-148359761D01*
X112521904Y-148312142D01*
X112474285Y-148216904D01*
X112426666Y-148026428D01*
X112426666Y-147788333D01*
X112474285Y-147597857D01*
X112521904Y-147502619D01*
X112569523Y-147455000D01*
X112664761Y-147407380D01*
X73214285Y-108928571D02*
X73357142Y-108976190D01*
X73404761Y-109023809D01*
X73452380Y-109119047D01*
X73452380Y-109261904D01*
X73404761Y-109357142D01*
X73357142Y-109404761D01*
X73261904Y-109452380D01*
X72880952Y-109452380D01*
X72880952Y-108452380D01*
X73214285Y-108452380D01*
X73309523Y-108500000D01*
X73357142Y-108547619D01*
X73404761Y-108642857D01*
X73404761Y-108738095D01*
X73357142Y-108833333D01*
X73309523Y-108880952D01*
X73214285Y-108928571D01*
X72880952Y-108928571D01*
X73738095Y-108452380D02*
X74309523Y-108452380D01*
X74023809Y-109452380D02*
X74023809Y-108452380D01*
X75166666Y-109452380D02*
X74595238Y-109452380D01*
X74880952Y-109452380D02*
X74880952Y-108452380D01*
X74785714Y-108595238D01*
X74690476Y-108690476D01*
X74595238Y-108738095D01*
X124968095Y-116502380D02*
X124968095Y-117311904D01*
X125015714Y-117407142D01*
X125063333Y-117454761D01*
X125158571Y-117502380D01*
X125349047Y-117502380D01*
X125444285Y-117454761D01*
X125491904Y-117407142D01*
X125539523Y-117311904D01*
X125539523Y-116502380D01*
X126539523Y-117502380D02*
X125968095Y-117502380D01*
X126253809Y-117502380D02*
X126253809Y-116502380D01*
X126158571Y-116645238D01*
X126063333Y-116740476D01*
X125968095Y-116788095D01*
M02*
