G04 #@! TF.GenerationSoftware,KiCad,Pcbnew,(5.0.1)-3*
G04 #@! TF.CreationDate,2019-06-25T23:54:28+01:00*
G04 #@! TF.ProjectId,drumkid v3,6472756D6B69642076332E6B69636164,03*
G04 #@! TF.SameCoordinates,Original*
G04 #@! TF.FileFunction,Legend,Bot*
G04 #@! TF.FilePolarity,Positive*
%FSLAX46Y46*%
G04 Gerber Fmt 4.6, Leading zero omitted, Abs format (unit mm)*
G04 Created by KiCad (PCBNEW (5.0.1)-3) date 25/06/2019 23:54:28*
%MOMM*%
%LPD*%
G01*
G04 APERTURE LIST*
%ADD10C,1.500000*%
%ADD11C,0.120000*%
%ADD12C,0.150000*%
%ADD13C,0.100000*%
G04 APERTURE END LIST*
D10*
X166026666Y-60316666D02*
X166026666Y-53316666D01*
X166026666Y-59983333D02*
X166693333Y-60316666D01*
X168026666Y-60316666D01*
X168693333Y-59983333D01*
X169026666Y-59650000D01*
X169360000Y-58983333D01*
X169360000Y-56983333D01*
X169026666Y-56316666D01*
X168693333Y-55983333D01*
X168026666Y-55650000D01*
X166693333Y-55650000D01*
X166026666Y-55983333D01*
X162693333Y-60316666D02*
X162693333Y-55650000D01*
X162693333Y-56983333D02*
X162360000Y-56316666D01*
X162026666Y-55983333D01*
X161360000Y-55650000D01*
X160693333Y-55650000D01*
X155360000Y-55650000D02*
X155360000Y-60316666D01*
X158360000Y-55650000D02*
X158360000Y-59316666D01*
X158026666Y-59983333D01*
X157360000Y-60316666D01*
X156360000Y-60316666D01*
X155693333Y-59983333D01*
X155360000Y-59650000D01*
X152026666Y-60316666D02*
X152026666Y-55650000D01*
X152026666Y-56316666D02*
X151693333Y-55983333D01*
X151026666Y-55650000D01*
X150026666Y-55650000D01*
X149360000Y-55983333D01*
X149026666Y-56650000D01*
X149026666Y-60316666D01*
X149026666Y-56650000D02*
X148693333Y-55983333D01*
X148026666Y-55650000D01*
X147026666Y-55650000D01*
X146360000Y-55983333D01*
X146026666Y-56650000D01*
X146026666Y-60316666D01*
X142693333Y-60316666D02*
X142693333Y-53316666D01*
X142026666Y-57650000D02*
X140026666Y-60316666D01*
X140026666Y-55650000D02*
X142693333Y-58316666D01*
X137026666Y-60316666D02*
X137026666Y-55650000D01*
X137026666Y-53316666D02*
X137360000Y-53650000D01*
X137026666Y-53983333D01*
X136693333Y-53650000D01*
X137026666Y-53316666D01*
X137026666Y-53983333D01*
X130693333Y-60316666D02*
X130693333Y-53316666D01*
X130693333Y-59983333D02*
X131360000Y-60316666D01*
X132693333Y-60316666D01*
X133360000Y-59983333D01*
X133693333Y-59650000D01*
X134026666Y-58983333D01*
X134026666Y-56983333D01*
X133693333Y-56316666D01*
X133360000Y-55983333D01*
X132693333Y-55650000D01*
X131360000Y-55650000D01*
X130693333Y-55983333D01*
D11*
G04 #@! TO.C,SW2*
X117208947Y-95867290D02*
G75*
G03X117208947Y-95867290I-4579050J0D01*
G01*
G04 #@! TO.C,SW7*
X192208947Y-95867290D02*
G75*
G03X192208947Y-95867290I-4579050J0D01*
G01*
G04 #@! TO.C,SW6*
X179208947Y-95867290D02*
G75*
G03X179208947Y-95867290I-4579050J0D01*
G01*
G04 #@! TO.C,SW5*
X166208947Y-95867290D02*
G75*
G03X166208947Y-95867290I-4579050J0D01*
G01*
G04 #@! TO.C,SW4*
X143208947Y-95867290D02*
G75*
G03X143208947Y-95867290I-4579050J0D01*
G01*
G04 #@! TO.C,SW3*
X130208947Y-95867290D02*
G75*
G03X130208947Y-95867290I-4579050J0D01*
G01*
G04 #@! TO.C,RV1*
D12*
X187906326Y-60015852D02*
X187430136Y-59682519D01*
X187906326Y-59444424D02*
X186906326Y-59444424D01*
X186906326Y-59825376D01*
X186953946Y-59920614D01*
X187001565Y-59968233D01*
X187096803Y-60015852D01*
X187239660Y-60015852D01*
X187334898Y-59968233D01*
X187382517Y-59920614D01*
X187430136Y-59825376D01*
X187430136Y-59444424D01*
X186906326Y-60301567D02*
X187906326Y-60634900D01*
X186906326Y-60968233D01*
X187906326Y-61825376D02*
X187906326Y-61253948D01*
X187906326Y-61539662D02*
X186906326Y-61539662D01*
X187049184Y-61444424D01*
X187144422Y-61349186D01*
X187192041Y-61253948D01*
G04 #@! TO.C,D6*
X170758095Y-67589670D02*
X170758095Y-66589670D01*
X170520000Y-66589670D01*
X170377142Y-66637290D01*
X170281904Y-66732528D01*
X170234285Y-66827766D01*
X170186666Y-67018242D01*
X170186666Y-67161099D01*
X170234285Y-67351575D01*
X170281904Y-67446813D01*
X170377142Y-67542051D01*
X170520000Y-67589670D01*
X170758095Y-67589670D01*
X169329523Y-66589670D02*
X169520000Y-66589670D01*
X169615238Y-66637290D01*
X169662857Y-66684909D01*
X169758095Y-66827766D01*
X169805714Y-67018242D01*
X169805714Y-67399194D01*
X169758095Y-67494432D01*
X169710476Y-67542051D01*
X169615238Y-67589670D01*
X169424761Y-67589670D01*
X169329523Y-67542051D01*
X169281904Y-67494432D01*
X169234285Y-67399194D01*
X169234285Y-67161099D01*
X169281904Y-67065861D01*
X169329523Y-67018242D01*
X169424761Y-66970623D01*
X169615238Y-66970623D01*
X169710476Y-67018242D01*
X169758095Y-67065861D01*
X169805714Y-67161099D01*
X169130952Y-64668718D02*
X168369047Y-64668718D01*
X171670952Y-64668718D02*
X170909047Y-64668718D01*
X171290000Y-65049670D02*
X171290000Y-64287766D01*
G04 #@! TO.C,D5*
X160758095Y-67589670D02*
X160758095Y-66589670D01*
X160520000Y-66589670D01*
X160377142Y-66637290D01*
X160281904Y-66732528D01*
X160234285Y-66827766D01*
X160186666Y-67018242D01*
X160186666Y-67161099D01*
X160234285Y-67351575D01*
X160281904Y-67446813D01*
X160377142Y-67542051D01*
X160520000Y-67589670D01*
X160758095Y-67589670D01*
X159281904Y-66589670D02*
X159758095Y-66589670D01*
X159805714Y-67065861D01*
X159758095Y-67018242D01*
X159662857Y-66970623D01*
X159424761Y-66970623D01*
X159329523Y-67018242D01*
X159281904Y-67065861D01*
X159234285Y-67161099D01*
X159234285Y-67399194D01*
X159281904Y-67494432D01*
X159329523Y-67542051D01*
X159424761Y-67589670D01*
X159662857Y-67589670D01*
X159758095Y-67542051D01*
X159805714Y-67494432D01*
X159130952Y-64668718D02*
X158369047Y-64668718D01*
X161670952Y-64668718D02*
X160909047Y-64668718D01*
X161290000Y-65049670D02*
X161290000Y-64287766D01*
G04 #@! TO.C,D4*
X150758095Y-67589670D02*
X150758095Y-66589670D01*
X150520000Y-66589670D01*
X150377142Y-66637290D01*
X150281904Y-66732528D01*
X150234285Y-66827766D01*
X150186666Y-67018242D01*
X150186666Y-67161099D01*
X150234285Y-67351575D01*
X150281904Y-67446813D01*
X150377142Y-67542051D01*
X150520000Y-67589670D01*
X150758095Y-67589670D01*
X149329523Y-66923004D02*
X149329523Y-67589670D01*
X149567619Y-66542051D02*
X149805714Y-67256337D01*
X149186666Y-67256337D01*
X149130952Y-64668718D02*
X148369047Y-64668718D01*
X151670952Y-64668718D02*
X150909047Y-64668718D01*
X151290000Y-65049670D02*
X151290000Y-64287766D01*
G04 #@! TO.C,D3*
X140758095Y-67589670D02*
X140758095Y-66589670D01*
X140520000Y-66589670D01*
X140377142Y-66637290D01*
X140281904Y-66732528D01*
X140234285Y-66827766D01*
X140186666Y-67018242D01*
X140186666Y-67161099D01*
X140234285Y-67351575D01*
X140281904Y-67446813D01*
X140377142Y-67542051D01*
X140520000Y-67589670D01*
X140758095Y-67589670D01*
X139853333Y-66589670D02*
X139234285Y-66589670D01*
X139567619Y-66970623D01*
X139424761Y-66970623D01*
X139329523Y-67018242D01*
X139281904Y-67065861D01*
X139234285Y-67161099D01*
X139234285Y-67399194D01*
X139281904Y-67494432D01*
X139329523Y-67542051D01*
X139424761Y-67589670D01*
X139710476Y-67589670D01*
X139805714Y-67542051D01*
X139853333Y-67494432D01*
X139130952Y-64668718D02*
X138369047Y-64668718D01*
X141670952Y-64668718D02*
X140909047Y-64668718D01*
X141290000Y-65049670D02*
X141290000Y-64287766D01*
G04 #@! TO.C,D2*
X130758095Y-67589670D02*
X130758095Y-66589670D01*
X130520000Y-66589670D01*
X130377142Y-66637290D01*
X130281904Y-66732528D01*
X130234285Y-66827766D01*
X130186666Y-67018242D01*
X130186666Y-67161099D01*
X130234285Y-67351575D01*
X130281904Y-67446813D01*
X130377142Y-67542051D01*
X130520000Y-67589670D01*
X130758095Y-67589670D01*
X129805714Y-66684909D02*
X129758095Y-66637290D01*
X129662857Y-66589670D01*
X129424761Y-66589670D01*
X129329523Y-66637290D01*
X129281904Y-66684909D01*
X129234285Y-66780147D01*
X129234285Y-66875385D01*
X129281904Y-67018242D01*
X129853333Y-67589670D01*
X129234285Y-67589670D01*
X129130952Y-64668718D02*
X128369047Y-64668718D01*
X131670952Y-64668718D02*
X130909047Y-64668718D01*
X131290000Y-65049670D02*
X131290000Y-64287766D01*
G04 #@! TO.C,J9*
X150266666Y-47101904D02*
X150266666Y-47673333D01*
X150304761Y-47787619D01*
X150380952Y-47863809D01*
X150495238Y-47901904D01*
X150571428Y-47901904D01*
X149847619Y-47901904D02*
X149695238Y-47901904D01*
X149619047Y-47863809D01*
X149580952Y-47825714D01*
X149504761Y-47711428D01*
X149466666Y-47559047D01*
X149466666Y-47254285D01*
X149504761Y-47178095D01*
X149542857Y-47140000D01*
X149619047Y-47101904D01*
X149771428Y-47101904D01*
X149847619Y-47140000D01*
X149885714Y-47178095D01*
X149923809Y-47254285D01*
X149923809Y-47444761D01*
X149885714Y-47520952D01*
X149847619Y-47559047D01*
X149771428Y-47597142D01*
X149619047Y-47597142D01*
X149542857Y-47559047D01*
X149504761Y-47520952D01*
X149466666Y-47444761D01*
D13*
X155857142Y-45608000D02*
X155571428Y-45608000D01*
X155914285Y-45779428D02*
X155714285Y-45179428D01*
X155514285Y-45779428D01*
X155057142Y-45379428D02*
X155057142Y-45779428D01*
X155314285Y-45379428D02*
X155314285Y-45693714D01*
X155285714Y-45750857D01*
X155228571Y-45779428D01*
X155142857Y-45779428D01*
X155085714Y-45750857D01*
X155057142Y-45722285D01*
X154514285Y-45779428D02*
X154514285Y-45179428D01*
X154514285Y-45750857D02*
X154571428Y-45779428D01*
X154685714Y-45779428D01*
X154742857Y-45750857D01*
X154771428Y-45722285D01*
X154800000Y-45665142D01*
X154800000Y-45493714D01*
X154771428Y-45436571D01*
X154742857Y-45408000D01*
X154685714Y-45379428D01*
X154571428Y-45379428D01*
X154514285Y-45408000D01*
X154228571Y-45779428D02*
X154228571Y-45379428D01*
X154228571Y-45179428D02*
X154257142Y-45208000D01*
X154228571Y-45236571D01*
X154200000Y-45208000D01*
X154228571Y-45179428D01*
X154228571Y-45236571D01*
X153857142Y-45779428D02*
X153914285Y-45750857D01*
X153942857Y-45722285D01*
X153971428Y-45665142D01*
X153971428Y-45493714D01*
X153942857Y-45436571D01*
X153914285Y-45408000D01*
X153857142Y-45379428D01*
X153771428Y-45379428D01*
X153714285Y-45408000D01*
X153685714Y-45436571D01*
X153657142Y-45493714D01*
X153657142Y-45665142D01*
X153685714Y-45722285D01*
X153714285Y-45750857D01*
X153771428Y-45779428D01*
X153857142Y-45779428D01*
X153228571Y-45179428D02*
X153228571Y-45608000D01*
X153257142Y-45693714D01*
X153314285Y-45750857D01*
X153400000Y-45779428D01*
X153457142Y-45779428D01*
X152685714Y-45779428D02*
X152685714Y-45465142D01*
X152714285Y-45408000D01*
X152771428Y-45379428D01*
X152885714Y-45379428D01*
X152942857Y-45408000D01*
X152685714Y-45750857D02*
X152742857Y-45779428D01*
X152885714Y-45779428D01*
X152942857Y-45750857D01*
X152971428Y-45693714D01*
X152971428Y-45636571D01*
X152942857Y-45579428D01*
X152885714Y-45550857D01*
X152742857Y-45550857D01*
X152685714Y-45522285D01*
X152142857Y-45750857D02*
X152200000Y-45779428D01*
X152314285Y-45779428D01*
X152371428Y-45750857D01*
X152400000Y-45722285D01*
X152428571Y-45665142D01*
X152428571Y-45493714D01*
X152400000Y-45436571D01*
X152371428Y-45408000D01*
X152314285Y-45379428D01*
X152200000Y-45379428D01*
X152142857Y-45408000D01*
X151885714Y-45779428D02*
X151885714Y-45179428D01*
X151828571Y-45550857D02*
X151657142Y-45779428D01*
X151657142Y-45379428D02*
X151885714Y-45608000D01*
X151457142Y-45179428D02*
X151085714Y-45179428D01*
X151285714Y-45408000D01*
X151200000Y-45408000D01*
X151142857Y-45436571D01*
X151114285Y-45465142D01*
X151085714Y-45522285D01*
X151085714Y-45665142D01*
X151114285Y-45722285D01*
X151142857Y-45750857D01*
X151200000Y-45779428D01*
X151371428Y-45779428D01*
X151428571Y-45750857D01*
X151457142Y-45722285D01*
X150971428Y-45836571D02*
X150514285Y-45836571D01*
X150057142Y-45208000D02*
X150114285Y-45179428D01*
X150200000Y-45179428D01*
X150285714Y-45208000D01*
X150342857Y-45265142D01*
X150371428Y-45322285D01*
X150400000Y-45436571D01*
X150400000Y-45522285D01*
X150371428Y-45636571D01*
X150342857Y-45693714D01*
X150285714Y-45750857D01*
X150200000Y-45779428D01*
X150142857Y-45779428D01*
X150057142Y-45750857D01*
X150028571Y-45722285D01*
X150028571Y-45522285D01*
X150142857Y-45522285D01*
X149771428Y-45779428D02*
X149771428Y-45379428D01*
X149771428Y-45493714D02*
X149742857Y-45436571D01*
X149714285Y-45408000D01*
X149657142Y-45379428D01*
X149600000Y-45379428D01*
X149314285Y-45779428D02*
X149371428Y-45750857D01*
X149400000Y-45722285D01*
X149428571Y-45665142D01*
X149428571Y-45493714D01*
X149400000Y-45436571D01*
X149371428Y-45408000D01*
X149314285Y-45379428D01*
X149228571Y-45379428D01*
X149171428Y-45408000D01*
X149142857Y-45436571D01*
X149114285Y-45493714D01*
X149114285Y-45665142D01*
X149142857Y-45722285D01*
X149171428Y-45750857D01*
X149228571Y-45779428D01*
X149314285Y-45779428D01*
X148600000Y-45379428D02*
X148600000Y-45779428D01*
X148857142Y-45379428D02*
X148857142Y-45693714D01*
X148828571Y-45750857D01*
X148771428Y-45779428D01*
X148685714Y-45779428D01*
X148628571Y-45750857D01*
X148600000Y-45722285D01*
X148314285Y-45379428D02*
X148314285Y-45779428D01*
X148314285Y-45436571D02*
X148285714Y-45408000D01*
X148228571Y-45379428D01*
X148142857Y-45379428D01*
X148085714Y-45408000D01*
X148057142Y-45465142D01*
X148057142Y-45779428D01*
X147514285Y-45779428D02*
X147514285Y-45179428D01*
X147514285Y-45750857D02*
X147571428Y-45779428D01*
X147685714Y-45779428D01*
X147742857Y-45750857D01*
X147771428Y-45722285D01*
X147800000Y-45665142D01*
X147800000Y-45493714D01*
X147771428Y-45436571D01*
X147742857Y-45408000D01*
X147685714Y-45379428D01*
X147571428Y-45379428D01*
X147514285Y-45408000D01*
X147371428Y-45836571D02*
X146914285Y-45836571D01*
X146800000Y-45750857D02*
X146714285Y-45779428D01*
X146571428Y-45779428D01*
X146514285Y-45750857D01*
X146485714Y-45722285D01*
X146457142Y-45665142D01*
X146457142Y-45608000D01*
X146485714Y-45550857D01*
X146514285Y-45522285D01*
X146571428Y-45493714D01*
X146685714Y-45465142D01*
X146742857Y-45436571D01*
X146771428Y-45408000D01*
X146800000Y-45350857D01*
X146800000Y-45293714D01*
X146771428Y-45236571D01*
X146742857Y-45208000D01*
X146685714Y-45179428D01*
X146542857Y-45179428D01*
X146457142Y-45208000D01*
X146257142Y-45379428D02*
X146142857Y-45779428D01*
X146028571Y-45493714D01*
X145914285Y-45779428D01*
X145800000Y-45379428D01*
X145571428Y-45779428D02*
X145571428Y-45379428D01*
X145571428Y-45179428D02*
X145600000Y-45208000D01*
X145571428Y-45236571D01*
X145542857Y-45208000D01*
X145571428Y-45179428D01*
X145571428Y-45236571D01*
X145371428Y-45379428D02*
X145142857Y-45379428D01*
X145285714Y-45179428D02*
X145285714Y-45693714D01*
X145257142Y-45750857D01*
X145200000Y-45779428D01*
X145142857Y-45779428D01*
X144685714Y-45750857D02*
X144742857Y-45779428D01*
X144857142Y-45779428D01*
X144914285Y-45750857D01*
X144942857Y-45722285D01*
X144971428Y-45665142D01*
X144971428Y-45493714D01*
X144942857Y-45436571D01*
X144914285Y-45408000D01*
X144857142Y-45379428D01*
X144742857Y-45379428D01*
X144685714Y-45408000D01*
X144428571Y-45779428D02*
X144428571Y-45179428D01*
X144171428Y-45779428D02*
X144171428Y-45465142D01*
X144200000Y-45408000D01*
X144257142Y-45379428D01*
X144342857Y-45379428D01*
X144400000Y-45408000D01*
X144428571Y-45436571D01*
G04 #@! TO.C,RV2*
D12*
X119082277Y-76302051D02*
X118606087Y-75968718D01*
X119082277Y-75730623D02*
X118082277Y-75730623D01*
X118082277Y-76111575D01*
X118129897Y-76206813D01*
X118177516Y-76254432D01*
X118272754Y-76302051D01*
X118415611Y-76302051D01*
X118510849Y-76254432D01*
X118558468Y-76206813D01*
X118606087Y-76111575D01*
X118606087Y-75730623D01*
X118082277Y-76587766D02*
X119082277Y-76921099D01*
X118082277Y-77254432D01*
X118177516Y-77540147D02*
X118129897Y-77587766D01*
X118082277Y-77683004D01*
X118082277Y-77921099D01*
X118129897Y-78016337D01*
X118177516Y-78063956D01*
X118272754Y-78111575D01*
X118367992Y-78111575D01*
X118510849Y-78063956D01*
X119082277Y-77492528D01*
X119082277Y-78111575D01*
G04 #@! TO.C,RV4*
X168082277Y-76302051D02*
X167606087Y-75968718D01*
X168082277Y-75730623D02*
X167082277Y-75730623D01*
X167082277Y-76111575D01*
X167129897Y-76206813D01*
X167177516Y-76254432D01*
X167272754Y-76302051D01*
X167415611Y-76302051D01*
X167510849Y-76254432D01*
X167558468Y-76206813D01*
X167606087Y-76111575D01*
X167606087Y-75730623D01*
X167082277Y-76587766D02*
X168082277Y-76921099D01*
X167082277Y-77254432D01*
X167415611Y-78016337D02*
X168082277Y-78016337D01*
X167034658Y-77778242D02*
X167748944Y-77540147D01*
X167748944Y-78159194D01*
G04 #@! TO.C,RV3*
X133082277Y-76302051D02*
X132606087Y-75968718D01*
X133082277Y-75730623D02*
X132082277Y-75730623D01*
X132082277Y-76111575D01*
X132129897Y-76206813D01*
X132177516Y-76254432D01*
X132272754Y-76302051D01*
X132415611Y-76302051D01*
X132510849Y-76254432D01*
X132558468Y-76206813D01*
X132606087Y-76111575D01*
X132606087Y-75730623D01*
X132082277Y-76587766D02*
X133082277Y-76921099D01*
X132082277Y-77254432D01*
X132082277Y-77492528D02*
X132082277Y-78111575D01*
X132463230Y-77778242D01*
X132463230Y-77921099D01*
X132510849Y-78016337D01*
X132558468Y-78063956D01*
X132653706Y-78111575D01*
X132891801Y-78111575D01*
X132987039Y-78063956D01*
X133034658Y-78016337D01*
X133082277Y-77921099D01*
X133082277Y-77635385D01*
X133034658Y-77540147D01*
X132987039Y-77492528D01*
G04 #@! TO.C,RV5*
X182082277Y-76302051D02*
X181606087Y-75968718D01*
X182082277Y-75730623D02*
X181082277Y-75730623D01*
X181082277Y-76111575D01*
X181129897Y-76206813D01*
X181177516Y-76254432D01*
X181272754Y-76302051D01*
X181415611Y-76302051D01*
X181510849Y-76254432D01*
X181558468Y-76206813D01*
X181606087Y-76111575D01*
X181606087Y-75730623D01*
X181082277Y-76587766D02*
X182082277Y-76921099D01*
X181082277Y-77254432D01*
X181082277Y-78063956D02*
X181082277Y-77587766D01*
X181558468Y-77540147D01*
X181510849Y-77587766D01*
X181463230Y-77683004D01*
X181463230Y-77921099D01*
X181510849Y-78016337D01*
X181558468Y-78063956D01*
X181653706Y-78111575D01*
X181891801Y-78111575D01*
X181987039Y-78063956D01*
X182034658Y-78016337D01*
X182082277Y-77921099D01*
X182082277Y-77683004D01*
X182034658Y-77587766D01*
X181987039Y-77540147D01*
G04 #@! TO.C,SW2*
X113454658Y-94533956D02*
X113502277Y-94676813D01*
X113502277Y-94914909D01*
X113454658Y-95010147D01*
X113407039Y-95057766D01*
X113311801Y-95105385D01*
X113216563Y-95105385D01*
X113121325Y-95057766D01*
X113073706Y-95010147D01*
X113026087Y-94914909D01*
X112978468Y-94724432D01*
X112930849Y-94629194D01*
X112883230Y-94581575D01*
X112787992Y-94533956D01*
X112692754Y-94533956D01*
X112597516Y-94581575D01*
X112549897Y-94629194D01*
X112502277Y-94724432D01*
X112502277Y-94962528D01*
X112549897Y-95105385D01*
X112502277Y-95438718D02*
X113502277Y-95676813D01*
X112787992Y-95867290D01*
X113502277Y-96057766D01*
X112502277Y-96295861D01*
X112597516Y-96629194D02*
X112549897Y-96676813D01*
X112502277Y-96772051D01*
X112502277Y-97010147D01*
X112549897Y-97105385D01*
X112597516Y-97153004D01*
X112692754Y-97200623D01*
X112787992Y-97200623D01*
X112930849Y-97153004D01*
X113502277Y-96581575D01*
X113502277Y-97200623D01*
G04 #@! TO.C,SW7*
X188454658Y-94533956D02*
X188502277Y-94676813D01*
X188502277Y-94914909D01*
X188454658Y-95010147D01*
X188407039Y-95057766D01*
X188311801Y-95105385D01*
X188216563Y-95105385D01*
X188121325Y-95057766D01*
X188073706Y-95010147D01*
X188026087Y-94914909D01*
X187978468Y-94724432D01*
X187930849Y-94629194D01*
X187883230Y-94581575D01*
X187787992Y-94533956D01*
X187692754Y-94533956D01*
X187597516Y-94581575D01*
X187549897Y-94629194D01*
X187502277Y-94724432D01*
X187502277Y-94962528D01*
X187549897Y-95105385D01*
X187502277Y-95438718D02*
X188502277Y-95676813D01*
X187787992Y-95867290D01*
X188502277Y-96057766D01*
X187502277Y-96295861D01*
X187502277Y-96581575D02*
X187502277Y-97248242D01*
X188502277Y-96819670D01*
G04 #@! TO.C,SW6*
X175454658Y-94533956D02*
X175502277Y-94676813D01*
X175502277Y-94914909D01*
X175454658Y-95010147D01*
X175407039Y-95057766D01*
X175311801Y-95105385D01*
X175216563Y-95105385D01*
X175121325Y-95057766D01*
X175073706Y-95010147D01*
X175026087Y-94914909D01*
X174978468Y-94724432D01*
X174930849Y-94629194D01*
X174883230Y-94581575D01*
X174787992Y-94533956D01*
X174692754Y-94533956D01*
X174597516Y-94581575D01*
X174549897Y-94629194D01*
X174502277Y-94724432D01*
X174502277Y-94962528D01*
X174549897Y-95105385D01*
X174502277Y-95438718D02*
X175502277Y-95676813D01*
X174787992Y-95867290D01*
X175502277Y-96057766D01*
X174502277Y-96295861D01*
X174502277Y-97105385D02*
X174502277Y-96914909D01*
X174549897Y-96819670D01*
X174597516Y-96772051D01*
X174740373Y-96676813D01*
X174930849Y-96629194D01*
X175311801Y-96629194D01*
X175407039Y-96676813D01*
X175454658Y-96724432D01*
X175502277Y-96819670D01*
X175502277Y-97010147D01*
X175454658Y-97105385D01*
X175407039Y-97153004D01*
X175311801Y-97200623D01*
X175073706Y-97200623D01*
X174978468Y-97153004D01*
X174930849Y-97105385D01*
X174883230Y-97010147D01*
X174883230Y-96819670D01*
X174930849Y-96724432D01*
X174978468Y-96676813D01*
X175073706Y-96629194D01*
G04 #@! TO.C,SW5*
X162454658Y-94533956D02*
X162502277Y-94676813D01*
X162502277Y-94914909D01*
X162454658Y-95010147D01*
X162407039Y-95057766D01*
X162311801Y-95105385D01*
X162216563Y-95105385D01*
X162121325Y-95057766D01*
X162073706Y-95010147D01*
X162026087Y-94914909D01*
X161978468Y-94724432D01*
X161930849Y-94629194D01*
X161883230Y-94581575D01*
X161787992Y-94533956D01*
X161692754Y-94533956D01*
X161597516Y-94581575D01*
X161549897Y-94629194D01*
X161502277Y-94724432D01*
X161502277Y-94962528D01*
X161549897Y-95105385D01*
X161502277Y-95438718D02*
X162502277Y-95676813D01*
X161787992Y-95867290D01*
X162502277Y-96057766D01*
X161502277Y-96295861D01*
X161502277Y-97153004D02*
X161502277Y-96676813D01*
X161978468Y-96629194D01*
X161930849Y-96676813D01*
X161883230Y-96772051D01*
X161883230Y-97010147D01*
X161930849Y-97105385D01*
X161978468Y-97153004D01*
X162073706Y-97200623D01*
X162311801Y-97200623D01*
X162407039Y-97153004D01*
X162454658Y-97105385D01*
X162502277Y-97010147D01*
X162502277Y-96772051D01*
X162454658Y-96676813D01*
X162407039Y-96629194D01*
G04 #@! TO.C,SW4*
X139454658Y-94533956D02*
X139502277Y-94676813D01*
X139502277Y-94914909D01*
X139454658Y-95010147D01*
X139407039Y-95057766D01*
X139311801Y-95105385D01*
X139216563Y-95105385D01*
X139121325Y-95057766D01*
X139073706Y-95010147D01*
X139026087Y-94914909D01*
X138978468Y-94724432D01*
X138930849Y-94629194D01*
X138883230Y-94581575D01*
X138787992Y-94533956D01*
X138692754Y-94533956D01*
X138597516Y-94581575D01*
X138549897Y-94629194D01*
X138502277Y-94724432D01*
X138502277Y-94962528D01*
X138549897Y-95105385D01*
X138502277Y-95438718D02*
X139502277Y-95676813D01*
X138787992Y-95867290D01*
X139502277Y-96057766D01*
X138502277Y-96295861D01*
X138835611Y-97105385D02*
X139502277Y-97105385D01*
X138454658Y-96867290D02*
X139168944Y-96629194D01*
X139168944Y-97248242D01*
G04 #@! TO.C,SW3*
X126454658Y-94533956D02*
X126502277Y-94676813D01*
X126502277Y-94914909D01*
X126454658Y-95010147D01*
X126407039Y-95057766D01*
X126311801Y-95105385D01*
X126216563Y-95105385D01*
X126121325Y-95057766D01*
X126073706Y-95010147D01*
X126026087Y-94914909D01*
X125978468Y-94724432D01*
X125930849Y-94629194D01*
X125883230Y-94581575D01*
X125787992Y-94533956D01*
X125692754Y-94533956D01*
X125597516Y-94581575D01*
X125549897Y-94629194D01*
X125502277Y-94724432D01*
X125502277Y-94962528D01*
X125549897Y-95105385D01*
X125502277Y-95438718D02*
X126502277Y-95676813D01*
X125787992Y-95867290D01*
X126502277Y-96057766D01*
X125502277Y-96295861D01*
X125502277Y-96581575D02*
X125502277Y-97200623D01*
X125883230Y-96867290D01*
X125883230Y-97010147D01*
X125930849Y-97105385D01*
X125978468Y-97153004D01*
X126073706Y-97200623D01*
X126311801Y-97200623D01*
X126407039Y-97153004D01*
X126454658Y-97105385D01*
X126502277Y-97010147D01*
X126502277Y-96724432D01*
X126454658Y-96629194D01*
X126407039Y-96581575D01*
G04 #@! TD*
M02*
