G04 #@! TF.GenerationSoftware,KiCad,Pcbnew,(5.0.1)-3*
G04 #@! TF.CreationDate,2019-06-25T23:54:27+01:00*
G04 #@! TF.ProjectId,drumkid v3,6472756D6B69642076332E6B69636164,03*
G04 #@! TF.SameCoordinates,Original*
G04 #@! TF.FileFunction,Copper,L1,Top,Signal*
G04 #@! TF.FilePolarity,Positive*
%FSLAX46Y46*%
G04 Gerber Fmt 4.6, Leading zero omitted, Abs format (unit mm)*
G04 Created by KiCad (PCBNEW (5.0.1)-3) date 25/06/2019 23:54:27*
%MOMM*%
%LPD*%
G01*
G04 APERTURE LIST*
G04 #@! TA.AperFunction,NonConductor*
%ADD10C,0.300000*%
G04 #@! TD*
G04 #@! TA.AperFunction,ComponentPad*
%ADD11C,3.653000*%
G04 #@! TD*
G04 #@! TA.AperFunction,ComponentPad*
%ADD12C,1.400000*%
G04 #@! TD*
G04 #@! TA.AperFunction,ComponentPad*
%ADD13O,1.600000X1.600000*%
G04 #@! TD*
G04 #@! TA.AperFunction,ComponentPad*
%ADD14C,1.600000*%
G04 #@! TD*
G04 #@! TA.AperFunction,WasherPad*
%ADD15C,4.000000*%
G04 #@! TD*
G04 #@! TA.AperFunction,ComponentPad*
%ADD16C,1.800000*%
G04 #@! TD*
G04 #@! TA.AperFunction,ComponentPad*
%ADD17R,1.800000X1.800000*%
G04 #@! TD*
G04 #@! TA.AperFunction,ComponentPad*
%ADD18O,1.750000X3.500000*%
G04 #@! TD*
G04 #@! TA.AperFunction,ComponentPad*
%ADD19R,3.500000X2.500000*%
G04 #@! TD*
G04 #@! TA.AperFunction,ComponentPad*
%ADD20O,2.500000X3.000000*%
G04 #@! TD*
G04 #@! TA.AperFunction,ComponentPad*
%ADD21R,1.600000X1.600000*%
G04 #@! TD*
G04 #@! TA.AperFunction,ComponentPad*
%ADD22R,1.700000X1.700000*%
G04 #@! TD*
G04 #@! TA.AperFunction,ComponentPad*
%ADD23O,1.700000X1.700000*%
G04 #@! TD*
G04 #@! TA.AperFunction,ComponentPad*
%ADD24C,1.500000*%
G04 #@! TD*
G04 #@! TA.AperFunction,ViaPad*
%ADD25C,0.800000*%
G04 #@! TD*
G04 #@! TA.AperFunction,Conductor*
%ADD26C,0.625000*%
G04 #@! TD*
G04 #@! TA.AperFunction,Conductor*
%ADD27C,0.250000*%
G04 #@! TD*
G04 #@! TA.AperFunction,Conductor*
%ADD28C,0.254000*%
G04 #@! TD*
G04 APERTURE END LIST*
D10*
X143107142Y-53128571D02*
X143107142Y-51628571D01*
X143464285Y-51628571D01*
X143678571Y-51700000D01*
X143821428Y-51842857D01*
X143892857Y-51985714D01*
X143964285Y-52271428D01*
X143964285Y-52485714D01*
X143892857Y-52771428D01*
X143821428Y-52914285D01*
X143678571Y-53057142D01*
X143464285Y-53128571D01*
X143107142Y-53128571D01*
X144607142Y-53128571D02*
X144607142Y-52128571D01*
X144607142Y-52414285D02*
X144678571Y-52271428D01*
X144750000Y-52200000D01*
X144892857Y-52128571D01*
X145035714Y-52128571D01*
X146178571Y-52128571D02*
X146178571Y-53128571D01*
X145535714Y-52128571D02*
X145535714Y-52914285D01*
X145607142Y-53057142D01*
X145750000Y-53128571D01*
X145964285Y-53128571D01*
X146107142Y-53057142D01*
X146178571Y-52985714D01*
X146892857Y-53128571D02*
X146892857Y-52128571D01*
X146892857Y-52271428D02*
X146964285Y-52200000D01*
X147107142Y-52128571D01*
X147321428Y-52128571D01*
X147464285Y-52200000D01*
X147535714Y-52342857D01*
X147535714Y-53128571D01*
X147535714Y-52342857D02*
X147607142Y-52200000D01*
X147750000Y-52128571D01*
X147964285Y-52128571D01*
X148107142Y-52200000D01*
X148178571Y-52342857D01*
X148178571Y-53128571D01*
X148892857Y-53128571D02*
X148892857Y-51628571D01*
X149750000Y-53128571D02*
X149107142Y-52271428D01*
X149750000Y-51628571D02*
X148892857Y-52485714D01*
X150392857Y-53128571D02*
X150392857Y-52128571D01*
X150392857Y-51628571D02*
X150321428Y-51700000D01*
X150392857Y-51771428D01*
X150464285Y-51700000D01*
X150392857Y-51628571D01*
X150392857Y-51771428D01*
X151750000Y-53128571D02*
X151750000Y-51628571D01*
X151750000Y-53057142D02*
X151607142Y-53128571D01*
X151321428Y-53128571D01*
X151178571Y-53057142D01*
X151107142Y-52985714D01*
X151035714Y-52842857D01*
X151035714Y-52414285D01*
X151107142Y-52271428D01*
X151178571Y-52200000D01*
X151321428Y-52128571D01*
X151607142Y-52128571D01*
X151750000Y-52200000D01*
X153464285Y-52128571D02*
X153821428Y-53128571D01*
X154178571Y-52128571D01*
X155035714Y-51628571D02*
X155178571Y-51628571D01*
X155321428Y-51700000D01*
X155392857Y-51771428D01*
X155464285Y-51914285D01*
X155535714Y-52200000D01*
X155535714Y-52557142D01*
X155464285Y-52842857D01*
X155392857Y-52985714D01*
X155321428Y-53057142D01*
X155178571Y-53128571D01*
X155035714Y-53128571D01*
X154892857Y-53057142D01*
X154821428Y-52985714D01*
X154750000Y-52842857D01*
X154678571Y-52557142D01*
X154678571Y-52200000D01*
X154750000Y-51914285D01*
X154821428Y-51771428D01*
X154892857Y-51700000D01*
X155035714Y-51628571D01*
X156035714Y-51628571D02*
X156964285Y-51628571D01*
X156464285Y-52200000D01*
X156678571Y-52200000D01*
X156821428Y-52271428D01*
X156892857Y-52342857D01*
X156964285Y-52485714D01*
X156964285Y-52842857D01*
X156892857Y-52985714D01*
X156821428Y-53057142D01*
X156678571Y-53128571D01*
X156250000Y-53128571D01*
X156107142Y-53057142D01*
X156035714Y-52985714D01*
X140250000Y-55678571D02*
X140250000Y-54178571D01*
X140250000Y-54750000D02*
X140392857Y-54678571D01*
X140678571Y-54678571D01*
X140821428Y-54750000D01*
X140892857Y-54821428D01*
X140964285Y-54964285D01*
X140964285Y-55392857D01*
X140892857Y-55535714D01*
X140821428Y-55607142D01*
X140678571Y-55678571D01*
X140392857Y-55678571D01*
X140250000Y-55607142D01*
X141464285Y-54678571D02*
X141821428Y-55678571D01*
X142178571Y-54678571D02*
X141821428Y-55678571D01*
X141678571Y-56035714D01*
X141607142Y-56107142D01*
X141464285Y-56178571D01*
X143892857Y-55678571D02*
X143892857Y-54178571D01*
X144392857Y-55250000D01*
X144892857Y-54178571D01*
X144892857Y-55678571D01*
X146250000Y-55678571D02*
X146250000Y-54892857D01*
X146178571Y-54750000D01*
X146035714Y-54678571D01*
X145750000Y-54678571D01*
X145607142Y-54750000D01*
X146250000Y-55607142D02*
X146107142Y-55678571D01*
X145750000Y-55678571D01*
X145607142Y-55607142D01*
X145535714Y-55464285D01*
X145535714Y-55321428D01*
X145607142Y-55178571D01*
X145750000Y-55107142D01*
X146107142Y-55107142D01*
X146250000Y-55035714D01*
X146750000Y-54678571D02*
X147321428Y-54678571D01*
X146964285Y-54178571D02*
X146964285Y-55464285D01*
X147035714Y-55607142D01*
X147178571Y-55678571D01*
X147321428Y-55678571D01*
X147607142Y-54678571D02*
X148178571Y-54678571D01*
X147821428Y-54178571D02*
X147821428Y-55464285D01*
X147892857Y-55607142D01*
X148035714Y-55678571D01*
X148178571Y-55678571D01*
X150321428Y-54892857D02*
X150535714Y-54964285D01*
X150607142Y-55035714D01*
X150678571Y-55178571D01*
X150678571Y-55392857D01*
X150607142Y-55535714D01*
X150535714Y-55607142D01*
X150392857Y-55678571D01*
X149821428Y-55678571D01*
X149821428Y-54178571D01*
X150321428Y-54178571D01*
X150464285Y-54250000D01*
X150535714Y-54321428D01*
X150607142Y-54464285D01*
X150607142Y-54607142D01*
X150535714Y-54750000D01*
X150464285Y-54821428D01*
X150321428Y-54892857D01*
X149821428Y-54892857D01*
X151321428Y-55678571D02*
X151321428Y-54678571D01*
X151321428Y-54964285D02*
X151392857Y-54821428D01*
X151464285Y-54750000D01*
X151607142Y-54678571D01*
X151750000Y-54678571D01*
X152892857Y-55678571D02*
X152892857Y-54892857D01*
X152821428Y-54750000D01*
X152678571Y-54678571D01*
X152392857Y-54678571D01*
X152250000Y-54750000D01*
X152892857Y-55607142D02*
X152750000Y-55678571D01*
X152392857Y-55678571D01*
X152250000Y-55607142D01*
X152178571Y-55464285D01*
X152178571Y-55321428D01*
X152250000Y-55178571D01*
X152392857Y-55107142D01*
X152750000Y-55107142D01*
X152892857Y-55035714D01*
X154250000Y-55678571D02*
X154250000Y-54178571D01*
X154250000Y-55607142D02*
X154107142Y-55678571D01*
X153821428Y-55678571D01*
X153678571Y-55607142D01*
X153607142Y-55535714D01*
X153535714Y-55392857D01*
X153535714Y-54964285D01*
X153607142Y-54821428D01*
X153678571Y-54750000D01*
X153821428Y-54678571D01*
X154107142Y-54678571D01*
X154250000Y-54750000D01*
X154892857Y-55607142D02*
X155035714Y-55678571D01*
X155321428Y-55678571D01*
X155464285Y-55607142D01*
X155535714Y-55464285D01*
X155535714Y-55392857D01*
X155464285Y-55250000D01*
X155321428Y-55178571D01*
X155107142Y-55178571D01*
X154964285Y-55107142D01*
X154892857Y-54964285D01*
X154892857Y-54892857D01*
X154964285Y-54750000D01*
X155107142Y-54678571D01*
X155321428Y-54678571D01*
X155464285Y-54750000D01*
X156178571Y-55678571D02*
X156178571Y-54178571D01*
X156821428Y-55678571D02*
X156821428Y-54892857D01*
X156750000Y-54750000D01*
X156607142Y-54678571D01*
X156392857Y-54678571D01*
X156250000Y-54750000D01*
X156178571Y-54821428D01*
X158178571Y-55678571D02*
X158178571Y-54892857D01*
X158107142Y-54750000D01*
X157964285Y-54678571D01*
X157678571Y-54678571D01*
X157535714Y-54750000D01*
X158178571Y-55607142D02*
X158035714Y-55678571D01*
X157678571Y-55678571D01*
X157535714Y-55607142D01*
X157464285Y-55464285D01*
X157464285Y-55321428D01*
X157535714Y-55178571D01*
X157678571Y-55107142D01*
X158035714Y-55107142D01*
X158178571Y-55035714D01*
X158750000Y-54678571D02*
X159035714Y-55678571D01*
X159321428Y-54964285D01*
X159607142Y-55678571D01*
X159892857Y-54678571D01*
X136250000Y-58228571D02*
X136250000Y-57228571D01*
X136250000Y-57371428D02*
X136321428Y-57300000D01*
X136464285Y-57228571D01*
X136678571Y-57228571D01*
X136821428Y-57300000D01*
X136892857Y-57442857D01*
X136892857Y-58228571D01*
X136892857Y-57442857D02*
X136964285Y-57300000D01*
X137107142Y-57228571D01*
X137321428Y-57228571D01*
X137464285Y-57300000D01*
X137535714Y-57442857D01*
X137535714Y-58228571D01*
X138892857Y-58228571D02*
X138892857Y-57442857D01*
X138821428Y-57300000D01*
X138678571Y-57228571D01*
X138392857Y-57228571D01*
X138250000Y-57300000D01*
X138892857Y-58157142D02*
X138750000Y-58228571D01*
X138392857Y-58228571D01*
X138250000Y-58157142D01*
X138178571Y-58014285D01*
X138178571Y-57871428D01*
X138250000Y-57728571D01*
X138392857Y-57657142D01*
X138750000Y-57657142D01*
X138892857Y-57585714D01*
X139392857Y-57228571D02*
X139964285Y-57228571D01*
X139607142Y-56728571D02*
X139607142Y-58014285D01*
X139678571Y-58157142D01*
X139821428Y-58228571D01*
X139964285Y-58228571D01*
X140250000Y-57228571D02*
X140821428Y-57228571D01*
X140464285Y-56728571D02*
X140464285Y-58014285D01*
X140535714Y-58157142D01*
X140678571Y-58228571D01*
X140821428Y-58228571D01*
X141321428Y-58228571D02*
X141321428Y-56728571D01*
X141321428Y-57300000D02*
X141464285Y-57228571D01*
X141750000Y-57228571D01*
X141892857Y-57300000D01*
X141964285Y-57371428D01*
X142035714Y-57514285D01*
X142035714Y-57942857D01*
X141964285Y-58085714D01*
X141892857Y-58157142D01*
X141750000Y-58228571D01*
X141464285Y-58228571D01*
X141321428Y-58157142D01*
X142678571Y-58228571D02*
X142678571Y-57228571D01*
X142678571Y-57514285D02*
X142750000Y-57371428D01*
X142821428Y-57300000D01*
X142964285Y-57228571D01*
X143107142Y-57228571D01*
X144250000Y-58228571D02*
X144250000Y-57442857D01*
X144178571Y-57300000D01*
X144035714Y-57228571D01*
X143750000Y-57228571D01*
X143607142Y-57300000D01*
X144250000Y-58157142D02*
X144107142Y-58228571D01*
X143750000Y-58228571D01*
X143607142Y-58157142D01*
X143535714Y-58014285D01*
X143535714Y-57871428D01*
X143607142Y-57728571D01*
X143750000Y-57657142D01*
X144107142Y-57657142D01*
X144250000Y-57585714D01*
X145607142Y-58228571D02*
X145607142Y-56728571D01*
X145607142Y-58157142D02*
X145464285Y-58228571D01*
X145178571Y-58228571D01*
X145035714Y-58157142D01*
X144964285Y-58085714D01*
X144892857Y-57942857D01*
X144892857Y-57514285D01*
X144964285Y-57371428D01*
X145035714Y-57300000D01*
X145178571Y-57228571D01*
X145464285Y-57228571D01*
X145607142Y-57300000D01*
X146250000Y-58157142D02*
X146392857Y-58228571D01*
X146678571Y-58228571D01*
X146821428Y-58157142D01*
X146892857Y-58014285D01*
X146892857Y-57942857D01*
X146821428Y-57800000D01*
X146678571Y-57728571D01*
X146464285Y-57728571D01*
X146321428Y-57657142D01*
X146250000Y-57514285D01*
X146250000Y-57442857D01*
X146321428Y-57300000D01*
X146464285Y-57228571D01*
X146678571Y-57228571D01*
X146821428Y-57300000D01*
X147535714Y-58228571D02*
X147535714Y-56728571D01*
X148178571Y-58228571D02*
X148178571Y-57442857D01*
X148107142Y-57300000D01*
X147964285Y-57228571D01*
X147750000Y-57228571D01*
X147607142Y-57300000D01*
X147535714Y-57371428D01*
X149535714Y-58228571D02*
X149535714Y-57442857D01*
X149464285Y-57300000D01*
X149321428Y-57228571D01*
X149035714Y-57228571D01*
X148892857Y-57300000D01*
X149535714Y-58157142D02*
X149392857Y-58228571D01*
X149035714Y-58228571D01*
X148892857Y-58157142D01*
X148821428Y-58014285D01*
X148821428Y-57871428D01*
X148892857Y-57728571D01*
X149035714Y-57657142D01*
X149392857Y-57657142D01*
X149535714Y-57585714D01*
X150107142Y-57228571D02*
X150392857Y-58228571D01*
X150678571Y-57514285D01*
X150964285Y-58228571D01*
X151250000Y-57228571D01*
X152464285Y-58228571D02*
X152464285Y-56728571D01*
X152464285Y-58157142D02*
X152321428Y-58228571D01*
X152035714Y-58228571D01*
X151892857Y-58157142D01*
X151821428Y-58085714D01*
X151750000Y-57942857D01*
X151750000Y-57514285D01*
X151821428Y-57371428D01*
X151892857Y-57300000D01*
X152035714Y-57228571D01*
X152321428Y-57228571D01*
X152464285Y-57300000D01*
X153750000Y-58157142D02*
X153607142Y-58228571D01*
X153321428Y-58228571D01*
X153178571Y-58157142D01*
X153107142Y-58014285D01*
X153107142Y-57442857D01*
X153178571Y-57300000D01*
X153321428Y-57228571D01*
X153607142Y-57228571D01*
X153750000Y-57300000D01*
X153821428Y-57442857D01*
X153821428Y-57585714D01*
X153107142Y-57728571D01*
X154392857Y-58157142D02*
X154535714Y-58228571D01*
X154821428Y-58228571D01*
X154964285Y-58157142D01*
X155035714Y-58014285D01*
X155035714Y-57942857D01*
X154964285Y-57800000D01*
X154821428Y-57728571D01*
X154607142Y-57728571D01*
X154464285Y-57657142D01*
X154392857Y-57514285D01*
X154392857Y-57442857D01*
X154464285Y-57300000D01*
X154607142Y-57228571D01*
X154821428Y-57228571D01*
X154964285Y-57300000D01*
X155678571Y-58228571D02*
X155678571Y-57228571D01*
X155678571Y-56728571D02*
X155607142Y-56800000D01*
X155678571Y-56871428D01*
X155750000Y-56800000D01*
X155678571Y-56728571D01*
X155678571Y-56871428D01*
X157035714Y-57228571D02*
X157035714Y-58442857D01*
X156964285Y-58585714D01*
X156892857Y-58657142D01*
X156750000Y-58728571D01*
X156535714Y-58728571D01*
X156392857Y-58657142D01*
X157035714Y-58157142D02*
X156892857Y-58228571D01*
X156607142Y-58228571D01*
X156464285Y-58157142D01*
X156392857Y-58085714D01*
X156321428Y-57942857D01*
X156321428Y-57514285D01*
X156392857Y-57371428D01*
X156464285Y-57300000D01*
X156607142Y-57228571D01*
X156892857Y-57228571D01*
X157035714Y-57300000D01*
X157750000Y-57228571D02*
X157750000Y-58228571D01*
X157750000Y-57371428D02*
X157821428Y-57300000D01*
X157964285Y-57228571D01*
X158178571Y-57228571D01*
X158321428Y-57300000D01*
X158392857Y-57442857D01*
X158392857Y-58228571D01*
X159107142Y-58085714D02*
X159178571Y-58157142D01*
X159107142Y-58228571D01*
X159035714Y-58157142D01*
X159107142Y-58085714D01*
X159107142Y-58228571D01*
X160464285Y-58157142D02*
X160321428Y-58228571D01*
X160035714Y-58228571D01*
X159892857Y-58157142D01*
X159821428Y-58085714D01*
X159750000Y-57942857D01*
X159750000Y-57514285D01*
X159821428Y-57371428D01*
X159892857Y-57300000D01*
X160035714Y-57228571D01*
X160321428Y-57228571D01*
X160464285Y-57300000D01*
X161321428Y-58228571D02*
X161178571Y-58157142D01*
X161107142Y-58085714D01*
X161035714Y-57942857D01*
X161035714Y-57514285D01*
X161107142Y-57371428D01*
X161178571Y-57300000D01*
X161321428Y-57228571D01*
X161535714Y-57228571D01*
X161678571Y-57300000D01*
X161750000Y-57371428D01*
X161821428Y-57514285D01*
X161821428Y-57942857D01*
X161750000Y-58085714D01*
X161678571Y-58157142D01*
X161535714Y-58228571D01*
X161321428Y-58228571D01*
X162464285Y-58228571D02*
X162464285Y-57228571D01*
X162464285Y-57371428D02*
X162535714Y-57300000D01*
X162678571Y-57228571D01*
X162892857Y-57228571D01*
X163035714Y-57300000D01*
X163107142Y-57442857D01*
X163107142Y-58228571D01*
X163107142Y-57442857D02*
X163178571Y-57300000D01*
X163321428Y-57228571D01*
X163535714Y-57228571D01*
X163678571Y-57300000D01*
X163750000Y-57442857D01*
X163750000Y-58228571D01*
D11*
G04 #@! TO.P,SW1,MH2*
G04 #@! TO.N,N/C*
X113993946Y-51741091D03*
G04 #@! TO.P,SW1,MH1*
X113993946Y-64241091D03*
D12*
G04 #@! TO.P,SW1,3*
G04 #@! TO.N,Net-(SW1-Pad3)*
X113993946Y-54991091D03*
G04 #@! TO.P,SW1,2*
G04 #@! TO.N,Net-(BT1-Pad1)*
X113993946Y-57991091D03*
G04 #@! TO.P,SW1,1*
G04 #@! TO.N,+5V*
X113993946Y-60991091D03*
G04 #@! TD*
D13*
G04 #@! TO.P,R1,2*
G04 #@! TO.N,/DIGITAL_9*
X139700000Y-114300000D03*
D14*
G04 #@! TO.P,R1,1*
G04 #@! TO.N,Net-(C13-Pad1)*
X139700000Y-124460000D03*
G04 #@! TD*
D13*
G04 #@! TO.P,R7,2*
G04 #@! TO.N,/DIGITAL_6*
X184150000Y-130810000D03*
D14*
G04 #@! TO.P,R7,1*
G04 #@! TO.N,Net-(D6-Pad2)*
X173990000Y-130810000D03*
G04 #@! TD*
D13*
G04 #@! TO.P,R11,2*
G04 #@! TO.N,GND*
X184150000Y-118110000D03*
D14*
G04 #@! TO.P,R11,1*
G04 #@! TO.N,Net-(C18-Pad2)*
X173990000Y-118110000D03*
G04 #@! TD*
D13*
G04 #@! TO.P,R10,2*
G04 #@! TO.N,GND*
X184150000Y-115570000D03*
D14*
G04 #@! TO.P,R10,1*
G04 #@! TO.N,Net-(R10-Pad1)*
X173990000Y-115570000D03*
G04 #@! TD*
D13*
G04 #@! TO.P,R9,2*
G04 #@! TO.N,Net-(R9-Pad2)*
X137160000Y-114300000D03*
D14*
G04 #@! TO.P,R9,1*
G04 #@! TO.N,Net-(R10-Pad1)*
X137160000Y-124460000D03*
G04 #@! TD*
D13*
G04 #@! TO.P,R8,2*
G04 #@! TO.N,Net-(C13-Pad1)*
X142240000Y-114300000D03*
D14*
G04 #@! TO.P,R8,1*
G04 #@! TO.N,Net-(C14-Pad1)*
X142240000Y-124460000D03*
G04 #@! TD*
D13*
G04 #@! TO.P,R6,2*
G04 #@! TO.N,/DIGITAL_5*
X184150000Y-128270000D03*
D14*
G04 #@! TO.P,R6,1*
G04 #@! TO.N,Net-(D5-Pad2)*
X173990000Y-128270000D03*
G04 #@! TD*
D13*
G04 #@! TO.P,R5,2*
G04 #@! TO.N,/DIGITAL_4*
X184150000Y-125730000D03*
D14*
G04 #@! TO.P,R5,1*
G04 #@! TO.N,Net-(D4-Pad2)*
X173990000Y-125730000D03*
G04 #@! TD*
D13*
G04 #@! TO.P,R4,2*
G04 #@! TO.N,/DIGITAL_3*
X184150000Y-123190000D03*
D14*
G04 #@! TO.P,R4,1*
G04 #@! TO.N,Net-(D3-Pad2)*
X173990000Y-123190000D03*
G04 #@! TD*
D13*
G04 #@! TO.P,R3,2*
G04 #@! TO.N,/DIGITAL_2*
X184150000Y-120650000D03*
D14*
G04 #@! TO.P,R3,1*
G04 #@! TO.N,Net-(D2-Pad2)*
X173990000Y-120650000D03*
G04 #@! TD*
D13*
G04 #@! TO.P,R2,2*
G04 #@! TO.N,+5V*
X184150000Y-133350000D03*
D14*
G04 #@! TO.P,R2,1*
G04 #@! TO.N,Net-(R2-Pad1)*
X173990000Y-133350000D03*
G04 #@! TD*
D15*
G04 #@! TO.P,RV1,*
G04 #@! TO.N,*
X191893946Y-59991091D03*
X183093946Y-59991091D03*
D16*
G04 #@! TO.P,RV1,1*
G04 #@! TO.N,GND*
X189993946Y-52991091D03*
G04 #@! TO.P,RV1,2*
G04 #@! TO.N,Net-(R9-Pad2)*
X187493946Y-52991091D03*
G04 #@! TO.P,RV1,3*
G04 #@! TO.N,Net-(C15-Pad2)*
X184993946Y-52991091D03*
G04 #@! TD*
G04 #@! TO.P,D6,2*
G04 #@! TO.N,Net-(D6-Pad2)*
X171290000Y-65867290D03*
D17*
G04 #@! TO.P,D6,1*
G04 #@! TO.N,GND*
X168750000Y-65867290D03*
G04 #@! TD*
D16*
G04 #@! TO.P,D5,2*
G04 #@! TO.N,Net-(D5-Pad2)*
X161290000Y-65867290D03*
D17*
G04 #@! TO.P,D5,1*
G04 #@! TO.N,GND*
X158750000Y-65867290D03*
G04 #@! TD*
D16*
G04 #@! TO.P,D4,2*
G04 #@! TO.N,Net-(D4-Pad2)*
X151290000Y-65867290D03*
D17*
G04 #@! TO.P,D4,1*
G04 #@! TO.N,GND*
X148750000Y-65867290D03*
G04 #@! TD*
D16*
G04 #@! TO.P,D3,2*
G04 #@! TO.N,Net-(D3-Pad2)*
X141290000Y-65867290D03*
D17*
G04 #@! TO.P,D3,1*
G04 #@! TO.N,GND*
X138750000Y-65867290D03*
G04 #@! TD*
D16*
G04 #@! TO.P,D2,2*
G04 #@! TO.N,Net-(D2-Pad2)*
X131290000Y-65867290D03*
D17*
G04 #@! TO.P,D2,1*
G04 #@! TO.N,GND*
X128750000Y-65867290D03*
G04 #@! TD*
D18*
G04 #@! TO.P,J9,TN*
G04 #@! TO.N,Net-(J9-PadTN)*
X152500000Y-48410000D03*
G04 #@! TO.P,J9,RN*
G04 #@! TO.N,Net-(J9-PadRN)*
X147500000Y-48410000D03*
G04 #@! TO.P,J9,T*
G04 #@! TO.N,Net-(C10-Pad2)*
X155000000Y-48410000D03*
G04 #@! TO.P,J9,R*
X145000000Y-48410000D03*
D19*
G04 #@! TO.P,J9,S*
G04 #@! TO.N,GND*
X150000000Y-43404000D03*
G04 #@! TD*
D15*
G04 #@! TO.P,RV2,*
G04 #@! TO.N,*
X114189897Y-77517290D03*
X122989897Y-77517290D03*
D16*
G04 #@! TO.P,RV2,1*
G04 #@! TO.N,GND*
X116089897Y-84517290D03*
G04 #@! TO.P,RV2,2*
G04 #@! TO.N,/ANALOG_0*
X118589897Y-84517290D03*
G04 #@! TO.P,RV2,3*
G04 #@! TO.N,+5V*
X121089897Y-84517290D03*
G04 #@! TD*
D15*
G04 #@! TO.P,RV4,*
G04 #@! TO.N,*
X163189897Y-77517290D03*
X171989897Y-77517290D03*
D16*
G04 #@! TO.P,RV4,1*
G04 #@! TO.N,GND*
X165089897Y-84517290D03*
G04 #@! TO.P,RV4,2*
G04 #@! TO.N,/ANALOG_2*
X167589897Y-84517290D03*
G04 #@! TO.P,RV4,3*
G04 #@! TO.N,+5V*
X170089897Y-84517290D03*
G04 #@! TD*
D15*
G04 #@! TO.P,RV3,*
G04 #@! TO.N,*
X128189897Y-77517290D03*
X136989897Y-77517290D03*
D16*
G04 #@! TO.P,RV3,1*
G04 #@! TO.N,GND*
X130089897Y-84517290D03*
G04 #@! TO.P,RV3,2*
G04 #@! TO.N,/ANALOG_1*
X132589897Y-84517290D03*
G04 #@! TO.P,RV3,3*
G04 #@! TO.N,+5V*
X135089897Y-84517290D03*
G04 #@! TD*
D15*
G04 #@! TO.P,RV5,*
G04 #@! TO.N,*
X177189897Y-77517290D03*
X185989897Y-77517290D03*
D16*
G04 #@! TO.P,RV5,1*
G04 #@! TO.N,GND*
X179089897Y-84517290D03*
G04 #@! TO.P,RV5,2*
G04 #@! TO.N,/ANALOG_3*
X181589897Y-84517290D03*
G04 #@! TO.P,RV5,3*
G04 #@! TO.N,+5V*
X184089897Y-84517290D03*
G04 #@! TD*
D20*
G04 #@! TO.P,SW2,1*
G04 #@! TO.N,/DIGITAL_7*
X110089897Y-102017290D03*
G04 #@! TO.P,SW2,2*
G04 #@! TO.N,GND*
X115089897Y-102017290D03*
G04 #@! TO.P,SW2,1*
G04 #@! TO.N,/DIGITAL_7*
X110089897Y-89517290D03*
G04 #@! TO.P,SW2,2*
G04 #@! TO.N,GND*
X115089897Y-89517290D03*
G04 #@! TD*
G04 #@! TO.P,SW7,1*
G04 #@! TO.N,/DIGITAL_13*
X185089897Y-102017290D03*
G04 #@! TO.P,SW7,2*
G04 #@! TO.N,GND*
X190089897Y-102017290D03*
G04 #@! TO.P,SW7,1*
G04 #@! TO.N,/DIGITAL_13*
X185089897Y-89517290D03*
G04 #@! TO.P,SW7,2*
G04 #@! TO.N,GND*
X190089897Y-89517290D03*
G04 #@! TD*
G04 #@! TO.P,SW6,1*
G04 #@! TO.N,/DIGITAL_12*
X172089897Y-102017290D03*
G04 #@! TO.P,SW6,2*
G04 #@! TO.N,GND*
X177089897Y-102017290D03*
G04 #@! TO.P,SW6,1*
G04 #@! TO.N,/DIGITAL_12*
X172089897Y-89517290D03*
G04 #@! TO.P,SW6,2*
G04 #@! TO.N,GND*
X177089897Y-89517290D03*
G04 #@! TD*
G04 #@! TO.P,SW5,1*
G04 #@! TO.N,/DIGITAL_11*
X159089897Y-102017290D03*
G04 #@! TO.P,SW5,2*
G04 #@! TO.N,GND*
X164089897Y-102017290D03*
G04 #@! TO.P,SW5,1*
G04 #@! TO.N,/DIGITAL_11*
X159089897Y-89517290D03*
G04 #@! TO.P,SW5,2*
G04 #@! TO.N,GND*
X164089897Y-89517290D03*
G04 #@! TD*
G04 #@! TO.P,SW4,1*
G04 #@! TO.N,/DIGITAL_10*
X136089897Y-102017290D03*
G04 #@! TO.P,SW4,2*
G04 #@! TO.N,GND*
X141089897Y-102017290D03*
G04 #@! TO.P,SW4,1*
G04 #@! TO.N,/DIGITAL_10*
X136089897Y-89517290D03*
G04 #@! TO.P,SW4,2*
G04 #@! TO.N,GND*
X141089897Y-89517290D03*
G04 #@! TD*
G04 #@! TO.P,SW3,1*
G04 #@! TO.N,/DIGITAL_8*
X123089897Y-102017290D03*
G04 #@! TO.P,SW3,2*
G04 #@! TO.N,GND*
X128089897Y-102017290D03*
G04 #@! TO.P,SW3,1*
G04 #@! TO.N,/DIGITAL_8*
X123089897Y-89517290D03*
G04 #@! TO.P,SW3,2*
G04 #@! TO.N,GND*
X128089897Y-89517290D03*
G04 #@! TD*
D14*
G04 #@! TO.P,C10,2*
G04 #@! TO.N,Net-(C10-Pad2)*
X170140000Y-118110000D03*
D21*
G04 #@! TO.P,C10,1*
G04 #@! TO.N,Net-(C10-Pad1)*
X167640000Y-118110000D03*
G04 #@! TD*
D22*
G04 #@! TO.P,BT1,1*
G04 #@! TO.N,Net-(BT1-Pad1)*
X177800000Y-142240000D03*
D23*
G04 #@! TO.P,BT1,2*
G04 #@! TO.N,GND*
X180340000Y-142240000D03*
G04 #@! TD*
D14*
G04 #@! TO.P,C8,2*
G04 #@! TO.N,GND*
X147360000Y-152400000D03*
D21*
G04 #@! TO.P,C8,1*
G04 #@! TO.N,+5V*
X149860000Y-152400000D03*
G04 #@! TD*
G04 #@! TO.P,C17,1*
G04 #@! TO.N,Net-(C17-Pad1)*
X147320000Y-124460000D03*
D14*
G04 #@! TO.P,C17,2*
G04 #@! TO.N,GND*
X149820000Y-124460000D03*
G04 #@! TD*
G04 #@! TO.P,C13,2*
G04 #@! TO.N,GND*
X130770000Y-130810000D03*
D21*
G04 #@! TO.P,C13,1*
G04 #@! TO.N,Net-(C13-Pad1)*
X128270000Y-130810000D03*
G04 #@! TD*
G04 #@! TO.P,C12,1*
G04 #@! TO.N,+5V*
X152400000Y-134620000D03*
D14*
G04 #@! TO.P,C12,2*
G04 #@! TO.N,GND*
X149900000Y-134620000D03*
G04 #@! TD*
G04 #@! TO.P,C11,2*
G04 #@! TO.N,GND*
X159980000Y-152400000D03*
D21*
G04 #@! TO.P,C11,1*
G04 #@! TO.N,+5V*
X157480000Y-152400000D03*
G04 #@! TD*
G04 #@! TO.P,C7,1*
G04 #@! TO.N,+5V*
X160020000Y-134620000D03*
D14*
G04 #@! TO.P,C7,2*
G04 #@! TO.N,GND*
X162520000Y-134620000D03*
G04 #@! TD*
D21*
G04 #@! TO.P,C15,1*
G04 #@! TO.N,Net-(C14-Pad1)*
X128270000Y-118110000D03*
D14*
G04 #@! TO.P,C15,2*
G04 #@! TO.N,Net-(C15-Pad2)*
X130770000Y-118110000D03*
G04 #@! TD*
G04 #@! TO.P,C9,1*
G04 #@! TO.N,GND*
X154940000Y-149860000D03*
G04 #@! TO.P,C9,2*
G04 #@! TO.N,+5V*
X152440000Y-149860000D03*
G04 #@! TD*
G04 #@! TO.P,C6,2*
G04 #@! TO.N,GND*
X144740000Y-129540000D03*
G04 #@! TO.P,C6,1*
G04 #@! TO.N,Net-(C6-Pad1)*
X142240000Y-129540000D03*
G04 #@! TD*
G04 #@! TO.P,C14,1*
G04 #@! TO.N,Net-(C14-Pad1)*
X128270000Y-124460000D03*
G04 #@! TO.P,C14,2*
G04 #@! TO.N,GND*
X130770000Y-124460000D03*
G04 #@! TD*
G04 #@! TO.P,C5,2*
G04 #@! TO.N,GND*
X139660000Y-129540000D03*
G04 #@! TO.P,C5,1*
G04 #@! TO.N,Net-(C5-Pad1)*
X137160000Y-129540000D03*
G04 #@! TD*
G04 #@! TO.P,C16,1*
G04 #@! TO.N,+5V*
X167680000Y-130810000D03*
G04 #@! TO.P,C16,2*
G04 #@! TO.N,Net-(C16-Pad2)*
X170180000Y-130810000D03*
G04 #@! TD*
G04 #@! TO.P,C4,2*
G04 #@! TO.N,+5V*
X157440000Y-137160000D03*
G04 #@! TO.P,C4,1*
G04 #@! TO.N,GND*
X154940000Y-137160000D03*
G04 #@! TD*
G04 #@! TO.P,C18,1*
G04 #@! TO.N,Net-(C10-Pad1)*
X167640000Y-125730000D03*
G04 #@! TO.P,C18,2*
G04 #@! TO.N,Net-(C18-Pad2)*
X170140000Y-125730000D03*
G04 #@! TD*
D23*
G04 #@! TO.P,J1,4*
G04 #@! TO.N,GND*
X125730000Y-146050000D03*
G04 #@! TO.P,J1,3*
X125730000Y-143510000D03*
G04 #@! TO.P,J1,2*
G04 #@! TO.N,+5V*
X125730000Y-140970000D03*
D22*
G04 #@! TO.P,J1,1*
X125730000Y-138430000D03*
G04 #@! TD*
G04 #@! TO.P,J6,1*
G04 #@! TO.N,/DIGITAL_5*
X118110000Y-115570000D03*
D23*
G04 #@! TO.P,J6,2*
G04 #@! TO.N,/DIGITAL_6*
X118110000Y-118110000D03*
G04 #@! TO.P,J6,3*
G04 #@! TO.N,/DIGITAL_7*
X118110000Y-120650000D03*
G04 #@! TO.P,J6,4*
G04 #@! TO.N,/DIGITAL_8*
X118110000Y-123190000D03*
G04 #@! TD*
G04 #@! TO.P,J8,5*
G04 #@! TO.N,/DIGITAL_13*
X118110000Y-135890000D03*
G04 #@! TO.P,J8,4*
G04 #@! TO.N,/DIGITAL_12*
X118110000Y-133350000D03*
G04 #@! TO.P,J8,3*
G04 #@! TO.N,/DIGITAL_11*
X118110000Y-130810000D03*
G04 #@! TO.P,J8,2*
G04 #@! TO.N,/DIGITAL_10*
X118110000Y-128270000D03*
D22*
G04 #@! TO.P,J8,1*
G04 #@! TO.N,/DIGITAL_9*
X118110000Y-125730000D03*
G04 #@! TD*
G04 #@! TO.P,J5,1*
G04 #@! TO.N,/DIGITAL_0*
X120650000Y-125730000D03*
D23*
G04 #@! TO.P,J5,2*
G04 #@! TO.N,/DIGITAL_1*
X120650000Y-123190000D03*
G04 #@! TO.P,J5,3*
G04 #@! TO.N,/DIGITAL_2*
X120650000Y-120650000D03*
G04 #@! TO.P,J5,4*
G04 #@! TO.N,/DIGITAL_3*
X120650000Y-118110000D03*
G04 #@! TO.P,J5,5*
G04 #@! TO.N,/DIGITAL_4*
X120650000Y-115570000D03*
G04 #@! TD*
D22*
G04 #@! TO.P,J7,1*
G04 #@! TO.N,/ANALOG_0*
X120650000Y-140970000D03*
D23*
G04 #@! TO.P,J7,2*
G04 #@! TO.N,/ANALOG_1*
X120650000Y-138430000D03*
G04 #@! TO.P,J7,3*
G04 #@! TO.N,/ANALOG_2*
X120650000Y-135890000D03*
G04 #@! TO.P,J7,4*
G04 #@! TO.N,/ANALOG_3*
X120650000Y-133350000D03*
G04 #@! TO.P,J7,5*
G04 #@! TO.N,/ANALOG_4*
X120650000Y-130810000D03*
G04 #@! TO.P,J7,6*
G04 #@! TO.N,/ANALOG_5*
X120650000Y-128270000D03*
G04 #@! TD*
D24*
G04 #@! TO.P,Y1,1*
G04 #@! TO.N,Net-(C5-Pad1)*
X137160000Y-134620000D03*
G04 #@! TO.P,Y1,2*
G04 #@! TO.N,Net-(C6-Pad1)*
X142040000Y-134620000D03*
G04 #@! TD*
D21*
G04 #@! TO.P,U2,1*
G04 #@! TO.N,Net-(R2-Pad1)*
X172720000Y-139700000D03*
D13*
G04 #@! TO.P,U2,15*
G04 #@! TO.N,/DIGITAL_9*
X139700000Y-147320000D03*
G04 #@! TO.P,U2,2*
G04 #@! TO.N,/DIGITAL_0*
X170180000Y-139700000D03*
G04 #@! TO.P,U2,16*
G04 #@! TO.N,/DIGITAL_10*
X142240000Y-147320000D03*
G04 #@! TO.P,U2,3*
G04 #@! TO.N,/DIGITAL_1*
X167640000Y-139700000D03*
G04 #@! TO.P,U2,17*
G04 #@! TO.N,/DIGITAL_11*
X144780000Y-147320000D03*
G04 #@! TO.P,U2,4*
G04 #@! TO.N,/DIGITAL_2*
X165100000Y-139700000D03*
G04 #@! TO.P,U2,18*
G04 #@! TO.N,/DIGITAL_12*
X147320000Y-147320000D03*
G04 #@! TO.P,U2,5*
G04 #@! TO.N,/DIGITAL_3*
X162560000Y-139700000D03*
G04 #@! TO.P,U2,19*
G04 #@! TO.N,/DIGITAL_13*
X149860000Y-147320000D03*
G04 #@! TO.P,U2,6*
G04 #@! TO.N,/DIGITAL_4*
X160020000Y-139700000D03*
G04 #@! TO.P,U2,20*
G04 #@! TO.N,+5V*
X152400000Y-147320000D03*
G04 #@! TO.P,U2,7*
X157480000Y-139700000D03*
G04 #@! TO.P,U2,21*
G04 #@! TO.N,Net-(U2-Pad21)*
X154940000Y-147320000D03*
G04 #@! TO.P,U2,8*
G04 #@! TO.N,GND*
X154940000Y-139700000D03*
G04 #@! TO.P,U2,22*
X157480000Y-147320000D03*
G04 #@! TO.P,U2,9*
G04 #@! TO.N,Net-(C5-Pad1)*
X152400000Y-139700000D03*
G04 #@! TO.P,U2,23*
G04 #@! TO.N,/ANALOG_0*
X160020000Y-147320000D03*
G04 #@! TO.P,U2,10*
G04 #@! TO.N,Net-(C6-Pad1)*
X149860000Y-139700000D03*
G04 #@! TO.P,U2,24*
G04 #@! TO.N,/ANALOG_1*
X162560000Y-147320000D03*
G04 #@! TO.P,U2,11*
G04 #@! TO.N,/DIGITAL_5*
X147320000Y-139700000D03*
G04 #@! TO.P,U2,25*
G04 #@! TO.N,/ANALOG_2*
X165100000Y-147320000D03*
G04 #@! TO.P,U2,12*
G04 #@! TO.N,/DIGITAL_6*
X144780000Y-139700000D03*
G04 #@! TO.P,U2,26*
G04 #@! TO.N,/ANALOG_3*
X167640000Y-147320000D03*
G04 #@! TO.P,U2,13*
G04 #@! TO.N,/DIGITAL_7*
X142240000Y-139700000D03*
G04 #@! TO.P,U2,27*
G04 #@! TO.N,/ANALOG_4*
X170180000Y-147320000D03*
G04 #@! TO.P,U2,14*
G04 #@! TO.N,/DIGITAL_8*
X139700000Y-139700000D03*
G04 #@! TO.P,U2,28*
G04 #@! TO.N,/ANALOG_5*
X172720000Y-147320000D03*
G04 #@! TD*
D21*
G04 #@! TO.P,U3,1*
G04 #@! TO.N,Net-(U3-Pad1)*
X154993946Y-123190000D03*
D13*
G04 #@! TO.P,U3,5*
G04 #@! TO.N,Net-(C10-Pad1)*
X162613946Y-115570000D03*
G04 #@! TO.P,U3,2*
G04 #@! TO.N,GND*
X157533946Y-123190000D03*
G04 #@! TO.P,U3,6*
G04 #@! TO.N,+5V*
X160073946Y-115570000D03*
G04 #@! TO.P,U3,3*
G04 #@! TO.N,Net-(R10-Pad1)*
X160073946Y-123190000D03*
G04 #@! TO.P,U3,7*
G04 #@! TO.N,Net-(C17-Pad1)*
X157533946Y-115570000D03*
G04 #@! TO.P,U3,4*
G04 #@! TO.N,Net-(C16-Pad2)*
X162613946Y-123190000D03*
G04 #@! TO.P,U3,8*
G04 #@! TO.N,Net-(U3-Pad8)*
X154993946Y-115570000D03*
G04 #@! TD*
D25*
G04 #@! TO.N,GND*
X157580000Y-142090000D03*
X153990000Y-130700000D03*
X163170000Y-152380000D03*
G04 #@! TO.N,+5V*
X155620000Y-111290000D03*
G04 #@! TO.N,Net-(C13-Pad1)*
X140995400Y-132765800D03*
G04 #@! TO.N,/DIGITAL_9*
X124256800Y-117043200D03*
G04 #@! TO.N,/DIGITAL_10*
X114376200Y-128295400D03*
G04 #@! TO.N,/DIGITAL_11*
X114325400Y-130810000D03*
G04 #@! TO.N,/DIGITAL_12*
X114249200Y-133324600D03*
G04 #@! TO.N,/DIGITAL_13*
X163830000Y-148869400D03*
G04 #@! TO.N,Net-(C5-Pad1)*
X134162800Y-131210001D03*
X152323800Y-137849999D03*
G04 #@! TO.N,Net-(C6-Pad1)*
X149783800Y-137617200D03*
G04 #@! TD*
D26*
G04 #@! TO.N,GND*
X128089897Y-102017290D02*
X128089897Y-99892290D01*
X164089897Y-102017290D02*
X164089897Y-99892290D01*
X150951370Y-124460000D02*
X149820000Y-124460000D01*
X150993871Y-124502501D02*
X150951370Y-124460000D01*
X156221445Y-124502501D02*
X150993871Y-124502501D01*
X157533946Y-123190000D02*
X156221445Y-124502501D01*
X157580000Y-147220000D02*
X157480000Y-147320000D01*
X157580000Y-142090000D02*
X157580000Y-147220000D01*
X152830000Y-129540000D02*
X144740000Y-129540000D01*
X153990000Y-130700000D02*
X152830000Y-129540000D01*
X148159999Y-153199999D02*
X147360000Y-152400000D01*
X148672501Y-153712501D02*
X148159999Y-153199999D01*
X158667499Y-153712501D02*
X148672501Y-153712501D01*
X159980000Y-152400000D02*
X158667499Y-153712501D01*
X154940000Y-149860000D02*
X157480000Y-147320000D01*
X157440000Y-149860000D02*
X159980000Y-152400000D01*
X154940000Y-149860000D02*
X157440000Y-149860000D01*
X171402081Y-152380000D02*
X163170000Y-152380000D01*
X180340000Y-142240000D02*
X180340000Y-143442081D01*
X180340000Y-143442081D02*
X171402081Y-152380000D01*
G04 #@! TO.N,+5V*
X152400000Y-144780000D02*
X157480000Y-139700000D01*
X152400000Y-147320000D02*
X152400000Y-144780000D01*
X152400000Y-149820000D02*
X152440000Y-149860000D01*
X152400000Y-147320000D02*
X152400000Y-149820000D01*
X152400000Y-149860000D02*
X149860000Y-152400000D01*
X152440000Y-149860000D02*
X152400000Y-149860000D01*
X154980000Y-152400000D02*
X157480000Y-152400000D01*
X152440000Y-149860000D02*
X154980000Y-152400000D01*
X160073946Y-115570000D02*
X165252400Y-120748454D01*
X165252400Y-128382400D02*
X167680000Y-130810000D01*
X165252400Y-120748454D02*
X165252400Y-128382400D01*
X155793946Y-111290000D02*
X160073946Y-115570000D01*
X155620000Y-111290000D02*
X155793946Y-111290000D01*
D27*
G04 #@! TO.N,Net-(R2-Pad1)*
X172720000Y-134620000D02*
X173990000Y-133350000D01*
X172720000Y-139700000D02*
X172720000Y-134620000D01*
G04 #@! TO.N,/DIGITAL_2*
X165100000Y-140831370D02*
X165100000Y-139700000D01*
X161145001Y-144786369D02*
X165100000Y-140831370D01*
X161145001Y-152900001D02*
X161145001Y-144786369D01*
X159024973Y-155020029D02*
X161145001Y-152900001D01*
X130505796Y-155020028D02*
X159024973Y-155020029D01*
X114219970Y-138734202D02*
X130505796Y-155020028D01*
X120650000Y-120650000D02*
X119474999Y-119474999D01*
X119474999Y-119474999D02*
X117545999Y-119474999D01*
X117545999Y-119474999D02*
X112358580Y-124662418D01*
X112358580Y-124662418D02*
X112358581Y-137074191D01*
X112358581Y-137074191D02*
X114018592Y-138734202D01*
X114018592Y-138734202D02*
X114219970Y-138734202D01*
G04 #@! TO.N,Net-(D2-Pad2)*
X173190001Y-119850001D02*
X173990000Y-120650000D01*
X173190001Y-119494999D02*
X173190001Y-119850001D01*
X151925001Y-98229999D02*
X173190001Y-119494999D01*
X151925001Y-86502291D02*
X151925001Y-98229999D01*
X131290000Y-65867290D02*
X151925001Y-86502291D01*
G04 #@! TO.N,Net-(D3-Pad2)*
X174530001Y-116984999D02*
X175996600Y-118451598D01*
X171316411Y-116984999D02*
X174530001Y-116984999D01*
X152375011Y-98043599D02*
X171316411Y-116984999D01*
X152375011Y-86315891D02*
X152375011Y-98043599D01*
X141290000Y-65867290D02*
X141290000Y-75230880D01*
X141290000Y-75230880D02*
X152375011Y-86315891D01*
X175996600Y-121183400D02*
X173990000Y-123190000D01*
X175996600Y-118451598D02*
X175996600Y-121183400D01*
G04 #@! TO.N,/DIGITAL_3*
X154795001Y-131935001D02*
X162560000Y-139700000D01*
X133840001Y-131935001D02*
X154795001Y-131935001D01*
X122275011Y-120370011D02*
X133840001Y-131935001D01*
X119474999Y-116934999D02*
X119474999Y-115005999D01*
X120650000Y-118110000D02*
X119474999Y-116934999D01*
X119474999Y-115005999D02*
X120085999Y-114394999D01*
X120085999Y-114394999D02*
X121214001Y-114394999D01*
X121214001Y-114394999D02*
X122275011Y-115456009D01*
X122275011Y-115456009D02*
X122275011Y-120370011D01*
G04 #@! TO.N,/DIGITAL_4*
X121499999Y-116419999D02*
X120650000Y-115570000D01*
X121825001Y-116745001D02*
X121499999Y-116419999D01*
X121825001Y-126550003D02*
X121825001Y-116745001D01*
X133849997Y-138574999D02*
X121825001Y-126550003D01*
X158894999Y-138574999D02*
X133849997Y-138574999D01*
X160020000Y-139700000D02*
X158894999Y-138574999D01*
G04 #@! TO.N,Net-(D4-Pad2)*
X174789999Y-124930001D02*
X173990000Y-125730000D01*
X176446610Y-123273390D02*
X174789999Y-124930001D01*
X176446610Y-116361608D02*
X176446610Y-123273390D01*
X170514887Y-93464880D02*
X170514887Y-110429885D01*
X152189999Y-75139992D02*
X170514887Y-93464880D01*
X152189999Y-66767289D02*
X152189999Y-75139992D01*
X170514887Y-110429885D02*
X176446610Y-116361608D01*
X151290000Y-65867290D02*
X152189999Y-66767289D01*
G04 #@! TO.N,Net-(D5-Pad2)*
X174789999Y-127470001D02*
X173990000Y-128270000D01*
X176896620Y-125363380D02*
X174789999Y-127470001D01*
X176896620Y-116175208D02*
X176896620Y-125363380D01*
X175514887Y-114793475D02*
X176896620Y-116175208D01*
X175514887Y-90464880D02*
X175514887Y-114793475D01*
X166451885Y-87692280D02*
X172742287Y-87692280D01*
X172742287Y-87692280D02*
X175514887Y-90464880D01*
X159816800Y-81057195D02*
X166451885Y-87692280D01*
X159816800Y-67340490D02*
X159816800Y-81057195D01*
X161290000Y-65867290D02*
X159816800Y-67340490D01*
G04 #@! TO.N,Net-(C13-Pad1)*
X129175800Y-132765800D02*
X140995400Y-132765800D01*
X128270000Y-130810000D02*
X128270000Y-131860000D01*
X128270000Y-131860000D02*
X129175800Y-132765800D01*
G04 #@! TO.N,Net-(C14-Pad1)*
X131895001Y-120834999D02*
X129069999Y-123660001D01*
X131895001Y-117569999D02*
X131895001Y-120834999D01*
X131310001Y-116984999D02*
X131895001Y-117569999D01*
X128345001Y-116984999D02*
X131310001Y-116984999D01*
X128270000Y-117060000D02*
X128345001Y-116984999D01*
X128270000Y-118110000D02*
X128270000Y-117060000D01*
X129069999Y-123660001D02*
X128270000Y-124460000D01*
X129395001Y-123334999D02*
X129069999Y-123660001D01*
X141114999Y-123334999D02*
X129395001Y-123334999D01*
X142240000Y-124460000D02*
X141114999Y-123334999D01*
G04 #@! TO.N,Net-(R10-Pad1)*
X137959999Y-125259999D02*
X137160000Y-124460000D01*
X138285001Y-125585001D02*
X137959999Y-125259999D01*
X157678945Y-125585001D02*
X138285001Y-125585001D01*
X160073946Y-123190000D02*
X157678945Y-125585001D01*
G04 #@! TO.N,Net-(C18-Pad2)*
X175115001Y-119235001D02*
X174789999Y-118909999D01*
X175115001Y-121190001D02*
X175115001Y-119235001D01*
X174530001Y-121775001D02*
X175115001Y-121190001D01*
X173739997Y-121775001D02*
X174530001Y-121775001D01*
X170939999Y-124574999D02*
X173739997Y-121775001D01*
X174789999Y-118909999D02*
X173990000Y-118110000D01*
X170939999Y-124930001D02*
X170939999Y-124574999D01*
X170140000Y-125730000D02*
X170939999Y-124930001D01*
G04 #@! TO.N,Net-(D6-Pad2)*
X174789999Y-130010001D02*
X173990000Y-130810000D01*
X178664907Y-126135093D02*
X174789999Y-130010001D01*
X178664907Y-88614900D02*
X178664907Y-126135093D01*
X174864896Y-84814889D02*
X178664907Y-88614900D01*
X174864896Y-69442186D02*
X174864896Y-84814889D01*
X171290000Y-65867290D02*
X174864896Y-69442186D01*
G04 #@! TO.N,/DIGITAL_9*
X120275997Y-129634999D02*
X122014999Y-129634999D01*
X119380000Y-128739002D02*
X120275997Y-129634999D01*
X119380000Y-126745002D02*
X119380000Y-128739002D01*
X118110000Y-125730000D02*
X118364998Y-125730000D01*
X118364998Y-125730000D02*
X119380000Y-126745002D01*
X124460000Y-132080000D02*
X124460000Y-140967180D01*
X122014999Y-129634999D02*
X124460000Y-132080000D01*
X124460000Y-140967180D02*
X132082820Y-148590000D01*
X138430000Y-148590000D02*
X139700000Y-147320000D01*
X132082820Y-148590000D02*
X138430000Y-148590000D01*
X138900001Y-113500001D02*
X139700000Y-114300000D01*
X138574999Y-113174999D02*
X138900001Y-113500001D01*
X128125001Y-113174999D02*
X138574999Y-113174999D01*
X124256800Y-117043200D02*
X128125001Y-113174999D01*
G04 #@! TO.N,/ANALOG_3*
X167995600Y-147320000D02*
X167640000Y-147320000D01*
X181589897Y-133725703D02*
X167995600Y-147320000D01*
X181589897Y-84517290D02*
X181589897Y-133725703D01*
G04 #@! TO.N,Net-(C15-Pad2)*
X129970001Y-118909999D02*
X130770000Y-118110000D01*
X129644999Y-119235001D02*
X129970001Y-118909999D01*
X125375599Y-119235001D02*
X129644999Y-119235001D01*
X121400402Y-113944990D02*
X123531799Y-116076387D01*
X119540196Y-113944989D02*
X121400402Y-113944990D01*
X123531799Y-116076387D02*
X123531799Y-117391201D01*
X123531799Y-117391201D02*
X125375599Y-119235001D01*
X184993946Y-52991091D02*
X184092445Y-53892592D01*
X111864896Y-106269689D02*
X114670000Y-109074793D01*
X111864896Y-76401289D02*
X111864896Y-106269689D01*
X135275094Y-52991091D02*
X111864896Y-76401289D01*
X184993946Y-52991091D02*
X135275094Y-52991091D01*
X114670000Y-109074793D02*
X119540196Y-113944989D01*
G04 #@! TO.N,/ANALOG_1*
X166225001Y-143654999D02*
X163359999Y-146520001D01*
X171305001Y-134079999D02*
X166225001Y-139159999D01*
X163359999Y-146520001D02*
X162560000Y-147320000D01*
X166225001Y-139159999D02*
X166225001Y-143654999D01*
X165889910Y-128118336D02*
X169153338Y-128118336D01*
X171305001Y-130269999D02*
X171305001Y-134079999D01*
X165889910Y-120484389D02*
X165889910Y-128118336D01*
X169153338Y-128118336D02*
X171305001Y-130269999D01*
X161198947Y-115793426D02*
X165889910Y-120484389D01*
X161198947Y-115029999D02*
X161198947Y-115793426D01*
X138489917Y-92320969D02*
X161198947Y-115029999D01*
X138489917Y-86104308D02*
X138489917Y-92320969D01*
X135677898Y-83292289D02*
X138489917Y-86104308D01*
X133814898Y-83292289D02*
X135677898Y-83292289D01*
X132589897Y-84517290D02*
X133814898Y-83292289D01*
G04 #@! TO.N,/ANALOG_2*
X165899999Y-146520001D02*
X165100000Y-147320000D01*
X166225001Y-146194999D02*
X165899999Y-146520001D01*
X168410003Y-146194999D02*
X166225001Y-146194999D01*
X180314898Y-134290104D02*
X168410003Y-146194999D01*
X170701999Y-64642289D02*
X171878001Y-64642289D01*
X170064999Y-65279289D02*
X170701999Y-64642289D01*
X170064999Y-67729291D02*
X170064999Y-65279289D01*
X180314898Y-73079186D02*
X180314898Y-134290104D01*
X169277787Y-68516503D02*
X170064999Y-67729291D01*
X169277787Y-82829400D02*
X169277787Y-68516503D01*
X171878001Y-64642289D02*
X180314898Y-73079186D01*
X167589897Y-84517290D02*
X169277787Y-82829400D01*
G04 #@! TO.N,/ANALOG_0*
X160020000Y-146188630D02*
X160020000Y-147320000D01*
X163685001Y-141609959D02*
X160020000Y-145274960D01*
X163685001Y-139159999D02*
X163685001Y-141609959D01*
X161198947Y-122649999D02*
X161198947Y-136673945D01*
X160613947Y-122064999D02*
X161198947Y-122649999D01*
X148339997Y-122064999D02*
X160613947Y-122064999D01*
X141114999Y-114840001D02*
X148339997Y-122064999D01*
X141114999Y-114049997D02*
X141114999Y-114840001D01*
X139789991Y-112724989D02*
X141114999Y-114049997D01*
X119726597Y-104512985D02*
X127938601Y-112724989D01*
X161198947Y-136673945D02*
X163685001Y-139159999D01*
X160020000Y-145274960D02*
X160020000Y-146188630D01*
X127938601Y-112724989D02*
X139789991Y-112724989D01*
X119726597Y-86926782D02*
X119726597Y-92720000D01*
X118589897Y-85790082D02*
X119726597Y-86926782D01*
X118589897Y-84517290D02*
X118589897Y-85790082D01*
X119726597Y-91146067D02*
X119726597Y-92720000D01*
X119726597Y-92720000D02*
X119726597Y-104512985D01*
G04 #@! TO.N,Net-(C10-Pad1)*
X165153946Y-118110000D02*
X167640000Y-118110000D01*
X162613946Y-115570000D02*
X165153946Y-118110000D01*
G04 #@! TO.N,Net-(C16-Pad2)*
X162613946Y-124321370D02*
X162613946Y-123190000D01*
X162613946Y-127408948D02*
X162613946Y-124321370D01*
X167919998Y-132715000D02*
X162613946Y-127408948D01*
X168275000Y-132715000D02*
X167919998Y-132715000D01*
X170180000Y-130810000D02*
X168275000Y-132715000D01*
G04 #@! TO.N,/DIGITAL_10*
X123190000Y-134150998D02*
X123190000Y-140333590D01*
X121214001Y-132174999D02*
X123190000Y-134150998D01*
X120275997Y-132174999D02*
X121214001Y-132174999D01*
X119474999Y-131374001D02*
X120275997Y-132174999D01*
X118110000Y-128270000D02*
X119474999Y-129634999D01*
X119474999Y-129634999D02*
X119474999Y-131374001D01*
X123190000Y-140333590D02*
X132266400Y-149409990D01*
X140150010Y-149409990D02*
X142240000Y-147320000D01*
X132266400Y-149409990D02*
X140150010Y-149409990D01*
X118084600Y-128295400D02*
X118110000Y-128270000D01*
X114376200Y-128295400D02*
X118084600Y-128295400D01*
X136089897Y-102017290D02*
X136089897Y-89517290D01*
G04 #@! TO.N,/DIGITAL_11*
X120275997Y-139794999D02*
X122014999Y-139794999D01*
X119380000Y-138899002D02*
X120275997Y-139794999D01*
X118110000Y-130810000D02*
X119380000Y-132080000D01*
X119380000Y-132080000D02*
X119380000Y-138899002D01*
X122014999Y-139794999D02*
X132080000Y-149860000D01*
X142240000Y-149860000D02*
X144780000Y-147320000D01*
X132080000Y-149860000D02*
X142240000Y-149860000D01*
X114325400Y-130810000D02*
X118110000Y-130810000D01*
X159089897Y-100267290D02*
X159089897Y-89517290D01*
X159089897Y-102017290D02*
X159089897Y-100267290D01*
G04 #@! TO.N,/DIGITAL_12*
X115570000Y-138175002D02*
X131064998Y-153670000D01*
X118110000Y-133350000D02*
X115570000Y-135890000D01*
X115570000Y-135890000D02*
X115570000Y-138175002D01*
X147320000Y-148451370D02*
X147320000Y-147320000D01*
X118084600Y-133324600D02*
X118110000Y-133350000D01*
X114249200Y-133324600D02*
X118084600Y-133324600D01*
X172089897Y-102017290D02*
X172089897Y-89517290D01*
X141064999Y-152774003D02*
X141064999Y-151265001D01*
X131064998Y-153670000D02*
X140169002Y-153670000D01*
X140169002Y-153670000D02*
X141064999Y-152774003D01*
X146512168Y-150310010D02*
X147217176Y-149605002D01*
X142019990Y-150310010D02*
X146512168Y-150310010D01*
X141064999Y-151265001D02*
X142019990Y-150310010D01*
X147217176Y-149605002D02*
X147217176Y-149582824D01*
X147320000Y-149480000D02*
X147320000Y-148451370D01*
X147217176Y-149582824D02*
X147320000Y-149480000D01*
G04 #@! TO.N,/DIGITAL_13*
X185089897Y-102017290D02*
X185089897Y-102267290D01*
X185089897Y-102017290D02*
X185089897Y-89517290D01*
X185275001Y-103952394D02*
X185275001Y-136430001D01*
X185089897Y-102017290D02*
X185089897Y-103767290D01*
X185089897Y-103767290D02*
X185275001Y-103952394D01*
X173845001Y-147860001D02*
X172835602Y-148869400D01*
X173845001Y-143909997D02*
X173845001Y-147860001D01*
X181324997Y-136430001D02*
X173845001Y-143909997D01*
X185275001Y-136430001D02*
X181324997Y-136430001D01*
X172835602Y-148869400D02*
X171780000Y-148869400D01*
X171780000Y-148869400D02*
X163830000Y-148869400D01*
G04 #@! TO.N,Net-(C5-Pad1)*
X135489999Y-131210001D02*
X137160000Y-129540000D01*
X134162800Y-131210001D02*
X135489999Y-131210001D01*
X151464997Y-137849999D02*
X152323800Y-137849999D01*
X147159997Y-133544999D02*
X151464997Y-137849999D01*
X137160000Y-134620000D02*
X138235001Y-133544999D01*
X138235001Y-133544999D02*
X147159997Y-133544999D01*
G04 #@! TO.N,Net-(C6-Pad1)*
X142040000Y-134620000D02*
X146786600Y-134620000D01*
X146786600Y-134620000D02*
X149783800Y-137617200D01*
G04 #@! TO.N,/DIGITAL_7*
X110089897Y-102017290D02*
X110089897Y-89517290D01*
X150985001Y-149089997D02*
X150985001Y-146779999D01*
X148734999Y-146194999D02*
X142240000Y-139700000D01*
X148964998Y-151110000D02*
X150985001Y-149089997D01*
X150400001Y-146194999D02*
X148734999Y-146194999D01*
X146984998Y-151110000D02*
X148964998Y-151110000D01*
X146234999Y-151859999D02*
X146984998Y-151110000D01*
X150985001Y-146779999D02*
X150400001Y-146194999D01*
X146234999Y-152085001D02*
X146234999Y-151859999D01*
X143749981Y-154570019D02*
X146234999Y-152085001D01*
X112808590Y-125951410D02*
X112808590Y-136887790D01*
X118110000Y-120650000D02*
X112808590Y-125951410D01*
X112808590Y-136887790D02*
X114204993Y-138284193D01*
X114204993Y-138284193D02*
X114406371Y-138284193D01*
X114406371Y-138284193D02*
X130692197Y-154570019D01*
X130692197Y-154570019D02*
X143749981Y-154570019D01*
G04 #@! TO.N,/DIGITAL_8*
X143441402Y-154120010D02*
X130878598Y-154120010D01*
X148445001Y-146779999D02*
X148445001Y-149116411D01*
X146194999Y-146194999D02*
X147860001Y-146194999D01*
X147860001Y-146194999D02*
X148445001Y-146779999D01*
X139700000Y-139700000D02*
X146194999Y-146194999D01*
X113258600Y-136500012D02*
X115316000Y-138557412D01*
X113258600Y-128041400D02*
X113258600Y-136500012D01*
X118110000Y-123190000D02*
X113258600Y-128041400D01*
X130878598Y-154120010D02*
X115316000Y-138557412D01*
X115316000Y-138557412D02*
X115119990Y-138361402D01*
X123089897Y-100267290D02*
X123089897Y-89517290D01*
X123089897Y-102017290D02*
X123089897Y-100267290D01*
X147506400Y-150055012D02*
X148445001Y-149116411D01*
X147403576Y-150055012D02*
X147506400Y-150055012D01*
X143705012Y-153753576D02*
X147403576Y-150055012D01*
X143705012Y-153856400D02*
X143705012Y-153753576D01*
X143441402Y-154120010D02*
X143705012Y-153856400D01*
G04 #@! TD*
D28*
G04 #@! TO.N,GND*
G36*
X190757583Y-40746966D02*
X191497086Y-40949271D01*
X192189074Y-41279333D01*
X192811679Y-41726720D01*
X193345214Y-42277286D01*
X193772822Y-42913635D01*
X194080987Y-43615652D01*
X194261229Y-44366411D01*
X194308946Y-45016203D01*
X194308946Y-58935830D01*
X194127791Y-58498483D01*
X193386554Y-57757246D01*
X192418080Y-57356091D01*
X191369812Y-57356091D01*
X190401338Y-57757246D01*
X189660101Y-58498483D01*
X189258946Y-59466957D01*
X189258946Y-60515225D01*
X189660101Y-61483699D01*
X190401338Y-62224936D01*
X191369812Y-62626091D01*
X192418080Y-62626091D01*
X193386554Y-62224936D01*
X194127791Y-61483699D01*
X194308946Y-61046352D01*
X194308947Y-129978796D01*
X194233484Y-132087009D01*
X194008802Y-134172198D01*
X193635609Y-136235981D01*
X193115813Y-138267811D01*
X192452080Y-140257268D01*
X191647810Y-142194167D01*
X190707099Y-144068636D01*
X189634788Y-145871029D01*
X188436354Y-147592143D01*
X187117922Y-149223178D01*
X185686261Y-150755763D01*
X184148677Y-152182076D01*
X182513071Y-153494787D01*
X180787770Y-154687217D01*
X178981645Y-155753229D01*
X177103927Y-156687381D01*
X175164210Y-157484894D01*
X173172451Y-158141678D01*
X171138826Y-158654377D01*
X169073750Y-159020364D01*
X166987182Y-159237830D01*
X164982297Y-159306091D01*
X135006214Y-159306091D01*
X132898028Y-159230629D01*
X130812839Y-159005947D01*
X128749056Y-158632754D01*
X126717226Y-158112958D01*
X124727769Y-157449225D01*
X122790870Y-156644955D01*
X120916401Y-155704244D01*
X119114008Y-154631933D01*
X117392894Y-153433499D01*
X115761859Y-152115067D01*
X114229274Y-150683406D01*
X113174664Y-149546522D01*
X117758946Y-149546522D01*
X117758946Y-150435660D01*
X118099205Y-151257117D01*
X118727920Y-151885832D01*
X119549377Y-152226091D01*
X120438515Y-152226091D01*
X121259972Y-151885832D01*
X121888687Y-151257117D01*
X122228946Y-150435660D01*
X122228946Y-149546522D01*
X121888687Y-148725065D01*
X121259972Y-148096350D01*
X120438515Y-147756091D01*
X119549377Y-147756091D01*
X118727920Y-148096350D01*
X118099205Y-148725065D01*
X117758946Y-149546522D01*
X113174664Y-149546522D01*
X112802961Y-149145822D01*
X111490250Y-147510216D01*
X110297820Y-145784915D01*
X109231808Y-143978790D01*
X108297656Y-142101072D01*
X107500143Y-140161355D01*
X106843359Y-138169596D01*
X106330660Y-136135971D01*
X105964673Y-134070895D01*
X105747207Y-131984327D01*
X105678946Y-129979442D01*
X105678946Y-119546522D01*
X107758946Y-119546522D01*
X107758946Y-120435660D01*
X108099205Y-121257117D01*
X108727920Y-121885832D01*
X109549377Y-122226091D01*
X110438515Y-122226091D01*
X111259972Y-121885832D01*
X111888687Y-121257117D01*
X112228946Y-120435660D01*
X112228946Y-119546522D01*
X111888687Y-118725065D01*
X111259972Y-118096350D01*
X110438515Y-117756091D01*
X109549377Y-117756091D01*
X108727920Y-118096350D01*
X108099205Y-118725065D01*
X107758946Y-119546522D01*
X105678946Y-119546522D01*
X105678946Y-89081635D01*
X108204897Y-89081635D01*
X108204897Y-89952944D01*
X108314266Y-90502779D01*
X108730888Y-91126299D01*
X109329898Y-91526545D01*
X109329897Y-100008037D01*
X108730888Y-100408281D01*
X108314266Y-101031800D01*
X108204897Y-101581635D01*
X108204897Y-102452944D01*
X108314266Y-103002779D01*
X108730888Y-103626299D01*
X109354407Y-104042921D01*
X110089897Y-104189219D01*
X110825386Y-104042921D01*
X111104897Y-103856158D01*
X111104897Y-106194837D01*
X111090008Y-106269689D01*
X111104897Y-106344541D01*
X111148993Y-106566226D01*
X111316968Y-106817618D01*
X111380424Y-106860018D01*
X114185527Y-109665122D01*
X114185530Y-109665124D01*
X118592965Y-114072560D01*
X117260000Y-114072560D01*
X117012235Y-114121843D01*
X116802191Y-114262191D01*
X116661843Y-114472235D01*
X116612560Y-114720000D01*
X116612560Y-116420000D01*
X116661843Y-116667765D01*
X116802191Y-116877809D01*
X117012235Y-117018157D01*
X117057619Y-117027184D01*
X117039375Y-117039375D01*
X116711161Y-117530582D01*
X116595908Y-118110000D01*
X116711161Y-118689418D01*
X116929704Y-119016491D01*
X111874107Y-124072090D01*
X111810651Y-124114490D01*
X111642676Y-124365882D01*
X111598580Y-124587567D01*
X111598580Y-124587571D01*
X111583692Y-124662418D01*
X111598580Y-124737265D01*
X111598582Y-136999339D01*
X111583693Y-137074191D01*
X111598582Y-137149042D01*
X111598582Y-137149043D01*
X111605600Y-137184327D01*
X111642678Y-137370728D01*
X111738045Y-137513454D01*
X111810653Y-137622120D01*
X111874109Y-137664520D01*
X113428262Y-139218674D01*
X113470663Y-139282131D01*
X113722055Y-139450106D01*
X113895592Y-139484625D01*
X129915469Y-155504503D01*
X129957867Y-155567956D01*
X130021320Y-155610354D01*
X130021323Y-155610357D01*
X130209258Y-155735931D01*
X130505795Y-155794916D01*
X130580647Y-155780027D01*
X158950126Y-155780029D01*
X159024973Y-155794917D01*
X159099820Y-155780029D01*
X159099824Y-155780029D01*
X159321509Y-155735933D01*
X159572901Y-155567958D01*
X159615301Y-155504502D01*
X161629477Y-153490328D01*
X161692930Y-153447930D01*
X161735328Y-153384477D01*
X161735330Y-153384475D01*
X161844512Y-153221072D01*
X161860905Y-153196538D01*
X161905001Y-152974853D01*
X161905001Y-152974849D01*
X161919889Y-152900002D01*
X161905001Y-152825155D01*
X161905001Y-148608203D01*
X162000091Y-148671740D01*
X162418667Y-148755000D01*
X162701333Y-148755000D01*
X162795000Y-148736368D01*
X162795000Y-149075274D01*
X162952569Y-149455680D01*
X163243720Y-149746831D01*
X163624126Y-149904400D01*
X164035874Y-149904400D01*
X164416280Y-149746831D01*
X164533711Y-149629400D01*
X172760755Y-149629400D01*
X172835602Y-149644288D01*
X172910449Y-149629400D01*
X172910454Y-149629400D01*
X173132139Y-149585304D01*
X173190180Y-149546522D01*
X177758946Y-149546522D01*
X177758946Y-150435660D01*
X178099205Y-151257117D01*
X178727920Y-151885832D01*
X179549377Y-152226091D01*
X180438515Y-152226091D01*
X181259972Y-151885832D01*
X181888687Y-151257117D01*
X182228946Y-150435660D01*
X182228946Y-149546522D01*
X181888687Y-148725065D01*
X181259972Y-148096350D01*
X180438515Y-147756091D01*
X179549377Y-147756091D01*
X178727920Y-148096350D01*
X178099205Y-148725065D01*
X177758946Y-149546522D01*
X173190180Y-149546522D01*
X173383531Y-149417329D01*
X173425933Y-149353870D01*
X174329474Y-148450330D01*
X174392930Y-148407930D01*
X174456204Y-148313234D01*
X174560905Y-148156539D01*
X174573168Y-148094888D01*
X174605001Y-147934853D01*
X174605001Y-147934849D01*
X174619889Y-147860001D01*
X174605001Y-147785153D01*
X174605001Y-144224798D01*
X176302560Y-142527239D01*
X176302560Y-143090000D01*
X176351843Y-143337765D01*
X176492191Y-143547809D01*
X176702235Y-143688157D01*
X176950000Y-143737440D01*
X178650000Y-143737440D01*
X178897765Y-143688157D01*
X179107809Y-143547809D01*
X179248157Y-143337765D01*
X179268739Y-143234292D01*
X179573076Y-143511645D01*
X179983110Y-143681476D01*
X180213000Y-143560155D01*
X180213000Y-142367000D01*
X180467000Y-142367000D01*
X180467000Y-143560155D01*
X180696890Y-143681476D01*
X181106924Y-143511645D01*
X181535183Y-143121358D01*
X181781486Y-142596892D01*
X181660819Y-142367000D01*
X180467000Y-142367000D01*
X180213000Y-142367000D01*
X180193000Y-142367000D01*
X180193000Y-142113000D01*
X180213000Y-142113000D01*
X180213000Y-140919845D01*
X180467000Y-140919845D01*
X180467000Y-142113000D01*
X181660819Y-142113000D01*
X181781486Y-141883108D01*
X181535183Y-141358642D01*
X181106924Y-140968355D01*
X180696890Y-140798524D01*
X180467000Y-140919845D01*
X180213000Y-140919845D01*
X179983110Y-140798524D01*
X179573076Y-140968355D01*
X179268739Y-141245708D01*
X179248157Y-141142235D01*
X179107809Y-140932191D01*
X178897765Y-140791843D01*
X178650000Y-140742560D01*
X178087239Y-140742560D01*
X181639799Y-137190001D01*
X185200149Y-137190001D01*
X185275001Y-137204890D01*
X185571538Y-137145905D01*
X185822930Y-136977930D01*
X185990905Y-136726538D01*
X186035001Y-136504853D01*
X186049890Y-136430001D01*
X186035001Y-136355149D01*
X186035001Y-119546522D01*
X187758946Y-119546522D01*
X187758946Y-120435660D01*
X188099205Y-121257117D01*
X188727920Y-121885832D01*
X189549377Y-122226091D01*
X190438515Y-122226091D01*
X191259972Y-121885832D01*
X191888687Y-121257117D01*
X192228946Y-120435660D01*
X192228946Y-119546522D01*
X191888687Y-118725065D01*
X191259972Y-118096350D01*
X190438515Y-117756091D01*
X189549377Y-117756091D01*
X188727920Y-118096350D01*
X188099205Y-118725065D01*
X187758946Y-119546522D01*
X186035001Y-119546522D01*
X186035001Y-104027242D01*
X186049889Y-103952394D01*
X186039446Y-103899891D01*
X186448906Y-103626299D01*
X186865528Y-103002780D01*
X186974897Y-102452945D01*
X186974897Y-102441330D01*
X188204782Y-102441330D01*
X188414880Y-103149484D01*
X188879984Y-103723332D01*
X189529286Y-104075511D01*
X189670252Y-104104985D01*
X189962897Y-103988862D01*
X189962897Y-102144290D01*
X190216897Y-102144290D01*
X190216897Y-103988862D01*
X190509542Y-104104985D01*
X190650508Y-104075511D01*
X191299810Y-103723332D01*
X191764914Y-103149484D01*
X191975012Y-102441330D01*
X191820279Y-102144290D01*
X190216897Y-102144290D01*
X189962897Y-102144290D01*
X188359515Y-102144290D01*
X188204782Y-102441330D01*
X186974897Y-102441330D01*
X186974897Y-101593250D01*
X188204782Y-101593250D01*
X188359515Y-101890290D01*
X189962897Y-101890290D01*
X189962897Y-100045718D01*
X190216897Y-100045718D01*
X190216897Y-101890290D01*
X191820279Y-101890290D01*
X191975012Y-101593250D01*
X191764914Y-100885096D01*
X191299810Y-100311248D01*
X190650508Y-99959069D01*
X190509542Y-99929595D01*
X190216897Y-100045718D01*
X189962897Y-100045718D01*
X189670252Y-99929595D01*
X189529286Y-99959069D01*
X188879984Y-100311248D01*
X188414880Y-100885096D01*
X188204782Y-101593250D01*
X186974897Y-101593250D01*
X186974897Y-101581636D01*
X186865528Y-101031800D01*
X186448906Y-100408281D01*
X185849897Y-100008036D01*
X185849897Y-91526543D01*
X186448906Y-91126299D01*
X186865528Y-90502780D01*
X186974897Y-89952945D01*
X186974897Y-89941330D01*
X188204782Y-89941330D01*
X188414880Y-90649484D01*
X188879984Y-91223332D01*
X189529286Y-91575511D01*
X189670252Y-91604985D01*
X189962897Y-91488862D01*
X189962897Y-89644290D01*
X190216897Y-89644290D01*
X190216897Y-91488862D01*
X190509542Y-91604985D01*
X190650508Y-91575511D01*
X191299810Y-91223332D01*
X191764914Y-90649484D01*
X191975012Y-89941330D01*
X191820279Y-89644290D01*
X190216897Y-89644290D01*
X189962897Y-89644290D01*
X188359515Y-89644290D01*
X188204782Y-89941330D01*
X186974897Y-89941330D01*
X186974897Y-89093250D01*
X188204782Y-89093250D01*
X188359515Y-89390290D01*
X189962897Y-89390290D01*
X189962897Y-87545718D01*
X190216897Y-87545718D01*
X190216897Y-89390290D01*
X191820279Y-89390290D01*
X191975012Y-89093250D01*
X191764914Y-88385096D01*
X191299810Y-87811248D01*
X190650508Y-87459069D01*
X190509542Y-87429595D01*
X190216897Y-87545718D01*
X189962897Y-87545718D01*
X189670252Y-87429595D01*
X189529286Y-87459069D01*
X188879984Y-87811248D01*
X188414880Y-88385096D01*
X188204782Y-89093250D01*
X186974897Y-89093250D01*
X186974897Y-89081636D01*
X186865528Y-88531800D01*
X186448906Y-87908281D01*
X185825387Y-87491659D01*
X185089897Y-87345361D01*
X184354408Y-87491659D01*
X183730888Y-87908281D01*
X183314266Y-88531800D01*
X183204897Y-89081635D01*
X183204897Y-89952944D01*
X183314266Y-90502779D01*
X183730888Y-91126299D01*
X184329898Y-91526545D01*
X184329897Y-100008037D01*
X183730888Y-100408281D01*
X183314266Y-101031800D01*
X183204897Y-101581635D01*
X183204897Y-102452944D01*
X183314266Y-103002779D01*
X183730888Y-103626299D01*
X184354407Y-104042921D01*
X184370471Y-104046116D01*
X184373994Y-104063827D01*
X184497677Y-104248931D01*
X184515001Y-104274859D01*
X184515001Y-114185640D01*
X184499041Y-114178086D01*
X184277000Y-114299371D01*
X184277000Y-115443000D01*
X184297000Y-115443000D01*
X184297000Y-115697000D01*
X184277000Y-115697000D01*
X184277000Y-117983000D01*
X184297000Y-117983000D01*
X184297000Y-118237000D01*
X184277000Y-118237000D01*
X184277000Y-118257000D01*
X184023000Y-118257000D01*
X184023000Y-118237000D01*
X182880085Y-118237000D01*
X182758096Y-118459039D01*
X182918959Y-118847423D01*
X183294866Y-119262389D01*
X183499108Y-119359053D01*
X183115423Y-119615423D01*
X182798260Y-120090091D01*
X182686887Y-120650000D01*
X182798260Y-121209909D01*
X183115423Y-121684577D01*
X183467758Y-121920000D01*
X183115423Y-122155423D01*
X182798260Y-122630091D01*
X182686887Y-123190000D01*
X182798260Y-123749909D01*
X183115423Y-124224577D01*
X183467758Y-124460000D01*
X183115423Y-124695423D01*
X182798260Y-125170091D01*
X182686887Y-125730000D01*
X182798260Y-126289909D01*
X183115423Y-126764577D01*
X183467758Y-127000000D01*
X183115423Y-127235423D01*
X182798260Y-127710091D01*
X182686887Y-128270000D01*
X182798260Y-128829909D01*
X183115423Y-129304577D01*
X183467758Y-129540000D01*
X183115423Y-129775423D01*
X182798260Y-130250091D01*
X182686887Y-130810000D01*
X182798260Y-131369909D01*
X183115423Y-131844577D01*
X183467758Y-132080000D01*
X183115423Y-132315423D01*
X182798260Y-132790091D01*
X182686887Y-133350000D01*
X182798260Y-133909909D01*
X183115423Y-134384577D01*
X183590091Y-134701740D01*
X184008667Y-134785000D01*
X184291333Y-134785000D01*
X184515002Y-134740509D01*
X184515002Y-135670001D01*
X181399845Y-135670001D01*
X181324997Y-135655113D01*
X181250149Y-135670001D01*
X181250145Y-135670001D01*
X181076602Y-135704521D01*
X181028459Y-135714097D01*
X180877227Y-135815148D01*
X180777068Y-135882072D01*
X180734668Y-135945528D01*
X173360531Y-143319666D01*
X173297072Y-143362068D01*
X173129097Y-143613461D01*
X173085001Y-143835146D01*
X173085001Y-143835150D01*
X173070113Y-143909997D01*
X173085001Y-143984844D01*
X173085002Y-145929490D01*
X172861333Y-145885000D01*
X172578667Y-145885000D01*
X172160091Y-145968260D01*
X171685423Y-146285423D01*
X171450000Y-146637758D01*
X171214577Y-146285423D01*
X170739909Y-145968260D01*
X170474862Y-145915539D01*
X182074370Y-134316032D01*
X182137826Y-134273632D01*
X182305801Y-134022240D01*
X182349897Y-133800555D01*
X182349897Y-133800551D01*
X182364785Y-133725704D01*
X182349897Y-133650857D01*
X182349897Y-115919039D01*
X182758096Y-115919039D01*
X182918959Y-116307423D01*
X183294866Y-116722389D01*
X183543367Y-116840000D01*
X183294866Y-116957611D01*
X182918959Y-117372577D01*
X182758096Y-117760961D01*
X182880085Y-117983000D01*
X184023000Y-117983000D01*
X184023000Y-115697000D01*
X182880085Y-115697000D01*
X182758096Y-115919039D01*
X182349897Y-115919039D01*
X182349897Y-115220961D01*
X182758096Y-115220961D01*
X182880085Y-115443000D01*
X184023000Y-115443000D01*
X184023000Y-114299371D01*
X183800959Y-114178086D01*
X183294866Y-114417611D01*
X182918959Y-114832577D01*
X182758096Y-115220961D01*
X182349897Y-115220961D01*
X182349897Y-85863959D01*
X182459404Y-85818600D01*
X182839897Y-85438107D01*
X183220390Y-85818600D01*
X183784567Y-86052290D01*
X184395227Y-86052290D01*
X184959404Y-85818600D01*
X185391207Y-85386797D01*
X185624897Y-84822620D01*
X185624897Y-84211960D01*
X185391207Y-83647783D01*
X184959404Y-83215980D01*
X184395227Y-82982290D01*
X183784567Y-82982290D01*
X183220390Y-83215980D01*
X182839897Y-83596473D01*
X182459404Y-83215980D01*
X181895227Y-82982290D01*
X181284567Y-82982290D01*
X181074898Y-83069138D01*
X181074898Y-76993156D01*
X183354897Y-76993156D01*
X183354897Y-78041424D01*
X183756052Y-79009898D01*
X184497289Y-79751135D01*
X185465763Y-80152290D01*
X186514031Y-80152290D01*
X187482505Y-79751135D01*
X188223742Y-79009898D01*
X188624897Y-78041424D01*
X188624897Y-76993156D01*
X188223742Y-76024682D01*
X187482505Y-75283445D01*
X186514031Y-74882290D01*
X185465763Y-74882290D01*
X184497289Y-75283445D01*
X183756052Y-76024682D01*
X183354897Y-76993156D01*
X181074898Y-76993156D01*
X181074898Y-73154032D01*
X181089786Y-73079185D01*
X181074898Y-73004338D01*
X181074898Y-73004334D01*
X181030802Y-72782649D01*
X180862827Y-72531257D01*
X180799371Y-72488857D01*
X172468332Y-64157819D01*
X172425930Y-64094360D01*
X172174538Y-63926385D01*
X171952853Y-63882289D01*
X171952848Y-63882289D01*
X171878001Y-63867401D01*
X171803154Y-63882289D01*
X170776845Y-63882289D01*
X170701998Y-63867401D01*
X170627151Y-63882289D01*
X170627147Y-63882289D01*
X170405462Y-63926385D01*
X170154070Y-64094360D01*
X170111670Y-64157816D01*
X169890074Y-64379413D01*
X169776309Y-64332290D01*
X169035750Y-64332290D01*
X168877000Y-64491040D01*
X168877000Y-65740290D01*
X168897000Y-65740290D01*
X168897000Y-65994290D01*
X168877000Y-65994290D01*
X168877000Y-67243540D01*
X169035750Y-67402290D01*
X169304999Y-67402290D01*
X169304999Y-67414489D01*
X168793315Y-67926174D01*
X168729859Y-67968574D01*
X168687459Y-68032030D01*
X168687458Y-68032031D01*
X168561884Y-68219966D01*
X168502899Y-68516503D01*
X168517788Y-68591355D01*
X168517787Y-82514598D01*
X168004735Y-83027650D01*
X167895227Y-82982290D01*
X167284567Y-82982290D01*
X166720390Y-83215980D01*
X166288587Y-83647783D01*
X166285358Y-83655580D01*
X166170056Y-83616736D01*
X165269502Y-84517290D01*
X166170056Y-85417844D01*
X166285358Y-85379000D01*
X166288587Y-85386797D01*
X166720390Y-85818600D01*
X167284567Y-86052290D01*
X167895227Y-86052290D01*
X168459404Y-85818600D01*
X168839897Y-85438107D01*
X169220390Y-85818600D01*
X169784567Y-86052290D01*
X170395227Y-86052290D01*
X170959404Y-85818600D01*
X171391207Y-85386797D01*
X171624897Y-84822620D01*
X171624897Y-84211960D01*
X171391207Y-83647783D01*
X170959404Y-83215980D01*
X170395227Y-82982290D01*
X170022264Y-82982290D01*
X170037787Y-82904252D01*
X170037787Y-82904247D01*
X170052675Y-82829400D01*
X170037787Y-82754553D01*
X170037787Y-79291633D01*
X170497289Y-79751135D01*
X171465763Y-80152290D01*
X172514031Y-80152290D01*
X173482505Y-79751135D01*
X174104897Y-79128743D01*
X174104897Y-84740037D01*
X174090008Y-84814889D01*
X174148993Y-85111426D01*
X174269768Y-85292178D01*
X174316968Y-85362818D01*
X174380424Y-85405218D01*
X176467686Y-87492481D01*
X175879984Y-87811248D01*
X175414880Y-88385096D01*
X175207820Y-89083011D01*
X173332618Y-87207810D01*
X173290216Y-87144351D01*
X173038824Y-86976376D01*
X172817139Y-86932280D01*
X172817134Y-86932280D01*
X172742287Y-86917392D01*
X172667440Y-86932280D01*
X166766687Y-86932280D01*
X165751518Y-85917112D01*
X165904045Y-85853933D01*
X165990451Y-85597449D01*
X165089897Y-84696895D01*
X165075755Y-84711038D01*
X164896150Y-84531433D01*
X164910292Y-84517290D01*
X164009738Y-83616736D01*
X163753254Y-83703142D01*
X163695475Y-83861068D01*
X163271538Y-83437131D01*
X164189343Y-83437131D01*
X165089897Y-84337685D01*
X165990451Y-83437131D01*
X165904045Y-83180647D01*
X165330561Y-82970832D01*
X164720437Y-82996451D01*
X164275749Y-83180647D01*
X164189343Y-83437131D01*
X163271538Y-83437131D01*
X160576800Y-80742394D01*
X160576800Y-78094303D01*
X160956052Y-79009898D01*
X161697289Y-79751135D01*
X162665763Y-80152290D01*
X163714031Y-80152290D01*
X164682505Y-79751135D01*
X165423742Y-79009898D01*
X165824897Y-78041424D01*
X165824897Y-76993156D01*
X165423742Y-76024682D01*
X164682505Y-75283445D01*
X163714031Y-74882290D01*
X162665763Y-74882290D01*
X161697289Y-75283445D01*
X160956052Y-76024682D01*
X160576800Y-76940277D01*
X160576800Y-67655291D01*
X160875162Y-67356930D01*
X160984670Y-67402290D01*
X161595330Y-67402290D01*
X162159507Y-67168600D01*
X162591310Y-66736797D01*
X162825000Y-66172620D01*
X162825000Y-66153040D01*
X167215000Y-66153040D01*
X167215000Y-66893600D01*
X167311673Y-67126989D01*
X167490302Y-67305617D01*
X167723691Y-67402290D01*
X168464250Y-67402290D01*
X168623000Y-67243540D01*
X168623000Y-65994290D01*
X167373750Y-65994290D01*
X167215000Y-66153040D01*
X162825000Y-66153040D01*
X162825000Y-65561960D01*
X162591310Y-64997783D01*
X162434507Y-64840980D01*
X167215000Y-64840980D01*
X167215000Y-65581540D01*
X167373750Y-65740290D01*
X168623000Y-65740290D01*
X168623000Y-64491040D01*
X168464250Y-64332290D01*
X167723691Y-64332290D01*
X167490302Y-64428963D01*
X167311673Y-64607591D01*
X167215000Y-64840980D01*
X162434507Y-64840980D01*
X162159507Y-64565980D01*
X161595330Y-64332290D01*
X160984670Y-64332290D01*
X160420493Y-64565980D01*
X160244139Y-64742334D01*
X160188327Y-64607591D01*
X160009698Y-64428963D01*
X159776309Y-64332290D01*
X159035750Y-64332290D01*
X158877000Y-64491040D01*
X158877000Y-65740290D01*
X158897000Y-65740290D01*
X158897000Y-65994290D01*
X158877000Y-65994290D01*
X158877000Y-67243540D01*
X159035750Y-67402290D01*
X159054205Y-67402290D01*
X159056800Y-67415337D01*
X159056801Y-80931993D01*
X152949999Y-74825191D01*
X152949999Y-66842137D01*
X152964887Y-66767289D01*
X152949999Y-66692441D01*
X152949999Y-66692437D01*
X152905903Y-66470752D01*
X152905903Y-66470751D01*
X152780328Y-66282816D01*
X152779728Y-66281917D01*
X152825000Y-66172620D01*
X152825000Y-66153040D01*
X157215000Y-66153040D01*
X157215000Y-66893600D01*
X157311673Y-67126989D01*
X157490302Y-67305617D01*
X157723691Y-67402290D01*
X158464250Y-67402290D01*
X158623000Y-67243540D01*
X158623000Y-65994290D01*
X157373750Y-65994290D01*
X157215000Y-66153040D01*
X152825000Y-66153040D01*
X152825000Y-65561960D01*
X152591310Y-64997783D01*
X152434507Y-64840980D01*
X157215000Y-64840980D01*
X157215000Y-65581540D01*
X157373750Y-65740290D01*
X158623000Y-65740290D01*
X158623000Y-64491040D01*
X158464250Y-64332290D01*
X157723691Y-64332290D01*
X157490302Y-64428963D01*
X157311673Y-64607591D01*
X157215000Y-64840980D01*
X152434507Y-64840980D01*
X152159507Y-64565980D01*
X151595330Y-64332290D01*
X150984670Y-64332290D01*
X150420493Y-64565980D01*
X150244139Y-64742334D01*
X150188327Y-64607591D01*
X150009698Y-64428963D01*
X149776309Y-64332290D01*
X149035750Y-64332290D01*
X148877000Y-64491040D01*
X148877000Y-65740290D01*
X148897000Y-65740290D01*
X148897000Y-65994290D01*
X148877000Y-65994290D01*
X148877000Y-67243540D01*
X149035750Y-67402290D01*
X149776309Y-67402290D01*
X150009698Y-67305617D01*
X150188327Y-67126989D01*
X150244139Y-66992246D01*
X150420493Y-67168600D01*
X150984670Y-67402290D01*
X151429999Y-67402290D01*
X151430000Y-75065140D01*
X151415111Y-75139992D01*
X151474096Y-75436529D01*
X151534826Y-75527417D01*
X151642071Y-75687921D01*
X151705527Y-75730321D01*
X163467686Y-87492481D01*
X162879984Y-87811248D01*
X162414880Y-88385096D01*
X162204782Y-89093250D01*
X162359515Y-89390290D01*
X163962897Y-89390290D01*
X163962897Y-89370290D01*
X164216897Y-89370290D01*
X164216897Y-89390290D01*
X164236897Y-89390290D01*
X164236897Y-89644290D01*
X164216897Y-89644290D01*
X164216897Y-91488862D01*
X164509542Y-91604985D01*
X164650508Y-91575511D01*
X165299810Y-91223332D01*
X165764914Y-90649484D01*
X165961632Y-89986427D01*
X169754887Y-93779682D01*
X169754888Y-110355033D01*
X169739999Y-110429885D01*
X169754888Y-110504737D01*
X169798984Y-110726422D01*
X169966959Y-110977814D01*
X170030415Y-111020214D01*
X173309033Y-114298833D01*
X173177138Y-114353466D01*
X172773466Y-114757138D01*
X172555000Y-115284561D01*
X172555000Y-115855439D01*
X172708077Y-116224999D01*
X171631213Y-116224999D01*
X159511559Y-104105345D01*
X159825386Y-104042921D01*
X160448906Y-103626299D01*
X160865528Y-103002780D01*
X160974897Y-102452945D01*
X160974897Y-102441330D01*
X162204782Y-102441330D01*
X162414880Y-103149484D01*
X162879984Y-103723332D01*
X163529286Y-104075511D01*
X163670252Y-104104985D01*
X163962897Y-103988862D01*
X163962897Y-102144290D01*
X164216897Y-102144290D01*
X164216897Y-103988862D01*
X164509542Y-104104985D01*
X164650508Y-104075511D01*
X165299810Y-103723332D01*
X165764914Y-103149484D01*
X165975012Y-102441330D01*
X165820279Y-102144290D01*
X164216897Y-102144290D01*
X163962897Y-102144290D01*
X162359515Y-102144290D01*
X162204782Y-102441330D01*
X160974897Y-102441330D01*
X160974897Y-101593250D01*
X162204782Y-101593250D01*
X162359515Y-101890290D01*
X163962897Y-101890290D01*
X163962897Y-100045718D01*
X164216897Y-100045718D01*
X164216897Y-101890290D01*
X165820279Y-101890290D01*
X165975012Y-101593250D01*
X165764914Y-100885096D01*
X165299810Y-100311248D01*
X164650508Y-99959069D01*
X164509542Y-99929595D01*
X164216897Y-100045718D01*
X163962897Y-100045718D01*
X163670252Y-99929595D01*
X163529286Y-99959069D01*
X162879984Y-100311248D01*
X162414880Y-100885096D01*
X162204782Y-101593250D01*
X160974897Y-101593250D01*
X160974897Y-101581636D01*
X160865528Y-101031800D01*
X160448906Y-100408281D01*
X159849897Y-100008036D01*
X159849897Y-91526543D01*
X160448906Y-91126299D01*
X160865528Y-90502780D01*
X160974897Y-89952945D01*
X160974897Y-89941330D01*
X162204782Y-89941330D01*
X162414880Y-90649484D01*
X162879984Y-91223332D01*
X163529286Y-91575511D01*
X163670252Y-91604985D01*
X163962897Y-91488862D01*
X163962897Y-89644290D01*
X162359515Y-89644290D01*
X162204782Y-89941330D01*
X160974897Y-89941330D01*
X160974897Y-89081636D01*
X160865528Y-88531800D01*
X160448906Y-87908281D01*
X159825387Y-87491659D01*
X159089897Y-87345361D01*
X158354408Y-87491659D01*
X157730888Y-87908281D01*
X157314266Y-88531800D01*
X157204897Y-89081635D01*
X157204897Y-89952944D01*
X157314266Y-90502779D01*
X157730888Y-91126299D01*
X158329898Y-91526544D01*
X158329897Y-100008037D01*
X157730888Y-100408281D01*
X157314266Y-101031800D01*
X157204897Y-101581635D01*
X157204897Y-101798684D01*
X153135011Y-97728798D01*
X153135011Y-86390738D01*
X153149899Y-86315891D01*
X153135011Y-86241044D01*
X153135011Y-86241039D01*
X153090915Y-86019354D01*
X152922940Y-85767962D01*
X152859484Y-85725562D01*
X143980444Y-76846522D01*
X147765000Y-76846522D01*
X147765000Y-77735660D01*
X148105259Y-78557117D01*
X148733974Y-79185832D01*
X149555431Y-79526091D01*
X150444569Y-79526091D01*
X151266026Y-79185832D01*
X151894741Y-78557117D01*
X152235000Y-77735660D01*
X152235000Y-76846522D01*
X151894741Y-76025065D01*
X151266026Y-75396350D01*
X150444569Y-75056091D01*
X149555431Y-75056091D01*
X148733974Y-75396350D01*
X148105259Y-76025065D01*
X147765000Y-76846522D01*
X143980444Y-76846522D01*
X142050000Y-74916079D01*
X142050000Y-67213959D01*
X142159507Y-67168600D01*
X142591310Y-66736797D01*
X142825000Y-66172620D01*
X142825000Y-66153040D01*
X147215000Y-66153040D01*
X147215000Y-66893600D01*
X147311673Y-67126989D01*
X147490302Y-67305617D01*
X147723691Y-67402290D01*
X148464250Y-67402290D01*
X148623000Y-67243540D01*
X148623000Y-65994290D01*
X147373750Y-65994290D01*
X147215000Y-66153040D01*
X142825000Y-66153040D01*
X142825000Y-65561960D01*
X142591310Y-64997783D01*
X142434507Y-64840980D01*
X147215000Y-64840980D01*
X147215000Y-65581540D01*
X147373750Y-65740290D01*
X148623000Y-65740290D01*
X148623000Y-64491040D01*
X148464250Y-64332290D01*
X147723691Y-64332290D01*
X147490302Y-64428963D01*
X147311673Y-64607591D01*
X147215000Y-64840980D01*
X142434507Y-64840980D01*
X142159507Y-64565980D01*
X141595330Y-64332290D01*
X140984670Y-64332290D01*
X140420493Y-64565980D01*
X140244139Y-64742334D01*
X140188327Y-64607591D01*
X140009698Y-64428963D01*
X139776309Y-64332290D01*
X139035750Y-64332290D01*
X138877000Y-64491040D01*
X138877000Y-65740290D01*
X138897000Y-65740290D01*
X138897000Y-65994290D01*
X138877000Y-65994290D01*
X138877000Y-67243540D01*
X139035750Y-67402290D01*
X139776309Y-67402290D01*
X140009698Y-67305617D01*
X140188327Y-67126989D01*
X140244139Y-66992246D01*
X140420493Y-67168600D01*
X140530000Y-67213959D01*
X140530001Y-74032489D01*
X132779640Y-66282129D01*
X132825000Y-66172620D01*
X132825000Y-66153040D01*
X137215000Y-66153040D01*
X137215000Y-66893600D01*
X137311673Y-67126989D01*
X137490302Y-67305617D01*
X137723691Y-67402290D01*
X138464250Y-67402290D01*
X138623000Y-67243540D01*
X138623000Y-65994290D01*
X137373750Y-65994290D01*
X137215000Y-66153040D01*
X132825000Y-66153040D01*
X132825000Y-65561960D01*
X132591310Y-64997783D01*
X132434507Y-64840980D01*
X137215000Y-64840980D01*
X137215000Y-65581540D01*
X137373750Y-65740290D01*
X138623000Y-65740290D01*
X138623000Y-64491040D01*
X138464250Y-64332290D01*
X137723691Y-64332290D01*
X137490302Y-64428963D01*
X137311673Y-64607591D01*
X137215000Y-64840980D01*
X132434507Y-64840980D01*
X132159507Y-64565980D01*
X131595330Y-64332290D01*
X130984670Y-64332290D01*
X130420493Y-64565980D01*
X130244139Y-64742334D01*
X130188327Y-64607591D01*
X130009698Y-64428963D01*
X129776309Y-64332290D01*
X129035750Y-64332290D01*
X128877000Y-64491040D01*
X128877000Y-65740290D01*
X128897000Y-65740290D01*
X128897000Y-65994290D01*
X128877000Y-65994290D01*
X128877000Y-67243540D01*
X129035750Y-67402290D01*
X129776309Y-67402290D01*
X130009698Y-67305617D01*
X130188327Y-67126989D01*
X130244139Y-66992246D01*
X130420493Y-67168600D01*
X130984670Y-67402290D01*
X131595330Y-67402290D01*
X131704839Y-67356930D01*
X151165001Y-86817093D01*
X151165002Y-98155147D01*
X151150113Y-98229999D01*
X151165002Y-98304851D01*
X151209098Y-98526536D01*
X151377073Y-98777928D01*
X151440529Y-98820328D01*
X169459033Y-116838833D01*
X169327138Y-116893466D01*
X169058101Y-117162503D01*
X169038157Y-117062235D01*
X168897809Y-116852191D01*
X168687765Y-116711843D01*
X168440000Y-116662560D01*
X166840000Y-116662560D01*
X166592235Y-116711843D01*
X166382191Y-116852191D01*
X166241843Y-117062235D01*
X166192560Y-117310000D01*
X166192560Y-117350000D01*
X165468749Y-117350000D01*
X164012634Y-115893886D01*
X164077059Y-115570000D01*
X163965686Y-115010091D01*
X163648523Y-114535423D01*
X163173855Y-114218260D01*
X162755279Y-114135000D01*
X162472613Y-114135000D01*
X162054037Y-114218260D01*
X161703047Y-114452784D01*
X161683420Y-114439670D01*
X150269840Y-103026091D01*
X150444569Y-103026091D01*
X151266026Y-102685832D01*
X151894741Y-102057117D01*
X152235000Y-101235660D01*
X152235000Y-100346522D01*
X151894741Y-99525065D01*
X151266026Y-98896350D01*
X150444569Y-98556091D01*
X149555431Y-98556091D01*
X148733974Y-98896350D01*
X148105259Y-99525065D01*
X147765000Y-100346522D01*
X147765000Y-100521251D01*
X139249917Y-92006168D01*
X139249917Y-90093462D01*
X139414880Y-90649484D01*
X139879984Y-91223332D01*
X140529286Y-91575511D01*
X140670252Y-91604985D01*
X140962897Y-91488862D01*
X140962897Y-89644290D01*
X141216897Y-89644290D01*
X141216897Y-91488862D01*
X141509542Y-91604985D01*
X141650508Y-91575511D01*
X142299810Y-91223332D01*
X142764914Y-90649484D01*
X142975012Y-89941330D01*
X142820279Y-89644290D01*
X141216897Y-89644290D01*
X140962897Y-89644290D01*
X140942897Y-89644290D01*
X140942897Y-89390290D01*
X140962897Y-89390290D01*
X140962897Y-87545718D01*
X141216897Y-87545718D01*
X141216897Y-89390290D01*
X142820279Y-89390290D01*
X142975012Y-89093250D01*
X142764914Y-88385096D01*
X142299810Y-87811248D01*
X141650508Y-87459069D01*
X141509542Y-87429595D01*
X141216897Y-87545718D01*
X140962897Y-87545718D01*
X140670252Y-87429595D01*
X140529286Y-87459069D01*
X139879984Y-87811248D01*
X139414880Y-88385096D01*
X139249917Y-88941118D01*
X139249917Y-86179154D01*
X139264805Y-86104307D01*
X139249917Y-86029460D01*
X139249917Y-86029456D01*
X139205821Y-85807771D01*
X139152120Y-85727402D01*
X139080246Y-85619834D01*
X139080244Y-85619832D01*
X139037846Y-85556379D01*
X138974393Y-85513981D01*
X136268229Y-82807819D01*
X136225827Y-82744360D01*
X135974435Y-82576385D01*
X135752750Y-82532289D01*
X135752745Y-82532289D01*
X135677898Y-82517401D01*
X135603051Y-82532289D01*
X133889744Y-82532289D01*
X133814897Y-82517401D01*
X133740050Y-82532289D01*
X133740046Y-82532289D01*
X133518361Y-82576385D01*
X133266969Y-82744360D01*
X133224569Y-82807816D01*
X133004735Y-83027650D01*
X132895227Y-82982290D01*
X132284567Y-82982290D01*
X131720390Y-83215980D01*
X131288587Y-83647783D01*
X131285358Y-83655580D01*
X131170056Y-83616736D01*
X130269502Y-84517290D01*
X131170056Y-85417844D01*
X131285358Y-85379000D01*
X131288587Y-85386797D01*
X131720390Y-85818600D01*
X132284567Y-86052290D01*
X132895227Y-86052290D01*
X133459404Y-85818600D01*
X133839897Y-85438107D01*
X134220390Y-85818600D01*
X134784567Y-86052290D01*
X135395227Y-86052290D01*
X135959404Y-85818600D01*
X136391207Y-85386797D01*
X136480949Y-85170142D01*
X137729917Y-86419111D01*
X137729917Y-88328844D01*
X137448906Y-87908281D01*
X136825387Y-87491659D01*
X136089897Y-87345361D01*
X135354408Y-87491659D01*
X134730888Y-87908281D01*
X134314266Y-88531800D01*
X134204897Y-89081635D01*
X134204897Y-89952944D01*
X134314266Y-90502779D01*
X134730888Y-91126299D01*
X135329898Y-91526545D01*
X135329897Y-100008037D01*
X134730888Y-100408281D01*
X134314266Y-101031800D01*
X134204897Y-101581635D01*
X134204897Y-102452944D01*
X134314266Y-103002779D01*
X134730888Y-103626299D01*
X135354407Y-104042921D01*
X136089897Y-104189219D01*
X136825386Y-104042921D01*
X137448906Y-103626299D01*
X137865528Y-103002780D01*
X137974897Y-102452945D01*
X137974897Y-102441330D01*
X139204782Y-102441330D01*
X139414880Y-103149484D01*
X139879984Y-103723332D01*
X140529286Y-104075511D01*
X140670252Y-104104985D01*
X140962897Y-103988862D01*
X140962897Y-102144290D01*
X141216897Y-102144290D01*
X141216897Y-103988862D01*
X141509542Y-104104985D01*
X141650508Y-104075511D01*
X142299810Y-103723332D01*
X142764914Y-103149484D01*
X142975012Y-102441330D01*
X142820279Y-102144290D01*
X141216897Y-102144290D01*
X140962897Y-102144290D01*
X139359515Y-102144290D01*
X139204782Y-102441330D01*
X137974897Y-102441330D01*
X137974897Y-101593250D01*
X139204782Y-101593250D01*
X139359515Y-101890290D01*
X140962897Y-101890290D01*
X140962897Y-100045718D01*
X141216897Y-100045718D01*
X141216897Y-101890290D01*
X142820279Y-101890290D01*
X142975012Y-101593250D01*
X142764914Y-100885096D01*
X142299810Y-100311248D01*
X141650508Y-99959069D01*
X141509542Y-99929595D01*
X141216897Y-100045718D01*
X140962897Y-100045718D01*
X140670252Y-99929595D01*
X140529286Y-99959069D01*
X139879984Y-100311248D01*
X139414880Y-100885096D01*
X139204782Y-101593250D01*
X137974897Y-101593250D01*
X137974897Y-101581636D01*
X137865528Y-101031800D01*
X137448906Y-100408281D01*
X136849897Y-100008036D01*
X136849897Y-91526543D01*
X137448906Y-91126299D01*
X137729918Y-90705735D01*
X137729918Y-92246117D01*
X137715029Y-92320969D01*
X137774014Y-92617506D01*
X137861860Y-92748976D01*
X137941989Y-92868898D01*
X138005445Y-92911298D01*
X155368178Y-110274032D01*
X155033720Y-110412569D01*
X154742569Y-110703720D01*
X154585000Y-111084126D01*
X154585000Y-111495874D01*
X154742569Y-111876280D01*
X155033720Y-112167431D01*
X155414126Y-112325000D01*
X155488980Y-112325000D01*
X157314514Y-114150535D01*
X156974037Y-114218260D01*
X156499369Y-114535423D01*
X156263946Y-114887758D01*
X156028523Y-114535423D01*
X155553855Y-114218260D01*
X155135279Y-114135000D01*
X154852613Y-114135000D01*
X154434037Y-114218260D01*
X153959369Y-114535423D01*
X153642206Y-115010091D01*
X153530833Y-115570000D01*
X153642206Y-116129909D01*
X153959369Y-116604577D01*
X154434037Y-116921740D01*
X154852613Y-117005000D01*
X155135279Y-117005000D01*
X155553855Y-116921740D01*
X156028523Y-116604577D01*
X156263946Y-116252242D01*
X156499369Y-116604577D01*
X156974037Y-116921740D01*
X157392613Y-117005000D01*
X157675279Y-117005000D01*
X158093855Y-116921740D01*
X158568523Y-116604577D01*
X158803946Y-116252242D01*
X159039369Y-116604577D01*
X159514037Y-116921740D01*
X159932613Y-117005000D01*
X160168980Y-117005000D01*
X164304900Y-121140921D01*
X164304901Y-128025102D01*
X163373946Y-127094147D01*
X163373946Y-124408043D01*
X163648523Y-124224577D01*
X163965686Y-123749909D01*
X164077059Y-123190000D01*
X163965686Y-122630091D01*
X163648523Y-122155423D01*
X163173855Y-121838260D01*
X162755279Y-121755000D01*
X162472613Y-121755000D01*
X162054037Y-121838260D01*
X161703047Y-122072784D01*
X161683420Y-122059670D01*
X161204278Y-121580529D01*
X161161876Y-121517070D01*
X160910484Y-121349095D01*
X160688799Y-121304999D01*
X160688794Y-121304999D01*
X160613947Y-121290111D01*
X160539100Y-121304999D01*
X148654799Y-121304999D01*
X142920777Y-115570978D01*
X143274577Y-115334577D01*
X143591740Y-114859909D01*
X143703113Y-114300000D01*
X143591740Y-113740091D01*
X143274577Y-113265423D01*
X142799909Y-112948260D01*
X142381333Y-112865000D01*
X142098667Y-112865000D01*
X141680091Y-112948260D01*
X141325197Y-113185393D01*
X140380322Y-112240519D01*
X140337920Y-112177060D01*
X140086528Y-112009085D01*
X139864843Y-111964989D01*
X139864838Y-111964989D01*
X139789991Y-111950101D01*
X139715144Y-111964989D01*
X128253404Y-111964989D01*
X120486597Y-104198184D01*
X120486597Y-89081635D01*
X121204897Y-89081635D01*
X121204897Y-89952944D01*
X121314266Y-90502779D01*
X121730888Y-91126299D01*
X122329898Y-91526544D01*
X122329897Y-100008037D01*
X121730888Y-100408281D01*
X121314266Y-101031800D01*
X121204897Y-101581635D01*
X121204897Y-102452944D01*
X121314266Y-103002779D01*
X121730888Y-103626299D01*
X122354407Y-104042921D01*
X123089897Y-104189219D01*
X123825386Y-104042921D01*
X124448906Y-103626299D01*
X124865528Y-103002780D01*
X124974897Y-102452945D01*
X124974897Y-102441330D01*
X126204782Y-102441330D01*
X126414880Y-103149484D01*
X126879984Y-103723332D01*
X127529286Y-104075511D01*
X127670252Y-104104985D01*
X127962897Y-103988862D01*
X127962897Y-102144290D01*
X128216897Y-102144290D01*
X128216897Y-103988862D01*
X128509542Y-104104985D01*
X128650508Y-104075511D01*
X129299810Y-103723332D01*
X129764914Y-103149484D01*
X129975012Y-102441330D01*
X129820279Y-102144290D01*
X128216897Y-102144290D01*
X127962897Y-102144290D01*
X126359515Y-102144290D01*
X126204782Y-102441330D01*
X124974897Y-102441330D01*
X124974897Y-101593250D01*
X126204782Y-101593250D01*
X126359515Y-101890290D01*
X127962897Y-101890290D01*
X127962897Y-100045718D01*
X128216897Y-100045718D01*
X128216897Y-101890290D01*
X129820279Y-101890290D01*
X129975012Y-101593250D01*
X129764914Y-100885096D01*
X129299810Y-100311248D01*
X128650508Y-99959069D01*
X128509542Y-99929595D01*
X128216897Y-100045718D01*
X127962897Y-100045718D01*
X127670252Y-99929595D01*
X127529286Y-99959069D01*
X126879984Y-100311248D01*
X126414880Y-100885096D01*
X126204782Y-101593250D01*
X124974897Y-101593250D01*
X124974897Y-101581636D01*
X124865528Y-101031800D01*
X124448906Y-100408281D01*
X123849897Y-100008036D01*
X123849897Y-91526543D01*
X124448906Y-91126299D01*
X124865528Y-90502780D01*
X124974897Y-89952945D01*
X124974897Y-89941330D01*
X126204782Y-89941330D01*
X126414880Y-90649484D01*
X126879984Y-91223332D01*
X127529286Y-91575511D01*
X127670252Y-91604985D01*
X127962897Y-91488862D01*
X127962897Y-89644290D01*
X128216897Y-89644290D01*
X128216897Y-91488862D01*
X128509542Y-91604985D01*
X128650508Y-91575511D01*
X129299810Y-91223332D01*
X129764914Y-90649484D01*
X129975012Y-89941330D01*
X129820279Y-89644290D01*
X128216897Y-89644290D01*
X127962897Y-89644290D01*
X126359515Y-89644290D01*
X126204782Y-89941330D01*
X124974897Y-89941330D01*
X124974897Y-89093250D01*
X126204782Y-89093250D01*
X126359515Y-89390290D01*
X127962897Y-89390290D01*
X127962897Y-87545718D01*
X128216897Y-87545718D01*
X128216897Y-89390290D01*
X129820279Y-89390290D01*
X129975012Y-89093250D01*
X129764914Y-88385096D01*
X129299810Y-87811248D01*
X128650508Y-87459069D01*
X128509542Y-87429595D01*
X128216897Y-87545718D01*
X127962897Y-87545718D01*
X127670252Y-87429595D01*
X127529286Y-87459069D01*
X126879984Y-87811248D01*
X126414880Y-88385096D01*
X126204782Y-89093250D01*
X124974897Y-89093250D01*
X124974897Y-89081636D01*
X124865528Y-88531800D01*
X124448906Y-87908281D01*
X123825387Y-87491659D01*
X123089897Y-87345361D01*
X122354408Y-87491659D01*
X121730888Y-87908281D01*
X121314266Y-88531800D01*
X121204897Y-89081635D01*
X120486597Y-89081635D01*
X120486597Y-87001630D01*
X120501485Y-86926782D01*
X120486597Y-86851934D01*
X120486597Y-86851930D01*
X120442501Y-86630245D01*
X120274526Y-86378853D01*
X120211070Y-86336453D01*
X119576310Y-85701694D01*
X119839897Y-85438107D01*
X120220390Y-85818600D01*
X120784567Y-86052290D01*
X121395227Y-86052290D01*
X121959404Y-85818600D01*
X122180555Y-85597449D01*
X129189343Y-85597449D01*
X129275749Y-85853933D01*
X129849233Y-86063748D01*
X130459357Y-86038129D01*
X130904045Y-85853933D01*
X130990451Y-85597449D01*
X130089897Y-84696895D01*
X129189343Y-85597449D01*
X122180555Y-85597449D01*
X122391207Y-85386797D01*
X122624897Y-84822620D01*
X122624897Y-84276626D01*
X128543439Y-84276626D01*
X128569058Y-84886750D01*
X128753254Y-85331438D01*
X129009738Y-85417844D01*
X129910292Y-84517290D01*
X129009738Y-83616736D01*
X128753254Y-83703142D01*
X128543439Y-84276626D01*
X122624897Y-84276626D01*
X122624897Y-84211960D01*
X122391207Y-83647783D01*
X122180555Y-83437131D01*
X129189343Y-83437131D01*
X130089897Y-84337685D01*
X130990451Y-83437131D01*
X130904045Y-83180647D01*
X130330561Y-82970832D01*
X129720437Y-82996451D01*
X129275749Y-83180647D01*
X129189343Y-83437131D01*
X122180555Y-83437131D01*
X121959404Y-83215980D01*
X121395227Y-82982290D01*
X120784567Y-82982290D01*
X120220390Y-83215980D01*
X119839897Y-83596473D01*
X119459404Y-83215980D01*
X118895227Y-82982290D01*
X118284567Y-82982290D01*
X117720390Y-83215980D01*
X117288587Y-83647783D01*
X117285358Y-83655580D01*
X117170056Y-83616736D01*
X116269502Y-84517290D01*
X117170056Y-85417844D01*
X117285358Y-85379000D01*
X117288587Y-85386797D01*
X117720390Y-85818600D01*
X117829687Y-85863872D01*
X117873994Y-86086619D01*
X117953598Y-86205754D01*
X118041969Y-86338011D01*
X118105425Y-86380411D01*
X118966597Y-87241584D01*
X118966598Y-91071212D01*
X118966597Y-91071216D01*
X118966598Y-92645144D01*
X118966597Y-92645149D01*
X118966598Y-104438133D01*
X118951709Y-104512985D01*
X118966598Y-104587837D01*
X119010694Y-104809522D01*
X119178669Y-105060914D01*
X119242125Y-105103314D01*
X127182003Y-113043194D01*
X124280495Y-115944704D01*
X124247703Y-115779850D01*
X124079728Y-115528458D01*
X124016272Y-115486058D01*
X121990731Y-113460518D01*
X121948331Y-113397062D01*
X121854092Y-113334093D01*
X121696939Y-113229087D01*
X121400402Y-113170102D01*
X121325551Y-113184991D01*
X119854998Y-113184989D01*
X115260331Y-108590323D01*
X115260329Y-108590320D01*
X112624896Y-105954888D01*
X112624896Y-102441330D01*
X113204782Y-102441330D01*
X113414880Y-103149484D01*
X113879984Y-103723332D01*
X114529286Y-104075511D01*
X114670252Y-104104985D01*
X114962897Y-103988862D01*
X114962897Y-102144290D01*
X115216897Y-102144290D01*
X115216897Y-103988862D01*
X115509542Y-104104985D01*
X115650508Y-104075511D01*
X116299810Y-103723332D01*
X116764914Y-103149484D01*
X116975012Y-102441330D01*
X116820279Y-102144290D01*
X115216897Y-102144290D01*
X114962897Y-102144290D01*
X113359515Y-102144290D01*
X113204782Y-102441330D01*
X112624896Y-102441330D01*
X112624896Y-101593250D01*
X113204782Y-101593250D01*
X113359515Y-101890290D01*
X114962897Y-101890290D01*
X114962897Y-100045718D01*
X115216897Y-100045718D01*
X115216897Y-101890290D01*
X116820279Y-101890290D01*
X116975012Y-101593250D01*
X116764914Y-100885096D01*
X116299810Y-100311248D01*
X115650508Y-99959069D01*
X115509542Y-99929595D01*
X115216897Y-100045718D01*
X114962897Y-100045718D01*
X114670252Y-99929595D01*
X114529286Y-99959069D01*
X113879984Y-100311248D01*
X113414880Y-100885096D01*
X113204782Y-101593250D01*
X112624896Y-101593250D01*
X112624896Y-89941330D01*
X113204782Y-89941330D01*
X113414880Y-90649484D01*
X113879984Y-91223332D01*
X114529286Y-91575511D01*
X114670252Y-91604985D01*
X114962897Y-91488862D01*
X114962897Y-89644290D01*
X115216897Y-89644290D01*
X115216897Y-91488862D01*
X115509542Y-91604985D01*
X115650508Y-91575511D01*
X116299810Y-91223332D01*
X116764914Y-90649484D01*
X116975012Y-89941330D01*
X116820279Y-89644290D01*
X115216897Y-89644290D01*
X114962897Y-89644290D01*
X113359515Y-89644290D01*
X113204782Y-89941330D01*
X112624896Y-89941330D01*
X112624896Y-89093250D01*
X113204782Y-89093250D01*
X113359515Y-89390290D01*
X114962897Y-89390290D01*
X114962897Y-87545718D01*
X115216897Y-87545718D01*
X115216897Y-89390290D01*
X116820279Y-89390290D01*
X116975012Y-89093250D01*
X116764914Y-88385096D01*
X116299810Y-87811248D01*
X115650508Y-87459069D01*
X115509542Y-87429595D01*
X115216897Y-87545718D01*
X114962897Y-87545718D01*
X114670252Y-87429595D01*
X114529286Y-87459069D01*
X113879984Y-87811248D01*
X113414880Y-88385096D01*
X113204782Y-89093250D01*
X112624896Y-89093250D01*
X112624896Y-85597449D01*
X115189343Y-85597449D01*
X115275749Y-85853933D01*
X115849233Y-86063748D01*
X116459357Y-86038129D01*
X116904045Y-85853933D01*
X116990451Y-85597449D01*
X116089897Y-84696895D01*
X115189343Y-85597449D01*
X112624896Y-85597449D01*
X112624896Y-84276626D01*
X114543439Y-84276626D01*
X114569058Y-84886750D01*
X114753254Y-85331438D01*
X115009738Y-85417844D01*
X115910292Y-84517290D01*
X115009738Y-83616736D01*
X114753254Y-83703142D01*
X114543439Y-84276626D01*
X112624896Y-84276626D01*
X112624896Y-83437131D01*
X115189343Y-83437131D01*
X116089897Y-84337685D01*
X116990451Y-83437131D01*
X116904045Y-83180647D01*
X116330561Y-82970832D01*
X115720437Y-82996451D01*
X115275749Y-83180647D01*
X115189343Y-83437131D01*
X112624896Y-83437131D01*
X112624896Y-79678742D01*
X112697289Y-79751135D01*
X113665763Y-80152290D01*
X114714031Y-80152290D01*
X115682505Y-79751135D01*
X116423742Y-79009898D01*
X116824897Y-78041424D01*
X116824897Y-76993156D01*
X120354897Y-76993156D01*
X120354897Y-78041424D01*
X120756052Y-79009898D01*
X121497289Y-79751135D01*
X122465763Y-80152290D01*
X123514031Y-80152290D01*
X124482505Y-79751135D01*
X125223742Y-79009898D01*
X125589897Y-78125921D01*
X125956052Y-79009898D01*
X126697289Y-79751135D01*
X127665763Y-80152290D01*
X128714031Y-80152290D01*
X129682505Y-79751135D01*
X130423742Y-79009898D01*
X130824897Y-78041424D01*
X130824897Y-76993156D01*
X134354897Y-76993156D01*
X134354897Y-78041424D01*
X134756052Y-79009898D01*
X135497289Y-79751135D01*
X136465763Y-80152290D01*
X137514031Y-80152290D01*
X138482505Y-79751135D01*
X139223742Y-79009898D01*
X139624897Y-78041424D01*
X139624897Y-76993156D01*
X139223742Y-76024682D01*
X138482505Y-75283445D01*
X137514031Y-74882290D01*
X136465763Y-74882290D01*
X135497289Y-75283445D01*
X134756052Y-76024682D01*
X134354897Y-76993156D01*
X130824897Y-76993156D01*
X130423742Y-76024682D01*
X129682505Y-75283445D01*
X128714031Y-74882290D01*
X127665763Y-74882290D01*
X126697289Y-75283445D01*
X125956052Y-76024682D01*
X125589897Y-76908659D01*
X125223742Y-76024682D01*
X124482505Y-75283445D01*
X123514031Y-74882290D01*
X122465763Y-74882290D01*
X121497289Y-75283445D01*
X120756052Y-76024682D01*
X120354897Y-76993156D01*
X116824897Y-76993156D01*
X116423742Y-76024682D01*
X115682505Y-75283445D01*
X114714031Y-74882290D01*
X114458696Y-74882290D01*
X123187946Y-66153040D01*
X127215000Y-66153040D01*
X127215000Y-66893600D01*
X127311673Y-67126989D01*
X127490302Y-67305617D01*
X127723691Y-67402290D01*
X128464250Y-67402290D01*
X128623000Y-67243540D01*
X128623000Y-65994290D01*
X127373750Y-65994290D01*
X127215000Y-66153040D01*
X123187946Y-66153040D01*
X124500006Y-64840980D01*
X127215000Y-64840980D01*
X127215000Y-65581540D01*
X127373750Y-65740290D01*
X128623000Y-65740290D01*
X128623000Y-64491040D01*
X128464250Y-64332290D01*
X127723691Y-64332290D01*
X127490302Y-64428963D01*
X127311673Y-64607591D01*
X127215000Y-64840980D01*
X124500006Y-64840980D01*
X135107857Y-54233130D01*
X135107857Y-59580000D01*
X164892143Y-59580000D01*
X164892143Y-59466957D01*
X180458946Y-59466957D01*
X180458946Y-60515225D01*
X180860101Y-61483699D01*
X181601338Y-62224936D01*
X182569812Y-62626091D01*
X183618080Y-62626091D01*
X184586554Y-62224936D01*
X185327791Y-61483699D01*
X185728946Y-60515225D01*
X185728946Y-59466957D01*
X185327791Y-58498483D01*
X184586554Y-57757246D01*
X183618080Y-57356091D01*
X182569812Y-57356091D01*
X181601338Y-57757246D01*
X180860101Y-58498483D01*
X180458946Y-59466957D01*
X164892143Y-59466957D01*
X164892143Y-53751091D01*
X183345703Y-53751091D01*
X183317557Y-53892592D01*
X183376542Y-54189129D01*
X183544516Y-54440521D01*
X183795908Y-54608495D01*
X184092445Y-54667480D01*
X184388982Y-54608495D01*
X184576917Y-54482921D01*
X184579107Y-54480731D01*
X184688616Y-54526091D01*
X185299276Y-54526091D01*
X185863453Y-54292401D01*
X186243946Y-53911908D01*
X186624439Y-54292401D01*
X187188616Y-54526091D01*
X187799276Y-54526091D01*
X188363453Y-54292401D01*
X188584604Y-54071250D01*
X189093392Y-54071250D01*
X189179798Y-54327734D01*
X189753282Y-54537549D01*
X190363406Y-54511930D01*
X190808094Y-54327734D01*
X190894500Y-54071250D01*
X189993946Y-53170696D01*
X189093392Y-54071250D01*
X188584604Y-54071250D01*
X188795256Y-53860598D01*
X188798485Y-53852801D01*
X188913787Y-53891645D01*
X189814341Y-52991091D01*
X190173551Y-52991091D01*
X191074105Y-53891645D01*
X191330589Y-53805239D01*
X191540404Y-53231755D01*
X191514785Y-52621631D01*
X191330589Y-52176943D01*
X191074105Y-52090537D01*
X190173551Y-52991091D01*
X189814341Y-52991091D01*
X188913787Y-52090537D01*
X188798485Y-52129381D01*
X188795256Y-52121584D01*
X188584604Y-51910932D01*
X189093392Y-51910932D01*
X189993946Y-52811486D01*
X190894500Y-51910932D01*
X190808094Y-51654448D01*
X190234610Y-51444633D01*
X189624486Y-51470252D01*
X189179798Y-51654448D01*
X189093392Y-51910932D01*
X188584604Y-51910932D01*
X188363453Y-51689781D01*
X187799276Y-51456091D01*
X187188616Y-51456091D01*
X186624439Y-51689781D01*
X186243946Y-52070274D01*
X185863453Y-51689781D01*
X185299276Y-51456091D01*
X184688616Y-51456091D01*
X184124439Y-51689781D01*
X183692636Y-52121584D01*
X183647277Y-52231091D01*
X164892143Y-52231091D01*
X164892143Y-50660000D01*
X155660093Y-50660000D01*
X156088649Y-50373649D01*
X156422388Y-49874173D01*
X156510000Y-49433718D01*
X156510000Y-47386282D01*
X156422388Y-46945827D01*
X156088649Y-46446351D01*
X155589173Y-46112612D01*
X155000000Y-45995418D01*
X154410828Y-46112612D01*
X153911352Y-46446351D01*
X153750001Y-46687831D01*
X153588649Y-46446351D01*
X153089173Y-46112612D01*
X152500000Y-45995418D01*
X151910828Y-46112612D01*
X151411352Y-46446351D01*
X151077613Y-46945827D01*
X150990000Y-47386282D01*
X150990000Y-49433717D01*
X151077612Y-49874172D01*
X151411351Y-50373649D01*
X151839906Y-50660000D01*
X148160093Y-50660000D01*
X148588649Y-50373649D01*
X148922388Y-49874173D01*
X149010000Y-49433718D01*
X149010000Y-47386282D01*
X148922388Y-46945827D01*
X148588649Y-46446351D01*
X148089173Y-46112612D01*
X147500000Y-45995418D01*
X146910828Y-46112612D01*
X146411352Y-46446351D01*
X146250001Y-46687831D01*
X146088649Y-46446351D01*
X145589173Y-46112612D01*
X145000000Y-45995418D01*
X144410828Y-46112612D01*
X143911352Y-46446351D01*
X143577613Y-46945827D01*
X143490000Y-47386282D01*
X143490000Y-49433717D01*
X143577612Y-49874172D01*
X143911351Y-50373649D01*
X144339906Y-50660000D01*
X135107857Y-50660000D01*
X135107857Y-52249468D01*
X134978557Y-52275187D01*
X134727165Y-52443162D01*
X134684765Y-52506618D01*
X111380426Y-75810958D01*
X111316967Y-75853360D01*
X111148992Y-76104753D01*
X111104896Y-76326438D01*
X111104896Y-76326442D01*
X111090008Y-76401289D01*
X111104896Y-76476136D01*
X111104896Y-87678421D01*
X110825387Y-87491659D01*
X110089897Y-87345361D01*
X109354408Y-87491659D01*
X108730888Y-87908281D01*
X108314266Y-88531800D01*
X108204897Y-89081635D01*
X105678946Y-89081635D01*
X105678946Y-63751468D01*
X111532446Y-63751468D01*
X111532446Y-64730714D01*
X111907187Y-65635419D01*
X112599618Y-66327850D01*
X113504323Y-66702591D01*
X114483569Y-66702591D01*
X115388274Y-66327850D01*
X116080705Y-65635419D01*
X116455446Y-64730714D01*
X116455446Y-63751468D01*
X116080705Y-62846763D01*
X115388274Y-62154332D01*
X114914800Y-61958212D01*
X115125704Y-61747308D01*
X115328946Y-61256639D01*
X115328946Y-60725543D01*
X115125704Y-60234874D01*
X114750163Y-59859333D01*
X114259494Y-59656091D01*
X113728398Y-59656091D01*
X113237729Y-59859333D01*
X112862188Y-60234874D01*
X112658946Y-60725543D01*
X112658946Y-61256639D01*
X112862188Y-61747308D01*
X113073092Y-61958212D01*
X112599618Y-62154332D01*
X111907187Y-62846763D01*
X111532446Y-63751468D01*
X105678946Y-63751468D01*
X105678946Y-57725543D01*
X112658946Y-57725543D01*
X112658946Y-58256639D01*
X112862188Y-58747308D01*
X113237729Y-59122849D01*
X113728398Y-59326091D01*
X114259494Y-59326091D01*
X114750163Y-59122849D01*
X115125704Y-58747308D01*
X115328946Y-58256639D01*
X115328946Y-57725543D01*
X115125704Y-57234874D01*
X114750163Y-56859333D01*
X114259494Y-56656091D01*
X113728398Y-56656091D01*
X113237729Y-56859333D01*
X112862188Y-57234874D01*
X112658946Y-57725543D01*
X105678946Y-57725543D01*
X105678946Y-51251468D01*
X111532446Y-51251468D01*
X111532446Y-52230714D01*
X111907187Y-53135419D01*
X112599618Y-53827850D01*
X113073092Y-54023970D01*
X112862188Y-54234874D01*
X112658946Y-54725543D01*
X112658946Y-55256639D01*
X112862188Y-55747308D01*
X113237729Y-56122849D01*
X113728398Y-56326091D01*
X114259494Y-56326091D01*
X114750163Y-56122849D01*
X115125704Y-55747308D01*
X115328946Y-55256639D01*
X115328946Y-54725543D01*
X115125704Y-54234874D01*
X114914800Y-54023970D01*
X115388274Y-53827850D01*
X116080705Y-53135419D01*
X116455446Y-52230714D01*
X116455446Y-51251468D01*
X116080705Y-50346763D01*
X115388274Y-49654332D01*
X114483569Y-49279591D01*
X113504323Y-49279591D01*
X112599618Y-49654332D01*
X111907187Y-50346763D01*
X111532446Y-51251468D01*
X105678946Y-51251468D01*
X105678946Y-45021597D01*
X105721345Y-44546522D01*
X107758946Y-44546522D01*
X107758946Y-45435660D01*
X108099205Y-46257117D01*
X108727920Y-46885832D01*
X109549377Y-47226091D01*
X110438515Y-47226091D01*
X111259972Y-46885832D01*
X111888687Y-46257117D01*
X112228946Y-45435660D01*
X112228946Y-44546522D01*
X111888687Y-43725065D01*
X111853372Y-43689750D01*
X147615000Y-43689750D01*
X147615000Y-44780310D01*
X147711673Y-45013699D01*
X147890302Y-45192327D01*
X148123691Y-45289000D01*
X149714250Y-45289000D01*
X149873000Y-45130250D01*
X149873000Y-43531000D01*
X150127000Y-43531000D01*
X150127000Y-45130250D01*
X150285750Y-45289000D01*
X151876309Y-45289000D01*
X152109698Y-45192327D01*
X152288327Y-45013699D01*
X152385000Y-44780310D01*
X152385000Y-44546522D01*
X187758946Y-44546522D01*
X187758946Y-45435660D01*
X188099205Y-46257117D01*
X188727920Y-46885832D01*
X189549377Y-47226091D01*
X190438515Y-47226091D01*
X191259972Y-46885832D01*
X191888687Y-46257117D01*
X192228946Y-45435660D01*
X192228946Y-44546522D01*
X191888687Y-43725065D01*
X191259972Y-43096350D01*
X190438515Y-42756091D01*
X189549377Y-42756091D01*
X188727920Y-43096350D01*
X188099205Y-43725065D01*
X187758946Y-44546522D01*
X152385000Y-44546522D01*
X152385000Y-43689750D01*
X152226250Y-43531000D01*
X150127000Y-43531000D01*
X149873000Y-43531000D01*
X147773750Y-43531000D01*
X147615000Y-43689750D01*
X111853372Y-43689750D01*
X111259972Y-43096350D01*
X110438515Y-42756091D01*
X109549377Y-42756091D01*
X108727920Y-43096350D01*
X108099205Y-43725065D01*
X107758946Y-44546522D01*
X105721345Y-44546522D01*
X105749821Y-44227454D01*
X105952126Y-43487951D01*
X106282188Y-42795963D01*
X106729575Y-42173358D01*
X106879892Y-42027690D01*
X147615000Y-42027690D01*
X147615000Y-43118250D01*
X147773750Y-43277000D01*
X149873000Y-43277000D01*
X149873000Y-41677750D01*
X150127000Y-41677750D01*
X150127000Y-43277000D01*
X152226250Y-43277000D01*
X152385000Y-43118250D01*
X152385000Y-42027690D01*
X152288327Y-41794301D01*
X152109698Y-41615673D01*
X151876309Y-41519000D01*
X150285750Y-41519000D01*
X150127000Y-41677750D01*
X149873000Y-41677750D01*
X149714250Y-41519000D01*
X148123691Y-41519000D01*
X147890302Y-41615673D01*
X147711673Y-41794301D01*
X147615000Y-42027690D01*
X106879892Y-42027690D01*
X107280141Y-41639823D01*
X107916490Y-41212215D01*
X108618507Y-40904050D01*
X109369266Y-40723808D01*
X110019058Y-40676091D01*
X189963440Y-40676091D01*
X190757583Y-40746966D01*
X190757583Y-40746966D01*
G37*
X190757583Y-40746966D02*
X191497086Y-40949271D01*
X192189074Y-41279333D01*
X192811679Y-41726720D01*
X193345214Y-42277286D01*
X193772822Y-42913635D01*
X194080987Y-43615652D01*
X194261229Y-44366411D01*
X194308946Y-45016203D01*
X194308946Y-58935830D01*
X194127791Y-58498483D01*
X193386554Y-57757246D01*
X192418080Y-57356091D01*
X191369812Y-57356091D01*
X190401338Y-57757246D01*
X189660101Y-58498483D01*
X189258946Y-59466957D01*
X189258946Y-60515225D01*
X189660101Y-61483699D01*
X190401338Y-62224936D01*
X191369812Y-62626091D01*
X192418080Y-62626091D01*
X193386554Y-62224936D01*
X194127791Y-61483699D01*
X194308946Y-61046352D01*
X194308947Y-129978796D01*
X194233484Y-132087009D01*
X194008802Y-134172198D01*
X193635609Y-136235981D01*
X193115813Y-138267811D01*
X192452080Y-140257268D01*
X191647810Y-142194167D01*
X190707099Y-144068636D01*
X189634788Y-145871029D01*
X188436354Y-147592143D01*
X187117922Y-149223178D01*
X185686261Y-150755763D01*
X184148677Y-152182076D01*
X182513071Y-153494787D01*
X180787770Y-154687217D01*
X178981645Y-155753229D01*
X177103927Y-156687381D01*
X175164210Y-157484894D01*
X173172451Y-158141678D01*
X171138826Y-158654377D01*
X169073750Y-159020364D01*
X166987182Y-159237830D01*
X164982297Y-159306091D01*
X135006214Y-159306091D01*
X132898028Y-159230629D01*
X130812839Y-159005947D01*
X128749056Y-158632754D01*
X126717226Y-158112958D01*
X124727769Y-157449225D01*
X122790870Y-156644955D01*
X120916401Y-155704244D01*
X119114008Y-154631933D01*
X117392894Y-153433499D01*
X115761859Y-152115067D01*
X114229274Y-150683406D01*
X113174664Y-149546522D01*
X117758946Y-149546522D01*
X117758946Y-150435660D01*
X118099205Y-151257117D01*
X118727920Y-151885832D01*
X119549377Y-152226091D01*
X120438515Y-152226091D01*
X121259972Y-151885832D01*
X121888687Y-151257117D01*
X122228946Y-150435660D01*
X122228946Y-149546522D01*
X121888687Y-148725065D01*
X121259972Y-148096350D01*
X120438515Y-147756091D01*
X119549377Y-147756091D01*
X118727920Y-148096350D01*
X118099205Y-148725065D01*
X117758946Y-149546522D01*
X113174664Y-149546522D01*
X112802961Y-149145822D01*
X111490250Y-147510216D01*
X110297820Y-145784915D01*
X109231808Y-143978790D01*
X108297656Y-142101072D01*
X107500143Y-140161355D01*
X106843359Y-138169596D01*
X106330660Y-136135971D01*
X105964673Y-134070895D01*
X105747207Y-131984327D01*
X105678946Y-129979442D01*
X105678946Y-119546522D01*
X107758946Y-119546522D01*
X107758946Y-120435660D01*
X108099205Y-121257117D01*
X108727920Y-121885832D01*
X109549377Y-122226091D01*
X110438515Y-122226091D01*
X111259972Y-121885832D01*
X111888687Y-121257117D01*
X112228946Y-120435660D01*
X112228946Y-119546522D01*
X111888687Y-118725065D01*
X111259972Y-118096350D01*
X110438515Y-117756091D01*
X109549377Y-117756091D01*
X108727920Y-118096350D01*
X108099205Y-118725065D01*
X107758946Y-119546522D01*
X105678946Y-119546522D01*
X105678946Y-89081635D01*
X108204897Y-89081635D01*
X108204897Y-89952944D01*
X108314266Y-90502779D01*
X108730888Y-91126299D01*
X109329898Y-91526545D01*
X109329897Y-100008037D01*
X108730888Y-100408281D01*
X108314266Y-101031800D01*
X108204897Y-101581635D01*
X108204897Y-102452944D01*
X108314266Y-103002779D01*
X108730888Y-103626299D01*
X109354407Y-104042921D01*
X110089897Y-104189219D01*
X110825386Y-104042921D01*
X111104897Y-103856158D01*
X111104897Y-106194837D01*
X111090008Y-106269689D01*
X111104897Y-106344541D01*
X111148993Y-106566226D01*
X111316968Y-106817618D01*
X111380424Y-106860018D01*
X114185527Y-109665122D01*
X114185530Y-109665124D01*
X118592965Y-114072560D01*
X117260000Y-114072560D01*
X117012235Y-114121843D01*
X116802191Y-114262191D01*
X116661843Y-114472235D01*
X116612560Y-114720000D01*
X116612560Y-116420000D01*
X116661843Y-116667765D01*
X116802191Y-116877809D01*
X117012235Y-117018157D01*
X117057619Y-117027184D01*
X117039375Y-117039375D01*
X116711161Y-117530582D01*
X116595908Y-118110000D01*
X116711161Y-118689418D01*
X116929704Y-119016491D01*
X111874107Y-124072090D01*
X111810651Y-124114490D01*
X111642676Y-124365882D01*
X111598580Y-124587567D01*
X111598580Y-124587571D01*
X111583692Y-124662418D01*
X111598580Y-124737265D01*
X111598582Y-136999339D01*
X111583693Y-137074191D01*
X111598582Y-137149042D01*
X111598582Y-137149043D01*
X111605600Y-137184327D01*
X111642678Y-137370728D01*
X111738045Y-137513454D01*
X111810653Y-137622120D01*
X111874109Y-137664520D01*
X113428262Y-139218674D01*
X113470663Y-139282131D01*
X113722055Y-139450106D01*
X113895592Y-139484625D01*
X129915469Y-155504503D01*
X129957867Y-155567956D01*
X130021320Y-155610354D01*
X130021323Y-155610357D01*
X130209258Y-155735931D01*
X130505795Y-155794916D01*
X130580647Y-155780027D01*
X158950126Y-155780029D01*
X159024973Y-155794917D01*
X159099820Y-155780029D01*
X159099824Y-155780029D01*
X159321509Y-155735933D01*
X159572901Y-155567958D01*
X159615301Y-155504502D01*
X161629477Y-153490328D01*
X161692930Y-153447930D01*
X161735328Y-153384477D01*
X161735330Y-153384475D01*
X161844512Y-153221072D01*
X161860905Y-153196538D01*
X161905001Y-152974853D01*
X161905001Y-152974849D01*
X161919889Y-152900002D01*
X161905001Y-152825155D01*
X161905001Y-148608203D01*
X162000091Y-148671740D01*
X162418667Y-148755000D01*
X162701333Y-148755000D01*
X162795000Y-148736368D01*
X162795000Y-149075274D01*
X162952569Y-149455680D01*
X163243720Y-149746831D01*
X163624126Y-149904400D01*
X164035874Y-149904400D01*
X164416280Y-149746831D01*
X164533711Y-149629400D01*
X172760755Y-149629400D01*
X172835602Y-149644288D01*
X172910449Y-149629400D01*
X172910454Y-149629400D01*
X173132139Y-149585304D01*
X173190180Y-149546522D01*
X177758946Y-149546522D01*
X177758946Y-150435660D01*
X178099205Y-151257117D01*
X178727920Y-151885832D01*
X179549377Y-152226091D01*
X180438515Y-152226091D01*
X181259972Y-151885832D01*
X181888687Y-151257117D01*
X182228946Y-150435660D01*
X182228946Y-149546522D01*
X181888687Y-148725065D01*
X181259972Y-148096350D01*
X180438515Y-147756091D01*
X179549377Y-147756091D01*
X178727920Y-148096350D01*
X178099205Y-148725065D01*
X177758946Y-149546522D01*
X173190180Y-149546522D01*
X173383531Y-149417329D01*
X173425933Y-149353870D01*
X174329474Y-148450330D01*
X174392930Y-148407930D01*
X174456204Y-148313234D01*
X174560905Y-148156539D01*
X174573168Y-148094888D01*
X174605001Y-147934853D01*
X174605001Y-147934849D01*
X174619889Y-147860001D01*
X174605001Y-147785153D01*
X174605001Y-144224798D01*
X176302560Y-142527239D01*
X176302560Y-143090000D01*
X176351843Y-143337765D01*
X176492191Y-143547809D01*
X176702235Y-143688157D01*
X176950000Y-143737440D01*
X178650000Y-143737440D01*
X178897765Y-143688157D01*
X179107809Y-143547809D01*
X179248157Y-143337765D01*
X179268739Y-143234292D01*
X179573076Y-143511645D01*
X179983110Y-143681476D01*
X180213000Y-143560155D01*
X180213000Y-142367000D01*
X180467000Y-142367000D01*
X180467000Y-143560155D01*
X180696890Y-143681476D01*
X181106924Y-143511645D01*
X181535183Y-143121358D01*
X181781486Y-142596892D01*
X181660819Y-142367000D01*
X180467000Y-142367000D01*
X180213000Y-142367000D01*
X180193000Y-142367000D01*
X180193000Y-142113000D01*
X180213000Y-142113000D01*
X180213000Y-140919845D01*
X180467000Y-140919845D01*
X180467000Y-142113000D01*
X181660819Y-142113000D01*
X181781486Y-141883108D01*
X181535183Y-141358642D01*
X181106924Y-140968355D01*
X180696890Y-140798524D01*
X180467000Y-140919845D01*
X180213000Y-140919845D01*
X179983110Y-140798524D01*
X179573076Y-140968355D01*
X179268739Y-141245708D01*
X179248157Y-141142235D01*
X179107809Y-140932191D01*
X178897765Y-140791843D01*
X178650000Y-140742560D01*
X178087239Y-140742560D01*
X181639799Y-137190001D01*
X185200149Y-137190001D01*
X185275001Y-137204890D01*
X185571538Y-137145905D01*
X185822930Y-136977930D01*
X185990905Y-136726538D01*
X186035001Y-136504853D01*
X186049890Y-136430001D01*
X186035001Y-136355149D01*
X186035001Y-119546522D01*
X187758946Y-119546522D01*
X187758946Y-120435660D01*
X188099205Y-121257117D01*
X188727920Y-121885832D01*
X189549377Y-122226091D01*
X190438515Y-122226091D01*
X191259972Y-121885832D01*
X191888687Y-121257117D01*
X192228946Y-120435660D01*
X192228946Y-119546522D01*
X191888687Y-118725065D01*
X191259972Y-118096350D01*
X190438515Y-117756091D01*
X189549377Y-117756091D01*
X188727920Y-118096350D01*
X188099205Y-118725065D01*
X187758946Y-119546522D01*
X186035001Y-119546522D01*
X186035001Y-104027242D01*
X186049889Y-103952394D01*
X186039446Y-103899891D01*
X186448906Y-103626299D01*
X186865528Y-103002780D01*
X186974897Y-102452945D01*
X186974897Y-102441330D01*
X188204782Y-102441330D01*
X188414880Y-103149484D01*
X188879984Y-103723332D01*
X189529286Y-104075511D01*
X189670252Y-104104985D01*
X189962897Y-103988862D01*
X189962897Y-102144290D01*
X190216897Y-102144290D01*
X190216897Y-103988862D01*
X190509542Y-104104985D01*
X190650508Y-104075511D01*
X191299810Y-103723332D01*
X191764914Y-103149484D01*
X191975012Y-102441330D01*
X191820279Y-102144290D01*
X190216897Y-102144290D01*
X189962897Y-102144290D01*
X188359515Y-102144290D01*
X188204782Y-102441330D01*
X186974897Y-102441330D01*
X186974897Y-101593250D01*
X188204782Y-101593250D01*
X188359515Y-101890290D01*
X189962897Y-101890290D01*
X189962897Y-100045718D01*
X190216897Y-100045718D01*
X190216897Y-101890290D01*
X191820279Y-101890290D01*
X191975012Y-101593250D01*
X191764914Y-100885096D01*
X191299810Y-100311248D01*
X190650508Y-99959069D01*
X190509542Y-99929595D01*
X190216897Y-100045718D01*
X189962897Y-100045718D01*
X189670252Y-99929595D01*
X189529286Y-99959069D01*
X188879984Y-100311248D01*
X188414880Y-100885096D01*
X188204782Y-101593250D01*
X186974897Y-101593250D01*
X186974897Y-101581636D01*
X186865528Y-101031800D01*
X186448906Y-100408281D01*
X185849897Y-100008036D01*
X185849897Y-91526543D01*
X186448906Y-91126299D01*
X186865528Y-90502780D01*
X186974897Y-89952945D01*
X186974897Y-89941330D01*
X188204782Y-89941330D01*
X188414880Y-90649484D01*
X188879984Y-91223332D01*
X189529286Y-91575511D01*
X189670252Y-91604985D01*
X189962897Y-91488862D01*
X189962897Y-89644290D01*
X190216897Y-89644290D01*
X190216897Y-91488862D01*
X190509542Y-91604985D01*
X190650508Y-91575511D01*
X191299810Y-91223332D01*
X191764914Y-90649484D01*
X191975012Y-89941330D01*
X191820279Y-89644290D01*
X190216897Y-89644290D01*
X189962897Y-89644290D01*
X188359515Y-89644290D01*
X188204782Y-89941330D01*
X186974897Y-89941330D01*
X186974897Y-89093250D01*
X188204782Y-89093250D01*
X188359515Y-89390290D01*
X189962897Y-89390290D01*
X189962897Y-87545718D01*
X190216897Y-87545718D01*
X190216897Y-89390290D01*
X191820279Y-89390290D01*
X191975012Y-89093250D01*
X191764914Y-88385096D01*
X191299810Y-87811248D01*
X190650508Y-87459069D01*
X190509542Y-87429595D01*
X190216897Y-87545718D01*
X189962897Y-87545718D01*
X189670252Y-87429595D01*
X189529286Y-87459069D01*
X188879984Y-87811248D01*
X188414880Y-88385096D01*
X188204782Y-89093250D01*
X186974897Y-89093250D01*
X186974897Y-89081636D01*
X186865528Y-88531800D01*
X186448906Y-87908281D01*
X185825387Y-87491659D01*
X185089897Y-87345361D01*
X184354408Y-87491659D01*
X183730888Y-87908281D01*
X183314266Y-88531800D01*
X183204897Y-89081635D01*
X183204897Y-89952944D01*
X183314266Y-90502779D01*
X183730888Y-91126299D01*
X184329898Y-91526545D01*
X184329897Y-100008037D01*
X183730888Y-100408281D01*
X183314266Y-101031800D01*
X183204897Y-101581635D01*
X183204897Y-102452944D01*
X183314266Y-103002779D01*
X183730888Y-103626299D01*
X184354407Y-104042921D01*
X184370471Y-104046116D01*
X184373994Y-104063827D01*
X184497677Y-104248931D01*
X184515001Y-104274859D01*
X184515001Y-114185640D01*
X184499041Y-114178086D01*
X184277000Y-114299371D01*
X184277000Y-115443000D01*
X184297000Y-115443000D01*
X184297000Y-115697000D01*
X184277000Y-115697000D01*
X184277000Y-117983000D01*
X184297000Y-117983000D01*
X184297000Y-118237000D01*
X184277000Y-118237000D01*
X184277000Y-118257000D01*
X184023000Y-118257000D01*
X184023000Y-118237000D01*
X182880085Y-118237000D01*
X182758096Y-118459039D01*
X182918959Y-118847423D01*
X183294866Y-119262389D01*
X183499108Y-119359053D01*
X183115423Y-119615423D01*
X182798260Y-120090091D01*
X182686887Y-120650000D01*
X182798260Y-121209909D01*
X183115423Y-121684577D01*
X183467758Y-121920000D01*
X183115423Y-122155423D01*
X182798260Y-122630091D01*
X182686887Y-123190000D01*
X182798260Y-123749909D01*
X183115423Y-124224577D01*
X183467758Y-124460000D01*
X183115423Y-124695423D01*
X182798260Y-125170091D01*
X182686887Y-125730000D01*
X182798260Y-126289909D01*
X183115423Y-126764577D01*
X183467758Y-127000000D01*
X183115423Y-127235423D01*
X182798260Y-127710091D01*
X182686887Y-128270000D01*
X182798260Y-128829909D01*
X183115423Y-129304577D01*
X183467758Y-129540000D01*
X183115423Y-129775423D01*
X182798260Y-130250091D01*
X182686887Y-130810000D01*
X182798260Y-131369909D01*
X183115423Y-131844577D01*
X183467758Y-132080000D01*
X183115423Y-132315423D01*
X182798260Y-132790091D01*
X182686887Y-133350000D01*
X182798260Y-133909909D01*
X183115423Y-134384577D01*
X183590091Y-134701740D01*
X184008667Y-134785000D01*
X184291333Y-134785000D01*
X184515002Y-134740509D01*
X184515002Y-135670001D01*
X181399845Y-135670001D01*
X181324997Y-135655113D01*
X181250149Y-135670001D01*
X181250145Y-135670001D01*
X181076602Y-135704521D01*
X181028459Y-135714097D01*
X180877227Y-135815148D01*
X180777068Y-135882072D01*
X180734668Y-135945528D01*
X173360531Y-143319666D01*
X173297072Y-143362068D01*
X173129097Y-143613461D01*
X173085001Y-143835146D01*
X173085001Y-143835150D01*
X173070113Y-143909997D01*
X173085001Y-143984844D01*
X173085002Y-145929490D01*
X172861333Y-145885000D01*
X172578667Y-145885000D01*
X172160091Y-145968260D01*
X171685423Y-146285423D01*
X171450000Y-146637758D01*
X171214577Y-146285423D01*
X170739909Y-145968260D01*
X170474862Y-145915539D01*
X182074370Y-134316032D01*
X182137826Y-134273632D01*
X182305801Y-134022240D01*
X182349897Y-133800555D01*
X182349897Y-133800551D01*
X182364785Y-133725704D01*
X182349897Y-133650857D01*
X182349897Y-115919039D01*
X182758096Y-115919039D01*
X182918959Y-116307423D01*
X183294866Y-116722389D01*
X183543367Y-116840000D01*
X183294866Y-116957611D01*
X182918959Y-117372577D01*
X182758096Y-117760961D01*
X182880085Y-117983000D01*
X184023000Y-117983000D01*
X184023000Y-115697000D01*
X182880085Y-115697000D01*
X182758096Y-115919039D01*
X182349897Y-115919039D01*
X182349897Y-115220961D01*
X182758096Y-115220961D01*
X182880085Y-115443000D01*
X184023000Y-115443000D01*
X184023000Y-114299371D01*
X183800959Y-114178086D01*
X183294866Y-114417611D01*
X182918959Y-114832577D01*
X182758096Y-115220961D01*
X182349897Y-115220961D01*
X182349897Y-85863959D01*
X182459404Y-85818600D01*
X182839897Y-85438107D01*
X183220390Y-85818600D01*
X183784567Y-86052290D01*
X184395227Y-86052290D01*
X184959404Y-85818600D01*
X185391207Y-85386797D01*
X185624897Y-84822620D01*
X185624897Y-84211960D01*
X185391207Y-83647783D01*
X184959404Y-83215980D01*
X184395227Y-82982290D01*
X183784567Y-82982290D01*
X183220390Y-83215980D01*
X182839897Y-83596473D01*
X182459404Y-83215980D01*
X181895227Y-82982290D01*
X181284567Y-82982290D01*
X181074898Y-83069138D01*
X181074898Y-76993156D01*
X183354897Y-76993156D01*
X183354897Y-78041424D01*
X183756052Y-79009898D01*
X184497289Y-79751135D01*
X185465763Y-80152290D01*
X186514031Y-80152290D01*
X187482505Y-79751135D01*
X188223742Y-79009898D01*
X188624897Y-78041424D01*
X188624897Y-76993156D01*
X188223742Y-76024682D01*
X187482505Y-75283445D01*
X186514031Y-74882290D01*
X185465763Y-74882290D01*
X184497289Y-75283445D01*
X183756052Y-76024682D01*
X183354897Y-76993156D01*
X181074898Y-76993156D01*
X181074898Y-73154032D01*
X181089786Y-73079185D01*
X181074898Y-73004338D01*
X181074898Y-73004334D01*
X181030802Y-72782649D01*
X180862827Y-72531257D01*
X180799371Y-72488857D01*
X172468332Y-64157819D01*
X172425930Y-64094360D01*
X172174538Y-63926385D01*
X171952853Y-63882289D01*
X171952848Y-63882289D01*
X171878001Y-63867401D01*
X171803154Y-63882289D01*
X170776845Y-63882289D01*
X170701998Y-63867401D01*
X170627151Y-63882289D01*
X170627147Y-63882289D01*
X170405462Y-63926385D01*
X170154070Y-64094360D01*
X170111670Y-64157816D01*
X169890074Y-64379413D01*
X169776309Y-64332290D01*
X169035750Y-64332290D01*
X168877000Y-64491040D01*
X168877000Y-65740290D01*
X168897000Y-65740290D01*
X168897000Y-65994290D01*
X168877000Y-65994290D01*
X168877000Y-67243540D01*
X169035750Y-67402290D01*
X169304999Y-67402290D01*
X169304999Y-67414489D01*
X168793315Y-67926174D01*
X168729859Y-67968574D01*
X168687459Y-68032030D01*
X168687458Y-68032031D01*
X168561884Y-68219966D01*
X168502899Y-68516503D01*
X168517788Y-68591355D01*
X168517787Y-82514598D01*
X168004735Y-83027650D01*
X167895227Y-82982290D01*
X167284567Y-82982290D01*
X166720390Y-83215980D01*
X166288587Y-83647783D01*
X166285358Y-83655580D01*
X166170056Y-83616736D01*
X165269502Y-84517290D01*
X166170056Y-85417844D01*
X166285358Y-85379000D01*
X166288587Y-85386797D01*
X166720390Y-85818600D01*
X167284567Y-86052290D01*
X167895227Y-86052290D01*
X168459404Y-85818600D01*
X168839897Y-85438107D01*
X169220390Y-85818600D01*
X169784567Y-86052290D01*
X170395227Y-86052290D01*
X170959404Y-85818600D01*
X171391207Y-85386797D01*
X171624897Y-84822620D01*
X171624897Y-84211960D01*
X171391207Y-83647783D01*
X170959404Y-83215980D01*
X170395227Y-82982290D01*
X170022264Y-82982290D01*
X170037787Y-82904252D01*
X170037787Y-82904247D01*
X170052675Y-82829400D01*
X170037787Y-82754553D01*
X170037787Y-79291633D01*
X170497289Y-79751135D01*
X171465763Y-80152290D01*
X172514031Y-80152290D01*
X173482505Y-79751135D01*
X174104897Y-79128743D01*
X174104897Y-84740037D01*
X174090008Y-84814889D01*
X174148993Y-85111426D01*
X174269768Y-85292178D01*
X174316968Y-85362818D01*
X174380424Y-85405218D01*
X176467686Y-87492481D01*
X175879984Y-87811248D01*
X175414880Y-88385096D01*
X175207820Y-89083011D01*
X173332618Y-87207810D01*
X173290216Y-87144351D01*
X173038824Y-86976376D01*
X172817139Y-86932280D01*
X172817134Y-86932280D01*
X172742287Y-86917392D01*
X172667440Y-86932280D01*
X166766687Y-86932280D01*
X165751518Y-85917112D01*
X165904045Y-85853933D01*
X165990451Y-85597449D01*
X165089897Y-84696895D01*
X165075755Y-84711038D01*
X164896150Y-84531433D01*
X164910292Y-84517290D01*
X164009738Y-83616736D01*
X163753254Y-83703142D01*
X163695475Y-83861068D01*
X163271538Y-83437131D01*
X164189343Y-83437131D01*
X165089897Y-84337685D01*
X165990451Y-83437131D01*
X165904045Y-83180647D01*
X165330561Y-82970832D01*
X164720437Y-82996451D01*
X164275749Y-83180647D01*
X164189343Y-83437131D01*
X163271538Y-83437131D01*
X160576800Y-80742394D01*
X160576800Y-78094303D01*
X160956052Y-79009898D01*
X161697289Y-79751135D01*
X162665763Y-80152290D01*
X163714031Y-80152290D01*
X164682505Y-79751135D01*
X165423742Y-79009898D01*
X165824897Y-78041424D01*
X165824897Y-76993156D01*
X165423742Y-76024682D01*
X164682505Y-75283445D01*
X163714031Y-74882290D01*
X162665763Y-74882290D01*
X161697289Y-75283445D01*
X160956052Y-76024682D01*
X160576800Y-76940277D01*
X160576800Y-67655291D01*
X160875162Y-67356930D01*
X160984670Y-67402290D01*
X161595330Y-67402290D01*
X162159507Y-67168600D01*
X162591310Y-66736797D01*
X162825000Y-66172620D01*
X162825000Y-66153040D01*
X167215000Y-66153040D01*
X167215000Y-66893600D01*
X167311673Y-67126989D01*
X167490302Y-67305617D01*
X167723691Y-67402290D01*
X168464250Y-67402290D01*
X168623000Y-67243540D01*
X168623000Y-65994290D01*
X167373750Y-65994290D01*
X167215000Y-66153040D01*
X162825000Y-66153040D01*
X162825000Y-65561960D01*
X162591310Y-64997783D01*
X162434507Y-64840980D01*
X167215000Y-64840980D01*
X167215000Y-65581540D01*
X167373750Y-65740290D01*
X168623000Y-65740290D01*
X168623000Y-64491040D01*
X168464250Y-64332290D01*
X167723691Y-64332290D01*
X167490302Y-64428963D01*
X167311673Y-64607591D01*
X167215000Y-64840980D01*
X162434507Y-64840980D01*
X162159507Y-64565980D01*
X161595330Y-64332290D01*
X160984670Y-64332290D01*
X160420493Y-64565980D01*
X160244139Y-64742334D01*
X160188327Y-64607591D01*
X160009698Y-64428963D01*
X159776309Y-64332290D01*
X159035750Y-64332290D01*
X158877000Y-64491040D01*
X158877000Y-65740290D01*
X158897000Y-65740290D01*
X158897000Y-65994290D01*
X158877000Y-65994290D01*
X158877000Y-67243540D01*
X159035750Y-67402290D01*
X159054205Y-67402290D01*
X159056800Y-67415337D01*
X159056801Y-80931993D01*
X152949999Y-74825191D01*
X152949999Y-66842137D01*
X152964887Y-66767289D01*
X152949999Y-66692441D01*
X152949999Y-66692437D01*
X152905903Y-66470752D01*
X152905903Y-66470751D01*
X152780328Y-66282816D01*
X152779728Y-66281917D01*
X152825000Y-66172620D01*
X152825000Y-66153040D01*
X157215000Y-66153040D01*
X157215000Y-66893600D01*
X157311673Y-67126989D01*
X157490302Y-67305617D01*
X157723691Y-67402290D01*
X158464250Y-67402290D01*
X158623000Y-67243540D01*
X158623000Y-65994290D01*
X157373750Y-65994290D01*
X157215000Y-66153040D01*
X152825000Y-66153040D01*
X152825000Y-65561960D01*
X152591310Y-64997783D01*
X152434507Y-64840980D01*
X157215000Y-64840980D01*
X157215000Y-65581540D01*
X157373750Y-65740290D01*
X158623000Y-65740290D01*
X158623000Y-64491040D01*
X158464250Y-64332290D01*
X157723691Y-64332290D01*
X157490302Y-64428963D01*
X157311673Y-64607591D01*
X157215000Y-64840980D01*
X152434507Y-64840980D01*
X152159507Y-64565980D01*
X151595330Y-64332290D01*
X150984670Y-64332290D01*
X150420493Y-64565980D01*
X150244139Y-64742334D01*
X150188327Y-64607591D01*
X150009698Y-64428963D01*
X149776309Y-64332290D01*
X149035750Y-64332290D01*
X148877000Y-64491040D01*
X148877000Y-65740290D01*
X148897000Y-65740290D01*
X148897000Y-65994290D01*
X148877000Y-65994290D01*
X148877000Y-67243540D01*
X149035750Y-67402290D01*
X149776309Y-67402290D01*
X150009698Y-67305617D01*
X150188327Y-67126989D01*
X150244139Y-66992246D01*
X150420493Y-67168600D01*
X150984670Y-67402290D01*
X151429999Y-67402290D01*
X151430000Y-75065140D01*
X151415111Y-75139992D01*
X151474096Y-75436529D01*
X151534826Y-75527417D01*
X151642071Y-75687921D01*
X151705527Y-75730321D01*
X163467686Y-87492481D01*
X162879984Y-87811248D01*
X162414880Y-88385096D01*
X162204782Y-89093250D01*
X162359515Y-89390290D01*
X163962897Y-89390290D01*
X163962897Y-89370290D01*
X164216897Y-89370290D01*
X164216897Y-89390290D01*
X164236897Y-89390290D01*
X164236897Y-89644290D01*
X164216897Y-89644290D01*
X164216897Y-91488862D01*
X164509542Y-91604985D01*
X164650508Y-91575511D01*
X165299810Y-91223332D01*
X165764914Y-90649484D01*
X165961632Y-89986427D01*
X169754887Y-93779682D01*
X169754888Y-110355033D01*
X169739999Y-110429885D01*
X169754888Y-110504737D01*
X169798984Y-110726422D01*
X169966959Y-110977814D01*
X170030415Y-111020214D01*
X173309033Y-114298833D01*
X173177138Y-114353466D01*
X172773466Y-114757138D01*
X172555000Y-115284561D01*
X172555000Y-115855439D01*
X172708077Y-116224999D01*
X171631213Y-116224999D01*
X159511559Y-104105345D01*
X159825386Y-104042921D01*
X160448906Y-103626299D01*
X160865528Y-103002780D01*
X160974897Y-102452945D01*
X160974897Y-102441330D01*
X162204782Y-102441330D01*
X162414880Y-103149484D01*
X162879984Y-103723332D01*
X163529286Y-104075511D01*
X163670252Y-104104985D01*
X163962897Y-103988862D01*
X163962897Y-102144290D01*
X164216897Y-102144290D01*
X164216897Y-103988862D01*
X164509542Y-104104985D01*
X164650508Y-104075511D01*
X165299810Y-103723332D01*
X165764914Y-103149484D01*
X165975012Y-102441330D01*
X165820279Y-102144290D01*
X164216897Y-102144290D01*
X163962897Y-102144290D01*
X162359515Y-102144290D01*
X162204782Y-102441330D01*
X160974897Y-102441330D01*
X160974897Y-101593250D01*
X162204782Y-101593250D01*
X162359515Y-101890290D01*
X163962897Y-101890290D01*
X163962897Y-100045718D01*
X164216897Y-100045718D01*
X164216897Y-101890290D01*
X165820279Y-101890290D01*
X165975012Y-101593250D01*
X165764914Y-100885096D01*
X165299810Y-100311248D01*
X164650508Y-99959069D01*
X164509542Y-99929595D01*
X164216897Y-100045718D01*
X163962897Y-100045718D01*
X163670252Y-99929595D01*
X163529286Y-99959069D01*
X162879984Y-100311248D01*
X162414880Y-100885096D01*
X162204782Y-101593250D01*
X160974897Y-101593250D01*
X160974897Y-101581636D01*
X160865528Y-101031800D01*
X160448906Y-100408281D01*
X159849897Y-100008036D01*
X159849897Y-91526543D01*
X160448906Y-91126299D01*
X160865528Y-90502780D01*
X160974897Y-89952945D01*
X160974897Y-89941330D01*
X162204782Y-89941330D01*
X162414880Y-90649484D01*
X162879984Y-91223332D01*
X163529286Y-91575511D01*
X163670252Y-91604985D01*
X163962897Y-91488862D01*
X163962897Y-89644290D01*
X162359515Y-89644290D01*
X162204782Y-89941330D01*
X160974897Y-89941330D01*
X160974897Y-89081636D01*
X160865528Y-88531800D01*
X160448906Y-87908281D01*
X159825387Y-87491659D01*
X159089897Y-87345361D01*
X158354408Y-87491659D01*
X157730888Y-87908281D01*
X157314266Y-88531800D01*
X157204897Y-89081635D01*
X157204897Y-89952944D01*
X157314266Y-90502779D01*
X157730888Y-91126299D01*
X158329898Y-91526544D01*
X158329897Y-100008037D01*
X157730888Y-100408281D01*
X157314266Y-101031800D01*
X157204897Y-101581635D01*
X157204897Y-101798684D01*
X153135011Y-97728798D01*
X153135011Y-86390738D01*
X153149899Y-86315891D01*
X153135011Y-86241044D01*
X153135011Y-86241039D01*
X153090915Y-86019354D01*
X152922940Y-85767962D01*
X152859484Y-85725562D01*
X143980444Y-76846522D01*
X147765000Y-76846522D01*
X147765000Y-77735660D01*
X148105259Y-78557117D01*
X148733974Y-79185832D01*
X149555431Y-79526091D01*
X150444569Y-79526091D01*
X151266026Y-79185832D01*
X151894741Y-78557117D01*
X152235000Y-77735660D01*
X152235000Y-76846522D01*
X151894741Y-76025065D01*
X151266026Y-75396350D01*
X150444569Y-75056091D01*
X149555431Y-75056091D01*
X148733974Y-75396350D01*
X148105259Y-76025065D01*
X147765000Y-76846522D01*
X143980444Y-76846522D01*
X142050000Y-74916079D01*
X142050000Y-67213959D01*
X142159507Y-67168600D01*
X142591310Y-66736797D01*
X142825000Y-66172620D01*
X142825000Y-66153040D01*
X147215000Y-66153040D01*
X147215000Y-66893600D01*
X147311673Y-67126989D01*
X147490302Y-67305617D01*
X147723691Y-67402290D01*
X148464250Y-67402290D01*
X148623000Y-67243540D01*
X148623000Y-65994290D01*
X147373750Y-65994290D01*
X147215000Y-66153040D01*
X142825000Y-66153040D01*
X142825000Y-65561960D01*
X142591310Y-64997783D01*
X142434507Y-64840980D01*
X147215000Y-64840980D01*
X147215000Y-65581540D01*
X147373750Y-65740290D01*
X148623000Y-65740290D01*
X148623000Y-64491040D01*
X148464250Y-64332290D01*
X147723691Y-64332290D01*
X147490302Y-64428963D01*
X147311673Y-64607591D01*
X147215000Y-64840980D01*
X142434507Y-64840980D01*
X142159507Y-64565980D01*
X141595330Y-64332290D01*
X140984670Y-64332290D01*
X140420493Y-64565980D01*
X140244139Y-64742334D01*
X140188327Y-64607591D01*
X140009698Y-64428963D01*
X139776309Y-64332290D01*
X139035750Y-64332290D01*
X138877000Y-64491040D01*
X138877000Y-65740290D01*
X138897000Y-65740290D01*
X138897000Y-65994290D01*
X138877000Y-65994290D01*
X138877000Y-67243540D01*
X139035750Y-67402290D01*
X139776309Y-67402290D01*
X140009698Y-67305617D01*
X140188327Y-67126989D01*
X140244139Y-66992246D01*
X140420493Y-67168600D01*
X140530000Y-67213959D01*
X140530001Y-74032489D01*
X132779640Y-66282129D01*
X132825000Y-66172620D01*
X132825000Y-66153040D01*
X137215000Y-66153040D01*
X137215000Y-66893600D01*
X137311673Y-67126989D01*
X137490302Y-67305617D01*
X137723691Y-67402290D01*
X138464250Y-67402290D01*
X138623000Y-67243540D01*
X138623000Y-65994290D01*
X137373750Y-65994290D01*
X137215000Y-66153040D01*
X132825000Y-66153040D01*
X132825000Y-65561960D01*
X132591310Y-64997783D01*
X132434507Y-64840980D01*
X137215000Y-64840980D01*
X137215000Y-65581540D01*
X137373750Y-65740290D01*
X138623000Y-65740290D01*
X138623000Y-64491040D01*
X138464250Y-64332290D01*
X137723691Y-64332290D01*
X137490302Y-64428963D01*
X137311673Y-64607591D01*
X137215000Y-64840980D01*
X132434507Y-64840980D01*
X132159507Y-64565980D01*
X131595330Y-64332290D01*
X130984670Y-64332290D01*
X130420493Y-64565980D01*
X130244139Y-64742334D01*
X130188327Y-64607591D01*
X130009698Y-64428963D01*
X129776309Y-64332290D01*
X129035750Y-64332290D01*
X128877000Y-64491040D01*
X128877000Y-65740290D01*
X128897000Y-65740290D01*
X128897000Y-65994290D01*
X128877000Y-65994290D01*
X128877000Y-67243540D01*
X129035750Y-67402290D01*
X129776309Y-67402290D01*
X130009698Y-67305617D01*
X130188327Y-67126989D01*
X130244139Y-66992246D01*
X130420493Y-67168600D01*
X130984670Y-67402290D01*
X131595330Y-67402290D01*
X131704839Y-67356930D01*
X151165001Y-86817093D01*
X151165002Y-98155147D01*
X151150113Y-98229999D01*
X151165002Y-98304851D01*
X151209098Y-98526536D01*
X151377073Y-98777928D01*
X151440529Y-98820328D01*
X169459033Y-116838833D01*
X169327138Y-116893466D01*
X169058101Y-117162503D01*
X169038157Y-117062235D01*
X168897809Y-116852191D01*
X168687765Y-116711843D01*
X168440000Y-116662560D01*
X166840000Y-116662560D01*
X166592235Y-116711843D01*
X166382191Y-116852191D01*
X166241843Y-117062235D01*
X166192560Y-117310000D01*
X166192560Y-117350000D01*
X165468749Y-117350000D01*
X164012634Y-115893886D01*
X164077059Y-115570000D01*
X163965686Y-115010091D01*
X163648523Y-114535423D01*
X163173855Y-114218260D01*
X162755279Y-114135000D01*
X162472613Y-114135000D01*
X162054037Y-114218260D01*
X161703047Y-114452784D01*
X161683420Y-114439670D01*
X150269840Y-103026091D01*
X150444569Y-103026091D01*
X151266026Y-102685832D01*
X151894741Y-102057117D01*
X152235000Y-101235660D01*
X152235000Y-100346522D01*
X151894741Y-99525065D01*
X151266026Y-98896350D01*
X150444569Y-98556091D01*
X149555431Y-98556091D01*
X148733974Y-98896350D01*
X148105259Y-99525065D01*
X147765000Y-100346522D01*
X147765000Y-100521251D01*
X139249917Y-92006168D01*
X139249917Y-90093462D01*
X139414880Y-90649484D01*
X139879984Y-91223332D01*
X140529286Y-91575511D01*
X140670252Y-91604985D01*
X140962897Y-91488862D01*
X140962897Y-89644290D01*
X141216897Y-89644290D01*
X141216897Y-91488862D01*
X141509542Y-91604985D01*
X141650508Y-91575511D01*
X142299810Y-91223332D01*
X142764914Y-90649484D01*
X142975012Y-89941330D01*
X142820279Y-89644290D01*
X141216897Y-89644290D01*
X140962897Y-89644290D01*
X140942897Y-89644290D01*
X140942897Y-89390290D01*
X140962897Y-89390290D01*
X140962897Y-87545718D01*
X141216897Y-87545718D01*
X141216897Y-89390290D01*
X142820279Y-89390290D01*
X142975012Y-89093250D01*
X142764914Y-88385096D01*
X142299810Y-87811248D01*
X141650508Y-87459069D01*
X141509542Y-87429595D01*
X141216897Y-87545718D01*
X140962897Y-87545718D01*
X140670252Y-87429595D01*
X140529286Y-87459069D01*
X139879984Y-87811248D01*
X139414880Y-88385096D01*
X139249917Y-88941118D01*
X139249917Y-86179154D01*
X139264805Y-86104307D01*
X139249917Y-86029460D01*
X139249917Y-86029456D01*
X139205821Y-85807771D01*
X139152120Y-85727402D01*
X139080246Y-85619834D01*
X139080244Y-85619832D01*
X139037846Y-85556379D01*
X138974393Y-85513981D01*
X136268229Y-82807819D01*
X136225827Y-82744360D01*
X135974435Y-82576385D01*
X135752750Y-82532289D01*
X135752745Y-82532289D01*
X135677898Y-82517401D01*
X135603051Y-82532289D01*
X133889744Y-82532289D01*
X133814897Y-82517401D01*
X133740050Y-82532289D01*
X133740046Y-82532289D01*
X133518361Y-82576385D01*
X133266969Y-82744360D01*
X133224569Y-82807816D01*
X133004735Y-83027650D01*
X132895227Y-82982290D01*
X132284567Y-82982290D01*
X131720390Y-83215980D01*
X131288587Y-83647783D01*
X131285358Y-83655580D01*
X131170056Y-83616736D01*
X130269502Y-84517290D01*
X131170056Y-85417844D01*
X131285358Y-85379000D01*
X131288587Y-85386797D01*
X131720390Y-85818600D01*
X132284567Y-86052290D01*
X132895227Y-86052290D01*
X133459404Y-85818600D01*
X133839897Y-85438107D01*
X134220390Y-85818600D01*
X134784567Y-86052290D01*
X135395227Y-86052290D01*
X135959404Y-85818600D01*
X136391207Y-85386797D01*
X136480949Y-85170142D01*
X137729917Y-86419111D01*
X137729917Y-88328844D01*
X137448906Y-87908281D01*
X136825387Y-87491659D01*
X136089897Y-87345361D01*
X135354408Y-87491659D01*
X134730888Y-87908281D01*
X134314266Y-88531800D01*
X134204897Y-89081635D01*
X134204897Y-89952944D01*
X134314266Y-90502779D01*
X134730888Y-91126299D01*
X135329898Y-91526545D01*
X135329897Y-100008037D01*
X134730888Y-100408281D01*
X134314266Y-101031800D01*
X134204897Y-101581635D01*
X134204897Y-102452944D01*
X134314266Y-103002779D01*
X134730888Y-103626299D01*
X135354407Y-104042921D01*
X136089897Y-104189219D01*
X136825386Y-104042921D01*
X137448906Y-103626299D01*
X137865528Y-103002780D01*
X137974897Y-102452945D01*
X137974897Y-102441330D01*
X139204782Y-102441330D01*
X139414880Y-103149484D01*
X139879984Y-103723332D01*
X140529286Y-104075511D01*
X140670252Y-104104985D01*
X140962897Y-103988862D01*
X140962897Y-102144290D01*
X141216897Y-102144290D01*
X141216897Y-103988862D01*
X141509542Y-104104985D01*
X141650508Y-104075511D01*
X142299810Y-103723332D01*
X142764914Y-103149484D01*
X142975012Y-102441330D01*
X142820279Y-102144290D01*
X141216897Y-102144290D01*
X140962897Y-102144290D01*
X139359515Y-102144290D01*
X139204782Y-102441330D01*
X137974897Y-102441330D01*
X137974897Y-101593250D01*
X139204782Y-101593250D01*
X139359515Y-101890290D01*
X140962897Y-101890290D01*
X140962897Y-100045718D01*
X141216897Y-100045718D01*
X141216897Y-101890290D01*
X142820279Y-101890290D01*
X142975012Y-101593250D01*
X142764914Y-100885096D01*
X142299810Y-100311248D01*
X141650508Y-99959069D01*
X141509542Y-99929595D01*
X141216897Y-100045718D01*
X140962897Y-100045718D01*
X140670252Y-99929595D01*
X140529286Y-99959069D01*
X139879984Y-100311248D01*
X139414880Y-100885096D01*
X139204782Y-101593250D01*
X137974897Y-101593250D01*
X137974897Y-101581636D01*
X137865528Y-101031800D01*
X137448906Y-100408281D01*
X136849897Y-100008036D01*
X136849897Y-91526543D01*
X137448906Y-91126299D01*
X137729918Y-90705735D01*
X137729918Y-92246117D01*
X137715029Y-92320969D01*
X137774014Y-92617506D01*
X137861860Y-92748976D01*
X137941989Y-92868898D01*
X138005445Y-92911298D01*
X155368178Y-110274032D01*
X155033720Y-110412569D01*
X154742569Y-110703720D01*
X154585000Y-111084126D01*
X154585000Y-111495874D01*
X154742569Y-111876280D01*
X155033720Y-112167431D01*
X155414126Y-112325000D01*
X155488980Y-112325000D01*
X157314514Y-114150535D01*
X156974037Y-114218260D01*
X156499369Y-114535423D01*
X156263946Y-114887758D01*
X156028523Y-114535423D01*
X155553855Y-114218260D01*
X155135279Y-114135000D01*
X154852613Y-114135000D01*
X154434037Y-114218260D01*
X153959369Y-114535423D01*
X153642206Y-115010091D01*
X153530833Y-115570000D01*
X153642206Y-116129909D01*
X153959369Y-116604577D01*
X154434037Y-116921740D01*
X154852613Y-117005000D01*
X155135279Y-117005000D01*
X155553855Y-116921740D01*
X156028523Y-116604577D01*
X156263946Y-116252242D01*
X156499369Y-116604577D01*
X156974037Y-116921740D01*
X157392613Y-117005000D01*
X157675279Y-117005000D01*
X158093855Y-116921740D01*
X158568523Y-116604577D01*
X158803946Y-116252242D01*
X159039369Y-116604577D01*
X159514037Y-116921740D01*
X159932613Y-117005000D01*
X160168980Y-117005000D01*
X164304900Y-121140921D01*
X164304901Y-128025102D01*
X163373946Y-127094147D01*
X163373946Y-124408043D01*
X163648523Y-124224577D01*
X163965686Y-123749909D01*
X164077059Y-123190000D01*
X163965686Y-122630091D01*
X163648523Y-122155423D01*
X163173855Y-121838260D01*
X162755279Y-121755000D01*
X162472613Y-121755000D01*
X162054037Y-121838260D01*
X161703047Y-122072784D01*
X161683420Y-122059670D01*
X161204278Y-121580529D01*
X161161876Y-121517070D01*
X160910484Y-121349095D01*
X160688799Y-121304999D01*
X160688794Y-121304999D01*
X160613947Y-121290111D01*
X160539100Y-121304999D01*
X148654799Y-121304999D01*
X142920777Y-115570978D01*
X143274577Y-115334577D01*
X143591740Y-114859909D01*
X143703113Y-114300000D01*
X143591740Y-113740091D01*
X143274577Y-113265423D01*
X142799909Y-112948260D01*
X142381333Y-112865000D01*
X142098667Y-112865000D01*
X141680091Y-112948260D01*
X141325197Y-113185393D01*
X140380322Y-112240519D01*
X140337920Y-112177060D01*
X140086528Y-112009085D01*
X139864843Y-111964989D01*
X139864838Y-111964989D01*
X139789991Y-111950101D01*
X139715144Y-111964989D01*
X128253404Y-111964989D01*
X120486597Y-104198184D01*
X120486597Y-89081635D01*
X121204897Y-89081635D01*
X121204897Y-89952944D01*
X121314266Y-90502779D01*
X121730888Y-91126299D01*
X122329898Y-91526544D01*
X122329897Y-100008037D01*
X121730888Y-100408281D01*
X121314266Y-101031800D01*
X121204897Y-101581635D01*
X121204897Y-102452944D01*
X121314266Y-103002779D01*
X121730888Y-103626299D01*
X122354407Y-104042921D01*
X123089897Y-104189219D01*
X123825386Y-104042921D01*
X124448906Y-103626299D01*
X124865528Y-103002780D01*
X124974897Y-102452945D01*
X124974897Y-102441330D01*
X126204782Y-102441330D01*
X126414880Y-103149484D01*
X126879984Y-103723332D01*
X127529286Y-104075511D01*
X127670252Y-104104985D01*
X127962897Y-103988862D01*
X127962897Y-102144290D01*
X128216897Y-102144290D01*
X128216897Y-103988862D01*
X128509542Y-104104985D01*
X128650508Y-104075511D01*
X129299810Y-103723332D01*
X129764914Y-103149484D01*
X129975012Y-102441330D01*
X129820279Y-102144290D01*
X128216897Y-102144290D01*
X127962897Y-102144290D01*
X126359515Y-102144290D01*
X126204782Y-102441330D01*
X124974897Y-102441330D01*
X124974897Y-101593250D01*
X126204782Y-101593250D01*
X126359515Y-101890290D01*
X127962897Y-101890290D01*
X127962897Y-100045718D01*
X128216897Y-100045718D01*
X128216897Y-101890290D01*
X129820279Y-101890290D01*
X129975012Y-101593250D01*
X129764914Y-100885096D01*
X129299810Y-100311248D01*
X128650508Y-99959069D01*
X128509542Y-99929595D01*
X128216897Y-100045718D01*
X127962897Y-100045718D01*
X127670252Y-99929595D01*
X127529286Y-99959069D01*
X126879984Y-100311248D01*
X126414880Y-100885096D01*
X126204782Y-101593250D01*
X124974897Y-101593250D01*
X124974897Y-101581636D01*
X124865528Y-101031800D01*
X124448906Y-100408281D01*
X123849897Y-100008036D01*
X123849897Y-91526543D01*
X124448906Y-91126299D01*
X124865528Y-90502780D01*
X124974897Y-89952945D01*
X124974897Y-89941330D01*
X126204782Y-89941330D01*
X126414880Y-90649484D01*
X126879984Y-91223332D01*
X127529286Y-91575511D01*
X127670252Y-91604985D01*
X127962897Y-91488862D01*
X127962897Y-89644290D01*
X128216897Y-89644290D01*
X128216897Y-91488862D01*
X128509542Y-91604985D01*
X128650508Y-91575511D01*
X129299810Y-91223332D01*
X129764914Y-90649484D01*
X129975012Y-89941330D01*
X129820279Y-89644290D01*
X128216897Y-89644290D01*
X127962897Y-89644290D01*
X126359515Y-89644290D01*
X126204782Y-89941330D01*
X124974897Y-89941330D01*
X124974897Y-89093250D01*
X126204782Y-89093250D01*
X126359515Y-89390290D01*
X127962897Y-89390290D01*
X127962897Y-87545718D01*
X128216897Y-87545718D01*
X128216897Y-89390290D01*
X129820279Y-89390290D01*
X129975012Y-89093250D01*
X129764914Y-88385096D01*
X129299810Y-87811248D01*
X128650508Y-87459069D01*
X128509542Y-87429595D01*
X128216897Y-87545718D01*
X127962897Y-87545718D01*
X127670252Y-87429595D01*
X127529286Y-87459069D01*
X126879984Y-87811248D01*
X126414880Y-88385096D01*
X126204782Y-89093250D01*
X124974897Y-89093250D01*
X124974897Y-89081636D01*
X124865528Y-88531800D01*
X124448906Y-87908281D01*
X123825387Y-87491659D01*
X123089897Y-87345361D01*
X122354408Y-87491659D01*
X121730888Y-87908281D01*
X121314266Y-88531800D01*
X121204897Y-89081635D01*
X120486597Y-89081635D01*
X120486597Y-87001630D01*
X120501485Y-86926782D01*
X120486597Y-86851934D01*
X120486597Y-86851930D01*
X120442501Y-86630245D01*
X120274526Y-86378853D01*
X120211070Y-86336453D01*
X119576310Y-85701694D01*
X119839897Y-85438107D01*
X120220390Y-85818600D01*
X120784567Y-86052290D01*
X121395227Y-86052290D01*
X121959404Y-85818600D01*
X122180555Y-85597449D01*
X129189343Y-85597449D01*
X129275749Y-85853933D01*
X129849233Y-86063748D01*
X130459357Y-86038129D01*
X130904045Y-85853933D01*
X130990451Y-85597449D01*
X130089897Y-84696895D01*
X129189343Y-85597449D01*
X122180555Y-85597449D01*
X122391207Y-85386797D01*
X122624897Y-84822620D01*
X122624897Y-84276626D01*
X128543439Y-84276626D01*
X128569058Y-84886750D01*
X128753254Y-85331438D01*
X129009738Y-85417844D01*
X129910292Y-84517290D01*
X129009738Y-83616736D01*
X128753254Y-83703142D01*
X128543439Y-84276626D01*
X122624897Y-84276626D01*
X122624897Y-84211960D01*
X122391207Y-83647783D01*
X122180555Y-83437131D01*
X129189343Y-83437131D01*
X130089897Y-84337685D01*
X130990451Y-83437131D01*
X130904045Y-83180647D01*
X130330561Y-82970832D01*
X129720437Y-82996451D01*
X129275749Y-83180647D01*
X129189343Y-83437131D01*
X122180555Y-83437131D01*
X121959404Y-83215980D01*
X121395227Y-82982290D01*
X120784567Y-82982290D01*
X120220390Y-83215980D01*
X119839897Y-83596473D01*
X119459404Y-83215980D01*
X118895227Y-82982290D01*
X118284567Y-82982290D01*
X117720390Y-83215980D01*
X117288587Y-83647783D01*
X117285358Y-83655580D01*
X117170056Y-83616736D01*
X116269502Y-84517290D01*
X117170056Y-85417844D01*
X117285358Y-85379000D01*
X117288587Y-85386797D01*
X117720390Y-85818600D01*
X117829687Y-85863872D01*
X117873994Y-86086619D01*
X117953598Y-86205754D01*
X118041969Y-86338011D01*
X118105425Y-86380411D01*
X118966597Y-87241584D01*
X118966598Y-91071212D01*
X118966597Y-91071216D01*
X118966598Y-92645144D01*
X118966597Y-92645149D01*
X118966598Y-104438133D01*
X118951709Y-104512985D01*
X118966598Y-104587837D01*
X119010694Y-104809522D01*
X119178669Y-105060914D01*
X119242125Y-105103314D01*
X127182003Y-113043194D01*
X124280495Y-115944704D01*
X124247703Y-115779850D01*
X124079728Y-115528458D01*
X124016272Y-115486058D01*
X121990731Y-113460518D01*
X121948331Y-113397062D01*
X121854092Y-113334093D01*
X121696939Y-113229087D01*
X121400402Y-113170102D01*
X121325551Y-113184991D01*
X119854998Y-113184989D01*
X115260331Y-108590323D01*
X115260329Y-108590320D01*
X112624896Y-105954888D01*
X112624896Y-102441330D01*
X113204782Y-102441330D01*
X113414880Y-103149484D01*
X113879984Y-103723332D01*
X114529286Y-104075511D01*
X114670252Y-104104985D01*
X114962897Y-103988862D01*
X114962897Y-102144290D01*
X115216897Y-102144290D01*
X115216897Y-103988862D01*
X115509542Y-104104985D01*
X115650508Y-104075511D01*
X116299810Y-103723332D01*
X116764914Y-103149484D01*
X116975012Y-102441330D01*
X116820279Y-102144290D01*
X115216897Y-102144290D01*
X114962897Y-102144290D01*
X113359515Y-102144290D01*
X113204782Y-102441330D01*
X112624896Y-102441330D01*
X112624896Y-101593250D01*
X113204782Y-101593250D01*
X113359515Y-101890290D01*
X114962897Y-101890290D01*
X114962897Y-100045718D01*
X115216897Y-100045718D01*
X115216897Y-101890290D01*
X116820279Y-101890290D01*
X116975012Y-101593250D01*
X116764914Y-100885096D01*
X116299810Y-100311248D01*
X115650508Y-99959069D01*
X115509542Y-99929595D01*
X115216897Y-100045718D01*
X114962897Y-100045718D01*
X114670252Y-99929595D01*
X114529286Y-99959069D01*
X113879984Y-100311248D01*
X113414880Y-100885096D01*
X113204782Y-101593250D01*
X112624896Y-101593250D01*
X112624896Y-89941330D01*
X113204782Y-89941330D01*
X113414880Y-90649484D01*
X113879984Y-91223332D01*
X114529286Y-91575511D01*
X114670252Y-91604985D01*
X114962897Y-91488862D01*
X114962897Y-89644290D01*
X115216897Y-89644290D01*
X115216897Y-91488862D01*
X115509542Y-91604985D01*
X115650508Y-91575511D01*
X116299810Y-91223332D01*
X116764914Y-90649484D01*
X116975012Y-89941330D01*
X116820279Y-89644290D01*
X115216897Y-89644290D01*
X114962897Y-89644290D01*
X113359515Y-89644290D01*
X113204782Y-89941330D01*
X112624896Y-89941330D01*
X112624896Y-89093250D01*
X113204782Y-89093250D01*
X113359515Y-89390290D01*
X114962897Y-89390290D01*
X114962897Y-87545718D01*
X115216897Y-87545718D01*
X115216897Y-89390290D01*
X116820279Y-89390290D01*
X116975012Y-89093250D01*
X116764914Y-88385096D01*
X116299810Y-87811248D01*
X115650508Y-87459069D01*
X115509542Y-87429595D01*
X115216897Y-87545718D01*
X114962897Y-87545718D01*
X114670252Y-87429595D01*
X114529286Y-87459069D01*
X113879984Y-87811248D01*
X113414880Y-88385096D01*
X113204782Y-89093250D01*
X112624896Y-89093250D01*
X112624896Y-85597449D01*
X115189343Y-85597449D01*
X115275749Y-85853933D01*
X115849233Y-86063748D01*
X116459357Y-86038129D01*
X116904045Y-85853933D01*
X116990451Y-85597449D01*
X116089897Y-84696895D01*
X115189343Y-85597449D01*
X112624896Y-85597449D01*
X112624896Y-84276626D01*
X114543439Y-84276626D01*
X114569058Y-84886750D01*
X114753254Y-85331438D01*
X115009738Y-85417844D01*
X115910292Y-84517290D01*
X115009738Y-83616736D01*
X114753254Y-83703142D01*
X114543439Y-84276626D01*
X112624896Y-84276626D01*
X112624896Y-83437131D01*
X115189343Y-83437131D01*
X116089897Y-84337685D01*
X116990451Y-83437131D01*
X116904045Y-83180647D01*
X116330561Y-82970832D01*
X115720437Y-82996451D01*
X115275749Y-83180647D01*
X115189343Y-83437131D01*
X112624896Y-83437131D01*
X112624896Y-79678742D01*
X112697289Y-79751135D01*
X113665763Y-80152290D01*
X114714031Y-80152290D01*
X115682505Y-79751135D01*
X116423742Y-79009898D01*
X116824897Y-78041424D01*
X116824897Y-76993156D01*
X120354897Y-76993156D01*
X120354897Y-78041424D01*
X120756052Y-79009898D01*
X121497289Y-79751135D01*
X122465763Y-80152290D01*
X123514031Y-80152290D01*
X124482505Y-79751135D01*
X125223742Y-79009898D01*
X125589897Y-78125921D01*
X125956052Y-79009898D01*
X126697289Y-79751135D01*
X127665763Y-80152290D01*
X128714031Y-80152290D01*
X129682505Y-79751135D01*
X130423742Y-79009898D01*
X130824897Y-78041424D01*
X130824897Y-76993156D01*
X134354897Y-76993156D01*
X134354897Y-78041424D01*
X134756052Y-79009898D01*
X135497289Y-79751135D01*
X136465763Y-80152290D01*
X137514031Y-80152290D01*
X138482505Y-79751135D01*
X139223742Y-79009898D01*
X139624897Y-78041424D01*
X139624897Y-76993156D01*
X139223742Y-76024682D01*
X138482505Y-75283445D01*
X137514031Y-74882290D01*
X136465763Y-74882290D01*
X135497289Y-75283445D01*
X134756052Y-76024682D01*
X134354897Y-76993156D01*
X130824897Y-76993156D01*
X130423742Y-76024682D01*
X129682505Y-75283445D01*
X128714031Y-74882290D01*
X127665763Y-74882290D01*
X126697289Y-75283445D01*
X125956052Y-76024682D01*
X125589897Y-76908659D01*
X125223742Y-76024682D01*
X124482505Y-75283445D01*
X123514031Y-74882290D01*
X122465763Y-74882290D01*
X121497289Y-75283445D01*
X120756052Y-76024682D01*
X120354897Y-76993156D01*
X116824897Y-76993156D01*
X116423742Y-76024682D01*
X115682505Y-75283445D01*
X114714031Y-74882290D01*
X114458696Y-74882290D01*
X123187946Y-66153040D01*
X127215000Y-66153040D01*
X127215000Y-66893600D01*
X127311673Y-67126989D01*
X127490302Y-67305617D01*
X127723691Y-67402290D01*
X128464250Y-67402290D01*
X128623000Y-67243540D01*
X128623000Y-65994290D01*
X127373750Y-65994290D01*
X127215000Y-66153040D01*
X123187946Y-66153040D01*
X124500006Y-64840980D01*
X127215000Y-64840980D01*
X127215000Y-65581540D01*
X127373750Y-65740290D01*
X128623000Y-65740290D01*
X128623000Y-64491040D01*
X128464250Y-64332290D01*
X127723691Y-64332290D01*
X127490302Y-64428963D01*
X127311673Y-64607591D01*
X127215000Y-64840980D01*
X124500006Y-64840980D01*
X135107857Y-54233130D01*
X135107857Y-59580000D01*
X164892143Y-59580000D01*
X164892143Y-59466957D01*
X180458946Y-59466957D01*
X180458946Y-60515225D01*
X180860101Y-61483699D01*
X181601338Y-62224936D01*
X182569812Y-62626091D01*
X183618080Y-62626091D01*
X184586554Y-62224936D01*
X185327791Y-61483699D01*
X185728946Y-60515225D01*
X185728946Y-59466957D01*
X185327791Y-58498483D01*
X184586554Y-57757246D01*
X183618080Y-57356091D01*
X182569812Y-57356091D01*
X181601338Y-57757246D01*
X180860101Y-58498483D01*
X180458946Y-59466957D01*
X164892143Y-59466957D01*
X164892143Y-53751091D01*
X183345703Y-53751091D01*
X183317557Y-53892592D01*
X183376542Y-54189129D01*
X183544516Y-54440521D01*
X183795908Y-54608495D01*
X184092445Y-54667480D01*
X184388982Y-54608495D01*
X184576917Y-54482921D01*
X184579107Y-54480731D01*
X184688616Y-54526091D01*
X185299276Y-54526091D01*
X185863453Y-54292401D01*
X186243946Y-53911908D01*
X186624439Y-54292401D01*
X187188616Y-54526091D01*
X187799276Y-54526091D01*
X188363453Y-54292401D01*
X188584604Y-54071250D01*
X189093392Y-54071250D01*
X189179798Y-54327734D01*
X189753282Y-54537549D01*
X190363406Y-54511930D01*
X190808094Y-54327734D01*
X190894500Y-54071250D01*
X189993946Y-53170696D01*
X189093392Y-54071250D01*
X188584604Y-54071250D01*
X188795256Y-53860598D01*
X188798485Y-53852801D01*
X188913787Y-53891645D01*
X189814341Y-52991091D01*
X190173551Y-52991091D01*
X191074105Y-53891645D01*
X191330589Y-53805239D01*
X191540404Y-53231755D01*
X191514785Y-52621631D01*
X191330589Y-52176943D01*
X191074105Y-52090537D01*
X190173551Y-52991091D01*
X189814341Y-52991091D01*
X188913787Y-52090537D01*
X188798485Y-52129381D01*
X188795256Y-52121584D01*
X188584604Y-51910932D01*
X189093392Y-51910932D01*
X189993946Y-52811486D01*
X190894500Y-51910932D01*
X190808094Y-51654448D01*
X190234610Y-51444633D01*
X189624486Y-51470252D01*
X189179798Y-51654448D01*
X189093392Y-51910932D01*
X188584604Y-51910932D01*
X188363453Y-51689781D01*
X187799276Y-51456091D01*
X187188616Y-51456091D01*
X186624439Y-51689781D01*
X186243946Y-52070274D01*
X185863453Y-51689781D01*
X185299276Y-51456091D01*
X184688616Y-51456091D01*
X184124439Y-51689781D01*
X183692636Y-52121584D01*
X183647277Y-52231091D01*
X164892143Y-52231091D01*
X164892143Y-50660000D01*
X155660093Y-50660000D01*
X156088649Y-50373649D01*
X156422388Y-49874173D01*
X156510000Y-49433718D01*
X156510000Y-47386282D01*
X156422388Y-46945827D01*
X156088649Y-46446351D01*
X155589173Y-46112612D01*
X155000000Y-45995418D01*
X154410828Y-46112612D01*
X153911352Y-46446351D01*
X153750001Y-46687831D01*
X153588649Y-46446351D01*
X153089173Y-46112612D01*
X152500000Y-45995418D01*
X151910828Y-46112612D01*
X151411352Y-46446351D01*
X151077613Y-46945827D01*
X150990000Y-47386282D01*
X150990000Y-49433717D01*
X151077612Y-49874172D01*
X151411351Y-50373649D01*
X151839906Y-50660000D01*
X148160093Y-50660000D01*
X148588649Y-50373649D01*
X148922388Y-49874173D01*
X149010000Y-49433718D01*
X149010000Y-47386282D01*
X148922388Y-46945827D01*
X148588649Y-46446351D01*
X148089173Y-46112612D01*
X147500000Y-45995418D01*
X146910828Y-46112612D01*
X146411352Y-46446351D01*
X146250001Y-46687831D01*
X146088649Y-46446351D01*
X145589173Y-46112612D01*
X145000000Y-45995418D01*
X144410828Y-46112612D01*
X143911352Y-46446351D01*
X143577613Y-46945827D01*
X143490000Y-47386282D01*
X143490000Y-49433717D01*
X143577612Y-49874172D01*
X143911351Y-50373649D01*
X144339906Y-50660000D01*
X135107857Y-50660000D01*
X135107857Y-52249468D01*
X134978557Y-52275187D01*
X134727165Y-52443162D01*
X134684765Y-52506618D01*
X111380426Y-75810958D01*
X111316967Y-75853360D01*
X111148992Y-76104753D01*
X111104896Y-76326438D01*
X111104896Y-76326442D01*
X111090008Y-76401289D01*
X111104896Y-76476136D01*
X111104896Y-87678421D01*
X110825387Y-87491659D01*
X110089897Y-87345361D01*
X109354408Y-87491659D01*
X108730888Y-87908281D01*
X108314266Y-88531800D01*
X108204897Y-89081635D01*
X105678946Y-89081635D01*
X105678946Y-63751468D01*
X111532446Y-63751468D01*
X111532446Y-64730714D01*
X111907187Y-65635419D01*
X112599618Y-66327850D01*
X113504323Y-66702591D01*
X114483569Y-66702591D01*
X115388274Y-66327850D01*
X116080705Y-65635419D01*
X116455446Y-64730714D01*
X116455446Y-63751468D01*
X116080705Y-62846763D01*
X115388274Y-62154332D01*
X114914800Y-61958212D01*
X115125704Y-61747308D01*
X115328946Y-61256639D01*
X115328946Y-60725543D01*
X115125704Y-60234874D01*
X114750163Y-59859333D01*
X114259494Y-59656091D01*
X113728398Y-59656091D01*
X113237729Y-59859333D01*
X112862188Y-60234874D01*
X112658946Y-60725543D01*
X112658946Y-61256639D01*
X112862188Y-61747308D01*
X113073092Y-61958212D01*
X112599618Y-62154332D01*
X111907187Y-62846763D01*
X111532446Y-63751468D01*
X105678946Y-63751468D01*
X105678946Y-57725543D01*
X112658946Y-57725543D01*
X112658946Y-58256639D01*
X112862188Y-58747308D01*
X113237729Y-59122849D01*
X113728398Y-59326091D01*
X114259494Y-59326091D01*
X114750163Y-59122849D01*
X115125704Y-58747308D01*
X115328946Y-58256639D01*
X115328946Y-57725543D01*
X115125704Y-57234874D01*
X114750163Y-56859333D01*
X114259494Y-56656091D01*
X113728398Y-56656091D01*
X113237729Y-56859333D01*
X112862188Y-57234874D01*
X112658946Y-57725543D01*
X105678946Y-57725543D01*
X105678946Y-51251468D01*
X111532446Y-51251468D01*
X111532446Y-52230714D01*
X111907187Y-53135419D01*
X112599618Y-53827850D01*
X113073092Y-54023970D01*
X112862188Y-54234874D01*
X112658946Y-54725543D01*
X112658946Y-55256639D01*
X112862188Y-55747308D01*
X113237729Y-56122849D01*
X113728398Y-56326091D01*
X114259494Y-56326091D01*
X114750163Y-56122849D01*
X115125704Y-55747308D01*
X115328946Y-55256639D01*
X115328946Y-54725543D01*
X115125704Y-54234874D01*
X114914800Y-54023970D01*
X115388274Y-53827850D01*
X116080705Y-53135419D01*
X116455446Y-52230714D01*
X116455446Y-51251468D01*
X116080705Y-50346763D01*
X115388274Y-49654332D01*
X114483569Y-49279591D01*
X113504323Y-49279591D01*
X112599618Y-49654332D01*
X111907187Y-50346763D01*
X111532446Y-51251468D01*
X105678946Y-51251468D01*
X105678946Y-45021597D01*
X105721345Y-44546522D01*
X107758946Y-44546522D01*
X107758946Y-45435660D01*
X108099205Y-46257117D01*
X108727920Y-46885832D01*
X109549377Y-47226091D01*
X110438515Y-47226091D01*
X111259972Y-46885832D01*
X111888687Y-46257117D01*
X112228946Y-45435660D01*
X112228946Y-44546522D01*
X111888687Y-43725065D01*
X111853372Y-43689750D01*
X147615000Y-43689750D01*
X147615000Y-44780310D01*
X147711673Y-45013699D01*
X147890302Y-45192327D01*
X148123691Y-45289000D01*
X149714250Y-45289000D01*
X149873000Y-45130250D01*
X149873000Y-43531000D01*
X150127000Y-43531000D01*
X150127000Y-45130250D01*
X150285750Y-45289000D01*
X151876309Y-45289000D01*
X152109698Y-45192327D01*
X152288327Y-45013699D01*
X152385000Y-44780310D01*
X152385000Y-44546522D01*
X187758946Y-44546522D01*
X187758946Y-45435660D01*
X188099205Y-46257117D01*
X188727920Y-46885832D01*
X189549377Y-47226091D01*
X190438515Y-47226091D01*
X191259972Y-46885832D01*
X191888687Y-46257117D01*
X192228946Y-45435660D01*
X192228946Y-44546522D01*
X191888687Y-43725065D01*
X191259972Y-43096350D01*
X190438515Y-42756091D01*
X189549377Y-42756091D01*
X188727920Y-43096350D01*
X188099205Y-43725065D01*
X187758946Y-44546522D01*
X152385000Y-44546522D01*
X152385000Y-43689750D01*
X152226250Y-43531000D01*
X150127000Y-43531000D01*
X149873000Y-43531000D01*
X147773750Y-43531000D01*
X147615000Y-43689750D01*
X111853372Y-43689750D01*
X111259972Y-43096350D01*
X110438515Y-42756091D01*
X109549377Y-42756091D01*
X108727920Y-43096350D01*
X108099205Y-43725065D01*
X107758946Y-44546522D01*
X105721345Y-44546522D01*
X105749821Y-44227454D01*
X105952126Y-43487951D01*
X106282188Y-42795963D01*
X106729575Y-42173358D01*
X106879892Y-42027690D01*
X147615000Y-42027690D01*
X147615000Y-43118250D01*
X147773750Y-43277000D01*
X149873000Y-43277000D01*
X149873000Y-41677750D01*
X150127000Y-41677750D01*
X150127000Y-43277000D01*
X152226250Y-43277000D01*
X152385000Y-43118250D01*
X152385000Y-42027690D01*
X152288327Y-41794301D01*
X152109698Y-41615673D01*
X151876309Y-41519000D01*
X150285750Y-41519000D01*
X150127000Y-41677750D01*
X149873000Y-41677750D01*
X149714250Y-41519000D01*
X148123691Y-41519000D01*
X147890302Y-41615673D01*
X147711673Y-41794301D01*
X147615000Y-42027690D01*
X106879892Y-42027690D01*
X107280141Y-41639823D01*
X107916490Y-41212215D01*
X108618507Y-40904050D01*
X109369266Y-40723808D01*
X110019058Y-40676091D01*
X189963440Y-40676091D01*
X190757583Y-40746966D01*
G36*
X161525423Y-140734577D02*
X162000091Y-141051740D01*
X162418667Y-141135000D01*
X162701333Y-141135000D01*
X162925002Y-141090509D01*
X162925002Y-141295156D01*
X159535530Y-144684629D01*
X159472071Y-144727031D01*
X159304096Y-144978424D01*
X159260000Y-145200109D01*
X159260000Y-145200113D01*
X159245112Y-145274960D01*
X159260000Y-145349808D01*
X159260001Y-146101956D01*
X158985423Y-146285423D01*
X158729053Y-146669108D01*
X158632389Y-146464866D01*
X158217423Y-146088959D01*
X157829039Y-145928096D01*
X157607000Y-146050085D01*
X157607000Y-147193000D01*
X157627000Y-147193000D01*
X157627000Y-147447000D01*
X157607000Y-147447000D01*
X157607000Y-148589915D01*
X157829039Y-148711904D01*
X158217423Y-148551041D01*
X158632389Y-148175134D01*
X158729053Y-147970892D01*
X158985423Y-148354577D01*
X159460091Y-148671740D01*
X159878667Y-148755000D01*
X160161333Y-148755000D01*
X160385002Y-148710510D01*
X160385001Y-151020690D01*
X160196777Y-150953035D01*
X159626546Y-150980222D01*
X159225995Y-151146136D01*
X159151861Y-151392255D01*
X159980000Y-152220395D01*
X159994142Y-152206252D01*
X160173748Y-152385858D01*
X160159605Y-152400000D01*
X160173748Y-152414143D01*
X159994143Y-152593748D01*
X159980000Y-152579605D01*
X159151861Y-153407745D01*
X159225995Y-153653864D01*
X159292450Y-153677750D01*
X158710171Y-154260030D01*
X145134772Y-154260029D01*
X145987056Y-153407745D01*
X146531861Y-153407745D01*
X146605995Y-153653864D01*
X147143223Y-153846965D01*
X147713454Y-153819778D01*
X148114005Y-153653864D01*
X148188139Y-153407745D01*
X147360000Y-152579605D01*
X146531861Y-153407745D01*
X145987056Y-153407745D01*
X146209625Y-153185177D01*
X146352255Y-153228139D01*
X147180395Y-152400000D01*
X147166253Y-152385858D01*
X147345858Y-152206253D01*
X147360000Y-152220395D01*
X147374143Y-152206253D01*
X147553748Y-152385858D01*
X147539605Y-152400000D01*
X148367745Y-153228139D01*
X148415307Y-153213813D01*
X148461843Y-153447765D01*
X148602191Y-153657809D01*
X148812235Y-153798157D01*
X149060000Y-153847440D01*
X150660000Y-153847440D01*
X150907765Y-153798157D01*
X151117809Y-153657809D01*
X151258157Y-153447765D01*
X151307440Y-153200000D01*
X151307440Y-152292527D01*
X152304967Y-151295000D01*
X152535033Y-151295000D01*
X154244032Y-153004000D01*
X154296891Y-153083109D01*
X154376000Y-153135968D01*
X154376001Y-153135969D01*
X154419599Y-153165100D01*
X154610304Y-153292525D01*
X154886682Y-153347500D01*
X154886686Y-153347500D01*
X154979999Y-153366061D01*
X155073312Y-153347500D01*
X156061899Y-153347500D01*
X156081843Y-153447765D01*
X156222191Y-153657809D01*
X156432235Y-153798157D01*
X156680000Y-153847440D01*
X158280000Y-153847440D01*
X158527765Y-153798157D01*
X158737809Y-153657809D01*
X158878157Y-153447765D01*
X158924693Y-153213813D01*
X158972255Y-153228139D01*
X159800395Y-152400000D01*
X158972255Y-151571861D01*
X158924693Y-151586187D01*
X158878157Y-151352235D01*
X158737809Y-151142191D01*
X158527765Y-151001843D01*
X158280000Y-150952560D01*
X156680000Y-150952560D01*
X156432235Y-151001843D01*
X156222191Y-151142191D01*
X156081843Y-151352235D01*
X156061899Y-151452500D01*
X155372468Y-151452500D01*
X155204010Y-151284042D01*
X155293454Y-151279778D01*
X155694005Y-151113864D01*
X155768139Y-150867745D01*
X154940000Y-150039605D01*
X154925858Y-150053748D01*
X154746253Y-149874143D01*
X154760395Y-149860000D01*
X155119605Y-149860000D01*
X155947745Y-150688139D01*
X156193864Y-150614005D01*
X156386965Y-150076777D01*
X156359778Y-149506546D01*
X156193864Y-149105995D01*
X155947745Y-149031861D01*
X155119605Y-149860000D01*
X154760395Y-149860000D01*
X153932255Y-149031861D01*
X153686136Y-149105995D01*
X153683710Y-149112746D01*
X153656534Y-149047138D01*
X153347500Y-148738104D01*
X153347500Y-148412760D01*
X153434577Y-148354577D01*
X153670000Y-148002242D01*
X153905423Y-148354577D01*
X154245203Y-148581611D01*
X154185995Y-148606136D01*
X154111861Y-148852255D01*
X154940000Y-149680395D01*
X155768139Y-148852255D01*
X155694005Y-148606136D01*
X155631641Y-148583720D01*
X155974577Y-148354577D01*
X156230947Y-147970892D01*
X156327611Y-148175134D01*
X156742577Y-148551041D01*
X157130961Y-148711904D01*
X157353000Y-148589915D01*
X157353000Y-147447000D01*
X157333000Y-147447000D01*
X157333000Y-147193000D01*
X157353000Y-147193000D01*
X157353000Y-146050085D01*
X157130961Y-145928096D01*
X156742577Y-146088959D01*
X156327611Y-146464866D01*
X156230947Y-146669108D01*
X155974577Y-146285423D01*
X155499909Y-145968260D01*
X155081333Y-145885000D01*
X154798667Y-145885000D01*
X154380091Y-145968260D01*
X153905423Y-146285423D01*
X153670000Y-146637758D01*
X153434577Y-146285423D01*
X153347500Y-146227240D01*
X153347500Y-145172466D01*
X157384967Y-141135000D01*
X157621333Y-141135000D01*
X158039909Y-141051740D01*
X158514577Y-140734577D01*
X158750000Y-140382242D01*
X158985423Y-140734577D01*
X159460091Y-141051740D01*
X159878667Y-141135000D01*
X160161333Y-141135000D01*
X160579909Y-141051740D01*
X161054577Y-140734577D01*
X161290000Y-140382242D01*
X161525423Y-140734577D01*
X161525423Y-140734577D01*
G37*
X161525423Y-140734577D02*
X162000091Y-141051740D01*
X162418667Y-141135000D01*
X162701333Y-141135000D01*
X162925002Y-141090509D01*
X162925002Y-141295156D01*
X159535530Y-144684629D01*
X159472071Y-144727031D01*
X159304096Y-144978424D01*
X159260000Y-145200109D01*
X159260000Y-145200113D01*
X159245112Y-145274960D01*
X159260000Y-145349808D01*
X159260001Y-146101956D01*
X158985423Y-146285423D01*
X158729053Y-146669108D01*
X158632389Y-146464866D01*
X158217423Y-146088959D01*
X157829039Y-145928096D01*
X157607000Y-146050085D01*
X157607000Y-147193000D01*
X157627000Y-147193000D01*
X157627000Y-147447000D01*
X157607000Y-147447000D01*
X157607000Y-148589915D01*
X157829039Y-148711904D01*
X158217423Y-148551041D01*
X158632389Y-148175134D01*
X158729053Y-147970892D01*
X158985423Y-148354577D01*
X159460091Y-148671740D01*
X159878667Y-148755000D01*
X160161333Y-148755000D01*
X160385002Y-148710510D01*
X160385001Y-151020690D01*
X160196777Y-150953035D01*
X159626546Y-150980222D01*
X159225995Y-151146136D01*
X159151861Y-151392255D01*
X159980000Y-152220395D01*
X159994142Y-152206252D01*
X160173748Y-152385858D01*
X160159605Y-152400000D01*
X160173748Y-152414143D01*
X159994143Y-152593748D01*
X159980000Y-152579605D01*
X159151861Y-153407745D01*
X159225995Y-153653864D01*
X159292450Y-153677750D01*
X158710171Y-154260030D01*
X145134772Y-154260029D01*
X145987056Y-153407745D01*
X146531861Y-153407745D01*
X146605995Y-153653864D01*
X147143223Y-153846965D01*
X147713454Y-153819778D01*
X148114005Y-153653864D01*
X148188139Y-153407745D01*
X147360000Y-152579605D01*
X146531861Y-153407745D01*
X145987056Y-153407745D01*
X146209625Y-153185177D01*
X146352255Y-153228139D01*
X147180395Y-152400000D01*
X147166253Y-152385858D01*
X147345858Y-152206253D01*
X147360000Y-152220395D01*
X147374143Y-152206253D01*
X147553748Y-152385858D01*
X147539605Y-152400000D01*
X148367745Y-153228139D01*
X148415307Y-153213813D01*
X148461843Y-153447765D01*
X148602191Y-153657809D01*
X148812235Y-153798157D01*
X149060000Y-153847440D01*
X150660000Y-153847440D01*
X150907765Y-153798157D01*
X151117809Y-153657809D01*
X151258157Y-153447765D01*
X151307440Y-153200000D01*
X151307440Y-152292527D01*
X152304967Y-151295000D01*
X152535033Y-151295000D01*
X154244032Y-153004000D01*
X154296891Y-153083109D01*
X154376000Y-153135968D01*
X154376001Y-153135969D01*
X154419599Y-153165100D01*
X154610304Y-153292525D01*
X154886682Y-153347500D01*
X154886686Y-153347500D01*
X154979999Y-153366061D01*
X155073312Y-153347500D01*
X156061899Y-153347500D01*
X156081843Y-153447765D01*
X156222191Y-153657809D01*
X156432235Y-153798157D01*
X156680000Y-153847440D01*
X158280000Y-153847440D01*
X158527765Y-153798157D01*
X158737809Y-153657809D01*
X158878157Y-153447765D01*
X158924693Y-153213813D01*
X158972255Y-153228139D01*
X159800395Y-152400000D01*
X158972255Y-151571861D01*
X158924693Y-151586187D01*
X158878157Y-151352235D01*
X158737809Y-151142191D01*
X158527765Y-151001843D01*
X158280000Y-150952560D01*
X156680000Y-150952560D01*
X156432235Y-151001843D01*
X156222191Y-151142191D01*
X156081843Y-151352235D01*
X156061899Y-151452500D01*
X155372468Y-151452500D01*
X155204010Y-151284042D01*
X155293454Y-151279778D01*
X155694005Y-151113864D01*
X155768139Y-150867745D01*
X154940000Y-150039605D01*
X154925858Y-150053748D01*
X154746253Y-149874143D01*
X154760395Y-149860000D01*
X155119605Y-149860000D01*
X155947745Y-150688139D01*
X156193864Y-150614005D01*
X156386965Y-150076777D01*
X156359778Y-149506546D01*
X156193864Y-149105995D01*
X155947745Y-149031861D01*
X155119605Y-149860000D01*
X154760395Y-149860000D01*
X153932255Y-149031861D01*
X153686136Y-149105995D01*
X153683710Y-149112746D01*
X153656534Y-149047138D01*
X153347500Y-148738104D01*
X153347500Y-148412760D01*
X153434577Y-148354577D01*
X153670000Y-148002242D01*
X153905423Y-148354577D01*
X154245203Y-148581611D01*
X154185995Y-148606136D01*
X154111861Y-148852255D01*
X154940000Y-149680395D01*
X155768139Y-148852255D01*
X155694005Y-148606136D01*
X155631641Y-148583720D01*
X155974577Y-148354577D01*
X156230947Y-147970892D01*
X156327611Y-148175134D01*
X156742577Y-148551041D01*
X157130961Y-148711904D01*
X157353000Y-148589915D01*
X157353000Y-147447000D01*
X157333000Y-147447000D01*
X157333000Y-147193000D01*
X157353000Y-147193000D01*
X157353000Y-146050085D01*
X157130961Y-145928096D01*
X156742577Y-146088959D01*
X156327611Y-146464866D01*
X156230947Y-146669108D01*
X155974577Y-146285423D01*
X155499909Y-145968260D01*
X155081333Y-145885000D01*
X154798667Y-145885000D01*
X154380091Y-145968260D01*
X153905423Y-146285423D01*
X153670000Y-146637758D01*
X153434577Y-146285423D01*
X153347500Y-146227240D01*
X153347500Y-145172466D01*
X157384967Y-141135000D01*
X157621333Y-141135000D01*
X158039909Y-141051740D01*
X158514577Y-140734577D01*
X158750000Y-140382242D01*
X158985423Y-140734577D01*
X159460091Y-141051740D01*
X159878667Y-141135000D01*
X160161333Y-141135000D01*
X160579909Y-141051740D01*
X161054577Y-140734577D01*
X161290000Y-140382242D01*
X161525423Y-140734577D01*
G36*
X125857000Y-145923000D02*
X125877000Y-145923000D01*
X125877000Y-146177000D01*
X125857000Y-146177000D01*
X125857000Y-146197000D01*
X125603000Y-146197000D01*
X125603000Y-146177000D01*
X125583000Y-146177000D01*
X125583000Y-145923000D01*
X125603000Y-145923000D01*
X125603000Y-145903000D01*
X125857000Y-145903000D01*
X125857000Y-145923000D01*
X125857000Y-145923000D01*
G37*
X125857000Y-145923000D02*
X125877000Y-145923000D01*
X125877000Y-146177000D01*
X125857000Y-146177000D01*
X125857000Y-146197000D01*
X125603000Y-146197000D01*
X125603000Y-146177000D01*
X125583000Y-146177000D01*
X125583000Y-145923000D01*
X125603000Y-145923000D01*
X125603000Y-145903000D01*
X125857000Y-145903000D01*
X125857000Y-145923000D01*
G36*
X155067000Y-139573000D02*
X155087000Y-139573000D01*
X155087000Y-139827000D01*
X155067000Y-139827000D01*
X155067000Y-139847000D01*
X154813000Y-139847000D01*
X154813000Y-139827000D01*
X154793000Y-139827000D01*
X154793000Y-139573000D01*
X154813000Y-139573000D01*
X154813000Y-139553000D01*
X155067000Y-139553000D01*
X155067000Y-139573000D01*
X155067000Y-139573000D01*
G37*
X155067000Y-139573000D02*
X155087000Y-139573000D01*
X155087000Y-139827000D01*
X155067000Y-139827000D01*
X155067000Y-139847000D01*
X154813000Y-139847000D01*
X154813000Y-139827000D01*
X154793000Y-139827000D01*
X154793000Y-139573000D01*
X154813000Y-139573000D01*
X154813000Y-139553000D01*
X155067000Y-139553000D01*
X155067000Y-139573000D01*
G36*
X179554898Y-83052908D02*
X179330561Y-82970832D01*
X178720437Y-82996451D01*
X178275749Y-83180647D01*
X178189343Y-83437131D01*
X179089897Y-84337685D01*
X179104040Y-84323543D01*
X179283645Y-84503148D01*
X179269502Y-84517290D01*
X179283645Y-84531433D01*
X179104040Y-84711038D01*
X179089897Y-84696895D01*
X178189343Y-85597449D01*
X178275749Y-85853933D01*
X178849233Y-86063748D01*
X179459357Y-86038129D01*
X179554898Y-85998554D01*
X179554899Y-133975301D01*
X174167440Y-139362760D01*
X174167440Y-138900000D01*
X174118157Y-138652235D01*
X173977809Y-138442191D01*
X173767765Y-138301843D01*
X173520000Y-138252560D01*
X173480000Y-138252560D01*
X173480000Y-134934801D01*
X173651698Y-134763103D01*
X173704561Y-134785000D01*
X174275439Y-134785000D01*
X174802862Y-134566534D01*
X175206534Y-134162862D01*
X175425000Y-133635439D01*
X175425000Y-133064561D01*
X175206534Y-132537138D01*
X174802862Y-132133466D01*
X174673784Y-132080000D01*
X174802862Y-132026534D01*
X175206534Y-131622862D01*
X175425000Y-131095439D01*
X175425000Y-130524561D01*
X175403103Y-130471698D01*
X179149383Y-126725420D01*
X179212836Y-126683022D01*
X179255234Y-126619569D01*
X179255236Y-126619567D01*
X179341809Y-126490000D01*
X179380811Y-126431630D01*
X179424907Y-126209945D01*
X179424907Y-126209941D01*
X179439795Y-126135094D01*
X179424907Y-126060247D01*
X179424907Y-88689746D01*
X179439795Y-88614899D01*
X179424907Y-88540052D01*
X179424907Y-88540048D01*
X179380811Y-88318363D01*
X179212836Y-88066971D01*
X179149380Y-88024571D01*
X175624896Y-84500088D01*
X175624896Y-84276626D01*
X177543439Y-84276626D01*
X177569058Y-84886750D01*
X177753254Y-85331438D01*
X178009738Y-85417844D01*
X178910292Y-84517290D01*
X178009738Y-83616736D01*
X177753254Y-83703142D01*
X177543439Y-84276626D01*
X175624896Y-84276626D01*
X175624896Y-79678742D01*
X175697289Y-79751135D01*
X176665763Y-80152290D01*
X177714031Y-80152290D01*
X178682505Y-79751135D01*
X179423742Y-79009898D01*
X179554898Y-78693259D01*
X179554898Y-83052908D01*
X179554898Y-83052908D01*
G37*
X179554898Y-83052908D02*
X179330561Y-82970832D01*
X178720437Y-82996451D01*
X178275749Y-83180647D01*
X178189343Y-83437131D01*
X179089897Y-84337685D01*
X179104040Y-84323543D01*
X179283645Y-84503148D01*
X179269502Y-84517290D01*
X179283645Y-84531433D01*
X179104040Y-84711038D01*
X179089897Y-84696895D01*
X178189343Y-85597449D01*
X178275749Y-85853933D01*
X178849233Y-86063748D01*
X179459357Y-86038129D01*
X179554898Y-85998554D01*
X179554899Y-133975301D01*
X174167440Y-139362760D01*
X174167440Y-138900000D01*
X174118157Y-138652235D01*
X173977809Y-138442191D01*
X173767765Y-138301843D01*
X173520000Y-138252560D01*
X173480000Y-138252560D01*
X173480000Y-134934801D01*
X173651698Y-134763103D01*
X173704561Y-134785000D01*
X174275439Y-134785000D01*
X174802862Y-134566534D01*
X175206534Y-134162862D01*
X175425000Y-133635439D01*
X175425000Y-133064561D01*
X175206534Y-132537138D01*
X174802862Y-132133466D01*
X174673784Y-132080000D01*
X174802862Y-132026534D01*
X175206534Y-131622862D01*
X175425000Y-131095439D01*
X175425000Y-130524561D01*
X175403103Y-130471698D01*
X179149383Y-126725420D01*
X179212836Y-126683022D01*
X179255234Y-126619569D01*
X179255236Y-126619567D01*
X179341809Y-126490000D01*
X179380811Y-126431630D01*
X179424907Y-126209945D01*
X179424907Y-126209941D01*
X179439795Y-126135094D01*
X179424907Y-126060247D01*
X179424907Y-88689746D01*
X179439795Y-88614899D01*
X179424907Y-88540052D01*
X179424907Y-88540048D01*
X179380811Y-88318363D01*
X179212836Y-88066971D01*
X179149380Y-88024571D01*
X175624896Y-84500088D01*
X175624896Y-84276626D01*
X177543439Y-84276626D01*
X177569058Y-84886750D01*
X177753254Y-85331438D01*
X178009738Y-85417844D01*
X178910292Y-84517290D01*
X178009738Y-83616736D01*
X177753254Y-83703142D01*
X177543439Y-84276626D01*
X175624896Y-84276626D01*
X175624896Y-79678742D01*
X175697289Y-79751135D01*
X176665763Y-80152290D01*
X177714031Y-80152290D01*
X178682505Y-79751135D01*
X179423742Y-79009898D01*
X179554898Y-78693259D01*
X179554898Y-83052908D01*
G36*
X162066017Y-127956877D02*
X162129476Y-127999279D01*
X167329669Y-133199473D01*
X167372069Y-133262929D01*
X167435525Y-133305329D01*
X167623460Y-133430904D01*
X167644525Y-133435094D01*
X167845146Y-133475000D01*
X167845150Y-133475000D01*
X167919998Y-133489888D01*
X167994846Y-133475000D01*
X168200153Y-133475000D01*
X168275000Y-133489888D01*
X168349847Y-133475000D01*
X168349852Y-133475000D01*
X168571537Y-133430904D01*
X168822929Y-133262929D01*
X168865331Y-133199470D01*
X169841698Y-132223103D01*
X169894561Y-132245000D01*
X170465439Y-132245000D01*
X170545002Y-132212044D01*
X170545002Y-133765196D01*
X165840963Y-138469236D01*
X165659909Y-138348260D01*
X165241333Y-138265000D01*
X164958667Y-138265000D01*
X164540091Y-138348260D01*
X164189101Y-138582784D01*
X164169474Y-138569670D01*
X161958947Y-136359144D01*
X161958947Y-135943219D01*
X162303223Y-136066965D01*
X162873454Y-136039778D01*
X163274005Y-135873864D01*
X163348139Y-135627745D01*
X162520000Y-134799605D01*
X162505858Y-134813748D01*
X162326253Y-134634143D01*
X162340395Y-134620000D01*
X162699605Y-134620000D01*
X163527745Y-135448139D01*
X163773864Y-135374005D01*
X163966965Y-134836777D01*
X163939778Y-134266546D01*
X163773864Y-133865995D01*
X163527745Y-133791861D01*
X162699605Y-134620000D01*
X162340395Y-134620000D01*
X162326253Y-134605858D01*
X162505858Y-134426252D01*
X162520000Y-134440395D01*
X163348139Y-133612255D01*
X163274005Y-133366136D01*
X162736777Y-133173035D01*
X162166546Y-133200222D01*
X161958947Y-133286212D01*
X161958947Y-127796635D01*
X162066017Y-127956877D01*
X162066017Y-127956877D01*
G37*
X162066017Y-127956877D02*
X162129476Y-127999279D01*
X167329669Y-133199473D01*
X167372069Y-133262929D01*
X167435525Y-133305329D01*
X167623460Y-133430904D01*
X167644525Y-133435094D01*
X167845146Y-133475000D01*
X167845150Y-133475000D01*
X167919998Y-133489888D01*
X167994846Y-133475000D01*
X168200153Y-133475000D01*
X168275000Y-133489888D01*
X168349847Y-133475000D01*
X168349852Y-133475000D01*
X168571537Y-133430904D01*
X168822929Y-133262929D01*
X168865331Y-133199470D01*
X169841698Y-132223103D01*
X169894561Y-132245000D01*
X170465439Y-132245000D01*
X170545002Y-132212044D01*
X170545002Y-133765196D01*
X165840963Y-138469236D01*
X165659909Y-138348260D01*
X165241333Y-138265000D01*
X164958667Y-138265000D01*
X164540091Y-138348260D01*
X164189101Y-138582784D01*
X164169474Y-138569670D01*
X161958947Y-136359144D01*
X161958947Y-135943219D01*
X162303223Y-136066965D01*
X162873454Y-136039778D01*
X163274005Y-135873864D01*
X163348139Y-135627745D01*
X162520000Y-134799605D01*
X162505858Y-134813748D01*
X162326253Y-134634143D01*
X162340395Y-134620000D01*
X162699605Y-134620000D01*
X163527745Y-135448139D01*
X163773864Y-135374005D01*
X163966965Y-134836777D01*
X163939778Y-134266546D01*
X163773864Y-133865995D01*
X163527745Y-133791861D01*
X162699605Y-134620000D01*
X162340395Y-134620000D01*
X162326253Y-134605858D01*
X162505858Y-134426252D01*
X162520000Y-134440395D01*
X163348139Y-133612255D01*
X163274005Y-133366136D01*
X162736777Y-133173035D01*
X162166546Y-133200222D01*
X161958947Y-133286212D01*
X161958947Y-127796635D01*
X162066017Y-127956877D01*
G36*
X157510199Y-135725000D02*
X157154561Y-135725000D01*
X156627138Y-135943466D01*
X156223466Y-136347138D01*
X156196475Y-136412299D01*
X156193864Y-136405995D01*
X155947745Y-136331861D01*
X155119605Y-137160000D01*
X155133748Y-137174142D01*
X154954142Y-137353748D01*
X154940000Y-137339605D01*
X154925858Y-137353748D01*
X154746252Y-137174142D01*
X154760395Y-137160000D01*
X153932255Y-136331861D01*
X153686136Y-136405995D01*
X153493035Y-136943223D01*
X153520222Y-137513454D01*
X153645126Y-137814999D01*
X153358800Y-137814999D01*
X153358800Y-137644125D01*
X153201231Y-137263719D01*
X152910080Y-136972568D01*
X152529674Y-136814999D01*
X152117926Y-136814999D01*
X151737520Y-136972568D01*
X151699944Y-137010144D01*
X150842056Y-136152255D01*
X154111861Y-136152255D01*
X154940000Y-136980395D01*
X155768139Y-136152255D01*
X155694005Y-135906136D01*
X155156777Y-135713035D01*
X154586546Y-135740222D01*
X154185995Y-135906136D01*
X154111861Y-136152255D01*
X150842056Y-136152255D01*
X150590125Y-135900324D01*
X150654005Y-135873864D01*
X150728139Y-135627745D01*
X149900000Y-134799605D01*
X149885858Y-134813748D01*
X149706252Y-134634142D01*
X149720395Y-134620000D01*
X150079605Y-134620000D01*
X150907745Y-135448139D01*
X150955307Y-135433813D01*
X151001843Y-135667765D01*
X151142191Y-135877809D01*
X151352235Y-136018157D01*
X151600000Y-136067440D01*
X153200000Y-136067440D01*
X153447765Y-136018157D01*
X153657809Y-135877809D01*
X153798157Y-135667765D01*
X153847440Y-135420000D01*
X153847440Y-133820000D01*
X153798157Y-133572235D01*
X153657809Y-133362191D01*
X153447765Y-133221843D01*
X153200000Y-133172560D01*
X151600000Y-133172560D01*
X151352235Y-133221843D01*
X151142191Y-133362191D01*
X151001843Y-133572235D01*
X150955307Y-133806187D01*
X150907745Y-133791861D01*
X150079605Y-134620000D01*
X149720395Y-134620000D01*
X148892255Y-133791861D01*
X148646136Y-133865995D01*
X148622249Y-133932450D01*
X148302054Y-133612255D01*
X149071861Y-133612255D01*
X149900000Y-134440395D01*
X150728139Y-133612255D01*
X150654005Y-133366136D01*
X150116777Y-133173035D01*
X149546546Y-133200222D01*
X149145995Y-133366136D01*
X149071861Y-133612255D01*
X148302054Y-133612255D01*
X147750328Y-133060529D01*
X147707926Y-132997070D01*
X147456534Y-132829095D01*
X147234849Y-132784999D01*
X147234844Y-132784999D01*
X147159997Y-132770111D01*
X147085150Y-132784999D01*
X142030400Y-132784999D01*
X142030400Y-132695001D01*
X154480200Y-132695001D01*
X157510199Y-135725000D01*
X157510199Y-135725000D01*
G37*
X157510199Y-135725000D02*
X157154561Y-135725000D01*
X156627138Y-135943466D01*
X156223466Y-136347138D01*
X156196475Y-136412299D01*
X156193864Y-136405995D01*
X155947745Y-136331861D01*
X155119605Y-137160000D01*
X155133748Y-137174142D01*
X154954142Y-137353748D01*
X154940000Y-137339605D01*
X154925858Y-137353748D01*
X154746252Y-137174142D01*
X154760395Y-137160000D01*
X153932255Y-136331861D01*
X153686136Y-136405995D01*
X153493035Y-136943223D01*
X153520222Y-137513454D01*
X153645126Y-137814999D01*
X153358800Y-137814999D01*
X153358800Y-137644125D01*
X153201231Y-137263719D01*
X152910080Y-136972568D01*
X152529674Y-136814999D01*
X152117926Y-136814999D01*
X151737520Y-136972568D01*
X151699944Y-137010144D01*
X150842056Y-136152255D01*
X154111861Y-136152255D01*
X154940000Y-136980395D01*
X155768139Y-136152255D01*
X155694005Y-135906136D01*
X155156777Y-135713035D01*
X154586546Y-135740222D01*
X154185995Y-135906136D01*
X154111861Y-136152255D01*
X150842056Y-136152255D01*
X150590125Y-135900324D01*
X150654005Y-135873864D01*
X150728139Y-135627745D01*
X149900000Y-134799605D01*
X149885858Y-134813748D01*
X149706252Y-134634142D01*
X149720395Y-134620000D01*
X150079605Y-134620000D01*
X150907745Y-135448139D01*
X150955307Y-135433813D01*
X151001843Y-135667765D01*
X151142191Y-135877809D01*
X151352235Y-136018157D01*
X151600000Y-136067440D01*
X153200000Y-136067440D01*
X153447765Y-136018157D01*
X153657809Y-135877809D01*
X153798157Y-135667765D01*
X153847440Y-135420000D01*
X153847440Y-133820000D01*
X153798157Y-133572235D01*
X153657809Y-133362191D01*
X153447765Y-133221843D01*
X153200000Y-133172560D01*
X151600000Y-133172560D01*
X151352235Y-133221843D01*
X151142191Y-133362191D01*
X151001843Y-133572235D01*
X150955307Y-133806187D01*
X150907745Y-133791861D01*
X150079605Y-134620000D01*
X149720395Y-134620000D01*
X148892255Y-133791861D01*
X148646136Y-133865995D01*
X148622249Y-133932450D01*
X148302054Y-133612255D01*
X149071861Y-133612255D01*
X149900000Y-134440395D01*
X150728139Y-133612255D01*
X150654005Y-133366136D01*
X150116777Y-133173035D01*
X149546546Y-133200222D01*
X149145995Y-133366136D01*
X149071861Y-133612255D01*
X148302054Y-133612255D01*
X147750328Y-133060529D01*
X147707926Y-132997070D01*
X147456534Y-132829095D01*
X147234849Y-132784999D01*
X147234844Y-132784999D01*
X147159997Y-132770111D01*
X147085150Y-132784999D01*
X142030400Y-132784999D01*
X142030400Y-132695001D01*
X154480200Y-132695001D01*
X157510199Y-135725000D01*
G36*
X135725000Y-124174561D02*
X135725000Y-124745439D01*
X135943466Y-125272862D01*
X136347138Y-125676534D01*
X136874561Y-125895000D01*
X137445439Y-125895000D01*
X137498302Y-125873103D01*
X137694670Y-126069471D01*
X137737072Y-126132930D01*
X137988464Y-126300905D01*
X138210149Y-126345001D01*
X138210153Y-126345001D01*
X138285000Y-126359889D01*
X138359847Y-126345001D01*
X157604098Y-126345001D01*
X157678945Y-126359889D01*
X157753792Y-126345001D01*
X157753797Y-126345001D01*
X157975482Y-126300905D01*
X158226874Y-126132930D01*
X158269276Y-126069471D01*
X159750060Y-124588688D01*
X159932613Y-124625000D01*
X160215279Y-124625000D01*
X160438947Y-124580510D01*
X160438948Y-133172560D01*
X159220000Y-133172560D01*
X158972235Y-133221843D01*
X158762191Y-133362191D01*
X158621843Y-133572235D01*
X158572560Y-133820000D01*
X158572560Y-134637759D01*
X155385332Y-131450531D01*
X155342930Y-131387072D01*
X155091538Y-131219097D01*
X154869853Y-131175001D01*
X154869848Y-131175001D01*
X154795001Y-131160113D01*
X154720154Y-131175001D01*
X136599800Y-131175001D01*
X136821698Y-130953103D01*
X136874561Y-130975000D01*
X137445439Y-130975000D01*
X137972862Y-130756534D01*
X138181651Y-130547745D01*
X138831861Y-130547745D01*
X138905995Y-130793864D01*
X139443223Y-130986965D01*
X140013454Y-130959778D01*
X140414005Y-130793864D01*
X140488139Y-130547745D01*
X139660000Y-129719605D01*
X138831861Y-130547745D01*
X138181651Y-130547745D01*
X138376534Y-130352862D01*
X138403525Y-130287701D01*
X138406136Y-130294005D01*
X138652255Y-130368139D01*
X139480395Y-129540000D01*
X139839605Y-129540000D01*
X140667745Y-130368139D01*
X140913864Y-130294005D01*
X140953458Y-130183849D01*
X141023466Y-130352862D01*
X141427138Y-130756534D01*
X141954561Y-130975000D01*
X142525439Y-130975000D01*
X143052862Y-130756534D01*
X143261651Y-130547745D01*
X143911861Y-130547745D01*
X143985995Y-130793864D01*
X144523223Y-130986965D01*
X145093454Y-130959778D01*
X145494005Y-130793864D01*
X145568139Y-130547745D01*
X144740000Y-129719605D01*
X143911861Y-130547745D01*
X143261651Y-130547745D01*
X143456534Y-130352862D01*
X143483525Y-130287701D01*
X143486136Y-130294005D01*
X143732255Y-130368139D01*
X144560395Y-129540000D01*
X144919605Y-129540000D01*
X145747745Y-130368139D01*
X145993864Y-130294005D01*
X146186965Y-129756777D01*
X146159778Y-129186546D01*
X145993864Y-128785995D01*
X145747745Y-128711861D01*
X144919605Y-129540000D01*
X144560395Y-129540000D01*
X143732255Y-128711861D01*
X143486136Y-128785995D01*
X143483710Y-128792746D01*
X143456534Y-128727138D01*
X143261651Y-128532255D01*
X143911861Y-128532255D01*
X144740000Y-129360395D01*
X145568139Y-128532255D01*
X145494005Y-128286136D01*
X144956777Y-128093035D01*
X144386546Y-128120222D01*
X143985995Y-128286136D01*
X143911861Y-128532255D01*
X143261651Y-128532255D01*
X143052862Y-128323466D01*
X142525439Y-128105000D01*
X141954561Y-128105000D01*
X141427138Y-128323466D01*
X141023466Y-128727138D01*
X140956475Y-128888868D01*
X140913864Y-128785995D01*
X140667745Y-128711861D01*
X139839605Y-129540000D01*
X139480395Y-129540000D01*
X138652255Y-128711861D01*
X138406136Y-128785995D01*
X138403710Y-128792746D01*
X138376534Y-128727138D01*
X138181651Y-128532255D01*
X138831861Y-128532255D01*
X139660000Y-129360395D01*
X140488139Y-128532255D01*
X140414005Y-128286136D01*
X139876777Y-128093035D01*
X139306546Y-128120222D01*
X138905995Y-128286136D01*
X138831861Y-128532255D01*
X138181651Y-128532255D01*
X137972862Y-128323466D01*
X137445439Y-128105000D01*
X136874561Y-128105000D01*
X136347138Y-128323466D01*
X135943466Y-128727138D01*
X135725000Y-129254561D01*
X135725000Y-129825439D01*
X135746897Y-129878302D01*
X135175198Y-130450001D01*
X134866511Y-130450001D01*
X134749080Y-130332570D01*
X134368674Y-130175001D01*
X133956926Y-130175001D01*
X133576520Y-130332570D01*
X133444446Y-130464644D01*
X128781262Y-125801461D01*
X129082862Y-125676534D01*
X129291651Y-125467745D01*
X129941861Y-125467745D01*
X130015995Y-125713864D01*
X130553223Y-125906965D01*
X131123454Y-125879778D01*
X131524005Y-125713864D01*
X131598139Y-125467745D01*
X130770000Y-124639605D01*
X129941861Y-125467745D01*
X129291651Y-125467745D01*
X129486534Y-125272862D01*
X129513525Y-125207701D01*
X129516136Y-125214005D01*
X129762255Y-125288139D01*
X130590395Y-124460000D01*
X130576253Y-124445858D01*
X130755858Y-124266253D01*
X130770000Y-124280395D01*
X130784143Y-124266253D01*
X130963748Y-124445858D01*
X130949605Y-124460000D01*
X131777745Y-125288139D01*
X132023864Y-125214005D01*
X132216965Y-124676777D01*
X132189778Y-124106546D01*
X132184995Y-124094999D01*
X135757956Y-124094999D01*
X135725000Y-124174561D01*
X135725000Y-124174561D01*
G37*
X135725000Y-124174561D02*
X135725000Y-124745439D01*
X135943466Y-125272862D01*
X136347138Y-125676534D01*
X136874561Y-125895000D01*
X137445439Y-125895000D01*
X137498302Y-125873103D01*
X137694670Y-126069471D01*
X137737072Y-126132930D01*
X137988464Y-126300905D01*
X138210149Y-126345001D01*
X138210153Y-126345001D01*
X138285000Y-126359889D01*
X138359847Y-126345001D01*
X157604098Y-126345001D01*
X157678945Y-126359889D01*
X157753792Y-126345001D01*
X157753797Y-126345001D01*
X157975482Y-126300905D01*
X158226874Y-126132930D01*
X158269276Y-126069471D01*
X159750060Y-124588688D01*
X159932613Y-124625000D01*
X160215279Y-124625000D01*
X160438947Y-124580510D01*
X160438948Y-133172560D01*
X159220000Y-133172560D01*
X158972235Y-133221843D01*
X158762191Y-133362191D01*
X158621843Y-133572235D01*
X158572560Y-133820000D01*
X158572560Y-134637759D01*
X155385332Y-131450531D01*
X155342930Y-131387072D01*
X155091538Y-131219097D01*
X154869853Y-131175001D01*
X154869848Y-131175001D01*
X154795001Y-131160113D01*
X154720154Y-131175001D01*
X136599800Y-131175001D01*
X136821698Y-130953103D01*
X136874561Y-130975000D01*
X137445439Y-130975000D01*
X137972862Y-130756534D01*
X138181651Y-130547745D01*
X138831861Y-130547745D01*
X138905995Y-130793864D01*
X139443223Y-130986965D01*
X140013454Y-130959778D01*
X140414005Y-130793864D01*
X140488139Y-130547745D01*
X139660000Y-129719605D01*
X138831861Y-130547745D01*
X138181651Y-130547745D01*
X138376534Y-130352862D01*
X138403525Y-130287701D01*
X138406136Y-130294005D01*
X138652255Y-130368139D01*
X139480395Y-129540000D01*
X139839605Y-129540000D01*
X140667745Y-130368139D01*
X140913864Y-130294005D01*
X140953458Y-130183849D01*
X141023466Y-130352862D01*
X141427138Y-130756534D01*
X141954561Y-130975000D01*
X142525439Y-130975000D01*
X143052862Y-130756534D01*
X143261651Y-130547745D01*
X143911861Y-130547745D01*
X143985995Y-130793864D01*
X144523223Y-130986965D01*
X145093454Y-130959778D01*
X145494005Y-130793864D01*
X145568139Y-130547745D01*
X144740000Y-129719605D01*
X143911861Y-130547745D01*
X143261651Y-130547745D01*
X143456534Y-130352862D01*
X143483525Y-130287701D01*
X143486136Y-130294005D01*
X143732255Y-130368139D01*
X144560395Y-129540000D01*
X144919605Y-129540000D01*
X145747745Y-130368139D01*
X145993864Y-130294005D01*
X146186965Y-129756777D01*
X146159778Y-129186546D01*
X145993864Y-128785995D01*
X145747745Y-128711861D01*
X144919605Y-129540000D01*
X144560395Y-129540000D01*
X143732255Y-128711861D01*
X143486136Y-128785995D01*
X143483710Y-128792746D01*
X143456534Y-128727138D01*
X143261651Y-128532255D01*
X143911861Y-128532255D01*
X144740000Y-129360395D01*
X145568139Y-128532255D01*
X145494005Y-128286136D01*
X144956777Y-128093035D01*
X144386546Y-128120222D01*
X143985995Y-128286136D01*
X143911861Y-128532255D01*
X143261651Y-128532255D01*
X143052862Y-128323466D01*
X142525439Y-128105000D01*
X141954561Y-128105000D01*
X141427138Y-128323466D01*
X141023466Y-128727138D01*
X140956475Y-128888868D01*
X140913864Y-128785995D01*
X140667745Y-128711861D01*
X139839605Y-129540000D01*
X139480395Y-129540000D01*
X138652255Y-128711861D01*
X138406136Y-128785995D01*
X138403710Y-128792746D01*
X138376534Y-128727138D01*
X138181651Y-128532255D01*
X138831861Y-128532255D01*
X139660000Y-129360395D01*
X140488139Y-128532255D01*
X140414005Y-128286136D01*
X139876777Y-128093035D01*
X139306546Y-128120222D01*
X138905995Y-128286136D01*
X138831861Y-128532255D01*
X138181651Y-128532255D01*
X137972862Y-128323466D01*
X137445439Y-128105000D01*
X136874561Y-128105000D01*
X136347138Y-128323466D01*
X135943466Y-128727138D01*
X135725000Y-129254561D01*
X135725000Y-129825439D01*
X135746897Y-129878302D01*
X135175198Y-130450001D01*
X134866511Y-130450001D01*
X134749080Y-130332570D01*
X134368674Y-130175001D01*
X133956926Y-130175001D01*
X133576520Y-130332570D01*
X133444446Y-130464644D01*
X128781262Y-125801461D01*
X129082862Y-125676534D01*
X129291651Y-125467745D01*
X129941861Y-125467745D01*
X130015995Y-125713864D01*
X130553223Y-125906965D01*
X131123454Y-125879778D01*
X131524005Y-125713864D01*
X131598139Y-125467745D01*
X130770000Y-124639605D01*
X129941861Y-125467745D01*
X129291651Y-125467745D01*
X129486534Y-125272862D01*
X129513525Y-125207701D01*
X129516136Y-125214005D01*
X129762255Y-125288139D01*
X130590395Y-124460000D01*
X130576253Y-124445858D01*
X130755858Y-124266253D01*
X130770000Y-124280395D01*
X130784143Y-124266253D01*
X130963748Y-124445858D01*
X130949605Y-124460000D01*
X131777745Y-125288139D01*
X132023864Y-125214005D01*
X132216965Y-124676777D01*
X132189778Y-124106546D01*
X132184995Y-124094999D01*
X135757956Y-124094999D01*
X135725000Y-124174561D01*
G36*
X130277864Y-129447666D02*
X130015995Y-129556136D01*
X129941861Y-129802255D01*
X130770000Y-130630395D01*
X130784142Y-130616252D01*
X130963748Y-130795858D01*
X130949605Y-130810000D01*
X131777745Y-131638139D01*
X132023864Y-131564005D01*
X132121783Y-131291585D01*
X132835998Y-132005800D01*
X131541495Y-132005800D01*
X131598139Y-131817745D01*
X130770000Y-130989605D01*
X129941861Y-131817745D01*
X129998505Y-132005800D01*
X129569242Y-132005800D01*
X129668157Y-131857765D01*
X129714693Y-131623813D01*
X129762255Y-131638139D01*
X130590395Y-130810000D01*
X129762255Y-129981861D01*
X129714693Y-129996187D01*
X129668157Y-129762235D01*
X129527809Y-129552191D01*
X129317765Y-129411843D01*
X129070000Y-129362560D01*
X127470000Y-129362560D01*
X127222235Y-129411843D01*
X127012191Y-129552191D01*
X126871843Y-129762235D01*
X126822560Y-130010000D01*
X126822560Y-130472760D01*
X122585001Y-126235202D01*
X122585001Y-121754802D01*
X130277864Y-129447666D01*
X130277864Y-129447666D01*
G37*
X130277864Y-129447666D02*
X130015995Y-129556136D01*
X129941861Y-129802255D01*
X130770000Y-130630395D01*
X130784142Y-130616252D01*
X130963748Y-130795858D01*
X130949605Y-130810000D01*
X131777745Y-131638139D01*
X132023864Y-131564005D01*
X132121783Y-131291585D01*
X132835998Y-132005800D01*
X131541495Y-132005800D01*
X131598139Y-131817745D01*
X130770000Y-130989605D01*
X129941861Y-131817745D01*
X129998505Y-132005800D01*
X129569242Y-132005800D01*
X129668157Y-131857765D01*
X129714693Y-131623813D01*
X129762255Y-131638139D01*
X130590395Y-130810000D01*
X129762255Y-129981861D01*
X129714693Y-129996187D01*
X129668157Y-129762235D01*
X129527809Y-129552191D01*
X129317765Y-129411843D01*
X129070000Y-129362560D01*
X127470000Y-129362560D01*
X127222235Y-129411843D01*
X127012191Y-129552191D01*
X126871843Y-129762235D01*
X126822560Y-130010000D01*
X126822560Y-130472760D01*
X122585001Y-126235202D01*
X122585001Y-121754802D01*
X130277864Y-129447666D01*
G36*
X177216897Y-89390290D02*
X177236897Y-89390290D01*
X177236897Y-89644290D01*
X177216897Y-89644290D01*
X177216897Y-91488862D01*
X177509542Y-91604985D01*
X177650508Y-91575511D01*
X177904907Y-91437526D01*
X177904907Y-100097054D01*
X177650508Y-99959069D01*
X177509542Y-99929595D01*
X177216897Y-100045718D01*
X177216897Y-101890290D01*
X177236897Y-101890290D01*
X177236897Y-102144290D01*
X177216897Y-102144290D01*
X177216897Y-103988862D01*
X177509542Y-104104985D01*
X177650508Y-104075511D01*
X177904907Y-103937526D01*
X177904908Y-125820289D01*
X175425000Y-128300198D01*
X175425000Y-127984561D01*
X175403103Y-127931698D01*
X177381093Y-125953709D01*
X177444549Y-125911309D01*
X177612524Y-125659917D01*
X177656620Y-125438232D01*
X177656620Y-125438227D01*
X177671508Y-125363380D01*
X177656620Y-125288533D01*
X177656620Y-116250056D01*
X177671508Y-116175208D01*
X177656620Y-116100360D01*
X177656620Y-116100356D01*
X177612524Y-115878671D01*
X177444549Y-115627279D01*
X177381093Y-115584879D01*
X176274887Y-114478674D01*
X176274887Y-103937526D01*
X176529286Y-104075511D01*
X176670252Y-104104985D01*
X176962897Y-103988862D01*
X176962897Y-102144290D01*
X176942897Y-102144290D01*
X176942897Y-101890290D01*
X176962897Y-101890290D01*
X176962897Y-100045718D01*
X176670252Y-99929595D01*
X176529286Y-99959069D01*
X176274887Y-100097054D01*
X176274887Y-91437526D01*
X176529286Y-91575511D01*
X176670252Y-91604985D01*
X176962897Y-91488862D01*
X176962897Y-89644290D01*
X176942897Y-89644290D01*
X176942897Y-89390290D01*
X176962897Y-89390290D01*
X176962897Y-89370290D01*
X177216897Y-89370290D01*
X177216897Y-89390290D01*
X177216897Y-89390290D01*
G37*
X177216897Y-89390290D02*
X177236897Y-89390290D01*
X177236897Y-89644290D01*
X177216897Y-89644290D01*
X177216897Y-91488862D01*
X177509542Y-91604985D01*
X177650508Y-91575511D01*
X177904907Y-91437526D01*
X177904907Y-100097054D01*
X177650508Y-99959069D01*
X177509542Y-99929595D01*
X177216897Y-100045718D01*
X177216897Y-101890290D01*
X177236897Y-101890290D01*
X177236897Y-102144290D01*
X177216897Y-102144290D01*
X177216897Y-103988862D01*
X177509542Y-104104985D01*
X177650508Y-104075511D01*
X177904907Y-103937526D01*
X177904908Y-125820289D01*
X175425000Y-128300198D01*
X175425000Y-127984561D01*
X175403103Y-127931698D01*
X177381093Y-125953709D01*
X177444549Y-125911309D01*
X177612524Y-125659917D01*
X177656620Y-125438232D01*
X177656620Y-125438227D01*
X177671508Y-125363380D01*
X177656620Y-125288533D01*
X177656620Y-116250056D01*
X177671508Y-116175208D01*
X177656620Y-116100360D01*
X177656620Y-116100356D01*
X177612524Y-115878671D01*
X177444549Y-115627279D01*
X177381093Y-115584879D01*
X176274887Y-114478674D01*
X176274887Y-103937526D01*
X176529286Y-104075511D01*
X176670252Y-104104985D01*
X176962897Y-103988862D01*
X176962897Y-102144290D01*
X176942897Y-102144290D01*
X176942897Y-101890290D01*
X176962897Y-101890290D01*
X176962897Y-100045718D01*
X176670252Y-99929595D01*
X176529286Y-99959069D01*
X176274887Y-100097054D01*
X176274887Y-91437526D01*
X176529286Y-91575511D01*
X176670252Y-91604985D01*
X176962897Y-91488862D01*
X176962897Y-89644290D01*
X176942897Y-89644290D01*
X176942897Y-89390290D01*
X176962897Y-89390290D01*
X176962897Y-89370290D01*
X177216897Y-89370290D01*
X177216897Y-89390290D01*
G36*
X135696887Y-114300000D02*
X135808260Y-114859909D01*
X136125423Y-115334577D01*
X136600091Y-115651740D01*
X137018667Y-115735000D01*
X137301333Y-115735000D01*
X137719909Y-115651740D01*
X138194577Y-115334577D01*
X138430000Y-114982242D01*
X138665423Y-115334577D01*
X139140091Y-115651740D01*
X139558667Y-115735000D01*
X139841333Y-115735000D01*
X140259909Y-115651740D01*
X140610900Y-115417215D01*
X140630527Y-115430330D01*
X147749667Y-122549471D01*
X147792068Y-122612928D01*
X148043460Y-122780903D01*
X148265145Y-122824999D01*
X148265149Y-122824999D01*
X148339996Y-122839887D01*
X148414843Y-122824999D01*
X153546506Y-122824999D01*
X153546506Y-123990000D01*
X153595789Y-124237765D01*
X153736137Y-124447809D01*
X153946181Y-124588157D01*
X154193946Y-124637440D01*
X155793946Y-124637440D01*
X156041711Y-124588157D01*
X156251755Y-124447809D01*
X156392103Y-124237765D01*
X156422959Y-124082639D01*
X156796523Y-124421041D01*
X157184907Y-124581904D01*
X157406946Y-124459915D01*
X157406946Y-123317000D01*
X157386946Y-123317000D01*
X157386946Y-123063000D01*
X157406946Y-123063000D01*
X157406946Y-123043000D01*
X157660946Y-123043000D01*
X157660946Y-123063000D01*
X157680946Y-123063000D01*
X157680946Y-123317000D01*
X157660946Y-123317000D01*
X157660946Y-124459915D01*
X157705017Y-124484128D01*
X157364144Y-124825001D01*
X151213687Y-124825001D01*
X151266965Y-124676777D01*
X151239778Y-124106546D01*
X151073864Y-123705995D01*
X150827745Y-123631861D01*
X149999605Y-124460000D01*
X150013748Y-124474143D01*
X149834143Y-124653748D01*
X149820000Y-124639605D01*
X149805858Y-124653748D01*
X149626253Y-124474143D01*
X149640395Y-124460000D01*
X148812255Y-123631861D01*
X148764693Y-123646187D01*
X148726118Y-123452255D01*
X148991861Y-123452255D01*
X149820000Y-124280395D01*
X150648139Y-123452255D01*
X150574005Y-123206136D01*
X150036777Y-123013035D01*
X149466546Y-123040222D01*
X149065995Y-123206136D01*
X148991861Y-123452255D01*
X148726118Y-123452255D01*
X148718157Y-123412235D01*
X148577809Y-123202191D01*
X148367765Y-123061843D01*
X148120000Y-123012560D01*
X146520000Y-123012560D01*
X146272235Y-123061843D01*
X146062191Y-123202191D01*
X145921843Y-123412235D01*
X145872560Y-123660000D01*
X145872560Y-124825001D01*
X143642044Y-124825001D01*
X143675000Y-124745439D01*
X143675000Y-124174561D01*
X143456534Y-123647138D01*
X143052862Y-123243466D01*
X142525439Y-123025000D01*
X141954561Y-123025000D01*
X141901698Y-123046897D01*
X141705330Y-122850529D01*
X141662928Y-122787070D01*
X141411536Y-122619095D01*
X141189851Y-122574999D01*
X141189846Y-122574999D01*
X141114999Y-122560111D01*
X141040152Y-122574999D01*
X131229803Y-122574999D01*
X132379474Y-121425328D01*
X132442930Y-121382928D01*
X132610905Y-121131536D01*
X132655001Y-120909851D01*
X132655001Y-120909847D01*
X132669889Y-120835000D01*
X132655001Y-120760153D01*
X132655001Y-117644846D01*
X132669889Y-117569999D01*
X132655001Y-117495152D01*
X132655001Y-117495147D01*
X132610905Y-117273462D01*
X132442930Y-117022070D01*
X132379474Y-116979670D01*
X131900332Y-116500529D01*
X131857930Y-116437070D01*
X131606538Y-116269095D01*
X131384853Y-116224999D01*
X131384848Y-116224999D01*
X131310001Y-116210111D01*
X131235154Y-116224999D01*
X128419847Y-116224999D01*
X128345000Y-116210111D01*
X128270153Y-116224999D01*
X128270149Y-116224999D01*
X128048464Y-116269095D01*
X127797072Y-116437070D01*
X127767030Y-116482031D01*
X127722072Y-116512071D01*
X127679672Y-116575527D01*
X127679671Y-116575528D01*
X127621518Y-116662560D01*
X127470000Y-116662560D01*
X127222235Y-116711843D01*
X127012191Y-116852191D01*
X126871843Y-117062235D01*
X126822560Y-117310000D01*
X126822560Y-118475001D01*
X125690401Y-118475001D01*
X124989555Y-117774156D01*
X125134231Y-117629480D01*
X125291800Y-117249074D01*
X125291800Y-117083001D01*
X128439804Y-113934999D01*
X135769490Y-113934999D01*
X135696887Y-114300000D01*
X135696887Y-114300000D01*
G37*
X135696887Y-114300000D02*
X135808260Y-114859909D01*
X136125423Y-115334577D01*
X136600091Y-115651740D01*
X137018667Y-115735000D01*
X137301333Y-115735000D01*
X137719909Y-115651740D01*
X138194577Y-115334577D01*
X138430000Y-114982242D01*
X138665423Y-115334577D01*
X139140091Y-115651740D01*
X139558667Y-115735000D01*
X139841333Y-115735000D01*
X140259909Y-115651740D01*
X140610900Y-115417215D01*
X140630527Y-115430330D01*
X147749667Y-122549471D01*
X147792068Y-122612928D01*
X148043460Y-122780903D01*
X148265145Y-122824999D01*
X148265149Y-122824999D01*
X148339996Y-122839887D01*
X148414843Y-122824999D01*
X153546506Y-122824999D01*
X153546506Y-123990000D01*
X153595789Y-124237765D01*
X153736137Y-124447809D01*
X153946181Y-124588157D01*
X154193946Y-124637440D01*
X155793946Y-124637440D01*
X156041711Y-124588157D01*
X156251755Y-124447809D01*
X156392103Y-124237765D01*
X156422959Y-124082639D01*
X156796523Y-124421041D01*
X157184907Y-124581904D01*
X157406946Y-124459915D01*
X157406946Y-123317000D01*
X157386946Y-123317000D01*
X157386946Y-123063000D01*
X157406946Y-123063000D01*
X157406946Y-123043000D01*
X157660946Y-123043000D01*
X157660946Y-123063000D01*
X157680946Y-123063000D01*
X157680946Y-123317000D01*
X157660946Y-123317000D01*
X157660946Y-124459915D01*
X157705017Y-124484128D01*
X157364144Y-124825001D01*
X151213687Y-124825001D01*
X151266965Y-124676777D01*
X151239778Y-124106546D01*
X151073864Y-123705995D01*
X150827745Y-123631861D01*
X149999605Y-124460000D01*
X150013748Y-124474143D01*
X149834143Y-124653748D01*
X149820000Y-124639605D01*
X149805858Y-124653748D01*
X149626253Y-124474143D01*
X149640395Y-124460000D01*
X148812255Y-123631861D01*
X148764693Y-123646187D01*
X148726118Y-123452255D01*
X148991861Y-123452255D01*
X149820000Y-124280395D01*
X150648139Y-123452255D01*
X150574005Y-123206136D01*
X150036777Y-123013035D01*
X149466546Y-123040222D01*
X149065995Y-123206136D01*
X148991861Y-123452255D01*
X148726118Y-123452255D01*
X148718157Y-123412235D01*
X148577809Y-123202191D01*
X148367765Y-123061843D01*
X148120000Y-123012560D01*
X146520000Y-123012560D01*
X146272235Y-123061843D01*
X146062191Y-123202191D01*
X145921843Y-123412235D01*
X145872560Y-123660000D01*
X145872560Y-124825001D01*
X143642044Y-124825001D01*
X143675000Y-124745439D01*
X143675000Y-124174561D01*
X143456534Y-123647138D01*
X143052862Y-123243466D01*
X142525439Y-123025000D01*
X141954561Y-123025000D01*
X141901698Y-123046897D01*
X141705330Y-122850529D01*
X141662928Y-122787070D01*
X141411536Y-122619095D01*
X141189851Y-122574999D01*
X141189846Y-122574999D01*
X141114999Y-122560111D01*
X141040152Y-122574999D01*
X131229803Y-122574999D01*
X132379474Y-121425328D01*
X132442930Y-121382928D01*
X132610905Y-121131536D01*
X132655001Y-120909851D01*
X132655001Y-120909847D01*
X132669889Y-120835000D01*
X132655001Y-120760153D01*
X132655001Y-117644846D01*
X132669889Y-117569999D01*
X132655001Y-117495152D01*
X132655001Y-117495147D01*
X132610905Y-117273462D01*
X132442930Y-117022070D01*
X132379474Y-116979670D01*
X131900332Y-116500529D01*
X131857930Y-116437070D01*
X131606538Y-116269095D01*
X131384853Y-116224999D01*
X131384848Y-116224999D01*
X131310001Y-116210111D01*
X131235154Y-116224999D01*
X128419847Y-116224999D01*
X128345000Y-116210111D01*
X128270153Y-116224999D01*
X128270149Y-116224999D01*
X128048464Y-116269095D01*
X127797072Y-116437070D01*
X127767030Y-116482031D01*
X127722072Y-116512071D01*
X127679672Y-116575527D01*
X127679671Y-116575528D01*
X127621518Y-116662560D01*
X127470000Y-116662560D01*
X127222235Y-116711843D01*
X127012191Y-116852191D01*
X126871843Y-117062235D01*
X126822560Y-117310000D01*
X126822560Y-118475001D01*
X125690401Y-118475001D01*
X124989555Y-117774156D01*
X125134231Y-117629480D01*
X125291800Y-117249074D01*
X125291800Y-117083001D01*
X128439804Y-113934999D01*
X135769490Y-113934999D01*
X135696887Y-114300000D01*
G04 #@! TD*
M02*
