G04 #@! TF.GenerationSoftware,KiCad,Pcbnew,(5.0.1)-3*
G04 #@! TF.CreationDate,2019-06-25T23:54:28+01:00*
G04 #@! TF.ProjectId,drumkid v3,6472756D6B69642076332E6B69636164,03*
G04 #@! TF.SameCoordinates,Original*
G04 #@! TF.FileFunction,Copper,L2,Bot,Signal*
G04 #@! TF.FilePolarity,Positive*
%FSLAX46Y46*%
G04 Gerber Fmt 4.6, Leading zero omitted, Abs format (unit mm)*
G04 Created by KiCad (PCBNEW (5.0.1)-3) date 25/06/2019 23:54:28*
%MOMM*%
%LPD*%
G01*
G04 APERTURE LIST*
G04 #@! TA.AperFunction,ComponentPad*
%ADD10C,3.653000*%
G04 #@! TD*
G04 #@! TA.AperFunction,ComponentPad*
%ADD11C,1.400000*%
G04 #@! TD*
G04 #@! TA.AperFunction,ComponentPad*
%ADD12O,1.600000X1.600000*%
G04 #@! TD*
G04 #@! TA.AperFunction,ComponentPad*
%ADD13C,1.600000*%
G04 #@! TD*
G04 #@! TA.AperFunction,WasherPad*
%ADD14C,4.000000*%
G04 #@! TD*
G04 #@! TA.AperFunction,ComponentPad*
%ADD15C,1.800000*%
G04 #@! TD*
G04 #@! TA.AperFunction,ComponentPad*
%ADD16R,1.800000X1.800000*%
G04 #@! TD*
G04 #@! TA.AperFunction,ComponentPad*
%ADD17O,1.750000X3.500000*%
G04 #@! TD*
G04 #@! TA.AperFunction,ComponentPad*
%ADD18R,3.500000X2.500000*%
G04 #@! TD*
G04 #@! TA.AperFunction,ComponentPad*
%ADD19O,2.500000X3.000000*%
G04 #@! TD*
G04 #@! TA.AperFunction,ComponentPad*
%ADD20R,1.600000X1.600000*%
G04 #@! TD*
G04 #@! TA.AperFunction,ComponentPad*
%ADD21R,1.700000X1.700000*%
G04 #@! TD*
G04 #@! TA.AperFunction,ComponentPad*
%ADD22O,1.700000X1.700000*%
G04 #@! TD*
G04 #@! TA.AperFunction,ComponentPad*
%ADD23C,1.500000*%
G04 #@! TD*
G04 #@! TA.AperFunction,ViaPad*
%ADD24C,0.800000*%
G04 #@! TD*
G04 #@! TA.AperFunction,Conductor*
%ADD25C,0.625000*%
G04 #@! TD*
G04 #@! TA.AperFunction,Conductor*
%ADD26C,0.250000*%
G04 #@! TD*
G04 #@! TA.AperFunction,Conductor*
%ADD27C,0.254000*%
G04 #@! TD*
G04 APERTURE END LIST*
D10*
G04 #@! TO.P,SW1,MH2*
G04 #@! TO.N,N/C*
X113993946Y-51741091D03*
G04 #@! TO.P,SW1,MH1*
X113993946Y-64241091D03*
D11*
G04 #@! TO.P,SW1,3*
G04 #@! TO.N,Net-(SW1-Pad3)*
X113993946Y-54991091D03*
G04 #@! TO.P,SW1,2*
G04 #@! TO.N,Net-(BT1-Pad1)*
X113993946Y-57991091D03*
G04 #@! TO.P,SW1,1*
G04 #@! TO.N,+5V*
X113993946Y-60991091D03*
G04 #@! TD*
D12*
G04 #@! TO.P,R1,2*
G04 #@! TO.N,/DIGITAL_9*
X139700000Y-114300000D03*
D13*
G04 #@! TO.P,R1,1*
G04 #@! TO.N,Net-(C13-Pad1)*
X139700000Y-124460000D03*
G04 #@! TD*
D12*
G04 #@! TO.P,R7,2*
G04 #@! TO.N,/DIGITAL_6*
X184150000Y-130810000D03*
D13*
G04 #@! TO.P,R7,1*
G04 #@! TO.N,Net-(D6-Pad2)*
X173990000Y-130810000D03*
G04 #@! TD*
D12*
G04 #@! TO.P,R11,2*
G04 #@! TO.N,GND*
X184150000Y-118110000D03*
D13*
G04 #@! TO.P,R11,1*
G04 #@! TO.N,Net-(C18-Pad2)*
X173990000Y-118110000D03*
G04 #@! TD*
D12*
G04 #@! TO.P,R10,2*
G04 #@! TO.N,GND*
X184150000Y-115570000D03*
D13*
G04 #@! TO.P,R10,1*
G04 #@! TO.N,Net-(R10-Pad1)*
X173990000Y-115570000D03*
G04 #@! TD*
D12*
G04 #@! TO.P,R9,2*
G04 #@! TO.N,Net-(R9-Pad2)*
X137160000Y-114300000D03*
D13*
G04 #@! TO.P,R9,1*
G04 #@! TO.N,Net-(R10-Pad1)*
X137160000Y-124460000D03*
G04 #@! TD*
D12*
G04 #@! TO.P,R8,2*
G04 #@! TO.N,Net-(C13-Pad1)*
X142240000Y-114300000D03*
D13*
G04 #@! TO.P,R8,1*
G04 #@! TO.N,Net-(C14-Pad1)*
X142240000Y-124460000D03*
G04 #@! TD*
D12*
G04 #@! TO.P,R6,2*
G04 #@! TO.N,/DIGITAL_5*
X184150000Y-128270000D03*
D13*
G04 #@! TO.P,R6,1*
G04 #@! TO.N,Net-(D5-Pad2)*
X173990000Y-128270000D03*
G04 #@! TD*
D12*
G04 #@! TO.P,R5,2*
G04 #@! TO.N,/DIGITAL_4*
X184150000Y-125730000D03*
D13*
G04 #@! TO.P,R5,1*
G04 #@! TO.N,Net-(D4-Pad2)*
X173990000Y-125730000D03*
G04 #@! TD*
D12*
G04 #@! TO.P,R4,2*
G04 #@! TO.N,/DIGITAL_3*
X184150000Y-123190000D03*
D13*
G04 #@! TO.P,R4,1*
G04 #@! TO.N,Net-(D3-Pad2)*
X173990000Y-123190000D03*
G04 #@! TD*
D12*
G04 #@! TO.P,R3,2*
G04 #@! TO.N,/DIGITAL_2*
X184150000Y-120650000D03*
D13*
G04 #@! TO.P,R3,1*
G04 #@! TO.N,Net-(D2-Pad2)*
X173990000Y-120650000D03*
G04 #@! TD*
D12*
G04 #@! TO.P,R2,2*
G04 #@! TO.N,+5V*
X184150000Y-133350000D03*
D13*
G04 #@! TO.P,R2,1*
G04 #@! TO.N,Net-(R2-Pad1)*
X173990000Y-133350000D03*
G04 #@! TD*
D14*
G04 #@! TO.P,RV1,*
G04 #@! TO.N,*
X191893946Y-59991091D03*
X183093946Y-59991091D03*
D15*
G04 #@! TO.P,RV1,1*
G04 #@! TO.N,GND*
X189993946Y-52991091D03*
G04 #@! TO.P,RV1,2*
G04 #@! TO.N,Net-(R9-Pad2)*
X187493946Y-52991091D03*
G04 #@! TO.P,RV1,3*
G04 #@! TO.N,Net-(C15-Pad2)*
X184993946Y-52991091D03*
G04 #@! TD*
G04 #@! TO.P,D6,2*
G04 #@! TO.N,Net-(D6-Pad2)*
X171290000Y-65867290D03*
D16*
G04 #@! TO.P,D6,1*
G04 #@! TO.N,GND*
X168750000Y-65867290D03*
G04 #@! TD*
D15*
G04 #@! TO.P,D5,2*
G04 #@! TO.N,Net-(D5-Pad2)*
X161290000Y-65867290D03*
D16*
G04 #@! TO.P,D5,1*
G04 #@! TO.N,GND*
X158750000Y-65867290D03*
G04 #@! TD*
D15*
G04 #@! TO.P,D4,2*
G04 #@! TO.N,Net-(D4-Pad2)*
X151290000Y-65867290D03*
D16*
G04 #@! TO.P,D4,1*
G04 #@! TO.N,GND*
X148750000Y-65867290D03*
G04 #@! TD*
D15*
G04 #@! TO.P,D3,2*
G04 #@! TO.N,Net-(D3-Pad2)*
X141290000Y-65867290D03*
D16*
G04 #@! TO.P,D3,1*
G04 #@! TO.N,GND*
X138750000Y-65867290D03*
G04 #@! TD*
D15*
G04 #@! TO.P,D2,2*
G04 #@! TO.N,Net-(D2-Pad2)*
X131290000Y-65867290D03*
D16*
G04 #@! TO.P,D2,1*
G04 #@! TO.N,GND*
X128750000Y-65867290D03*
G04 #@! TD*
D17*
G04 #@! TO.P,J9,TN*
G04 #@! TO.N,Net-(J9-PadTN)*
X152500000Y-48410000D03*
G04 #@! TO.P,J9,RN*
G04 #@! TO.N,Net-(J9-PadRN)*
X147500000Y-48410000D03*
G04 #@! TO.P,J9,T*
G04 #@! TO.N,Net-(C10-Pad2)*
X155000000Y-48410000D03*
G04 #@! TO.P,J9,R*
X145000000Y-48410000D03*
D18*
G04 #@! TO.P,J9,S*
G04 #@! TO.N,GND*
X150000000Y-43404000D03*
G04 #@! TD*
D14*
G04 #@! TO.P,RV2,*
G04 #@! TO.N,*
X114189897Y-77517290D03*
X122989897Y-77517290D03*
D15*
G04 #@! TO.P,RV2,1*
G04 #@! TO.N,GND*
X116089897Y-84517290D03*
G04 #@! TO.P,RV2,2*
G04 #@! TO.N,/ANALOG_0*
X118589897Y-84517290D03*
G04 #@! TO.P,RV2,3*
G04 #@! TO.N,+5V*
X121089897Y-84517290D03*
G04 #@! TD*
D14*
G04 #@! TO.P,RV4,*
G04 #@! TO.N,*
X163189897Y-77517290D03*
X171989897Y-77517290D03*
D15*
G04 #@! TO.P,RV4,1*
G04 #@! TO.N,GND*
X165089897Y-84517290D03*
G04 #@! TO.P,RV4,2*
G04 #@! TO.N,/ANALOG_2*
X167589897Y-84517290D03*
G04 #@! TO.P,RV4,3*
G04 #@! TO.N,+5V*
X170089897Y-84517290D03*
G04 #@! TD*
D14*
G04 #@! TO.P,RV3,*
G04 #@! TO.N,*
X128189897Y-77517290D03*
X136989897Y-77517290D03*
D15*
G04 #@! TO.P,RV3,1*
G04 #@! TO.N,GND*
X130089897Y-84517290D03*
G04 #@! TO.P,RV3,2*
G04 #@! TO.N,/ANALOG_1*
X132589897Y-84517290D03*
G04 #@! TO.P,RV3,3*
G04 #@! TO.N,+5V*
X135089897Y-84517290D03*
G04 #@! TD*
D14*
G04 #@! TO.P,RV5,*
G04 #@! TO.N,*
X177189897Y-77517290D03*
X185989897Y-77517290D03*
D15*
G04 #@! TO.P,RV5,1*
G04 #@! TO.N,GND*
X179089897Y-84517290D03*
G04 #@! TO.P,RV5,2*
G04 #@! TO.N,/ANALOG_3*
X181589897Y-84517290D03*
G04 #@! TO.P,RV5,3*
G04 #@! TO.N,+5V*
X184089897Y-84517290D03*
G04 #@! TD*
D19*
G04 #@! TO.P,SW2,1*
G04 #@! TO.N,/DIGITAL_7*
X110089897Y-102017290D03*
G04 #@! TO.P,SW2,2*
G04 #@! TO.N,GND*
X115089897Y-102017290D03*
G04 #@! TO.P,SW2,1*
G04 #@! TO.N,/DIGITAL_7*
X110089897Y-89517290D03*
G04 #@! TO.P,SW2,2*
G04 #@! TO.N,GND*
X115089897Y-89517290D03*
G04 #@! TD*
G04 #@! TO.P,SW7,1*
G04 #@! TO.N,/DIGITAL_13*
X185089897Y-102017290D03*
G04 #@! TO.P,SW7,2*
G04 #@! TO.N,GND*
X190089897Y-102017290D03*
G04 #@! TO.P,SW7,1*
G04 #@! TO.N,/DIGITAL_13*
X185089897Y-89517290D03*
G04 #@! TO.P,SW7,2*
G04 #@! TO.N,GND*
X190089897Y-89517290D03*
G04 #@! TD*
G04 #@! TO.P,SW6,1*
G04 #@! TO.N,/DIGITAL_12*
X172089897Y-102017290D03*
G04 #@! TO.P,SW6,2*
G04 #@! TO.N,GND*
X177089897Y-102017290D03*
G04 #@! TO.P,SW6,1*
G04 #@! TO.N,/DIGITAL_12*
X172089897Y-89517290D03*
G04 #@! TO.P,SW6,2*
G04 #@! TO.N,GND*
X177089897Y-89517290D03*
G04 #@! TD*
G04 #@! TO.P,SW5,1*
G04 #@! TO.N,/DIGITAL_11*
X159089897Y-102017290D03*
G04 #@! TO.P,SW5,2*
G04 #@! TO.N,GND*
X164089897Y-102017290D03*
G04 #@! TO.P,SW5,1*
G04 #@! TO.N,/DIGITAL_11*
X159089897Y-89517290D03*
G04 #@! TO.P,SW5,2*
G04 #@! TO.N,GND*
X164089897Y-89517290D03*
G04 #@! TD*
G04 #@! TO.P,SW4,1*
G04 #@! TO.N,/DIGITAL_10*
X136089897Y-102017290D03*
G04 #@! TO.P,SW4,2*
G04 #@! TO.N,GND*
X141089897Y-102017290D03*
G04 #@! TO.P,SW4,1*
G04 #@! TO.N,/DIGITAL_10*
X136089897Y-89517290D03*
G04 #@! TO.P,SW4,2*
G04 #@! TO.N,GND*
X141089897Y-89517290D03*
G04 #@! TD*
G04 #@! TO.P,SW3,1*
G04 #@! TO.N,/DIGITAL_8*
X123089897Y-102017290D03*
G04 #@! TO.P,SW3,2*
G04 #@! TO.N,GND*
X128089897Y-102017290D03*
G04 #@! TO.P,SW3,1*
G04 #@! TO.N,/DIGITAL_8*
X123089897Y-89517290D03*
G04 #@! TO.P,SW3,2*
G04 #@! TO.N,GND*
X128089897Y-89517290D03*
G04 #@! TD*
D13*
G04 #@! TO.P,C10,2*
G04 #@! TO.N,Net-(C10-Pad2)*
X170140000Y-118110000D03*
D20*
G04 #@! TO.P,C10,1*
G04 #@! TO.N,Net-(C10-Pad1)*
X167640000Y-118110000D03*
G04 #@! TD*
D21*
G04 #@! TO.P,BT1,1*
G04 #@! TO.N,Net-(BT1-Pad1)*
X177800000Y-142240000D03*
D22*
G04 #@! TO.P,BT1,2*
G04 #@! TO.N,GND*
X180340000Y-142240000D03*
G04 #@! TD*
D13*
G04 #@! TO.P,C8,2*
G04 #@! TO.N,GND*
X147360000Y-152400000D03*
D20*
G04 #@! TO.P,C8,1*
G04 #@! TO.N,+5V*
X149860000Y-152400000D03*
G04 #@! TD*
G04 #@! TO.P,C17,1*
G04 #@! TO.N,Net-(C17-Pad1)*
X147320000Y-124460000D03*
D13*
G04 #@! TO.P,C17,2*
G04 #@! TO.N,GND*
X149820000Y-124460000D03*
G04 #@! TD*
G04 #@! TO.P,C13,2*
G04 #@! TO.N,GND*
X130770000Y-130810000D03*
D20*
G04 #@! TO.P,C13,1*
G04 #@! TO.N,Net-(C13-Pad1)*
X128270000Y-130810000D03*
G04 #@! TD*
G04 #@! TO.P,C12,1*
G04 #@! TO.N,+5V*
X152400000Y-134620000D03*
D13*
G04 #@! TO.P,C12,2*
G04 #@! TO.N,GND*
X149900000Y-134620000D03*
G04 #@! TD*
G04 #@! TO.P,C11,2*
G04 #@! TO.N,GND*
X159980000Y-152400000D03*
D20*
G04 #@! TO.P,C11,1*
G04 #@! TO.N,+5V*
X157480000Y-152400000D03*
G04 #@! TD*
G04 #@! TO.P,C7,1*
G04 #@! TO.N,+5V*
X160020000Y-134620000D03*
D13*
G04 #@! TO.P,C7,2*
G04 #@! TO.N,GND*
X162520000Y-134620000D03*
G04 #@! TD*
D20*
G04 #@! TO.P,C15,1*
G04 #@! TO.N,Net-(C14-Pad1)*
X128270000Y-118110000D03*
D13*
G04 #@! TO.P,C15,2*
G04 #@! TO.N,Net-(C15-Pad2)*
X130770000Y-118110000D03*
G04 #@! TD*
G04 #@! TO.P,C9,1*
G04 #@! TO.N,GND*
X154940000Y-149860000D03*
G04 #@! TO.P,C9,2*
G04 #@! TO.N,+5V*
X152440000Y-149860000D03*
G04 #@! TD*
G04 #@! TO.P,C6,2*
G04 #@! TO.N,GND*
X144740000Y-129540000D03*
G04 #@! TO.P,C6,1*
G04 #@! TO.N,Net-(C6-Pad1)*
X142240000Y-129540000D03*
G04 #@! TD*
G04 #@! TO.P,C14,1*
G04 #@! TO.N,Net-(C14-Pad1)*
X128270000Y-124460000D03*
G04 #@! TO.P,C14,2*
G04 #@! TO.N,GND*
X130770000Y-124460000D03*
G04 #@! TD*
G04 #@! TO.P,C5,2*
G04 #@! TO.N,GND*
X139660000Y-129540000D03*
G04 #@! TO.P,C5,1*
G04 #@! TO.N,Net-(C5-Pad1)*
X137160000Y-129540000D03*
G04 #@! TD*
G04 #@! TO.P,C16,1*
G04 #@! TO.N,+5V*
X167680000Y-130810000D03*
G04 #@! TO.P,C16,2*
G04 #@! TO.N,Net-(C16-Pad2)*
X170180000Y-130810000D03*
G04 #@! TD*
G04 #@! TO.P,C4,2*
G04 #@! TO.N,+5V*
X157440000Y-137160000D03*
G04 #@! TO.P,C4,1*
G04 #@! TO.N,GND*
X154940000Y-137160000D03*
G04 #@! TD*
G04 #@! TO.P,C18,1*
G04 #@! TO.N,Net-(C10-Pad1)*
X167640000Y-125730000D03*
G04 #@! TO.P,C18,2*
G04 #@! TO.N,Net-(C18-Pad2)*
X170140000Y-125730000D03*
G04 #@! TD*
D22*
G04 #@! TO.P,J1,4*
G04 #@! TO.N,GND*
X125730000Y-146050000D03*
G04 #@! TO.P,J1,3*
X125730000Y-143510000D03*
G04 #@! TO.P,J1,2*
G04 #@! TO.N,+5V*
X125730000Y-140970000D03*
D21*
G04 #@! TO.P,J1,1*
X125730000Y-138430000D03*
G04 #@! TD*
G04 #@! TO.P,J6,1*
G04 #@! TO.N,/DIGITAL_5*
X118110000Y-115570000D03*
D22*
G04 #@! TO.P,J6,2*
G04 #@! TO.N,/DIGITAL_6*
X118110000Y-118110000D03*
G04 #@! TO.P,J6,3*
G04 #@! TO.N,/DIGITAL_7*
X118110000Y-120650000D03*
G04 #@! TO.P,J6,4*
G04 #@! TO.N,/DIGITAL_8*
X118110000Y-123190000D03*
G04 #@! TD*
G04 #@! TO.P,J8,5*
G04 #@! TO.N,/DIGITAL_13*
X118110000Y-135890000D03*
G04 #@! TO.P,J8,4*
G04 #@! TO.N,/DIGITAL_12*
X118110000Y-133350000D03*
G04 #@! TO.P,J8,3*
G04 #@! TO.N,/DIGITAL_11*
X118110000Y-130810000D03*
G04 #@! TO.P,J8,2*
G04 #@! TO.N,/DIGITAL_10*
X118110000Y-128270000D03*
D21*
G04 #@! TO.P,J8,1*
G04 #@! TO.N,/DIGITAL_9*
X118110000Y-125730000D03*
G04 #@! TD*
G04 #@! TO.P,J5,1*
G04 #@! TO.N,/DIGITAL_0*
X120650000Y-125730000D03*
D22*
G04 #@! TO.P,J5,2*
G04 #@! TO.N,/DIGITAL_1*
X120650000Y-123190000D03*
G04 #@! TO.P,J5,3*
G04 #@! TO.N,/DIGITAL_2*
X120650000Y-120650000D03*
G04 #@! TO.P,J5,4*
G04 #@! TO.N,/DIGITAL_3*
X120650000Y-118110000D03*
G04 #@! TO.P,J5,5*
G04 #@! TO.N,/DIGITAL_4*
X120650000Y-115570000D03*
G04 #@! TD*
D21*
G04 #@! TO.P,J7,1*
G04 #@! TO.N,/ANALOG_0*
X120650000Y-140970000D03*
D22*
G04 #@! TO.P,J7,2*
G04 #@! TO.N,/ANALOG_1*
X120650000Y-138430000D03*
G04 #@! TO.P,J7,3*
G04 #@! TO.N,/ANALOG_2*
X120650000Y-135890000D03*
G04 #@! TO.P,J7,4*
G04 #@! TO.N,/ANALOG_3*
X120650000Y-133350000D03*
G04 #@! TO.P,J7,5*
G04 #@! TO.N,/ANALOG_4*
X120650000Y-130810000D03*
G04 #@! TO.P,J7,6*
G04 #@! TO.N,/ANALOG_5*
X120650000Y-128270000D03*
G04 #@! TD*
D23*
G04 #@! TO.P,Y1,1*
G04 #@! TO.N,Net-(C5-Pad1)*
X137160000Y-134620000D03*
G04 #@! TO.P,Y1,2*
G04 #@! TO.N,Net-(C6-Pad1)*
X142040000Y-134620000D03*
G04 #@! TD*
D20*
G04 #@! TO.P,U2,1*
G04 #@! TO.N,Net-(R2-Pad1)*
X172720000Y-139700000D03*
D12*
G04 #@! TO.P,U2,15*
G04 #@! TO.N,/DIGITAL_9*
X139700000Y-147320000D03*
G04 #@! TO.P,U2,2*
G04 #@! TO.N,/DIGITAL_0*
X170180000Y-139700000D03*
G04 #@! TO.P,U2,16*
G04 #@! TO.N,/DIGITAL_10*
X142240000Y-147320000D03*
G04 #@! TO.P,U2,3*
G04 #@! TO.N,/DIGITAL_1*
X167640000Y-139700000D03*
G04 #@! TO.P,U2,17*
G04 #@! TO.N,/DIGITAL_11*
X144780000Y-147320000D03*
G04 #@! TO.P,U2,4*
G04 #@! TO.N,/DIGITAL_2*
X165100000Y-139700000D03*
G04 #@! TO.P,U2,18*
G04 #@! TO.N,/DIGITAL_12*
X147320000Y-147320000D03*
G04 #@! TO.P,U2,5*
G04 #@! TO.N,/DIGITAL_3*
X162560000Y-139700000D03*
G04 #@! TO.P,U2,19*
G04 #@! TO.N,/DIGITAL_13*
X149860000Y-147320000D03*
G04 #@! TO.P,U2,6*
G04 #@! TO.N,/DIGITAL_4*
X160020000Y-139700000D03*
G04 #@! TO.P,U2,20*
G04 #@! TO.N,+5V*
X152400000Y-147320000D03*
G04 #@! TO.P,U2,7*
X157480000Y-139700000D03*
G04 #@! TO.P,U2,21*
G04 #@! TO.N,Net-(U2-Pad21)*
X154940000Y-147320000D03*
G04 #@! TO.P,U2,8*
G04 #@! TO.N,GND*
X154940000Y-139700000D03*
G04 #@! TO.P,U2,22*
X157480000Y-147320000D03*
G04 #@! TO.P,U2,9*
G04 #@! TO.N,Net-(C5-Pad1)*
X152400000Y-139700000D03*
G04 #@! TO.P,U2,23*
G04 #@! TO.N,/ANALOG_0*
X160020000Y-147320000D03*
G04 #@! TO.P,U2,10*
G04 #@! TO.N,Net-(C6-Pad1)*
X149860000Y-139700000D03*
G04 #@! TO.P,U2,24*
G04 #@! TO.N,/ANALOG_1*
X162560000Y-147320000D03*
G04 #@! TO.P,U2,11*
G04 #@! TO.N,/DIGITAL_5*
X147320000Y-139700000D03*
G04 #@! TO.P,U2,25*
G04 #@! TO.N,/ANALOG_2*
X165100000Y-147320000D03*
G04 #@! TO.P,U2,12*
G04 #@! TO.N,/DIGITAL_6*
X144780000Y-139700000D03*
G04 #@! TO.P,U2,26*
G04 #@! TO.N,/ANALOG_3*
X167640000Y-147320000D03*
G04 #@! TO.P,U2,13*
G04 #@! TO.N,/DIGITAL_7*
X142240000Y-139700000D03*
G04 #@! TO.P,U2,27*
G04 #@! TO.N,/ANALOG_4*
X170180000Y-147320000D03*
G04 #@! TO.P,U2,14*
G04 #@! TO.N,/DIGITAL_8*
X139700000Y-139700000D03*
G04 #@! TO.P,U2,28*
G04 #@! TO.N,/ANALOG_5*
X172720000Y-147320000D03*
G04 #@! TD*
D20*
G04 #@! TO.P,U3,1*
G04 #@! TO.N,Net-(U3-Pad1)*
X154993946Y-123190000D03*
D12*
G04 #@! TO.P,U3,5*
G04 #@! TO.N,Net-(C10-Pad1)*
X162613946Y-115570000D03*
G04 #@! TO.P,U3,2*
G04 #@! TO.N,GND*
X157533946Y-123190000D03*
G04 #@! TO.P,U3,6*
G04 #@! TO.N,+5V*
X160073946Y-115570000D03*
G04 #@! TO.P,U3,3*
G04 #@! TO.N,Net-(R10-Pad1)*
X160073946Y-123190000D03*
G04 #@! TO.P,U3,7*
G04 #@! TO.N,Net-(C17-Pad1)*
X157533946Y-115570000D03*
G04 #@! TO.P,U3,4*
G04 #@! TO.N,Net-(C16-Pad2)*
X162613946Y-123190000D03*
G04 #@! TO.P,U3,8*
G04 #@! TO.N,Net-(U3-Pad8)*
X154993946Y-115570000D03*
G04 #@! TD*
D24*
G04 #@! TO.N,GND*
X157580000Y-142090000D03*
X153990000Y-130700000D03*
X163170000Y-152380000D03*
G04 #@! TO.N,+5V*
X155620000Y-111290000D03*
G04 #@! TO.N,Net-(C13-Pad1)*
X140995400Y-132765800D03*
G04 #@! TO.N,/DIGITAL_9*
X124256800Y-117043200D03*
G04 #@! TO.N,/DIGITAL_10*
X114376200Y-128295400D03*
G04 #@! TO.N,/DIGITAL_11*
X114325400Y-130810000D03*
G04 #@! TO.N,/DIGITAL_12*
X114249200Y-133324600D03*
G04 #@! TO.N,/DIGITAL_13*
X163830000Y-148869400D03*
G04 #@! TO.N,Net-(C5-Pad1)*
X134162800Y-131210001D03*
X152323800Y-137849999D03*
G04 #@! TO.N,Net-(C6-Pad1)*
X149783800Y-137617200D03*
G04 #@! TD*
D25*
G04 #@! TO.N,GND*
X154940000Y-139700000D02*
X155190000Y-139700000D01*
X155190000Y-139700000D02*
X157580000Y-142090000D01*
X154940000Y-139700000D02*
X154940000Y-137160000D01*
X150699999Y-135419999D02*
X149900000Y-134620000D01*
X151212501Y-135932501D02*
X150699999Y-135419999D01*
X152581131Y-135932501D02*
X151212501Y-135932501D01*
X153808630Y-137160000D02*
X152581131Y-135932501D01*
X154940000Y-137160000D02*
X153808630Y-137160000D01*
X150699999Y-133820001D02*
X149900000Y-134620000D01*
X151212501Y-133307499D02*
X150699999Y-133820001D01*
X161207499Y-133307499D02*
X151212501Y-133307499D01*
X162520000Y-134620000D02*
X161207499Y-133307499D01*
X149820000Y-124460000D02*
X144740000Y-129540000D01*
X162520000Y-134620000D02*
X158600000Y-130700000D01*
X158600000Y-130700000D02*
X153990000Y-130700000D01*
X160000000Y-152380000D02*
X159980000Y-152400000D01*
X163170000Y-152380000D02*
X160000000Y-152380000D01*
X132080000Y-152400000D02*
X147360000Y-152400000D01*
X125730000Y-146050000D02*
X132080000Y-152400000D01*
D26*
G04 #@! TO.N,Net-(C10-Pad2)*
X155000000Y-47535000D02*
X155000000Y-48410000D01*
X153799990Y-46334990D02*
X155000000Y-47535000D01*
X146200010Y-46334990D02*
X153799990Y-46334990D01*
X145000000Y-47535000D02*
X146200010Y-46334990D01*
X145000000Y-48410000D02*
X145000000Y-47535000D01*
X194218947Y-55403090D02*
X187225857Y-48410000D01*
X194218947Y-107166055D02*
X194218947Y-55403090D01*
X156125000Y-48410000D02*
X155000000Y-48410000D01*
X170423629Y-116695001D02*
X184690001Y-116695001D01*
X187225857Y-48410000D02*
X156125000Y-48410000D01*
X184690001Y-116695001D02*
X194218947Y-107166055D01*
X170140000Y-116978630D02*
X170423629Y-116695001D01*
X170140000Y-118110000D02*
X170140000Y-116978630D01*
D25*
G04 #@! TO.N,+5V*
X152400000Y-149820000D02*
X152440000Y-149860000D01*
X152440000Y-149860000D02*
X152400000Y-149860000D01*
X154900000Y-134620000D02*
X157440000Y-137160000D01*
X152400000Y-134620000D02*
X154900000Y-134620000D01*
X157480000Y-137200000D02*
X157440000Y-137160000D01*
X157480000Y-139700000D02*
X157480000Y-137200000D01*
X157480000Y-137160000D02*
X160020000Y-134620000D01*
X157440000Y-137160000D02*
X157480000Y-137160000D01*
X167680000Y-131941370D02*
X167680000Y-130810000D01*
X163688869Y-135932501D02*
X167680000Y-131941370D01*
X161332501Y-135932501D02*
X163688869Y-135932501D01*
X160020000Y-134620000D02*
X161332501Y-135932501D01*
X183350001Y-134149999D02*
X184150000Y-133350000D01*
X181610000Y-135890000D02*
X183350001Y-134149999D01*
X172760000Y-135890000D02*
X181610000Y-135890000D01*
X167680000Y-130810000D02*
X172760000Y-135890000D01*
X121089897Y-83244498D02*
X121089897Y-84517290D01*
X120477396Y-82631997D02*
X121089897Y-83244498D01*
X120477396Y-66484592D02*
X120477396Y-82631997D01*
X114983895Y-60991091D02*
X120477396Y-66484592D01*
X113993946Y-60991091D02*
X114983895Y-60991091D01*
X134189898Y-83617291D02*
X135089897Y-84517290D01*
X133122607Y-82550000D02*
X134189898Y-83617291D01*
X123057187Y-82550000D02*
X133122607Y-82550000D01*
X121089897Y-84517290D02*
X123057187Y-82550000D01*
X169189898Y-83617291D02*
X170089897Y-84517290D01*
X168677396Y-83104789D02*
X169189898Y-83617291D01*
X136502398Y-83104789D02*
X168677396Y-83104789D01*
X135089897Y-84517290D02*
X136502398Y-83104789D01*
X183189898Y-83617291D02*
X184089897Y-84517290D01*
X182677396Y-83104789D02*
X183189898Y-83617291D01*
X171502398Y-83104789D02*
X182677396Y-83104789D01*
X170089897Y-84517290D02*
X171502398Y-83104789D01*
X165559752Y-111290000D02*
X155620000Y-111290000D01*
X173852407Y-102997345D02*
X165559752Y-111290000D01*
X170089897Y-84517290D02*
X173852407Y-88279800D01*
X173852407Y-88279800D02*
X173852407Y-102997345D01*
X127092501Y-142332501D02*
X127092501Y-146142501D01*
X125730000Y-140970000D02*
X127092501Y-142332501D01*
X148547499Y-151087499D02*
X149860000Y-152400000D01*
X132037499Y-151087499D02*
X148547499Y-151087499D01*
X127092501Y-146142501D02*
X132037499Y-151087499D01*
X125730000Y-140970000D02*
X125730000Y-138430000D01*
G04 #@! TO.N,Net-(BT1-Pad1)*
X177800000Y-143715000D02*
X177800000Y-142240000D01*
X177800000Y-146773774D02*
X177800000Y-143715000D01*
X168561228Y-156012546D02*
X177800000Y-146773774D01*
X129960332Y-156012546D02*
X168561228Y-156012546D01*
X106531415Y-132583629D02*
X129960332Y-156012546D01*
X106531415Y-65453622D02*
X106531415Y-132583629D01*
X113993946Y-57991091D02*
X106531415Y-65453622D01*
D26*
G04 #@! TO.N,/DIGITAL_2*
X184150000Y-120650000D02*
X188163200Y-124663200D01*
X188163200Y-124663200D02*
X188163200Y-135051800D01*
X165899999Y-138900001D02*
X165100000Y-139700000D01*
X166225001Y-138574999D02*
X165899999Y-138900001D01*
X184640001Y-138574999D02*
X166225001Y-138574999D01*
X188163200Y-135051800D02*
X184640001Y-138574999D01*
G04 #@! TO.N,/DIGITAL_3*
X164135011Y-138124989D02*
X162560000Y-139700000D01*
X184404211Y-138124989D02*
X164135011Y-138124989D01*
X187629800Y-134899400D02*
X184404211Y-138124989D01*
X187629800Y-125538430D02*
X187629800Y-134899400D01*
X184150000Y-123190000D02*
X185281370Y-123190000D01*
X185281370Y-123190000D02*
X187629800Y-125538430D01*
G04 #@! TO.N,/DIGITAL_4*
X184949999Y-126529999D02*
X184949999Y-126656999D01*
X184150000Y-125730000D02*
X184949999Y-126529999D01*
X184949999Y-126656999D02*
X187071000Y-128778000D01*
X187071000Y-128778000D02*
X187071000Y-134721600D01*
X160819999Y-138900001D02*
X160020000Y-139700000D01*
X162045021Y-137674979D02*
X160819999Y-138900001D01*
X184117621Y-137674979D02*
X162045021Y-137674979D01*
X187071000Y-134721600D02*
X184117621Y-137674979D01*
G04 #@! TO.N,/DIGITAL_5*
X116484989Y-116095011D02*
X117010000Y-115570000D01*
X117010000Y-115570000D02*
X118110000Y-115570000D01*
X130597197Y-154475019D02*
X116484989Y-140362811D01*
X167866392Y-154475020D02*
X130597197Y-154475019D01*
X174295010Y-148046402D02*
X167866392Y-154475020D01*
X116484989Y-140362811D02*
X116484989Y-116095011D01*
X174295010Y-146126410D02*
X174295010Y-148046402D01*
X171068530Y-142899930D02*
X174295010Y-146126410D01*
X150519930Y-142899930D02*
X171068530Y-142899930D01*
X147320000Y-139700000D02*
X150519930Y-142899930D01*
X147320000Y-138568630D02*
X147320000Y-139700000D01*
X147320000Y-135534998D02*
X147320000Y-138568630D01*
X153459997Y-129395001D02*
X147320000Y-135534998D01*
X183024999Y-129395001D02*
X153459997Y-129395001D01*
X184150000Y-128270000D02*
X183024999Y-129395001D01*
G04 #@! TO.N,Net-(C13-Pad1)*
X139700000Y-116840000D02*
X139700000Y-124460000D01*
X142240000Y-114300000D02*
X139700000Y-116840000D01*
X140995400Y-125755400D02*
X139700000Y-124460000D01*
X140995400Y-132765800D02*
X140995400Y-125755400D01*
G04 #@! TO.N,Net-(R10-Pad1)*
X167693946Y-115570000D02*
X173990000Y-115570000D01*
X160073946Y-123190000D02*
X167693946Y-115570000D01*
G04 #@! TO.N,Net-(R9-Pad2)*
X137160000Y-114300000D02*
X139115800Y-112344200D01*
X187493946Y-54263883D02*
X187493946Y-52991091D01*
X187493946Y-59032093D02*
X187493946Y-54263883D01*
X191664907Y-63203054D02*
X187493946Y-59032093D01*
X191664907Y-106581893D02*
X191664907Y-63203054D01*
X141949202Y-112344200D02*
X145665002Y-116060000D01*
X139115800Y-112344200D02*
X141949202Y-112344200D01*
X152838944Y-116060000D02*
X155138944Y-113760000D01*
X145665002Y-116060000D02*
X152838944Y-116060000D01*
X184486800Y-113760000D02*
X186440000Y-111806800D01*
X155138944Y-113760000D02*
X184486800Y-113760000D01*
X185902600Y-112344200D02*
X186440000Y-111806800D01*
X186440000Y-111806800D02*
X191664907Y-106581893D01*
G04 #@! TO.N,/DIGITAL_6*
X117260001Y-118959999D02*
X118110000Y-118110000D01*
X116934999Y-119285001D02*
X117260001Y-118959999D01*
X116934999Y-140176411D02*
X116934999Y-119285001D01*
X167679992Y-154025010D02*
X130783598Y-154025010D01*
X173845001Y-147860001D02*
X167679992Y-154025010D01*
X130783598Y-154025010D02*
X116934999Y-140176411D01*
X173845001Y-146779999D02*
X173845001Y-147860001D01*
X170414942Y-143349940D02*
X173845001Y-146779999D01*
X148429940Y-143349940D02*
X170414942Y-143349940D01*
X144780000Y-139700000D02*
X148429940Y-143349940D01*
X144780000Y-138568630D02*
X144780000Y-139700000D01*
X144780000Y-137438588D02*
X144780000Y-138568630D01*
X185275001Y-127729999D02*
X184690001Y-127144999D01*
X155073589Y-127144999D02*
X144780000Y-137438588D01*
X184690001Y-127144999D02*
X155073589Y-127144999D01*
X185275001Y-129684999D02*
X185275001Y-127729999D01*
X184150000Y-130810000D02*
X185275001Y-129684999D01*
G04 #@! TO.N,/DIGITAL_9*
X124256800Y-124408202D02*
X124256800Y-117043200D01*
X121760001Y-126905001D02*
X124256800Y-124408202D01*
X118185001Y-126905001D02*
X121760001Y-126905001D01*
X118110000Y-125730000D02*
X118110000Y-126830000D01*
X118110000Y-126830000D02*
X118185001Y-126905001D01*
G04 #@! TO.N,/ANALOG_3*
X166840001Y-146520001D02*
X167640000Y-147320000D01*
X120650000Y-133350000D02*
X127639230Y-133350000D01*
X127639230Y-133350000D02*
X138989200Y-144699970D01*
X165019970Y-144699970D02*
X166840001Y-146520001D01*
X138989200Y-144699970D02*
X165019970Y-144699970D01*
G04 #@! TO.N,/ANALOG_1*
X161760001Y-146520001D02*
X162560000Y-147320000D01*
X138616400Y-145599990D02*
X160839990Y-145599990D01*
X160839990Y-145599990D02*
X161760001Y-146520001D01*
X129821399Y-136804989D02*
X132080000Y-139063590D01*
X122275011Y-136804989D02*
X129821399Y-136804989D01*
X120650000Y-138430000D02*
X122275011Y-136804989D01*
X131446410Y-138430000D02*
X132080000Y-139063590D01*
X132080000Y-139063590D02*
X138616400Y-145599990D01*
G04 #@! TO.N,/ANALOG_2*
X164300001Y-146520001D02*
X165100000Y-147320000D01*
X120650000Y-135890000D02*
X129542820Y-135890000D01*
X129542820Y-135890000D02*
X138802800Y-145149980D01*
X162929980Y-145149980D02*
X164300001Y-146520001D01*
X138802800Y-145149980D02*
X162929980Y-145149980D01*
G04 #@! TO.N,/ANALOG_0*
X124365001Y-137254999D02*
X120650000Y-140970000D01*
X129634999Y-137254999D02*
X124365001Y-137254999D01*
X138430000Y-146050000D02*
X129634999Y-137254999D01*
X158750000Y-146050000D02*
X138430000Y-146050000D01*
X160020000Y-147320000D02*
X158750000Y-146050000D01*
G04 #@! TO.N,Net-(C10-Pad1)*
X167640000Y-119160000D02*
X167640000Y-125730000D01*
X167640000Y-118110000D02*
X167640000Y-119160000D01*
G04 #@! TO.N,Net-(C17-Pad1)*
X156733947Y-116369999D02*
X157533946Y-115570000D01*
X149768947Y-123334999D02*
X156733947Y-116369999D01*
X147395001Y-123334999D02*
X149768947Y-123334999D01*
X147320000Y-123410000D02*
X147395001Y-123334999D01*
X147320000Y-124460000D02*
X147320000Y-123410000D01*
G04 #@! TO.N,/DIGITAL_0*
X116813598Y-113944990D02*
X115468400Y-115290188D01*
X121400401Y-113944989D02*
X116813598Y-113944990D01*
X122275010Y-114819598D02*
X121400401Y-113944989D01*
X122275011Y-125204989D02*
X122275010Y-114819598D01*
X120650000Y-125730000D02*
X121750000Y-125730000D01*
X121750000Y-125730000D02*
X122275011Y-125204989D01*
X115468400Y-115290188D02*
X115468400Y-140619042D01*
X170979999Y-140499999D02*
X170180000Y-139700000D01*
X175195028Y-144715028D02*
X170979999Y-140499999D01*
X175195028Y-148477172D02*
X175195028Y-144715028D01*
X168297163Y-155375037D02*
X175195028Y-148477172D01*
X130224397Y-155375037D02*
X130700000Y-155375038D01*
X115468400Y-140619042D02*
X130224397Y-155375037D01*
X130700000Y-155375038D02*
X168297163Y-155375037D01*
G04 #@! TO.N,/DIGITAL_10*
X109437507Y-100192280D02*
X108407200Y-101222587D01*
X132764887Y-100192280D02*
X109437507Y-100192280D01*
X136089897Y-102017290D02*
X134589897Y-102017290D01*
X134589897Y-102017290D02*
X132764887Y-100192280D01*
X108068945Y-121988145D02*
X114376200Y-128295400D01*
X108407200Y-101222587D02*
X108068945Y-101560842D01*
X108068945Y-101560842D02*
X108068945Y-121988145D01*
G04 #@! TO.N,/DIGITAL_1*
X121825001Y-122014999D02*
X121499999Y-122340001D01*
X121825001Y-115005999D02*
X121825001Y-122014999D01*
X116999999Y-114394999D02*
X121214001Y-114394999D01*
X116034979Y-140549211D02*
X116034979Y-115360019D01*
X130410796Y-154925028D02*
X116034979Y-140549211D01*
X168052791Y-154925029D02*
X130410796Y-154925028D01*
X174745019Y-148232803D02*
X168052791Y-154925029D01*
X121499999Y-122340001D02*
X120650000Y-123190000D01*
X174745020Y-145940010D02*
X174745019Y-148232803D01*
X169305009Y-140499999D02*
X174745020Y-145940010D01*
X168439999Y-140499999D02*
X169305009Y-140499999D01*
X121214001Y-114394999D02*
X121825001Y-115005999D01*
X116034979Y-115360019D02*
X116999999Y-114394999D01*
X167640000Y-139700000D02*
X168439999Y-140499999D01*
G04 #@! TO.N,/DIGITAL_11*
X107618935Y-124103535D02*
X114325400Y-130810000D01*
X107618935Y-101374442D02*
X107618935Y-124103535D01*
X159089897Y-102267290D02*
X157589897Y-103767290D01*
X159089897Y-102017290D02*
X159089897Y-102267290D01*
X157589897Y-103767290D02*
X150127197Y-103767290D01*
X150127197Y-103767290D02*
X146102178Y-99742271D01*
X146102178Y-99742271D02*
X109251106Y-99742271D01*
X109251106Y-99742271D02*
X107618935Y-101374442D01*
G04 #@! TO.N,/DIGITAL_12*
X170589897Y-102017290D02*
X167438697Y-98866090D01*
X172089897Y-102017290D02*
X170589897Y-102017290D01*
X167438697Y-98866090D02*
X109490877Y-98866090D01*
X109490877Y-98866090D02*
X107168925Y-101188042D01*
X107168925Y-101188042D02*
X107168925Y-126244325D01*
X107168925Y-126244325D02*
X114249200Y-133324600D01*
G04 #@! TO.N,/DIGITAL_13*
X118110000Y-135890000D02*
X118110000Y-140715002D01*
X151009401Y-148469401D02*
X150659999Y-148119999D01*
X163430001Y-148469401D02*
X151009401Y-148469401D01*
X163830000Y-148869400D02*
X163430001Y-148469401D01*
X149860000Y-147320000D02*
X148734999Y-148445001D01*
X150659999Y-148119999D02*
X149860000Y-147320000D01*
X150985001Y-148445001D02*
X150659999Y-148119999D01*
X150985001Y-153460001D02*
X150985001Y-148445001D01*
X150920001Y-153525001D02*
X150985001Y-153460001D01*
X130919999Y-153525001D02*
X150920001Y-153525001D01*
X118110000Y-140715002D02*
X130919999Y-153525001D01*
G04 #@! TO.N,Net-(C5-Pad1)*
X137160000Y-134620000D02*
X134162800Y-131622800D01*
X134162800Y-131622800D02*
X134162800Y-131210001D01*
X152323800Y-139623800D02*
X152400000Y-139700000D01*
X152323800Y-137849999D02*
X152323800Y-139623800D01*
G04 #@! TO.N,Net-(C6-Pad1)*
X142240000Y-134420000D02*
X142040000Y-134620000D01*
X142240000Y-129540000D02*
X142240000Y-134420000D01*
X149783800Y-139623800D02*
X149860000Y-139700000D01*
X149783800Y-137617200D02*
X149783800Y-139623800D01*
G04 #@! TO.N,/DIGITAL_7*
X111589897Y-102017290D02*
X127144999Y-117572392D01*
X110089897Y-102017290D02*
X111589897Y-102017290D01*
X142240000Y-138568630D02*
X142240000Y-139700000D01*
X142240000Y-138108998D02*
X142240000Y-138568630D01*
X136034999Y-131903997D02*
X142240000Y-138108998D01*
X136034999Y-128059997D02*
X136034999Y-131903997D01*
X127144999Y-119169997D02*
X136034999Y-128059997D01*
X127144999Y-117572392D02*
X127144999Y-119169997D01*
G04 #@! TO.N,/ANALOG_4*
X169380001Y-146520001D02*
X170180000Y-147320000D01*
X120650000Y-130810000D02*
X125735640Y-130810000D01*
X139175600Y-144249960D02*
X167109960Y-144249960D01*
X125735640Y-130810000D02*
X139175600Y-144249960D01*
X167109960Y-144249960D02*
X169380001Y-146520001D01*
G04 #@! TO.N,/DIGITAL_8*
X140499999Y-140499999D02*
X139700000Y-139700000D01*
X140825001Y-140825001D02*
X140499999Y-140499999D01*
X142780001Y-140825001D02*
X140825001Y-140825001D01*
X143365001Y-140240001D02*
X142780001Y-140825001D01*
X143365001Y-138597589D02*
X143365001Y-140240001D01*
X138534999Y-133767587D02*
X143365001Y-138597589D01*
X138534999Y-119212392D02*
X138534999Y-133767587D01*
X123089897Y-103767290D02*
X138534999Y-119212392D01*
X123089897Y-102017290D02*
X123089897Y-103767290D01*
G04 #@! TO.N,/ANALOG_5*
X171920001Y-146520001D02*
X172720000Y-147320000D01*
X169199950Y-143799950D02*
X171920001Y-146520001D01*
X139989950Y-143799950D02*
X169199950Y-143799950D01*
X129644999Y-133454999D02*
X136870000Y-140680000D01*
X129644999Y-129999997D02*
X129644999Y-133454999D01*
X127915002Y-128270000D02*
X129644999Y-129999997D01*
X120650000Y-128270000D02*
X127915002Y-128270000D01*
X136084999Y-139894999D02*
X136870000Y-140680000D01*
X136870000Y-140680000D02*
X139989950Y-143799950D01*
G04 #@! TD*
D27*
G04 #@! TO.N,GND*
G36*
X194308947Y-129978796D02*
X194233484Y-132087009D01*
X194008802Y-134172198D01*
X193635609Y-136235981D01*
X193115813Y-138267811D01*
X192452080Y-140257268D01*
X191647810Y-142194167D01*
X190707099Y-144068636D01*
X189634788Y-145871029D01*
X188436354Y-147592143D01*
X187117922Y-149223178D01*
X185686261Y-150755763D01*
X184148677Y-152182076D01*
X182513071Y-153494787D01*
X180787770Y-154687217D01*
X178981645Y-155753229D01*
X177103927Y-156687381D01*
X175164210Y-157484894D01*
X173172451Y-158141678D01*
X171138826Y-158654377D01*
X169073750Y-159020364D01*
X166987182Y-159237830D01*
X164982297Y-159306091D01*
X135006214Y-159306091D01*
X132898028Y-159230629D01*
X130812839Y-159005947D01*
X128749056Y-158632754D01*
X126717226Y-158112958D01*
X124727769Y-157449225D01*
X122790870Y-156644955D01*
X120916401Y-155704244D01*
X119114008Y-154631933D01*
X117392894Y-153433499D01*
X115761859Y-152115067D01*
X114229274Y-150683406D01*
X112802961Y-149145822D01*
X111490250Y-147510216D01*
X110297820Y-145784915D01*
X109231808Y-143978790D01*
X108297656Y-142101072D01*
X107500143Y-140161355D01*
X106843359Y-138169596D01*
X106330660Y-136135971D01*
X105964673Y-134070895D01*
X105883299Y-133290119D01*
X105927419Y-133319599D01*
X120363910Y-147756091D01*
X119549377Y-147756091D01*
X118727920Y-148096350D01*
X118099205Y-148725065D01*
X117758946Y-149546522D01*
X117758946Y-150435660D01*
X118099205Y-151257117D01*
X118727920Y-151885832D01*
X119549377Y-152226091D01*
X120438515Y-152226091D01*
X121259972Y-151885832D01*
X121888687Y-151257117D01*
X122228946Y-150435660D01*
X122228946Y-149621127D01*
X129224364Y-156616546D01*
X129277223Y-156695655D01*
X129356332Y-156748514D01*
X129356333Y-156748515D01*
X129395712Y-156774827D01*
X129590636Y-156905071D01*
X129867014Y-156960046D01*
X129867018Y-156960046D01*
X129960331Y-156978607D01*
X130053644Y-156960046D01*
X168467911Y-156960046D01*
X168561228Y-156978608D01*
X168654545Y-156960046D01*
X168654546Y-156960046D01*
X168930924Y-156905071D01*
X169244337Y-156695655D01*
X169297200Y-156616540D01*
X176367218Y-149546522D01*
X177758946Y-149546522D01*
X177758946Y-150435660D01*
X178099205Y-151257117D01*
X178727920Y-151885832D01*
X179549377Y-152226091D01*
X180438515Y-152226091D01*
X181259972Y-151885832D01*
X181888687Y-151257117D01*
X182228946Y-150435660D01*
X182228946Y-149546522D01*
X181888687Y-148725065D01*
X181259972Y-148096350D01*
X180438515Y-147756091D01*
X179549377Y-147756091D01*
X178727920Y-148096350D01*
X178099205Y-148725065D01*
X177758946Y-149546522D01*
X176367218Y-149546522D01*
X178403998Y-147509743D01*
X178483109Y-147456883D01*
X178692525Y-147143470D01*
X178747500Y-146867092D01*
X178747500Y-146867091D01*
X178766062Y-146773774D01*
X178747500Y-146680456D01*
X178747500Y-143718046D01*
X178897765Y-143688157D01*
X179107809Y-143547809D01*
X179248157Y-143337765D01*
X179268739Y-143234292D01*
X179573076Y-143511645D01*
X179983110Y-143681476D01*
X180213000Y-143560155D01*
X180213000Y-142367000D01*
X180467000Y-142367000D01*
X180467000Y-143560155D01*
X180696890Y-143681476D01*
X181106924Y-143511645D01*
X181535183Y-143121358D01*
X181781486Y-142596892D01*
X181660819Y-142367000D01*
X180467000Y-142367000D01*
X180213000Y-142367000D01*
X180193000Y-142367000D01*
X180193000Y-142113000D01*
X180213000Y-142113000D01*
X180213000Y-140919845D01*
X180467000Y-140919845D01*
X180467000Y-142113000D01*
X181660819Y-142113000D01*
X181781486Y-141883108D01*
X181535183Y-141358642D01*
X181106924Y-140968355D01*
X180696890Y-140798524D01*
X180467000Y-140919845D01*
X180213000Y-140919845D01*
X179983110Y-140798524D01*
X179573076Y-140968355D01*
X179268739Y-141245708D01*
X179248157Y-141142235D01*
X179107809Y-140932191D01*
X178897765Y-140791843D01*
X178650000Y-140742560D01*
X176950000Y-140742560D01*
X176702235Y-140791843D01*
X176492191Y-140932191D01*
X176351843Y-141142235D01*
X176302560Y-141390000D01*
X176302560Y-143090000D01*
X176351843Y-143337765D01*
X176492191Y-143547809D01*
X176702235Y-143688157D01*
X176852500Y-143718046D01*
X176852500Y-143808317D01*
X176852501Y-143808322D01*
X176852500Y-146381307D01*
X175955028Y-147278779D01*
X175955028Y-144789874D01*
X175969916Y-144715027D01*
X175955028Y-144640180D01*
X175955028Y-144640176D01*
X175910932Y-144418491D01*
X175742957Y-144167099D01*
X175679501Y-144124699D01*
X172702241Y-141147440D01*
X173520000Y-141147440D01*
X173767765Y-141098157D01*
X173977809Y-140957809D01*
X174118157Y-140747765D01*
X174167440Y-140500000D01*
X174167440Y-139334999D01*
X184565154Y-139334999D01*
X184640001Y-139349887D01*
X184714848Y-139334999D01*
X184714853Y-139334999D01*
X184936538Y-139290903D01*
X185187930Y-139122928D01*
X185230332Y-139059469D01*
X188647673Y-135642129D01*
X188711129Y-135599729D01*
X188754381Y-135534998D01*
X188879104Y-135348338D01*
X188898785Y-135249392D01*
X188923200Y-135126652D01*
X188923200Y-135126648D01*
X188938088Y-135051800D01*
X188923200Y-134976952D01*
X188923200Y-124738047D01*
X188938088Y-124663200D01*
X188923200Y-124588353D01*
X188923200Y-124588348D01*
X188879104Y-124366663D01*
X188711129Y-124115271D01*
X188647673Y-124072871D01*
X185548688Y-120973887D01*
X185613113Y-120650000D01*
X185501740Y-120090091D01*
X185184577Y-119615423D01*
X185081460Y-119546522D01*
X187758946Y-119546522D01*
X187758946Y-120435660D01*
X188099205Y-121257117D01*
X188727920Y-121885832D01*
X189549377Y-122226091D01*
X190438515Y-122226091D01*
X191259972Y-121885832D01*
X191888687Y-121257117D01*
X192228946Y-120435660D01*
X192228946Y-119546522D01*
X191888687Y-118725065D01*
X191259972Y-118096350D01*
X190438515Y-117756091D01*
X189549377Y-117756091D01*
X188727920Y-118096350D01*
X188099205Y-118725065D01*
X187758946Y-119546522D01*
X185081460Y-119546522D01*
X184800892Y-119359053D01*
X185005134Y-119262389D01*
X185381041Y-118847423D01*
X185541904Y-118459039D01*
X185419915Y-118237000D01*
X184277000Y-118237000D01*
X184277000Y-118257000D01*
X184023000Y-118257000D01*
X184023000Y-118237000D01*
X182880085Y-118237000D01*
X182758096Y-118459039D01*
X182918959Y-118847423D01*
X183294866Y-119262389D01*
X183499108Y-119359053D01*
X183115423Y-119615423D01*
X182798260Y-120090091D01*
X182686887Y-120650000D01*
X182798260Y-121209909D01*
X183115423Y-121684577D01*
X183467758Y-121920000D01*
X183115423Y-122155423D01*
X182798260Y-122630091D01*
X182686887Y-123190000D01*
X182798260Y-123749909D01*
X183115423Y-124224577D01*
X183467758Y-124460000D01*
X183115423Y-124695423D01*
X182798260Y-125170091D01*
X182686887Y-125730000D01*
X182798260Y-126289909D01*
X182861797Y-126384999D01*
X175271923Y-126384999D01*
X175425000Y-126015439D01*
X175425000Y-125444561D01*
X175206534Y-124917138D01*
X174802862Y-124513466D01*
X174673784Y-124460000D01*
X174802862Y-124406534D01*
X175206534Y-124002862D01*
X175425000Y-123475439D01*
X175425000Y-122904561D01*
X175206534Y-122377138D01*
X174802862Y-121973466D01*
X174673784Y-121920000D01*
X174802862Y-121866534D01*
X175206534Y-121462862D01*
X175425000Y-120935439D01*
X175425000Y-120364561D01*
X175206534Y-119837138D01*
X174802862Y-119433466D01*
X174673784Y-119380000D01*
X174802862Y-119326534D01*
X175206534Y-118922862D01*
X175425000Y-118395439D01*
X175425000Y-117824561D01*
X175271923Y-117455001D01*
X182884820Y-117455001D01*
X182758096Y-117760961D01*
X182880085Y-117983000D01*
X184023000Y-117983000D01*
X184023000Y-117963000D01*
X184277000Y-117963000D01*
X184277000Y-117983000D01*
X185419915Y-117983000D01*
X185541904Y-117760961D01*
X185381041Y-117372577D01*
X185248826Y-117226624D01*
X185280332Y-117179471D01*
X194308947Y-108150857D01*
X194308947Y-129978796D01*
X194308947Y-129978796D01*
G37*
X194308947Y-129978796D02*
X194233484Y-132087009D01*
X194008802Y-134172198D01*
X193635609Y-136235981D01*
X193115813Y-138267811D01*
X192452080Y-140257268D01*
X191647810Y-142194167D01*
X190707099Y-144068636D01*
X189634788Y-145871029D01*
X188436354Y-147592143D01*
X187117922Y-149223178D01*
X185686261Y-150755763D01*
X184148677Y-152182076D01*
X182513071Y-153494787D01*
X180787770Y-154687217D01*
X178981645Y-155753229D01*
X177103927Y-156687381D01*
X175164210Y-157484894D01*
X173172451Y-158141678D01*
X171138826Y-158654377D01*
X169073750Y-159020364D01*
X166987182Y-159237830D01*
X164982297Y-159306091D01*
X135006214Y-159306091D01*
X132898028Y-159230629D01*
X130812839Y-159005947D01*
X128749056Y-158632754D01*
X126717226Y-158112958D01*
X124727769Y-157449225D01*
X122790870Y-156644955D01*
X120916401Y-155704244D01*
X119114008Y-154631933D01*
X117392894Y-153433499D01*
X115761859Y-152115067D01*
X114229274Y-150683406D01*
X112802961Y-149145822D01*
X111490250Y-147510216D01*
X110297820Y-145784915D01*
X109231808Y-143978790D01*
X108297656Y-142101072D01*
X107500143Y-140161355D01*
X106843359Y-138169596D01*
X106330660Y-136135971D01*
X105964673Y-134070895D01*
X105883299Y-133290119D01*
X105927419Y-133319599D01*
X120363910Y-147756091D01*
X119549377Y-147756091D01*
X118727920Y-148096350D01*
X118099205Y-148725065D01*
X117758946Y-149546522D01*
X117758946Y-150435660D01*
X118099205Y-151257117D01*
X118727920Y-151885832D01*
X119549377Y-152226091D01*
X120438515Y-152226091D01*
X121259972Y-151885832D01*
X121888687Y-151257117D01*
X122228946Y-150435660D01*
X122228946Y-149621127D01*
X129224364Y-156616546D01*
X129277223Y-156695655D01*
X129356332Y-156748514D01*
X129356333Y-156748515D01*
X129395712Y-156774827D01*
X129590636Y-156905071D01*
X129867014Y-156960046D01*
X129867018Y-156960046D01*
X129960331Y-156978607D01*
X130053644Y-156960046D01*
X168467911Y-156960046D01*
X168561228Y-156978608D01*
X168654545Y-156960046D01*
X168654546Y-156960046D01*
X168930924Y-156905071D01*
X169244337Y-156695655D01*
X169297200Y-156616540D01*
X176367218Y-149546522D01*
X177758946Y-149546522D01*
X177758946Y-150435660D01*
X178099205Y-151257117D01*
X178727920Y-151885832D01*
X179549377Y-152226091D01*
X180438515Y-152226091D01*
X181259972Y-151885832D01*
X181888687Y-151257117D01*
X182228946Y-150435660D01*
X182228946Y-149546522D01*
X181888687Y-148725065D01*
X181259972Y-148096350D01*
X180438515Y-147756091D01*
X179549377Y-147756091D01*
X178727920Y-148096350D01*
X178099205Y-148725065D01*
X177758946Y-149546522D01*
X176367218Y-149546522D01*
X178403998Y-147509743D01*
X178483109Y-147456883D01*
X178692525Y-147143470D01*
X178747500Y-146867092D01*
X178747500Y-146867091D01*
X178766062Y-146773774D01*
X178747500Y-146680456D01*
X178747500Y-143718046D01*
X178897765Y-143688157D01*
X179107809Y-143547809D01*
X179248157Y-143337765D01*
X179268739Y-143234292D01*
X179573076Y-143511645D01*
X179983110Y-143681476D01*
X180213000Y-143560155D01*
X180213000Y-142367000D01*
X180467000Y-142367000D01*
X180467000Y-143560155D01*
X180696890Y-143681476D01*
X181106924Y-143511645D01*
X181535183Y-143121358D01*
X181781486Y-142596892D01*
X181660819Y-142367000D01*
X180467000Y-142367000D01*
X180213000Y-142367000D01*
X180193000Y-142367000D01*
X180193000Y-142113000D01*
X180213000Y-142113000D01*
X180213000Y-140919845D01*
X180467000Y-140919845D01*
X180467000Y-142113000D01*
X181660819Y-142113000D01*
X181781486Y-141883108D01*
X181535183Y-141358642D01*
X181106924Y-140968355D01*
X180696890Y-140798524D01*
X180467000Y-140919845D01*
X180213000Y-140919845D01*
X179983110Y-140798524D01*
X179573076Y-140968355D01*
X179268739Y-141245708D01*
X179248157Y-141142235D01*
X179107809Y-140932191D01*
X178897765Y-140791843D01*
X178650000Y-140742560D01*
X176950000Y-140742560D01*
X176702235Y-140791843D01*
X176492191Y-140932191D01*
X176351843Y-141142235D01*
X176302560Y-141390000D01*
X176302560Y-143090000D01*
X176351843Y-143337765D01*
X176492191Y-143547809D01*
X176702235Y-143688157D01*
X176852500Y-143718046D01*
X176852500Y-143808317D01*
X176852501Y-143808322D01*
X176852500Y-146381307D01*
X175955028Y-147278779D01*
X175955028Y-144789874D01*
X175969916Y-144715027D01*
X175955028Y-144640180D01*
X175955028Y-144640176D01*
X175910932Y-144418491D01*
X175742957Y-144167099D01*
X175679501Y-144124699D01*
X172702241Y-141147440D01*
X173520000Y-141147440D01*
X173767765Y-141098157D01*
X173977809Y-140957809D01*
X174118157Y-140747765D01*
X174167440Y-140500000D01*
X174167440Y-139334999D01*
X184565154Y-139334999D01*
X184640001Y-139349887D01*
X184714848Y-139334999D01*
X184714853Y-139334999D01*
X184936538Y-139290903D01*
X185187930Y-139122928D01*
X185230332Y-139059469D01*
X188647673Y-135642129D01*
X188711129Y-135599729D01*
X188754381Y-135534998D01*
X188879104Y-135348338D01*
X188898785Y-135249392D01*
X188923200Y-135126652D01*
X188923200Y-135126648D01*
X188938088Y-135051800D01*
X188923200Y-134976952D01*
X188923200Y-124738047D01*
X188938088Y-124663200D01*
X188923200Y-124588353D01*
X188923200Y-124588348D01*
X188879104Y-124366663D01*
X188711129Y-124115271D01*
X188647673Y-124072871D01*
X185548688Y-120973887D01*
X185613113Y-120650000D01*
X185501740Y-120090091D01*
X185184577Y-119615423D01*
X185081460Y-119546522D01*
X187758946Y-119546522D01*
X187758946Y-120435660D01*
X188099205Y-121257117D01*
X188727920Y-121885832D01*
X189549377Y-122226091D01*
X190438515Y-122226091D01*
X191259972Y-121885832D01*
X191888687Y-121257117D01*
X192228946Y-120435660D01*
X192228946Y-119546522D01*
X191888687Y-118725065D01*
X191259972Y-118096350D01*
X190438515Y-117756091D01*
X189549377Y-117756091D01*
X188727920Y-118096350D01*
X188099205Y-118725065D01*
X187758946Y-119546522D01*
X185081460Y-119546522D01*
X184800892Y-119359053D01*
X185005134Y-119262389D01*
X185381041Y-118847423D01*
X185541904Y-118459039D01*
X185419915Y-118237000D01*
X184277000Y-118237000D01*
X184277000Y-118257000D01*
X184023000Y-118257000D01*
X184023000Y-118237000D01*
X182880085Y-118237000D01*
X182758096Y-118459039D01*
X182918959Y-118847423D01*
X183294866Y-119262389D01*
X183499108Y-119359053D01*
X183115423Y-119615423D01*
X182798260Y-120090091D01*
X182686887Y-120650000D01*
X182798260Y-121209909D01*
X183115423Y-121684577D01*
X183467758Y-121920000D01*
X183115423Y-122155423D01*
X182798260Y-122630091D01*
X182686887Y-123190000D01*
X182798260Y-123749909D01*
X183115423Y-124224577D01*
X183467758Y-124460000D01*
X183115423Y-124695423D01*
X182798260Y-125170091D01*
X182686887Y-125730000D01*
X182798260Y-126289909D01*
X182861797Y-126384999D01*
X175271923Y-126384999D01*
X175425000Y-126015439D01*
X175425000Y-125444561D01*
X175206534Y-124917138D01*
X174802862Y-124513466D01*
X174673784Y-124460000D01*
X174802862Y-124406534D01*
X175206534Y-124002862D01*
X175425000Y-123475439D01*
X175425000Y-122904561D01*
X175206534Y-122377138D01*
X174802862Y-121973466D01*
X174673784Y-121920000D01*
X174802862Y-121866534D01*
X175206534Y-121462862D01*
X175425000Y-120935439D01*
X175425000Y-120364561D01*
X175206534Y-119837138D01*
X174802862Y-119433466D01*
X174673784Y-119380000D01*
X174802862Y-119326534D01*
X175206534Y-118922862D01*
X175425000Y-118395439D01*
X175425000Y-117824561D01*
X175271923Y-117455001D01*
X182884820Y-117455001D01*
X182758096Y-117760961D01*
X182880085Y-117983000D01*
X184023000Y-117983000D01*
X184023000Y-117963000D01*
X184277000Y-117963000D01*
X184277000Y-117983000D01*
X185419915Y-117983000D01*
X185541904Y-117760961D01*
X185381041Y-117372577D01*
X185248826Y-117226624D01*
X185280332Y-117179471D01*
X194308947Y-108150857D01*
X194308947Y-129978796D01*
G36*
X171685423Y-148354577D02*
X172039222Y-148590978D01*
X167365191Y-153265010D01*
X161024618Y-153265010D01*
X160987747Y-153228139D01*
X161233864Y-153154005D01*
X161426965Y-152616777D01*
X161399778Y-152046546D01*
X161233864Y-151645995D01*
X160987745Y-151571861D01*
X160159605Y-152400000D01*
X160173748Y-152414142D01*
X159994142Y-152593748D01*
X159980000Y-152579605D01*
X159965858Y-152593748D01*
X159786252Y-152414142D01*
X159800395Y-152400000D01*
X158972255Y-151571861D01*
X158924693Y-151586187D01*
X158886118Y-151392255D01*
X159151861Y-151392255D01*
X159980000Y-152220395D01*
X160808139Y-151392255D01*
X160734005Y-151146136D01*
X160196777Y-150953035D01*
X159626546Y-150980222D01*
X159225995Y-151146136D01*
X159151861Y-151392255D01*
X158886118Y-151392255D01*
X158878157Y-151352235D01*
X158737809Y-151142191D01*
X158527765Y-151001843D01*
X158280000Y-150952560D01*
X156680000Y-150952560D01*
X156432235Y-151001843D01*
X156222191Y-151142191D01*
X156081843Y-151352235D01*
X156032560Y-151600000D01*
X156032560Y-153200000D01*
X156045491Y-153265010D01*
X151745001Y-153265010D01*
X151745001Y-151125355D01*
X152154561Y-151295000D01*
X152725439Y-151295000D01*
X153252862Y-151076534D01*
X153461651Y-150867745D01*
X154111861Y-150867745D01*
X154185995Y-151113864D01*
X154723223Y-151306965D01*
X155293454Y-151279778D01*
X155694005Y-151113864D01*
X155768139Y-150867745D01*
X154940000Y-150039605D01*
X154111861Y-150867745D01*
X153461651Y-150867745D01*
X153656534Y-150672862D01*
X153683525Y-150607701D01*
X153686136Y-150614005D01*
X153932255Y-150688139D01*
X154760395Y-149860000D01*
X154746252Y-149845858D01*
X154925858Y-149666252D01*
X154940000Y-149680395D01*
X154954142Y-149666252D01*
X155133748Y-149845858D01*
X155119605Y-149860000D01*
X155947745Y-150688139D01*
X156193864Y-150614005D01*
X156386965Y-150076777D01*
X156359778Y-149506546D01*
X156244981Y-149229401D01*
X162858841Y-149229401D01*
X162952569Y-149455680D01*
X163243720Y-149746831D01*
X163624126Y-149904400D01*
X164035874Y-149904400D01*
X164416280Y-149746831D01*
X164707431Y-149455680D01*
X164865000Y-149075274D01*
X164865000Y-148736368D01*
X164958667Y-148755000D01*
X165241333Y-148755000D01*
X165659909Y-148671740D01*
X166134577Y-148354577D01*
X166370000Y-148002242D01*
X166605423Y-148354577D01*
X167080091Y-148671740D01*
X167498667Y-148755000D01*
X167781333Y-148755000D01*
X168199909Y-148671740D01*
X168674577Y-148354577D01*
X168910000Y-148002242D01*
X169145423Y-148354577D01*
X169620091Y-148671740D01*
X170038667Y-148755000D01*
X170321333Y-148755000D01*
X170739909Y-148671740D01*
X171214577Y-148354577D01*
X171450000Y-148002242D01*
X171685423Y-148354577D01*
X171685423Y-148354577D01*
G37*
X171685423Y-148354577D02*
X172039222Y-148590978D01*
X167365191Y-153265010D01*
X161024618Y-153265010D01*
X160987747Y-153228139D01*
X161233864Y-153154005D01*
X161426965Y-152616777D01*
X161399778Y-152046546D01*
X161233864Y-151645995D01*
X160987745Y-151571861D01*
X160159605Y-152400000D01*
X160173748Y-152414142D01*
X159994142Y-152593748D01*
X159980000Y-152579605D01*
X159965858Y-152593748D01*
X159786252Y-152414142D01*
X159800395Y-152400000D01*
X158972255Y-151571861D01*
X158924693Y-151586187D01*
X158886118Y-151392255D01*
X159151861Y-151392255D01*
X159980000Y-152220395D01*
X160808139Y-151392255D01*
X160734005Y-151146136D01*
X160196777Y-150953035D01*
X159626546Y-150980222D01*
X159225995Y-151146136D01*
X159151861Y-151392255D01*
X158886118Y-151392255D01*
X158878157Y-151352235D01*
X158737809Y-151142191D01*
X158527765Y-151001843D01*
X158280000Y-150952560D01*
X156680000Y-150952560D01*
X156432235Y-151001843D01*
X156222191Y-151142191D01*
X156081843Y-151352235D01*
X156032560Y-151600000D01*
X156032560Y-153200000D01*
X156045491Y-153265010D01*
X151745001Y-153265010D01*
X151745001Y-151125355D01*
X152154561Y-151295000D01*
X152725439Y-151295000D01*
X153252862Y-151076534D01*
X153461651Y-150867745D01*
X154111861Y-150867745D01*
X154185995Y-151113864D01*
X154723223Y-151306965D01*
X155293454Y-151279778D01*
X155694005Y-151113864D01*
X155768139Y-150867745D01*
X154940000Y-150039605D01*
X154111861Y-150867745D01*
X153461651Y-150867745D01*
X153656534Y-150672862D01*
X153683525Y-150607701D01*
X153686136Y-150614005D01*
X153932255Y-150688139D01*
X154760395Y-149860000D01*
X154746252Y-149845858D01*
X154925858Y-149666252D01*
X154940000Y-149680395D01*
X154954142Y-149666252D01*
X155133748Y-149845858D01*
X155119605Y-149860000D01*
X155947745Y-150688139D01*
X156193864Y-150614005D01*
X156386965Y-150076777D01*
X156359778Y-149506546D01*
X156244981Y-149229401D01*
X162858841Y-149229401D01*
X162952569Y-149455680D01*
X163243720Y-149746831D01*
X163624126Y-149904400D01*
X164035874Y-149904400D01*
X164416280Y-149746831D01*
X164707431Y-149455680D01*
X164865000Y-149075274D01*
X164865000Y-148736368D01*
X164958667Y-148755000D01*
X165241333Y-148755000D01*
X165659909Y-148671740D01*
X166134577Y-148354577D01*
X166370000Y-148002242D01*
X166605423Y-148354577D01*
X167080091Y-148671740D01*
X167498667Y-148755000D01*
X167781333Y-148755000D01*
X168199909Y-148671740D01*
X168674577Y-148354577D01*
X168910000Y-148002242D01*
X169145423Y-148354577D01*
X169620091Y-148671740D01*
X170038667Y-148755000D01*
X170321333Y-148755000D01*
X170739909Y-148671740D01*
X171214577Y-148354577D01*
X171450000Y-148002242D01*
X171685423Y-148354577D01*
G36*
X131301531Y-151691499D02*
X131354390Y-151770608D01*
X131433499Y-151823467D01*
X131433500Y-151823468D01*
X131535811Y-151891830D01*
X131667803Y-151980024D01*
X131944181Y-152034999D01*
X131944185Y-152034999D01*
X132037498Y-152053560D01*
X132130811Y-152034999D01*
X145966313Y-152034999D01*
X145913035Y-152183223D01*
X145940222Y-152753454D01*
X145945005Y-152765001D01*
X131234802Y-152765001D01*
X125857002Y-147387202D01*
X125857002Y-147370820D01*
X126086892Y-147491486D01*
X126611358Y-147245183D01*
X126727631Y-147117597D01*
X131301531Y-151691499D01*
X131301531Y-151691499D01*
G37*
X131301531Y-151691499D02*
X131354390Y-151770608D01*
X131433499Y-151823467D01*
X131433500Y-151823468D01*
X131535811Y-151891830D01*
X131667803Y-151980024D01*
X131944181Y-152034999D01*
X131944185Y-152034999D01*
X132037498Y-152053560D01*
X132130811Y-152034999D01*
X145966313Y-152034999D01*
X145913035Y-152183223D01*
X145940222Y-152753454D01*
X145945005Y-152765001D01*
X131234802Y-152765001D01*
X125857002Y-147387202D01*
X125857002Y-147370820D01*
X126086892Y-147491486D01*
X126611358Y-147245183D01*
X126727631Y-147117597D01*
X131301531Y-151691499D01*
G36*
X147553748Y-152385858D02*
X147539605Y-152400000D01*
X147553748Y-152414143D01*
X147374143Y-152593748D01*
X147360000Y-152579605D01*
X147345858Y-152593748D01*
X147166253Y-152414143D01*
X147180395Y-152400000D01*
X147166253Y-152385858D01*
X147345858Y-152206253D01*
X147360000Y-152220395D01*
X147374143Y-152206253D01*
X147553748Y-152385858D01*
X147553748Y-152385858D01*
G37*
X147553748Y-152385858D02*
X147539605Y-152400000D01*
X147553748Y-152414143D01*
X147374143Y-152593748D01*
X147360000Y-152579605D01*
X147345858Y-152593748D01*
X147166253Y-152414143D01*
X147180395Y-152400000D01*
X147166253Y-152385858D01*
X147345858Y-152206253D01*
X147360000Y-152220395D01*
X147374143Y-152206253D01*
X147553748Y-152385858D01*
G36*
X157607000Y-147193000D02*
X157627000Y-147193000D01*
X157627000Y-147447000D01*
X157607000Y-147447000D01*
X157607000Y-147467000D01*
X157353000Y-147467000D01*
X157353000Y-147447000D01*
X157333000Y-147447000D01*
X157333000Y-147193000D01*
X157353000Y-147193000D01*
X157353000Y-147173000D01*
X157607000Y-147173000D01*
X157607000Y-147193000D01*
X157607000Y-147193000D01*
G37*
X157607000Y-147193000D02*
X157627000Y-147193000D01*
X157627000Y-147447000D01*
X157607000Y-147447000D01*
X157607000Y-147467000D01*
X157353000Y-147467000D01*
X157353000Y-147447000D01*
X157333000Y-147447000D01*
X157333000Y-147193000D01*
X157353000Y-147193000D01*
X157353000Y-147173000D01*
X157607000Y-147173000D01*
X157607000Y-147193000D01*
G36*
X124232560Y-139280000D02*
X124281843Y-139527765D01*
X124422191Y-139737809D01*
X124632235Y-139878157D01*
X124677619Y-139887184D01*
X124659375Y-139899375D01*
X124331161Y-140390582D01*
X124215908Y-140970000D01*
X124331161Y-141549418D01*
X124659375Y-142040625D01*
X124978478Y-142253843D01*
X124848642Y-142314817D01*
X124458355Y-142743076D01*
X124288524Y-143153110D01*
X124409845Y-143383000D01*
X125603000Y-143383000D01*
X125603000Y-143363000D01*
X125857000Y-143363000D01*
X125857000Y-143383000D01*
X125877000Y-143383000D01*
X125877000Y-143637000D01*
X125857000Y-143637000D01*
X125857000Y-145923000D01*
X125877000Y-145923000D01*
X125877000Y-146177000D01*
X125857000Y-146177000D01*
X125857000Y-146197000D01*
X125603000Y-146197000D01*
X125603000Y-146177000D01*
X125583000Y-146177000D01*
X125583000Y-145923000D01*
X125603000Y-145923000D01*
X125603000Y-143637000D01*
X124409845Y-143637000D01*
X124288524Y-143866890D01*
X124458355Y-144276924D01*
X124848642Y-144705183D01*
X125007954Y-144780000D01*
X124848642Y-144854817D01*
X124458355Y-145283076D01*
X124288524Y-145693110D01*
X124409844Y-145922998D01*
X124392798Y-145922998D01*
X120937239Y-142467440D01*
X121500000Y-142467440D01*
X121747765Y-142418157D01*
X121957809Y-142277809D01*
X122098157Y-142067765D01*
X122147440Y-141820000D01*
X122147440Y-140547361D01*
X124232560Y-138462242D01*
X124232560Y-139280000D01*
X124232560Y-139280000D01*
G37*
X124232560Y-139280000D02*
X124281843Y-139527765D01*
X124422191Y-139737809D01*
X124632235Y-139878157D01*
X124677619Y-139887184D01*
X124659375Y-139899375D01*
X124331161Y-140390582D01*
X124215908Y-140970000D01*
X124331161Y-141549418D01*
X124659375Y-142040625D01*
X124978478Y-142253843D01*
X124848642Y-142314817D01*
X124458355Y-142743076D01*
X124288524Y-143153110D01*
X124409845Y-143383000D01*
X125603000Y-143383000D01*
X125603000Y-143363000D01*
X125857000Y-143363000D01*
X125857000Y-143383000D01*
X125877000Y-143383000D01*
X125877000Y-143637000D01*
X125857000Y-143637000D01*
X125857000Y-145923000D01*
X125877000Y-145923000D01*
X125877000Y-146177000D01*
X125857000Y-146177000D01*
X125857000Y-146197000D01*
X125603000Y-146197000D01*
X125603000Y-146177000D01*
X125583000Y-146177000D01*
X125583000Y-145923000D01*
X125603000Y-145923000D01*
X125603000Y-143637000D01*
X124409845Y-143637000D01*
X124288524Y-143866890D01*
X124458355Y-144276924D01*
X124848642Y-144705183D01*
X125007954Y-144780000D01*
X124848642Y-144854817D01*
X124458355Y-145283076D01*
X124288524Y-145693110D01*
X124409844Y-145922998D01*
X124392798Y-145922998D01*
X120937239Y-142467440D01*
X121500000Y-142467440D01*
X121747765Y-142418157D01*
X121957809Y-142277809D01*
X122098157Y-142067765D01*
X122147440Y-141820000D01*
X122147440Y-140547361D01*
X124232560Y-138462242D01*
X124232560Y-139280000D01*
G36*
X126384999Y-117887194D02*
X126385000Y-119095146D01*
X126370111Y-119169997D01*
X126429096Y-119466534D01*
X126528581Y-119615423D01*
X126597071Y-119717926D01*
X126660527Y-119760326D01*
X130079876Y-123179676D01*
X130015995Y-123206136D01*
X129941861Y-123452255D01*
X130770000Y-124280395D01*
X130784143Y-124266253D01*
X130963748Y-124445858D01*
X130949605Y-124460000D01*
X131777745Y-125288139D01*
X132023864Y-125214005D01*
X132047751Y-125147550D01*
X135274999Y-128374799D01*
X135275000Y-131660199D01*
X135148851Y-131534049D01*
X135197800Y-131415875D01*
X135197800Y-131004127D01*
X135040231Y-130623721D01*
X134749080Y-130332570D01*
X134368674Y-130175001D01*
X133956926Y-130175001D01*
X133576520Y-130332570D01*
X133285369Y-130623721D01*
X133127800Y-131004127D01*
X133127800Y-131415875D01*
X133285369Y-131796281D01*
X133524365Y-132035277D01*
X133614871Y-132170729D01*
X133678330Y-132213131D01*
X135785165Y-134319966D01*
X135775000Y-134344506D01*
X135775000Y-134895494D01*
X135985853Y-135404540D01*
X136375460Y-135794147D01*
X136884506Y-136005000D01*
X137435494Y-136005000D01*
X137944540Y-135794147D01*
X138334147Y-135404540D01*
X138371225Y-135315025D01*
X141480000Y-138423800D01*
X141480000Y-138481957D01*
X141205423Y-138665423D01*
X140970000Y-139017758D01*
X140734577Y-138665423D01*
X140259909Y-138348260D01*
X139841333Y-138265000D01*
X139558667Y-138265000D01*
X139140091Y-138348260D01*
X138665423Y-138665423D01*
X138348260Y-139140091D01*
X138236887Y-139700000D01*
X138348260Y-140259909D01*
X138665423Y-140734577D01*
X139140091Y-141051740D01*
X139558667Y-141135000D01*
X139841333Y-141135000D01*
X140023887Y-141098688D01*
X140234670Y-141309471D01*
X140277072Y-141372930D01*
X140528464Y-141540905D01*
X140750149Y-141585001D01*
X140750153Y-141585001D01*
X140825000Y-141599889D01*
X140899847Y-141585001D01*
X142705154Y-141585001D01*
X142780001Y-141599889D01*
X142854848Y-141585001D01*
X142854853Y-141585001D01*
X143076538Y-141540905D01*
X143327930Y-141372930D01*
X143370332Y-141309471D01*
X143849474Y-140830330D01*
X143869101Y-140817216D01*
X144220091Y-141051740D01*
X144638667Y-141135000D01*
X144921333Y-141135000D01*
X145103887Y-141098688D01*
X147045148Y-143039950D01*
X140304752Y-143039950D01*
X137460333Y-140195532D01*
X137460329Y-140195526D01*
X130404999Y-133140198D01*
X130404999Y-132203687D01*
X130553223Y-132256965D01*
X131123454Y-132229778D01*
X131524005Y-132063864D01*
X131598139Y-131817745D01*
X130770000Y-130989605D01*
X130755858Y-131003748D01*
X130576253Y-130824143D01*
X130590395Y-130810000D01*
X130949605Y-130810000D01*
X131777745Y-131638139D01*
X132023864Y-131564005D01*
X132216965Y-131026777D01*
X132189778Y-130456546D01*
X132023864Y-130055995D01*
X131777745Y-129981861D01*
X130949605Y-130810000D01*
X130590395Y-130810000D01*
X130576253Y-130795858D01*
X130755858Y-130616253D01*
X130770000Y-130630395D01*
X131598139Y-129802255D01*
X131524005Y-129556136D01*
X130986777Y-129363035D01*
X130416546Y-129390222D01*
X130209036Y-129476176D01*
X130192928Y-129452068D01*
X130129472Y-129409668D01*
X128505333Y-127785530D01*
X128462931Y-127722071D01*
X128211539Y-127554096D01*
X127989854Y-127510000D01*
X127989849Y-127510000D01*
X127915002Y-127495112D01*
X127840155Y-127510000D01*
X122222519Y-127510000D01*
X122307930Y-127452930D01*
X122350332Y-127389471D01*
X124741273Y-124998531D01*
X124804729Y-124956131D01*
X124972704Y-124704739D01*
X125016800Y-124483054D01*
X125016800Y-124483050D01*
X125031688Y-124408203D01*
X125016800Y-124333356D01*
X125016800Y-124174561D01*
X126835000Y-124174561D01*
X126835000Y-124745439D01*
X127053466Y-125272862D01*
X127457138Y-125676534D01*
X127984561Y-125895000D01*
X128555439Y-125895000D01*
X129082862Y-125676534D01*
X129291651Y-125467745D01*
X129941861Y-125467745D01*
X130015995Y-125713864D01*
X130553223Y-125906965D01*
X131123454Y-125879778D01*
X131524005Y-125713864D01*
X131598139Y-125467745D01*
X130770000Y-124639605D01*
X129941861Y-125467745D01*
X129291651Y-125467745D01*
X129486534Y-125272862D01*
X129513525Y-125207701D01*
X129516136Y-125214005D01*
X129762255Y-125288139D01*
X130590395Y-124460000D01*
X129762255Y-123631861D01*
X129516136Y-123705995D01*
X129513710Y-123712746D01*
X129486534Y-123647138D01*
X129082862Y-123243466D01*
X128555439Y-123025000D01*
X127984561Y-123025000D01*
X127457138Y-123243466D01*
X127053466Y-123647138D01*
X126835000Y-124174561D01*
X125016800Y-124174561D01*
X125016800Y-117746911D01*
X125134231Y-117629480D01*
X125291800Y-117249074D01*
X125291800Y-116837326D01*
X125261160Y-116763355D01*
X126384999Y-117887194D01*
X126384999Y-117887194D01*
G37*
X126384999Y-117887194D02*
X126385000Y-119095146D01*
X126370111Y-119169997D01*
X126429096Y-119466534D01*
X126528581Y-119615423D01*
X126597071Y-119717926D01*
X126660527Y-119760326D01*
X130079876Y-123179676D01*
X130015995Y-123206136D01*
X129941861Y-123452255D01*
X130770000Y-124280395D01*
X130784143Y-124266253D01*
X130963748Y-124445858D01*
X130949605Y-124460000D01*
X131777745Y-125288139D01*
X132023864Y-125214005D01*
X132047751Y-125147550D01*
X135274999Y-128374799D01*
X135275000Y-131660199D01*
X135148851Y-131534049D01*
X135197800Y-131415875D01*
X135197800Y-131004127D01*
X135040231Y-130623721D01*
X134749080Y-130332570D01*
X134368674Y-130175001D01*
X133956926Y-130175001D01*
X133576520Y-130332570D01*
X133285369Y-130623721D01*
X133127800Y-131004127D01*
X133127800Y-131415875D01*
X133285369Y-131796281D01*
X133524365Y-132035277D01*
X133614871Y-132170729D01*
X133678330Y-132213131D01*
X135785165Y-134319966D01*
X135775000Y-134344506D01*
X135775000Y-134895494D01*
X135985853Y-135404540D01*
X136375460Y-135794147D01*
X136884506Y-136005000D01*
X137435494Y-136005000D01*
X137944540Y-135794147D01*
X138334147Y-135404540D01*
X138371225Y-135315025D01*
X141480000Y-138423800D01*
X141480000Y-138481957D01*
X141205423Y-138665423D01*
X140970000Y-139017758D01*
X140734577Y-138665423D01*
X140259909Y-138348260D01*
X139841333Y-138265000D01*
X139558667Y-138265000D01*
X139140091Y-138348260D01*
X138665423Y-138665423D01*
X138348260Y-139140091D01*
X138236887Y-139700000D01*
X138348260Y-140259909D01*
X138665423Y-140734577D01*
X139140091Y-141051740D01*
X139558667Y-141135000D01*
X139841333Y-141135000D01*
X140023887Y-141098688D01*
X140234670Y-141309471D01*
X140277072Y-141372930D01*
X140528464Y-141540905D01*
X140750149Y-141585001D01*
X140750153Y-141585001D01*
X140825000Y-141599889D01*
X140899847Y-141585001D01*
X142705154Y-141585001D01*
X142780001Y-141599889D01*
X142854848Y-141585001D01*
X142854853Y-141585001D01*
X143076538Y-141540905D01*
X143327930Y-141372930D01*
X143370332Y-141309471D01*
X143849474Y-140830330D01*
X143869101Y-140817216D01*
X144220091Y-141051740D01*
X144638667Y-141135000D01*
X144921333Y-141135000D01*
X145103887Y-141098688D01*
X147045148Y-143039950D01*
X140304752Y-143039950D01*
X137460333Y-140195532D01*
X137460329Y-140195526D01*
X130404999Y-133140198D01*
X130404999Y-132203687D01*
X130553223Y-132256965D01*
X131123454Y-132229778D01*
X131524005Y-132063864D01*
X131598139Y-131817745D01*
X130770000Y-130989605D01*
X130755858Y-131003748D01*
X130576253Y-130824143D01*
X130590395Y-130810000D01*
X130949605Y-130810000D01*
X131777745Y-131638139D01*
X132023864Y-131564005D01*
X132216965Y-131026777D01*
X132189778Y-130456546D01*
X132023864Y-130055995D01*
X131777745Y-129981861D01*
X130949605Y-130810000D01*
X130590395Y-130810000D01*
X130576253Y-130795858D01*
X130755858Y-130616253D01*
X130770000Y-130630395D01*
X131598139Y-129802255D01*
X131524005Y-129556136D01*
X130986777Y-129363035D01*
X130416546Y-129390222D01*
X130209036Y-129476176D01*
X130192928Y-129452068D01*
X130129472Y-129409668D01*
X128505333Y-127785530D01*
X128462931Y-127722071D01*
X128211539Y-127554096D01*
X127989854Y-127510000D01*
X127989849Y-127510000D01*
X127915002Y-127495112D01*
X127840155Y-127510000D01*
X122222519Y-127510000D01*
X122307930Y-127452930D01*
X122350332Y-127389471D01*
X124741273Y-124998531D01*
X124804729Y-124956131D01*
X124972704Y-124704739D01*
X125016800Y-124483054D01*
X125016800Y-124483050D01*
X125031688Y-124408203D01*
X125016800Y-124333356D01*
X125016800Y-124174561D01*
X126835000Y-124174561D01*
X126835000Y-124745439D01*
X127053466Y-125272862D01*
X127457138Y-125676534D01*
X127984561Y-125895000D01*
X128555439Y-125895000D01*
X129082862Y-125676534D01*
X129291651Y-125467745D01*
X129941861Y-125467745D01*
X130015995Y-125713864D01*
X130553223Y-125906965D01*
X131123454Y-125879778D01*
X131524005Y-125713864D01*
X131598139Y-125467745D01*
X130770000Y-124639605D01*
X129941861Y-125467745D01*
X129291651Y-125467745D01*
X129486534Y-125272862D01*
X129513525Y-125207701D01*
X129516136Y-125214005D01*
X129762255Y-125288139D01*
X130590395Y-124460000D01*
X129762255Y-123631861D01*
X129516136Y-123705995D01*
X129513710Y-123712746D01*
X129486534Y-123647138D01*
X129082862Y-123243466D01*
X128555439Y-123025000D01*
X127984561Y-123025000D01*
X127457138Y-123243466D01*
X127053466Y-123647138D01*
X126835000Y-124174561D01*
X125016800Y-124174561D01*
X125016800Y-117746911D01*
X125134231Y-117629480D01*
X125291800Y-117249074D01*
X125291800Y-116837326D01*
X125261160Y-116763355D01*
X126384999Y-117887194D01*
G36*
X155067000Y-139573000D02*
X155087000Y-139573000D01*
X155087000Y-139827000D01*
X155067000Y-139827000D01*
X155067000Y-140969915D01*
X155289039Y-141091904D01*
X155677423Y-140931041D01*
X156092389Y-140555134D01*
X156189053Y-140350892D01*
X156445423Y-140734577D01*
X156920091Y-141051740D01*
X157338667Y-141135000D01*
X157621333Y-141135000D01*
X158039909Y-141051740D01*
X158514577Y-140734577D01*
X158750000Y-140382242D01*
X158985423Y-140734577D01*
X159460091Y-141051740D01*
X159878667Y-141135000D01*
X160161333Y-141135000D01*
X160579909Y-141051740D01*
X161054577Y-140734577D01*
X161290000Y-140382242D01*
X161525423Y-140734577D01*
X162000091Y-141051740D01*
X162418667Y-141135000D01*
X162701333Y-141135000D01*
X163119909Y-141051740D01*
X163594577Y-140734577D01*
X163830000Y-140382242D01*
X164065423Y-140734577D01*
X164540091Y-141051740D01*
X164958667Y-141135000D01*
X165241333Y-141135000D01*
X165659909Y-141051740D01*
X166134577Y-140734577D01*
X166370000Y-140382242D01*
X166605423Y-140734577D01*
X167080091Y-141051740D01*
X167498667Y-141135000D01*
X167781333Y-141135000D01*
X167967084Y-141098052D01*
X168060311Y-141160343D01*
X168143462Y-141215903D01*
X168365147Y-141259999D01*
X168365151Y-141259999D01*
X168439998Y-141274887D01*
X168514845Y-141259999D01*
X168990208Y-141259999D01*
X169870139Y-142139930D01*
X150834733Y-142139930D01*
X149829802Y-141135000D01*
X150001333Y-141135000D01*
X150419909Y-141051740D01*
X150894577Y-140734577D01*
X151130000Y-140382242D01*
X151365423Y-140734577D01*
X151840091Y-141051740D01*
X152258667Y-141135000D01*
X152541333Y-141135000D01*
X152959909Y-141051740D01*
X153434577Y-140734577D01*
X153690947Y-140350892D01*
X153787611Y-140555134D01*
X154202577Y-140931041D01*
X154590961Y-141091904D01*
X154813000Y-140969915D01*
X154813000Y-139827000D01*
X154793000Y-139827000D01*
X154793000Y-139573000D01*
X154813000Y-139573000D01*
X154813000Y-139553000D01*
X155067000Y-139553000D01*
X155067000Y-139573000D01*
X155067000Y-139573000D01*
G37*
X155067000Y-139573000D02*
X155087000Y-139573000D01*
X155087000Y-139827000D01*
X155067000Y-139827000D01*
X155067000Y-140969915D01*
X155289039Y-141091904D01*
X155677423Y-140931041D01*
X156092389Y-140555134D01*
X156189053Y-140350892D01*
X156445423Y-140734577D01*
X156920091Y-141051740D01*
X157338667Y-141135000D01*
X157621333Y-141135000D01*
X158039909Y-141051740D01*
X158514577Y-140734577D01*
X158750000Y-140382242D01*
X158985423Y-140734577D01*
X159460091Y-141051740D01*
X159878667Y-141135000D01*
X160161333Y-141135000D01*
X160579909Y-141051740D01*
X161054577Y-140734577D01*
X161290000Y-140382242D01*
X161525423Y-140734577D01*
X162000091Y-141051740D01*
X162418667Y-141135000D01*
X162701333Y-141135000D01*
X163119909Y-141051740D01*
X163594577Y-140734577D01*
X163830000Y-140382242D01*
X164065423Y-140734577D01*
X164540091Y-141051740D01*
X164958667Y-141135000D01*
X165241333Y-141135000D01*
X165659909Y-141051740D01*
X166134577Y-140734577D01*
X166370000Y-140382242D01*
X166605423Y-140734577D01*
X167080091Y-141051740D01*
X167498667Y-141135000D01*
X167781333Y-141135000D01*
X167967084Y-141098052D01*
X168060311Y-141160343D01*
X168143462Y-141215903D01*
X168365147Y-141259999D01*
X168365151Y-141259999D01*
X168439998Y-141274887D01*
X168514845Y-141259999D01*
X168990208Y-141259999D01*
X169870139Y-142139930D01*
X150834733Y-142139930D01*
X149829802Y-141135000D01*
X150001333Y-141135000D01*
X150419909Y-141051740D01*
X150894577Y-140734577D01*
X151130000Y-140382242D01*
X151365423Y-140734577D01*
X151840091Y-141051740D01*
X152258667Y-141135000D01*
X152541333Y-141135000D01*
X152959909Y-141051740D01*
X153434577Y-140734577D01*
X153690947Y-140350892D01*
X153787611Y-140555134D01*
X154202577Y-140931041D01*
X154590961Y-141091904D01*
X154813000Y-140969915D01*
X154813000Y-139827000D01*
X154793000Y-139827000D01*
X154793000Y-139573000D01*
X154813000Y-139573000D01*
X154813000Y-139553000D01*
X155067000Y-139553000D01*
X155067000Y-139573000D01*
G36*
X166245000Y-130524561D02*
X166245000Y-131095439D01*
X166463466Y-131622862D01*
X166561004Y-131720400D01*
X163943195Y-134338209D01*
X163939778Y-134266546D01*
X163773864Y-133865995D01*
X163527745Y-133791861D01*
X162699605Y-134620000D01*
X162713748Y-134634143D01*
X162534143Y-134813748D01*
X162520000Y-134799605D01*
X162505858Y-134813748D01*
X162326253Y-134634143D01*
X162340395Y-134620000D01*
X161512255Y-133791861D01*
X161464693Y-133806187D01*
X161426118Y-133612255D01*
X161691861Y-133612255D01*
X162520000Y-134440395D01*
X163348139Y-133612255D01*
X163274005Y-133366136D01*
X162736777Y-133173035D01*
X162166546Y-133200222D01*
X161765995Y-133366136D01*
X161691861Y-133612255D01*
X161426118Y-133612255D01*
X161418157Y-133572235D01*
X161277809Y-133362191D01*
X161067765Y-133221843D01*
X160820000Y-133172560D01*
X159220000Y-133172560D01*
X158972235Y-133221843D01*
X158762191Y-133362191D01*
X158621843Y-133572235D01*
X158572560Y-133820000D01*
X158572560Y-134727473D01*
X157575033Y-135725000D01*
X157344967Y-135725000D01*
X155635972Y-134016006D01*
X155583109Y-133936891D01*
X155269696Y-133727475D01*
X154993318Y-133672500D01*
X154993317Y-133672500D01*
X154900000Y-133653938D01*
X154806683Y-133672500D01*
X153818101Y-133672500D01*
X153798157Y-133572235D01*
X153657809Y-133362191D01*
X153447765Y-133221843D01*
X153200000Y-133172560D01*
X151600000Y-133172560D01*
X151352235Y-133221843D01*
X151142191Y-133362191D01*
X151001843Y-133572235D01*
X150955307Y-133806187D01*
X150907745Y-133791861D01*
X150079605Y-134620000D01*
X150907745Y-135448139D01*
X150955307Y-135433813D01*
X151001843Y-135667765D01*
X151142191Y-135877809D01*
X151352235Y-136018157D01*
X151600000Y-136067440D01*
X153200000Y-136067440D01*
X153447765Y-136018157D01*
X153657809Y-135877809D01*
X153798157Y-135667765D01*
X153818101Y-135567500D01*
X154507534Y-135567500D01*
X154675991Y-135735958D01*
X154586546Y-135740222D01*
X154185995Y-135906136D01*
X154111861Y-136152255D01*
X154940000Y-136980395D01*
X154954143Y-136966253D01*
X155133748Y-137145858D01*
X155119605Y-137160000D01*
X155947745Y-137988139D01*
X156193864Y-137914005D01*
X156196290Y-137907254D01*
X156223466Y-137972862D01*
X156532501Y-138281897D01*
X156532500Y-138607240D01*
X156445423Y-138665423D01*
X156189053Y-139049108D01*
X156092389Y-138844866D01*
X155677423Y-138468959D01*
X155619207Y-138444847D01*
X155694005Y-138413864D01*
X155768139Y-138167745D01*
X154940000Y-137339605D01*
X154111861Y-138167745D01*
X154185995Y-138413864D01*
X154266089Y-138442653D01*
X154202577Y-138468959D01*
X153787611Y-138844866D01*
X153690947Y-139049108D01*
X153434577Y-138665423D01*
X153157335Y-138480175D01*
X153201231Y-138436279D01*
X153358800Y-138055873D01*
X153358800Y-137644125D01*
X153201231Y-137263719D01*
X152910080Y-136972568D01*
X152839235Y-136943223D01*
X153493035Y-136943223D01*
X153520222Y-137513454D01*
X153686136Y-137914005D01*
X153932255Y-137988139D01*
X154760395Y-137160000D01*
X153932255Y-136331861D01*
X153686136Y-136405995D01*
X153493035Y-136943223D01*
X152839235Y-136943223D01*
X152529674Y-136814999D01*
X152117926Y-136814999D01*
X151737520Y-136972568D01*
X151446369Y-137263719D01*
X151288800Y-137644125D01*
X151288800Y-138055873D01*
X151446369Y-138436279D01*
X151551308Y-138541218D01*
X151365423Y-138665423D01*
X151130000Y-139017758D01*
X150894577Y-138665423D01*
X150543800Y-138431041D01*
X150543800Y-138320911D01*
X150661231Y-138203480D01*
X150818800Y-137823074D01*
X150818800Y-137411326D01*
X150661231Y-137030920D01*
X150370080Y-136739769D01*
X149989674Y-136582200D01*
X149577926Y-136582200D01*
X149197520Y-136739769D01*
X148906369Y-137030920D01*
X148748800Y-137411326D01*
X148748800Y-137823074D01*
X148906369Y-138203480D01*
X149023800Y-138320911D01*
X149023800Y-138532871D01*
X148825423Y-138665423D01*
X148590000Y-139017758D01*
X148354577Y-138665423D01*
X148080000Y-138481957D01*
X148080000Y-135849799D01*
X148302054Y-135627745D01*
X149071861Y-135627745D01*
X149145995Y-135873864D01*
X149683223Y-136066965D01*
X150253454Y-136039778D01*
X150654005Y-135873864D01*
X150728139Y-135627745D01*
X149900000Y-134799605D01*
X149071861Y-135627745D01*
X148302054Y-135627745D01*
X148619675Y-135310124D01*
X148646136Y-135374005D01*
X148892255Y-135448139D01*
X149720395Y-134620000D01*
X149706253Y-134605858D01*
X149885858Y-134426253D01*
X149900000Y-134440395D01*
X150728139Y-133612255D01*
X150654005Y-133366136D01*
X150587550Y-133342249D01*
X153774799Y-130155001D01*
X166398077Y-130155001D01*
X166245000Y-130524561D01*
X166245000Y-130524561D01*
G37*
X166245000Y-130524561D02*
X166245000Y-131095439D01*
X166463466Y-131622862D01*
X166561004Y-131720400D01*
X163943195Y-134338209D01*
X163939778Y-134266546D01*
X163773864Y-133865995D01*
X163527745Y-133791861D01*
X162699605Y-134620000D01*
X162713748Y-134634143D01*
X162534143Y-134813748D01*
X162520000Y-134799605D01*
X162505858Y-134813748D01*
X162326253Y-134634143D01*
X162340395Y-134620000D01*
X161512255Y-133791861D01*
X161464693Y-133806187D01*
X161426118Y-133612255D01*
X161691861Y-133612255D01*
X162520000Y-134440395D01*
X163348139Y-133612255D01*
X163274005Y-133366136D01*
X162736777Y-133173035D01*
X162166546Y-133200222D01*
X161765995Y-133366136D01*
X161691861Y-133612255D01*
X161426118Y-133612255D01*
X161418157Y-133572235D01*
X161277809Y-133362191D01*
X161067765Y-133221843D01*
X160820000Y-133172560D01*
X159220000Y-133172560D01*
X158972235Y-133221843D01*
X158762191Y-133362191D01*
X158621843Y-133572235D01*
X158572560Y-133820000D01*
X158572560Y-134727473D01*
X157575033Y-135725000D01*
X157344967Y-135725000D01*
X155635972Y-134016006D01*
X155583109Y-133936891D01*
X155269696Y-133727475D01*
X154993318Y-133672500D01*
X154993317Y-133672500D01*
X154900000Y-133653938D01*
X154806683Y-133672500D01*
X153818101Y-133672500D01*
X153798157Y-133572235D01*
X153657809Y-133362191D01*
X153447765Y-133221843D01*
X153200000Y-133172560D01*
X151600000Y-133172560D01*
X151352235Y-133221843D01*
X151142191Y-133362191D01*
X151001843Y-133572235D01*
X150955307Y-133806187D01*
X150907745Y-133791861D01*
X150079605Y-134620000D01*
X150907745Y-135448139D01*
X150955307Y-135433813D01*
X151001843Y-135667765D01*
X151142191Y-135877809D01*
X151352235Y-136018157D01*
X151600000Y-136067440D01*
X153200000Y-136067440D01*
X153447765Y-136018157D01*
X153657809Y-135877809D01*
X153798157Y-135667765D01*
X153818101Y-135567500D01*
X154507534Y-135567500D01*
X154675991Y-135735958D01*
X154586546Y-135740222D01*
X154185995Y-135906136D01*
X154111861Y-136152255D01*
X154940000Y-136980395D01*
X154954143Y-136966253D01*
X155133748Y-137145858D01*
X155119605Y-137160000D01*
X155947745Y-137988139D01*
X156193864Y-137914005D01*
X156196290Y-137907254D01*
X156223466Y-137972862D01*
X156532501Y-138281897D01*
X156532500Y-138607240D01*
X156445423Y-138665423D01*
X156189053Y-139049108D01*
X156092389Y-138844866D01*
X155677423Y-138468959D01*
X155619207Y-138444847D01*
X155694005Y-138413864D01*
X155768139Y-138167745D01*
X154940000Y-137339605D01*
X154111861Y-138167745D01*
X154185995Y-138413864D01*
X154266089Y-138442653D01*
X154202577Y-138468959D01*
X153787611Y-138844866D01*
X153690947Y-139049108D01*
X153434577Y-138665423D01*
X153157335Y-138480175D01*
X153201231Y-138436279D01*
X153358800Y-138055873D01*
X153358800Y-137644125D01*
X153201231Y-137263719D01*
X152910080Y-136972568D01*
X152839235Y-136943223D01*
X153493035Y-136943223D01*
X153520222Y-137513454D01*
X153686136Y-137914005D01*
X153932255Y-137988139D01*
X154760395Y-137160000D01*
X153932255Y-136331861D01*
X153686136Y-136405995D01*
X153493035Y-136943223D01*
X152839235Y-136943223D01*
X152529674Y-136814999D01*
X152117926Y-136814999D01*
X151737520Y-136972568D01*
X151446369Y-137263719D01*
X151288800Y-137644125D01*
X151288800Y-138055873D01*
X151446369Y-138436279D01*
X151551308Y-138541218D01*
X151365423Y-138665423D01*
X151130000Y-139017758D01*
X150894577Y-138665423D01*
X150543800Y-138431041D01*
X150543800Y-138320911D01*
X150661231Y-138203480D01*
X150818800Y-137823074D01*
X150818800Y-137411326D01*
X150661231Y-137030920D01*
X150370080Y-136739769D01*
X149989674Y-136582200D01*
X149577926Y-136582200D01*
X149197520Y-136739769D01*
X148906369Y-137030920D01*
X148748800Y-137411326D01*
X148748800Y-137823074D01*
X148906369Y-138203480D01*
X149023800Y-138320911D01*
X149023800Y-138532871D01*
X148825423Y-138665423D01*
X148590000Y-139017758D01*
X148354577Y-138665423D01*
X148080000Y-138481957D01*
X148080000Y-135849799D01*
X148302054Y-135627745D01*
X149071861Y-135627745D01*
X149145995Y-135873864D01*
X149683223Y-136066965D01*
X150253454Y-136039778D01*
X150654005Y-135873864D01*
X150728139Y-135627745D01*
X149900000Y-134799605D01*
X149071861Y-135627745D01*
X148302054Y-135627745D01*
X148619675Y-135310124D01*
X148646136Y-135374005D01*
X148892255Y-135448139D01*
X149720395Y-134620000D01*
X149706253Y-134605858D01*
X149885858Y-134426253D01*
X149900000Y-134440395D01*
X150728139Y-133612255D01*
X150654005Y-133366136D01*
X150587550Y-133342249D01*
X153774799Y-130155001D01*
X166398077Y-130155001D01*
X166245000Y-130524561D01*
G36*
X172773466Y-114757138D02*
X172751570Y-114810000D01*
X167768792Y-114810000D01*
X167693945Y-114795112D01*
X167619098Y-114810000D01*
X167619094Y-114810000D01*
X167397409Y-114854096D01*
X167359433Y-114879471D01*
X167209472Y-114979671D01*
X167209470Y-114979673D01*
X167146017Y-115022071D01*
X167103619Y-115085524D01*
X160397833Y-121791312D01*
X160215279Y-121755000D01*
X159932613Y-121755000D01*
X159514037Y-121838260D01*
X159039369Y-122155423D01*
X158782999Y-122539108D01*
X158686335Y-122334866D01*
X158271369Y-121958959D01*
X157882985Y-121798096D01*
X157660946Y-121920085D01*
X157660946Y-123063000D01*
X157680946Y-123063000D01*
X157680946Y-123317000D01*
X157660946Y-123317000D01*
X157660946Y-124459915D01*
X157882985Y-124581904D01*
X158271369Y-124421041D01*
X158686335Y-124045134D01*
X158782999Y-123840892D01*
X159039369Y-124224577D01*
X159514037Y-124541740D01*
X159932613Y-124625000D01*
X160215279Y-124625000D01*
X160633855Y-124541740D01*
X161108523Y-124224577D01*
X161343946Y-123872242D01*
X161579369Y-124224577D01*
X162054037Y-124541740D01*
X162472613Y-124625000D01*
X162755279Y-124625000D01*
X163173855Y-124541740D01*
X163648523Y-124224577D01*
X163965686Y-123749909D01*
X164077059Y-123190000D01*
X163965686Y-122630091D01*
X163648523Y-122155423D01*
X163173855Y-121838260D01*
X162755279Y-121755000D01*
X162583748Y-121755000D01*
X166192560Y-118146188D01*
X166192560Y-118910000D01*
X166241843Y-119157765D01*
X166382191Y-119367809D01*
X166592235Y-119508157D01*
X166840000Y-119557440D01*
X166880000Y-119557440D01*
X166880001Y-124491569D01*
X166827138Y-124513466D01*
X166423466Y-124917138D01*
X166205000Y-125444561D01*
X166205000Y-126015439D01*
X166358077Y-126384999D01*
X155148435Y-126384999D01*
X155073588Y-126370111D01*
X154998741Y-126384999D01*
X154998737Y-126384999D01*
X154777052Y-126429095D01*
X154525660Y-126597070D01*
X154483260Y-126660526D01*
X144295530Y-136848257D01*
X144232071Y-136890659D01*
X144064096Y-137142052D01*
X144020000Y-137363737D01*
X144020000Y-137363741D01*
X144005112Y-137438588D01*
X144020000Y-137513435D01*
X144020001Y-138209902D01*
X143955330Y-138113115D01*
X143955328Y-138113113D01*
X143912930Y-138049660D01*
X143849477Y-138007262D01*
X141847214Y-136005000D01*
X142315494Y-136005000D01*
X142824540Y-135794147D01*
X143214147Y-135404540D01*
X143425000Y-134895494D01*
X143425000Y-134344506D01*
X143214147Y-133835460D01*
X143000000Y-133621313D01*
X143000000Y-130778430D01*
X143052862Y-130756534D01*
X143261651Y-130547745D01*
X143911861Y-130547745D01*
X143985995Y-130793864D01*
X144523223Y-130986965D01*
X145093454Y-130959778D01*
X145494005Y-130793864D01*
X145568139Y-130547745D01*
X144740000Y-129719605D01*
X143911861Y-130547745D01*
X143261651Y-130547745D01*
X143456534Y-130352862D01*
X143483525Y-130287701D01*
X143486136Y-130294005D01*
X143732255Y-130368139D01*
X144560395Y-129540000D01*
X144919605Y-129540000D01*
X145747745Y-130368139D01*
X145993864Y-130294005D01*
X146186965Y-129756777D01*
X146159778Y-129186546D01*
X145993864Y-128785995D01*
X145747745Y-128711861D01*
X144919605Y-129540000D01*
X144560395Y-129540000D01*
X143732255Y-128711861D01*
X143486136Y-128785995D01*
X143483710Y-128792746D01*
X143456534Y-128727138D01*
X143261651Y-128532255D01*
X143911861Y-128532255D01*
X144740000Y-129360395D01*
X145568139Y-128532255D01*
X145494005Y-128286136D01*
X144956777Y-128093035D01*
X144386546Y-128120222D01*
X143985995Y-128286136D01*
X143911861Y-128532255D01*
X143261651Y-128532255D01*
X143052862Y-128323466D01*
X142525439Y-128105000D01*
X141954561Y-128105000D01*
X141755400Y-128187495D01*
X141755400Y-125830246D01*
X141758660Y-125813855D01*
X141954561Y-125895000D01*
X142525439Y-125895000D01*
X143052862Y-125676534D01*
X143456534Y-125272862D01*
X143675000Y-124745439D01*
X143675000Y-124174561D01*
X143456534Y-123647138D01*
X143052862Y-123243466D01*
X142525439Y-123025000D01*
X141954561Y-123025000D01*
X141427138Y-123243466D01*
X141023466Y-123647138D01*
X140970000Y-123776216D01*
X140916534Y-123647138D01*
X140512862Y-123243466D01*
X140460000Y-123221570D01*
X140460000Y-117154801D01*
X141916114Y-115698688D01*
X142098667Y-115735000D01*
X142381333Y-115735000D01*
X142799909Y-115651740D01*
X143274577Y-115334577D01*
X143510978Y-114980778D01*
X145074673Y-116544473D01*
X145117073Y-116607929D01*
X145180529Y-116650329D01*
X145368464Y-116775904D01*
X145416607Y-116785480D01*
X145590150Y-116820000D01*
X145590154Y-116820000D01*
X145665002Y-116834888D01*
X145739850Y-116820000D01*
X152764097Y-116820000D01*
X152838944Y-116834888D01*
X152913791Y-116820000D01*
X152913796Y-116820000D01*
X153135481Y-116775904D01*
X153386873Y-116607929D01*
X153429275Y-116544470D01*
X153722968Y-116250777D01*
X153959369Y-116604577D01*
X154434037Y-116921740D01*
X154852613Y-117005000D01*
X155024143Y-117005000D01*
X149454146Y-122574999D01*
X147469847Y-122574999D01*
X147395000Y-122560111D01*
X147320153Y-122574999D01*
X147320149Y-122574999D01*
X147098464Y-122619095D01*
X146847072Y-122787070D01*
X146817030Y-122832031D01*
X146772072Y-122862071D01*
X146729672Y-122925527D01*
X146729671Y-122925528D01*
X146671518Y-123012560D01*
X146520000Y-123012560D01*
X146272235Y-123061843D01*
X146062191Y-123202191D01*
X145921843Y-123412235D01*
X145872560Y-123660000D01*
X145872560Y-125260000D01*
X145921843Y-125507765D01*
X146062191Y-125717809D01*
X146272235Y-125858157D01*
X146520000Y-125907440D01*
X148120000Y-125907440D01*
X148367765Y-125858157D01*
X148577809Y-125717809D01*
X148718157Y-125507765D01*
X148726117Y-125467745D01*
X148991861Y-125467745D01*
X149065995Y-125713864D01*
X149603223Y-125906965D01*
X150173454Y-125879778D01*
X150574005Y-125713864D01*
X150648139Y-125467745D01*
X149820000Y-124639605D01*
X148991861Y-125467745D01*
X148726117Y-125467745D01*
X148764693Y-125273813D01*
X148812255Y-125288139D01*
X149640395Y-124460000D01*
X149999605Y-124460000D01*
X150827745Y-125288139D01*
X151073864Y-125214005D01*
X151266965Y-124676777D01*
X151239778Y-124106546D01*
X151073864Y-123705995D01*
X150827745Y-123631861D01*
X149999605Y-124460000D01*
X149640395Y-124460000D01*
X149626253Y-124445858D01*
X149805858Y-124266253D01*
X149820000Y-124280395D01*
X150045521Y-124054874D01*
X150065484Y-124050903D01*
X150316876Y-123882928D01*
X150359278Y-123819469D01*
X151788747Y-122390000D01*
X153546506Y-122390000D01*
X153546506Y-123990000D01*
X153595789Y-124237765D01*
X153736137Y-124447809D01*
X153946181Y-124588157D01*
X154193946Y-124637440D01*
X155793946Y-124637440D01*
X156041711Y-124588157D01*
X156251755Y-124447809D01*
X156392103Y-124237765D01*
X156422959Y-124082639D01*
X156796523Y-124421041D01*
X157184907Y-124581904D01*
X157406946Y-124459915D01*
X157406946Y-123317000D01*
X157386946Y-123317000D01*
X157386946Y-123063000D01*
X157406946Y-123063000D01*
X157406946Y-121920085D01*
X157184907Y-121798096D01*
X156796523Y-121958959D01*
X156422959Y-122297361D01*
X156392103Y-122142235D01*
X156251755Y-121932191D01*
X156041711Y-121791843D01*
X155793946Y-121742560D01*
X154193946Y-121742560D01*
X153946181Y-121791843D01*
X153736137Y-121932191D01*
X153595789Y-122142235D01*
X153546506Y-122390000D01*
X151788747Y-122390000D01*
X157210061Y-116968688D01*
X157392613Y-117005000D01*
X157675279Y-117005000D01*
X158093855Y-116921740D01*
X158568523Y-116604577D01*
X158803946Y-116252242D01*
X159039369Y-116604577D01*
X159514037Y-116921740D01*
X159932613Y-117005000D01*
X160215279Y-117005000D01*
X160633855Y-116921740D01*
X161108523Y-116604577D01*
X161343946Y-116252242D01*
X161579369Y-116604577D01*
X162054037Y-116921740D01*
X162472613Y-117005000D01*
X162755279Y-117005000D01*
X163173855Y-116921740D01*
X163648523Y-116604577D01*
X163965686Y-116129909D01*
X164077059Y-115570000D01*
X163965686Y-115010091D01*
X163648523Y-114535423D01*
X163625441Y-114520000D01*
X173010604Y-114520000D01*
X172773466Y-114757138D01*
X172773466Y-114757138D01*
G37*
X172773466Y-114757138D02*
X172751570Y-114810000D01*
X167768792Y-114810000D01*
X167693945Y-114795112D01*
X167619098Y-114810000D01*
X167619094Y-114810000D01*
X167397409Y-114854096D01*
X167359433Y-114879471D01*
X167209472Y-114979671D01*
X167209470Y-114979673D01*
X167146017Y-115022071D01*
X167103619Y-115085524D01*
X160397833Y-121791312D01*
X160215279Y-121755000D01*
X159932613Y-121755000D01*
X159514037Y-121838260D01*
X159039369Y-122155423D01*
X158782999Y-122539108D01*
X158686335Y-122334866D01*
X158271369Y-121958959D01*
X157882985Y-121798096D01*
X157660946Y-121920085D01*
X157660946Y-123063000D01*
X157680946Y-123063000D01*
X157680946Y-123317000D01*
X157660946Y-123317000D01*
X157660946Y-124459915D01*
X157882985Y-124581904D01*
X158271369Y-124421041D01*
X158686335Y-124045134D01*
X158782999Y-123840892D01*
X159039369Y-124224577D01*
X159514037Y-124541740D01*
X159932613Y-124625000D01*
X160215279Y-124625000D01*
X160633855Y-124541740D01*
X161108523Y-124224577D01*
X161343946Y-123872242D01*
X161579369Y-124224577D01*
X162054037Y-124541740D01*
X162472613Y-124625000D01*
X162755279Y-124625000D01*
X163173855Y-124541740D01*
X163648523Y-124224577D01*
X163965686Y-123749909D01*
X164077059Y-123190000D01*
X163965686Y-122630091D01*
X163648523Y-122155423D01*
X163173855Y-121838260D01*
X162755279Y-121755000D01*
X162583748Y-121755000D01*
X166192560Y-118146188D01*
X166192560Y-118910000D01*
X166241843Y-119157765D01*
X166382191Y-119367809D01*
X166592235Y-119508157D01*
X166840000Y-119557440D01*
X166880000Y-119557440D01*
X166880001Y-124491569D01*
X166827138Y-124513466D01*
X166423466Y-124917138D01*
X166205000Y-125444561D01*
X166205000Y-126015439D01*
X166358077Y-126384999D01*
X155148435Y-126384999D01*
X155073588Y-126370111D01*
X154998741Y-126384999D01*
X154998737Y-126384999D01*
X154777052Y-126429095D01*
X154525660Y-126597070D01*
X154483260Y-126660526D01*
X144295530Y-136848257D01*
X144232071Y-136890659D01*
X144064096Y-137142052D01*
X144020000Y-137363737D01*
X144020000Y-137363741D01*
X144005112Y-137438588D01*
X144020000Y-137513435D01*
X144020001Y-138209902D01*
X143955330Y-138113115D01*
X143955328Y-138113113D01*
X143912930Y-138049660D01*
X143849477Y-138007262D01*
X141847214Y-136005000D01*
X142315494Y-136005000D01*
X142824540Y-135794147D01*
X143214147Y-135404540D01*
X143425000Y-134895494D01*
X143425000Y-134344506D01*
X143214147Y-133835460D01*
X143000000Y-133621313D01*
X143000000Y-130778430D01*
X143052862Y-130756534D01*
X143261651Y-130547745D01*
X143911861Y-130547745D01*
X143985995Y-130793864D01*
X144523223Y-130986965D01*
X145093454Y-130959778D01*
X145494005Y-130793864D01*
X145568139Y-130547745D01*
X144740000Y-129719605D01*
X143911861Y-130547745D01*
X143261651Y-130547745D01*
X143456534Y-130352862D01*
X143483525Y-130287701D01*
X143486136Y-130294005D01*
X143732255Y-130368139D01*
X144560395Y-129540000D01*
X144919605Y-129540000D01*
X145747745Y-130368139D01*
X145993864Y-130294005D01*
X146186965Y-129756777D01*
X146159778Y-129186546D01*
X145993864Y-128785995D01*
X145747745Y-128711861D01*
X144919605Y-129540000D01*
X144560395Y-129540000D01*
X143732255Y-128711861D01*
X143486136Y-128785995D01*
X143483710Y-128792746D01*
X143456534Y-128727138D01*
X143261651Y-128532255D01*
X143911861Y-128532255D01*
X144740000Y-129360395D01*
X145568139Y-128532255D01*
X145494005Y-128286136D01*
X144956777Y-128093035D01*
X144386546Y-128120222D01*
X143985995Y-128286136D01*
X143911861Y-128532255D01*
X143261651Y-128532255D01*
X143052862Y-128323466D01*
X142525439Y-128105000D01*
X141954561Y-128105000D01*
X141755400Y-128187495D01*
X141755400Y-125830246D01*
X141758660Y-125813855D01*
X141954561Y-125895000D01*
X142525439Y-125895000D01*
X143052862Y-125676534D01*
X143456534Y-125272862D01*
X143675000Y-124745439D01*
X143675000Y-124174561D01*
X143456534Y-123647138D01*
X143052862Y-123243466D01*
X142525439Y-123025000D01*
X141954561Y-123025000D01*
X141427138Y-123243466D01*
X141023466Y-123647138D01*
X140970000Y-123776216D01*
X140916534Y-123647138D01*
X140512862Y-123243466D01*
X140460000Y-123221570D01*
X140460000Y-117154801D01*
X141916114Y-115698688D01*
X142098667Y-115735000D01*
X142381333Y-115735000D01*
X142799909Y-115651740D01*
X143274577Y-115334577D01*
X143510978Y-114980778D01*
X145074673Y-116544473D01*
X145117073Y-116607929D01*
X145180529Y-116650329D01*
X145368464Y-116775904D01*
X145416607Y-116785480D01*
X145590150Y-116820000D01*
X145590154Y-116820000D01*
X145665002Y-116834888D01*
X145739850Y-116820000D01*
X152764097Y-116820000D01*
X152838944Y-116834888D01*
X152913791Y-116820000D01*
X152913796Y-116820000D01*
X153135481Y-116775904D01*
X153386873Y-116607929D01*
X153429275Y-116544470D01*
X153722968Y-116250777D01*
X153959369Y-116604577D01*
X154434037Y-116921740D01*
X154852613Y-117005000D01*
X155024143Y-117005000D01*
X149454146Y-122574999D01*
X147469847Y-122574999D01*
X147395000Y-122560111D01*
X147320153Y-122574999D01*
X147320149Y-122574999D01*
X147098464Y-122619095D01*
X146847072Y-122787070D01*
X146817030Y-122832031D01*
X146772072Y-122862071D01*
X146729672Y-122925527D01*
X146729671Y-122925528D01*
X146671518Y-123012560D01*
X146520000Y-123012560D01*
X146272235Y-123061843D01*
X146062191Y-123202191D01*
X145921843Y-123412235D01*
X145872560Y-123660000D01*
X145872560Y-125260000D01*
X145921843Y-125507765D01*
X146062191Y-125717809D01*
X146272235Y-125858157D01*
X146520000Y-125907440D01*
X148120000Y-125907440D01*
X148367765Y-125858157D01*
X148577809Y-125717809D01*
X148718157Y-125507765D01*
X148726117Y-125467745D01*
X148991861Y-125467745D01*
X149065995Y-125713864D01*
X149603223Y-125906965D01*
X150173454Y-125879778D01*
X150574005Y-125713864D01*
X150648139Y-125467745D01*
X149820000Y-124639605D01*
X148991861Y-125467745D01*
X148726117Y-125467745D01*
X148764693Y-125273813D01*
X148812255Y-125288139D01*
X149640395Y-124460000D01*
X149999605Y-124460000D01*
X150827745Y-125288139D01*
X151073864Y-125214005D01*
X151266965Y-124676777D01*
X151239778Y-124106546D01*
X151073864Y-123705995D01*
X150827745Y-123631861D01*
X149999605Y-124460000D01*
X149640395Y-124460000D01*
X149626253Y-124445858D01*
X149805858Y-124266253D01*
X149820000Y-124280395D01*
X150045521Y-124054874D01*
X150065484Y-124050903D01*
X150316876Y-123882928D01*
X150359278Y-123819469D01*
X151788747Y-122390000D01*
X153546506Y-122390000D01*
X153546506Y-123990000D01*
X153595789Y-124237765D01*
X153736137Y-124447809D01*
X153946181Y-124588157D01*
X154193946Y-124637440D01*
X155793946Y-124637440D01*
X156041711Y-124588157D01*
X156251755Y-124447809D01*
X156392103Y-124237765D01*
X156422959Y-124082639D01*
X156796523Y-124421041D01*
X157184907Y-124581904D01*
X157406946Y-124459915D01*
X157406946Y-123317000D01*
X157386946Y-123317000D01*
X157386946Y-123063000D01*
X157406946Y-123063000D01*
X157406946Y-121920085D01*
X157184907Y-121798096D01*
X156796523Y-121958959D01*
X156422959Y-122297361D01*
X156392103Y-122142235D01*
X156251755Y-121932191D01*
X156041711Y-121791843D01*
X155793946Y-121742560D01*
X154193946Y-121742560D01*
X153946181Y-121791843D01*
X153736137Y-121932191D01*
X153595789Y-122142235D01*
X153546506Y-122390000D01*
X151788747Y-122390000D01*
X157210061Y-116968688D01*
X157392613Y-117005000D01*
X157675279Y-117005000D01*
X158093855Y-116921740D01*
X158568523Y-116604577D01*
X158803946Y-116252242D01*
X159039369Y-116604577D01*
X159514037Y-116921740D01*
X159932613Y-117005000D01*
X160215279Y-117005000D01*
X160633855Y-116921740D01*
X161108523Y-116604577D01*
X161343946Y-116252242D01*
X161579369Y-116604577D01*
X162054037Y-116921740D01*
X162472613Y-117005000D01*
X162755279Y-117005000D01*
X163173855Y-116921740D01*
X163648523Y-116604577D01*
X163965686Y-116129909D01*
X164077059Y-115570000D01*
X163965686Y-115010091D01*
X163648523Y-114535423D01*
X163625441Y-114520000D01*
X173010604Y-114520000D01*
X172773466Y-114757138D01*
G36*
X139853748Y-129525858D02*
X139839605Y-129540000D01*
X139853748Y-129554143D01*
X139674142Y-129733748D01*
X139660000Y-129719605D01*
X139645858Y-129733748D01*
X139466253Y-129554143D01*
X139480395Y-129540000D01*
X139466253Y-129525858D01*
X139645858Y-129346253D01*
X139660000Y-129360395D01*
X139674143Y-129346253D01*
X139853748Y-129525858D01*
X139853748Y-129525858D01*
G37*
X139853748Y-129525858D02*
X139839605Y-129540000D01*
X139853748Y-129554143D01*
X139674142Y-129733748D01*
X139660000Y-129719605D01*
X139645858Y-129733748D01*
X139466253Y-129554143D01*
X139480395Y-129540000D01*
X139466253Y-129525858D01*
X139645858Y-129346253D01*
X139660000Y-129360395D01*
X139674143Y-129346253D01*
X139853748Y-129525858D01*
G36*
X113204782Y-101593250D02*
X113359515Y-101890290D01*
X114962897Y-101890290D01*
X114962897Y-101870290D01*
X115216897Y-101870290D01*
X115216897Y-101890290D01*
X116820279Y-101890290D01*
X116975012Y-101593250D01*
X116784846Y-100952280D01*
X121367400Y-100952280D01*
X121314266Y-101031800D01*
X121204897Y-101581635D01*
X121204897Y-102452944D01*
X121314266Y-103002779D01*
X121730888Y-103626299D01*
X122354407Y-104042921D01*
X122370471Y-104046116D01*
X122373994Y-104063827D01*
X122541969Y-104315219D01*
X122605425Y-104357619D01*
X137774999Y-119527194D01*
X137774999Y-123161508D01*
X137445439Y-123025000D01*
X136874561Y-123025000D01*
X136347138Y-123243466D01*
X135943466Y-123647138D01*
X135725000Y-124174561D01*
X135725000Y-124745439D01*
X135943466Y-125272862D01*
X136347138Y-125676534D01*
X136874561Y-125895000D01*
X137445439Y-125895000D01*
X137774999Y-125758491D01*
X137775000Y-128241509D01*
X137445439Y-128105000D01*
X136874561Y-128105000D01*
X136794999Y-128137956D01*
X136794999Y-128134845D01*
X136809887Y-128059997D01*
X136794999Y-127985149D01*
X136794999Y-127985145D01*
X136750903Y-127763460D01*
X136582928Y-127512068D01*
X136519472Y-127469668D01*
X128607243Y-119557440D01*
X129070000Y-119557440D01*
X129317765Y-119508157D01*
X129527809Y-119367809D01*
X129668157Y-119157765D01*
X129688101Y-119057497D01*
X129957138Y-119326534D01*
X130484561Y-119545000D01*
X131055439Y-119545000D01*
X131582862Y-119326534D01*
X131986534Y-118922862D01*
X132205000Y-118395439D01*
X132205000Y-117824561D01*
X131986534Y-117297138D01*
X131582862Y-116893466D01*
X131055439Y-116675000D01*
X130484561Y-116675000D01*
X129957138Y-116893466D01*
X129688101Y-117162503D01*
X129668157Y-117062235D01*
X129527809Y-116852191D01*
X129317765Y-116711843D01*
X129070000Y-116662560D01*
X127470000Y-116662560D01*
X127336520Y-116689111D01*
X114729058Y-104081650D01*
X114962897Y-103988862D01*
X114962897Y-102144290D01*
X115216897Y-102144290D01*
X115216897Y-103988862D01*
X115509542Y-104104985D01*
X115650508Y-104075511D01*
X116299810Y-103723332D01*
X116764914Y-103149484D01*
X116975012Y-102441330D01*
X116820279Y-102144290D01*
X115216897Y-102144290D01*
X114962897Y-102144290D01*
X113359515Y-102144290D01*
X113204782Y-102441330D01*
X113253734Y-102606325D01*
X112180228Y-101532820D01*
X112137826Y-101469361D01*
X111924167Y-101326598D01*
X111865528Y-101031800D01*
X111812394Y-100952280D01*
X113394948Y-100952280D01*
X113204782Y-101593250D01*
X113204782Y-101593250D01*
G37*
X113204782Y-101593250D02*
X113359515Y-101890290D01*
X114962897Y-101890290D01*
X114962897Y-101870290D01*
X115216897Y-101870290D01*
X115216897Y-101890290D01*
X116820279Y-101890290D01*
X116975012Y-101593250D01*
X116784846Y-100952280D01*
X121367400Y-100952280D01*
X121314266Y-101031800D01*
X121204897Y-101581635D01*
X121204897Y-102452944D01*
X121314266Y-103002779D01*
X121730888Y-103626299D01*
X122354407Y-104042921D01*
X122370471Y-104046116D01*
X122373994Y-104063827D01*
X122541969Y-104315219D01*
X122605425Y-104357619D01*
X137774999Y-119527194D01*
X137774999Y-123161508D01*
X137445439Y-123025000D01*
X136874561Y-123025000D01*
X136347138Y-123243466D01*
X135943466Y-123647138D01*
X135725000Y-124174561D01*
X135725000Y-124745439D01*
X135943466Y-125272862D01*
X136347138Y-125676534D01*
X136874561Y-125895000D01*
X137445439Y-125895000D01*
X137774999Y-125758491D01*
X137775000Y-128241509D01*
X137445439Y-128105000D01*
X136874561Y-128105000D01*
X136794999Y-128137956D01*
X136794999Y-128134845D01*
X136809887Y-128059997D01*
X136794999Y-127985149D01*
X136794999Y-127985145D01*
X136750903Y-127763460D01*
X136582928Y-127512068D01*
X136519472Y-127469668D01*
X128607243Y-119557440D01*
X129070000Y-119557440D01*
X129317765Y-119508157D01*
X129527809Y-119367809D01*
X129668157Y-119157765D01*
X129688101Y-119057497D01*
X129957138Y-119326534D01*
X130484561Y-119545000D01*
X131055439Y-119545000D01*
X131582862Y-119326534D01*
X131986534Y-118922862D01*
X132205000Y-118395439D01*
X132205000Y-117824561D01*
X131986534Y-117297138D01*
X131582862Y-116893466D01*
X131055439Y-116675000D01*
X130484561Y-116675000D01*
X129957138Y-116893466D01*
X129688101Y-117162503D01*
X129668157Y-117062235D01*
X129527809Y-116852191D01*
X129317765Y-116711843D01*
X129070000Y-116662560D01*
X127470000Y-116662560D01*
X127336520Y-116689111D01*
X114729058Y-104081650D01*
X114962897Y-103988862D01*
X114962897Y-102144290D01*
X115216897Y-102144290D01*
X115216897Y-103988862D01*
X115509542Y-104104985D01*
X115650508Y-104075511D01*
X116299810Y-103723332D01*
X116764914Y-103149484D01*
X116975012Y-102441330D01*
X116820279Y-102144290D01*
X115216897Y-102144290D01*
X114962897Y-102144290D01*
X113359515Y-102144290D01*
X113204782Y-102441330D01*
X113253734Y-102606325D01*
X112180228Y-101532820D01*
X112137826Y-101469361D01*
X111924167Y-101326598D01*
X111865528Y-101031800D01*
X111812394Y-100952280D01*
X113394948Y-100952280D01*
X113204782Y-101593250D01*
G36*
X190757583Y-40746966D02*
X191497086Y-40949271D01*
X192189074Y-41279333D01*
X192811679Y-41726720D01*
X193345214Y-42277286D01*
X193772822Y-42913635D01*
X194080987Y-43615652D01*
X194261229Y-44366411D01*
X194308946Y-45016203D01*
X194308946Y-54418287D01*
X187816188Y-47925530D01*
X187773786Y-47862071D01*
X187522394Y-47694096D01*
X187300709Y-47650000D01*
X187300704Y-47650000D01*
X187225857Y-47635112D01*
X187151010Y-47650000D01*
X156510000Y-47650000D01*
X156510000Y-47386282D01*
X156422388Y-46945827D01*
X156088649Y-46446351D01*
X155589173Y-46112612D01*
X155000000Y-45995418D01*
X154612332Y-46072530D01*
X154390321Y-45850520D01*
X154347919Y-45787061D01*
X154096527Y-45619086D01*
X153874842Y-45574990D01*
X153874837Y-45574990D01*
X153799990Y-45560102D01*
X153725143Y-45574990D01*
X146274856Y-45574990D01*
X146200009Y-45560102D01*
X146125162Y-45574990D01*
X146125158Y-45574990D01*
X145903473Y-45619086D01*
X145903471Y-45619087D01*
X145903472Y-45619087D01*
X145715536Y-45744661D01*
X145715534Y-45744663D01*
X145652081Y-45787061D01*
X145609683Y-45850514D01*
X145387668Y-46072530D01*
X145000000Y-45995418D01*
X144410828Y-46112612D01*
X143911352Y-46446351D01*
X143577613Y-46945827D01*
X143490000Y-47386282D01*
X143490000Y-49433717D01*
X143577612Y-49874172D01*
X143911351Y-50373649D01*
X144410827Y-50707388D01*
X145000000Y-50824582D01*
X145589172Y-50707388D01*
X146088649Y-50373649D01*
X146250000Y-50132170D01*
X146411351Y-50373649D01*
X146910827Y-50707388D01*
X147500000Y-50824582D01*
X148089172Y-50707388D01*
X148588649Y-50373649D01*
X148922388Y-49874173D01*
X149010000Y-49433718D01*
X149010000Y-47386282D01*
X148952058Y-47094990D01*
X151047942Y-47094990D01*
X150990000Y-47386282D01*
X150990000Y-49433717D01*
X151077612Y-49874172D01*
X151411351Y-50373649D01*
X151910827Y-50707388D01*
X152500000Y-50824582D01*
X153089172Y-50707388D01*
X153588649Y-50373649D01*
X153750000Y-50132170D01*
X153911351Y-50373649D01*
X154410827Y-50707388D01*
X155000000Y-50824582D01*
X155589172Y-50707388D01*
X156088649Y-50373649D01*
X156422388Y-49874173D01*
X156510000Y-49433718D01*
X156510000Y-49170000D01*
X186911056Y-49170000D01*
X189332325Y-51591269D01*
X189179798Y-51654448D01*
X189093392Y-51910932D01*
X189993946Y-52811486D01*
X190008089Y-52797344D01*
X190187694Y-52976949D01*
X190173551Y-52991091D01*
X191074105Y-53891645D01*
X191330589Y-53805239D01*
X191388368Y-53647313D01*
X193458948Y-55717893D01*
X193458948Y-57829640D01*
X193386554Y-57757246D01*
X192418080Y-57356091D01*
X191369812Y-57356091D01*
X190401338Y-57757246D01*
X189660101Y-58498483D01*
X189258946Y-59466957D01*
X189258946Y-59722292D01*
X188253946Y-58717292D01*
X188253946Y-54337760D01*
X188363453Y-54292401D01*
X188584604Y-54071250D01*
X189093392Y-54071250D01*
X189179798Y-54327734D01*
X189753282Y-54537549D01*
X190363406Y-54511930D01*
X190808094Y-54327734D01*
X190894500Y-54071250D01*
X189993946Y-53170696D01*
X189093392Y-54071250D01*
X188584604Y-54071250D01*
X188795256Y-53860598D01*
X188798485Y-53852801D01*
X188913787Y-53891645D01*
X189814341Y-52991091D01*
X188913787Y-52090537D01*
X188798485Y-52129381D01*
X188795256Y-52121584D01*
X188363453Y-51689781D01*
X187799276Y-51456091D01*
X187188616Y-51456091D01*
X186624439Y-51689781D01*
X186243946Y-52070274D01*
X185863453Y-51689781D01*
X185299276Y-51456091D01*
X184688616Y-51456091D01*
X184124439Y-51689781D01*
X183692636Y-52121584D01*
X183458946Y-52685761D01*
X183458946Y-53296421D01*
X183692636Y-53860598D01*
X184124439Y-54292401D01*
X184688616Y-54526091D01*
X185299276Y-54526091D01*
X185863453Y-54292401D01*
X186243946Y-53911908D01*
X186624439Y-54292401D01*
X186733946Y-54337760D01*
X186733946Y-54338734D01*
X186733947Y-54338739D01*
X186733946Y-58957246D01*
X186719058Y-59032093D01*
X186733946Y-59106940D01*
X186733946Y-59106944D01*
X186778042Y-59328629D01*
X186946017Y-59580022D01*
X187009476Y-59622424D01*
X190904908Y-63517857D01*
X190904907Y-87597054D01*
X190650508Y-87459069D01*
X190509542Y-87429595D01*
X190216897Y-87545718D01*
X190216897Y-89390290D01*
X190236897Y-89390290D01*
X190236897Y-89644290D01*
X190216897Y-89644290D01*
X190216897Y-91488862D01*
X190509542Y-91604985D01*
X190650508Y-91575511D01*
X190904907Y-91437526D01*
X190904907Y-100097054D01*
X190650508Y-99959069D01*
X190509542Y-99929595D01*
X190216897Y-100045718D01*
X190216897Y-101890290D01*
X190236897Y-101890290D01*
X190236897Y-102144290D01*
X190216897Y-102144290D01*
X190216897Y-103988862D01*
X190509542Y-104104985D01*
X190650508Y-104075511D01*
X190904907Y-103937526D01*
X190904907Y-106267090D01*
X185955532Y-111216467D01*
X185955526Y-111216471D01*
X185676124Y-111495874D01*
X184171999Y-113000000D01*
X155213790Y-113000000D01*
X155138943Y-112985112D01*
X155064096Y-113000000D01*
X155064092Y-113000000D01*
X154842407Y-113044096D01*
X154591015Y-113212071D01*
X154548615Y-113275527D01*
X152524143Y-115300000D01*
X145979804Y-115300000D01*
X142539533Y-111859730D01*
X142497131Y-111796271D01*
X142245739Y-111628296D01*
X142024054Y-111584200D01*
X142024049Y-111584200D01*
X141949202Y-111569312D01*
X141874355Y-111584200D01*
X139190647Y-111584200D01*
X139115800Y-111569312D01*
X139040953Y-111584200D01*
X139040948Y-111584200D01*
X138819263Y-111628296D01*
X138567871Y-111796271D01*
X138525471Y-111859727D01*
X137483886Y-112901312D01*
X137301333Y-112865000D01*
X137018667Y-112865000D01*
X136600091Y-112948260D01*
X136125423Y-113265423D01*
X135808260Y-113740091D01*
X135696887Y-114300000D01*
X135808260Y-114859909D01*
X136125423Y-115334577D01*
X136600091Y-115651740D01*
X137018667Y-115735000D01*
X137301333Y-115735000D01*
X137719909Y-115651740D01*
X138194577Y-115334577D01*
X138430000Y-114982242D01*
X138665423Y-115334577D01*
X139140091Y-115651740D01*
X139558667Y-115735000D01*
X139730199Y-115735000D01*
X139215530Y-116249669D01*
X139152071Y-116292071D01*
X138984096Y-116543464D01*
X138940000Y-116765149D01*
X138940000Y-116765153D01*
X138925112Y-116840000D01*
X138940000Y-116914847D01*
X138940000Y-118542591D01*
X124194018Y-103796610D01*
X124448906Y-103626299D01*
X124865528Y-103002780D01*
X124974897Y-102452945D01*
X124974897Y-102441330D01*
X126204782Y-102441330D01*
X126414880Y-103149484D01*
X126879984Y-103723332D01*
X127529286Y-104075511D01*
X127670252Y-104104985D01*
X127962897Y-103988862D01*
X127962897Y-102144290D01*
X128216897Y-102144290D01*
X128216897Y-103988862D01*
X128509542Y-104104985D01*
X128650508Y-104075511D01*
X129299810Y-103723332D01*
X129764914Y-103149484D01*
X129975012Y-102441330D01*
X129820279Y-102144290D01*
X128216897Y-102144290D01*
X127962897Y-102144290D01*
X126359515Y-102144290D01*
X126204782Y-102441330D01*
X124974897Y-102441330D01*
X124974897Y-101581636D01*
X124865528Y-101031800D01*
X124812394Y-100952280D01*
X126394948Y-100952280D01*
X126204782Y-101593250D01*
X126359515Y-101890290D01*
X127962897Y-101890290D01*
X127962897Y-101870290D01*
X128216897Y-101870290D01*
X128216897Y-101890290D01*
X129820279Y-101890290D01*
X129975012Y-101593250D01*
X129784846Y-100952280D01*
X132450086Y-100952280D01*
X133999567Y-102501762D01*
X134041968Y-102565219D01*
X134255627Y-102707982D01*
X134314266Y-103002779D01*
X134730888Y-103626299D01*
X135354407Y-104042921D01*
X136089897Y-104189219D01*
X136825386Y-104042921D01*
X137448906Y-103626299D01*
X137865528Y-103002780D01*
X137974897Y-102452945D01*
X137974897Y-102441330D01*
X139204782Y-102441330D01*
X139414880Y-103149484D01*
X139879984Y-103723332D01*
X140529286Y-104075511D01*
X140670252Y-104104985D01*
X140962897Y-103988862D01*
X140962897Y-102144290D01*
X141216897Y-102144290D01*
X141216897Y-103988862D01*
X141509542Y-104104985D01*
X141650508Y-104075511D01*
X142299810Y-103723332D01*
X142764914Y-103149484D01*
X142975012Y-102441330D01*
X142820279Y-102144290D01*
X141216897Y-102144290D01*
X140962897Y-102144290D01*
X139359515Y-102144290D01*
X139204782Y-102441330D01*
X137974897Y-102441330D01*
X137974897Y-101581636D01*
X137865528Y-101031800D01*
X137511708Y-100502271D01*
X139725160Y-100502271D01*
X139414880Y-100885096D01*
X139204782Y-101593250D01*
X139359515Y-101890290D01*
X140962897Y-101890290D01*
X140962897Y-101870290D01*
X141216897Y-101870290D01*
X141216897Y-101890290D01*
X142820279Y-101890290D01*
X142975012Y-101593250D01*
X142764914Y-100885096D01*
X142454634Y-100502271D01*
X145787377Y-100502271D01*
X149536870Y-104251766D01*
X149579268Y-104315219D01*
X149642721Y-104357617D01*
X149642723Y-104357619D01*
X149768099Y-104441392D01*
X149830660Y-104483194D01*
X150052345Y-104527290D01*
X150052349Y-104527290D01*
X150127196Y-104542178D01*
X150202043Y-104527290D01*
X157515050Y-104527290D01*
X157589897Y-104542178D01*
X157664744Y-104527290D01*
X157664749Y-104527290D01*
X157886434Y-104483194D01*
X158137826Y-104315219D01*
X158180228Y-104251760D01*
X158383317Y-104048672D01*
X159089897Y-104189219D01*
X159825386Y-104042921D01*
X160448906Y-103626299D01*
X160865528Y-103002780D01*
X160974897Y-102452945D01*
X160974897Y-102441330D01*
X162204782Y-102441330D01*
X162414880Y-103149484D01*
X162879984Y-103723332D01*
X163529286Y-104075511D01*
X163670252Y-104104985D01*
X163962897Y-103988862D01*
X163962897Y-102144290D01*
X164216897Y-102144290D01*
X164216897Y-103988862D01*
X164509542Y-104104985D01*
X164650508Y-104075511D01*
X165299810Y-103723332D01*
X165764914Y-103149484D01*
X165975012Y-102441330D01*
X165820279Y-102144290D01*
X164216897Y-102144290D01*
X163962897Y-102144290D01*
X162359515Y-102144290D01*
X162204782Y-102441330D01*
X160974897Y-102441330D01*
X160974897Y-101593250D01*
X162204782Y-101593250D01*
X162359515Y-101890290D01*
X163962897Y-101890290D01*
X163962897Y-100045718D01*
X164216897Y-100045718D01*
X164216897Y-101890290D01*
X165820279Y-101890290D01*
X165975012Y-101593250D01*
X165764914Y-100885096D01*
X165299810Y-100311248D01*
X164650508Y-99959069D01*
X164509542Y-99929595D01*
X164216897Y-100045718D01*
X163962897Y-100045718D01*
X163670252Y-99929595D01*
X163529286Y-99959069D01*
X162879984Y-100311248D01*
X162414880Y-100885096D01*
X162204782Y-101593250D01*
X160974897Y-101593250D01*
X160974897Y-101581636D01*
X160865528Y-101031800D01*
X160448906Y-100408281D01*
X159825387Y-99991659D01*
X159089897Y-99845361D01*
X158354408Y-99991659D01*
X157730888Y-100408281D01*
X157314266Y-101031800D01*
X157204897Y-101581635D01*
X157204897Y-102452944D01*
X157308516Y-102973870D01*
X157275096Y-103007290D01*
X150489959Y-103007290D01*
X151266026Y-102685832D01*
X151894741Y-102057117D01*
X152235000Y-101235660D01*
X152235000Y-100346522D01*
X151936587Y-99626090D01*
X167123896Y-99626090D01*
X169999567Y-102501762D01*
X170041968Y-102565219D01*
X170105424Y-102607619D01*
X170255627Y-102707982D01*
X170314266Y-103002779D01*
X170730888Y-103626299D01*
X171354407Y-104042921D01*
X171448206Y-104061579D01*
X165167286Y-110342500D01*
X156037118Y-110342500D01*
X155825874Y-110255000D01*
X155414126Y-110255000D01*
X155033720Y-110412569D01*
X154742569Y-110703720D01*
X154585000Y-111084126D01*
X154585000Y-111495874D01*
X154742569Y-111876280D01*
X155033720Y-112167431D01*
X155414126Y-112325000D01*
X155825874Y-112325000D01*
X156037118Y-112237500D01*
X165466435Y-112237500D01*
X165559752Y-112256062D01*
X165653069Y-112237500D01*
X165653070Y-112237500D01*
X165929448Y-112182525D01*
X166242861Y-111973109D01*
X166295724Y-111893994D01*
X174456407Y-103733313D01*
X174535516Y-103680454D01*
X174744932Y-103367041D01*
X174799907Y-103090663D01*
X174799907Y-103090659D01*
X174818468Y-102997346D01*
X174799907Y-102904033D01*
X174799907Y-102441330D01*
X175204782Y-102441330D01*
X175414880Y-103149484D01*
X175879984Y-103723332D01*
X176529286Y-104075511D01*
X176670252Y-104104985D01*
X176962897Y-103988862D01*
X176962897Y-102144290D01*
X177216897Y-102144290D01*
X177216897Y-103988862D01*
X177509542Y-104104985D01*
X177650508Y-104075511D01*
X178299810Y-103723332D01*
X178764914Y-103149484D01*
X178975012Y-102441330D01*
X178820279Y-102144290D01*
X177216897Y-102144290D01*
X176962897Y-102144290D01*
X175359515Y-102144290D01*
X175204782Y-102441330D01*
X174799907Y-102441330D01*
X174799907Y-101593250D01*
X175204782Y-101593250D01*
X175359515Y-101890290D01*
X176962897Y-101890290D01*
X176962897Y-100045718D01*
X177216897Y-100045718D01*
X177216897Y-101890290D01*
X178820279Y-101890290D01*
X178975012Y-101593250D01*
X178971567Y-101581635D01*
X183204897Y-101581635D01*
X183204897Y-102452944D01*
X183314266Y-103002779D01*
X183730888Y-103626299D01*
X184354407Y-104042921D01*
X185089897Y-104189219D01*
X185825386Y-104042921D01*
X186448906Y-103626299D01*
X186865528Y-103002780D01*
X186974897Y-102452945D01*
X186974897Y-102441330D01*
X188204782Y-102441330D01*
X188414880Y-103149484D01*
X188879984Y-103723332D01*
X189529286Y-104075511D01*
X189670252Y-104104985D01*
X189962897Y-103988862D01*
X189962897Y-102144290D01*
X188359515Y-102144290D01*
X188204782Y-102441330D01*
X186974897Y-102441330D01*
X186974897Y-101593250D01*
X188204782Y-101593250D01*
X188359515Y-101890290D01*
X189962897Y-101890290D01*
X189962897Y-100045718D01*
X189670252Y-99929595D01*
X189529286Y-99959069D01*
X188879984Y-100311248D01*
X188414880Y-100885096D01*
X188204782Y-101593250D01*
X186974897Y-101593250D01*
X186974897Y-101581636D01*
X186865528Y-101031800D01*
X186448906Y-100408281D01*
X185825387Y-99991659D01*
X185089897Y-99845361D01*
X184354408Y-99991659D01*
X183730888Y-100408281D01*
X183314266Y-101031800D01*
X183204897Y-101581635D01*
X178971567Y-101581635D01*
X178764914Y-100885096D01*
X178299810Y-100311248D01*
X177650508Y-99959069D01*
X177509542Y-99929595D01*
X177216897Y-100045718D01*
X176962897Y-100045718D01*
X176670252Y-99929595D01*
X176529286Y-99959069D01*
X175879984Y-100311248D01*
X175414880Y-100885096D01*
X175204782Y-101593250D01*
X174799907Y-101593250D01*
X174799907Y-89941330D01*
X175204782Y-89941330D01*
X175414880Y-90649484D01*
X175879984Y-91223332D01*
X176529286Y-91575511D01*
X176670252Y-91604985D01*
X176962897Y-91488862D01*
X176962897Y-89644290D01*
X177216897Y-89644290D01*
X177216897Y-91488862D01*
X177509542Y-91604985D01*
X177650508Y-91575511D01*
X178299810Y-91223332D01*
X178764914Y-90649484D01*
X178975012Y-89941330D01*
X178820279Y-89644290D01*
X177216897Y-89644290D01*
X176962897Y-89644290D01*
X175359515Y-89644290D01*
X175204782Y-89941330D01*
X174799907Y-89941330D01*
X174799907Y-89093250D01*
X175204782Y-89093250D01*
X175359515Y-89390290D01*
X176962897Y-89390290D01*
X176962897Y-87545718D01*
X177216897Y-87545718D01*
X177216897Y-89390290D01*
X178820279Y-89390290D01*
X178975012Y-89093250D01*
X178971567Y-89081635D01*
X183204897Y-89081635D01*
X183204897Y-89952944D01*
X183314266Y-90502779D01*
X183730888Y-91126299D01*
X184354407Y-91542921D01*
X185089897Y-91689219D01*
X185825386Y-91542921D01*
X186448906Y-91126299D01*
X186865528Y-90502780D01*
X186974897Y-89952945D01*
X186974897Y-89941330D01*
X188204782Y-89941330D01*
X188414880Y-90649484D01*
X188879984Y-91223332D01*
X189529286Y-91575511D01*
X189670252Y-91604985D01*
X189962897Y-91488862D01*
X189962897Y-89644290D01*
X188359515Y-89644290D01*
X188204782Y-89941330D01*
X186974897Y-89941330D01*
X186974897Y-89093250D01*
X188204782Y-89093250D01*
X188359515Y-89390290D01*
X189962897Y-89390290D01*
X189962897Y-87545718D01*
X189670252Y-87429595D01*
X189529286Y-87459069D01*
X188879984Y-87811248D01*
X188414880Y-88385096D01*
X188204782Y-89093250D01*
X186974897Y-89093250D01*
X186974897Y-89081636D01*
X186865528Y-88531800D01*
X186448906Y-87908281D01*
X185825387Y-87491659D01*
X185089897Y-87345361D01*
X184354408Y-87491659D01*
X183730888Y-87908281D01*
X183314266Y-88531800D01*
X183204897Y-89081635D01*
X178971567Y-89081635D01*
X178764914Y-88385096D01*
X178299810Y-87811248D01*
X177650508Y-87459069D01*
X177509542Y-87429595D01*
X177216897Y-87545718D01*
X176962897Y-87545718D01*
X176670252Y-87429595D01*
X176529286Y-87459069D01*
X175879984Y-87811248D01*
X175414880Y-88385096D01*
X175204782Y-89093250D01*
X174799907Y-89093250D01*
X174799907Y-88373118D01*
X174818469Y-88279800D01*
X174744932Y-87910104D01*
X174588376Y-87675802D01*
X174535516Y-87596691D01*
X174456404Y-87543830D01*
X172510023Y-85597449D01*
X178189343Y-85597449D01*
X178275749Y-85853933D01*
X178849233Y-86063748D01*
X179459357Y-86038129D01*
X179904045Y-85853933D01*
X179990451Y-85597449D01*
X179089897Y-84696895D01*
X178189343Y-85597449D01*
X172510023Y-85597449D01*
X171624897Y-84712324D01*
X171624897Y-84322257D01*
X171894865Y-84052289D01*
X177625515Y-84052289D01*
X177543439Y-84276626D01*
X177569058Y-84886750D01*
X177753254Y-85331438D01*
X178009738Y-85417844D01*
X178910292Y-84517290D01*
X178896150Y-84503148D01*
X179075755Y-84323543D01*
X179089897Y-84337685D01*
X179104040Y-84323543D01*
X179283645Y-84503148D01*
X179269502Y-84517290D01*
X180170056Y-85417844D01*
X180285358Y-85379000D01*
X180288587Y-85386797D01*
X180720390Y-85818600D01*
X181284567Y-86052290D01*
X181895227Y-86052290D01*
X182459404Y-85818600D01*
X182839897Y-85438107D01*
X183220390Y-85818600D01*
X183784567Y-86052290D01*
X184395227Y-86052290D01*
X184959404Y-85818600D01*
X185391207Y-85386797D01*
X185624897Y-84822620D01*
X185624897Y-84211960D01*
X185391207Y-83647783D01*
X184959404Y-83215980D01*
X184395227Y-82982290D01*
X183894864Y-82982290D01*
X183413368Y-82500794D01*
X183360505Y-82421680D01*
X183047092Y-82212264D01*
X182770714Y-82157289D01*
X182770713Y-82157289D01*
X182677396Y-82138727D01*
X182584079Y-82157289D01*
X171595710Y-82157289D01*
X171502397Y-82138728D01*
X171409085Y-82157289D01*
X171409080Y-82157289D01*
X171132702Y-82212264D01*
X170819289Y-82421680D01*
X170766428Y-82500792D01*
X170284930Y-82982290D01*
X169894864Y-82982290D01*
X169413368Y-82500794D01*
X169360505Y-82421680D01*
X169047092Y-82212264D01*
X168770714Y-82157289D01*
X168770713Y-82157289D01*
X168677396Y-82138727D01*
X168584079Y-82157289D01*
X136595710Y-82157289D01*
X136502397Y-82138728D01*
X136409085Y-82157289D01*
X136409080Y-82157289D01*
X136132702Y-82212264D01*
X135819289Y-82421680D01*
X135766428Y-82500792D01*
X135284930Y-82982290D01*
X134894865Y-82982290D01*
X133858579Y-81946005D01*
X133805716Y-81866891D01*
X133492303Y-81657475D01*
X133215925Y-81602500D01*
X133215924Y-81602500D01*
X133122607Y-81583938D01*
X133029290Y-81602500D01*
X123150499Y-81602500D01*
X123057186Y-81583939D01*
X122963873Y-81602500D01*
X122963869Y-81602500D01*
X122687491Y-81657475D01*
X122687489Y-81657476D01*
X122687490Y-81657476D01*
X122453188Y-81814031D01*
X122453187Y-81814032D01*
X122374078Y-81866891D01*
X122321219Y-81946000D01*
X121732737Y-82534482D01*
X121693897Y-82508530D01*
X121424896Y-82239530D01*
X121424896Y-79678742D01*
X121497289Y-79751135D01*
X122465763Y-80152290D01*
X123514031Y-80152290D01*
X124482505Y-79751135D01*
X125223742Y-79009898D01*
X125589897Y-78125921D01*
X125956052Y-79009898D01*
X126697289Y-79751135D01*
X127665763Y-80152290D01*
X128714031Y-80152290D01*
X129682505Y-79751135D01*
X130423742Y-79009898D01*
X130824897Y-78041424D01*
X130824897Y-76993156D01*
X134354897Y-76993156D01*
X134354897Y-78041424D01*
X134756052Y-79009898D01*
X135497289Y-79751135D01*
X136465763Y-80152290D01*
X137514031Y-80152290D01*
X138482505Y-79751135D01*
X139223742Y-79009898D01*
X139624897Y-78041424D01*
X139624897Y-76993156D01*
X139564160Y-76846522D01*
X147765000Y-76846522D01*
X147765000Y-77735660D01*
X148105259Y-78557117D01*
X148733974Y-79185832D01*
X149555431Y-79526091D01*
X150444569Y-79526091D01*
X151266026Y-79185832D01*
X151894741Y-78557117D01*
X152235000Y-77735660D01*
X152235000Y-76993156D01*
X160554897Y-76993156D01*
X160554897Y-78041424D01*
X160956052Y-79009898D01*
X161697289Y-79751135D01*
X162665763Y-80152290D01*
X163714031Y-80152290D01*
X164682505Y-79751135D01*
X165423742Y-79009898D01*
X165824897Y-78041424D01*
X165824897Y-76993156D01*
X169354897Y-76993156D01*
X169354897Y-78041424D01*
X169756052Y-79009898D01*
X170497289Y-79751135D01*
X171465763Y-80152290D01*
X172514031Y-80152290D01*
X173482505Y-79751135D01*
X174223742Y-79009898D01*
X174589897Y-78125921D01*
X174956052Y-79009898D01*
X175697289Y-79751135D01*
X176665763Y-80152290D01*
X177714031Y-80152290D01*
X178682505Y-79751135D01*
X179423742Y-79009898D01*
X179824897Y-78041424D01*
X179824897Y-76993156D01*
X183354897Y-76993156D01*
X183354897Y-78041424D01*
X183756052Y-79009898D01*
X184497289Y-79751135D01*
X185465763Y-80152290D01*
X186514031Y-80152290D01*
X187482505Y-79751135D01*
X188223742Y-79009898D01*
X188624897Y-78041424D01*
X188624897Y-76993156D01*
X188223742Y-76024682D01*
X187482505Y-75283445D01*
X186514031Y-74882290D01*
X185465763Y-74882290D01*
X184497289Y-75283445D01*
X183756052Y-76024682D01*
X183354897Y-76993156D01*
X179824897Y-76993156D01*
X179423742Y-76024682D01*
X178682505Y-75283445D01*
X177714031Y-74882290D01*
X176665763Y-74882290D01*
X175697289Y-75283445D01*
X174956052Y-76024682D01*
X174589897Y-76908659D01*
X174223742Y-76024682D01*
X173482505Y-75283445D01*
X172514031Y-74882290D01*
X171465763Y-74882290D01*
X170497289Y-75283445D01*
X169756052Y-76024682D01*
X169354897Y-76993156D01*
X165824897Y-76993156D01*
X165423742Y-76024682D01*
X164682505Y-75283445D01*
X163714031Y-74882290D01*
X162665763Y-74882290D01*
X161697289Y-75283445D01*
X160956052Y-76024682D01*
X160554897Y-76993156D01*
X152235000Y-76993156D01*
X152235000Y-76846522D01*
X151894741Y-76025065D01*
X151266026Y-75396350D01*
X150444569Y-75056091D01*
X149555431Y-75056091D01*
X148733974Y-75396350D01*
X148105259Y-76025065D01*
X147765000Y-76846522D01*
X139564160Y-76846522D01*
X139223742Y-76024682D01*
X138482505Y-75283445D01*
X137514031Y-74882290D01*
X136465763Y-74882290D01*
X135497289Y-75283445D01*
X134756052Y-76024682D01*
X134354897Y-76993156D01*
X130824897Y-76993156D01*
X130423742Y-76024682D01*
X129682505Y-75283445D01*
X128714031Y-74882290D01*
X127665763Y-74882290D01*
X126697289Y-75283445D01*
X125956052Y-76024682D01*
X125589897Y-76908659D01*
X125223742Y-76024682D01*
X124482505Y-75283445D01*
X123514031Y-74882290D01*
X122465763Y-74882290D01*
X121497289Y-75283445D01*
X121424896Y-75355838D01*
X121424896Y-66577910D01*
X121443458Y-66484592D01*
X121377509Y-66153040D01*
X127215000Y-66153040D01*
X127215000Y-66893600D01*
X127311673Y-67126989D01*
X127490302Y-67305617D01*
X127723691Y-67402290D01*
X128464250Y-67402290D01*
X128623000Y-67243540D01*
X128623000Y-65994290D01*
X127373750Y-65994290D01*
X127215000Y-66153040D01*
X121377509Y-66153040D01*
X121369921Y-66114896D01*
X121160505Y-65801483D01*
X121081393Y-65748623D01*
X120173750Y-64840980D01*
X127215000Y-64840980D01*
X127215000Y-65581540D01*
X127373750Y-65740290D01*
X128623000Y-65740290D01*
X128623000Y-64491040D01*
X128877000Y-64491040D01*
X128877000Y-65740290D01*
X128897000Y-65740290D01*
X128897000Y-65994290D01*
X128877000Y-65994290D01*
X128877000Y-67243540D01*
X129035750Y-67402290D01*
X129776309Y-67402290D01*
X130009698Y-67305617D01*
X130188327Y-67126989D01*
X130244139Y-66992246D01*
X130420493Y-67168600D01*
X130984670Y-67402290D01*
X131595330Y-67402290D01*
X132159507Y-67168600D01*
X132591310Y-66736797D01*
X132825000Y-66172620D01*
X132825000Y-66153040D01*
X137215000Y-66153040D01*
X137215000Y-66893600D01*
X137311673Y-67126989D01*
X137490302Y-67305617D01*
X137723691Y-67402290D01*
X138464250Y-67402290D01*
X138623000Y-67243540D01*
X138623000Y-65994290D01*
X137373750Y-65994290D01*
X137215000Y-66153040D01*
X132825000Y-66153040D01*
X132825000Y-65561960D01*
X132591310Y-64997783D01*
X132434507Y-64840980D01*
X137215000Y-64840980D01*
X137215000Y-65581540D01*
X137373750Y-65740290D01*
X138623000Y-65740290D01*
X138623000Y-64491040D01*
X138877000Y-64491040D01*
X138877000Y-65740290D01*
X138897000Y-65740290D01*
X138897000Y-65994290D01*
X138877000Y-65994290D01*
X138877000Y-67243540D01*
X139035750Y-67402290D01*
X139776309Y-67402290D01*
X140009698Y-67305617D01*
X140188327Y-67126989D01*
X140244139Y-66992246D01*
X140420493Y-67168600D01*
X140984670Y-67402290D01*
X141595330Y-67402290D01*
X142159507Y-67168600D01*
X142591310Y-66736797D01*
X142825000Y-66172620D01*
X142825000Y-66153040D01*
X147215000Y-66153040D01*
X147215000Y-66893600D01*
X147311673Y-67126989D01*
X147490302Y-67305617D01*
X147723691Y-67402290D01*
X148464250Y-67402290D01*
X148623000Y-67243540D01*
X148623000Y-65994290D01*
X147373750Y-65994290D01*
X147215000Y-66153040D01*
X142825000Y-66153040D01*
X142825000Y-65561960D01*
X142591310Y-64997783D01*
X142434507Y-64840980D01*
X147215000Y-64840980D01*
X147215000Y-65581540D01*
X147373750Y-65740290D01*
X148623000Y-65740290D01*
X148623000Y-64491040D01*
X148877000Y-64491040D01*
X148877000Y-65740290D01*
X148897000Y-65740290D01*
X148897000Y-65994290D01*
X148877000Y-65994290D01*
X148877000Y-67243540D01*
X149035750Y-67402290D01*
X149776309Y-67402290D01*
X150009698Y-67305617D01*
X150188327Y-67126989D01*
X150244139Y-66992246D01*
X150420493Y-67168600D01*
X150984670Y-67402290D01*
X151595330Y-67402290D01*
X152159507Y-67168600D01*
X152591310Y-66736797D01*
X152825000Y-66172620D01*
X152825000Y-66153040D01*
X157215000Y-66153040D01*
X157215000Y-66893600D01*
X157311673Y-67126989D01*
X157490302Y-67305617D01*
X157723691Y-67402290D01*
X158464250Y-67402290D01*
X158623000Y-67243540D01*
X158623000Y-65994290D01*
X157373750Y-65994290D01*
X157215000Y-66153040D01*
X152825000Y-66153040D01*
X152825000Y-65561960D01*
X152591310Y-64997783D01*
X152434507Y-64840980D01*
X157215000Y-64840980D01*
X157215000Y-65581540D01*
X157373750Y-65740290D01*
X158623000Y-65740290D01*
X158623000Y-64491040D01*
X158877000Y-64491040D01*
X158877000Y-65740290D01*
X158897000Y-65740290D01*
X158897000Y-65994290D01*
X158877000Y-65994290D01*
X158877000Y-67243540D01*
X159035750Y-67402290D01*
X159776309Y-67402290D01*
X160009698Y-67305617D01*
X160188327Y-67126989D01*
X160244139Y-66992246D01*
X160420493Y-67168600D01*
X160984670Y-67402290D01*
X161595330Y-67402290D01*
X162159507Y-67168600D01*
X162591310Y-66736797D01*
X162825000Y-66172620D01*
X162825000Y-66153040D01*
X167215000Y-66153040D01*
X167215000Y-66893600D01*
X167311673Y-67126989D01*
X167490302Y-67305617D01*
X167723691Y-67402290D01*
X168464250Y-67402290D01*
X168623000Y-67243540D01*
X168623000Y-65994290D01*
X167373750Y-65994290D01*
X167215000Y-66153040D01*
X162825000Y-66153040D01*
X162825000Y-65561960D01*
X162591310Y-64997783D01*
X162434507Y-64840980D01*
X167215000Y-64840980D01*
X167215000Y-65581540D01*
X167373750Y-65740290D01*
X168623000Y-65740290D01*
X168623000Y-64491040D01*
X168877000Y-64491040D01*
X168877000Y-65740290D01*
X168897000Y-65740290D01*
X168897000Y-65994290D01*
X168877000Y-65994290D01*
X168877000Y-67243540D01*
X169035750Y-67402290D01*
X169776309Y-67402290D01*
X170009698Y-67305617D01*
X170188327Y-67126989D01*
X170244139Y-66992246D01*
X170420493Y-67168600D01*
X170984670Y-67402290D01*
X171595330Y-67402290D01*
X172159507Y-67168600D01*
X172591310Y-66736797D01*
X172825000Y-66172620D01*
X172825000Y-65561960D01*
X172591310Y-64997783D01*
X172159507Y-64565980D01*
X171595330Y-64332290D01*
X170984670Y-64332290D01*
X170420493Y-64565980D01*
X170244139Y-64742334D01*
X170188327Y-64607591D01*
X170009698Y-64428963D01*
X169776309Y-64332290D01*
X169035750Y-64332290D01*
X168877000Y-64491040D01*
X168623000Y-64491040D01*
X168464250Y-64332290D01*
X167723691Y-64332290D01*
X167490302Y-64428963D01*
X167311673Y-64607591D01*
X167215000Y-64840980D01*
X162434507Y-64840980D01*
X162159507Y-64565980D01*
X161595330Y-64332290D01*
X160984670Y-64332290D01*
X160420493Y-64565980D01*
X160244139Y-64742334D01*
X160188327Y-64607591D01*
X160009698Y-64428963D01*
X159776309Y-64332290D01*
X159035750Y-64332290D01*
X158877000Y-64491040D01*
X158623000Y-64491040D01*
X158464250Y-64332290D01*
X157723691Y-64332290D01*
X157490302Y-64428963D01*
X157311673Y-64607591D01*
X157215000Y-64840980D01*
X152434507Y-64840980D01*
X152159507Y-64565980D01*
X151595330Y-64332290D01*
X150984670Y-64332290D01*
X150420493Y-64565980D01*
X150244139Y-64742334D01*
X150188327Y-64607591D01*
X150009698Y-64428963D01*
X149776309Y-64332290D01*
X149035750Y-64332290D01*
X148877000Y-64491040D01*
X148623000Y-64491040D01*
X148464250Y-64332290D01*
X147723691Y-64332290D01*
X147490302Y-64428963D01*
X147311673Y-64607591D01*
X147215000Y-64840980D01*
X142434507Y-64840980D01*
X142159507Y-64565980D01*
X141595330Y-64332290D01*
X140984670Y-64332290D01*
X140420493Y-64565980D01*
X140244139Y-64742334D01*
X140188327Y-64607591D01*
X140009698Y-64428963D01*
X139776309Y-64332290D01*
X139035750Y-64332290D01*
X138877000Y-64491040D01*
X138623000Y-64491040D01*
X138464250Y-64332290D01*
X137723691Y-64332290D01*
X137490302Y-64428963D01*
X137311673Y-64607591D01*
X137215000Y-64840980D01*
X132434507Y-64840980D01*
X132159507Y-64565980D01*
X131595330Y-64332290D01*
X130984670Y-64332290D01*
X130420493Y-64565980D01*
X130244139Y-64742334D01*
X130188327Y-64607591D01*
X130009698Y-64428963D01*
X129776309Y-64332290D01*
X129035750Y-64332290D01*
X128877000Y-64491040D01*
X128623000Y-64491040D01*
X128464250Y-64332290D01*
X127723691Y-64332290D01*
X127490302Y-64428963D01*
X127311673Y-64607591D01*
X127215000Y-64840980D01*
X120173750Y-64840980D01*
X115719867Y-60387097D01*
X115667004Y-60307982D01*
X115353591Y-60098566D01*
X115077213Y-60043591D01*
X115077212Y-60043591D01*
X114983895Y-60025029D01*
X114927147Y-60036317D01*
X114750163Y-59859333D01*
X114259494Y-59656091D01*
X113728398Y-59656091D01*
X113626850Y-59698153D01*
X113858046Y-59466957D01*
X180458946Y-59466957D01*
X180458946Y-60515225D01*
X180860101Y-61483699D01*
X181601338Y-62224936D01*
X182569812Y-62626091D01*
X183618080Y-62626091D01*
X184586554Y-62224936D01*
X185327791Y-61483699D01*
X185728946Y-60515225D01*
X185728946Y-59466957D01*
X185327791Y-58498483D01*
X184586554Y-57757246D01*
X183618080Y-57356091D01*
X182569812Y-57356091D01*
X181601338Y-57757246D01*
X180860101Y-58498483D01*
X180458946Y-59466957D01*
X113858046Y-59466957D01*
X113998913Y-59326091D01*
X114259494Y-59326091D01*
X114750163Y-59122849D01*
X115125704Y-58747308D01*
X115328946Y-58256639D01*
X115328946Y-57725543D01*
X115125704Y-57234874D01*
X114750163Y-56859333D01*
X114259494Y-56656091D01*
X113728398Y-56656091D01*
X113237729Y-56859333D01*
X112862188Y-57234874D01*
X112658946Y-57725543D01*
X112658946Y-57986124D01*
X105927421Y-64717650D01*
X105848306Y-64770513D01*
X105678946Y-65023979D01*
X105678946Y-51251468D01*
X111532446Y-51251468D01*
X111532446Y-52230714D01*
X111907187Y-53135419D01*
X112599618Y-53827850D01*
X113073092Y-54023970D01*
X112862188Y-54234874D01*
X112658946Y-54725543D01*
X112658946Y-55256639D01*
X112862188Y-55747308D01*
X113237729Y-56122849D01*
X113728398Y-56326091D01*
X114259494Y-56326091D01*
X114750163Y-56122849D01*
X115125704Y-55747308D01*
X115328946Y-55256639D01*
X115328946Y-54725543D01*
X115125704Y-54234874D01*
X114914800Y-54023970D01*
X115388274Y-53827850D01*
X116080705Y-53135419D01*
X116455446Y-52230714D01*
X116455446Y-51251468D01*
X116080705Y-50346763D01*
X115388274Y-49654332D01*
X114483569Y-49279591D01*
X113504323Y-49279591D01*
X112599618Y-49654332D01*
X111907187Y-50346763D01*
X111532446Y-51251468D01*
X105678946Y-51251468D01*
X105678946Y-45021597D01*
X105721345Y-44546522D01*
X107758946Y-44546522D01*
X107758946Y-45435660D01*
X108099205Y-46257117D01*
X108727920Y-46885832D01*
X109549377Y-47226091D01*
X110438515Y-47226091D01*
X111259972Y-46885832D01*
X111888687Y-46257117D01*
X112228946Y-45435660D01*
X112228946Y-44546522D01*
X111888687Y-43725065D01*
X111853372Y-43689750D01*
X147615000Y-43689750D01*
X147615000Y-44780310D01*
X147711673Y-45013699D01*
X147890302Y-45192327D01*
X148123691Y-45289000D01*
X149714250Y-45289000D01*
X149873000Y-45130250D01*
X149873000Y-43531000D01*
X150127000Y-43531000D01*
X150127000Y-45130250D01*
X150285750Y-45289000D01*
X151876309Y-45289000D01*
X152109698Y-45192327D01*
X152288327Y-45013699D01*
X152385000Y-44780310D01*
X152385000Y-44546522D01*
X187758946Y-44546522D01*
X187758946Y-45435660D01*
X188099205Y-46257117D01*
X188727920Y-46885832D01*
X189549377Y-47226091D01*
X190438515Y-47226091D01*
X191259972Y-46885832D01*
X191888687Y-46257117D01*
X192228946Y-45435660D01*
X192228946Y-44546522D01*
X191888687Y-43725065D01*
X191259972Y-43096350D01*
X190438515Y-42756091D01*
X189549377Y-42756091D01*
X188727920Y-43096350D01*
X188099205Y-43725065D01*
X187758946Y-44546522D01*
X152385000Y-44546522D01*
X152385000Y-43689750D01*
X152226250Y-43531000D01*
X150127000Y-43531000D01*
X149873000Y-43531000D01*
X147773750Y-43531000D01*
X147615000Y-43689750D01*
X111853372Y-43689750D01*
X111259972Y-43096350D01*
X110438515Y-42756091D01*
X109549377Y-42756091D01*
X108727920Y-43096350D01*
X108099205Y-43725065D01*
X107758946Y-44546522D01*
X105721345Y-44546522D01*
X105749821Y-44227454D01*
X105952126Y-43487951D01*
X106282188Y-42795963D01*
X106729575Y-42173358D01*
X106879892Y-42027690D01*
X147615000Y-42027690D01*
X147615000Y-43118250D01*
X147773750Y-43277000D01*
X149873000Y-43277000D01*
X149873000Y-41677750D01*
X150127000Y-41677750D01*
X150127000Y-43277000D01*
X152226250Y-43277000D01*
X152385000Y-43118250D01*
X152385000Y-42027690D01*
X152288327Y-41794301D01*
X152109698Y-41615673D01*
X151876309Y-41519000D01*
X150285750Y-41519000D01*
X150127000Y-41677750D01*
X149873000Y-41677750D01*
X149714250Y-41519000D01*
X148123691Y-41519000D01*
X147890302Y-41615673D01*
X147711673Y-41794301D01*
X147615000Y-42027690D01*
X106879892Y-42027690D01*
X107280141Y-41639823D01*
X107916490Y-41212215D01*
X108618507Y-40904050D01*
X109369266Y-40723808D01*
X110019058Y-40676091D01*
X189963440Y-40676091D01*
X190757583Y-40746966D01*
X190757583Y-40746966D01*
G37*
X190757583Y-40746966D02*
X191497086Y-40949271D01*
X192189074Y-41279333D01*
X192811679Y-41726720D01*
X193345214Y-42277286D01*
X193772822Y-42913635D01*
X194080987Y-43615652D01*
X194261229Y-44366411D01*
X194308946Y-45016203D01*
X194308946Y-54418287D01*
X187816188Y-47925530D01*
X187773786Y-47862071D01*
X187522394Y-47694096D01*
X187300709Y-47650000D01*
X187300704Y-47650000D01*
X187225857Y-47635112D01*
X187151010Y-47650000D01*
X156510000Y-47650000D01*
X156510000Y-47386282D01*
X156422388Y-46945827D01*
X156088649Y-46446351D01*
X155589173Y-46112612D01*
X155000000Y-45995418D01*
X154612332Y-46072530D01*
X154390321Y-45850520D01*
X154347919Y-45787061D01*
X154096527Y-45619086D01*
X153874842Y-45574990D01*
X153874837Y-45574990D01*
X153799990Y-45560102D01*
X153725143Y-45574990D01*
X146274856Y-45574990D01*
X146200009Y-45560102D01*
X146125162Y-45574990D01*
X146125158Y-45574990D01*
X145903473Y-45619086D01*
X145903471Y-45619087D01*
X145903472Y-45619087D01*
X145715536Y-45744661D01*
X145715534Y-45744663D01*
X145652081Y-45787061D01*
X145609683Y-45850514D01*
X145387668Y-46072530D01*
X145000000Y-45995418D01*
X144410828Y-46112612D01*
X143911352Y-46446351D01*
X143577613Y-46945827D01*
X143490000Y-47386282D01*
X143490000Y-49433717D01*
X143577612Y-49874172D01*
X143911351Y-50373649D01*
X144410827Y-50707388D01*
X145000000Y-50824582D01*
X145589172Y-50707388D01*
X146088649Y-50373649D01*
X146250000Y-50132170D01*
X146411351Y-50373649D01*
X146910827Y-50707388D01*
X147500000Y-50824582D01*
X148089172Y-50707388D01*
X148588649Y-50373649D01*
X148922388Y-49874173D01*
X149010000Y-49433718D01*
X149010000Y-47386282D01*
X148952058Y-47094990D01*
X151047942Y-47094990D01*
X150990000Y-47386282D01*
X150990000Y-49433717D01*
X151077612Y-49874172D01*
X151411351Y-50373649D01*
X151910827Y-50707388D01*
X152500000Y-50824582D01*
X153089172Y-50707388D01*
X153588649Y-50373649D01*
X153750000Y-50132170D01*
X153911351Y-50373649D01*
X154410827Y-50707388D01*
X155000000Y-50824582D01*
X155589172Y-50707388D01*
X156088649Y-50373649D01*
X156422388Y-49874173D01*
X156510000Y-49433718D01*
X156510000Y-49170000D01*
X186911056Y-49170000D01*
X189332325Y-51591269D01*
X189179798Y-51654448D01*
X189093392Y-51910932D01*
X189993946Y-52811486D01*
X190008089Y-52797344D01*
X190187694Y-52976949D01*
X190173551Y-52991091D01*
X191074105Y-53891645D01*
X191330589Y-53805239D01*
X191388368Y-53647313D01*
X193458948Y-55717893D01*
X193458948Y-57829640D01*
X193386554Y-57757246D01*
X192418080Y-57356091D01*
X191369812Y-57356091D01*
X190401338Y-57757246D01*
X189660101Y-58498483D01*
X189258946Y-59466957D01*
X189258946Y-59722292D01*
X188253946Y-58717292D01*
X188253946Y-54337760D01*
X188363453Y-54292401D01*
X188584604Y-54071250D01*
X189093392Y-54071250D01*
X189179798Y-54327734D01*
X189753282Y-54537549D01*
X190363406Y-54511930D01*
X190808094Y-54327734D01*
X190894500Y-54071250D01*
X189993946Y-53170696D01*
X189093392Y-54071250D01*
X188584604Y-54071250D01*
X188795256Y-53860598D01*
X188798485Y-53852801D01*
X188913787Y-53891645D01*
X189814341Y-52991091D01*
X188913787Y-52090537D01*
X188798485Y-52129381D01*
X188795256Y-52121584D01*
X188363453Y-51689781D01*
X187799276Y-51456091D01*
X187188616Y-51456091D01*
X186624439Y-51689781D01*
X186243946Y-52070274D01*
X185863453Y-51689781D01*
X185299276Y-51456091D01*
X184688616Y-51456091D01*
X184124439Y-51689781D01*
X183692636Y-52121584D01*
X183458946Y-52685761D01*
X183458946Y-53296421D01*
X183692636Y-53860598D01*
X184124439Y-54292401D01*
X184688616Y-54526091D01*
X185299276Y-54526091D01*
X185863453Y-54292401D01*
X186243946Y-53911908D01*
X186624439Y-54292401D01*
X186733946Y-54337760D01*
X186733946Y-54338734D01*
X186733947Y-54338739D01*
X186733946Y-58957246D01*
X186719058Y-59032093D01*
X186733946Y-59106940D01*
X186733946Y-59106944D01*
X186778042Y-59328629D01*
X186946017Y-59580022D01*
X187009476Y-59622424D01*
X190904908Y-63517857D01*
X190904907Y-87597054D01*
X190650508Y-87459069D01*
X190509542Y-87429595D01*
X190216897Y-87545718D01*
X190216897Y-89390290D01*
X190236897Y-89390290D01*
X190236897Y-89644290D01*
X190216897Y-89644290D01*
X190216897Y-91488862D01*
X190509542Y-91604985D01*
X190650508Y-91575511D01*
X190904907Y-91437526D01*
X190904907Y-100097054D01*
X190650508Y-99959069D01*
X190509542Y-99929595D01*
X190216897Y-100045718D01*
X190216897Y-101890290D01*
X190236897Y-101890290D01*
X190236897Y-102144290D01*
X190216897Y-102144290D01*
X190216897Y-103988862D01*
X190509542Y-104104985D01*
X190650508Y-104075511D01*
X190904907Y-103937526D01*
X190904907Y-106267090D01*
X185955532Y-111216467D01*
X185955526Y-111216471D01*
X185676124Y-111495874D01*
X184171999Y-113000000D01*
X155213790Y-113000000D01*
X155138943Y-112985112D01*
X155064096Y-113000000D01*
X155064092Y-113000000D01*
X154842407Y-113044096D01*
X154591015Y-113212071D01*
X154548615Y-113275527D01*
X152524143Y-115300000D01*
X145979804Y-115300000D01*
X142539533Y-111859730D01*
X142497131Y-111796271D01*
X142245739Y-111628296D01*
X142024054Y-111584200D01*
X142024049Y-111584200D01*
X141949202Y-111569312D01*
X141874355Y-111584200D01*
X139190647Y-111584200D01*
X139115800Y-111569312D01*
X139040953Y-111584200D01*
X139040948Y-111584200D01*
X138819263Y-111628296D01*
X138567871Y-111796271D01*
X138525471Y-111859727D01*
X137483886Y-112901312D01*
X137301333Y-112865000D01*
X137018667Y-112865000D01*
X136600091Y-112948260D01*
X136125423Y-113265423D01*
X135808260Y-113740091D01*
X135696887Y-114300000D01*
X135808260Y-114859909D01*
X136125423Y-115334577D01*
X136600091Y-115651740D01*
X137018667Y-115735000D01*
X137301333Y-115735000D01*
X137719909Y-115651740D01*
X138194577Y-115334577D01*
X138430000Y-114982242D01*
X138665423Y-115334577D01*
X139140091Y-115651740D01*
X139558667Y-115735000D01*
X139730199Y-115735000D01*
X139215530Y-116249669D01*
X139152071Y-116292071D01*
X138984096Y-116543464D01*
X138940000Y-116765149D01*
X138940000Y-116765153D01*
X138925112Y-116840000D01*
X138940000Y-116914847D01*
X138940000Y-118542591D01*
X124194018Y-103796610D01*
X124448906Y-103626299D01*
X124865528Y-103002780D01*
X124974897Y-102452945D01*
X124974897Y-102441330D01*
X126204782Y-102441330D01*
X126414880Y-103149484D01*
X126879984Y-103723332D01*
X127529286Y-104075511D01*
X127670252Y-104104985D01*
X127962897Y-103988862D01*
X127962897Y-102144290D01*
X128216897Y-102144290D01*
X128216897Y-103988862D01*
X128509542Y-104104985D01*
X128650508Y-104075511D01*
X129299810Y-103723332D01*
X129764914Y-103149484D01*
X129975012Y-102441330D01*
X129820279Y-102144290D01*
X128216897Y-102144290D01*
X127962897Y-102144290D01*
X126359515Y-102144290D01*
X126204782Y-102441330D01*
X124974897Y-102441330D01*
X124974897Y-101581636D01*
X124865528Y-101031800D01*
X124812394Y-100952280D01*
X126394948Y-100952280D01*
X126204782Y-101593250D01*
X126359515Y-101890290D01*
X127962897Y-101890290D01*
X127962897Y-101870290D01*
X128216897Y-101870290D01*
X128216897Y-101890290D01*
X129820279Y-101890290D01*
X129975012Y-101593250D01*
X129784846Y-100952280D01*
X132450086Y-100952280D01*
X133999567Y-102501762D01*
X134041968Y-102565219D01*
X134255627Y-102707982D01*
X134314266Y-103002779D01*
X134730888Y-103626299D01*
X135354407Y-104042921D01*
X136089897Y-104189219D01*
X136825386Y-104042921D01*
X137448906Y-103626299D01*
X137865528Y-103002780D01*
X137974897Y-102452945D01*
X137974897Y-102441330D01*
X139204782Y-102441330D01*
X139414880Y-103149484D01*
X139879984Y-103723332D01*
X140529286Y-104075511D01*
X140670252Y-104104985D01*
X140962897Y-103988862D01*
X140962897Y-102144290D01*
X141216897Y-102144290D01*
X141216897Y-103988862D01*
X141509542Y-104104985D01*
X141650508Y-104075511D01*
X142299810Y-103723332D01*
X142764914Y-103149484D01*
X142975012Y-102441330D01*
X142820279Y-102144290D01*
X141216897Y-102144290D01*
X140962897Y-102144290D01*
X139359515Y-102144290D01*
X139204782Y-102441330D01*
X137974897Y-102441330D01*
X137974897Y-101581636D01*
X137865528Y-101031800D01*
X137511708Y-100502271D01*
X139725160Y-100502271D01*
X139414880Y-100885096D01*
X139204782Y-101593250D01*
X139359515Y-101890290D01*
X140962897Y-101890290D01*
X140962897Y-101870290D01*
X141216897Y-101870290D01*
X141216897Y-101890290D01*
X142820279Y-101890290D01*
X142975012Y-101593250D01*
X142764914Y-100885096D01*
X142454634Y-100502271D01*
X145787377Y-100502271D01*
X149536870Y-104251766D01*
X149579268Y-104315219D01*
X149642721Y-104357617D01*
X149642723Y-104357619D01*
X149768099Y-104441392D01*
X149830660Y-104483194D01*
X150052345Y-104527290D01*
X150052349Y-104527290D01*
X150127196Y-104542178D01*
X150202043Y-104527290D01*
X157515050Y-104527290D01*
X157589897Y-104542178D01*
X157664744Y-104527290D01*
X157664749Y-104527290D01*
X157886434Y-104483194D01*
X158137826Y-104315219D01*
X158180228Y-104251760D01*
X158383317Y-104048672D01*
X159089897Y-104189219D01*
X159825386Y-104042921D01*
X160448906Y-103626299D01*
X160865528Y-103002780D01*
X160974897Y-102452945D01*
X160974897Y-102441330D01*
X162204782Y-102441330D01*
X162414880Y-103149484D01*
X162879984Y-103723332D01*
X163529286Y-104075511D01*
X163670252Y-104104985D01*
X163962897Y-103988862D01*
X163962897Y-102144290D01*
X164216897Y-102144290D01*
X164216897Y-103988862D01*
X164509542Y-104104985D01*
X164650508Y-104075511D01*
X165299810Y-103723332D01*
X165764914Y-103149484D01*
X165975012Y-102441330D01*
X165820279Y-102144290D01*
X164216897Y-102144290D01*
X163962897Y-102144290D01*
X162359515Y-102144290D01*
X162204782Y-102441330D01*
X160974897Y-102441330D01*
X160974897Y-101593250D01*
X162204782Y-101593250D01*
X162359515Y-101890290D01*
X163962897Y-101890290D01*
X163962897Y-100045718D01*
X164216897Y-100045718D01*
X164216897Y-101890290D01*
X165820279Y-101890290D01*
X165975012Y-101593250D01*
X165764914Y-100885096D01*
X165299810Y-100311248D01*
X164650508Y-99959069D01*
X164509542Y-99929595D01*
X164216897Y-100045718D01*
X163962897Y-100045718D01*
X163670252Y-99929595D01*
X163529286Y-99959069D01*
X162879984Y-100311248D01*
X162414880Y-100885096D01*
X162204782Y-101593250D01*
X160974897Y-101593250D01*
X160974897Y-101581636D01*
X160865528Y-101031800D01*
X160448906Y-100408281D01*
X159825387Y-99991659D01*
X159089897Y-99845361D01*
X158354408Y-99991659D01*
X157730888Y-100408281D01*
X157314266Y-101031800D01*
X157204897Y-101581635D01*
X157204897Y-102452944D01*
X157308516Y-102973870D01*
X157275096Y-103007290D01*
X150489959Y-103007290D01*
X151266026Y-102685832D01*
X151894741Y-102057117D01*
X152235000Y-101235660D01*
X152235000Y-100346522D01*
X151936587Y-99626090D01*
X167123896Y-99626090D01*
X169999567Y-102501762D01*
X170041968Y-102565219D01*
X170105424Y-102607619D01*
X170255627Y-102707982D01*
X170314266Y-103002779D01*
X170730888Y-103626299D01*
X171354407Y-104042921D01*
X171448206Y-104061579D01*
X165167286Y-110342500D01*
X156037118Y-110342500D01*
X155825874Y-110255000D01*
X155414126Y-110255000D01*
X155033720Y-110412569D01*
X154742569Y-110703720D01*
X154585000Y-111084126D01*
X154585000Y-111495874D01*
X154742569Y-111876280D01*
X155033720Y-112167431D01*
X155414126Y-112325000D01*
X155825874Y-112325000D01*
X156037118Y-112237500D01*
X165466435Y-112237500D01*
X165559752Y-112256062D01*
X165653069Y-112237500D01*
X165653070Y-112237500D01*
X165929448Y-112182525D01*
X166242861Y-111973109D01*
X166295724Y-111893994D01*
X174456407Y-103733313D01*
X174535516Y-103680454D01*
X174744932Y-103367041D01*
X174799907Y-103090663D01*
X174799907Y-103090659D01*
X174818468Y-102997346D01*
X174799907Y-102904033D01*
X174799907Y-102441330D01*
X175204782Y-102441330D01*
X175414880Y-103149484D01*
X175879984Y-103723332D01*
X176529286Y-104075511D01*
X176670252Y-104104985D01*
X176962897Y-103988862D01*
X176962897Y-102144290D01*
X177216897Y-102144290D01*
X177216897Y-103988862D01*
X177509542Y-104104985D01*
X177650508Y-104075511D01*
X178299810Y-103723332D01*
X178764914Y-103149484D01*
X178975012Y-102441330D01*
X178820279Y-102144290D01*
X177216897Y-102144290D01*
X176962897Y-102144290D01*
X175359515Y-102144290D01*
X175204782Y-102441330D01*
X174799907Y-102441330D01*
X174799907Y-101593250D01*
X175204782Y-101593250D01*
X175359515Y-101890290D01*
X176962897Y-101890290D01*
X176962897Y-100045718D01*
X177216897Y-100045718D01*
X177216897Y-101890290D01*
X178820279Y-101890290D01*
X178975012Y-101593250D01*
X178971567Y-101581635D01*
X183204897Y-101581635D01*
X183204897Y-102452944D01*
X183314266Y-103002779D01*
X183730888Y-103626299D01*
X184354407Y-104042921D01*
X185089897Y-104189219D01*
X185825386Y-104042921D01*
X186448906Y-103626299D01*
X186865528Y-103002780D01*
X186974897Y-102452945D01*
X186974897Y-102441330D01*
X188204782Y-102441330D01*
X188414880Y-103149484D01*
X188879984Y-103723332D01*
X189529286Y-104075511D01*
X189670252Y-104104985D01*
X189962897Y-103988862D01*
X189962897Y-102144290D01*
X188359515Y-102144290D01*
X188204782Y-102441330D01*
X186974897Y-102441330D01*
X186974897Y-101593250D01*
X188204782Y-101593250D01*
X188359515Y-101890290D01*
X189962897Y-101890290D01*
X189962897Y-100045718D01*
X189670252Y-99929595D01*
X189529286Y-99959069D01*
X188879984Y-100311248D01*
X188414880Y-100885096D01*
X188204782Y-101593250D01*
X186974897Y-101593250D01*
X186974897Y-101581636D01*
X186865528Y-101031800D01*
X186448906Y-100408281D01*
X185825387Y-99991659D01*
X185089897Y-99845361D01*
X184354408Y-99991659D01*
X183730888Y-100408281D01*
X183314266Y-101031800D01*
X183204897Y-101581635D01*
X178971567Y-101581635D01*
X178764914Y-100885096D01*
X178299810Y-100311248D01*
X177650508Y-99959069D01*
X177509542Y-99929595D01*
X177216897Y-100045718D01*
X176962897Y-100045718D01*
X176670252Y-99929595D01*
X176529286Y-99959069D01*
X175879984Y-100311248D01*
X175414880Y-100885096D01*
X175204782Y-101593250D01*
X174799907Y-101593250D01*
X174799907Y-89941330D01*
X175204782Y-89941330D01*
X175414880Y-90649484D01*
X175879984Y-91223332D01*
X176529286Y-91575511D01*
X176670252Y-91604985D01*
X176962897Y-91488862D01*
X176962897Y-89644290D01*
X177216897Y-89644290D01*
X177216897Y-91488862D01*
X177509542Y-91604985D01*
X177650508Y-91575511D01*
X178299810Y-91223332D01*
X178764914Y-90649484D01*
X178975012Y-89941330D01*
X178820279Y-89644290D01*
X177216897Y-89644290D01*
X176962897Y-89644290D01*
X175359515Y-89644290D01*
X175204782Y-89941330D01*
X174799907Y-89941330D01*
X174799907Y-89093250D01*
X175204782Y-89093250D01*
X175359515Y-89390290D01*
X176962897Y-89390290D01*
X176962897Y-87545718D01*
X177216897Y-87545718D01*
X177216897Y-89390290D01*
X178820279Y-89390290D01*
X178975012Y-89093250D01*
X178971567Y-89081635D01*
X183204897Y-89081635D01*
X183204897Y-89952944D01*
X183314266Y-90502779D01*
X183730888Y-91126299D01*
X184354407Y-91542921D01*
X185089897Y-91689219D01*
X185825386Y-91542921D01*
X186448906Y-91126299D01*
X186865528Y-90502780D01*
X186974897Y-89952945D01*
X186974897Y-89941330D01*
X188204782Y-89941330D01*
X188414880Y-90649484D01*
X188879984Y-91223332D01*
X189529286Y-91575511D01*
X189670252Y-91604985D01*
X189962897Y-91488862D01*
X189962897Y-89644290D01*
X188359515Y-89644290D01*
X188204782Y-89941330D01*
X186974897Y-89941330D01*
X186974897Y-89093250D01*
X188204782Y-89093250D01*
X188359515Y-89390290D01*
X189962897Y-89390290D01*
X189962897Y-87545718D01*
X189670252Y-87429595D01*
X189529286Y-87459069D01*
X188879984Y-87811248D01*
X188414880Y-88385096D01*
X188204782Y-89093250D01*
X186974897Y-89093250D01*
X186974897Y-89081636D01*
X186865528Y-88531800D01*
X186448906Y-87908281D01*
X185825387Y-87491659D01*
X185089897Y-87345361D01*
X184354408Y-87491659D01*
X183730888Y-87908281D01*
X183314266Y-88531800D01*
X183204897Y-89081635D01*
X178971567Y-89081635D01*
X178764914Y-88385096D01*
X178299810Y-87811248D01*
X177650508Y-87459069D01*
X177509542Y-87429595D01*
X177216897Y-87545718D01*
X176962897Y-87545718D01*
X176670252Y-87429595D01*
X176529286Y-87459069D01*
X175879984Y-87811248D01*
X175414880Y-88385096D01*
X175204782Y-89093250D01*
X174799907Y-89093250D01*
X174799907Y-88373118D01*
X174818469Y-88279800D01*
X174744932Y-87910104D01*
X174588376Y-87675802D01*
X174535516Y-87596691D01*
X174456404Y-87543830D01*
X172510023Y-85597449D01*
X178189343Y-85597449D01*
X178275749Y-85853933D01*
X178849233Y-86063748D01*
X179459357Y-86038129D01*
X179904045Y-85853933D01*
X179990451Y-85597449D01*
X179089897Y-84696895D01*
X178189343Y-85597449D01*
X172510023Y-85597449D01*
X171624897Y-84712324D01*
X171624897Y-84322257D01*
X171894865Y-84052289D01*
X177625515Y-84052289D01*
X177543439Y-84276626D01*
X177569058Y-84886750D01*
X177753254Y-85331438D01*
X178009738Y-85417844D01*
X178910292Y-84517290D01*
X178896150Y-84503148D01*
X179075755Y-84323543D01*
X179089897Y-84337685D01*
X179104040Y-84323543D01*
X179283645Y-84503148D01*
X179269502Y-84517290D01*
X180170056Y-85417844D01*
X180285358Y-85379000D01*
X180288587Y-85386797D01*
X180720390Y-85818600D01*
X181284567Y-86052290D01*
X181895227Y-86052290D01*
X182459404Y-85818600D01*
X182839897Y-85438107D01*
X183220390Y-85818600D01*
X183784567Y-86052290D01*
X184395227Y-86052290D01*
X184959404Y-85818600D01*
X185391207Y-85386797D01*
X185624897Y-84822620D01*
X185624897Y-84211960D01*
X185391207Y-83647783D01*
X184959404Y-83215980D01*
X184395227Y-82982290D01*
X183894864Y-82982290D01*
X183413368Y-82500794D01*
X183360505Y-82421680D01*
X183047092Y-82212264D01*
X182770714Y-82157289D01*
X182770713Y-82157289D01*
X182677396Y-82138727D01*
X182584079Y-82157289D01*
X171595710Y-82157289D01*
X171502397Y-82138728D01*
X171409085Y-82157289D01*
X171409080Y-82157289D01*
X171132702Y-82212264D01*
X170819289Y-82421680D01*
X170766428Y-82500792D01*
X170284930Y-82982290D01*
X169894864Y-82982290D01*
X169413368Y-82500794D01*
X169360505Y-82421680D01*
X169047092Y-82212264D01*
X168770714Y-82157289D01*
X168770713Y-82157289D01*
X168677396Y-82138727D01*
X168584079Y-82157289D01*
X136595710Y-82157289D01*
X136502397Y-82138728D01*
X136409085Y-82157289D01*
X136409080Y-82157289D01*
X136132702Y-82212264D01*
X135819289Y-82421680D01*
X135766428Y-82500792D01*
X135284930Y-82982290D01*
X134894865Y-82982290D01*
X133858579Y-81946005D01*
X133805716Y-81866891D01*
X133492303Y-81657475D01*
X133215925Y-81602500D01*
X133215924Y-81602500D01*
X133122607Y-81583938D01*
X133029290Y-81602500D01*
X123150499Y-81602500D01*
X123057186Y-81583939D01*
X122963873Y-81602500D01*
X122963869Y-81602500D01*
X122687491Y-81657475D01*
X122687489Y-81657476D01*
X122687490Y-81657476D01*
X122453188Y-81814031D01*
X122453187Y-81814032D01*
X122374078Y-81866891D01*
X122321219Y-81946000D01*
X121732737Y-82534482D01*
X121693897Y-82508530D01*
X121424896Y-82239530D01*
X121424896Y-79678742D01*
X121497289Y-79751135D01*
X122465763Y-80152290D01*
X123514031Y-80152290D01*
X124482505Y-79751135D01*
X125223742Y-79009898D01*
X125589897Y-78125921D01*
X125956052Y-79009898D01*
X126697289Y-79751135D01*
X127665763Y-80152290D01*
X128714031Y-80152290D01*
X129682505Y-79751135D01*
X130423742Y-79009898D01*
X130824897Y-78041424D01*
X130824897Y-76993156D01*
X134354897Y-76993156D01*
X134354897Y-78041424D01*
X134756052Y-79009898D01*
X135497289Y-79751135D01*
X136465763Y-80152290D01*
X137514031Y-80152290D01*
X138482505Y-79751135D01*
X139223742Y-79009898D01*
X139624897Y-78041424D01*
X139624897Y-76993156D01*
X139564160Y-76846522D01*
X147765000Y-76846522D01*
X147765000Y-77735660D01*
X148105259Y-78557117D01*
X148733974Y-79185832D01*
X149555431Y-79526091D01*
X150444569Y-79526091D01*
X151266026Y-79185832D01*
X151894741Y-78557117D01*
X152235000Y-77735660D01*
X152235000Y-76993156D01*
X160554897Y-76993156D01*
X160554897Y-78041424D01*
X160956052Y-79009898D01*
X161697289Y-79751135D01*
X162665763Y-80152290D01*
X163714031Y-80152290D01*
X164682505Y-79751135D01*
X165423742Y-79009898D01*
X165824897Y-78041424D01*
X165824897Y-76993156D01*
X169354897Y-76993156D01*
X169354897Y-78041424D01*
X169756052Y-79009898D01*
X170497289Y-79751135D01*
X171465763Y-80152290D01*
X172514031Y-80152290D01*
X173482505Y-79751135D01*
X174223742Y-79009898D01*
X174589897Y-78125921D01*
X174956052Y-79009898D01*
X175697289Y-79751135D01*
X176665763Y-80152290D01*
X177714031Y-80152290D01*
X178682505Y-79751135D01*
X179423742Y-79009898D01*
X179824897Y-78041424D01*
X179824897Y-76993156D01*
X183354897Y-76993156D01*
X183354897Y-78041424D01*
X183756052Y-79009898D01*
X184497289Y-79751135D01*
X185465763Y-80152290D01*
X186514031Y-80152290D01*
X187482505Y-79751135D01*
X188223742Y-79009898D01*
X188624897Y-78041424D01*
X188624897Y-76993156D01*
X188223742Y-76024682D01*
X187482505Y-75283445D01*
X186514031Y-74882290D01*
X185465763Y-74882290D01*
X184497289Y-75283445D01*
X183756052Y-76024682D01*
X183354897Y-76993156D01*
X179824897Y-76993156D01*
X179423742Y-76024682D01*
X178682505Y-75283445D01*
X177714031Y-74882290D01*
X176665763Y-74882290D01*
X175697289Y-75283445D01*
X174956052Y-76024682D01*
X174589897Y-76908659D01*
X174223742Y-76024682D01*
X173482505Y-75283445D01*
X172514031Y-74882290D01*
X171465763Y-74882290D01*
X170497289Y-75283445D01*
X169756052Y-76024682D01*
X169354897Y-76993156D01*
X165824897Y-76993156D01*
X165423742Y-76024682D01*
X164682505Y-75283445D01*
X163714031Y-74882290D01*
X162665763Y-74882290D01*
X161697289Y-75283445D01*
X160956052Y-76024682D01*
X160554897Y-76993156D01*
X152235000Y-76993156D01*
X152235000Y-76846522D01*
X151894741Y-76025065D01*
X151266026Y-75396350D01*
X150444569Y-75056091D01*
X149555431Y-75056091D01*
X148733974Y-75396350D01*
X148105259Y-76025065D01*
X147765000Y-76846522D01*
X139564160Y-76846522D01*
X139223742Y-76024682D01*
X138482505Y-75283445D01*
X137514031Y-74882290D01*
X136465763Y-74882290D01*
X135497289Y-75283445D01*
X134756052Y-76024682D01*
X134354897Y-76993156D01*
X130824897Y-76993156D01*
X130423742Y-76024682D01*
X129682505Y-75283445D01*
X128714031Y-74882290D01*
X127665763Y-74882290D01*
X126697289Y-75283445D01*
X125956052Y-76024682D01*
X125589897Y-76908659D01*
X125223742Y-76024682D01*
X124482505Y-75283445D01*
X123514031Y-74882290D01*
X122465763Y-74882290D01*
X121497289Y-75283445D01*
X121424896Y-75355838D01*
X121424896Y-66577910D01*
X121443458Y-66484592D01*
X121377509Y-66153040D01*
X127215000Y-66153040D01*
X127215000Y-66893600D01*
X127311673Y-67126989D01*
X127490302Y-67305617D01*
X127723691Y-67402290D01*
X128464250Y-67402290D01*
X128623000Y-67243540D01*
X128623000Y-65994290D01*
X127373750Y-65994290D01*
X127215000Y-66153040D01*
X121377509Y-66153040D01*
X121369921Y-66114896D01*
X121160505Y-65801483D01*
X121081393Y-65748623D01*
X120173750Y-64840980D01*
X127215000Y-64840980D01*
X127215000Y-65581540D01*
X127373750Y-65740290D01*
X128623000Y-65740290D01*
X128623000Y-64491040D01*
X128877000Y-64491040D01*
X128877000Y-65740290D01*
X128897000Y-65740290D01*
X128897000Y-65994290D01*
X128877000Y-65994290D01*
X128877000Y-67243540D01*
X129035750Y-67402290D01*
X129776309Y-67402290D01*
X130009698Y-67305617D01*
X130188327Y-67126989D01*
X130244139Y-66992246D01*
X130420493Y-67168600D01*
X130984670Y-67402290D01*
X131595330Y-67402290D01*
X132159507Y-67168600D01*
X132591310Y-66736797D01*
X132825000Y-66172620D01*
X132825000Y-66153040D01*
X137215000Y-66153040D01*
X137215000Y-66893600D01*
X137311673Y-67126989D01*
X137490302Y-67305617D01*
X137723691Y-67402290D01*
X138464250Y-67402290D01*
X138623000Y-67243540D01*
X138623000Y-65994290D01*
X137373750Y-65994290D01*
X137215000Y-66153040D01*
X132825000Y-66153040D01*
X132825000Y-65561960D01*
X132591310Y-64997783D01*
X132434507Y-64840980D01*
X137215000Y-64840980D01*
X137215000Y-65581540D01*
X137373750Y-65740290D01*
X138623000Y-65740290D01*
X138623000Y-64491040D01*
X138877000Y-64491040D01*
X138877000Y-65740290D01*
X138897000Y-65740290D01*
X138897000Y-65994290D01*
X138877000Y-65994290D01*
X138877000Y-67243540D01*
X139035750Y-67402290D01*
X139776309Y-67402290D01*
X140009698Y-67305617D01*
X140188327Y-67126989D01*
X140244139Y-66992246D01*
X140420493Y-67168600D01*
X140984670Y-67402290D01*
X141595330Y-67402290D01*
X142159507Y-67168600D01*
X142591310Y-66736797D01*
X142825000Y-66172620D01*
X142825000Y-66153040D01*
X147215000Y-66153040D01*
X147215000Y-66893600D01*
X147311673Y-67126989D01*
X147490302Y-67305617D01*
X147723691Y-67402290D01*
X148464250Y-67402290D01*
X148623000Y-67243540D01*
X148623000Y-65994290D01*
X147373750Y-65994290D01*
X147215000Y-66153040D01*
X142825000Y-66153040D01*
X142825000Y-65561960D01*
X142591310Y-64997783D01*
X142434507Y-64840980D01*
X147215000Y-64840980D01*
X147215000Y-65581540D01*
X147373750Y-65740290D01*
X148623000Y-65740290D01*
X148623000Y-64491040D01*
X148877000Y-64491040D01*
X148877000Y-65740290D01*
X148897000Y-65740290D01*
X148897000Y-65994290D01*
X148877000Y-65994290D01*
X148877000Y-67243540D01*
X149035750Y-67402290D01*
X149776309Y-67402290D01*
X150009698Y-67305617D01*
X150188327Y-67126989D01*
X150244139Y-66992246D01*
X150420493Y-67168600D01*
X150984670Y-67402290D01*
X151595330Y-67402290D01*
X152159507Y-67168600D01*
X152591310Y-66736797D01*
X152825000Y-66172620D01*
X152825000Y-66153040D01*
X157215000Y-66153040D01*
X157215000Y-66893600D01*
X157311673Y-67126989D01*
X157490302Y-67305617D01*
X157723691Y-67402290D01*
X158464250Y-67402290D01*
X158623000Y-67243540D01*
X158623000Y-65994290D01*
X157373750Y-65994290D01*
X157215000Y-66153040D01*
X152825000Y-66153040D01*
X152825000Y-65561960D01*
X152591310Y-64997783D01*
X152434507Y-64840980D01*
X157215000Y-64840980D01*
X157215000Y-65581540D01*
X157373750Y-65740290D01*
X158623000Y-65740290D01*
X158623000Y-64491040D01*
X158877000Y-64491040D01*
X158877000Y-65740290D01*
X158897000Y-65740290D01*
X158897000Y-65994290D01*
X158877000Y-65994290D01*
X158877000Y-67243540D01*
X159035750Y-67402290D01*
X159776309Y-67402290D01*
X160009698Y-67305617D01*
X160188327Y-67126989D01*
X160244139Y-66992246D01*
X160420493Y-67168600D01*
X160984670Y-67402290D01*
X161595330Y-67402290D01*
X162159507Y-67168600D01*
X162591310Y-66736797D01*
X162825000Y-66172620D01*
X162825000Y-66153040D01*
X167215000Y-66153040D01*
X167215000Y-66893600D01*
X167311673Y-67126989D01*
X167490302Y-67305617D01*
X167723691Y-67402290D01*
X168464250Y-67402290D01*
X168623000Y-67243540D01*
X168623000Y-65994290D01*
X167373750Y-65994290D01*
X167215000Y-66153040D01*
X162825000Y-66153040D01*
X162825000Y-65561960D01*
X162591310Y-64997783D01*
X162434507Y-64840980D01*
X167215000Y-64840980D01*
X167215000Y-65581540D01*
X167373750Y-65740290D01*
X168623000Y-65740290D01*
X168623000Y-64491040D01*
X168877000Y-64491040D01*
X168877000Y-65740290D01*
X168897000Y-65740290D01*
X168897000Y-65994290D01*
X168877000Y-65994290D01*
X168877000Y-67243540D01*
X169035750Y-67402290D01*
X169776309Y-67402290D01*
X170009698Y-67305617D01*
X170188327Y-67126989D01*
X170244139Y-66992246D01*
X170420493Y-67168600D01*
X170984670Y-67402290D01*
X171595330Y-67402290D01*
X172159507Y-67168600D01*
X172591310Y-66736797D01*
X172825000Y-66172620D01*
X172825000Y-65561960D01*
X172591310Y-64997783D01*
X172159507Y-64565980D01*
X171595330Y-64332290D01*
X170984670Y-64332290D01*
X170420493Y-64565980D01*
X170244139Y-64742334D01*
X170188327Y-64607591D01*
X170009698Y-64428963D01*
X169776309Y-64332290D01*
X169035750Y-64332290D01*
X168877000Y-64491040D01*
X168623000Y-64491040D01*
X168464250Y-64332290D01*
X167723691Y-64332290D01*
X167490302Y-64428963D01*
X167311673Y-64607591D01*
X167215000Y-64840980D01*
X162434507Y-64840980D01*
X162159507Y-64565980D01*
X161595330Y-64332290D01*
X160984670Y-64332290D01*
X160420493Y-64565980D01*
X160244139Y-64742334D01*
X160188327Y-64607591D01*
X160009698Y-64428963D01*
X159776309Y-64332290D01*
X159035750Y-64332290D01*
X158877000Y-64491040D01*
X158623000Y-64491040D01*
X158464250Y-64332290D01*
X157723691Y-64332290D01*
X157490302Y-64428963D01*
X157311673Y-64607591D01*
X157215000Y-64840980D01*
X152434507Y-64840980D01*
X152159507Y-64565980D01*
X151595330Y-64332290D01*
X150984670Y-64332290D01*
X150420493Y-64565980D01*
X150244139Y-64742334D01*
X150188327Y-64607591D01*
X150009698Y-64428963D01*
X149776309Y-64332290D01*
X149035750Y-64332290D01*
X148877000Y-64491040D01*
X148623000Y-64491040D01*
X148464250Y-64332290D01*
X147723691Y-64332290D01*
X147490302Y-64428963D01*
X147311673Y-64607591D01*
X147215000Y-64840980D01*
X142434507Y-64840980D01*
X142159507Y-64565980D01*
X141595330Y-64332290D01*
X140984670Y-64332290D01*
X140420493Y-64565980D01*
X140244139Y-64742334D01*
X140188327Y-64607591D01*
X140009698Y-64428963D01*
X139776309Y-64332290D01*
X139035750Y-64332290D01*
X138877000Y-64491040D01*
X138623000Y-64491040D01*
X138464250Y-64332290D01*
X137723691Y-64332290D01*
X137490302Y-64428963D01*
X137311673Y-64607591D01*
X137215000Y-64840980D01*
X132434507Y-64840980D01*
X132159507Y-64565980D01*
X131595330Y-64332290D01*
X130984670Y-64332290D01*
X130420493Y-64565980D01*
X130244139Y-64742334D01*
X130188327Y-64607591D01*
X130009698Y-64428963D01*
X129776309Y-64332290D01*
X129035750Y-64332290D01*
X128877000Y-64491040D01*
X128623000Y-64491040D01*
X128464250Y-64332290D01*
X127723691Y-64332290D01*
X127490302Y-64428963D01*
X127311673Y-64607591D01*
X127215000Y-64840980D01*
X120173750Y-64840980D01*
X115719867Y-60387097D01*
X115667004Y-60307982D01*
X115353591Y-60098566D01*
X115077213Y-60043591D01*
X115077212Y-60043591D01*
X114983895Y-60025029D01*
X114927147Y-60036317D01*
X114750163Y-59859333D01*
X114259494Y-59656091D01*
X113728398Y-59656091D01*
X113626850Y-59698153D01*
X113858046Y-59466957D01*
X180458946Y-59466957D01*
X180458946Y-60515225D01*
X180860101Y-61483699D01*
X181601338Y-62224936D01*
X182569812Y-62626091D01*
X183618080Y-62626091D01*
X184586554Y-62224936D01*
X185327791Y-61483699D01*
X185728946Y-60515225D01*
X185728946Y-59466957D01*
X185327791Y-58498483D01*
X184586554Y-57757246D01*
X183618080Y-57356091D01*
X182569812Y-57356091D01*
X181601338Y-57757246D01*
X180860101Y-58498483D01*
X180458946Y-59466957D01*
X113858046Y-59466957D01*
X113998913Y-59326091D01*
X114259494Y-59326091D01*
X114750163Y-59122849D01*
X115125704Y-58747308D01*
X115328946Y-58256639D01*
X115328946Y-57725543D01*
X115125704Y-57234874D01*
X114750163Y-56859333D01*
X114259494Y-56656091D01*
X113728398Y-56656091D01*
X113237729Y-56859333D01*
X112862188Y-57234874D01*
X112658946Y-57725543D01*
X112658946Y-57986124D01*
X105927421Y-64717650D01*
X105848306Y-64770513D01*
X105678946Y-65023979D01*
X105678946Y-51251468D01*
X111532446Y-51251468D01*
X111532446Y-52230714D01*
X111907187Y-53135419D01*
X112599618Y-53827850D01*
X113073092Y-54023970D01*
X112862188Y-54234874D01*
X112658946Y-54725543D01*
X112658946Y-55256639D01*
X112862188Y-55747308D01*
X113237729Y-56122849D01*
X113728398Y-56326091D01*
X114259494Y-56326091D01*
X114750163Y-56122849D01*
X115125704Y-55747308D01*
X115328946Y-55256639D01*
X115328946Y-54725543D01*
X115125704Y-54234874D01*
X114914800Y-54023970D01*
X115388274Y-53827850D01*
X116080705Y-53135419D01*
X116455446Y-52230714D01*
X116455446Y-51251468D01*
X116080705Y-50346763D01*
X115388274Y-49654332D01*
X114483569Y-49279591D01*
X113504323Y-49279591D01*
X112599618Y-49654332D01*
X111907187Y-50346763D01*
X111532446Y-51251468D01*
X105678946Y-51251468D01*
X105678946Y-45021597D01*
X105721345Y-44546522D01*
X107758946Y-44546522D01*
X107758946Y-45435660D01*
X108099205Y-46257117D01*
X108727920Y-46885832D01*
X109549377Y-47226091D01*
X110438515Y-47226091D01*
X111259972Y-46885832D01*
X111888687Y-46257117D01*
X112228946Y-45435660D01*
X112228946Y-44546522D01*
X111888687Y-43725065D01*
X111853372Y-43689750D01*
X147615000Y-43689750D01*
X147615000Y-44780310D01*
X147711673Y-45013699D01*
X147890302Y-45192327D01*
X148123691Y-45289000D01*
X149714250Y-45289000D01*
X149873000Y-45130250D01*
X149873000Y-43531000D01*
X150127000Y-43531000D01*
X150127000Y-45130250D01*
X150285750Y-45289000D01*
X151876309Y-45289000D01*
X152109698Y-45192327D01*
X152288327Y-45013699D01*
X152385000Y-44780310D01*
X152385000Y-44546522D01*
X187758946Y-44546522D01*
X187758946Y-45435660D01*
X188099205Y-46257117D01*
X188727920Y-46885832D01*
X189549377Y-47226091D01*
X190438515Y-47226091D01*
X191259972Y-46885832D01*
X191888687Y-46257117D01*
X192228946Y-45435660D01*
X192228946Y-44546522D01*
X191888687Y-43725065D01*
X191259972Y-43096350D01*
X190438515Y-42756091D01*
X189549377Y-42756091D01*
X188727920Y-43096350D01*
X188099205Y-43725065D01*
X187758946Y-44546522D01*
X152385000Y-44546522D01*
X152385000Y-43689750D01*
X152226250Y-43531000D01*
X150127000Y-43531000D01*
X149873000Y-43531000D01*
X147773750Y-43531000D01*
X147615000Y-43689750D01*
X111853372Y-43689750D01*
X111259972Y-43096350D01*
X110438515Y-42756091D01*
X109549377Y-42756091D01*
X108727920Y-43096350D01*
X108099205Y-43725065D01*
X107758946Y-44546522D01*
X105721345Y-44546522D01*
X105749821Y-44227454D01*
X105952126Y-43487951D01*
X106282188Y-42795963D01*
X106729575Y-42173358D01*
X106879892Y-42027690D01*
X147615000Y-42027690D01*
X147615000Y-43118250D01*
X147773750Y-43277000D01*
X149873000Y-43277000D01*
X149873000Y-41677750D01*
X150127000Y-41677750D01*
X150127000Y-43277000D01*
X152226250Y-43277000D01*
X152385000Y-43118250D01*
X152385000Y-42027690D01*
X152288327Y-41794301D01*
X152109698Y-41615673D01*
X151876309Y-41519000D01*
X150285750Y-41519000D01*
X150127000Y-41677750D01*
X149873000Y-41677750D01*
X149714250Y-41519000D01*
X148123691Y-41519000D01*
X147890302Y-41615673D01*
X147711673Y-41794301D01*
X147615000Y-42027690D01*
X106879892Y-42027690D01*
X107280141Y-41639823D01*
X107916490Y-41212215D01*
X108618507Y-40904050D01*
X109369266Y-40723808D01*
X110019058Y-40676091D01*
X189963440Y-40676091D01*
X190757583Y-40746966D01*
G36*
X182918959Y-114832577D02*
X182758096Y-115220961D01*
X182880085Y-115443000D01*
X184023000Y-115443000D01*
X184023000Y-115423000D01*
X184277000Y-115423000D01*
X184277000Y-115443000D01*
X184297000Y-115443000D01*
X184297000Y-115697000D01*
X184277000Y-115697000D01*
X184277000Y-115717000D01*
X184023000Y-115717000D01*
X184023000Y-115697000D01*
X182880085Y-115697000D01*
X182758096Y-115919039D01*
X182764707Y-115935001D01*
X175392044Y-115935001D01*
X175425000Y-115855439D01*
X175425000Y-115284561D01*
X175206534Y-114757138D01*
X174969396Y-114520000D01*
X183202114Y-114520000D01*
X182918959Y-114832577D01*
X182918959Y-114832577D01*
G37*
X182918959Y-114832577D02*
X182758096Y-115220961D01*
X182880085Y-115443000D01*
X184023000Y-115443000D01*
X184023000Y-115423000D01*
X184277000Y-115423000D01*
X184277000Y-115443000D01*
X184297000Y-115443000D01*
X184297000Y-115697000D01*
X184277000Y-115697000D01*
X184277000Y-115717000D01*
X184023000Y-115717000D01*
X184023000Y-115697000D01*
X182880085Y-115697000D01*
X182758096Y-115919039D01*
X182764707Y-115935001D01*
X175392044Y-115935001D01*
X175425000Y-115855439D01*
X175425000Y-115284561D01*
X175206534Y-114757138D01*
X174969396Y-114520000D01*
X183202114Y-114520000D01*
X182918959Y-114832577D01*
G36*
X112658946Y-60725543D02*
X112658946Y-61256639D01*
X112862188Y-61747308D01*
X113073092Y-61958212D01*
X112599618Y-62154332D01*
X111907187Y-62846763D01*
X111532446Y-63751468D01*
X111532446Y-64730714D01*
X111907187Y-65635419D01*
X112599618Y-66327850D01*
X113504323Y-66702591D01*
X114483569Y-66702591D01*
X115388274Y-66327850D01*
X116080705Y-65635419D01*
X116455446Y-64730714D01*
X116455446Y-63802608D01*
X119529896Y-66877059D01*
X119529897Y-82538675D01*
X119511334Y-82631997D01*
X119584871Y-83001692D01*
X119653759Y-83104790D01*
X119794288Y-83315106D01*
X119873399Y-83367966D01*
X119970901Y-83465469D01*
X119839897Y-83596473D01*
X119459404Y-83215980D01*
X118895227Y-82982290D01*
X118284567Y-82982290D01*
X117720390Y-83215980D01*
X117288587Y-83647783D01*
X117285358Y-83655580D01*
X117170056Y-83616736D01*
X116269502Y-84517290D01*
X117170056Y-85417844D01*
X117285358Y-85379000D01*
X117288587Y-85386797D01*
X117720390Y-85818600D01*
X118284567Y-86052290D01*
X118895227Y-86052290D01*
X119459404Y-85818600D01*
X119839897Y-85438107D01*
X120220390Y-85818600D01*
X120784567Y-86052290D01*
X121395227Y-86052290D01*
X121959404Y-85818600D01*
X122180555Y-85597449D01*
X129189343Y-85597449D01*
X129275749Y-85853933D01*
X129849233Y-86063748D01*
X130459357Y-86038129D01*
X130904045Y-85853933D01*
X130990451Y-85597449D01*
X130089897Y-84696895D01*
X129189343Y-85597449D01*
X122180555Y-85597449D01*
X122391207Y-85386797D01*
X122624897Y-84822620D01*
X122624897Y-84322257D01*
X123449655Y-83497500D01*
X128899859Y-83497500D01*
X128895179Y-83502180D01*
X129009736Y-83616737D01*
X128753254Y-83703142D01*
X128543439Y-84276626D01*
X128569058Y-84886750D01*
X128753254Y-85331438D01*
X129009738Y-85417844D01*
X129910292Y-84517290D01*
X129896150Y-84503148D01*
X130075755Y-84323543D01*
X130089897Y-84337685D01*
X130104040Y-84323543D01*
X130283645Y-84503148D01*
X130269502Y-84517290D01*
X131170056Y-85417844D01*
X131285358Y-85379000D01*
X131288587Y-85386797D01*
X131720390Y-85818600D01*
X132284567Y-86052290D01*
X132895227Y-86052290D01*
X133459404Y-85818600D01*
X133839897Y-85438107D01*
X134220390Y-85818600D01*
X134784567Y-86052290D01*
X135395227Y-86052290D01*
X135959404Y-85818600D01*
X136180555Y-85597449D01*
X164189343Y-85597449D01*
X164275749Y-85853933D01*
X164849233Y-86063748D01*
X165459357Y-86038129D01*
X165904045Y-85853933D01*
X165990451Y-85597449D01*
X165089897Y-84696895D01*
X164189343Y-85597449D01*
X136180555Y-85597449D01*
X136391207Y-85386797D01*
X136624897Y-84822620D01*
X136624897Y-84322257D01*
X136894865Y-84052289D01*
X163625515Y-84052289D01*
X163543439Y-84276626D01*
X163569058Y-84886750D01*
X163753254Y-85331438D01*
X164009738Y-85417844D01*
X164910292Y-84517290D01*
X164896150Y-84503148D01*
X165075755Y-84323543D01*
X165089897Y-84337685D01*
X165104040Y-84323543D01*
X165283645Y-84503148D01*
X165269502Y-84517290D01*
X166170056Y-85417844D01*
X166285358Y-85379000D01*
X166288587Y-85386797D01*
X166720390Y-85818600D01*
X167284567Y-86052290D01*
X167895227Y-86052290D01*
X168459404Y-85818600D01*
X168839897Y-85438107D01*
X169220390Y-85818600D01*
X169784567Y-86052290D01*
X170284931Y-86052290D01*
X171662930Y-87430290D01*
X171354408Y-87491659D01*
X170730888Y-87908281D01*
X170314266Y-88531800D01*
X170204897Y-89081635D01*
X170204897Y-89952944D01*
X170314266Y-90502779D01*
X170730888Y-91126299D01*
X171354407Y-91542921D01*
X172089897Y-91689219D01*
X172825386Y-91542921D01*
X172904907Y-91489787D01*
X172904908Y-100044793D01*
X172825387Y-99991659D01*
X172089897Y-99845361D01*
X171354408Y-99991659D01*
X170730888Y-100408281D01*
X170460442Y-100813033D01*
X168029028Y-98381620D01*
X167986626Y-98318161D01*
X167735234Y-98150186D01*
X167513549Y-98106090D01*
X167513544Y-98106090D01*
X167438697Y-98091202D01*
X167363850Y-98106090D01*
X109565723Y-98106090D01*
X109490876Y-98091202D01*
X109416029Y-98106090D01*
X109416025Y-98106090D01*
X109194340Y-98150186D01*
X108942948Y-98318161D01*
X108900548Y-98381617D01*
X107478915Y-99803251D01*
X107478915Y-89081635D01*
X108204897Y-89081635D01*
X108204897Y-89952944D01*
X108314266Y-90502779D01*
X108730888Y-91126299D01*
X109354407Y-91542921D01*
X110089897Y-91689219D01*
X110825386Y-91542921D01*
X111448906Y-91126299D01*
X111865528Y-90502780D01*
X111974897Y-89952945D01*
X111974897Y-89941330D01*
X113204782Y-89941330D01*
X113414880Y-90649484D01*
X113879984Y-91223332D01*
X114529286Y-91575511D01*
X114670252Y-91604985D01*
X114962897Y-91488862D01*
X114962897Y-89644290D01*
X115216897Y-89644290D01*
X115216897Y-91488862D01*
X115509542Y-91604985D01*
X115650508Y-91575511D01*
X116299810Y-91223332D01*
X116764914Y-90649484D01*
X116975012Y-89941330D01*
X116820279Y-89644290D01*
X115216897Y-89644290D01*
X114962897Y-89644290D01*
X113359515Y-89644290D01*
X113204782Y-89941330D01*
X111974897Y-89941330D01*
X111974897Y-89093250D01*
X113204782Y-89093250D01*
X113359515Y-89390290D01*
X114962897Y-89390290D01*
X114962897Y-87545718D01*
X115216897Y-87545718D01*
X115216897Y-89390290D01*
X116820279Y-89390290D01*
X116975012Y-89093250D01*
X116971567Y-89081635D01*
X121204897Y-89081635D01*
X121204897Y-89952944D01*
X121314266Y-90502779D01*
X121730888Y-91126299D01*
X122354407Y-91542921D01*
X123089897Y-91689219D01*
X123825386Y-91542921D01*
X124448906Y-91126299D01*
X124865528Y-90502780D01*
X124974897Y-89952945D01*
X124974897Y-89941330D01*
X126204782Y-89941330D01*
X126414880Y-90649484D01*
X126879984Y-91223332D01*
X127529286Y-91575511D01*
X127670252Y-91604985D01*
X127962897Y-91488862D01*
X127962897Y-89644290D01*
X128216897Y-89644290D01*
X128216897Y-91488862D01*
X128509542Y-91604985D01*
X128650508Y-91575511D01*
X129299810Y-91223332D01*
X129764914Y-90649484D01*
X129975012Y-89941330D01*
X129820279Y-89644290D01*
X128216897Y-89644290D01*
X127962897Y-89644290D01*
X126359515Y-89644290D01*
X126204782Y-89941330D01*
X124974897Y-89941330D01*
X124974897Y-89093250D01*
X126204782Y-89093250D01*
X126359515Y-89390290D01*
X127962897Y-89390290D01*
X127962897Y-87545718D01*
X128216897Y-87545718D01*
X128216897Y-89390290D01*
X129820279Y-89390290D01*
X129975012Y-89093250D01*
X129971567Y-89081635D01*
X134204897Y-89081635D01*
X134204897Y-89952944D01*
X134314266Y-90502779D01*
X134730888Y-91126299D01*
X135354407Y-91542921D01*
X136089897Y-91689219D01*
X136825386Y-91542921D01*
X137448906Y-91126299D01*
X137865528Y-90502780D01*
X137974897Y-89952945D01*
X137974897Y-89941330D01*
X139204782Y-89941330D01*
X139414880Y-90649484D01*
X139879984Y-91223332D01*
X140529286Y-91575511D01*
X140670252Y-91604985D01*
X140962897Y-91488862D01*
X140962897Y-89644290D01*
X141216897Y-89644290D01*
X141216897Y-91488862D01*
X141509542Y-91604985D01*
X141650508Y-91575511D01*
X142299810Y-91223332D01*
X142764914Y-90649484D01*
X142975012Y-89941330D01*
X142820279Y-89644290D01*
X141216897Y-89644290D01*
X140962897Y-89644290D01*
X139359515Y-89644290D01*
X139204782Y-89941330D01*
X137974897Y-89941330D01*
X137974897Y-89093250D01*
X139204782Y-89093250D01*
X139359515Y-89390290D01*
X140962897Y-89390290D01*
X140962897Y-87545718D01*
X141216897Y-87545718D01*
X141216897Y-89390290D01*
X142820279Y-89390290D01*
X142975012Y-89093250D01*
X142971567Y-89081635D01*
X157204897Y-89081635D01*
X157204897Y-89952944D01*
X157314266Y-90502779D01*
X157730888Y-91126299D01*
X158354407Y-91542921D01*
X159089897Y-91689219D01*
X159825386Y-91542921D01*
X160448906Y-91126299D01*
X160865528Y-90502780D01*
X160974897Y-89952945D01*
X160974897Y-89941330D01*
X162204782Y-89941330D01*
X162414880Y-90649484D01*
X162879984Y-91223332D01*
X163529286Y-91575511D01*
X163670252Y-91604985D01*
X163962897Y-91488862D01*
X163962897Y-89644290D01*
X164216897Y-89644290D01*
X164216897Y-91488862D01*
X164509542Y-91604985D01*
X164650508Y-91575511D01*
X165299810Y-91223332D01*
X165764914Y-90649484D01*
X165975012Y-89941330D01*
X165820279Y-89644290D01*
X164216897Y-89644290D01*
X163962897Y-89644290D01*
X162359515Y-89644290D01*
X162204782Y-89941330D01*
X160974897Y-89941330D01*
X160974897Y-89093250D01*
X162204782Y-89093250D01*
X162359515Y-89390290D01*
X163962897Y-89390290D01*
X163962897Y-87545718D01*
X164216897Y-87545718D01*
X164216897Y-89390290D01*
X165820279Y-89390290D01*
X165975012Y-89093250D01*
X165764914Y-88385096D01*
X165299810Y-87811248D01*
X164650508Y-87459069D01*
X164509542Y-87429595D01*
X164216897Y-87545718D01*
X163962897Y-87545718D01*
X163670252Y-87429595D01*
X163529286Y-87459069D01*
X162879984Y-87811248D01*
X162414880Y-88385096D01*
X162204782Y-89093250D01*
X160974897Y-89093250D01*
X160974897Y-89081636D01*
X160865528Y-88531800D01*
X160448906Y-87908281D01*
X159825387Y-87491659D01*
X159089897Y-87345361D01*
X158354408Y-87491659D01*
X157730888Y-87908281D01*
X157314266Y-88531800D01*
X157204897Y-89081635D01*
X142971567Y-89081635D01*
X142764914Y-88385096D01*
X142299810Y-87811248D01*
X141650508Y-87459069D01*
X141509542Y-87429595D01*
X141216897Y-87545718D01*
X140962897Y-87545718D01*
X140670252Y-87429595D01*
X140529286Y-87459069D01*
X139879984Y-87811248D01*
X139414880Y-88385096D01*
X139204782Y-89093250D01*
X137974897Y-89093250D01*
X137974897Y-89081636D01*
X137865528Y-88531800D01*
X137448906Y-87908281D01*
X136825387Y-87491659D01*
X136089897Y-87345361D01*
X135354408Y-87491659D01*
X134730888Y-87908281D01*
X134314266Y-88531800D01*
X134204897Y-89081635D01*
X129971567Y-89081635D01*
X129764914Y-88385096D01*
X129299810Y-87811248D01*
X128650508Y-87459069D01*
X128509542Y-87429595D01*
X128216897Y-87545718D01*
X127962897Y-87545718D01*
X127670252Y-87429595D01*
X127529286Y-87459069D01*
X126879984Y-87811248D01*
X126414880Y-88385096D01*
X126204782Y-89093250D01*
X124974897Y-89093250D01*
X124974897Y-89081636D01*
X124865528Y-88531800D01*
X124448906Y-87908281D01*
X123825387Y-87491659D01*
X123089897Y-87345361D01*
X122354408Y-87491659D01*
X121730888Y-87908281D01*
X121314266Y-88531800D01*
X121204897Y-89081635D01*
X116971567Y-89081635D01*
X116764914Y-88385096D01*
X116299810Y-87811248D01*
X115650508Y-87459069D01*
X115509542Y-87429595D01*
X115216897Y-87545718D01*
X114962897Y-87545718D01*
X114670252Y-87429595D01*
X114529286Y-87459069D01*
X113879984Y-87811248D01*
X113414880Y-88385096D01*
X113204782Y-89093250D01*
X111974897Y-89093250D01*
X111974897Y-89081636D01*
X111865528Y-88531800D01*
X111448906Y-87908281D01*
X110825387Y-87491659D01*
X110089897Y-87345361D01*
X109354408Y-87491659D01*
X108730888Y-87908281D01*
X108314266Y-88531800D01*
X108204897Y-89081635D01*
X107478915Y-89081635D01*
X107478915Y-85597449D01*
X115189343Y-85597449D01*
X115275749Y-85853933D01*
X115849233Y-86063748D01*
X116459357Y-86038129D01*
X116904045Y-85853933D01*
X116990451Y-85597449D01*
X116089897Y-84696895D01*
X115189343Y-85597449D01*
X107478915Y-85597449D01*
X107478915Y-84276626D01*
X114543439Y-84276626D01*
X114569058Y-84886750D01*
X114753254Y-85331438D01*
X115009738Y-85417844D01*
X115910292Y-84517290D01*
X115009738Y-83616736D01*
X114753254Y-83703142D01*
X114543439Y-84276626D01*
X107478915Y-84276626D01*
X107478915Y-83437131D01*
X115189343Y-83437131D01*
X116089897Y-84337685D01*
X116990451Y-83437131D01*
X116904045Y-83180647D01*
X116330561Y-82970832D01*
X115720437Y-82996451D01*
X115275749Y-83180647D01*
X115189343Y-83437131D01*
X107478915Y-83437131D01*
X107478915Y-76993156D01*
X111554897Y-76993156D01*
X111554897Y-78041424D01*
X111956052Y-79009898D01*
X112697289Y-79751135D01*
X113665763Y-80152290D01*
X114714031Y-80152290D01*
X115682505Y-79751135D01*
X116423742Y-79009898D01*
X116824897Y-78041424D01*
X116824897Y-76993156D01*
X116423742Y-76024682D01*
X115682505Y-75283445D01*
X114714031Y-74882290D01*
X113665763Y-74882290D01*
X112697289Y-75283445D01*
X111956052Y-76024682D01*
X111554897Y-76993156D01*
X107478915Y-76993156D01*
X107478915Y-65846088D01*
X112701009Y-60623995D01*
X112658946Y-60725543D01*
X112658946Y-60725543D01*
G37*
X112658946Y-60725543D02*
X112658946Y-61256639D01*
X112862188Y-61747308D01*
X113073092Y-61958212D01*
X112599618Y-62154332D01*
X111907187Y-62846763D01*
X111532446Y-63751468D01*
X111532446Y-64730714D01*
X111907187Y-65635419D01*
X112599618Y-66327850D01*
X113504323Y-66702591D01*
X114483569Y-66702591D01*
X115388274Y-66327850D01*
X116080705Y-65635419D01*
X116455446Y-64730714D01*
X116455446Y-63802608D01*
X119529896Y-66877059D01*
X119529897Y-82538675D01*
X119511334Y-82631997D01*
X119584871Y-83001692D01*
X119653759Y-83104790D01*
X119794288Y-83315106D01*
X119873399Y-83367966D01*
X119970901Y-83465469D01*
X119839897Y-83596473D01*
X119459404Y-83215980D01*
X118895227Y-82982290D01*
X118284567Y-82982290D01*
X117720390Y-83215980D01*
X117288587Y-83647783D01*
X117285358Y-83655580D01*
X117170056Y-83616736D01*
X116269502Y-84517290D01*
X117170056Y-85417844D01*
X117285358Y-85379000D01*
X117288587Y-85386797D01*
X117720390Y-85818600D01*
X118284567Y-86052290D01*
X118895227Y-86052290D01*
X119459404Y-85818600D01*
X119839897Y-85438107D01*
X120220390Y-85818600D01*
X120784567Y-86052290D01*
X121395227Y-86052290D01*
X121959404Y-85818600D01*
X122180555Y-85597449D01*
X129189343Y-85597449D01*
X129275749Y-85853933D01*
X129849233Y-86063748D01*
X130459357Y-86038129D01*
X130904045Y-85853933D01*
X130990451Y-85597449D01*
X130089897Y-84696895D01*
X129189343Y-85597449D01*
X122180555Y-85597449D01*
X122391207Y-85386797D01*
X122624897Y-84822620D01*
X122624897Y-84322257D01*
X123449655Y-83497500D01*
X128899859Y-83497500D01*
X128895179Y-83502180D01*
X129009736Y-83616737D01*
X128753254Y-83703142D01*
X128543439Y-84276626D01*
X128569058Y-84886750D01*
X128753254Y-85331438D01*
X129009738Y-85417844D01*
X129910292Y-84517290D01*
X129896150Y-84503148D01*
X130075755Y-84323543D01*
X130089897Y-84337685D01*
X130104040Y-84323543D01*
X130283645Y-84503148D01*
X130269502Y-84517290D01*
X131170056Y-85417844D01*
X131285358Y-85379000D01*
X131288587Y-85386797D01*
X131720390Y-85818600D01*
X132284567Y-86052290D01*
X132895227Y-86052290D01*
X133459404Y-85818600D01*
X133839897Y-85438107D01*
X134220390Y-85818600D01*
X134784567Y-86052290D01*
X135395227Y-86052290D01*
X135959404Y-85818600D01*
X136180555Y-85597449D01*
X164189343Y-85597449D01*
X164275749Y-85853933D01*
X164849233Y-86063748D01*
X165459357Y-86038129D01*
X165904045Y-85853933D01*
X165990451Y-85597449D01*
X165089897Y-84696895D01*
X164189343Y-85597449D01*
X136180555Y-85597449D01*
X136391207Y-85386797D01*
X136624897Y-84822620D01*
X136624897Y-84322257D01*
X136894865Y-84052289D01*
X163625515Y-84052289D01*
X163543439Y-84276626D01*
X163569058Y-84886750D01*
X163753254Y-85331438D01*
X164009738Y-85417844D01*
X164910292Y-84517290D01*
X164896150Y-84503148D01*
X165075755Y-84323543D01*
X165089897Y-84337685D01*
X165104040Y-84323543D01*
X165283645Y-84503148D01*
X165269502Y-84517290D01*
X166170056Y-85417844D01*
X166285358Y-85379000D01*
X166288587Y-85386797D01*
X166720390Y-85818600D01*
X167284567Y-86052290D01*
X167895227Y-86052290D01*
X168459404Y-85818600D01*
X168839897Y-85438107D01*
X169220390Y-85818600D01*
X169784567Y-86052290D01*
X170284931Y-86052290D01*
X171662930Y-87430290D01*
X171354408Y-87491659D01*
X170730888Y-87908281D01*
X170314266Y-88531800D01*
X170204897Y-89081635D01*
X170204897Y-89952944D01*
X170314266Y-90502779D01*
X170730888Y-91126299D01*
X171354407Y-91542921D01*
X172089897Y-91689219D01*
X172825386Y-91542921D01*
X172904907Y-91489787D01*
X172904908Y-100044793D01*
X172825387Y-99991659D01*
X172089897Y-99845361D01*
X171354408Y-99991659D01*
X170730888Y-100408281D01*
X170460442Y-100813033D01*
X168029028Y-98381620D01*
X167986626Y-98318161D01*
X167735234Y-98150186D01*
X167513549Y-98106090D01*
X167513544Y-98106090D01*
X167438697Y-98091202D01*
X167363850Y-98106090D01*
X109565723Y-98106090D01*
X109490876Y-98091202D01*
X109416029Y-98106090D01*
X109416025Y-98106090D01*
X109194340Y-98150186D01*
X108942948Y-98318161D01*
X108900548Y-98381617D01*
X107478915Y-99803251D01*
X107478915Y-89081635D01*
X108204897Y-89081635D01*
X108204897Y-89952944D01*
X108314266Y-90502779D01*
X108730888Y-91126299D01*
X109354407Y-91542921D01*
X110089897Y-91689219D01*
X110825386Y-91542921D01*
X111448906Y-91126299D01*
X111865528Y-90502780D01*
X111974897Y-89952945D01*
X111974897Y-89941330D01*
X113204782Y-89941330D01*
X113414880Y-90649484D01*
X113879984Y-91223332D01*
X114529286Y-91575511D01*
X114670252Y-91604985D01*
X114962897Y-91488862D01*
X114962897Y-89644290D01*
X115216897Y-89644290D01*
X115216897Y-91488862D01*
X115509542Y-91604985D01*
X115650508Y-91575511D01*
X116299810Y-91223332D01*
X116764914Y-90649484D01*
X116975012Y-89941330D01*
X116820279Y-89644290D01*
X115216897Y-89644290D01*
X114962897Y-89644290D01*
X113359515Y-89644290D01*
X113204782Y-89941330D01*
X111974897Y-89941330D01*
X111974897Y-89093250D01*
X113204782Y-89093250D01*
X113359515Y-89390290D01*
X114962897Y-89390290D01*
X114962897Y-87545718D01*
X115216897Y-87545718D01*
X115216897Y-89390290D01*
X116820279Y-89390290D01*
X116975012Y-89093250D01*
X116971567Y-89081635D01*
X121204897Y-89081635D01*
X121204897Y-89952944D01*
X121314266Y-90502779D01*
X121730888Y-91126299D01*
X122354407Y-91542921D01*
X123089897Y-91689219D01*
X123825386Y-91542921D01*
X124448906Y-91126299D01*
X124865528Y-90502780D01*
X124974897Y-89952945D01*
X124974897Y-89941330D01*
X126204782Y-89941330D01*
X126414880Y-90649484D01*
X126879984Y-91223332D01*
X127529286Y-91575511D01*
X127670252Y-91604985D01*
X127962897Y-91488862D01*
X127962897Y-89644290D01*
X128216897Y-89644290D01*
X128216897Y-91488862D01*
X128509542Y-91604985D01*
X128650508Y-91575511D01*
X129299810Y-91223332D01*
X129764914Y-90649484D01*
X129975012Y-89941330D01*
X129820279Y-89644290D01*
X128216897Y-89644290D01*
X127962897Y-89644290D01*
X126359515Y-89644290D01*
X126204782Y-89941330D01*
X124974897Y-89941330D01*
X124974897Y-89093250D01*
X126204782Y-89093250D01*
X126359515Y-89390290D01*
X127962897Y-89390290D01*
X127962897Y-87545718D01*
X128216897Y-87545718D01*
X128216897Y-89390290D01*
X129820279Y-89390290D01*
X129975012Y-89093250D01*
X129971567Y-89081635D01*
X134204897Y-89081635D01*
X134204897Y-89952944D01*
X134314266Y-90502779D01*
X134730888Y-91126299D01*
X135354407Y-91542921D01*
X136089897Y-91689219D01*
X136825386Y-91542921D01*
X137448906Y-91126299D01*
X137865528Y-90502780D01*
X137974897Y-89952945D01*
X137974897Y-89941330D01*
X139204782Y-89941330D01*
X139414880Y-90649484D01*
X139879984Y-91223332D01*
X140529286Y-91575511D01*
X140670252Y-91604985D01*
X140962897Y-91488862D01*
X140962897Y-89644290D01*
X141216897Y-89644290D01*
X141216897Y-91488862D01*
X141509542Y-91604985D01*
X141650508Y-91575511D01*
X142299810Y-91223332D01*
X142764914Y-90649484D01*
X142975012Y-89941330D01*
X142820279Y-89644290D01*
X141216897Y-89644290D01*
X140962897Y-89644290D01*
X139359515Y-89644290D01*
X139204782Y-89941330D01*
X137974897Y-89941330D01*
X137974897Y-89093250D01*
X139204782Y-89093250D01*
X139359515Y-89390290D01*
X140962897Y-89390290D01*
X140962897Y-87545718D01*
X141216897Y-87545718D01*
X141216897Y-89390290D01*
X142820279Y-89390290D01*
X142975012Y-89093250D01*
X142971567Y-89081635D01*
X157204897Y-89081635D01*
X157204897Y-89952944D01*
X157314266Y-90502779D01*
X157730888Y-91126299D01*
X158354407Y-91542921D01*
X159089897Y-91689219D01*
X159825386Y-91542921D01*
X160448906Y-91126299D01*
X160865528Y-90502780D01*
X160974897Y-89952945D01*
X160974897Y-89941330D01*
X162204782Y-89941330D01*
X162414880Y-90649484D01*
X162879984Y-91223332D01*
X163529286Y-91575511D01*
X163670252Y-91604985D01*
X163962897Y-91488862D01*
X163962897Y-89644290D01*
X164216897Y-89644290D01*
X164216897Y-91488862D01*
X164509542Y-91604985D01*
X164650508Y-91575511D01*
X165299810Y-91223332D01*
X165764914Y-90649484D01*
X165975012Y-89941330D01*
X165820279Y-89644290D01*
X164216897Y-89644290D01*
X163962897Y-89644290D01*
X162359515Y-89644290D01*
X162204782Y-89941330D01*
X160974897Y-89941330D01*
X160974897Y-89093250D01*
X162204782Y-89093250D01*
X162359515Y-89390290D01*
X163962897Y-89390290D01*
X163962897Y-87545718D01*
X164216897Y-87545718D01*
X164216897Y-89390290D01*
X165820279Y-89390290D01*
X165975012Y-89093250D01*
X165764914Y-88385096D01*
X165299810Y-87811248D01*
X164650508Y-87459069D01*
X164509542Y-87429595D01*
X164216897Y-87545718D01*
X163962897Y-87545718D01*
X163670252Y-87429595D01*
X163529286Y-87459069D01*
X162879984Y-87811248D01*
X162414880Y-88385096D01*
X162204782Y-89093250D01*
X160974897Y-89093250D01*
X160974897Y-89081636D01*
X160865528Y-88531800D01*
X160448906Y-87908281D01*
X159825387Y-87491659D01*
X159089897Y-87345361D01*
X158354408Y-87491659D01*
X157730888Y-87908281D01*
X157314266Y-88531800D01*
X157204897Y-89081635D01*
X142971567Y-89081635D01*
X142764914Y-88385096D01*
X142299810Y-87811248D01*
X141650508Y-87459069D01*
X141509542Y-87429595D01*
X141216897Y-87545718D01*
X140962897Y-87545718D01*
X140670252Y-87429595D01*
X140529286Y-87459069D01*
X139879984Y-87811248D01*
X139414880Y-88385096D01*
X139204782Y-89093250D01*
X137974897Y-89093250D01*
X137974897Y-89081636D01*
X137865528Y-88531800D01*
X137448906Y-87908281D01*
X136825387Y-87491659D01*
X136089897Y-87345361D01*
X135354408Y-87491659D01*
X134730888Y-87908281D01*
X134314266Y-88531800D01*
X134204897Y-89081635D01*
X129971567Y-89081635D01*
X129764914Y-88385096D01*
X129299810Y-87811248D01*
X128650508Y-87459069D01*
X128509542Y-87429595D01*
X128216897Y-87545718D01*
X127962897Y-87545718D01*
X127670252Y-87429595D01*
X127529286Y-87459069D01*
X126879984Y-87811248D01*
X126414880Y-88385096D01*
X126204782Y-89093250D01*
X124974897Y-89093250D01*
X124974897Y-89081636D01*
X124865528Y-88531800D01*
X124448906Y-87908281D01*
X123825387Y-87491659D01*
X123089897Y-87345361D01*
X122354408Y-87491659D01*
X121730888Y-87908281D01*
X121314266Y-88531800D01*
X121204897Y-89081635D01*
X116971567Y-89081635D01*
X116764914Y-88385096D01*
X116299810Y-87811248D01*
X115650508Y-87459069D01*
X115509542Y-87429595D01*
X115216897Y-87545718D01*
X114962897Y-87545718D01*
X114670252Y-87429595D01*
X114529286Y-87459069D01*
X113879984Y-87811248D01*
X113414880Y-88385096D01*
X113204782Y-89093250D01*
X111974897Y-89093250D01*
X111974897Y-89081636D01*
X111865528Y-88531800D01*
X111448906Y-87908281D01*
X110825387Y-87491659D01*
X110089897Y-87345361D01*
X109354408Y-87491659D01*
X108730888Y-87908281D01*
X108314266Y-88531800D01*
X108204897Y-89081635D01*
X107478915Y-89081635D01*
X107478915Y-85597449D01*
X115189343Y-85597449D01*
X115275749Y-85853933D01*
X115849233Y-86063748D01*
X116459357Y-86038129D01*
X116904045Y-85853933D01*
X116990451Y-85597449D01*
X116089897Y-84696895D01*
X115189343Y-85597449D01*
X107478915Y-85597449D01*
X107478915Y-84276626D01*
X114543439Y-84276626D01*
X114569058Y-84886750D01*
X114753254Y-85331438D01*
X115009738Y-85417844D01*
X115910292Y-84517290D01*
X115009738Y-83616736D01*
X114753254Y-83703142D01*
X114543439Y-84276626D01*
X107478915Y-84276626D01*
X107478915Y-83437131D01*
X115189343Y-83437131D01*
X116089897Y-84337685D01*
X116990451Y-83437131D01*
X116904045Y-83180647D01*
X116330561Y-82970832D01*
X115720437Y-82996451D01*
X115275749Y-83180647D01*
X115189343Y-83437131D01*
X107478915Y-83437131D01*
X107478915Y-76993156D01*
X111554897Y-76993156D01*
X111554897Y-78041424D01*
X111956052Y-79009898D01*
X112697289Y-79751135D01*
X113665763Y-80152290D01*
X114714031Y-80152290D01*
X115682505Y-79751135D01*
X116423742Y-79009898D01*
X116824897Y-78041424D01*
X116824897Y-76993156D01*
X116423742Y-76024682D01*
X115682505Y-75283445D01*
X114714031Y-74882290D01*
X113665763Y-74882290D01*
X112697289Y-75283445D01*
X111956052Y-76024682D01*
X111554897Y-76993156D01*
X107478915Y-76993156D01*
X107478915Y-65846088D01*
X112701009Y-60623995D01*
X112658946Y-60725543D01*
G04 #@! TD*
M02*
