G04 #@! TF.GenerationSoftware,KiCad,Pcbnew,(5.0.1)-3*
G04 #@! TF.CreationDate,2019-06-25T23:54:28+01:00*
G04 #@! TF.ProjectId,drumkid v3,6472756D6B69642076332E6B69636164,03*
G04 #@! TF.SameCoordinates,Original*
G04 #@! TF.FileFunction,Legend,Top*
G04 #@! TF.FilePolarity,Positive*
%FSLAX46Y46*%
G04 Gerber Fmt 4.6, Leading zero omitted, Abs format (unit mm)*
G04 Created by KiCad (PCBNEW (5.0.1)-3) date 25/06/2019 23:54:28*
%MOMM*%
%LPD*%
G01*
G04 APERTURE LIST*
%ADD10C,0.300000*%
%ADD11C,0.120000*%
%ADD12C,0.150000*%
G04 APERTURE END LIST*
D10*
X142967142Y-55278571D02*
X142967142Y-53778571D01*
X143324285Y-53778571D01*
X143538571Y-53850000D01*
X143681428Y-53992857D01*
X143752857Y-54135714D01*
X143824285Y-54421428D01*
X143824285Y-54635714D01*
X143752857Y-54921428D01*
X143681428Y-55064285D01*
X143538571Y-55207142D01*
X143324285Y-55278571D01*
X142967142Y-55278571D01*
X144467142Y-55278571D02*
X144467142Y-54278571D01*
X144467142Y-54564285D02*
X144538571Y-54421428D01*
X144610000Y-54350000D01*
X144752857Y-54278571D01*
X144895714Y-54278571D01*
X146038571Y-54278571D02*
X146038571Y-55278571D01*
X145395714Y-54278571D02*
X145395714Y-55064285D01*
X145467142Y-55207142D01*
X145610000Y-55278571D01*
X145824285Y-55278571D01*
X145967142Y-55207142D01*
X146038571Y-55135714D01*
X146752857Y-55278571D02*
X146752857Y-54278571D01*
X146752857Y-54421428D02*
X146824285Y-54350000D01*
X146967142Y-54278571D01*
X147181428Y-54278571D01*
X147324285Y-54350000D01*
X147395714Y-54492857D01*
X147395714Y-55278571D01*
X147395714Y-54492857D02*
X147467142Y-54350000D01*
X147610000Y-54278571D01*
X147824285Y-54278571D01*
X147967142Y-54350000D01*
X148038571Y-54492857D01*
X148038571Y-55278571D01*
X148752857Y-55278571D02*
X148752857Y-53778571D01*
X149610000Y-55278571D02*
X148967142Y-54421428D01*
X149610000Y-53778571D02*
X148752857Y-54635714D01*
X150252857Y-55278571D02*
X150252857Y-54278571D01*
X150252857Y-53778571D02*
X150181428Y-53850000D01*
X150252857Y-53921428D01*
X150324285Y-53850000D01*
X150252857Y-53778571D01*
X150252857Y-53921428D01*
X151610000Y-55278571D02*
X151610000Y-53778571D01*
X151610000Y-55207142D02*
X151467142Y-55278571D01*
X151181428Y-55278571D01*
X151038571Y-55207142D01*
X150967142Y-55135714D01*
X150895714Y-54992857D01*
X150895714Y-54564285D01*
X150967142Y-54421428D01*
X151038571Y-54350000D01*
X151181428Y-54278571D01*
X151467142Y-54278571D01*
X151610000Y-54350000D01*
X153324285Y-54278571D02*
X153681428Y-55278571D01*
X154038571Y-54278571D01*
X154895714Y-53778571D02*
X155038571Y-53778571D01*
X155181428Y-53850000D01*
X155252857Y-53921428D01*
X155324285Y-54064285D01*
X155395714Y-54350000D01*
X155395714Y-54707142D01*
X155324285Y-54992857D01*
X155252857Y-55135714D01*
X155181428Y-55207142D01*
X155038571Y-55278571D01*
X154895714Y-55278571D01*
X154752857Y-55207142D01*
X154681428Y-55135714D01*
X154610000Y-54992857D01*
X154538571Y-54707142D01*
X154538571Y-54350000D01*
X154610000Y-54064285D01*
X154681428Y-53921428D01*
X154752857Y-53850000D01*
X154895714Y-53778571D01*
X155895714Y-53778571D02*
X156824285Y-53778571D01*
X156324285Y-54350000D01*
X156538571Y-54350000D01*
X156681428Y-54421428D01*
X156752857Y-54492857D01*
X156824285Y-54635714D01*
X156824285Y-54992857D01*
X156752857Y-55135714D01*
X156681428Y-55207142D01*
X156538571Y-55278571D01*
X156110000Y-55278571D01*
X155967142Y-55207142D01*
X155895714Y-55135714D01*
X140110000Y-57828571D02*
X140110000Y-56328571D01*
X140110000Y-56900000D02*
X140252857Y-56828571D01*
X140538571Y-56828571D01*
X140681428Y-56900000D01*
X140752857Y-56971428D01*
X140824285Y-57114285D01*
X140824285Y-57542857D01*
X140752857Y-57685714D01*
X140681428Y-57757142D01*
X140538571Y-57828571D01*
X140252857Y-57828571D01*
X140110000Y-57757142D01*
X141324285Y-56828571D02*
X141681428Y-57828571D01*
X142038571Y-56828571D02*
X141681428Y-57828571D01*
X141538571Y-58185714D01*
X141467142Y-58257142D01*
X141324285Y-58328571D01*
X143752857Y-57828571D02*
X143752857Y-56328571D01*
X144252857Y-57400000D01*
X144752857Y-56328571D01*
X144752857Y-57828571D01*
X146110000Y-57828571D02*
X146110000Y-57042857D01*
X146038571Y-56900000D01*
X145895714Y-56828571D01*
X145610000Y-56828571D01*
X145467142Y-56900000D01*
X146110000Y-57757142D02*
X145967142Y-57828571D01*
X145610000Y-57828571D01*
X145467142Y-57757142D01*
X145395714Y-57614285D01*
X145395714Y-57471428D01*
X145467142Y-57328571D01*
X145610000Y-57257142D01*
X145967142Y-57257142D01*
X146110000Y-57185714D01*
X146610000Y-56828571D02*
X147181428Y-56828571D01*
X146824285Y-56328571D02*
X146824285Y-57614285D01*
X146895714Y-57757142D01*
X147038571Y-57828571D01*
X147181428Y-57828571D01*
X147467142Y-56828571D02*
X148038571Y-56828571D01*
X147681428Y-56328571D02*
X147681428Y-57614285D01*
X147752857Y-57757142D01*
X147895714Y-57828571D01*
X148038571Y-57828571D01*
X150181428Y-57042857D02*
X150395714Y-57114285D01*
X150467142Y-57185714D01*
X150538571Y-57328571D01*
X150538571Y-57542857D01*
X150467142Y-57685714D01*
X150395714Y-57757142D01*
X150252857Y-57828571D01*
X149681428Y-57828571D01*
X149681428Y-56328571D01*
X150181428Y-56328571D01*
X150324285Y-56400000D01*
X150395714Y-56471428D01*
X150467142Y-56614285D01*
X150467142Y-56757142D01*
X150395714Y-56900000D01*
X150324285Y-56971428D01*
X150181428Y-57042857D01*
X149681428Y-57042857D01*
X151181428Y-57828571D02*
X151181428Y-56828571D01*
X151181428Y-57114285D02*
X151252857Y-56971428D01*
X151324285Y-56900000D01*
X151467142Y-56828571D01*
X151610000Y-56828571D01*
X152752857Y-57828571D02*
X152752857Y-57042857D01*
X152681428Y-56900000D01*
X152538571Y-56828571D01*
X152252857Y-56828571D01*
X152110000Y-56900000D01*
X152752857Y-57757142D02*
X152610000Y-57828571D01*
X152252857Y-57828571D01*
X152110000Y-57757142D01*
X152038571Y-57614285D01*
X152038571Y-57471428D01*
X152110000Y-57328571D01*
X152252857Y-57257142D01*
X152610000Y-57257142D01*
X152752857Y-57185714D01*
X154110000Y-57828571D02*
X154110000Y-56328571D01*
X154110000Y-57757142D02*
X153967142Y-57828571D01*
X153681428Y-57828571D01*
X153538571Y-57757142D01*
X153467142Y-57685714D01*
X153395714Y-57542857D01*
X153395714Y-57114285D01*
X153467142Y-56971428D01*
X153538571Y-56900000D01*
X153681428Y-56828571D01*
X153967142Y-56828571D01*
X154110000Y-56900000D01*
X154752857Y-57757142D02*
X154895714Y-57828571D01*
X155181428Y-57828571D01*
X155324285Y-57757142D01*
X155395714Y-57614285D01*
X155395714Y-57542857D01*
X155324285Y-57400000D01*
X155181428Y-57328571D01*
X154967142Y-57328571D01*
X154824285Y-57257142D01*
X154752857Y-57114285D01*
X154752857Y-57042857D01*
X154824285Y-56900000D01*
X154967142Y-56828571D01*
X155181428Y-56828571D01*
X155324285Y-56900000D01*
X156038571Y-57828571D02*
X156038571Y-56328571D01*
X156681428Y-57828571D02*
X156681428Y-57042857D01*
X156610000Y-56900000D01*
X156467142Y-56828571D01*
X156252857Y-56828571D01*
X156110000Y-56900000D01*
X156038571Y-56971428D01*
X158038571Y-57828571D02*
X158038571Y-57042857D01*
X157967142Y-56900000D01*
X157824285Y-56828571D01*
X157538571Y-56828571D01*
X157395714Y-56900000D01*
X158038571Y-57757142D02*
X157895714Y-57828571D01*
X157538571Y-57828571D01*
X157395714Y-57757142D01*
X157324285Y-57614285D01*
X157324285Y-57471428D01*
X157395714Y-57328571D01*
X157538571Y-57257142D01*
X157895714Y-57257142D01*
X158038571Y-57185714D01*
X158610000Y-56828571D02*
X158895714Y-57828571D01*
X159181428Y-57114285D01*
X159467142Y-57828571D01*
X159752857Y-56828571D01*
X136110000Y-60378571D02*
X136110000Y-59378571D01*
X136110000Y-59521428D02*
X136181428Y-59450000D01*
X136324285Y-59378571D01*
X136538571Y-59378571D01*
X136681428Y-59450000D01*
X136752857Y-59592857D01*
X136752857Y-60378571D01*
X136752857Y-59592857D02*
X136824285Y-59450000D01*
X136967142Y-59378571D01*
X137181428Y-59378571D01*
X137324285Y-59450000D01*
X137395714Y-59592857D01*
X137395714Y-60378571D01*
X138752857Y-60378571D02*
X138752857Y-59592857D01*
X138681428Y-59450000D01*
X138538571Y-59378571D01*
X138252857Y-59378571D01*
X138110000Y-59450000D01*
X138752857Y-60307142D02*
X138610000Y-60378571D01*
X138252857Y-60378571D01*
X138110000Y-60307142D01*
X138038571Y-60164285D01*
X138038571Y-60021428D01*
X138110000Y-59878571D01*
X138252857Y-59807142D01*
X138610000Y-59807142D01*
X138752857Y-59735714D01*
X139252857Y-59378571D02*
X139824285Y-59378571D01*
X139467142Y-58878571D02*
X139467142Y-60164285D01*
X139538571Y-60307142D01*
X139681428Y-60378571D01*
X139824285Y-60378571D01*
X140110000Y-59378571D02*
X140681428Y-59378571D01*
X140324285Y-58878571D02*
X140324285Y-60164285D01*
X140395714Y-60307142D01*
X140538571Y-60378571D01*
X140681428Y-60378571D01*
X141181428Y-60378571D02*
X141181428Y-58878571D01*
X141181428Y-59450000D02*
X141324285Y-59378571D01*
X141610000Y-59378571D01*
X141752857Y-59450000D01*
X141824285Y-59521428D01*
X141895714Y-59664285D01*
X141895714Y-60092857D01*
X141824285Y-60235714D01*
X141752857Y-60307142D01*
X141610000Y-60378571D01*
X141324285Y-60378571D01*
X141181428Y-60307142D01*
X142538571Y-60378571D02*
X142538571Y-59378571D01*
X142538571Y-59664285D02*
X142610000Y-59521428D01*
X142681428Y-59450000D01*
X142824285Y-59378571D01*
X142967142Y-59378571D01*
X144110000Y-60378571D02*
X144110000Y-59592857D01*
X144038571Y-59450000D01*
X143895714Y-59378571D01*
X143610000Y-59378571D01*
X143467142Y-59450000D01*
X144110000Y-60307142D02*
X143967142Y-60378571D01*
X143610000Y-60378571D01*
X143467142Y-60307142D01*
X143395714Y-60164285D01*
X143395714Y-60021428D01*
X143467142Y-59878571D01*
X143610000Y-59807142D01*
X143967142Y-59807142D01*
X144110000Y-59735714D01*
X145467142Y-60378571D02*
X145467142Y-58878571D01*
X145467142Y-60307142D02*
X145324285Y-60378571D01*
X145038571Y-60378571D01*
X144895714Y-60307142D01*
X144824285Y-60235714D01*
X144752857Y-60092857D01*
X144752857Y-59664285D01*
X144824285Y-59521428D01*
X144895714Y-59450000D01*
X145038571Y-59378571D01*
X145324285Y-59378571D01*
X145467142Y-59450000D01*
X146110000Y-60307142D02*
X146252857Y-60378571D01*
X146538571Y-60378571D01*
X146681428Y-60307142D01*
X146752857Y-60164285D01*
X146752857Y-60092857D01*
X146681428Y-59950000D01*
X146538571Y-59878571D01*
X146324285Y-59878571D01*
X146181428Y-59807142D01*
X146110000Y-59664285D01*
X146110000Y-59592857D01*
X146181428Y-59450000D01*
X146324285Y-59378571D01*
X146538571Y-59378571D01*
X146681428Y-59450000D01*
X147395714Y-60378571D02*
X147395714Y-58878571D01*
X148038571Y-60378571D02*
X148038571Y-59592857D01*
X147967142Y-59450000D01*
X147824285Y-59378571D01*
X147610000Y-59378571D01*
X147467142Y-59450000D01*
X147395714Y-59521428D01*
X149395714Y-60378571D02*
X149395714Y-59592857D01*
X149324285Y-59450000D01*
X149181428Y-59378571D01*
X148895714Y-59378571D01*
X148752857Y-59450000D01*
X149395714Y-60307142D02*
X149252857Y-60378571D01*
X148895714Y-60378571D01*
X148752857Y-60307142D01*
X148681428Y-60164285D01*
X148681428Y-60021428D01*
X148752857Y-59878571D01*
X148895714Y-59807142D01*
X149252857Y-59807142D01*
X149395714Y-59735714D01*
X149967142Y-59378571D02*
X150252857Y-60378571D01*
X150538571Y-59664285D01*
X150824285Y-60378571D01*
X151110000Y-59378571D01*
X152324285Y-60378571D02*
X152324285Y-58878571D01*
X152324285Y-60307142D02*
X152181428Y-60378571D01*
X151895714Y-60378571D01*
X151752857Y-60307142D01*
X151681428Y-60235714D01*
X151610000Y-60092857D01*
X151610000Y-59664285D01*
X151681428Y-59521428D01*
X151752857Y-59450000D01*
X151895714Y-59378571D01*
X152181428Y-59378571D01*
X152324285Y-59450000D01*
X153610000Y-60307142D02*
X153467142Y-60378571D01*
X153181428Y-60378571D01*
X153038571Y-60307142D01*
X152967142Y-60164285D01*
X152967142Y-59592857D01*
X153038571Y-59450000D01*
X153181428Y-59378571D01*
X153467142Y-59378571D01*
X153610000Y-59450000D01*
X153681428Y-59592857D01*
X153681428Y-59735714D01*
X152967142Y-59878571D01*
X154252857Y-60307142D02*
X154395714Y-60378571D01*
X154681428Y-60378571D01*
X154824285Y-60307142D01*
X154895714Y-60164285D01*
X154895714Y-60092857D01*
X154824285Y-59950000D01*
X154681428Y-59878571D01*
X154467142Y-59878571D01*
X154324285Y-59807142D01*
X154252857Y-59664285D01*
X154252857Y-59592857D01*
X154324285Y-59450000D01*
X154467142Y-59378571D01*
X154681428Y-59378571D01*
X154824285Y-59450000D01*
X155538571Y-60378571D02*
X155538571Y-59378571D01*
X155538571Y-58878571D02*
X155467142Y-58950000D01*
X155538571Y-59021428D01*
X155610000Y-58950000D01*
X155538571Y-58878571D01*
X155538571Y-59021428D01*
X156895714Y-59378571D02*
X156895714Y-60592857D01*
X156824285Y-60735714D01*
X156752857Y-60807142D01*
X156610000Y-60878571D01*
X156395714Y-60878571D01*
X156252857Y-60807142D01*
X156895714Y-60307142D02*
X156752857Y-60378571D01*
X156467142Y-60378571D01*
X156324285Y-60307142D01*
X156252857Y-60235714D01*
X156181428Y-60092857D01*
X156181428Y-59664285D01*
X156252857Y-59521428D01*
X156324285Y-59450000D01*
X156467142Y-59378571D01*
X156752857Y-59378571D01*
X156895714Y-59450000D01*
X157610000Y-59378571D02*
X157610000Y-60378571D01*
X157610000Y-59521428D02*
X157681428Y-59450000D01*
X157824285Y-59378571D01*
X158038571Y-59378571D01*
X158181428Y-59450000D01*
X158252857Y-59592857D01*
X158252857Y-60378571D01*
X158967142Y-60235714D02*
X159038571Y-60307142D01*
X158967142Y-60378571D01*
X158895714Y-60307142D01*
X158967142Y-60235714D01*
X158967142Y-60378571D01*
X160324285Y-60307142D02*
X160181428Y-60378571D01*
X159895714Y-60378571D01*
X159752857Y-60307142D01*
X159681428Y-60235714D01*
X159610000Y-60092857D01*
X159610000Y-59664285D01*
X159681428Y-59521428D01*
X159752857Y-59450000D01*
X159895714Y-59378571D01*
X160181428Y-59378571D01*
X160324285Y-59450000D01*
X161181428Y-60378571D02*
X161038571Y-60307142D01*
X160967142Y-60235714D01*
X160895714Y-60092857D01*
X160895714Y-59664285D01*
X160967142Y-59521428D01*
X161038571Y-59450000D01*
X161181428Y-59378571D01*
X161395714Y-59378571D01*
X161538571Y-59450000D01*
X161610000Y-59521428D01*
X161681428Y-59664285D01*
X161681428Y-60092857D01*
X161610000Y-60235714D01*
X161538571Y-60307142D01*
X161395714Y-60378571D01*
X161181428Y-60378571D01*
X162324285Y-60378571D02*
X162324285Y-59378571D01*
X162324285Y-59521428D02*
X162395714Y-59450000D01*
X162538571Y-59378571D01*
X162752857Y-59378571D01*
X162895714Y-59450000D01*
X162967142Y-59592857D01*
X162967142Y-60378571D01*
X162967142Y-59592857D02*
X163038571Y-59450000D01*
X163181428Y-59378571D01*
X163395714Y-59378571D01*
X163538571Y-59450000D01*
X163610000Y-59592857D01*
X163610000Y-60378571D01*
X177687857Y-146267857D02*
X177759285Y-146053571D01*
X177830714Y-145982142D01*
X177973571Y-145910714D01*
X178187857Y-145910714D01*
X178330714Y-145982142D01*
X178402142Y-146053571D01*
X178473571Y-146196428D01*
X178473571Y-146767857D01*
X176973571Y-146767857D01*
X176973571Y-146267857D01*
X177045000Y-146125000D01*
X177116428Y-146053571D01*
X177259285Y-145982142D01*
X177402142Y-145982142D01*
X177545000Y-146053571D01*
X177616428Y-146125000D01*
X177687857Y-146267857D01*
X177687857Y-146767857D01*
X177902142Y-145267857D02*
X177902142Y-144125000D01*
X178473571Y-144696428D02*
X177330714Y-144696428D01*
X180237857Y-146267857D02*
X180309285Y-146053571D01*
X180380714Y-145982142D01*
X180523571Y-145910714D01*
X180737857Y-145910714D01*
X180880714Y-145982142D01*
X180952142Y-146053571D01*
X181023571Y-146196428D01*
X181023571Y-146767857D01*
X179523571Y-146767857D01*
X179523571Y-146267857D01*
X179595000Y-146125000D01*
X179666428Y-146053571D01*
X179809285Y-145982142D01*
X179952142Y-145982142D01*
X180095000Y-146053571D01*
X180166428Y-146125000D01*
X180237857Y-146267857D01*
X180237857Y-146767857D01*
X180452142Y-145267857D02*
X180452142Y-144125000D01*
X128266428Y-137593571D02*
X127552142Y-137593571D01*
X127480714Y-138307857D01*
X127552142Y-138236428D01*
X127695000Y-138165000D01*
X128052142Y-138165000D01*
X128195000Y-138236428D01*
X128266428Y-138307857D01*
X128337857Y-138450714D01*
X128337857Y-138807857D01*
X128266428Y-138950714D01*
X128195000Y-139022142D01*
X128052142Y-139093571D01*
X127695000Y-139093571D01*
X127552142Y-139022142D01*
X127480714Y-138950714D01*
X128766428Y-137593571D02*
X129266428Y-139093571D01*
X129766428Y-137593571D01*
X128266428Y-140143571D02*
X127552142Y-140143571D01*
X127480714Y-140857857D01*
X127552142Y-140786428D01*
X127695000Y-140715000D01*
X128052142Y-140715000D01*
X128195000Y-140786428D01*
X128266428Y-140857857D01*
X128337857Y-141000714D01*
X128337857Y-141357857D01*
X128266428Y-141500714D01*
X128195000Y-141572142D01*
X128052142Y-141643571D01*
X127695000Y-141643571D01*
X127552142Y-141572142D01*
X127480714Y-141500714D01*
X128766428Y-140143571D02*
X129266428Y-141643571D01*
X129766428Y-140143571D01*
X128337857Y-142765000D02*
X128195000Y-142693571D01*
X127980714Y-142693571D01*
X127766428Y-142765000D01*
X127623571Y-142907857D01*
X127552142Y-143050714D01*
X127480714Y-143336428D01*
X127480714Y-143550714D01*
X127552142Y-143836428D01*
X127623571Y-143979285D01*
X127766428Y-144122142D01*
X127980714Y-144193571D01*
X128123571Y-144193571D01*
X128337857Y-144122142D01*
X128409285Y-144050714D01*
X128409285Y-143550714D01*
X128123571Y-143550714D01*
X129052142Y-144193571D02*
X129052142Y-142693571D01*
X129909285Y-144193571D01*
X129909285Y-142693571D01*
X130623571Y-144193571D02*
X130623571Y-142693571D01*
X130980714Y-142693571D01*
X131195000Y-142765000D01*
X131337857Y-142907857D01*
X131409285Y-143050714D01*
X131480714Y-143336428D01*
X131480714Y-143550714D01*
X131409285Y-143836428D01*
X131337857Y-143979285D01*
X131195000Y-144122142D01*
X130980714Y-144193571D01*
X130623571Y-144193571D01*
X128337857Y-145315000D02*
X128195000Y-145243571D01*
X127980714Y-145243571D01*
X127766428Y-145315000D01*
X127623571Y-145457857D01*
X127552142Y-145600714D01*
X127480714Y-145886428D01*
X127480714Y-146100714D01*
X127552142Y-146386428D01*
X127623571Y-146529285D01*
X127766428Y-146672142D01*
X127980714Y-146743571D01*
X128123571Y-146743571D01*
X128337857Y-146672142D01*
X128409285Y-146600714D01*
X128409285Y-146100714D01*
X128123571Y-146100714D01*
X129052142Y-146743571D02*
X129052142Y-145243571D01*
X129909285Y-146743571D01*
X129909285Y-145243571D01*
X130623571Y-146743571D02*
X130623571Y-145243571D01*
X130980714Y-145243571D01*
X131195000Y-145315000D01*
X131337857Y-145457857D01*
X131409285Y-145600714D01*
X131480714Y-145886428D01*
X131480714Y-146100714D01*
X131409285Y-146386428D01*
X131337857Y-146529285D01*
X131195000Y-146672142D01*
X130980714Y-146743571D01*
X130623571Y-146743571D01*
X122472142Y-116198571D02*
X122472142Y-114698571D01*
X122829285Y-114698571D01*
X123043571Y-114770000D01*
X123186428Y-114912857D01*
X123257857Y-115055714D01*
X123329285Y-115341428D01*
X123329285Y-115555714D01*
X123257857Y-115841428D01*
X123186428Y-115984285D01*
X123043571Y-116127142D01*
X122829285Y-116198571D01*
X122472142Y-116198571D01*
X124615000Y-115198571D02*
X124615000Y-116198571D01*
X124257857Y-114627142D02*
X123900714Y-115698571D01*
X124829285Y-115698571D01*
X122472142Y-118748571D02*
X122472142Y-117248571D01*
X122829285Y-117248571D01*
X123043571Y-117320000D01*
X123186428Y-117462857D01*
X123257857Y-117605714D01*
X123329285Y-117891428D01*
X123329285Y-118105714D01*
X123257857Y-118391428D01*
X123186428Y-118534285D01*
X123043571Y-118677142D01*
X122829285Y-118748571D01*
X122472142Y-118748571D01*
X123829285Y-117248571D02*
X124757857Y-117248571D01*
X124257857Y-117820000D01*
X124472142Y-117820000D01*
X124615000Y-117891428D01*
X124686428Y-117962857D01*
X124757857Y-118105714D01*
X124757857Y-118462857D01*
X124686428Y-118605714D01*
X124615000Y-118677142D01*
X124472142Y-118748571D01*
X124043571Y-118748571D01*
X123900714Y-118677142D01*
X123829285Y-118605714D01*
X122472142Y-121298571D02*
X122472142Y-119798571D01*
X122829285Y-119798571D01*
X123043571Y-119870000D01*
X123186428Y-120012857D01*
X123257857Y-120155714D01*
X123329285Y-120441428D01*
X123329285Y-120655714D01*
X123257857Y-120941428D01*
X123186428Y-121084285D01*
X123043571Y-121227142D01*
X122829285Y-121298571D01*
X122472142Y-121298571D01*
X123900714Y-119941428D02*
X123972142Y-119870000D01*
X124115000Y-119798571D01*
X124472142Y-119798571D01*
X124615000Y-119870000D01*
X124686428Y-119941428D01*
X124757857Y-120084285D01*
X124757857Y-120227142D01*
X124686428Y-120441428D01*
X123829285Y-121298571D01*
X124757857Y-121298571D01*
X122472142Y-123848571D02*
X122472142Y-122348571D01*
X122829285Y-122348571D01*
X123043571Y-122420000D01*
X123186428Y-122562857D01*
X123257857Y-122705714D01*
X123329285Y-122991428D01*
X123329285Y-123205714D01*
X123257857Y-123491428D01*
X123186428Y-123634285D01*
X123043571Y-123777142D01*
X122829285Y-123848571D01*
X122472142Y-123848571D01*
X124757857Y-123848571D02*
X123900714Y-123848571D01*
X124329285Y-123848571D02*
X124329285Y-122348571D01*
X124186428Y-122562857D01*
X124043571Y-122705714D01*
X123900714Y-122777142D01*
X122472142Y-126398571D02*
X122472142Y-124898571D01*
X122829285Y-124898571D01*
X123043571Y-124970000D01*
X123186428Y-125112857D01*
X123257857Y-125255714D01*
X123329285Y-125541428D01*
X123329285Y-125755714D01*
X123257857Y-126041428D01*
X123186428Y-126184285D01*
X123043571Y-126327142D01*
X122829285Y-126398571D01*
X122472142Y-126398571D01*
X124257857Y-124898571D02*
X124400714Y-124898571D01*
X124543571Y-124970000D01*
X124615000Y-125041428D01*
X124686428Y-125184285D01*
X124757857Y-125470000D01*
X124757857Y-125827142D01*
X124686428Y-126112857D01*
X124615000Y-126255714D01*
X124543571Y-126327142D01*
X124400714Y-126398571D01*
X124257857Y-126398571D01*
X124115000Y-126327142D01*
X124043571Y-126255714D01*
X123972142Y-126112857D01*
X123900714Y-125827142D01*
X123900714Y-125470000D01*
X123972142Y-125184285D01*
X124043571Y-125041428D01*
X124115000Y-124970000D01*
X124257857Y-124898571D01*
X122400714Y-128520000D02*
X123115000Y-128520000D01*
X122257857Y-128948571D02*
X122757857Y-127448571D01*
X123257857Y-128948571D01*
X124472142Y-127448571D02*
X123757857Y-127448571D01*
X123686428Y-128162857D01*
X123757857Y-128091428D01*
X123900714Y-128020000D01*
X124257857Y-128020000D01*
X124400714Y-128091428D01*
X124472142Y-128162857D01*
X124543571Y-128305714D01*
X124543571Y-128662857D01*
X124472142Y-128805714D01*
X124400714Y-128877142D01*
X124257857Y-128948571D01*
X123900714Y-128948571D01*
X123757857Y-128877142D01*
X123686428Y-128805714D01*
X122400714Y-131070000D02*
X123115000Y-131070000D01*
X122257857Y-131498571D02*
X122757857Y-129998571D01*
X123257857Y-131498571D01*
X124400714Y-130498571D02*
X124400714Y-131498571D01*
X124043571Y-129927142D02*
X123686428Y-130998571D01*
X124615000Y-130998571D01*
X122400714Y-133620000D02*
X123115000Y-133620000D01*
X122257857Y-134048571D02*
X122757857Y-132548571D01*
X123257857Y-134048571D01*
X123615000Y-132548571D02*
X124543571Y-132548571D01*
X124043571Y-133120000D01*
X124257857Y-133120000D01*
X124400714Y-133191428D01*
X124472142Y-133262857D01*
X124543571Y-133405714D01*
X124543571Y-133762857D01*
X124472142Y-133905714D01*
X124400714Y-133977142D01*
X124257857Y-134048571D01*
X123829285Y-134048571D01*
X123686428Y-133977142D01*
X123615000Y-133905714D01*
X122400714Y-136170000D02*
X123115000Y-136170000D01*
X122257857Y-136598571D02*
X122757857Y-135098571D01*
X123257857Y-136598571D01*
X123686428Y-135241428D02*
X123757857Y-135170000D01*
X123900714Y-135098571D01*
X124257857Y-135098571D01*
X124400714Y-135170000D01*
X124472142Y-135241428D01*
X124543571Y-135384285D01*
X124543571Y-135527142D01*
X124472142Y-135741428D01*
X123615000Y-136598571D01*
X124543571Y-136598571D01*
X122400714Y-138720000D02*
X123115000Y-138720000D01*
X122257857Y-139148571D02*
X122757857Y-137648571D01*
X123257857Y-139148571D01*
X124543571Y-139148571D02*
X123686428Y-139148571D01*
X124115000Y-139148571D02*
X124115000Y-137648571D01*
X123972142Y-137862857D01*
X123829285Y-138005714D01*
X123686428Y-138077142D01*
X122400714Y-141270000D02*
X123115000Y-141270000D01*
X122257857Y-141698571D02*
X122757857Y-140198571D01*
X123257857Y-141698571D01*
X124043571Y-140198571D02*
X124186428Y-140198571D01*
X124329285Y-140270000D01*
X124400714Y-140341428D01*
X124472142Y-140484285D01*
X124543571Y-140770000D01*
X124543571Y-141127142D01*
X124472142Y-141412857D01*
X124400714Y-141555714D01*
X124329285Y-141627142D01*
X124186428Y-141698571D01*
X124043571Y-141698571D01*
X123900714Y-141627142D01*
X123829285Y-141555714D01*
X123757857Y-141412857D01*
X123686428Y-141127142D01*
X123686428Y-140770000D01*
X123757857Y-140484285D01*
X123829285Y-140341428D01*
X123900714Y-140270000D01*
X124043571Y-140198571D01*
X114013571Y-116208571D02*
X114013571Y-114708571D01*
X114370714Y-114708571D01*
X114585000Y-114780000D01*
X114727857Y-114922857D01*
X114799285Y-115065714D01*
X114870714Y-115351428D01*
X114870714Y-115565714D01*
X114799285Y-115851428D01*
X114727857Y-115994285D01*
X114585000Y-116137142D01*
X114370714Y-116208571D01*
X114013571Y-116208571D01*
X116227857Y-114708571D02*
X115513571Y-114708571D01*
X115442142Y-115422857D01*
X115513571Y-115351428D01*
X115656428Y-115280000D01*
X116013571Y-115280000D01*
X116156428Y-115351428D01*
X116227857Y-115422857D01*
X116299285Y-115565714D01*
X116299285Y-115922857D01*
X116227857Y-116065714D01*
X116156428Y-116137142D01*
X116013571Y-116208571D01*
X115656428Y-116208571D01*
X115513571Y-116137142D01*
X115442142Y-116065714D01*
X114013571Y-118758571D02*
X114013571Y-117258571D01*
X114370714Y-117258571D01*
X114585000Y-117330000D01*
X114727857Y-117472857D01*
X114799285Y-117615714D01*
X114870714Y-117901428D01*
X114870714Y-118115714D01*
X114799285Y-118401428D01*
X114727857Y-118544285D01*
X114585000Y-118687142D01*
X114370714Y-118758571D01*
X114013571Y-118758571D01*
X116156428Y-117258571D02*
X115870714Y-117258571D01*
X115727857Y-117330000D01*
X115656428Y-117401428D01*
X115513571Y-117615714D01*
X115442142Y-117901428D01*
X115442142Y-118472857D01*
X115513571Y-118615714D01*
X115585000Y-118687142D01*
X115727857Y-118758571D01*
X116013571Y-118758571D01*
X116156428Y-118687142D01*
X116227857Y-118615714D01*
X116299285Y-118472857D01*
X116299285Y-118115714D01*
X116227857Y-117972857D01*
X116156428Y-117901428D01*
X116013571Y-117830000D01*
X115727857Y-117830000D01*
X115585000Y-117901428D01*
X115513571Y-117972857D01*
X115442142Y-118115714D01*
X114013571Y-121308571D02*
X114013571Y-119808571D01*
X114370714Y-119808571D01*
X114585000Y-119880000D01*
X114727857Y-120022857D01*
X114799285Y-120165714D01*
X114870714Y-120451428D01*
X114870714Y-120665714D01*
X114799285Y-120951428D01*
X114727857Y-121094285D01*
X114585000Y-121237142D01*
X114370714Y-121308571D01*
X114013571Y-121308571D01*
X115370714Y-119808571D02*
X116370714Y-119808571D01*
X115727857Y-121308571D01*
X114013571Y-123858571D02*
X114013571Y-122358571D01*
X114370714Y-122358571D01*
X114585000Y-122430000D01*
X114727857Y-122572857D01*
X114799285Y-122715714D01*
X114870714Y-123001428D01*
X114870714Y-123215714D01*
X114799285Y-123501428D01*
X114727857Y-123644285D01*
X114585000Y-123787142D01*
X114370714Y-123858571D01*
X114013571Y-123858571D01*
X115727857Y-123001428D02*
X115585000Y-122930000D01*
X115513571Y-122858571D01*
X115442142Y-122715714D01*
X115442142Y-122644285D01*
X115513571Y-122501428D01*
X115585000Y-122430000D01*
X115727857Y-122358571D01*
X116013571Y-122358571D01*
X116156428Y-122430000D01*
X116227857Y-122501428D01*
X116299285Y-122644285D01*
X116299285Y-122715714D01*
X116227857Y-122858571D01*
X116156428Y-122930000D01*
X116013571Y-123001428D01*
X115727857Y-123001428D01*
X115585000Y-123072857D01*
X115513571Y-123144285D01*
X115442142Y-123287142D01*
X115442142Y-123572857D01*
X115513571Y-123715714D01*
X115585000Y-123787142D01*
X115727857Y-123858571D01*
X116013571Y-123858571D01*
X116156428Y-123787142D01*
X116227857Y-123715714D01*
X116299285Y-123572857D01*
X116299285Y-123287142D01*
X116227857Y-123144285D01*
X116156428Y-123072857D01*
X116013571Y-123001428D01*
X114013571Y-126408571D02*
X114013571Y-124908571D01*
X114370714Y-124908571D01*
X114585000Y-124980000D01*
X114727857Y-125122857D01*
X114799285Y-125265714D01*
X114870714Y-125551428D01*
X114870714Y-125765714D01*
X114799285Y-126051428D01*
X114727857Y-126194285D01*
X114585000Y-126337142D01*
X114370714Y-126408571D01*
X114013571Y-126408571D01*
X115585000Y-126408571D02*
X115870714Y-126408571D01*
X116013571Y-126337142D01*
X116085000Y-126265714D01*
X116227857Y-126051428D01*
X116299285Y-125765714D01*
X116299285Y-125194285D01*
X116227857Y-125051428D01*
X116156428Y-124980000D01*
X116013571Y-124908571D01*
X115727857Y-124908571D01*
X115585000Y-124980000D01*
X115513571Y-125051428D01*
X115442142Y-125194285D01*
X115442142Y-125551428D01*
X115513571Y-125694285D01*
X115585000Y-125765714D01*
X115727857Y-125837142D01*
X116013571Y-125837142D01*
X116156428Y-125765714D01*
X116227857Y-125694285D01*
X116299285Y-125551428D01*
X112585000Y-128958571D02*
X112585000Y-127458571D01*
X112942142Y-127458571D01*
X113156428Y-127530000D01*
X113299285Y-127672857D01*
X113370714Y-127815714D01*
X113442142Y-128101428D01*
X113442142Y-128315714D01*
X113370714Y-128601428D01*
X113299285Y-128744285D01*
X113156428Y-128887142D01*
X112942142Y-128958571D01*
X112585000Y-128958571D01*
X114870714Y-128958571D02*
X114013571Y-128958571D01*
X114442142Y-128958571D02*
X114442142Y-127458571D01*
X114299285Y-127672857D01*
X114156428Y-127815714D01*
X114013571Y-127887142D01*
X115799285Y-127458571D02*
X115942142Y-127458571D01*
X116085000Y-127530000D01*
X116156428Y-127601428D01*
X116227857Y-127744285D01*
X116299285Y-128030000D01*
X116299285Y-128387142D01*
X116227857Y-128672857D01*
X116156428Y-128815714D01*
X116085000Y-128887142D01*
X115942142Y-128958571D01*
X115799285Y-128958571D01*
X115656428Y-128887142D01*
X115585000Y-128815714D01*
X115513571Y-128672857D01*
X115442142Y-128387142D01*
X115442142Y-128030000D01*
X115513571Y-127744285D01*
X115585000Y-127601428D01*
X115656428Y-127530000D01*
X115799285Y-127458571D01*
X112585000Y-131508571D02*
X112585000Y-130008571D01*
X112942142Y-130008571D01*
X113156428Y-130080000D01*
X113299285Y-130222857D01*
X113370714Y-130365714D01*
X113442142Y-130651428D01*
X113442142Y-130865714D01*
X113370714Y-131151428D01*
X113299285Y-131294285D01*
X113156428Y-131437142D01*
X112942142Y-131508571D01*
X112585000Y-131508571D01*
X114870714Y-131508571D02*
X114013571Y-131508571D01*
X114442142Y-131508571D02*
X114442142Y-130008571D01*
X114299285Y-130222857D01*
X114156428Y-130365714D01*
X114013571Y-130437142D01*
X116299285Y-131508571D02*
X115442142Y-131508571D01*
X115870714Y-131508571D02*
X115870714Y-130008571D01*
X115727857Y-130222857D01*
X115585000Y-130365714D01*
X115442142Y-130437142D01*
X112585000Y-134058571D02*
X112585000Y-132558571D01*
X112942142Y-132558571D01*
X113156428Y-132630000D01*
X113299285Y-132772857D01*
X113370714Y-132915714D01*
X113442142Y-133201428D01*
X113442142Y-133415714D01*
X113370714Y-133701428D01*
X113299285Y-133844285D01*
X113156428Y-133987142D01*
X112942142Y-134058571D01*
X112585000Y-134058571D01*
X114870714Y-134058571D02*
X114013571Y-134058571D01*
X114442142Y-134058571D02*
X114442142Y-132558571D01*
X114299285Y-132772857D01*
X114156428Y-132915714D01*
X114013571Y-132987142D01*
X115442142Y-132701428D02*
X115513571Y-132630000D01*
X115656428Y-132558571D01*
X116013571Y-132558571D01*
X116156428Y-132630000D01*
X116227857Y-132701428D01*
X116299285Y-132844285D01*
X116299285Y-132987142D01*
X116227857Y-133201428D01*
X115370714Y-134058571D01*
X116299285Y-134058571D01*
X112585000Y-136608571D02*
X112585000Y-135108571D01*
X112942142Y-135108571D01*
X113156428Y-135180000D01*
X113299285Y-135322857D01*
X113370714Y-135465714D01*
X113442142Y-135751428D01*
X113442142Y-135965714D01*
X113370714Y-136251428D01*
X113299285Y-136394285D01*
X113156428Y-136537142D01*
X112942142Y-136608571D01*
X112585000Y-136608571D01*
X114870714Y-136608571D02*
X114013571Y-136608571D01*
X114442142Y-136608571D02*
X114442142Y-135108571D01*
X114299285Y-135322857D01*
X114156428Y-135465714D01*
X114013571Y-135537142D01*
X115370714Y-135108571D02*
X116299285Y-135108571D01*
X115799285Y-135680000D01*
X116013571Y-135680000D01*
X116156428Y-135751428D01*
X116227857Y-135822857D01*
X116299285Y-135965714D01*
X116299285Y-136322857D01*
X116227857Y-136465714D01*
X116156428Y-136537142D01*
X116013571Y-136608571D01*
X115585000Y-136608571D01*
X115442142Y-136537142D01*
X115370714Y-136465714D01*
D11*
G04 #@! TO.C,R1*
X139700000Y-115340000D02*
X139700000Y-116110000D01*
X139700000Y-123420000D02*
X139700000Y-122650000D01*
X138330000Y-116110000D02*
X138330000Y-122650000D01*
X141070000Y-116110000D02*
X138330000Y-116110000D01*
X141070000Y-122650000D02*
X141070000Y-116110000D01*
X138330000Y-122650000D02*
X141070000Y-122650000D01*
G04 #@! TO.C,R7*
X183110000Y-130810000D02*
X182340000Y-130810000D01*
X175030000Y-130810000D02*
X175800000Y-130810000D01*
X182340000Y-129440000D02*
X175800000Y-129440000D01*
X182340000Y-132180000D02*
X182340000Y-129440000D01*
X175800000Y-132180000D02*
X182340000Y-132180000D01*
X175800000Y-129440000D02*
X175800000Y-132180000D01*
G04 #@! TO.C,R11*
X183110000Y-118110000D02*
X182340000Y-118110000D01*
X175030000Y-118110000D02*
X175800000Y-118110000D01*
X182340000Y-116740000D02*
X175800000Y-116740000D01*
X182340000Y-119480000D02*
X182340000Y-116740000D01*
X175800000Y-119480000D02*
X182340000Y-119480000D01*
X175800000Y-116740000D02*
X175800000Y-119480000D01*
G04 #@! TO.C,R10*
X183110000Y-115570000D02*
X182340000Y-115570000D01*
X175030000Y-115570000D02*
X175800000Y-115570000D01*
X182340000Y-114200000D02*
X175800000Y-114200000D01*
X182340000Y-116940000D02*
X182340000Y-114200000D01*
X175800000Y-116940000D02*
X182340000Y-116940000D01*
X175800000Y-114200000D02*
X175800000Y-116940000D01*
G04 #@! TO.C,R9*
X137160000Y-115340000D02*
X137160000Y-116110000D01*
X137160000Y-123420000D02*
X137160000Y-122650000D01*
X135790000Y-116110000D02*
X135790000Y-122650000D01*
X138530000Y-116110000D02*
X135790000Y-116110000D01*
X138530000Y-122650000D02*
X138530000Y-116110000D01*
X135790000Y-122650000D02*
X138530000Y-122650000D01*
G04 #@! TO.C,R8*
X142240000Y-115340000D02*
X142240000Y-116110000D01*
X142240000Y-123420000D02*
X142240000Y-122650000D01*
X140870000Y-116110000D02*
X140870000Y-122650000D01*
X143610000Y-116110000D02*
X140870000Y-116110000D01*
X143610000Y-122650000D02*
X143610000Y-116110000D01*
X140870000Y-122650000D02*
X143610000Y-122650000D01*
G04 #@! TO.C,R6*
X183110000Y-128270000D02*
X182340000Y-128270000D01*
X175030000Y-128270000D02*
X175800000Y-128270000D01*
X182340000Y-126900000D02*
X175800000Y-126900000D01*
X182340000Y-129640000D02*
X182340000Y-126900000D01*
X175800000Y-129640000D02*
X182340000Y-129640000D01*
X175800000Y-126900000D02*
X175800000Y-129640000D01*
G04 #@! TO.C,R5*
X183110000Y-125730000D02*
X182340000Y-125730000D01*
X175030000Y-125730000D02*
X175800000Y-125730000D01*
X182340000Y-124360000D02*
X175800000Y-124360000D01*
X182340000Y-127100000D02*
X182340000Y-124360000D01*
X175800000Y-127100000D02*
X182340000Y-127100000D01*
X175800000Y-124360000D02*
X175800000Y-127100000D01*
G04 #@! TO.C,R4*
X183110000Y-123190000D02*
X182340000Y-123190000D01*
X175030000Y-123190000D02*
X175800000Y-123190000D01*
X182340000Y-121820000D02*
X175800000Y-121820000D01*
X182340000Y-124560000D02*
X182340000Y-121820000D01*
X175800000Y-124560000D02*
X182340000Y-124560000D01*
X175800000Y-121820000D02*
X175800000Y-124560000D01*
G04 #@! TO.C,R3*
X183110000Y-120650000D02*
X182340000Y-120650000D01*
X175030000Y-120650000D02*
X175800000Y-120650000D01*
X182340000Y-119280000D02*
X175800000Y-119280000D01*
X182340000Y-122020000D02*
X182340000Y-119280000D01*
X175800000Y-122020000D02*
X182340000Y-122020000D01*
X175800000Y-119280000D02*
X175800000Y-122020000D01*
G04 #@! TO.C,R2*
X183110000Y-133350000D02*
X182340000Y-133350000D01*
X175030000Y-133350000D02*
X175800000Y-133350000D01*
X182340000Y-131980000D02*
X175800000Y-131980000D01*
X182340000Y-134720000D02*
X182340000Y-131980000D01*
X175800000Y-134720000D02*
X182340000Y-134720000D01*
X175800000Y-131980000D02*
X175800000Y-134720000D01*
G04 #@! TO.C,C10*
X165704759Y-115956000D02*
X165704759Y-116586000D01*
X165389759Y-116271000D02*
X166019759Y-116271000D01*
X172131000Y-117708000D02*
X172131000Y-118512000D01*
X172091000Y-117477000D02*
X172091000Y-118743000D01*
X172051000Y-117308000D02*
X172051000Y-118912000D01*
X172011000Y-117170000D02*
X172011000Y-119050000D01*
X171971000Y-117051000D02*
X171971000Y-119169000D01*
X171931000Y-116945000D02*
X171931000Y-119275000D01*
X171891000Y-116848000D02*
X171891000Y-119372000D01*
X171851000Y-116760000D02*
X171851000Y-119460000D01*
X171811000Y-116678000D02*
X171811000Y-119542000D01*
X171771000Y-116601000D02*
X171771000Y-119619000D01*
X171731000Y-116529000D02*
X171731000Y-119691000D01*
X171691000Y-116460000D02*
X171691000Y-119760000D01*
X171651000Y-116396000D02*
X171651000Y-119824000D01*
X171611000Y-116334000D02*
X171611000Y-119886000D01*
X171571000Y-116276000D02*
X171571000Y-119944000D01*
X171531000Y-116220000D02*
X171531000Y-120000000D01*
X171491000Y-116166000D02*
X171491000Y-120054000D01*
X171451000Y-116115000D02*
X171451000Y-120105000D01*
X171411000Y-116066000D02*
X171411000Y-120154000D01*
X171371000Y-116018000D02*
X171371000Y-120202000D01*
X171331000Y-115973000D02*
X171331000Y-120247000D01*
X171291000Y-115928000D02*
X171291000Y-120292000D01*
X171251000Y-115886000D02*
X171251000Y-120334000D01*
X171211000Y-115845000D02*
X171211000Y-120375000D01*
X171171000Y-119150000D02*
X171171000Y-120415000D01*
X171171000Y-115805000D02*
X171171000Y-117070000D01*
X171131000Y-119150000D02*
X171131000Y-120453000D01*
X171131000Y-115767000D02*
X171131000Y-117070000D01*
X171091000Y-119150000D02*
X171091000Y-120490000D01*
X171091000Y-115730000D02*
X171091000Y-117070000D01*
X171051000Y-119150000D02*
X171051000Y-120526000D01*
X171051000Y-115694000D02*
X171051000Y-117070000D01*
X171011000Y-119150000D02*
X171011000Y-120560000D01*
X171011000Y-115660000D02*
X171011000Y-117070000D01*
X170971000Y-119150000D02*
X170971000Y-120594000D01*
X170971000Y-115626000D02*
X170971000Y-117070000D01*
X170931000Y-119150000D02*
X170931000Y-120626000D01*
X170931000Y-115594000D02*
X170931000Y-117070000D01*
X170891000Y-119150000D02*
X170891000Y-120658000D01*
X170891000Y-115562000D02*
X170891000Y-117070000D01*
X170851000Y-119150000D02*
X170851000Y-120688000D01*
X170851000Y-115532000D02*
X170851000Y-117070000D01*
X170811000Y-119150000D02*
X170811000Y-120717000D01*
X170811000Y-115503000D02*
X170811000Y-117070000D01*
X170771000Y-119150000D02*
X170771000Y-120746000D01*
X170771000Y-115474000D02*
X170771000Y-117070000D01*
X170731000Y-119150000D02*
X170731000Y-120774000D01*
X170731000Y-115446000D02*
X170731000Y-117070000D01*
X170691000Y-119150000D02*
X170691000Y-120800000D01*
X170691000Y-115420000D02*
X170691000Y-117070000D01*
X170651000Y-119150000D02*
X170651000Y-120826000D01*
X170651000Y-115394000D02*
X170651000Y-117070000D01*
X170611000Y-119150000D02*
X170611000Y-120852000D01*
X170611000Y-115368000D02*
X170611000Y-117070000D01*
X170571000Y-119150000D02*
X170571000Y-120876000D01*
X170571000Y-115344000D02*
X170571000Y-117070000D01*
X170531000Y-119150000D02*
X170531000Y-120900000D01*
X170531000Y-115320000D02*
X170531000Y-117070000D01*
X170491000Y-119150000D02*
X170491000Y-120922000D01*
X170491000Y-115298000D02*
X170491000Y-117070000D01*
X170451000Y-119150000D02*
X170451000Y-120944000D01*
X170451000Y-115276000D02*
X170451000Y-117070000D01*
X170411000Y-119150000D02*
X170411000Y-120966000D01*
X170411000Y-115254000D02*
X170411000Y-117070000D01*
X170371000Y-119150000D02*
X170371000Y-120986000D01*
X170371000Y-115234000D02*
X170371000Y-117070000D01*
X170331000Y-119150000D02*
X170331000Y-121006000D01*
X170331000Y-115214000D02*
X170331000Y-117070000D01*
X170291000Y-119150000D02*
X170291000Y-121026000D01*
X170291000Y-115194000D02*
X170291000Y-117070000D01*
X170251000Y-119150000D02*
X170251000Y-121044000D01*
X170251000Y-115176000D02*
X170251000Y-117070000D01*
X170211000Y-119150000D02*
X170211000Y-121062000D01*
X170211000Y-115158000D02*
X170211000Y-117070000D01*
X170171000Y-119150000D02*
X170171000Y-121080000D01*
X170171000Y-115140000D02*
X170171000Y-117070000D01*
X170131000Y-119150000D02*
X170131000Y-121096000D01*
X170131000Y-115124000D02*
X170131000Y-117070000D01*
X170091000Y-119150000D02*
X170091000Y-121112000D01*
X170091000Y-115108000D02*
X170091000Y-117070000D01*
X170051000Y-119150000D02*
X170051000Y-121128000D01*
X170051000Y-115092000D02*
X170051000Y-117070000D01*
X170011000Y-119150000D02*
X170011000Y-121143000D01*
X170011000Y-115077000D02*
X170011000Y-117070000D01*
X169971000Y-119150000D02*
X169971000Y-121157000D01*
X169971000Y-115063000D02*
X169971000Y-117070000D01*
X169931000Y-119150000D02*
X169931000Y-121171000D01*
X169931000Y-115049000D02*
X169931000Y-117070000D01*
X169891000Y-119150000D02*
X169891000Y-121184000D01*
X169891000Y-115036000D02*
X169891000Y-117070000D01*
X169851000Y-119150000D02*
X169851000Y-121196000D01*
X169851000Y-115024000D02*
X169851000Y-117070000D01*
X169811000Y-119150000D02*
X169811000Y-121208000D01*
X169811000Y-115012000D02*
X169811000Y-117070000D01*
X169771000Y-119150000D02*
X169771000Y-121220000D01*
X169771000Y-115000000D02*
X169771000Y-117070000D01*
X169731000Y-119150000D02*
X169731000Y-121231000D01*
X169731000Y-114989000D02*
X169731000Y-117070000D01*
X169691000Y-119150000D02*
X169691000Y-121241000D01*
X169691000Y-114979000D02*
X169691000Y-117070000D01*
X169651000Y-119150000D02*
X169651000Y-121251000D01*
X169651000Y-114969000D02*
X169651000Y-117070000D01*
X169611000Y-119150000D02*
X169611000Y-121260000D01*
X169611000Y-114960000D02*
X169611000Y-117070000D01*
X169570000Y-119150000D02*
X169570000Y-121269000D01*
X169570000Y-114951000D02*
X169570000Y-117070000D01*
X169530000Y-119150000D02*
X169530000Y-121277000D01*
X169530000Y-114943000D02*
X169530000Y-117070000D01*
X169490000Y-119150000D02*
X169490000Y-121285000D01*
X169490000Y-114935000D02*
X169490000Y-117070000D01*
X169450000Y-119150000D02*
X169450000Y-121292000D01*
X169450000Y-114928000D02*
X169450000Y-117070000D01*
X169410000Y-119150000D02*
X169410000Y-121299000D01*
X169410000Y-114921000D02*
X169410000Y-117070000D01*
X169370000Y-119150000D02*
X169370000Y-121305000D01*
X169370000Y-114915000D02*
X169370000Y-117070000D01*
X169330000Y-119150000D02*
X169330000Y-121311000D01*
X169330000Y-114909000D02*
X169330000Y-117070000D01*
X169290000Y-119150000D02*
X169290000Y-121316000D01*
X169290000Y-114904000D02*
X169290000Y-117070000D01*
X169250000Y-119150000D02*
X169250000Y-121321000D01*
X169250000Y-114899000D02*
X169250000Y-117070000D01*
X169210000Y-119150000D02*
X169210000Y-121325000D01*
X169210000Y-114895000D02*
X169210000Y-117070000D01*
X169170000Y-119150000D02*
X169170000Y-121328000D01*
X169170000Y-114892000D02*
X169170000Y-117070000D01*
X169130000Y-119150000D02*
X169130000Y-121332000D01*
X169130000Y-114888000D02*
X169130000Y-117070000D01*
X169090000Y-114886000D02*
X169090000Y-121334000D01*
X169050000Y-114883000D02*
X169050000Y-121337000D01*
X169010000Y-114882000D02*
X169010000Y-121338000D01*
X168970000Y-114880000D02*
X168970000Y-121340000D01*
X168930000Y-114880000D02*
X168930000Y-121340000D01*
X168890000Y-114880000D02*
X168890000Y-121340000D01*
X172160000Y-118110000D02*
G75*
G03X172160000Y-118110000I-3270000J0D01*
G01*
G04 #@! TO.C,BT1*
X181670000Y-143570000D02*
X181670000Y-140910000D01*
X179070000Y-143570000D02*
X181670000Y-143570000D01*
X179070000Y-140910000D02*
X181670000Y-140910000D01*
X179070000Y-143570000D02*
X179070000Y-140910000D01*
X177800000Y-143570000D02*
X176470000Y-143570000D01*
X176470000Y-143570000D02*
X176470000Y-142240000D01*
G04 #@! TO.C,C8*
X151795241Y-154554000D02*
X151795241Y-153924000D01*
X152110241Y-154239000D02*
X151480241Y-154239000D01*
X145369000Y-152802000D02*
X145369000Y-151998000D01*
X145409000Y-153033000D02*
X145409000Y-151767000D01*
X145449000Y-153202000D02*
X145449000Y-151598000D01*
X145489000Y-153340000D02*
X145489000Y-151460000D01*
X145529000Y-153459000D02*
X145529000Y-151341000D01*
X145569000Y-153565000D02*
X145569000Y-151235000D01*
X145609000Y-153662000D02*
X145609000Y-151138000D01*
X145649000Y-153750000D02*
X145649000Y-151050000D01*
X145689000Y-153832000D02*
X145689000Y-150968000D01*
X145729000Y-153909000D02*
X145729000Y-150891000D01*
X145769000Y-153981000D02*
X145769000Y-150819000D01*
X145809000Y-154050000D02*
X145809000Y-150750000D01*
X145849000Y-154114000D02*
X145849000Y-150686000D01*
X145889000Y-154176000D02*
X145889000Y-150624000D01*
X145929000Y-154234000D02*
X145929000Y-150566000D01*
X145969000Y-154290000D02*
X145969000Y-150510000D01*
X146009000Y-154344000D02*
X146009000Y-150456000D01*
X146049000Y-154395000D02*
X146049000Y-150405000D01*
X146089000Y-154444000D02*
X146089000Y-150356000D01*
X146129000Y-154492000D02*
X146129000Y-150308000D01*
X146169000Y-154537000D02*
X146169000Y-150263000D01*
X146209000Y-154582000D02*
X146209000Y-150218000D01*
X146249000Y-154624000D02*
X146249000Y-150176000D01*
X146289000Y-154665000D02*
X146289000Y-150135000D01*
X146329000Y-151360000D02*
X146329000Y-150095000D01*
X146329000Y-154705000D02*
X146329000Y-153440000D01*
X146369000Y-151360000D02*
X146369000Y-150057000D01*
X146369000Y-154743000D02*
X146369000Y-153440000D01*
X146409000Y-151360000D02*
X146409000Y-150020000D01*
X146409000Y-154780000D02*
X146409000Y-153440000D01*
X146449000Y-151360000D02*
X146449000Y-149984000D01*
X146449000Y-154816000D02*
X146449000Y-153440000D01*
X146489000Y-151360000D02*
X146489000Y-149950000D01*
X146489000Y-154850000D02*
X146489000Y-153440000D01*
X146529000Y-151360000D02*
X146529000Y-149916000D01*
X146529000Y-154884000D02*
X146529000Y-153440000D01*
X146569000Y-151360000D02*
X146569000Y-149884000D01*
X146569000Y-154916000D02*
X146569000Y-153440000D01*
X146609000Y-151360000D02*
X146609000Y-149852000D01*
X146609000Y-154948000D02*
X146609000Y-153440000D01*
X146649000Y-151360000D02*
X146649000Y-149822000D01*
X146649000Y-154978000D02*
X146649000Y-153440000D01*
X146689000Y-151360000D02*
X146689000Y-149793000D01*
X146689000Y-155007000D02*
X146689000Y-153440000D01*
X146729000Y-151360000D02*
X146729000Y-149764000D01*
X146729000Y-155036000D02*
X146729000Y-153440000D01*
X146769000Y-151360000D02*
X146769000Y-149736000D01*
X146769000Y-155064000D02*
X146769000Y-153440000D01*
X146809000Y-151360000D02*
X146809000Y-149710000D01*
X146809000Y-155090000D02*
X146809000Y-153440000D01*
X146849000Y-151360000D02*
X146849000Y-149684000D01*
X146849000Y-155116000D02*
X146849000Y-153440000D01*
X146889000Y-151360000D02*
X146889000Y-149658000D01*
X146889000Y-155142000D02*
X146889000Y-153440000D01*
X146929000Y-151360000D02*
X146929000Y-149634000D01*
X146929000Y-155166000D02*
X146929000Y-153440000D01*
X146969000Y-151360000D02*
X146969000Y-149610000D01*
X146969000Y-155190000D02*
X146969000Y-153440000D01*
X147009000Y-151360000D02*
X147009000Y-149588000D01*
X147009000Y-155212000D02*
X147009000Y-153440000D01*
X147049000Y-151360000D02*
X147049000Y-149566000D01*
X147049000Y-155234000D02*
X147049000Y-153440000D01*
X147089000Y-151360000D02*
X147089000Y-149544000D01*
X147089000Y-155256000D02*
X147089000Y-153440000D01*
X147129000Y-151360000D02*
X147129000Y-149524000D01*
X147129000Y-155276000D02*
X147129000Y-153440000D01*
X147169000Y-151360000D02*
X147169000Y-149504000D01*
X147169000Y-155296000D02*
X147169000Y-153440000D01*
X147209000Y-151360000D02*
X147209000Y-149484000D01*
X147209000Y-155316000D02*
X147209000Y-153440000D01*
X147249000Y-151360000D02*
X147249000Y-149466000D01*
X147249000Y-155334000D02*
X147249000Y-153440000D01*
X147289000Y-151360000D02*
X147289000Y-149448000D01*
X147289000Y-155352000D02*
X147289000Y-153440000D01*
X147329000Y-151360000D02*
X147329000Y-149430000D01*
X147329000Y-155370000D02*
X147329000Y-153440000D01*
X147369000Y-151360000D02*
X147369000Y-149414000D01*
X147369000Y-155386000D02*
X147369000Y-153440000D01*
X147409000Y-151360000D02*
X147409000Y-149398000D01*
X147409000Y-155402000D02*
X147409000Y-153440000D01*
X147449000Y-151360000D02*
X147449000Y-149382000D01*
X147449000Y-155418000D02*
X147449000Y-153440000D01*
X147489000Y-151360000D02*
X147489000Y-149367000D01*
X147489000Y-155433000D02*
X147489000Y-153440000D01*
X147529000Y-151360000D02*
X147529000Y-149353000D01*
X147529000Y-155447000D02*
X147529000Y-153440000D01*
X147569000Y-151360000D02*
X147569000Y-149339000D01*
X147569000Y-155461000D02*
X147569000Y-153440000D01*
X147609000Y-151360000D02*
X147609000Y-149326000D01*
X147609000Y-155474000D02*
X147609000Y-153440000D01*
X147649000Y-151360000D02*
X147649000Y-149314000D01*
X147649000Y-155486000D02*
X147649000Y-153440000D01*
X147689000Y-151360000D02*
X147689000Y-149302000D01*
X147689000Y-155498000D02*
X147689000Y-153440000D01*
X147729000Y-151360000D02*
X147729000Y-149290000D01*
X147729000Y-155510000D02*
X147729000Y-153440000D01*
X147769000Y-151360000D02*
X147769000Y-149279000D01*
X147769000Y-155521000D02*
X147769000Y-153440000D01*
X147809000Y-151360000D02*
X147809000Y-149269000D01*
X147809000Y-155531000D02*
X147809000Y-153440000D01*
X147849000Y-151360000D02*
X147849000Y-149259000D01*
X147849000Y-155541000D02*
X147849000Y-153440000D01*
X147889000Y-151360000D02*
X147889000Y-149250000D01*
X147889000Y-155550000D02*
X147889000Y-153440000D01*
X147930000Y-151360000D02*
X147930000Y-149241000D01*
X147930000Y-155559000D02*
X147930000Y-153440000D01*
X147970000Y-151360000D02*
X147970000Y-149233000D01*
X147970000Y-155567000D02*
X147970000Y-153440000D01*
X148010000Y-151360000D02*
X148010000Y-149225000D01*
X148010000Y-155575000D02*
X148010000Y-153440000D01*
X148050000Y-151360000D02*
X148050000Y-149218000D01*
X148050000Y-155582000D02*
X148050000Y-153440000D01*
X148090000Y-151360000D02*
X148090000Y-149211000D01*
X148090000Y-155589000D02*
X148090000Y-153440000D01*
X148130000Y-151360000D02*
X148130000Y-149205000D01*
X148130000Y-155595000D02*
X148130000Y-153440000D01*
X148170000Y-151360000D02*
X148170000Y-149199000D01*
X148170000Y-155601000D02*
X148170000Y-153440000D01*
X148210000Y-151360000D02*
X148210000Y-149194000D01*
X148210000Y-155606000D02*
X148210000Y-153440000D01*
X148250000Y-151360000D02*
X148250000Y-149189000D01*
X148250000Y-155611000D02*
X148250000Y-153440000D01*
X148290000Y-151360000D02*
X148290000Y-149185000D01*
X148290000Y-155615000D02*
X148290000Y-153440000D01*
X148330000Y-151360000D02*
X148330000Y-149182000D01*
X148330000Y-155618000D02*
X148330000Y-153440000D01*
X148370000Y-151360000D02*
X148370000Y-149178000D01*
X148370000Y-155622000D02*
X148370000Y-153440000D01*
X148410000Y-155624000D02*
X148410000Y-149176000D01*
X148450000Y-155627000D02*
X148450000Y-149173000D01*
X148490000Y-155628000D02*
X148490000Y-149172000D01*
X148530000Y-155630000D02*
X148530000Y-149170000D01*
X148570000Y-155630000D02*
X148570000Y-149170000D01*
X148610000Y-155630000D02*
X148610000Y-149170000D01*
X151880000Y-152400000D02*
G75*
G03X151880000Y-152400000I-3270000J0D01*
G01*
G04 #@! TO.C,C17*
X151840000Y-124460000D02*
G75*
G03X151840000Y-124460000I-3270000J0D01*
G01*
X148570000Y-121230000D02*
X148570000Y-127690000D01*
X148610000Y-121230000D02*
X148610000Y-127690000D01*
X148650000Y-121230000D02*
X148650000Y-127690000D01*
X148690000Y-121232000D02*
X148690000Y-127688000D01*
X148730000Y-121233000D02*
X148730000Y-127687000D01*
X148770000Y-121236000D02*
X148770000Y-127684000D01*
X148810000Y-121238000D02*
X148810000Y-123420000D01*
X148810000Y-125500000D02*
X148810000Y-127682000D01*
X148850000Y-121242000D02*
X148850000Y-123420000D01*
X148850000Y-125500000D02*
X148850000Y-127678000D01*
X148890000Y-121245000D02*
X148890000Y-123420000D01*
X148890000Y-125500000D02*
X148890000Y-127675000D01*
X148930000Y-121249000D02*
X148930000Y-123420000D01*
X148930000Y-125500000D02*
X148930000Y-127671000D01*
X148970000Y-121254000D02*
X148970000Y-123420000D01*
X148970000Y-125500000D02*
X148970000Y-127666000D01*
X149010000Y-121259000D02*
X149010000Y-123420000D01*
X149010000Y-125500000D02*
X149010000Y-127661000D01*
X149050000Y-121265000D02*
X149050000Y-123420000D01*
X149050000Y-125500000D02*
X149050000Y-127655000D01*
X149090000Y-121271000D02*
X149090000Y-123420000D01*
X149090000Y-125500000D02*
X149090000Y-127649000D01*
X149130000Y-121278000D02*
X149130000Y-123420000D01*
X149130000Y-125500000D02*
X149130000Y-127642000D01*
X149170000Y-121285000D02*
X149170000Y-123420000D01*
X149170000Y-125500000D02*
X149170000Y-127635000D01*
X149210000Y-121293000D02*
X149210000Y-123420000D01*
X149210000Y-125500000D02*
X149210000Y-127627000D01*
X149250000Y-121301000D02*
X149250000Y-123420000D01*
X149250000Y-125500000D02*
X149250000Y-127619000D01*
X149291000Y-121310000D02*
X149291000Y-123420000D01*
X149291000Y-125500000D02*
X149291000Y-127610000D01*
X149331000Y-121319000D02*
X149331000Y-123420000D01*
X149331000Y-125500000D02*
X149331000Y-127601000D01*
X149371000Y-121329000D02*
X149371000Y-123420000D01*
X149371000Y-125500000D02*
X149371000Y-127591000D01*
X149411000Y-121339000D02*
X149411000Y-123420000D01*
X149411000Y-125500000D02*
X149411000Y-127581000D01*
X149451000Y-121350000D02*
X149451000Y-123420000D01*
X149451000Y-125500000D02*
X149451000Y-127570000D01*
X149491000Y-121362000D02*
X149491000Y-123420000D01*
X149491000Y-125500000D02*
X149491000Y-127558000D01*
X149531000Y-121374000D02*
X149531000Y-123420000D01*
X149531000Y-125500000D02*
X149531000Y-127546000D01*
X149571000Y-121386000D02*
X149571000Y-123420000D01*
X149571000Y-125500000D02*
X149571000Y-127534000D01*
X149611000Y-121399000D02*
X149611000Y-123420000D01*
X149611000Y-125500000D02*
X149611000Y-127521000D01*
X149651000Y-121413000D02*
X149651000Y-123420000D01*
X149651000Y-125500000D02*
X149651000Y-127507000D01*
X149691000Y-121427000D02*
X149691000Y-123420000D01*
X149691000Y-125500000D02*
X149691000Y-127493000D01*
X149731000Y-121442000D02*
X149731000Y-123420000D01*
X149731000Y-125500000D02*
X149731000Y-127478000D01*
X149771000Y-121458000D02*
X149771000Y-123420000D01*
X149771000Y-125500000D02*
X149771000Y-127462000D01*
X149811000Y-121474000D02*
X149811000Y-123420000D01*
X149811000Y-125500000D02*
X149811000Y-127446000D01*
X149851000Y-121490000D02*
X149851000Y-123420000D01*
X149851000Y-125500000D02*
X149851000Y-127430000D01*
X149891000Y-121508000D02*
X149891000Y-123420000D01*
X149891000Y-125500000D02*
X149891000Y-127412000D01*
X149931000Y-121526000D02*
X149931000Y-123420000D01*
X149931000Y-125500000D02*
X149931000Y-127394000D01*
X149971000Y-121544000D02*
X149971000Y-123420000D01*
X149971000Y-125500000D02*
X149971000Y-127376000D01*
X150011000Y-121564000D02*
X150011000Y-123420000D01*
X150011000Y-125500000D02*
X150011000Y-127356000D01*
X150051000Y-121584000D02*
X150051000Y-123420000D01*
X150051000Y-125500000D02*
X150051000Y-127336000D01*
X150091000Y-121604000D02*
X150091000Y-123420000D01*
X150091000Y-125500000D02*
X150091000Y-127316000D01*
X150131000Y-121626000D02*
X150131000Y-123420000D01*
X150131000Y-125500000D02*
X150131000Y-127294000D01*
X150171000Y-121648000D02*
X150171000Y-123420000D01*
X150171000Y-125500000D02*
X150171000Y-127272000D01*
X150211000Y-121670000D02*
X150211000Y-123420000D01*
X150211000Y-125500000D02*
X150211000Y-127250000D01*
X150251000Y-121694000D02*
X150251000Y-123420000D01*
X150251000Y-125500000D02*
X150251000Y-127226000D01*
X150291000Y-121718000D02*
X150291000Y-123420000D01*
X150291000Y-125500000D02*
X150291000Y-127202000D01*
X150331000Y-121744000D02*
X150331000Y-123420000D01*
X150331000Y-125500000D02*
X150331000Y-127176000D01*
X150371000Y-121770000D02*
X150371000Y-123420000D01*
X150371000Y-125500000D02*
X150371000Y-127150000D01*
X150411000Y-121796000D02*
X150411000Y-123420000D01*
X150411000Y-125500000D02*
X150411000Y-127124000D01*
X150451000Y-121824000D02*
X150451000Y-123420000D01*
X150451000Y-125500000D02*
X150451000Y-127096000D01*
X150491000Y-121853000D02*
X150491000Y-123420000D01*
X150491000Y-125500000D02*
X150491000Y-127067000D01*
X150531000Y-121882000D02*
X150531000Y-123420000D01*
X150531000Y-125500000D02*
X150531000Y-127038000D01*
X150571000Y-121912000D02*
X150571000Y-123420000D01*
X150571000Y-125500000D02*
X150571000Y-127008000D01*
X150611000Y-121944000D02*
X150611000Y-123420000D01*
X150611000Y-125500000D02*
X150611000Y-126976000D01*
X150651000Y-121976000D02*
X150651000Y-123420000D01*
X150651000Y-125500000D02*
X150651000Y-126944000D01*
X150691000Y-122010000D02*
X150691000Y-123420000D01*
X150691000Y-125500000D02*
X150691000Y-126910000D01*
X150731000Y-122044000D02*
X150731000Y-123420000D01*
X150731000Y-125500000D02*
X150731000Y-126876000D01*
X150771000Y-122080000D02*
X150771000Y-123420000D01*
X150771000Y-125500000D02*
X150771000Y-126840000D01*
X150811000Y-122117000D02*
X150811000Y-123420000D01*
X150811000Y-125500000D02*
X150811000Y-126803000D01*
X150851000Y-122155000D02*
X150851000Y-123420000D01*
X150851000Y-125500000D02*
X150851000Y-126765000D01*
X150891000Y-122195000D02*
X150891000Y-126725000D01*
X150931000Y-122236000D02*
X150931000Y-126684000D01*
X150971000Y-122278000D02*
X150971000Y-126642000D01*
X151011000Y-122323000D02*
X151011000Y-126597000D01*
X151051000Y-122368000D02*
X151051000Y-126552000D01*
X151091000Y-122416000D02*
X151091000Y-126504000D01*
X151131000Y-122465000D02*
X151131000Y-126455000D01*
X151171000Y-122516000D02*
X151171000Y-126404000D01*
X151211000Y-122570000D02*
X151211000Y-126350000D01*
X151251000Y-122626000D02*
X151251000Y-126294000D01*
X151291000Y-122684000D02*
X151291000Y-126236000D01*
X151331000Y-122746000D02*
X151331000Y-126174000D01*
X151371000Y-122810000D02*
X151371000Y-126110000D01*
X151411000Y-122879000D02*
X151411000Y-126041000D01*
X151451000Y-122951000D02*
X151451000Y-125969000D01*
X151491000Y-123028000D02*
X151491000Y-125892000D01*
X151531000Y-123110000D02*
X151531000Y-125810000D01*
X151571000Y-123198000D02*
X151571000Y-125722000D01*
X151611000Y-123295000D02*
X151611000Y-125625000D01*
X151651000Y-123401000D02*
X151651000Y-125519000D01*
X151691000Y-123520000D02*
X151691000Y-125400000D01*
X151731000Y-123658000D02*
X151731000Y-125262000D01*
X151771000Y-123827000D02*
X151771000Y-125093000D01*
X151811000Y-124058000D02*
X151811000Y-124862000D01*
X145069759Y-122621000D02*
X145699759Y-122621000D01*
X145384759Y-122306000D02*
X145384759Y-122936000D01*
G04 #@! TO.C,C13*
X126334759Y-128656000D02*
X126334759Y-129286000D01*
X126019759Y-128971000D02*
X126649759Y-128971000D01*
X132761000Y-130408000D02*
X132761000Y-131212000D01*
X132721000Y-130177000D02*
X132721000Y-131443000D01*
X132681000Y-130008000D02*
X132681000Y-131612000D01*
X132641000Y-129870000D02*
X132641000Y-131750000D01*
X132601000Y-129751000D02*
X132601000Y-131869000D01*
X132561000Y-129645000D02*
X132561000Y-131975000D01*
X132521000Y-129548000D02*
X132521000Y-132072000D01*
X132481000Y-129460000D02*
X132481000Y-132160000D01*
X132441000Y-129378000D02*
X132441000Y-132242000D01*
X132401000Y-129301000D02*
X132401000Y-132319000D01*
X132361000Y-129229000D02*
X132361000Y-132391000D01*
X132321000Y-129160000D02*
X132321000Y-132460000D01*
X132281000Y-129096000D02*
X132281000Y-132524000D01*
X132241000Y-129034000D02*
X132241000Y-132586000D01*
X132201000Y-128976000D02*
X132201000Y-132644000D01*
X132161000Y-128920000D02*
X132161000Y-132700000D01*
X132121000Y-128866000D02*
X132121000Y-132754000D01*
X132081000Y-128815000D02*
X132081000Y-132805000D01*
X132041000Y-128766000D02*
X132041000Y-132854000D01*
X132001000Y-128718000D02*
X132001000Y-132902000D01*
X131961000Y-128673000D02*
X131961000Y-132947000D01*
X131921000Y-128628000D02*
X131921000Y-132992000D01*
X131881000Y-128586000D02*
X131881000Y-133034000D01*
X131841000Y-128545000D02*
X131841000Y-133075000D01*
X131801000Y-131850000D02*
X131801000Y-133115000D01*
X131801000Y-128505000D02*
X131801000Y-129770000D01*
X131761000Y-131850000D02*
X131761000Y-133153000D01*
X131761000Y-128467000D02*
X131761000Y-129770000D01*
X131721000Y-131850000D02*
X131721000Y-133190000D01*
X131721000Y-128430000D02*
X131721000Y-129770000D01*
X131681000Y-131850000D02*
X131681000Y-133226000D01*
X131681000Y-128394000D02*
X131681000Y-129770000D01*
X131641000Y-131850000D02*
X131641000Y-133260000D01*
X131641000Y-128360000D02*
X131641000Y-129770000D01*
X131601000Y-131850000D02*
X131601000Y-133294000D01*
X131601000Y-128326000D02*
X131601000Y-129770000D01*
X131561000Y-131850000D02*
X131561000Y-133326000D01*
X131561000Y-128294000D02*
X131561000Y-129770000D01*
X131521000Y-131850000D02*
X131521000Y-133358000D01*
X131521000Y-128262000D02*
X131521000Y-129770000D01*
X131481000Y-131850000D02*
X131481000Y-133388000D01*
X131481000Y-128232000D02*
X131481000Y-129770000D01*
X131441000Y-131850000D02*
X131441000Y-133417000D01*
X131441000Y-128203000D02*
X131441000Y-129770000D01*
X131401000Y-131850000D02*
X131401000Y-133446000D01*
X131401000Y-128174000D02*
X131401000Y-129770000D01*
X131361000Y-131850000D02*
X131361000Y-133474000D01*
X131361000Y-128146000D02*
X131361000Y-129770000D01*
X131321000Y-131850000D02*
X131321000Y-133500000D01*
X131321000Y-128120000D02*
X131321000Y-129770000D01*
X131281000Y-131850000D02*
X131281000Y-133526000D01*
X131281000Y-128094000D02*
X131281000Y-129770000D01*
X131241000Y-131850000D02*
X131241000Y-133552000D01*
X131241000Y-128068000D02*
X131241000Y-129770000D01*
X131201000Y-131850000D02*
X131201000Y-133576000D01*
X131201000Y-128044000D02*
X131201000Y-129770000D01*
X131161000Y-131850000D02*
X131161000Y-133600000D01*
X131161000Y-128020000D02*
X131161000Y-129770000D01*
X131121000Y-131850000D02*
X131121000Y-133622000D01*
X131121000Y-127998000D02*
X131121000Y-129770000D01*
X131081000Y-131850000D02*
X131081000Y-133644000D01*
X131081000Y-127976000D02*
X131081000Y-129770000D01*
X131041000Y-131850000D02*
X131041000Y-133666000D01*
X131041000Y-127954000D02*
X131041000Y-129770000D01*
X131001000Y-131850000D02*
X131001000Y-133686000D01*
X131001000Y-127934000D02*
X131001000Y-129770000D01*
X130961000Y-131850000D02*
X130961000Y-133706000D01*
X130961000Y-127914000D02*
X130961000Y-129770000D01*
X130921000Y-131850000D02*
X130921000Y-133726000D01*
X130921000Y-127894000D02*
X130921000Y-129770000D01*
X130881000Y-131850000D02*
X130881000Y-133744000D01*
X130881000Y-127876000D02*
X130881000Y-129770000D01*
X130841000Y-131850000D02*
X130841000Y-133762000D01*
X130841000Y-127858000D02*
X130841000Y-129770000D01*
X130801000Y-131850000D02*
X130801000Y-133780000D01*
X130801000Y-127840000D02*
X130801000Y-129770000D01*
X130761000Y-131850000D02*
X130761000Y-133796000D01*
X130761000Y-127824000D02*
X130761000Y-129770000D01*
X130721000Y-131850000D02*
X130721000Y-133812000D01*
X130721000Y-127808000D02*
X130721000Y-129770000D01*
X130681000Y-131850000D02*
X130681000Y-133828000D01*
X130681000Y-127792000D02*
X130681000Y-129770000D01*
X130641000Y-131850000D02*
X130641000Y-133843000D01*
X130641000Y-127777000D02*
X130641000Y-129770000D01*
X130601000Y-131850000D02*
X130601000Y-133857000D01*
X130601000Y-127763000D02*
X130601000Y-129770000D01*
X130561000Y-131850000D02*
X130561000Y-133871000D01*
X130561000Y-127749000D02*
X130561000Y-129770000D01*
X130521000Y-131850000D02*
X130521000Y-133884000D01*
X130521000Y-127736000D02*
X130521000Y-129770000D01*
X130481000Y-131850000D02*
X130481000Y-133896000D01*
X130481000Y-127724000D02*
X130481000Y-129770000D01*
X130441000Y-131850000D02*
X130441000Y-133908000D01*
X130441000Y-127712000D02*
X130441000Y-129770000D01*
X130401000Y-131850000D02*
X130401000Y-133920000D01*
X130401000Y-127700000D02*
X130401000Y-129770000D01*
X130361000Y-131850000D02*
X130361000Y-133931000D01*
X130361000Y-127689000D02*
X130361000Y-129770000D01*
X130321000Y-131850000D02*
X130321000Y-133941000D01*
X130321000Y-127679000D02*
X130321000Y-129770000D01*
X130281000Y-131850000D02*
X130281000Y-133951000D01*
X130281000Y-127669000D02*
X130281000Y-129770000D01*
X130241000Y-131850000D02*
X130241000Y-133960000D01*
X130241000Y-127660000D02*
X130241000Y-129770000D01*
X130200000Y-131850000D02*
X130200000Y-133969000D01*
X130200000Y-127651000D02*
X130200000Y-129770000D01*
X130160000Y-131850000D02*
X130160000Y-133977000D01*
X130160000Y-127643000D02*
X130160000Y-129770000D01*
X130120000Y-131850000D02*
X130120000Y-133985000D01*
X130120000Y-127635000D02*
X130120000Y-129770000D01*
X130080000Y-131850000D02*
X130080000Y-133992000D01*
X130080000Y-127628000D02*
X130080000Y-129770000D01*
X130040000Y-131850000D02*
X130040000Y-133999000D01*
X130040000Y-127621000D02*
X130040000Y-129770000D01*
X130000000Y-131850000D02*
X130000000Y-134005000D01*
X130000000Y-127615000D02*
X130000000Y-129770000D01*
X129960000Y-131850000D02*
X129960000Y-134011000D01*
X129960000Y-127609000D02*
X129960000Y-129770000D01*
X129920000Y-131850000D02*
X129920000Y-134016000D01*
X129920000Y-127604000D02*
X129920000Y-129770000D01*
X129880000Y-131850000D02*
X129880000Y-134021000D01*
X129880000Y-127599000D02*
X129880000Y-129770000D01*
X129840000Y-131850000D02*
X129840000Y-134025000D01*
X129840000Y-127595000D02*
X129840000Y-129770000D01*
X129800000Y-131850000D02*
X129800000Y-134028000D01*
X129800000Y-127592000D02*
X129800000Y-129770000D01*
X129760000Y-131850000D02*
X129760000Y-134032000D01*
X129760000Y-127588000D02*
X129760000Y-129770000D01*
X129720000Y-127586000D02*
X129720000Y-134034000D01*
X129680000Y-127583000D02*
X129680000Y-134037000D01*
X129640000Y-127582000D02*
X129640000Y-134038000D01*
X129600000Y-127580000D02*
X129600000Y-134040000D01*
X129560000Y-127580000D02*
X129560000Y-134040000D01*
X129520000Y-127580000D02*
X129520000Y-134040000D01*
X132790000Y-130810000D02*
G75*
G03X132790000Y-130810000I-3270000J0D01*
G01*
G04 #@! TO.C,C12*
X154420000Y-134620000D02*
G75*
G03X154420000Y-134620000I-3270000J0D01*
G01*
X151150000Y-137850000D02*
X151150000Y-131390000D01*
X151110000Y-137850000D02*
X151110000Y-131390000D01*
X151070000Y-137850000D02*
X151070000Y-131390000D01*
X151030000Y-137848000D02*
X151030000Y-131392000D01*
X150990000Y-137847000D02*
X150990000Y-131393000D01*
X150950000Y-137844000D02*
X150950000Y-131396000D01*
X150910000Y-137842000D02*
X150910000Y-135660000D01*
X150910000Y-133580000D02*
X150910000Y-131398000D01*
X150870000Y-137838000D02*
X150870000Y-135660000D01*
X150870000Y-133580000D02*
X150870000Y-131402000D01*
X150830000Y-137835000D02*
X150830000Y-135660000D01*
X150830000Y-133580000D02*
X150830000Y-131405000D01*
X150790000Y-137831000D02*
X150790000Y-135660000D01*
X150790000Y-133580000D02*
X150790000Y-131409000D01*
X150750000Y-137826000D02*
X150750000Y-135660000D01*
X150750000Y-133580000D02*
X150750000Y-131414000D01*
X150710000Y-137821000D02*
X150710000Y-135660000D01*
X150710000Y-133580000D02*
X150710000Y-131419000D01*
X150670000Y-137815000D02*
X150670000Y-135660000D01*
X150670000Y-133580000D02*
X150670000Y-131425000D01*
X150630000Y-137809000D02*
X150630000Y-135660000D01*
X150630000Y-133580000D02*
X150630000Y-131431000D01*
X150590000Y-137802000D02*
X150590000Y-135660000D01*
X150590000Y-133580000D02*
X150590000Y-131438000D01*
X150550000Y-137795000D02*
X150550000Y-135660000D01*
X150550000Y-133580000D02*
X150550000Y-131445000D01*
X150510000Y-137787000D02*
X150510000Y-135660000D01*
X150510000Y-133580000D02*
X150510000Y-131453000D01*
X150470000Y-137779000D02*
X150470000Y-135660000D01*
X150470000Y-133580000D02*
X150470000Y-131461000D01*
X150429000Y-137770000D02*
X150429000Y-135660000D01*
X150429000Y-133580000D02*
X150429000Y-131470000D01*
X150389000Y-137761000D02*
X150389000Y-135660000D01*
X150389000Y-133580000D02*
X150389000Y-131479000D01*
X150349000Y-137751000D02*
X150349000Y-135660000D01*
X150349000Y-133580000D02*
X150349000Y-131489000D01*
X150309000Y-137741000D02*
X150309000Y-135660000D01*
X150309000Y-133580000D02*
X150309000Y-131499000D01*
X150269000Y-137730000D02*
X150269000Y-135660000D01*
X150269000Y-133580000D02*
X150269000Y-131510000D01*
X150229000Y-137718000D02*
X150229000Y-135660000D01*
X150229000Y-133580000D02*
X150229000Y-131522000D01*
X150189000Y-137706000D02*
X150189000Y-135660000D01*
X150189000Y-133580000D02*
X150189000Y-131534000D01*
X150149000Y-137694000D02*
X150149000Y-135660000D01*
X150149000Y-133580000D02*
X150149000Y-131546000D01*
X150109000Y-137681000D02*
X150109000Y-135660000D01*
X150109000Y-133580000D02*
X150109000Y-131559000D01*
X150069000Y-137667000D02*
X150069000Y-135660000D01*
X150069000Y-133580000D02*
X150069000Y-131573000D01*
X150029000Y-137653000D02*
X150029000Y-135660000D01*
X150029000Y-133580000D02*
X150029000Y-131587000D01*
X149989000Y-137638000D02*
X149989000Y-135660000D01*
X149989000Y-133580000D02*
X149989000Y-131602000D01*
X149949000Y-137622000D02*
X149949000Y-135660000D01*
X149949000Y-133580000D02*
X149949000Y-131618000D01*
X149909000Y-137606000D02*
X149909000Y-135660000D01*
X149909000Y-133580000D02*
X149909000Y-131634000D01*
X149869000Y-137590000D02*
X149869000Y-135660000D01*
X149869000Y-133580000D02*
X149869000Y-131650000D01*
X149829000Y-137572000D02*
X149829000Y-135660000D01*
X149829000Y-133580000D02*
X149829000Y-131668000D01*
X149789000Y-137554000D02*
X149789000Y-135660000D01*
X149789000Y-133580000D02*
X149789000Y-131686000D01*
X149749000Y-137536000D02*
X149749000Y-135660000D01*
X149749000Y-133580000D02*
X149749000Y-131704000D01*
X149709000Y-137516000D02*
X149709000Y-135660000D01*
X149709000Y-133580000D02*
X149709000Y-131724000D01*
X149669000Y-137496000D02*
X149669000Y-135660000D01*
X149669000Y-133580000D02*
X149669000Y-131744000D01*
X149629000Y-137476000D02*
X149629000Y-135660000D01*
X149629000Y-133580000D02*
X149629000Y-131764000D01*
X149589000Y-137454000D02*
X149589000Y-135660000D01*
X149589000Y-133580000D02*
X149589000Y-131786000D01*
X149549000Y-137432000D02*
X149549000Y-135660000D01*
X149549000Y-133580000D02*
X149549000Y-131808000D01*
X149509000Y-137410000D02*
X149509000Y-135660000D01*
X149509000Y-133580000D02*
X149509000Y-131830000D01*
X149469000Y-137386000D02*
X149469000Y-135660000D01*
X149469000Y-133580000D02*
X149469000Y-131854000D01*
X149429000Y-137362000D02*
X149429000Y-135660000D01*
X149429000Y-133580000D02*
X149429000Y-131878000D01*
X149389000Y-137336000D02*
X149389000Y-135660000D01*
X149389000Y-133580000D02*
X149389000Y-131904000D01*
X149349000Y-137310000D02*
X149349000Y-135660000D01*
X149349000Y-133580000D02*
X149349000Y-131930000D01*
X149309000Y-137284000D02*
X149309000Y-135660000D01*
X149309000Y-133580000D02*
X149309000Y-131956000D01*
X149269000Y-137256000D02*
X149269000Y-135660000D01*
X149269000Y-133580000D02*
X149269000Y-131984000D01*
X149229000Y-137227000D02*
X149229000Y-135660000D01*
X149229000Y-133580000D02*
X149229000Y-132013000D01*
X149189000Y-137198000D02*
X149189000Y-135660000D01*
X149189000Y-133580000D02*
X149189000Y-132042000D01*
X149149000Y-137168000D02*
X149149000Y-135660000D01*
X149149000Y-133580000D02*
X149149000Y-132072000D01*
X149109000Y-137136000D02*
X149109000Y-135660000D01*
X149109000Y-133580000D02*
X149109000Y-132104000D01*
X149069000Y-137104000D02*
X149069000Y-135660000D01*
X149069000Y-133580000D02*
X149069000Y-132136000D01*
X149029000Y-137070000D02*
X149029000Y-135660000D01*
X149029000Y-133580000D02*
X149029000Y-132170000D01*
X148989000Y-137036000D02*
X148989000Y-135660000D01*
X148989000Y-133580000D02*
X148989000Y-132204000D01*
X148949000Y-137000000D02*
X148949000Y-135660000D01*
X148949000Y-133580000D02*
X148949000Y-132240000D01*
X148909000Y-136963000D02*
X148909000Y-135660000D01*
X148909000Y-133580000D02*
X148909000Y-132277000D01*
X148869000Y-136925000D02*
X148869000Y-135660000D01*
X148869000Y-133580000D02*
X148869000Y-132315000D01*
X148829000Y-136885000D02*
X148829000Y-132355000D01*
X148789000Y-136844000D02*
X148789000Y-132396000D01*
X148749000Y-136802000D02*
X148749000Y-132438000D01*
X148709000Y-136757000D02*
X148709000Y-132483000D01*
X148669000Y-136712000D02*
X148669000Y-132528000D01*
X148629000Y-136664000D02*
X148629000Y-132576000D01*
X148589000Y-136615000D02*
X148589000Y-132625000D01*
X148549000Y-136564000D02*
X148549000Y-132676000D01*
X148509000Y-136510000D02*
X148509000Y-132730000D01*
X148469000Y-136454000D02*
X148469000Y-132786000D01*
X148429000Y-136396000D02*
X148429000Y-132844000D01*
X148389000Y-136334000D02*
X148389000Y-132906000D01*
X148349000Y-136270000D02*
X148349000Y-132970000D01*
X148309000Y-136201000D02*
X148309000Y-133039000D01*
X148269000Y-136129000D02*
X148269000Y-133111000D01*
X148229000Y-136052000D02*
X148229000Y-133188000D01*
X148189000Y-135970000D02*
X148189000Y-133270000D01*
X148149000Y-135882000D02*
X148149000Y-133358000D01*
X148109000Y-135785000D02*
X148109000Y-133455000D01*
X148069000Y-135679000D02*
X148069000Y-133561000D01*
X148029000Y-135560000D02*
X148029000Y-133680000D01*
X147989000Y-135422000D02*
X147989000Y-133818000D01*
X147949000Y-135253000D02*
X147949000Y-133987000D01*
X147909000Y-135022000D02*
X147909000Y-134218000D01*
X154650241Y-136459000D02*
X154020241Y-136459000D01*
X154335241Y-136774000D02*
X154335241Y-136144000D01*
G04 #@! TO.C,C11*
X155544759Y-150246000D02*
X155544759Y-150876000D01*
X155229759Y-150561000D02*
X155859759Y-150561000D01*
X161971000Y-151998000D02*
X161971000Y-152802000D01*
X161931000Y-151767000D02*
X161931000Y-153033000D01*
X161891000Y-151598000D02*
X161891000Y-153202000D01*
X161851000Y-151460000D02*
X161851000Y-153340000D01*
X161811000Y-151341000D02*
X161811000Y-153459000D01*
X161771000Y-151235000D02*
X161771000Y-153565000D01*
X161731000Y-151138000D02*
X161731000Y-153662000D01*
X161691000Y-151050000D02*
X161691000Y-153750000D01*
X161651000Y-150968000D02*
X161651000Y-153832000D01*
X161611000Y-150891000D02*
X161611000Y-153909000D01*
X161571000Y-150819000D02*
X161571000Y-153981000D01*
X161531000Y-150750000D02*
X161531000Y-154050000D01*
X161491000Y-150686000D02*
X161491000Y-154114000D01*
X161451000Y-150624000D02*
X161451000Y-154176000D01*
X161411000Y-150566000D02*
X161411000Y-154234000D01*
X161371000Y-150510000D02*
X161371000Y-154290000D01*
X161331000Y-150456000D02*
X161331000Y-154344000D01*
X161291000Y-150405000D02*
X161291000Y-154395000D01*
X161251000Y-150356000D02*
X161251000Y-154444000D01*
X161211000Y-150308000D02*
X161211000Y-154492000D01*
X161171000Y-150263000D02*
X161171000Y-154537000D01*
X161131000Y-150218000D02*
X161131000Y-154582000D01*
X161091000Y-150176000D02*
X161091000Y-154624000D01*
X161051000Y-150135000D02*
X161051000Y-154665000D01*
X161011000Y-153440000D02*
X161011000Y-154705000D01*
X161011000Y-150095000D02*
X161011000Y-151360000D01*
X160971000Y-153440000D02*
X160971000Y-154743000D01*
X160971000Y-150057000D02*
X160971000Y-151360000D01*
X160931000Y-153440000D02*
X160931000Y-154780000D01*
X160931000Y-150020000D02*
X160931000Y-151360000D01*
X160891000Y-153440000D02*
X160891000Y-154816000D01*
X160891000Y-149984000D02*
X160891000Y-151360000D01*
X160851000Y-153440000D02*
X160851000Y-154850000D01*
X160851000Y-149950000D02*
X160851000Y-151360000D01*
X160811000Y-153440000D02*
X160811000Y-154884000D01*
X160811000Y-149916000D02*
X160811000Y-151360000D01*
X160771000Y-153440000D02*
X160771000Y-154916000D01*
X160771000Y-149884000D02*
X160771000Y-151360000D01*
X160731000Y-153440000D02*
X160731000Y-154948000D01*
X160731000Y-149852000D02*
X160731000Y-151360000D01*
X160691000Y-153440000D02*
X160691000Y-154978000D01*
X160691000Y-149822000D02*
X160691000Y-151360000D01*
X160651000Y-153440000D02*
X160651000Y-155007000D01*
X160651000Y-149793000D02*
X160651000Y-151360000D01*
X160611000Y-153440000D02*
X160611000Y-155036000D01*
X160611000Y-149764000D02*
X160611000Y-151360000D01*
X160571000Y-153440000D02*
X160571000Y-155064000D01*
X160571000Y-149736000D02*
X160571000Y-151360000D01*
X160531000Y-153440000D02*
X160531000Y-155090000D01*
X160531000Y-149710000D02*
X160531000Y-151360000D01*
X160491000Y-153440000D02*
X160491000Y-155116000D01*
X160491000Y-149684000D02*
X160491000Y-151360000D01*
X160451000Y-153440000D02*
X160451000Y-155142000D01*
X160451000Y-149658000D02*
X160451000Y-151360000D01*
X160411000Y-153440000D02*
X160411000Y-155166000D01*
X160411000Y-149634000D02*
X160411000Y-151360000D01*
X160371000Y-153440000D02*
X160371000Y-155190000D01*
X160371000Y-149610000D02*
X160371000Y-151360000D01*
X160331000Y-153440000D02*
X160331000Y-155212000D01*
X160331000Y-149588000D02*
X160331000Y-151360000D01*
X160291000Y-153440000D02*
X160291000Y-155234000D01*
X160291000Y-149566000D02*
X160291000Y-151360000D01*
X160251000Y-153440000D02*
X160251000Y-155256000D01*
X160251000Y-149544000D02*
X160251000Y-151360000D01*
X160211000Y-153440000D02*
X160211000Y-155276000D01*
X160211000Y-149524000D02*
X160211000Y-151360000D01*
X160171000Y-153440000D02*
X160171000Y-155296000D01*
X160171000Y-149504000D02*
X160171000Y-151360000D01*
X160131000Y-153440000D02*
X160131000Y-155316000D01*
X160131000Y-149484000D02*
X160131000Y-151360000D01*
X160091000Y-153440000D02*
X160091000Y-155334000D01*
X160091000Y-149466000D02*
X160091000Y-151360000D01*
X160051000Y-153440000D02*
X160051000Y-155352000D01*
X160051000Y-149448000D02*
X160051000Y-151360000D01*
X160011000Y-153440000D02*
X160011000Y-155370000D01*
X160011000Y-149430000D02*
X160011000Y-151360000D01*
X159971000Y-153440000D02*
X159971000Y-155386000D01*
X159971000Y-149414000D02*
X159971000Y-151360000D01*
X159931000Y-153440000D02*
X159931000Y-155402000D01*
X159931000Y-149398000D02*
X159931000Y-151360000D01*
X159891000Y-153440000D02*
X159891000Y-155418000D01*
X159891000Y-149382000D02*
X159891000Y-151360000D01*
X159851000Y-153440000D02*
X159851000Y-155433000D01*
X159851000Y-149367000D02*
X159851000Y-151360000D01*
X159811000Y-153440000D02*
X159811000Y-155447000D01*
X159811000Y-149353000D02*
X159811000Y-151360000D01*
X159771000Y-153440000D02*
X159771000Y-155461000D01*
X159771000Y-149339000D02*
X159771000Y-151360000D01*
X159731000Y-153440000D02*
X159731000Y-155474000D01*
X159731000Y-149326000D02*
X159731000Y-151360000D01*
X159691000Y-153440000D02*
X159691000Y-155486000D01*
X159691000Y-149314000D02*
X159691000Y-151360000D01*
X159651000Y-153440000D02*
X159651000Y-155498000D01*
X159651000Y-149302000D02*
X159651000Y-151360000D01*
X159611000Y-153440000D02*
X159611000Y-155510000D01*
X159611000Y-149290000D02*
X159611000Y-151360000D01*
X159571000Y-153440000D02*
X159571000Y-155521000D01*
X159571000Y-149279000D02*
X159571000Y-151360000D01*
X159531000Y-153440000D02*
X159531000Y-155531000D01*
X159531000Y-149269000D02*
X159531000Y-151360000D01*
X159491000Y-153440000D02*
X159491000Y-155541000D01*
X159491000Y-149259000D02*
X159491000Y-151360000D01*
X159451000Y-153440000D02*
X159451000Y-155550000D01*
X159451000Y-149250000D02*
X159451000Y-151360000D01*
X159410000Y-153440000D02*
X159410000Y-155559000D01*
X159410000Y-149241000D02*
X159410000Y-151360000D01*
X159370000Y-153440000D02*
X159370000Y-155567000D01*
X159370000Y-149233000D02*
X159370000Y-151360000D01*
X159330000Y-153440000D02*
X159330000Y-155575000D01*
X159330000Y-149225000D02*
X159330000Y-151360000D01*
X159290000Y-153440000D02*
X159290000Y-155582000D01*
X159290000Y-149218000D02*
X159290000Y-151360000D01*
X159250000Y-153440000D02*
X159250000Y-155589000D01*
X159250000Y-149211000D02*
X159250000Y-151360000D01*
X159210000Y-153440000D02*
X159210000Y-155595000D01*
X159210000Y-149205000D02*
X159210000Y-151360000D01*
X159170000Y-153440000D02*
X159170000Y-155601000D01*
X159170000Y-149199000D02*
X159170000Y-151360000D01*
X159130000Y-153440000D02*
X159130000Y-155606000D01*
X159130000Y-149194000D02*
X159130000Y-151360000D01*
X159090000Y-153440000D02*
X159090000Y-155611000D01*
X159090000Y-149189000D02*
X159090000Y-151360000D01*
X159050000Y-153440000D02*
X159050000Y-155615000D01*
X159050000Y-149185000D02*
X159050000Y-151360000D01*
X159010000Y-153440000D02*
X159010000Y-155618000D01*
X159010000Y-149182000D02*
X159010000Y-151360000D01*
X158970000Y-153440000D02*
X158970000Y-155622000D01*
X158970000Y-149178000D02*
X158970000Y-151360000D01*
X158930000Y-149176000D02*
X158930000Y-155624000D01*
X158890000Y-149173000D02*
X158890000Y-155627000D01*
X158850000Y-149172000D02*
X158850000Y-155628000D01*
X158810000Y-149170000D02*
X158810000Y-155630000D01*
X158770000Y-149170000D02*
X158770000Y-155630000D01*
X158730000Y-149170000D02*
X158730000Y-155630000D01*
X162000000Y-152400000D02*
G75*
G03X162000000Y-152400000I-3270000J0D01*
G01*
G04 #@! TO.C,C7*
X164540000Y-134620000D02*
G75*
G03X164540000Y-134620000I-3270000J0D01*
G01*
X161270000Y-131390000D02*
X161270000Y-137850000D01*
X161310000Y-131390000D02*
X161310000Y-137850000D01*
X161350000Y-131390000D02*
X161350000Y-137850000D01*
X161390000Y-131392000D02*
X161390000Y-137848000D01*
X161430000Y-131393000D02*
X161430000Y-137847000D01*
X161470000Y-131396000D02*
X161470000Y-137844000D01*
X161510000Y-131398000D02*
X161510000Y-133580000D01*
X161510000Y-135660000D02*
X161510000Y-137842000D01*
X161550000Y-131402000D02*
X161550000Y-133580000D01*
X161550000Y-135660000D02*
X161550000Y-137838000D01*
X161590000Y-131405000D02*
X161590000Y-133580000D01*
X161590000Y-135660000D02*
X161590000Y-137835000D01*
X161630000Y-131409000D02*
X161630000Y-133580000D01*
X161630000Y-135660000D02*
X161630000Y-137831000D01*
X161670000Y-131414000D02*
X161670000Y-133580000D01*
X161670000Y-135660000D02*
X161670000Y-137826000D01*
X161710000Y-131419000D02*
X161710000Y-133580000D01*
X161710000Y-135660000D02*
X161710000Y-137821000D01*
X161750000Y-131425000D02*
X161750000Y-133580000D01*
X161750000Y-135660000D02*
X161750000Y-137815000D01*
X161790000Y-131431000D02*
X161790000Y-133580000D01*
X161790000Y-135660000D02*
X161790000Y-137809000D01*
X161830000Y-131438000D02*
X161830000Y-133580000D01*
X161830000Y-135660000D02*
X161830000Y-137802000D01*
X161870000Y-131445000D02*
X161870000Y-133580000D01*
X161870000Y-135660000D02*
X161870000Y-137795000D01*
X161910000Y-131453000D02*
X161910000Y-133580000D01*
X161910000Y-135660000D02*
X161910000Y-137787000D01*
X161950000Y-131461000D02*
X161950000Y-133580000D01*
X161950000Y-135660000D02*
X161950000Y-137779000D01*
X161991000Y-131470000D02*
X161991000Y-133580000D01*
X161991000Y-135660000D02*
X161991000Y-137770000D01*
X162031000Y-131479000D02*
X162031000Y-133580000D01*
X162031000Y-135660000D02*
X162031000Y-137761000D01*
X162071000Y-131489000D02*
X162071000Y-133580000D01*
X162071000Y-135660000D02*
X162071000Y-137751000D01*
X162111000Y-131499000D02*
X162111000Y-133580000D01*
X162111000Y-135660000D02*
X162111000Y-137741000D01*
X162151000Y-131510000D02*
X162151000Y-133580000D01*
X162151000Y-135660000D02*
X162151000Y-137730000D01*
X162191000Y-131522000D02*
X162191000Y-133580000D01*
X162191000Y-135660000D02*
X162191000Y-137718000D01*
X162231000Y-131534000D02*
X162231000Y-133580000D01*
X162231000Y-135660000D02*
X162231000Y-137706000D01*
X162271000Y-131546000D02*
X162271000Y-133580000D01*
X162271000Y-135660000D02*
X162271000Y-137694000D01*
X162311000Y-131559000D02*
X162311000Y-133580000D01*
X162311000Y-135660000D02*
X162311000Y-137681000D01*
X162351000Y-131573000D02*
X162351000Y-133580000D01*
X162351000Y-135660000D02*
X162351000Y-137667000D01*
X162391000Y-131587000D02*
X162391000Y-133580000D01*
X162391000Y-135660000D02*
X162391000Y-137653000D01*
X162431000Y-131602000D02*
X162431000Y-133580000D01*
X162431000Y-135660000D02*
X162431000Y-137638000D01*
X162471000Y-131618000D02*
X162471000Y-133580000D01*
X162471000Y-135660000D02*
X162471000Y-137622000D01*
X162511000Y-131634000D02*
X162511000Y-133580000D01*
X162511000Y-135660000D02*
X162511000Y-137606000D01*
X162551000Y-131650000D02*
X162551000Y-133580000D01*
X162551000Y-135660000D02*
X162551000Y-137590000D01*
X162591000Y-131668000D02*
X162591000Y-133580000D01*
X162591000Y-135660000D02*
X162591000Y-137572000D01*
X162631000Y-131686000D02*
X162631000Y-133580000D01*
X162631000Y-135660000D02*
X162631000Y-137554000D01*
X162671000Y-131704000D02*
X162671000Y-133580000D01*
X162671000Y-135660000D02*
X162671000Y-137536000D01*
X162711000Y-131724000D02*
X162711000Y-133580000D01*
X162711000Y-135660000D02*
X162711000Y-137516000D01*
X162751000Y-131744000D02*
X162751000Y-133580000D01*
X162751000Y-135660000D02*
X162751000Y-137496000D01*
X162791000Y-131764000D02*
X162791000Y-133580000D01*
X162791000Y-135660000D02*
X162791000Y-137476000D01*
X162831000Y-131786000D02*
X162831000Y-133580000D01*
X162831000Y-135660000D02*
X162831000Y-137454000D01*
X162871000Y-131808000D02*
X162871000Y-133580000D01*
X162871000Y-135660000D02*
X162871000Y-137432000D01*
X162911000Y-131830000D02*
X162911000Y-133580000D01*
X162911000Y-135660000D02*
X162911000Y-137410000D01*
X162951000Y-131854000D02*
X162951000Y-133580000D01*
X162951000Y-135660000D02*
X162951000Y-137386000D01*
X162991000Y-131878000D02*
X162991000Y-133580000D01*
X162991000Y-135660000D02*
X162991000Y-137362000D01*
X163031000Y-131904000D02*
X163031000Y-133580000D01*
X163031000Y-135660000D02*
X163031000Y-137336000D01*
X163071000Y-131930000D02*
X163071000Y-133580000D01*
X163071000Y-135660000D02*
X163071000Y-137310000D01*
X163111000Y-131956000D02*
X163111000Y-133580000D01*
X163111000Y-135660000D02*
X163111000Y-137284000D01*
X163151000Y-131984000D02*
X163151000Y-133580000D01*
X163151000Y-135660000D02*
X163151000Y-137256000D01*
X163191000Y-132013000D02*
X163191000Y-133580000D01*
X163191000Y-135660000D02*
X163191000Y-137227000D01*
X163231000Y-132042000D02*
X163231000Y-133580000D01*
X163231000Y-135660000D02*
X163231000Y-137198000D01*
X163271000Y-132072000D02*
X163271000Y-133580000D01*
X163271000Y-135660000D02*
X163271000Y-137168000D01*
X163311000Y-132104000D02*
X163311000Y-133580000D01*
X163311000Y-135660000D02*
X163311000Y-137136000D01*
X163351000Y-132136000D02*
X163351000Y-133580000D01*
X163351000Y-135660000D02*
X163351000Y-137104000D01*
X163391000Y-132170000D02*
X163391000Y-133580000D01*
X163391000Y-135660000D02*
X163391000Y-137070000D01*
X163431000Y-132204000D02*
X163431000Y-133580000D01*
X163431000Y-135660000D02*
X163431000Y-137036000D01*
X163471000Y-132240000D02*
X163471000Y-133580000D01*
X163471000Y-135660000D02*
X163471000Y-137000000D01*
X163511000Y-132277000D02*
X163511000Y-133580000D01*
X163511000Y-135660000D02*
X163511000Y-136963000D01*
X163551000Y-132315000D02*
X163551000Y-133580000D01*
X163551000Y-135660000D02*
X163551000Y-136925000D01*
X163591000Y-132355000D02*
X163591000Y-136885000D01*
X163631000Y-132396000D02*
X163631000Y-136844000D01*
X163671000Y-132438000D02*
X163671000Y-136802000D01*
X163711000Y-132483000D02*
X163711000Y-136757000D01*
X163751000Y-132528000D02*
X163751000Y-136712000D01*
X163791000Y-132576000D02*
X163791000Y-136664000D01*
X163831000Y-132625000D02*
X163831000Y-136615000D01*
X163871000Y-132676000D02*
X163871000Y-136564000D01*
X163911000Y-132730000D02*
X163911000Y-136510000D01*
X163951000Y-132786000D02*
X163951000Y-136454000D01*
X163991000Y-132844000D02*
X163991000Y-136396000D01*
X164031000Y-132906000D02*
X164031000Y-136334000D01*
X164071000Y-132970000D02*
X164071000Y-136270000D01*
X164111000Y-133039000D02*
X164111000Y-136201000D01*
X164151000Y-133111000D02*
X164151000Y-136129000D01*
X164191000Y-133188000D02*
X164191000Y-136052000D01*
X164231000Y-133270000D02*
X164231000Y-135970000D01*
X164271000Y-133358000D02*
X164271000Y-135882000D01*
X164311000Y-133455000D02*
X164311000Y-135785000D01*
X164351000Y-133561000D02*
X164351000Y-135679000D01*
X164391000Y-133680000D02*
X164391000Y-135560000D01*
X164431000Y-133818000D02*
X164431000Y-135422000D01*
X164471000Y-133987000D02*
X164471000Y-135253000D01*
X164511000Y-134218000D02*
X164511000Y-135022000D01*
X157769759Y-132781000D02*
X158399759Y-132781000D01*
X158084759Y-132466000D02*
X158084759Y-133096000D01*
G04 #@! TO.C,C15*
X132790000Y-118110000D02*
G75*
G03X132790000Y-118110000I-3270000J0D01*
G01*
X129520000Y-114880000D02*
X129520000Y-121340000D01*
X129560000Y-114880000D02*
X129560000Y-121340000D01*
X129600000Y-114880000D02*
X129600000Y-121340000D01*
X129640000Y-114882000D02*
X129640000Y-121338000D01*
X129680000Y-114883000D02*
X129680000Y-121337000D01*
X129720000Y-114886000D02*
X129720000Y-121334000D01*
X129760000Y-114888000D02*
X129760000Y-117070000D01*
X129760000Y-119150000D02*
X129760000Y-121332000D01*
X129800000Y-114892000D02*
X129800000Y-117070000D01*
X129800000Y-119150000D02*
X129800000Y-121328000D01*
X129840000Y-114895000D02*
X129840000Y-117070000D01*
X129840000Y-119150000D02*
X129840000Y-121325000D01*
X129880000Y-114899000D02*
X129880000Y-117070000D01*
X129880000Y-119150000D02*
X129880000Y-121321000D01*
X129920000Y-114904000D02*
X129920000Y-117070000D01*
X129920000Y-119150000D02*
X129920000Y-121316000D01*
X129960000Y-114909000D02*
X129960000Y-117070000D01*
X129960000Y-119150000D02*
X129960000Y-121311000D01*
X130000000Y-114915000D02*
X130000000Y-117070000D01*
X130000000Y-119150000D02*
X130000000Y-121305000D01*
X130040000Y-114921000D02*
X130040000Y-117070000D01*
X130040000Y-119150000D02*
X130040000Y-121299000D01*
X130080000Y-114928000D02*
X130080000Y-117070000D01*
X130080000Y-119150000D02*
X130080000Y-121292000D01*
X130120000Y-114935000D02*
X130120000Y-117070000D01*
X130120000Y-119150000D02*
X130120000Y-121285000D01*
X130160000Y-114943000D02*
X130160000Y-117070000D01*
X130160000Y-119150000D02*
X130160000Y-121277000D01*
X130200000Y-114951000D02*
X130200000Y-117070000D01*
X130200000Y-119150000D02*
X130200000Y-121269000D01*
X130241000Y-114960000D02*
X130241000Y-117070000D01*
X130241000Y-119150000D02*
X130241000Y-121260000D01*
X130281000Y-114969000D02*
X130281000Y-117070000D01*
X130281000Y-119150000D02*
X130281000Y-121251000D01*
X130321000Y-114979000D02*
X130321000Y-117070000D01*
X130321000Y-119150000D02*
X130321000Y-121241000D01*
X130361000Y-114989000D02*
X130361000Y-117070000D01*
X130361000Y-119150000D02*
X130361000Y-121231000D01*
X130401000Y-115000000D02*
X130401000Y-117070000D01*
X130401000Y-119150000D02*
X130401000Y-121220000D01*
X130441000Y-115012000D02*
X130441000Y-117070000D01*
X130441000Y-119150000D02*
X130441000Y-121208000D01*
X130481000Y-115024000D02*
X130481000Y-117070000D01*
X130481000Y-119150000D02*
X130481000Y-121196000D01*
X130521000Y-115036000D02*
X130521000Y-117070000D01*
X130521000Y-119150000D02*
X130521000Y-121184000D01*
X130561000Y-115049000D02*
X130561000Y-117070000D01*
X130561000Y-119150000D02*
X130561000Y-121171000D01*
X130601000Y-115063000D02*
X130601000Y-117070000D01*
X130601000Y-119150000D02*
X130601000Y-121157000D01*
X130641000Y-115077000D02*
X130641000Y-117070000D01*
X130641000Y-119150000D02*
X130641000Y-121143000D01*
X130681000Y-115092000D02*
X130681000Y-117070000D01*
X130681000Y-119150000D02*
X130681000Y-121128000D01*
X130721000Y-115108000D02*
X130721000Y-117070000D01*
X130721000Y-119150000D02*
X130721000Y-121112000D01*
X130761000Y-115124000D02*
X130761000Y-117070000D01*
X130761000Y-119150000D02*
X130761000Y-121096000D01*
X130801000Y-115140000D02*
X130801000Y-117070000D01*
X130801000Y-119150000D02*
X130801000Y-121080000D01*
X130841000Y-115158000D02*
X130841000Y-117070000D01*
X130841000Y-119150000D02*
X130841000Y-121062000D01*
X130881000Y-115176000D02*
X130881000Y-117070000D01*
X130881000Y-119150000D02*
X130881000Y-121044000D01*
X130921000Y-115194000D02*
X130921000Y-117070000D01*
X130921000Y-119150000D02*
X130921000Y-121026000D01*
X130961000Y-115214000D02*
X130961000Y-117070000D01*
X130961000Y-119150000D02*
X130961000Y-121006000D01*
X131001000Y-115234000D02*
X131001000Y-117070000D01*
X131001000Y-119150000D02*
X131001000Y-120986000D01*
X131041000Y-115254000D02*
X131041000Y-117070000D01*
X131041000Y-119150000D02*
X131041000Y-120966000D01*
X131081000Y-115276000D02*
X131081000Y-117070000D01*
X131081000Y-119150000D02*
X131081000Y-120944000D01*
X131121000Y-115298000D02*
X131121000Y-117070000D01*
X131121000Y-119150000D02*
X131121000Y-120922000D01*
X131161000Y-115320000D02*
X131161000Y-117070000D01*
X131161000Y-119150000D02*
X131161000Y-120900000D01*
X131201000Y-115344000D02*
X131201000Y-117070000D01*
X131201000Y-119150000D02*
X131201000Y-120876000D01*
X131241000Y-115368000D02*
X131241000Y-117070000D01*
X131241000Y-119150000D02*
X131241000Y-120852000D01*
X131281000Y-115394000D02*
X131281000Y-117070000D01*
X131281000Y-119150000D02*
X131281000Y-120826000D01*
X131321000Y-115420000D02*
X131321000Y-117070000D01*
X131321000Y-119150000D02*
X131321000Y-120800000D01*
X131361000Y-115446000D02*
X131361000Y-117070000D01*
X131361000Y-119150000D02*
X131361000Y-120774000D01*
X131401000Y-115474000D02*
X131401000Y-117070000D01*
X131401000Y-119150000D02*
X131401000Y-120746000D01*
X131441000Y-115503000D02*
X131441000Y-117070000D01*
X131441000Y-119150000D02*
X131441000Y-120717000D01*
X131481000Y-115532000D02*
X131481000Y-117070000D01*
X131481000Y-119150000D02*
X131481000Y-120688000D01*
X131521000Y-115562000D02*
X131521000Y-117070000D01*
X131521000Y-119150000D02*
X131521000Y-120658000D01*
X131561000Y-115594000D02*
X131561000Y-117070000D01*
X131561000Y-119150000D02*
X131561000Y-120626000D01*
X131601000Y-115626000D02*
X131601000Y-117070000D01*
X131601000Y-119150000D02*
X131601000Y-120594000D01*
X131641000Y-115660000D02*
X131641000Y-117070000D01*
X131641000Y-119150000D02*
X131641000Y-120560000D01*
X131681000Y-115694000D02*
X131681000Y-117070000D01*
X131681000Y-119150000D02*
X131681000Y-120526000D01*
X131721000Y-115730000D02*
X131721000Y-117070000D01*
X131721000Y-119150000D02*
X131721000Y-120490000D01*
X131761000Y-115767000D02*
X131761000Y-117070000D01*
X131761000Y-119150000D02*
X131761000Y-120453000D01*
X131801000Y-115805000D02*
X131801000Y-117070000D01*
X131801000Y-119150000D02*
X131801000Y-120415000D01*
X131841000Y-115845000D02*
X131841000Y-120375000D01*
X131881000Y-115886000D02*
X131881000Y-120334000D01*
X131921000Y-115928000D02*
X131921000Y-120292000D01*
X131961000Y-115973000D02*
X131961000Y-120247000D01*
X132001000Y-116018000D02*
X132001000Y-120202000D01*
X132041000Y-116066000D02*
X132041000Y-120154000D01*
X132081000Y-116115000D02*
X132081000Y-120105000D01*
X132121000Y-116166000D02*
X132121000Y-120054000D01*
X132161000Y-116220000D02*
X132161000Y-120000000D01*
X132201000Y-116276000D02*
X132201000Y-119944000D01*
X132241000Y-116334000D02*
X132241000Y-119886000D01*
X132281000Y-116396000D02*
X132281000Y-119824000D01*
X132321000Y-116460000D02*
X132321000Y-119760000D01*
X132361000Y-116529000D02*
X132361000Y-119691000D01*
X132401000Y-116601000D02*
X132401000Y-119619000D01*
X132441000Y-116678000D02*
X132441000Y-119542000D01*
X132481000Y-116760000D02*
X132481000Y-119460000D01*
X132521000Y-116848000D02*
X132521000Y-119372000D01*
X132561000Y-116945000D02*
X132561000Y-119275000D01*
X132601000Y-117051000D02*
X132601000Y-119169000D01*
X132641000Y-117170000D02*
X132641000Y-119050000D01*
X132681000Y-117308000D02*
X132681000Y-118912000D01*
X132721000Y-117477000D02*
X132721000Y-118743000D01*
X132761000Y-117708000D02*
X132761000Y-118512000D01*
X126019759Y-116271000D02*
X126649759Y-116271000D01*
X126334759Y-115956000D02*
X126334759Y-116586000D01*
G04 #@! TO.C,C9*
X155510000Y-151030000D02*
X151870000Y-151030000D01*
X155510000Y-148690000D02*
X151870000Y-148690000D01*
X155510000Y-151030000D02*
X155510000Y-150785000D01*
X155510000Y-148935000D02*
X155510000Y-148690000D01*
X151870000Y-151030000D02*
X151870000Y-150785000D01*
X151870000Y-148935000D02*
X151870000Y-148690000D01*
G04 #@! TO.C,C6*
X145310000Y-130465000D02*
X145310000Y-130710000D01*
X145310000Y-128370000D02*
X145310000Y-128615000D01*
X141670000Y-130465000D02*
X141670000Y-130710000D01*
X141670000Y-128370000D02*
X141670000Y-128615000D01*
X141670000Y-130710000D02*
X145310000Y-130710000D01*
X141670000Y-128370000D02*
X145310000Y-128370000D01*
G04 #@! TO.C,C14*
X127700000Y-123290000D02*
X131340000Y-123290000D01*
X127700000Y-125630000D02*
X131340000Y-125630000D01*
X127700000Y-123290000D02*
X127700000Y-123535000D01*
X127700000Y-125385000D02*
X127700000Y-125630000D01*
X131340000Y-123290000D02*
X131340000Y-123535000D01*
X131340000Y-125385000D02*
X131340000Y-125630000D01*
G04 #@! TO.C,C5*
X140230000Y-130465000D02*
X140230000Y-130710000D01*
X140230000Y-128370000D02*
X140230000Y-128615000D01*
X136590000Y-130465000D02*
X136590000Y-130710000D01*
X136590000Y-128370000D02*
X136590000Y-128615000D01*
X136590000Y-130710000D02*
X140230000Y-130710000D01*
X136590000Y-128370000D02*
X140230000Y-128370000D01*
G04 #@! TO.C,C16*
X167110000Y-129640000D02*
X170750000Y-129640000D01*
X167110000Y-131980000D02*
X170750000Y-131980000D01*
X167110000Y-129640000D02*
X167110000Y-129885000D01*
X167110000Y-131735000D02*
X167110000Y-131980000D01*
X170750000Y-129640000D02*
X170750000Y-129885000D01*
X170750000Y-131735000D02*
X170750000Y-131980000D01*
G04 #@! TO.C,C4*
X158010000Y-138085000D02*
X158010000Y-138330000D01*
X158010000Y-135990000D02*
X158010000Y-136235000D01*
X154370000Y-138085000D02*
X154370000Y-138330000D01*
X154370000Y-135990000D02*
X154370000Y-136235000D01*
X154370000Y-138330000D02*
X158010000Y-138330000D01*
X154370000Y-135990000D02*
X158010000Y-135990000D01*
G04 #@! TO.C,C18*
X167070000Y-124560000D02*
X170710000Y-124560000D01*
X167070000Y-126900000D02*
X170710000Y-126900000D01*
X167070000Y-124560000D02*
X167070000Y-124805000D01*
X167070000Y-126655000D02*
X167070000Y-126900000D01*
X170710000Y-124560000D02*
X170710000Y-124805000D01*
X170710000Y-126655000D02*
X170710000Y-126900000D01*
G04 #@! TO.C,J1*
X124400000Y-137100000D02*
X125730000Y-137100000D01*
X124400000Y-138430000D02*
X124400000Y-137100000D01*
X124400000Y-139700000D02*
X127060000Y-139700000D01*
X127060000Y-139700000D02*
X127060000Y-147380000D01*
X124400000Y-139700000D02*
X124400000Y-147380000D01*
X124400000Y-147380000D02*
X127060000Y-147380000D01*
G04 #@! TO.C,J6*
X116780000Y-124520000D02*
X119440000Y-124520000D01*
X116780000Y-116840000D02*
X116780000Y-124520000D01*
X119440000Y-116840000D02*
X119440000Y-124520000D01*
X116780000Y-116840000D02*
X119440000Y-116840000D01*
X116780000Y-115570000D02*
X116780000Y-114240000D01*
X116780000Y-114240000D02*
X118110000Y-114240000D01*
G04 #@! TO.C,J8*
X116780000Y-124400000D02*
X118110000Y-124400000D01*
X116780000Y-125730000D02*
X116780000Y-124400000D01*
X116780000Y-127000000D02*
X119440000Y-127000000D01*
X119440000Y-127000000D02*
X119440000Y-137220000D01*
X116780000Y-127000000D02*
X116780000Y-137220000D01*
X116780000Y-137220000D02*
X119440000Y-137220000D01*
G04 #@! TO.C,J5*
X121980000Y-114240000D02*
X119320000Y-114240000D01*
X121980000Y-124460000D02*
X121980000Y-114240000D01*
X119320000Y-124460000D02*
X119320000Y-114240000D01*
X121980000Y-124460000D02*
X119320000Y-124460000D01*
X121980000Y-125730000D02*
X121980000Y-127060000D01*
X121980000Y-127060000D02*
X120650000Y-127060000D01*
G04 #@! TO.C,J7*
X121980000Y-126940000D02*
X119320000Y-126940000D01*
X121980000Y-139700000D02*
X121980000Y-126940000D01*
X119320000Y-139700000D02*
X119320000Y-126940000D01*
X121980000Y-139700000D02*
X119320000Y-139700000D01*
X121980000Y-140970000D02*
X121980000Y-142300000D01*
X121980000Y-142300000D02*
X120650000Y-142300000D01*
G04 #@! TO.C,Y1*
X136400000Y-132095000D02*
X142800000Y-132095000D01*
X136400000Y-137145000D02*
X142800000Y-137145000D01*
X136400000Y-137145000D02*
G75*
G02X136400000Y-132095000I0J2525000D01*
G01*
X142800000Y-137145000D02*
G75*
G03X142800000Y-132095000I0J2525000D01*
G01*
G04 #@! TO.C,U2*
X174050000Y-144510000D02*
G75*
G02X174050000Y-142510000I0J1000000D01*
G01*
X174050000Y-142510000D02*
X174050000Y-140860000D01*
X174050000Y-140860000D02*
X138370000Y-140860000D01*
X138370000Y-140860000D02*
X138370000Y-146160000D01*
X138370000Y-146160000D02*
X174050000Y-146160000D01*
X174050000Y-146160000D02*
X174050000Y-144510000D01*
X174110000Y-138370000D02*
X138310000Y-138370000D01*
X138310000Y-138370000D02*
X138310000Y-148650000D01*
X138310000Y-148650000D02*
X174110000Y-148650000D01*
X174110000Y-148650000D02*
X174110000Y-138370000D01*
G04 #@! TO.C,U3*
X153663946Y-118380000D02*
G75*
G02X153663946Y-120380000I0J-1000000D01*
G01*
X153663946Y-120380000D02*
X153663946Y-122030000D01*
X153663946Y-122030000D02*
X163943946Y-122030000D01*
X163943946Y-122030000D02*
X163943946Y-116730000D01*
X163943946Y-116730000D02*
X153663946Y-116730000D01*
X153663946Y-116730000D02*
X153663946Y-118380000D01*
X153603946Y-124520000D02*
X164003946Y-124520000D01*
X164003946Y-124520000D02*
X164003946Y-114240000D01*
X164003946Y-114240000D02*
X153603946Y-114240000D01*
X153603946Y-114240000D02*
X153603946Y-124520000D01*
G04 #@! TO.C,R1*
D12*
X139485714Y-119665714D02*
X140152380Y-119665714D01*
X139104761Y-119903809D02*
X139819047Y-120141904D01*
X139819047Y-119522857D01*
X139152380Y-119237142D02*
X139152380Y-118570476D01*
X140152380Y-118999047D01*
G04 #@! TO.C,R7*
X177831904Y-130357619D02*
X177879523Y-130310000D01*
X177974761Y-130262380D01*
X178212857Y-130262380D01*
X178308095Y-130310000D01*
X178355714Y-130357619D01*
X178403333Y-130452857D01*
X178403333Y-130548095D01*
X178355714Y-130690952D01*
X177784285Y-131262380D01*
X178403333Y-131262380D01*
X178784285Y-130357619D02*
X178831904Y-130310000D01*
X178927142Y-130262380D01*
X179165238Y-130262380D01*
X179260476Y-130310000D01*
X179308095Y-130357619D01*
X179355714Y-130452857D01*
X179355714Y-130548095D01*
X179308095Y-130690952D01*
X178736666Y-131262380D01*
X179355714Y-131262380D01*
X179974761Y-130262380D02*
X180070000Y-130262380D01*
X180165238Y-130310000D01*
X180212857Y-130357619D01*
X180260476Y-130452857D01*
X180308095Y-130643333D01*
X180308095Y-130881428D01*
X180260476Y-131071904D01*
X180212857Y-131167142D01*
X180165238Y-131214761D01*
X180070000Y-131262380D01*
X179974761Y-131262380D01*
X179879523Y-131214761D01*
X179831904Y-131167142D01*
X179784285Y-131071904D01*
X179736666Y-130881428D01*
X179736666Y-130643333D01*
X179784285Y-130452857D01*
X179831904Y-130357619D01*
X179879523Y-130310000D01*
X179974761Y-130262380D01*
G04 #@! TO.C,R11*
X178879523Y-118562380D02*
X178308095Y-118562380D01*
X178593809Y-118562380D02*
X178593809Y-117562380D01*
X178498571Y-117705238D01*
X178403333Y-117800476D01*
X178308095Y-117848095D01*
X179498571Y-117562380D02*
X179593809Y-117562380D01*
X179689047Y-117610000D01*
X179736666Y-117657619D01*
X179784285Y-117752857D01*
X179831904Y-117943333D01*
X179831904Y-118181428D01*
X179784285Y-118371904D01*
X179736666Y-118467142D01*
X179689047Y-118514761D01*
X179593809Y-118562380D01*
X179498571Y-118562380D01*
X179403333Y-118514761D01*
X179355714Y-118467142D01*
X179308095Y-118371904D01*
X179260476Y-118181428D01*
X179260476Y-117943333D01*
X179308095Y-117752857D01*
X179355714Y-117657619D01*
X179403333Y-117610000D01*
X179498571Y-117562380D01*
G04 #@! TO.C,R10*
X178950952Y-116022380D02*
X178379523Y-116022380D01*
X178665238Y-116022380D02*
X178665238Y-115022380D01*
X178570000Y-115165238D01*
X178474761Y-115260476D01*
X178379523Y-115308095D01*
X179379523Y-116022380D02*
X179379523Y-115022380D01*
X179474761Y-115641428D02*
X179760476Y-116022380D01*
X179760476Y-115355714D02*
X179379523Y-115736666D01*
G04 #@! TO.C,R9*
X137612380Y-119975238D02*
X137612380Y-120546666D01*
X137612380Y-120260952D02*
X136612380Y-120260952D01*
X136755238Y-120356190D01*
X136850476Y-120451428D01*
X136898095Y-120546666D01*
X136612380Y-119356190D02*
X136612380Y-119260952D01*
X136660000Y-119165714D01*
X136707619Y-119118095D01*
X136802857Y-119070476D01*
X136993333Y-119022857D01*
X137231428Y-119022857D01*
X137421904Y-119070476D01*
X137517142Y-119118095D01*
X137564761Y-119165714D01*
X137612380Y-119260952D01*
X137612380Y-119356190D01*
X137564761Y-119451428D01*
X137517142Y-119499047D01*
X137421904Y-119546666D01*
X137231428Y-119594285D01*
X136993333Y-119594285D01*
X136802857Y-119546666D01*
X136707619Y-119499047D01*
X136660000Y-119451428D01*
X136612380Y-119356190D01*
X137612380Y-118594285D02*
X136612380Y-118594285D01*
X137231428Y-118499047D02*
X137612380Y-118213333D01*
X136945714Y-118213333D02*
X137326666Y-118594285D01*
G04 #@! TO.C,R8*
X142025714Y-120141904D02*
X142692380Y-120141904D01*
X141644761Y-120380000D02*
X142359047Y-120618095D01*
X142359047Y-119999047D01*
X141692380Y-119713333D02*
X141692380Y-119046666D01*
X142692380Y-119475238D01*
X141692380Y-118475238D02*
X141692380Y-118380000D01*
X141740000Y-118284761D01*
X141787619Y-118237142D01*
X141882857Y-118189523D01*
X142073333Y-118141904D01*
X142311428Y-118141904D01*
X142501904Y-118189523D01*
X142597142Y-118237142D01*
X142644761Y-118284761D01*
X142692380Y-118380000D01*
X142692380Y-118475238D01*
X142644761Y-118570476D01*
X142597142Y-118618095D01*
X142501904Y-118665714D01*
X142311428Y-118713333D01*
X142073333Y-118713333D01*
X141882857Y-118665714D01*
X141787619Y-118618095D01*
X141740000Y-118570476D01*
X141692380Y-118475238D01*
G04 #@! TO.C,R6*
X177831904Y-127817619D02*
X177879523Y-127770000D01*
X177974761Y-127722380D01*
X178212857Y-127722380D01*
X178308095Y-127770000D01*
X178355714Y-127817619D01*
X178403333Y-127912857D01*
X178403333Y-128008095D01*
X178355714Y-128150952D01*
X177784285Y-128722380D01*
X178403333Y-128722380D01*
X178784285Y-127817619D02*
X178831904Y-127770000D01*
X178927142Y-127722380D01*
X179165238Y-127722380D01*
X179260476Y-127770000D01*
X179308095Y-127817619D01*
X179355714Y-127912857D01*
X179355714Y-128008095D01*
X179308095Y-128150952D01*
X178736666Y-128722380D01*
X179355714Y-128722380D01*
X179974761Y-127722380D02*
X180070000Y-127722380D01*
X180165238Y-127770000D01*
X180212857Y-127817619D01*
X180260476Y-127912857D01*
X180308095Y-128103333D01*
X180308095Y-128341428D01*
X180260476Y-128531904D01*
X180212857Y-128627142D01*
X180165238Y-128674761D01*
X180070000Y-128722380D01*
X179974761Y-128722380D01*
X179879523Y-128674761D01*
X179831904Y-128627142D01*
X179784285Y-128531904D01*
X179736666Y-128341428D01*
X179736666Y-128103333D01*
X179784285Y-127912857D01*
X179831904Y-127817619D01*
X179879523Y-127770000D01*
X179974761Y-127722380D01*
G04 #@! TO.C,R5*
X177831904Y-125277619D02*
X177879523Y-125230000D01*
X177974761Y-125182380D01*
X178212857Y-125182380D01*
X178308095Y-125230000D01*
X178355714Y-125277619D01*
X178403333Y-125372857D01*
X178403333Y-125468095D01*
X178355714Y-125610952D01*
X177784285Y-126182380D01*
X178403333Y-126182380D01*
X178784285Y-125277619D02*
X178831904Y-125230000D01*
X178927142Y-125182380D01*
X179165238Y-125182380D01*
X179260476Y-125230000D01*
X179308095Y-125277619D01*
X179355714Y-125372857D01*
X179355714Y-125468095D01*
X179308095Y-125610952D01*
X178736666Y-126182380D01*
X179355714Y-126182380D01*
X179974761Y-125182380D02*
X180070000Y-125182380D01*
X180165238Y-125230000D01*
X180212857Y-125277619D01*
X180260476Y-125372857D01*
X180308095Y-125563333D01*
X180308095Y-125801428D01*
X180260476Y-125991904D01*
X180212857Y-126087142D01*
X180165238Y-126134761D01*
X180070000Y-126182380D01*
X179974761Y-126182380D01*
X179879523Y-126134761D01*
X179831904Y-126087142D01*
X179784285Y-125991904D01*
X179736666Y-125801428D01*
X179736666Y-125563333D01*
X179784285Y-125372857D01*
X179831904Y-125277619D01*
X179879523Y-125230000D01*
X179974761Y-125182380D01*
G04 #@! TO.C,R4*
X177831904Y-122737619D02*
X177879523Y-122690000D01*
X177974761Y-122642380D01*
X178212857Y-122642380D01*
X178308095Y-122690000D01*
X178355714Y-122737619D01*
X178403333Y-122832857D01*
X178403333Y-122928095D01*
X178355714Y-123070952D01*
X177784285Y-123642380D01*
X178403333Y-123642380D01*
X178784285Y-122737619D02*
X178831904Y-122690000D01*
X178927142Y-122642380D01*
X179165238Y-122642380D01*
X179260476Y-122690000D01*
X179308095Y-122737619D01*
X179355714Y-122832857D01*
X179355714Y-122928095D01*
X179308095Y-123070952D01*
X178736666Y-123642380D01*
X179355714Y-123642380D01*
X179974761Y-122642380D02*
X180070000Y-122642380D01*
X180165238Y-122690000D01*
X180212857Y-122737619D01*
X180260476Y-122832857D01*
X180308095Y-123023333D01*
X180308095Y-123261428D01*
X180260476Y-123451904D01*
X180212857Y-123547142D01*
X180165238Y-123594761D01*
X180070000Y-123642380D01*
X179974761Y-123642380D01*
X179879523Y-123594761D01*
X179831904Y-123547142D01*
X179784285Y-123451904D01*
X179736666Y-123261428D01*
X179736666Y-123023333D01*
X179784285Y-122832857D01*
X179831904Y-122737619D01*
X179879523Y-122690000D01*
X179974761Y-122642380D01*
G04 #@! TO.C,R3*
X177831904Y-120197619D02*
X177879523Y-120150000D01*
X177974761Y-120102380D01*
X178212857Y-120102380D01*
X178308095Y-120150000D01*
X178355714Y-120197619D01*
X178403333Y-120292857D01*
X178403333Y-120388095D01*
X178355714Y-120530952D01*
X177784285Y-121102380D01*
X178403333Y-121102380D01*
X178784285Y-120197619D02*
X178831904Y-120150000D01*
X178927142Y-120102380D01*
X179165238Y-120102380D01*
X179260476Y-120150000D01*
X179308095Y-120197619D01*
X179355714Y-120292857D01*
X179355714Y-120388095D01*
X179308095Y-120530952D01*
X178736666Y-121102380D01*
X179355714Y-121102380D01*
X179974761Y-120102380D02*
X180070000Y-120102380D01*
X180165238Y-120150000D01*
X180212857Y-120197619D01*
X180260476Y-120292857D01*
X180308095Y-120483333D01*
X180308095Y-120721428D01*
X180260476Y-120911904D01*
X180212857Y-121007142D01*
X180165238Y-121054761D01*
X180070000Y-121102380D01*
X179974761Y-121102380D01*
X179879523Y-121054761D01*
X179831904Y-121007142D01*
X179784285Y-120911904D01*
X179736666Y-120721428D01*
X179736666Y-120483333D01*
X179784285Y-120292857D01*
X179831904Y-120197619D01*
X179879523Y-120150000D01*
X179974761Y-120102380D01*
G04 #@! TO.C,R2*
X178474761Y-133802380D02*
X177903333Y-133802380D01*
X178189047Y-133802380D02*
X178189047Y-132802380D01*
X178093809Y-132945238D01*
X177998571Y-133040476D01*
X177903333Y-133088095D01*
X179093809Y-132802380D02*
X179189047Y-132802380D01*
X179284285Y-132850000D01*
X179331904Y-132897619D01*
X179379523Y-132992857D01*
X179427142Y-133183333D01*
X179427142Y-133421428D01*
X179379523Y-133611904D01*
X179331904Y-133707142D01*
X179284285Y-133754761D01*
X179189047Y-133802380D01*
X179093809Y-133802380D01*
X178998571Y-133754761D01*
X178950952Y-133707142D01*
X178903333Y-133611904D01*
X178855714Y-133421428D01*
X178855714Y-133183333D01*
X178903333Y-132992857D01*
X178950952Y-132897619D01*
X178998571Y-132850000D01*
X179093809Y-132802380D01*
X179855714Y-133802380D02*
X179855714Y-132802380D01*
X179950952Y-133421428D02*
X180236666Y-133802380D01*
X180236666Y-133135714D02*
X179855714Y-133516666D01*
G04 #@! TO.C,C10*
X168247142Y-114067142D02*
X168199523Y-114114761D01*
X168056666Y-114162380D01*
X167961428Y-114162380D01*
X167818571Y-114114761D01*
X167723333Y-114019523D01*
X167675714Y-113924285D01*
X167628095Y-113733809D01*
X167628095Y-113590952D01*
X167675714Y-113400476D01*
X167723333Y-113305238D01*
X167818571Y-113210000D01*
X167961428Y-113162380D01*
X168056666Y-113162380D01*
X168199523Y-113210000D01*
X168247142Y-113257619D01*
X169199523Y-114162380D02*
X168628095Y-114162380D01*
X168913809Y-114162380D02*
X168913809Y-113162380D01*
X168818571Y-113305238D01*
X168723333Y-113400476D01*
X168628095Y-113448095D01*
X169818571Y-113162380D02*
X169913809Y-113162380D01*
X170009047Y-113210000D01*
X170056666Y-113257619D01*
X170104285Y-113352857D01*
X170151904Y-113543333D01*
X170151904Y-113781428D01*
X170104285Y-113971904D01*
X170056666Y-114067142D01*
X170009047Y-114114761D01*
X169913809Y-114162380D01*
X169818571Y-114162380D01*
X169723333Y-114114761D01*
X169675714Y-114067142D01*
X169628095Y-113971904D01*
X169580476Y-113781428D01*
X169580476Y-113543333D01*
X169628095Y-113352857D01*
X169675714Y-113257619D01*
X169723333Y-113210000D01*
X169818571Y-113162380D01*
G04 #@! TO.C,BT1*
X175398571Y-143025714D02*
X175446190Y-142882857D01*
X175493809Y-142835238D01*
X175589047Y-142787619D01*
X175731904Y-142787619D01*
X175827142Y-142835238D01*
X175874761Y-142882857D01*
X175922380Y-142978095D01*
X175922380Y-143359047D01*
X174922380Y-143359047D01*
X174922380Y-143025714D01*
X174970000Y-142930476D01*
X175017619Y-142882857D01*
X175112857Y-142835238D01*
X175208095Y-142835238D01*
X175303333Y-142882857D01*
X175350952Y-142930476D01*
X175398571Y-143025714D01*
X175398571Y-143359047D01*
X174922380Y-142501904D02*
X174922380Y-141930476D01*
X175922380Y-142216190D02*
X174922380Y-142216190D01*
X175922380Y-141073333D02*
X175922380Y-141644761D01*
X175922380Y-141359047D02*
X174922380Y-141359047D01*
X175065238Y-141454285D01*
X175160476Y-141549523D01*
X175208095Y-141644761D01*
G04 #@! TO.C,C8*
X148443333Y-157157142D02*
X148395714Y-157204761D01*
X148252857Y-157252380D01*
X148157619Y-157252380D01*
X148014761Y-157204761D01*
X147919523Y-157109523D01*
X147871904Y-157014285D01*
X147824285Y-156823809D01*
X147824285Y-156680952D01*
X147871904Y-156490476D01*
X147919523Y-156395238D01*
X148014761Y-156300000D01*
X148157619Y-156252380D01*
X148252857Y-156252380D01*
X148395714Y-156300000D01*
X148443333Y-156347619D01*
X149014761Y-156680952D02*
X148919523Y-156633333D01*
X148871904Y-156585714D01*
X148824285Y-156490476D01*
X148824285Y-156442857D01*
X148871904Y-156347619D01*
X148919523Y-156300000D01*
X149014761Y-156252380D01*
X149205238Y-156252380D01*
X149300476Y-156300000D01*
X149348095Y-156347619D01*
X149395714Y-156442857D01*
X149395714Y-156490476D01*
X149348095Y-156585714D01*
X149300476Y-156633333D01*
X149205238Y-156680952D01*
X149014761Y-156680952D01*
X148919523Y-156728571D01*
X148871904Y-156776190D01*
X148824285Y-156871428D01*
X148824285Y-157061904D01*
X148871904Y-157157142D01*
X148919523Y-157204761D01*
X149014761Y-157252380D01*
X149205238Y-157252380D01*
X149300476Y-157204761D01*
X149348095Y-157157142D01*
X149395714Y-157061904D01*
X149395714Y-156871428D01*
X149348095Y-156776190D01*
X149300476Y-156728571D01*
X149205238Y-156680952D01*
G04 #@! TO.C,C17*
X147927142Y-120417142D02*
X147879523Y-120464761D01*
X147736666Y-120512380D01*
X147641428Y-120512380D01*
X147498571Y-120464761D01*
X147403333Y-120369523D01*
X147355714Y-120274285D01*
X147308095Y-120083809D01*
X147308095Y-119940952D01*
X147355714Y-119750476D01*
X147403333Y-119655238D01*
X147498571Y-119560000D01*
X147641428Y-119512380D01*
X147736666Y-119512380D01*
X147879523Y-119560000D01*
X147927142Y-119607619D01*
X148879523Y-120512380D02*
X148308095Y-120512380D01*
X148593809Y-120512380D02*
X148593809Y-119512380D01*
X148498571Y-119655238D01*
X148403333Y-119750476D01*
X148308095Y-119798095D01*
X149212857Y-119512380D02*
X149879523Y-119512380D01*
X149450952Y-120512380D01*
G04 #@! TO.C,C13*
X128877142Y-126767142D02*
X128829523Y-126814761D01*
X128686666Y-126862380D01*
X128591428Y-126862380D01*
X128448571Y-126814761D01*
X128353333Y-126719523D01*
X128305714Y-126624285D01*
X128258095Y-126433809D01*
X128258095Y-126290952D01*
X128305714Y-126100476D01*
X128353333Y-126005238D01*
X128448571Y-125910000D01*
X128591428Y-125862380D01*
X128686666Y-125862380D01*
X128829523Y-125910000D01*
X128877142Y-125957619D01*
X129829523Y-126862380D02*
X129258095Y-126862380D01*
X129543809Y-126862380D02*
X129543809Y-125862380D01*
X129448571Y-126005238D01*
X129353333Y-126100476D01*
X129258095Y-126148095D01*
X130162857Y-125862380D02*
X130781904Y-125862380D01*
X130448571Y-126243333D01*
X130591428Y-126243333D01*
X130686666Y-126290952D01*
X130734285Y-126338571D01*
X130781904Y-126433809D01*
X130781904Y-126671904D01*
X130734285Y-126767142D01*
X130686666Y-126814761D01*
X130591428Y-126862380D01*
X130305714Y-126862380D01*
X130210476Y-126814761D01*
X130162857Y-126767142D01*
G04 #@! TO.C,C12*
X150507142Y-139377142D02*
X150459523Y-139424761D01*
X150316666Y-139472380D01*
X150221428Y-139472380D01*
X150078571Y-139424761D01*
X149983333Y-139329523D01*
X149935714Y-139234285D01*
X149888095Y-139043809D01*
X149888095Y-138900952D01*
X149935714Y-138710476D01*
X149983333Y-138615238D01*
X150078571Y-138520000D01*
X150221428Y-138472380D01*
X150316666Y-138472380D01*
X150459523Y-138520000D01*
X150507142Y-138567619D01*
X151459523Y-139472380D02*
X150888095Y-139472380D01*
X151173809Y-139472380D02*
X151173809Y-138472380D01*
X151078571Y-138615238D01*
X150983333Y-138710476D01*
X150888095Y-138758095D01*
X151840476Y-138567619D02*
X151888095Y-138520000D01*
X151983333Y-138472380D01*
X152221428Y-138472380D01*
X152316666Y-138520000D01*
X152364285Y-138567619D01*
X152411904Y-138662857D01*
X152411904Y-138758095D01*
X152364285Y-138900952D01*
X151792857Y-139472380D01*
X152411904Y-139472380D01*
G04 #@! TO.C,C11*
X158087142Y-148357142D02*
X158039523Y-148404761D01*
X157896666Y-148452380D01*
X157801428Y-148452380D01*
X157658571Y-148404761D01*
X157563333Y-148309523D01*
X157515714Y-148214285D01*
X157468095Y-148023809D01*
X157468095Y-147880952D01*
X157515714Y-147690476D01*
X157563333Y-147595238D01*
X157658571Y-147500000D01*
X157801428Y-147452380D01*
X157896666Y-147452380D01*
X158039523Y-147500000D01*
X158087142Y-147547619D01*
X159039523Y-148452380D02*
X158468095Y-148452380D01*
X158753809Y-148452380D02*
X158753809Y-147452380D01*
X158658571Y-147595238D01*
X158563333Y-147690476D01*
X158468095Y-147738095D01*
X159991904Y-148452380D02*
X159420476Y-148452380D01*
X159706190Y-148452380D02*
X159706190Y-147452380D01*
X159610952Y-147595238D01*
X159515714Y-147690476D01*
X159420476Y-147738095D01*
G04 #@! TO.C,C7*
X161103333Y-130577142D02*
X161055714Y-130624761D01*
X160912857Y-130672380D01*
X160817619Y-130672380D01*
X160674761Y-130624761D01*
X160579523Y-130529523D01*
X160531904Y-130434285D01*
X160484285Y-130243809D01*
X160484285Y-130100952D01*
X160531904Y-129910476D01*
X160579523Y-129815238D01*
X160674761Y-129720000D01*
X160817619Y-129672380D01*
X160912857Y-129672380D01*
X161055714Y-129720000D01*
X161103333Y-129767619D01*
X161436666Y-129672380D02*
X162103333Y-129672380D01*
X161674761Y-130672380D01*
G04 #@! TO.C,C15*
X128877142Y-114067142D02*
X128829523Y-114114761D01*
X128686666Y-114162380D01*
X128591428Y-114162380D01*
X128448571Y-114114761D01*
X128353333Y-114019523D01*
X128305714Y-113924285D01*
X128258095Y-113733809D01*
X128258095Y-113590952D01*
X128305714Y-113400476D01*
X128353333Y-113305238D01*
X128448571Y-113210000D01*
X128591428Y-113162380D01*
X128686666Y-113162380D01*
X128829523Y-113210000D01*
X128877142Y-113257619D01*
X129829523Y-114162380D02*
X129258095Y-114162380D01*
X129543809Y-114162380D02*
X129543809Y-113162380D01*
X129448571Y-113305238D01*
X129353333Y-113400476D01*
X129258095Y-113448095D01*
X130734285Y-113162380D02*
X130258095Y-113162380D01*
X130210476Y-113638571D01*
X130258095Y-113590952D01*
X130353333Y-113543333D01*
X130591428Y-113543333D01*
X130686666Y-113590952D01*
X130734285Y-113638571D01*
X130781904Y-113733809D01*
X130781904Y-113971904D01*
X130734285Y-114067142D01*
X130686666Y-114114761D01*
X130591428Y-114162380D01*
X130353333Y-114162380D01*
X130258095Y-114114761D01*
X130210476Y-114067142D01*
G04 #@! TO.C,C9*
X153523333Y-152517142D02*
X153475714Y-152564761D01*
X153332857Y-152612380D01*
X153237619Y-152612380D01*
X153094761Y-152564761D01*
X152999523Y-152469523D01*
X152951904Y-152374285D01*
X152904285Y-152183809D01*
X152904285Y-152040952D01*
X152951904Y-151850476D01*
X152999523Y-151755238D01*
X153094761Y-151660000D01*
X153237619Y-151612380D01*
X153332857Y-151612380D01*
X153475714Y-151660000D01*
X153523333Y-151707619D01*
X153999523Y-152612380D02*
X154190000Y-152612380D01*
X154285238Y-152564761D01*
X154332857Y-152517142D01*
X154428095Y-152374285D01*
X154475714Y-152183809D01*
X154475714Y-151802857D01*
X154428095Y-151707619D01*
X154380476Y-151660000D01*
X154285238Y-151612380D01*
X154094761Y-151612380D01*
X153999523Y-151660000D01*
X153951904Y-151707619D01*
X153904285Y-151802857D01*
X153904285Y-152040952D01*
X153951904Y-152136190D01*
X153999523Y-152183809D01*
X154094761Y-152231428D01*
X154285238Y-152231428D01*
X154380476Y-152183809D01*
X154428095Y-152136190D01*
X154475714Y-152040952D01*
G04 #@! TO.C,C6*
X143323333Y-127597142D02*
X143275714Y-127644761D01*
X143132857Y-127692380D01*
X143037619Y-127692380D01*
X142894761Y-127644761D01*
X142799523Y-127549523D01*
X142751904Y-127454285D01*
X142704285Y-127263809D01*
X142704285Y-127120952D01*
X142751904Y-126930476D01*
X142799523Y-126835238D01*
X142894761Y-126740000D01*
X143037619Y-126692380D01*
X143132857Y-126692380D01*
X143275714Y-126740000D01*
X143323333Y-126787619D01*
X144180476Y-126692380D02*
X143990000Y-126692380D01*
X143894761Y-126740000D01*
X143847142Y-126787619D01*
X143751904Y-126930476D01*
X143704285Y-127120952D01*
X143704285Y-127501904D01*
X143751904Y-127597142D01*
X143799523Y-127644761D01*
X143894761Y-127692380D01*
X144085238Y-127692380D01*
X144180476Y-127644761D01*
X144228095Y-127597142D01*
X144275714Y-127501904D01*
X144275714Y-127263809D01*
X144228095Y-127168571D01*
X144180476Y-127120952D01*
X144085238Y-127073333D01*
X143894761Y-127073333D01*
X143799523Y-127120952D01*
X143751904Y-127168571D01*
X143704285Y-127263809D01*
G04 #@! TO.C,C14*
X128877142Y-122517142D02*
X128829523Y-122564761D01*
X128686666Y-122612380D01*
X128591428Y-122612380D01*
X128448571Y-122564761D01*
X128353333Y-122469523D01*
X128305714Y-122374285D01*
X128258095Y-122183809D01*
X128258095Y-122040952D01*
X128305714Y-121850476D01*
X128353333Y-121755238D01*
X128448571Y-121660000D01*
X128591428Y-121612380D01*
X128686666Y-121612380D01*
X128829523Y-121660000D01*
X128877142Y-121707619D01*
X129829523Y-122612380D02*
X129258095Y-122612380D01*
X129543809Y-122612380D02*
X129543809Y-121612380D01*
X129448571Y-121755238D01*
X129353333Y-121850476D01*
X129258095Y-121898095D01*
X130686666Y-121945714D02*
X130686666Y-122612380D01*
X130448571Y-121564761D02*
X130210476Y-122279047D01*
X130829523Y-122279047D01*
G04 #@! TO.C,C5*
X138243333Y-127597142D02*
X138195714Y-127644761D01*
X138052857Y-127692380D01*
X137957619Y-127692380D01*
X137814761Y-127644761D01*
X137719523Y-127549523D01*
X137671904Y-127454285D01*
X137624285Y-127263809D01*
X137624285Y-127120952D01*
X137671904Y-126930476D01*
X137719523Y-126835238D01*
X137814761Y-126740000D01*
X137957619Y-126692380D01*
X138052857Y-126692380D01*
X138195714Y-126740000D01*
X138243333Y-126787619D01*
X139148095Y-126692380D02*
X138671904Y-126692380D01*
X138624285Y-127168571D01*
X138671904Y-127120952D01*
X138767142Y-127073333D01*
X139005238Y-127073333D01*
X139100476Y-127120952D01*
X139148095Y-127168571D01*
X139195714Y-127263809D01*
X139195714Y-127501904D01*
X139148095Y-127597142D01*
X139100476Y-127644761D01*
X139005238Y-127692380D01*
X138767142Y-127692380D01*
X138671904Y-127644761D01*
X138624285Y-127597142D01*
G04 #@! TO.C,C16*
X168287142Y-128867142D02*
X168239523Y-128914761D01*
X168096666Y-128962380D01*
X168001428Y-128962380D01*
X167858571Y-128914761D01*
X167763333Y-128819523D01*
X167715714Y-128724285D01*
X167668095Y-128533809D01*
X167668095Y-128390952D01*
X167715714Y-128200476D01*
X167763333Y-128105238D01*
X167858571Y-128010000D01*
X168001428Y-127962380D01*
X168096666Y-127962380D01*
X168239523Y-128010000D01*
X168287142Y-128057619D01*
X169239523Y-128962380D02*
X168668095Y-128962380D01*
X168953809Y-128962380D02*
X168953809Y-127962380D01*
X168858571Y-128105238D01*
X168763333Y-128200476D01*
X168668095Y-128248095D01*
X170096666Y-127962380D02*
X169906190Y-127962380D01*
X169810952Y-128010000D01*
X169763333Y-128057619D01*
X169668095Y-128200476D01*
X169620476Y-128390952D01*
X169620476Y-128771904D01*
X169668095Y-128867142D01*
X169715714Y-128914761D01*
X169810952Y-128962380D01*
X170001428Y-128962380D01*
X170096666Y-128914761D01*
X170144285Y-128867142D01*
X170191904Y-128771904D01*
X170191904Y-128533809D01*
X170144285Y-128438571D01*
X170096666Y-128390952D01*
X170001428Y-128343333D01*
X169810952Y-128343333D01*
X169715714Y-128390952D01*
X169668095Y-128438571D01*
X169620476Y-128533809D01*
G04 #@! TO.C,C4*
X156023333Y-135217142D02*
X155975714Y-135264761D01*
X155832857Y-135312380D01*
X155737619Y-135312380D01*
X155594761Y-135264761D01*
X155499523Y-135169523D01*
X155451904Y-135074285D01*
X155404285Y-134883809D01*
X155404285Y-134740952D01*
X155451904Y-134550476D01*
X155499523Y-134455238D01*
X155594761Y-134360000D01*
X155737619Y-134312380D01*
X155832857Y-134312380D01*
X155975714Y-134360000D01*
X156023333Y-134407619D01*
X156880476Y-134645714D02*
X156880476Y-135312380D01*
X156642380Y-134264761D02*
X156404285Y-134979047D01*
X157023333Y-134979047D01*
G04 #@! TO.C,C18*
X168247142Y-123787142D02*
X168199523Y-123834761D01*
X168056666Y-123882380D01*
X167961428Y-123882380D01*
X167818571Y-123834761D01*
X167723333Y-123739523D01*
X167675714Y-123644285D01*
X167628095Y-123453809D01*
X167628095Y-123310952D01*
X167675714Y-123120476D01*
X167723333Y-123025238D01*
X167818571Y-122930000D01*
X167961428Y-122882380D01*
X168056666Y-122882380D01*
X168199523Y-122930000D01*
X168247142Y-122977619D01*
X169199523Y-123882380D02*
X168628095Y-123882380D01*
X168913809Y-123882380D02*
X168913809Y-122882380D01*
X168818571Y-123025238D01*
X168723333Y-123120476D01*
X168628095Y-123168095D01*
X169770952Y-123310952D02*
X169675714Y-123263333D01*
X169628095Y-123215714D01*
X169580476Y-123120476D01*
X169580476Y-123072857D01*
X169628095Y-122977619D01*
X169675714Y-122930000D01*
X169770952Y-122882380D01*
X169961428Y-122882380D01*
X170056666Y-122930000D01*
X170104285Y-122977619D01*
X170151904Y-123072857D01*
X170151904Y-123120476D01*
X170104285Y-123215714D01*
X170056666Y-123263333D01*
X169961428Y-123310952D01*
X169770952Y-123310952D01*
X169675714Y-123358571D01*
X169628095Y-123406190D01*
X169580476Y-123501428D01*
X169580476Y-123691904D01*
X169628095Y-123787142D01*
X169675714Y-123834761D01*
X169770952Y-123882380D01*
X169961428Y-123882380D01*
X170056666Y-123834761D01*
X170104285Y-123787142D01*
X170151904Y-123691904D01*
X170151904Y-123501428D01*
X170104285Y-123406190D01*
X170056666Y-123358571D01*
X169961428Y-123310952D01*
G04 #@! TO.C,J1*
X125396666Y-135552380D02*
X125396666Y-136266666D01*
X125349047Y-136409523D01*
X125253809Y-136504761D01*
X125110952Y-136552380D01*
X125015714Y-136552380D01*
X126396666Y-136552380D02*
X125825238Y-136552380D01*
X126110952Y-136552380D02*
X126110952Y-135552380D01*
X126015714Y-135695238D01*
X125920476Y-135790476D01*
X125825238Y-135838095D01*
G04 #@! TO.C,J6*
X117776666Y-112692380D02*
X117776666Y-113406666D01*
X117729047Y-113549523D01*
X117633809Y-113644761D01*
X117490952Y-113692380D01*
X117395714Y-113692380D01*
X118681428Y-112692380D02*
X118490952Y-112692380D01*
X118395714Y-112740000D01*
X118348095Y-112787619D01*
X118252857Y-112930476D01*
X118205238Y-113120952D01*
X118205238Y-113501904D01*
X118252857Y-113597142D01*
X118300476Y-113644761D01*
X118395714Y-113692380D01*
X118586190Y-113692380D01*
X118681428Y-113644761D01*
X118729047Y-113597142D01*
X118776666Y-113501904D01*
X118776666Y-113263809D01*
X118729047Y-113168571D01*
X118681428Y-113120952D01*
X118586190Y-113073333D01*
X118395714Y-113073333D01*
X118300476Y-113120952D01*
X118252857Y-113168571D01*
X118205238Y-113263809D01*
G04 #@! TO.C,J8*
X117776666Y-122852380D02*
X117776666Y-123566666D01*
X117729047Y-123709523D01*
X117633809Y-123804761D01*
X117490952Y-123852380D01*
X117395714Y-123852380D01*
X118395714Y-123280952D02*
X118300476Y-123233333D01*
X118252857Y-123185714D01*
X118205238Y-123090476D01*
X118205238Y-123042857D01*
X118252857Y-122947619D01*
X118300476Y-122900000D01*
X118395714Y-122852380D01*
X118586190Y-122852380D01*
X118681428Y-122900000D01*
X118729047Y-122947619D01*
X118776666Y-123042857D01*
X118776666Y-123090476D01*
X118729047Y-123185714D01*
X118681428Y-123233333D01*
X118586190Y-123280952D01*
X118395714Y-123280952D01*
X118300476Y-123328571D01*
X118252857Y-123376190D01*
X118205238Y-123471428D01*
X118205238Y-123661904D01*
X118252857Y-123757142D01*
X118300476Y-123804761D01*
X118395714Y-123852380D01*
X118586190Y-123852380D01*
X118681428Y-123804761D01*
X118729047Y-123757142D01*
X118776666Y-123661904D01*
X118776666Y-123471428D01*
X118729047Y-123376190D01*
X118681428Y-123328571D01*
X118586190Y-123280952D01*
G04 #@! TO.C,J5*
X120316666Y-127512380D02*
X120316666Y-128226666D01*
X120269047Y-128369523D01*
X120173809Y-128464761D01*
X120030952Y-128512380D01*
X119935714Y-128512380D01*
X121269047Y-127512380D02*
X120792857Y-127512380D01*
X120745238Y-127988571D01*
X120792857Y-127940952D01*
X120888095Y-127893333D01*
X121126190Y-127893333D01*
X121221428Y-127940952D01*
X121269047Y-127988571D01*
X121316666Y-128083809D01*
X121316666Y-128321904D01*
X121269047Y-128417142D01*
X121221428Y-128464761D01*
X121126190Y-128512380D01*
X120888095Y-128512380D01*
X120792857Y-128464761D01*
X120745238Y-128417142D01*
G04 #@! TO.C,J7*
X120316666Y-142752380D02*
X120316666Y-143466666D01*
X120269047Y-143609523D01*
X120173809Y-143704761D01*
X120030952Y-143752380D01*
X119935714Y-143752380D01*
X120697619Y-142752380D02*
X121364285Y-142752380D01*
X120935714Y-143752380D01*
G04 #@! TO.C,Y1*
X139123809Y-131071190D02*
X139123809Y-131547380D01*
X138790476Y-130547380D02*
X139123809Y-131071190D01*
X139457142Y-130547380D01*
X140314285Y-131547380D02*
X139742857Y-131547380D01*
X140028571Y-131547380D02*
X140028571Y-130547380D01*
X139933333Y-130690238D01*
X139838095Y-130785476D01*
X139742857Y-130833095D01*
G04 #@! TO.C,U2*
X174502380Y-144271904D02*
X175311904Y-144271904D01*
X175407142Y-144224285D01*
X175454761Y-144176666D01*
X175502380Y-144081428D01*
X175502380Y-143890952D01*
X175454761Y-143795714D01*
X175407142Y-143748095D01*
X175311904Y-143700476D01*
X174502380Y-143700476D01*
X174597619Y-143271904D02*
X174550000Y-143224285D01*
X174502380Y-143129047D01*
X174502380Y-142890952D01*
X174550000Y-142795714D01*
X174597619Y-142748095D01*
X174692857Y-142700476D01*
X174788095Y-142700476D01*
X174930952Y-142748095D01*
X175502380Y-143319523D01*
X175502380Y-142700476D01*
G04 #@! TO.C,U3*
X152116326Y-120141904D02*
X152925850Y-120141904D01*
X153021088Y-120094285D01*
X153068707Y-120046666D01*
X153116326Y-119951428D01*
X153116326Y-119760952D01*
X153068707Y-119665714D01*
X153021088Y-119618095D01*
X152925850Y-119570476D01*
X152116326Y-119570476D01*
X152116326Y-119189523D02*
X152116326Y-118570476D01*
X152497279Y-118903809D01*
X152497279Y-118760952D01*
X152544898Y-118665714D01*
X152592517Y-118618095D01*
X152687755Y-118570476D01*
X152925850Y-118570476D01*
X153021088Y-118618095D01*
X153068707Y-118665714D01*
X153116326Y-118760952D01*
X153116326Y-119046666D01*
X153068707Y-119141904D01*
X153021088Y-119189523D01*
G04 #@! TD*
M02*
