M48
;DRILL file {KiCad (5.0.1)-3} date 09/05/2019 22:35:07
;FORMAT={-:-/ absolute / metric / decimal}
FMAT,2
METRIC,TZ
T1C0.400
T2C0.800
T3C0.900
T4C1.000
T5C1.100
T6C1.200
T7C1.204
T8C2.435
%
G90
G05
M71
T1
X160.Y-86.
X167.Y-88.
T2
X126.Y-77.
X126.Y-87.16
X140.352Y-53.589
X150.512Y-53.589
X93.Y-79.
X95.5Y-79.
X155.Y-64.5
X155.Y-67.
X119.Y-61.
X119.Y-63.5
X114.Y-76.84
X114.Y-87.
X150.Y-63.
X150.Y-65.5
X130.Y-77.
X130.Y-87.16
X152.Y-84.
X152.Y-86.5
X158.Y-52.
X158.Y-54.54
X158.Y-57.08
X158.Y-59.62
X158.Y-62.16
X158.Y-64.7
X158.Y-67.24
X158.Y-69.78
X158.Y-72.32
X158.Y-74.86
X158.Y-77.4
X158.Y-79.94
X158.Y-82.48
X158.Y-85.02
X165.62Y-52.
X165.62Y-54.54
X165.62Y-57.08
X165.62Y-59.62
X165.62Y-62.16
X165.62Y-64.7
X165.62Y-67.24
X165.62Y-69.78
X165.62Y-72.32
X165.62Y-74.86
X165.62Y-77.4
X165.62Y-79.94
X165.62Y-82.48
X165.62Y-85.02
X140.352Y-57.589
X150.512Y-57.589
X119.Y-54.
X119.Y-56.5
X124.38Y-52.38
X124.38Y-54.92
X124.38Y-57.46
X124.38Y-60.
X132.Y-52.38
X132.Y-54.92
X132.Y-57.46
X132.Y-60.
X142.5Y-48.
X145.Y-48.
X108.Y-81.225
X110.5Y-81.225
X147.Y-84.
X147.Y-86.5
X147.Y-80.
X151.88Y-80.
X138.Y-76.84
X138.Y-87.
X170.Y-76.
X172.5Y-76.
X170.Y-64.
X172.5Y-64.
X94.Y-85.38
X94.Y-93.
X96.54Y-85.38
X96.54Y-93.
X99.08Y-85.38
X99.08Y-93.
X101.62Y-85.38
X101.62Y-93.
X142.5Y-40.
X145.Y-40.
X143.Y-63.
X143.Y-65.5
X135.Y-55.
X135.Y-57.5
X169.Y-69.
X169.Y-71.5
X122.Y-77.
X122.Y-87.16
X93.Y-101.
X103.16Y-101.
X101.Y-79.
X103.5Y-79.
X150.Y-42.
X150.Y-44.5
X108.Y-85.
X110.5Y-85.
X134.Y-77.
X134.Y-87.16
X156.Y-43.
X166.16Y-43.
X93.Y-97.
X103.16Y-97.
T3
X148.Y-72.
X150.54Y-72.
X154.Y-37.
X157.Y-37.
X160.Y-37.
X112.Y-72.
X114.54Y-72.
X139.Y-72.
X141.54Y-72.
X121.Y-72.
X123.54Y-72.
X130.Y-72.
X132.54Y-72.
T4
X162.Y-103.
X164.54Y-103.
X167.08Y-103.
X169.62Y-103.
X110.Y-90.
X112.5Y-90.
X115.Y-90.
X170.Y-88.84
X170.Y-91.38
X170.Y-93.92
X170.Y-96.46
X170.Y-99.
X170.Y-45.3
X170.Y-47.84
X170.Y-50.38
X170.Y-52.92
X170.Y-55.46
X170.Y-58.
X165.Y-91.
X165.Y-93.54
X165.Y-96.08
X165.Y-98.62
X154.Y-49.
X154.Y-51.54
X154.Y-54.08
X154.Y-56.62
X154.Y-59.16
X158.46Y-126.
X161.Y-126.
X130.Y-90.
X132.5Y-90.
X135.Y-90.
X150.Y-90.
X152.5Y-90.
X155.Y-90.
X109.Y-53.
X109.Y-57.
T5
X124.84Y-64.
X135.Y-64.
T6
X94.Y-107.5
X94.Y-120.
X99.Y-107.5
X99.Y-120.
X107.Y-107.5
X107.Y-120.
X112.Y-107.5
X112.Y-120.
X127.Y-46.
X129.Y-46.
X131.Y-46.
X133.Y-46.
X135.Y-46.
X140.Y-107.5
X140.Y-120.
X145.Y-107.5
X145.Y-120.
X153.Y-107.5
X153.Y-120.
X158.Y-107.5
X158.Y-120.
X166.Y-107.5
X166.Y-120.
X171.Y-107.5
X171.Y-120.
X100.Y-41.41
X102.5Y-41.41
X105.Y-36.404
X107.5Y-41.41
X110.Y-41.41
X120.Y-107.5
X120.Y-120.
X125.Y-107.5
X125.Y-120.
T7
X127.2Y-36.6
X135.2Y-36.6
T8
X150.75Y-37.
X163.25Y-37.
T0
M30
