G04 #@! TF.GenerationSoftware,KiCad,Pcbnew,(5.0.1)-3*
G04 #@! TF.CreationDate,2019-05-09T22:35:04+01:00*
G04 #@! TF.ProjectId,drumkid v2,6472756D6B69642076322E6B69636164,rev?*
G04 #@! TF.SameCoordinates,Original*
G04 #@! TF.FileFunction,Legend,Top*
G04 #@! TF.FilePolarity,Positive*
%FSLAX46Y46*%
G04 Gerber Fmt 4.6, Leading zero omitted, Abs format (unit mm)*
G04 Created by KiCad (PCBNEW (5.0.1)-3) date 09/05/2019 22:35:04*
%MOMM*%
%LPD*%
G01*
G04 APERTURE LIST*
%ADD10C,0.300000*%
%ADD11C,0.100000*%
%ADD12C,0.120000*%
%ADD13C,0.200000*%
%ADD14C,0.150000*%
%ADD15C,0.254000*%
G04 APERTURE END LIST*
D10*
X91552142Y-62128571D02*
X91552142Y-60628571D01*
X91909285Y-60628571D01*
X92123571Y-60700000D01*
X92266428Y-60842857D01*
X92337857Y-60985714D01*
X92409285Y-61271428D01*
X92409285Y-61485714D01*
X92337857Y-61771428D01*
X92266428Y-61914285D01*
X92123571Y-62057142D01*
X91909285Y-62128571D01*
X91552142Y-62128571D01*
X93052142Y-62128571D02*
X93052142Y-61128571D01*
X93052142Y-61414285D02*
X93123571Y-61271428D01*
X93195000Y-61200000D01*
X93337857Y-61128571D01*
X93480714Y-61128571D01*
X94623571Y-61128571D02*
X94623571Y-62128571D01*
X93980714Y-61128571D02*
X93980714Y-61914285D01*
X94052142Y-62057142D01*
X94195000Y-62128571D01*
X94409285Y-62128571D01*
X94552142Y-62057142D01*
X94623571Y-61985714D01*
X95337857Y-62128571D02*
X95337857Y-61128571D01*
X95337857Y-61271428D02*
X95409285Y-61200000D01*
X95552142Y-61128571D01*
X95766428Y-61128571D01*
X95909285Y-61200000D01*
X95980714Y-61342857D01*
X95980714Y-62128571D01*
X95980714Y-61342857D02*
X96052142Y-61200000D01*
X96195000Y-61128571D01*
X96409285Y-61128571D01*
X96552142Y-61200000D01*
X96623571Y-61342857D01*
X96623571Y-62128571D01*
X97337857Y-62128571D02*
X97337857Y-60628571D01*
X98195000Y-62128571D02*
X97552142Y-61271428D01*
X98195000Y-60628571D02*
X97337857Y-61485714D01*
X98837857Y-62128571D02*
X98837857Y-61128571D01*
X98837857Y-60628571D02*
X98766428Y-60700000D01*
X98837857Y-60771428D01*
X98909285Y-60700000D01*
X98837857Y-60628571D01*
X98837857Y-60771428D01*
X100195000Y-62128571D02*
X100195000Y-60628571D01*
X100195000Y-62057142D02*
X100052142Y-62128571D01*
X99766428Y-62128571D01*
X99623571Y-62057142D01*
X99552142Y-61985714D01*
X99480714Y-61842857D01*
X99480714Y-61414285D01*
X99552142Y-61271428D01*
X99623571Y-61200000D01*
X99766428Y-61128571D01*
X100052142Y-61128571D01*
X100195000Y-61200000D01*
X101909285Y-61128571D02*
X102266428Y-62128571D01*
X102623571Y-61128571D01*
X103480714Y-60628571D02*
X103623571Y-60628571D01*
X103766428Y-60700000D01*
X103837857Y-60771428D01*
X103909285Y-60914285D01*
X103980714Y-61200000D01*
X103980714Y-61557142D01*
X103909285Y-61842857D01*
X103837857Y-61985714D01*
X103766428Y-62057142D01*
X103623571Y-62128571D01*
X103480714Y-62128571D01*
X103337857Y-62057142D01*
X103266428Y-61985714D01*
X103195000Y-61842857D01*
X103123571Y-61557142D01*
X103123571Y-61200000D01*
X103195000Y-60914285D01*
X103266428Y-60771428D01*
X103337857Y-60700000D01*
X103480714Y-60628571D01*
X104552142Y-60771428D02*
X104623571Y-60700000D01*
X104766428Y-60628571D01*
X105123571Y-60628571D01*
X105266428Y-60700000D01*
X105337857Y-60771428D01*
X105409285Y-60914285D01*
X105409285Y-61057142D01*
X105337857Y-61271428D01*
X104480714Y-62128571D01*
X105409285Y-62128571D01*
X91552142Y-64678571D02*
X91552142Y-63178571D01*
X91552142Y-63750000D02*
X91695000Y-63678571D01*
X91980714Y-63678571D01*
X92123571Y-63750000D01*
X92195000Y-63821428D01*
X92266428Y-63964285D01*
X92266428Y-64392857D01*
X92195000Y-64535714D01*
X92123571Y-64607142D01*
X91980714Y-64678571D01*
X91695000Y-64678571D01*
X91552142Y-64607142D01*
X92766428Y-63678571D02*
X93123571Y-64678571D01*
X93480714Y-63678571D02*
X93123571Y-64678571D01*
X92980714Y-65035714D01*
X92909285Y-65107142D01*
X92766428Y-65178571D01*
X95195000Y-64678571D02*
X95195000Y-63178571D01*
X95695000Y-64250000D01*
X96195000Y-63178571D01*
X96195000Y-64678571D01*
X97552142Y-64678571D02*
X97552142Y-63892857D01*
X97480714Y-63750000D01*
X97337857Y-63678571D01*
X97052142Y-63678571D01*
X96909285Y-63750000D01*
X97552142Y-64607142D02*
X97409285Y-64678571D01*
X97052142Y-64678571D01*
X96909285Y-64607142D01*
X96837857Y-64464285D01*
X96837857Y-64321428D01*
X96909285Y-64178571D01*
X97052142Y-64107142D01*
X97409285Y-64107142D01*
X97552142Y-64035714D01*
X98052142Y-63678571D02*
X98623571Y-63678571D01*
X98266428Y-63178571D02*
X98266428Y-64464285D01*
X98337857Y-64607142D01*
X98480714Y-64678571D01*
X98623571Y-64678571D01*
X98909285Y-63678571D02*
X99480714Y-63678571D01*
X99123571Y-63178571D02*
X99123571Y-64464285D01*
X99195000Y-64607142D01*
X99337857Y-64678571D01*
X99480714Y-64678571D01*
X101623571Y-63892857D02*
X101837857Y-63964285D01*
X101909285Y-64035714D01*
X101980714Y-64178571D01*
X101980714Y-64392857D01*
X101909285Y-64535714D01*
X101837857Y-64607142D01*
X101695000Y-64678571D01*
X101123571Y-64678571D01*
X101123571Y-63178571D01*
X101623571Y-63178571D01*
X101766428Y-63250000D01*
X101837857Y-63321428D01*
X101909285Y-63464285D01*
X101909285Y-63607142D01*
X101837857Y-63750000D01*
X101766428Y-63821428D01*
X101623571Y-63892857D01*
X101123571Y-63892857D01*
X102623571Y-64678571D02*
X102623571Y-63678571D01*
X102623571Y-63964285D02*
X102695000Y-63821428D01*
X102766428Y-63750000D01*
X102909285Y-63678571D01*
X103052142Y-63678571D01*
X104195000Y-64678571D02*
X104195000Y-63892857D01*
X104123571Y-63750000D01*
X103980714Y-63678571D01*
X103695000Y-63678571D01*
X103552142Y-63750000D01*
X104195000Y-64607142D02*
X104052142Y-64678571D01*
X103695000Y-64678571D01*
X103552142Y-64607142D01*
X103480714Y-64464285D01*
X103480714Y-64321428D01*
X103552142Y-64178571D01*
X103695000Y-64107142D01*
X104052142Y-64107142D01*
X104195000Y-64035714D01*
X105552142Y-64678571D02*
X105552142Y-63178571D01*
X105552142Y-64607142D02*
X105409285Y-64678571D01*
X105123571Y-64678571D01*
X104980714Y-64607142D01*
X104909285Y-64535714D01*
X104837857Y-64392857D01*
X104837857Y-63964285D01*
X104909285Y-63821428D01*
X104980714Y-63750000D01*
X105123571Y-63678571D01*
X105409285Y-63678571D01*
X105552142Y-63750000D01*
X106195000Y-64607142D02*
X106337857Y-64678571D01*
X106623571Y-64678571D01*
X106766428Y-64607142D01*
X106837857Y-64464285D01*
X106837857Y-64392857D01*
X106766428Y-64250000D01*
X106623571Y-64178571D01*
X106409285Y-64178571D01*
X106266428Y-64107142D01*
X106195000Y-63964285D01*
X106195000Y-63892857D01*
X106266428Y-63750000D01*
X106409285Y-63678571D01*
X106623571Y-63678571D01*
X106766428Y-63750000D01*
X107480714Y-64678571D02*
X107480714Y-63178571D01*
X108123571Y-64678571D02*
X108123571Y-63892857D01*
X108052142Y-63750000D01*
X107909285Y-63678571D01*
X107695000Y-63678571D01*
X107552142Y-63750000D01*
X107480714Y-63821428D01*
X109480714Y-64678571D02*
X109480714Y-63892857D01*
X109409285Y-63750000D01*
X109266428Y-63678571D01*
X108980714Y-63678571D01*
X108837857Y-63750000D01*
X109480714Y-64607142D02*
X109337857Y-64678571D01*
X108980714Y-64678571D01*
X108837857Y-64607142D01*
X108766428Y-64464285D01*
X108766428Y-64321428D01*
X108837857Y-64178571D01*
X108980714Y-64107142D01*
X109337857Y-64107142D01*
X109480714Y-64035714D01*
X110052142Y-63678571D02*
X110337857Y-64678571D01*
X110623571Y-63964285D01*
X110909285Y-64678571D01*
X111195000Y-63678571D01*
X91552142Y-67228571D02*
X91552142Y-66228571D01*
X91552142Y-66371428D02*
X91623571Y-66300000D01*
X91766428Y-66228571D01*
X91980714Y-66228571D01*
X92123571Y-66300000D01*
X92195000Y-66442857D01*
X92195000Y-67228571D01*
X92195000Y-66442857D02*
X92266428Y-66300000D01*
X92409285Y-66228571D01*
X92623571Y-66228571D01*
X92766428Y-66300000D01*
X92837857Y-66442857D01*
X92837857Y-67228571D01*
X94195000Y-67228571D02*
X94195000Y-66442857D01*
X94123571Y-66300000D01*
X93980714Y-66228571D01*
X93695000Y-66228571D01*
X93552142Y-66300000D01*
X94195000Y-67157142D02*
X94052142Y-67228571D01*
X93695000Y-67228571D01*
X93552142Y-67157142D01*
X93480714Y-67014285D01*
X93480714Y-66871428D01*
X93552142Y-66728571D01*
X93695000Y-66657142D01*
X94052142Y-66657142D01*
X94195000Y-66585714D01*
X94695000Y-66228571D02*
X95266428Y-66228571D01*
X94909285Y-65728571D02*
X94909285Y-67014285D01*
X94980714Y-67157142D01*
X95123571Y-67228571D01*
X95266428Y-67228571D01*
X95552142Y-66228571D02*
X96123571Y-66228571D01*
X95766428Y-65728571D02*
X95766428Y-67014285D01*
X95837857Y-67157142D01*
X95980714Y-67228571D01*
X96123571Y-67228571D01*
X96623571Y-67228571D02*
X96623571Y-65728571D01*
X96623571Y-66300000D02*
X96766428Y-66228571D01*
X97052142Y-66228571D01*
X97195000Y-66300000D01*
X97266428Y-66371428D01*
X97337857Y-66514285D01*
X97337857Y-66942857D01*
X97266428Y-67085714D01*
X97195000Y-67157142D01*
X97052142Y-67228571D01*
X96766428Y-67228571D01*
X96623571Y-67157142D01*
X97980714Y-67228571D02*
X97980714Y-66228571D01*
X97980714Y-66514285D02*
X98052142Y-66371428D01*
X98123571Y-66300000D01*
X98266428Y-66228571D01*
X98409285Y-66228571D01*
X99552142Y-67228571D02*
X99552142Y-66442857D01*
X99480714Y-66300000D01*
X99337857Y-66228571D01*
X99052142Y-66228571D01*
X98909285Y-66300000D01*
X99552142Y-67157142D02*
X99409285Y-67228571D01*
X99052142Y-67228571D01*
X98909285Y-67157142D01*
X98837857Y-67014285D01*
X98837857Y-66871428D01*
X98909285Y-66728571D01*
X99052142Y-66657142D01*
X99409285Y-66657142D01*
X99552142Y-66585714D01*
X100909285Y-67228571D02*
X100909285Y-65728571D01*
X100909285Y-67157142D02*
X100766428Y-67228571D01*
X100480714Y-67228571D01*
X100337857Y-67157142D01*
X100266428Y-67085714D01*
X100195000Y-66942857D01*
X100195000Y-66514285D01*
X100266428Y-66371428D01*
X100337857Y-66300000D01*
X100480714Y-66228571D01*
X100766428Y-66228571D01*
X100909285Y-66300000D01*
X101552142Y-67157142D02*
X101695000Y-67228571D01*
X101980714Y-67228571D01*
X102123571Y-67157142D01*
X102195000Y-67014285D01*
X102195000Y-66942857D01*
X102123571Y-66800000D01*
X101980714Y-66728571D01*
X101766428Y-66728571D01*
X101623571Y-66657142D01*
X101552142Y-66514285D01*
X101552142Y-66442857D01*
X101623571Y-66300000D01*
X101766428Y-66228571D01*
X101980714Y-66228571D01*
X102123571Y-66300000D01*
X102837857Y-67228571D02*
X102837857Y-65728571D01*
X103480714Y-67228571D02*
X103480714Y-66442857D01*
X103409285Y-66300000D01*
X103266428Y-66228571D01*
X103052142Y-66228571D01*
X102909285Y-66300000D01*
X102837857Y-66371428D01*
X104837857Y-67228571D02*
X104837857Y-66442857D01*
X104766428Y-66300000D01*
X104623571Y-66228571D01*
X104337857Y-66228571D01*
X104195000Y-66300000D01*
X104837857Y-67157142D02*
X104695000Y-67228571D01*
X104337857Y-67228571D01*
X104195000Y-67157142D01*
X104123571Y-67014285D01*
X104123571Y-66871428D01*
X104195000Y-66728571D01*
X104337857Y-66657142D01*
X104695000Y-66657142D01*
X104837857Y-66585714D01*
X105409285Y-66228571D02*
X105695000Y-67228571D01*
X105980714Y-66514285D01*
X106266428Y-67228571D01*
X106552142Y-66228571D01*
X107766428Y-67228571D02*
X107766428Y-65728571D01*
X107766428Y-67157142D02*
X107623571Y-67228571D01*
X107337857Y-67228571D01*
X107195000Y-67157142D01*
X107123571Y-67085714D01*
X107052142Y-66942857D01*
X107052142Y-66514285D01*
X107123571Y-66371428D01*
X107195000Y-66300000D01*
X107337857Y-66228571D01*
X107623571Y-66228571D01*
X107766428Y-66300000D01*
X109052142Y-67157142D02*
X108909285Y-67228571D01*
X108623571Y-67228571D01*
X108480714Y-67157142D01*
X108409285Y-67014285D01*
X108409285Y-66442857D01*
X108480714Y-66300000D01*
X108623571Y-66228571D01*
X108909285Y-66228571D01*
X109052142Y-66300000D01*
X109123571Y-66442857D01*
X109123571Y-66585714D01*
X108409285Y-66728571D01*
X109695000Y-67157142D02*
X109837857Y-67228571D01*
X110123571Y-67228571D01*
X110266428Y-67157142D01*
X110337857Y-67014285D01*
X110337857Y-66942857D01*
X110266428Y-66800000D01*
X110123571Y-66728571D01*
X109909285Y-66728571D01*
X109766428Y-66657142D01*
X109695000Y-66514285D01*
X109695000Y-66442857D01*
X109766428Y-66300000D01*
X109909285Y-66228571D01*
X110123571Y-66228571D01*
X110266428Y-66300000D01*
X110980714Y-67228571D02*
X110980714Y-66228571D01*
X110980714Y-65728571D02*
X110909285Y-65800000D01*
X110980714Y-65871428D01*
X111052142Y-65800000D01*
X110980714Y-65728571D01*
X110980714Y-65871428D01*
X112337857Y-66228571D02*
X112337857Y-67442857D01*
X112266428Y-67585714D01*
X112195000Y-67657142D01*
X112052142Y-67728571D01*
X111837857Y-67728571D01*
X111695000Y-67657142D01*
X112337857Y-67157142D02*
X112195000Y-67228571D01*
X111909285Y-67228571D01*
X111766428Y-67157142D01*
X111695000Y-67085714D01*
X111623571Y-66942857D01*
X111623571Y-66514285D01*
X111695000Y-66371428D01*
X111766428Y-66300000D01*
X111909285Y-66228571D01*
X112195000Y-66228571D01*
X112337857Y-66300000D01*
X113052142Y-66228571D02*
X113052142Y-67228571D01*
X113052142Y-66371428D02*
X113123571Y-66300000D01*
X113266428Y-66228571D01*
X113480714Y-66228571D01*
X113623571Y-66300000D01*
X113695000Y-66442857D01*
X113695000Y-67228571D01*
X114409285Y-67085714D02*
X114480714Y-67157142D01*
X114409285Y-67228571D01*
X114337857Y-67157142D01*
X114409285Y-67085714D01*
X114409285Y-67228571D01*
X115766428Y-67157142D02*
X115623571Y-67228571D01*
X115337857Y-67228571D01*
X115195000Y-67157142D01*
X115123571Y-67085714D01*
X115052142Y-66942857D01*
X115052142Y-66514285D01*
X115123571Y-66371428D01*
X115195000Y-66300000D01*
X115337857Y-66228571D01*
X115623571Y-66228571D01*
X115766428Y-66300000D01*
X116623571Y-67228571D02*
X116480714Y-67157142D01*
X116409285Y-67085714D01*
X116337857Y-66942857D01*
X116337857Y-66514285D01*
X116409285Y-66371428D01*
X116480714Y-66300000D01*
X116623571Y-66228571D01*
X116837857Y-66228571D01*
X116980714Y-66300000D01*
X117052142Y-66371428D01*
X117123571Y-66514285D01*
X117123571Y-66942857D01*
X117052142Y-67085714D01*
X116980714Y-67157142D01*
X116837857Y-67228571D01*
X116623571Y-67228571D01*
X117766428Y-67228571D02*
X117766428Y-66228571D01*
X117766428Y-66371428D02*
X117837857Y-66300000D01*
X117980714Y-66228571D01*
X118195000Y-66228571D01*
X118337857Y-66300000D01*
X118409285Y-66442857D01*
X118409285Y-67228571D01*
X118409285Y-66442857D02*
X118480714Y-66300000D01*
X118623571Y-66228571D01*
X118837857Y-66228571D01*
X118980714Y-66300000D01*
X119052142Y-66442857D01*
X119052142Y-67228571D01*
D11*
G04 #@! TO.C,J2*
X126000000Y-47500000D02*
X136000000Y-47500000D01*
D12*
G04 #@! TO.C,SW7*
X173119050Y-113650000D02*
G75*
G03X173119050Y-113650000I-4579050J0D01*
G01*
X164470000Y-119900000D02*
X162350000Y-119900000D01*
X162350000Y-119900000D02*
X162350000Y-107600000D01*
X162350000Y-107600000D02*
X164470000Y-107600000D01*
X167530000Y-107600000D02*
X169470000Y-107600000D01*
X172530000Y-107600000D02*
X174650000Y-107600000D01*
X174650000Y-107600000D02*
X174650000Y-119900000D01*
X174650000Y-119900000D02*
X172530000Y-119900000D01*
X169470000Y-119900000D02*
X167530000Y-119900000D01*
G04 #@! TO.C,J1*
X170950000Y-104330000D02*
X170950000Y-101670000D01*
X163270000Y-104330000D02*
X170950000Y-104330000D01*
X163270000Y-101670000D02*
X170950000Y-101670000D01*
X163270000Y-104330000D02*
X163270000Y-101670000D01*
X162000000Y-104330000D02*
X160670000Y-104330000D01*
X160670000Y-104330000D02*
X160670000Y-103000000D01*
G04 #@! TO.C,C15*
X147020000Y-40000000D02*
G75*
G03X147020000Y-40000000I-3270000J0D01*
G01*
X143750000Y-43230000D02*
X143750000Y-36770000D01*
X143710000Y-43230000D02*
X143710000Y-36770000D01*
X143670000Y-43230000D02*
X143670000Y-36770000D01*
X143630000Y-43228000D02*
X143630000Y-36772000D01*
X143590000Y-43227000D02*
X143590000Y-36773000D01*
X143550000Y-43224000D02*
X143550000Y-36776000D01*
X143510000Y-43222000D02*
X143510000Y-41040000D01*
X143510000Y-38960000D02*
X143510000Y-36778000D01*
X143470000Y-43218000D02*
X143470000Y-41040000D01*
X143470000Y-38960000D02*
X143470000Y-36782000D01*
X143430000Y-43215000D02*
X143430000Y-41040000D01*
X143430000Y-38960000D02*
X143430000Y-36785000D01*
X143390000Y-43211000D02*
X143390000Y-41040000D01*
X143390000Y-38960000D02*
X143390000Y-36789000D01*
X143350000Y-43206000D02*
X143350000Y-41040000D01*
X143350000Y-38960000D02*
X143350000Y-36794000D01*
X143310000Y-43201000D02*
X143310000Y-41040000D01*
X143310000Y-38960000D02*
X143310000Y-36799000D01*
X143270000Y-43195000D02*
X143270000Y-41040000D01*
X143270000Y-38960000D02*
X143270000Y-36805000D01*
X143230000Y-43189000D02*
X143230000Y-41040000D01*
X143230000Y-38960000D02*
X143230000Y-36811000D01*
X143190000Y-43182000D02*
X143190000Y-41040000D01*
X143190000Y-38960000D02*
X143190000Y-36818000D01*
X143150000Y-43175000D02*
X143150000Y-41040000D01*
X143150000Y-38960000D02*
X143150000Y-36825000D01*
X143110000Y-43167000D02*
X143110000Y-41040000D01*
X143110000Y-38960000D02*
X143110000Y-36833000D01*
X143070000Y-43159000D02*
X143070000Y-41040000D01*
X143070000Y-38960000D02*
X143070000Y-36841000D01*
X143029000Y-43150000D02*
X143029000Y-41040000D01*
X143029000Y-38960000D02*
X143029000Y-36850000D01*
X142989000Y-43141000D02*
X142989000Y-41040000D01*
X142989000Y-38960000D02*
X142989000Y-36859000D01*
X142949000Y-43131000D02*
X142949000Y-41040000D01*
X142949000Y-38960000D02*
X142949000Y-36869000D01*
X142909000Y-43121000D02*
X142909000Y-41040000D01*
X142909000Y-38960000D02*
X142909000Y-36879000D01*
X142869000Y-43110000D02*
X142869000Y-41040000D01*
X142869000Y-38960000D02*
X142869000Y-36890000D01*
X142829000Y-43098000D02*
X142829000Y-41040000D01*
X142829000Y-38960000D02*
X142829000Y-36902000D01*
X142789000Y-43086000D02*
X142789000Y-41040000D01*
X142789000Y-38960000D02*
X142789000Y-36914000D01*
X142749000Y-43074000D02*
X142749000Y-41040000D01*
X142749000Y-38960000D02*
X142749000Y-36926000D01*
X142709000Y-43061000D02*
X142709000Y-41040000D01*
X142709000Y-38960000D02*
X142709000Y-36939000D01*
X142669000Y-43047000D02*
X142669000Y-41040000D01*
X142669000Y-38960000D02*
X142669000Y-36953000D01*
X142629000Y-43033000D02*
X142629000Y-41040000D01*
X142629000Y-38960000D02*
X142629000Y-36967000D01*
X142589000Y-43018000D02*
X142589000Y-41040000D01*
X142589000Y-38960000D02*
X142589000Y-36982000D01*
X142549000Y-43002000D02*
X142549000Y-41040000D01*
X142549000Y-38960000D02*
X142549000Y-36998000D01*
X142509000Y-42986000D02*
X142509000Y-41040000D01*
X142509000Y-38960000D02*
X142509000Y-37014000D01*
X142469000Y-42970000D02*
X142469000Y-41040000D01*
X142469000Y-38960000D02*
X142469000Y-37030000D01*
X142429000Y-42952000D02*
X142429000Y-41040000D01*
X142429000Y-38960000D02*
X142429000Y-37048000D01*
X142389000Y-42934000D02*
X142389000Y-41040000D01*
X142389000Y-38960000D02*
X142389000Y-37066000D01*
X142349000Y-42916000D02*
X142349000Y-41040000D01*
X142349000Y-38960000D02*
X142349000Y-37084000D01*
X142309000Y-42896000D02*
X142309000Y-41040000D01*
X142309000Y-38960000D02*
X142309000Y-37104000D01*
X142269000Y-42876000D02*
X142269000Y-41040000D01*
X142269000Y-38960000D02*
X142269000Y-37124000D01*
X142229000Y-42856000D02*
X142229000Y-41040000D01*
X142229000Y-38960000D02*
X142229000Y-37144000D01*
X142189000Y-42834000D02*
X142189000Y-41040000D01*
X142189000Y-38960000D02*
X142189000Y-37166000D01*
X142149000Y-42812000D02*
X142149000Y-41040000D01*
X142149000Y-38960000D02*
X142149000Y-37188000D01*
X142109000Y-42790000D02*
X142109000Y-41040000D01*
X142109000Y-38960000D02*
X142109000Y-37210000D01*
X142069000Y-42766000D02*
X142069000Y-41040000D01*
X142069000Y-38960000D02*
X142069000Y-37234000D01*
X142029000Y-42742000D02*
X142029000Y-41040000D01*
X142029000Y-38960000D02*
X142029000Y-37258000D01*
X141989000Y-42716000D02*
X141989000Y-41040000D01*
X141989000Y-38960000D02*
X141989000Y-37284000D01*
X141949000Y-42690000D02*
X141949000Y-41040000D01*
X141949000Y-38960000D02*
X141949000Y-37310000D01*
X141909000Y-42664000D02*
X141909000Y-41040000D01*
X141909000Y-38960000D02*
X141909000Y-37336000D01*
X141869000Y-42636000D02*
X141869000Y-41040000D01*
X141869000Y-38960000D02*
X141869000Y-37364000D01*
X141829000Y-42607000D02*
X141829000Y-41040000D01*
X141829000Y-38960000D02*
X141829000Y-37393000D01*
X141789000Y-42578000D02*
X141789000Y-41040000D01*
X141789000Y-38960000D02*
X141789000Y-37422000D01*
X141749000Y-42548000D02*
X141749000Y-41040000D01*
X141749000Y-38960000D02*
X141749000Y-37452000D01*
X141709000Y-42516000D02*
X141709000Y-41040000D01*
X141709000Y-38960000D02*
X141709000Y-37484000D01*
X141669000Y-42484000D02*
X141669000Y-41040000D01*
X141669000Y-38960000D02*
X141669000Y-37516000D01*
X141629000Y-42450000D02*
X141629000Y-41040000D01*
X141629000Y-38960000D02*
X141629000Y-37550000D01*
X141589000Y-42416000D02*
X141589000Y-41040000D01*
X141589000Y-38960000D02*
X141589000Y-37584000D01*
X141549000Y-42380000D02*
X141549000Y-41040000D01*
X141549000Y-38960000D02*
X141549000Y-37620000D01*
X141509000Y-42343000D02*
X141509000Y-41040000D01*
X141509000Y-38960000D02*
X141509000Y-37657000D01*
X141469000Y-42305000D02*
X141469000Y-41040000D01*
X141469000Y-38960000D02*
X141469000Y-37695000D01*
X141429000Y-42265000D02*
X141429000Y-37735000D01*
X141389000Y-42224000D02*
X141389000Y-37776000D01*
X141349000Y-42182000D02*
X141349000Y-37818000D01*
X141309000Y-42137000D02*
X141309000Y-37863000D01*
X141269000Y-42092000D02*
X141269000Y-37908000D01*
X141229000Y-42044000D02*
X141229000Y-37956000D01*
X141189000Y-41995000D02*
X141189000Y-38005000D01*
X141149000Y-41944000D02*
X141149000Y-38056000D01*
X141109000Y-41890000D02*
X141109000Y-38110000D01*
X141069000Y-41834000D02*
X141069000Y-38166000D01*
X141029000Y-41776000D02*
X141029000Y-38224000D01*
X140989000Y-41714000D02*
X140989000Y-38286000D01*
X140949000Y-41650000D02*
X140949000Y-38350000D01*
X140909000Y-41581000D02*
X140909000Y-38419000D01*
X140869000Y-41509000D02*
X140869000Y-38491000D01*
X140829000Y-41432000D02*
X140829000Y-38568000D01*
X140789000Y-41350000D02*
X140789000Y-38650000D01*
X140749000Y-41262000D02*
X140749000Y-38738000D01*
X140709000Y-41165000D02*
X140709000Y-38835000D01*
X140669000Y-41059000D02*
X140669000Y-38941000D01*
X140629000Y-40940000D02*
X140629000Y-39060000D01*
X140589000Y-40802000D02*
X140589000Y-39198000D01*
X140549000Y-40633000D02*
X140549000Y-39367000D01*
X140509000Y-40402000D02*
X140509000Y-39598000D01*
X147250241Y-41839000D02*
X146620241Y-41839000D01*
X146935241Y-42154000D02*
X146935241Y-41524000D01*
G04 #@! TO.C,C13*
X146935241Y-50154000D02*
X146935241Y-49524000D01*
X147250241Y-49839000D02*
X146620241Y-49839000D01*
X140509000Y-48402000D02*
X140509000Y-47598000D01*
X140549000Y-48633000D02*
X140549000Y-47367000D01*
X140589000Y-48802000D02*
X140589000Y-47198000D01*
X140629000Y-48940000D02*
X140629000Y-47060000D01*
X140669000Y-49059000D02*
X140669000Y-46941000D01*
X140709000Y-49165000D02*
X140709000Y-46835000D01*
X140749000Y-49262000D02*
X140749000Y-46738000D01*
X140789000Y-49350000D02*
X140789000Y-46650000D01*
X140829000Y-49432000D02*
X140829000Y-46568000D01*
X140869000Y-49509000D02*
X140869000Y-46491000D01*
X140909000Y-49581000D02*
X140909000Y-46419000D01*
X140949000Y-49650000D02*
X140949000Y-46350000D01*
X140989000Y-49714000D02*
X140989000Y-46286000D01*
X141029000Y-49776000D02*
X141029000Y-46224000D01*
X141069000Y-49834000D02*
X141069000Y-46166000D01*
X141109000Y-49890000D02*
X141109000Y-46110000D01*
X141149000Y-49944000D02*
X141149000Y-46056000D01*
X141189000Y-49995000D02*
X141189000Y-46005000D01*
X141229000Y-50044000D02*
X141229000Y-45956000D01*
X141269000Y-50092000D02*
X141269000Y-45908000D01*
X141309000Y-50137000D02*
X141309000Y-45863000D01*
X141349000Y-50182000D02*
X141349000Y-45818000D01*
X141389000Y-50224000D02*
X141389000Y-45776000D01*
X141429000Y-50265000D02*
X141429000Y-45735000D01*
X141469000Y-46960000D02*
X141469000Y-45695000D01*
X141469000Y-50305000D02*
X141469000Y-49040000D01*
X141509000Y-46960000D02*
X141509000Y-45657000D01*
X141509000Y-50343000D02*
X141509000Y-49040000D01*
X141549000Y-46960000D02*
X141549000Y-45620000D01*
X141549000Y-50380000D02*
X141549000Y-49040000D01*
X141589000Y-46960000D02*
X141589000Y-45584000D01*
X141589000Y-50416000D02*
X141589000Y-49040000D01*
X141629000Y-46960000D02*
X141629000Y-45550000D01*
X141629000Y-50450000D02*
X141629000Y-49040000D01*
X141669000Y-46960000D02*
X141669000Y-45516000D01*
X141669000Y-50484000D02*
X141669000Y-49040000D01*
X141709000Y-46960000D02*
X141709000Y-45484000D01*
X141709000Y-50516000D02*
X141709000Y-49040000D01*
X141749000Y-46960000D02*
X141749000Y-45452000D01*
X141749000Y-50548000D02*
X141749000Y-49040000D01*
X141789000Y-46960000D02*
X141789000Y-45422000D01*
X141789000Y-50578000D02*
X141789000Y-49040000D01*
X141829000Y-46960000D02*
X141829000Y-45393000D01*
X141829000Y-50607000D02*
X141829000Y-49040000D01*
X141869000Y-46960000D02*
X141869000Y-45364000D01*
X141869000Y-50636000D02*
X141869000Y-49040000D01*
X141909000Y-46960000D02*
X141909000Y-45336000D01*
X141909000Y-50664000D02*
X141909000Y-49040000D01*
X141949000Y-46960000D02*
X141949000Y-45310000D01*
X141949000Y-50690000D02*
X141949000Y-49040000D01*
X141989000Y-46960000D02*
X141989000Y-45284000D01*
X141989000Y-50716000D02*
X141989000Y-49040000D01*
X142029000Y-46960000D02*
X142029000Y-45258000D01*
X142029000Y-50742000D02*
X142029000Y-49040000D01*
X142069000Y-46960000D02*
X142069000Y-45234000D01*
X142069000Y-50766000D02*
X142069000Y-49040000D01*
X142109000Y-46960000D02*
X142109000Y-45210000D01*
X142109000Y-50790000D02*
X142109000Y-49040000D01*
X142149000Y-46960000D02*
X142149000Y-45188000D01*
X142149000Y-50812000D02*
X142149000Y-49040000D01*
X142189000Y-46960000D02*
X142189000Y-45166000D01*
X142189000Y-50834000D02*
X142189000Y-49040000D01*
X142229000Y-46960000D02*
X142229000Y-45144000D01*
X142229000Y-50856000D02*
X142229000Y-49040000D01*
X142269000Y-46960000D02*
X142269000Y-45124000D01*
X142269000Y-50876000D02*
X142269000Y-49040000D01*
X142309000Y-46960000D02*
X142309000Y-45104000D01*
X142309000Y-50896000D02*
X142309000Y-49040000D01*
X142349000Y-46960000D02*
X142349000Y-45084000D01*
X142349000Y-50916000D02*
X142349000Y-49040000D01*
X142389000Y-46960000D02*
X142389000Y-45066000D01*
X142389000Y-50934000D02*
X142389000Y-49040000D01*
X142429000Y-46960000D02*
X142429000Y-45048000D01*
X142429000Y-50952000D02*
X142429000Y-49040000D01*
X142469000Y-46960000D02*
X142469000Y-45030000D01*
X142469000Y-50970000D02*
X142469000Y-49040000D01*
X142509000Y-46960000D02*
X142509000Y-45014000D01*
X142509000Y-50986000D02*
X142509000Y-49040000D01*
X142549000Y-46960000D02*
X142549000Y-44998000D01*
X142549000Y-51002000D02*
X142549000Y-49040000D01*
X142589000Y-46960000D02*
X142589000Y-44982000D01*
X142589000Y-51018000D02*
X142589000Y-49040000D01*
X142629000Y-46960000D02*
X142629000Y-44967000D01*
X142629000Y-51033000D02*
X142629000Y-49040000D01*
X142669000Y-46960000D02*
X142669000Y-44953000D01*
X142669000Y-51047000D02*
X142669000Y-49040000D01*
X142709000Y-46960000D02*
X142709000Y-44939000D01*
X142709000Y-51061000D02*
X142709000Y-49040000D01*
X142749000Y-46960000D02*
X142749000Y-44926000D01*
X142749000Y-51074000D02*
X142749000Y-49040000D01*
X142789000Y-46960000D02*
X142789000Y-44914000D01*
X142789000Y-51086000D02*
X142789000Y-49040000D01*
X142829000Y-46960000D02*
X142829000Y-44902000D01*
X142829000Y-51098000D02*
X142829000Y-49040000D01*
X142869000Y-46960000D02*
X142869000Y-44890000D01*
X142869000Y-51110000D02*
X142869000Y-49040000D01*
X142909000Y-46960000D02*
X142909000Y-44879000D01*
X142909000Y-51121000D02*
X142909000Y-49040000D01*
X142949000Y-46960000D02*
X142949000Y-44869000D01*
X142949000Y-51131000D02*
X142949000Y-49040000D01*
X142989000Y-46960000D02*
X142989000Y-44859000D01*
X142989000Y-51141000D02*
X142989000Y-49040000D01*
X143029000Y-46960000D02*
X143029000Y-44850000D01*
X143029000Y-51150000D02*
X143029000Y-49040000D01*
X143070000Y-46960000D02*
X143070000Y-44841000D01*
X143070000Y-51159000D02*
X143070000Y-49040000D01*
X143110000Y-46960000D02*
X143110000Y-44833000D01*
X143110000Y-51167000D02*
X143110000Y-49040000D01*
X143150000Y-46960000D02*
X143150000Y-44825000D01*
X143150000Y-51175000D02*
X143150000Y-49040000D01*
X143190000Y-46960000D02*
X143190000Y-44818000D01*
X143190000Y-51182000D02*
X143190000Y-49040000D01*
X143230000Y-46960000D02*
X143230000Y-44811000D01*
X143230000Y-51189000D02*
X143230000Y-49040000D01*
X143270000Y-46960000D02*
X143270000Y-44805000D01*
X143270000Y-51195000D02*
X143270000Y-49040000D01*
X143310000Y-46960000D02*
X143310000Y-44799000D01*
X143310000Y-51201000D02*
X143310000Y-49040000D01*
X143350000Y-46960000D02*
X143350000Y-44794000D01*
X143350000Y-51206000D02*
X143350000Y-49040000D01*
X143390000Y-46960000D02*
X143390000Y-44789000D01*
X143390000Y-51211000D02*
X143390000Y-49040000D01*
X143430000Y-46960000D02*
X143430000Y-44785000D01*
X143430000Y-51215000D02*
X143430000Y-49040000D01*
X143470000Y-46960000D02*
X143470000Y-44782000D01*
X143470000Y-51218000D02*
X143470000Y-49040000D01*
X143510000Y-46960000D02*
X143510000Y-44778000D01*
X143510000Y-51222000D02*
X143510000Y-49040000D01*
X143550000Y-51224000D02*
X143550000Y-44776000D01*
X143590000Y-51227000D02*
X143590000Y-44773000D01*
X143630000Y-51228000D02*
X143630000Y-44772000D01*
X143670000Y-51230000D02*
X143670000Y-44770000D01*
X143710000Y-51230000D02*
X143710000Y-44770000D01*
X143750000Y-51230000D02*
X143750000Y-44770000D01*
X147020000Y-48000000D02*
G75*
G03X147020000Y-48000000I-3270000J0D01*
G01*
G04 #@! TO.C,C12*
X146270000Y-64250000D02*
G75*
G03X146270000Y-64250000I-3270000J0D01*
G01*
X146230000Y-64250000D02*
X139770000Y-64250000D01*
X146230000Y-64290000D02*
X139770000Y-64290000D01*
X146230000Y-64330000D02*
X139770000Y-64330000D01*
X146228000Y-64370000D02*
X139772000Y-64370000D01*
X146227000Y-64410000D02*
X139773000Y-64410000D01*
X146224000Y-64450000D02*
X139776000Y-64450000D01*
X146222000Y-64490000D02*
X144040000Y-64490000D01*
X141960000Y-64490000D02*
X139778000Y-64490000D01*
X146218000Y-64530000D02*
X144040000Y-64530000D01*
X141960000Y-64530000D02*
X139782000Y-64530000D01*
X146215000Y-64570000D02*
X144040000Y-64570000D01*
X141960000Y-64570000D02*
X139785000Y-64570000D01*
X146211000Y-64610000D02*
X144040000Y-64610000D01*
X141960000Y-64610000D02*
X139789000Y-64610000D01*
X146206000Y-64650000D02*
X144040000Y-64650000D01*
X141960000Y-64650000D02*
X139794000Y-64650000D01*
X146201000Y-64690000D02*
X144040000Y-64690000D01*
X141960000Y-64690000D02*
X139799000Y-64690000D01*
X146195000Y-64730000D02*
X144040000Y-64730000D01*
X141960000Y-64730000D02*
X139805000Y-64730000D01*
X146189000Y-64770000D02*
X144040000Y-64770000D01*
X141960000Y-64770000D02*
X139811000Y-64770000D01*
X146182000Y-64810000D02*
X144040000Y-64810000D01*
X141960000Y-64810000D02*
X139818000Y-64810000D01*
X146175000Y-64850000D02*
X144040000Y-64850000D01*
X141960000Y-64850000D02*
X139825000Y-64850000D01*
X146167000Y-64890000D02*
X144040000Y-64890000D01*
X141960000Y-64890000D02*
X139833000Y-64890000D01*
X146159000Y-64930000D02*
X144040000Y-64930000D01*
X141960000Y-64930000D02*
X139841000Y-64930000D01*
X146150000Y-64971000D02*
X144040000Y-64971000D01*
X141960000Y-64971000D02*
X139850000Y-64971000D01*
X146141000Y-65011000D02*
X144040000Y-65011000D01*
X141960000Y-65011000D02*
X139859000Y-65011000D01*
X146131000Y-65051000D02*
X144040000Y-65051000D01*
X141960000Y-65051000D02*
X139869000Y-65051000D01*
X146121000Y-65091000D02*
X144040000Y-65091000D01*
X141960000Y-65091000D02*
X139879000Y-65091000D01*
X146110000Y-65131000D02*
X144040000Y-65131000D01*
X141960000Y-65131000D02*
X139890000Y-65131000D01*
X146098000Y-65171000D02*
X144040000Y-65171000D01*
X141960000Y-65171000D02*
X139902000Y-65171000D01*
X146086000Y-65211000D02*
X144040000Y-65211000D01*
X141960000Y-65211000D02*
X139914000Y-65211000D01*
X146074000Y-65251000D02*
X144040000Y-65251000D01*
X141960000Y-65251000D02*
X139926000Y-65251000D01*
X146061000Y-65291000D02*
X144040000Y-65291000D01*
X141960000Y-65291000D02*
X139939000Y-65291000D01*
X146047000Y-65331000D02*
X144040000Y-65331000D01*
X141960000Y-65331000D02*
X139953000Y-65331000D01*
X146033000Y-65371000D02*
X144040000Y-65371000D01*
X141960000Y-65371000D02*
X139967000Y-65371000D01*
X146018000Y-65411000D02*
X144040000Y-65411000D01*
X141960000Y-65411000D02*
X139982000Y-65411000D01*
X146002000Y-65451000D02*
X144040000Y-65451000D01*
X141960000Y-65451000D02*
X139998000Y-65451000D01*
X145986000Y-65491000D02*
X144040000Y-65491000D01*
X141960000Y-65491000D02*
X140014000Y-65491000D01*
X145970000Y-65531000D02*
X144040000Y-65531000D01*
X141960000Y-65531000D02*
X140030000Y-65531000D01*
X145952000Y-65571000D02*
X144040000Y-65571000D01*
X141960000Y-65571000D02*
X140048000Y-65571000D01*
X145934000Y-65611000D02*
X144040000Y-65611000D01*
X141960000Y-65611000D02*
X140066000Y-65611000D01*
X145916000Y-65651000D02*
X144040000Y-65651000D01*
X141960000Y-65651000D02*
X140084000Y-65651000D01*
X145896000Y-65691000D02*
X144040000Y-65691000D01*
X141960000Y-65691000D02*
X140104000Y-65691000D01*
X145876000Y-65731000D02*
X144040000Y-65731000D01*
X141960000Y-65731000D02*
X140124000Y-65731000D01*
X145856000Y-65771000D02*
X144040000Y-65771000D01*
X141960000Y-65771000D02*
X140144000Y-65771000D01*
X145834000Y-65811000D02*
X144040000Y-65811000D01*
X141960000Y-65811000D02*
X140166000Y-65811000D01*
X145812000Y-65851000D02*
X144040000Y-65851000D01*
X141960000Y-65851000D02*
X140188000Y-65851000D01*
X145790000Y-65891000D02*
X144040000Y-65891000D01*
X141960000Y-65891000D02*
X140210000Y-65891000D01*
X145766000Y-65931000D02*
X144040000Y-65931000D01*
X141960000Y-65931000D02*
X140234000Y-65931000D01*
X145742000Y-65971000D02*
X144040000Y-65971000D01*
X141960000Y-65971000D02*
X140258000Y-65971000D01*
X145716000Y-66011000D02*
X144040000Y-66011000D01*
X141960000Y-66011000D02*
X140284000Y-66011000D01*
X145690000Y-66051000D02*
X144040000Y-66051000D01*
X141960000Y-66051000D02*
X140310000Y-66051000D01*
X145664000Y-66091000D02*
X144040000Y-66091000D01*
X141960000Y-66091000D02*
X140336000Y-66091000D01*
X145636000Y-66131000D02*
X144040000Y-66131000D01*
X141960000Y-66131000D02*
X140364000Y-66131000D01*
X145607000Y-66171000D02*
X144040000Y-66171000D01*
X141960000Y-66171000D02*
X140393000Y-66171000D01*
X145578000Y-66211000D02*
X144040000Y-66211000D01*
X141960000Y-66211000D02*
X140422000Y-66211000D01*
X145548000Y-66251000D02*
X144040000Y-66251000D01*
X141960000Y-66251000D02*
X140452000Y-66251000D01*
X145516000Y-66291000D02*
X144040000Y-66291000D01*
X141960000Y-66291000D02*
X140484000Y-66291000D01*
X145484000Y-66331000D02*
X144040000Y-66331000D01*
X141960000Y-66331000D02*
X140516000Y-66331000D01*
X145450000Y-66371000D02*
X144040000Y-66371000D01*
X141960000Y-66371000D02*
X140550000Y-66371000D01*
X145416000Y-66411000D02*
X144040000Y-66411000D01*
X141960000Y-66411000D02*
X140584000Y-66411000D01*
X145380000Y-66451000D02*
X144040000Y-66451000D01*
X141960000Y-66451000D02*
X140620000Y-66451000D01*
X145343000Y-66491000D02*
X144040000Y-66491000D01*
X141960000Y-66491000D02*
X140657000Y-66491000D01*
X145305000Y-66531000D02*
X144040000Y-66531000D01*
X141960000Y-66531000D02*
X140695000Y-66531000D01*
X145265000Y-66571000D02*
X140735000Y-66571000D01*
X145224000Y-66611000D02*
X140776000Y-66611000D01*
X145182000Y-66651000D02*
X140818000Y-66651000D01*
X145137000Y-66691000D02*
X140863000Y-66691000D01*
X145092000Y-66731000D02*
X140908000Y-66731000D01*
X145044000Y-66771000D02*
X140956000Y-66771000D01*
X144995000Y-66811000D02*
X141005000Y-66811000D01*
X144944000Y-66851000D02*
X141056000Y-66851000D01*
X144890000Y-66891000D02*
X141110000Y-66891000D01*
X144834000Y-66931000D02*
X141166000Y-66931000D01*
X144776000Y-66971000D02*
X141224000Y-66971000D01*
X144714000Y-67011000D02*
X141286000Y-67011000D01*
X144650000Y-67051000D02*
X141350000Y-67051000D01*
X144581000Y-67091000D02*
X141419000Y-67091000D01*
X144509000Y-67131000D02*
X141491000Y-67131000D01*
X144432000Y-67171000D02*
X141568000Y-67171000D01*
X144350000Y-67211000D02*
X141650000Y-67211000D01*
X144262000Y-67251000D02*
X141738000Y-67251000D01*
X144165000Y-67291000D02*
X141835000Y-67291000D01*
X144059000Y-67331000D02*
X141941000Y-67331000D01*
X143940000Y-67371000D02*
X142060000Y-67371000D01*
X143802000Y-67411000D02*
X142198000Y-67411000D01*
X143633000Y-67451000D02*
X142367000Y-67451000D01*
X143402000Y-67491000D02*
X142598000Y-67491000D01*
X144839000Y-60749759D02*
X144839000Y-61379759D01*
X145154000Y-61064759D02*
X144524000Y-61064759D01*
G04 #@! TO.C,C11*
X152154000Y-61064759D02*
X151524000Y-61064759D01*
X151839000Y-60749759D02*
X151839000Y-61379759D01*
X150402000Y-67491000D02*
X149598000Y-67491000D01*
X150633000Y-67451000D02*
X149367000Y-67451000D01*
X150802000Y-67411000D02*
X149198000Y-67411000D01*
X150940000Y-67371000D02*
X149060000Y-67371000D01*
X151059000Y-67331000D02*
X148941000Y-67331000D01*
X151165000Y-67291000D02*
X148835000Y-67291000D01*
X151262000Y-67251000D02*
X148738000Y-67251000D01*
X151350000Y-67211000D02*
X148650000Y-67211000D01*
X151432000Y-67171000D02*
X148568000Y-67171000D01*
X151509000Y-67131000D02*
X148491000Y-67131000D01*
X151581000Y-67091000D02*
X148419000Y-67091000D01*
X151650000Y-67051000D02*
X148350000Y-67051000D01*
X151714000Y-67011000D02*
X148286000Y-67011000D01*
X151776000Y-66971000D02*
X148224000Y-66971000D01*
X151834000Y-66931000D02*
X148166000Y-66931000D01*
X151890000Y-66891000D02*
X148110000Y-66891000D01*
X151944000Y-66851000D02*
X148056000Y-66851000D01*
X151995000Y-66811000D02*
X148005000Y-66811000D01*
X152044000Y-66771000D02*
X147956000Y-66771000D01*
X152092000Y-66731000D02*
X147908000Y-66731000D01*
X152137000Y-66691000D02*
X147863000Y-66691000D01*
X152182000Y-66651000D02*
X147818000Y-66651000D01*
X152224000Y-66611000D02*
X147776000Y-66611000D01*
X152265000Y-66571000D02*
X147735000Y-66571000D01*
X148960000Y-66531000D02*
X147695000Y-66531000D01*
X152305000Y-66531000D02*
X151040000Y-66531000D01*
X148960000Y-66491000D02*
X147657000Y-66491000D01*
X152343000Y-66491000D02*
X151040000Y-66491000D01*
X148960000Y-66451000D02*
X147620000Y-66451000D01*
X152380000Y-66451000D02*
X151040000Y-66451000D01*
X148960000Y-66411000D02*
X147584000Y-66411000D01*
X152416000Y-66411000D02*
X151040000Y-66411000D01*
X148960000Y-66371000D02*
X147550000Y-66371000D01*
X152450000Y-66371000D02*
X151040000Y-66371000D01*
X148960000Y-66331000D02*
X147516000Y-66331000D01*
X152484000Y-66331000D02*
X151040000Y-66331000D01*
X148960000Y-66291000D02*
X147484000Y-66291000D01*
X152516000Y-66291000D02*
X151040000Y-66291000D01*
X148960000Y-66251000D02*
X147452000Y-66251000D01*
X152548000Y-66251000D02*
X151040000Y-66251000D01*
X148960000Y-66211000D02*
X147422000Y-66211000D01*
X152578000Y-66211000D02*
X151040000Y-66211000D01*
X148960000Y-66171000D02*
X147393000Y-66171000D01*
X152607000Y-66171000D02*
X151040000Y-66171000D01*
X148960000Y-66131000D02*
X147364000Y-66131000D01*
X152636000Y-66131000D02*
X151040000Y-66131000D01*
X148960000Y-66091000D02*
X147336000Y-66091000D01*
X152664000Y-66091000D02*
X151040000Y-66091000D01*
X148960000Y-66051000D02*
X147310000Y-66051000D01*
X152690000Y-66051000D02*
X151040000Y-66051000D01*
X148960000Y-66011000D02*
X147284000Y-66011000D01*
X152716000Y-66011000D02*
X151040000Y-66011000D01*
X148960000Y-65971000D02*
X147258000Y-65971000D01*
X152742000Y-65971000D02*
X151040000Y-65971000D01*
X148960000Y-65931000D02*
X147234000Y-65931000D01*
X152766000Y-65931000D02*
X151040000Y-65931000D01*
X148960000Y-65891000D02*
X147210000Y-65891000D01*
X152790000Y-65891000D02*
X151040000Y-65891000D01*
X148960000Y-65851000D02*
X147188000Y-65851000D01*
X152812000Y-65851000D02*
X151040000Y-65851000D01*
X148960000Y-65811000D02*
X147166000Y-65811000D01*
X152834000Y-65811000D02*
X151040000Y-65811000D01*
X148960000Y-65771000D02*
X147144000Y-65771000D01*
X152856000Y-65771000D02*
X151040000Y-65771000D01*
X148960000Y-65731000D02*
X147124000Y-65731000D01*
X152876000Y-65731000D02*
X151040000Y-65731000D01*
X148960000Y-65691000D02*
X147104000Y-65691000D01*
X152896000Y-65691000D02*
X151040000Y-65691000D01*
X148960000Y-65651000D02*
X147084000Y-65651000D01*
X152916000Y-65651000D02*
X151040000Y-65651000D01*
X148960000Y-65611000D02*
X147066000Y-65611000D01*
X152934000Y-65611000D02*
X151040000Y-65611000D01*
X148960000Y-65571000D02*
X147048000Y-65571000D01*
X152952000Y-65571000D02*
X151040000Y-65571000D01*
X148960000Y-65531000D02*
X147030000Y-65531000D01*
X152970000Y-65531000D02*
X151040000Y-65531000D01*
X148960000Y-65491000D02*
X147014000Y-65491000D01*
X152986000Y-65491000D02*
X151040000Y-65491000D01*
X148960000Y-65451000D02*
X146998000Y-65451000D01*
X153002000Y-65451000D02*
X151040000Y-65451000D01*
X148960000Y-65411000D02*
X146982000Y-65411000D01*
X153018000Y-65411000D02*
X151040000Y-65411000D01*
X148960000Y-65371000D02*
X146967000Y-65371000D01*
X153033000Y-65371000D02*
X151040000Y-65371000D01*
X148960000Y-65331000D02*
X146953000Y-65331000D01*
X153047000Y-65331000D02*
X151040000Y-65331000D01*
X148960000Y-65291000D02*
X146939000Y-65291000D01*
X153061000Y-65291000D02*
X151040000Y-65291000D01*
X148960000Y-65251000D02*
X146926000Y-65251000D01*
X153074000Y-65251000D02*
X151040000Y-65251000D01*
X148960000Y-65211000D02*
X146914000Y-65211000D01*
X153086000Y-65211000D02*
X151040000Y-65211000D01*
X148960000Y-65171000D02*
X146902000Y-65171000D01*
X153098000Y-65171000D02*
X151040000Y-65171000D01*
X148960000Y-65131000D02*
X146890000Y-65131000D01*
X153110000Y-65131000D02*
X151040000Y-65131000D01*
X148960000Y-65091000D02*
X146879000Y-65091000D01*
X153121000Y-65091000D02*
X151040000Y-65091000D01*
X148960000Y-65051000D02*
X146869000Y-65051000D01*
X153131000Y-65051000D02*
X151040000Y-65051000D01*
X148960000Y-65011000D02*
X146859000Y-65011000D01*
X153141000Y-65011000D02*
X151040000Y-65011000D01*
X148960000Y-64971000D02*
X146850000Y-64971000D01*
X153150000Y-64971000D02*
X151040000Y-64971000D01*
X148960000Y-64930000D02*
X146841000Y-64930000D01*
X153159000Y-64930000D02*
X151040000Y-64930000D01*
X148960000Y-64890000D02*
X146833000Y-64890000D01*
X153167000Y-64890000D02*
X151040000Y-64890000D01*
X148960000Y-64850000D02*
X146825000Y-64850000D01*
X153175000Y-64850000D02*
X151040000Y-64850000D01*
X148960000Y-64810000D02*
X146818000Y-64810000D01*
X153182000Y-64810000D02*
X151040000Y-64810000D01*
X148960000Y-64770000D02*
X146811000Y-64770000D01*
X153189000Y-64770000D02*
X151040000Y-64770000D01*
X148960000Y-64730000D02*
X146805000Y-64730000D01*
X153195000Y-64730000D02*
X151040000Y-64730000D01*
X148960000Y-64690000D02*
X146799000Y-64690000D01*
X153201000Y-64690000D02*
X151040000Y-64690000D01*
X148960000Y-64650000D02*
X146794000Y-64650000D01*
X153206000Y-64650000D02*
X151040000Y-64650000D01*
X148960000Y-64610000D02*
X146789000Y-64610000D01*
X153211000Y-64610000D02*
X151040000Y-64610000D01*
X148960000Y-64570000D02*
X146785000Y-64570000D01*
X153215000Y-64570000D02*
X151040000Y-64570000D01*
X148960000Y-64530000D02*
X146782000Y-64530000D01*
X153218000Y-64530000D02*
X151040000Y-64530000D01*
X148960000Y-64490000D02*
X146778000Y-64490000D01*
X153222000Y-64490000D02*
X151040000Y-64490000D01*
X153224000Y-64450000D02*
X146776000Y-64450000D01*
X153227000Y-64410000D02*
X146773000Y-64410000D01*
X153228000Y-64370000D02*
X146772000Y-64370000D01*
X153230000Y-64330000D02*
X146770000Y-64330000D01*
X153230000Y-64290000D02*
X146770000Y-64290000D01*
X153230000Y-64250000D02*
X146770000Y-64250000D01*
X153270000Y-64250000D02*
G75*
G03X153270000Y-64250000I-3270000J0D01*
G01*
G04 #@! TO.C,C17*
X105520000Y-79000000D02*
G75*
G03X105520000Y-79000000I-3270000J0D01*
G01*
X102250000Y-75770000D02*
X102250000Y-82230000D01*
X102290000Y-75770000D02*
X102290000Y-82230000D01*
X102330000Y-75770000D02*
X102330000Y-82230000D01*
X102370000Y-75772000D02*
X102370000Y-82228000D01*
X102410000Y-75773000D02*
X102410000Y-82227000D01*
X102450000Y-75776000D02*
X102450000Y-82224000D01*
X102490000Y-75778000D02*
X102490000Y-77960000D01*
X102490000Y-80040000D02*
X102490000Y-82222000D01*
X102530000Y-75782000D02*
X102530000Y-77960000D01*
X102530000Y-80040000D02*
X102530000Y-82218000D01*
X102570000Y-75785000D02*
X102570000Y-77960000D01*
X102570000Y-80040000D02*
X102570000Y-82215000D01*
X102610000Y-75789000D02*
X102610000Y-77960000D01*
X102610000Y-80040000D02*
X102610000Y-82211000D01*
X102650000Y-75794000D02*
X102650000Y-77960000D01*
X102650000Y-80040000D02*
X102650000Y-82206000D01*
X102690000Y-75799000D02*
X102690000Y-77960000D01*
X102690000Y-80040000D02*
X102690000Y-82201000D01*
X102730000Y-75805000D02*
X102730000Y-77960000D01*
X102730000Y-80040000D02*
X102730000Y-82195000D01*
X102770000Y-75811000D02*
X102770000Y-77960000D01*
X102770000Y-80040000D02*
X102770000Y-82189000D01*
X102810000Y-75818000D02*
X102810000Y-77960000D01*
X102810000Y-80040000D02*
X102810000Y-82182000D01*
X102850000Y-75825000D02*
X102850000Y-77960000D01*
X102850000Y-80040000D02*
X102850000Y-82175000D01*
X102890000Y-75833000D02*
X102890000Y-77960000D01*
X102890000Y-80040000D02*
X102890000Y-82167000D01*
X102930000Y-75841000D02*
X102930000Y-77960000D01*
X102930000Y-80040000D02*
X102930000Y-82159000D01*
X102971000Y-75850000D02*
X102971000Y-77960000D01*
X102971000Y-80040000D02*
X102971000Y-82150000D01*
X103011000Y-75859000D02*
X103011000Y-77960000D01*
X103011000Y-80040000D02*
X103011000Y-82141000D01*
X103051000Y-75869000D02*
X103051000Y-77960000D01*
X103051000Y-80040000D02*
X103051000Y-82131000D01*
X103091000Y-75879000D02*
X103091000Y-77960000D01*
X103091000Y-80040000D02*
X103091000Y-82121000D01*
X103131000Y-75890000D02*
X103131000Y-77960000D01*
X103131000Y-80040000D02*
X103131000Y-82110000D01*
X103171000Y-75902000D02*
X103171000Y-77960000D01*
X103171000Y-80040000D02*
X103171000Y-82098000D01*
X103211000Y-75914000D02*
X103211000Y-77960000D01*
X103211000Y-80040000D02*
X103211000Y-82086000D01*
X103251000Y-75926000D02*
X103251000Y-77960000D01*
X103251000Y-80040000D02*
X103251000Y-82074000D01*
X103291000Y-75939000D02*
X103291000Y-77960000D01*
X103291000Y-80040000D02*
X103291000Y-82061000D01*
X103331000Y-75953000D02*
X103331000Y-77960000D01*
X103331000Y-80040000D02*
X103331000Y-82047000D01*
X103371000Y-75967000D02*
X103371000Y-77960000D01*
X103371000Y-80040000D02*
X103371000Y-82033000D01*
X103411000Y-75982000D02*
X103411000Y-77960000D01*
X103411000Y-80040000D02*
X103411000Y-82018000D01*
X103451000Y-75998000D02*
X103451000Y-77960000D01*
X103451000Y-80040000D02*
X103451000Y-82002000D01*
X103491000Y-76014000D02*
X103491000Y-77960000D01*
X103491000Y-80040000D02*
X103491000Y-81986000D01*
X103531000Y-76030000D02*
X103531000Y-77960000D01*
X103531000Y-80040000D02*
X103531000Y-81970000D01*
X103571000Y-76048000D02*
X103571000Y-77960000D01*
X103571000Y-80040000D02*
X103571000Y-81952000D01*
X103611000Y-76066000D02*
X103611000Y-77960000D01*
X103611000Y-80040000D02*
X103611000Y-81934000D01*
X103651000Y-76084000D02*
X103651000Y-77960000D01*
X103651000Y-80040000D02*
X103651000Y-81916000D01*
X103691000Y-76104000D02*
X103691000Y-77960000D01*
X103691000Y-80040000D02*
X103691000Y-81896000D01*
X103731000Y-76124000D02*
X103731000Y-77960000D01*
X103731000Y-80040000D02*
X103731000Y-81876000D01*
X103771000Y-76144000D02*
X103771000Y-77960000D01*
X103771000Y-80040000D02*
X103771000Y-81856000D01*
X103811000Y-76166000D02*
X103811000Y-77960000D01*
X103811000Y-80040000D02*
X103811000Y-81834000D01*
X103851000Y-76188000D02*
X103851000Y-77960000D01*
X103851000Y-80040000D02*
X103851000Y-81812000D01*
X103891000Y-76210000D02*
X103891000Y-77960000D01*
X103891000Y-80040000D02*
X103891000Y-81790000D01*
X103931000Y-76234000D02*
X103931000Y-77960000D01*
X103931000Y-80040000D02*
X103931000Y-81766000D01*
X103971000Y-76258000D02*
X103971000Y-77960000D01*
X103971000Y-80040000D02*
X103971000Y-81742000D01*
X104011000Y-76284000D02*
X104011000Y-77960000D01*
X104011000Y-80040000D02*
X104011000Y-81716000D01*
X104051000Y-76310000D02*
X104051000Y-77960000D01*
X104051000Y-80040000D02*
X104051000Y-81690000D01*
X104091000Y-76336000D02*
X104091000Y-77960000D01*
X104091000Y-80040000D02*
X104091000Y-81664000D01*
X104131000Y-76364000D02*
X104131000Y-77960000D01*
X104131000Y-80040000D02*
X104131000Y-81636000D01*
X104171000Y-76393000D02*
X104171000Y-77960000D01*
X104171000Y-80040000D02*
X104171000Y-81607000D01*
X104211000Y-76422000D02*
X104211000Y-77960000D01*
X104211000Y-80040000D02*
X104211000Y-81578000D01*
X104251000Y-76452000D02*
X104251000Y-77960000D01*
X104251000Y-80040000D02*
X104251000Y-81548000D01*
X104291000Y-76484000D02*
X104291000Y-77960000D01*
X104291000Y-80040000D02*
X104291000Y-81516000D01*
X104331000Y-76516000D02*
X104331000Y-77960000D01*
X104331000Y-80040000D02*
X104331000Y-81484000D01*
X104371000Y-76550000D02*
X104371000Y-77960000D01*
X104371000Y-80040000D02*
X104371000Y-81450000D01*
X104411000Y-76584000D02*
X104411000Y-77960000D01*
X104411000Y-80040000D02*
X104411000Y-81416000D01*
X104451000Y-76620000D02*
X104451000Y-77960000D01*
X104451000Y-80040000D02*
X104451000Y-81380000D01*
X104491000Y-76657000D02*
X104491000Y-77960000D01*
X104491000Y-80040000D02*
X104491000Y-81343000D01*
X104531000Y-76695000D02*
X104531000Y-77960000D01*
X104531000Y-80040000D02*
X104531000Y-81305000D01*
X104571000Y-76735000D02*
X104571000Y-81265000D01*
X104611000Y-76776000D02*
X104611000Y-81224000D01*
X104651000Y-76818000D02*
X104651000Y-81182000D01*
X104691000Y-76863000D02*
X104691000Y-81137000D01*
X104731000Y-76908000D02*
X104731000Y-81092000D01*
X104771000Y-76956000D02*
X104771000Y-81044000D01*
X104811000Y-77005000D02*
X104811000Y-80995000D01*
X104851000Y-77056000D02*
X104851000Y-80944000D01*
X104891000Y-77110000D02*
X104891000Y-80890000D01*
X104931000Y-77166000D02*
X104931000Y-80834000D01*
X104971000Y-77224000D02*
X104971000Y-80776000D01*
X105011000Y-77286000D02*
X105011000Y-80714000D01*
X105051000Y-77350000D02*
X105051000Y-80650000D01*
X105091000Y-77419000D02*
X105091000Y-80581000D01*
X105131000Y-77491000D02*
X105131000Y-80509000D01*
X105171000Y-77568000D02*
X105171000Y-80432000D01*
X105211000Y-77650000D02*
X105211000Y-80350000D01*
X105251000Y-77738000D02*
X105251000Y-80262000D01*
X105291000Y-77835000D02*
X105291000Y-80165000D01*
X105331000Y-77941000D02*
X105331000Y-80059000D01*
X105371000Y-78060000D02*
X105371000Y-79940000D01*
X105411000Y-78198000D02*
X105411000Y-79802000D01*
X105451000Y-78367000D02*
X105451000Y-79633000D01*
X105491000Y-78598000D02*
X105491000Y-79402000D01*
X98749759Y-77161000D02*
X99379759Y-77161000D01*
X99064759Y-76846000D02*
X99064759Y-77476000D01*
G04 #@! TO.C,C16*
X107430000Y-83830000D02*
X111070000Y-83830000D01*
X107430000Y-86170000D02*
X111070000Y-86170000D01*
X107430000Y-83830000D02*
X107430000Y-84075000D01*
X107430000Y-85925000D02*
X107430000Y-86170000D01*
X111070000Y-83830000D02*
X111070000Y-84075000D01*
X111070000Y-85925000D02*
X111070000Y-86170000D01*
G04 #@! TO.C,C18*
X111070000Y-82150001D02*
X111070000Y-82395001D01*
X111070000Y-80055001D02*
X111070000Y-80300001D01*
X107430000Y-82150001D02*
X107430000Y-82395001D01*
X107430000Y-80055001D02*
X107430000Y-80300001D01*
X107430000Y-82395001D02*
X111070000Y-82395001D01*
X107430000Y-80055001D02*
X111070000Y-80055001D01*
G04 #@! TO.C,C14*
X151170000Y-41430000D02*
X151170000Y-45070000D01*
X148830000Y-41430000D02*
X148830000Y-45070000D01*
X151170000Y-41430000D02*
X150925000Y-41430000D01*
X149075000Y-41430000D02*
X148830000Y-41430000D01*
X151170000Y-45070000D02*
X150925000Y-45070000D01*
X149075000Y-45070000D02*
X148830000Y-45070000D01*
G04 #@! TO.C,R11*
X112630000Y-85190000D02*
X115370000Y-85190000D01*
X115370000Y-85190000D02*
X115370000Y-78650000D01*
X115370000Y-78650000D02*
X112630000Y-78650000D01*
X112630000Y-78650000D02*
X112630000Y-85190000D01*
X114000000Y-85960000D02*
X114000000Y-85190000D01*
X114000000Y-77880000D02*
X114000000Y-78650000D01*
G04 #@! TO.C,C10*
X97520000Y-79000000D02*
G75*
G03X97520000Y-79000000I-3270000J0D01*
G01*
X94250000Y-75770000D02*
X94250000Y-82230000D01*
X94290000Y-75770000D02*
X94290000Y-82230000D01*
X94330000Y-75770000D02*
X94330000Y-82230000D01*
X94370000Y-75772000D02*
X94370000Y-82228000D01*
X94410000Y-75773000D02*
X94410000Y-82227000D01*
X94450000Y-75776000D02*
X94450000Y-82224000D01*
X94490000Y-75778000D02*
X94490000Y-77960000D01*
X94490000Y-80040000D02*
X94490000Y-82222000D01*
X94530000Y-75782000D02*
X94530000Y-77960000D01*
X94530000Y-80040000D02*
X94530000Y-82218000D01*
X94570000Y-75785000D02*
X94570000Y-77960000D01*
X94570000Y-80040000D02*
X94570000Y-82215000D01*
X94610000Y-75789000D02*
X94610000Y-77960000D01*
X94610000Y-80040000D02*
X94610000Y-82211000D01*
X94650000Y-75794000D02*
X94650000Y-77960000D01*
X94650000Y-80040000D02*
X94650000Y-82206000D01*
X94690000Y-75799000D02*
X94690000Y-77960000D01*
X94690000Y-80040000D02*
X94690000Y-82201000D01*
X94730000Y-75805000D02*
X94730000Y-77960000D01*
X94730000Y-80040000D02*
X94730000Y-82195000D01*
X94770000Y-75811000D02*
X94770000Y-77960000D01*
X94770000Y-80040000D02*
X94770000Y-82189000D01*
X94810000Y-75818000D02*
X94810000Y-77960000D01*
X94810000Y-80040000D02*
X94810000Y-82182000D01*
X94850000Y-75825000D02*
X94850000Y-77960000D01*
X94850000Y-80040000D02*
X94850000Y-82175000D01*
X94890000Y-75833000D02*
X94890000Y-77960000D01*
X94890000Y-80040000D02*
X94890000Y-82167000D01*
X94930000Y-75841000D02*
X94930000Y-77960000D01*
X94930000Y-80040000D02*
X94930000Y-82159000D01*
X94971000Y-75850000D02*
X94971000Y-77960000D01*
X94971000Y-80040000D02*
X94971000Y-82150000D01*
X95011000Y-75859000D02*
X95011000Y-77960000D01*
X95011000Y-80040000D02*
X95011000Y-82141000D01*
X95051000Y-75869000D02*
X95051000Y-77960000D01*
X95051000Y-80040000D02*
X95051000Y-82131000D01*
X95091000Y-75879000D02*
X95091000Y-77960000D01*
X95091000Y-80040000D02*
X95091000Y-82121000D01*
X95131000Y-75890000D02*
X95131000Y-77960000D01*
X95131000Y-80040000D02*
X95131000Y-82110000D01*
X95171000Y-75902000D02*
X95171000Y-77960000D01*
X95171000Y-80040000D02*
X95171000Y-82098000D01*
X95211000Y-75914000D02*
X95211000Y-77960000D01*
X95211000Y-80040000D02*
X95211000Y-82086000D01*
X95251000Y-75926000D02*
X95251000Y-77960000D01*
X95251000Y-80040000D02*
X95251000Y-82074000D01*
X95291000Y-75939000D02*
X95291000Y-77960000D01*
X95291000Y-80040000D02*
X95291000Y-82061000D01*
X95331000Y-75953000D02*
X95331000Y-77960000D01*
X95331000Y-80040000D02*
X95331000Y-82047000D01*
X95371000Y-75967000D02*
X95371000Y-77960000D01*
X95371000Y-80040000D02*
X95371000Y-82033000D01*
X95411000Y-75982000D02*
X95411000Y-77960000D01*
X95411000Y-80040000D02*
X95411000Y-82018000D01*
X95451000Y-75998000D02*
X95451000Y-77960000D01*
X95451000Y-80040000D02*
X95451000Y-82002000D01*
X95491000Y-76014000D02*
X95491000Y-77960000D01*
X95491000Y-80040000D02*
X95491000Y-81986000D01*
X95531000Y-76030000D02*
X95531000Y-77960000D01*
X95531000Y-80040000D02*
X95531000Y-81970000D01*
X95571000Y-76048000D02*
X95571000Y-77960000D01*
X95571000Y-80040000D02*
X95571000Y-81952000D01*
X95611000Y-76066000D02*
X95611000Y-77960000D01*
X95611000Y-80040000D02*
X95611000Y-81934000D01*
X95651000Y-76084000D02*
X95651000Y-77960000D01*
X95651000Y-80040000D02*
X95651000Y-81916000D01*
X95691000Y-76104000D02*
X95691000Y-77960000D01*
X95691000Y-80040000D02*
X95691000Y-81896000D01*
X95731000Y-76124000D02*
X95731000Y-77960000D01*
X95731000Y-80040000D02*
X95731000Y-81876000D01*
X95771000Y-76144000D02*
X95771000Y-77960000D01*
X95771000Y-80040000D02*
X95771000Y-81856000D01*
X95811000Y-76166000D02*
X95811000Y-77960000D01*
X95811000Y-80040000D02*
X95811000Y-81834000D01*
X95851000Y-76188000D02*
X95851000Y-77960000D01*
X95851000Y-80040000D02*
X95851000Y-81812000D01*
X95891000Y-76210000D02*
X95891000Y-77960000D01*
X95891000Y-80040000D02*
X95891000Y-81790000D01*
X95931000Y-76234000D02*
X95931000Y-77960000D01*
X95931000Y-80040000D02*
X95931000Y-81766000D01*
X95971000Y-76258000D02*
X95971000Y-77960000D01*
X95971000Y-80040000D02*
X95971000Y-81742000D01*
X96011000Y-76284000D02*
X96011000Y-77960000D01*
X96011000Y-80040000D02*
X96011000Y-81716000D01*
X96051000Y-76310000D02*
X96051000Y-77960000D01*
X96051000Y-80040000D02*
X96051000Y-81690000D01*
X96091000Y-76336000D02*
X96091000Y-77960000D01*
X96091000Y-80040000D02*
X96091000Y-81664000D01*
X96131000Y-76364000D02*
X96131000Y-77960000D01*
X96131000Y-80040000D02*
X96131000Y-81636000D01*
X96171000Y-76393000D02*
X96171000Y-77960000D01*
X96171000Y-80040000D02*
X96171000Y-81607000D01*
X96211000Y-76422000D02*
X96211000Y-77960000D01*
X96211000Y-80040000D02*
X96211000Y-81578000D01*
X96251000Y-76452000D02*
X96251000Y-77960000D01*
X96251000Y-80040000D02*
X96251000Y-81548000D01*
X96291000Y-76484000D02*
X96291000Y-77960000D01*
X96291000Y-80040000D02*
X96291000Y-81516000D01*
X96331000Y-76516000D02*
X96331000Y-77960000D01*
X96331000Y-80040000D02*
X96331000Y-81484000D01*
X96371000Y-76550000D02*
X96371000Y-77960000D01*
X96371000Y-80040000D02*
X96371000Y-81450000D01*
X96411000Y-76584000D02*
X96411000Y-77960000D01*
X96411000Y-80040000D02*
X96411000Y-81416000D01*
X96451000Y-76620000D02*
X96451000Y-77960000D01*
X96451000Y-80040000D02*
X96451000Y-81380000D01*
X96491000Y-76657000D02*
X96491000Y-77960000D01*
X96491000Y-80040000D02*
X96491000Y-81343000D01*
X96531000Y-76695000D02*
X96531000Y-77960000D01*
X96531000Y-80040000D02*
X96531000Y-81305000D01*
X96571000Y-76735000D02*
X96571000Y-81265000D01*
X96611000Y-76776000D02*
X96611000Y-81224000D01*
X96651000Y-76818000D02*
X96651000Y-81182000D01*
X96691000Y-76863000D02*
X96691000Y-81137000D01*
X96731000Y-76908000D02*
X96731000Y-81092000D01*
X96771000Y-76956000D02*
X96771000Y-81044000D01*
X96811000Y-77005000D02*
X96811000Y-80995000D01*
X96851000Y-77056000D02*
X96851000Y-80944000D01*
X96891000Y-77110000D02*
X96891000Y-80890000D01*
X96931000Y-77166000D02*
X96931000Y-80834000D01*
X96971000Y-77224000D02*
X96971000Y-80776000D01*
X97011000Y-77286000D02*
X97011000Y-80714000D01*
X97051000Y-77350000D02*
X97051000Y-80650000D01*
X97091000Y-77419000D02*
X97091000Y-80581000D01*
X97131000Y-77491000D02*
X97131000Y-80509000D01*
X97171000Y-77568000D02*
X97171000Y-80432000D01*
X97211000Y-77650000D02*
X97211000Y-80350000D01*
X97251000Y-77738000D02*
X97251000Y-80262000D01*
X97291000Y-77835000D02*
X97291000Y-80165000D01*
X97331000Y-77941000D02*
X97331000Y-80059000D01*
X97371000Y-78060000D02*
X97371000Y-79940000D01*
X97411000Y-78198000D02*
X97411000Y-79802000D01*
X97451000Y-78367000D02*
X97451000Y-79633000D01*
X97491000Y-78598000D02*
X97491000Y-79402000D01*
X90749759Y-77161000D02*
X91379759Y-77161000D01*
X91064759Y-76846000D02*
X91064759Y-77476000D01*
G04 #@! TO.C,C7*
X168064759Y-61846000D02*
X168064759Y-62476000D01*
X167749759Y-62161000D02*
X168379759Y-62161000D01*
X174491000Y-63598000D02*
X174491000Y-64402000D01*
X174451000Y-63367000D02*
X174451000Y-64633000D01*
X174411000Y-63198000D02*
X174411000Y-64802000D01*
X174371000Y-63060000D02*
X174371000Y-64940000D01*
X174331000Y-62941000D02*
X174331000Y-65059000D01*
X174291000Y-62835000D02*
X174291000Y-65165000D01*
X174251000Y-62738000D02*
X174251000Y-65262000D01*
X174211000Y-62650000D02*
X174211000Y-65350000D01*
X174171000Y-62568000D02*
X174171000Y-65432000D01*
X174131000Y-62491000D02*
X174131000Y-65509000D01*
X174091000Y-62419000D02*
X174091000Y-65581000D01*
X174051000Y-62350000D02*
X174051000Y-65650000D01*
X174011000Y-62286000D02*
X174011000Y-65714000D01*
X173971000Y-62224000D02*
X173971000Y-65776000D01*
X173931000Y-62166000D02*
X173931000Y-65834000D01*
X173891000Y-62110000D02*
X173891000Y-65890000D01*
X173851000Y-62056000D02*
X173851000Y-65944000D01*
X173811000Y-62005000D02*
X173811000Y-65995000D01*
X173771000Y-61956000D02*
X173771000Y-66044000D01*
X173731000Y-61908000D02*
X173731000Y-66092000D01*
X173691000Y-61863000D02*
X173691000Y-66137000D01*
X173651000Y-61818000D02*
X173651000Y-66182000D01*
X173611000Y-61776000D02*
X173611000Y-66224000D01*
X173571000Y-61735000D02*
X173571000Y-66265000D01*
X173531000Y-65040000D02*
X173531000Y-66305000D01*
X173531000Y-61695000D02*
X173531000Y-62960000D01*
X173491000Y-65040000D02*
X173491000Y-66343000D01*
X173491000Y-61657000D02*
X173491000Y-62960000D01*
X173451000Y-65040000D02*
X173451000Y-66380000D01*
X173451000Y-61620000D02*
X173451000Y-62960000D01*
X173411000Y-65040000D02*
X173411000Y-66416000D01*
X173411000Y-61584000D02*
X173411000Y-62960000D01*
X173371000Y-65040000D02*
X173371000Y-66450000D01*
X173371000Y-61550000D02*
X173371000Y-62960000D01*
X173331000Y-65040000D02*
X173331000Y-66484000D01*
X173331000Y-61516000D02*
X173331000Y-62960000D01*
X173291000Y-65040000D02*
X173291000Y-66516000D01*
X173291000Y-61484000D02*
X173291000Y-62960000D01*
X173251000Y-65040000D02*
X173251000Y-66548000D01*
X173251000Y-61452000D02*
X173251000Y-62960000D01*
X173211000Y-65040000D02*
X173211000Y-66578000D01*
X173211000Y-61422000D02*
X173211000Y-62960000D01*
X173171000Y-65040000D02*
X173171000Y-66607000D01*
X173171000Y-61393000D02*
X173171000Y-62960000D01*
X173131000Y-65040000D02*
X173131000Y-66636000D01*
X173131000Y-61364000D02*
X173131000Y-62960000D01*
X173091000Y-65040000D02*
X173091000Y-66664000D01*
X173091000Y-61336000D02*
X173091000Y-62960000D01*
X173051000Y-65040000D02*
X173051000Y-66690000D01*
X173051000Y-61310000D02*
X173051000Y-62960000D01*
X173011000Y-65040000D02*
X173011000Y-66716000D01*
X173011000Y-61284000D02*
X173011000Y-62960000D01*
X172971000Y-65040000D02*
X172971000Y-66742000D01*
X172971000Y-61258000D02*
X172971000Y-62960000D01*
X172931000Y-65040000D02*
X172931000Y-66766000D01*
X172931000Y-61234000D02*
X172931000Y-62960000D01*
X172891000Y-65040000D02*
X172891000Y-66790000D01*
X172891000Y-61210000D02*
X172891000Y-62960000D01*
X172851000Y-65040000D02*
X172851000Y-66812000D01*
X172851000Y-61188000D02*
X172851000Y-62960000D01*
X172811000Y-65040000D02*
X172811000Y-66834000D01*
X172811000Y-61166000D02*
X172811000Y-62960000D01*
X172771000Y-65040000D02*
X172771000Y-66856000D01*
X172771000Y-61144000D02*
X172771000Y-62960000D01*
X172731000Y-65040000D02*
X172731000Y-66876000D01*
X172731000Y-61124000D02*
X172731000Y-62960000D01*
X172691000Y-65040000D02*
X172691000Y-66896000D01*
X172691000Y-61104000D02*
X172691000Y-62960000D01*
X172651000Y-65040000D02*
X172651000Y-66916000D01*
X172651000Y-61084000D02*
X172651000Y-62960000D01*
X172611000Y-65040000D02*
X172611000Y-66934000D01*
X172611000Y-61066000D02*
X172611000Y-62960000D01*
X172571000Y-65040000D02*
X172571000Y-66952000D01*
X172571000Y-61048000D02*
X172571000Y-62960000D01*
X172531000Y-65040000D02*
X172531000Y-66970000D01*
X172531000Y-61030000D02*
X172531000Y-62960000D01*
X172491000Y-65040000D02*
X172491000Y-66986000D01*
X172491000Y-61014000D02*
X172491000Y-62960000D01*
X172451000Y-65040000D02*
X172451000Y-67002000D01*
X172451000Y-60998000D02*
X172451000Y-62960000D01*
X172411000Y-65040000D02*
X172411000Y-67018000D01*
X172411000Y-60982000D02*
X172411000Y-62960000D01*
X172371000Y-65040000D02*
X172371000Y-67033000D01*
X172371000Y-60967000D02*
X172371000Y-62960000D01*
X172331000Y-65040000D02*
X172331000Y-67047000D01*
X172331000Y-60953000D02*
X172331000Y-62960000D01*
X172291000Y-65040000D02*
X172291000Y-67061000D01*
X172291000Y-60939000D02*
X172291000Y-62960000D01*
X172251000Y-65040000D02*
X172251000Y-67074000D01*
X172251000Y-60926000D02*
X172251000Y-62960000D01*
X172211000Y-65040000D02*
X172211000Y-67086000D01*
X172211000Y-60914000D02*
X172211000Y-62960000D01*
X172171000Y-65040000D02*
X172171000Y-67098000D01*
X172171000Y-60902000D02*
X172171000Y-62960000D01*
X172131000Y-65040000D02*
X172131000Y-67110000D01*
X172131000Y-60890000D02*
X172131000Y-62960000D01*
X172091000Y-65040000D02*
X172091000Y-67121000D01*
X172091000Y-60879000D02*
X172091000Y-62960000D01*
X172051000Y-65040000D02*
X172051000Y-67131000D01*
X172051000Y-60869000D02*
X172051000Y-62960000D01*
X172011000Y-65040000D02*
X172011000Y-67141000D01*
X172011000Y-60859000D02*
X172011000Y-62960000D01*
X171971000Y-65040000D02*
X171971000Y-67150000D01*
X171971000Y-60850000D02*
X171971000Y-62960000D01*
X171930000Y-65040000D02*
X171930000Y-67159000D01*
X171930000Y-60841000D02*
X171930000Y-62960000D01*
X171890000Y-65040000D02*
X171890000Y-67167000D01*
X171890000Y-60833000D02*
X171890000Y-62960000D01*
X171850000Y-65040000D02*
X171850000Y-67175000D01*
X171850000Y-60825000D02*
X171850000Y-62960000D01*
X171810000Y-65040000D02*
X171810000Y-67182000D01*
X171810000Y-60818000D02*
X171810000Y-62960000D01*
X171770000Y-65040000D02*
X171770000Y-67189000D01*
X171770000Y-60811000D02*
X171770000Y-62960000D01*
X171730000Y-65040000D02*
X171730000Y-67195000D01*
X171730000Y-60805000D02*
X171730000Y-62960000D01*
X171690000Y-65040000D02*
X171690000Y-67201000D01*
X171690000Y-60799000D02*
X171690000Y-62960000D01*
X171650000Y-65040000D02*
X171650000Y-67206000D01*
X171650000Y-60794000D02*
X171650000Y-62960000D01*
X171610000Y-65040000D02*
X171610000Y-67211000D01*
X171610000Y-60789000D02*
X171610000Y-62960000D01*
X171570000Y-65040000D02*
X171570000Y-67215000D01*
X171570000Y-60785000D02*
X171570000Y-62960000D01*
X171530000Y-65040000D02*
X171530000Y-67218000D01*
X171530000Y-60782000D02*
X171530000Y-62960000D01*
X171490000Y-65040000D02*
X171490000Y-67222000D01*
X171490000Y-60778000D02*
X171490000Y-62960000D01*
X171450000Y-60776000D02*
X171450000Y-67224000D01*
X171410000Y-60773000D02*
X171410000Y-67227000D01*
X171370000Y-60772000D02*
X171370000Y-67228000D01*
X171330000Y-60770000D02*
X171330000Y-67230000D01*
X171290000Y-60770000D02*
X171290000Y-67230000D01*
X171250000Y-60770000D02*
X171250000Y-67230000D01*
X174520000Y-64000000D02*
G75*
G03X174520000Y-64000000I-3270000J0D01*
G01*
G04 #@! TO.C,C8*
X174520000Y-76000000D02*
G75*
G03X174520000Y-76000000I-3270000J0D01*
G01*
X171250000Y-72770000D02*
X171250000Y-79230000D01*
X171290000Y-72770000D02*
X171290000Y-79230000D01*
X171330000Y-72770000D02*
X171330000Y-79230000D01*
X171370000Y-72772000D02*
X171370000Y-79228000D01*
X171410000Y-72773000D02*
X171410000Y-79227000D01*
X171450000Y-72776000D02*
X171450000Y-79224000D01*
X171490000Y-72778000D02*
X171490000Y-74960000D01*
X171490000Y-77040000D02*
X171490000Y-79222000D01*
X171530000Y-72782000D02*
X171530000Y-74960000D01*
X171530000Y-77040000D02*
X171530000Y-79218000D01*
X171570000Y-72785000D02*
X171570000Y-74960000D01*
X171570000Y-77040000D02*
X171570000Y-79215000D01*
X171610000Y-72789000D02*
X171610000Y-74960000D01*
X171610000Y-77040000D02*
X171610000Y-79211000D01*
X171650000Y-72794000D02*
X171650000Y-74960000D01*
X171650000Y-77040000D02*
X171650000Y-79206000D01*
X171690000Y-72799000D02*
X171690000Y-74960000D01*
X171690000Y-77040000D02*
X171690000Y-79201000D01*
X171730000Y-72805000D02*
X171730000Y-74960000D01*
X171730000Y-77040000D02*
X171730000Y-79195000D01*
X171770000Y-72811000D02*
X171770000Y-74960000D01*
X171770000Y-77040000D02*
X171770000Y-79189000D01*
X171810000Y-72818000D02*
X171810000Y-74960000D01*
X171810000Y-77040000D02*
X171810000Y-79182000D01*
X171850000Y-72825000D02*
X171850000Y-74960000D01*
X171850000Y-77040000D02*
X171850000Y-79175000D01*
X171890000Y-72833000D02*
X171890000Y-74960000D01*
X171890000Y-77040000D02*
X171890000Y-79167000D01*
X171930000Y-72841000D02*
X171930000Y-74960000D01*
X171930000Y-77040000D02*
X171930000Y-79159000D01*
X171971000Y-72850000D02*
X171971000Y-74960000D01*
X171971000Y-77040000D02*
X171971000Y-79150000D01*
X172011000Y-72859000D02*
X172011000Y-74960000D01*
X172011000Y-77040000D02*
X172011000Y-79141000D01*
X172051000Y-72869000D02*
X172051000Y-74960000D01*
X172051000Y-77040000D02*
X172051000Y-79131000D01*
X172091000Y-72879000D02*
X172091000Y-74960000D01*
X172091000Y-77040000D02*
X172091000Y-79121000D01*
X172131000Y-72890000D02*
X172131000Y-74960000D01*
X172131000Y-77040000D02*
X172131000Y-79110000D01*
X172171000Y-72902000D02*
X172171000Y-74960000D01*
X172171000Y-77040000D02*
X172171000Y-79098000D01*
X172211000Y-72914000D02*
X172211000Y-74960000D01*
X172211000Y-77040000D02*
X172211000Y-79086000D01*
X172251000Y-72926000D02*
X172251000Y-74960000D01*
X172251000Y-77040000D02*
X172251000Y-79074000D01*
X172291000Y-72939000D02*
X172291000Y-74960000D01*
X172291000Y-77040000D02*
X172291000Y-79061000D01*
X172331000Y-72953000D02*
X172331000Y-74960000D01*
X172331000Y-77040000D02*
X172331000Y-79047000D01*
X172371000Y-72967000D02*
X172371000Y-74960000D01*
X172371000Y-77040000D02*
X172371000Y-79033000D01*
X172411000Y-72982000D02*
X172411000Y-74960000D01*
X172411000Y-77040000D02*
X172411000Y-79018000D01*
X172451000Y-72998000D02*
X172451000Y-74960000D01*
X172451000Y-77040000D02*
X172451000Y-79002000D01*
X172491000Y-73014000D02*
X172491000Y-74960000D01*
X172491000Y-77040000D02*
X172491000Y-78986000D01*
X172531000Y-73030000D02*
X172531000Y-74960000D01*
X172531000Y-77040000D02*
X172531000Y-78970000D01*
X172571000Y-73048000D02*
X172571000Y-74960000D01*
X172571000Y-77040000D02*
X172571000Y-78952000D01*
X172611000Y-73066000D02*
X172611000Y-74960000D01*
X172611000Y-77040000D02*
X172611000Y-78934000D01*
X172651000Y-73084000D02*
X172651000Y-74960000D01*
X172651000Y-77040000D02*
X172651000Y-78916000D01*
X172691000Y-73104000D02*
X172691000Y-74960000D01*
X172691000Y-77040000D02*
X172691000Y-78896000D01*
X172731000Y-73124000D02*
X172731000Y-74960000D01*
X172731000Y-77040000D02*
X172731000Y-78876000D01*
X172771000Y-73144000D02*
X172771000Y-74960000D01*
X172771000Y-77040000D02*
X172771000Y-78856000D01*
X172811000Y-73166000D02*
X172811000Y-74960000D01*
X172811000Y-77040000D02*
X172811000Y-78834000D01*
X172851000Y-73188000D02*
X172851000Y-74960000D01*
X172851000Y-77040000D02*
X172851000Y-78812000D01*
X172891000Y-73210000D02*
X172891000Y-74960000D01*
X172891000Y-77040000D02*
X172891000Y-78790000D01*
X172931000Y-73234000D02*
X172931000Y-74960000D01*
X172931000Y-77040000D02*
X172931000Y-78766000D01*
X172971000Y-73258000D02*
X172971000Y-74960000D01*
X172971000Y-77040000D02*
X172971000Y-78742000D01*
X173011000Y-73284000D02*
X173011000Y-74960000D01*
X173011000Y-77040000D02*
X173011000Y-78716000D01*
X173051000Y-73310000D02*
X173051000Y-74960000D01*
X173051000Y-77040000D02*
X173051000Y-78690000D01*
X173091000Y-73336000D02*
X173091000Y-74960000D01*
X173091000Y-77040000D02*
X173091000Y-78664000D01*
X173131000Y-73364000D02*
X173131000Y-74960000D01*
X173131000Y-77040000D02*
X173131000Y-78636000D01*
X173171000Y-73393000D02*
X173171000Y-74960000D01*
X173171000Y-77040000D02*
X173171000Y-78607000D01*
X173211000Y-73422000D02*
X173211000Y-74960000D01*
X173211000Y-77040000D02*
X173211000Y-78578000D01*
X173251000Y-73452000D02*
X173251000Y-74960000D01*
X173251000Y-77040000D02*
X173251000Y-78548000D01*
X173291000Y-73484000D02*
X173291000Y-74960000D01*
X173291000Y-77040000D02*
X173291000Y-78516000D01*
X173331000Y-73516000D02*
X173331000Y-74960000D01*
X173331000Y-77040000D02*
X173331000Y-78484000D01*
X173371000Y-73550000D02*
X173371000Y-74960000D01*
X173371000Y-77040000D02*
X173371000Y-78450000D01*
X173411000Y-73584000D02*
X173411000Y-74960000D01*
X173411000Y-77040000D02*
X173411000Y-78416000D01*
X173451000Y-73620000D02*
X173451000Y-74960000D01*
X173451000Y-77040000D02*
X173451000Y-78380000D01*
X173491000Y-73657000D02*
X173491000Y-74960000D01*
X173491000Y-77040000D02*
X173491000Y-78343000D01*
X173531000Y-73695000D02*
X173531000Y-74960000D01*
X173531000Y-77040000D02*
X173531000Y-78305000D01*
X173571000Y-73735000D02*
X173571000Y-78265000D01*
X173611000Y-73776000D02*
X173611000Y-78224000D01*
X173651000Y-73818000D02*
X173651000Y-78182000D01*
X173691000Y-73863000D02*
X173691000Y-78137000D01*
X173731000Y-73908000D02*
X173731000Y-78092000D01*
X173771000Y-73956000D02*
X173771000Y-78044000D01*
X173811000Y-74005000D02*
X173811000Y-77995000D01*
X173851000Y-74056000D02*
X173851000Y-77944000D01*
X173891000Y-74110000D02*
X173891000Y-77890000D01*
X173931000Y-74166000D02*
X173931000Y-77834000D01*
X173971000Y-74224000D02*
X173971000Y-77776000D01*
X174011000Y-74286000D02*
X174011000Y-77714000D01*
X174051000Y-74350000D02*
X174051000Y-77650000D01*
X174091000Y-74419000D02*
X174091000Y-77581000D01*
X174131000Y-74491000D02*
X174131000Y-77509000D01*
X174171000Y-74568000D02*
X174171000Y-77432000D01*
X174211000Y-74650000D02*
X174211000Y-77350000D01*
X174251000Y-74738000D02*
X174251000Y-77262000D01*
X174291000Y-74835000D02*
X174291000Y-77165000D01*
X174331000Y-74941000D02*
X174331000Y-77059000D01*
X174371000Y-75060000D02*
X174371000Y-76940000D01*
X174411000Y-75198000D02*
X174411000Y-76802000D01*
X174451000Y-75367000D02*
X174451000Y-76633000D01*
X174491000Y-75598000D02*
X174491000Y-76402000D01*
X167749759Y-74161000D02*
X168379759Y-74161000D01*
X168064759Y-73846000D02*
X168064759Y-74476000D01*
G04 #@! TO.C,C9*
X153830000Y-67570000D02*
X153830000Y-63930000D01*
X156170000Y-67570000D02*
X156170000Y-63930000D01*
X153830000Y-67570000D02*
X154075000Y-67570000D01*
X155925000Y-67570000D02*
X156170000Y-67570000D01*
X153830000Y-63930000D02*
X154075000Y-63930000D01*
X155925000Y-63930000D02*
X156170000Y-63930000D01*
G04 #@! TO.C,U3*
X92670000Y-88190000D02*
G75*
G02X92670000Y-90190000I0J-1000000D01*
G01*
X92670000Y-90190000D02*
X92670000Y-91840000D01*
X92670000Y-91840000D02*
X102950000Y-91840000D01*
X102950000Y-91840000D02*
X102950000Y-86540000D01*
X102950000Y-86540000D02*
X92670000Y-86540000D01*
X92670000Y-86540000D02*
X92670000Y-88190000D01*
X92610000Y-94330000D02*
X103010000Y-94330000D01*
X103010000Y-94330000D02*
X103010000Y-84050000D01*
X103010000Y-84050000D02*
X92610000Y-84050000D01*
X92610000Y-84050000D02*
X92610000Y-94330000D01*
G04 #@! TO.C,R10*
X94810000Y-95630000D02*
X94810000Y-98370000D01*
X94810000Y-98370000D02*
X101350000Y-98370000D01*
X101350000Y-98370000D02*
X101350000Y-95630000D01*
X101350000Y-95630000D02*
X94810000Y-95630000D01*
X94040000Y-97000000D02*
X94810000Y-97000000D01*
X102120000Y-97000000D02*
X101350000Y-97000000D01*
G04 #@! TO.C,R8*
X149471849Y-57589377D02*
X148701849Y-57589377D01*
X141391849Y-57589377D02*
X142161849Y-57589377D01*
X148701849Y-56219377D02*
X142161849Y-56219377D01*
X148701849Y-58959377D02*
X148701849Y-56219377D01*
X142161849Y-58959377D02*
X148701849Y-58959377D01*
X142161849Y-56219377D02*
X142161849Y-58959377D01*
G04 #@! TO.C,R9*
X94810000Y-99630000D02*
X94810000Y-102370000D01*
X94810000Y-102370000D02*
X101350000Y-102370000D01*
X101350000Y-102370000D02*
X101350000Y-99630000D01*
X101350000Y-99630000D02*
X94810000Y-99630000D01*
X94040000Y-101000000D02*
X94810000Y-101000000D01*
X102120000Y-101000000D02*
X101350000Y-101000000D01*
G04 #@! TO.C,U2*
X162810000Y-50670000D02*
G75*
G02X160810000Y-50670000I-1000000J0D01*
G01*
X160810000Y-50670000D02*
X159160000Y-50670000D01*
X159160000Y-50670000D02*
X159160000Y-86350000D01*
X159160000Y-86350000D02*
X164460000Y-86350000D01*
X164460000Y-86350000D02*
X164460000Y-50670000D01*
X164460000Y-50670000D02*
X162810000Y-50670000D01*
X156670000Y-50610000D02*
X156670000Y-86410000D01*
X156670000Y-86410000D02*
X166950000Y-86410000D01*
X166950000Y-86410000D02*
X166950000Y-50610000D01*
X166950000Y-50610000D02*
X156670000Y-50610000D01*
G04 #@! TO.C,U1*
X127190000Y-61330000D02*
G75*
G02X129190000Y-61330000I1000000J0D01*
G01*
X129190000Y-61330000D02*
X130840000Y-61330000D01*
X130840000Y-61330000D02*
X130840000Y-51050000D01*
X130840000Y-51050000D02*
X125540000Y-51050000D01*
X125540000Y-51050000D02*
X125540000Y-61330000D01*
X125540000Y-61330000D02*
X127190000Y-61330000D01*
X133330000Y-61390000D02*
X133330000Y-50990000D01*
X133330000Y-50990000D02*
X123050000Y-50990000D01*
X123050000Y-50990000D02*
X123050000Y-61390000D01*
X123050000Y-61390000D02*
X133330000Y-61390000D01*
G04 #@! TO.C,SW6*
X160119050Y-113650000D02*
G75*
G03X160119050Y-113650000I-4579050J0D01*
G01*
X151470000Y-119900000D02*
X149350000Y-119900000D01*
X149350000Y-119900000D02*
X149350000Y-107600000D01*
X149350000Y-107600000D02*
X151470000Y-107600000D01*
X154530000Y-107600000D02*
X156470000Y-107600000D01*
X159530000Y-107600000D02*
X161650000Y-107600000D01*
X161650000Y-107600000D02*
X161650000Y-119900000D01*
X161650000Y-119900000D02*
X159530000Y-119900000D01*
X156470000Y-119900000D02*
X154530000Y-119900000D01*
G04 #@! TO.C,SW5*
X143470000Y-119900000D02*
X141530000Y-119900000D01*
X148650000Y-119900000D02*
X146530000Y-119900000D01*
X148650000Y-107600000D02*
X148650000Y-119900000D01*
X146530000Y-107600000D02*
X148650000Y-107600000D01*
X141530000Y-107600000D02*
X143470000Y-107600000D01*
X136350000Y-107600000D02*
X138470000Y-107600000D01*
X136350000Y-119900000D02*
X136350000Y-107600000D01*
X138470000Y-119900000D02*
X136350000Y-119900000D01*
X147119050Y-113650000D02*
G75*
G03X147119050Y-113650000I-4579050J0D01*
G01*
G04 #@! TO.C,SW4*
X127119050Y-113650000D02*
G75*
G03X127119050Y-113650000I-4579050J0D01*
G01*
X118470000Y-119900000D02*
X116350000Y-119900000D01*
X116350000Y-119900000D02*
X116350000Y-107600000D01*
X116350000Y-107600000D02*
X118470000Y-107600000D01*
X121530000Y-107600000D02*
X123470000Y-107600000D01*
X126530000Y-107600000D02*
X128650000Y-107600000D01*
X128650000Y-107600000D02*
X128650000Y-119900000D01*
X128650000Y-119900000D02*
X126530000Y-119900000D01*
X123470000Y-119900000D02*
X121530000Y-119900000D01*
G04 #@! TO.C,SW3*
X110470000Y-119900000D02*
X108530000Y-119900000D01*
X115650000Y-119900000D02*
X113530000Y-119900000D01*
X115650000Y-107600000D02*
X115650000Y-119900000D01*
X113530000Y-107600000D02*
X115650000Y-107600000D01*
X108530000Y-107600000D02*
X110470000Y-107600000D01*
X103350000Y-107600000D02*
X105470000Y-107600000D01*
X103350000Y-119900000D02*
X103350000Y-107600000D01*
X105470000Y-119900000D02*
X103350000Y-119900000D01*
X114119050Y-113650000D02*
G75*
G03X114119050Y-113650000I-4579050J0D01*
G01*
G04 #@! TO.C,SW2*
X101119050Y-113650000D02*
G75*
G03X101119050Y-113650000I-4579050J0D01*
G01*
X92470000Y-119900000D02*
X90350000Y-119900000D01*
X90350000Y-119900000D02*
X90350000Y-107600000D01*
X90350000Y-107600000D02*
X92470000Y-107600000D01*
X95530000Y-107600000D02*
X97470000Y-107600000D01*
X100530000Y-107600000D02*
X102650000Y-107600000D01*
X102650000Y-107600000D02*
X102650000Y-119900000D01*
X102650000Y-119900000D02*
X100530000Y-119900000D01*
X97470000Y-119900000D02*
X95530000Y-119900000D01*
G04 #@! TO.C,C1*
X121154000Y-52064759D02*
X120524000Y-52064759D01*
X120839000Y-51749759D02*
X120839000Y-52379759D01*
X119402000Y-58491000D02*
X118598000Y-58491000D01*
X119633000Y-58451000D02*
X118367000Y-58451000D01*
X119802000Y-58411000D02*
X118198000Y-58411000D01*
X119940000Y-58371000D02*
X118060000Y-58371000D01*
X120059000Y-58331000D02*
X117941000Y-58331000D01*
X120165000Y-58291000D02*
X117835000Y-58291000D01*
X120262000Y-58251000D02*
X117738000Y-58251000D01*
X120350000Y-58211000D02*
X117650000Y-58211000D01*
X120432000Y-58171000D02*
X117568000Y-58171000D01*
X120509000Y-58131000D02*
X117491000Y-58131000D01*
X120581000Y-58091000D02*
X117419000Y-58091000D01*
X120650000Y-58051000D02*
X117350000Y-58051000D01*
X120714000Y-58011000D02*
X117286000Y-58011000D01*
X120776000Y-57971000D02*
X117224000Y-57971000D01*
X120834000Y-57931000D02*
X117166000Y-57931000D01*
X120890000Y-57891000D02*
X117110000Y-57891000D01*
X120944000Y-57851000D02*
X117056000Y-57851000D01*
X120995000Y-57811000D02*
X117005000Y-57811000D01*
X121044000Y-57771000D02*
X116956000Y-57771000D01*
X121092000Y-57731000D02*
X116908000Y-57731000D01*
X121137000Y-57691000D02*
X116863000Y-57691000D01*
X121182000Y-57651000D02*
X116818000Y-57651000D01*
X121224000Y-57611000D02*
X116776000Y-57611000D01*
X121265000Y-57571000D02*
X116735000Y-57571000D01*
X117960000Y-57531000D02*
X116695000Y-57531000D01*
X121305000Y-57531000D02*
X120040000Y-57531000D01*
X117960000Y-57491000D02*
X116657000Y-57491000D01*
X121343000Y-57491000D02*
X120040000Y-57491000D01*
X117960000Y-57451000D02*
X116620000Y-57451000D01*
X121380000Y-57451000D02*
X120040000Y-57451000D01*
X117960000Y-57411000D02*
X116584000Y-57411000D01*
X121416000Y-57411000D02*
X120040000Y-57411000D01*
X117960000Y-57371000D02*
X116550000Y-57371000D01*
X121450000Y-57371000D02*
X120040000Y-57371000D01*
X117960000Y-57331000D02*
X116516000Y-57331000D01*
X121484000Y-57331000D02*
X120040000Y-57331000D01*
X117960000Y-57291000D02*
X116484000Y-57291000D01*
X121516000Y-57291000D02*
X120040000Y-57291000D01*
X117960000Y-57251000D02*
X116452000Y-57251000D01*
X121548000Y-57251000D02*
X120040000Y-57251000D01*
X117960000Y-57211000D02*
X116422000Y-57211000D01*
X121578000Y-57211000D02*
X120040000Y-57211000D01*
X117960000Y-57171000D02*
X116393000Y-57171000D01*
X121607000Y-57171000D02*
X120040000Y-57171000D01*
X117960000Y-57131000D02*
X116364000Y-57131000D01*
X121636000Y-57131000D02*
X120040000Y-57131000D01*
X117960000Y-57091000D02*
X116336000Y-57091000D01*
X121664000Y-57091000D02*
X120040000Y-57091000D01*
X117960000Y-57051000D02*
X116310000Y-57051000D01*
X121690000Y-57051000D02*
X120040000Y-57051000D01*
X117960000Y-57011000D02*
X116284000Y-57011000D01*
X121716000Y-57011000D02*
X120040000Y-57011000D01*
X117960000Y-56971000D02*
X116258000Y-56971000D01*
X121742000Y-56971000D02*
X120040000Y-56971000D01*
X117960000Y-56931000D02*
X116234000Y-56931000D01*
X121766000Y-56931000D02*
X120040000Y-56931000D01*
X117960000Y-56891000D02*
X116210000Y-56891000D01*
X121790000Y-56891000D02*
X120040000Y-56891000D01*
X117960000Y-56851000D02*
X116188000Y-56851000D01*
X121812000Y-56851000D02*
X120040000Y-56851000D01*
X117960000Y-56811000D02*
X116166000Y-56811000D01*
X121834000Y-56811000D02*
X120040000Y-56811000D01*
X117960000Y-56771000D02*
X116144000Y-56771000D01*
X121856000Y-56771000D02*
X120040000Y-56771000D01*
X117960000Y-56731000D02*
X116124000Y-56731000D01*
X121876000Y-56731000D02*
X120040000Y-56731000D01*
X117960000Y-56691000D02*
X116104000Y-56691000D01*
X121896000Y-56691000D02*
X120040000Y-56691000D01*
X117960000Y-56651000D02*
X116084000Y-56651000D01*
X121916000Y-56651000D02*
X120040000Y-56651000D01*
X117960000Y-56611000D02*
X116066000Y-56611000D01*
X121934000Y-56611000D02*
X120040000Y-56611000D01*
X117960000Y-56571000D02*
X116048000Y-56571000D01*
X121952000Y-56571000D02*
X120040000Y-56571000D01*
X117960000Y-56531000D02*
X116030000Y-56531000D01*
X121970000Y-56531000D02*
X120040000Y-56531000D01*
X117960000Y-56491000D02*
X116014000Y-56491000D01*
X121986000Y-56491000D02*
X120040000Y-56491000D01*
X117960000Y-56451000D02*
X115998000Y-56451000D01*
X122002000Y-56451000D02*
X120040000Y-56451000D01*
X117960000Y-56411000D02*
X115982000Y-56411000D01*
X122018000Y-56411000D02*
X120040000Y-56411000D01*
X117960000Y-56371000D02*
X115967000Y-56371000D01*
X122033000Y-56371000D02*
X120040000Y-56371000D01*
X117960000Y-56331000D02*
X115953000Y-56331000D01*
X122047000Y-56331000D02*
X120040000Y-56331000D01*
X117960000Y-56291000D02*
X115939000Y-56291000D01*
X122061000Y-56291000D02*
X120040000Y-56291000D01*
X117960000Y-56251000D02*
X115926000Y-56251000D01*
X122074000Y-56251000D02*
X120040000Y-56251000D01*
X117960000Y-56211000D02*
X115914000Y-56211000D01*
X122086000Y-56211000D02*
X120040000Y-56211000D01*
X117960000Y-56171000D02*
X115902000Y-56171000D01*
X122098000Y-56171000D02*
X120040000Y-56171000D01*
X117960000Y-56131000D02*
X115890000Y-56131000D01*
X122110000Y-56131000D02*
X120040000Y-56131000D01*
X117960000Y-56091000D02*
X115879000Y-56091000D01*
X122121000Y-56091000D02*
X120040000Y-56091000D01*
X117960000Y-56051000D02*
X115869000Y-56051000D01*
X122131000Y-56051000D02*
X120040000Y-56051000D01*
X117960000Y-56011000D02*
X115859000Y-56011000D01*
X122141000Y-56011000D02*
X120040000Y-56011000D01*
X117960000Y-55971000D02*
X115850000Y-55971000D01*
X122150000Y-55971000D02*
X120040000Y-55971000D01*
X117960000Y-55930000D02*
X115841000Y-55930000D01*
X122159000Y-55930000D02*
X120040000Y-55930000D01*
X117960000Y-55890000D02*
X115833000Y-55890000D01*
X122167000Y-55890000D02*
X120040000Y-55890000D01*
X117960000Y-55850000D02*
X115825000Y-55850000D01*
X122175000Y-55850000D02*
X120040000Y-55850000D01*
X117960000Y-55810000D02*
X115818000Y-55810000D01*
X122182000Y-55810000D02*
X120040000Y-55810000D01*
X117960000Y-55770000D02*
X115811000Y-55770000D01*
X122189000Y-55770000D02*
X120040000Y-55770000D01*
X117960000Y-55730000D02*
X115805000Y-55730000D01*
X122195000Y-55730000D02*
X120040000Y-55730000D01*
X117960000Y-55690000D02*
X115799000Y-55690000D01*
X122201000Y-55690000D02*
X120040000Y-55690000D01*
X117960000Y-55650000D02*
X115794000Y-55650000D01*
X122206000Y-55650000D02*
X120040000Y-55650000D01*
X117960000Y-55610000D02*
X115789000Y-55610000D01*
X122211000Y-55610000D02*
X120040000Y-55610000D01*
X117960000Y-55570000D02*
X115785000Y-55570000D01*
X122215000Y-55570000D02*
X120040000Y-55570000D01*
X117960000Y-55530000D02*
X115782000Y-55530000D01*
X122218000Y-55530000D02*
X120040000Y-55530000D01*
X117960000Y-55490000D02*
X115778000Y-55490000D01*
X122222000Y-55490000D02*
X120040000Y-55490000D01*
X122224000Y-55450000D02*
X115776000Y-55450000D01*
X122227000Y-55410000D02*
X115773000Y-55410000D01*
X122228000Y-55370000D02*
X115772000Y-55370000D01*
X122230000Y-55330000D02*
X115770000Y-55330000D01*
X122230000Y-55290000D02*
X115770000Y-55290000D01*
X122230000Y-55250000D02*
X115770000Y-55250000D01*
X122270000Y-55250000D02*
G75*
G03X122270000Y-55250000I-3270000J0D01*
G01*
G04 #@! TO.C,C3*
X122270000Y-62250000D02*
G75*
G03X122270000Y-62250000I-3270000J0D01*
G01*
X122230000Y-62250000D02*
X115770000Y-62250000D01*
X122230000Y-62290000D02*
X115770000Y-62290000D01*
X122230000Y-62330000D02*
X115770000Y-62330000D01*
X122228000Y-62370000D02*
X115772000Y-62370000D01*
X122227000Y-62410000D02*
X115773000Y-62410000D01*
X122224000Y-62450000D02*
X115776000Y-62450000D01*
X122222000Y-62490000D02*
X120040000Y-62490000D01*
X117960000Y-62490000D02*
X115778000Y-62490000D01*
X122218000Y-62530000D02*
X120040000Y-62530000D01*
X117960000Y-62530000D02*
X115782000Y-62530000D01*
X122215000Y-62570000D02*
X120040000Y-62570000D01*
X117960000Y-62570000D02*
X115785000Y-62570000D01*
X122211000Y-62610000D02*
X120040000Y-62610000D01*
X117960000Y-62610000D02*
X115789000Y-62610000D01*
X122206000Y-62650000D02*
X120040000Y-62650000D01*
X117960000Y-62650000D02*
X115794000Y-62650000D01*
X122201000Y-62690000D02*
X120040000Y-62690000D01*
X117960000Y-62690000D02*
X115799000Y-62690000D01*
X122195000Y-62730000D02*
X120040000Y-62730000D01*
X117960000Y-62730000D02*
X115805000Y-62730000D01*
X122189000Y-62770000D02*
X120040000Y-62770000D01*
X117960000Y-62770000D02*
X115811000Y-62770000D01*
X122182000Y-62810000D02*
X120040000Y-62810000D01*
X117960000Y-62810000D02*
X115818000Y-62810000D01*
X122175000Y-62850000D02*
X120040000Y-62850000D01*
X117960000Y-62850000D02*
X115825000Y-62850000D01*
X122167000Y-62890000D02*
X120040000Y-62890000D01*
X117960000Y-62890000D02*
X115833000Y-62890000D01*
X122159000Y-62930000D02*
X120040000Y-62930000D01*
X117960000Y-62930000D02*
X115841000Y-62930000D01*
X122150000Y-62971000D02*
X120040000Y-62971000D01*
X117960000Y-62971000D02*
X115850000Y-62971000D01*
X122141000Y-63011000D02*
X120040000Y-63011000D01*
X117960000Y-63011000D02*
X115859000Y-63011000D01*
X122131000Y-63051000D02*
X120040000Y-63051000D01*
X117960000Y-63051000D02*
X115869000Y-63051000D01*
X122121000Y-63091000D02*
X120040000Y-63091000D01*
X117960000Y-63091000D02*
X115879000Y-63091000D01*
X122110000Y-63131000D02*
X120040000Y-63131000D01*
X117960000Y-63131000D02*
X115890000Y-63131000D01*
X122098000Y-63171000D02*
X120040000Y-63171000D01*
X117960000Y-63171000D02*
X115902000Y-63171000D01*
X122086000Y-63211000D02*
X120040000Y-63211000D01*
X117960000Y-63211000D02*
X115914000Y-63211000D01*
X122074000Y-63251000D02*
X120040000Y-63251000D01*
X117960000Y-63251000D02*
X115926000Y-63251000D01*
X122061000Y-63291000D02*
X120040000Y-63291000D01*
X117960000Y-63291000D02*
X115939000Y-63291000D01*
X122047000Y-63331000D02*
X120040000Y-63331000D01*
X117960000Y-63331000D02*
X115953000Y-63331000D01*
X122033000Y-63371000D02*
X120040000Y-63371000D01*
X117960000Y-63371000D02*
X115967000Y-63371000D01*
X122018000Y-63411000D02*
X120040000Y-63411000D01*
X117960000Y-63411000D02*
X115982000Y-63411000D01*
X122002000Y-63451000D02*
X120040000Y-63451000D01*
X117960000Y-63451000D02*
X115998000Y-63451000D01*
X121986000Y-63491000D02*
X120040000Y-63491000D01*
X117960000Y-63491000D02*
X116014000Y-63491000D01*
X121970000Y-63531000D02*
X120040000Y-63531000D01*
X117960000Y-63531000D02*
X116030000Y-63531000D01*
X121952000Y-63571000D02*
X120040000Y-63571000D01*
X117960000Y-63571000D02*
X116048000Y-63571000D01*
X121934000Y-63611000D02*
X120040000Y-63611000D01*
X117960000Y-63611000D02*
X116066000Y-63611000D01*
X121916000Y-63651000D02*
X120040000Y-63651000D01*
X117960000Y-63651000D02*
X116084000Y-63651000D01*
X121896000Y-63691000D02*
X120040000Y-63691000D01*
X117960000Y-63691000D02*
X116104000Y-63691000D01*
X121876000Y-63731000D02*
X120040000Y-63731000D01*
X117960000Y-63731000D02*
X116124000Y-63731000D01*
X121856000Y-63771000D02*
X120040000Y-63771000D01*
X117960000Y-63771000D02*
X116144000Y-63771000D01*
X121834000Y-63811000D02*
X120040000Y-63811000D01*
X117960000Y-63811000D02*
X116166000Y-63811000D01*
X121812000Y-63851000D02*
X120040000Y-63851000D01*
X117960000Y-63851000D02*
X116188000Y-63851000D01*
X121790000Y-63891000D02*
X120040000Y-63891000D01*
X117960000Y-63891000D02*
X116210000Y-63891000D01*
X121766000Y-63931000D02*
X120040000Y-63931000D01*
X117960000Y-63931000D02*
X116234000Y-63931000D01*
X121742000Y-63971000D02*
X120040000Y-63971000D01*
X117960000Y-63971000D02*
X116258000Y-63971000D01*
X121716000Y-64011000D02*
X120040000Y-64011000D01*
X117960000Y-64011000D02*
X116284000Y-64011000D01*
X121690000Y-64051000D02*
X120040000Y-64051000D01*
X117960000Y-64051000D02*
X116310000Y-64051000D01*
X121664000Y-64091000D02*
X120040000Y-64091000D01*
X117960000Y-64091000D02*
X116336000Y-64091000D01*
X121636000Y-64131000D02*
X120040000Y-64131000D01*
X117960000Y-64131000D02*
X116364000Y-64131000D01*
X121607000Y-64171000D02*
X120040000Y-64171000D01*
X117960000Y-64171000D02*
X116393000Y-64171000D01*
X121578000Y-64211000D02*
X120040000Y-64211000D01*
X117960000Y-64211000D02*
X116422000Y-64211000D01*
X121548000Y-64251000D02*
X120040000Y-64251000D01*
X117960000Y-64251000D02*
X116452000Y-64251000D01*
X121516000Y-64291000D02*
X120040000Y-64291000D01*
X117960000Y-64291000D02*
X116484000Y-64291000D01*
X121484000Y-64331000D02*
X120040000Y-64331000D01*
X117960000Y-64331000D02*
X116516000Y-64331000D01*
X121450000Y-64371000D02*
X120040000Y-64371000D01*
X117960000Y-64371000D02*
X116550000Y-64371000D01*
X121416000Y-64411000D02*
X120040000Y-64411000D01*
X117960000Y-64411000D02*
X116584000Y-64411000D01*
X121380000Y-64451000D02*
X120040000Y-64451000D01*
X117960000Y-64451000D02*
X116620000Y-64451000D01*
X121343000Y-64491000D02*
X120040000Y-64491000D01*
X117960000Y-64491000D02*
X116657000Y-64491000D01*
X121305000Y-64531000D02*
X120040000Y-64531000D01*
X117960000Y-64531000D02*
X116695000Y-64531000D01*
X121265000Y-64571000D02*
X116735000Y-64571000D01*
X121224000Y-64611000D02*
X116776000Y-64611000D01*
X121182000Y-64651000D02*
X116818000Y-64651000D01*
X121137000Y-64691000D02*
X116863000Y-64691000D01*
X121092000Y-64731000D02*
X116908000Y-64731000D01*
X121044000Y-64771000D02*
X116956000Y-64771000D01*
X120995000Y-64811000D02*
X117005000Y-64811000D01*
X120944000Y-64851000D02*
X117056000Y-64851000D01*
X120890000Y-64891000D02*
X117110000Y-64891000D01*
X120834000Y-64931000D02*
X117166000Y-64931000D01*
X120776000Y-64971000D02*
X117224000Y-64971000D01*
X120714000Y-65011000D02*
X117286000Y-65011000D01*
X120650000Y-65051000D02*
X117350000Y-65051000D01*
X120581000Y-65091000D02*
X117419000Y-65091000D01*
X120509000Y-65131000D02*
X117491000Y-65131000D01*
X120432000Y-65171000D02*
X117568000Y-65171000D01*
X120350000Y-65211000D02*
X117650000Y-65211000D01*
X120262000Y-65251000D02*
X117738000Y-65251000D01*
X120165000Y-65291000D02*
X117835000Y-65291000D01*
X120059000Y-65331000D02*
X117941000Y-65331000D01*
X119940000Y-65371000D02*
X118060000Y-65371000D01*
X119802000Y-65411000D02*
X118198000Y-65411000D01*
X119633000Y-65451000D02*
X118367000Y-65451000D01*
X119402000Y-65491000D02*
X118598000Y-65491000D01*
X120839000Y-58749759D02*
X120839000Y-59379759D01*
X121154000Y-59064759D02*
X120524000Y-59064759D01*
G04 #@! TO.C,C6*
X151075000Y-87070000D02*
X150830000Y-87070000D01*
X153170000Y-87070000D02*
X152925000Y-87070000D01*
X151075000Y-83430000D02*
X150830000Y-83430000D01*
X153170000Y-83430000D02*
X152925000Y-83430000D01*
X150830000Y-83430000D02*
X150830000Y-87070000D01*
X153170000Y-83430000D02*
X153170000Y-87070000D01*
G04 #@! TO.C,C2*
X136170000Y-54430000D02*
X136170000Y-58070000D01*
X133830000Y-54430000D02*
X133830000Y-58070000D01*
X136170000Y-54430000D02*
X135925000Y-54430000D01*
X134075000Y-54430000D02*
X133830000Y-54430000D01*
X136170000Y-58070000D02*
X135925000Y-58070000D01*
X134075000Y-58070000D02*
X133830000Y-58070000D01*
G04 #@! TO.C,C4*
X168075000Y-72070000D02*
X167830000Y-72070000D01*
X170170000Y-72070000D02*
X169925000Y-72070000D01*
X168075000Y-68430000D02*
X167830000Y-68430000D01*
X170170000Y-68430000D02*
X169925000Y-68430000D01*
X167830000Y-68430000D02*
X167830000Y-72070000D01*
X170170000Y-68430000D02*
X170170000Y-72070000D01*
G04 #@! TO.C,C5*
X148170000Y-83430000D02*
X148170000Y-87070000D01*
X145830000Y-83430000D02*
X145830000Y-87070000D01*
X148170000Y-83430000D02*
X147925000Y-83430000D01*
X146075000Y-83430000D02*
X145830000Y-83430000D01*
X148170000Y-87070000D02*
X147925000Y-87070000D01*
X146075000Y-87070000D02*
X145830000Y-87070000D01*
G04 #@! TO.C,BT1*
X157130000Y-124670000D02*
X157130000Y-127330000D01*
X159730000Y-124670000D02*
X157130000Y-124670000D01*
X159730000Y-127330000D02*
X157130000Y-127330000D01*
X159730000Y-124670000D02*
X159730000Y-127330000D01*
X161000000Y-124670000D02*
X162330000Y-124670000D01*
X162330000Y-124670000D02*
X162330000Y-126000000D01*
G04 #@! TO.C,J6*
X163670000Y-99950000D02*
X166330000Y-99950000D01*
X163670000Y-92270000D02*
X163670000Y-99950000D01*
X166330000Y-92270000D02*
X166330000Y-99950000D01*
X163670000Y-92270000D02*
X166330000Y-92270000D01*
X163670000Y-91000000D02*
X163670000Y-89670000D01*
X163670000Y-89670000D02*
X165000000Y-89670000D01*
G04 #@! TO.C,J8*
X171330000Y-100330000D02*
X170000000Y-100330000D01*
X171330000Y-99000000D02*
X171330000Y-100330000D01*
X171330000Y-97730000D02*
X168670000Y-97730000D01*
X168670000Y-97730000D02*
X168670000Y-87510000D01*
X171330000Y-97730000D02*
X171330000Y-87510000D01*
X171330000Y-87510000D02*
X168670000Y-87510000D01*
G04 #@! TO.C,J5*
X152670000Y-60490000D02*
X155330000Y-60490000D01*
X152670000Y-50270000D02*
X152670000Y-60490000D01*
X155330000Y-50270000D02*
X155330000Y-60490000D01*
X152670000Y-50270000D02*
X155330000Y-50270000D01*
X152670000Y-49000000D02*
X152670000Y-47670000D01*
X152670000Y-47670000D02*
X154000000Y-47670000D01*
G04 #@! TO.C,J7*
X171330000Y-43970000D02*
X168670000Y-43970000D01*
X171330000Y-56730000D02*
X171330000Y-43970000D01*
X168670000Y-56730000D02*
X168670000Y-43970000D01*
X171330000Y-56730000D02*
X168670000Y-56730000D01*
X171330000Y-58000000D02*
X171330000Y-59330000D01*
X171330000Y-59330000D02*
X170000000Y-59330000D01*
G04 #@! TO.C,Y1*
X146240000Y-77475000D02*
X152640000Y-77475000D01*
X146240000Y-82525000D02*
X152640000Y-82525000D01*
X146240000Y-82525000D02*
G75*
G02X146240000Y-77475000I0J2525000D01*
G01*
X152640000Y-82525000D02*
G75*
G03X152640000Y-77475000I0J2525000D01*
G01*
G04 #@! TO.C,D1*
X132640000Y-65470000D02*
X132640000Y-62530000D01*
X132640000Y-62530000D02*
X127200000Y-62530000D01*
X127200000Y-62530000D02*
X127200000Y-65470000D01*
X127200000Y-65470000D02*
X132640000Y-65470000D01*
X133660000Y-64000000D02*
X132640000Y-64000000D01*
X126180000Y-64000000D02*
X127200000Y-64000000D01*
X131740000Y-65470000D02*
X131740000Y-62530000D01*
X131620000Y-65470000D02*
X131620000Y-62530000D01*
X131860000Y-65470000D02*
X131860000Y-62530000D01*
G04 #@! TO.C,L1*
X110260000Y-57854260D02*
G75*
G03X110260000Y-52145740I-1260000J2854260D01*
G01*
X107740000Y-57854260D02*
G75*
G02X107740000Y-52145740I1260000J2854260D01*
G01*
G04 #@! TO.C,D2*
X116260000Y-72000462D02*
G75*
G03X110710000Y-70455170I-2990000J462D01*
G01*
X116260000Y-71999538D02*
G75*
G02X110710000Y-73544830I-2990000J-462D01*
G01*
X115770000Y-72000000D02*
G75*
G03X115770000Y-72000000I-2500000J0D01*
G01*
X110710000Y-70455000D02*
X110710000Y-73545000D01*
G04 #@! TO.C,D3*
X119710000Y-70455000D02*
X119710000Y-73545000D01*
X124770000Y-72000000D02*
G75*
G03X124770000Y-72000000I-2500000J0D01*
G01*
X125260000Y-71999538D02*
G75*
G02X119710000Y-73544830I-2990000J-462D01*
G01*
X125260000Y-72000462D02*
G75*
G03X119710000Y-70455170I-2990000J462D01*
G01*
G04 #@! TO.C,D4*
X134260000Y-72000462D02*
G75*
G03X128710000Y-70455170I-2990000J462D01*
G01*
X134260000Y-71999538D02*
G75*
G02X128710000Y-73544830I-2990000J-462D01*
G01*
X133770000Y-72000000D02*
G75*
G03X133770000Y-72000000I-2500000J0D01*
G01*
X128710000Y-70455000D02*
X128710000Y-73545000D01*
G04 #@! TO.C,D6*
X146710000Y-70455000D02*
X146710000Y-73545000D01*
X151770000Y-72000000D02*
G75*
G03X151770000Y-72000000I-2500000J0D01*
G01*
X152260000Y-71999538D02*
G75*
G02X146710000Y-73544830I-2990000J-462D01*
G01*
X152260000Y-72000462D02*
G75*
G03X146710000Y-70455170I-2990000J462D01*
G01*
G04 #@! TO.C,D5*
X143260000Y-72000462D02*
G75*
G03X137710000Y-70455170I-2990000J462D01*
G01*
X143260000Y-71999538D02*
G75*
G02X137710000Y-73544830I-2990000J-462D01*
G01*
X142770000Y-72000000D02*
G75*
G03X142770000Y-72000000I-2500000J0D01*
G01*
X137710000Y-70455000D02*
X137710000Y-73545000D01*
G04 #@! TO.C,RV2*
X117470000Y-90880000D02*
X117470000Y-94745000D01*
X117470000Y-99255000D02*
X117470000Y-103120000D01*
X107530000Y-90880000D02*
X107530000Y-94745000D01*
X107530000Y-99255000D02*
X107530000Y-103120000D01*
X117470000Y-90880000D02*
X115871000Y-90880000D01*
X114129000Y-90880000D02*
X113370000Y-90880000D01*
X111629000Y-90880000D02*
X110870000Y-90880000D01*
X109130000Y-90880000D02*
X107530000Y-90880000D01*
X117470000Y-103120000D02*
X107530000Y-103120000D01*
G04 #@! TO.C,RV3*
X157470000Y-103120000D02*
X147530000Y-103120000D01*
X149130000Y-90880000D02*
X147530000Y-90880000D01*
X151629000Y-90880000D02*
X150870000Y-90880000D01*
X154129000Y-90880000D02*
X153370000Y-90880000D01*
X157470000Y-90880000D02*
X155871000Y-90880000D01*
X147530000Y-99255000D02*
X147530000Y-103120000D01*
X147530000Y-90880000D02*
X147530000Y-94745000D01*
X157470000Y-99255000D02*
X157470000Y-103120000D01*
X157470000Y-90880000D02*
X157470000Y-94745000D01*
G04 #@! TO.C,RV4*
X137470000Y-90880000D02*
X137470000Y-94745000D01*
X137470000Y-99255000D02*
X137470000Y-103120000D01*
X127530000Y-90880000D02*
X127530000Y-94745000D01*
X127530000Y-99255000D02*
X127530000Y-103120000D01*
X137470000Y-90880000D02*
X135871000Y-90880000D01*
X134129000Y-90880000D02*
X133370000Y-90880000D01*
X131629000Y-90880000D02*
X130870000Y-90880000D01*
X129130000Y-90880000D02*
X127530000Y-90880000D01*
X137470000Y-103120000D02*
X127530000Y-103120000D01*
G04 #@! TO.C,R6*
X135370000Y-78810000D02*
X132630000Y-78810000D01*
X132630000Y-78810000D02*
X132630000Y-85350000D01*
X132630000Y-85350000D02*
X135370000Y-85350000D01*
X135370000Y-85350000D02*
X135370000Y-78810000D01*
X134000000Y-78040000D02*
X134000000Y-78810000D01*
X134000000Y-86120000D02*
X134000000Y-85350000D01*
G04 #@! TO.C,R7*
X138000000Y-85960000D02*
X138000000Y-85190000D01*
X138000000Y-77880000D02*
X138000000Y-78650000D01*
X139370000Y-85190000D02*
X139370000Y-78650000D01*
X136630000Y-85190000D02*
X139370000Y-85190000D01*
X136630000Y-78650000D02*
X136630000Y-85190000D01*
X139370000Y-78650000D02*
X136630000Y-78650000D01*
G04 #@! TO.C,R5*
X131370000Y-78810000D02*
X128630000Y-78810000D01*
X128630000Y-78810000D02*
X128630000Y-85350000D01*
X128630000Y-85350000D02*
X131370000Y-85350000D01*
X131370000Y-85350000D02*
X131370000Y-78810000D01*
X130000000Y-78040000D02*
X130000000Y-78810000D01*
X130000000Y-86120000D02*
X130000000Y-85350000D01*
G04 #@! TO.C,R4*
X126000000Y-86120000D02*
X126000000Y-85350000D01*
X126000000Y-78040000D02*
X126000000Y-78810000D01*
X127370000Y-85350000D02*
X127370000Y-78810000D01*
X124630000Y-85350000D02*
X127370000Y-85350000D01*
X124630000Y-78810000D02*
X124630000Y-85350000D01*
X127370000Y-78810000D02*
X124630000Y-78810000D01*
G04 #@! TO.C,R3*
X123370000Y-78810000D02*
X120630000Y-78810000D01*
X120630000Y-78810000D02*
X120630000Y-85350000D01*
X120630000Y-85350000D02*
X123370000Y-85350000D01*
X123370000Y-85350000D02*
X123370000Y-78810000D01*
X122000000Y-78040000D02*
X122000000Y-78810000D01*
X122000000Y-86120000D02*
X122000000Y-85350000D01*
G04 #@! TO.C,R2*
X165120000Y-43000000D02*
X164350000Y-43000000D01*
X157040000Y-43000000D02*
X157810000Y-43000000D01*
X164350000Y-41630000D02*
X157810000Y-41630000D01*
X164350000Y-44370000D02*
X164350000Y-41630000D01*
X157810000Y-44370000D02*
X164350000Y-44370000D01*
X157810000Y-41630000D02*
X157810000Y-44370000D01*
G04 #@! TO.C,R1*
X142161849Y-52219377D02*
X142161849Y-54959377D01*
X142161849Y-54959377D02*
X148701849Y-54959377D01*
X148701849Y-54959377D02*
X148701849Y-52219377D01*
X148701849Y-52219377D02*
X142161849Y-52219377D01*
X141391849Y-53589377D02*
X142161849Y-53589377D01*
X149471849Y-53589377D02*
X148701849Y-53589377D01*
D11*
G04 #@! TO.C,SW1*
X163500000Y-39000000D02*
X163500000Y-39800000D01*
X163500000Y-39800000D02*
X150500000Y-39800000D01*
X150500000Y-39800000D02*
X150500000Y-39000000D01*
X163500000Y-35000000D02*
X163500000Y-34200000D01*
X163500000Y-34200000D02*
X150500000Y-34200000D01*
X150500000Y-34200000D02*
X150500000Y-35000000D01*
D13*
X160100000Y-40300000D02*
X160100000Y-40300000D01*
X159900000Y-40300000D02*
X159900000Y-40300000D01*
X159900000Y-40300000D02*
G75*
G02X160100000Y-40300000I100000J0D01*
G01*
X160100000Y-40300000D02*
G75*
G02X159900000Y-40300000I-100000J0D01*
G01*
D14*
G04 #@! TO.C,J9*
X103222000Y-36476000D02*
X101190000Y-36476000D01*
X101190000Y-36476000D02*
X101190000Y-32920000D01*
X101190000Y-32920000D02*
X108810000Y-32920000D01*
X108810000Y-32920000D02*
X108810000Y-36476000D01*
X108810000Y-36476000D02*
X106778000Y-36476000D01*
X99920000Y-31904000D02*
X98904000Y-31904000D01*
X111096000Y-31904000D02*
X110080000Y-31904000D01*
X102460000Y-29872000D02*
X102460000Y-31396000D01*
X107540000Y-31396000D02*
X107540000Y-29872000D01*
X102460000Y-30634000D02*
X107540000Y-30634000D01*
X99920000Y-31904000D02*
X99920000Y-31650000D01*
X99920000Y-31650000D02*
X99920000Y-31396000D01*
X99920000Y-31396000D02*
X110080000Y-31396000D01*
X110080000Y-31396000D02*
X110080000Y-31904000D01*
X102460000Y-29872000D02*
X107540000Y-29872000D01*
X98904000Y-44096000D02*
X98904000Y-31904000D01*
X111096000Y-31904000D02*
X111096000Y-44096000D01*
X111096000Y-44096000D02*
X98904000Y-44096000D01*
G04 #@! TO.C,J2*
D15*
X130576666Y-39054523D02*
X130576666Y-39961666D01*
X130516190Y-40143095D01*
X130395238Y-40264047D01*
X130213809Y-40324523D01*
X130092857Y-40324523D01*
X131120952Y-39175476D02*
X131181428Y-39115000D01*
X131302380Y-39054523D01*
X131604761Y-39054523D01*
X131725714Y-39115000D01*
X131786190Y-39175476D01*
X131846666Y-39296428D01*
X131846666Y-39417380D01*
X131786190Y-39598809D01*
X131060476Y-40324523D01*
X131846666Y-40324523D01*
G04 #@! TO.C,SW7*
D14*
X169404761Y-114983333D02*
X169452380Y-114840476D01*
X169452380Y-114602380D01*
X169404761Y-114507142D01*
X169357142Y-114459523D01*
X169261904Y-114411904D01*
X169166666Y-114411904D01*
X169071428Y-114459523D01*
X169023809Y-114507142D01*
X168976190Y-114602380D01*
X168928571Y-114792857D01*
X168880952Y-114888095D01*
X168833333Y-114935714D01*
X168738095Y-114983333D01*
X168642857Y-114983333D01*
X168547619Y-114935714D01*
X168500000Y-114888095D01*
X168452380Y-114792857D01*
X168452380Y-114554761D01*
X168500000Y-114411904D01*
X168452380Y-114078571D02*
X169452380Y-113840476D01*
X168738095Y-113650000D01*
X169452380Y-113459523D01*
X168452380Y-113221428D01*
X168452380Y-112935714D02*
X168452380Y-112269047D01*
X169452380Y-112697619D01*
G04 #@! TO.C,J1*
X159122380Y-103333333D02*
X159836666Y-103333333D01*
X159979523Y-103380952D01*
X160074761Y-103476190D01*
X160122380Y-103619047D01*
X160122380Y-103714285D01*
X160122380Y-102333333D02*
X160122380Y-102904761D01*
X160122380Y-102619047D02*
X159122380Y-102619047D01*
X159265238Y-102714285D01*
X159360476Y-102809523D01*
X159408095Y-102904761D01*
G04 #@! TO.C,C15*
X143107142Y-44757142D02*
X143059523Y-44804761D01*
X142916666Y-44852380D01*
X142821428Y-44852380D01*
X142678571Y-44804761D01*
X142583333Y-44709523D01*
X142535714Y-44614285D01*
X142488095Y-44423809D01*
X142488095Y-44280952D01*
X142535714Y-44090476D01*
X142583333Y-43995238D01*
X142678571Y-43900000D01*
X142821428Y-43852380D01*
X142916666Y-43852380D01*
X143059523Y-43900000D01*
X143107142Y-43947619D01*
X144059523Y-44852380D02*
X143488095Y-44852380D01*
X143773809Y-44852380D02*
X143773809Y-43852380D01*
X143678571Y-43995238D01*
X143583333Y-44090476D01*
X143488095Y-44138095D01*
X144964285Y-43852380D02*
X144488095Y-43852380D01*
X144440476Y-44328571D01*
X144488095Y-44280952D01*
X144583333Y-44233333D01*
X144821428Y-44233333D01*
X144916666Y-44280952D01*
X144964285Y-44328571D01*
X145011904Y-44423809D01*
X145011904Y-44661904D01*
X144964285Y-44757142D01*
X144916666Y-44804761D01*
X144821428Y-44852380D01*
X144583333Y-44852380D01*
X144488095Y-44804761D01*
X144440476Y-44757142D01*
G04 #@! TO.C,C13*
X143107142Y-52757142D02*
X143059523Y-52804761D01*
X142916666Y-52852380D01*
X142821428Y-52852380D01*
X142678571Y-52804761D01*
X142583333Y-52709523D01*
X142535714Y-52614285D01*
X142488095Y-52423809D01*
X142488095Y-52280952D01*
X142535714Y-52090476D01*
X142583333Y-51995238D01*
X142678571Y-51900000D01*
X142821428Y-51852380D01*
X142916666Y-51852380D01*
X143059523Y-51900000D01*
X143107142Y-51947619D01*
X144059523Y-52852380D02*
X143488095Y-52852380D01*
X143773809Y-52852380D02*
X143773809Y-51852380D01*
X143678571Y-51995238D01*
X143583333Y-52090476D01*
X143488095Y-52138095D01*
X144392857Y-51852380D02*
X145011904Y-51852380D01*
X144678571Y-52233333D01*
X144821428Y-52233333D01*
X144916666Y-52280952D01*
X144964285Y-52328571D01*
X145011904Y-52423809D01*
X145011904Y-52661904D01*
X144964285Y-52757142D01*
X144916666Y-52804761D01*
X144821428Y-52852380D01*
X144535714Y-52852380D01*
X144440476Y-52804761D01*
X144392857Y-52757142D01*
G04 #@! TO.C,C12*
X147757142Y-64892857D02*
X147804761Y-64940476D01*
X147852380Y-65083333D01*
X147852380Y-65178571D01*
X147804761Y-65321428D01*
X147709523Y-65416666D01*
X147614285Y-65464285D01*
X147423809Y-65511904D01*
X147280952Y-65511904D01*
X147090476Y-65464285D01*
X146995238Y-65416666D01*
X146900000Y-65321428D01*
X146852380Y-65178571D01*
X146852380Y-65083333D01*
X146900000Y-64940476D01*
X146947619Y-64892857D01*
X147852380Y-63940476D02*
X147852380Y-64511904D01*
X147852380Y-64226190D02*
X146852380Y-64226190D01*
X146995238Y-64321428D01*
X147090476Y-64416666D01*
X147138095Y-64511904D01*
X146947619Y-63559523D02*
X146900000Y-63511904D01*
X146852380Y-63416666D01*
X146852380Y-63178571D01*
X146900000Y-63083333D01*
X146947619Y-63035714D01*
X147042857Y-62988095D01*
X147138095Y-62988095D01*
X147280952Y-63035714D01*
X147852380Y-63607142D01*
X147852380Y-62988095D01*
G04 #@! TO.C,C11*
X154757142Y-64892857D02*
X154804761Y-64940476D01*
X154852380Y-65083333D01*
X154852380Y-65178571D01*
X154804761Y-65321428D01*
X154709523Y-65416666D01*
X154614285Y-65464285D01*
X154423809Y-65511904D01*
X154280952Y-65511904D01*
X154090476Y-65464285D01*
X153995238Y-65416666D01*
X153900000Y-65321428D01*
X153852380Y-65178571D01*
X153852380Y-65083333D01*
X153900000Y-64940476D01*
X153947619Y-64892857D01*
X154852380Y-63940476D02*
X154852380Y-64511904D01*
X154852380Y-64226190D02*
X153852380Y-64226190D01*
X153995238Y-64321428D01*
X154090476Y-64416666D01*
X154138095Y-64511904D01*
X154852380Y-62988095D02*
X154852380Y-63559523D01*
X154852380Y-63273809D02*
X153852380Y-63273809D01*
X153995238Y-63369047D01*
X154090476Y-63464285D01*
X154138095Y-63559523D01*
G04 #@! TO.C,C17*
X101607142Y-74957142D02*
X101559523Y-75004761D01*
X101416666Y-75052380D01*
X101321428Y-75052380D01*
X101178571Y-75004761D01*
X101083333Y-74909523D01*
X101035714Y-74814285D01*
X100988095Y-74623809D01*
X100988095Y-74480952D01*
X101035714Y-74290476D01*
X101083333Y-74195238D01*
X101178571Y-74100000D01*
X101321428Y-74052380D01*
X101416666Y-74052380D01*
X101559523Y-74100000D01*
X101607142Y-74147619D01*
X102559523Y-75052380D02*
X101988095Y-75052380D01*
X102273809Y-75052380D02*
X102273809Y-74052380D01*
X102178571Y-74195238D01*
X102083333Y-74290476D01*
X101988095Y-74338095D01*
X102892857Y-74052380D02*
X103559523Y-74052380D01*
X103130952Y-75052380D01*
G04 #@! TO.C,C16*
X108607142Y-83057142D02*
X108559523Y-83104761D01*
X108416666Y-83152380D01*
X108321428Y-83152380D01*
X108178571Y-83104761D01*
X108083333Y-83009523D01*
X108035714Y-82914285D01*
X107988095Y-82723809D01*
X107988095Y-82580952D01*
X108035714Y-82390476D01*
X108083333Y-82295238D01*
X108178571Y-82200000D01*
X108321428Y-82152380D01*
X108416666Y-82152380D01*
X108559523Y-82200000D01*
X108607142Y-82247619D01*
X109559523Y-83152380D02*
X108988095Y-83152380D01*
X109273809Y-83152380D02*
X109273809Y-82152380D01*
X109178571Y-82295238D01*
X109083333Y-82390476D01*
X108988095Y-82438095D01*
X110416666Y-82152380D02*
X110226190Y-82152380D01*
X110130952Y-82200000D01*
X110083333Y-82247619D01*
X109988095Y-82390476D01*
X109940476Y-82580952D01*
X109940476Y-82961904D01*
X109988095Y-83057142D01*
X110035714Y-83104761D01*
X110130952Y-83152380D01*
X110321428Y-83152380D01*
X110416666Y-83104761D01*
X110464285Y-83057142D01*
X110511904Y-82961904D01*
X110511904Y-82723809D01*
X110464285Y-82628571D01*
X110416666Y-82580952D01*
X110321428Y-82533333D01*
X110130952Y-82533333D01*
X110035714Y-82580952D01*
X109988095Y-82628571D01*
X109940476Y-82723809D01*
G04 #@! TO.C,C18*
X108607142Y-79282143D02*
X108559523Y-79329762D01*
X108416666Y-79377381D01*
X108321428Y-79377381D01*
X108178571Y-79329762D01*
X108083333Y-79234524D01*
X108035714Y-79139286D01*
X107988095Y-78948810D01*
X107988095Y-78805953D01*
X108035714Y-78615477D01*
X108083333Y-78520239D01*
X108178571Y-78425001D01*
X108321428Y-78377381D01*
X108416666Y-78377381D01*
X108559523Y-78425001D01*
X108607142Y-78472620D01*
X109559523Y-79377381D02*
X108988095Y-79377381D01*
X109273809Y-79377381D02*
X109273809Y-78377381D01*
X109178571Y-78520239D01*
X109083333Y-78615477D01*
X108988095Y-78663096D01*
X110130952Y-78805953D02*
X110035714Y-78758334D01*
X109988095Y-78710715D01*
X109940476Y-78615477D01*
X109940476Y-78567858D01*
X109988095Y-78472620D01*
X110035714Y-78425001D01*
X110130952Y-78377381D01*
X110321428Y-78377381D01*
X110416666Y-78425001D01*
X110464285Y-78472620D01*
X110511904Y-78567858D01*
X110511904Y-78615477D01*
X110464285Y-78710715D01*
X110416666Y-78758334D01*
X110321428Y-78805953D01*
X110130952Y-78805953D01*
X110035714Y-78853572D01*
X109988095Y-78901191D01*
X109940476Y-78996429D01*
X109940476Y-79186905D01*
X109988095Y-79282143D01*
X110035714Y-79329762D01*
X110130952Y-79377381D01*
X110321428Y-79377381D01*
X110416666Y-79329762D01*
X110464285Y-79282143D01*
X110511904Y-79186905D01*
X110511904Y-78996429D01*
X110464285Y-78901191D01*
X110416666Y-78853572D01*
X110321428Y-78805953D01*
G04 #@! TO.C,C14*
X152657142Y-43892857D02*
X152704761Y-43940476D01*
X152752380Y-44083333D01*
X152752380Y-44178571D01*
X152704761Y-44321428D01*
X152609523Y-44416666D01*
X152514285Y-44464285D01*
X152323809Y-44511904D01*
X152180952Y-44511904D01*
X151990476Y-44464285D01*
X151895238Y-44416666D01*
X151800000Y-44321428D01*
X151752380Y-44178571D01*
X151752380Y-44083333D01*
X151800000Y-43940476D01*
X151847619Y-43892857D01*
X152752380Y-42940476D02*
X152752380Y-43511904D01*
X152752380Y-43226190D02*
X151752380Y-43226190D01*
X151895238Y-43321428D01*
X151990476Y-43416666D01*
X152038095Y-43511904D01*
X152085714Y-42083333D02*
X152752380Y-42083333D01*
X151704761Y-42321428D02*
X152419047Y-42559523D01*
X152419047Y-41940476D01*
G04 #@! TO.C,R11*
X116452380Y-82562857D02*
X115976190Y-82896190D01*
X116452380Y-83134285D02*
X115452380Y-83134285D01*
X115452380Y-82753333D01*
X115500000Y-82658095D01*
X115547619Y-82610476D01*
X115642857Y-82562857D01*
X115785714Y-82562857D01*
X115880952Y-82610476D01*
X115928571Y-82658095D01*
X115976190Y-82753333D01*
X115976190Y-83134285D01*
X116452380Y-81610476D02*
X116452380Y-82181904D01*
X116452380Y-81896190D02*
X115452380Y-81896190D01*
X115595238Y-81991428D01*
X115690476Y-82086666D01*
X115738095Y-82181904D01*
X116452380Y-80658095D02*
X116452380Y-81229523D01*
X116452380Y-80943809D02*
X115452380Y-80943809D01*
X115595238Y-81039047D01*
X115690476Y-81134285D01*
X115738095Y-81229523D01*
G04 #@! TO.C,C10*
X93607142Y-74957142D02*
X93559523Y-75004761D01*
X93416666Y-75052380D01*
X93321428Y-75052380D01*
X93178571Y-75004761D01*
X93083333Y-74909523D01*
X93035714Y-74814285D01*
X92988095Y-74623809D01*
X92988095Y-74480952D01*
X93035714Y-74290476D01*
X93083333Y-74195238D01*
X93178571Y-74100000D01*
X93321428Y-74052380D01*
X93416666Y-74052380D01*
X93559523Y-74100000D01*
X93607142Y-74147619D01*
X94559523Y-75052380D02*
X93988095Y-75052380D01*
X94273809Y-75052380D02*
X94273809Y-74052380D01*
X94178571Y-74195238D01*
X94083333Y-74290476D01*
X93988095Y-74338095D01*
X95178571Y-74052380D02*
X95273809Y-74052380D01*
X95369047Y-74100000D01*
X95416666Y-74147619D01*
X95464285Y-74242857D01*
X95511904Y-74433333D01*
X95511904Y-74671428D01*
X95464285Y-74861904D01*
X95416666Y-74957142D01*
X95369047Y-75004761D01*
X95273809Y-75052380D01*
X95178571Y-75052380D01*
X95083333Y-75004761D01*
X95035714Y-74957142D01*
X94988095Y-74861904D01*
X94940476Y-74671428D01*
X94940476Y-74433333D01*
X94988095Y-74242857D01*
X95035714Y-74147619D01*
X95083333Y-74100000D01*
X95178571Y-74052380D01*
G04 #@! TO.C,C7*
X171083333Y-59957142D02*
X171035714Y-60004761D01*
X170892857Y-60052380D01*
X170797619Y-60052380D01*
X170654761Y-60004761D01*
X170559523Y-59909523D01*
X170511904Y-59814285D01*
X170464285Y-59623809D01*
X170464285Y-59480952D01*
X170511904Y-59290476D01*
X170559523Y-59195238D01*
X170654761Y-59100000D01*
X170797619Y-59052380D01*
X170892857Y-59052380D01*
X171035714Y-59100000D01*
X171083333Y-59147619D01*
X171416666Y-59052380D02*
X172083333Y-59052380D01*
X171654761Y-60052380D01*
G04 #@! TO.C,C8*
X171083333Y-71957142D02*
X171035714Y-72004761D01*
X170892857Y-72052380D01*
X170797619Y-72052380D01*
X170654761Y-72004761D01*
X170559523Y-71909523D01*
X170511904Y-71814285D01*
X170464285Y-71623809D01*
X170464285Y-71480952D01*
X170511904Y-71290476D01*
X170559523Y-71195238D01*
X170654761Y-71100000D01*
X170797619Y-71052380D01*
X170892857Y-71052380D01*
X171035714Y-71100000D01*
X171083333Y-71147619D01*
X171654761Y-71480952D02*
X171559523Y-71433333D01*
X171511904Y-71385714D01*
X171464285Y-71290476D01*
X171464285Y-71242857D01*
X171511904Y-71147619D01*
X171559523Y-71100000D01*
X171654761Y-71052380D01*
X171845238Y-71052380D01*
X171940476Y-71100000D01*
X171988095Y-71147619D01*
X172035714Y-71242857D01*
X172035714Y-71290476D01*
X171988095Y-71385714D01*
X171940476Y-71433333D01*
X171845238Y-71480952D01*
X171654761Y-71480952D01*
X171559523Y-71528571D01*
X171511904Y-71576190D01*
X171464285Y-71671428D01*
X171464285Y-71861904D01*
X171511904Y-71957142D01*
X171559523Y-72004761D01*
X171654761Y-72052380D01*
X171845238Y-72052380D01*
X171940476Y-72004761D01*
X171988095Y-71957142D01*
X172035714Y-71861904D01*
X172035714Y-71671428D01*
X171988095Y-71576190D01*
X171940476Y-71528571D01*
X171845238Y-71480952D01*
G04 #@! TO.C,C9*
X153057142Y-65916666D02*
X153104761Y-65964285D01*
X153152380Y-66107142D01*
X153152380Y-66202380D01*
X153104761Y-66345238D01*
X153009523Y-66440476D01*
X152914285Y-66488095D01*
X152723809Y-66535714D01*
X152580952Y-66535714D01*
X152390476Y-66488095D01*
X152295238Y-66440476D01*
X152200000Y-66345238D01*
X152152380Y-66202380D01*
X152152380Y-66107142D01*
X152200000Y-65964285D01*
X152247619Y-65916666D01*
X153152380Y-65440476D02*
X153152380Y-65250000D01*
X153104761Y-65154761D01*
X153057142Y-65107142D01*
X152914285Y-65011904D01*
X152723809Y-64964285D01*
X152342857Y-64964285D01*
X152247619Y-65011904D01*
X152200000Y-65059523D01*
X152152380Y-65154761D01*
X152152380Y-65345238D01*
X152200000Y-65440476D01*
X152247619Y-65488095D01*
X152342857Y-65535714D01*
X152580952Y-65535714D01*
X152676190Y-65488095D01*
X152723809Y-65440476D01*
X152771428Y-65345238D01*
X152771428Y-65154761D01*
X152723809Y-65059523D01*
X152676190Y-65011904D01*
X152580952Y-64964285D01*
G04 #@! TO.C,U3*
X91122380Y-89951904D02*
X91931904Y-89951904D01*
X92027142Y-89904285D01*
X92074761Y-89856666D01*
X92122380Y-89761428D01*
X92122380Y-89570952D01*
X92074761Y-89475714D01*
X92027142Y-89428095D01*
X91931904Y-89380476D01*
X91122380Y-89380476D01*
X91122380Y-88999523D02*
X91122380Y-88380476D01*
X91503333Y-88713809D01*
X91503333Y-88570952D01*
X91550952Y-88475714D01*
X91598571Y-88428095D01*
X91693809Y-88380476D01*
X91931904Y-88380476D01*
X92027142Y-88428095D01*
X92074761Y-88475714D01*
X92122380Y-88570952D01*
X92122380Y-88856666D01*
X92074761Y-88951904D01*
X92027142Y-88999523D01*
G04 #@! TO.C,R10*
X97437142Y-95082380D02*
X97103809Y-94606190D01*
X96865714Y-95082380D02*
X96865714Y-94082380D01*
X97246666Y-94082380D01*
X97341904Y-94130000D01*
X97389523Y-94177619D01*
X97437142Y-94272857D01*
X97437142Y-94415714D01*
X97389523Y-94510952D01*
X97341904Y-94558571D01*
X97246666Y-94606190D01*
X96865714Y-94606190D01*
X98389523Y-95082380D02*
X97818095Y-95082380D01*
X98103809Y-95082380D02*
X98103809Y-94082380D01*
X98008571Y-94225238D01*
X97913333Y-94320476D01*
X97818095Y-94368095D01*
X99008571Y-94082380D02*
X99103809Y-94082380D01*
X99199047Y-94130000D01*
X99246666Y-94177619D01*
X99294285Y-94272857D01*
X99341904Y-94463333D01*
X99341904Y-94701428D01*
X99294285Y-94891904D01*
X99246666Y-94987142D01*
X99199047Y-95034761D01*
X99103809Y-95082380D01*
X99008571Y-95082380D01*
X98913333Y-95034761D01*
X98865714Y-94987142D01*
X98818095Y-94891904D01*
X98770476Y-94701428D01*
X98770476Y-94463333D01*
X98818095Y-94272857D01*
X98865714Y-94177619D01*
X98913333Y-94130000D01*
X99008571Y-94082380D01*
G04 #@! TO.C,R8*
X145265182Y-55671757D02*
X144931849Y-55195567D01*
X144693753Y-55671757D02*
X144693753Y-54671757D01*
X145074706Y-54671757D01*
X145169944Y-54719377D01*
X145217563Y-54766996D01*
X145265182Y-54862234D01*
X145265182Y-55005091D01*
X145217563Y-55100329D01*
X145169944Y-55147948D01*
X145074706Y-55195567D01*
X144693753Y-55195567D01*
X145836610Y-55100329D02*
X145741372Y-55052710D01*
X145693753Y-55005091D01*
X145646134Y-54909853D01*
X145646134Y-54862234D01*
X145693753Y-54766996D01*
X145741372Y-54719377D01*
X145836610Y-54671757D01*
X146027087Y-54671757D01*
X146122325Y-54719377D01*
X146169944Y-54766996D01*
X146217563Y-54862234D01*
X146217563Y-54909853D01*
X146169944Y-55005091D01*
X146122325Y-55052710D01*
X146027087Y-55100329D01*
X145836610Y-55100329D01*
X145741372Y-55147948D01*
X145693753Y-55195567D01*
X145646134Y-55290805D01*
X145646134Y-55481281D01*
X145693753Y-55576519D01*
X145741372Y-55624138D01*
X145836610Y-55671757D01*
X146027087Y-55671757D01*
X146122325Y-55624138D01*
X146169944Y-55576519D01*
X146217563Y-55481281D01*
X146217563Y-55290805D01*
X146169944Y-55195567D01*
X146122325Y-55147948D01*
X146027087Y-55100329D01*
G04 #@! TO.C,R9*
X97913333Y-99082380D02*
X97580000Y-98606190D01*
X97341904Y-99082380D02*
X97341904Y-98082380D01*
X97722857Y-98082380D01*
X97818095Y-98130000D01*
X97865714Y-98177619D01*
X97913333Y-98272857D01*
X97913333Y-98415714D01*
X97865714Y-98510952D01*
X97818095Y-98558571D01*
X97722857Y-98606190D01*
X97341904Y-98606190D01*
X98389523Y-99082380D02*
X98580000Y-99082380D01*
X98675238Y-99034761D01*
X98722857Y-98987142D01*
X98818095Y-98844285D01*
X98865714Y-98653809D01*
X98865714Y-98272857D01*
X98818095Y-98177619D01*
X98770476Y-98130000D01*
X98675238Y-98082380D01*
X98484761Y-98082380D01*
X98389523Y-98130000D01*
X98341904Y-98177619D01*
X98294285Y-98272857D01*
X98294285Y-98510952D01*
X98341904Y-98606190D01*
X98389523Y-98653809D01*
X98484761Y-98701428D01*
X98675238Y-98701428D01*
X98770476Y-98653809D01*
X98818095Y-98606190D01*
X98865714Y-98510952D01*
G04 #@! TO.C,U2*
X161048095Y-49122380D02*
X161048095Y-49931904D01*
X161095714Y-50027142D01*
X161143333Y-50074761D01*
X161238571Y-50122380D01*
X161429047Y-50122380D01*
X161524285Y-50074761D01*
X161571904Y-50027142D01*
X161619523Y-49931904D01*
X161619523Y-49122380D01*
X162048095Y-49217619D02*
X162095714Y-49170000D01*
X162190952Y-49122380D01*
X162429047Y-49122380D01*
X162524285Y-49170000D01*
X162571904Y-49217619D01*
X162619523Y-49312857D01*
X162619523Y-49408095D01*
X162571904Y-49550952D01*
X162000476Y-50122380D01*
X162619523Y-50122380D01*
G04 #@! TO.C,U1*
X127428095Y-61782380D02*
X127428095Y-62591904D01*
X127475714Y-62687142D01*
X127523333Y-62734761D01*
X127618571Y-62782380D01*
X127809047Y-62782380D01*
X127904285Y-62734761D01*
X127951904Y-62687142D01*
X127999523Y-62591904D01*
X127999523Y-61782380D01*
X128999523Y-62782380D02*
X128428095Y-62782380D01*
X128713809Y-62782380D02*
X128713809Y-61782380D01*
X128618571Y-61925238D01*
X128523333Y-62020476D01*
X128428095Y-62068095D01*
G04 #@! TO.C,SW6*
X156404761Y-114983333D02*
X156452380Y-114840476D01*
X156452380Y-114602380D01*
X156404761Y-114507142D01*
X156357142Y-114459523D01*
X156261904Y-114411904D01*
X156166666Y-114411904D01*
X156071428Y-114459523D01*
X156023809Y-114507142D01*
X155976190Y-114602380D01*
X155928571Y-114792857D01*
X155880952Y-114888095D01*
X155833333Y-114935714D01*
X155738095Y-114983333D01*
X155642857Y-114983333D01*
X155547619Y-114935714D01*
X155500000Y-114888095D01*
X155452380Y-114792857D01*
X155452380Y-114554761D01*
X155500000Y-114411904D01*
X155452380Y-114078571D02*
X156452380Y-113840476D01*
X155738095Y-113650000D01*
X156452380Y-113459523D01*
X155452380Y-113221428D01*
X155452380Y-112411904D02*
X155452380Y-112602380D01*
X155500000Y-112697619D01*
X155547619Y-112745238D01*
X155690476Y-112840476D01*
X155880952Y-112888095D01*
X156261904Y-112888095D01*
X156357142Y-112840476D01*
X156404761Y-112792857D01*
X156452380Y-112697619D01*
X156452380Y-112507142D01*
X156404761Y-112411904D01*
X156357142Y-112364285D01*
X156261904Y-112316666D01*
X156023809Y-112316666D01*
X155928571Y-112364285D01*
X155880952Y-112411904D01*
X155833333Y-112507142D01*
X155833333Y-112697619D01*
X155880952Y-112792857D01*
X155928571Y-112840476D01*
X156023809Y-112888095D01*
G04 #@! TO.C,SW5*
X143404761Y-114983333D02*
X143452380Y-114840476D01*
X143452380Y-114602380D01*
X143404761Y-114507142D01*
X143357142Y-114459523D01*
X143261904Y-114411904D01*
X143166666Y-114411904D01*
X143071428Y-114459523D01*
X143023809Y-114507142D01*
X142976190Y-114602380D01*
X142928571Y-114792857D01*
X142880952Y-114888095D01*
X142833333Y-114935714D01*
X142738095Y-114983333D01*
X142642857Y-114983333D01*
X142547619Y-114935714D01*
X142500000Y-114888095D01*
X142452380Y-114792857D01*
X142452380Y-114554761D01*
X142500000Y-114411904D01*
X142452380Y-114078571D02*
X143452380Y-113840476D01*
X142738095Y-113650000D01*
X143452380Y-113459523D01*
X142452380Y-113221428D01*
X142452380Y-112364285D02*
X142452380Y-112840476D01*
X142928571Y-112888095D01*
X142880952Y-112840476D01*
X142833333Y-112745238D01*
X142833333Y-112507142D01*
X142880952Y-112411904D01*
X142928571Y-112364285D01*
X143023809Y-112316666D01*
X143261904Y-112316666D01*
X143357142Y-112364285D01*
X143404761Y-112411904D01*
X143452380Y-112507142D01*
X143452380Y-112745238D01*
X143404761Y-112840476D01*
X143357142Y-112888095D01*
G04 #@! TO.C,SW4*
X123404761Y-114983333D02*
X123452380Y-114840476D01*
X123452380Y-114602380D01*
X123404761Y-114507142D01*
X123357142Y-114459523D01*
X123261904Y-114411904D01*
X123166666Y-114411904D01*
X123071428Y-114459523D01*
X123023809Y-114507142D01*
X122976190Y-114602380D01*
X122928571Y-114792857D01*
X122880952Y-114888095D01*
X122833333Y-114935714D01*
X122738095Y-114983333D01*
X122642857Y-114983333D01*
X122547619Y-114935714D01*
X122500000Y-114888095D01*
X122452380Y-114792857D01*
X122452380Y-114554761D01*
X122500000Y-114411904D01*
X122452380Y-114078571D02*
X123452380Y-113840476D01*
X122738095Y-113650000D01*
X123452380Y-113459523D01*
X122452380Y-113221428D01*
X122785714Y-112411904D02*
X123452380Y-112411904D01*
X122404761Y-112650000D02*
X123119047Y-112888095D01*
X123119047Y-112269047D01*
G04 #@! TO.C,SW3*
X110404761Y-114983333D02*
X110452380Y-114840476D01*
X110452380Y-114602380D01*
X110404761Y-114507142D01*
X110357142Y-114459523D01*
X110261904Y-114411904D01*
X110166666Y-114411904D01*
X110071428Y-114459523D01*
X110023809Y-114507142D01*
X109976190Y-114602380D01*
X109928571Y-114792857D01*
X109880952Y-114888095D01*
X109833333Y-114935714D01*
X109738095Y-114983333D01*
X109642857Y-114983333D01*
X109547619Y-114935714D01*
X109500000Y-114888095D01*
X109452380Y-114792857D01*
X109452380Y-114554761D01*
X109500000Y-114411904D01*
X109452380Y-114078571D02*
X110452380Y-113840476D01*
X109738095Y-113650000D01*
X110452380Y-113459523D01*
X109452380Y-113221428D01*
X109452380Y-112935714D02*
X109452380Y-112316666D01*
X109833333Y-112650000D01*
X109833333Y-112507142D01*
X109880952Y-112411904D01*
X109928571Y-112364285D01*
X110023809Y-112316666D01*
X110261904Y-112316666D01*
X110357142Y-112364285D01*
X110404761Y-112411904D01*
X110452380Y-112507142D01*
X110452380Y-112792857D01*
X110404761Y-112888095D01*
X110357142Y-112935714D01*
G04 #@! TO.C,SW2*
X97404761Y-114983333D02*
X97452380Y-114840476D01*
X97452380Y-114602380D01*
X97404761Y-114507142D01*
X97357142Y-114459523D01*
X97261904Y-114411904D01*
X97166666Y-114411904D01*
X97071428Y-114459523D01*
X97023809Y-114507142D01*
X96976190Y-114602380D01*
X96928571Y-114792857D01*
X96880952Y-114888095D01*
X96833333Y-114935714D01*
X96738095Y-114983333D01*
X96642857Y-114983333D01*
X96547619Y-114935714D01*
X96500000Y-114888095D01*
X96452380Y-114792857D01*
X96452380Y-114554761D01*
X96500000Y-114411904D01*
X96452380Y-114078571D02*
X97452380Y-113840476D01*
X96738095Y-113650000D01*
X97452380Y-113459523D01*
X96452380Y-113221428D01*
X96547619Y-112888095D02*
X96500000Y-112840476D01*
X96452380Y-112745238D01*
X96452380Y-112507142D01*
X96500000Y-112411904D01*
X96547619Y-112364285D01*
X96642857Y-112316666D01*
X96738095Y-112316666D01*
X96880952Y-112364285D01*
X97452380Y-112935714D01*
X97452380Y-112316666D01*
G04 #@! TO.C,C1*
X123757142Y-55416666D02*
X123804761Y-55464285D01*
X123852380Y-55607142D01*
X123852380Y-55702380D01*
X123804761Y-55845238D01*
X123709523Y-55940476D01*
X123614285Y-55988095D01*
X123423809Y-56035714D01*
X123280952Y-56035714D01*
X123090476Y-55988095D01*
X122995238Y-55940476D01*
X122900000Y-55845238D01*
X122852380Y-55702380D01*
X122852380Y-55607142D01*
X122900000Y-55464285D01*
X122947619Y-55416666D01*
X123852380Y-54464285D02*
X123852380Y-55035714D01*
X123852380Y-54750000D02*
X122852380Y-54750000D01*
X122995238Y-54845238D01*
X123090476Y-54940476D01*
X123138095Y-55035714D01*
G04 #@! TO.C,C3*
X123757142Y-62416666D02*
X123804761Y-62464285D01*
X123852380Y-62607142D01*
X123852380Y-62702380D01*
X123804761Y-62845238D01*
X123709523Y-62940476D01*
X123614285Y-62988095D01*
X123423809Y-63035714D01*
X123280952Y-63035714D01*
X123090476Y-62988095D01*
X122995238Y-62940476D01*
X122900000Y-62845238D01*
X122852380Y-62702380D01*
X122852380Y-62607142D01*
X122900000Y-62464285D01*
X122947619Y-62416666D01*
X122852380Y-62083333D02*
X122852380Y-61464285D01*
X123233333Y-61797619D01*
X123233333Y-61654761D01*
X123280952Y-61559523D01*
X123328571Y-61511904D01*
X123423809Y-61464285D01*
X123661904Y-61464285D01*
X123757142Y-61511904D01*
X123804761Y-61559523D01*
X123852380Y-61654761D01*
X123852380Y-61940476D01*
X123804761Y-62035714D01*
X123757142Y-62083333D01*
G04 #@! TO.C,C6*
X154657142Y-85416666D02*
X154704761Y-85464285D01*
X154752380Y-85607142D01*
X154752380Y-85702380D01*
X154704761Y-85845238D01*
X154609523Y-85940476D01*
X154514285Y-85988095D01*
X154323809Y-86035714D01*
X154180952Y-86035714D01*
X153990476Y-85988095D01*
X153895238Y-85940476D01*
X153800000Y-85845238D01*
X153752380Y-85702380D01*
X153752380Y-85607142D01*
X153800000Y-85464285D01*
X153847619Y-85416666D01*
X153752380Y-84559523D02*
X153752380Y-84750000D01*
X153800000Y-84845238D01*
X153847619Y-84892857D01*
X153990476Y-84988095D01*
X154180952Y-85035714D01*
X154561904Y-85035714D01*
X154657142Y-84988095D01*
X154704761Y-84940476D01*
X154752380Y-84845238D01*
X154752380Y-84654761D01*
X154704761Y-84559523D01*
X154657142Y-84511904D01*
X154561904Y-84464285D01*
X154323809Y-84464285D01*
X154228571Y-84511904D01*
X154180952Y-84559523D01*
X154133333Y-84654761D01*
X154133333Y-84845238D01*
X154180952Y-84940476D01*
X154228571Y-84988095D01*
X154323809Y-85035714D01*
G04 #@! TO.C,C2*
X137657142Y-56416666D02*
X137704761Y-56464285D01*
X137752380Y-56607142D01*
X137752380Y-56702380D01*
X137704761Y-56845238D01*
X137609523Y-56940476D01*
X137514285Y-56988095D01*
X137323809Y-57035714D01*
X137180952Y-57035714D01*
X136990476Y-56988095D01*
X136895238Y-56940476D01*
X136800000Y-56845238D01*
X136752380Y-56702380D01*
X136752380Y-56607142D01*
X136800000Y-56464285D01*
X136847619Y-56416666D01*
X136847619Y-56035714D02*
X136800000Y-55988095D01*
X136752380Y-55892857D01*
X136752380Y-55654761D01*
X136800000Y-55559523D01*
X136847619Y-55511904D01*
X136942857Y-55464285D01*
X137038095Y-55464285D01*
X137180952Y-55511904D01*
X137752380Y-56083333D01*
X137752380Y-55464285D01*
G04 #@! TO.C,C4*
X171657142Y-70416666D02*
X171704761Y-70464285D01*
X171752380Y-70607142D01*
X171752380Y-70702380D01*
X171704761Y-70845238D01*
X171609523Y-70940476D01*
X171514285Y-70988095D01*
X171323809Y-71035714D01*
X171180952Y-71035714D01*
X170990476Y-70988095D01*
X170895238Y-70940476D01*
X170800000Y-70845238D01*
X170752380Y-70702380D01*
X170752380Y-70607142D01*
X170800000Y-70464285D01*
X170847619Y-70416666D01*
X171085714Y-69559523D02*
X171752380Y-69559523D01*
X170704761Y-69797619D02*
X171419047Y-70035714D01*
X171419047Y-69416666D01*
G04 #@! TO.C,C5*
X149657142Y-85416666D02*
X149704761Y-85464285D01*
X149752380Y-85607142D01*
X149752380Y-85702380D01*
X149704761Y-85845238D01*
X149609523Y-85940476D01*
X149514285Y-85988095D01*
X149323809Y-86035714D01*
X149180952Y-86035714D01*
X148990476Y-85988095D01*
X148895238Y-85940476D01*
X148800000Y-85845238D01*
X148752380Y-85702380D01*
X148752380Y-85607142D01*
X148800000Y-85464285D01*
X148847619Y-85416666D01*
X148752380Y-84511904D02*
X148752380Y-84988095D01*
X149228571Y-85035714D01*
X149180952Y-84988095D01*
X149133333Y-84892857D01*
X149133333Y-84654761D01*
X149180952Y-84559523D01*
X149228571Y-84511904D01*
X149323809Y-84464285D01*
X149561904Y-84464285D01*
X149657142Y-84511904D01*
X149704761Y-84559523D01*
X149752380Y-84654761D01*
X149752380Y-84892857D01*
X149704761Y-84988095D01*
X149657142Y-85035714D01*
G04 #@! TO.C,BT1*
X163258571Y-126785714D02*
X163306190Y-126642857D01*
X163353809Y-126595238D01*
X163449047Y-126547619D01*
X163591904Y-126547619D01*
X163687142Y-126595238D01*
X163734761Y-126642857D01*
X163782380Y-126738095D01*
X163782380Y-127119047D01*
X162782380Y-127119047D01*
X162782380Y-126785714D01*
X162830000Y-126690476D01*
X162877619Y-126642857D01*
X162972857Y-126595238D01*
X163068095Y-126595238D01*
X163163333Y-126642857D01*
X163210952Y-126690476D01*
X163258571Y-126785714D01*
X163258571Y-127119047D01*
X162782380Y-126261904D02*
X162782380Y-125690476D01*
X163782380Y-125976190D02*
X162782380Y-125976190D01*
X163782380Y-124833333D02*
X163782380Y-125404761D01*
X163782380Y-125119047D02*
X162782380Y-125119047D01*
X162925238Y-125214285D01*
X163020476Y-125309523D01*
X163068095Y-125404761D01*
G04 #@! TO.C,J6*
X164666666Y-88122380D02*
X164666666Y-88836666D01*
X164619047Y-88979523D01*
X164523809Y-89074761D01*
X164380952Y-89122380D01*
X164285714Y-89122380D01*
X165571428Y-88122380D02*
X165380952Y-88122380D01*
X165285714Y-88170000D01*
X165238095Y-88217619D01*
X165142857Y-88360476D01*
X165095238Y-88550952D01*
X165095238Y-88931904D01*
X165142857Y-89027142D01*
X165190476Y-89074761D01*
X165285714Y-89122380D01*
X165476190Y-89122380D01*
X165571428Y-89074761D01*
X165619047Y-89027142D01*
X165666666Y-88931904D01*
X165666666Y-88693809D01*
X165619047Y-88598571D01*
X165571428Y-88550952D01*
X165476190Y-88503333D01*
X165285714Y-88503333D01*
X165190476Y-88550952D01*
X165142857Y-88598571D01*
X165095238Y-88693809D01*
G04 #@! TO.C,J8*
X169666666Y-100782380D02*
X169666666Y-101496666D01*
X169619047Y-101639523D01*
X169523809Y-101734761D01*
X169380952Y-101782380D01*
X169285714Y-101782380D01*
X170285714Y-101210952D02*
X170190476Y-101163333D01*
X170142857Y-101115714D01*
X170095238Y-101020476D01*
X170095238Y-100972857D01*
X170142857Y-100877619D01*
X170190476Y-100830000D01*
X170285714Y-100782380D01*
X170476190Y-100782380D01*
X170571428Y-100830000D01*
X170619047Y-100877619D01*
X170666666Y-100972857D01*
X170666666Y-101020476D01*
X170619047Y-101115714D01*
X170571428Y-101163333D01*
X170476190Y-101210952D01*
X170285714Y-101210952D01*
X170190476Y-101258571D01*
X170142857Y-101306190D01*
X170095238Y-101401428D01*
X170095238Y-101591904D01*
X170142857Y-101687142D01*
X170190476Y-101734761D01*
X170285714Y-101782380D01*
X170476190Y-101782380D01*
X170571428Y-101734761D01*
X170619047Y-101687142D01*
X170666666Y-101591904D01*
X170666666Y-101401428D01*
X170619047Y-101306190D01*
X170571428Y-101258571D01*
X170476190Y-101210952D01*
G04 #@! TO.C,J5*
X153666666Y-46122380D02*
X153666666Y-46836666D01*
X153619047Y-46979523D01*
X153523809Y-47074761D01*
X153380952Y-47122380D01*
X153285714Y-47122380D01*
X154619047Y-46122380D02*
X154142857Y-46122380D01*
X154095238Y-46598571D01*
X154142857Y-46550952D01*
X154238095Y-46503333D01*
X154476190Y-46503333D01*
X154571428Y-46550952D01*
X154619047Y-46598571D01*
X154666666Y-46693809D01*
X154666666Y-46931904D01*
X154619047Y-47027142D01*
X154571428Y-47074761D01*
X154476190Y-47122380D01*
X154238095Y-47122380D01*
X154142857Y-47074761D01*
X154095238Y-47027142D01*
G04 #@! TO.C,J7*
X169666666Y-59782380D02*
X169666666Y-60496666D01*
X169619047Y-60639523D01*
X169523809Y-60734761D01*
X169380952Y-60782380D01*
X169285714Y-60782380D01*
X170047619Y-59782380D02*
X170714285Y-59782380D01*
X170285714Y-60782380D01*
G04 #@! TO.C,Y1*
X148963809Y-76451190D02*
X148963809Y-76927380D01*
X148630476Y-75927380D02*
X148963809Y-76451190D01*
X149297142Y-75927380D01*
X150154285Y-76927380D02*
X149582857Y-76927380D01*
X149868571Y-76927380D02*
X149868571Y-75927380D01*
X149773333Y-76070238D01*
X149678095Y-76165476D01*
X149582857Y-76213095D01*
G04 #@! TO.C,D1*
X129181904Y-66922380D02*
X129181904Y-65922380D01*
X129420000Y-65922380D01*
X129562857Y-65970000D01*
X129658095Y-66065238D01*
X129705714Y-66160476D01*
X129753333Y-66350952D01*
X129753333Y-66493809D01*
X129705714Y-66684285D01*
X129658095Y-66779523D01*
X129562857Y-66874761D01*
X129420000Y-66922380D01*
X129181904Y-66922380D01*
X130705714Y-66922380D02*
X130134285Y-66922380D01*
X130420000Y-66922380D02*
X130420000Y-65922380D01*
X130324761Y-66065238D01*
X130229523Y-66160476D01*
X130134285Y-66208095D01*
X134738095Y-66552380D02*
X134738095Y-65552380D01*
X135309523Y-66552380D02*
X134880952Y-65980952D01*
X135309523Y-65552380D02*
X134738095Y-66123809D01*
G04 #@! TO.C,L1*
X113702380Y-55166666D02*
X113702380Y-55642857D01*
X112702380Y-55642857D01*
X113702380Y-54309523D02*
X113702380Y-54880952D01*
X113702380Y-54595238D02*
X112702380Y-54595238D01*
X112845238Y-54690476D01*
X112940476Y-54785714D01*
X112988095Y-54880952D01*
G04 #@! TO.C,D2*
X108261904Y-72452380D02*
X108261904Y-71452380D01*
X108500000Y-71452380D01*
X108642857Y-71500000D01*
X108738095Y-71595238D01*
X108785714Y-71690476D01*
X108833333Y-71880952D01*
X108833333Y-72023809D01*
X108785714Y-72214285D01*
X108738095Y-72309523D01*
X108642857Y-72404761D01*
X108500000Y-72452380D01*
X108261904Y-72452380D01*
X109214285Y-71547619D02*
X109261904Y-71500000D01*
X109357142Y-71452380D01*
X109595238Y-71452380D01*
X109690476Y-71500000D01*
X109738095Y-71547619D01*
X109785714Y-71642857D01*
X109785714Y-71738095D01*
X109738095Y-71880952D01*
X109166666Y-72452380D01*
X109785714Y-72452380D01*
G04 #@! TO.C,D3*
X121531904Y-68492380D02*
X121531904Y-67492380D01*
X121770000Y-67492380D01*
X121912857Y-67540000D01*
X122008095Y-67635238D01*
X122055714Y-67730476D01*
X122103333Y-67920952D01*
X122103333Y-68063809D01*
X122055714Y-68254285D01*
X122008095Y-68349523D01*
X121912857Y-68444761D01*
X121770000Y-68492380D01*
X121531904Y-68492380D01*
X122436666Y-67492380D02*
X123055714Y-67492380D01*
X122722380Y-67873333D01*
X122865238Y-67873333D01*
X122960476Y-67920952D01*
X123008095Y-67968571D01*
X123055714Y-68063809D01*
X123055714Y-68301904D01*
X123008095Y-68397142D01*
X122960476Y-68444761D01*
X122865238Y-68492380D01*
X122579523Y-68492380D01*
X122484285Y-68444761D01*
X122436666Y-68397142D01*
G04 #@! TO.C,D4*
X130531904Y-68492380D02*
X130531904Y-67492380D01*
X130770000Y-67492380D01*
X130912857Y-67540000D01*
X131008095Y-67635238D01*
X131055714Y-67730476D01*
X131103333Y-67920952D01*
X131103333Y-68063809D01*
X131055714Y-68254285D01*
X131008095Y-68349523D01*
X130912857Y-68444761D01*
X130770000Y-68492380D01*
X130531904Y-68492380D01*
X131960476Y-67825714D02*
X131960476Y-68492380D01*
X131722380Y-67444761D02*
X131484285Y-68159047D01*
X132103333Y-68159047D01*
G04 #@! TO.C,D6*
X148531904Y-68492380D02*
X148531904Y-67492380D01*
X148770000Y-67492380D01*
X148912857Y-67540000D01*
X149008095Y-67635238D01*
X149055714Y-67730476D01*
X149103333Y-67920952D01*
X149103333Y-68063809D01*
X149055714Y-68254285D01*
X149008095Y-68349523D01*
X148912857Y-68444761D01*
X148770000Y-68492380D01*
X148531904Y-68492380D01*
X149960476Y-67492380D02*
X149770000Y-67492380D01*
X149674761Y-67540000D01*
X149627142Y-67587619D01*
X149531904Y-67730476D01*
X149484285Y-67920952D01*
X149484285Y-68301904D01*
X149531904Y-68397142D01*
X149579523Y-68444761D01*
X149674761Y-68492380D01*
X149865238Y-68492380D01*
X149960476Y-68444761D01*
X150008095Y-68397142D01*
X150055714Y-68301904D01*
X150055714Y-68063809D01*
X150008095Y-67968571D01*
X149960476Y-67920952D01*
X149865238Y-67873333D01*
X149674761Y-67873333D01*
X149579523Y-67920952D01*
X149531904Y-67968571D01*
X149484285Y-68063809D01*
G04 #@! TO.C,D5*
X139531904Y-68492380D02*
X139531904Y-67492380D01*
X139770000Y-67492380D01*
X139912857Y-67540000D01*
X140008095Y-67635238D01*
X140055714Y-67730476D01*
X140103333Y-67920952D01*
X140103333Y-68063809D01*
X140055714Y-68254285D01*
X140008095Y-68349523D01*
X139912857Y-68444761D01*
X139770000Y-68492380D01*
X139531904Y-68492380D01*
X141008095Y-67492380D02*
X140531904Y-67492380D01*
X140484285Y-67968571D01*
X140531904Y-67920952D01*
X140627142Y-67873333D01*
X140865238Y-67873333D01*
X140960476Y-67920952D01*
X141008095Y-67968571D01*
X141055714Y-68063809D01*
X141055714Y-68301904D01*
X141008095Y-68397142D01*
X140960476Y-68444761D01*
X140865238Y-68492380D01*
X140627142Y-68492380D01*
X140531904Y-68444761D01*
X140484285Y-68397142D01*
G04 #@! TO.C,RV2*
X120602380Y-96645238D02*
X120126190Y-96978571D01*
X120602380Y-97216666D02*
X119602380Y-97216666D01*
X119602380Y-96835714D01*
X119650000Y-96740476D01*
X119697619Y-96692857D01*
X119792857Y-96645238D01*
X119935714Y-96645238D01*
X120030952Y-96692857D01*
X120078571Y-96740476D01*
X120126190Y-96835714D01*
X120126190Y-97216666D01*
X119602380Y-96359523D02*
X120602380Y-96026190D01*
X119602380Y-95692857D01*
X119697619Y-95407142D02*
X119650000Y-95359523D01*
X119602380Y-95264285D01*
X119602380Y-95026190D01*
X119650000Y-94930952D01*
X119697619Y-94883333D01*
X119792857Y-94835714D01*
X119888095Y-94835714D01*
X120030952Y-94883333D01*
X120602380Y-95454761D01*
X120602380Y-94835714D01*
G04 #@! TO.C,RV3*
X160602380Y-96645238D02*
X160126190Y-96978571D01*
X160602380Y-97216666D02*
X159602380Y-97216666D01*
X159602380Y-96835714D01*
X159650000Y-96740476D01*
X159697619Y-96692857D01*
X159792857Y-96645238D01*
X159935714Y-96645238D01*
X160030952Y-96692857D01*
X160078571Y-96740476D01*
X160126190Y-96835714D01*
X160126190Y-97216666D01*
X159602380Y-96359523D02*
X160602380Y-96026190D01*
X159602380Y-95692857D01*
X159602380Y-95454761D02*
X159602380Y-94835714D01*
X159983333Y-95169047D01*
X159983333Y-95026190D01*
X160030952Y-94930952D01*
X160078571Y-94883333D01*
X160173809Y-94835714D01*
X160411904Y-94835714D01*
X160507142Y-94883333D01*
X160554761Y-94930952D01*
X160602380Y-95026190D01*
X160602380Y-95311904D01*
X160554761Y-95407142D01*
X160507142Y-95454761D01*
G04 #@! TO.C,RV4*
X140602380Y-96645238D02*
X140126190Y-96978571D01*
X140602380Y-97216666D02*
X139602380Y-97216666D01*
X139602380Y-96835714D01*
X139650000Y-96740476D01*
X139697619Y-96692857D01*
X139792857Y-96645238D01*
X139935714Y-96645238D01*
X140030952Y-96692857D01*
X140078571Y-96740476D01*
X140126190Y-96835714D01*
X140126190Y-97216666D01*
X139602380Y-96359523D02*
X140602380Y-96026190D01*
X139602380Y-95692857D01*
X139935714Y-94930952D02*
X140602380Y-94930952D01*
X139554761Y-95169047D02*
X140269047Y-95407142D01*
X140269047Y-94788095D01*
G04 #@! TO.C,R6*
X136822380Y-82246666D02*
X136346190Y-82580000D01*
X136822380Y-82818095D02*
X135822380Y-82818095D01*
X135822380Y-82437142D01*
X135870000Y-82341904D01*
X135917619Y-82294285D01*
X136012857Y-82246666D01*
X136155714Y-82246666D01*
X136250952Y-82294285D01*
X136298571Y-82341904D01*
X136346190Y-82437142D01*
X136346190Y-82818095D01*
X135822380Y-81389523D02*
X135822380Y-81580000D01*
X135870000Y-81675238D01*
X135917619Y-81722857D01*
X136060476Y-81818095D01*
X136250952Y-81865714D01*
X136631904Y-81865714D01*
X136727142Y-81818095D01*
X136774761Y-81770476D01*
X136822380Y-81675238D01*
X136822380Y-81484761D01*
X136774761Y-81389523D01*
X136727142Y-81341904D01*
X136631904Y-81294285D01*
X136393809Y-81294285D01*
X136298571Y-81341904D01*
X136250952Y-81389523D01*
X136203333Y-81484761D01*
X136203333Y-81675238D01*
X136250952Y-81770476D01*
X136298571Y-81818095D01*
X136393809Y-81865714D01*
G04 #@! TO.C,R7*
X140822380Y-82086666D02*
X140346190Y-82420000D01*
X140822380Y-82658095D02*
X139822380Y-82658095D01*
X139822380Y-82277142D01*
X139870000Y-82181904D01*
X139917619Y-82134285D01*
X140012857Y-82086666D01*
X140155714Y-82086666D01*
X140250952Y-82134285D01*
X140298571Y-82181904D01*
X140346190Y-82277142D01*
X140346190Y-82658095D01*
X139822380Y-81753333D02*
X139822380Y-81086666D01*
X140822380Y-81515238D01*
G04 #@! TO.C,R5*
X132822380Y-82246666D02*
X132346190Y-82580000D01*
X132822380Y-82818095D02*
X131822380Y-82818095D01*
X131822380Y-82437142D01*
X131870000Y-82341904D01*
X131917619Y-82294285D01*
X132012857Y-82246666D01*
X132155714Y-82246666D01*
X132250952Y-82294285D01*
X132298571Y-82341904D01*
X132346190Y-82437142D01*
X132346190Y-82818095D01*
X131822380Y-81341904D02*
X131822380Y-81818095D01*
X132298571Y-81865714D01*
X132250952Y-81818095D01*
X132203333Y-81722857D01*
X132203333Y-81484761D01*
X132250952Y-81389523D01*
X132298571Y-81341904D01*
X132393809Y-81294285D01*
X132631904Y-81294285D01*
X132727142Y-81341904D01*
X132774761Y-81389523D01*
X132822380Y-81484761D01*
X132822380Y-81722857D01*
X132774761Y-81818095D01*
X132727142Y-81865714D01*
G04 #@! TO.C,R4*
X128822380Y-82246666D02*
X128346190Y-82580000D01*
X128822380Y-82818095D02*
X127822380Y-82818095D01*
X127822380Y-82437142D01*
X127870000Y-82341904D01*
X127917619Y-82294285D01*
X128012857Y-82246666D01*
X128155714Y-82246666D01*
X128250952Y-82294285D01*
X128298571Y-82341904D01*
X128346190Y-82437142D01*
X128346190Y-82818095D01*
X128155714Y-81389523D02*
X128822380Y-81389523D01*
X127774761Y-81627619D02*
X128489047Y-81865714D01*
X128489047Y-81246666D01*
G04 #@! TO.C,R3*
X124822380Y-82246666D02*
X124346190Y-82580000D01*
X124822380Y-82818095D02*
X123822380Y-82818095D01*
X123822380Y-82437142D01*
X123870000Y-82341904D01*
X123917619Y-82294285D01*
X124012857Y-82246666D01*
X124155714Y-82246666D01*
X124250952Y-82294285D01*
X124298571Y-82341904D01*
X124346190Y-82437142D01*
X124346190Y-82818095D01*
X123822380Y-81913333D02*
X123822380Y-81294285D01*
X124203333Y-81627619D01*
X124203333Y-81484761D01*
X124250952Y-81389523D01*
X124298571Y-81341904D01*
X124393809Y-81294285D01*
X124631904Y-81294285D01*
X124727142Y-81341904D01*
X124774761Y-81389523D01*
X124822380Y-81484761D01*
X124822380Y-81770476D01*
X124774761Y-81865714D01*
X124727142Y-81913333D01*
G04 #@! TO.C,R2*
X160913333Y-41082380D02*
X160580000Y-40606190D01*
X160341904Y-41082380D02*
X160341904Y-40082380D01*
X160722857Y-40082380D01*
X160818095Y-40130000D01*
X160865714Y-40177619D01*
X160913333Y-40272857D01*
X160913333Y-40415714D01*
X160865714Y-40510952D01*
X160818095Y-40558571D01*
X160722857Y-40606190D01*
X160341904Y-40606190D01*
X161294285Y-40177619D02*
X161341904Y-40130000D01*
X161437142Y-40082380D01*
X161675238Y-40082380D01*
X161770476Y-40130000D01*
X161818095Y-40177619D01*
X161865714Y-40272857D01*
X161865714Y-40368095D01*
X161818095Y-40510952D01*
X161246666Y-41082380D01*
X161865714Y-41082380D01*
G04 #@! TO.C,R1*
X145265182Y-51671757D02*
X144931849Y-51195567D01*
X144693753Y-51671757D02*
X144693753Y-50671757D01*
X145074706Y-50671757D01*
X145169944Y-50719377D01*
X145217563Y-50766996D01*
X145265182Y-50862234D01*
X145265182Y-51005091D01*
X145217563Y-51100329D01*
X145169944Y-51147948D01*
X145074706Y-51195567D01*
X144693753Y-51195567D01*
X146217563Y-51671757D02*
X145646134Y-51671757D01*
X145931849Y-51671757D02*
X145931849Y-50671757D01*
X145836610Y-50814615D01*
X145741372Y-50909853D01*
X145646134Y-50957472D01*
G04 #@! TO.C,SW1*
D15*
X155306666Y-39514047D02*
X155488095Y-39574523D01*
X155790476Y-39574523D01*
X155911428Y-39514047D01*
X155971904Y-39453571D01*
X156032380Y-39332619D01*
X156032380Y-39211666D01*
X155971904Y-39090714D01*
X155911428Y-39030238D01*
X155790476Y-38969761D01*
X155548571Y-38909285D01*
X155427619Y-38848809D01*
X155367142Y-38788333D01*
X155306666Y-38667380D01*
X155306666Y-38546428D01*
X155367142Y-38425476D01*
X155427619Y-38365000D01*
X155548571Y-38304523D01*
X155850952Y-38304523D01*
X156032380Y-38365000D01*
X156455714Y-38304523D02*
X156758095Y-39574523D01*
X157000000Y-38667380D01*
X157241904Y-39574523D01*
X157544285Y-38304523D01*
X158693333Y-39574523D02*
X157967619Y-39574523D01*
X158330476Y-39574523D02*
X158330476Y-38304523D01*
X158209523Y-38485952D01*
X158088571Y-38606904D01*
X157967619Y-38667380D01*
G04 #@! TO.C,J9*
D14*
X100415333Y-44673904D02*
X100415333Y-45245333D01*
X100377238Y-45359619D01*
X100301047Y-45435809D01*
X100186761Y-45473904D01*
X100110571Y-45473904D01*
X100834380Y-45473904D02*
X100986761Y-45473904D01*
X101062952Y-45435809D01*
X101101047Y-45397714D01*
X101177238Y-45283428D01*
X101215333Y-45131047D01*
X101215333Y-44826285D01*
X101177238Y-44750095D01*
X101139142Y-44712000D01*
X101062952Y-44673904D01*
X100910571Y-44673904D01*
X100834380Y-44712000D01*
X100796285Y-44750095D01*
X100758190Y-44826285D01*
X100758190Y-45016761D01*
X100796285Y-45092952D01*
X100834380Y-45131047D01*
X100910571Y-45169142D01*
X101062952Y-45169142D01*
X101139142Y-45131047D01*
X101177238Y-45092952D01*
X101215333Y-45016761D01*
D11*
X99142857Y-38608000D02*
X99428571Y-38608000D01*
X99085714Y-38779428D02*
X99285714Y-38179428D01*
X99485714Y-38779428D01*
X99942857Y-38379428D02*
X99942857Y-38779428D01*
X99685714Y-38379428D02*
X99685714Y-38693714D01*
X99714285Y-38750857D01*
X99771428Y-38779428D01*
X99857142Y-38779428D01*
X99914285Y-38750857D01*
X99942857Y-38722285D01*
X100485714Y-38779428D02*
X100485714Y-38179428D01*
X100485714Y-38750857D02*
X100428571Y-38779428D01*
X100314285Y-38779428D01*
X100257142Y-38750857D01*
X100228571Y-38722285D01*
X100200000Y-38665142D01*
X100200000Y-38493714D01*
X100228571Y-38436571D01*
X100257142Y-38408000D01*
X100314285Y-38379428D01*
X100428571Y-38379428D01*
X100485714Y-38408000D01*
X100771428Y-38779428D02*
X100771428Y-38379428D01*
X100771428Y-38179428D02*
X100742857Y-38208000D01*
X100771428Y-38236571D01*
X100800000Y-38208000D01*
X100771428Y-38179428D01*
X100771428Y-38236571D01*
X101142857Y-38779428D02*
X101085714Y-38750857D01*
X101057142Y-38722285D01*
X101028571Y-38665142D01*
X101028571Y-38493714D01*
X101057142Y-38436571D01*
X101085714Y-38408000D01*
X101142857Y-38379428D01*
X101228571Y-38379428D01*
X101285714Y-38408000D01*
X101314285Y-38436571D01*
X101342857Y-38493714D01*
X101342857Y-38665142D01*
X101314285Y-38722285D01*
X101285714Y-38750857D01*
X101228571Y-38779428D01*
X101142857Y-38779428D01*
X101771428Y-38179428D02*
X101771428Y-38608000D01*
X101742857Y-38693714D01*
X101685714Y-38750857D01*
X101600000Y-38779428D01*
X101542857Y-38779428D01*
X102314285Y-38779428D02*
X102314285Y-38465142D01*
X102285714Y-38408000D01*
X102228571Y-38379428D01*
X102114285Y-38379428D01*
X102057142Y-38408000D01*
X102314285Y-38750857D02*
X102257142Y-38779428D01*
X102114285Y-38779428D01*
X102057142Y-38750857D01*
X102028571Y-38693714D01*
X102028571Y-38636571D01*
X102057142Y-38579428D01*
X102114285Y-38550857D01*
X102257142Y-38550857D01*
X102314285Y-38522285D01*
X102857142Y-38750857D02*
X102800000Y-38779428D01*
X102685714Y-38779428D01*
X102628571Y-38750857D01*
X102600000Y-38722285D01*
X102571428Y-38665142D01*
X102571428Y-38493714D01*
X102600000Y-38436571D01*
X102628571Y-38408000D01*
X102685714Y-38379428D01*
X102800000Y-38379428D01*
X102857142Y-38408000D01*
X103114285Y-38779428D02*
X103114285Y-38179428D01*
X103171428Y-38550857D02*
X103342857Y-38779428D01*
X103342857Y-38379428D02*
X103114285Y-38608000D01*
X103542857Y-38179428D02*
X103914285Y-38179428D01*
X103714285Y-38408000D01*
X103800000Y-38408000D01*
X103857142Y-38436571D01*
X103885714Y-38465142D01*
X103914285Y-38522285D01*
X103914285Y-38665142D01*
X103885714Y-38722285D01*
X103857142Y-38750857D01*
X103800000Y-38779428D01*
X103628571Y-38779428D01*
X103571428Y-38750857D01*
X103542857Y-38722285D01*
X104028571Y-38836571D02*
X104485714Y-38836571D01*
X104942857Y-38208000D02*
X104885714Y-38179428D01*
X104800000Y-38179428D01*
X104714285Y-38208000D01*
X104657142Y-38265142D01*
X104628571Y-38322285D01*
X104600000Y-38436571D01*
X104600000Y-38522285D01*
X104628571Y-38636571D01*
X104657142Y-38693714D01*
X104714285Y-38750857D01*
X104800000Y-38779428D01*
X104857142Y-38779428D01*
X104942857Y-38750857D01*
X104971428Y-38722285D01*
X104971428Y-38522285D01*
X104857142Y-38522285D01*
X105228571Y-38779428D02*
X105228571Y-38379428D01*
X105228571Y-38493714D02*
X105257142Y-38436571D01*
X105285714Y-38408000D01*
X105342857Y-38379428D01*
X105400000Y-38379428D01*
X105685714Y-38779428D02*
X105628571Y-38750857D01*
X105600000Y-38722285D01*
X105571428Y-38665142D01*
X105571428Y-38493714D01*
X105600000Y-38436571D01*
X105628571Y-38408000D01*
X105685714Y-38379428D01*
X105771428Y-38379428D01*
X105828571Y-38408000D01*
X105857142Y-38436571D01*
X105885714Y-38493714D01*
X105885714Y-38665142D01*
X105857142Y-38722285D01*
X105828571Y-38750857D01*
X105771428Y-38779428D01*
X105685714Y-38779428D01*
X106400000Y-38379428D02*
X106400000Y-38779428D01*
X106142857Y-38379428D02*
X106142857Y-38693714D01*
X106171428Y-38750857D01*
X106228571Y-38779428D01*
X106314285Y-38779428D01*
X106371428Y-38750857D01*
X106400000Y-38722285D01*
X106685714Y-38379428D02*
X106685714Y-38779428D01*
X106685714Y-38436571D02*
X106714285Y-38408000D01*
X106771428Y-38379428D01*
X106857142Y-38379428D01*
X106914285Y-38408000D01*
X106942857Y-38465142D01*
X106942857Y-38779428D01*
X107485714Y-38779428D02*
X107485714Y-38179428D01*
X107485714Y-38750857D02*
X107428571Y-38779428D01*
X107314285Y-38779428D01*
X107257142Y-38750857D01*
X107228571Y-38722285D01*
X107200000Y-38665142D01*
X107200000Y-38493714D01*
X107228571Y-38436571D01*
X107257142Y-38408000D01*
X107314285Y-38379428D01*
X107428571Y-38379428D01*
X107485714Y-38408000D01*
X107628571Y-38836571D02*
X108085714Y-38836571D01*
X108200000Y-38750857D02*
X108285714Y-38779428D01*
X108428571Y-38779428D01*
X108485714Y-38750857D01*
X108514285Y-38722285D01*
X108542857Y-38665142D01*
X108542857Y-38608000D01*
X108514285Y-38550857D01*
X108485714Y-38522285D01*
X108428571Y-38493714D01*
X108314285Y-38465142D01*
X108257142Y-38436571D01*
X108228571Y-38408000D01*
X108200000Y-38350857D01*
X108200000Y-38293714D01*
X108228571Y-38236571D01*
X108257142Y-38208000D01*
X108314285Y-38179428D01*
X108457142Y-38179428D01*
X108542857Y-38208000D01*
X108742857Y-38379428D02*
X108857142Y-38779428D01*
X108971428Y-38493714D01*
X109085714Y-38779428D01*
X109200000Y-38379428D01*
X109428571Y-38779428D02*
X109428571Y-38379428D01*
X109428571Y-38179428D02*
X109400000Y-38208000D01*
X109428571Y-38236571D01*
X109457142Y-38208000D01*
X109428571Y-38179428D01*
X109428571Y-38236571D01*
X109628571Y-38379428D02*
X109857142Y-38379428D01*
X109714285Y-38179428D02*
X109714285Y-38693714D01*
X109742857Y-38750857D01*
X109800000Y-38779428D01*
X109857142Y-38779428D01*
X110314285Y-38750857D02*
X110257142Y-38779428D01*
X110142857Y-38779428D01*
X110085714Y-38750857D01*
X110057142Y-38722285D01*
X110028571Y-38665142D01*
X110028571Y-38493714D01*
X110057142Y-38436571D01*
X110085714Y-38408000D01*
X110142857Y-38379428D01*
X110257142Y-38379428D01*
X110314285Y-38408000D01*
X110571428Y-38779428D02*
X110571428Y-38179428D01*
X110828571Y-38779428D02*
X110828571Y-38465142D01*
X110800000Y-38408000D01*
X110742857Y-38379428D01*
X110657142Y-38379428D01*
X110600000Y-38408000D01*
X110571428Y-38436571D01*
G04 #@! TD*
M02*
