G04 #@! TF.GenerationSoftware,KiCad,Pcbnew,(5.0.1)-3*
G04 #@! TF.CreationDate,2019-05-09T22:35:04+01:00*
G04 #@! TF.ProjectId,drumkid v2,6472756D6B69642076322E6B69636164,rev?*
G04 #@! TF.SameCoordinates,Original*
G04 #@! TF.FileFunction,Legend,Bot*
G04 #@! TF.FilePolarity,Positive*
%FSLAX46Y46*%
G04 Gerber Fmt 4.6, Leading zero omitted, Abs format (unit mm)*
G04 Created by KiCad (PCBNEW (5.0.1)-3) date 09/05/2019 22:35:04*
%MOMM*%
%LPD*%
G01*
G04 APERTURE LIST*
%ADD10C,0.300000*%
G04 APERTURE END LIST*
D10*
X145785714Y-70557142D02*
X145785714Y-67557142D01*
X145071428Y-67557142D01*
X144642857Y-67700000D01*
X144357142Y-67985714D01*
X144214285Y-68271428D01*
X144071428Y-68842857D01*
X144071428Y-69271428D01*
X144214285Y-69842857D01*
X144357142Y-70128571D01*
X144642857Y-70414285D01*
X145071428Y-70557142D01*
X145785714Y-70557142D01*
X142785714Y-70557142D02*
X142785714Y-68557142D01*
X142785714Y-69128571D02*
X142642857Y-68842857D01*
X142500000Y-68700000D01*
X142214285Y-68557142D01*
X141928571Y-68557142D01*
X139642857Y-68557142D02*
X139642857Y-70557142D01*
X140928571Y-68557142D02*
X140928571Y-70128571D01*
X140785714Y-70414285D01*
X140500000Y-70557142D01*
X140071428Y-70557142D01*
X139785714Y-70414285D01*
X139642857Y-70271428D01*
X138214285Y-70557142D02*
X138214285Y-68557142D01*
X138214285Y-68842857D02*
X138071428Y-68700000D01*
X137785714Y-68557142D01*
X137357142Y-68557142D01*
X137071428Y-68700000D01*
X136928571Y-68985714D01*
X136928571Y-70557142D01*
X136928571Y-68985714D02*
X136785714Y-68700000D01*
X136500000Y-68557142D01*
X136071428Y-68557142D01*
X135785714Y-68700000D01*
X135642857Y-68985714D01*
X135642857Y-70557142D01*
X134214285Y-70557142D02*
X134214285Y-67557142D01*
X132500000Y-70557142D02*
X133785714Y-68842857D01*
X132500000Y-67557142D02*
X134214285Y-69271428D01*
X131214285Y-70557142D02*
X131214285Y-68557142D01*
X131214285Y-67557142D02*
X131357142Y-67700000D01*
X131214285Y-67842857D01*
X131071428Y-67700000D01*
X131214285Y-67557142D01*
X131214285Y-67842857D01*
X128500000Y-70557142D02*
X128500000Y-67557142D01*
X128500000Y-70414285D02*
X128785714Y-70557142D01*
X129357142Y-70557142D01*
X129642857Y-70414285D01*
X129785714Y-70271428D01*
X129928571Y-69985714D01*
X129928571Y-69128571D01*
X129785714Y-68842857D01*
X129642857Y-68700000D01*
X129357142Y-68557142D01*
X128785714Y-68557142D01*
X128500000Y-68700000D01*
X125071428Y-68557142D02*
X124357142Y-70557142D01*
X123642857Y-68557142D01*
X121928571Y-67557142D02*
X121642857Y-67557142D01*
X121357142Y-67700000D01*
X121214285Y-67842857D01*
X121071428Y-68128571D01*
X120928571Y-68700000D01*
X120928571Y-69414285D01*
X121071428Y-69985714D01*
X121214285Y-70271428D01*
X121357142Y-70414285D01*
X121642857Y-70557142D01*
X121928571Y-70557142D01*
X122214285Y-70414285D01*
X122357142Y-70271428D01*
X122500000Y-69985714D01*
X122642857Y-69414285D01*
X122642857Y-68700000D01*
X122500000Y-68128571D01*
X122357142Y-67842857D01*
X122214285Y-67700000D01*
X121928571Y-67557142D01*
X119785714Y-67842857D02*
X119642857Y-67700000D01*
X119357142Y-67557142D01*
X118642857Y-67557142D01*
X118357142Y-67700000D01*
X118214285Y-67842857D01*
X118071428Y-68128571D01*
X118071428Y-68414285D01*
X118214285Y-68842857D01*
X119928571Y-70557142D01*
X118071428Y-70557142D01*
X151500000Y-75357142D02*
X151500000Y-72357142D01*
X151500000Y-73500000D02*
X151214285Y-73357142D01*
X150642857Y-73357142D01*
X150357142Y-73500000D01*
X150214285Y-73642857D01*
X150071428Y-73928571D01*
X150071428Y-74785714D01*
X150214285Y-75071428D01*
X150357142Y-75214285D01*
X150642857Y-75357142D01*
X151214285Y-75357142D01*
X151500000Y-75214285D01*
X149071428Y-73357142D02*
X148357142Y-75357142D01*
X147642857Y-73357142D02*
X148357142Y-75357142D01*
X148642857Y-76071428D01*
X148785714Y-76214285D01*
X149071428Y-76357142D01*
X144214285Y-75357142D02*
X144214285Y-72357142D01*
X143214285Y-74500000D01*
X142214285Y-72357142D01*
X142214285Y-75357142D01*
X139500000Y-75357142D02*
X139500000Y-73785714D01*
X139642857Y-73500000D01*
X139928571Y-73357142D01*
X140500000Y-73357142D01*
X140785714Y-73500000D01*
X139500000Y-75214285D02*
X139785714Y-75357142D01*
X140500000Y-75357142D01*
X140785714Y-75214285D01*
X140928571Y-74928571D01*
X140928571Y-74642857D01*
X140785714Y-74357142D01*
X140500000Y-74214285D01*
X139785714Y-74214285D01*
X139500000Y-74071428D01*
X138500000Y-73357142D02*
X137357142Y-73357142D01*
X138071428Y-72357142D02*
X138071428Y-74928571D01*
X137928571Y-75214285D01*
X137642857Y-75357142D01*
X137357142Y-75357142D01*
X136785714Y-73357142D02*
X135642857Y-73357142D01*
X136357142Y-72357142D02*
X136357142Y-74928571D01*
X136214285Y-75214285D01*
X135928571Y-75357142D01*
X135642857Y-75357142D01*
X131357142Y-73785714D02*
X130928571Y-73928571D01*
X130785714Y-74071428D01*
X130642857Y-74357142D01*
X130642857Y-74785714D01*
X130785714Y-75071428D01*
X130928571Y-75214285D01*
X131214285Y-75357142D01*
X132357142Y-75357142D01*
X132357142Y-72357142D01*
X131357142Y-72357142D01*
X131071428Y-72500000D01*
X130928571Y-72642857D01*
X130785714Y-72928571D01*
X130785714Y-73214285D01*
X130928571Y-73500000D01*
X131071428Y-73642857D01*
X131357142Y-73785714D01*
X132357142Y-73785714D01*
X129357142Y-75357142D02*
X129357142Y-73357142D01*
X129357142Y-73928571D02*
X129214285Y-73642857D01*
X129071428Y-73500000D01*
X128785714Y-73357142D01*
X128500000Y-73357142D01*
X126214285Y-75357142D02*
X126214285Y-73785714D01*
X126357142Y-73500000D01*
X126642857Y-73357142D01*
X127214285Y-73357142D01*
X127500000Y-73500000D01*
X126214285Y-75214285D02*
X126500000Y-75357142D01*
X127214285Y-75357142D01*
X127500000Y-75214285D01*
X127642857Y-74928571D01*
X127642857Y-74642857D01*
X127500000Y-74357142D01*
X127214285Y-74214285D01*
X126500000Y-74214285D01*
X126214285Y-74071428D01*
X123500000Y-75357142D02*
X123500000Y-72357142D01*
X123500000Y-75214285D02*
X123785714Y-75357142D01*
X124357142Y-75357142D01*
X124642857Y-75214285D01*
X124785714Y-75071428D01*
X124928571Y-74785714D01*
X124928571Y-73928571D01*
X124785714Y-73642857D01*
X124642857Y-73500000D01*
X124357142Y-73357142D01*
X123785714Y-73357142D01*
X123500000Y-73500000D01*
X122214285Y-75214285D02*
X121928571Y-75357142D01*
X121357142Y-75357142D01*
X121071428Y-75214285D01*
X120928571Y-74928571D01*
X120928571Y-74785714D01*
X121071428Y-74500000D01*
X121357142Y-74357142D01*
X121785714Y-74357142D01*
X122071428Y-74214285D01*
X122214285Y-73928571D01*
X122214285Y-73785714D01*
X122071428Y-73500000D01*
X121785714Y-73357142D01*
X121357142Y-73357142D01*
X121071428Y-73500000D01*
X119642857Y-75357142D02*
X119642857Y-72357142D01*
X118357142Y-75357142D02*
X118357142Y-73785714D01*
X118500000Y-73500000D01*
X118785714Y-73357142D01*
X119214285Y-73357142D01*
X119500000Y-73500000D01*
X119642857Y-73642857D01*
X115642857Y-75357142D02*
X115642857Y-73785714D01*
X115785714Y-73500000D01*
X116071428Y-73357142D01*
X116642857Y-73357142D01*
X116928571Y-73500000D01*
X115642857Y-75214285D02*
X115928571Y-75357142D01*
X116642857Y-75357142D01*
X116928571Y-75214285D01*
X117071428Y-74928571D01*
X117071428Y-74642857D01*
X116928571Y-74357142D01*
X116642857Y-74214285D01*
X115928571Y-74214285D01*
X115642857Y-74071428D01*
X114500000Y-73357142D02*
X113928571Y-75357142D01*
X113357142Y-73928571D01*
X112785714Y-75357142D01*
X112214285Y-73357142D01*
X159500000Y-80157142D02*
X159500000Y-78157142D01*
X159500000Y-78442857D02*
X159357142Y-78300000D01*
X159071428Y-78157142D01*
X158642857Y-78157142D01*
X158357142Y-78300000D01*
X158214285Y-78585714D01*
X158214285Y-80157142D01*
X158214285Y-78585714D02*
X158071428Y-78300000D01*
X157785714Y-78157142D01*
X157357142Y-78157142D01*
X157071428Y-78300000D01*
X156928571Y-78585714D01*
X156928571Y-80157142D01*
X154214285Y-80157142D02*
X154214285Y-78585714D01*
X154357142Y-78300000D01*
X154642857Y-78157142D01*
X155214285Y-78157142D01*
X155500000Y-78300000D01*
X154214285Y-80014285D02*
X154500000Y-80157142D01*
X155214285Y-80157142D01*
X155500000Y-80014285D01*
X155642857Y-79728571D01*
X155642857Y-79442857D01*
X155500000Y-79157142D01*
X155214285Y-79014285D01*
X154500000Y-79014285D01*
X154214285Y-78871428D01*
X153214285Y-78157142D02*
X152071428Y-78157142D01*
X152785714Y-77157142D02*
X152785714Y-79728571D01*
X152642857Y-80014285D01*
X152357142Y-80157142D01*
X152071428Y-80157142D01*
X151500000Y-78157142D02*
X150357142Y-78157142D01*
X151071428Y-77157142D02*
X151071428Y-79728571D01*
X150928571Y-80014285D01*
X150642857Y-80157142D01*
X150357142Y-80157142D01*
X149357142Y-80157142D02*
X149357142Y-77157142D01*
X149357142Y-78300000D02*
X149071428Y-78157142D01*
X148500000Y-78157142D01*
X148214285Y-78300000D01*
X148071428Y-78442857D01*
X147928571Y-78728571D01*
X147928571Y-79585714D01*
X148071428Y-79871428D01*
X148214285Y-80014285D01*
X148500000Y-80157142D01*
X149071428Y-80157142D01*
X149357142Y-80014285D01*
X146642857Y-80157142D02*
X146642857Y-78157142D01*
X146642857Y-78728571D02*
X146500000Y-78442857D01*
X146357142Y-78300000D01*
X146071428Y-78157142D01*
X145785714Y-78157142D01*
X143500000Y-80157142D02*
X143500000Y-78585714D01*
X143642857Y-78300000D01*
X143928571Y-78157142D01*
X144500000Y-78157142D01*
X144785714Y-78300000D01*
X143500000Y-80014285D02*
X143785714Y-80157142D01*
X144500000Y-80157142D01*
X144785714Y-80014285D01*
X144928571Y-79728571D01*
X144928571Y-79442857D01*
X144785714Y-79157142D01*
X144500000Y-79014285D01*
X143785714Y-79014285D01*
X143500000Y-78871428D01*
X140785714Y-80157142D02*
X140785714Y-77157142D01*
X140785714Y-80014285D02*
X141071428Y-80157142D01*
X141642857Y-80157142D01*
X141928571Y-80014285D01*
X142071428Y-79871428D01*
X142214285Y-79585714D01*
X142214285Y-78728571D01*
X142071428Y-78442857D01*
X141928571Y-78300000D01*
X141642857Y-78157142D01*
X141071428Y-78157142D01*
X140785714Y-78300000D01*
X139500000Y-80014285D02*
X139214285Y-80157142D01*
X138642857Y-80157142D01*
X138357142Y-80014285D01*
X138214285Y-79728571D01*
X138214285Y-79585714D01*
X138357142Y-79300000D01*
X138642857Y-79157142D01*
X139071428Y-79157142D01*
X139357142Y-79014285D01*
X139500000Y-78728571D01*
X139500000Y-78585714D01*
X139357142Y-78300000D01*
X139071428Y-78157142D01*
X138642857Y-78157142D01*
X138357142Y-78300000D01*
X136928571Y-80157142D02*
X136928571Y-77157142D01*
X135642857Y-80157142D02*
X135642857Y-78585714D01*
X135785714Y-78300000D01*
X136071428Y-78157142D01*
X136500000Y-78157142D01*
X136785714Y-78300000D01*
X136928571Y-78442857D01*
X132928571Y-80157142D02*
X132928571Y-78585714D01*
X133071428Y-78300000D01*
X133357142Y-78157142D01*
X133928571Y-78157142D01*
X134214285Y-78300000D01*
X132928571Y-80014285D02*
X133214285Y-80157142D01*
X133928571Y-80157142D01*
X134214285Y-80014285D01*
X134357142Y-79728571D01*
X134357142Y-79442857D01*
X134214285Y-79157142D01*
X133928571Y-79014285D01*
X133214285Y-79014285D01*
X132928571Y-78871428D01*
X131785714Y-78157142D02*
X131214285Y-80157142D01*
X130642857Y-78728571D01*
X130071428Y-80157142D01*
X129500000Y-78157142D01*
X127071428Y-80157142D02*
X127071428Y-77157142D01*
X127071428Y-80014285D02*
X127357142Y-80157142D01*
X127928571Y-80157142D01*
X128214285Y-80014285D01*
X128357142Y-79871428D01*
X128500000Y-79585714D01*
X128500000Y-78728571D01*
X128357142Y-78442857D01*
X128214285Y-78300000D01*
X127928571Y-78157142D01*
X127357142Y-78157142D01*
X127071428Y-78300000D01*
X124500000Y-80014285D02*
X124785714Y-80157142D01*
X125357142Y-80157142D01*
X125642857Y-80014285D01*
X125785714Y-79728571D01*
X125785714Y-78585714D01*
X125642857Y-78300000D01*
X125357142Y-78157142D01*
X124785714Y-78157142D01*
X124500000Y-78300000D01*
X124357142Y-78585714D01*
X124357142Y-78871428D01*
X125785714Y-79157142D01*
X123214285Y-80014285D02*
X122928571Y-80157142D01*
X122357142Y-80157142D01*
X122071428Y-80014285D01*
X121928571Y-79728571D01*
X121928571Y-79585714D01*
X122071428Y-79300000D01*
X122357142Y-79157142D01*
X122785714Y-79157142D01*
X123071428Y-79014285D01*
X123214285Y-78728571D01*
X123214285Y-78585714D01*
X123071428Y-78300000D01*
X122785714Y-78157142D01*
X122357142Y-78157142D01*
X122071428Y-78300000D01*
X120642857Y-80157142D02*
X120642857Y-78157142D01*
X120642857Y-77157142D02*
X120785714Y-77300000D01*
X120642857Y-77442857D01*
X120500000Y-77300000D01*
X120642857Y-77157142D01*
X120642857Y-77442857D01*
X117928571Y-78157142D02*
X117928571Y-80585714D01*
X118071428Y-80871428D01*
X118214285Y-81014285D01*
X118500000Y-81157142D01*
X118928571Y-81157142D01*
X119214285Y-81014285D01*
X117928571Y-80014285D02*
X118214285Y-80157142D01*
X118785714Y-80157142D01*
X119071428Y-80014285D01*
X119214285Y-79871428D01*
X119357142Y-79585714D01*
X119357142Y-78728571D01*
X119214285Y-78442857D01*
X119071428Y-78300000D01*
X118785714Y-78157142D01*
X118214285Y-78157142D01*
X117928571Y-78300000D01*
X116500000Y-78157142D02*
X116500000Y-80157142D01*
X116500000Y-78442857D02*
X116357142Y-78300000D01*
X116071428Y-78157142D01*
X115642857Y-78157142D01*
X115357142Y-78300000D01*
X115214285Y-78585714D01*
X115214285Y-80157142D01*
X113785714Y-79871428D02*
X113642857Y-80014285D01*
X113785714Y-80157142D01*
X113928571Y-80014285D01*
X113785714Y-79871428D01*
X113785714Y-80157142D01*
X111071428Y-80014285D02*
X111357142Y-80157142D01*
X111928571Y-80157142D01*
X112214285Y-80014285D01*
X112357142Y-79871428D01*
X112500000Y-79585714D01*
X112500000Y-78728571D01*
X112357142Y-78442857D01*
X112214285Y-78300000D01*
X111928571Y-78157142D01*
X111357142Y-78157142D01*
X111071428Y-78300000D01*
X109357142Y-80157142D02*
X109642857Y-80014285D01*
X109785714Y-79871428D01*
X109928571Y-79585714D01*
X109928571Y-78728571D01*
X109785714Y-78442857D01*
X109642857Y-78300000D01*
X109357142Y-78157142D01*
X108928571Y-78157142D01*
X108642857Y-78300000D01*
X108500000Y-78442857D01*
X108357142Y-78728571D01*
X108357142Y-79585714D01*
X108500000Y-79871428D01*
X108642857Y-80014285D01*
X108928571Y-80157142D01*
X109357142Y-80157142D01*
X107071428Y-80157142D02*
X107071428Y-78157142D01*
X107071428Y-78442857D02*
X106928571Y-78300000D01*
X106642857Y-78157142D01*
X106214285Y-78157142D01*
X105928571Y-78300000D01*
X105785714Y-78585714D01*
X105785714Y-80157142D01*
X105785714Y-78585714D02*
X105642857Y-78300000D01*
X105357142Y-78157142D01*
X104928571Y-78157142D01*
X104642857Y-78300000D01*
X104500000Y-78585714D01*
X104500000Y-80157142D01*
M02*
