G04 #@! TF.GenerationSoftware,KiCad,Pcbnew,(5.0.1)-3*
G04 #@! TF.CreationDate,2019-11-22T01:03:25+00:00*
G04 #@! TF.ProjectId,non-laser case,6E6F6E2D6C6173657220636173652E6B,rev?*
G04 #@! TF.SameCoordinates,Original*
G04 #@! TF.FileFunction,Soldermask,Bot*
G04 #@! TF.FilePolarity,Negative*
%FSLAX46Y46*%
G04 Gerber Fmt 4.6, Leading zero omitted, Abs format (unit mm)*
G04 Created by KiCad (PCBNEW (5.0.1)-3) date 22/11/2019 01:03:25*
%MOMM*%
%LPD*%
G01*
G04 APERTURE LIST*
%ADD10C,0.100000*%
G04 APERTURE END LIST*
D10*
G36*
X210375256Y-128391298D02*
X210481579Y-128412447D01*
X210782042Y-128536903D01*
X211048852Y-128715180D01*
X211052454Y-128717587D01*
X211282413Y-128947546D01*
X211463098Y-129217960D01*
X211587553Y-129518422D01*
X211651000Y-129837389D01*
X211651000Y-130162611D01*
X211587553Y-130481578D01*
X211463098Y-130782040D01*
X211282413Y-131052454D01*
X211052454Y-131282413D01*
X211052451Y-131282415D01*
X210782042Y-131463097D01*
X210481579Y-131587553D01*
X210375256Y-131608702D01*
X210162611Y-131651000D01*
X209837389Y-131651000D01*
X209624744Y-131608702D01*
X209518421Y-131587553D01*
X209217958Y-131463097D01*
X208947549Y-131282415D01*
X208947546Y-131282413D01*
X208717587Y-131052454D01*
X208536902Y-130782040D01*
X208412447Y-130481578D01*
X208349000Y-130162611D01*
X208349000Y-129837389D01*
X208412447Y-129518422D01*
X208536902Y-129217960D01*
X208717587Y-128947546D01*
X208947546Y-128717587D01*
X208951148Y-128715180D01*
X209217958Y-128536903D01*
X209518421Y-128412447D01*
X209624744Y-128391298D01*
X209837389Y-128349000D01*
X210162611Y-128349000D01*
X210375256Y-128391298D01*
X210375256Y-128391298D01*
G37*
G36*
X150375256Y-128391298D02*
X150481579Y-128412447D01*
X150782042Y-128536903D01*
X151048852Y-128715180D01*
X151052454Y-128717587D01*
X151282413Y-128947546D01*
X151463098Y-129217960D01*
X151587553Y-129518422D01*
X151651000Y-129837389D01*
X151651000Y-130162611D01*
X151587553Y-130481578D01*
X151463098Y-130782040D01*
X151282413Y-131052454D01*
X151052454Y-131282413D01*
X151052451Y-131282415D01*
X150782042Y-131463097D01*
X150481579Y-131587553D01*
X150375256Y-131608702D01*
X150162611Y-131651000D01*
X149837389Y-131651000D01*
X149624744Y-131608702D01*
X149518421Y-131587553D01*
X149217958Y-131463097D01*
X148947549Y-131282415D01*
X148947546Y-131282413D01*
X148717587Y-131052454D01*
X148536902Y-130782040D01*
X148412447Y-130481578D01*
X148349000Y-130162611D01*
X148349000Y-129837389D01*
X148412447Y-129518422D01*
X148536902Y-129217960D01*
X148717587Y-128947546D01*
X148947546Y-128717587D01*
X148951148Y-128715180D01*
X149217958Y-128536903D01*
X149518421Y-128412447D01*
X149624744Y-128391298D01*
X149837389Y-128349000D01*
X150162611Y-128349000D01*
X150375256Y-128391298D01*
X150375256Y-128391298D01*
G37*
G36*
X220375256Y-98391298D02*
X220481579Y-98412447D01*
X220782042Y-98536903D01*
X221048852Y-98715180D01*
X221052454Y-98717587D01*
X221282413Y-98947546D01*
X221463098Y-99217960D01*
X221587553Y-99518422D01*
X221651000Y-99837389D01*
X221651000Y-100162611D01*
X221587553Y-100481578D01*
X221463098Y-100782040D01*
X221282413Y-101052454D01*
X221052454Y-101282413D01*
X221052451Y-101282415D01*
X220782042Y-101463097D01*
X220481579Y-101587553D01*
X220375256Y-101608702D01*
X220162611Y-101651000D01*
X219837389Y-101651000D01*
X219624744Y-101608702D01*
X219518421Y-101587553D01*
X219217958Y-101463097D01*
X218947549Y-101282415D01*
X218947546Y-101282413D01*
X218717587Y-101052454D01*
X218536902Y-100782040D01*
X218412447Y-100481578D01*
X218349000Y-100162611D01*
X218349000Y-99837389D01*
X218412447Y-99518422D01*
X218536902Y-99217960D01*
X218717587Y-98947546D01*
X218947546Y-98717587D01*
X218951148Y-98715180D01*
X219217958Y-98536903D01*
X219518421Y-98412447D01*
X219624744Y-98391298D01*
X219837389Y-98349000D01*
X220162611Y-98349000D01*
X220375256Y-98391298D01*
X220375256Y-98391298D01*
G37*
G36*
X140375256Y-98391298D02*
X140481579Y-98412447D01*
X140782042Y-98536903D01*
X141048852Y-98715180D01*
X141052454Y-98717587D01*
X141282413Y-98947546D01*
X141463098Y-99217960D01*
X141587553Y-99518422D01*
X141651000Y-99837389D01*
X141651000Y-100162611D01*
X141587553Y-100481578D01*
X141463098Y-100782040D01*
X141282413Y-101052454D01*
X141052454Y-101282413D01*
X141052451Y-101282415D01*
X140782042Y-101463097D01*
X140481579Y-101587553D01*
X140375256Y-101608702D01*
X140162611Y-101651000D01*
X139837389Y-101651000D01*
X139624744Y-101608702D01*
X139518421Y-101587553D01*
X139217958Y-101463097D01*
X138947549Y-101282415D01*
X138947546Y-101282413D01*
X138717587Y-101052454D01*
X138536902Y-100782040D01*
X138412447Y-100481578D01*
X138349000Y-100162611D01*
X138349000Y-99837389D01*
X138412447Y-99518422D01*
X138536902Y-99217960D01*
X138717587Y-98947546D01*
X138947546Y-98717587D01*
X138951148Y-98715180D01*
X139217958Y-98536903D01*
X139518421Y-98412447D01*
X139624744Y-98391298D01*
X139837389Y-98349000D01*
X140162611Y-98349000D01*
X140375256Y-98391298D01*
X140375256Y-98391298D01*
G37*
M02*
