G04 #@! TF.GenerationSoftware,KiCad,Pcbnew,(5.1.5)-3*
G04 #@! TF.CreationDate,2021-12-15T09:54:58+00:00*
G04 #@! TF.ProjectId,drumkid,6472756d-6b69-4642-9e6b-696361645f70,rev?*
G04 #@! TF.SameCoordinates,Original*
G04 #@! TF.FileFunction,Legend,Bot*
G04 #@! TF.FilePolarity,Positive*
%FSLAX46Y46*%
G04 Gerber Fmt 4.6, Leading zero omitted, Abs format (unit mm)*
G04 Created by KiCad (PCBNEW (5.1.5)-3) date 2021-12-15 09:54:58*
%MOMM*%
%LPD*%
G04 APERTURE LIST*
%ADD10C,0.300000*%
%ADD11C,0.150000*%
%ADD12C,0.100000*%
%ADD13C,0.120000*%
%ADD14C,0.010000*%
G04 APERTURE END LIST*
D10*
X70445714Y-103270857D02*
X71588571Y-103270857D01*
X71017142Y-102699428D02*
X71017142Y-103842285D01*
X75731428Y-103270857D02*
X76874285Y-103270857D01*
D11*
X97248571Y-127675714D02*
X96867619Y-127675714D01*
X97105714Y-127342380D02*
X97105714Y-128199523D01*
X97058095Y-128294761D01*
X96962857Y-128342380D01*
X96867619Y-128342380D01*
X96534285Y-128342380D02*
X96534285Y-127342380D01*
X96105714Y-128342380D02*
X96105714Y-127818571D01*
X96153333Y-127723333D01*
X96248571Y-127675714D01*
X96391428Y-127675714D01*
X96486666Y-127723333D01*
X96534285Y-127770952D01*
X95248571Y-128294761D02*
X95343809Y-128342380D01*
X95534285Y-128342380D01*
X95629523Y-128294761D01*
X95677142Y-128199523D01*
X95677142Y-127818571D01*
X95629523Y-127723333D01*
X95534285Y-127675714D01*
X95343809Y-127675714D01*
X95248571Y-127723333D01*
X95200952Y-127818571D01*
X95200952Y-127913809D01*
X95677142Y-128009047D01*
X93867619Y-128342380D02*
X93962857Y-128294761D01*
X94010476Y-128247142D01*
X94058095Y-128151904D01*
X94058095Y-127866190D01*
X94010476Y-127770952D01*
X93962857Y-127723333D01*
X93867619Y-127675714D01*
X93724761Y-127675714D01*
X93629523Y-127723333D01*
X93581904Y-127770952D01*
X93534285Y-127866190D01*
X93534285Y-128151904D01*
X93581904Y-128247142D01*
X93629523Y-128294761D01*
X93724761Y-128342380D01*
X93867619Y-128342380D01*
X92677142Y-127675714D02*
X92677142Y-128342380D01*
X93105714Y-127675714D02*
X93105714Y-128199523D01*
X93058095Y-128294761D01*
X92962857Y-128342380D01*
X92820000Y-128342380D01*
X92724761Y-128294761D01*
X92677142Y-128247142D01*
X92343809Y-127675714D02*
X91962857Y-127675714D01*
X92200952Y-127342380D02*
X92200952Y-128199523D01*
X92153333Y-128294761D01*
X92058095Y-128342380D01*
X91962857Y-128342380D01*
X91486666Y-128342380D02*
X91581904Y-128294761D01*
X91629523Y-128199523D01*
X91629523Y-127342380D01*
X91105714Y-128342380D02*
X91105714Y-127675714D01*
X91105714Y-127342380D02*
X91153333Y-127390000D01*
X91105714Y-127437619D01*
X91058095Y-127390000D01*
X91105714Y-127342380D01*
X91105714Y-127437619D01*
X90629523Y-127675714D02*
X90629523Y-128342380D01*
X90629523Y-127770952D02*
X90581904Y-127723333D01*
X90486666Y-127675714D01*
X90343809Y-127675714D01*
X90248571Y-127723333D01*
X90200952Y-127818571D01*
X90200952Y-128342380D01*
X89343809Y-128294761D02*
X89439047Y-128342380D01*
X89629523Y-128342380D01*
X89724761Y-128294761D01*
X89772380Y-128199523D01*
X89772380Y-127818571D01*
X89724761Y-127723333D01*
X89629523Y-127675714D01*
X89439047Y-127675714D01*
X89343809Y-127723333D01*
X89296190Y-127818571D01*
X89296190Y-127913809D01*
X89772380Y-128009047D01*
X88439047Y-128342380D02*
X88439047Y-127342380D01*
X88439047Y-128294761D02*
X88534285Y-128342380D01*
X88724761Y-128342380D01*
X88820000Y-128294761D01*
X88867619Y-128247142D01*
X88915238Y-128151904D01*
X88915238Y-127866190D01*
X88867619Y-127770952D01*
X88820000Y-127723333D01*
X88724761Y-127675714D01*
X88534285Y-127675714D01*
X88439047Y-127723333D01*
X86772380Y-128342380D02*
X86772380Y-127818571D01*
X86820000Y-127723333D01*
X86915238Y-127675714D01*
X87105714Y-127675714D01*
X87200952Y-127723333D01*
X86772380Y-128294761D02*
X86867619Y-128342380D01*
X87105714Y-128342380D01*
X87200952Y-128294761D01*
X87248571Y-128199523D01*
X87248571Y-128104285D01*
X87200952Y-128009047D01*
X87105714Y-127961428D01*
X86867619Y-127961428D01*
X86772380Y-127913809D01*
X86296190Y-128342380D02*
X86296190Y-127675714D01*
X86296190Y-127866190D02*
X86248571Y-127770952D01*
X86200952Y-127723333D01*
X86105714Y-127675714D01*
X86010476Y-127675714D01*
X85296190Y-128294761D02*
X85391428Y-128342380D01*
X85581904Y-128342380D01*
X85677142Y-128294761D01*
X85724761Y-128199523D01*
X85724761Y-127818571D01*
X85677142Y-127723333D01*
X85581904Y-127675714D01*
X85391428Y-127675714D01*
X85296190Y-127723333D01*
X85248571Y-127818571D01*
X85248571Y-127913809D01*
X85724761Y-128009047D01*
X84391428Y-128342380D02*
X84391428Y-127818571D01*
X84439047Y-127723333D01*
X84534285Y-127675714D01*
X84724761Y-127675714D01*
X84820000Y-127723333D01*
X84391428Y-128294761D02*
X84486666Y-128342380D01*
X84724761Y-128342380D01*
X84820000Y-128294761D01*
X84867619Y-128199523D01*
X84867619Y-128104285D01*
X84820000Y-128009047D01*
X84724761Y-127961428D01*
X84486666Y-127961428D01*
X84391428Y-127913809D01*
X83962857Y-128294761D02*
X83867619Y-128342380D01*
X83677142Y-128342380D01*
X83581904Y-128294761D01*
X83534285Y-128199523D01*
X83534285Y-128151904D01*
X83581904Y-128056666D01*
X83677142Y-128009047D01*
X83820000Y-128009047D01*
X83915238Y-127961428D01*
X83962857Y-127866190D01*
X83962857Y-127818571D01*
X83915238Y-127723333D01*
X83820000Y-127675714D01*
X83677142Y-127675714D01*
X83581904Y-127723333D01*
X81915238Y-128342380D02*
X81915238Y-127818571D01*
X81962857Y-127723333D01*
X82058095Y-127675714D01*
X82248571Y-127675714D01*
X82343809Y-127723333D01*
X81915238Y-128294761D02*
X82010476Y-128342380D01*
X82248571Y-128342380D01*
X82343809Y-128294761D01*
X82391428Y-128199523D01*
X82391428Y-128104285D01*
X82343809Y-128009047D01*
X82248571Y-127961428D01*
X82010476Y-127961428D01*
X81915238Y-127913809D01*
X81439047Y-128342380D02*
X81439047Y-127675714D01*
X81439047Y-127866190D02*
X81391428Y-127770952D01*
X81343809Y-127723333D01*
X81248571Y-127675714D01*
X81153333Y-127675714D01*
X80439047Y-128294761D02*
X80534285Y-128342380D01*
X80724761Y-128342380D01*
X80820000Y-128294761D01*
X80867619Y-128199523D01*
X80867619Y-127818571D01*
X80820000Y-127723333D01*
X80724761Y-127675714D01*
X80534285Y-127675714D01*
X80439047Y-127723333D01*
X80391428Y-127818571D01*
X80391428Y-127913809D01*
X80867619Y-128009047D01*
X79200952Y-128342380D02*
X79200952Y-127675714D01*
X79200952Y-127866190D02*
X79153333Y-127770952D01*
X79105714Y-127723333D01*
X79010476Y-127675714D01*
X78915238Y-127675714D01*
X78200952Y-128294761D02*
X78296190Y-128342380D01*
X78486666Y-128342380D01*
X78581904Y-128294761D01*
X78629523Y-128199523D01*
X78629523Y-127818571D01*
X78581904Y-127723333D01*
X78486666Y-127675714D01*
X78296190Y-127675714D01*
X78200952Y-127723333D01*
X78153333Y-127818571D01*
X78153333Y-127913809D01*
X78629523Y-128009047D01*
X77772380Y-128294761D02*
X77677142Y-128342380D01*
X77486666Y-128342380D01*
X77391428Y-128294761D01*
X77343809Y-128199523D01*
X77343809Y-128151904D01*
X77391428Y-128056666D01*
X77486666Y-128009047D01*
X77629523Y-128009047D01*
X77724761Y-127961428D01*
X77772380Y-127866190D01*
X77772380Y-127818571D01*
X77724761Y-127723333D01*
X77629523Y-127675714D01*
X77486666Y-127675714D01*
X77391428Y-127723333D01*
X76534285Y-128294761D02*
X76629523Y-128342380D01*
X76820000Y-128342380D01*
X76915238Y-128294761D01*
X76962857Y-128199523D01*
X76962857Y-127818571D01*
X76915238Y-127723333D01*
X76820000Y-127675714D01*
X76629523Y-127675714D01*
X76534285Y-127723333D01*
X76486666Y-127818571D01*
X76486666Y-127913809D01*
X76962857Y-128009047D01*
X76058095Y-128342380D02*
X76058095Y-127675714D01*
X76058095Y-127866190D02*
X76010476Y-127770952D01*
X75962857Y-127723333D01*
X75867619Y-127675714D01*
X75772380Y-127675714D01*
X75534285Y-127675714D02*
X75296190Y-128342380D01*
X75058095Y-127675714D01*
X74296190Y-128294761D02*
X74391428Y-128342380D01*
X74581904Y-128342380D01*
X74677142Y-128294761D01*
X74724761Y-128199523D01*
X74724761Y-127818571D01*
X74677142Y-127723333D01*
X74581904Y-127675714D01*
X74391428Y-127675714D01*
X74296190Y-127723333D01*
X74248571Y-127818571D01*
X74248571Y-127913809D01*
X74724761Y-128009047D01*
X73391428Y-128342380D02*
X73391428Y-127342380D01*
X73391428Y-128294761D02*
X73486666Y-128342380D01*
X73677142Y-128342380D01*
X73772380Y-128294761D01*
X73820000Y-128247142D01*
X73867619Y-128151904D01*
X73867619Y-127866190D01*
X73820000Y-127770952D01*
X73772380Y-127723333D01*
X73677142Y-127675714D01*
X73486666Y-127675714D01*
X73391428Y-127723333D01*
X72296190Y-127675714D02*
X71915238Y-127675714D01*
X72153333Y-128342380D02*
X72153333Y-127485238D01*
X72105714Y-127390000D01*
X72010476Y-127342380D01*
X71915238Y-127342380D01*
X71439047Y-128342380D02*
X71534285Y-128294761D01*
X71581904Y-128247142D01*
X71629523Y-128151904D01*
X71629523Y-127866190D01*
X71581904Y-127770952D01*
X71534285Y-127723333D01*
X71439047Y-127675714D01*
X71296190Y-127675714D01*
X71200952Y-127723333D01*
X71153333Y-127770952D01*
X71105714Y-127866190D01*
X71105714Y-128151904D01*
X71153333Y-128247142D01*
X71200952Y-128294761D01*
X71296190Y-128342380D01*
X71439047Y-128342380D01*
X70677142Y-128342380D02*
X70677142Y-127675714D01*
X70677142Y-127866190D02*
X70629523Y-127770952D01*
X70581904Y-127723333D01*
X70486666Y-127675714D01*
X70391428Y-127675714D01*
X96581904Y-129325714D02*
X96581904Y-129992380D01*
X97010476Y-129325714D02*
X97010476Y-129849523D01*
X96962857Y-129944761D01*
X96867619Y-129992380D01*
X96724761Y-129992380D01*
X96629523Y-129944761D01*
X96581904Y-129897142D01*
X96153333Y-129944761D02*
X96058095Y-129992380D01*
X95867619Y-129992380D01*
X95772380Y-129944761D01*
X95724761Y-129849523D01*
X95724761Y-129801904D01*
X95772380Y-129706666D01*
X95867619Y-129659047D01*
X96010476Y-129659047D01*
X96105714Y-129611428D01*
X96153333Y-129516190D01*
X96153333Y-129468571D01*
X96105714Y-129373333D01*
X96010476Y-129325714D01*
X95867619Y-129325714D01*
X95772380Y-129373333D01*
X94915238Y-129944761D02*
X95010476Y-129992380D01*
X95200952Y-129992380D01*
X95296190Y-129944761D01*
X95343809Y-129849523D01*
X95343809Y-129468571D01*
X95296190Y-129373333D01*
X95200952Y-129325714D01*
X95010476Y-129325714D01*
X94915238Y-129373333D01*
X94867619Y-129468571D01*
X94867619Y-129563809D01*
X95343809Y-129659047D01*
X94439047Y-129992380D02*
X94439047Y-129325714D01*
X94439047Y-129516190D02*
X94391428Y-129420952D01*
X94343809Y-129373333D01*
X94248571Y-129325714D01*
X94153333Y-129325714D01*
X93058095Y-129992380D02*
X93058095Y-129325714D01*
X93058095Y-129420952D02*
X93010476Y-129373333D01*
X92915238Y-129325714D01*
X92772380Y-129325714D01*
X92677142Y-129373333D01*
X92629523Y-129468571D01*
X92629523Y-129992380D01*
X92629523Y-129468571D02*
X92581904Y-129373333D01*
X92486666Y-129325714D01*
X92343809Y-129325714D01*
X92248571Y-129373333D01*
X92200952Y-129468571D01*
X92200952Y-129992380D01*
X91581904Y-129992380D02*
X91677142Y-129944761D01*
X91724761Y-129897142D01*
X91772380Y-129801904D01*
X91772380Y-129516190D01*
X91724761Y-129420952D01*
X91677142Y-129373333D01*
X91581904Y-129325714D01*
X91439047Y-129325714D01*
X91343809Y-129373333D01*
X91296190Y-129420952D01*
X91248571Y-129516190D01*
X91248571Y-129801904D01*
X91296190Y-129897142D01*
X91343809Y-129944761D01*
X91439047Y-129992380D01*
X91581904Y-129992380D01*
X90391428Y-129992380D02*
X90391428Y-128992380D01*
X90391428Y-129944761D02*
X90486666Y-129992380D01*
X90677142Y-129992380D01*
X90772380Y-129944761D01*
X90820000Y-129897142D01*
X90867619Y-129801904D01*
X90867619Y-129516190D01*
X90820000Y-129420952D01*
X90772380Y-129373333D01*
X90677142Y-129325714D01*
X90486666Y-129325714D01*
X90391428Y-129373333D01*
X89915238Y-129992380D02*
X89915238Y-129325714D01*
X89915238Y-128992380D02*
X89962857Y-129040000D01*
X89915238Y-129087619D01*
X89867619Y-129040000D01*
X89915238Y-128992380D01*
X89915238Y-129087619D01*
X89581904Y-129325714D02*
X89200952Y-129325714D01*
X89439047Y-129992380D02*
X89439047Y-129135238D01*
X89391428Y-129040000D01*
X89296190Y-128992380D01*
X89200952Y-128992380D01*
X88867619Y-129992380D02*
X88867619Y-129325714D01*
X88867619Y-128992380D02*
X88915238Y-129040000D01*
X88867619Y-129087619D01*
X88820000Y-129040000D01*
X88867619Y-128992380D01*
X88867619Y-129087619D01*
X87962857Y-129944761D02*
X88058095Y-129992380D01*
X88248571Y-129992380D01*
X88343809Y-129944761D01*
X88391428Y-129897142D01*
X88439047Y-129801904D01*
X88439047Y-129516190D01*
X88391428Y-129420952D01*
X88343809Y-129373333D01*
X88248571Y-129325714D01*
X88058095Y-129325714D01*
X87962857Y-129373333D01*
X87105714Y-129992380D02*
X87105714Y-129468571D01*
X87153333Y-129373333D01*
X87248571Y-129325714D01*
X87439047Y-129325714D01*
X87534285Y-129373333D01*
X87105714Y-129944761D02*
X87200952Y-129992380D01*
X87439047Y-129992380D01*
X87534285Y-129944761D01*
X87581904Y-129849523D01*
X87581904Y-129754285D01*
X87534285Y-129659047D01*
X87439047Y-129611428D01*
X87200952Y-129611428D01*
X87105714Y-129563809D01*
X86772380Y-129325714D02*
X86391428Y-129325714D01*
X86629523Y-128992380D02*
X86629523Y-129849523D01*
X86581904Y-129944761D01*
X86486666Y-129992380D01*
X86391428Y-129992380D01*
X86058095Y-129992380D02*
X86058095Y-129325714D01*
X86058095Y-128992380D02*
X86105714Y-129040000D01*
X86058095Y-129087619D01*
X86010476Y-129040000D01*
X86058095Y-128992380D01*
X86058095Y-129087619D01*
X85439047Y-129992380D02*
X85534285Y-129944761D01*
X85581904Y-129897142D01*
X85629523Y-129801904D01*
X85629523Y-129516190D01*
X85581904Y-129420952D01*
X85534285Y-129373333D01*
X85439047Y-129325714D01*
X85296190Y-129325714D01*
X85200952Y-129373333D01*
X85153333Y-129420952D01*
X85105714Y-129516190D01*
X85105714Y-129801904D01*
X85153333Y-129897142D01*
X85200952Y-129944761D01*
X85296190Y-129992380D01*
X85439047Y-129992380D01*
X84677142Y-129325714D02*
X84677142Y-129992380D01*
X84677142Y-129420952D02*
X84629523Y-129373333D01*
X84534285Y-129325714D01*
X84391428Y-129325714D01*
X84296190Y-129373333D01*
X84248571Y-129468571D01*
X84248571Y-129992380D01*
X83820000Y-129944761D02*
X83724761Y-129992380D01*
X83534285Y-129992380D01*
X83439047Y-129944761D01*
X83391428Y-129849523D01*
X83391428Y-129801904D01*
X83439047Y-129706666D01*
X83534285Y-129659047D01*
X83677142Y-129659047D01*
X83772380Y-129611428D01*
X83820000Y-129516190D01*
X83820000Y-129468571D01*
X83772380Y-129373333D01*
X83677142Y-129325714D01*
X83534285Y-129325714D01*
X83439047Y-129373333D01*
X82915238Y-129944761D02*
X82915238Y-129992380D01*
X82962857Y-130087619D01*
X83010476Y-130135238D01*
X81296190Y-129992380D02*
X81296190Y-129468571D01*
X81343809Y-129373333D01*
X81439047Y-129325714D01*
X81629523Y-129325714D01*
X81724761Y-129373333D01*
X81296190Y-129944761D02*
X81391428Y-129992380D01*
X81629523Y-129992380D01*
X81724761Y-129944761D01*
X81772380Y-129849523D01*
X81772380Y-129754285D01*
X81724761Y-129659047D01*
X81629523Y-129611428D01*
X81391428Y-129611428D01*
X81296190Y-129563809D01*
X80820000Y-129325714D02*
X80820000Y-129992380D01*
X80820000Y-129420952D02*
X80772380Y-129373333D01*
X80677142Y-129325714D01*
X80534285Y-129325714D01*
X80439047Y-129373333D01*
X80391428Y-129468571D01*
X80391428Y-129992380D01*
X79486666Y-129992380D02*
X79486666Y-128992380D01*
X79486666Y-129944761D02*
X79581904Y-129992380D01*
X79772380Y-129992380D01*
X79867619Y-129944761D01*
X79915238Y-129897142D01*
X79962857Y-129801904D01*
X79962857Y-129516190D01*
X79915238Y-129420952D01*
X79867619Y-129373333D01*
X79772380Y-129325714D01*
X79581904Y-129325714D01*
X79486666Y-129373333D01*
X78296190Y-129944761D02*
X78200952Y-129992380D01*
X78010476Y-129992380D01*
X77915238Y-129944761D01*
X77867619Y-129849523D01*
X77867619Y-129801904D01*
X77915238Y-129706666D01*
X78010476Y-129659047D01*
X78153333Y-129659047D01*
X78248571Y-129611428D01*
X78296190Y-129516190D01*
X78296190Y-129468571D01*
X78248571Y-129373333D01*
X78153333Y-129325714D01*
X78010476Y-129325714D01*
X77915238Y-129373333D01*
X77439047Y-129992380D02*
X77439047Y-128992380D01*
X77010476Y-129992380D02*
X77010476Y-129468571D01*
X77058095Y-129373333D01*
X77153333Y-129325714D01*
X77296190Y-129325714D01*
X77391428Y-129373333D01*
X77439047Y-129420952D01*
X76391428Y-129992380D02*
X76486666Y-129944761D01*
X76534285Y-129897142D01*
X76581904Y-129801904D01*
X76581904Y-129516190D01*
X76534285Y-129420952D01*
X76486666Y-129373333D01*
X76391428Y-129325714D01*
X76248571Y-129325714D01*
X76153333Y-129373333D01*
X76105714Y-129420952D01*
X76058095Y-129516190D01*
X76058095Y-129801904D01*
X76105714Y-129897142D01*
X76153333Y-129944761D01*
X76248571Y-129992380D01*
X76391428Y-129992380D01*
X75200952Y-129325714D02*
X75200952Y-129992380D01*
X75629523Y-129325714D02*
X75629523Y-129849523D01*
X75581904Y-129944761D01*
X75486666Y-129992380D01*
X75343809Y-129992380D01*
X75248571Y-129944761D01*
X75200952Y-129897142D01*
X74581904Y-129992380D02*
X74677142Y-129944761D01*
X74724761Y-129849523D01*
X74724761Y-128992380D01*
X73772380Y-129992380D02*
X73772380Y-128992380D01*
X73772380Y-129944761D02*
X73867619Y-129992380D01*
X74058095Y-129992380D01*
X74153333Y-129944761D01*
X74200952Y-129897142D01*
X74248571Y-129801904D01*
X74248571Y-129516190D01*
X74200952Y-129420952D01*
X74153333Y-129373333D01*
X74058095Y-129325714D01*
X73867619Y-129325714D01*
X73772380Y-129373333D01*
X72534285Y-129325714D02*
X72534285Y-129992380D01*
X72534285Y-129420952D02*
X72486666Y-129373333D01*
X72391428Y-129325714D01*
X72248571Y-129325714D01*
X72153333Y-129373333D01*
X72105714Y-129468571D01*
X72105714Y-129992380D01*
X71486666Y-129992380D02*
X71581904Y-129944761D01*
X71629523Y-129897142D01*
X71677142Y-129801904D01*
X71677142Y-129516190D01*
X71629523Y-129420952D01*
X71581904Y-129373333D01*
X71486666Y-129325714D01*
X71343809Y-129325714D01*
X71248571Y-129373333D01*
X71200952Y-129420952D01*
X71153333Y-129516190D01*
X71153333Y-129801904D01*
X71200952Y-129897142D01*
X71248571Y-129944761D01*
X71343809Y-129992380D01*
X71486666Y-129992380D01*
X70867619Y-129325714D02*
X70486666Y-129325714D01*
X70724761Y-128992380D02*
X70724761Y-129849523D01*
X70677142Y-129944761D01*
X70581904Y-129992380D01*
X70486666Y-129992380D01*
X91724761Y-131642380D02*
X91724761Y-130642380D01*
X91724761Y-131023333D02*
X91629523Y-130975714D01*
X91439047Y-130975714D01*
X91343809Y-131023333D01*
X91296190Y-131070952D01*
X91248571Y-131166190D01*
X91248571Y-131451904D01*
X91296190Y-131547142D01*
X91343809Y-131594761D01*
X91439047Y-131642380D01*
X91629523Y-131642380D01*
X91724761Y-131594761D01*
X90439047Y-131594761D02*
X90534285Y-131642380D01*
X90724761Y-131642380D01*
X90820000Y-131594761D01*
X90867619Y-131499523D01*
X90867619Y-131118571D01*
X90820000Y-131023333D01*
X90724761Y-130975714D01*
X90534285Y-130975714D01*
X90439047Y-131023333D01*
X90391428Y-131118571D01*
X90391428Y-131213809D01*
X90867619Y-131309047D01*
X89200952Y-130975714D02*
X89200952Y-131975714D01*
X89200952Y-131023333D02*
X89105714Y-130975714D01*
X88915238Y-130975714D01*
X88820000Y-131023333D01*
X88772380Y-131070952D01*
X88724761Y-131166190D01*
X88724761Y-131451904D01*
X88772380Y-131547142D01*
X88820000Y-131594761D01*
X88915238Y-131642380D01*
X89105714Y-131642380D01*
X89200952Y-131594761D01*
X88153333Y-131642380D02*
X88248571Y-131594761D01*
X88296190Y-131547142D01*
X88343809Y-131451904D01*
X88343809Y-131166190D01*
X88296190Y-131070952D01*
X88248571Y-131023333D01*
X88153333Y-130975714D01*
X88010476Y-130975714D01*
X87915238Y-131023333D01*
X87867619Y-131070952D01*
X87820000Y-131166190D01*
X87820000Y-131451904D01*
X87867619Y-131547142D01*
X87915238Y-131594761D01*
X88010476Y-131642380D01*
X88153333Y-131642380D01*
X87391428Y-130975714D02*
X87391428Y-131975714D01*
X87391428Y-131023333D02*
X87296190Y-130975714D01*
X87105714Y-130975714D01*
X87010476Y-131023333D01*
X86962857Y-131070952D01*
X86915238Y-131166190D01*
X86915238Y-131451904D01*
X86962857Y-131547142D01*
X87010476Y-131594761D01*
X87105714Y-131642380D01*
X87296190Y-131642380D01*
X87391428Y-131594761D01*
X86058095Y-130975714D02*
X86058095Y-131642380D01*
X86486666Y-130975714D02*
X86486666Y-131499523D01*
X86439047Y-131594761D01*
X86343809Y-131642380D01*
X86200952Y-131642380D01*
X86105714Y-131594761D01*
X86058095Y-131547142D01*
X85439047Y-131642380D02*
X85534285Y-131594761D01*
X85581904Y-131499523D01*
X85581904Y-130642380D01*
X84629523Y-131642380D02*
X84629523Y-131118571D01*
X84677142Y-131023333D01*
X84772380Y-130975714D01*
X84962857Y-130975714D01*
X85058095Y-131023333D01*
X84629523Y-131594761D02*
X84724761Y-131642380D01*
X84962857Y-131642380D01*
X85058095Y-131594761D01*
X85105714Y-131499523D01*
X85105714Y-131404285D01*
X85058095Y-131309047D01*
X84962857Y-131261428D01*
X84724761Y-131261428D01*
X84629523Y-131213809D01*
X84296190Y-130975714D02*
X83915238Y-130975714D01*
X84153333Y-130642380D02*
X84153333Y-131499523D01*
X84105714Y-131594761D01*
X84010476Y-131642380D01*
X83915238Y-131642380D01*
X83200952Y-131594761D02*
X83296190Y-131642380D01*
X83486666Y-131642380D01*
X83581904Y-131594761D01*
X83629523Y-131499523D01*
X83629523Y-131118571D01*
X83581904Y-131023333D01*
X83486666Y-130975714D01*
X83296190Y-130975714D01*
X83200952Y-131023333D01*
X83153333Y-131118571D01*
X83153333Y-131213809D01*
X83629523Y-131309047D01*
X82296190Y-131642380D02*
X82296190Y-130642380D01*
X82296190Y-131594761D02*
X82391428Y-131642380D01*
X82581904Y-131642380D01*
X82677142Y-131594761D01*
X82724761Y-131547142D01*
X82772380Y-131451904D01*
X82772380Y-131166190D01*
X82724761Y-131070952D01*
X82677142Y-131023333D01*
X82581904Y-130975714D01*
X82391428Y-130975714D01*
X82296190Y-131023333D01*
X81058095Y-131642380D02*
X81058095Y-130975714D01*
X81058095Y-130642380D02*
X81105714Y-130690000D01*
X81058095Y-130737619D01*
X81010476Y-130690000D01*
X81058095Y-130642380D01*
X81058095Y-130737619D01*
X80581904Y-130975714D02*
X80581904Y-131642380D01*
X80581904Y-131070952D02*
X80534285Y-131023333D01*
X80439047Y-130975714D01*
X80296190Y-130975714D01*
X80200952Y-131023333D01*
X80153333Y-131118571D01*
X80153333Y-131642380D01*
X79677142Y-131642380D02*
X79677142Y-130975714D01*
X79677142Y-130642380D02*
X79724761Y-130690000D01*
X79677142Y-130737619D01*
X79629523Y-130690000D01*
X79677142Y-130642380D01*
X79677142Y-130737619D01*
X79343809Y-130975714D02*
X78962857Y-130975714D01*
X79200952Y-130642380D02*
X79200952Y-131499523D01*
X79153333Y-131594761D01*
X79058095Y-131642380D01*
X78962857Y-131642380D01*
X78629523Y-131642380D02*
X78629523Y-130975714D01*
X78629523Y-130642380D02*
X78677142Y-130690000D01*
X78629523Y-130737619D01*
X78581904Y-130690000D01*
X78629523Y-130642380D01*
X78629523Y-130737619D01*
X77724761Y-131642380D02*
X77724761Y-131118571D01*
X77772380Y-131023333D01*
X77867619Y-130975714D01*
X78058095Y-130975714D01*
X78153333Y-131023333D01*
X77724761Y-131594761D02*
X77820000Y-131642380D01*
X78058095Y-131642380D01*
X78153333Y-131594761D01*
X78200952Y-131499523D01*
X78200952Y-131404285D01*
X78153333Y-131309047D01*
X78058095Y-131261428D01*
X77820000Y-131261428D01*
X77724761Y-131213809D01*
X77105714Y-131642380D02*
X77200952Y-131594761D01*
X77248571Y-131499523D01*
X77248571Y-130642380D01*
X76581904Y-131642380D02*
X76677142Y-131594761D01*
X76724761Y-131499523D01*
X76724761Y-130642380D01*
X76296190Y-130975714D02*
X76058095Y-131642380D01*
X75820000Y-130975714D02*
X76058095Y-131642380D01*
X76153333Y-131880476D01*
X76200952Y-131928095D01*
X76296190Y-131975714D01*
X107950000Y-102870000D02*
X133350000Y-102870000D01*
X107950000Y-107950000D02*
X107950000Y-102870000D01*
X133350000Y-107950000D02*
X107950000Y-107950000D01*
X133350000Y-102870000D02*
X133350000Y-107950000D01*
X107950000Y-143510000D02*
X133350000Y-143510000D01*
X107950000Y-148590000D02*
X107950000Y-143510000D01*
X133350000Y-148590000D02*
X107950000Y-148590000D01*
X133350000Y-143510000D02*
X133350000Y-148590000D01*
X128270000Y-110490000D02*
X128270000Y-123190000D01*
X137160000Y-110490000D02*
X128270000Y-110490000D01*
X142240000Y-114300000D02*
X137160000Y-110490000D01*
X142240000Y-119380000D02*
X142240000Y-114300000D01*
X137160000Y-123190000D02*
X142240000Y-119380000D01*
X128270000Y-123190000D02*
X137160000Y-123190000D01*
X74930000Y-143510000D02*
X74930000Y-156210000D01*
X66040000Y-143510000D02*
X74930000Y-143510000D01*
X60960000Y-147320000D02*
X66040000Y-143510000D01*
X60960000Y-152400000D02*
X60960000Y-147320000D01*
X66040000Y-156210000D02*
X60960000Y-152400000D01*
X74930000Y-156210000D02*
X66040000Y-156210000D01*
X64770000Y-123190000D02*
X102870000Y-123190000D01*
X64770000Y-125730000D02*
X64770000Y-123190000D01*
X102870000Y-125730000D02*
X64770000Y-125730000D01*
X102870000Y-123190000D02*
X102870000Y-125730000D01*
X64770000Y-118110000D02*
X102870000Y-118110000D01*
X64770000Y-120650000D02*
X64770000Y-118110000D01*
X102870000Y-120650000D02*
X64770000Y-120650000D01*
X102870000Y-118110000D02*
X102870000Y-120650000D01*
X64770000Y-138430000D02*
X102870000Y-138430000D01*
X64770000Y-140970000D02*
X64770000Y-138430000D01*
X102870000Y-140970000D02*
X64770000Y-140970000D01*
X102870000Y-138430000D02*
X102870000Y-140970000D01*
X102870000Y-135890000D02*
X102870000Y-133350000D01*
X64770000Y-135890000D02*
X102870000Y-135890000D01*
X64770000Y-133350000D02*
X64770000Y-135890000D01*
X102870000Y-133350000D02*
X64770000Y-133350000D01*
X110619047Y-48571428D02*
X111380952Y-48571428D01*
X111000000Y-48952380D02*
X111000000Y-48190476D01*
X130619047Y-48571428D02*
X131380952Y-48571428D01*
X131000000Y-48952380D02*
X131000000Y-48190476D01*
X90619047Y-48571428D02*
X91380952Y-48571428D01*
X91000000Y-48952380D02*
X91000000Y-48190476D01*
X80619047Y-48571428D02*
X81380952Y-48571428D01*
X81000000Y-48952380D02*
X81000000Y-48190476D01*
X120619047Y-48571428D02*
X121380952Y-48571428D01*
X121000000Y-48952380D02*
X121000000Y-48190476D01*
X70619047Y-48571428D02*
X71380952Y-48571428D01*
X71000000Y-48952380D02*
X71000000Y-48190476D01*
D10*
X142660000Y-97727142D02*
X142517142Y-97798571D01*
X142231428Y-97798571D01*
X142088571Y-97727142D01*
X142017142Y-97584285D01*
X142017142Y-97512857D01*
X142088571Y-97370000D01*
X142231428Y-97298571D01*
X142445714Y-97298571D01*
X142588571Y-97227142D01*
X142660000Y-97084285D01*
X142660000Y-97012857D01*
X142588571Y-96870000D01*
X142445714Y-96798571D01*
X142231428Y-96798571D01*
X142088571Y-96870000D01*
X141588571Y-96798571D02*
X141017142Y-96798571D01*
X141374285Y-96298571D02*
X141374285Y-97584285D01*
X141302857Y-97727142D01*
X141160000Y-97798571D01*
X141017142Y-97798571D01*
X139874285Y-97798571D02*
X139874285Y-97012857D01*
X139945714Y-96870000D01*
X140088571Y-96798571D01*
X140374285Y-96798571D01*
X140517142Y-96870000D01*
X139874285Y-97727142D02*
X140017142Y-97798571D01*
X140374285Y-97798571D01*
X140517142Y-97727142D01*
X140588571Y-97584285D01*
X140588571Y-97441428D01*
X140517142Y-97298571D01*
X140374285Y-97227142D01*
X140017142Y-97227142D01*
X139874285Y-97155714D01*
X139160000Y-97798571D02*
X139160000Y-96798571D01*
X139160000Y-97084285D02*
X139088571Y-96941428D01*
X139017142Y-96870000D01*
X138874285Y-96798571D01*
X138731428Y-96798571D01*
X138445714Y-96798571D02*
X137874285Y-96798571D01*
X138231428Y-96298571D02*
X138231428Y-97584285D01*
X138160000Y-97727142D01*
X138017142Y-97798571D01*
X137874285Y-97798571D01*
X136302857Y-96227142D02*
X137588571Y-98155714D01*
X135874285Y-97727142D02*
X135731428Y-97798571D01*
X135445714Y-97798571D01*
X135302857Y-97727142D01*
X135231428Y-97584285D01*
X135231428Y-97512857D01*
X135302857Y-97370000D01*
X135445714Y-97298571D01*
X135660000Y-97298571D01*
X135802857Y-97227142D01*
X135874285Y-97084285D01*
X135874285Y-97012857D01*
X135802857Y-96870000D01*
X135660000Y-96798571D01*
X135445714Y-96798571D01*
X135302857Y-96870000D01*
X134802857Y-96798571D02*
X134231428Y-96798571D01*
X134588571Y-96298571D02*
X134588571Y-97584285D01*
X134517142Y-97727142D01*
X134374285Y-97798571D01*
X134231428Y-97798571D01*
X133517142Y-97798571D02*
X133660000Y-97727142D01*
X133731428Y-97655714D01*
X133802857Y-97512857D01*
X133802857Y-97084285D01*
X133731428Y-96941428D01*
X133660000Y-96870000D01*
X133517142Y-96798571D01*
X133302857Y-96798571D01*
X133160000Y-96870000D01*
X133088571Y-96941428D01*
X133017142Y-97084285D01*
X133017142Y-97512857D01*
X133088571Y-97655714D01*
X133160000Y-97727142D01*
X133302857Y-97798571D01*
X133517142Y-97798571D01*
X132374285Y-96798571D02*
X132374285Y-98298571D01*
X132374285Y-96870000D02*
X132231428Y-96798571D01*
X131945714Y-96798571D01*
X131802857Y-96870000D01*
X131731428Y-96941428D01*
X131660000Y-97084285D01*
X131660000Y-97512857D01*
X131731428Y-97655714D01*
X131802857Y-97727142D01*
X131945714Y-97798571D01*
X132231428Y-97798571D01*
X132374285Y-97727142D01*
D11*
X106438095Y-98370000D02*
X106500000Y-98298571D01*
X106623809Y-98084285D01*
X106685714Y-97941428D01*
X106747619Y-97727142D01*
X106809523Y-97370000D01*
X106809523Y-97084285D01*
X106747619Y-96727142D01*
X106685714Y-96512857D01*
X106623809Y-96370000D01*
X106500000Y-96155714D01*
X106438095Y-96084285D01*
X105385714Y-97727142D02*
X105509523Y-97798571D01*
X105757142Y-97798571D01*
X105880952Y-97727142D01*
X105942857Y-97655714D01*
X106004761Y-97512857D01*
X106004761Y-97084285D01*
X105942857Y-96941428D01*
X105880952Y-96870000D01*
X105757142Y-96798571D01*
X105509523Y-96798571D01*
X105385714Y-96870000D01*
X104828571Y-97798571D02*
X104828571Y-96298571D01*
X104271428Y-97798571D02*
X104271428Y-97012857D01*
X104333333Y-96870000D01*
X104457142Y-96798571D01*
X104642857Y-96798571D01*
X104766666Y-96870000D01*
X104828571Y-96941428D01*
X103095238Y-97798571D02*
X103095238Y-97012857D01*
X103157142Y-96870000D01*
X103280952Y-96798571D01*
X103528571Y-96798571D01*
X103652380Y-96870000D01*
X103095238Y-97727142D02*
X103219047Y-97798571D01*
X103528571Y-97798571D01*
X103652380Y-97727142D01*
X103714285Y-97584285D01*
X103714285Y-97441428D01*
X103652380Y-97298571D01*
X103528571Y-97227142D01*
X103219047Y-97227142D01*
X103095238Y-97155714D01*
X102476190Y-96798571D02*
X102476190Y-97798571D01*
X102476190Y-96941428D02*
X102414285Y-96870000D01*
X102290476Y-96798571D01*
X102104761Y-96798571D01*
X101980952Y-96870000D01*
X101919047Y-97012857D01*
X101919047Y-97798571D01*
X100742857Y-96798571D02*
X100742857Y-98012857D01*
X100804761Y-98155714D01*
X100866666Y-98227142D01*
X100990476Y-98298571D01*
X101176190Y-98298571D01*
X101300000Y-98227142D01*
X100742857Y-97727142D02*
X100866666Y-97798571D01*
X101114285Y-97798571D01*
X101238095Y-97727142D01*
X101300000Y-97655714D01*
X101361904Y-97512857D01*
X101361904Y-97084285D01*
X101300000Y-96941428D01*
X101238095Y-96870000D01*
X101114285Y-96798571D01*
X100866666Y-96798571D01*
X100742857Y-96870000D01*
X99628571Y-97727142D02*
X99752380Y-97798571D01*
X100000000Y-97798571D01*
X100123809Y-97727142D01*
X100185714Y-97584285D01*
X100185714Y-97012857D01*
X100123809Y-96870000D01*
X100000000Y-96798571D01*
X99752380Y-96798571D01*
X99628571Y-96870000D01*
X99566666Y-97012857D01*
X99566666Y-97155714D01*
X100185714Y-97298571D01*
X98019047Y-97798571D02*
X98019047Y-96298571D01*
X98019047Y-96870000D02*
X97895238Y-96798571D01*
X97647619Y-96798571D01*
X97523809Y-96870000D01*
X97461904Y-96941428D01*
X97400000Y-97084285D01*
X97400000Y-97512857D01*
X97461904Y-97655714D01*
X97523809Y-97727142D01*
X97647619Y-97798571D01*
X97895238Y-97798571D01*
X98019047Y-97727142D01*
X96285714Y-97798571D02*
X96285714Y-97012857D01*
X96347619Y-96870000D01*
X96471428Y-96798571D01*
X96719047Y-96798571D01*
X96842857Y-96870000D01*
X96285714Y-97727142D02*
X96409523Y-97798571D01*
X96719047Y-97798571D01*
X96842857Y-97727142D01*
X96904761Y-97584285D01*
X96904761Y-97441428D01*
X96842857Y-97298571D01*
X96719047Y-97227142D01*
X96409523Y-97227142D01*
X96285714Y-97155714D01*
X95666666Y-96798571D02*
X95666666Y-97798571D01*
X95666666Y-96941428D02*
X95604761Y-96870000D01*
X95480952Y-96798571D01*
X95295238Y-96798571D01*
X95171428Y-96870000D01*
X95109523Y-97012857D01*
X95109523Y-97798571D01*
X94490476Y-97798571D02*
X94490476Y-96298571D01*
X94366666Y-97227142D02*
X93995238Y-97798571D01*
X93995238Y-96798571D02*
X94490476Y-97370000D01*
X93561904Y-98370000D02*
X93500000Y-98298571D01*
X93376190Y-98084285D01*
X93314285Y-97941428D01*
X93252380Y-97727142D01*
X93190476Y-97370000D01*
X93190476Y-97084285D01*
X93252380Y-96727142D01*
X93314285Y-96512857D01*
X93376190Y-96370000D01*
X93500000Y-96155714D01*
X93561904Y-96084285D01*
X84852380Y-98370000D02*
X84914285Y-98298571D01*
X85038095Y-98084285D01*
X85100000Y-97941428D01*
X85161904Y-97727142D01*
X85223809Y-97370000D01*
X85223809Y-97084285D01*
X85161904Y-96727142D01*
X85100000Y-96512857D01*
X85038095Y-96370000D01*
X84914285Y-96155714D01*
X84852380Y-96084285D01*
X84419047Y-97727142D02*
X84295238Y-97798571D01*
X84047619Y-97798571D01*
X83923809Y-97727142D01*
X83861904Y-97584285D01*
X83861904Y-97512857D01*
X83923809Y-97370000D01*
X84047619Y-97298571D01*
X84233333Y-97298571D01*
X84357142Y-97227142D01*
X84419047Y-97084285D01*
X84419047Y-97012857D01*
X84357142Y-96870000D01*
X84233333Y-96798571D01*
X84047619Y-96798571D01*
X83923809Y-96870000D01*
X82747619Y-97798571D02*
X82747619Y-97012857D01*
X82809523Y-96870000D01*
X82933333Y-96798571D01*
X83180952Y-96798571D01*
X83304761Y-96870000D01*
X82747619Y-97727142D02*
X82871428Y-97798571D01*
X83180952Y-97798571D01*
X83304761Y-97727142D01*
X83366666Y-97584285D01*
X83366666Y-97441428D01*
X83304761Y-97298571D01*
X83180952Y-97227142D01*
X82871428Y-97227142D01*
X82747619Y-97155714D01*
X82252380Y-96798571D02*
X81942857Y-97798571D01*
X81633333Y-96798571D01*
X80642857Y-97727142D02*
X80766666Y-97798571D01*
X81014285Y-97798571D01*
X81138095Y-97727142D01*
X81200000Y-97584285D01*
X81200000Y-97012857D01*
X81138095Y-96870000D01*
X81014285Y-96798571D01*
X80766666Y-96798571D01*
X80642857Y-96870000D01*
X80580952Y-97012857D01*
X80580952Y-97155714D01*
X81200000Y-97298571D01*
X80147619Y-98370000D02*
X80085714Y-98298571D01*
X79961904Y-98084285D01*
X79900000Y-97941428D01*
X79838095Y-97727142D01*
X79776190Y-97370000D01*
X79776190Y-97084285D01*
X79838095Y-96727142D01*
X79900000Y-96512857D01*
X79961904Y-96370000D01*
X80085714Y-96155714D01*
X80147619Y-96084285D01*
X119790476Y-98370000D02*
X119852380Y-98298571D01*
X119976190Y-98084285D01*
X120038095Y-97941428D01*
X120100000Y-97727142D01*
X120161904Y-97370000D01*
X120161904Y-97084285D01*
X120100000Y-96727142D01*
X120038095Y-96512857D01*
X119976190Y-96370000D01*
X119852380Y-96155714D01*
X119790476Y-96084285D01*
X119109523Y-97798571D02*
X119233333Y-97727142D01*
X119295238Y-97584285D01*
X119295238Y-96298571D01*
X118428571Y-97798571D02*
X118552380Y-97727142D01*
X118614285Y-97655714D01*
X118676190Y-97512857D01*
X118676190Y-97084285D01*
X118614285Y-96941428D01*
X118552380Y-96870000D01*
X118428571Y-96798571D01*
X118242857Y-96798571D01*
X118119047Y-96870000D01*
X118057142Y-96941428D01*
X117995238Y-97084285D01*
X117995238Y-97512857D01*
X118057142Y-97655714D01*
X118119047Y-97727142D01*
X118242857Y-97798571D01*
X118428571Y-97798571D01*
X116880952Y-97798571D02*
X116880952Y-97012857D01*
X116942857Y-96870000D01*
X117066666Y-96798571D01*
X117314285Y-96798571D01*
X117438095Y-96870000D01*
X116880952Y-97727142D02*
X117004761Y-97798571D01*
X117314285Y-97798571D01*
X117438095Y-97727142D01*
X117500000Y-97584285D01*
X117500000Y-97441428D01*
X117438095Y-97298571D01*
X117314285Y-97227142D01*
X117004761Y-97227142D01*
X116880952Y-97155714D01*
X115704761Y-97798571D02*
X115704761Y-96298571D01*
X115704761Y-97727142D02*
X115828571Y-97798571D01*
X116076190Y-97798571D01*
X116200000Y-97727142D01*
X116261904Y-97655714D01*
X116323809Y-97512857D01*
X116323809Y-97084285D01*
X116261904Y-96941428D01*
X116200000Y-96870000D01*
X116076190Y-96798571D01*
X115828571Y-96798571D01*
X115704761Y-96870000D01*
X115209523Y-98370000D02*
X115147619Y-98298571D01*
X115023809Y-98084285D01*
X114961904Y-97941428D01*
X114900000Y-97727142D01*
X114838095Y-97370000D01*
X114838095Y-97084285D01*
X114900000Y-96727142D01*
X114961904Y-96512857D01*
X115023809Y-96370000D01*
X115147619Y-96155714D01*
X115209523Y-96084285D01*
D10*
X99742857Y-71052857D02*
X99742857Y-70424285D01*
X99800000Y-70310000D01*
X99914285Y-70252857D01*
X100142857Y-70252857D01*
X100257142Y-70310000D01*
X99742857Y-70995714D02*
X99857142Y-71052857D01*
X100142857Y-71052857D01*
X100257142Y-70995714D01*
X100314285Y-70881428D01*
X100314285Y-70767142D01*
X100257142Y-70652857D01*
X100142857Y-70595714D01*
X99857142Y-70595714D01*
X99742857Y-70538571D01*
X100257142Y-73152857D02*
X100257142Y-71952857D01*
X100257142Y-72410000D02*
X100142857Y-72352857D01*
X99914285Y-72352857D01*
X99800000Y-72410000D01*
X99742857Y-72467142D01*
X99685714Y-72581428D01*
X99685714Y-72924285D01*
X99742857Y-73038571D01*
X99800000Y-73095714D01*
X99914285Y-73152857D01*
X100142857Y-73152857D01*
X100257142Y-73095714D01*
X99714285Y-75195714D02*
X99828571Y-75252857D01*
X100057142Y-75252857D01*
X100171428Y-75195714D01*
X100228571Y-75138571D01*
X100285714Y-75024285D01*
X100285714Y-74681428D01*
X100228571Y-74567142D01*
X100171428Y-74510000D01*
X100057142Y-74452857D01*
X99828571Y-74452857D01*
X99714285Y-74510000D01*
X99742857Y-77352857D02*
X99742857Y-76152857D01*
X99742857Y-77295714D02*
X99857142Y-77352857D01*
X100085714Y-77352857D01*
X100200000Y-77295714D01*
X100257142Y-77238571D01*
X100314285Y-77124285D01*
X100314285Y-76781428D01*
X100257142Y-76667142D01*
X100200000Y-76610000D01*
X100085714Y-76552857D01*
X99857142Y-76552857D01*
X99742857Y-76610000D01*
D12*
X144932400Y-77470000D02*
X54991000Y-77470000D01*
X144932400Y-75387200D02*
X54991000Y-75387200D01*
X144932400Y-71170800D02*
X54991000Y-71170800D01*
X144932400Y-73279000D02*
X54965600Y-73279000D01*
D10*
X69640000Y-71052857D02*
X69640000Y-70252857D01*
X69640000Y-70367142D02*
X69582857Y-70310000D01*
X69468571Y-70252857D01*
X69297142Y-70252857D01*
X69182857Y-70310000D01*
X69125714Y-70424285D01*
X69125714Y-71052857D01*
X69125714Y-70424285D02*
X69068571Y-70310000D01*
X68954285Y-70252857D01*
X68782857Y-70252857D01*
X68668571Y-70310000D01*
X68611428Y-70424285D01*
X68611428Y-71052857D01*
X68040000Y-71052857D02*
X68040000Y-70252857D01*
X68040000Y-69852857D02*
X68097142Y-69910000D01*
X68040000Y-69967142D01*
X67982857Y-69910000D01*
X68040000Y-69852857D01*
X68040000Y-69967142D01*
X66954285Y-71052857D02*
X66954285Y-69852857D01*
X66954285Y-70995714D02*
X67068571Y-71052857D01*
X67297142Y-71052857D01*
X67411428Y-70995714D01*
X67468571Y-70938571D01*
X67525714Y-70824285D01*
X67525714Y-70481428D01*
X67468571Y-70367142D01*
X67411428Y-70310000D01*
X67297142Y-70252857D01*
X67068571Y-70252857D01*
X66954285Y-70310000D01*
X66382857Y-70252857D02*
X66382857Y-71452857D01*
X66382857Y-70310000D02*
X66268571Y-70252857D01*
X66040000Y-70252857D01*
X65925714Y-70310000D01*
X65868571Y-70367142D01*
X65811428Y-70481428D01*
X65811428Y-70824285D01*
X65868571Y-70938571D01*
X65925714Y-70995714D01*
X66040000Y-71052857D01*
X66268571Y-71052857D01*
X66382857Y-70995714D01*
X65125714Y-71052857D02*
X65240000Y-70995714D01*
X65297142Y-70938571D01*
X65354285Y-70824285D01*
X65354285Y-70481428D01*
X65297142Y-70367142D01*
X65240000Y-70310000D01*
X65125714Y-70252857D01*
X64954285Y-70252857D01*
X64840000Y-70310000D01*
X64782857Y-70367142D01*
X64725714Y-70481428D01*
X64725714Y-70824285D01*
X64782857Y-70938571D01*
X64840000Y-70995714D01*
X64954285Y-71052857D01*
X65125714Y-71052857D01*
X64211428Y-71052857D02*
X64211428Y-70252857D01*
X64211428Y-69852857D02*
X64268571Y-69910000D01*
X64211428Y-69967142D01*
X64154285Y-69910000D01*
X64211428Y-69852857D01*
X64211428Y-69967142D01*
X63640000Y-70252857D02*
X63640000Y-71052857D01*
X63640000Y-70367142D02*
X63582857Y-70310000D01*
X63468571Y-70252857D01*
X63297142Y-70252857D01*
X63182857Y-70310000D01*
X63125714Y-70424285D01*
X63125714Y-71052857D01*
X62725714Y-70252857D02*
X62268571Y-70252857D01*
X62554285Y-69852857D02*
X62554285Y-70881428D01*
X62497142Y-70995714D01*
X62382857Y-71052857D01*
X62268571Y-71052857D01*
X67240000Y-73152857D02*
X67240000Y-71952857D01*
X67240000Y-73095714D02*
X67354285Y-73152857D01*
X67582857Y-73152857D01*
X67697142Y-73095714D01*
X67754285Y-73038571D01*
X67811428Y-72924285D01*
X67811428Y-72581428D01*
X67754285Y-72467142D01*
X67697142Y-72410000D01*
X67582857Y-72352857D01*
X67354285Y-72352857D01*
X67240000Y-72410000D01*
X66668571Y-73152857D02*
X66668571Y-72352857D01*
X66668571Y-72581428D02*
X66611428Y-72467142D01*
X66554285Y-72410000D01*
X66440000Y-72352857D01*
X66325714Y-72352857D01*
X65754285Y-73152857D02*
X65868571Y-73095714D01*
X65925714Y-73038571D01*
X65982857Y-72924285D01*
X65982857Y-72581428D01*
X65925714Y-72467142D01*
X65868571Y-72410000D01*
X65754285Y-72352857D01*
X65582857Y-72352857D01*
X65468571Y-72410000D01*
X65411428Y-72467142D01*
X65354285Y-72581428D01*
X65354285Y-72924285D01*
X65411428Y-73038571D01*
X65468571Y-73095714D01*
X65582857Y-73152857D01*
X65754285Y-73152857D01*
X64840000Y-72352857D02*
X64840000Y-73552857D01*
X64840000Y-72410000D02*
X64725714Y-72352857D01*
X64497142Y-72352857D01*
X64382857Y-72410000D01*
X64325714Y-72467142D01*
X64268571Y-72581428D01*
X64268571Y-72924285D01*
X64325714Y-73038571D01*
X64382857Y-73095714D01*
X64497142Y-73152857D01*
X64725714Y-73152857D01*
X64840000Y-73095714D01*
X67697142Y-74452857D02*
X67697142Y-75252857D01*
X67697142Y-74567142D02*
X67640000Y-74510000D01*
X67525714Y-74452857D01*
X67354285Y-74452857D01*
X67240000Y-74510000D01*
X67182857Y-74624285D01*
X67182857Y-75252857D01*
X66440000Y-75252857D02*
X66554285Y-75195714D01*
X66611428Y-75138571D01*
X66668571Y-75024285D01*
X66668571Y-74681428D01*
X66611428Y-74567142D01*
X66554285Y-74510000D01*
X66440000Y-74452857D01*
X66268571Y-74452857D01*
X66154285Y-74510000D01*
X66097142Y-74567142D01*
X66040000Y-74681428D01*
X66040000Y-75024285D01*
X66097142Y-75138571D01*
X66154285Y-75195714D01*
X66268571Y-75252857D01*
X66440000Y-75252857D01*
X65697142Y-74452857D02*
X65240000Y-74452857D01*
X65525714Y-74052857D02*
X65525714Y-75081428D01*
X65468571Y-75195714D01*
X65354285Y-75252857D01*
X65240000Y-75252857D01*
X64382857Y-75195714D02*
X64497142Y-75252857D01*
X64725714Y-75252857D01*
X64840000Y-75195714D01*
X64897142Y-75081428D01*
X64897142Y-74624285D01*
X64840000Y-74510000D01*
X64725714Y-74452857D01*
X64497142Y-74452857D01*
X64382857Y-74510000D01*
X64325714Y-74624285D01*
X64325714Y-74738571D01*
X64897142Y-74852857D01*
X68668571Y-76552857D02*
X68211428Y-76552857D01*
X68497142Y-76152857D02*
X68497142Y-77181428D01*
X68440000Y-77295714D01*
X68325714Y-77352857D01*
X68211428Y-77352857D01*
X67354285Y-77295714D02*
X67468571Y-77352857D01*
X67697142Y-77352857D01*
X67811428Y-77295714D01*
X67868571Y-77181428D01*
X67868571Y-76724285D01*
X67811428Y-76610000D01*
X67697142Y-76552857D01*
X67468571Y-76552857D01*
X67354285Y-76610000D01*
X67297142Y-76724285D01*
X67297142Y-76838571D01*
X67868571Y-76952857D01*
X66782857Y-77352857D02*
X66782857Y-76552857D01*
X66782857Y-76667142D02*
X66725714Y-76610000D01*
X66611428Y-76552857D01*
X66440000Y-76552857D01*
X66325714Y-76610000D01*
X66268571Y-76724285D01*
X66268571Y-77352857D01*
X66268571Y-76724285D02*
X66211428Y-76610000D01*
X66097142Y-76552857D01*
X65925714Y-76552857D01*
X65811428Y-76610000D01*
X65754285Y-76724285D01*
X65754285Y-77352857D01*
X65182857Y-76552857D02*
X65182857Y-77752857D01*
X65182857Y-76610000D02*
X65068571Y-76552857D01*
X64840000Y-76552857D01*
X64725714Y-76610000D01*
X64668571Y-76667142D01*
X64611428Y-76781428D01*
X64611428Y-77124285D01*
X64668571Y-77238571D01*
X64725714Y-77295714D01*
X64840000Y-77352857D01*
X65068571Y-77352857D01*
X65182857Y-77295714D01*
X63925714Y-77352857D02*
X64040000Y-77295714D01*
X64097142Y-77238571D01*
X64154285Y-77124285D01*
X64154285Y-76781428D01*
X64097142Y-76667142D01*
X64040000Y-76610000D01*
X63925714Y-76552857D01*
X63754285Y-76552857D01*
X63640000Y-76610000D01*
X63582857Y-76667142D01*
X63525714Y-76781428D01*
X63525714Y-77124285D01*
X63582857Y-77238571D01*
X63640000Y-77295714D01*
X63754285Y-77352857D01*
X63925714Y-77352857D01*
X83508571Y-71052857D02*
X83508571Y-70252857D01*
X83508571Y-70481428D02*
X83451428Y-70367142D01*
X83394285Y-70310000D01*
X83280000Y-70252857D01*
X83165714Y-70252857D01*
X82251428Y-71052857D02*
X82251428Y-70424285D01*
X82308571Y-70310000D01*
X82422857Y-70252857D01*
X82651428Y-70252857D01*
X82765714Y-70310000D01*
X82251428Y-70995714D02*
X82365714Y-71052857D01*
X82651428Y-71052857D01*
X82765714Y-70995714D01*
X82822857Y-70881428D01*
X82822857Y-70767142D01*
X82765714Y-70652857D01*
X82651428Y-70595714D01*
X82365714Y-70595714D01*
X82251428Y-70538571D01*
X81680000Y-70252857D02*
X81680000Y-71052857D01*
X81680000Y-70367142D02*
X81622857Y-70310000D01*
X81508571Y-70252857D01*
X81337142Y-70252857D01*
X81222857Y-70310000D01*
X81165714Y-70424285D01*
X81165714Y-71052857D01*
X80080000Y-70252857D02*
X80080000Y-71224285D01*
X80137142Y-71338571D01*
X80194285Y-71395714D01*
X80308571Y-71452857D01*
X80480000Y-71452857D01*
X80594285Y-71395714D01*
X80080000Y-70995714D02*
X80194285Y-71052857D01*
X80422857Y-71052857D01*
X80537142Y-70995714D01*
X80594285Y-70938571D01*
X80651428Y-70824285D01*
X80651428Y-70481428D01*
X80594285Y-70367142D01*
X80537142Y-70310000D01*
X80422857Y-70252857D01*
X80194285Y-70252857D01*
X80080000Y-70310000D01*
X79051428Y-70995714D02*
X79165714Y-71052857D01*
X79394285Y-71052857D01*
X79508571Y-70995714D01*
X79565714Y-70881428D01*
X79565714Y-70424285D01*
X79508571Y-70310000D01*
X79394285Y-70252857D01*
X79165714Y-70252857D01*
X79051428Y-70310000D01*
X78994285Y-70424285D01*
X78994285Y-70538571D01*
X79565714Y-70652857D01*
X82451428Y-73095714D02*
X82565714Y-73152857D01*
X82794285Y-73152857D01*
X82908571Y-73095714D01*
X82965714Y-73038571D01*
X83022857Y-72924285D01*
X83022857Y-72581428D01*
X82965714Y-72467142D01*
X82908571Y-72410000D01*
X82794285Y-72352857D01*
X82565714Y-72352857D01*
X82451428Y-72410000D01*
X81937142Y-73152857D02*
X81937142Y-72352857D01*
X81937142Y-72581428D02*
X81880000Y-72467142D01*
X81822857Y-72410000D01*
X81708571Y-72352857D01*
X81594285Y-72352857D01*
X81022857Y-73152857D02*
X81137142Y-73095714D01*
X81194285Y-73038571D01*
X81251428Y-72924285D01*
X81251428Y-72581428D01*
X81194285Y-72467142D01*
X81137142Y-72410000D01*
X81022857Y-72352857D01*
X80851428Y-72352857D01*
X80737142Y-72410000D01*
X80680000Y-72467142D01*
X80622857Y-72581428D01*
X80622857Y-72924285D01*
X80680000Y-73038571D01*
X80737142Y-73095714D01*
X80851428Y-73152857D01*
X81022857Y-73152857D01*
X80108571Y-72352857D02*
X80108571Y-73552857D01*
X80108571Y-72410000D02*
X79994285Y-72352857D01*
X79765714Y-72352857D01*
X79651428Y-72410000D01*
X79594285Y-72467142D01*
X79537142Y-72581428D01*
X79537142Y-72924285D01*
X79594285Y-73038571D01*
X79651428Y-73095714D01*
X79765714Y-73152857D01*
X79994285Y-73152857D01*
X80108571Y-73095714D01*
X83965714Y-74452857D02*
X83508571Y-74452857D01*
X83794285Y-74052857D02*
X83794285Y-75081428D01*
X83737142Y-75195714D01*
X83622857Y-75252857D01*
X83508571Y-75252857D01*
X82594285Y-74452857D02*
X82594285Y-75252857D01*
X83108571Y-74452857D02*
X83108571Y-75081428D01*
X83051428Y-75195714D01*
X82937142Y-75252857D01*
X82765714Y-75252857D01*
X82651428Y-75195714D01*
X82594285Y-75138571D01*
X82022857Y-74452857D02*
X82022857Y-75252857D01*
X82022857Y-74567142D02*
X81965714Y-74510000D01*
X81851428Y-74452857D01*
X81680000Y-74452857D01*
X81565714Y-74510000D01*
X81508571Y-74624285D01*
X81508571Y-75252857D01*
X80937142Y-75252857D02*
X80937142Y-74452857D01*
X80937142Y-74052857D02*
X80994285Y-74110000D01*
X80937142Y-74167142D01*
X80880000Y-74110000D01*
X80937142Y-74052857D01*
X80937142Y-74167142D01*
X80365714Y-74452857D02*
X80365714Y-75252857D01*
X80365714Y-74567142D02*
X80308571Y-74510000D01*
X80194285Y-74452857D01*
X80022857Y-74452857D01*
X79908571Y-74510000D01*
X79851428Y-74624285D01*
X79851428Y-75252857D01*
X78765714Y-74452857D02*
X78765714Y-75424285D01*
X78822857Y-75538571D01*
X78880000Y-75595714D01*
X78994285Y-75652857D01*
X79165714Y-75652857D01*
X79280000Y-75595714D01*
X78765714Y-75195714D02*
X78880000Y-75252857D01*
X79108571Y-75252857D01*
X79222857Y-75195714D01*
X79280000Y-75138571D01*
X79337142Y-75024285D01*
X79337142Y-74681428D01*
X79280000Y-74567142D01*
X79222857Y-74510000D01*
X79108571Y-74452857D01*
X78880000Y-74452857D01*
X78765714Y-74510000D01*
X83537142Y-77295714D02*
X83422857Y-77352857D01*
X83194285Y-77352857D01*
X83080000Y-77295714D01*
X83022857Y-77181428D01*
X83022857Y-77124285D01*
X83080000Y-77010000D01*
X83194285Y-76952857D01*
X83365714Y-76952857D01*
X83480000Y-76895714D01*
X83537142Y-76781428D01*
X83537142Y-76724285D01*
X83480000Y-76610000D01*
X83365714Y-76552857D01*
X83194285Y-76552857D01*
X83080000Y-76610000D01*
X82622857Y-76552857D02*
X82394285Y-77352857D01*
X82165714Y-76781428D01*
X81937142Y-77352857D01*
X81708571Y-76552857D01*
X81251428Y-77352857D02*
X81251428Y-76552857D01*
X81251428Y-76152857D02*
X81308571Y-76210000D01*
X81251428Y-76267142D01*
X81194285Y-76210000D01*
X81251428Y-76152857D01*
X81251428Y-76267142D01*
X80680000Y-76552857D02*
X80680000Y-77352857D01*
X80680000Y-76667142D02*
X80622857Y-76610000D01*
X80508571Y-76552857D01*
X80337142Y-76552857D01*
X80222857Y-76610000D01*
X80165714Y-76724285D01*
X80165714Y-77352857D01*
X79080000Y-76552857D02*
X79080000Y-77524285D01*
X79137142Y-77638571D01*
X79194285Y-77695714D01*
X79308571Y-77752857D01*
X79480000Y-77752857D01*
X79594285Y-77695714D01*
X79080000Y-77295714D02*
X79194285Y-77352857D01*
X79422857Y-77352857D01*
X79537142Y-77295714D01*
X79594285Y-77238571D01*
X79651428Y-77124285D01*
X79651428Y-76781428D01*
X79594285Y-76667142D01*
X79537142Y-76610000D01*
X79422857Y-76552857D01*
X79194285Y-76552857D01*
X79080000Y-76610000D01*
X121580000Y-70252857D02*
X120951428Y-70252857D01*
X121580000Y-71052857D01*
X120951428Y-71052857D01*
X120322857Y-71052857D02*
X120437142Y-70995714D01*
X120494285Y-70938571D01*
X120551428Y-70824285D01*
X120551428Y-70481428D01*
X120494285Y-70367142D01*
X120437142Y-70310000D01*
X120322857Y-70252857D01*
X120151428Y-70252857D01*
X120037142Y-70310000D01*
X119980000Y-70367142D01*
X119922857Y-70481428D01*
X119922857Y-70824285D01*
X119980000Y-70938571D01*
X120037142Y-70995714D01*
X120151428Y-71052857D01*
X120322857Y-71052857D01*
X119237142Y-71052857D02*
X119351428Y-70995714D01*
X119408571Y-70938571D01*
X119465714Y-70824285D01*
X119465714Y-70481428D01*
X119408571Y-70367142D01*
X119351428Y-70310000D01*
X119237142Y-70252857D01*
X119065714Y-70252857D01*
X118951428Y-70310000D01*
X118894285Y-70367142D01*
X118837142Y-70481428D01*
X118837142Y-70824285D01*
X118894285Y-70938571D01*
X118951428Y-70995714D01*
X119065714Y-71052857D01*
X119237142Y-71052857D01*
X118322857Y-71052857D02*
X118322857Y-70252857D01*
X118322857Y-70367142D02*
X118265714Y-70310000D01*
X118151428Y-70252857D01*
X117980000Y-70252857D01*
X117865714Y-70310000D01*
X117808571Y-70424285D01*
X117808571Y-71052857D01*
X117808571Y-70424285D02*
X117751428Y-70310000D01*
X117637142Y-70252857D01*
X117465714Y-70252857D01*
X117351428Y-70310000D01*
X117294285Y-70424285D01*
X117294285Y-71052857D01*
X121037142Y-73095714D02*
X121151428Y-73152857D01*
X121380000Y-73152857D01*
X121494285Y-73095714D01*
X121551428Y-73038571D01*
X121608571Y-72924285D01*
X121608571Y-72581428D01*
X121551428Y-72467142D01*
X121494285Y-72410000D01*
X121380000Y-72352857D01*
X121151428Y-72352857D01*
X121037142Y-72410000D01*
X120522857Y-73152857D02*
X120522857Y-72352857D01*
X120522857Y-72581428D02*
X120465714Y-72467142D01*
X120408571Y-72410000D01*
X120294285Y-72352857D01*
X120180000Y-72352857D01*
X119265714Y-72352857D02*
X119265714Y-73152857D01*
X119780000Y-72352857D02*
X119780000Y-72981428D01*
X119722857Y-73095714D01*
X119608571Y-73152857D01*
X119437142Y-73152857D01*
X119322857Y-73095714D01*
X119265714Y-73038571D01*
X118751428Y-73095714D02*
X118637142Y-73152857D01*
X118408571Y-73152857D01*
X118294285Y-73095714D01*
X118237142Y-72981428D01*
X118237142Y-72924285D01*
X118294285Y-72810000D01*
X118408571Y-72752857D01*
X118580000Y-72752857D01*
X118694285Y-72695714D01*
X118751428Y-72581428D01*
X118751428Y-72524285D01*
X118694285Y-72410000D01*
X118580000Y-72352857D01*
X118408571Y-72352857D01*
X118294285Y-72410000D01*
X117722857Y-73152857D02*
X117722857Y-71952857D01*
X117208571Y-73152857D02*
X117208571Y-72524285D01*
X117265714Y-72410000D01*
X117380000Y-72352857D01*
X117551428Y-72352857D01*
X117665714Y-72410000D01*
X117722857Y-72467142D01*
X123237142Y-75252857D02*
X123237142Y-74452857D01*
X123237142Y-74567142D02*
X123180000Y-74510000D01*
X123065714Y-74452857D01*
X122894285Y-74452857D01*
X122780000Y-74510000D01*
X122722857Y-74624285D01*
X122722857Y-75252857D01*
X122722857Y-74624285D02*
X122665714Y-74510000D01*
X122551428Y-74452857D01*
X122380000Y-74452857D01*
X122265714Y-74510000D01*
X122208571Y-74624285D01*
X122208571Y-75252857D01*
X121465714Y-75252857D02*
X121580000Y-75195714D01*
X121637142Y-75138571D01*
X121694285Y-75024285D01*
X121694285Y-74681428D01*
X121637142Y-74567142D01*
X121580000Y-74510000D01*
X121465714Y-74452857D01*
X121294285Y-74452857D01*
X121180000Y-74510000D01*
X121122857Y-74567142D01*
X121065714Y-74681428D01*
X121065714Y-75024285D01*
X121122857Y-75138571D01*
X121180000Y-75195714D01*
X121294285Y-75252857D01*
X121465714Y-75252857D01*
X120037142Y-75252857D02*
X120037142Y-74052857D01*
X120037142Y-75195714D02*
X120151428Y-75252857D01*
X120380000Y-75252857D01*
X120494285Y-75195714D01*
X120551428Y-75138571D01*
X120608571Y-75024285D01*
X120608571Y-74681428D01*
X120551428Y-74567142D01*
X120494285Y-74510000D01*
X120380000Y-74452857D01*
X120151428Y-74452857D01*
X120037142Y-74510000D01*
X118951428Y-74452857D02*
X118951428Y-75252857D01*
X119465714Y-74452857D02*
X119465714Y-75081428D01*
X119408571Y-75195714D01*
X119294285Y-75252857D01*
X119122857Y-75252857D01*
X119008571Y-75195714D01*
X118951428Y-75138571D01*
X118208571Y-75252857D02*
X118322857Y-75195714D01*
X118380000Y-75081428D01*
X118380000Y-74052857D01*
X117237142Y-75252857D02*
X117237142Y-74624285D01*
X117294285Y-74510000D01*
X117408571Y-74452857D01*
X117637142Y-74452857D01*
X117751428Y-74510000D01*
X117237142Y-75195714D02*
X117351428Y-75252857D01*
X117637142Y-75252857D01*
X117751428Y-75195714D01*
X117808571Y-75081428D01*
X117808571Y-74967142D01*
X117751428Y-74852857D01*
X117637142Y-74795714D01*
X117351428Y-74795714D01*
X117237142Y-74738571D01*
X116837142Y-74452857D02*
X116380000Y-74452857D01*
X116665714Y-74052857D02*
X116665714Y-75081428D01*
X116608571Y-75195714D01*
X116494285Y-75252857D01*
X116380000Y-75252857D01*
X115522857Y-75195714D02*
X115637142Y-75252857D01*
X115865714Y-75252857D01*
X115980000Y-75195714D01*
X116037142Y-75081428D01*
X116037142Y-74624285D01*
X115980000Y-74510000D01*
X115865714Y-74452857D01*
X115637142Y-74452857D01*
X115522857Y-74510000D01*
X115465714Y-74624285D01*
X115465714Y-74738571D01*
X116037142Y-74852857D01*
X123608571Y-77352857D02*
X123608571Y-76152857D01*
X123608571Y-76610000D02*
X123494285Y-76552857D01*
X123265714Y-76552857D01*
X123151428Y-76610000D01*
X123094285Y-76667142D01*
X123037142Y-76781428D01*
X123037142Y-77124285D01*
X123094285Y-77238571D01*
X123151428Y-77295714D01*
X123265714Y-77352857D01*
X123494285Y-77352857D01*
X123608571Y-77295714D01*
X122065714Y-77295714D02*
X122180000Y-77352857D01*
X122408571Y-77352857D01*
X122522857Y-77295714D01*
X122580000Y-77181428D01*
X122580000Y-76724285D01*
X122522857Y-76610000D01*
X122408571Y-76552857D01*
X122180000Y-76552857D01*
X122065714Y-76610000D01*
X122008571Y-76724285D01*
X122008571Y-76838571D01*
X122580000Y-76952857D01*
X120980000Y-77352857D02*
X120980000Y-76724285D01*
X121037142Y-76610000D01*
X121151428Y-76552857D01*
X121380000Y-76552857D01*
X121494285Y-76610000D01*
X120980000Y-77295714D02*
X121094285Y-77352857D01*
X121380000Y-77352857D01*
X121494285Y-77295714D01*
X121551428Y-77181428D01*
X121551428Y-77067142D01*
X121494285Y-76952857D01*
X121380000Y-76895714D01*
X121094285Y-76895714D01*
X120980000Y-76838571D01*
X120580000Y-76552857D02*
X120122857Y-76552857D01*
X120408571Y-76152857D02*
X120408571Y-77181428D01*
X120351428Y-77295714D01*
X120237142Y-77352857D01*
X120122857Y-77352857D01*
X119780000Y-77295714D02*
X119665714Y-77352857D01*
X119437142Y-77352857D01*
X119322857Y-77295714D01*
X119265714Y-77181428D01*
X119265714Y-77124285D01*
X119322857Y-77010000D01*
X119437142Y-76952857D01*
X119608571Y-76952857D01*
X119722857Y-76895714D01*
X119780000Y-76781428D01*
X119780000Y-76724285D01*
X119722857Y-76610000D01*
X119608571Y-76552857D01*
X119437142Y-76552857D01*
X119322857Y-76610000D01*
X117894285Y-76095714D02*
X118922857Y-77638571D01*
X117494285Y-77352857D02*
X117494285Y-76152857D01*
X117494285Y-76610000D02*
X117380000Y-76552857D01*
X117151428Y-76552857D01*
X117037142Y-76610000D01*
X116980000Y-76667142D01*
X116922857Y-76781428D01*
X116922857Y-77124285D01*
X116980000Y-77238571D01*
X117037142Y-77295714D01*
X117151428Y-77352857D01*
X117380000Y-77352857D01*
X117494285Y-77295714D01*
X115894285Y-77352857D02*
X115894285Y-76724285D01*
X115951428Y-76610000D01*
X116065714Y-76552857D01*
X116294285Y-76552857D01*
X116408571Y-76610000D01*
X115894285Y-77295714D02*
X116008571Y-77352857D01*
X116294285Y-77352857D01*
X116408571Y-77295714D01*
X116465714Y-77181428D01*
X116465714Y-77067142D01*
X116408571Y-76952857D01*
X116294285Y-76895714D01*
X116008571Y-76895714D01*
X115894285Y-76838571D01*
X115322857Y-77352857D02*
X115322857Y-76552857D01*
X115322857Y-76781428D02*
X115265714Y-76667142D01*
X115208571Y-76610000D01*
X115094285Y-76552857D01*
X114980000Y-76552857D01*
X136991428Y-70995714D02*
X137105714Y-71052857D01*
X137334285Y-71052857D01*
X137448571Y-70995714D01*
X137505714Y-70938571D01*
X137562857Y-70824285D01*
X137562857Y-70481428D01*
X137505714Y-70367142D01*
X137448571Y-70310000D01*
X137334285Y-70252857D01*
X137105714Y-70252857D01*
X136991428Y-70310000D01*
X136477142Y-71052857D02*
X136477142Y-69852857D01*
X135962857Y-71052857D02*
X135962857Y-70424285D01*
X136020000Y-70310000D01*
X136134285Y-70252857D01*
X136305714Y-70252857D01*
X136420000Y-70310000D01*
X136477142Y-70367142D01*
X134877142Y-71052857D02*
X134877142Y-70424285D01*
X134934285Y-70310000D01*
X135048571Y-70252857D01*
X135277142Y-70252857D01*
X135391428Y-70310000D01*
X134877142Y-70995714D02*
X134991428Y-71052857D01*
X135277142Y-71052857D01*
X135391428Y-70995714D01*
X135448571Y-70881428D01*
X135448571Y-70767142D01*
X135391428Y-70652857D01*
X135277142Y-70595714D01*
X134991428Y-70595714D01*
X134877142Y-70538571D01*
X134305714Y-70252857D02*
X134305714Y-71052857D01*
X134305714Y-70367142D02*
X134248571Y-70310000D01*
X134134285Y-70252857D01*
X133962857Y-70252857D01*
X133848571Y-70310000D01*
X133791428Y-70424285D01*
X133791428Y-71052857D01*
X132705714Y-70995714D02*
X132820000Y-71052857D01*
X133048571Y-71052857D01*
X133162857Y-70995714D01*
X133220000Y-70938571D01*
X133277142Y-70824285D01*
X133277142Y-70481428D01*
X133220000Y-70367142D01*
X133162857Y-70310000D01*
X133048571Y-70252857D01*
X132820000Y-70252857D01*
X132705714Y-70310000D01*
X131734285Y-70995714D02*
X131848571Y-71052857D01*
X132077142Y-71052857D01*
X132191428Y-70995714D01*
X132248571Y-70881428D01*
X132248571Y-70424285D01*
X132191428Y-70310000D01*
X132077142Y-70252857D01*
X131848571Y-70252857D01*
X131734285Y-70310000D01*
X131677142Y-70424285D01*
X131677142Y-70538571D01*
X132248571Y-70652857D01*
X136562857Y-72352857D02*
X136562857Y-73552857D01*
X136562857Y-72410000D02*
X136448571Y-72352857D01*
X136220000Y-72352857D01*
X136105714Y-72410000D01*
X136048571Y-72467142D01*
X135991428Y-72581428D01*
X135991428Y-72924285D01*
X136048571Y-73038571D01*
X136105714Y-73095714D01*
X136220000Y-73152857D01*
X136448571Y-73152857D01*
X136562857Y-73095714D01*
X135477142Y-73152857D02*
X135477142Y-72352857D01*
X135477142Y-71952857D02*
X135534285Y-72010000D01*
X135477142Y-72067142D01*
X135420000Y-72010000D01*
X135477142Y-71952857D01*
X135477142Y-72067142D01*
X135077142Y-72352857D02*
X134620000Y-72352857D01*
X134905714Y-71952857D02*
X134905714Y-72981428D01*
X134848571Y-73095714D01*
X134734285Y-73152857D01*
X134620000Y-73152857D01*
X133705714Y-73095714D02*
X133820000Y-73152857D01*
X134048571Y-73152857D01*
X134162857Y-73095714D01*
X134220000Y-73038571D01*
X134277142Y-72924285D01*
X134277142Y-72581428D01*
X134220000Y-72467142D01*
X134162857Y-72410000D01*
X134048571Y-72352857D01*
X133820000Y-72352857D01*
X133705714Y-72410000D01*
X133191428Y-73152857D02*
X133191428Y-71952857D01*
X132677142Y-73152857D02*
X132677142Y-72524285D01*
X132734285Y-72410000D01*
X132848571Y-72352857D01*
X133020000Y-72352857D01*
X133134285Y-72410000D01*
X133191428Y-72467142D01*
X136334285Y-75252857D02*
X136334285Y-74052857D01*
X136334285Y-75195714D02*
X136448571Y-75252857D01*
X136677142Y-75252857D01*
X136791428Y-75195714D01*
X136848571Y-75138571D01*
X136905714Y-75024285D01*
X136905714Y-74681428D01*
X136848571Y-74567142D01*
X136791428Y-74510000D01*
X136677142Y-74452857D01*
X136448571Y-74452857D01*
X136334285Y-74510000D01*
X135762857Y-75252857D02*
X135762857Y-74452857D01*
X135762857Y-74681428D02*
X135705714Y-74567142D01*
X135648571Y-74510000D01*
X135534285Y-74452857D01*
X135420000Y-74452857D01*
X134848571Y-75252857D02*
X134962857Y-75195714D01*
X135020000Y-75138571D01*
X135077142Y-75024285D01*
X135077142Y-74681428D01*
X135020000Y-74567142D01*
X134962857Y-74510000D01*
X134848571Y-74452857D01*
X134677142Y-74452857D01*
X134562857Y-74510000D01*
X134505714Y-74567142D01*
X134448571Y-74681428D01*
X134448571Y-75024285D01*
X134505714Y-75138571D01*
X134562857Y-75195714D01*
X134677142Y-75252857D01*
X134848571Y-75252857D01*
X133934285Y-74452857D02*
X133934285Y-75252857D01*
X133934285Y-74567142D02*
X133877142Y-74510000D01*
X133762857Y-74452857D01*
X133591428Y-74452857D01*
X133477142Y-74510000D01*
X133420000Y-74624285D01*
X133420000Y-75252857D01*
X132391428Y-75195714D02*
X132505714Y-75252857D01*
X132734285Y-75252857D01*
X132848571Y-75195714D01*
X132905714Y-75081428D01*
X132905714Y-74624285D01*
X132848571Y-74510000D01*
X132734285Y-74452857D01*
X132505714Y-74452857D01*
X132391428Y-74510000D01*
X132334285Y-74624285D01*
X132334285Y-74738571D01*
X132905714Y-74852857D01*
X136277142Y-77352857D02*
X136277142Y-76152857D01*
X136277142Y-76610000D02*
X136162857Y-76552857D01*
X135934285Y-76552857D01*
X135820000Y-76610000D01*
X135762857Y-76667142D01*
X135705714Y-76781428D01*
X135705714Y-77124285D01*
X135762857Y-77238571D01*
X135820000Y-77295714D01*
X135934285Y-77352857D01*
X136162857Y-77352857D01*
X136277142Y-77295714D01*
X134734285Y-77295714D02*
X134848571Y-77352857D01*
X135077142Y-77352857D01*
X135191428Y-77295714D01*
X135248571Y-77181428D01*
X135248571Y-76724285D01*
X135191428Y-76610000D01*
X135077142Y-76552857D01*
X134848571Y-76552857D01*
X134734285Y-76610000D01*
X134677142Y-76724285D01*
X134677142Y-76838571D01*
X135248571Y-76952857D01*
X133648571Y-77352857D02*
X133648571Y-76724285D01*
X133705714Y-76610000D01*
X133820000Y-76552857D01*
X134048571Y-76552857D01*
X134162857Y-76610000D01*
X133648571Y-77295714D02*
X133762857Y-77352857D01*
X134048571Y-77352857D01*
X134162857Y-77295714D01*
X134220000Y-77181428D01*
X134220000Y-77067142D01*
X134162857Y-76952857D01*
X134048571Y-76895714D01*
X133762857Y-76895714D01*
X133648571Y-76838571D01*
X133248571Y-76552857D02*
X132791428Y-76552857D01*
X133077142Y-76152857D02*
X133077142Y-77181428D01*
X133020000Y-77295714D01*
X132905714Y-77352857D01*
X132791428Y-77352857D01*
X110585714Y-64542857D02*
X110585714Y-63914285D01*
X110642857Y-63800000D01*
X110757142Y-63742857D01*
X110985714Y-63742857D01*
X111100000Y-63800000D01*
X110585714Y-64485714D02*
X110700000Y-64542857D01*
X110985714Y-64542857D01*
X111100000Y-64485714D01*
X111157142Y-64371428D01*
X111157142Y-64257142D01*
X111100000Y-64142857D01*
X110985714Y-64085714D01*
X110700000Y-64085714D01*
X110585714Y-64028571D01*
X109842857Y-64542857D02*
X109957142Y-64485714D01*
X110014285Y-64371428D01*
X110014285Y-63342857D01*
X108928571Y-64485714D02*
X109042857Y-64542857D01*
X109271428Y-64542857D01*
X109385714Y-64485714D01*
X109442857Y-64371428D01*
X109442857Y-63914285D01*
X109385714Y-63800000D01*
X109271428Y-63742857D01*
X109042857Y-63742857D01*
X108928571Y-63800000D01*
X108871428Y-63914285D01*
X108871428Y-64028571D01*
X109442857Y-64142857D01*
X107842857Y-64542857D02*
X107842857Y-63914285D01*
X107900000Y-63800000D01*
X108014285Y-63742857D01*
X108242857Y-63742857D01*
X108357142Y-63800000D01*
X107842857Y-64485714D02*
X107957142Y-64542857D01*
X108242857Y-64542857D01*
X108357142Y-64485714D01*
X108414285Y-64371428D01*
X108414285Y-64257142D01*
X108357142Y-64142857D01*
X108242857Y-64085714D01*
X107957142Y-64085714D01*
X107842857Y-64028571D01*
X107442857Y-63742857D02*
X106985714Y-63742857D01*
X107271428Y-63342857D02*
X107271428Y-64371428D01*
X107214285Y-64485714D01*
X107100000Y-64542857D01*
X106985714Y-64542857D01*
X106414285Y-64542857D02*
X106528571Y-64485714D01*
X106585714Y-64428571D01*
X106642857Y-64314285D01*
X106642857Y-63971428D01*
X106585714Y-63857142D01*
X106528571Y-63800000D01*
X106414285Y-63742857D01*
X106242857Y-63742857D01*
X106128571Y-63800000D01*
X106071428Y-63857142D01*
X106014285Y-63971428D01*
X106014285Y-64314285D01*
X106071428Y-64428571D01*
X106128571Y-64485714D01*
X106242857Y-64542857D01*
X106414285Y-64542857D01*
X105500000Y-64542857D02*
X105500000Y-63742857D01*
X105500000Y-63971428D02*
X105442857Y-63857142D01*
X105385714Y-63800000D01*
X105271428Y-63742857D01*
X105157142Y-63742857D01*
X104757142Y-64542857D02*
X104757142Y-63742857D01*
X104757142Y-63342857D02*
X104814285Y-63400000D01*
X104757142Y-63457142D01*
X104700000Y-63400000D01*
X104757142Y-63342857D01*
X104757142Y-63457142D01*
X103671428Y-64485714D02*
X103785714Y-64542857D01*
X104014285Y-64542857D01*
X104128571Y-64485714D01*
X104185714Y-64428571D01*
X104242857Y-64314285D01*
X104242857Y-63971428D01*
X104185714Y-63857142D01*
X104128571Y-63800000D01*
X104014285Y-63742857D01*
X103785714Y-63742857D01*
X103671428Y-63800000D01*
X101728571Y-64542857D02*
X101728571Y-63342857D01*
X101728571Y-64485714D02*
X101842857Y-64542857D01*
X102071428Y-64542857D01*
X102185714Y-64485714D01*
X102242857Y-64428571D01*
X102300000Y-64314285D01*
X102300000Y-63971428D01*
X102242857Y-63857142D01*
X102185714Y-63800000D01*
X102071428Y-63742857D01*
X101842857Y-63742857D01*
X101728571Y-63800000D01*
X101157142Y-64542857D02*
X101157142Y-63742857D01*
X101157142Y-63971428D02*
X101100000Y-63857142D01*
X101042857Y-63800000D01*
X100928571Y-63742857D01*
X100814285Y-63742857D01*
X99900000Y-63742857D02*
X99900000Y-64542857D01*
X100414285Y-63742857D02*
X100414285Y-64371428D01*
X100357142Y-64485714D01*
X100242857Y-64542857D01*
X100071428Y-64542857D01*
X99957142Y-64485714D01*
X99900000Y-64428571D01*
X99328571Y-64542857D02*
X99328571Y-63742857D01*
X99328571Y-63857142D02*
X99271428Y-63800000D01*
X99157142Y-63742857D01*
X98985714Y-63742857D01*
X98871428Y-63800000D01*
X98814285Y-63914285D01*
X98814285Y-64542857D01*
X98814285Y-63914285D02*
X98757142Y-63800000D01*
X98642857Y-63742857D01*
X98471428Y-63742857D01*
X98357142Y-63800000D01*
X98300000Y-63914285D01*
X98300000Y-64542857D01*
X96814285Y-64542857D02*
X96814285Y-63742857D01*
X96814285Y-63857142D02*
X96757142Y-63800000D01*
X96642857Y-63742857D01*
X96471428Y-63742857D01*
X96357142Y-63800000D01*
X96300000Y-63914285D01*
X96300000Y-64542857D01*
X96300000Y-63914285D02*
X96242857Y-63800000D01*
X96128571Y-63742857D01*
X95957142Y-63742857D01*
X95842857Y-63800000D01*
X95785714Y-63914285D01*
X95785714Y-64542857D01*
X94700000Y-64542857D02*
X94700000Y-63914285D01*
X94757142Y-63800000D01*
X94871428Y-63742857D01*
X95100000Y-63742857D01*
X95214285Y-63800000D01*
X94700000Y-64485714D02*
X94814285Y-64542857D01*
X95100000Y-64542857D01*
X95214285Y-64485714D01*
X95271428Y-64371428D01*
X95271428Y-64257142D01*
X95214285Y-64142857D01*
X95100000Y-64085714D01*
X94814285Y-64085714D01*
X94700000Y-64028571D01*
X93614285Y-64485714D02*
X93728571Y-64542857D01*
X93957142Y-64542857D01*
X94071428Y-64485714D01*
X94128571Y-64428571D01*
X94185714Y-64314285D01*
X94185714Y-63971428D01*
X94128571Y-63857142D01*
X94071428Y-63800000D01*
X93957142Y-63742857D01*
X93728571Y-63742857D01*
X93614285Y-63800000D01*
X93100000Y-64542857D02*
X93100000Y-63342857D01*
X92585714Y-64542857D02*
X92585714Y-63914285D01*
X92642857Y-63800000D01*
X92757142Y-63742857D01*
X92928571Y-63742857D01*
X93042857Y-63800000D01*
X93100000Y-63857142D01*
X92014285Y-64542857D02*
X92014285Y-63742857D01*
X92014285Y-63342857D02*
X92071428Y-63400000D01*
X92014285Y-63457142D01*
X91957142Y-63400000D01*
X92014285Y-63342857D01*
X92014285Y-63457142D01*
X91442857Y-63742857D02*
X91442857Y-64542857D01*
X91442857Y-63857142D02*
X91385714Y-63800000D01*
X91271428Y-63742857D01*
X91100000Y-63742857D01*
X90985714Y-63800000D01*
X90928571Y-63914285D01*
X90928571Y-64542857D01*
X89900000Y-64485714D02*
X90014285Y-64542857D01*
X90242857Y-64542857D01*
X90357142Y-64485714D01*
X90414285Y-64371428D01*
X90414285Y-63914285D01*
X90357142Y-63800000D01*
X90242857Y-63742857D01*
X90014285Y-63742857D01*
X89900000Y-63800000D01*
X89842857Y-63914285D01*
X89842857Y-64028571D01*
X90414285Y-64142857D01*
X68642857Y-96798571D02*
X68071428Y-96798571D01*
X68428571Y-96298571D02*
X68428571Y-97584285D01*
X68357142Y-97727142D01*
X68214285Y-97798571D01*
X68071428Y-97798571D01*
X66928571Y-97798571D02*
X66928571Y-97012857D01*
X67000000Y-96870000D01*
X67142857Y-96798571D01*
X67428571Y-96798571D01*
X67571428Y-96870000D01*
X66928571Y-97727142D02*
X67071428Y-97798571D01*
X67428571Y-97798571D01*
X67571428Y-97727142D01*
X67642857Y-97584285D01*
X67642857Y-97441428D01*
X67571428Y-97298571D01*
X67428571Y-97227142D01*
X67071428Y-97227142D01*
X66928571Y-97155714D01*
X66214285Y-96798571D02*
X66214285Y-98298571D01*
X66214285Y-96870000D02*
X66071428Y-96798571D01*
X65785714Y-96798571D01*
X65642857Y-96870000D01*
X65571428Y-96941428D01*
X65500000Y-97084285D01*
X65500000Y-97512857D01*
X65571428Y-97655714D01*
X65642857Y-97727142D01*
X65785714Y-97798571D01*
X66071428Y-97798571D01*
X66214285Y-97727142D01*
X63928571Y-96798571D02*
X63357142Y-96798571D01*
X63714285Y-96298571D02*
X63714285Y-97584285D01*
X63642857Y-97727142D01*
X63500000Y-97798571D01*
X63357142Y-97798571D01*
X62285714Y-97727142D02*
X62428571Y-97798571D01*
X62714285Y-97798571D01*
X62857142Y-97727142D01*
X62928571Y-97584285D01*
X62928571Y-97012857D01*
X62857142Y-96870000D01*
X62714285Y-96798571D01*
X62428571Y-96798571D01*
X62285714Y-96870000D01*
X62214285Y-97012857D01*
X62214285Y-97155714D01*
X62928571Y-97298571D01*
X61571428Y-97798571D02*
X61571428Y-96798571D01*
X61571428Y-96941428D02*
X61500000Y-96870000D01*
X61357142Y-96798571D01*
X61142857Y-96798571D01*
X61000000Y-96870000D01*
X60928571Y-97012857D01*
X60928571Y-97798571D01*
X60928571Y-97012857D02*
X60857142Y-96870000D01*
X60714285Y-96798571D01*
X60500000Y-96798571D01*
X60357142Y-96870000D01*
X60285714Y-97012857D01*
X60285714Y-97798571D01*
X59571428Y-96798571D02*
X59571428Y-98298571D01*
X59571428Y-96870000D02*
X59428571Y-96798571D01*
X59142857Y-96798571D01*
X59000000Y-96870000D01*
X58928571Y-96941428D01*
X58857142Y-97084285D01*
X58857142Y-97512857D01*
X58928571Y-97655714D01*
X59000000Y-97727142D01*
X59142857Y-97798571D01*
X59428571Y-97798571D01*
X59571428Y-97727142D01*
X58000000Y-97798571D02*
X58142857Y-97727142D01*
X58214285Y-97655714D01*
X58285714Y-97512857D01*
X58285714Y-97084285D01*
X58214285Y-96941428D01*
X58142857Y-96870000D01*
X58000000Y-96798571D01*
X57785714Y-96798571D01*
X57642857Y-96870000D01*
X57571428Y-96941428D01*
X57500000Y-97084285D01*
X57500000Y-97512857D01*
X57571428Y-97655714D01*
X57642857Y-97727142D01*
X57785714Y-97798571D01*
X58000000Y-97798571D01*
X75678571Y-97798571D02*
X75678571Y-96298571D01*
X75678571Y-97727142D02*
X75821428Y-97798571D01*
X76107142Y-97798571D01*
X76250000Y-97727142D01*
X76321428Y-97655714D01*
X76392857Y-97512857D01*
X76392857Y-97084285D01*
X76321428Y-96941428D01*
X76250000Y-96870000D01*
X76107142Y-96798571D01*
X75821428Y-96798571D01*
X75678571Y-96870000D01*
X88542857Y-97727142D02*
X88685714Y-97798571D01*
X88971428Y-97798571D01*
X89114285Y-97727142D01*
X89185714Y-97655714D01*
X89257142Y-97512857D01*
X89257142Y-97084285D01*
X89185714Y-96941428D01*
X89114285Y-96870000D01*
X88971428Y-96798571D01*
X88685714Y-96798571D01*
X88542857Y-96870000D01*
X111321428Y-97798571D02*
X111321428Y-96298571D01*
X111321428Y-96870000D02*
X111178571Y-96798571D01*
X110892857Y-96798571D01*
X110750000Y-96870000D01*
X110678571Y-96941428D01*
X110607142Y-97084285D01*
X110607142Y-97512857D01*
X110678571Y-97655714D01*
X110750000Y-97727142D01*
X110892857Y-97798571D01*
X111178571Y-97798571D01*
X111321428Y-97727142D01*
X123678571Y-97798571D02*
X123678571Y-97012857D01*
X123750000Y-96870000D01*
X123892857Y-96798571D01*
X124178571Y-96798571D01*
X124321428Y-96870000D01*
X123678571Y-97727142D02*
X123821428Y-97798571D01*
X124178571Y-97798571D01*
X124321428Y-97727142D01*
X124392857Y-97584285D01*
X124392857Y-97441428D01*
X124321428Y-97298571D01*
X124178571Y-97227142D01*
X123821428Y-97227142D01*
X123678571Y-97155714D01*
X76571428Y-36678571D02*
X77428571Y-36678571D01*
X77000000Y-36678571D02*
X77000000Y-35178571D01*
X77142857Y-35392857D01*
X77285714Y-35535714D01*
X77428571Y-35607142D01*
X87071428Y-35178571D02*
X86928571Y-35178571D01*
X86785714Y-35250000D01*
X86714285Y-35321428D01*
X86642857Y-35464285D01*
X86571428Y-35750000D01*
X86571428Y-36107142D01*
X86642857Y-36392857D01*
X86714285Y-36535714D01*
X86785714Y-36607142D01*
X86928571Y-36678571D01*
X87071428Y-36678571D01*
X87214285Y-36607142D01*
X87285714Y-36535714D01*
X87357142Y-36392857D01*
X87428571Y-36107142D01*
X87428571Y-35750000D01*
X87357142Y-35464285D01*
X87285714Y-35321428D01*
X87214285Y-35250000D01*
X87071428Y-35178571D01*
X94392857Y-168678571D02*
X94392857Y-167678571D01*
X94392857Y-167821428D02*
X94321428Y-167750000D01*
X94178571Y-167678571D01*
X93964285Y-167678571D01*
X93821428Y-167750000D01*
X93750000Y-167892857D01*
X93750000Y-168678571D01*
X93750000Y-167892857D02*
X93678571Y-167750000D01*
X93535714Y-167678571D01*
X93321428Y-167678571D01*
X93178571Y-167750000D01*
X93107142Y-167892857D01*
X93107142Y-168678571D01*
X92392857Y-168678571D02*
X92392857Y-167678571D01*
X92392857Y-167178571D02*
X92464285Y-167250000D01*
X92392857Y-167321428D01*
X92321428Y-167250000D01*
X92392857Y-167178571D01*
X92392857Y-167321428D01*
X91035714Y-168678571D02*
X91035714Y-167178571D01*
X91035714Y-168607142D02*
X91178571Y-168678571D01*
X91464285Y-168678571D01*
X91607142Y-168607142D01*
X91678571Y-168535714D01*
X91750000Y-168392857D01*
X91750000Y-167964285D01*
X91678571Y-167821428D01*
X91607142Y-167750000D01*
X91464285Y-167678571D01*
X91178571Y-167678571D01*
X91035714Y-167750000D01*
X90321428Y-168678571D02*
X90321428Y-167678571D01*
X90321428Y-167178571D02*
X90392857Y-167250000D01*
X90321428Y-167321428D01*
X90250000Y-167250000D01*
X90321428Y-167178571D01*
X90321428Y-167321428D01*
X88250000Y-168678571D02*
X88392857Y-168607142D01*
X88464285Y-168535714D01*
X88535714Y-168392857D01*
X88535714Y-167964285D01*
X88464285Y-167821428D01*
X88392857Y-167750000D01*
X88250000Y-167678571D01*
X88035714Y-167678571D01*
X87892857Y-167750000D01*
X87821428Y-167821428D01*
X87750000Y-167964285D01*
X87750000Y-168392857D01*
X87821428Y-168535714D01*
X87892857Y-168607142D01*
X88035714Y-168678571D01*
X88250000Y-168678571D01*
X86464285Y-167678571D02*
X86464285Y-168678571D01*
X87107142Y-167678571D02*
X87107142Y-168464285D01*
X87035714Y-168607142D01*
X86892857Y-168678571D01*
X86678571Y-168678571D01*
X86535714Y-168607142D01*
X86464285Y-168535714D01*
X85964285Y-167678571D02*
X85392857Y-167678571D01*
X85750000Y-167178571D02*
X85750000Y-168464285D01*
X85678571Y-168607142D01*
X85535714Y-168678571D01*
X85392857Y-168678571D01*
X113642857Y-168678571D02*
X113642857Y-167678571D01*
X113642857Y-167821428D02*
X113571428Y-167750000D01*
X113428571Y-167678571D01*
X113214285Y-167678571D01*
X113071428Y-167750000D01*
X113000000Y-167892857D01*
X113000000Y-168678571D01*
X113000000Y-167892857D02*
X112928571Y-167750000D01*
X112785714Y-167678571D01*
X112571428Y-167678571D01*
X112428571Y-167750000D01*
X112357142Y-167892857D01*
X112357142Y-168678571D01*
X111642857Y-168678571D02*
X111642857Y-167678571D01*
X111642857Y-167178571D02*
X111714285Y-167250000D01*
X111642857Y-167321428D01*
X111571428Y-167250000D01*
X111642857Y-167178571D01*
X111642857Y-167321428D01*
X110285714Y-168678571D02*
X110285714Y-167178571D01*
X110285714Y-168607142D02*
X110428571Y-168678571D01*
X110714285Y-168678571D01*
X110857142Y-168607142D01*
X110928571Y-168535714D01*
X111000000Y-168392857D01*
X111000000Y-167964285D01*
X110928571Y-167821428D01*
X110857142Y-167750000D01*
X110714285Y-167678571D01*
X110428571Y-167678571D01*
X110285714Y-167750000D01*
X109571428Y-168678571D02*
X109571428Y-167678571D01*
X109571428Y-167178571D02*
X109642857Y-167250000D01*
X109571428Y-167321428D01*
X109500000Y-167250000D01*
X109571428Y-167178571D01*
X109571428Y-167321428D01*
X107714285Y-168678571D02*
X107714285Y-167678571D01*
X107714285Y-167178571D02*
X107785714Y-167250000D01*
X107714285Y-167321428D01*
X107642857Y-167250000D01*
X107714285Y-167178571D01*
X107714285Y-167321428D01*
X107000000Y-167678571D02*
X107000000Y-168678571D01*
X107000000Y-167821428D02*
X106928571Y-167750000D01*
X106785714Y-167678571D01*
X106571428Y-167678571D01*
X106428571Y-167750000D01*
X106357142Y-167892857D01*
X106357142Y-168678571D01*
D13*
X72950000Y-113279422D02*
X72950000Y-113796578D01*
X74370000Y-113279422D02*
X74370000Y-113796578D01*
X83514000Y-113718078D02*
X83514000Y-113200922D01*
X82094000Y-113718078D02*
X82094000Y-113200922D01*
X79046000Y-113200922D02*
X79046000Y-113718078D01*
X80466000Y-113200922D02*
X80466000Y-113718078D01*
X88290000Y-147741422D02*
X88290000Y-148258578D01*
X89710000Y-147741422D02*
X89710000Y-148258578D01*
X85290000Y-147741422D02*
X85290000Y-148258578D01*
X86710000Y-147741422D02*
X86710000Y-148258578D01*
X105290000Y-112741422D02*
X105290000Y-113258578D01*
X106710000Y-112741422D02*
X106710000Y-113258578D01*
X106710000Y-117321078D02*
X106710000Y-116803922D01*
X105290000Y-117321078D02*
X105290000Y-116803922D01*
X122710000Y-122196078D02*
X122710000Y-121678922D01*
X121290000Y-122196078D02*
X121290000Y-121678922D01*
X60701422Y-140410000D02*
X61218578Y-140410000D01*
X60701422Y-138990000D02*
X61218578Y-138990000D01*
X65330000Y-113279422D02*
X65330000Y-113796578D01*
X66750000Y-113279422D02*
X66750000Y-113796578D01*
X67870000Y-113279422D02*
X67870000Y-113796578D01*
X69290000Y-113279422D02*
X69290000Y-113796578D01*
X88190000Y-113279422D02*
X88190000Y-113796578D01*
X89610000Y-113279422D02*
X89610000Y-113796578D01*
X90730000Y-113279422D02*
X90730000Y-113796578D01*
X92150000Y-113279422D02*
X92150000Y-113796578D01*
X93270000Y-113279422D02*
X93270000Y-113796578D01*
X94690000Y-113279422D02*
X94690000Y-113796578D01*
X108220000Y-132370000D02*
X110220000Y-132370000D01*
X110220000Y-132370000D02*
X110220000Y-136270000D01*
X108220000Y-132370000D02*
X108220000Y-136270000D01*
X121000000Y-114100000D02*
X123000000Y-114100000D01*
X123000000Y-114100000D02*
X123000000Y-118000000D01*
X121000000Y-114100000D02*
X121000000Y-118000000D01*
X85850000Y-113095721D02*
X85850000Y-113421279D01*
X86870000Y-113095721D02*
X86870000Y-113421279D01*
D14*
G36*
X90466369Y-57941748D02*
G01*
X90396908Y-57959157D01*
X90338198Y-57990285D01*
X90296118Y-58026046D01*
X90241815Y-58093648D01*
X90204191Y-58172060D01*
X90186776Y-58234826D01*
X90185007Y-58250550D01*
X90183390Y-58280726D01*
X90181919Y-58325921D01*
X90180592Y-58386698D01*
X90179403Y-58463623D01*
X90178351Y-58557262D01*
X90177430Y-58668178D01*
X90176637Y-58796939D01*
X90175969Y-58944107D01*
X90175421Y-59110250D01*
X90174990Y-59295932D01*
X90174672Y-59501717D01*
X90174463Y-59728172D01*
X90174361Y-59975862D01*
X90174348Y-60110037D01*
X90174336Y-60351236D01*
X90174324Y-60571362D01*
X90174347Y-60771427D01*
X90174441Y-60952445D01*
X90174639Y-61115429D01*
X90174977Y-61261393D01*
X90175491Y-61391350D01*
X90176214Y-61506313D01*
X90177183Y-61607296D01*
X90178432Y-61695311D01*
X90179997Y-61771372D01*
X90181912Y-61836492D01*
X90184212Y-61891685D01*
X90186932Y-61937964D01*
X90190108Y-61976343D01*
X90193775Y-62007833D01*
X90197967Y-62033450D01*
X90202719Y-62054206D01*
X90208068Y-62071114D01*
X90214047Y-62085187D01*
X90220691Y-62097440D01*
X90228037Y-62108885D01*
X90236118Y-62120536D01*
X90244281Y-62132380D01*
X90300423Y-62197425D01*
X90367850Y-62245630D01*
X90443180Y-62276670D01*
X90523031Y-62290218D01*
X90604021Y-62285949D01*
X90682768Y-62263538D01*
X90755891Y-62222658D01*
X90799024Y-62185807D01*
X90843199Y-62134179D01*
X90874931Y-62078103D01*
X90895996Y-62012830D01*
X90908167Y-61933611D01*
X90911611Y-61884509D01*
X90917124Y-61771672D01*
X91024798Y-61879873D01*
X91105867Y-61958142D01*
X91179933Y-62022051D01*
X91252322Y-62075566D01*
X91328360Y-62122655D01*
X91405695Y-62163501D01*
X91505193Y-62208810D01*
X91598596Y-62242026D01*
X91692642Y-62264750D01*
X91794070Y-62278578D01*
X91909617Y-62285112D01*
X91919217Y-62285356D01*
X92024293Y-62285927D01*
X92108162Y-62282150D01*
X92169527Y-62274344D01*
X92324929Y-62233946D01*
X92470732Y-62174188D01*
X92606253Y-62095917D01*
X92730810Y-61999982D01*
X92843721Y-61887229D01*
X92944303Y-61758507D01*
X93031873Y-61614662D01*
X93105749Y-61456541D01*
X93165249Y-61284993D01*
X93209689Y-61100865D01*
X93232850Y-60954028D01*
X93238430Y-60891049D01*
X93242077Y-60811899D01*
X93242719Y-60779171D01*
X92456539Y-60779171D01*
X92439430Y-60942790D01*
X92404931Y-61096692D01*
X92353435Y-61238678D01*
X92337700Y-61272570D01*
X92272764Y-61383269D01*
X92193795Y-61478643D01*
X92102359Y-61557395D01*
X92000022Y-61618230D01*
X91888351Y-61659851D01*
X91861517Y-61666568D01*
X91801657Y-61675194D01*
X91728885Y-61678160D01*
X91651557Y-61675760D01*
X91578031Y-61668285D01*
X91516663Y-61656029D01*
X91510608Y-61654279D01*
X91397265Y-61609098D01*
X91296231Y-61545852D01*
X91207823Y-61465024D01*
X91132361Y-61367098D01*
X91070161Y-61252558D01*
X91021542Y-61121886D01*
X90986822Y-60975567D01*
X90967518Y-60828572D01*
X90961732Y-60668795D01*
X90971868Y-60513176D01*
X90997290Y-60364460D01*
X91037362Y-60225395D01*
X91091448Y-60098726D01*
X91158913Y-59987201D01*
X91163774Y-59980503D01*
X91235860Y-59897902D01*
X91322226Y-59824689D01*
X91417544Y-59764580D01*
X91516488Y-59721287D01*
X91550279Y-59710986D01*
X91610327Y-59700027D01*
X91682976Y-59694544D01*
X91759648Y-59694546D01*
X91831769Y-59700046D01*
X91888924Y-59710551D01*
X92001700Y-59751896D01*
X92103127Y-59811752D01*
X92192769Y-59889431D01*
X92270190Y-59984242D01*
X92334955Y-60095495D01*
X92386626Y-60222500D01*
X92424769Y-60364567D01*
X92448947Y-60521006D01*
X92455869Y-60608035D01*
X92456539Y-60779171D01*
X93242719Y-60779171D01*
X93243836Y-60722230D01*
X93243752Y-60627688D01*
X93241873Y-60533922D01*
X93238245Y-60446582D01*
X93232912Y-60371315D01*
X93227732Y-60325552D01*
X93193740Y-60140488D01*
X93146450Y-59972126D01*
X93085226Y-59819067D01*
X93009427Y-59679913D01*
X92918416Y-59553266D01*
X92830961Y-59456740D01*
X92714105Y-59352851D01*
X92590064Y-59268186D01*
X92457363Y-59202172D01*
X92314526Y-59154237D01*
X92160076Y-59123808D01*
X91992538Y-59110313D01*
X91935782Y-59109478D01*
X91772378Y-59116665D01*
X91622401Y-59139002D01*
X91483025Y-59177650D01*
X91351427Y-59233768D01*
X91224781Y-59308519D01*
X91100263Y-59403063D01*
X90999848Y-59494151D01*
X90914261Y-59577134D01*
X90914097Y-58937458D01*
X90914004Y-58793224D01*
X90913709Y-58669232D01*
X90913073Y-58563636D01*
X90911957Y-58474592D01*
X90910222Y-58400254D01*
X90907728Y-58338778D01*
X90904336Y-58288318D01*
X90899907Y-58247030D01*
X90894301Y-58213068D01*
X90887378Y-58184586D01*
X90879000Y-58159741D01*
X90869027Y-58136687D01*
X90857319Y-58113578D01*
X90850977Y-58101804D01*
X90802833Y-58035001D01*
X90740703Y-57984993D01*
X90665534Y-57952302D01*
X90578271Y-57937448D01*
X90550862Y-57936551D01*
X90466369Y-57941748D01*
G37*
X90466369Y-57941748D02*
X90396908Y-57959157D01*
X90338198Y-57990285D01*
X90296118Y-58026046D01*
X90241815Y-58093648D01*
X90204191Y-58172060D01*
X90186776Y-58234826D01*
X90185007Y-58250550D01*
X90183390Y-58280726D01*
X90181919Y-58325921D01*
X90180592Y-58386698D01*
X90179403Y-58463623D01*
X90178351Y-58557262D01*
X90177430Y-58668178D01*
X90176637Y-58796939D01*
X90175969Y-58944107D01*
X90175421Y-59110250D01*
X90174990Y-59295932D01*
X90174672Y-59501717D01*
X90174463Y-59728172D01*
X90174361Y-59975862D01*
X90174348Y-60110037D01*
X90174336Y-60351236D01*
X90174324Y-60571362D01*
X90174347Y-60771427D01*
X90174441Y-60952445D01*
X90174639Y-61115429D01*
X90174977Y-61261393D01*
X90175491Y-61391350D01*
X90176214Y-61506313D01*
X90177183Y-61607296D01*
X90178432Y-61695311D01*
X90179997Y-61771372D01*
X90181912Y-61836492D01*
X90184212Y-61891685D01*
X90186932Y-61937964D01*
X90190108Y-61976343D01*
X90193775Y-62007833D01*
X90197967Y-62033450D01*
X90202719Y-62054206D01*
X90208068Y-62071114D01*
X90214047Y-62085187D01*
X90220691Y-62097440D01*
X90228037Y-62108885D01*
X90236118Y-62120536D01*
X90244281Y-62132380D01*
X90300423Y-62197425D01*
X90367850Y-62245630D01*
X90443180Y-62276670D01*
X90523031Y-62290218D01*
X90604021Y-62285949D01*
X90682768Y-62263538D01*
X90755891Y-62222658D01*
X90799024Y-62185807D01*
X90843199Y-62134179D01*
X90874931Y-62078103D01*
X90895996Y-62012830D01*
X90908167Y-61933611D01*
X90911611Y-61884509D01*
X90917124Y-61771672D01*
X91024798Y-61879873D01*
X91105867Y-61958142D01*
X91179933Y-62022051D01*
X91252322Y-62075566D01*
X91328360Y-62122655D01*
X91405695Y-62163501D01*
X91505193Y-62208810D01*
X91598596Y-62242026D01*
X91692642Y-62264750D01*
X91794070Y-62278578D01*
X91909617Y-62285112D01*
X91919217Y-62285356D01*
X92024293Y-62285927D01*
X92108162Y-62282150D01*
X92169527Y-62274344D01*
X92324929Y-62233946D01*
X92470732Y-62174188D01*
X92606253Y-62095917D01*
X92730810Y-61999982D01*
X92843721Y-61887229D01*
X92944303Y-61758507D01*
X93031873Y-61614662D01*
X93105749Y-61456541D01*
X93165249Y-61284993D01*
X93209689Y-61100865D01*
X93232850Y-60954028D01*
X93238430Y-60891049D01*
X93242077Y-60811899D01*
X93242719Y-60779171D01*
X92456539Y-60779171D01*
X92439430Y-60942790D01*
X92404931Y-61096692D01*
X92353435Y-61238678D01*
X92337700Y-61272570D01*
X92272764Y-61383269D01*
X92193795Y-61478643D01*
X92102359Y-61557395D01*
X92000022Y-61618230D01*
X91888351Y-61659851D01*
X91861517Y-61666568D01*
X91801657Y-61675194D01*
X91728885Y-61678160D01*
X91651557Y-61675760D01*
X91578031Y-61668285D01*
X91516663Y-61656029D01*
X91510608Y-61654279D01*
X91397265Y-61609098D01*
X91296231Y-61545852D01*
X91207823Y-61465024D01*
X91132361Y-61367098D01*
X91070161Y-61252558D01*
X91021542Y-61121886D01*
X90986822Y-60975567D01*
X90967518Y-60828572D01*
X90961732Y-60668795D01*
X90971868Y-60513176D01*
X90997290Y-60364460D01*
X91037362Y-60225395D01*
X91091448Y-60098726D01*
X91158913Y-59987201D01*
X91163774Y-59980503D01*
X91235860Y-59897902D01*
X91322226Y-59824689D01*
X91417544Y-59764580D01*
X91516488Y-59721287D01*
X91550279Y-59710986D01*
X91610327Y-59700027D01*
X91682976Y-59694544D01*
X91759648Y-59694546D01*
X91831769Y-59700046D01*
X91888924Y-59710551D01*
X92001700Y-59751896D01*
X92103127Y-59811752D01*
X92192769Y-59889431D01*
X92270190Y-59984242D01*
X92334955Y-60095495D01*
X92386626Y-60222500D01*
X92424769Y-60364567D01*
X92448947Y-60521006D01*
X92455869Y-60608035D01*
X92456539Y-60779171D01*
X93242719Y-60779171D01*
X93243836Y-60722230D01*
X93243752Y-60627688D01*
X93241873Y-60533922D01*
X93238245Y-60446582D01*
X93232912Y-60371315D01*
X93227732Y-60325552D01*
X93193740Y-60140488D01*
X93146450Y-59972126D01*
X93085226Y-59819067D01*
X93009427Y-59679913D01*
X92918416Y-59553266D01*
X92830961Y-59456740D01*
X92714105Y-59352851D01*
X92590064Y-59268186D01*
X92457363Y-59202172D01*
X92314526Y-59154237D01*
X92160076Y-59123808D01*
X91992538Y-59110313D01*
X91935782Y-59109478D01*
X91772378Y-59116665D01*
X91622401Y-59139002D01*
X91483025Y-59177650D01*
X91351427Y-59233768D01*
X91224781Y-59308519D01*
X91100263Y-59403063D01*
X90999848Y-59494151D01*
X90914261Y-59577134D01*
X90914097Y-58937458D01*
X90914004Y-58793224D01*
X90913709Y-58669232D01*
X90913073Y-58563636D01*
X90911957Y-58474592D01*
X90910222Y-58400254D01*
X90907728Y-58338778D01*
X90904336Y-58288318D01*
X90899907Y-58247030D01*
X90894301Y-58213068D01*
X90887378Y-58184586D01*
X90879000Y-58159741D01*
X90869027Y-58136687D01*
X90857319Y-58113578D01*
X90850977Y-58101804D01*
X90802833Y-58035001D01*
X90740703Y-57984993D01*
X90665534Y-57952302D01*
X90578271Y-57937448D01*
X90550862Y-57936551D01*
X90466369Y-57941748D01*
G36*
X93876253Y-59104763D02*
G01*
X93838115Y-59108065D01*
X93807399Y-59115179D01*
X93776789Y-59127423D01*
X93763404Y-59133823D01*
X93685286Y-59184094D01*
X93621626Y-59250088D01*
X93574155Y-59329474D01*
X93544609Y-59419921D01*
X93542430Y-59430972D01*
X93540385Y-59453803D01*
X93538603Y-59498602D01*
X93537084Y-59565255D01*
X93535828Y-59653645D01*
X93534838Y-59763656D01*
X93534112Y-59895173D01*
X93533653Y-60048078D01*
X93533461Y-60222255D01*
X93533536Y-60417590D01*
X93533880Y-60633965D01*
X93534098Y-60728581D01*
X93537186Y-61964217D01*
X93563246Y-62033972D01*
X93596703Y-62100342D01*
X93644029Y-62163046D01*
X93699910Y-62216233D01*
X93759033Y-62254054D01*
X93766123Y-62257295D01*
X93821191Y-62274405D01*
X93887081Y-62284577D01*
X93955164Y-62287278D01*
X94016809Y-62281970D01*
X94047028Y-62274746D01*
X94127145Y-62237408D01*
X94194887Y-62182628D01*
X94248801Y-62112164D01*
X94287436Y-62027772D01*
X94304138Y-61963849D01*
X94306268Y-61945455D01*
X94308135Y-61913393D01*
X94309744Y-61866905D01*
X94311101Y-61805232D01*
X94312210Y-61727618D01*
X94313078Y-61633305D01*
X94313710Y-61521535D01*
X94314111Y-61391549D01*
X94314286Y-61242592D01*
X94314240Y-61073904D01*
X94313980Y-60884728D01*
X94313511Y-60674306D01*
X94313447Y-60650043D01*
X94310130Y-59402130D01*
X94284689Y-59339164D01*
X94245692Y-59267762D01*
X94191321Y-59203297D01*
X94127248Y-59151942D01*
X94097020Y-59134882D01*
X94063748Y-59119841D01*
X94033924Y-59110603D01*
X94000155Y-59105806D01*
X93955043Y-59104088D01*
X93929130Y-59103956D01*
X93876253Y-59104763D01*
G37*
X93876253Y-59104763D02*
X93838115Y-59108065D01*
X93807399Y-59115179D01*
X93776789Y-59127423D01*
X93763404Y-59133823D01*
X93685286Y-59184094D01*
X93621626Y-59250088D01*
X93574155Y-59329474D01*
X93544609Y-59419921D01*
X93542430Y-59430972D01*
X93540385Y-59453803D01*
X93538603Y-59498602D01*
X93537084Y-59565255D01*
X93535828Y-59653645D01*
X93534838Y-59763656D01*
X93534112Y-59895173D01*
X93533653Y-60048078D01*
X93533461Y-60222255D01*
X93533536Y-60417590D01*
X93533880Y-60633965D01*
X93534098Y-60728581D01*
X93537186Y-61964217D01*
X93563246Y-62033972D01*
X93596703Y-62100342D01*
X93644029Y-62163046D01*
X93699910Y-62216233D01*
X93759033Y-62254054D01*
X93766123Y-62257295D01*
X93821191Y-62274405D01*
X93887081Y-62284577D01*
X93955164Y-62287278D01*
X94016809Y-62281970D01*
X94047028Y-62274746D01*
X94127145Y-62237408D01*
X94194887Y-62182628D01*
X94248801Y-62112164D01*
X94287436Y-62027772D01*
X94304138Y-61963849D01*
X94306268Y-61945455D01*
X94308135Y-61913393D01*
X94309744Y-61866905D01*
X94311101Y-61805232D01*
X94312210Y-61727618D01*
X94313078Y-61633305D01*
X94313710Y-61521535D01*
X94314111Y-61391549D01*
X94314286Y-61242592D01*
X94314240Y-61073904D01*
X94313980Y-60884728D01*
X94313511Y-60674306D01*
X94313447Y-60650043D01*
X94310130Y-59402130D01*
X94284689Y-59339164D01*
X94245692Y-59267762D01*
X94191321Y-59203297D01*
X94127248Y-59151942D01*
X94097020Y-59134882D01*
X94063748Y-59119841D01*
X94033924Y-59110603D01*
X94000155Y-59105806D01*
X93955043Y-59104088D01*
X93929130Y-59103956D01*
X93876253Y-59104763D01*
G36*
X96838811Y-57939437D02*
G01*
X96779703Y-57948816D01*
X96757748Y-57954940D01*
X96703074Y-57981603D01*
X96647888Y-58022895D01*
X96599184Y-58072674D01*
X96563956Y-58124796D01*
X96563639Y-58125420D01*
X96554470Y-58143401D01*
X96546377Y-58159835D01*
X96539285Y-58176150D01*
X96533118Y-58193774D01*
X96527803Y-58214136D01*
X96523264Y-58238664D01*
X96519426Y-58268788D01*
X96516215Y-58305935D01*
X96513555Y-58351535D01*
X96511372Y-58407015D01*
X96509591Y-58473805D01*
X96508138Y-58553333D01*
X96506936Y-58647028D01*
X96505912Y-58756318D01*
X96504990Y-58882631D01*
X96504096Y-59027397D01*
X96503155Y-59192043D01*
X96502597Y-59290438D01*
X96496739Y-60316224D01*
X95991855Y-59787394D01*
X95903510Y-59695084D01*
X95818049Y-59606216D01*
X95736950Y-59522302D01*
X95661693Y-59444852D01*
X95593756Y-59375376D01*
X95534617Y-59315385D01*
X95485756Y-59266389D01*
X95448651Y-59229899D01*
X95424781Y-59207425D01*
X95420067Y-59203347D01*
X95365089Y-59160754D01*
X95317915Y-59132179D01*
X95271769Y-59115051D01*
X95219874Y-59106799D01*
X95160478Y-59104835D01*
X95085679Y-59109108D01*
X95025369Y-59123475D01*
X94973261Y-59150538D01*
X94923066Y-59192903D01*
X94906484Y-59210006D01*
X94861973Y-59264872D01*
X94834755Y-59318427D01*
X94821746Y-59377885D01*
X94819577Y-59413402D01*
X94823773Y-59466955D01*
X94839431Y-59522131D01*
X94867677Y-59580568D01*
X94909638Y-59643902D01*
X94966440Y-59713772D01*
X95039209Y-59791814D01*
X95129072Y-59879666D01*
X95160707Y-59909268D01*
X95219896Y-59964261D01*
X95285267Y-60025143D01*
X95350235Y-60085774D01*
X95408216Y-60140013D01*
X95428047Y-60158608D01*
X95551594Y-60274565D01*
X95107342Y-60971306D01*
X95034562Y-61085657D01*
X94964464Y-61196192D01*
X94898082Y-61301258D01*
X94836450Y-61399199D01*
X94780600Y-61488362D01*
X94731567Y-61567093D01*
X94690383Y-61633737D01*
X94658083Y-61686641D01*
X94635700Y-61724151D01*
X94624653Y-61743840D01*
X94604643Y-61785750D01*
X94593100Y-61819358D01*
X94587789Y-61854306D01*
X94586474Y-61900236D01*
X94586482Y-61908490D01*
X94591109Y-61988562D01*
X94606050Y-62054085D01*
X94633693Y-62111126D01*
X94676430Y-62165750D01*
X94695672Y-62185695D01*
X94753768Y-62235729D01*
X94812201Y-62268169D01*
X94876779Y-62285124D01*
X94953315Y-62288704D01*
X94976550Y-62287665D01*
X95010628Y-62285091D01*
X95041861Y-62280893D01*
X95071173Y-62273940D01*
X95099491Y-62263099D01*
X95127740Y-62247240D01*
X95156846Y-62225231D01*
X95187735Y-62195940D01*
X95221333Y-62158235D01*
X95258566Y-62110985D01*
X95300359Y-62053059D01*
X95347638Y-61983325D01*
X95401330Y-61900650D01*
X95462359Y-61803905D01*
X95531653Y-61691956D01*
X95610136Y-61563673D01*
X95698734Y-61417924D01*
X95729095Y-61367869D01*
X95790105Y-61267326D01*
X95847815Y-61172362D01*
X95901191Y-61084669D01*
X95949198Y-61005940D01*
X95990801Y-60937868D01*
X96024966Y-60882147D01*
X96050659Y-60840470D01*
X96066844Y-60814529D01*
X96072380Y-60806086D01*
X96082333Y-60810749D01*
X96106025Y-60828823D01*
X96141263Y-60858421D01*
X96185856Y-60897656D01*
X96237609Y-60944640D01*
X96290449Y-60993826D01*
X96500054Y-61191173D01*
X96501157Y-61542385D01*
X96501817Y-61657030D01*
X96503250Y-61752164D01*
X96505813Y-61830360D01*
X96509864Y-61894189D01*
X96515764Y-61946225D01*
X96523869Y-61989039D01*
X96534539Y-62025203D01*
X96548131Y-62057291D01*
X96565004Y-62087874D01*
X96580552Y-62112155D01*
X96622646Y-62167527D01*
X96668701Y-62210258D01*
X96726608Y-62247298D01*
X96745217Y-62257182D01*
X96792793Y-62273925D01*
X96853154Y-62284293D01*
X96917774Y-62287718D01*
X96978129Y-62283633D01*
X97015782Y-62275196D01*
X97096998Y-62238860D01*
X97162819Y-62188111D01*
X97214269Y-62121755D01*
X97252369Y-62038596D01*
X97269666Y-61978369D01*
X97271843Y-61966839D01*
X97273822Y-61950901D01*
X97275614Y-61929547D01*
X97277227Y-61901771D01*
X97278670Y-61866564D01*
X97279953Y-61822919D01*
X97281084Y-61769830D01*
X97282072Y-61706289D01*
X97282926Y-61631289D01*
X97283656Y-61543823D01*
X97284270Y-61442883D01*
X97284778Y-61327462D01*
X97285188Y-61196554D01*
X97285509Y-61049150D01*
X97285751Y-60884243D01*
X97285922Y-60700827D01*
X97286032Y-60497894D01*
X97286089Y-60274437D01*
X97286101Y-60142043D01*
X97286040Y-59880839D01*
X97285834Y-59638635D01*
X97285485Y-59415694D01*
X97284994Y-59212280D01*
X97284363Y-59028656D01*
X97283593Y-58865083D01*
X97282686Y-58721826D01*
X97281643Y-58599147D01*
X97280467Y-58497309D01*
X97279159Y-58416575D01*
X97277719Y-58357208D01*
X97276151Y-58319472D01*
X97274914Y-58305660D01*
X97249620Y-58200960D01*
X97210564Y-58112415D01*
X97158176Y-58040616D01*
X97092886Y-57986153D01*
X97015782Y-57949833D01*
X96965826Y-57939768D01*
X96903843Y-57936361D01*
X96838811Y-57939437D01*
G37*
X96838811Y-57939437D02*
X96779703Y-57948816D01*
X96757748Y-57954940D01*
X96703074Y-57981603D01*
X96647888Y-58022895D01*
X96599184Y-58072674D01*
X96563956Y-58124796D01*
X96563639Y-58125420D01*
X96554470Y-58143401D01*
X96546377Y-58159835D01*
X96539285Y-58176150D01*
X96533118Y-58193774D01*
X96527803Y-58214136D01*
X96523264Y-58238664D01*
X96519426Y-58268788D01*
X96516215Y-58305935D01*
X96513555Y-58351535D01*
X96511372Y-58407015D01*
X96509591Y-58473805D01*
X96508138Y-58553333D01*
X96506936Y-58647028D01*
X96505912Y-58756318D01*
X96504990Y-58882631D01*
X96504096Y-59027397D01*
X96503155Y-59192043D01*
X96502597Y-59290438D01*
X96496739Y-60316224D01*
X95991855Y-59787394D01*
X95903510Y-59695084D01*
X95818049Y-59606216D01*
X95736950Y-59522302D01*
X95661693Y-59444852D01*
X95593756Y-59375376D01*
X95534617Y-59315385D01*
X95485756Y-59266389D01*
X95448651Y-59229899D01*
X95424781Y-59207425D01*
X95420067Y-59203347D01*
X95365089Y-59160754D01*
X95317915Y-59132179D01*
X95271769Y-59115051D01*
X95219874Y-59106799D01*
X95160478Y-59104835D01*
X95085679Y-59109108D01*
X95025369Y-59123475D01*
X94973261Y-59150538D01*
X94923066Y-59192903D01*
X94906484Y-59210006D01*
X94861973Y-59264872D01*
X94834755Y-59318427D01*
X94821746Y-59377885D01*
X94819577Y-59413402D01*
X94823773Y-59466955D01*
X94839431Y-59522131D01*
X94867677Y-59580568D01*
X94909638Y-59643902D01*
X94966440Y-59713772D01*
X95039209Y-59791814D01*
X95129072Y-59879666D01*
X95160707Y-59909268D01*
X95219896Y-59964261D01*
X95285267Y-60025143D01*
X95350235Y-60085774D01*
X95408216Y-60140013D01*
X95428047Y-60158608D01*
X95551594Y-60274565D01*
X95107342Y-60971306D01*
X95034562Y-61085657D01*
X94964464Y-61196192D01*
X94898082Y-61301258D01*
X94836450Y-61399199D01*
X94780600Y-61488362D01*
X94731567Y-61567093D01*
X94690383Y-61633737D01*
X94658083Y-61686641D01*
X94635700Y-61724151D01*
X94624653Y-61743840D01*
X94604643Y-61785750D01*
X94593100Y-61819358D01*
X94587789Y-61854306D01*
X94586474Y-61900236D01*
X94586482Y-61908490D01*
X94591109Y-61988562D01*
X94606050Y-62054085D01*
X94633693Y-62111126D01*
X94676430Y-62165750D01*
X94695672Y-62185695D01*
X94753768Y-62235729D01*
X94812201Y-62268169D01*
X94876779Y-62285124D01*
X94953315Y-62288704D01*
X94976550Y-62287665D01*
X95010628Y-62285091D01*
X95041861Y-62280893D01*
X95071173Y-62273940D01*
X95099491Y-62263099D01*
X95127740Y-62247240D01*
X95156846Y-62225231D01*
X95187735Y-62195940D01*
X95221333Y-62158235D01*
X95258566Y-62110985D01*
X95300359Y-62053059D01*
X95347638Y-61983325D01*
X95401330Y-61900650D01*
X95462359Y-61803905D01*
X95531653Y-61691956D01*
X95610136Y-61563673D01*
X95698734Y-61417924D01*
X95729095Y-61367869D01*
X95790105Y-61267326D01*
X95847815Y-61172362D01*
X95901191Y-61084669D01*
X95949198Y-61005940D01*
X95990801Y-60937868D01*
X96024966Y-60882147D01*
X96050659Y-60840470D01*
X96066844Y-60814529D01*
X96072380Y-60806086D01*
X96082333Y-60810749D01*
X96106025Y-60828823D01*
X96141263Y-60858421D01*
X96185856Y-60897656D01*
X96237609Y-60944640D01*
X96290449Y-60993826D01*
X96500054Y-61191173D01*
X96501157Y-61542385D01*
X96501817Y-61657030D01*
X96503250Y-61752164D01*
X96505813Y-61830360D01*
X96509864Y-61894189D01*
X96515764Y-61946225D01*
X96523869Y-61989039D01*
X96534539Y-62025203D01*
X96548131Y-62057291D01*
X96565004Y-62087874D01*
X96580552Y-62112155D01*
X96622646Y-62167527D01*
X96668701Y-62210258D01*
X96726608Y-62247298D01*
X96745217Y-62257182D01*
X96792793Y-62273925D01*
X96853154Y-62284293D01*
X96917774Y-62287718D01*
X96978129Y-62283633D01*
X97015782Y-62275196D01*
X97096998Y-62238860D01*
X97162819Y-62188111D01*
X97214269Y-62121755D01*
X97252369Y-62038596D01*
X97269666Y-61978369D01*
X97271843Y-61966839D01*
X97273822Y-61950901D01*
X97275614Y-61929547D01*
X97277227Y-61901771D01*
X97278670Y-61866564D01*
X97279953Y-61822919D01*
X97281084Y-61769830D01*
X97282072Y-61706289D01*
X97282926Y-61631289D01*
X97283656Y-61543823D01*
X97284270Y-61442883D01*
X97284778Y-61327462D01*
X97285188Y-61196554D01*
X97285509Y-61049150D01*
X97285751Y-60884243D01*
X97285922Y-60700827D01*
X97286032Y-60497894D01*
X97286089Y-60274437D01*
X97286101Y-60142043D01*
X97286040Y-59880839D01*
X97285834Y-59638635D01*
X97285485Y-59415694D01*
X97284994Y-59212280D01*
X97284363Y-59028656D01*
X97283593Y-58865083D01*
X97282686Y-58721826D01*
X97281643Y-58599147D01*
X97280467Y-58497309D01*
X97279159Y-58416575D01*
X97277719Y-58357208D01*
X97276151Y-58319472D01*
X97274914Y-58305660D01*
X97249620Y-58200960D01*
X97210564Y-58112415D01*
X97158176Y-58040616D01*
X97092886Y-57986153D01*
X97015782Y-57949833D01*
X96965826Y-57939768D01*
X96903843Y-57936361D01*
X96838811Y-57939437D01*
G36*
X101586418Y-59110785D02*
G01*
X101514757Y-59132619D01*
X101450236Y-59171803D01*
X101402986Y-59214219D01*
X101355310Y-59274535D01*
X101322544Y-59344812D01*
X101303299Y-59428580D01*
X101298037Y-59480689D01*
X101292205Y-59570291D01*
X101213911Y-59487868D01*
X101092543Y-59374321D01*
X100962962Y-59280230D01*
X100826213Y-59206180D01*
X100683343Y-59152757D01*
X100567575Y-59125652D01*
X100502787Y-59117408D01*
X100424633Y-59112178D01*
X100340502Y-59110043D01*
X100257780Y-59111084D01*
X100183855Y-59115384D01*
X100137932Y-59120909D01*
X100001177Y-59153726D01*
X99872732Y-59205785D01*
X99754712Y-59275751D01*
X99649235Y-59362291D01*
X99558420Y-59464071D01*
X99529947Y-59503853D01*
X99483759Y-59572446D01*
X99376206Y-59464533D01*
X99254525Y-59354483D01*
X99129236Y-59265359D01*
X98998547Y-59196074D01*
X98860669Y-59145543D01*
X98841674Y-59140171D01*
X98806742Y-59131227D01*
X98774113Y-59124696D01*
X98739386Y-59120231D01*
X98698159Y-59117482D01*
X98646031Y-59116102D01*
X98578601Y-59115742D01*
X98534261Y-59115850D01*
X98436939Y-59117233D01*
X98356650Y-59121225D01*
X98288394Y-59128863D01*
X98227172Y-59141184D01*
X98167985Y-59159225D01*
X98105834Y-59184023D01*
X98035722Y-59216614D01*
X98026261Y-59221233D01*
X97973125Y-59248308D01*
X97931503Y-59272855D01*
X97894851Y-59299656D01*
X97856624Y-59333492D01*
X97810672Y-59378748D01*
X97744582Y-59450791D01*
X97692221Y-59521142D01*
X97651077Y-59594849D01*
X97618638Y-59676960D01*
X97592394Y-59772522D01*
X97576500Y-59849391D01*
X97573110Y-59868985D01*
X97570132Y-59890148D01*
X97567540Y-59914360D01*
X97565306Y-59943103D01*
X97563405Y-59977860D01*
X97561810Y-60020112D01*
X97560496Y-60071341D01*
X97559436Y-60133029D01*
X97558603Y-60206658D01*
X97557971Y-60293710D01*
X97557515Y-60395666D01*
X97557207Y-60514009D01*
X97557022Y-60650220D01*
X97556933Y-60805781D01*
X97556913Y-60953739D01*
X97556913Y-61953173D01*
X97582839Y-62028252D01*
X97616826Y-62099533D01*
X97665706Y-62165547D01*
X97724467Y-62220625D01*
X97785949Y-62258140D01*
X97818237Y-62270966D01*
X97850323Y-62278889D01*
X97889155Y-62282992D01*
X97941685Y-62284357D01*
X97954478Y-62284397D01*
X98009006Y-62283677D01*
X98048473Y-62280643D01*
X98079875Y-62274130D01*
X98110210Y-62262968D01*
X98126156Y-62255752D01*
X98199862Y-62212917D01*
X98256404Y-62160406D01*
X98295948Y-62101914D01*
X98307293Y-62081162D01*
X98317242Y-62062267D01*
X98325899Y-62043698D01*
X98333369Y-62023926D01*
X98339754Y-62001419D01*
X98345160Y-61974649D01*
X98349690Y-61942083D01*
X98353449Y-61902193D01*
X98356541Y-61853447D01*
X98359070Y-61794316D01*
X98361141Y-61723268D01*
X98362856Y-61638774D01*
X98364321Y-61539303D01*
X98365639Y-61423325D01*
X98366916Y-61289309D01*
X98368254Y-61135725D01*
X98369199Y-61025521D01*
X98371003Y-60833001D01*
X98372914Y-60662289D01*
X98374935Y-60513108D01*
X98377074Y-60385179D01*
X98379335Y-60278223D01*
X98381726Y-60191963D01*
X98384252Y-60126120D01*
X98386919Y-60080417D01*
X98389732Y-60054574D01*
X98389897Y-60053695D01*
X98416294Y-59962007D01*
X98456669Y-59881642D01*
X98509090Y-59815351D01*
X98571628Y-59765883D01*
X98603536Y-59749415D01*
X98659540Y-59732076D01*
X98728345Y-59721294D01*
X98801470Y-59717724D01*
X98870431Y-59722023D01*
X98897749Y-59726678D01*
X98993022Y-59757878D01*
X99083384Y-59807948D01*
X99165319Y-59873716D01*
X99235311Y-59952008D01*
X99289844Y-60039651D01*
X99316970Y-60104969D01*
X99327769Y-60138629D01*
X99337203Y-60171342D01*
X99345380Y-60204842D01*
X99352411Y-60240864D01*
X99358405Y-60281141D01*
X99363471Y-60327409D01*
X99367719Y-60381402D01*
X99371260Y-60444853D01*
X99374201Y-60519499D01*
X99376654Y-60607072D01*
X99378728Y-60709308D01*
X99380531Y-60827941D01*
X99382175Y-60964705D01*
X99383768Y-61121335D01*
X99384221Y-61169086D01*
X99385676Y-61320059D01*
X99387044Y-61450579D01*
X99388376Y-61562280D01*
X99389724Y-61656795D01*
X99391143Y-61735757D01*
X99392684Y-61800801D01*
X99394399Y-61853560D01*
X99396342Y-61895668D01*
X99398565Y-61928757D01*
X99401121Y-61954462D01*
X99404062Y-61974417D01*
X99407441Y-61990254D01*
X99411071Y-62002869D01*
X99446780Y-62089656D01*
X99493450Y-62159257D01*
X99553790Y-62214974D01*
X99616522Y-62253207D01*
X99646452Y-62267438D01*
X99673228Y-62276529D01*
X99703305Y-62281620D01*
X99743139Y-62283846D01*
X99793217Y-62284343D01*
X99847755Y-62283836D01*
X99886782Y-62281417D01*
X99916859Y-62275960D01*
X99944549Y-62266343D01*
X99971695Y-62253769D01*
X100043838Y-62206353D01*
X100103830Y-62142151D01*
X100136771Y-62088954D01*
X100146712Y-62069492D01*
X100155436Y-62051489D01*
X100163033Y-62033427D01*
X100169598Y-62013787D01*
X100175222Y-61991051D01*
X100179997Y-61963702D01*
X100184017Y-61930220D01*
X100187373Y-61889088D01*
X100190157Y-61838788D01*
X100192464Y-61777802D01*
X100194384Y-61704611D01*
X100196010Y-61617698D01*
X100197434Y-61515543D01*
X100198750Y-61396630D01*
X100200049Y-61259440D01*
X100201424Y-61102454D01*
X100202183Y-61014478D01*
X100203491Y-60873380D01*
X100204920Y-60738128D01*
X100206439Y-60610423D01*
X100208022Y-60491966D01*
X100209640Y-60384461D01*
X100211265Y-60289608D01*
X100212868Y-60209110D01*
X100214422Y-60144668D01*
X100215897Y-60097985D01*
X100217266Y-60070763D01*
X100217955Y-60064739D01*
X100246293Y-59967043D01*
X100281051Y-59888579D01*
X100323707Y-59827055D01*
X100375739Y-59780176D01*
X100417174Y-59755521D01*
X100445583Y-59741882D01*
X100469944Y-59732612D01*
X100495579Y-59726872D01*
X100527810Y-59723823D01*
X100571960Y-59722627D01*
X100627000Y-59722439D01*
X100691466Y-59723073D01*
X100739900Y-59725397D01*
X100778335Y-59730127D01*
X100812806Y-59737975D01*
X100845303Y-59748252D01*
X100921115Y-59780239D01*
X100986348Y-59821226D01*
X101042016Y-59872980D01*
X101089138Y-59937264D01*
X101128730Y-60015846D01*
X101161809Y-60110491D01*
X101189392Y-60222965D01*
X101212495Y-60355032D01*
X101218337Y-60396043D01*
X101220807Y-60424979D01*
X101223235Y-60474329D01*
X101225584Y-60542420D01*
X101227818Y-60627579D01*
X101229902Y-60728132D01*
X101231798Y-60842407D01*
X101233472Y-60968731D01*
X101234886Y-61105430D01*
X101235632Y-61196695D01*
X101236796Y-61349855D01*
X101237974Y-61482636D01*
X101239318Y-61596748D01*
X101240976Y-61693898D01*
X101243099Y-61775796D01*
X101245836Y-61844150D01*
X101249339Y-61900668D01*
X101253755Y-61947058D01*
X101259236Y-61985030D01*
X101265931Y-62016292D01*
X101273990Y-62042551D01*
X101283563Y-62065517D01*
X101294800Y-62086898D01*
X101307851Y-62108403D01*
X101316860Y-62122455D01*
X101373059Y-62189536D01*
X101443876Y-62241333D01*
X101520265Y-62273678D01*
X101575036Y-62284247D01*
X101639853Y-62288428D01*
X101703531Y-62285926D01*
X101743687Y-62279520D01*
X101824525Y-62249283D01*
X101895148Y-62200679D01*
X101953863Y-62135718D01*
X101998977Y-62056408D01*
X102028795Y-61964760D01*
X102034660Y-61934210D01*
X102036594Y-61910838D01*
X102038360Y-61865964D01*
X102039952Y-61800169D01*
X102041365Y-61714038D01*
X102042594Y-61608153D01*
X102043635Y-61483099D01*
X102044481Y-61339457D01*
X102045128Y-61177812D01*
X102045570Y-60998746D01*
X102045803Y-60802842D01*
X102045840Y-60666608D01*
X102045829Y-60471786D01*
X102045786Y-60297762D01*
X102045651Y-60143248D01*
X102045365Y-60006955D01*
X102044871Y-59887596D01*
X102044108Y-59783880D01*
X102043019Y-59694521D01*
X102041546Y-59618230D01*
X102039628Y-59553717D01*
X102037208Y-59499695D01*
X102034227Y-59454874D01*
X102030626Y-59417968D01*
X102026346Y-59387686D01*
X102021330Y-59362741D01*
X102015517Y-59341843D01*
X102008850Y-59323706D01*
X102001270Y-59307039D01*
X101992717Y-59290555D01*
X101983134Y-59272965D01*
X101982294Y-59271421D01*
X101945797Y-59220385D01*
X101896317Y-59172721D01*
X101841455Y-59135012D01*
X101806049Y-59118794D01*
X101775118Y-59111875D01*
X101730654Y-59106695D01*
X101681195Y-59104184D01*
X101670608Y-59104081D01*
X101586418Y-59110785D01*
G37*
X101586418Y-59110785D02*
X101514757Y-59132619D01*
X101450236Y-59171803D01*
X101402986Y-59214219D01*
X101355310Y-59274535D01*
X101322544Y-59344812D01*
X101303299Y-59428580D01*
X101298037Y-59480689D01*
X101292205Y-59570291D01*
X101213911Y-59487868D01*
X101092543Y-59374321D01*
X100962962Y-59280230D01*
X100826213Y-59206180D01*
X100683343Y-59152757D01*
X100567575Y-59125652D01*
X100502787Y-59117408D01*
X100424633Y-59112178D01*
X100340502Y-59110043D01*
X100257780Y-59111084D01*
X100183855Y-59115384D01*
X100137932Y-59120909D01*
X100001177Y-59153726D01*
X99872732Y-59205785D01*
X99754712Y-59275751D01*
X99649235Y-59362291D01*
X99558420Y-59464071D01*
X99529947Y-59503853D01*
X99483759Y-59572446D01*
X99376206Y-59464533D01*
X99254525Y-59354483D01*
X99129236Y-59265359D01*
X98998547Y-59196074D01*
X98860669Y-59145543D01*
X98841674Y-59140171D01*
X98806742Y-59131227D01*
X98774113Y-59124696D01*
X98739386Y-59120231D01*
X98698159Y-59117482D01*
X98646031Y-59116102D01*
X98578601Y-59115742D01*
X98534261Y-59115850D01*
X98436939Y-59117233D01*
X98356650Y-59121225D01*
X98288394Y-59128863D01*
X98227172Y-59141184D01*
X98167985Y-59159225D01*
X98105834Y-59184023D01*
X98035722Y-59216614D01*
X98026261Y-59221233D01*
X97973125Y-59248308D01*
X97931503Y-59272855D01*
X97894851Y-59299656D01*
X97856624Y-59333492D01*
X97810672Y-59378748D01*
X97744582Y-59450791D01*
X97692221Y-59521142D01*
X97651077Y-59594849D01*
X97618638Y-59676960D01*
X97592394Y-59772522D01*
X97576500Y-59849391D01*
X97573110Y-59868985D01*
X97570132Y-59890148D01*
X97567540Y-59914360D01*
X97565306Y-59943103D01*
X97563405Y-59977860D01*
X97561810Y-60020112D01*
X97560496Y-60071341D01*
X97559436Y-60133029D01*
X97558603Y-60206658D01*
X97557971Y-60293710D01*
X97557515Y-60395666D01*
X97557207Y-60514009D01*
X97557022Y-60650220D01*
X97556933Y-60805781D01*
X97556913Y-60953739D01*
X97556913Y-61953173D01*
X97582839Y-62028252D01*
X97616826Y-62099533D01*
X97665706Y-62165547D01*
X97724467Y-62220625D01*
X97785949Y-62258140D01*
X97818237Y-62270966D01*
X97850323Y-62278889D01*
X97889155Y-62282992D01*
X97941685Y-62284357D01*
X97954478Y-62284397D01*
X98009006Y-62283677D01*
X98048473Y-62280643D01*
X98079875Y-62274130D01*
X98110210Y-62262968D01*
X98126156Y-62255752D01*
X98199862Y-62212917D01*
X98256404Y-62160406D01*
X98295948Y-62101914D01*
X98307293Y-62081162D01*
X98317242Y-62062267D01*
X98325899Y-62043698D01*
X98333369Y-62023926D01*
X98339754Y-62001419D01*
X98345160Y-61974649D01*
X98349690Y-61942083D01*
X98353449Y-61902193D01*
X98356541Y-61853447D01*
X98359070Y-61794316D01*
X98361141Y-61723268D01*
X98362856Y-61638774D01*
X98364321Y-61539303D01*
X98365639Y-61423325D01*
X98366916Y-61289309D01*
X98368254Y-61135725D01*
X98369199Y-61025521D01*
X98371003Y-60833001D01*
X98372914Y-60662289D01*
X98374935Y-60513108D01*
X98377074Y-60385179D01*
X98379335Y-60278223D01*
X98381726Y-60191963D01*
X98384252Y-60126120D01*
X98386919Y-60080417D01*
X98389732Y-60054574D01*
X98389897Y-60053695D01*
X98416294Y-59962007D01*
X98456669Y-59881642D01*
X98509090Y-59815351D01*
X98571628Y-59765883D01*
X98603536Y-59749415D01*
X98659540Y-59732076D01*
X98728345Y-59721294D01*
X98801470Y-59717724D01*
X98870431Y-59722023D01*
X98897749Y-59726678D01*
X98993022Y-59757878D01*
X99083384Y-59807948D01*
X99165319Y-59873716D01*
X99235311Y-59952008D01*
X99289844Y-60039651D01*
X99316970Y-60104969D01*
X99327769Y-60138629D01*
X99337203Y-60171342D01*
X99345380Y-60204842D01*
X99352411Y-60240864D01*
X99358405Y-60281141D01*
X99363471Y-60327409D01*
X99367719Y-60381402D01*
X99371260Y-60444853D01*
X99374201Y-60519499D01*
X99376654Y-60607072D01*
X99378728Y-60709308D01*
X99380531Y-60827941D01*
X99382175Y-60964705D01*
X99383768Y-61121335D01*
X99384221Y-61169086D01*
X99385676Y-61320059D01*
X99387044Y-61450579D01*
X99388376Y-61562280D01*
X99389724Y-61656795D01*
X99391143Y-61735757D01*
X99392684Y-61800801D01*
X99394399Y-61853560D01*
X99396342Y-61895668D01*
X99398565Y-61928757D01*
X99401121Y-61954462D01*
X99404062Y-61974417D01*
X99407441Y-61990254D01*
X99411071Y-62002869D01*
X99446780Y-62089656D01*
X99493450Y-62159257D01*
X99553790Y-62214974D01*
X99616522Y-62253207D01*
X99646452Y-62267438D01*
X99673228Y-62276529D01*
X99703305Y-62281620D01*
X99743139Y-62283846D01*
X99793217Y-62284343D01*
X99847755Y-62283836D01*
X99886782Y-62281417D01*
X99916859Y-62275960D01*
X99944549Y-62266343D01*
X99971695Y-62253769D01*
X100043838Y-62206353D01*
X100103830Y-62142151D01*
X100136771Y-62088954D01*
X100146712Y-62069492D01*
X100155436Y-62051489D01*
X100163033Y-62033427D01*
X100169598Y-62013787D01*
X100175222Y-61991051D01*
X100179997Y-61963702D01*
X100184017Y-61930220D01*
X100187373Y-61889088D01*
X100190157Y-61838788D01*
X100192464Y-61777802D01*
X100194384Y-61704611D01*
X100196010Y-61617698D01*
X100197434Y-61515543D01*
X100198750Y-61396630D01*
X100200049Y-61259440D01*
X100201424Y-61102454D01*
X100202183Y-61014478D01*
X100203491Y-60873380D01*
X100204920Y-60738128D01*
X100206439Y-60610423D01*
X100208022Y-60491966D01*
X100209640Y-60384461D01*
X100211265Y-60289608D01*
X100212868Y-60209110D01*
X100214422Y-60144668D01*
X100215897Y-60097985D01*
X100217266Y-60070763D01*
X100217955Y-60064739D01*
X100246293Y-59967043D01*
X100281051Y-59888579D01*
X100323707Y-59827055D01*
X100375739Y-59780176D01*
X100417174Y-59755521D01*
X100445583Y-59741882D01*
X100469944Y-59732612D01*
X100495579Y-59726872D01*
X100527810Y-59723823D01*
X100571960Y-59722627D01*
X100627000Y-59722439D01*
X100691466Y-59723073D01*
X100739900Y-59725397D01*
X100778335Y-59730127D01*
X100812806Y-59737975D01*
X100845303Y-59748252D01*
X100921115Y-59780239D01*
X100986348Y-59821226D01*
X101042016Y-59872980D01*
X101089138Y-59937264D01*
X101128730Y-60015846D01*
X101161809Y-60110491D01*
X101189392Y-60222965D01*
X101212495Y-60355032D01*
X101218337Y-60396043D01*
X101220807Y-60424979D01*
X101223235Y-60474329D01*
X101225584Y-60542420D01*
X101227818Y-60627579D01*
X101229902Y-60728132D01*
X101231798Y-60842407D01*
X101233472Y-60968731D01*
X101234886Y-61105430D01*
X101235632Y-61196695D01*
X101236796Y-61349855D01*
X101237974Y-61482636D01*
X101239318Y-61596748D01*
X101240976Y-61693898D01*
X101243099Y-61775796D01*
X101245836Y-61844150D01*
X101249339Y-61900668D01*
X101253755Y-61947058D01*
X101259236Y-61985030D01*
X101265931Y-62016292D01*
X101273990Y-62042551D01*
X101283563Y-62065517D01*
X101294800Y-62086898D01*
X101307851Y-62108403D01*
X101316860Y-62122455D01*
X101373059Y-62189536D01*
X101443876Y-62241333D01*
X101520265Y-62273678D01*
X101575036Y-62284247D01*
X101639853Y-62288428D01*
X101703531Y-62285926D01*
X101743687Y-62279520D01*
X101824525Y-62249283D01*
X101895148Y-62200679D01*
X101953863Y-62135718D01*
X101998977Y-62056408D01*
X102028795Y-61964760D01*
X102034660Y-61934210D01*
X102036594Y-61910838D01*
X102038360Y-61865964D01*
X102039952Y-61800169D01*
X102041365Y-61714038D01*
X102042594Y-61608153D01*
X102043635Y-61483099D01*
X102044481Y-61339457D01*
X102045128Y-61177812D01*
X102045570Y-60998746D01*
X102045803Y-60802842D01*
X102045840Y-60666608D01*
X102045829Y-60471786D01*
X102045786Y-60297762D01*
X102045651Y-60143248D01*
X102045365Y-60006955D01*
X102044871Y-59887596D01*
X102044108Y-59783880D01*
X102043019Y-59694521D01*
X102041546Y-59618230D01*
X102039628Y-59553717D01*
X102037208Y-59499695D01*
X102034227Y-59454874D01*
X102030626Y-59417968D01*
X102026346Y-59387686D01*
X102021330Y-59362741D01*
X102015517Y-59341843D01*
X102008850Y-59323706D01*
X102001270Y-59307039D01*
X101992717Y-59290555D01*
X101983134Y-59272965D01*
X101982294Y-59271421D01*
X101945797Y-59220385D01*
X101896317Y-59172721D01*
X101841455Y-59135012D01*
X101806049Y-59118794D01*
X101775118Y-59111875D01*
X101730654Y-59106695D01*
X101681195Y-59104184D01*
X101670608Y-59104081D01*
X101586418Y-59110785D01*
G36*
X102695866Y-59105627D02*
G01*
X102653952Y-59109989D01*
X102620222Y-59118473D01*
X102596321Y-59128090D01*
X102521602Y-59174069D01*
X102459791Y-59236900D01*
X102412490Y-59314460D01*
X102381301Y-59404625D01*
X102378657Y-59416478D01*
X102376496Y-59435343D01*
X102374562Y-59470663D01*
X102372850Y-59522982D01*
X102371354Y-59592840D01*
X102370070Y-59680782D01*
X102368991Y-59787349D01*
X102368114Y-59913084D01*
X102367432Y-60058529D01*
X102366942Y-60224227D01*
X102366636Y-60410721D01*
X102366512Y-60618553D01*
X102366511Y-60703043D01*
X102366546Y-60900078D01*
X102366628Y-61076288D01*
X102366801Y-61232933D01*
X102367110Y-61371274D01*
X102367600Y-61492574D01*
X102368317Y-61598093D01*
X102369306Y-61689092D01*
X102370612Y-61766832D01*
X102372280Y-61832575D01*
X102374355Y-61887582D01*
X102376883Y-61933115D01*
X102379909Y-61970433D01*
X102383477Y-62000800D01*
X102387634Y-62025475D01*
X102392423Y-62045720D01*
X102397891Y-62062796D01*
X102404083Y-62077965D01*
X102411043Y-62092487D01*
X102416668Y-62103468D01*
X102464189Y-62172153D01*
X102526973Y-62227051D01*
X102601378Y-62265794D01*
X102683761Y-62286014D01*
X102699878Y-62287557D01*
X102785767Y-62286208D01*
X102861396Y-62267886D01*
X102932117Y-62231244D01*
X102937331Y-62227747D01*
X102997591Y-62175718D01*
X103043745Y-62110549D01*
X103076528Y-62030646D01*
X103096674Y-61934412D01*
X103103001Y-61868183D01*
X103109602Y-61759840D01*
X103171431Y-61828555D01*
X103286930Y-61947597D01*
X103401734Y-62046208D01*
X103518479Y-62125793D01*
X103639804Y-62187754D01*
X103768347Y-62233496D01*
X103906745Y-62264422D01*
X104017348Y-62278620D01*
X104078086Y-62284051D01*
X104124304Y-62287146D01*
X104163445Y-62287882D01*
X104202954Y-62286237D01*
X104250276Y-62282187D01*
X104293297Y-62277777D01*
X104414937Y-62256705D01*
X104539988Y-62219903D01*
X104659653Y-62170047D01*
X104678844Y-62160458D01*
X104727902Y-62133639D01*
X104769944Y-62106127D01*
X104811020Y-62073303D01*
X104857178Y-62030552D01*
X104884645Y-62003420D01*
X104954062Y-61927398D01*
X105010586Y-61849860D01*
X105056075Y-61766783D01*
X105092387Y-61674146D01*
X105121380Y-61567929D01*
X105144913Y-61444108D01*
X105145870Y-61438080D01*
X105149435Y-61413851D01*
X105152549Y-61388341D01*
X105155243Y-61359956D01*
X105157546Y-61327106D01*
X105159489Y-61288198D01*
X105161102Y-61241640D01*
X105162415Y-61185841D01*
X105163458Y-61119209D01*
X105164262Y-61040151D01*
X105164857Y-60947077D01*
X105165274Y-60838393D01*
X105165541Y-60712509D01*
X105165690Y-60567832D01*
X105165750Y-60402771D01*
X105165752Y-60390521D01*
X105165764Y-60220955D01*
X105165704Y-60071972D01*
X105165493Y-59942067D01*
X105165057Y-59829736D01*
X105164317Y-59733475D01*
X105163197Y-59651778D01*
X105161621Y-59583142D01*
X105159511Y-59526063D01*
X105156791Y-59479036D01*
X105153383Y-59440556D01*
X105149212Y-59409119D01*
X105144200Y-59383222D01*
X105138270Y-59361359D01*
X105131346Y-59342026D01*
X105123352Y-59323719D01*
X105114209Y-59304933D01*
X105109897Y-59296318D01*
X105063689Y-59227462D01*
X105001215Y-59169534D01*
X104939478Y-59132647D01*
X104906292Y-59118615D01*
X104875223Y-59110091D01*
X104838870Y-59105818D01*
X104789833Y-59104542D01*
X104773826Y-59104546D01*
X104708984Y-59106678D01*
X104661033Y-59112989D01*
X104625061Y-59124129D01*
X104624739Y-59124270D01*
X104547348Y-59167031D01*
X104485997Y-59221676D01*
X104437834Y-59291298D01*
X104406488Y-59360904D01*
X104402095Y-59373125D01*
X104398263Y-59385734D01*
X104394940Y-59400301D01*
X104392072Y-59418395D01*
X104389606Y-59441587D01*
X104387487Y-59471447D01*
X104385662Y-59509543D01*
X104384078Y-59557447D01*
X104382681Y-59616727D01*
X104381417Y-59688955D01*
X104380233Y-59775698D01*
X104379075Y-59878529D01*
X104377889Y-59999016D01*
X104376623Y-60138729D01*
X104375484Y-60269043D01*
X104374005Y-60431967D01*
X104372559Y-60574317D01*
X104371105Y-60697603D01*
X104369604Y-60803340D01*
X104368016Y-60893039D01*
X104366302Y-60968211D01*
X104364422Y-61030370D01*
X104362336Y-61081028D01*
X104360004Y-61121696D01*
X104357388Y-61153886D01*
X104354448Y-61179112D01*
X104351143Y-61198885D01*
X104351111Y-61199046D01*
X104320597Y-61319638D01*
X104280783Y-61420903D01*
X104230871Y-61503899D01*
X104170065Y-61569684D01*
X104097567Y-61619315D01*
X104012581Y-61653850D01*
X104007223Y-61655421D01*
X103947171Y-61666474D01*
X103873743Y-61670614D01*
X103794428Y-61668179D01*
X103716712Y-61659507D01*
X103648084Y-61644936D01*
X103626872Y-61638251D01*
X103528643Y-61593034D01*
X103435012Y-61529842D01*
X103350726Y-61452786D01*
X103280536Y-61365979D01*
X103245756Y-61308259D01*
X103228960Y-61273469D01*
X103214202Y-61236187D01*
X103201357Y-61194845D01*
X103190300Y-61147879D01*
X103180904Y-61093723D01*
X103173043Y-61030810D01*
X103166593Y-60957574D01*
X103161427Y-60872450D01*
X103157420Y-60773872D01*
X103154445Y-60660273D01*
X103152378Y-60530088D01*
X103151092Y-60381751D01*
X103150461Y-60213696D01*
X103150352Y-60119956D01*
X103150201Y-59975546D01*
X103149814Y-59851387D01*
X103149070Y-59745640D01*
X103147845Y-59656470D01*
X103146017Y-59582040D01*
X103143465Y-59520513D01*
X103140065Y-59470053D01*
X103135695Y-59428822D01*
X103130234Y-59394984D01*
X103123557Y-59366702D01*
X103115544Y-59342139D01*
X103106071Y-59319460D01*
X103095581Y-59297930D01*
X103053807Y-59236555D01*
X102996479Y-59181261D01*
X102930130Y-59138179D01*
X102920156Y-59133313D01*
X102886254Y-59118957D01*
X102854901Y-59110214D01*
X102818602Y-59105785D01*
X102769862Y-59104372D01*
X102752869Y-59104340D01*
X102695866Y-59105627D01*
G37*
X102695866Y-59105627D02*
X102653952Y-59109989D01*
X102620222Y-59118473D01*
X102596321Y-59128090D01*
X102521602Y-59174069D01*
X102459791Y-59236900D01*
X102412490Y-59314460D01*
X102381301Y-59404625D01*
X102378657Y-59416478D01*
X102376496Y-59435343D01*
X102374562Y-59470663D01*
X102372850Y-59522982D01*
X102371354Y-59592840D01*
X102370070Y-59680782D01*
X102368991Y-59787349D01*
X102368114Y-59913084D01*
X102367432Y-60058529D01*
X102366942Y-60224227D01*
X102366636Y-60410721D01*
X102366512Y-60618553D01*
X102366511Y-60703043D01*
X102366546Y-60900078D01*
X102366628Y-61076288D01*
X102366801Y-61232933D01*
X102367110Y-61371274D01*
X102367600Y-61492574D01*
X102368317Y-61598093D01*
X102369306Y-61689092D01*
X102370612Y-61766832D01*
X102372280Y-61832575D01*
X102374355Y-61887582D01*
X102376883Y-61933115D01*
X102379909Y-61970433D01*
X102383477Y-62000800D01*
X102387634Y-62025475D01*
X102392423Y-62045720D01*
X102397891Y-62062796D01*
X102404083Y-62077965D01*
X102411043Y-62092487D01*
X102416668Y-62103468D01*
X102464189Y-62172153D01*
X102526973Y-62227051D01*
X102601378Y-62265794D01*
X102683761Y-62286014D01*
X102699878Y-62287557D01*
X102785767Y-62286208D01*
X102861396Y-62267886D01*
X102932117Y-62231244D01*
X102937331Y-62227747D01*
X102997591Y-62175718D01*
X103043745Y-62110549D01*
X103076528Y-62030646D01*
X103096674Y-61934412D01*
X103103001Y-61868183D01*
X103109602Y-61759840D01*
X103171431Y-61828555D01*
X103286930Y-61947597D01*
X103401734Y-62046208D01*
X103518479Y-62125793D01*
X103639804Y-62187754D01*
X103768347Y-62233496D01*
X103906745Y-62264422D01*
X104017348Y-62278620D01*
X104078086Y-62284051D01*
X104124304Y-62287146D01*
X104163445Y-62287882D01*
X104202954Y-62286237D01*
X104250276Y-62282187D01*
X104293297Y-62277777D01*
X104414937Y-62256705D01*
X104539988Y-62219903D01*
X104659653Y-62170047D01*
X104678844Y-62160458D01*
X104727902Y-62133639D01*
X104769944Y-62106127D01*
X104811020Y-62073303D01*
X104857178Y-62030552D01*
X104884645Y-62003420D01*
X104954062Y-61927398D01*
X105010586Y-61849860D01*
X105056075Y-61766783D01*
X105092387Y-61674146D01*
X105121380Y-61567929D01*
X105144913Y-61444108D01*
X105145870Y-61438080D01*
X105149435Y-61413851D01*
X105152549Y-61388341D01*
X105155243Y-61359956D01*
X105157546Y-61327106D01*
X105159489Y-61288198D01*
X105161102Y-61241640D01*
X105162415Y-61185841D01*
X105163458Y-61119209D01*
X105164262Y-61040151D01*
X105164857Y-60947077D01*
X105165274Y-60838393D01*
X105165541Y-60712509D01*
X105165690Y-60567832D01*
X105165750Y-60402771D01*
X105165752Y-60390521D01*
X105165764Y-60220955D01*
X105165704Y-60071972D01*
X105165493Y-59942067D01*
X105165057Y-59829736D01*
X105164317Y-59733475D01*
X105163197Y-59651778D01*
X105161621Y-59583142D01*
X105159511Y-59526063D01*
X105156791Y-59479036D01*
X105153383Y-59440556D01*
X105149212Y-59409119D01*
X105144200Y-59383222D01*
X105138270Y-59361359D01*
X105131346Y-59342026D01*
X105123352Y-59323719D01*
X105114209Y-59304933D01*
X105109897Y-59296318D01*
X105063689Y-59227462D01*
X105001215Y-59169534D01*
X104939478Y-59132647D01*
X104906292Y-59118615D01*
X104875223Y-59110091D01*
X104838870Y-59105818D01*
X104789833Y-59104542D01*
X104773826Y-59104546D01*
X104708984Y-59106678D01*
X104661033Y-59112989D01*
X104625061Y-59124129D01*
X104624739Y-59124270D01*
X104547348Y-59167031D01*
X104485997Y-59221676D01*
X104437834Y-59291298D01*
X104406488Y-59360904D01*
X104402095Y-59373125D01*
X104398263Y-59385734D01*
X104394940Y-59400301D01*
X104392072Y-59418395D01*
X104389606Y-59441587D01*
X104387487Y-59471447D01*
X104385662Y-59509543D01*
X104384078Y-59557447D01*
X104382681Y-59616727D01*
X104381417Y-59688955D01*
X104380233Y-59775698D01*
X104379075Y-59878529D01*
X104377889Y-59999016D01*
X104376623Y-60138729D01*
X104375484Y-60269043D01*
X104374005Y-60431967D01*
X104372559Y-60574317D01*
X104371105Y-60697603D01*
X104369604Y-60803340D01*
X104368016Y-60893039D01*
X104366302Y-60968211D01*
X104364422Y-61030370D01*
X104362336Y-61081028D01*
X104360004Y-61121696D01*
X104357388Y-61153886D01*
X104354448Y-61179112D01*
X104351143Y-61198885D01*
X104351111Y-61199046D01*
X104320597Y-61319638D01*
X104280783Y-61420903D01*
X104230871Y-61503899D01*
X104170065Y-61569684D01*
X104097567Y-61619315D01*
X104012581Y-61653850D01*
X104007223Y-61655421D01*
X103947171Y-61666474D01*
X103873743Y-61670614D01*
X103794428Y-61668179D01*
X103716712Y-61659507D01*
X103648084Y-61644936D01*
X103626872Y-61638251D01*
X103528643Y-61593034D01*
X103435012Y-61529842D01*
X103350726Y-61452786D01*
X103280536Y-61365979D01*
X103245756Y-61308259D01*
X103228960Y-61273469D01*
X103214202Y-61236187D01*
X103201357Y-61194845D01*
X103190300Y-61147879D01*
X103180904Y-61093723D01*
X103173043Y-61030810D01*
X103166593Y-60957574D01*
X103161427Y-60872450D01*
X103157420Y-60773872D01*
X103154445Y-60660273D01*
X103152378Y-60530088D01*
X103151092Y-60381751D01*
X103150461Y-60213696D01*
X103150352Y-60119956D01*
X103150201Y-59975546D01*
X103149814Y-59851387D01*
X103149070Y-59745640D01*
X103147845Y-59656470D01*
X103146017Y-59582040D01*
X103143465Y-59520513D01*
X103140065Y-59470053D01*
X103135695Y-59428822D01*
X103130234Y-59394984D01*
X103123557Y-59366702D01*
X103115544Y-59342139D01*
X103106071Y-59319460D01*
X103095581Y-59297930D01*
X103053807Y-59236555D01*
X102996479Y-59181261D01*
X102930130Y-59138179D01*
X102920156Y-59133313D01*
X102886254Y-59118957D01*
X102854901Y-59110214D01*
X102818602Y-59105785D01*
X102769862Y-59104372D01*
X102752869Y-59104340D01*
X102695866Y-59105627D01*
G36*
X107000320Y-59102746D02*
G01*
X106917336Y-59122022D01*
X106846553Y-59159617D01*
X106788115Y-59215393D01*
X106742161Y-59289212D01*
X106708833Y-59380937D01*
X106688272Y-59490428D01*
X106687126Y-59500476D01*
X106678826Y-59576736D01*
X106615159Y-59481008D01*
X106565894Y-59412643D01*
X106510184Y-59344803D01*
X106452243Y-59282023D01*
X106396285Y-59228834D01*
X106346524Y-59189772D01*
X106341184Y-59186259D01*
X106284907Y-59154200D01*
X106228076Y-59131313D01*
X106165433Y-59116348D01*
X106091719Y-59108057D01*
X106001677Y-59105192D01*
X105999652Y-59105181D01*
X105930241Y-59105615D01*
X105876088Y-59108139D01*
X105830409Y-59113439D01*
X105786419Y-59122202D01*
X105756695Y-59129762D01*
X105645960Y-59165870D01*
X105545735Y-59211027D01*
X105458617Y-59263564D01*
X105387203Y-59321812D01*
X105334090Y-59384104D01*
X105317385Y-59411985D01*
X105300766Y-59448381D01*
X105291703Y-59483289D01*
X105288175Y-59526239D01*
X105287854Y-59551217D01*
X105297065Y-59638305D01*
X105324905Y-59713543D01*
X105371517Y-59777159D01*
X105437041Y-59829385D01*
X105472019Y-59848874D01*
X105509698Y-59865921D01*
X105544565Y-59876490D01*
X105580799Y-59880409D01*
X105622581Y-59877501D01*
X105674091Y-59867595D01*
X105739509Y-59850515D01*
X105791120Y-59835586D01*
X105854407Y-59817194D01*
X105903010Y-59804357D01*
X105943338Y-59796080D01*
X105981801Y-59791368D01*
X106024807Y-59789228D01*
X106078766Y-59788663D01*
X106093522Y-59788652D01*
X106153613Y-59788960D01*
X106196893Y-59790407D01*
X106228633Y-59793771D01*
X106254107Y-59799834D01*
X106278587Y-59809376D01*
X106299035Y-59819074D01*
X106371549Y-59864787D01*
X106434496Y-59926474D01*
X106488404Y-60005107D01*
X106533804Y-60101652D01*
X106571224Y-60217078D01*
X106601194Y-60352355D01*
X106606239Y-60381272D01*
X106616320Y-60446028D01*
X106624864Y-60511948D01*
X106631984Y-60581404D01*
X106637790Y-60656770D01*
X106642397Y-60740417D01*
X106645915Y-60834719D01*
X106648457Y-60942048D01*
X106650135Y-61064775D01*
X106651062Y-61205274D01*
X106651339Y-61334739D01*
X106651636Y-61441543D01*
X106652359Y-61543964D01*
X106653459Y-61639381D01*
X106654886Y-61725170D01*
X106656590Y-61798711D01*
X106658524Y-61857381D01*
X106660636Y-61898559D01*
X106662313Y-61916422D01*
X106685917Y-62018994D01*
X106724648Y-62106569D01*
X106778046Y-62178437D01*
X106845650Y-62233882D01*
X106879697Y-62252853D01*
X106937346Y-62273109D01*
X107005749Y-62285112D01*
X107076201Y-62288182D01*
X107139997Y-62281634D01*
X107164739Y-62275196D01*
X107225621Y-62250937D01*
X107274646Y-62220385D01*
X107321548Y-62177690D01*
X107374693Y-62107106D01*
X107412655Y-62020586D01*
X107435194Y-61920043D01*
X107437334Y-61893407D01*
X107439204Y-61847022D01*
X107440811Y-61782663D01*
X107442162Y-61702104D01*
X107443265Y-61607121D01*
X107444126Y-61499487D01*
X107444753Y-61380977D01*
X107445153Y-61253367D01*
X107445332Y-61118431D01*
X107445299Y-60977943D01*
X107445060Y-60833678D01*
X107444622Y-60687412D01*
X107443993Y-60540918D01*
X107443179Y-60395972D01*
X107442188Y-60254348D01*
X107441027Y-60117820D01*
X107439703Y-59988165D01*
X107438223Y-59867155D01*
X107436594Y-59756567D01*
X107434824Y-59658174D01*
X107432919Y-59573751D01*
X107430887Y-59505074D01*
X107428734Y-59453916D01*
X107426469Y-59422053D01*
X107425121Y-59413173D01*
X107392066Y-59315466D01*
X107347745Y-59236578D01*
X107291674Y-59176051D01*
X107223367Y-59133428D01*
X107142338Y-59108248D01*
X107095366Y-59101926D01*
X107000320Y-59102746D01*
G37*
X107000320Y-59102746D02*
X106917336Y-59122022D01*
X106846553Y-59159617D01*
X106788115Y-59215393D01*
X106742161Y-59289212D01*
X106708833Y-59380937D01*
X106688272Y-59490428D01*
X106687126Y-59500476D01*
X106678826Y-59576736D01*
X106615159Y-59481008D01*
X106565894Y-59412643D01*
X106510184Y-59344803D01*
X106452243Y-59282023D01*
X106396285Y-59228834D01*
X106346524Y-59189772D01*
X106341184Y-59186259D01*
X106284907Y-59154200D01*
X106228076Y-59131313D01*
X106165433Y-59116348D01*
X106091719Y-59108057D01*
X106001677Y-59105192D01*
X105999652Y-59105181D01*
X105930241Y-59105615D01*
X105876088Y-59108139D01*
X105830409Y-59113439D01*
X105786419Y-59122202D01*
X105756695Y-59129762D01*
X105645960Y-59165870D01*
X105545735Y-59211027D01*
X105458617Y-59263564D01*
X105387203Y-59321812D01*
X105334090Y-59384104D01*
X105317385Y-59411985D01*
X105300766Y-59448381D01*
X105291703Y-59483289D01*
X105288175Y-59526239D01*
X105287854Y-59551217D01*
X105297065Y-59638305D01*
X105324905Y-59713543D01*
X105371517Y-59777159D01*
X105437041Y-59829385D01*
X105472019Y-59848874D01*
X105509698Y-59865921D01*
X105544565Y-59876490D01*
X105580799Y-59880409D01*
X105622581Y-59877501D01*
X105674091Y-59867595D01*
X105739509Y-59850515D01*
X105791120Y-59835586D01*
X105854407Y-59817194D01*
X105903010Y-59804357D01*
X105943338Y-59796080D01*
X105981801Y-59791368D01*
X106024807Y-59789228D01*
X106078766Y-59788663D01*
X106093522Y-59788652D01*
X106153613Y-59788960D01*
X106196893Y-59790407D01*
X106228633Y-59793771D01*
X106254107Y-59799834D01*
X106278587Y-59809376D01*
X106299035Y-59819074D01*
X106371549Y-59864787D01*
X106434496Y-59926474D01*
X106488404Y-60005107D01*
X106533804Y-60101652D01*
X106571224Y-60217078D01*
X106601194Y-60352355D01*
X106606239Y-60381272D01*
X106616320Y-60446028D01*
X106624864Y-60511948D01*
X106631984Y-60581404D01*
X106637790Y-60656770D01*
X106642397Y-60740417D01*
X106645915Y-60834719D01*
X106648457Y-60942048D01*
X106650135Y-61064775D01*
X106651062Y-61205274D01*
X106651339Y-61334739D01*
X106651636Y-61441543D01*
X106652359Y-61543964D01*
X106653459Y-61639381D01*
X106654886Y-61725170D01*
X106656590Y-61798711D01*
X106658524Y-61857381D01*
X106660636Y-61898559D01*
X106662313Y-61916422D01*
X106685917Y-62018994D01*
X106724648Y-62106569D01*
X106778046Y-62178437D01*
X106845650Y-62233882D01*
X106879697Y-62252853D01*
X106937346Y-62273109D01*
X107005749Y-62285112D01*
X107076201Y-62288182D01*
X107139997Y-62281634D01*
X107164739Y-62275196D01*
X107225621Y-62250937D01*
X107274646Y-62220385D01*
X107321548Y-62177690D01*
X107374693Y-62107106D01*
X107412655Y-62020586D01*
X107435194Y-61920043D01*
X107437334Y-61893407D01*
X107439204Y-61847022D01*
X107440811Y-61782663D01*
X107442162Y-61702104D01*
X107443265Y-61607121D01*
X107444126Y-61499487D01*
X107444753Y-61380977D01*
X107445153Y-61253367D01*
X107445332Y-61118431D01*
X107445299Y-60977943D01*
X107445060Y-60833678D01*
X107444622Y-60687412D01*
X107443993Y-60540918D01*
X107443179Y-60395972D01*
X107442188Y-60254348D01*
X107441027Y-60117820D01*
X107439703Y-59988165D01*
X107438223Y-59867155D01*
X107436594Y-59756567D01*
X107434824Y-59658174D01*
X107432919Y-59573751D01*
X107430887Y-59505074D01*
X107428734Y-59453916D01*
X107426469Y-59422053D01*
X107425121Y-59413173D01*
X107392066Y-59315466D01*
X107347745Y-59236578D01*
X107291674Y-59176051D01*
X107223367Y-59133428D01*
X107142338Y-59108248D01*
X107095366Y-59101926D01*
X107000320Y-59102746D01*
G36*
X108064849Y-57937654D02*
G01*
X107990084Y-57950351D01*
X107933688Y-57971520D01*
X107877808Y-58010954D01*
X107826652Y-58067213D01*
X107784899Y-58135037D01*
X107780990Y-58143173D01*
X107750043Y-58209434D01*
X107750043Y-60103391D01*
X107749998Y-60348599D01*
X107749899Y-60572710D01*
X107749797Y-60776712D01*
X107749746Y-60961593D01*
X107749797Y-61128343D01*
X107750003Y-61277950D01*
X107750416Y-61411404D01*
X107751089Y-61529693D01*
X107752074Y-61633805D01*
X107753423Y-61724731D01*
X107755190Y-61803457D01*
X107757425Y-61870975D01*
X107760183Y-61928271D01*
X107763514Y-61976336D01*
X107767472Y-62016157D01*
X107772109Y-62048724D01*
X107777477Y-62075025D01*
X107783628Y-62096050D01*
X107790616Y-62112787D01*
X107798492Y-62126225D01*
X107807309Y-62137353D01*
X107817119Y-62147159D01*
X107827974Y-62156633D01*
X107839928Y-62166763D01*
X107853032Y-62178538D01*
X107860373Y-62185695D01*
X107919631Y-62236911D01*
X107979818Y-62269674D01*
X108046600Y-62286077D01*
X108125638Y-62288214D01*
X108136082Y-62287620D01*
X108224587Y-62272103D01*
X108301561Y-62238326D01*
X108366169Y-62187354D01*
X108417574Y-62120253D01*
X108454941Y-62038088D01*
X108477435Y-61941924D01*
X108484271Y-61843902D01*
X108484435Y-61767762D01*
X108551987Y-61841483D01*
X108613861Y-61904207D01*
X108685727Y-61969287D01*
X108761770Y-62031951D01*
X108836174Y-62087429D01*
X108903121Y-62130952D01*
X108909173Y-62134457D01*
X108997942Y-62178603D01*
X109100263Y-62218551D01*
X109207636Y-62251332D01*
X109305859Y-62273007D01*
X109384874Y-62282814D01*
X109475174Y-62287758D01*
X109568450Y-62287823D01*
X109656393Y-62282993D01*
X109727382Y-62273862D01*
X109877424Y-62237889D01*
X110014455Y-62186127D01*
X110141596Y-62116930D01*
X110261969Y-62028652D01*
X110356553Y-61942130D01*
X110470171Y-61813417D01*
X110568092Y-61669631D01*
X110650057Y-61511493D01*
X110715809Y-61339724D01*
X110765088Y-61155045D01*
X110797638Y-60958179D01*
X110813199Y-60749846D01*
X110814232Y-60685905D01*
X110019397Y-60685905D01*
X110016749Y-60786183D01*
X110010469Y-60883430D01*
X110000739Y-60971926D01*
X109987741Y-61045950D01*
X109983313Y-61064173D01*
X109938154Y-61202730D01*
X109880331Y-61323397D01*
X109809534Y-61426593D01*
X109725455Y-61512736D01*
X109627785Y-61582244D01*
X109583261Y-61606269D01*
X109466513Y-61652752D01*
X109348303Y-61677220D01*
X109228309Y-61679715D01*
X109130795Y-61665917D01*
X109013807Y-61630524D01*
X108908353Y-61576813D01*
X108814885Y-61505573D01*
X108733856Y-61417589D01*
X108665719Y-61313651D01*
X108610926Y-61194547D01*
X108569929Y-61061064D01*
X108543182Y-60913990D01*
X108531136Y-60754113D01*
X108532127Y-60623703D01*
X108544247Y-60474155D01*
X108568371Y-60339695D01*
X108605643Y-60216178D01*
X108657209Y-60099457D01*
X108696132Y-60029890D01*
X108761873Y-59940380D01*
X108844173Y-59859424D01*
X108938095Y-59790925D01*
X109038704Y-59738789D01*
X109086304Y-59721238D01*
X109202397Y-59695273D01*
X109318859Y-59690639D01*
X109433214Y-59706766D01*
X109542987Y-59743081D01*
X109645701Y-59799013D01*
X109735926Y-59871164D01*
X109820918Y-59966768D01*
X109891279Y-60078129D01*
X109947195Y-60205632D01*
X109988855Y-60349663D01*
X110003720Y-60424083D01*
X110013065Y-60499135D01*
X110018229Y-60588315D01*
X110019397Y-60685905D01*
X110814232Y-60685905D01*
X110814608Y-60662692D01*
X110806485Y-60452482D01*
X110782252Y-60255587D01*
X110742117Y-60072412D01*
X110686287Y-59903360D01*
X110614969Y-59748834D01*
X110528369Y-59609238D01*
X110426696Y-59484977D01*
X110310156Y-59376454D01*
X110178955Y-59284073D01*
X110079958Y-59229938D01*
X109989671Y-59189264D01*
X109903464Y-59158683D01*
X109815501Y-59136873D01*
X109719949Y-59122515D01*
X109610974Y-59114288D01*
X109560570Y-59112365D01*
X109396148Y-59113535D01*
X109247138Y-59128018D01*
X109110534Y-59156930D01*
X108983332Y-59201391D01*
X108862528Y-59262516D01*
X108745117Y-59341426D01*
X108628095Y-59439236D01*
X108592537Y-59472506D01*
X108484435Y-59576012D01*
X108484435Y-58957195D01*
X108484329Y-58811537D01*
X108483928Y-58686127D01*
X108483111Y-58579128D01*
X108481754Y-58488700D01*
X108479734Y-58413007D01*
X108476928Y-58350209D01*
X108473214Y-58298469D01*
X108468467Y-58255949D01*
X108462566Y-58220810D01*
X108455388Y-58191214D01*
X108446809Y-58165324D01*
X108436706Y-58141301D01*
X108428763Y-58124812D01*
X108393884Y-58069944D01*
X108348475Y-58019321D01*
X108299492Y-57980325D01*
X108284225Y-57971520D01*
X108219517Y-57948239D01*
X108143860Y-57936950D01*
X108064849Y-57937654D01*
G37*
X108064849Y-57937654D02*
X107990084Y-57950351D01*
X107933688Y-57971520D01*
X107877808Y-58010954D01*
X107826652Y-58067213D01*
X107784899Y-58135037D01*
X107780990Y-58143173D01*
X107750043Y-58209434D01*
X107750043Y-60103391D01*
X107749998Y-60348599D01*
X107749899Y-60572710D01*
X107749797Y-60776712D01*
X107749746Y-60961593D01*
X107749797Y-61128343D01*
X107750003Y-61277950D01*
X107750416Y-61411404D01*
X107751089Y-61529693D01*
X107752074Y-61633805D01*
X107753423Y-61724731D01*
X107755190Y-61803457D01*
X107757425Y-61870975D01*
X107760183Y-61928271D01*
X107763514Y-61976336D01*
X107767472Y-62016157D01*
X107772109Y-62048724D01*
X107777477Y-62075025D01*
X107783628Y-62096050D01*
X107790616Y-62112787D01*
X107798492Y-62126225D01*
X107807309Y-62137353D01*
X107817119Y-62147159D01*
X107827974Y-62156633D01*
X107839928Y-62166763D01*
X107853032Y-62178538D01*
X107860373Y-62185695D01*
X107919631Y-62236911D01*
X107979818Y-62269674D01*
X108046600Y-62286077D01*
X108125638Y-62288214D01*
X108136082Y-62287620D01*
X108224587Y-62272103D01*
X108301561Y-62238326D01*
X108366169Y-62187354D01*
X108417574Y-62120253D01*
X108454941Y-62038088D01*
X108477435Y-61941924D01*
X108484271Y-61843902D01*
X108484435Y-61767762D01*
X108551987Y-61841483D01*
X108613861Y-61904207D01*
X108685727Y-61969287D01*
X108761770Y-62031951D01*
X108836174Y-62087429D01*
X108903121Y-62130952D01*
X108909173Y-62134457D01*
X108997942Y-62178603D01*
X109100263Y-62218551D01*
X109207636Y-62251332D01*
X109305859Y-62273007D01*
X109384874Y-62282814D01*
X109475174Y-62287758D01*
X109568450Y-62287823D01*
X109656393Y-62282993D01*
X109727382Y-62273862D01*
X109877424Y-62237889D01*
X110014455Y-62186127D01*
X110141596Y-62116930D01*
X110261969Y-62028652D01*
X110356553Y-61942130D01*
X110470171Y-61813417D01*
X110568092Y-61669631D01*
X110650057Y-61511493D01*
X110715809Y-61339724D01*
X110765088Y-61155045D01*
X110797638Y-60958179D01*
X110813199Y-60749846D01*
X110814232Y-60685905D01*
X110019397Y-60685905D01*
X110016749Y-60786183D01*
X110010469Y-60883430D01*
X110000739Y-60971926D01*
X109987741Y-61045950D01*
X109983313Y-61064173D01*
X109938154Y-61202730D01*
X109880331Y-61323397D01*
X109809534Y-61426593D01*
X109725455Y-61512736D01*
X109627785Y-61582244D01*
X109583261Y-61606269D01*
X109466513Y-61652752D01*
X109348303Y-61677220D01*
X109228309Y-61679715D01*
X109130795Y-61665917D01*
X109013807Y-61630524D01*
X108908353Y-61576813D01*
X108814885Y-61505573D01*
X108733856Y-61417589D01*
X108665719Y-61313651D01*
X108610926Y-61194547D01*
X108569929Y-61061064D01*
X108543182Y-60913990D01*
X108531136Y-60754113D01*
X108532127Y-60623703D01*
X108544247Y-60474155D01*
X108568371Y-60339695D01*
X108605643Y-60216178D01*
X108657209Y-60099457D01*
X108696132Y-60029890D01*
X108761873Y-59940380D01*
X108844173Y-59859424D01*
X108938095Y-59790925D01*
X109038704Y-59738789D01*
X109086304Y-59721238D01*
X109202397Y-59695273D01*
X109318859Y-59690639D01*
X109433214Y-59706766D01*
X109542987Y-59743081D01*
X109645701Y-59799013D01*
X109735926Y-59871164D01*
X109820918Y-59966768D01*
X109891279Y-60078129D01*
X109947195Y-60205632D01*
X109988855Y-60349663D01*
X110003720Y-60424083D01*
X110013065Y-60499135D01*
X110018229Y-60588315D01*
X110019397Y-60685905D01*
X110814232Y-60685905D01*
X110814608Y-60662692D01*
X110806485Y-60452482D01*
X110782252Y-60255587D01*
X110742117Y-60072412D01*
X110686287Y-59903360D01*
X110614969Y-59748834D01*
X110528369Y-59609238D01*
X110426696Y-59484977D01*
X110310156Y-59376454D01*
X110178955Y-59284073D01*
X110079958Y-59229938D01*
X109989671Y-59189264D01*
X109903464Y-59158683D01*
X109815501Y-59136873D01*
X109719949Y-59122515D01*
X109610974Y-59114288D01*
X109560570Y-59112365D01*
X109396148Y-59113535D01*
X109247138Y-59128018D01*
X109110534Y-59156930D01*
X108983332Y-59201391D01*
X108862528Y-59262516D01*
X108745117Y-59341426D01*
X108628095Y-59439236D01*
X108592537Y-59472506D01*
X108484435Y-59576012D01*
X108484435Y-58957195D01*
X108484329Y-58811537D01*
X108483928Y-58686127D01*
X108483111Y-58579128D01*
X108481754Y-58488700D01*
X108479734Y-58413007D01*
X108476928Y-58350209D01*
X108473214Y-58298469D01*
X108468467Y-58255949D01*
X108462566Y-58220810D01*
X108455388Y-58191214D01*
X108446809Y-58165324D01*
X108436706Y-58141301D01*
X108428763Y-58124812D01*
X108393884Y-58069944D01*
X108348475Y-58019321D01*
X108299492Y-57980325D01*
X108284225Y-57971520D01*
X108219517Y-57948239D01*
X108143860Y-57936950D01*
X108064849Y-57937654D01*
D11*
X74112380Y-115845142D02*
X73636190Y-115511809D01*
X74112380Y-115273714D02*
X73112380Y-115273714D01*
X73112380Y-115654666D01*
X73160000Y-115749904D01*
X73207619Y-115797523D01*
X73302857Y-115845142D01*
X73445714Y-115845142D01*
X73540952Y-115797523D01*
X73588571Y-115749904D01*
X73636190Y-115654666D01*
X73636190Y-115273714D01*
X74112380Y-116797523D02*
X74112380Y-116226095D01*
X74112380Y-116511809D02*
X73112380Y-116511809D01*
X73255238Y-116416571D01*
X73350476Y-116321333D01*
X73398095Y-116226095D01*
X73445714Y-117654666D02*
X74112380Y-117654666D01*
X73064761Y-117416571D02*
X73779047Y-117178476D01*
X73779047Y-117797523D01*
X83256380Y-115816642D02*
X82780190Y-115483309D01*
X83256380Y-115245214D02*
X82256380Y-115245214D01*
X82256380Y-115626166D01*
X82304000Y-115721404D01*
X82351619Y-115769023D01*
X82446857Y-115816642D01*
X82589714Y-115816642D01*
X82684952Y-115769023D01*
X82732571Y-115721404D01*
X82780190Y-115626166D01*
X82780190Y-115245214D01*
X83256380Y-116769023D02*
X83256380Y-116197595D01*
X83256380Y-116483309D02*
X82256380Y-116483309D01*
X82399238Y-116388071D01*
X82494476Y-116292833D01*
X82542095Y-116197595D01*
X82256380Y-117102357D02*
X82256380Y-117721404D01*
X82637333Y-117388071D01*
X82637333Y-117530928D01*
X82684952Y-117626166D01*
X82732571Y-117673785D01*
X82827809Y-117721404D01*
X83065904Y-117721404D01*
X83161142Y-117673785D01*
X83208761Y-117626166D01*
X83256380Y-117530928D01*
X83256380Y-117245214D01*
X83208761Y-117149976D01*
X83161142Y-117102357D01*
X80208380Y-115816642D02*
X79732190Y-115483309D01*
X80208380Y-115245214D02*
X79208380Y-115245214D01*
X79208380Y-115626166D01*
X79256000Y-115721404D01*
X79303619Y-115769023D01*
X79398857Y-115816642D01*
X79541714Y-115816642D01*
X79636952Y-115769023D01*
X79684571Y-115721404D01*
X79732190Y-115626166D01*
X79732190Y-115245214D01*
X80208380Y-116769023D02*
X80208380Y-116197595D01*
X80208380Y-116483309D02*
X79208380Y-116483309D01*
X79351238Y-116388071D01*
X79446476Y-116292833D01*
X79494095Y-116197595D01*
X79303619Y-117149976D02*
X79256000Y-117197595D01*
X79208380Y-117292833D01*
X79208380Y-117530928D01*
X79256000Y-117626166D01*
X79303619Y-117673785D01*
X79398857Y-117721404D01*
X79494095Y-117721404D01*
X79636952Y-117673785D01*
X80208380Y-117102357D01*
X80208380Y-117721404D01*
X89452380Y-143357142D02*
X88976190Y-143023809D01*
X89452380Y-142785714D02*
X88452380Y-142785714D01*
X88452380Y-143166666D01*
X88500000Y-143261904D01*
X88547619Y-143309523D01*
X88642857Y-143357142D01*
X88785714Y-143357142D01*
X88880952Y-143309523D01*
X88928571Y-143261904D01*
X88976190Y-143166666D01*
X88976190Y-142785714D01*
X89452380Y-144309523D02*
X89452380Y-143738095D01*
X89452380Y-144023809D02*
X88452380Y-144023809D01*
X88595238Y-143928571D01*
X88690476Y-143833333D01*
X88738095Y-143738095D01*
X89452380Y-145261904D02*
X89452380Y-144690476D01*
X89452380Y-144976190D02*
X88452380Y-144976190D01*
X88595238Y-144880952D01*
X88690476Y-144785714D01*
X88738095Y-144690476D01*
X86452380Y-143357142D02*
X85976190Y-143023809D01*
X86452380Y-142785714D02*
X85452380Y-142785714D01*
X85452380Y-143166666D01*
X85500000Y-143261904D01*
X85547619Y-143309523D01*
X85642857Y-143357142D01*
X85785714Y-143357142D01*
X85880952Y-143309523D01*
X85928571Y-143261904D01*
X85976190Y-143166666D01*
X85976190Y-142785714D01*
X86452380Y-144309523D02*
X86452380Y-143738095D01*
X86452380Y-144023809D02*
X85452380Y-144023809D01*
X85595238Y-143928571D01*
X85690476Y-143833333D01*
X85738095Y-143738095D01*
X85452380Y-144928571D02*
X85452380Y-145023809D01*
X85500000Y-145119047D01*
X85547619Y-145166666D01*
X85642857Y-145214285D01*
X85833333Y-145261904D01*
X86071428Y-145261904D01*
X86261904Y-145214285D01*
X86357142Y-145166666D01*
X86404761Y-145119047D01*
X86452380Y-145023809D01*
X86452380Y-144928571D01*
X86404761Y-144833333D01*
X86357142Y-144785714D01*
X86261904Y-144738095D01*
X86071428Y-144690476D01*
X85833333Y-144690476D01*
X85642857Y-144738095D01*
X85547619Y-144785714D01*
X85500000Y-144833333D01*
X85452380Y-144928571D01*
X104452380Y-112833333D02*
X103976190Y-112500000D01*
X104452380Y-112261904D02*
X103452380Y-112261904D01*
X103452380Y-112642857D01*
X103500000Y-112738095D01*
X103547619Y-112785714D01*
X103642857Y-112833333D01*
X103785714Y-112833333D01*
X103880952Y-112785714D01*
X103928571Y-112738095D01*
X103976190Y-112642857D01*
X103976190Y-112261904D01*
X104452380Y-113309523D02*
X104452380Y-113500000D01*
X104404761Y-113595238D01*
X104357142Y-113642857D01*
X104214285Y-113738095D01*
X104023809Y-113785714D01*
X103642857Y-113785714D01*
X103547619Y-113738095D01*
X103500000Y-113690476D01*
X103452380Y-113595238D01*
X103452380Y-113404761D01*
X103500000Y-113309523D01*
X103547619Y-113261904D01*
X103642857Y-113214285D01*
X103880952Y-113214285D01*
X103976190Y-113261904D01*
X104023809Y-113309523D01*
X104071428Y-113404761D01*
X104071428Y-113595238D01*
X104023809Y-113690476D01*
X103976190Y-113738095D01*
X103880952Y-113785714D01*
X104452380Y-116833333D02*
X103976190Y-116500000D01*
X104452380Y-116261904D02*
X103452380Y-116261904D01*
X103452380Y-116642857D01*
X103500000Y-116738095D01*
X103547619Y-116785714D01*
X103642857Y-116833333D01*
X103785714Y-116833333D01*
X103880952Y-116785714D01*
X103928571Y-116738095D01*
X103976190Y-116642857D01*
X103976190Y-116261904D01*
X103880952Y-117404761D02*
X103833333Y-117309523D01*
X103785714Y-117261904D01*
X103690476Y-117214285D01*
X103642857Y-117214285D01*
X103547619Y-117261904D01*
X103500000Y-117309523D01*
X103452380Y-117404761D01*
X103452380Y-117595238D01*
X103500000Y-117690476D01*
X103547619Y-117738095D01*
X103642857Y-117785714D01*
X103690476Y-117785714D01*
X103785714Y-117738095D01*
X103833333Y-117690476D01*
X103880952Y-117595238D01*
X103880952Y-117404761D01*
X103928571Y-117309523D01*
X103976190Y-117261904D01*
X104071428Y-117214285D01*
X104261904Y-117214285D01*
X104357142Y-117261904D01*
X104404761Y-117309523D01*
X104452380Y-117404761D01*
X104452380Y-117595238D01*
X104404761Y-117690476D01*
X104357142Y-117738095D01*
X104261904Y-117785714D01*
X104071428Y-117785714D01*
X103976190Y-117738095D01*
X103928571Y-117690476D01*
X103880952Y-117595238D01*
X123197619Y-122104166D02*
X123673809Y-122437500D01*
X123197619Y-122675595D02*
X124197619Y-122675595D01*
X124197619Y-122294642D01*
X124150000Y-122199404D01*
X124102380Y-122151785D01*
X124007142Y-122104166D01*
X123864285Y-122104166D01*
X123769047Y-122151785D01*
X123721428Y-122199404D01*
X123673809Y-122294642D01*
X123673809Y-122675595D01*
X124197619Y-121770833D02*
X124197619Y-121104166D01*
X123197619Y-121532738D01*
X63568666Y-140152380D02*
X63902000Y-139676190D01*
X64140095Y-140152380D02*
X64140095Y-139152380D01*
X63759142Y-139152380D01*
X63663904Y-139200000D01*
X63616285Y-139247619D01*
X63568666Y-139342857D01*
X63568666Y-139485714D01*
X63616285Y-139580952D01*
X63663904Y-139628571D01*
X63759142Y-139676190D01*
X64140095Y-139676190D01*
X62711523Y-139152380D02*
X62902000Y-139152380D01*
X62997238Y-139200000D01*
X63044857Y-139247619D01*
X63140095Y-139390476D01*
X63187714Y-139580952D01*
X63187714Y-139961904D01*
X63140095Y-140057142D01*
X63092476Y-140104761D01*
X62997238Y-140152380D01*
X62806761Y-140152380D01*
X62711523Y-140104761D01*
X62663904Y-140057142D01*
X62616285Y-139961904D01*
X62616285Y-139723809D01*
X62663904Y-139628571D01*
X62711523Y-139580952D01*
X62806761Y-139533333D01*
X62997238Y-139533333D01*
X63092476Y-139580952D01*
X63140095Y-139628571D01*
X63187714Y-139723809D01*
X66492380Y-115813333D02*
X66016190Y-115480000D01*
X66492380Y-115241904D02*
X65492380Y-115241904D01*
X65492380Y-115622857D01*
X65540000Y-115718095D01*
X65587619Y-115765714D01*
X65682857Y-115813333D01*
X65825714Y-115813333D01*
X65920952Y-115765714D01*
X65968571Y-115718095D01*
X66016190Y-115622857D01*
X66016190Y-115241904D01*
X65492380Y-116718095D02*
X65492380Y-116241904D01*
X65968571Y-116194285D01*
X65920952Y-116241904D01*
X65873333Y-116337142D01*
X65873333Y-116575238D01*
X65920952Y-116670476D01*
X65968571Y-116718095D01*
X66063809Y-116765714D01*
X66301904Y-116765714D01*
X66397142Y-116718095D01*
X66444761Y-116670476D01*
X66492380Y-116575238D01*
X66492380Y-116337142D01*
X66444761Y-116241904D01*
X66397142Y-116194285D01*
X69032380Y-115813333D02*
X68556190Y-115480000D01*
X69032380Y-115241904D02*
X68032380Y-115241904D01*
X68032380Y-115622857D01*
X68080000Y-115718095D01*
X68127619Y-115765714D01*
X68222857Y-115813333D01*
X68365714Y-115813333D01*
X68460952Y-115765714D01*
X68508571Y-115718095D01*
X68556190Y-115622857D01*
X68556190Y-115241904D01*
X68365714Y-116670476D02*
X69032380Y-116670476D01*
X67984761Y-116432380D02*
X68699047Y-116194285D01*
X68699047Y-116813333D01*
X89352380Y-115813333D02*
X88876190Y-115480000D01*
X89352380Y-115241904D02*
X88352380Y-115241904D01*
X88352380Y-115622857D01*
X88400000Y-115718095D01*
X88447619Y-115765714D01*
X88542857Y-115813333D01*
X88685714Y-115813333D01*
X88780952Y-115765714D01*
X88828571Y-115718095D01*
X88876190Y-115622857D01*
X88876190Y-115241904D01*
X88352380Y-116146666D02*
X88352380Y-116765714D01*
X88733333Y-116432380D01*
X88733333Y-116575238D01*
X88780952Y-116670476D01*
X88828571Y-116718095D01*
X88923809Y-116765714D01*
X89161904Y-116765714D01*
X89257142Y-116718095D01*
X89304761Y-116670476D01*
X89352380Y-116575238D01*
X89352380Y-116289523D01*
X89304761Y-116194285D01*
X89257142Y-116146666D01*
X91860380Y-115813333D02*
X91384190Y-115480000D01*
X91860380Y-115241904D02*
X90860380Y-115241904D01*
X90860380Y-115622857D01*
X90908000Y-115718095D01*
X90955619Y-115765714D01*
X91050857Y-115813333D01*
X91193714Y-115813333D01*
X91288952Y-115765714D01*
X91336571Y-115718095D01*
X91384190Y-115622857D01*
X91384190Y-115241904D01*
X90955619Y-116194285D02*
X90908000Y-116241904D01*
X90860380Y-116337142D01*
X90860380Y-116575238D01*
X90908000Y-116670476D01*
X90955619Y-116718095D01*
X91050857Y-116765714D01*
X91146095Y-116765714D01*
X91288952Y-116718095D01*
X91860380Y-116146666D01*
X91860380Y-116765714D01*
X94432380Y-115813333D02*
X93956190Y-115480000D01*
X94432380Y-115241904D02*
X93432380Y-115241904D01*
X93432380Y-115622857D01*
X93480000Y-115718095D01*
X93527619Y-115765714D01*
X93622857Y-115813333D01*
X93765714Y-115813333D01*
X93860952Y-115765714D01*
X93908571Y-115718095D01*
X93956190Y-115622857D01*
X93956190Y-115241904D01*
X94432380Y-116765714D02*
X94432380Y-116194285D01*
X94432380Y-116480000D02*
X93432380Y-116480000D01*
X93575238Y-116384761D01*
X93670476Y-116289523D01*
X93718095Y-116194285D01*
X107672380Y-133881904D02*
X106672380Y-133881904D01*
X106672380Y-134120000D01*
X106720000Y-134262857D01*
X106815238Y-134358095D01*
X106910476Y-134405714D01*
X107100952Y-134453333D01*
X107243809Y-134453333D01*
X107434285Y-134405714D01*
X107529523Y-134358095D01*
X107624761Y-134262857D01*
X107672380Y-134120000D01*
X107672380Y-133881904D01*
X107100952Y-135024761D02*
X107053333Y-134929523D01*
X107005714Y-134881904D01*
X106910476Y-134834285D01*
X106862857Y-134834285D01*
X106767619Y-134881904D01*
X106720000Y-134929523D01*
X106672380Y-135024761D01*
X106672380Y-135215238D01*
X106720000Y-135310476D01*
X106767619Y-135358095D01*
X106862857Y-135405714D01*
X106910476Y-135405714D01*
X107005714Y-135358095D01*
X107053333Y-135310476D01*
X107100952Y-135215238D01*
X107100952Y-135024761D01*
X107148571Y-134929523D01*
X107196190Y-134881904D01*
X107291428Y-134834285D01*
X107481904Y-134834285D01*
X107577142Y-134881904D01*
X107624761Y-134929523D01*
X107672380Y-135024761D01*
X107672380Y-135215238D01*
X107624761Y-135310476D01*
X107577142Y-135358095D01*
X107481904Y-135405714D01*
X107291428Y-135405714D01*
X107196190Y-135358095D01*
X107148571Y-135310476D01*
X107100952Y-135215238D01*
X122738095Y-113452380D02*
X122738095Y-112452380D01*
X122500000Y-112452380D01*
X122357142Y-112500000D01*
X122261904Y-112595238D01*
X122214285Y-112690476D01*
X122166666Y-112880952D01*
X122166666Y-113023809D01*
X122214285Y-113214285D01*
X122261904Y-113309523D01*
X122357142Y-113404761D01*
X122500000Y-113452380D01*
X122738095Y-113452380D01*
X121833333Y-112452380D02*
X121166666Y-112452380D01*
X121595238Y-113452380D01*
X85287142Y-113091833D02*
X85334761Y-113044214D01*
X85382380Y-112901357D01*
X85382380Y-112806119D01*
X85334761Y-112663261D01*
X85239523Y-112568023D01*
X85144285Y-112520404D01*
X84953809Y-112472785D01*
X84810952Y-112472785D01*
X84620476Y-112520404D01*
X84525238Y-112568023D01*
X84430000Y-112663261D01*
X84382380Y-112806119D01*
X84382380Y-112901357D01*
X84430000Y-113044214D01*
X84477619Y-113091833D01*
X84382380Y-113996595D02*
X84382380Y-113520404D01*
X84858571Y-113472785D01*
X84810952Y-113520404D01*
X84763333Y-113615642D01*
X84763333Y-113853738D01*
X84810952Y-113948976D01*
X84858571Y-113996595D01*
X84953809Y-114044214D01*
X85191904Y-114044214D01*
X85287142Y-113996595D01*
X85334761Y-113948976D01*
X85382380Y-113853738D01*
X85382380Y-113615642D01*
X85334761Y-113520404D01*
X85287142Y-113472785D01*
X76389666Y-114049142D02*
X76437285Y-114096761D01*
X76580142Y-114144380D01*
X76675380Y-114144380D01*
X76818238Y-114096761D01*
X76913476Y-114001523D01*
X76961095Y-113906285D01*
X77008714Y-113715809D01*
X77008714Y-113572952D01*
X76961095Y-113382476D01*
X76913476Y-113287238D01*
X76818238Y-113192000D01*
X76675380Y-113144380D01*
X76580142Y-113144380D01*
X76437285Y-113192000D01*
X76389666Y-113239619D01*
X76008714Y-113239619D02*
X75961095Y-113192000D01*
X75865857Y-113144380D01*
X75627761Y-113144380D01*
X75532523Y-113192000D01*
X75484904Y-113239619D01*
X75437285Y-113334857D01*
X75437285Y-113430095D01*
X75484904Y-113572952D01*
X76056333Y-114144380D01*
X75437285Y-114144380D01*
M02*
