G04 #@! TF.GenerationSoftware,KiCad,Pcbnew,(5.0.1)-3*
G04 #@! TF.CreationDate,2019-10-30T14:47:04+00:00*
G04 #@! TF.ProjectId,drumkid,6472756D6B69642E6B696361645F7063,rev?*
G04 #@! TF.SameCoordinates,Original*
G04 #@! TF.FileFunction,Legend,Top*
G04 #@! TF.FilePolarity,Positive*
%FSLAX46Y46*%
G04 Gerber Fmt 4.6, Leading zero omitted, Abs format (unit mm)*
G04 Created by KiCad (PCBNEW (5.0.1)-3) date 30/10/2019 14:47:04*
%MOMM*%
%LPD*%
G01*
G04 APERTURE LIST*
%ADD10C,0.300000*%
%ADD11C,0.150000*%
%ADD12C,0.200000*%
%ADD13C,0.120000*%
G04 APERTURE END LIST*
D10*
X101552142Y-93628571D02*
X101552142Y-92128571D01*
X101909285Y-92128571D01*
X102123571Y-92200000D01*
X102266428Y-92342857D01*
X102337857Y-92485714D01*
X102409285Y-92771428D01*
X102409285Y-92985714D01*
X102337857Y-93271428D01*
X102266428Y-93414285D01*
X102123571Y-93557142D01*
X101909285Y-93628571D01*
X101552142Y-93628571D01*
X103052142Y-93628571D02*
X103052142Y-92628571D01*
X103052142Y-92914285D02*
X103123571Y-92771428D01*
X103195000Y-92700000D01*
X103337857Y-92628571D01*
X103480714Y-92628571D01*
X104623571Y-92628571D02*
X104623571Y-93628571D01*
X103980714Y-92628571D02*
X103980714Y-93414285D01*
X104052142Y-93557142D01*
X104195000Y-93628571D01*
X104409285Y-93628571D01*
X104552142Y-93557142D01*
X104623571Y-93485714D01*
X105337857Y-93628571D02*
X105337857Y-92628571D01*
X105337857Y-92771428D02*
X105409285Y-92700000D01*
X105552142Y-92628571D01*
X105766428Y-92628571D01*
X105909285Y-92700000D01*
X105980714Y-92842857D01*
X105980714Y-93628571D01*
X105980714Y-92842857D02*
X106052142Y-92700000D01*
X106195000Y-92628571D01*
X106409285Y-92628571D01*
X106552142Y-92700000D01*
X106623571Y-92842857D01*
X106623571Y-93628571D01*
X107337857Y-93628571D02*
X107337857Y-92128571D01*
X108195000Y-93628571D02*
X107552142Y-92771428D01*
X108195000Y-92128571D02*
X107337857Y-92985714D01*
X108837857Y-93628571D02*
X108837857Y-92628571D01*
X108837857Y-92128571D02*
X108766428Y-92200000D01*
X108837857Y-92271428D01*
X108909285Y-92200000D01*
X108837857Y-92128571D01*
X108837857Y-92271428D01*
X110195000Y-93628571D02*
X110195000Y-92128571D01*
X110195000Y-93557142D02*
X110052142Y-93628571D01*
X109766428Y-93628571D01*
X109623571Y-93557142D01*
X109552142Y-93485714D01*
X109480714Y-93342857D01*
X109480714Y-92914285D01*
X109552142Y-92771428D01*
X109623571Y-92700000D01*
X109766428Y-92628571D01*
X110052142Y-92628571D01*
X110195000Y-92700000D01*
X111909285Y-92628571D02*
X112266428Y-93628571D01*
X112623571Y-92628571D01*
X113480714Y-92128571D02*
X113623571Y-92128571D01*
X113766428Y-92200000D01*
X113837857Y-92271428D01*
X113909285Y-92414285D01*
X113980714Y-92700000D01*
X113980714Y-93057142D01*
X113909285Y-93342857D01*
X113837857Y-93485714D01*
X113766428Y-93557142D01*
X113623571Y-93628571D01*
X113480714Y-93628571D01*
X113337857Y-93557142D01*
X113266428Y-93485714D01*
X113195000Y-93342857D01*
X113123571Y-93057142D01*
X113123571Y-92700000D01*
X113195000Y-92414285D01*
X113266428Y-92271428D01*
X113337857Y-92200000D01*
X113480714Y-92128571D01*
X115337857Y-92128571D02*
X114623571Y-92128571D01*
X114552142Y-92842857D01*
X114623571Y-92771428D01*
X114766428Y-92700000D01*
X115123571Y-92700000D01*
X115266428Y-92771428D01*
X115337857Y-92842857D01*
X115409285Y-92985714D01*
X115409285Y-93342857D01*
X115337857Y-93485714D01*
X115266428Y-93557142D01*
X115123571Y-93628571D01*
X114766428Y-93628571D01*
X114623571Y-93557142D01*
X114552142Y-93485714D01*
X101552142Y-96178571D02*
X101552142Y-94678571D01*
X101552142Y-95250000D02*
X101695000Y-95178571D01*
X101980714Y-95178571D01*
X102123571Y-95250000D01*
X102195000Y-95321428D01*
X102266428Y-95464285D01*
X102266428Y-95892857D01*
X102195000Y-96035714D01*
X102123571Y-96107142D01*
X101980714Y-96178571D01*
X101695000Y-96178571D01*
X101552142Y-96107142D01*
X102766428Y-95178571D02*
X103123571Y-96178571D01*
X103480714Y-95178571D02*
X103123571Y-96178571D01*
X102980714Y-96535714D01*
X102909285Y-96607142D01*
X102766428Y-96678571D01*
X105195000Y-96178571D02*
X105195000Y-94678571D01*
X105695000Y-95750000D01*
X106195000Y-94678571D01*
X106195000Y-96178571D01*
X107552142Y-96178571D02*
X107552142Y-95392857D01*
X107480714Y-95250000D01*
X107337857Y-95178571D01*
X107052142Y-95178571D01*
X106909285Y-95250000D01*
X107552142Y-96107142D02*
X107409285Y-96178571D01*
X107052142Y-96178571D01*
X106909285Y-96107142D01*
X106837857Y-95964285D01*
X106837857Y-95821428D01*
X106909285Y-95678571D01*
X107052142Y-95607142D01*
X107409285Y-95607142D01*
X107552142Y-95535714D01*
X108052142Y-95178571D02*
X108623571Y-95178571D01*
X108266428Y-94678571D02*
X108266428Y-95964285D01*
X108337857Y-96107142D01*
X108480714Y-96178571D01*
X108623571Y-96178571D01*
X108909285Y-95178571D02*
X109480714Y-95178571D01*
X109123571Y-94678571D02*
X109123571Y-95964285D01*
X109195000Y-96107142D01*
X109337857Y-96178571D01*
X109480714Y-96178571D01*
X111623571Y-95392857D02*
X111837857Y-95464285D01*
X111909285Y-95535714D01*
X111980714Y-95678571D01*
X111980714Y-95892857D01*
X111909285Y-96035714D01*
X111837857Y-96107142D01*
X111695000Y-96178571D01*
X111123571Y-96178571D01*
X111123571Y-94678571D01*
X111623571Y-94678571D01*
X111766428Y-94750000D01*
X111837857Y-94821428D01*
X111909285Y-94964285D01*
X111909285Y-95107142D01*
X111837857Y-95250000D01*
X111766428Y-95321428D01*
X111623571Y-95392857D01*
X111123571Y-95392857D01*
X112623571Y-96178571D02*
X112623571Y-95178571D01*
X112623571Y-95464285D02*
X112695000Y-95321428D01*
X112766428Y-95250000D01*
X112909285Y-95178571D01*
X113052142Y-95178571D01*
X114195000Y-96178571D02*
X114195000Y-95392857D01*
X114123571Y-95250000D01*
X113980714Y-95178571D01*
X113695000Y-95178571D01*
X113552142Y-95250000D01*
X114195000Y-96107142D02*
X114052142Y-96178571D01*
X113695000Y-96178571D01*
X113552142Y-96107142D01*
X113480714Y-95964285D01*
X113480714Y-95821428D01*
X113552142Y-95678571D01*
X113695000Y-95607142D01*
X114052142Y-95607142D01*
X114195000Y-95535714D01*
X115552142Y-96178571D02*
X115552142Y-94678571D01*
X115552142Y-96107142D02*
X115409285Y-96178571D01*
X115123571Y-96178571D01*
X114980714Y-96107142D01*
X114909285Y-96035714D01*
X114837857Y-95892857D01*
X114837857Y-95464285D01*
X114909285Y-95321428D01*
X114980714Y-95250000D01*
X115123571Y-95178571D01*
X115409285Y-95178571D01*
X115552142Y-95250000D01*
X116195000Y-96107142D02*
X116337857Y-96178571D01*
X116623571Y-96178571D01*
X116766428Y-96107142D01*
X116837857Y-95964285D01*
X116837857Y-95892857D01*
X116766428Y-95750000D01*
X116623571Y-95678571D01*
X116409285Y-95678571D01*
X116266428Y-95607142D01*
X116195000Y-95464285D01*
X116195000Y-95392857D01*
X116266428Y-95250000D01*
X116409285Y-95178571D01*
X116623571Y-95178571D01*
X116766428Y-95250000D01*
X117480714Y-96178571D02*
X117480714Y-94678571D01*
X118123571Y-96178571D02*
X118123571Y-95392857D01*
X118052142Y-95250000D01*
X117909285Y-95178571D01*
X117695000Y-95178571D01*
X117552142Y-95250000D01*
X117480714Y-95321428D01*
X119480714Y-96178571D02*
X119480714Y-95392857D01*
X119409285Y-95250000D01*
X119266428Y-95178571D01*
X118980714Y-95178571D01*
X118837857Y-95250000D01*
X119480714Y-96107142D02*
X119337857Y-96178571D01*
X118980714Y-96178571D01*
X118837857Y-96107142D01*
X118766428Y-95964285D01*
X118766428Y-95821428D01*
X118837857Y-95678571D01*
X118980714Y-95607142D01*
X119337857Y-95607142D01*
X119480714Y-95535714D01*
X120052142Y-95178571D02*
X120337857Y-96178571D01*
X120623571Y-95464285D01*
X120909285Y-96178571D01*
X121195000Y-95178571D01*
X101552142Y-98728571D02*
X101552142Y-97728571D01*
X101552142Y-97871428D02*
X101623571Y-97800000D01*
X101766428Y-97728571D01*
X101980714Y-97728571D01*
X102123571Y-97800000D01*
X102195000Y-97942857D01*
X102195000Y-98728571D01*
X102195000Y-97942857D02*
X102266428Y-97800000D01*
X102409285Y-97728571D01*
X102623571Y-97728571D01*
X102766428Y-97800000D01*
X102837857Y-97942857D01*
X102837857Y-98728571D01*
X104195000Y-98728571D02*
X104195000Y-97942857D01*
X104123571Y-97800000D01*
X103980714Y-97728571D01*
X103695000Y-97728571D01*
X103552142Y-97800000D01*
X104195000Y-98657142D02*
X104052142Y-98728571D01*
X103695000Y-98728571D01*
X103552142Y-98657142D01*
X103480714Y-98514285D01*
X103480714Y-98371428D01*
X103552142Y-98228571D01*
X103695000Y-98157142D01*
X104052142Y-98157142D01*
X104195000Y-98085714D01*
X104695000Y-97728571D02*
X105266428Y-97728571D01*
X104909285Y-97228571D02*
X104909285Y-98514285D01*
X104980714Y-98657142D01*
X105123571Y-98728571D01*
X105266428Y-98728571D01*
X105552142Y-97728571D02*
X106123571Y-97728571D01*
X105766428Y-97228571D02*
X105766428Y-98514285D01*
X105837857Y-98657142D01*
X105980714Y-98728571D01*
X106123571Y-98728571D01*
X106623571Y-98728571D02*
X106623571Y-97228571D01*
X106623571Y-97800000D02*
X106766428Y-97728571D01*
X107052142Y-97728571D01*
X107195000Y-97800000D01*
X107266428Y-97871428D01*
X107337857Y-98014285D01*
X107337857Y-98442857D01*
X107266428Y-98585714D01*
X107195000Y-98657142D01*
X107052142Y-98728571D01*
X106766428Y-98728571D01*
X106623571Y-98657142D01*
X107980714Y-98728571D02*
X107980714Y-97728571D01*
X107980714Y-98014285D02*
X108052142Y-97871428D01*
X108123571Y-97800000D01*
X108266428Y-97728571D01*
X108409285Y-97728571D01*
X109552142Y-98728571D02*
X109552142Y-97942857D01*
X109480714Y-97800000D01*
X109337857Y-97728571D01*
X109052142Y-97728571D01*
X108909285Y-97800000D01*
X109552142Y-98657142D02*
X109409285Y-98728571D01*
X109052142Y-98728571D01*
X108909285Y-98657142D01*
X108837857Y-98514285D01*
X108837857Y-98371428D01*
X108909285Y-98228571D01*
X109052142Y-98157142D01*
X109409285Y-98157142D01*
X109552142Y-98085714D01*
X110909285Y-98728571D02*
X110909285Y-97228571D01*
X110909285Y-98657142D02*
X110766428Y-98728571D01*
X110480714Y-98728571D01*
X110337857Y-98657142D01*
X110266428Y-98585714D01*
X110195000Y-98442857D01*
X110195000Y-98014285D01*
X110266428Y-97871428D01*
X110337857Y-97800000D01*
X110480714Y-97728571D01*
X110766428Y-97728571D01*
X110909285Y-97800000D01*
X111552142Y-98657142D02*
X111695000Y-98728571D01*
X111980714Y-98728571D01*
X112123571Y-98657142D01*
X112195000Y-98514285D01*
X112195000Y-98442857D01*
X112123571Y-98300000D01*
X111980714Y-98228571D01*
X111766428Y-98228571D01*
X111623571Y-98157142D01*
X111552142Y-98014285D01*
X111552142Y-97942857D01*
X111623571Y-97800000D01*
X111766428Y-97728571D01*
X111980714Y-97728571D01*
X112123571Y-97800000D01*
X112837857Y-98728571D02*
X112837857Y-97228571D01*
X113480714Y-98728571D02*
X113480714Y-97942857D01*
X113409285Y-97800000D01*
X113266428Y-97728571D01*
X113052142Y-97728571D01*
X112909285Y-97800000D01*
X112837857Y-97871428D01*
X114837857Y-98728571D02*
X114837857Y-97942857D01*
X114766428Y-97800000D01*
X114623571Y-97728571D01*
X114337857Y-97728571D01*
X114195000Y-97800000D01*
X114837857Y-98657142D02*
X114695000Y-98728571D01*
X114337857Y-98728571D01*
X114195000Y-98657142D01*
X114123571Y-98514285D01*
X114123571Y-98371428D01*
X114195000Y-98228571D01*
X114337857Y-98157142D01*
X114695000Y-98157142D01*
X114837857Y-98085714D01*
X115409285Y-97728571D02*
X115695000Y-98728571D01*
X115980714Y-98014285D01*
X116266428Y-98728571D01*
X116552142Y-97728571D01*
X117766428Y-98728571D02*
X117766428Y-97228571D01*
X117766428Y-98657142D02*
X117623571Y-98728571D01*
X117337857Y-98728571D01*
X117195000Y-98657142D01*
X117123571Y-98585714D01*
X117052142Y-98442857D01*
X117052142Y-98014285D01*
X117123571Y-97871428D01*
X117195000Y-97800000D01*
X117337857Y-97728571D01*
X117623571Y-97728571D01*
X117766428Y-97800000D01*
X119052142Y-98657142D02*
X118909285Y-98728571D01*
X118623571Y-98728571D01*
X118480714Y-98657142D01*
X118409285Y-98514285D01*
X118409285Y-97942857D01*
X118480714Y-97800000D01*
X118623571Y-97728571D01*
X118909285Y-97728571D01*
X119052142Y-97800000D01*
X119123571Y-97942857D01*
X119123571Y-98085714D01*
X118409285Y-98228571D01*
X119695000Y-98657142D02*
X119837857Y-98728571D01*
X120123571Y-98728571D01*
X120266428Y-98657142D01*
X120337857Y-98514285D01*
X120337857Y-98442857D01*
X120266428Y-98300000D01*
X120123571Y-98228571D01*
X119909285Y-98228571D01*
X119766428Y-98157142D01*
X119695000Y-98014285D01*
X119695000Y-97942857D01*
X119766428Y-97800000D01*
X119909285Y-97728571D01*
X120123571Y-97728571D01*
X120266428Y-97800000D01*
X120980714Y-98728571D02*
X120980714Y-97728571D01*
X120980714Y-97228571D02*
X120909285Y-97300000D01*
X120980714Y-97371428D01*
X121052142Y-97300000D01*
X120980714Y-97228571D01*
X120980714Y-97371428D01*
X122337857Y-97728571D02*
X122337857Y-98942857D01*
X122266428Y-99085714D01*
X122195000Y-99157142D01*
X122052142Y-99228571D01*
X121837857Y-99228571D01*
X121695000Y-99157142D01*
X122337857Y-98657142D02*
X122195000Y-98728571D01*
X121909285Y-98728571D01*
X121766428Y-98657142D01*
X121695000Y-98585714D01*
X121623571Y-98442857D01*
X121623571Y-98014285D01*
X121695000Y-97871428D01*
X121766428Y-97800000D01*
X121909285Y-97728571D01*
X122195000Y-97728571D01*
X122337857Y-97800000D01*
X123052142Y-97728571D02*
X123052142Y-98728571D01*
X123052142Y-97871428D02*
X123123571Y-97800000D01*
X123266428Y-97728571D01*
X123480714Y-97728571D01*
X123623571Y-97800000D01*
X123695000Y-97942857D01*
X123695000Y-98728571D01*
X124409285Y-98585714D02*
X124480714Y-98657142D01*
X124409285Y-98728571D01*
X124337857Y-98657142D01*
X124409285Y-98585714D01*
X124409285Y-98728571D01*
X125766428Y-98657142D02*
X125623571Y-98728571D01*
X125337857Y-98728571D01*
X125195000Y-98657142D01*
X125123571Y-98585714D01*
X125052142Y-98442857D01*
X125052142Y-98014285D01*
X125123571Y-97871428D01*
X125195000Y-97800000D01*
X125337857Y-97728571D01*
X125623571Y-97728571D01*
X125766428Y-97800000D01*
X126623571Y-98728571D02*
X126480714Y-98657142D01*
X126409285Y-98585714D01*
X126337857Y-98442857D01*
X126337857Y-98014285D01*
X126409285Y-97871428D01*
X126480714Y-97800000D01*
X126623571Y-97728571D01*
X126837857Y-97728571D01*
X126980714Y-97800000D01*
X127052142Y-97871428D01*
X127123571Y-98014285D01*
X127123571Y-98442857D01*
X127052142Y-98585714D01*
X126980714Y-98657142D01*
X126837857Y-98728571D01*
X126623571Y-98728571D01*
X127766428Y-98728571D02*
X127766428Y-97728571D01*
X127766428Y-97871428D02*
X127837857Y-97800000D01*
X127980714Y-97728571D01*
X128195000Y-97728571D01*
X128337857Y-97800000D01*
X128409285Y-97942857D01*
X128409285Y-98728571D01*
X128409285Y-97942857D02*
X128480714Y-97800000D01*
X128623571Y-97728571D01*
X128837857Y-97728571D01*
X128980714Y-97800000D01*
X129052142Y-97942857D01*
X129052142Y-98728571D01*
X104378571Y-129036428D02*
X104450000Y-128893571D01*
X104521428Y-128822142D01*
X104664285Y-128750714D01*
X104735714Y-128750714D01*
X104878571Y-128822142D01*
X104950000Y-128893571D01*
X105021428Y-129036428D01*
X105021428Y-129322142D01*
X104950000Y-129465000D01*
X104878571Y-129536428D01*
X104735714Y-129607857D01*
X104664285Y-129607857D01*
X104521428Y-129536428D01*
X104450000Y-129465000D01*
X104378571Y-129322142D01*
X104378571Y-129036428D01*
X104307142Y-128893571D01*
X104235714Y-128822142D01*
X104092857Y-128750714D01*
X103807142Y-128750714D01*
X103664285Y-128822142D01*
X103592857Y-128893571D01*
X103521428Y-129036428D01*
X103521428Y-129322142D01*
X103592857Y-129465000D01*
X103664285Y-129536428D01*
X103807142Y-129607857D01*
X104092857Y-129607857D01*
X104235714Y-129536428D01*
X104307142Y-129465000D01*
X104378571Y-129322142D01*
X102471428Y-128679285D02*
X102471428Y-129679285D01*
X100971428Y-129036428D01*
X99921428Y-129465000D02*
X99921428Y-129179285D01*
X99850000Y-129036428D01*
X99778571Y-128965000D01*
X99564285Y-128822142D01*
X99278571Y-128750714D01*
X98707142Y-128750714D01*
X98564285Y-128822142D01*
X98492857Y-128893571D01*
X98421428Y-129036428D01*
X98421428Y-129322142D01*
X98492857Y-129465000D01*
X98564285Y-129536428D01*
X98707142Y-129607857D01*
X99064285Y-129607857D01*
X99207142Y-129536428D01*
X99278571Y-129465000D01*
X99350000Y-129322142D01*
X99350000Y-129036428D01*
X99278571Y-128893571D01*
X99207142Y-128822142D01*
X99064285Y-128750714D01*
X97371428Y-129536428D02*
X97371428Y-128822142D01*
X96657142Y-128750714D01*
X96728571Y-128822142D01*
X96800000Y-128965000D01*
X96800000Y-129322142D01*
X96728571Y-129465000D01*
X96657142Y-129536428D01*
X96514285Y-129607857D01*
X96157142Y-129607857D01*
X96014285Y-129536428D01*
X95942857Y-129465000D01*
X95871428Y-129322142D01*
X95871428Y-128965000D01*
X95942857Y-128822142D01*
X96014285Y-128750714D01*
X89650000Y-129607857D02*
X89721428Y-129465000D01*
X89721428Y-129250714D01*
X89650000Y-129036428D01*
X89507142Y-128893571D01*
X89364285Y-128822142D01*
X89078571Y-128750714D01*
X88864285Y-128750714D01*
X88578571Y-128822142D01*
X88435714Y-128893571D01*
X88292857Y-129036428D01*
X88221428Y-129250714D01*
X88221428Y-129393571D01*
X88292857Y-129607857D01*
X88364285Y-129679285D01*
X88864285Y-129679285D01*
X88864285Y-129393571D01*
X88221428Y-130322142D02*
X89721428Y-130322142D01*
X88221428Y-131179285D01*
X89721428Y-131179285D01*
X88221428Y-131893571D02*
X89721428Y-131893571D01*
X89721428Y-132250714D01*
X89650000Y-132465000D01*
X89507142Y-132607857D01*
X89364285Y-132679285D01*
X89078571Y-132750714D01*
X88864285Y-132750714D01*
X88578571Y-132679285D01*
X88435714Y-132607857D01*
X88292857Y-132465000D01*
X88221428Y-132250714D01*
X88221428Y-131893571D01*
X87171428Y-128607857D02*
X85671428Y-129107857D01*
X87171428Y-129607857D01*
X85814285Y-130965000D02*
X85742857Y-130893571D01*
X85671428Y-130679285D01*
X85671428Y-130536428D01*
X85742857Y-130322142D01*
X85885714Y-130179285D01*
X86028571Y-130107857D01*
X86314285Y-130036428D01*
X86528571Y-130036428D01*
X86814285Y-130107857D01*
X86957142Y-130179285D01*
X87100000Y-130322142D01*
X87171428Y-130536428D01*
X87171428Y-130679285D01*
X87100000Y-130893571D01*
X87028571Y-130965000D01*
X85814285Y-132465000D02*
X85742857Y-132393571D01*
X85671428Y-132179285D01*
X85671428Y-132036428D01*
X85742857Y-131822142D01*
X85885714Y-131679285D01*
X86028571Y-131607857D01*
X86314285Y-131536428D01*
X86528571Y-131536428D01*
X86814285Y-131607857D01*
X86957142Y-131679285D01*
X87100000Y-131822142D01*
X87171428Y-132036428D01*
X87171428Y-132179285D01*
X87100000Y-132393571D01*
X87028571Y-132465000D01*
X84121428Y-129465000D02*
X83121428Y-129465000D01*
X84692857Y-129107857D02*
X83621428Y-128750714D01*
X83621428Y-129679285D01*
X82071428Y-128679285D02*
X82071428Y-129607857D01*
X81500000Y-129107857D01*
X81500000Y-129322142D01*
X81428571Y-129465000D01*
X81357142Y-129536428D01*
X81214285Y-129607857D01*
X80857142Y-129607857D01*
X80714285Y-129536428D01*
X80642857Y-129465000D01*
X80571428Y-129322142D01*
X80571428Y-128893571D01*
X80642857Y-128750714D01*
X80714285Y-128679285D01*
X79378571Y-128750714D02*
X79450000Y-128822142D01*
X79521428Y-128965000D01*
X79521428Y-129322142D01*
X79450000Y-129465000D01*
X79378571Y-129536428D01*
X79235714Y-129607857D01*
X79092857Y-129607857D01*
X78878571Y-129536428D01*
X78021428Y-128679285D01*
X78021428Y-129607857D01*
X75471428Y-129607857D02*
X75471428Y-128750714D01*
X75471428Y-129179285D02*
X76971428Y-129179285D01*
X76757142Y-129036428D01*
X76614285Y-128893571D01*
X76542857Y-128750714D01*
X74421428Y-129107857D02*
X74421428Y-129250714D01*
X74350000Y-129393571D01*
X74278571Y-129465000D01*
X74135714Y-129536428D01*
X73850000Y-129607857D01*
X73492857Y-129607857D01*
X73207142Y-129536428D01*
X73064285Y-129465000D01*
X72992857Y-129393571D01*
X72921428Y-129250714D01*
X72921428Y-129107857D01*
X72992857Y-128965000D01*
X73064285Y-128893571D01*
X73207142Y-128822142D01*
X73492857Y-128750714D01*
X73850000Y-128750714D01*
X74135714Y-128822142D01*
X74278571Y-128893571D01*
X74350000Y-128965000D01*
X74421428Y-129107857D01*
X103526428Y-111835000D02*
X103526428Y-112120714D01*
X103597857Y-112263571D01*
X103669285Y-112335000D01*
X103883571Y-112477857D01*
X104169285Y-112549285D01*
X104740714Y-112549285D01*
X104883571Y-112477857D01*
X104955000Y-112406428D01*
X105026428Y-112263571D01*
X105026428Y-111977857D01*
X104955000Y-111835000D01*
X104883571Y-111763571D01*
X104740714Y-111692142D01*
X104383571Y-111692142D01*
X104240714Y-111763571D01*
X104169285Y-111835000D01*
X104097857Y-111977857D01*
X104097857Y-112263571D01*
X104169285Y-112406428D01*
X104240714Y-112477857D01*
X104383571Y-112549285D01*
X100976428Y-111120714D02*
X100976428Y-110263571D01*
X100976428Y-110692142D02*
X102476428Y-110692142D01*
X102262142Y-110549285D01*
X102119285Y-110406428D01*
X102047857Y-110263571D01*
X102476428Y-112049285D02*
X102476428Y-112192142D01*
X102405000Y-112335000D01*
X102333571Y-112406428D01*
X102190714Y-112477857D01*
X101905000Y-112549285D01*
X101547857Y-112549285D01*
X101262142Y-112477857D01*
X101119285Y-112406428D01*
X101047857Y-112335000D01*
X100976428Y-112192142D01*
X100976428Y-112049285D01*
X101047857Y-111906428D01*
X101119285Y-111835000D01*
X101262142Y-111763571D01*
X101547857Y-111692142D01*
X101905000Y-111692142D01*
X102190714Y-111763571D01*
X102333571Y-111835000D01*
X102405000Y-111906428D01*
X102476428Y-112049285D01*
X98426428Y-111120714D02*
X98426428Y-110263571D01*
X98426428Y-110692142D02*
X99926428Y-110692142D01*
X99712142Y-110549285D01*
X99569285Y-110406428D01*
X99497857Y-110263571D01*
X98426428Y-112549285D02*
X98426428Y-111692142D01*
X98426428Y-112120714D02*
X99926428Y-112120714D01*
X99712142Y-111977857D01*
X99569285Y-111835000D01*
X99497857Y-111692142D01*
X95876428Y-111120714D02*
X95876428Y-110263571D01*
X95876428Y-110692142D02*
X97376428Y-110692142D01*
X97162142Y-110549285D01*
X97019285Y-110406428D01*
X96947857Y-110263571D01*
X97233571Y-111692142D02*
X97305000Y-111763571D01*
X97376428Y-111906428D01*
X97376428Y-112263571D01*
X97305000Y-112406428D01*
X97233571Y-112477857D01*
X97090714Y-112549285D01*
X96947857Y-112549285D01*
X96733571Y-112477857D01*
X95876428Y-111620714D01*
X95876428Y-112549285D01*
X93326428Y-111120714D02*
X93326428Y-110263571D01*
X93326428Y-110692142D02*
X94826428Y-110692142D01*
X94612142Y-110549285D01*
X94469285Y-110406428D01*
X94397857Y-110263571D01*
X94826428Y-111620714D02*
X94826428Y-112549285D01*
X94255000Y-112049285D01*
X94255000Y-112263571D01*
X94183571Y-112406428D01*
X94112142Y-112477857D01*
X93969285Y-112549285D01*
X93612142Y-112549285D01*
X93469285Y-112477857D01*
X93397857Y-112406428D01*
X93326428Y-112263571D01*
X93326428Y-111835000D01*
X93397857Y-111692142D01*
X93469285Y-111620714D01*
X83555000Y-110406428D02*
X83555000Y-111120714D01*
X83126428Y-110263571D02*
X84626428Y-110763571D01*
X83126428Y-111263571D01*
X84626428Y-112049285D02*
X84626428Y-112192142D01*
X84555000Y-112335000D01*
X84483571Y-112406428D01*
X84340714Y-112477857D01*
X84055000Y-112549285D01*
X83697857Y-112549285D01*
X83412142Y-112477857D01*
X83269285Y-112406428D01*
X83197857Y-112335000D01*
X83126428Y-112192142D01*
X83126428Y-112049285D01*
X83197857Y-111906428D01*
X83269285Y-111835000D01*
X83412142Y-111763571D01*
X83697857Y-111692142D01*
X84055000Y-111692142D01*
X84340714Y-111763571D01*
X84483571Y-111835000D01*
X84555000Y-111906428D01*
X84626428Y-112049285D01*
X81005000Y-110406428D02*
X81005000Y-111120714D01*
X80576428Y-110263571D02*
X82076428Y-110763571D01*
X80576428Y-111263571D01*
X80576428Y-112549285D02*
X80576428Y-111692142D01*
X80576428Y-112120714D02*
X82076428Y-112120714D01*
X81862142Y-111977857D01*
X81719285Y-111835000D01*
X81647857Y-111692142D01*
X78455000Y-110406428D02*
X78455000Y-111120714D01*
X78026428Y-110263571D02*
X79526428Y-110763571D01*
X78026428Y-111263571D01*
X79383571Y-111692142D02*
X79455000Y-111763571D01*
X79526428Y-111906428D01*
X79526428Y-112263571D01*
X79455000Y-112406428D01*
X79383571Y-112477857D01*
X79240714Y-112549285D01*
X79097857Y-112549285D01*
X78883571Y-112477857D01*
X78026428Y-111620714D01*
X78026428Y-112549285D01*
X75905000Y-110406428D02*
X75905000Y-111120714D01*
X75476428Y-110263571D02*
X76976428Y-110763571D01*
X75476428Y-111263571D01*
X76976428Y-111620714D02*
X76976428Y-112549285D01*
X76405000Y-112049285D01*
X76405000Y-112263571D01*
X76333571Y-112406428D01*
X76262142Y-112477857D01*
X76119285Y-112549285D01*
X75762142Y-112549285D01*
X75619285Y-112477857D01*
X75547857Y-112406428D01*
X75476428Y-112263571D01*
X75476428Y-111835000D01*
X75547857Y-111692142D01*
X75619285Y-111620714D01*
X73355000Y-110406428D02*
X73355000Y-111120714D01*
X72926428Y-110263571D02*
X74426428Y-110763571D01*
X72926428Y-111263571D01*
X73926428Y-112406428D02*
X72926428Y-112406428D01*
X74497857Y-112049285D02*
X73426428Y-111692142D01*
X73426428Y-112620714D01*
X70805000Y-110406428D02*
X70805000Y-111120714D01*
X70376428Y-110263571D02*
X71876428Y-110763571D01*
X70376428Y-111263571D01*
X71876428Y-112477857D02*
X71876428Y-111763571D01*
X71162142Y-111692142D01*
X71233571Y-111763571D01*
X71305000Y-111906428D01*
X71305000Y-112263571D01*
X71233571Y-112406428D01*
X71162142Y-112477857D01*
X71019285Y-112549285D01*
X70662142Y-112549285D01*
X70519285Y-112477857D01*
X70447857Y-112406428D01*
X70376428Y-112263571D01*
X70376428Y-111906428D01*
X70447857Y-111763571D01*
X70519285Y-111692142D01*
X79857142Y-93607142D02*
X80071428Y-93678571D01*
X80428571Y-93678571D01*
X80571428Y-93607142D01*
X80642857Y-93535714D01*
X80714285Y-93392857D01*
X80714285Y-93250000D01*
X80642857Y-93107142D01*
X80571428Y-93035714D01*
X80428571Y-92964285D01*
X80142857Y-92892857D01*
X80000000Y-92821428D01*
X79928571Y-92750000D01*
X79857142Y-92607142D01*
X79857142Y-92464285D01*
X79928571Y-92321428D01*
X80000000Y-92250000D01*
X80142857Y-92178571D01*
X80500000Y-92178571D01*
X80714285Y-92250000D01*
X81357142Y-92892857D02*
X81857142Y-92892857D01*
X82071428Y-93678571D02*
X81357142Y-93678571D01*
X81357142Y-92178571D01*
X82071428Y-92178571D01*
X83571428Y-93678571D02*
X83071428Y-92964285D01*
X82714285Y-93678571D02*
X82714285Y-92178571D01*
X83285714Y-92178571D01*
X83428571Y-92250000D01*
X83500000Y-92321428D01*
X83571428Y-92464285D01*
X83571428Y-92678571D01*
X83500000Y-92821428D01*
X83428571Y-92892857D01*
X83285714Y-92964285D01*
X82714285Y-92964285D01*
X84214285Y-93678571D02*
X84214285Y-92178571D01*
X84857142Y-93250000D02*
X85571428Y-93250000D01*
X84714285Y-93678571D02*
X85214285Y-92178571D01*
X85714285Y-93678571D01*
X86928571Y-93678571D02*
X86214285Y-93678571D01*
X86214285Y-92178571D01*
X88571428Y-93678571D02*
X88571428Y-92178571D01*
X89428571Y-93678571D01*
X89428571Y-92178571D01*
X90142857Y-92178571D02*
X90142857Y-93392857D01*
X90214285Y-93535714D01*
X90285714Y-93607142D01*
X90428571Y-93678571D01*
X90714285Y-93678571D01*
X90857142Y-93607142D01*
X90928571Y-93535714D01*
X91000000Y-93392857D01*
X91000000Y-92178571D01*
X91714285Y-93678571D02*
X91714285Y-92178571D01*
X92214285Y-93250000D01*
X92714285Y-92178571D01*
X92714285Y-93678571D01*
X93928571Y-92892857D02*
X94142857Y-92964285D01*
X94214285Y-93035714D01*
X94285714Y-93178571D01*
X94285714Y-93392857D01*
X94214285Y-93535714D01*
X94142857Y-93607142D01*
X94000000Y-93678571D01*
X93428571Y-93678571D01*
X93428571Y-92178571D01*
X93928571Y-92178571D01*
X94071428Y-92250000D01*
X94142857Y-92321428D01*
X94214285Y-92464285D01*
X94214285Y-92607142D01*
X94142857Y-92750000D01*
X94071428Y-92821428D01*
X93928571Y-92892857D01*
X93428571Y-92892857D01*
X94928571Y-92892857D02*
X95428571Y-92892857D01*
X95642857Y-93678571D02*
X94928571Y-93678571D01*
X94928571Y-92178571D01*
X95642857Y-92178571D01*
X97142857Y-93678571D02*
X96642857Y-92964285D01*
X96285714Y-93678571D02*
X96285714Y-92178571D01*
X96857142Y-92178571D01*
X97000000Y-92250000D01*
X97071428Y-92321428D01*
X97142857Y-92464285D01*
X97142857Y-92678571D01*
X97071428Y-92821428D01*
X97000000Y-92892857D01*
X96857142Y-92964285D01*
X96285714Y-92964285D01*
D11*
G36*
X78500000Y-99000000D02*
X98500000Y-99000000D01*
X98500000Y-94000000D01*
X78500000Y-94000000D01*
X78500000Y-99000000D01*
G37*
X78500000Y-99000000D02*
X98500000Y-99000000D01*
X98500000Y-94000000D01*
X78500000Y-94000000D01*
X78500000Y-99000000D01*
D12*
X132500000Y-50000000D02*
G75*
G03X132500000Y-50000000I-2500000J0D01*
G01*
X122500000Y-50000000D02*
G75*
G03X122500000Y-50000000I-2500000J0D01*
G01*
X112500000Y-50000000D02*
G75*
G03X112500000Y-50000000I-2500000J0D01*
G01*
X72500000Y-50000000D02*
G75*
G03X72500000Y-50000000I-2500000J0D01*
G01*
X82500000Y-50000000D02*
G75*
G03X82500000Y-50000000I-2500000J0D01*
G01*
X92500000Y-50000000D02*
G75*
G03X92500000Y-50000000I-2500000J0D01*
G01*
X102500000Y-50000000D02*
G75*
G03X102500000Y-50000000I-2500000J0D01*
G01*
X102500000Y-80000000D02*
G75*
G03X102500000Y-80000000I-2500000J0D01*
G01*
D13*
G04 #@! TO.C,C10*
X113695241Y-116454000D02*
X113695241Y-115824000D01*
X114010241Y-116139000D02*
X113380241Y-116139000D01*
X107269000Y-114702000D02*
X107269000Y-113898000D01*
X107309000Y-114933000D02*
X107309000Y-113667000D01*
X107349000Y-115102000D02*
X107349000Y-113498000D01*
X107389000Y-115240000D02*
X107389000Y-113360000D01*
X107429000Y-115359000D02*
X107429000Y-113241000D01*
X107469000Y-115465000D02*
X107469000Y-113135000D01*
X107509000Y-115562000D02*
X107509000Y-113038000D01*
X107549000Y-115650000D02*
X107549000Y-112950000D01*
X107589000Y-115732000D02*
X107589000Y-112868000D01*
X107629000Y-115809000D02*
X107629000Y-112791000D01*
X107669000Y-115881000D02*
X107669000Y-112719000D01*
X107709000Y-115950000D02*
X107709000Y-112650000D01*
X107749000Y-116014000D02*
X107749000Y-112586000D01*
X107789000Y-116076000D02*
X107789000Y-112524000D01*
X107829000Y-116134000D02*
X107829000Y-112466000D01*
X107869000Y-116190000D02*
X107869000Y-112410000D01*
X107909000Y-116244000D02*
X107909000Y-112356000D01*
X107949000Y-116295000D02*
X107949000Y-112305000D01*
X107989000Y-116344000D02*
X107989000Y-112256000D01*
X108029000Y-116392000D02*
X108029000Y-112208000D01*
X108069000Y-116437000D02*
X108069000Y-112163000D01*
X108109000Y-116482000D02*
X108109000Y-112118000D01*
X108149000Y-116524000D02*
X108149000Y-112076000D01*
X108189000Y-116565000D02*
X108189000Y-112035000D01*
X108229000Y-113260000D02*
X108229000Y-111995000D01*
X108229000Y-116605000D02*
X108229000Y-115340000D01*
X108269000Y-113260000D02*
X108269000Y-111957000D01*
X108269000Y-116643000D02*
X108269000Y-115340000D01*
X108309000Y-113260000D02*
X108309000Y-111920000D01*
X108309000Y-116680000D02*
X108309000Y-115340000D01*
X108349000Y-113260000D02*
X108349000Y-111884000D01*
X108349000Y-116716000D02*
X108349000Y-115340000D01*
X108389000Y-113260000D02*
X108389000Y-111850000D01*
X108389000Y-116750000D02*
X108389000Y-115340000D01*
X108429000Y-113260000D02*
X108429000Y-111816000D01*
X108429000Y-116784000D02*
X108429000Y-115340000D01*
X108469000Y-113260000D02*
X108469000Y-111784000D01*
X108469000Y-116816000D02*
X108469000Y-115340000D01*
X108509000Y-113260000D02*
X108509000Y-111752000D01*
X108509000Y-116848000D02*
X108509000Y-115340000D01*
X108549000Y-113260000D02*
X108549000Y-111722000D01*
X108549000Y-116878000D02*
X108549000Y-115340000D01*
X108589000Y-113260000D02*
X108589000Y-111693000D01*
X108589000Y-116907000D02*
X108589000Y-115340000D01*
X108629000Y-113260000D02*
X108629000Y-111664000D01*
X108629000Y-116936000D02*
X108629000Y-115340000D01*
X108669000Y-113260000D02*
X108669000Y-111636000D01*
X108669000Y-116964000D02*
X108669000Y-115340000D01*
X108709000Y-113260000D02*
X108709000Y-111610000D01*
X108709000Y-116990000D02*
X108709000Y-115340000D01*
X108749000Y-113260000D02*
X108749000Y-111584000D01*
X108749000Y-117016000D02*
X108749000Y-115340000D01*
X108789000Y-113260000D02*
X108789000Y-111558000D01*
X108789000Y-117042000D02*
X108789000Y-115340000D01*
X108829000Y-113260000D02*
X108829000Y-111534000D01*
X108829000Y-117066000D02*
X108829000Y-115340000D01*
X108869000Y-113260000D02*
X108869000Y-111510000D01*
X108869000Y-117090000D02*
X108869000Y-115340000D01*
X108909000Y-113260000D02*
X108909000Y-111488000D01*
X108909000Y-117112000D02*
X108909000Y-115340000D01*
X108949000Y-113260000D02*
X108949000Y-111466000D01*
X108949000Y-117134000D02*
X108949000Y-115340000D01*
X108989000Y-113260000D02*
X108989000Y-111444000D01*
X108989000Y-117156000D02*
X108989000Y-115340000D01*
X109029000Y-113260000D02*
X109029000Y-111424000D01*
X109029000Y-117176000D02*
X109029000Y-115340000D01*
X109069000Y-113260000D02*
X109069000Y-111404000D01*
X109069000Y-117196000D02*
X109069000Y-115340000D01*
X109109000Y-113260000D02*
X109109000Y-111384000D01*
X109109000Y-117216000D02*
X109109000Y-115340000D01*
X109149000Y-113260000D02*
X109149000Y-111366000D01*
X109149000Y-117234000D02*
X109149000Y-115340000D01*
X109189000Y-113260000D02*
X109189000Y-111348000D01*
X109189000Y-117252000D02*
X109189000Y-115340000D01*
X109229000Y-113260000D02*
X109229000Y-111330000D01*
X109229000Y-117270000D02*
X109229000Y-115340000D01*
X109269000Y-113260000D02*
X109269000Y-111314000D01*
X109269000Y-117286000D02*
X109269000Y-115340000D01*
X109309000Y-113260000D02*
X109309000Y-111298000D01*
X109309000Y-117302000D02*
X109309000Y-115340000D01*
X109349000Y-113260000D02*
X109349000Y-111282000D01*
X109349000Y-117318000D02*
X109349000Y-115340000D01*
X109389000Y-113260000D02*
X109389000Y-111267000D01*
X109389000Y-117333000D02*
X109389000Y-115340000D01*
X109429000Y-113260000D02*
X109429000Y-111253000D01*
X109429000Y-117347000D02*
X109429000Y-115340000D01*
X109469000Y-113260000D02*
X109469000Y-111239000D01*
X109469000Y-117361000D02*
X109469000Y-115340000D01*
X109509000Y-113260000D02*
X109509000Y-111226000D01*
X109509000Y-117374000D02*
X109509000Y-115340000D01*
X109549000Y-113260000D02*
X109549000Y-111214000D01*
X109549000Y-117386000D02*
X109549000Y-115340000D01*
X109589000Y-113260000D02*
X109589000Y-111202000D01*
X109589000Y-117398000D02*
X109589000Y-115340000D01*
X109629000Y-113260000D02*
X109629000Y-111190000D01*
X109629000Y-117410000D02*
X109629000Y-115340000D01*
X109669000Y-113260000D02*
X109669000Y-111179000D01*
X109669000Y-117421000D02*
X109669000Y-115340000D01*
X109709000Y-113260000D02*
X109709000Y-111169000D01*
X109709000Y-117431000D02*
X109709000Y-115340000D01*
X109749000Y-113260000D02*
X109749000Y-111159000D01*
X109749000Y-117441000D02*
X109749000Y-115340000D01*
X109789000Y-113260000D02*
X109789000Y-111150000D01*
X109789000Y-117450000D02*
X109789000Y-115340000D01*
X109830000Y-113260000D02*
X109830000Y-111141000D01*
X109830000Y-117459000D02*
X109830000Y-115340000D01*
X109870000Y-113260000D02*
X109870000Y-111133000D01*
X109870000Y-117467000D02*
X109870000Y-115340000D01*
X109910000Y-113260000D02*
X109910000Y-111125000D01*
X109910000Y-117475000D02*
X109910000Y-115340000D01*
X109950000Y-113260000D02*
X109950000Y-111118000D01*
X109950000Y-117482000D02*
X109950000Y-115340000D01*
X109990000Y-113260000D02*
X109990000Y-111111000D01*
X109990000Y-117489000D02*
X109990000Y-115340000D01*
X110030000Y-113260000D02*
X110030000Y-111105000D01*
X110030000Y-117495000D02*
X110030000Y-115340000D01*
X110070000Y-113260000D02*
X110070000Y-111099000D01*
X110070000Y-117501000D02*
X110070000Y-115340000D01*
X110110000Y-113260000D02*
X110110000Y-111094000D01*
X110110000Y-117506000D02*
X110110000Y-115340000D01*
X110150000Y-113260000D02*
X110150000Y-111089000D01*
X110150000Y-117511000D02*
X110150000Y-115340000D01*
X110190000Y-113260000D02*
X110190000Y-111085000D01*
X110190000Y-117515000D02*
X110190000Y-115340000D01*
X110230000Y-113260000D02*
X110230000Y-111082000D01*
X110230000Y-117518000D02*
X110230000Y-115340000D01*
X110270000Y-113260000D02*
X110270000Y-111078000D01*
X110270000Y-117522000D02*
X110270000Y-115340000D01*
X110310000Y-117524000D02*
X110310000Y-111076000D01*
X110350000Y-117527000D02*
X110350000Y-111073000D01*
X110390000Y-117528000D02*
X110390000Y-111072000D01*
X110430000Y-117530000D02*
X110430000Y-111070000D01*
X110470000Y-117530000D02*
X110470000Y-111070000D01*
X110510000Y-117530000D02*
X110510000Y-111070000D01*
X113780000Y-114300000D02*
G75*
G03X113780000Y-114300000I-3270000J0D01*
G01*
G04 #@! TO.C,C17*
X113820000Y-124460000D02*
G75*
G03X113820000Y-124460000I-3270000J0D01*
G01*
X110550000Y-127690000D02*
X110550000Y-121230000D01*
X110510000Y-127690000D02*
X110510000Y-121230000D01*
X110470000Y-127690000D02*
X110470000Y-121230000D01*
X110430000Y-127688000D02*
X110430000Y-121232000D01*
X110390000Y-127687000D02*
X110390000Y-121233000D01*
X110350000Y-127684000D02*
X110350000Y-121236000D01*
X110310000Y-127682000D02*
X110310000Y-125500000D01*
X110310000Y-123420000D02*
X110310000Y-121238000D01*
X110270000Y-127678000D02*
X110270000Y-125500000D01*
X110270000Y-123420000D02*
X110270000Y-121242000D01*
X110230000Y-127675000D02*
X110230000Y-125500000D01*
X110230000Y-123420000D02*
X110230000Y-121245000D01*
X110190000Y-127671000D02*
X110190000Y-125500000D01*
X110190000Y-123420000D02*
X110190000Y-121249000D01*
X110150000Y-127666000D02*
X110150000Y-125500000D01*
X110150000Y-123420000D02*
X110150000Y-121254000D01*
X110110000Y-127661000D02*
X110110000Y-125500000D01*
X110110000Y-123420000D02*
X110110000Y-121259000D01*
X110070000Y-127655000D02*
X110070000Y-125500000D01*
X110070000Y-123420000D02*
X110070000Y-121265000D01*
X110030000Y-127649000D02*
X110030000Y-125500000D01*
X110030000Y-123420000D02*
X110030000Y-121271000D01*
X109990000Y-127642000D02*
X109990000Y-125500000D01*
X109990000Y-123420000D02*
X109990000Y-121278000D01*
X109950000Y-127635000D02*
X109950000Y-125500000D01*
X109950000Y-123420000D02*
X109950000Y-121285000D01*
X109910000Y-127627000D02*
X109910000Y-125500000D01*
X109910000Y-123420000D02*
X109910000Y-121293000D01*
X109870000Y-127619000D02*
X109870000Y-125500000D01*
X109870000Y-123420000D02*
X109870000Y-121301000D01*
X109829000Y-127610000D02*
X109829000Y-125500000D01*
X109829000Y-123420000D02*
X109829000Y-121310000D01*
X109789000Y-127601000D02*
X109789000Y-125500000D01*
X109789000Y-123420000D02*
X109789000Y-121319000D01*
X109749000Y-127591000D02*
X109749000Y-125500000D01*
X109749000Y-123420000D02*
X109749000Y-121329000D01*
X109709000Y-127581000D02*
X109709000Y-125500000D01*
X109709000Y-123420000D02*
X109709000Y-121339000D01*
X109669000Y-127570000D02*
X109669000Y-125500000D01*
X109669000Y-123420000D02*
X109669000Y-121350000D01*
X109629000Y-127558000D02*
X109629000Y-125500000D01*
X109629000Y-123420000D02*
X109629000Y-121362000D01*
X109589000Y-127546000D02*
X109589000Y-125500000D01*
X109589000Y-123420000D02*
X109589000Y-121374000D01*
X109549000Y-127534000D02*
X109549000Y-125500000D01*
X109549000Y-123420000D02*
X109549000Y-121386000D01*
X109509000Y-127521000D02*
X109509000Y-125500000D01*
X109509000Y-123420000D02*
X109509000Y-121399000D01*
X109469000Y-127507000D02*
X109469000Y-125500000D01*
X109469000Y-123420000D02*
X109469000Y-121413000D01*
X109429000Y-127493000D02*
X109429000Y-125500000D01*
X109429000Y-123420000D02*
X109429000Y-121427000D01*
X109389000Y-127478000D02*
X109389000Y-125500000D01*
X109389000Y-123420000D02*
X109389000Y-121442000D01*
X109349000Y-127462000D02*
X109349000Y-125500000D01*
X109349000Y-123420000D02*
X109349000Y-121458000D01*
X109309000Y-127446000D02*
X109309000Y-125500000D01*
X109309000Y-123420000D02*
X109309000Y-121474000D01*
X109269000Y-127430000D02*
X109269000Y-125500000D01*
X109269000Y-123420000D02*
X109269000Y-121490000D01*
X109229000Y-127412000D02*
X109229000Y-125500000D01*
X109229000Y-123420000D02*
X109229000Y-121508000D01*
X109189000Y-127394000D02*
X109189000Y-125500000D01*
X109189000Y-123420000D02*
X109189000Y-121526000D01*
X109149000Y-127376000D02*
X109149000Y-125500000D01*
X109149000Y-123420000D02*
X109149000Y-121544000D01*
X109109000Y-127356000D02*
X109109000Y-125500000D01*
X109109000Y-123420000D02*
X109109000Y-121564000D01*
X109069000Y-127336000D02*
X109069000Y-125500000D01*
X109069000Y-123420000D02*
X109069000Y-121584000D01*
X109029000Y-127316000D02*
X109029000Y-125500000D01*
X109029000Y-123420000D02*
X109029000Y-121604000D01*
X108989000Y-127294000D02*
X108989000Y-125500000D01*
X108989000Y-123420000D02*
X108989000Y-121626000D01*
X108949000Y-127272000D02*
X108949000Y-125500000D01*
X108949000Y-123420000D02*
X108949000Y-121648000D01*
X108909000Y-127250000D02*
X108909000Y-125500000D01*
X108909000Y-123420000D02*
X108909000Y-121670000D01*
X108869000Y-127226000D02*
X108869000Y-125500000D01*
X108869000Y-123420000D02*
X108869000Y-121694000D01*
X108829000Y-127202000D02*
X108829000Y-125500000D01*
X108829000Y-123420000D02*
X108829000Y-121718000D01*
X108789000Y-127176000D02*
X108789000Y-125500000D01*
X108789000Y-123420000D02*
X108789000Y-121744000D01*
X108749000Y-127150000D02*
X108749000Y-125500000D01*
X108749000Y-123420000D02*
X108749000Y-121770000D01*
X108709000Y-127124000D02*
X108709000Y-125500000D01*
X108709000Y-123420000D02*
X108709000Y-121796000D01*
X108669000Y-127096000D02*
X108669000Y-125500000D01*
X108669000Y-123420000D02*
X108669000Y-121824000D01*
X108629000Y-127067000D02*
X108629000Y-125500000D01*
X108629000Y-123420000D02*
X108629000Y-121853000D01*
X108589000Y-127038000D02*
X108589000Y-125500000D01*
X108589000Y-123420000D02*
X108589000Y-121882000D01*
X108549000Y-127008000D02*
X108549000Y-125500000D01*
X108549000Y-123420000D02*
X108549000Y-121912000D01*
X108509000Y-126976000D02*
X108509000Y-125500000D01*
X108509000Y-123420000D02*
X108509000Y-121944000D01*
X108469000Y-126944000D02*
X108469000Y-125500000D01*
X108469000Y-123420000D02*
X108469000Y-121976000D01*
X108429000Y-126910000D02*
X108429000Y-125500000D01*
X108429000Y-123420000D02*
X108429000Y-122010000D01*
X108389000Y-126876000D02*
X108389000Y-125500000D01*
X108389000Y-123420000D02*
X108389000Y-122044000D01*
X108349000Y-126840000D02*
X108349000Y-125500000D01*
X108349000Y-123420000D02*
X108349000Y-122080000D01*
X108309000Y-126803000D02*
X108309000Y-125500000D01*
X108309000Y-123420000D02*
X108309000Y-122117000D01*
X108269000Y-126765000D02*
X108269000Y-125500000D01*
X108269000Y-123420000D02*
X108269000Y-122155000D01*
X108229000Y-126725000D02*
X108229000Y-122195000D01*
X108189000Y-126684000D02*
X108189000Y-122236000D01*
X108149000Y-126642000D02*
X108149000Y-122278000D01*
X108109000Y-126597000D02*
X108109000Y-122323000D01*
X108069000Y-126552000D02*
X108069000Y-122368000D01*
X108029000Y-126504000D02*
X108029000Y-122416000D01*
X107989000Y-126455000D02*
X107989000Y-122465000D01*
X107949000Y-126404000D02*
X107949000Y-122516000D01*
X107909000Y-126350000D02*
X107909000Y-122570000D01*
X107869000Y-126294000D02*
X107869000Y-122626000D01*
X107829000Y-126236000D02*
X107829000Y-122684000D01*
X107789000Y-126174000D02*
X107789000Y-122746000D01*
X107749000Y-126110000D02*
X107749000Y-122810000D01*
X107709000Y-126041000D02*
X107709000Y-122879000D01*
X107669000Y-125969000D02*
X107669000Y-122951000D01*
X107629000Y-125892000D02*
X107629000Y-123028000D01*
X107589000Y-125810000D02*
X107589000Y-123110000D01*
X107549000Y-125722000D02*
X107549000Y-123198000D01*
X107509000Y-125625000D02*
X107509000Y-123295000D01*
X107469000Y-125519000D02*
X107469000Y-123401000D01*
X107429000Y-125400000D02*
X107429000Y-123520000D01*
X107389000Y-125262000D02*
X107389000Y-123658000D01*
X107349000Y-125093000D02*
X107349000Y-123827000D01*
X107309000Y-124862000D02*
X107309000Y-124058000D01*
X114050241Y-126299000D02*
X113420241Y-126299000D01*
X113735241Y-126614000D02*
X113735241Y-125984000D01*
G04 #@! TO.C,C6*
X95150000Y-126390000D02*
X95150000Y-130030000D01*
X92810000Y-126390000D02*
X92810000Y-130030000D01*
X95150000Y-126390000D02*
X94905000Y-126390000D01*
X93055000Y-126390000D02*
X92810000Y-126390000D01*
X95150000Y-130030000D02*
X94905000Y-130030000D01*
X93055000Y-130030000D02*
X92810000Y-130030000D01*
G04 #@! TO.C,C3*
X119870000Y-120305000D02*
X119870000Y-120550000D01*
X119870000Y-118210000D02*
X119870000Y-118455000D01*
X116230000Y-120305000D02*
X116230000Y-120550000D01*
X116230000Y-118210000D02*
X116230000Y-118455000D01*
X116230000Y-120550000D02*
X119870000Y-120550000D01*
X116230000Y-118210000D02*
X119870000Y-118210000D01*
G04 #@! TO.C,C4*
X89470000Y-115470000D02*
X85830000Y-115470000D01*
X89470000Y-113130000D02*
X85830000Y-113130000D01*
X89470000Y-115470000D02*
X89470000Y-115225000D01*
X89470000Y-113375000D02*
X89470000Y-113130000D01*
X85830000Y-115470000D02*
X85830000Y-115225000D01*
X85830000Y-113375000D02*
X85830000Y-113130000D01*
G04 #@! TO.C,C5*
X90515000Y-130030000D02*
X90270000Y-130030000D01*
X92610000Y-130030000D02*
X92365000Y-130030000D01*
X90515000Y-126390000D02*
X90270000Y-126390000D01*
X92610000Y-126390000D02*
X92365000Y-126390000D01*
X90270000Y-126390000D02*
X90270000Y-130030000D01*
X92610000Y-126390000D02*
X92610000Y-130030000D01*
G04 #@! TO.C,C7*
X118810000Y-125830000D02*
X122450000Y-125830000D01*
X118810000Y-128170000D02*
X122450000Y-128170000D01*
X118810000Y-125830000D02*
X118810000Y-126075000D01*
X118810000Y-127925000D02*
X118810000Y-128170000D01*
X122450000Y-125830000D02*
X122450000Y-126075000D01*
X122450000Y-127925000D02*
X122450000Y-128170000D01*
G04 #@! TO.C,C18*
X119910000Y-110145000D02*
X119910000Y-110390000D01*
X119910000Y-108050000D02*
X119910000Y-108295000D01*
X116270000Y-110145000D02*
X116270000Y-110390000D01*
X116270000Y-108050000D02*
X116270000Y-108295000D01*
X116270000Y-110390000D02*
X119910000Y-110390000D01*
X116270000Y-108050000D02*
X119910000Y-108050000D01*
G04 #@! TO.C,C2*
X118810000Y-130910000D02*
X122450000Y-130910000D01*
X118810000Y-133250000D02*
X122450000Y-133250000D01*
X118810000Y-130910000D02*
X118810000Y-131155000D01*
X118810000Y-133005000D02*
X118810000Y-133250000D01*
X122450000Y-130910000D02*
X122450000Y-131155000D01*
X122450000Y-133005000D02*
X122450000Y-133250000D01*
G04 #@! TO.C,C1*
X119910000Y-115225000D02*
X119910000Y-115470000D01*
X119910000Y-113130000D02*
X119910000Y-113375000D01*
X116270000Y-115225000D02*
X116270000Y-115470000D01*
X116270000Y-113130000D02*
X116270000Y-113375000D01*
X116270000Y-115470000D02*
X119910000Y-115470000D01*
X116270000Y-113130000D02*
X119910000Y-113130000D01*
G04 #@! TO.C,C16*
X122490000Y-138330000D02*
X118850000Y-138330000D01*
X122490000Y-135990000D02*
X118850000Y-135990000D01*
X122490000Y-138330000D02*
X122490000Y-138085000D01*
X122490000Y-136235000D02*
X122490000Y-135990000D01*
X118850000Y-138330000D02*
X118850000Y-138085000D01*
X118850000Y-136235000D02*
X118850000Y-135990000D01*
G04 #@! TO.C,R5*
X78740000Y-133120000D02*
X78740000Y-133890000D01*
X78740000Y-141200000D02*
X78740000Y-140430000D01*
X77370000Y-133890000D02*
X77370000Y-140430000D01*
X80110000Y-133890000D02*
X77370000Y-133890000D01*
X80110000Y-140430000D02*
X80110000Y-133890000D01*
X77370000Y-140430000D02*
X80110000Y-140430000D01*
G04 #@! TO.C,R12*
X130710000Y-117570000D02*
X133450000Y-117570000D01*
X133450000Y-117570000D02*
X133450000Y-111030000D01*
X133450000Y-111030000D02*
X130710000Y-111030000D01*
X130710000Y-111030000D02*
X130710000Y-117570000D01*
X132080000Y-118340000D02*
X132080000Y-117570000D01*
X132080000Y-110260000D02*
X132080000Y-111030000D01*
G04 #@! TO.C,R11*
X129540000Y-118340000D02*
X129540000Y-117570000D01*
X129540000Y-110260000D02*
X129540000Y-111030000D01*
X130910000Y-117570000D02*
X130910000Y-111030000D01*
X128170000Y-117570000D02*
X130910000Y-117570000D01*
X128170000Y-111030000D02*
X128170000Y-117570000D01*
X130910000Y-111030000D02*
X128170000Y-111030000D01*
G04 #@! TO.C,R10*
X115670000Y-133890000D02*
X112930000Y-133890000D01*
X112930000Y-133890000D02*
X112930000Y-140430000D01*
X112930000Y-140430000D02*
X115670000Y-140430000D01*
X115670000Y-140430000D02*
X115670000Y-133890000D01*
X114300000Y-133120000D02*
X114300000Y-133890000D01*
X114300000Y-141200000D02*
X114300000Y-140430000D01*
G04 #@! TO.C,R9*
X124460000Y-110260000D02*
X124460000Y-111030000D01*
X124460000Y-118340000D02*
X124460000Y-117570000D01*
X123090000Y-111030000D02*
X123090000Y-117570000D01*
X125830000Y-111030000D02*
X123090000Y-111030000D01*
X125830000Y-117570000D02*
X125830000Y-111030000D01*
X123090000Y-117570000D02*
X125830000Y-117570000D01*
G04 #@! TO.C,R19*
X67410000Y-116110000D02*
X64670000Y-116110000D01*
X64670000Y-116110000D02*
X64670000Y-122650000D01*
X64670000Y-122650000D02*
X67410000Y-122650000D01*
X67410000Y-122650000D02*
X67410000Y-116110000D01*
X66040000Y-115340000D02*
X66040000Y-116110000D01*
X66040000Y-123420000D02*
X66040000Y-122650000D01*
G04 #@! TO.C,R18*
X66040000Y-133120000D02*
X66040000Y-133890000D01*
X66040000Y-141200000D02*
X66040000Y-140430000D01*
X64670000Y-133890000D02*
X64670000Y-140430000D01*
X67410000Y-133890000D02*
X64670000Y-133890000D01*
X67410000Y-140430000D02*
X67410000Y-133890000D01*
X64670000Y-140430000D02*
X67410000Y-140430000D01*
G04 #@! TO.C,R8*
X125630000Y-117570000D02*
X128370000Y-117570000D01*
X128370000Y-117570000D02*
X128370000Y-111030000D01*
X128370000Y-111030000D02*
X125630000Y-111030000D01*
X125630000Y-111030000D02*
X125630000Y-117570000D01*
X127000000Y-118340000D02*
X127000000Y-117570000D01*
X127000000Y-110260000D02*
X127000000Y-111030000D01*
G04 #@! TO.C,R6*
X91440000Y-133120000D02*
X91440000Y-133890000D01*
X91440000Y-141200000D02*
X91440000Y-140430000D01*
X90070000Y-133890000D02*
X90070000Y-140430000D01*
X92810000Y-133890000D02*
X90070000Y-133890000D01*
X92810000Y-140430000D02*
X92810000Y-133890000D01*
X90070000Y-140430000D02*
X92810000Y-140430000D01*
G04 #@! TO.C,R3*
X72290000Y-140430000D02*
X75030000Y-140430000D01*
X75030000Y-140430000D02*
X75030000Y-133890000D01*
X75030000Y-133890000D02*
X72290000Y-133890000D01*
X72290000Y-133890000D02*
X72290000Y-140430000D01*
X73660000Y-141200000D02*
X73660000Y-140430000D01*
X73660000Y-133120000D02*
X73660000Y-133890000D01*
G04 #@! TO.C,R2*
X68580000Y-115340000D02*
X68580000Y-116110000D01*
X68580000Y-123420000D02*
X68580000Y-122650000D01*
X67210000Y-116110000D02*
X67210000Y-122650000D01*
X69950000Y-116110000D02*
X67210000Y-116110000D01*
X69950000Y-122650000D02*
X69950000Y-116110000D01*
X67210000Y-122650000D02*
X69950000Y-122650000D01*
G04 #@! TO.C,R1*
X83090000Y-105310000D02*
X83090000Y-108050000D01*
X83090000Y-108050000D02*
X89630000Y-108050000D01*
X89630000Y-108050000D02*
X89630000Y-105310000D01*
X89630000Y-105310000D02*
X83090000Y-105310000D01*
X82320000Y-106680000D02*
X83090000Y-106680000D01*
X90400000Y-106680000D02*
X89630000Y-106680000D01*
G04 #@! TO.C,R13*
X134620000Y-110260000D02*
X134620000Y-111030000D01*
X134620000Y-118340000D02*
X134620000Y-117570000D01*
X133250000Y-111030000D02*
X133250000Y-117570000D01*
X135990000Y-111030000D02*
X133250000Y-111030000D01*
X135990000Y-117570000D02*
X135990000Y-111030000D01*
X133250000Y-117570000D02*
X135990000Y-117570000D01*
G04 #@! TO.C,R14*
X132810000Y-143610000D02*
X132810000Y-140870000D01*
X132810000Y-140870000D02*
X126270000Y-140870000D01*
X126270000Y-140870000D02*
X126270000Y-143610000D01*
X126270000Y-143610000D02*
X132810000Y-143610000D01*
X133580000Y-142240000D02*
X132810000Y-142240000D01*
X125500000Y-142240000D02*
X126270000Y-142240000D01*
G04 #@! TO.C,R15*
X111760000Y-141200000D02*
X111760000Y-140430000D01*
X111760000Y-133120000D02*
X111760000Y-133890000D01*
X113130000Y-140430000D02*
X113130000Y-133890000D01*
X110390000Y-140430000D02*
X113130000Y-140430000D01*
X110390000Y-133890000D02*
X110390000Y-140430000D01*
X113130000Y-133890000D02*
X110390000Y-133890000D01*
G04 #@! TO.C,R16*
X72490000Y-133890000D02*
X69750000Y-133890000D01*
X69750000Y-133890000D02*
X69750000Y-140430000D01*
X69750000Y-140430000D02*
X72490000Y-140430000D01*
X72490000Y-140430000D02*
X72490000Y-133890000D01*
X71120000Y-133120000D02*
X71120000Y-133890000D01*
X71120000Y-141200000D02*
X71120000Y-140430000D01*
G04 #@! TO.C,R17*
X68580000Y-133120000D02*
X68580000Y-133890000D01*
X68580000Y-141200000D02*
X68580000Y-140430000D01*
X67210000Y-133890000D02*
X67210000Y-140430000D01*
X69950000Y-133890000D02*
X67210000Y-133890000D01*
X69950000Y-140430000D02*
X69950000Y-133890000D01*
X67210000Y-140430000D02*
X69950000Y-140430000D01*
G04 #@! TO.C,R4*
X74830000Y-140430000D02*
X77570000Y-140430000D01*
X77570000Y-140430000D02*
X77570000Y-133890000D01*
X77570000Y-133890000D02*
X74830000Y-133890000D01*
X74830000Y-133890000D02*
X74830000Y-140430000D01*
X76200000Y-141200000D02*
X76200000Y-140430000D01*
X76200000Y-133120000D02*
X76200000Y-133890000D01*
G04 #@! TO.C,R7*
X93980000Y-133120000D02*
X93980000Y-133890000D01*
X93980000Y-141200000D02*
X93980000Y-140430000D01*
X92610000Y-133890000D02*
X92610000Y-140430000D01*
X95350000Y-133890000D02*
X92610000Y-133890000D01*
X95350000Y-140430000D02*
X95350000Y-133890000D01*
X92610000Y-140430000D02*
X95350000Y-140430000D01*
G04 #@! TO.C,D1*
X128690000Y-136040000D02*
X128690000Y-138280000D01*
X128690000Y-138280000D02*
X132930000Y-138280000D01*
X132930000Y-138280000D02*
X132930000Y-136040000D01*
X132930000Y-136040000D02*
X128690000Y-136040000D01*
X128040000Y-137160000D02*
X128690000Y-137160000D01*
X133580000Y-137160000D02*
X132930000Y-137160000D01*
X129410000Y-136040000D02*
X129410000Y-138280000D01*
X129530000Y-136040000D02*
X129530000Y-138280000D01*
X129290000Y-136040000D02*
X129290000Y-138280000D01*
G04 #@! TO.C,U1*
X103870000Y-133290000D02*
G75*
G02X101870000Y-133290000I-1000000J0D01*
G01*
X101870000Y-133290000D02*
X100220000Y-133290000D01*
X100220000Y-133290000D02*
X100220000Y-143570000D01*
X100220000Y-143570000D02*
X105520000Y-143570000D01*
X105520000Y-143570000D02*
X105520000Y-133290000D01*
X105520000Y-133290000D02*
X103870000Y-133290000D01*
X97730000Y-133230000D02*
X97730000Y-143630000D01*
X97730000Y-143630000D02*
X108010000Y-143630000D01*
X108010000Y-143630000D02*
X108010000Y-133230000D01*
X108010000Y-133230000D02*
X97730000Y-133230000D01*
G04 #@! TO.C,J1*
X85030000Y-128330000D02*
X85030000Y-127000000D01*
X86360000Y-128330000D02*
X85030000Y-128330000D01*
X87630000Y-128330000D02*
X87630000Y-125670000D01*
X87630000Y-125670000D02*
X90230000Y-125670000D01*
X87630000Y-128330000D02*
X90230000Y-128330000D01*
X90230000Y-128330000D02*
X90230000Y-125670000D01*
G04 #@! TO.C,J6*
X105470000Y-128330000D02*
X105470000Y-125670000D01*
X97790000Y-128330000D02*
X105470000Y-128330000D01*
X97790000Y-125670000D02*
X105470000Y-125670000D01*
X97790000Y-128330000D02*
X97790000Y-125670000D01*
X96520000Y-128330000D02*
X95190000Y-128330000D01*
X95190000Y-128330000D02*
X95190000Y-127000000D01*
G04 #@! TO.C,J8*
X105470000Y-112970000D02*
X105470000Y-114300000D01*
X104140000Y-112970000D02*
X105470000Y-112970000D01*
X102870000Y-112970000D02*
X102870000Y-115630000D01*
X102870000Y-115630000D02*
X92650000Y-115630000D01*
X102870000Y-112970000D02*
X92650000Y-112970000D01*
X92650000Y-112970000D02*
X92650000Y-115630000D01*
G04 #@! TO.C,J5*
X85150000Y-128330000D02*
X85150000Y-125670000D01*
X74930000Y-128330000D02*
X85150000Y-128330000D01*
X74930000Y-125670000D02*
X85150000Y-125670000D01*
X74930000Y-128330000D02*
X74930000Y-125670000D01*
X73660000Y-128330000D02*
X72330000Y-128330000D01*
X72330000Y-128330000D02*
X72330000Y-127000000D01*
G04 #@! TO.C,J7*
X69790000Y-112970000D02*
X69790000Y-115630000D01*
X82550000Y-112970000D02*
X69790000Y-112970000D01*
X82550000Y-115630000D02*
X69790000Y-115630000D01*
X82550000Y-112970000D02*
X82550000Y-115630000D01*
X83820000Y-112970000D02*
X85150000Y-112970000D01*
X85150000Y-112970000D02*
X85150000Y-114300000D01*
G04 #@! TO.C,Y1*
X87615000Y-133860000D02*
X87615000Y-140260000D01*
X82565000Y-133860000D02*
X82565000Y-140260000D01*
X82565000Y-133860000D02*
G75*
G02X87615000Y-133860000I2525000J0D01*
G01*
X82565000Y-140260000D02*
G75*
G03X87615000Y-140260000I2525000J0D01*
G01*
G04 #@! TO.C,U2*
X69790000Y-119650000D02*
G75*
G02X69790000Y-121650000I0J-1000000D01*
G01*
X69790000Y-121650000D02*
X69790000Y-123300000D01*
X69790000Y-123300000D02*
X105470000Y-123300000D01*
X105470000Y-123300000D02*
X105470000Y-118000000D01*
X105470000Y-118000000D02*
X69790000Y-118000000D01*
X69790000Y-118000000D02*
X69790000Y-119650000D01*
X69730000Y-125790000D02*
X105530000Y-125790000D01*
X105530000Y-125790000D02*
X105530000Y-115510000D01*
X105530000Y-115510000D02*
X69730000Y-115510000D01*
X69730000Y-115510000D02*
X69730000Y-125790000D01*
G04 #@! TO.C,U3*
X131810000Y-123130000D02*
G75*
G02X129810000Y-123130000I-1000000J0D01*
G01*
X129810000Y-123130000D02*
X128160000Y-123130000D01*
X128160000Y-123130000D02*
X128160000Y-133410000D01*
X128160000Y-133410000D02*
X133460000Y-133410000D01*
X133460000Y-133410000D02*
X133460000Y-123130000D01*
X133460000Y-123130000D02*
X131810000Y-123130000D01*
X125670000Y-123070000D02*
X125670000Y-133470000D01*
X125670000Y-133470000D02*
X135950000Y-133470000D01*
X135950000Y-133470000D02*
X135950000Y-123070000D01*
X135950000Y-123070000D02*
X125670000Y-123070000D01*
G04 #@! TO.C,C10*
D11*
X109867142Y-119057142D02*
X109819523Y-119104761D01*
X109676666Y-119152380D01*
X109581428Y-119152380D01*
X109438571Y-119104761D01*
X109343333Y-119009523D01*
X109295714Y-118914285D01*
X109248095Y-118723809D01*
X109248095Y-118580952D01*
X109295714Y-118390476D01*
X109343333Y-118295238D01*
X109438571Y-118200000D01*
X109581428Y-118152380D01*
X109676666Y-118152380D01*
X109819523Y-118200000D01*
X109867142Y-118247619D01*
X110819523Y-119152380D02*
X110248095Y-119152380D01*
X110533809Y-119152380D02*
X110533809Y-118152380D01*
X110438571Y-118295238D01*
X110343333Y-118390476D01*
X110248095Y-118438095D01*
X111438571Y-118152380D02*
X111533809Y-118152380D01*
X111629047Y-118200000D01*
X111676666Y-118247619D01*
X111724285Y-118342857D01*
X111771904Y-118533333D01*
X111771904Y-118771428D01*
X111724285Y-118961904D01*
X111676666Y-119057142D01*
X111629047Y-119104761D01*
X111533809Y-119152380D01*
X111438571Y-119152380D01*
X111343333Y-119104761D01*
X111295714Y-119057142D01*
X111248095Y-118961904D01*
X111200476Y-118771428D01*
X111200476Y-118533333D01*
X111248095Y-118342857D01*
X111295714Y-118247619D01*
X111343333Y-118200000D01*
X111438571Y-118152380D01*
X108390952Y-109447619D02*
X108438571Y-109400000D01*
X108533809Y-109352380D01*
X108771904Y-109352380D01*
X108867142Y-109400000D01*
X108914761Y-109447619D01*
X108962380Y-109542857D01*
X108962380Y-109638095D01*
X108914761Y-109780952D01*
X108343333Y-110352380D01*
X108962380Y-110352380D01*
X109343333Y-109447619D02*
X109390952Y-109400000D01*
X109486190Y-109352380D01*
X109724285Y-109352380D01*
X109819523Y-109400000D01*
X109867142Y-109447619D01*
X109914761Y-109542857D01*
X109914761Y-109638095D01*
X109867142Y-109780952D01*
X109295714Y-110352380D01*
X109914761Y-110352380D01*
X110533809Y-109352380D02*
X110629047Y-109352380D01*
X110724285Y-109400000D01*
X110771904Y-109447619D01*
X110819523Y-109542857D01*
X110867142Y-109733333D01*
X110867142Y-109971428D01*
X110819523Y-110161904D01*
X110771904Y-110257142D01*
X110724285Y-110304761D01*
X110629047Y-110352380D01*
X110533809Y-110352380D01*
X110438571Y-110304761D01*
X110390952Y-110257142D01*
X110343333Y-110161904D01*
X110295714Y-109971428D01*
X110295714Y-109733333D01*
X110343333Y-109542857D01*
X110390952Y-109447619D01*
X110438571Y-109400000D01*
X110533809Y-109352380D01*
X111724285Y-109685714D02*
X111724285Y-110352380D01*
X111295714Y-109685714D02*
X111295714Y-110209523D01*
X111343333Y-110304761D01*
X111438571Y-110352380D01*
X111581428Y-110352380D01*
X111676666Y-110304761D01*
X111724285Y-110257142D01*
X112533809Y-109828571D02*
X112200476Y-109828571D01*
X112200476Y-110352380D02*
X112200476Y-109352380D01*
X112676666Y-109352380D01*
G04 #@! TO.C,C17*
X109907142Y-129217142D02*
X109859523Y-129264761D01*
X109716666Y-129312380D01*
X109621428Y-129312380D01*
X109478571Y-129264761D01*
X109383333Y-129169523D01*
X109335714Y-129074285D01*
X109288095Y-128883809D01*
X109288095Y-128740952D01*
X109335714Y-128550476D01*
X109383333Y-128455238D01*
X109478571Y-128360000D01*
X109621428Y-128312380D01*
X109716666Y-128312380D01*
X109859523Y-128360000D01*
X109907142Y-128407619D01*
X110859523Y-129312380D02*
X110288095Y-129312380D01*
X110573809Y-129312380D02*
X110573809Y-128312380D01*
X110478571Y-128455238D01*
X110383333Y-128550476D01*
X110288095Y-128598095D01*
X111192857Y-128312380D02*
X111859523Y-128312380D01*
X111430952Y-129312380D01*
X109478571Y-120512380D02*
X108907142Y-120512380D01*
X109192857Y-120512380D02*
X109192857Y-119512380D01*
X109097619Y-119655238D01*
X109002380Y-119750476D01*
X108907142Y-119798095D01*
X110097619Y-119512380D02*
X110192857Y-119512380D01*
X110288095Y-119560000D01*
X110335714Y-119607619D01*
X110383333Y-119702857D01*
X110430952Y-119893333D01*
X110430952Y-120131428D01*
X110383333Y-120321904D01*
X110335714Y-120417142D01*
X110288095Y-120464761D01*
X110192857Y-120512380D01*
X110097619Y-120512380D01*
X110002380Y-120464761D01*
X109954761Y-120417142D01*
X109907142Y-120321904D01*
X109859523Y-120131428D01*
X109859523Y-119893333D01*
X109907142Y-119702857D01*
X109954761Y-119607619D01*
X110002380Y-119560000D01*
X110097619Y-119512380D01*
X111288095Y-119845714D02*
X111288095Y-120512380D01*
X110859523Y-119845714D02*
X110859523Y-120369523D01*
X110907142Y-120464761D01*
X111002380Y-120512380D01*
X111145238Y-120512380D01*
X111240476Y-120464761D01*
X111288095Y-120417142D01*
X112097619Y-119988571D02*
X111764285Y-119988571D01*
X111764285Y-120512380D02*
X111764285Y-119512380D01*
X112240476Y-119512380D01*
G04 #@! TO.C,C6*
X94242142Y-130357619D02*
X94289761Y-130310000D01*
X94385000Y-130262380D01*
X94623095Y-130262380D01*
X94718333Y-130310000D01*
X94765952Y-130357619D01*
X94813571Y-130452857D01*
X94813571Y-130548095D01*
X94765952Y-130690952D01*
X94194523Y-131262380D01*
X94813571Y-131262380D01*
X95194523Y-130357619D02*
X95242142Y-130310000D01*
X95337380Y-130262380D01*
X95575476Y-130262380D01*
X95670714Y-130310000D01*
X95718333Y-130357619D01*
X95765952Y-130452857D01*
X95765952Y-130548095D01*
X95718333Y-130690952D01*
X95146904Y-131262380D01*
X95765952Y-131262380D01*
X96194523Y-130595714D02*
X96194523Y-131595714D01*
X96194523Y-130643333D02*
X96289761Y-130595714D01*
X96480238Y-130595714D01*
X96575476Y-130643333D01*
X96623095Y-130690952D01*
X96670714Y-130786190D01*
X96670714Y-131071904D01*
X96623095Y-131167142D01*
X96575476Y-131214761D01*
X96480238Y-131262380D01*
X96289761Y-131262380D01*
X96194523Y-131214761D01*
X97432619Y-130738571D02*
X97099285Y-130738571D01*
X97099285Y-131262380D02*
X97099285Y-130262380D01*
X97575476Y-130262380D01*
G04 #@! TO.C,C3*
X117454761Y-121737380D02*
X116883333Y-121737380D01*
X117169047Y-121737380D02*
X117169047Y-120737380D01*
X117073809Y-120880238D01*
X116978571Y-120975476D01*
X116883333Y-121023095D01*
X117883333Y-121070714D02*
X117883333Y-121737380D01*
X117883333Y-121165952D02*
X117930952Y-121118333D01*
X118026190Y-121070714D01*
X118169047Y-121070714D01*
X118264285Y-121118333D01*
X118311904Y-121213571D01*
X118311904Y-121737380D01*
X119121428Y-121213571D02*
X118788095Y-121213571D01*
X118788095Y-121737380D02*
X118788095Y-120737380D01*
X119264285Y-120737380D01*
G04 #@! TO.C,C4*
X86102380Y-112847380D02*
X85530952Y-112847380D01*
X85816666Y-112847380D02*
X85816666Y-111847380D01*
X85721428Y-111990238D01*
X85626190Y-112085476D01*
X85530952Y-112133095D01*
X86721428Y-111847380D02*
X86816666Y-111847380D01*
X86911904Y-111895000D01*
X86959523Y-111942619D01*
X87007142Y-112037857D01*
X87054761Y-112228333D01*
X87054761Y-112466428D01*
X87007142Y-112656904D01*
X86959523Y-112752142D01*
X86911904Y-112799761D01*
X86816666Y-112847380D01*
X86721428Y-112847380D01*
X86626190Y-112799761D01*
X86578571Y-112752142D01*
X86530952Y-112656904D01*
X86483333Y-112466428D01*
X86483333Y-112228333D01*
X86530952Y-112037857D01*
X86578571Y-111942619D01*
X86626190Y-111895000D01*
X86721428Y-111847380D01*
X87673809Y-111847380D02*
X87769047Y-111847380D01*
X87864285Y-111895000D01*
X87911904Y-111942619D01*
X87959523Y-112037857D01*
X88007142Y-112228333D01*
X88007142Y-112466428D01*
X87959523Y-112656904D01*
X87911904Y-112752142D01*
X87864285Y-112799761D01*
X87769047Y-112847380D01*
X87673809Y-112847380D01*
X87578571Y-112799761D01*
X87530952Y-112752142D01*
X87483333Y-112656904D01*
X87435714Y-112466428D01*
X87435714Y-112228333D01*
X87483333Y-112037857D01*
X87530952Y-111942619D01*
X87578571Y-111895000D01*
X87673809Y-111847380D01*
X88435714Y-112180714D02*
X88435714Y-112847380D01*
X88435714Y-112275952D02*
X88483333Y-112228333D01*
X88578571Y-112180714D01*
X88721428Y-112180714D01*
X88816666Y-112228333D01*
X88864285Y-112323571D01*
X88864285Y-112847380D01*
X89673809Y-112323571D02*
X89340476Y-112323571D01*
X89340476Y-112847380D02*
X89340476Y-111847380D01*
X89816666Y-111847380D01*
G04 #@! TO.C,C5*
X90432142Y-130357619D02*
X90479761Y-130310000D01*
X90575000Y-130262380D01*
X90813095Y-130262380D01*
X90908333Y-130310000D01*
X90955952Y-130357619D01*
X91003571Y-130452857D01*
X91003571Y-130548095D01*
X90955952Y-130690952D01*
X90384523Y-131262380D01*
X91003571Y-131262380D01*
X91384523Y-130357619D02*
X91432142Y-130310000D01*
X91527380Y-130262380D01*
X91765476Y-130262380D01*
X91860714Y-130310000D01*
X91908333Y-130357619D01*
X91955952Y-130452857D01*
X91955952Y-130548095D01*
X91908333Y-130690952D01*
X91336904Y-131262380D01*
X91955952Y-131262380D01*
X92384523Y-130595714D02*
X92384523Y-131595714D01*
X92384523Y-130643333D02*
X92479761Y-130595714D01*
X92670238Y-130595714D01*
X92765476Y-130643333D01*
X92813095Y-130690952D01*
X92860714Y-130786190D01*
X92860714Y-131071904D01*
X92813095Y-131167142D01*
X92765476Y-131214761D01*
X92670238Y-131262380D01*
X92479761Y-131262380D01*
X92384523Y-131214761D01*
X93622619Y-130738571D02*
X93289285Y-130738571D01*
X93289285Y-131262380D02*
X93289285Y-130262380D01*
X93765476Y-130262380D01*
G04 #@! TO.C,C7*
X118510952Y-128452619D02*
X118558571Y-128405000D01*
X118653809Y-128357380D01*
X118891904Y-128357380D01*
X118987142Y-128405000D01*
X119034761Y-128452619D01*
X119082380Y-128547857D01*
X119082380Y-128643095D01*
X119034761Y-128785952D01*
X118463333Y-129357380D01*
X119082380Y-129357380D01*
X119463333Y-128452619D02*
X119510952Y-128405000D01*
X119606190Y-128357380D01*
X119844285Y-128357380D01*
X119939523Y-128405000D01*
X119987142Y-128452619D01*
X120034761Y-128547857D01*
X120034761Y-128643095D01*
X119987142Y-128785952D01*
X119415714Y-129357380D01*
X120034761Y-129357380D01*
X120653809Y-128357380D02*
X120749047Y-128357380D01*
X120844285Y-128405000D01*
X120891904Y-128452619D01*
X120939523Y-128547857D01*
X120987142Y-128738333D01*
X120987142Y-128976428D01*
X120939523Y-129166904D01*
X120891904Y-129262142D01*
X120844285Y-129309761D01*
X120749047Y-129357380D01*
X120653809Y-129357380D01*
X120558571Y-129309761D01*
X120510952Y-129262142D01*
X120463333Y-129166904D01*
X120415714Y-128976428D01*
X120415714Y-128738333D01*
X120463333Y-128547857D01*
X120510952Y-128452619D01*
X120558571Y-128405000D01*
X120653809Y-128357380D01*
X121415714Y-128690714D02*
X121415714Y-129357380D01*
X121415714Y-128785952D02*
X121463333Y-128738333D01*
X121558571Y-128690714D01*
X121701428Y-128690714D01*
X121796666Y-128738333D01*
X121844285Y-128833571D01*
X121844285Y-129357380D01*
X122653809Y-128833571D02*
X122320476Y-128833571D01*
X122320476Y-129357380D02*
X122320476Y-128357380D01*
X122796666Y-128357380D01*
G04 #@! TO.C,C18*
X116542380Y-111577380D02*
X115970952Y-111577380D01*
X116256666Y-111577380D02*
X116256666Y-110577380D01*
X116161428Y-110720238D01*
X116066190Y-110815476D01*
X115970952Y-110863095D01*
X117161428Y-110577380D02*
X117256666Y-110577380D01*
X117351904Y-110625000D01*
X117399523Y-110672619D01*
X117447142Y-110767857D01*
X117494761Y-110958333D01*
X117494761Y-111196428D01*
X117447142Y-111386904D01*
X117399523Y-111482142D01*
X117351904Y-111529761D01*
X117256666Y-111577380D01*
X117161428Y-111577380D01*
X117066190Y-111529761D01*
X117018571Y-111482142D01*
X116970952Y-111386904D01*
X116923333Y-111196428D01*
X116923333Y-110958333D01*
X116970952Y-110767857D01*
X117018571Y-110672619D01*
X117066190Y-110625000D01*
X117161428Y-110577380D01*
X118113809Y-110577380D02*
X118209047Y-110577380D01*
X118304285Y-110625000D01*
X118351904Y-110672619D01*
X118399523Y-110767857D01*
X118447142Y-110958333D01*
X118447142Y-111196428D01*
X118399523Y-111386904D01*
X118351904Y-111482142D01*
X118304285Y-111529761D01*
X118209047Y-111577380D01*
X118113809Y-111577380D01*
X118018571Y-111529761D01*
X117970952Y-111482142D01*
X117923333Y-111386904D01*
X117875714Y-111196428D01*
X117875714Y-110958333D01*
X117923333Y-110767857D01*
X117970952Y-110672619D01*
X118018571Y-110625000D01*
X118113809Y-110577380D01*
X118875714Y-110910714D02*
X118875714Y-111577380D01*
X118875714Y-111005952D02*
X118923333Y-110958333D01*
X119018571Y-110910714D01*
X119161428Y-110910714D01*
X119256666Y-110958333D01*
X119304285Y-111053571D01*
X119304285Y-111577380D01*
X120113809Y-111053571D02*
X119780476Y-111053571D01*
X119780476Y-111577380D02*
X119780476Y-110577380D01*
X120256666Y-110577380D01*
G04 #@! TO.C,C2*
X118510952Y-133532619D02*
X118558571Y-133485000D01*
X118653809Y-133437380D01*
X118891904Y-133437380D01*
X118987142Y-133485000D01*
X119034761Y-133532619D01*
X119082380Y-133627857D01*
X119082380Y-133723095D01*
X119034761Y-133865952D01*
X118463333Y-134437380D01*
X119082380Y-134437380D01*
X119463333Y-133532619D02*
X119510952Y-133485000D01*
X119606190Y-133437380D01*
X119844285Y-133437380D01*
X119939523Y-133485000D01*
X119987142Y-133532619D01*
X120034761Y-133627857D01*
X120034761Y-133723095D01*
X119987142Y-133865952D01*
X119415714Y-134437380D01*
X120034761Y-134437380D01*
X120653809Y-133437380D02*
X120749047Y-133437380D01*
X120844285Y-133485000D01*
X120891904Y-133532619D01*
X120939523Y-133627857D01*
X120987142Y-133818333D01*
X120987142Y-134056428D01*
X120939523Y-134246904D01*
X120891904Y-134342142D01*
X120844285Y-134389761D01*
X120749047Y-134437380D01*
X120653809Y-134437380D01*
X120558571Y-134389761D01*
X120510952Y-134342142D01*
X120463333Y-134246904D01*
X120415714Y-134056428D01*
X120415714Y-133818333D01*
X120463333Y-133627857D01*
X120510952Y-133532619D01*
X120558571Y-133485000D01*
X120653809Y-133437380D01*
X121415714Y-133770714D02*
X121415714Y-134437380D01*
X121415714Y-133865952D02*
X121463333Y-133818333D01*
X121558571Y-133770714D01*
X121701428Y-133770714D01*
X121796666Y-133818333D01*
X121844285Y-133913571D01*
X121844285Y-134437380D01*
X122653809Y-133913571D02*
X122320476Y-133913571D01*
X122320476Y-134437380D02*
X122320476Y-133437380D01*
X122796666Y-133437380D01*
G04 #@! TO.C,C1*
X115970952Y-115752619D02*
X116018571Y-115705000D01*
X116113809Y-115657380D01*
X116351904Y-115657380D01*
X116447142Y-115705000D01*
X116494761Y-115752619D01*
X116542380Y-115847857D01*
X116542380Y-115943095D01*
X116494761Y-116085952D01*
X115923333Y-116657380D01*
X116542380Y-116657380D01*
X116923333Y-115752619D02*
X116970952Y-115705000D01*
X117066190Y-115657380D01*
X117304285Y-115657380D01*
X117399523Y-115705000D01*
X117447142Y-115752619D01*
X117494761Y-115847857D01*
X117494761Y-115943095D01*
X117447142Y-116085952D01*
X116875714Y-116657380D01*
X117494761Y-116657380D01*
X118113809Y-115657380D02*
X118209047Y-115657380D01*
X118304285Y-115705000D01*
X118351904Y-115752619D01*
X118399523Y-115847857D01*
X118447142Y-116038333D01*
X118447142Y-116276428D01*
X118399523Y-116466904D01*
X118351904Y-116562142D01*
X118304285Y-116609761D01*
X118209047Y-116657380D01*
X118113809Y-116657380D01*
X118018571Y-116609761D01*
X117970952Y-116562142D01*
X117923333Y-116466904D01*
X117875714Y-116276428D01*
X117875714Y-116038333D01*
X117923333Y-115847857D01*
X117970952Y-115752619D01*
X118018571Y-115705000D01*
X118113809Y-115657380D01*
X118875714Y-115990714D02*
X118875714Y-116657380D01*
X118875714Y-116085952D02*
X118923333Y-116038333D01*
X119018571Y-115990714D01*
X119161428Y-115990714D01*
X119256666Y-116038333D01*
X119304285Y-116133571D01*
X119304285Y-116657380D01*
X120113809Y-116133571D02*
X119780476Y-116133571D01*
X119780476Y-116657380D02*
X119780476Y-115657380D01*
X120256666Y-115657380D01*
G04 #@! TO.C,C16*
X119102380Y-139517380D02*
X118530952Y-139517380D01*
X118816666Y-139517380D02*
X118816666Y-138517380D01*
X118721428Y-138660238D01*
X118626190Y-138755476D01*
X118530952Y-138803095D01*
X119721428Y-138517380D02*
X119816666Y-138517380D01*
X119911904Y-138565000D01*
X119959523Y-138612619D01*
X120007142Y-138707857D01*
X120054761Y-138898333D01*
X120054761Y-139136428D01*
X120007142Y-139326904D01*
X119959523Y-139422142D01*
X119911904Y-139469761D01*
X119816666Y-139517380D01*
X119721428Y-139517380D01*
X119626190Y-139469761D01*
X119578571Y-139422142D01*
X119530952Y-139326904D01*
X119483333Y-139136428D01*
X119483333Y-138898333D01*
X119530952Y-138707857D01*
X119578571Y-138612619D01*
X119626190Y-138565000D01*
X119721428Y-138517380D01*
X120673809Y-138517380D02*
X120769047Y-138517380D01*
X120864285Y-138565000D01*
X120911904Y-138612619D01*
X120959523Y-138707857D01*
X121007142Y-138898333D01*
X121007142Y-139136428D01*
X120959523Y-139326904D01*
X120911904Y-139422142D01*
X120864285Y-139469761D01*
X120769047Y-139517380D01*
X120673809Y-139517380D01*
X120578571Y-139469761D01*
X120530952Y-139422142D01*
X120483333Y-139326904D01*
X120435714Y-139136428D01*
X120435714Y-138898333D01*
X120483333Y-138707857D01*
X120530952Y-138612619D01*
X120578571Y-138565000D01*
X120673809Y-138517380D01*
X121435714Y-138850714D02*
X121435714Y-139517380D01*
X121435714Y-138945952D02*
X121483333Y-138898333D01*
X121578571Y-138850714D01*
X121721428Y-138850714D01*
X121816666Y-138898333D01*
X121864285Y-138993571D01*
X121864285Y-139517380D01*
X122673809Y-138993571D02*
X122340476Y-138993571D01*
X122340476Y-139517380D02*
X122340476Y-138517380D01*
X122816666Y-138517380D01*
G04 #@! TO.C,R5*
X78557380Y-137326666D02*
X78081190Y-137660000D01*
X78557380Y-137898095D02*
X77557380Y-137898095D01*
X77557380Y-137517142D01*
X77605000Y-137421904D01*
X77652619Y-137374285D01*
X77747857Y-137326666D01*
X77890714Y-137326666D01*
X77985952Y-137374285D01*
X78033571Y-137421904D01*
X78081190Y-137517142D01*
X78081190Y-137898095D01*
X77557380Y-136421904D02*
X77557380Y-136898095D01*
X78033571Y-136945714D01*
X77985952Y-136898095D01*
X77938333Y-136802857D01*
X77938333Y-136564761D01*
X77985952Y-136469523D01*
X78033571Y-136421904D01*
X78128809Y-136374285D01*
X78366904Y-136374285D01*
X78462142Y-136421904D01*
X78509761Y-136469523D01*
X78557380Y-136564761D01*
X78557380Y-136802857D01*
X78509761Y-136898095D01*
X78462142Y-136945714D01*
X78922619Y-138398095D02*
X78875000Y-138350476D01*
X78827380Y-138255238D01*
X78827380Y-138017142D01*
X78875000Y-137921904D01*
X78922619Y-137874285D01*
X79017857Y-137826666D01*
X79113095Y-137826666D01*
X79255952Y-137874285D01*
X79827380Y-138445714D01*
X79827380Y-137826666D01*
X78922619Y-137445714D02*
X78875000Y-137398095D01*
X78827380Y-137302857D01*
X78827380Y-137064761D01*
X78875000Y-136969523D01*
X78922619Y-136921904D01*
X79017857Y-136874285D01*
X79113095Y-136874285D01*
X79255952Y-136921904D01*
X79827380Y-137493333D01*
X79827380Y-136874285D01*
X78827380Y-136255238D02*
X78827380Y-136160000D01*
X78875000Y-136064761D01*
X78922619Y-136017142D01*
X79017857Y-135969523D01*
X79208333Y-135921904D01*
X79446428Y-135921904D01*
X79636904Y-135969523D01*
X79732142Y-136017142D01*
X79779761Y-136064761D01*
X79827380Y-136160000D01*
X79827380Y-136255238D01*
X79779761Y-136350476D01*
X79732142Y-136398095D01*
X79636904Y-136445714D01*
X79446428Y-136493333D01*
X79208333Y-136493333D01*
X79017857Y-136445714D01*
X78922619Y-136398095D01*
X78875000Y-136350476D01*
X78827380Y-136255238D01*
G04 #@! TO.C,R12*
X131897380Y-114942857D02*
X131421190Y-115276190D01*
X131897380Y-115514285D02*
X130897380Y-115514285D01*
X130897380Y-115133333D01*
X130945000Y-115038095D01*
X130992619Y-114990476D01*
X131087857Y-114942857D01*
X131230714Y-114942857D01*
X131325952Y-114990476D01*
X131373571Y-115038095D01*
X131421190Y-115133333D01*
X131421190Y-115514285D01*
X131897380Y-113990476D02*
X131897380Y-114561904D01*
X131897380Y-114276190D02*
X130897380Y-114276190D01*
X131040238Y-114371428D01*
X131135476Y-114466666D01*
X131183095Y-114561904D01*
X130992619Y-113609523D02*
X130945000Y-113561904D01*
X130897380Y-113466666D01*
X130897380Y-113228571D01*
X130945000Y-113133333D01*
X130992619Y-113085714D01*
X131087857Y-113038095D01*
X131183095Y-113038095D01*
X131325952Y-113085714D01*
X131897380Y-113657142D01*
X131897380Y-113038095D01*
X132167380Y-115061904D02*
X132167380Y-115252380D01*
X132215000Y-115347619D01*
X132262619Y-115395238D01*
X132405476Y-115490476D01*
X132595952Y-115538095D01*
X132976904Y-115538095D01*
X133072142Y-115490476D01*
X133119761Y-115442857D01*
X133167380Y-115347619D01*
X133167380Y-115157142D01*
X133119761Y-115061904D01*
X133072142Y-115014285D01*
X132976904Y-114966666D01*
X132738809Y-114966666D01*
X132643571Y-115014285D01*
X132595952Y-115061904D01*
X132548333Y-115157142D01*
X132548333Y-115347619D01*
X132595952Y-115442857D01*
X132643571Y-115490476D01*
X132738809Y-115538095D01*
X132595952Y-114395238D02*
X132548333Y-114490476D01*
X132500714Y-114538095D01*
X132405476Y-114585714D01*
X132357857Y-114585714D01*
X132262619Y-114538095D01*
X132215000Y-114490476D01*
X132167380Y-114395238D01*
X132167380Y-114204761D01*
X132215000Y-114109523D01*
X132262619Y-114061904D01*
X132357857Y-114014285D01*
X132405476Y-114014285D01*
X132500714Y-114061904D01*
X132548333Y-114109523D01*
X132595952Y-114204761D01*
X132595952Y-114395238D01*
X132643571Y-114490476D01*
X132691190Y-114538095D01*
X132786428Y-114585714D01*
X132976904Y-114585714D01*
X133072142Y-114538095D01*
X133119761Y-114490476D01*
X133167380Y-114395238D01*
X133167380Y-114204761D01*
X133119761Y-114109523D01*
X133072142Y-114061904D01*
X132976904Y-114014285D01*
X132786428Y-114014285D01*
X132691190Y-114061904D01*
X132643571Y-114109523D01*
X132595952Y-114204761D01*
X132167380Y-113395238D02*
X132167380Y-113300000D01*
X132215000Y-113204761D01*
X132262619Y-113157142D01*
X132357857Y-113109523D01*
X132548333Y-113061904D01*
X132786428Y-113061904D01*
X132976904Y-113109523D01*
X133072142Y-113157142D01*
X133119761Y-113204761D01*
X133167380Y-113300000D01*
X133167380Y-113395238D01*
X133119761Y-113490476D01*
X133072142Y-113538095D01*
X132976904Y-113585714D01*
X132786428Y-113633333D01*
X132548333Y-113633333D01*
X132357857Y-113585714D01*
X132262619Y-113538095D01*
X132215000Y-113490476D01*
X132167380Y-113395238D01*
G04 #@! TO.C,R11*
X130627380Y-114942857D02*
X130151190Y-115276190D01*
X130627380Y-115514285D02*
X129627380Y-115514285D01*
X129627380Y-115133333D01*
X129675000Y-115038095D01*
X129722619Y-114990476D01*
X129817857Y-114942857D01*
X129960714Y-114942857D01*
X130055952Y-114990476D01*
X130103571Y-115038095D01*
X130151190Y-115133333D01*
X130151190Y-115514285D01*
X130627380Y-113990476D02*
X130627380Y-114561904D01*
X130627380Y-114276190D02*
X129627380Y-114276190D01*
X129770238Y-114371428D01*
X129865476Y-114466666D01*
X129913095Y-114561904D01*
X130627380Y-113038095D02*
X130627380Y-113609523D01*
X130627380Y-113323809D02*
X129627380Y-113323809D01*
X129770238Y-113419047D01*
X129865476Y-113514285D01*
X129913095Y-113609523D01*
X129357380Y-114490476D02*
X129357380Y-115061904D01*
X129357380Y-114776190D02*
X128357380Y-114776190D01*
X128500238Y-114871428D01*
X128595476Y-114966666D01*
X128643095Y-115061904D01*
X128357380Y-113871428D02*
X128357380Y-113776190D01*
X128405000Y-113680952D01*
X128452619Y-113633333D01*
X128547857Y-113585714D01*
X128738333Y-113538095D01*
X128976428Y-113538095D01*
X129166904Y-113585714D01*
X129262142Y-113633333D01*
X129309761Y-113680952D01*
X129357380Y-113776190D01*
X129357380Y-113871428D01*
X129309761Y-113966666D01*
X129262142Y-114014285D01*
X129166904Y-114061904D01*
X128976428Y-114109523D01*
X128738333Y-114109523D01*
X128547857Y-114061904D01*
X128452619Y-114014285D01*
X128405000Y-113966666D01*
X128357380Y-113871428D01*
G04 #@! TO.C,R10*
X115387380Y-137802857D02*
X114911190Y-138136190D01*
X115387380Y-138374285D02*
X114387380Y-138374285D01*
X114387380Y-137993333D01*
X114435000Y-137898095D01*
X114482619Y-137850476D01*
X114577857Y-137802857D01*
X114720714Y-137802857D01*
X114815952Y-137850476D01*
X114863571Y-137898095D01*
X114911190Y-137993333D01*
X114911190Y-138374285D01*
X115387380Y-136850476D02*
X115387380Y-137421904D01*
X115387380Y-137136190D02*
X114387380Y-137136190D01*
X114530238Y-137231428D01*
X114625476Y-137326666D01*
X114673095Y-137421904D01*
X114387380Y-136231428D02*
X114387380Y-136136190D01*
X114435000Y-136040952D01*
X114482619Y-135993333D01*
X114577857Y-135945714D01*
X114768333Y-135898095D01*
X115006428Y-135898095D01*
X115196904Y-135945714D01*
X115292142Y-135993333D01*
X115339761Y-136040952D01*
X115387380Y-136136190D01*
X115387380Y-136231428D01*
X115339761Y-136326666D01*
X115292142Y-136374285D01*
X115196904Y-136421904D01*
X115006428Y-136469523D01*
X114768333Y-136469523D01*
X114577857Y-136421904D01*
X114482619Y-136374285D01*
X114435000Y-136326666D01*
X114387380Y-136231428D01*
X113212619Y-138398095D02*
X113165000Y-138350476D01*
X113117380Y-138255238D01*
X113117380Y-138017142D01*
X113165000Y-137921904D01*
X113212619Y-137874285D01*
X113307857Y-137826666D01*
X113403095Y-137826666D01*
X113545952Y-137874285D01*
X114117380Y-138445714D01*
X114117380Y-137826666D01*
X113212619Y-137445714D02*
X113165000Y-137398095D01*
X113117380Y-137302857D01*
X113117380Y-137064761D01*
X113165000Y-136969523D01*
X113212619Y-136921904D01*
X113307857Y-136874285D01*
X113403095Y-136874285D01*
X113545952Y-136921904D01*
X114117380Y-137493333D01*
X114117380Y-136874285D01*
X113117380Y-136255238D02*
X113117380Y-136160000D01*
X113165000Y-136064761D01*
X113212619Y-136017142D01*
X113307857Y-135969523D01*
X113498333Y-135921904D01*
X113736428Y-135921904D01*
X113926904Y-135969523D01*
X114022142Y-136017142D01*
X114069761Y-136064761D01*
X114117380Y-136160000D01*
X114117380Y-136255238D01*
X114069761Y-136350476D01*
X114022142Y-136398095D01*
X113926904Y-136445714D01*
X113736428Y-136493333D01*
X113498333Y-136493333D01*
X113307857Y-136445714D01*
X113212619Y-136398095D01*
X113165000Y-136350476D01*
X113117380Y-136255238D01*
G04 #@! TO.C,R9*
X124277380Y-114466666D02*
X123801190Y-114800000D01*
X124277380Y-115038095D02*
X123277380Y-115038095D01*
X123277380Y-114657142D01*
X123325000Y-114561904D01*
X123372619Y-114514285D01*
X123467857Y-114466666D01*
X123610714Y-114466666D01*
X123705952Y-114514285D01*
X123753571Y-114561904D01*
X123801190Y-114657142D01*
X123801190Y-115038095D01*
X124277380Y-113990476D02*
X124277380Y-113800000D01*
X124229761Y-113704761D01*
X124182142Y-113657142D01*
X124039285Y-113561904D01*
X123848809Y-113514285D01*
X123467857Y-113514285D01*
X123372619Y-113561904D01*
X123325000Y-113609523D01*
X123277380Y-113704761D01*
X123277380Y-113895238D01*
X123325000Y-113990476D01*
X123372619Y-114038095D01*
X123467857Y-114085714D01*
X123705952Y-114085714D01*
X123801190Y-114038095D01*
X123848809Y-113990476D01*
X123896428Y-113895238D01*
X123896428Y-113704761D01*
X123848809Y-113609523D01*
X123801190Y-113561904D01*
X123705952Y-113514285D01*
X124880714Y-115228571D02*
X125547380Y-115228571D01*
X124499761Y-115466666D02*
X125214047Y-115704761D01*
X125214047Y-115085714D01*
X125452142Y-114704761D02*
X125499761Y-114657142D01*
X125547380Y-114704761D01*
X125499761Y-114752380D01*
X125452142Y-114704761D01*
X125547380Y-114704761D01*
X124547380Y-114323809D02*
X124547380Y-113657142D01*
X125547380Y-114085714D01*
X125547380Y-113276190D02*
X124547380Y-113276190D01*
X125166428Y-113180952D02*
X125547380Y-112895238D01*
X124880714Y-112895238D02*
X125261666Y-113276190D01*
G04 #@! TO.C,R19*
X67127380Y-120022857D02*
X66651190Y-120356190D01*
X67127380Y-120594285D02*
X66127380Y-120594285D01*
X66127380Y-120213333D01*
X66175000Y-120118095D01*
X66222619Y-120070476D01*
X66317857Y-120022857D01*
X66460714Y-120022857D01*
X66555952Y-120070476D01*
X66603571Y-120118095D01*
X66651190Y-120213333D01*
X66651190Y-120594285D01*
X67127380Y-119070476D02*
X67127380Y-119641904D01*
X67127380Y-119356190D02*
X66127380Y-119356190D01*
X66270238Y-119451428D01*
X66365476Y-119546666D01*
X66413095Y-119641904D01*
X67127380Y-118594285D02*
X67127380Y-118403809D01*
X67079761Y-118308571D01*
X67032142Y-118260952D01*
X66889285Y-118165714D01*
X66698809Y-118118095D01*
X66317857Y-118118095D01*
X66222619Y-118165714D01*
X66175000Y-118213333D01*
X66127380Y-118308571D01*
X66127380Y-118499047D01*
X66175000Y-118594285D01*
X66222619Y-118641904D01*
X66317857Y-118689523D01*
X66555952Y-118689523D01*
X66651190Y-118641904D01*
X66698809Y-118594285D01*
X66746428Y-118499047D01*
X66746428Y-118308571D01*
X66698809Y-118213333D01*
X66651190Y-118165714D01*
X66555952Y-118118095D01*
X64952619Y-120618095D02*
X64905000Y-120570476D01*
X64857380Y-120475238D01*
X64857380Y-120237142D01*
X64905000Y-120141904D01*
X64952619Y-120094285D01*
X65047857Y-120046666D01*
X65143095Y-120046666D01*
X65285952Y-120094285D01*
X65857380Y-120665714D01*
X65857380Y-120046666D01*
X64952619Y-119665714D02*
X64905000Y-119618095D01*
X64857380Y-119522857D01*
X64857380Y-119284761D01*
X64905000Y-119189523D01*
X64952619Y-119141904D01*
X65047857Y-119094285D01*
X65143095Y-119094285D01*
X65285952Y-119141904D01*
X65857380Y-119713333D01*
X65857380Y-119094285D01*
X64857380Y-118475238D02*
X64857380Y-118380000D01*
X64905000Y-118284761D01*
X64952619Y-118237142D01*
X65047857Y-118189523D01*
X65238333Y-118141904D01*
X65476428Y-118141904D01*
X65666904Y-118189523D01*
X65762142Y-118237142D01*
X65809761Y-118284761D01*
X65857380Y-118380000D01*
X65857380Y-118475238D01*
X65809761Y-118570476D01*
X65762142Y-118618095D01*
X65666904Y-118665714D01*
X65476428Y-118713333D01*
X65238333Y-118713333D01*
X65047857Y-118665714D01*
X64952619Y-118618095D01*
X64905000Y-118570476D01*
X64857380Y-118475238D01*
G04 #@! TO.C,R18*
X65857380Y-137802857D02*
X65381190Y-138136190D01*
X65857380Y-138374285D02*
X64857380Y-138374285D01*
X64857380Y-137993333D01*
X64905000Y-137898095D01*
X64952619Y-137850476D01*
X65047857Y-137802857D01*
X65190714Y-137802857D01*
X65285952Y-137850476D01*
X65333571Y-137898095D01*
X65381190Y-137993333D01*
X65381190Y-138374285D01*
X65857380Y-136850476D02*
X65857380Y-137421904D01*
X65857380Y-137136190D02*
X64857380Y-137136190D01*
X65000238Y-137231428D01*
X65095476Y-137326666D01*
X65143095Y-137421904D01*
X65285952Y-136279047D02*
X65238333Y-136374285D01*
X65190714Y-136421904D01*
X65095476Y-136469523D01*
X65047857Y-136469523D01*
X64952619Y-136421904D01*
X64905000Y-136374285D01*
X64857380Y-136279047D01*
X64857380Y-136088571D01*
X64905000Y-135993333D01*
X64952619Y-135945714D01*
X65047857Y-135898095D01*
X65095476Y-135898095D01*
X65190714Y-135945714D01*
X65238333Y-135993333D01*
X65285952Y-136088571D01*
X65285952Y-136279047D01*
X65333571Y-136374285D01*
X65381190Y-136421904D01*
X65476428Y-136469523D01*
X65666904Y-136469523D01*
X65762142Y-136421904D01*
X65809761Y-136374285D01*
X65857380Y-136279047D01*
X65857380Y-136088571D01*
X65809761Y-135993333D01*
X65762142Y-135945714D01*
X65666904Y-135898095D01*
X65476428Y-135898095D01*
X65381190Y-135945714D01*
X65333571Y-135993333D01*
X65285952Y-136088571D01*
X66222619Y-138398095D02*
X66175000Y-138350476D01*
X66127380Y-138255238D01*
X66127380Y-138017142D01*
X66175000Y-137921904D01*
X66222619Y-137874285D01*
X66317857Y-137826666D01*
X66413095Y-137826666D01*
X66555952Y-137874285D01*
X67127380Y-138445714D01*
X67127380Y-137826666D01*
X66222619Y-137445714D02*
X66175000Y-137398095D01*
X66127380Y-137302857D01*
X66127380Y-137064761D01*
X66175000Y-136969523D01*
X66222619Y-136921904D01*
X66317857Y-136874285D01*
X66413095Y-136874285D01*
X66555952Y-136921904D01*
X67127380Y-137493333D01*
X67127380Y-136874285D01*
X66127380Y-136255238D02*
X66127380Y-136160000D01*
X66175000Y-136064761D01*
X66222619Y-136017142D01*
X66317857Y-135969523D01*
X66508333Y-135921904D01*
X66746428Y-135921904D01*
X66936904Y-135969523D01*
X67032142Y-136017142D01*
X67079761Y-136064761D01*
X67127380Y-136160000D01*
X67127380Y-136255238D01*
X67079761Y-136350476D01*
X67032142Y-136398095D01*
X66936904Y-136445714D01*
X66746428Y-136493333D01*
X66508333Y-136493333D01*
X66317857Y-136445714D01*
X66222619Y-136398095D01*
X66175000Y-136350476D01*
X66127380Y-136255238D01*
G04 #@! TO.C,R8*
X126817380Y-114466666D02*
X126341190Y-114800000D01*
X126817380Y-115038095D02*
X125817380Y-115038095D01*
X125817380Y-114657142D01*
X125865000Y-114561904D01*
X125912619Y-114514285D01*
X126007857Y-114466666D01*
X126150714Y-114466666D01*
X126245952Y-114514285D01*
X126293571Y-114561904D01*
X126341190Y-114657142D01*
X126341190Y-115038095D01*
X126245952Y-113895238D02*
X126198333Y-113990476D01*
X126150714Y-114038095D01*
X126055476Y-114085714D01*
X126007857Y-114085714D01*
X125912619Y-114038095D01*
X125865000Y-113990476D01*
X125817380Y-113895238D01*
X125817380Y-113704761D01*
X125865000Y-113609523D01*
X125912619Y-113561904D01*
X126007857Y-113514285D01*
X126055476Y-113514285D01*
X126150714Y-113561904D01*
X126198333Y-113609523D01*
X126245952Y-113704761D01*
X126245952Y-113895238D01*
X126293571Y-113990476D01*
X126341190Y-114038095D01*
X126436428Y-114085714D01*
X126626904Y-114085714D01*
X126722142Y-114038095D01*
X126769761Y-113990476D01*
X126817380Y-113895238D01*
X126817380Y-113704761D01*
X126769761Y-113609523D01*
X126722142Y-113561904D01*
X126626904Y-113514285D01*
X126436428Y-113514285D01*
X126341190Y-113561904D01*
X126293571Y-113609523D01*
X126245952Y-113704761D01*
X127087380Y-115061904D02*
X127087380Y-115252380D01*
X127135000Y-115347619D01*
X127182619Y-115395238D01*
X127325476Y-115490476D01*
X127515952Y-115538095D01*
X127896904Y-115538095D01*
X127992142Y-115490476D01*
X128039761Y-115442857D01*
X128087380Y-115347619D01*
X128087380Y-115157142D01*
X128039761Y-115061904D01*
X127992142Y-115014285D01*
X127896904Y-114966666D01*
X127658809Y-114966666D01*
X127563571Y-115014285D01*
X127515952Y-115061904D01*
X127468333Y-115157142D01*
X127468333Y-115347619D01*
X127515952Y-115442857D01*
X127563571Y-115490476D01*
X127658809Y-115538095D01*
X127515952Y-114395238D02*
X127468333Y-114490476D01*
X127420714Y-114538095D01*
X127325476Y-114585714D01*
X127277857Y-114585714D01*
X127182619Y-114538095D01*
X127135000Y-114490476D01*
X127087380Y-114395238D01*
X127087380Y-114204761D01*
X127135000Y-114109523D01*
X127182619Y-114061904D01*
X127277857Y-114014285D01*
X127325476Y-114014285D01*
X127420714Y-114061904D01*
X127468333Y-114109523D01*
X127515952Y-114204761D01*
X127515952Y-114395238D01*
X127563571Y-114490476D01*
X127611190Y-114538095D01*
X127706428Y-114585714D01*
X127896904Y-114585714D01*
X127992142Y-114538095D01*
X128039761Y-114490476D01*
X128087380Y-114395238D01*
X128087380Y-114204761D01*
X128039761Y-114109523D01*
X127992142Y-114061904D01*
X127896904Y-114014285D01*
X127706428Y-114014285D01*
X127611190Y-114061904D01*
X127563571Y-114109523D01*
X127515952Y-114204761D01*
X127087380Y-113395238D02*
X127087380Y-113300000D01*
X127135000Y-113204761D01*
X127182619Y-113157142D01*
X127277857Y-113109523D01*
X127468333Y-113061904D01*
X127706428Y-113061904D01*
X127896904Y-113109523D01*
X127992142Y-113157142D01*
X128039761Y-113204761D01*
X128087380Y-113300000D01*
X128087380Y-113395238D01*
X128039761Y-113490476D01*
X127992142Y-113538095D01*
X127896904Y-113585714D01*
X127706428Y-113633333D01*
X127468333Y-113633333D01*
X127277857Y-113585714D01*
X127182619Y-113538095D01*
X127135000Y-113490476D01*
X127087380Y-113395238D01*
G04 #@! TO.C,R6*
X91257380Y-137326666D02*
X90781190Y-137660000D01*
X91257380Y-137898095D02*
X90257380Y-137898095D01*
X90257380Y-137517142D01*
X90305000Y-137421904D01*
X90352619Y-137374285D01*
X90447857Y-137326666D01*
X90590714Y-137326666D01*
X90685952Y-137374285D01*
X90733571Y-137421904D01*
X90781190Y-137517142D01*
X90781190Y-137898095D01*
X90257380Y-136469523D02*
X90257380Y-136660000D01*
X90305000Y-136755238D01*
X90352619Y-136802857D01*
X90495476Y-136898095D01*
X90685952Y-136945714D01*
X91066904Y-136945714D01*
X91162142Y-136898095D01*
X91209761Y-136850476D01*
X91257380Y-136755238D01*
X91257380Y-136564761D01*
X91209761Y-136469523D01*
X91162142Y-136421904D01*
X91066904Y-136374285D01*
X90828809Y-136374285D01*
X90733571Y-136421904D01*
X90685952Y-136469523D01*
X90638333Y-136564761D01*
X90638333Y-136755238D01*
X90685952Y-136850476D01*
X90733571Y-136898095D01*
X90828809Y-136945714D01*
X91622619Y-138398095D02*
X91575000Y-138350476D01*
X91527380Y-138255238D01*
X91527380Y-138017142D01*
X91575000Y-137921904D01*
X91622619Y-137874285D01*
X91717857Y-137826666D01*
X91813095Y-137826666D01*
X91955952Y-137874285D01*
X92527380Y-138445714D01*
X92527380Y-137826666D01*
X91622619Y-137445714D02*
X91575000Y-137398095D01*
X91527380Y-137302857D01*
X91527380Y-137064761D01*
X91575000Y-136969523D01*
X91622619Y-136921904D01*
X91717857Y-136874285D01*
X91813095Y-136874285D01*
X91955952Y-136921904D01*
X92527380Y-137493333D01*
X92527380Y-136874285D01*
X91527380Y-136255238D02*
X91527380Y-136160000D01*
X91575000Y-136064761D01*
X91622619Y-136017142D01*
X91717857Y-135969523D01*
X91908333Y-135921904D01*
X92146428Y-135921904D01*
X92336904Y-135969523D01*
X92432142Y-136017142D01*
X92479761Y-136064761D01*
X92527380Y-136160000D01*
X92527380Y-136255238D01*
X92479761Y-136350476D01*
X92432142Y-136398095D01*
X92336904Y-136445714D01*
X92146428Y-136493333D01*
X91908333Y-136493333D01*
X91717857Y-136445714D01*
X91622619Y-136398095D01*
X91575000Y-136350476D01*
X91527380Y-136255238D01*
G04 #@! TO.C,R3*
X73477380Y-137326666D02*
X73001190Y-137660000D01*
X73477380Y-137898095D02*
X72477380Y-137898095D01*
X72477380Y-137517142D01*
X72525000Y-137421904D01*
X72572619Y-137374285D01*
X72667857Y-137326666D01*
X72810714Y-137326666D01*
X72905952Y-137374285D01*
X72953571Y-137421904D01*
X73001190Y-137517142D01*
X73001190Y-137898095D01*
X72477380Y-136993333D02*
X72477380Y-136374285D01*
X72858333Y-136707619D01*
X72858333Y-136564761D01*
X72905952Y-136469523D01*
X72953571Y-136421904D01*
X73048809Y-136374285D01*
X73286904Y-136374285D01*
X73382142Y-136421904D01*
X73429761Y-136469523D01*
X73477380Y-136564761D01*
X73477380Y-136850476D01*
X73429761Y-136945714D01*
X73382142Y-136993333D01*
X73842619Y-138398095D02*
X73795000Y-138350476D01*
X73747380Y-138255238D01*
X73747380Y-138017142D01*
X73795000Y-137921904D01*
X73842619Y-137874285D01*
X73937857Y-137826666D01*
X74033095Y-137826666D01*
X74175952Y-137874285D01*
X74747380Y-138445714D01*
X74747380Y-137826666D01*
X73842619Y-137445714D02*
X73795000Y-137398095D01*
X73747380Y-137302857D01*
X73747380Y-137064761D01*
X73795000Y-136969523D01*
X73842619Y-136921904D01*
X73937857Y-136874285D01*
X74033095Y-136874285D01*
X74175952Y-136921904D01*
X74747380Y-137493333D01*
X74747380Y-136874285D01*
X73747380Y-136255238D02*
X73747380Y-136160000D01*
X73795000Y-136064761D01*
X73842619Y-136017142D01*
X73937857Y-135969523D01*
X74128333Y-135921904D01*
X74366428Y-135921904D01*
X74556904Y-135969523D01*
X74652142Y-136017142D01*
X74699761Y-136064761D01*
X74747380Y-136160000D01*
X74747380Y-136255238D01*
X74699761Y-136350476D01*
X74652142Y-136398095D01*
X74556904Y-136445714D01*
X74366428Y-136493333D01*
X74128333Y-136493333D01*
X73937857Y-136445714D01*
X73842619Y-136398095D01*
X73795000Y-136350476D01*
X73747380Y-136255238D01*
G04 #@! TO.C,R2*
X68397380Y-119546666D02*
X67921190Y-119880000D01*
X68397380Y-120118095D02*
X67397380Y-120118095D01*
X67397380Y-119737142D01*
X67445000Y-119641904D01*
X67492619Y-119594285D01*
X67587857Y-119546666D01*
X67730714Y-119546666D01*
X67825952Y-119594285D01*
X67873571Y-119641904D01*
X67921190Y-119737142D01*
X67921190Y-120118095D01*
X67492619Y-119165714D02*
X67445000Y-119118095D01*
X67397380Y-119022857D01*
X67397380Y-118784761D01*
X67445000Y-118689523D01*
X67492619Y-118641904D01*
X67587857Y-118594285D01*
X67683095Y-118594285D01*
X67825952Y-118641904D01*
X68397380Y-119213333D01*
X68397380Y-118594285D01*
X69667380Y-119975238D02*
X69667380Y-120546666D01*
X69667380Y-120260952D02*
X68667380Y-120260952D01*
X68810238Y-120356190D01*
X68905476Y-120451428D01*
X68953095Y-120546666D01*
X68667380Y-119356190D02*
X68667380Y-119260952D01*
X68715000Y-119165714D01*
X68762619Y-119118095D01*
X68857857Y-119070476D01*
X69048333Y-119022857D01*
X69286428Y-119022857D01*
X69476904Y-119070476D01*
X69572142Y-119118095D01*
X69619761Y-119165714D01*
X69667380Y-119260952D01*
X69667380Y-119356190D01*
X69619761Y-119451428D01*
X69572142Y-119499047D01*
X69476904Y-119546666D01*
X69286428Y-119594285D01*
X69048333Y-119594285D01*
X68857857Y-119546666D01*
X68762619Y-119499047D01*
X68715000Y-119451428D01*
X68667380Y-119356190D01*
X69667380Y-118594285D02*
X68667380Y-118594285D01*
X69286428Y-118499047D02*
X69667380Y-118213333D01*
X69000714Y-118213333D02*
X69381666Y-118594285D01*
G04 #@! TO.C,R1*
X86193333Y-106497380D02*
X85860000Y-106021190D01*
X85621904Y-106497380D02*
X85621904Y-105497380D01*
X86002857Y-105497380D01*
X86098095Y-105545000D01*
X86145714Y-105592619D01*
X86193333Y-105687857D01*
X86193333Y-105830714D01*
X86145714Y-105925952D01*
X86098095Y-105973571D01*
X86002857Y-106021190D01*
X85621904Y-106021190D01*
X87145714Y-106497380D02*
X86574285Y-106497380D01*
X86860000Y-106497380D02*
X86860000Y-105497380D01*
X86764761Y-105640238D01*
X86669523Y-105735476D01*
X86574285Y-105783095D01*
X85121904Y-106862619D02*
X85169523Y-106815000D01*
X85264761Y-106767380D01*
X85502857Y-106767380D01*
X85598095Y-106815000D01*
X85645714Y-106862619D01*
X85693333Y-106957857D01*
X85693333Y-107053095D01*
X85645714Y-107195952D01*
X85074285Y-107767380D01*
X85693333Y-107767380D01*
X86074285Y-106862619D02*
X86121904Y-106815000D01*
X86217142Y-106767380D01*
X86455238Y-106767380D01*
X86550476Y-106815000D01*
X86598095Y-106862619D01*
X86645714Y-106957857D01*
X86645714Y-107053095D01*
X86598095Y-107195952D01*
X86026666Y-107767380D01*
X86645714Y-107767380D01*
X87264761Y-106767380D02*
X87360000Y-106767380D01*
X87455238Y-106815000D01*
X87502857Y-106862619D01*
X87550476Y-106957857D01*
X87598095Y-107148333D01*
X87598095Y-107386428D01*
X87550476Y-107576904D01*
X87502857Y-107672142D01*
X87455238Y-107719761D01*
X87360000Y-107767380D01*
X87264761Y-107767380D01*
X87169523Y-107719761D01*
X87121904Y-107672142D01*
X87074285Y-107576904D01*
X87026666Y-107386428D01*
X87026666Y-107148333D01*
X87074285Y-106957857D01*
X87121904Y-106862619D01*
X87169523Y-106815000D01*
X87264761Y-106767380D01*
G04 #@! TO.C,R13*
X134437380Y-114942857D02*
X133961190Y-115276190D01*
X134437380Y-115514285D02*
X133437380Y-115514285D01*
X133437380Y-115133333D01*
X133485000Y-115038095D01*
X133532619Y-114990476D01*
X133627857Y-114942857D01*
X133770714Y-114942857D01*
X133865952Y-114990476D01*
X133913571Y-115038095D01*
X133961190Y-115133333D01*
X133961190Y-115514285D01*
X134437380Y-113990476D02*
X134437380Y-114561904D01*
X134437380Y-114276190D02*
X133437380Y-114276190D01*
X133580238Y-114371428D01*
X133675476Y-114466666D01*
X133723095Y-114561904D01*
X133437380Y-113657142D02*
X133437380Y-113038095D01*
X133818333Y-113371428D01*
X133818333Y-113228571D01*
X133865952Y-113133333D01*
X133913571Y-113085714D01*
X134008809Y-113038095D01*
X134246904Y-113038095D01*
X134342142Y-113085714D01*
X134389761Y-113133333D01*
X134437380Y-113228571D01*
X134437380Y-113514285D01*
X134389761Y-113609523D01*
X134342142Y-113657142D01*
X134707380Y-115585714D02*
X134707380Y-114966666D01*
X135088333Y-115300000D01*
X135088333Y-115157142D01*
X135135952Y-115061904D01*
X135183571Y-115014285D01*
X135278809Y-114966666D01*
X135516904Y-114966666D01*
X135612142Y-115014285D01*
X135659761Y-115061904D01*
X135707380Y-115157142D01*
X135707380Y-115442857D01*
X135659761Y-115538095D01*
X135612142Y-115585714D01*
X134707380Y-114633333D02*
X134707380Y-114014285D01*
X135088333Y-114347619D01*
X135088333Y-114204761D01*
X135135952Y-114109523D01*
X135183571Y-114061904D01*
X135278809Y-114014285D01*
X135516904Y-114014285D01*
X135612142Y-114061904D01*
X135659761Y-114109523D01*
X135707380Y-114204761D01*
X135707380Y-114490476D01*
X135659761Y-114585714D01*
X135612142Y-114633333D01*
X134707380Y-113395238D02*
X134707380Y-113300000D01*
X134755000Y-113204761D01*
X134802619Y-113157142D01*
X134897857Y-113109523D01*
X135088333Y-113061904D01*
X135326428Y-113061904D01*
X135516904Y-113109523D01*
X135612142Y-113157142D01*
X135659761Y-113204761D01*
X135707380Y-113300000D01*
X135707380Y-113395238D01*
X135659761Y-113490476D01*
X135612142Y-113538095D01*
X135516904Y-113585714D01*
X135326428Y-113633333D01*
X135088333Y-113633333D01*
X134897857Y-113585714D01*
X134802619Y-113538095D01*
X134755000Y-113490476D01*
X134707380Y-113395238D01*
G04 #@! TO.C,R14*
X128897142Y-143327380D02*
X128563809Y-142851190D01*
X128325714Y-143327380D02*
X128325714Y-142327380D01*
X128706666Y-142327380D01*
X128801904Y-142375000D01*
X128849523Y-142422619D01*
X128897142Y-142517857D01*
X128897142Y-142660714D01*
X128849523Y-142755952D01*
X128801904Y-142803571D01*
X128706666Y-142851190D01*
X128325714Y-142851190D01*
X129849523Y-143327380D02*
X129278095Y-143327380D01*
X129563809Y-143327380D02*
X129563809Y-142327380D01*
X129468571Y-142470238D01*
X129373333Y-142565476D01*
X129278095Y-142613095D01*
X130706666Y-142660714D02*
X130706666Y-143327380D01*
X130468571Y-142279761D02*
X130230476Y-142994047D01*
X130849523Y-142994047D01*
X128301904Y-141152619D02*
X128349523Y-141105000D01*
X128444761Y-141057380D01*
X128682857Y-141057380D01*
X128778095Y-141105000D01*
X128825714Y-141152619D01*
X128873333Y-141247857D01*
X128873333Y-141343095D01*
X128825714Y-141485952D01*
X128254285Y-142057380D01*
X128873333Y-142057380D01*
X129254285Y-141152619D02*
X129301904Y-141105000D01*
X129397142Y-141057380D01*
X129635238Y-141057380D01*
X129730476Y-141105000D01*
X129778095Y-141152619D01*
X129825714Y-141247857D01*
X129825714Y-141343095D01*
X129778095Y-141485952D01*
X129206666Y-142057380D01*
X129825714Y-142057380D01*
X130444761Y-141057380D02*
X130540000Y-141057380D01*
X130635238Y-141105000D01*
X130682857Y-141152619D01*
X130730476Y-141247857D01*
X130778095Y-141438333D01*
X130778095Y-141676428D01*
X130730476Y-141866904D01*
X130682857Y-141962142D01*
X130635238Y-142009761D01*
X130540000Y-142057380D01*
X130444761Y-142057380D01*
X130349523Y-142009761D01*
X130301904Y-141962142D01*
X130254285Y-141866904D01*
X130206666Y-141676428D01*
X130206666Y-141438333D01*
X130254285Y-141247857D01*
X130301904Y-141152619D01*
X130349523Y-141105000D01*
X130444761Y-141057380D01*
G04 #@! TO.C,R15*
X112847380Y-137802857D02*
X112371190Y-138136190D01*
X112847380Y-138374285D02*
X111847380Y-138374285D01*
X111847380Y-137993333D01*
X111895000Y-137898095D01*
X111942619Y-137850476D01*
X112037857Y-137802857D01*
X112180714Y-137802857D01*
X112275952Y-137850476D01*
X112323571Y-137898095D01*
X112371190Y-137993333D01*
X112371190Y-138374285D01*
X112847380Y-136850476D02*
X112847380Y-137421904D01*
X112847380Y-137136190D02*
X111847380Y-137136190D01*
X111990238Y-137231428D01*
X112085476Y-137326666D01*
X112133095Y-137421904D01*
X111847380Y-135945714D02*
X111847380Y-136421904D01*
X112323571Y-136469523D01*
X112275952Y-136421904D01*
X112228333Y-136326666D01*
X112228333Y-136088571D01*
X112275952Y-135993333D01*
X112323571Y-135945714D01*
X112418809Y-135898095D01*
X112656904Y-135898095D01*
X112752142Y-135945714D01*
X112799761Y-135993333D01*
X112847380Y-136088571D01*
X112847380Y-136326666D01*
X112799761Y-136421904D01*
X112752142Y-136469523D01*
X111577380Y-137755238D02*
X111577380Y-138326666D01*
X111577380Y-138040952D02*
X110577380Y-138040952D01*
X110720238Y-138136190D01*
X110815476Y-138231428D01*
X110863095Y-138326666D01*
X110577380Y-137136190D02*
X110577380Y-137040952D01*
X110625000Y-136945714D01*
X110672619Y-136898095D01*
X110767857Y-136850476D01*
X110958333Y-136802857D01*
X111196428Y-136802857D01*
X111386904Y-136850476D01*
X111482142Y-136898095D01*
X111529761Y-136945714D01*
X111577380Y-137040952D01*
X111577380Y-137136190D01*
X111529761Y-137231428D01*
X111482142Y-137279047D01*
X111386904Y-137326666D01*
X111196428Y-137374285D01*
X110958333Y-137374285D01*
X110767857Y-137326666D01*
X110672619Y-137279047D01*
X110625000Y-137231428D01*
X110577380Y-137136190D01*
X111577380Y-136374285D02*
X110577380Y-136374285D01*
X111196428Y-136279047D02*
X111577380Y-135993333D01*
X110910714Y-135993333D02*
X111291666Y-136374285D01*
G04 #@! TO.C,R16*
X72207380Y-137802857D02*
X71731190Y-138136190D01*
X72207380Y-138374285D02*
X71207380Y-138374285D01*
X71207380Y-137993333D01*
X71255000Y-137898095D01*
X71302619Y-137850476D01*
X71397857Y-137802857D01*
X71540714Y-137802857D01*
X71635952Y-137850476D01*
X71683571Y-137898095D01*
X71731190Y-137993333D01*
X71731190Y-138374285D01*
X72207380Y-136850476D02*
X72207380Y-137421904D01*
X72207380Y-137136190D02*
X71207380Y-137136190D01*
X71350238Y-137231428D01*
X71445476Y-137326666D01*
X71493095Y-137421904D01*
X71207380Y-135993333D02*
X71207380Y-136183809D01*
X71255000Y-136279047D01*
X71302619Y-136326666D01*
X71445476Y-136421904D01*
X71635952Y-136469523D01*
X72016904Y-136469523D01*
X72112142Y-136421904D01*
X72159761Y-136374285D01*
X72207380Y-136279047D01*
X72207380Y-136088571D01*
X72159761Y-135993333D01*
X72112142Y-135945714D01*
X72016904Y-135898095D01*
X71778809Y-135898095D01*
X71683571Y-135945714D01*
X71635952Y-135993333D01*
X71588333Y-136088571D01*
X71588333Y-136279047D01*
X71635952Y-136374285D01*
X71683571Y-136421904D01*
X71778809Y-136469523D01*
X70032619Y-138398095D02*
X69985000Y-138350476D01*
X69937380Y-138255238D01*
X69937380Y-138017142D01*
X69985000Y-137921904D01*
X70032619Y-137874285D01*
X70127857Y-137826666D01*
X70223095Y-137826666D01*
X70365952Y-137874285D01*
X70937380Y-138445714D01*
X70937380Y-137826666D01*
X70032619Y-137445714D02*
X69985000Y-137398095D01*
X69937380Y-137302857D01*
X69937380Y-137064761D01*
X69985000Y-136969523D01*
X70032619Y-136921904D01*
X70127857Y-136874285D01*
X70223095Y-136874285D01*
X70365952Y-136921904D01*
X70937380Y-137493333D01*
X70937380Y-136874285D01*
X69937380Y-136255238D02*
X69937380Y-136160000D01*
X69985000Y-136064761D01*
X70032619Y-136017142D01*
X70127857Y-135969523D01*
X70318333Y-135921904D01*
X70556428Y-135921904D01*
X70746904Y-135969523D01*
X70842142Y-136017142D01*
X70889761Y-136064761D01*
X70937380Y-136160000D01*
X70937380Y-136255238D01*
X70889761Y-136350476D01*
X70842142Y-136398095D01*
X70746904Y-136445714D01*
X70556428Y-136493333D01*
X70318333Y-136493333D01*
X70127857Y-136445714D01*
X70032619Y-136398095D01*
X69985000Y-136350476D01*
X69937380Y-136255238D01*
G04 #@! TO.C,R17*
X68397380Y-137802857D02*
X67921190Y-138136190D01*
X68397380Y-138374285D02*
X67397380Y-138374285D01*
X67397380Y-137993333D01*
X67445000Y-137898095D01*
X67492619Y-137850476D01*
X67587857Y-137802857D01*
X67730714Y-137802857D01*
X67825952Y-137850476D01*
X67873571Y-137898095D01*
X67921190Y-137993333D01*
X67921190Y-138374285D01*
X68397380Y-136850476D02*
X68397380Y-137421904D01*
X68397380Y-137136190D02*
X67397380Y-137136190D01*
X67540238Y-137231428D01*
X67635476Y-137326666D01*
X67683095Y-137421904D01*
X67397380Y-136517142D02*
X67397380Y-135850476D01*
X68397380Y-136279047D01*
X69000714Y-137921904D02*
X69667380Y-137921904D01*
X68619761Y-138160000D02*
X69334047Y-138398095D01*
X69334047Y-137779047D01*
X68667380Y-137493333D02*
X68667380Y-136826666D01*
X69667380Y-137255238D01*
X68667380Y-136255238D02*
X68667380Y-136160000D01*
X68715000Y-136064761D01*
X68762619Y-136017142D01*
X68857857Y-135969523D01*
X69048333Y-135921904D01*
X69286428Y-135921904D01*
X69476904Y-135969523D01*
X69572142Y-136017142D01*
X69619761Y-136064761D01*
X69667380Y-136160000D01*
X69667380Y-136255238D01*
X69619761Y-136350476D01*
X69572142Y-136398095D01*
X69476904Y-136445714D01*
X69286428Y-136493333D01*
X69048333Y-136493333D01*
X68857857Y-136445714D01*
X68762619Y-136398095D01*
X68715000Y-136350476D01*
X68667380Y-136255238D01*
G04 #@! TO.C,R4*
X76017380Y-137326666D02*
X75541190Y-137660000D01*
X76017380Y-137898095D02*
X75017380Y-137898095D01*
X75017380Y-137517142D01*
X75065000Y-137421904D01*
X75112619Y-137374285D01*
X75207857Y-137326666D01*
X75350714Y-137326666D01*
X75445952Y-137374285D01*
X75493571Y-137421904D01*
X75541190Y-137517142D01*
X75541190Y-137898095D01*
X75350714Y-136469523D02*
X76017380Y-136469523D01*
X74969761Y-136707619D02*
X75684047Y-136945714D01*
X75684047Y-136326666D01*
X76382619Y-138398095D02*
X76335000Y-138350476D01*
X76287380Y-138255238D01*
X76287380Y-138017142D01*
X76335000Y-137921904D01*
X76382619Y-137874285D01*
X76477857Y-137826666D01*
X76573095Y-137826666D01*
X76715952Y-137874285D01*
X77287380Y-138445714D01*
X77287380Y-137826666D01*
X76382619Y-137445714D02*
X76335000Y-137398095D01*
X76287380Y-137302857D01*
X76287380Y-137064761D01*
X76335000Y-136969523D01*
X76382619Y-136921904D01*
X76477857Y-136874285D01*
X76573095Y-136874285D01*
X76715952Y-136921904D01*
X77287380Y-137493333D01*
X77287380Y-136874285D01*
X76287380Y-136255238D02*
X76287380Y-136160000D01*
X76335000Y-136064761D01*
X76382619Y-136017142D01*
X76477857Y-135969523D01*
X76668333Y-135921904D01*
X76906428Y-135921904D01*
X77096904Y-135969523D01*
X77192142Y-136017142D01*
X77239761Y-136064761D01*
X77287380Y-136160000D01*
X77287380Y-136255238D01*
X77239761Y-136350476D01*
X77192142Y-136398095D01*
X77096904Y-136445714D01*
X76906428Y-136493333D01*
X76668333Y-136493333D01*
X76477857Y-136445714D01*
X76382619Y-136398095D01*
X76335000Y-136350476D01*
X76287380Y-136255238D01*
G04 #@! TO.C,R7*
X93797380Y-137326666D02*
X93321190Y-137660000D01*
X93797380Y-137898095D02*
X92797380Y-137898095D01*
X92797380Y-137517142D01*
X92845000Y-137421904D01*
X92892619Y-137374285D01*
X92987857Y-137326666D01*
X93130714Y-137326666D01*
X93225952Y-137374285D01*
X93273571Y-137421904D01*
X93321190Y-137517142D01*
X93321190Y-137898095D01*
X92797380Y-136993333D02*
X92797380Y-136326666D01*
X93797380Y-136755238D01*
X94162619Y-138398095D02*
X94115000Y-138350476D01*
X94067380Y-138255238D01*
X94067380Y-138017142D01*
X94115000Y-137921904D01*
X94162619Y-137874285D01*
X94257857Y-137826666D01*
X94353095Y-137826666D01*
X94495952Y-137874285D01*
X95067380Y-138445714D01*
X95067380Y-137826666D01*
X94162619Y-137445714D02*
X94115000Y-137398095D01*
X94067380Y-137302857D01*
X94067380Y-137064761D01*
X94115000Y-136969523D01*
X94162619Y-136921904D01*
X94257857Y-136874285D01*
X94353095Y-136874285D01*
X94495952Y-136921904D01*
X95067380Y-137493333D01*
X95067380Y-136874285D01*
X94067380Y-136255238D02*
X94067380Y-136160000D01*
X94115000Y-136064761D01*
X94162619Y-136017142D01*
X94257857Y-135969523D01*
X94448333Y-135921904D01*
X94686428Y-135921904D01*
X94876904Y-135969523D01*
X94972142Y-136017142D01*
X95019761Y-136064761D01*
X95067380Y-136160000D01*
X95067380Y-136255238D01*
X95019761Y-136350476D01*
X94972142Y-136398095D01*
X94876904Y-136445714D01*
X94686428Y-136493333D01*
X94448333Y-136493333D01*
X94257857Y-136445714D01*
X94162619Y-136398095D01*
X94115000Y-136350476D01*
X94067380Y-136255238D01*
G04 #@! TO.C,BT1*
X72874285Y-102798571D02*
X73017142Y-102846190D01*
X73064761Y-102893809D01*
X73112380Y-102989047D01*
X73112380Y-103131904D01*
X73064761Y-103227142D01*
X73017142Y-103274761D01*
X72921904Y-103322380D01*
X72540952Y-103322380D01*
X72540952Y-102322380D01*
X72874285Y-102322380D01*
X72969523Y-102370000D01*
X73017142Y-102417619D01*
X73064761Y-102512857D01*
X73064761Y-102608095D01*
X73017142Y-102703333D01*
X72969523Y-102750952D01*
X72874285Y-102798571D01*
X72540952Y-102798571D01*
X73398095Y-102322380D02*
X73969523Y-102322380D01*
X73683809Y-103322380D02*
X73683809Y-102322380D01*
X74826666Y-103322380D02*
X74255238Y-103322380D01*
X74540952Y-103322380D02*
X74540952Y-102322380D01*
X74445714Y-102465238D01*
X74350476Y-102560476D01*
X74255238Y-102608095D01*
G04 #@! TO.C,D1*
X130071904Y-135492380D02*
X130071904Y-134492380D01*
X130310000Y-134492380D01*
X130452857Y-134540000D01*
X130548095Y-134635238D01*
X130595714Y-134730476D01*
X130643333Y-134920952D01*
X130643333Y-135063809D01*
X130595714Y-135254285D01*
X130548095Y-135349523D01*
X130452857Y-135444761D01*
X130310000Y-135492380D01*
X130071904Y-135492380D01*
X131595714Y-135492380D02*
X131024285Y-135492380D01*
X131310000Y-135492380D02*
X131310000Y-134492380D01*
X131214761Y-134635238D01*
X131119523Y-134730476D01*
X131024285Y-134778095D01*
X126738095Y-135812380D02*
X126738095Y-134812380D01*
X127309523Y-135812380D02*
X126880952Y-135240952D01*
X127309523Y-134812380D02*
X126738095Y-135383809D01*
G04 #@! TO.C,U1*
X102108095Y-131742380D02*
X102108095Y-132551904D01*
X102155714Y-132647142D01*
X102203333Y-132694761D01*
X102298571Y-132742380D01*
X102489047Y-132742380D01*
X102584285Y-132694761D01*
X102631904Y-132647142D01*
X102679523Y-132551904D01*
X102679523Y-131742380D01*
X103679523Y-132742380D02*
X103108095Y-132742380D01*
X103393809Y-132742380D02*
X103393809Y-131742380D01*
X103298571Y-131885238D01*
X103203333Y-131980476D01*
X103108095Y-132028095D01*
G04 #@! TO.C,J1*
X83482380Y-127333333D02*
X84196666Y-127333333D01*
X84339523Y-127380952D01*
X84434761Y-127476190D01*
X84482380Y-127619047D01*
X84482380Y-127714285D01*
X84482380Y-126333333D02*
X84482380Y-126904761D01*
X84482380Y-126619047D02*
X83482380Y-126619047D01*
X83625238Y-126714285D01*
X83720476Y-126809523D01*
X83768095Y-126904761D01*
G04 #@! TO.C,J6*
X93642380Y-127333333D02*
X94356666Y-127333333D01*
X94499523Y-127380952D01*
X94594761Y-127476190D01*
X94642380Y-127619047D01*
X94642380Y-127714285D01*
X93642380Y-126428571D02*
X93642380Y-126619047D01*
X93690000Y-126714285D01*
X93737619Y-126761904D01*
X93880476Y-126857142D01*
X94070952Y-126904761D01*
X94451904Y-126904761D01*
X94547142Y-126857142D01*
X94594761Y-126809523D01*
X94642380Y-126714285D01*
X94642380Y-126523809D01*
X94594761Y-126428571D01*
X94547142Y-126380952D01*
X94451904Y-126333333D01*
X94213809Y-126333333D01*
X94118571Y-126380952D01*
X94070952Y-126428571D01*
X94023333Y-126523809D01*
X94023333Y-126714285D01*
X94070952Y-126809523D01*
X94118571Y-126857142D01*
X94213809Y-126904761D01*
G04 #@! TO.C,J8*
X105922380Y-114633333D02*
X106636666Y-114633333D01*
X106779523Y-114680952D01*
X106874761Y-114776190D01*
X106922380Y-114919047D01*
X106922380Y-115014285D01*
X106350952Y-114014285D02*
X106303333Y-114109523D01*
X106255714Y-114157142D01*
X106160476Y-114204761D01*
X106112857Y-114204761D01*
X106017619Y-114157142D01*
X105970000Y-114109523D01*
X105922380Y-114014285D01*
X105922380Y-113823809D01*
X105970000Y-113728571D01*
X106017619Y-113680952D01*
X106112857Y-113633333D01*
X106160476Y-113633333D01*
X106255714Y-113680952D01*
X106303333Y-113728571D01*
X106350952Y-113823809D01*
X106350952Y-114014285D01*
X106398571Y-114109523D01*
X106446190Y-114157142D01*
X106541428Y-114204761D01*
X106731904Y-114204761D01*
X106827142Y-114157142D01*
X106874761Y-114109523D01*
X106922380Y-114014285D01*
X106922380Y-113823809D01*
X106874761Y-113728571D01*
X106827142Y-113680952D01*
X106731904Y-113633333D01*
X106541428Y-113633333D01*
X106446190Y-113680952D01*
X106398571Y-113728571D01*
X106350952Y-113823809D01*
G04 #@! TO.C,J5*
X70782380Y-127333333D02*
X71496666Y-127333333D01*
X71639523Y-127380952D01*
X71734761Y-127476190D01*
X71782380Y-127619047D01*
X71782380Y-127714285D01*
X70782380Y-126380952D02*
X70782380Y-126857142D01*
X71258571Y-126904761D01*
X71210952Y-126857142D01*
X71163333Y-126761904D01*
X71163333Y-126523809D01*
X71210952Y-126428571D01*
X71258571Y-126380952D01*
X71353809Y-126333333D01*
X71591904Y-126333333D01*
X71687142Y-126380952D01*
X71734761Y-126428571D01*
X71782380Y-126523809D01*
X71782380Y-126761904D01*
X71734761Y-126857142D01*
X71687142Y-126904761D01*
G04 #@! TO.C,J7*
X85602380Y-114633333D02*
X86316666Y-114633333D01*
X86459523Y-114680952D01*
X86554761Y-114776190D01*
X86602380Y-114919047D01*
X86602380Y-115014285D01*
X85602380Y-114252380D02*
X85602380Y-113585714D01*
X86602380Y-114014285D01*
G04 #@! TO.C,Y1*
X88591190Y-137536190D02*
X89067380Y-137536190D01*
X88067380Y-137869523D02*
X88591190Y-137536190D01*
X88067380Y-137202857D01*
X89067380Y-136345714D02*
X89067380Y-136917142D01*
X89067380Y-136631428D02*
X88067380Y-136631428D01*
X88210238Y-136726666D01*
X88305476Y-136821904D01*
X88353095Y-136917142D01*
G04 #@! TO.C,U2*
X68242380Y-121411904D02*
X69051904Y-121411904D01*
X69147142Y-121364285D01*
X69194761Y-121316666D01*
X69242380Y-121221428D01*
X69242380Y-121030952D01*
X69194761Y-120935714D01*
X69147142Y-120888095D01*
X69051904Y-120840476D01*
X68242380Y-120840476D01*
X68337619Y-120411904D02*
X68290000Y-120364285D01*
X68242380Y-120269047D01*
X68242380Y-120030952D01*
X68290000Y-119935714D01*
X68337619Y-119888095D01*
X68432857Y-119840476D01*
X68528095Y-119840476D01*
X68670952Y-119888095D01*
X69242380Y-120459523D01*
X69242380Y-119840476D01*
G04 #@! TO.C,U3*
X130048095Y-121582380D02*
X130048095Y-122391904D01*
X130095714Y-122487142D01*
X130143333Y-122534761D01*
X130238571Y-122582380D01*
X130429047Y-122582380D01*
X130524285Y-122534761D01*
X130571904Y-122487142D01*
X130619523Y-122391904D01*
X130619523Y-121582380D01*
X131000476Y-121582380D02*
X131619523Y-121582380D01*
X131286190Y-121963333D01*
X131429047Y-121963333D01*
X131524285Y-122010952D01*
X131571904Y-122058571D01*
X131619523Y-122153809D01*
X131619523Y-122391904D01*
X131571904Y-122487142D01*
X131524285Y-122534761D01*
X131429047Y-122582380D01*
X131143333Y-122582380D01*
X131048095Y-122534761D01*
X131000476Y-122487142D01*
G04 #@! TD*
M02*
