M48
;DRILL file {KiCad (5.0.1)-3} date 30/10/2019 14:47:07
;FORMAT={-:-/ absolute / metric / decimal}
FMAT,2
METRIC,TZ
T1C1.397
T2C2.200
T3C3.200
%
G90
G05
M71
T1
X106.759Y-164.478
X116.761Y-164.478
X83.899Y-164.478
X93.901Y-164.478
T2
X113.1Y-37.
X121.9Y-37.015
X61.6Y-61.58
X70.4Y-61.595
X114.94Y-61.58
X123.74Y-61.595
X76.84Y-61.58
X85.64Y-61.595
X130.18Y-61.58
X138.98Y-61.595
T3
X60.Y-105.
X130.Y-160.
X70.Y-160.
X100.Y-50.
X140.Y-105.
X140.Y-35.
X100.Y-80.
X60.Y-35.
T0
M30
